<svg xmlns="http://www.w3.org/2000/svg" viewBox="0 0 800 230" style="font-family:system-ui,-apple-system,sans-serif">
  <line x1="42" y1="182.0" x2="377" y2="182.0" stroke="#e5e7eb" stroke-width="0.7"/>
  <text x="37" y="186.0" text-anchor="end" font-size="10" fill="#6b7280">0</text>
  <line x1="42" y1="95.0" x2="377" y2="95.0" stroke="#e5e7eb" stroke-width="0.7"/>
  <text x="37" y="99.0" text-anchor="end" font-size="10" fill="#6b7280">0.5</text>
  <line x1="42" y1="8.0" x2="377" y2="8.0" stroke="#e5e7eb" stroke-width="0.7"/>
  <text x="37" y="12.0" text-anchor="end" font-size="10" fill="#6b7280">1</text>
  <line x1="42.0" y1="8" x2="42.0" y2="182" stroke="#e5e7eb" stroke-width="0.7"/>
  <text x="42.0" y="198" text-anchor="middle" font-size="10" fill="#6b7280">0</text>
  <line x1="209.5" y1="8" x2="209.5" y2="182" stroke="#e5e7eb" stroke-width="0.7"/>
  <text x="209.5" y="198" text-anchor="middle" font-size="10" fill="#6b7280">0.5</text>
  <line x1="377.0" y1="8" x2="377.0" y2="182" stroke="#e5e7eb" stroke-width="0.7"/>
  <text x="377.0" y="198" text-anchor="middle" font-size="10" fill="#6b7280">1</text>
  <line x1="42" y1="8" x2="42" y2="182" stroke="#d1d5db" stroke-width="1"/>
  <line x1="42" y1="182" x2="377" y2="182" stroke="#d1d5db" stroke-width="1"/>
  <path d="M42.0,182.0 42.0,182.0 43.3,181.7 44.6,181.3 45.9,180.8 47.3,180.4 48.6,179.9 49.9,179.3 51.2,178.7 52.5,178.1 53.8,177.4 55.1,176.7 56.5,176.0 57.8,175.2 59.1,174.4 60.4,173.5 61.7,172.6 63.0,171.7 64.3,170.7 65.6,169.7 67.0,168.7 68.3,167.6 69.6,166.5 70.9,165.3 72.2,164.1 73.5,162.9 74.8,161.7 76.2,160.4 77.5,159.1 78.8,157.7 80.1,156.3 81.4,154.9 82.7,153.5 84.0,152.0 85.4,150.5 86.7,149.0 88.0,147.4 89.3,145.9 90.6,144.3 91.9,142.6 93.2,141.0 94.5,139.3 95.9,137.6 97.2,135.9 98.5,134.1 99.8,132.4 101.1,130.6 102.4,128.8 103.7,127.0 105.1,125.2 106.4,123.3 107.7,121.5 109.0,119.6 110.3,117.7 111.6,115.8 112.9,113.9 114.3,112.0 115.6,110.1 116.9,108.2 118.2,106.2 119.5,104.3 120.8,102.3 122.1,100.4 123.5,98.4 124.8,96.5 126.1,94.5 127.4,92.6 128.7,90.6 130.0,88.6 131.3,86.7 132.6,84.8 134.0,82.8 135.3,80.9 136.6,78.9 137.9,77.0 139.2,75.1 140.5,73.2 141.8,71.3 143.2,69.5 144.5,67.6 145.8,65.7 147.1,63.9 148.4,62.1 149.7,60.3 151.0,58.5 152.4,56.7 153.7,55.0 155.0,53.3 156.3,51.5 157.6,49.9 158.9,48.2 160.2,46.6 161.5,44.9 162.9,43.4 164.2,41.8 165.5,40.2 166.8,38.7 168.1,37.3 169.4,35.8 170.7,34.4 172.1,33.0 173.4,31.6 174.7,30.3 176.0,29.0 177.3,27.7 178.6,26.5 179.9,25.3 181.3,24.1 182.6,23.0 183.9,21.9 185.2,20.8 186.5,19.8 187.8,18.8 189.1,17.8 190.5,16.9 191.8,16.0 193.1,15.2 194.4,14.4 195.7,13.6 197.0,12.9 198.3,12.2 199.6,11.6 201.0,11.0 202.3,10.4 203.6,9.9 204.9,9.4 206.2,8.9 207.5,8.5 208.8,8.2 210.2,8.2 211.5,8.5 212.8,8.9 214.1,9.4 215.4,9.9 216.7,10.4 218.0,11.0 219.4,11.6 220.7,12.2 222.0,12.9 223.3,13.6 224.6,14.4 225.9,15.2 227.2,16.0 228.5,16.9 229.9,17.8 231.2,18.8 232.5,19.8 233.8,20.8 235.1,21.9 236.4,23.0 237.7,24.1 239.1,25.3 240.4,26.5 241.7,27.7 243.0,29.0 244.3,30.3 245.6,31.6 246.9,33.0 248.3,34.4 249.6,35.8 250.9,37.3 252.2,38.7 253.5,40.2 254.8,41.8 256.1,43.4 257.5,44.9 258.8,46.6 260.1,48.2 261.4,49.9 262.7,51.5 264.0,53.3 265.3,55.0 266.6,56.7 268.0,58.5 269.3,60.3 270.6,62.1 271.9,63.9 273.2,65.7 274.5,67.6 275.8,69.5 277.2,71.3 278.5,73.2 279.8,75.1 281.1,77.0 282.4,78.9 283.7,80.9 285.0,82.8 286.4,84.8 287.7,86.7 289.0,88.6 290.3,90.6 291.6,92.6 292.9,94.5 294.2,96.5 295.5,98.4 296.9,100.4 298.2,102.3 299.5,104.3 300.8,106.2 302.1,108.2 303.4,110.1 304.7,112.0 306.1,113.9 307.4,115.8 308.7,117.7 310.0,119.6 311.3,121.5 312.6,123.3 313.9,125.2 315.3,127.0 316.6,128.8 317.9,130.6 319.2,132.4 320.5,134.1 321.8,135.9 323.1,137.6 324.5,139.3 325.8,141.0 327.1,142.6 328.4,144.3 329.7,145.9 331.0,147.4 332.3,149.0 333.6,150.5 335.0,152.0 336.3,153.5 337.6,154.9 338.9,156.3 340.2,157.7 341.5,159.1 342.8,160.4 344.2,161.7 345.5,162.9 346.8,164.1 348.1,165.3 349.4,166.5 350.7,167.6 352.0,168.7 353.4,169.7 354.7,170.7 356.0,171.7 357.3,172.6 358.6,173.5 359.9,174.4 361.2,175.2 362.5,176.0 363.9,176.7 365.2,177.4 366.5,178.1 367.8,178.7 369.1,179.3 370.4,179.9 371.7,180.4 373.1,180.8 374.4,181.3 375.7,181.7 377.0,182.0 L377.0,182.0 Z" fill="#4a90d9" fill-opacity="0.06"/>
  <polyline points="42.0,182.0 43.3,181.7 44.6,181.3 45.9,180.8 47.3,180.4 48.6,179.9 49.9,179.3 51.2,178.7 52.5,178.1 53.8,177.4 55.1,176.7 56.5,176.0 57.8,175.2 59.1,174.4 60.4,173.5 61.7,172.6 63.0,171.7 64.3,170.7 65.6,169.7 67.0,168.7 68.3,167.6 69.6,166.5 70.9,165.3 72.2,164.1 73.5,162.9 74.8,161.7 76.2,160.4 77.5,159.1 78.8,157.7 80.1,156.3 81.4,154.9 82.7,153.5 84.0,152.0 85.4,150.5 86.7,149.0 88.0,147.4 89.3,145.9 90.6,144.3 91.9,142.6 93.2,141.0 94.5,139.3 95.9,137.6 97.2,135.9 98.5,134.1 99.8,132.4 101.1,130.6 102.4,128.8 103.7,127.0 105.1,125.2 106.4,123.3 107.7,121.5 109.0,119.6 110.3,117.7 111.6,115.8 112.9,113.9 114.3,112.0 115.6,110.1 116.9,108.2 118.2,106.2 119.5,104.3 120.8,102.3 122.1,100.4 123.5,98.4 124.8,96.5 126.1,94.5 127.4,92.6 128.7,90.6 130.0,88.6 131.3,86.7 132.6,84.8 134.0,82.8 135.3,80.9 136.6,78.9 137.9,77.0 139.2,75.1 140.5,73.2 141.8,71.3 143.2,69.5 144.5,67.6 145.8,65.7 147.1,63.9 148.4,62.1 149.7,60.3 151.0,58.5 152.4,56.7 153.7,55.0 155.0,53.3 156.3,51.5 157.6,49.9 158.9,48.2 160.2,46.6 161.5,44.9 162.9,43.4 164.2,41.8 165.5,40.2 166.8,38.7 168.1,37.3 169.4,35.8 170.7,34.4 172.1,33.0 173.4,31.6 174.7,30.3 176.0,29.0 177.3,27.7 178.6,26.5 179.9,25.3 181.3,24.1 182.6,23.0 183.9,21.9 185.2,20.8 186.5,19.8 187.8,18.8 189.1,17.8 190.5,16.9 191.8,16.0 193.1,15.2 194.4,14.4 195.7,13.6 197.0,12.9 198.3,12.2 199.6,11.6 201.0,11.0 202.3,10.4 203.6,9.9 204.9,9.4 206.2,8.9 207.5,8.5 208.8,8.2 210.2,8.2 211.5,8.5 212.8,8.9 214.1,9.4 215.4,9.9 216.7,10.4 218.0,11.0 219.4,11.6 220.7,12.2 222.0,12.9 223.3,13.6 224.6,14.4 225.9,15.2 227.2,16.0 228.5,16.9 229.9,17.8 231.2,18.8 232.5,19.8 233.8,20.8 235.1,21.9 236.4,23.0 237.7,24.1 239.1,25.3 240.4,26.5 241.7,27.7 243.0,29.0 244.3,30.3 245.6,31.6 246.9,33.0 248.3,34.4 249.6,35.8 250.9,37.3 252.2,38.7 253.5,40.2 254.8,41.8 256.1,43.4 257.5,44.9 258.8,46.6 260.1,48.2 261.4,49.9 262.7,51.5 264.0,53.3 265.3,55.0 266.6,56.7 268.0,58.5 269.3,60.3 270.6,62.1 271.9,63.9 273.2,65.7 274.5,67.6 275.8,69.5 277.2,71.3 278.5,73.2 279.8,75.1 281.1,77.0 282.4,78.9 283.7,80.9 285.0,82.8 286.4,84.8 287.7,86.7 289.0,88.6 290.3,90.6 291.6,92.6 292.9,94.5 294.2,96.5 295.5,98.4 296.9,100.4 298.2,102.3 299.5,104.3 300.8,106.2 302.1,108.2 303.4,110.1 304.7,112.0 306.1,113.9 307.4,115.8 308.7,117.7 310.0,119.6 311.3,121.5 312.6,123.3 313.9,125.2 315.3,127.0 316.6,128.8 317.9,130.6 319.2,132.4 320.5,134.1 321.8,135.9 323.1,137.6 324.5,139.3 325.8,141.0 327.1,142.6 328.4,144.3 329.7,145.9 331.0,147.4 332.3,149.0 333.6,150.5 335.0,152.0 336.3,153.5 337.6,154.9 338.9,156.3 340.2,157.7 341.5,159.1 342.8,160.4 344.2,161.7 345.5,162.9 346.8,164.1 348.1,165.3 349.4,166.5 350.7,167.6 352.0,168.7 353.4,169.7 354.7,170.7 356.0,171.7 357.3,172.6 358.6,173.5 359.9,174.4 361.2,175.2 362.5,176.0 363.9,176.7 365.2,177.4 366.5,178.1 367.8,178.7 369.1,179.3 370.4,179.9 371.7,180.4 373.1,180.8 374.4,181.3 375.7,181.7 377.0,182.0" fill="none" stroke="#4a90d9" stroke-width="1.5" stroke-linejoin="round"/>
  <line x1="450" y1="8.0" x2="785" y2="8.0" stroke="#e5e7eb" stroke-width="0.7"/>
  <text x="445" y="12.0" text-anchor="end" font-size="10" fill="#6b7280">0</text>
  <line x1="450" y1="66.0" x2="785" y2="66.0" stroke="#e5e7eb" stroke-width="0.7"/>
  <text x="445" y="70.0" text-anchor="end" font-size="10" fill="#6b7280">-40</text>
  <line x1="450" y1="124.0" x2="785" y2="124.0" stroke="#e5e7eb" stroke-width="0.7"/>
  <text x="445" y="128.0" text-anchor="end" font-size="10" fill="#6b7280">-80</text>
  <line x1="450" y1="182.0" x2="785" y2="182.0" stroke="#e5e7eb" stroke-width="0.7"/>
  <text x="445" y="186.0" text-anchor="end" font-size="10" fill="#6b7280">-120</text>
  <line x1="450.0" y1="8" x2="450.0" y2="182" stroke="#e5e7eb" stroke-width="0.7"/>
  <text x="450.0" y="198" text-anchor="middle" font-size="10" fill="#6b7280">0</text>
  <line x1="517.0" y1="8" x2="517.0" y2="182" stroke="#e5e7eb" stroke-width="0.7"/>
  <text x="517.0" y="198" text-anchor="middle" font-size="10" fill="#6b7280">0.1</text>
  <line x1="584.0" y1="8" x2="584.0" y2="182" stroke="#e5e7eb" stroke-width="0.7"/>
  <text x="584.0" y="198" text-anchor="middle" font-size="10" fill="#6b7280">0.2</text>
  <line x1="651.0" y1="8" x2="651.0" y2="182" stroke="#e5e7eb" stroke-width="0.7"/>
  <text x="651.0" y="198" text-anchor="middle" font-size="10" fill="#6b7280">0.3</text>
  <line x1="718.0" y1="8" x2="718.0" y2="182" stroke="#e5e7eb" stroke-width="0.7"/>
  <text x="718.0" y="198" text-anchor="middle" font-size="10" fill="#6b7280">0.4</text>
  <line x1="785.0" y1="8" x2="785.0" y2="182" stroke="#e5e7eb" stroke-width="0.7"/>
  <text x="785.0" y="198" text-anchor="middle" font-size="10" fill="#6b7280">0.5</text>
  <line x1="450" y1="8" x2="450" y2="182" stroke="#d1d5db" stroke-width="1"/>
  <line x1="450" y1="182" x2="785" y2="182" stroke="#d1d5db" stroke-width="1"/>
  <polyline points="450.0,8.0 450.2,8.0 450.3,8.1 450.5,8.3 450.7,8.5 450.8,8.8 451.0,9.2 451.1,9.7 451.3,10.2 451.5,10.8 451.6,11.4 451.8,12.2 452.0,13.0 452.1,13.9 452.3,14.9 452.5,16.0 452.6,17.2 452.8,18.5 452.9,20.0 453.1,21.5 453.3,23.2 453.4,25.0 453.6,27.0 453.8,29.2 453.9,31.6 454.1,34.3 454.3,37.3 454.4,40.7 454.6,44.7 454.7,49.6 454.9,56.0 455.1,65.6 455.2,95.0 455.4,72.3 455.6,64.7 455.7,61.6 455.9,60.2 456.1,60.1 456.2,60.8 456.4,62.3 456.5,64.7 456.7,68.4 456.9,74.2 457.0,85.8 457.2,95.2 457.4,78.0 457.5,71.5 457.7,67.8 457.9,65.4 458.0,63.8 458.2,62.9 458.3,62.4 458.5,62.3 458.7,62.6 458.8,63.2 459.0,64.2 459.2,65.5 459.3,67.2 459.5,69.3 459.7,71.9 459.8,75.2 460.0,79.3 460.1,84.9 460.3,93.5 460.5,115.3 460.6,102.8 460.8,94.0 461.0,90.6 461.1,89.4 461.3,89.6 461.5,91.4 461.6,95.1 461.8,102.8 461.9,176.9 462.1,101.5 462.3,92.6 462.4,87.4 462.6,83.9 462.8,81.4 462.9,79.5 463.1,78.2 463.3,77.3 463.4,76.8 463.6,76.6 463.7,76.7 463.9,77.1 464.1,77.8 464.2,78.8 464.4,80.2 464.6,81.9 464.7,84.0 464.9,86.6 465.1,89.8 465.2,93.9 465.4,99.4 465.5,107.6 465.7,125.9 465.9,120.6 466.0,111.0 466.2,107.9 466.4,107.5 466.5,109.4 466.7,114.8 466.9,133.9 467.0,118.4 467.2,106.9 467.3,100.7 467.5,96.4 467.7,93.2 467.8,90.9 468.0,89.0 468.2,87.7 468.3,86.7 468.5,86.0 468.7,85.7 468.8,85.6 469.0,85.8 469.1,86.3 469.3,87.1 469.5,88.2 469.6,89.6 469.8,91.3 470.0,93.5 470.1,96.1 470.3,99.4 470.5,103.5 470.6,109.0 470.8,117.0 470.9,133.3 471.1,133.7 471.3,123.3 471.4,120.7 471.6,121.6 471.8,127.0 471.9,156.2 472.1,125.6 472.3,115.0 472.4,108.8 472.6,104.4 472.7,101.1 472.9,98.6 473.1,96.6 473.2,95.0 473.4,93.9 473.6,93.0 473.7,92.5 473.9,92.2 474.1,92.2 474.2,92.5 474.4,93.1 474.5,93.9 474.7,95.0 474.9,96.4 475.0,98.2 475.2,100.4 475.4,103.1 475.5,106.4 475.7,110.6 475.9,116.1 476.0,124.0 476.2,139.1 476.3,144.2 476.5,132.8 476.7,130.8 476.8,133.8 477.0,148.4 477.2,137.4 477.3,124.2 477.5,117.0 477.7,112.0 477.8,108.3 478.0,105.4 478.1,103.1 478.3,101.3 478.5,99.9 478.6,98.8 478.8,98.1 479.0,97.6 479.1,97.4 479.3,97.5 479.5,97.8 479.6,98.4 479.8,99.2 479.9,100.4 480.1,101.8 480.3,103.6 480.4,105.8 480.6,108.5 480.8,111.9 480.9,116.1 481.1,121.6 481.3,129.4 481.4,143.7 481.6,152.9 481.7,140.4 481.9,139.1 482.1,144.9 482.2,162.0 482.4,135.4 482.6,125.9 482.7,119.8 482.9,115.4 483.1,111.9 483.2,109.2 483.4,107.1 483.5,105.4 483.7,104.0 483.9,103.0 484.0,102.3 484.2,101.9 484.4,101.7 484.5,101.8 484.7,102.1 484.9,102.7 485.0,103.6 485.2,104.7 485.3,106.2 485.5,108.0 485.7,110.2 485.8,113.0 486.0,116.3 486.2,120.5 486.3,126.0 486.5,133.8 486.7,147.6 486.8,160.0 487.0,146.5 487.1,145.9 487.3,155.2 487.5,152.8 487.6,136.5 487.8,128.3 488.0,122.7 488.1,118.5 488.3,115.3 488.5,112.7 488.6,110.6 488.8,108.9 488.9,107.6 489.1,106.6 489.3,105.9 489.4,105.5 489.6,105.3 489.8,105.4 489.9,105.8 490.1,106.4 490.3,107.3 490.4,108.4 490.6,109.9 490.7,111.7 490.9,114.0 491.1,116.7 491.2,120.0 491.4,124.3 491.6,129.7 491.7,137.5 491.9,151.0 492.1,165.6 492.2,151.3 492.4,151.2 492.6,164.5 492.7,152.3 492.9,138.5 493.0,130.9 493.2,125.5 493.4,121.5 493.5,118.3 493.7,115.7 493.9,113.7 494.0,112.0 494.2,110.8 494.4,109.8 494.5,109.1 494.7,108.7 494.8,108.5 495.0,108.6 495.2,109.0 495.3,109.6 495.5,110.4 495.7,111.6 495.8,113.1 496.0,114.9 496.2,117.1 496.3,119.9 496.5,123.2 496.6,127.4 496.8,132.9 497.0,140.6 497.1,154.0 497.3,169.8 497.5,155.0 497.6,155.3 497.8,171.7 498.0,153.8 498.1,140.9 498.3,133.5 498.4,128.2 498.6,124.2 498.8,121.1 498.9,118.5 499.1,116.5 499.3,114.9 499.4,113.6 499.6,112.6 499.8,111.9 499.9,111.5 500.1,111.3 500.2,111.4 500.4,111.8 500.6,112.4 500.7,113.2 500.9,114.4 501.1,115.9 501.2,117.7 501.4,119.9 501.6,122.6 501.7,126.0 501.9,130.2 502.0,135.7 502.2,143.4 502.4,156.7 502.5,172.8 502.7,157.8 502.9,158.1 503.0,175.4 503.2,156.2 503.4,143.5 503.5,136.1 503.7,130.8 503.8,126.8 504.0,123.7 504.2,121.1 504.3,119.1 504.5,117.4 504.7,116.1 504.8,115.2 505.0,114.5 505.2,114.0 505.3,113.9 505.5,114.0 505.6,114.3 505.8,114.9 506.0,115.7 506.1,116.9 506.3,118.3 506.5,120.1 506.6,122.4 506.8,125.1 507.0,128.4 507.1,132.6 507.3,138.1 507.4,145.8 507.6,159.1 507.8,174.8 507.9,160.0 508.1,160.1 508.3,175.8 508.4,159.1 508.6,146.1 508.8,138.6 508.9,133.3 509.1,129.3 509.2,126.1 509.4,123.5 509.6,121.5 509.7,119.8 509.9,118.5 510.1,117.5 510.2,116.8 510.4,116.4 510.6,116.2 510.7,116.2 510.9,116.6 511.0,117.1 511.2,118.0 511.4,119.1 511.5,120.5 511.7,122.3 511.9,124.5 512.0,127.2 512.2,130.6 512.4,134.7 512.5,140.2 512.7,147.9 512.8,161.4 513.0,176.0 513.2,161.6 513.3,161.5 513.5,174.5 513.7,162.7 513.8,148.8 514.0,141.1 514.2,135.7 514.3,131.6 514.5,128.4 514.6,125.8 514.8,123.7 515.0,122.0 515.1,120.7 515.3,119.7 515.5,118.9 515.6,118.5 515.8,118.3 516.0,118.3 516.1,118.6 516.3,119.2 516.4,120.0 516.6,121.1 516.8,122.6 516.9,124.3 517.1,126.5 517.3,129.2 517.4,132.5 517.6,136.7 517.8,142.1 517.9,149.8 518.1,163.4 518.2,176.8 518.4,162.8 518.6,162.3 518.7,172.8 518.9,166.9 519.1,151.6 519.2,143.5 519.4,138.0 519.6,133.8 519.7,130.5 519.9,127.9 520.0,125.7 520.2,124.0 520.4,122.7 520.5,121.6 520.7,120.9 520.9,120.4 521.0,120.2 521.2,120.2 521.4,120.5 521.5,121.1 521.7,121.9 521.8,123.0 522.0,124.4 522.2,126.2 522.3,128.3 522.5,131.0 522.7,134.3 522.8,138.4 523.0,143.8 523.2,151.5 523.3,165.3 523.5,177.2 523.6,163.8 523.8,162.9 524.0,171.2 524.1,172.1 524.3,154.5 524.5,146.0 524.6,140.2 524.8,135.9 525.0,132.6 525.1,129.9 525.3,127.7 525.4,125.9 525.6,124.6 525.8,123.5 525.9,122.7 526.1,122.2 526.3,122.0 526.4,122.0 526.6,122.3 526.8,122.8 526.9,123.6 527.1,124.7 527.2,126.1 527.4,127.8 527.6,130.0 527.7,132.6 527.9,135.9 528.1,140.0 528.2,145.4 528.4,153.1 528.6,167.1 528.7,177.5 528.9,164.5 529.0,163.3 529.2,169.8 529.4,179.5 529.5,157.5 529.7,148.4 529.9,142.4 530.0,138.0 530.2,134.5 530.4,131.8 530.5,129.5 530.7,127.8 530.8,126.3 531.0,125.3 531.2,124.5 531.3,123.9 531.5,123.7 531.7,123.7 531.8,123.9 532.0,124.4 532.2,125.2 532.3,126.3 532.5,127.6 532.6,129.4 532.8,131.5 533.0,134.1 533.1,137.3 533.3,141.4 533.5,146.8 533.6,154.6 533.8,168.8 534.0,177.7 534.1,165.1 534.3,163.6 534.4,168.6 534.6,182.0 534.8,160.8 534.9,150.9 535.1,144.6 535.3,140.0 535.4,136.4 535.6,133.6 535.8,131.3 535.9,129.5 536.1,128.0 536.2,126.9 536.4,126.1 536.6,125.5 536.7,125.3 536.9,125.2 537.1,125.5 537.2,125.9 537.4,126.7 537.6,127.7 537.7,129.1 537.9,130.8 538.0,132.9 538.2,135.5 538.4,138.7 538.5,142.8 538.7,148.2 538.9,155.9 539.0,170.4 539.2,177.8 539.4,165.6 539.5,163.8 539.7,167.7 539.8,182.0 540.0,164.5 540.2,153.4 540.3,146.7 540.5,141.9 540.7,138.2 540.8,135.3 541.0,133.0 541.2,131.1 541.3,129.6 541.5,128.5 541.6,127.6 541.8,127.0 542.0,126.7 542.1,126.7 542.3,126.9 542.5,127.4 542.6,128.1 542.8,129.1 543.0,130.4 543.1,132.1 543.3,134.2 543.4,136.8 543.6,140.0 543.8,144.0 543.9,149.4 544.1,157.1 544.3,171.8 544.4,177.8 544.6,166.0 544.8,163.9 544.9,167.0 545.1,182.0 545.2,168.7 545.4,156.0 545.6,148.9 545.7,143.8 545.9,140.0 546.1,137.0 546.2,134.6 546.4,132.7 546.6,131.1 546.7,130.0 546.9,129.1 547.0,128.5 547.2,128.1 547.4,128.1 547.5,128.2 547.7,128.7 547.9,129.4 548.0,130.4 548.2,131.7 548.4,133.3 548.5,135.4 548.7,138.0 548.8,141.1 549.0,145.2 549.2,150.5 549.3,158.3 549.5,173.3 549.7,177.9 549.8,166.3 550.0,164.0 550.2,166.3 550.3,177.6 550.5,174.0 550.6,158.8 550.8,151.0 551.0,145.7 551.1,141.8 551.3,138.6 551.5,136.2 551.6,134.2 551.8,132.6 552.0,131.4 552.1,130.5 552.3,129.8 552.4,129.5 552.6,129.4 552.8,129.5 552.9,129.9 553.1,130.6 553.3,131.6 553.4,132.9 553.6,134.5 553.8,136.5 553.9,139.1 554.1,142.2 554.2,146.2 554.4,151.5 554.6,159.3 554.7,174.6 554.9,177.9 555.1,166.6 555.2,164.1 555.4,165.8 555.6,174.2 555.7,181.3 555.9,161.7 556.0,153.2 556.2,147.6 556.4,143.5 556.5,140.2 556.7,137.7 556.9,135.6 557.0,134.0 557.2,132.7 557.4,131.8 557.5,131.1 557.7,130.7 557.8,130.6 558.0,130.7 558.2,131.1 558.3,131.8 558.5,132.7 558.7,134.0 558.8,135.6 559.0,137.6 559.2,140.1 559.3,143.2 559.5,147.2 559.6,152.5 559.8,160.3 560.0,175.9 560.1,177.9 560.3,166.9 560.5,164.2 560.6,165.4 560.8,171.9 561.0,182.0 561.1,165.0 561.3,155.5 561.4,149.5 561.6,145.1 561.8,141.8 561.9,139.1 562.1,137.0 562.3,135.3 562.4,134.0 562.6,133.0 562.8,132.3 562.9,131.9 563.1,131.8 563.2,131.9 563.4,132.2 563.6,132.9 563.7,133.8 563.9,135.0 564.1,136.6 564.2,138.6 564.4,141.1 564.6,144.2 564.7,148.2 564.9,153.4 565.0,161.3 565.2,177.2 565.4,178.0 565.5,167.2 565.7,164.3 565.9,165.0 566.0,170.2 566.2,182.0 566.4,168.7 566.5,157.8 566.7,151.4 566.8,146.8 567.0,143.3 567.2,140.6 567.3,138.4 567.5,136.7 567.7,135.3 567.8,134.3 568.0,133.5 568.2,133.1 568.3,132.9 568.5,133.0 568.6,133.3 568.8,133.9 569.0,134.8 569.1,136.0 569.3,137.6 569.5,139.6 569.6,142.0 569.8,145.1 570.0,149.0 570.1,154.3 570.3,162.1 570.4,178.4 570.6,178.0 570.8,167.4 570.9,164.4 571.1,164.8 571.3,168.8 571.4,182.0 571.6,173.2 571.8,160.3 571.9,153.3 572.1,148.5 572.2,144.8 572.4,142.0 572.6,139.7 572.7,137.9 572.9,136.5 573.1,135.4 573.2,134.7 573.4,134.2 573.6,134.0 573.7,134.0 573.9,134.3 574.0,134.9 574.2,135.8 574.4,137.0 574.5,138.5 574.7,140.5 574.9,142.9 575.0,145.9 575.2,149.9 575.4,155.1 575.5,163.0 575.7,179.5 575.9,178.0 576.0,167.6 576.2,164.5 576.3,164.5 576.5,167.8 576.7,178.7 576.8,179.0 577.0,163.0 577.2,155.3 577.3,150.2 577.5,146.3 577.7,143.4 577.8,141.0 578.0,139.1 578.1,137.7 578.3,136.6 578.5,135.8 578.6,135.2 578.8,135.0 579.0,135.0 579.1,135.3 579.3,135.9 579.5,136.7 579.6,137.9 579.8,139.4 579.9,141.3 580.1,143.7 580.3,146.7 580.4,150.6 580.6,155.9 580.8,163.7 580.9,180.6 581.1,178.1 581.3,167.8 581.4,164.5 581.6,164.3 581.7,167.0 581.9,175.2 582.1,182.0 582.2,166.0 582.4,157.4 582.6,151.8 582.7,147.8 582.9,144.7 583.1,142.3 583.2,140.3 583.4,138.8 583.5,137.7 583.7,136.8 583.9,136.3 584.0,136.0 584.2,136.0 584.4,136.3 584.5,136.8 584.7,137.6 584.9,138.8 585.0,140.2 585.2,142.1 585.3,144.5 585.5,147.5 585.7,151.4 585.8,156.6 586.0,164.5 586.2,181.7 586.3,178.1 586.5,168.0 586.7,164.6 586.8,164.1 587.0,166.3 587.1,172.8 587.3,182.0 587.5,169.3 587.6,159.5 587.8,153.6 588.0,149.3 588.1,146.1 588.3,143.5 588.5,141.5 588.6,139.9 588.8,138.7 588.9,137.8 589.1,137.3 589.3,136.9 589.4,136.9 589.6,137.1 589.8,137.7 589.9,138.5 590.1,139.6 590.3,141.0 590.4,142.9 590.6,145.3 590.7,148.2 590.9,152.1 591.1,157.3 591.2,165.2 591.4,182.0 591.6,178.2 591.7,168.1 591.9,164.7 592.1,164.0 592.2,165.7 592.4,170.9 592.5,182.0 592.7,173.3 592.9,161.8 593.0,155.3 593.2,150.8 593.4,147.4 593.5,144.7 593.7,142.7 593.9,141.0 594.0,139.8 594.2,138.8 594.3,138.2 594.5,137.9 594.7,137.8 594.8,138.0 595.0,138.5 595.2,139.3 595.3,140.4 595.5,141.8 595.7,143.6 595.8,146.0 596.0,148.9 596.1,152.7 596.3,157.9 596.5,165.8 596.6,182.0 596.8,178.2 597.0,168.3 597.1,164.7 597.3,163.9 597.5,165.2 597.6,169.5 597.8,182.0 597.9,178.5 598.1,164.3 598.3,157.1 598.4,152.3 598.6,148.7 598.8,146.0 598.9,143.8 599.1,142.1 599.3,140.8 599.4,139.8 599.6,139.1 599.7,138.8 599.9,138.7 600.1,138.8 600.2,139.3 600.4,140.0 600.6,141.1 600.7,142.5 600.9,144.3 601.1,146.6 601.2,149.6 601.4,153.4 601.5,158.5 601.7,166.5 601.9,182.0 602.0,178.2 602.2,168.4 602.4,164.8 602.5,163.8 602.7,164.8 602.9,168.4 603.0,177.9 603.2,182.0 603.3,167.0 603.5,159.0 603.7,153.8 603.8,150.1 604.0,147.2 604.2,144.9 604.3,143.1 604.5,141.7 604.7,140.7 604.8,140.0 605.0,139.6 605.1,139.5 605.3,139.6 605.5,140.1 605.6,140.8 605.8,141.8 606.0,143.2 606.1,145.0 606.3,147.3 606.5,150.2 606.6,154.0 606.8,159.1 606.9,167.1 607.1,182.0 607.3,178.3 607.4,168.6 607.6,164.9 607.8,163.7 607.9,164.4 608.1,167.4 608.3,174.9 608.4,182.0 608.6,170.1 608.7,161.0 608.9,155.4 609.1,151.4 609.2,148.4 609.4,146.0 609.6,144.1 609.7,142.7 609.9,141.6 610.1,140.9 610.2,140.5 610.4,140.3 610.5,140.4 610.7,140.8 610.9,141.5 611.0,142.5 611.2,143.9 611.4,145.6 611.5,147.9 611.7,150.8 611.9,154.5 612.0,159.7 612.2,167.6 612.3,182.0 612.5,178.3 612.7,168.7 612.8,164.9 613.0,163.6 613.2,164.1 613.3,166.6 613.5,172.7 613.7,182.0 613.8,173.8 614.0,163.1 614.1,157.0 614.3,152.7 614.5,149.5 614.6,147.1 614.8,145.1 615.0,143.7 615.1,142.5 615.3,141.7 615.5,141.3 615.6,141.1 615.8,141.2 615.9,141.5 616.1,142.2 616.3,143.2 616.4,144.5 616.6,146.3 616.8,148.5 616.9,151.3 617.1,155.1 617.3,160.2 617.4,168.2 617.6,182.0 617.7,178.4 617.9,168.8 618.1,165.0 618.2,163.6 618.4,163.8 618.6,165.9 618.7,171.0 618.9,182.0 619.1,178.5 619.2,165.4 619.4,158.7 619.5,154.1 619.7,150.7 619.9,148.2 620.0,146.1 620.2,144.6 620.4,143.4 620.5,142.6 620.7,142.1 620.9,141.8 621.0,141.9 621.2,142.2 621.3,142.9 621.5,143.8 621.7,145.1 621.8,146.8 622.0,149.1 622.2,151.9 622.3,155.6 622.5,160.7 622.7,168.7 622.8,182.0 623.0,178.4 623.1,168.9 623.3,165.0 623.5,163.5 623.6,163.6 623.8,165.3 624.0,169.6 624.1,180.2 624.3,182.0 624.5,168.0 624.6,160.4 624.8,155.5 624.9,152.0 625.1,149.2 625.3,147.1 625.4,145.5 625.6,144.3 625.8,143.4 625.9,142.8 626.1,142.6 626.3,142.6 626.4,142.9 626.6,143.5 626.7,144.4 626.9,145.7 627.1,147.4 627.2,149.6 627.4,152.4 627.6,156.1 627.7,161.2 627.9,169.2 628.1,182.0 628.2,178.5 628.4,169.0 628.5,165.1 628.7,163.4 628.9,163.4 629.0,164.8 629.2,168.4 629.4,176.7 629.5,182.0 629.7,170.9 629.9,162.3 630.0,157.0 630.2,153.2 630.3,150.3 630.5,148.1 630.7,146.4 630.8,145.1 631.0,144.2 631.2,143.6 631.3,143.3 631.5,143.3 631.7,143.5 631.8,144.1 632.0,145.0 632.1,146.3 632.3,148.0 632.5,150.1 632.6,152.9 632.8,156.6 633.0,161.7 633.1,169.7 633.3,182.0 633.5,178.5 633.6,169.1 633.8,165.1 633.9,163.4 634.1,163.2 634.3,164.4 634.4,167.4 634.6,174.1 634.8,182.0 634.9,174.3 635.1,164.3 635.3,158.5 635.4,154.4 635.6,151.4 635.7,149.1 635.9,147.3 636.1,145.9 636.2,145.0 636.4,144.3 636.6,144.0 636.7,143.9 636.9,144.2 637.1,144.7 637.2,145.6 637.4,146.8 637.5,148.5 637.7,150.6 637.9,153.4 638.0,157.0 638.2,162.1 638.4,170.1 638.5,182.0 638.7,178.5 638.9,169.2 639.0,165.2 639.2,163.3 639.3,163.0 639.5,164.0 639.7,166.6 639.8,172.2 640.0,182.0 640.2,178.7 640.3,166.4 640.5,160.0 640.7,155.7 640.8,152.5 641.0,150.0 641.1,148.2 641.3,146.8 641.5,145.7 641.6,145.0 641.8,144.6 642.0,144.6 642.1,144.8 642.3,145.3 642.5,146.2 642.6,147.4 642.8,149.0 642.9,151.1 643.1,153.8 643.3,157.5 643.4,162.5 643.6,170.6 643.8,182.0 643.9,178.5 644.1,169.3 644.3,165.2 644.4,163.3 644.6,162.8 644.7,163.6 644.9,165.9 645.1,170.6 645.2,182.0 645.4,182.0 645.6,168.8 645.7,161.6 645.9,157.0 646.1,153.6 646.2,151.0 646.4,149.1 646.5,147.6 646.7,146.5 646.9,145.7 647.0,145.3 647.2,145.2 647.4,145.4 647.5,145.9 647.7,146.7 647.9,147.9 648.0,149.5 648.2,151.5 648.3,154.3 648.5,157.9 648.7,162.9 648.8,171.0 649.0,182.0 649.2,178.6 649.3,169.4 649.5,165.2 649.7,163.3 649.8,162.7 650.0,163.3 650.1,165.2 650.3,169.3 650.5,178.2 650.6,182.0 650.8,171.6 651.0,163.4 651.1,158.3 651.3,154.7 651.5,152.0 651.6,149.9 651.8,148.4 651.9,147.2 652.1,146.4 652.3,146.0 652.4,145.8 652.6,146.0 652.8,146.4 652.9,147.2 653.1,148.4 653.3,149.9 653.4,152.0 653.6,154.7 653.7,158.3 653.9,163.3 654.1,171.4 654.2,182.0 654.4,178.6 654.6,169.4 654.7,165.3 654.9,163.2 655.1,162.5 655.2,162.9 655.4,164.6 655.5,168.1 655.7,175.4 655.9,182.0 656.0,174.8 656.2,165.3 656.4,159.7 656.5,155.8 656.7,153.0 656.9,150.8 657.0,149.2 657.2,147.9 657.3,147.1 657.5,146.6 657.7,146.4 657.8,146.5 658.0,147.0 658.2,147.7 658.3,148.8 658.5,150.4 658.7,152.4 658.8,155.1 659.0,158.6 659.1,163.7 659.3,171.8 659.5,182.0 659.6,178.6 659.8,169.5 660.0,165.3 660.1,163.2 660.3,162.4 660.5,162.7 660.6,164.1 660.8,167.2 661.0,173.2 661.1,182.0 661.3,178.9 661.4,167.3 661.6,161.1 661.8,157.0 661.9,154.0 662.1,151.7 662.3,149.9 662.4,148.7 662.6,147.8 662.8,147.2 662.9,147.0 663.1,147.1 663.2,147.5 663.4,148.2 663.6,149.3 663.7,150.8 663.9,152.8 664.1,155.5 664.2,159.0 664.4,164.0 664.6,172.1 664.7,182.0 664.9,178.6 665.0,169.5 665.2,165.3 665.4,163.1 665.5,162.2 665.7,162.4 665.9,163.6 666.0,166.3 666.2,171.4 666.4,182.0 666.5,182.0 666.7,169.6 666.8,162.7 667.0,158.2 667.2,155.0 667.3,152.6 667.5,150.7 667.7,149.4 667.8,148.4 668.0,147.8 668.2,147.6 668.3,147.6 668.5,148.0 668.6,148.7 668.8,149.8 669.0,151.2 669.1,153.2 669.3,155.8 669.5,159.4 669.6,164.4 669.8,172.5 670.0,182.0 670.1,178.6 670.3,169.6 670.4,165.3 670.6,163.1 670.8,162.1 670.9,162.1 671.1,163.2 671.3,165.6 671.4,170.0 671.6,179.4 671.8,182.0 671.9,172.2 672.1,164.3 672.2,159.4 672.4,156.0 672.6,153.4 672.7,151.5 672.9,150.1 673.1,149.1 673.2,148.4 673.4,148.1 673.6,148.1 673.7,148.5 673.9,149.1 674.0,150.2 674.2,151.6 674.4,153.6 674.5,156.2 674.7,159.7 674.9,164.7 675.0,172.8 675.2,182.0 675.4,178.6 675.5,169.6 675.7,165.3 675.8,163.0 676.0,162.0 676.2,161.9 676.3,162.8 676.5,164.9 676.7,168.7 676.8,176.4 677.0,182.0 677.2,175.3 677.3,166.1 677.5,160.7 677.6,157.0 677.8,154.3 678.0,152.3 678.1,150.8 678.3,149.7 678.5,149.0 678.6,148.7 678.8,148.6 679.0,149.0 679.1,149.6 679.3,150.6 679.4,152.0 679.6,154.0 679.8,156.5 679.9,160.0 680.1,165.0 680.3,173.2 680.4,182.0 680.6,178.6 680.8,169.7 680.9,165.4 681.1,163.0 681.2,161.9 681.4,161.7 681.6,162.4 681.7,164.3 681.9,167.6 682.1,174.0 682.2,182.0 682.4,179.1 682.6,168.0 682.7,162.1 682.9,158.1 683.0,155.2 683.2,153.1 683.4,151.5 683.5,150.4 683.7,149.6 683.9,149.2 684.0,149.2 684.2,149.4 684.4,150.0 684.5,151.0 684.7,152.4 684.8,154.3 685.0,156.9 685.2,160.3 685.3,165.3 685.5,173.5 685.7,182.0 685.8,178.6 686.0,169.7 686.2,165.4 686.3,163.0 686.5,161.7 686.6,161.5 686.8,162.1 687.0,163.7 687.1,166.7 687.3,172.1 687.5,182.0 687.6,182.0 687.8,170.2 688.0,163.5 688.1,159.2 688.3,156.2 688.4,153.9 688.6,152.2 688.8,151.0 688.9,150.2 689.1,149.7 689.3,149.6 689.4,149.9 689.6,150.5 689.8,151.4 689.9,152.8 690.1,154.7 690.2,157.2 690.4,160.6 690.6,165.6 690.7,173.8 690.9,182.0 691.1,178.6 691.2,169.7 691.4,165.3 691.6,162.9 691.7,161.6 691.9,161.3 692.0,161.8 692.2,163.2 692.4,165.8 692.5,170.5 692.7,180.5 692.9,182.0 693.0,172.7 693.2,165.1 693.4,160.4 693.5,157.1 693.7,154.7 693.8,152.9 694.0,151.6 694.2,150.8 694.3,150.3 694.5,150.1 694.7,150.3 694.8,150.9 695.0,151.8 695.2,153.1 695.3,155.0 695.5,157.5 695.6,160.9 695.8,165.8 696.0,174.1 696.1,182.0 696.3,178.6 696.5,169.7 696.6,165.3 696.8,162.8 697.0,161.5 697.1,161.1 697.3,161.4 697.4,162.7 697.6,165.0 697.8,169.2 697.9,177.2 698.1,182.0 698.3,175.6 698.4,166.8 698.6,161.6 698.8,158.1 698.9,155.5 699.1,153.6 699.2,152.3 699.4,151.3 699.6,150.8 699.7,150.6 699.9,150.8 700.1,151.3 700.2,152.2 700.4,153.5 700.6,155.3 700.7,157.8 700.9,161.2 701.0,166.1 701.2,174.3 701.4,182.0 701.5,178.6 701.7,169.7 701.9,165.3 702.0,162.8 702.2,161.4 702.4,160.9 702.5,161.1 702.7,162.2 702.8,164.3 703.0,168.0 703.2,174.7 703.3,182.0 703.5,179.3 703.7,168.6 703.8,162.9 704.0,159.1 704.2,156.4 704.3,154.4 704.5,152.9 704.6,151.9 704.8,151.3 705.0,151.1 705.1,151.2 705.3,151.7 705.5,152.5 705.6,153.8 705.8,155.6 706.0,158.1 706.1,161.4 706.3,166.3 706.4,174.6 706.6,182.0 706.8,178.5 706.9,169.7 707.1,165.3 707.3,162.7 707.4,161.3 707.6,160.7 707.8,160.8 707.9,161.8 708.1,163.7 708.2,166.9 708.4,172.6 708.6,182.0 708.7,182.0 708.9,170.7 709.1,164.3 709.2,160.1 709.4,157.2 709.6,155.1 709.7,153.5 709.9,152.5 710.0,151.8 710.2,151.5 710.4,151.6 710.5,152.0 710.7,152.9 710.9,154.1 711.0,155.9 711.2,158.3 711.4,161.7 711.5,166.6 711.7,174.8 711.8,182.0 712.0,178.5 712.2,169.7 712.3,165.3 712.5,162.7 712.7,161.2 712.8,160.5 713.0,160.6 713.2,161.4 713.3,163.1 713.5,166.0 713.6,170.9 713.8,181.4 714.0,182.0 714.1,173.1 714.3,165.7 714.5,161.2 714.6,158.1 714.8,155.8 715.0,154.2 715.1,153.0 715.3,152.3 715.4,152.0 715.6,152.0 715.8,152.4 715.9,153.2 716.1,154.4 716.3,156.2 716.4,158.6 716.6,161.9 716.8,166.8 716.9,175.1 717.1,182.0 717.2,178.5 717.4,169.7 717.6,165.2 717.7,162.6 717.9,161.0 718.1,160.3 718.2,160.3 718.4,161.0 718.6,162.5 718.7,165.1 718.9,169.5 719.0,177.9 719.2,182.0 719.4,175.9 719.5,167.3 719.7,162.4 719.9,159.0 720.0,156.6 720.2,154.8 720.4,153.6 720.5,152.8 720.7,152.4 720.8,152.4 721.0,152.8 721.2,153.5 721.3,154.7 721.5,156.5 721.7,158.8 721.8,162.2 722.0,167.0 722.2,175.3 722.3,182.0 722.5,178.4 722.6,169.7 722.8,165.2 723.0,162.5 723.1,160.9 723.3,160.1 723.5,160.0 723.6,160.6 723.8,162.0 724.0,164.3 724.1,168.2 724.3,175.2 724.4,182.0 724.6,179.4 724.8,169.1 724.9,163.6 725.1,159.9 725.3,157.3 725.4,155.5 725.6,154.2 725.8,153.3 725.9,152.9 726.1,152.8 726.2,153.1 726.4,153.9 726.6,155.0 726.7,156.7 726.9,159.1 727.1,162.4 727.2,167.2 727.4,175.5 727.6,182.0 727.7,178.4 727.9,169.7 728.0,165.1 728.2,162.4 728.4,160.8 728.5,159.9 728.7,159.8 728.9,160.3 729.0,161.5 729.2,163.6 729.4,167.1 729.5,173.1 729.7,182.0 729.8,182.0 730.0,171.1 730.2,164.9 730.3,160.9 730.5,158.1 730.7,156.1 730.8,154.7 731.0,153.8 731.2,153.3 731.3,153.2 731.5,153.5 731.6,154.2 731.8,155.3 732.0,157.0 732.1,159.3 732.3,162.6 732.5,167.4 732.6,175.8 732.8,182.0 733.0,178.3 733.1,169.6 733.3,165.1 733.4,162.3 733.6,160.6 733.8,159.7 733.9,159.5 734.1,159.9 734.3,161.0 734.4,162.9 734.6,166.1 734.8,171.3 734.9,182.0 735.1,182.0 735.2,173.3 735.4,166.2 735.6,161.9 735.7,158.9 735.9,156.8 736.1,155.3 736.2,154.3 736.4,153.8 736.6,153.6 736.7,153.8 736.9,154.5 737.0,155.6 737.2,157.2 737.4,159.5 737.5,162.8 737.7,167.6 737.9,176.0 738.0,182.0 738.2,178.3 738.4,169.6 738.5,165.0 738.7,162.2 738.8,160.5 739.0,159.6 739.2,159.3 739.3,159.6 739.5,160.6 739.7,162.3 739.8,165.1 740.0,169.7 740.2,178.4 740.3,182.0 740.5,176.1 740.6,167.8 740.8,163.0 741.0,159.7 741.1,157.5 741.3,155.9 741.5,154.8 741.6,154.2 741.8,154.0 742.0,154.2 742.1,154.8 742.3,155.9 742.4,157.5 742.6,159.8 742.8,163.0 742.9,167.8 743.1,176.1 743.3,182.0 743.4,178.2 743.6,169.5 743.8,165.0 743.9,162.1 744.1,160.4 744.3,159.4 744.4,159.0 744.6,159.3 744.7,160.1 744.9,161.7 745.1,164.3 745.2,168.3 745.4,175.6 745.6,182.0 745.7,179.4 745.9,169.4 746.1,164.1 746.2,160.6 746.4,158.2 746.5,156.5 746.7,155.3 746.9,154.6 747.0,154.4 747.2,154.5 747.4,155.1 747.5,156.1 747.7,157.7 747.9,160.0 748.0,163.2 748.2,168.0 748.3,176.3 748.5,182.0 748.7,178.1 748.8,169.5 749.0,164.9 749.2,162.0 749.3,160.2 749.5,159.2 749.7,158.8 749.8,158.9 750.0,159.7 750.1,161.1 750.3,163.5 750.5,167.1 750.6,173.3 750.8,182.0 751.0,182.0 751.1,171.3 751.3,165.3 751.5,161.5 751.6,158.9 751.8,157.0 751.9,155.8 752.1,155.0 752.3,154.7 752.4,154.8 752.6,155.4 752.8,156.4 752.9,157.9 753.1,160.2 753.3,163.3 753.4,168.1 753.6,176.5 753.7,182.0 753.9,178.0 754.1,169.4 754.2,164.8 754.4,161.9 754.6,160.1 754.7,159.0 754.9,158.5 755.1,158.6 755.2,159.3 755.4,160.6 755.5,162.7 755.7,166.0 755.9,171.4 756.0,182.0 756.2,182.0 756.4,173.5 756.5,166.6 756.7,162.5 756.9,159.6 757.0,157.6 757.2,156.3 757.3,155.5 757.5,155.1 757.7,155.2 757.8,155.7 758.0,156.6 758.2,158.1 758.3,160.3 758.5,163.5 758.7,168.3 758.8,176.7 759.0,182.0 759.1,177.9 759.3,169.4 759.5,164.7 759.6,161.8 759.8,159.9 760.0,158.8 760.1,158.3 760.3,158.3 760.5,158.9 760.6,160.1 760.8,162.0 760.9,165.0 761.1,169.8 761.3,178.8 761.4,182.0 761.6,176.1 761.8,168.1 761.9,163.5 762.1,160.4 762.3,158.3 762.4,156.8 762.6,155.9 762.7,155.5 762.9,155.5 763.1,155.9 763.2,156.9 763.4,158.4 763.6,160.5 763.7,163.7 763.9,168.4 764.1,176.8 764.2,182.0 764.4,177.8 764.5,169.3 764.7,164.6 764.9,161.7 765.0,159.8 765.2,158.6 765.4,158.0 765.5,158.0 765.7,158.5 765.9,159.6 766.0,161.4 766.2,164.1 766.3,168.4 766.5,175.9 766.7,182.0 766.8,179.3 767.0,169.7 767.2,164.5 767.3,161.2 767.5,158.9 767.7,157.3 767.8,156.3 768.0,155.9 768.1,155.8 768.3,156.2 768.5,157.1 768.6,158.6 768.8,160.7 769.0,163.8 769.1,168.6 769.3,177.0 769.5,182.0 769.6,177.7 769.8,169.2 769.9,164.6 770.1,161.6 770.3,159.6 770.4,158.4 770.6,157.8 770.8,157.7 770.9,158.1 771.1,159.1 771.3,160.7 771.4,163.2 771.6,167.1 771.7,173.5 771.9,182.0 772.1,182.0 772.2,171.5 772.4,165.7 772.6,162.0 772.7,159.5 772.9,157.9 773.1,156.8 773.2,156.2 773.4,156.1 773.5,156.5 773.7,157.3 773.9,158.7 774.0,160.9 774.2,164.0 774.4,168.7 774.5,177.1 774.7,182.0 774.9,177.6 775.0,169.1 775.2,164.4 775.3,161.5 775.5,159.5 775.7,158.2 775.8,157.5 776.0,157.4 776.2,157.7 776.3,158.6 776.5,160.1 776.7,162.4 776.8,165.9 777.0,171.5 777.1,182.0 777.3,182.0 777.5,173.6 777.6,166.9 777.8,162.9 778.0,160.2 778.1,158.4 778.3,157.2 778.5,156.6 778.6,156.4 778.8,156.8 778.9,157.6 779.1,158.9 779.3,161.0 779.4,164.1 779.6,168.8 779.8,177.3 779.9,182.0 780.1,177.5 780.3,169.0 780.4,164.3 780.6,161.3 780.7,159.3 780.9,158.0 781.1,157.3 781.2,157.1 781.4,157.3 781.6,158.1 781.7,159.5 781.9,161.6 782.1,164.8 782.2,169.8 782.4,179.1 782.5,182.0 782.7,176.1 782.9,168.3 783.0,163.8 783.2,160.9 783.4,159.0 783.5,157.7 783.7,157.0 783.9,156.7 784.0,157.0 784.2,157.8 784.3,159.1 784.5,161.2 784.7,164.2 784.8,168.9 785.0,177.4" fill="none" stroke="#4a90d9" stroke-width="1.5" stroke-linejoin="round"/>
  <text x="209.5" y="214" text-anchor="middle" font-size="11" fill="#6b7280">n / N</text>
  <text x="617.5" y="214" text-anchor="middle" font-size="11" fill="#6b7280">Normalized frequency (× Fₛ)</text>
</svg>
