<svg xmlns="http://www.w3.org/2000/svg" viewBox="0 0 560 190" width="560" height="190" style="font-family:system-ui,-apple-system,sans-serif">
  <rect width="560" height="190" fill="#fafafa" rx="6"/>
  <line x1="52" y1="152.0" x2="257" y2="152.0" stroke="#e5e7eb" stroke-width="0.5"/>
  <text x="48" y="155.0" text-anchor="end" font-size="7.5" fill="#6b7280">0</text>
  <line x1="52" y1="82.0" x2="257" y2="82.0" stroke="#e5e7eb" stroke-width="0.5"/>
  <text x="48" y="85.0" text-anchor="end" font-size="7.5" fill="#6b7280">0.5</text>
  <line x1="52" y1="12.0" x2="257" y2="12.0" stroke="#e5e7eb" stroke-width="0.5"/>
  <text x="48" y="15.0" text-anchor="end" font-size="7.5" fill="#6b7280">1</text>
  <line x1="52.0" y1="12" x2="52.0" y2="152" stroke="#e5e7eb" stroke-width="0.5"/>
  <text x="52.0" y="164" text-anchor="middle" font-size="7.5" fill="#6b7280">0</text>
  <line x1="154.5" y1="12" x2="154.5" y2="152" stroke="#e5e7eb" stroke-width="0.5"/>
  <text x="154.5" y="164" text-anchor="middle" font-size="7.5" fill="#6b7280">0.5</text>
  <line x1="257.0" y1="12" x2="257.0" y2="152" stroke="#e5e7eb" stroke-width="0.5"/>
  <text x="257.0" y="164" text-anchor="middle" font-size="7.5" fill="#6b7280">1</text>
  <line x1="52" y1="12" x2="52" y2="152" stroke="#d1d5db" stroke-width="0.75"/>
  <line x1="52" y1="152" x2="257" y2="152" stroke="#d1d5db" stroke-width="0.75"/>
  <path d="M52.0,152.0 52.0,152.0 52.8,151.7 53.6,151.4 54.4,151.1 55.2,150.7 56.0,150.3 56.8,149.8 57.6,149.4 58.4,148.9 59.2,148.3 60.0,147.8 60.8,147.2 61.6,146.5 62.5,145.9 63.3,145.2 64.1,144.5 64.9,143.7 65.7,142.9 66.5,142.1 67.3,141.3 68.1,140.4 68.9,139.5 69.7,138.6 70.5,137.6 71.3,136.6 72.1,135.6 72.9,134.6 73.7,133.5 74.5,132.5 75.3,131.3 76.1,130.2 76.9,129.1 77.7,127.9 78.5,126.7 79.3,125.4 80.1,124.2 80.9,122.9 81.7,121.6 82.5,120.3 83.4,119.0 84.2,117.6 85.0,116.3 85.8,114.9 86.6,113.5 87.4,112.1 88.2,110.7 89.0,109.2 89.8,107.8 90.6,106.3 91.4,104.8 92.2,103.3 93.0,101.8 93.8,100.3 94.6,98.8 95.4,97.2 96.2,95.7 97.0,94.1 97.8,92.6 98.6,91.0 99.4,89.5 100.2,87.9 101.0,86.3 101.8,84.8 102.6,83.2 103.5,81.6 104.3,80.0 105.1,78.5 105.9,76.9 106.7,75.3 107.5,73.8 108.3,72.2 109.1,70.6 109.9,69.1 110.7,67.5 111.5,66.0 112.3,64.5 113.1,63.0 113.9,61.4 114.7,59.9 115.5,58.5 116.3,57.0 117.1,55.5 117.9,54.1 118.7,52.6 119.5,51.2 120.3,49.8 121.1,48.4 121.9,47.0 122.7,45.7 123.5,44.3 124.4,43.0 125.2,41.7 126.0,40.4 126.8,39.2 127.6,37.9 128.4,36.7 129.2,35.5 130.0,34.4 130.8,33.2 131.6,32.1 132.4,31.0 133.2,29.9 134.0,28.9 134.8,27.9 135.6,26.9 136.4,25.9 137.2,25.0 138.0,24.0 138.8,23.2 139.6,22.3 140.4,21.5 141.2,20.7 142.0,19.9 142.8,19.2 143.6,18.5 144.5,17.8 145.3,17.2 146.1,16.5 146.9,16.0 147.7,15.4 148.5,14.9 149.3,14.4 150.1,13.9 150.9,13.5 151.7,13.1 152.5,12.8 153.3,12.4 154.1,12.1 154.9,12.1 155.7,12.4 156.5,12.8 157.3,13.1 158.1,13.5 158.9,13.9 159.7,14.4 160.5,14.9 161.3,15.4 162.1,16.0 162.9,16.5 163.7,17.2 164.5,17.8 165.4,18.5 166.2,19.2 167.0,19.9 167.8,20.7 168.6,21.5 169.4,22.3 170.2,23.2 171.0,24.0 171.8,25.0 172.6,25.9 173.4,26.9 174.2,27.9 175.0,28.9 175.8,29.9 176.6,31.0 177.4,32.1 178.2,33.2 179.0,34.4 179.8,35.5 180.6,36.7 181.4,37.9 182.2,39.2 183.0,40.4 183.8,41.7 184.6,43.0 185.5,44.3 186.3,45.7 187.1,47.0 187.9,48.4 188.7,49.8 189.5,51.2 190.3,52.6 191.1,54.1 191.9,55.5 192.7,57.0 193.5,58.5 194.3,59.9 195.1,61.4 195.9,63.0 196.7,64.5 197.5,66.0 198.3,67.5 199.1,69.1 199.9,70.6 200.7,72.2 201.5,73.8 202.3,75.3 203.1,76.9 203.9,78.5 204.7,80.0 205.5,81.6 206.4,83.2 207.2,84.8 208.0,86.3 208.8,87.9 209.6,89.5 210.4,91.0 211.2,92.6 212.0,94.1 212.8,95.7 213.6,97.2 214.4,98.8 215.2,100.3 216.0,101.8 216.8,103.3 217.6,104.8 218.4,106.3 219.2,107.8 220.0,109.2 220.8,110.7 221.6,112.1 222.4,113.5 223.2,114.9 224.0,116.3 224.8,117.6 225.6,119.0 226.5,120.3 227.3,121.6 228.1,122.9 228.9,124.2 229.7,125.4 230.5,126.7 231.3,127.9 232.1,129.1 232.9,130.2 233.7,131.3 234.5,132.5 235.3,133.5 236.1,134.6 236.9,135.6 237.7,136.6 238.5,137.6 239.3,138.6 240.1,139.5 240.9,140.4 241.7,141.3 242.5,142.1 243.3,142.9 244.1,143.7 244.9,144.5 245.7,145.2 246.5,145.9 247.4,146.5 248.2,147.2 249.0,147.8 249.8,148.3 250.6,148.9 251.4,149.4 252.2,149.8 253.0,150.3 253.8,150.7 254.6,151.1 255.4,151.4 256.2,151.7 257.0,152.0 L257.0,152.0 Z" fill="#4a90d9" fill-opacity="0.06"/>
  <polyline points="52.0,152.0 52.8,151.7 53.6,151.4 54.4,151.1 55.2,150.7 56.0,150.3 56.8,149.8 57.6,149.4 58.4,148.9 59.2,148.3 60.0,147.8 60.8,147.2 61.6,146.5 62.5,145.9 63.3,145.2 64.1,144.5 64.9,143.7 65.7,142.9 66.5,142.1 67.3,141.3 68.1,140.4 68.9,139.5 69.7,138.6 70.5,137.6 71.3,136.6 72.1,135.6 72.9,134.6 73.7,133.5 74.5,132.5 75.3,131.3 76.1,130.2 76.9,129.1 77.7,127.9 78.5,126.7 79.3,125.4 80.1,124.2 80.9,122.9 81.7,121.6 82.5,120.3 83.4,119.0 84.2,117.6 85.0,116.3 85.8,114.9 86.6,113.5 87.4,112.1 88.2,110.7 89.0,109.2 89.8,107.8 90.6,106.3 91.4,104.8 92.2,103.3 93.0,101.8 93.8,100.3 94.6,98.8 95.4,97.2 96.2,95.7 97.0,94.1 97.8,92.6 98.6,91.0 99.4,89.5 100.2,87.9 101.0,86.3 101.8,84.8 102.6,83.2 103.5,81.6 104.3,80.0 105.1,78.5 105.9,76.9 106.7,75.3 107.5,73.8 108.3,72.2 109.1,70.6 109.9,69.1 110.7,67.5 111.5,66.0 112.3,64.5 113.1,63.0 113.9,61.4 114.7,59.9 115.5,58.5 116.3,57.0 117.1,55.5 117.9,54.1 118.7,52.6 119.5,51.2 120.3,49.8 121.1,48.4 121.9,47.0 122.7,45.7 123.5,44.3 124.4,43.0 125.2,41.7 126.0,40.4 126.8,39.2 127.6,37.9 128.4,36.7 129.2,35.5 130.0,34.4 130.8,33.2 131.6,32.1 132.4,31.0 133.2,29.9 134.0,28.9 134.8,27.9 135.6,26.9 136.4,25.9 137.2,25.0 138.0,24.0 138.8,23.2 139.6,22.3 140.4,21.5 141.2,20.7 142.0,19.9 142.8,19.2 143.6,18.5 144.5,17.8 145.3,17.2 146.1,16.5 146.9,16.0 147.7,15.4 148.5,14.9 149.3,14.4 150.1,13.9 150.9,13.5 151.7,13.1 152.5,12.8 153.3,12.4 154.1,12.1 154.9,12.1 155.7,12.4 156.5,12.8 157.3,13.1 158.1,13.5 158.9,13.9 159.7,14.4 160.5,14.9 161.3,15.4 162.1,16.0 162.9,16.5 163.7,17.2 164.5,17.8 165.4,18.5 166.2,19.2 167.0,19.9 167.8,20.7 168.6,21.5 169.4,22.3 170.2,23.2 171.0,24.0 171.8,25.0 172.6,25.9 173.4,26.9 174.2,27.9 175.0,28.9 175.8,29.9 176.6,31.0 177.4,32.1 178.2,33.2 179.0,34.4 179.8,35.5 180.6,36.7 181.4,37.9 182.2,39.2 183.0,40.4 183.8,41.7 184.6,43.0 185.5,44.3 186.3,45.7 187.1,47.0 187.9,48.4 188.7,49.8 189.5,51.2 190.3,52.6 191.1,54.1 191.9,55.5 192.7,57.0 193.5,58.5 194.3,59.9 195.1,61.4 195.9,63.0 196.7,64.5 197.5,66.0 198.3,67.5 199.1,69.1 199.9,70.6 200.7,72.2 201.5,73.8 202.3,75.3 203.1,76.9 203.9,78.5 204.7,80.0 205.5,81.6 206.4,83.2 207.2,84.8 208.0,86.3 208.8,87.9 209.6,89.5 210.4,91.0 211.2,92.6 212.0,94.1 212.8,95.7 213.6,97.2 214.4,98.8 215.2,100.3 216.0,101.8 216.8,103.3 217.6,104.8 218.4,106.3 219.2,107.8 220.0,109.2 220.8,110.7 221.6,112.1 222.4,113.5 223.2,114.9 224.0,116.3 224.8,117.6 225.6,119.0 226.5,120.3 227.3,121.6 228.1,122.9 228.9,124.2 229.7,125.4 230.5,126.7 231.3,127.9 232.1,129.1 232.9,130.2 233.7,131.3 234.5,132.5 235.3,133.5 236.1,134.6 236.9,135.6 237.7,136.6 238.5,137.6 239.3,138.6 240.1,139.5 240.9,140.4 241.7,141.3 242.5,142.1 243.3,142.9 244.1,143.7 244.9,144.5 245.7,145.2 246.5,145.9 247.4,146.5 248.2,147.2 249.0,147.8 249.8,148.3 250.6,148.9 251.4,149.4 252.2,149.8 253.0,150.3 253.8,150.7 254.6,151.1 255.4,151.4 256.2,151.7 257.0,152.0" fill="none" stroke="#4a90d9" stroke-width="1.2" stroke-linejoin="round"/>
  <line x1="322" y1="12.0" x2="527" y2="12.0" stroke="#e5e7eb" stroke-width="0.5"/>
  <text x="318" y="15.0" text-anchor="end" font-size="7.5" fill="#6b7280">0</text>
  <line x1="322" y1="58.7" x2="527" y2="58.7" stroke="#e5e7eb" stroke-width="0.5"/>
  <text x="318" y="61.7" text-anchor="end" font-size="7.5" fill="#6b7280">-40</text>
  <line x1="322" y1="105.3" x2="527" y2="105.3" stroke="#e5e7eb" stroke-width="0.5"/>
  <text x="318" y="108.3" text-anchor="end" font-size="7.5" fill="#6b7280">-80</text>
  <line x1="322" y1="152.0" x2="527" y2="152.0" stroke="#e5e7eb" stroke-width="0.5"/>
  <text x="318" y="155.0" text-anchor="end" font-size="7.5" fill="#6b7280">-120</text>
  <line x1="322.0" y1="12" x2="322.0" y2="152" stroke="#e5e7eb" stroke-width="0.5"/>
  <text x="322.0" y="164" text-anchor="middle" font-size="7.5" fill="#6b7280">0</text>
  <line x1="363.0" y1="12" x2="363.0" y2="152" stroke="#e5e7eb" stroke-width="0.5"/>
  <text x="363.0" y="164" text-anchor="middle" font-size="7.5" fill="#6b7280">0.1</text>
  <line x1="404.0" y1="12" x2="404.0" y2="152" stroke="#e5e7eb" stroke-width="0.5"/>
  <text x="404.0" y="164" text-anchor="middle" font-size="7.5" fill="#6b7280">0.2</text>
  <line x1="445.0" y1="12" x2="445.0" y2="152" stroke="#e5e7eb" stroke-width="0.5"/>
  <text x="445.0" y="164" text-anchor="middle" font-size="7.5" fill="#6b7280">0.3</text>
  <line x1="486.0" y1="12" x2="486.0" y2="152" stroke="#e5e7eb" stroke-width="0.5"/>
  <text x="486.0" y="164" text-anchor="middle" font-size="7.5" fill="#6b7280">0.4</text>
  <line x1="527.0" y1="12" x2="527.0" y2="152" stroke="#e5e7eb" stroke-width="0.5"/>
  <text x="527.0" y="164" text-anchor="middle" font-size="7.5" fill="#6b7280">0.5</text>
  <line x1="322" y1="12" x2="322" y2="152" stroke="#d1d5db" stroke-width="0.75"/>
  <line x1="322" y1="152" x2="527" y2="152" stroke="#d1d5db" stroke-width="0.75"/>
  <polyline points="322.0,12.0 322.1,12.0 322.2,12.1 322.3,12.2 322.4,12.4 322.5,12.7 322.6,13.0 322.7,13.3 322.8,13.8 322.9,14.2 323.0,14.8 323.1,15.4 323.2,16.0 323.3,16.8 323.4,17.6 323.5,18.5 323.6,19.4 323.7,20.5 323.8,21.6 323.9,22.9 324.0,24.2 324.1,25.7 324.2,27.3 324.3,29.0 324.4,31.0 324.5,33.1 324.6,35.6 324.7,38.3 324.8,41.6 324.9,45.5 325.0,50.6 325.1,58.3 325.2,82.0 325.3,63.7 325.4,57.7 325.5,55.1 325.6,54.0 325.7,53.9 325.8,54.4 325.9,55.7 326.0,57.6 326.1,60.6 326.2,65.3 326.3,74.6 326.4,82.1 326.5,68.3 326.6,63.1 326.7,60.1 326.8,58.2 326.9,56.9 327.0,56.1 327.1,55.8 327.2,55.7 327.3,55.9 327.4,56.4 327.5,57.2 327.6,58.3 327.7,59.6 327.8,61.3 327.9,63.4 328.0,66.0 328.1,69.4 328.2,73.9 328.3,80.8 328.4,98.3 328.5,88.3 328.6,81.2 328.7,78.4 328.8,77.5 328.9,77.7 329.0,79.1 329.1,82.1 329.2,88.3 329.3,147.9 329.4,87.3 329.5,80.0 329.6,75.9 329.7,73.1 329.8,71.0 329.9,69.5 330.0,68.5 330.1,67.8 330.2,67.3 330.3,67.2 330.4,67.3 330.5,67.6 330.6,68.2 330.7,69.0 330.8,70.1 330.9,71.4 331.0,73.1 331.1,75.2 331.2,77.8 331.3,81.1 331.4,85.5 331.5,92.2 331.6,106.9 331.7,102.6 331.8,94.9 331.9,92.4 332.0,92.1 332.1,93.6 332.2,98.0 332.3,113.3 332.4,100.8 332.5,91.6 332.6,86.5 332.7,83.1 332.8,80.6 332.9,78.7 333.0,77.2 333.1,76.1 333.2,75.3 333.3,74.8 333.4,74.5 333.5,74.5 333.6,74.6 333.7,75.0 333.8,75.7 333.9,76.5 334.0,77.6 334.1,79.0 334.2,80.8 334.3,82.9 334.4,85.5 334.5,88.9 334.6,93.3 334.7,99.7 334.8,112.9 334.9,113.1 335.0,104.8 335.1,102.6 335.2,103.4 335.3,107.7 335.4,131.2 335.5,106.6 335.6,98.1 335.7,93.1 335.8,89.6 335.9,86.9 336.0,84.9 336.1,83.3 336.2,82.0 336.3,81.1 336.4,80.4 336.5,80.0 336.6,79.8 336.7,79.8 336.8,80.0 336.9,80.5 337.0,81.1 337.1,82.0 337.2,83.2 337.3,84.6 337.4,86.4 337.5,88.5 337.6,91.2 337.7,94.5 337.8,98.9 337.9,105.3 338.0,117.4 338.1,121.6 338.2,112.4 338.3,110.8 338.4,113.2 338.5,125.0 338.6,116.1 338.7,105.5 338.8,99.7 338.9,95.7 339.0,92.7 339.1,90.4 339.2,88.5 339.3,87.1 339.4,85.9 339.5,85.1 339.6,84.5 339.7,84.1 339.8,83.9 339.9,84.0 340.0,84.2 340.1,84.7 340.2,85.4 340.3,86.3 340.4,87.5 340.5,88.9 340.6,90.7 340.7,92.9 340.8,95.6 340.9,99.0 341.0,103.4 341.1,109.7 341.2,121.2 341.3,128.6 341.4,118.5 341.5,117.5 341.6,122.1 341.7,135.9 341.8,114.5 341.9,106.9 342.0,102.0 342.1,98.4 342.2,95.6 342.3,93.5 342.4,91.7 342.5,90.3 342.6,89.3 342.7,88.5 342.8,87.9 342.9,87.5 343.0,87.4 343.1,87.5 343.2,87.7 343.3,88.2 343.4,88.9 343.5,89.8 343.6,91.0 343.7,92.5 343.8,94.3 343.9,96.5 344.0,99.2 344.1,102.5 344.2,107.0 344.3,113.2 344.4,124.3 344.5,134.3 344.6,123.4 344.7,123.0 344.8,130.4 344.9,128.5 345.0,115.4 345.1,108.8 345.2,104.3 345.3,100.9 345.4,98.3 345.5,96.2 345.6,94.5 345.7,93.2 345.8,92.1 345.9,91.4 346.0,90.8 346.1,90.5 346.2,90.3 346.3,90.4 346.4,90.7 346.5,91.2 346.6,91.9 346.7,92.8 346.8,94.0 346.9,95.4 347.0,97.2 347.1,99.4 347.2,102.2 347.3,105.5 347.4,110.0 347.5,116.2 347.6,127.1 347.7,138.8 347.8,127.3 347.9,127.2 348.0,137.9 348.1,128.1 348.2,117.0 348.3,110.9 348.4,106.6 348.5,103.3 348.6,100.7 348.7,98.7 348.8,97.0 348.9,95.7 349.0,94.7 349.1,93.9 349.2,93.3 349.3,93.0 349.4,92.9 349.5,93.0 349.6,93.2 349.7,93.7 349.8,94.4 349.9,95.4 350.0,96.5 350.1,98.0 350.2,99.8 350.3,102.0 350.4,104.7 350.5,108.1 350.6,112.5 350.7,118.7 350.8,129.5 350.9,142.2 351.0,130.3 351.1,130.5 351.2,143.7 351.3,129.3 351.4,118.9 351.5,113.0 351.6,108.7 351.7,105.5 351.8,103.0 351.9,100.9 352.0,99.3 352.1,98.0 352.2,97.0 352.3,96.2 352.4,95.6 352.5,95.3 352.6,95.2 352.7,95.2 352.8,95.5 352.9,96.0 353.0,96.7 353.1,97.6 353.2,98.8 353.3,100.2 353.4,102.0 353.5,104.2 353.6,106.9 353.7,110.3 353.8,114.7 353.9,120.9 354.0,131.6 354.1,144.6 354.2,132.6 354.3,132.8 354.4,146.7 354.5,131.2 354.6,121.0 354.7,115.0 354.8,110.8 354.9,107.6 355.0,105.1 355.1,103.0 355.2,101.4 355.3,100.1 355.4,99.0 355.5,98.2 355.6,97.7 355.7,97.3 355.8,97.2 355.9,97.3 356.0,97.5 356.1,98.0 356.3,98.7 356.4,99.6 356.5,100.8 356.6,102.2 356.7,104.0 356.8,106.2 356.9,108.9 357.0,112.3 357.1,116.6 357.2,122.8 357.3,133.6 357.4,146.2 357.5,134.3 357.6,134.4 357.7,147.0 357.8,133.6 357.9,123.1 358.0,117.1 358.1,112.8 358.2,109.6 358.3,107.0 358.4,105.0 358.5,103.3 358.6,102.0 358.7,100.9 358.8,100.1 358.9,99.5 359.0,99.2 359.1,99.0 359.2,99.1 359.3,99.3 359.4,99.8 359.5,100.5 359.6,101.4 359.7,102.6 359.8,104.0 359.9,105.8 360.0,107.9 360.1,110.6 360.2,114.0 360.3,118.4 360.4,124.6 360.5,135.4 360.6,147.2 360.7,135.6 360.8,135.5 360.9,146.0 361.0,136.4 361.1,125.3 361.2,119.1 361.3,114.7 361.4,111.4 361.5,108.8 361.6,106.8 361.7,105.1 361.8,103.7 361.9,102.6 362.0,101.8 362.1,101.3 362.2,100.9 362.3,100.7 362.4,100.8 362.5,101.0 362.6,101.5 362.7,102.1 362.8,103.0 362.9,104.2 363.0,105.6 363.1,107.4 363.2,109.5 363.3,112.2 363.4,115.5 363.5,119.9 363.6,126.1 363.7,137.1 363.8,147.8 363.9,136.6 364.0,136.2 364.1,144.6 364.2,139.8 364.3,127.5 364.4,121.0 364.5,116.6 364.6,113.2 364.7,110.6 364.8,108.4 364.9,106.7 365.0,105.4 365.1,104.3 365.2,103.4 365.3,102.8 365.4,102.5 365.5,102.3 365.6,102.3 365.7,102.5 365.8,103.0 365.9,103.6 366.0,104.5 366.1,105.6 366.2,107.1 366.3,108.8 366.4,111.0 366.5,113.6 366.6,116.9 366.7,121.3 366.8,127.5 366.9,138.6 367.0,148.2 367.1,137.3 367.2,136.7 367.3,143.3 367.4,144.1 367.5,129.9 367.6,123.0 367.7,118.4 367.8,114.9 367.9,112.2 368.0,110.1 368.1,108.3 368.2,106.9 368.3,105.8 368.4,104.9 368.5,104.3 368.6,103.9 368.7,103.7 368.8,103.7 368.9,104.0 369.0,104.4 369.1,105.0 369.2,105.9 369.3,107.0 369.4,108.4 369.5,110.1 369.6,112.3 369.7,114.9 369.8,118.2 369.9,122.6 370.0,128.8 370.1,140.0 370.2,148.4 370.3,137.9 370.4,137.0 370.5,142.2 370.6,150.0 370.7,132.3 370.8,125.0 370.9,120.1 371.0,116.6 371.1,113.8 371.2,111.6 371.3,109.8 371.4,108.4 371.5,107.2 371.6,106.3 371.7,105.7 371.8,105.3 371.9,105.1 372.0,105.1 372.1,105.3 372.2,105.7 372.3,106.3 372.4,107.2 372.5,108.3 372.6,109.6 372.7,111.4 372.8,113.5 372.9,116.1 373.0,119.4 373.1,123.7 373.2,129.9 373.3,141.4 373.4,148.5 373.5,138.4 373.6,137.2 373.7,141.3 373.8,152.0 373.9,135.0 374.0,127.0 374.1,121.9 374.2,118.2 374.3,115.3 374.4,113.0 374.5,111.2 374.6,109.7 374.7,108.6 374.8,107.7 374.9,107.0 375.0,106.6 375.1,106.3 375.2,106.3 375.3,106.5 375.4,106.9 375.5,107.5 375.6,108.3 375.7,109.4 375.8,110.8 375.9,112.5 376.0,114.6 376.1,117.2 376.2,120.4 376.3,124.8 376.4,131.0 376.5,142.6 376.6,148.6 376.7,138.8 376.8,137.3 376.9,140.5 377.0,152.0 377.1,137.9 377.2,129.0 377.3,123.6 377.4,119.7 377.5,116.8 377.6,114.4 377.7,112.6 377.8,111.1 377.9,109.9 378.0,108.9 378.1,108.2 378.2,107.8 378.3,107.5 378.4,107.5 378.5,107.7 378.6,108.0 378.7,108.6 378.8,109.4 378.9,110.5 379.0,111.9 379.1,113.5 379.2,115.6 379.3,118.2 379.4,121.4 379.5,125.7 379.6,132.0 379.7,143.8 379.8,148.6 379.9,139.1 380.0,137.4 380.1,139.9 380.2,152.0 380.3,141.3 380.4,131.1 380.5,125.3 380.6,121.3 380.7,118.2 380.8,115.8 380.9,113.9 381.0,112.3 381.1,111.1 381.2,110.1 381.3,109.4 381.4,108.9 381.5,108.7 381.6,108.6 381.7,108.7 381.8,109.1 381.9,109.7 382.0,110.5 382.1,111.5 382.2,112.9 382.3,114.5 382.4,116.6 382.5,119.1 382.6,122.4 382.7,126.7 382.8,132.9 382.9,145.0 383.0,148.7 383.1,139.4 383.2,137.5 383.3,139.4 383.4,148.4 383.5,145.6 383.6,133.3 383.7,127.1 383.8,122.8 383.9,119.6 384.0,117.1 384.1,115.1 384.2,113.5 384.3,112.3 384.4,111.3 384.5,110.5 384.6,110.0 384.7,109.7 384.8,109.6 384.9,109.8 385.0,110.1 385.1,110.7 385.2,111.4 385.3,112.5 385.4,113.8 385.5,115.4 385.6,117.5 385.7,120.0 385.8,123.2 385.9,127.5 386.0,133.8 386.1,146.1 386.2,148.7 386.3,139.6 386.4,137.6 386.5,139.0 386.6,145.7 386.7,151.5 386.8,135.7 386.9,128.8 387.0,124.3 387.1,121.0 387.2,118.4 387.3,116.3 387.4,114.7 387.5,113.4 387.6,112.4 387.7,111.6 387.8,111.1 387.9,110.7 388.0,110.6 388.1,110.7 388.2,111.1 388.3,111.6 388.4,112.4 388.5,113.4 388.6,114.7 388.7,116.3 388.8,118.3 388.9,120.8 389.0,124.0 389.1,128.3 389.2,134.6 389.3,147.1 389.4,148.7 389.5,139.9 389.6,137.7 389.7,138.6 389.8,143.8 389.9,152.0 390.0,138.3 390.1,130.7 390.2,125.8 390.3,122.3 390.4,119.7 390.5,117.5 390.6,115.8 390.7,114.5 390.8,113.4 390.9,112.6 391.0,112.1 391.1,111.7 391.2,111.6 391.3,111.7 391.4,112.0 391.5,112.5 391.6,113.2 391.7,114.2 391.8,115.5 391.9,117.1 392.0,119.1 392.1,121.6 392.2,124.8 392.3,129.0 392.4,135.3 392.5,148.1 392.6,148.7 392.7,140.1 392.8,137.8 392.9,138.4 393.0,142.5 393.1,152.0 393.2,141.3 393.3,132.6 393.4,127.4 393.5,123.7 393.6,120.9 393.7,118.7 393.8,116.9 393.9,115.5 394.0,114.4 394.1,113.6 394.2,113.0 394.3,112.6 394.4,112.5 394.5,112.6 394.6,112.8 394.7,113.3 394.8,114.1 394.9,115.0 395.0,116.3 395.1,117.9 395.2,119.8 395.3,122.3 395.4,125.5 395.5,129.7 395.6,136.0 395.7,149.1 395.8,148.8 395.9,140.2 396.0,137.8 396.1,138.1 396.2,141.4 396.3,152.0 396.4,144.9 396.5,134.6 396.6,128.9 396.7,125.0 396.8,122.1 396.9,119.8 397.0,118.0 397.1,116.5 397.2,115.4 397.3,114.5 397.4,113.9 397.5,113.5 397.6,113.4 397.7,113.4 397.8,113.7 397.9,114.1 398.0,114.8 398.1,115.8 398.2,117.0 398.3,118.6 398.4,120.5 398.5,123.0 398.6,126.1 398.7,130.4 398.8,136.7 398.9,150.0 399.0,148.8 399.1,140.4 399.2,137.9 399.3,137.9 399.4,140.6 399.5,149.3 399.6,149.6 399.7,136.7 399.8,130.5 399.9,126.4 400.0,123.3 400.1,120.9 400.2,119.0 400.3,117.5 400.4,116.3 400.5,115.4 400.6,114.8 400.7,114.4 400.8,114.2 400.9,114.2 401.0,114.4 401.1,114.9 401.2,115.6 401.3,116.5 401.4,117.7 401.5,119.3 401.6,121.2 401.7,123.6 401.8,126.8 401.9,131.0 402.0,137.3 402.1,150.9 402.2,148.8 402.3,140.6 402.4,137.9 402.5,137.8 402.6,139.9 402.7,146.5 402.8,152.0 402.9,139.1 403.0,132.2 403.1,127.7 403.2,124.5 403.3,122.0 403.4,120.0 403.5,118.5 403.6,117.3 403.7,116.3 403.8,115.6 403.9,115.2 404.0,115.0 404.1,115.0 404.2,115.2 404.3,115.6 404.4,116.3 404.5,117.2 404.6,118.4 404.7,119.9 404.8,121.8 404.9,124.2 405.0,127.4 405.1,131.6 405.2,137.9 405.3,151.8 405.4,148.9 405.5,140.7 405.6,138.0 405.7,137.6 405.8,139.4 405.9,144.6 406.0,152.0 406.1,141.8 406.2,133.9 406.3,129.1 406.4,125.7 406.5,123.1 406.6,121.0 406.7,119.4 406.8,118.2 406.9,117.2 407.0,116.5 407.1,116.0 407.2,115.8 407.3,115.7 407.4,115.9 407.5,116.3 407.6,117.0 407.7,117.9 407.8,119.0 407.9,120.5 408.0,122.4 408.1,124.8 408.2,127.9 408.3,132.1 408.4,138.5 408.5,152.0 408.6,148.9 408.7,140.8 408.8,138.1 408.9,137.5 409.0,138.9 409.1,143.1 409.2,152.0 409.3,145.0 409.4,135.8 409.5,130.5 409.6,126.9 409.7,124.2 409.8,122.0 409.9,120.3 410.0,119.0 410.1,118.0 410.2,117.3 410.3,116.8 410.4,116.5 410.5,116.4 410.6,116.6 410.7,117.0 410.8,117.6 410.9,118.5 411.0,119.7 411.1,121.1 411.2,123.0 411.3,125.4 411.4,128.5 411.5,132.6 411.6,139.0 411.7,152.0 411.8,148.9 411.9,141.0 412.0,138.1 412.1,137.4 412.2,138.5 412.3,142.0 412.4,152.0 412.5,149.2 412.6,137.7 412.7,132.0 412.8,128.1 412.9,125.2 413.0,123.0 413.1,121.2 413.2,119.9 413.3,118.8 413.4,118.0 413.5,117.5 413.6,117.2 413.7,117.1 413.8,117.3 413.9,117.6 414.0,118.2 414.1,119.1 414.2,120.2 414.3,121.7 414.4,123.5 414.5,125.9 414.6,129.0 414.7,133.1 414.8,139.5 414.9,152.0 415.0,149.0 415.1,141.1 415.2,138.2 415.3,137.3 415.4,138.2 415.5,141.0 415.6,148.7 415.7,152.0 415.8,139.9 415.9,133.5 416.0,129.3 416.1,126.3 416.2,124.0 416.3,122.1 416.4,120.7 416.5,119.6 416.6,118.8 416.7,118.2 416.8,117.9 416.9,117.8 417.0,117.9 417.1,118.3 417.2,118.8 417.3,119.7 417.4,120.8 417.5,122.2 417.6,124.1 417.7,126.4 417.8,129.4 417.9,133.6 418.0,140.0 418.1,152.0 418.2,149.0 418.3,141.2 418.4,138.2 418.5,137.3 418.6,137.9 418.7,140.3 418.8,146.3 418.9,152.0 419.0,142.4 419.1,135.1 419.2,130.6 419.3,127.4 419.4,124.9 419.5,123.0 419.6,121.5 419.7,120.4 419.8,119.5 419.9,118.9 420.0,118.6 420.1,118.4 420.2,118.5 420.3,118.9 420.4,119.4 420.5,120.2 420.6,121.3 420.7,122.7 420.8,124.6 420.9,126.9 421.0,129.9 421.1,134.0 421.2,140.4 421.3,152.0 421.4,149.1 421.5,141.3 421.6,138.3 421.7,137.2 421.8,137.6 421.9,139.6 422.0,144.5 422.1,152.0 422.2,145.4 422.3,136.8 422.4,131.9 422.5,128.5 422.6,125.9 422.7,123.9 422.8,122.3 422.9,121.1 423.0,120.2 423.1,119.6 423.2,119.2 423.3,119.1 423.4,119.1 423.5,119.4 423.6,120.0 423.7,120.8 423.8,121.8 423.9,123.2 424.0,125.0 424.1,127.3 424.2,130.3 424.3,134.5 424.4,140.9 424.6,152.0 424.7,149.1 424.8,141.4 424.9,138.3 425.0,137.2 425.1,137.4 425.2,139.1 425.3,143.1 425.4,152.0 425.5,149.2 425.6,138.7 425.7,133.2 425.8,129.6 425.9,126.9 426.0,124.8 426.1,123.1 426.2,121.9 426.3,121.0 426.4,120.3 426.5,119.9 426.6,119.7 426.7,119.7 426.8,120.0 426.9,120.5 427.0,121.3 427.1,122.3 427.2,123.7 427.3,125.5 427.4,127.8 427.5,130.8 427.6,134.9 427.7,141.3 427.8,152.0 427.9,149.1 428.0,141.5 428.1,138.4 428.2,137.1 428.3,137.2 428.4,138.6 428.5,142.0 428.6,150.6 428.7,152.0 428.8,140.7 428.9,134.6 429.0,130.7 429.1,127.8 429.2,125.6 429.3,123.9 429.4,122.6 429.5,121.6 429.6,120.9 429.7,120.5 429.8,120.3 429.9,120.3 430.0,120.5 430.1,121.0 430.2,121.8 430.3,122.8 430.4,124.2 430.5,125.9 430.6,128.2 430.7,131.2 430.8,135.3 430.9,141.7 431.0,152.0 431.1,149.1 431.2,141.6 431.3,138.4 431.4,137.1 431.5,137.0 431.6,138.2 431.7,141.1 431.8,147.7 431.9,152.0 432.0,143.1 432.1,136.1 432.2,131.9 432.3,128.8 432.4,126.5 432.5,124.7 432.6,123.4 432.7,122.3 432.8,121.6 432.9,121.1 433.0,120.8 433.1,120.8 433.2,121.1 433.3,121.5 433.4,122.3 433.5,123.3 433.6,124.6 433.7,126.3 433.8,128.6 433.9,131.5 434.0,135.6 434.1,142.1 434.2,152.0 434.3,149.2 434.4,141.6 434.5,138.4 434.6,137.0 434.7,136.8 434.8,137.8 434.9,140.3 435.0,145.7 435.1,152.0 435.2,145.8 435.3,137.7 435.4,133.1 435.5,129.8 435.6,127.4 435.7,125.5 435.8,124.1 435.9,123.0 436.0,122.2 436.1,121.7 436.2,121.4 436.3,121.4 436.4,121.6 436.5,122.0 436.6,122.7 436.7,123.7 436.8,125.0 436.9,126.7 437.0,129.0 437.1,131.9 437.2,136.0 437.3,142.5 437.4,152.0 437.5,149.2 437.6,141.7 437.7,138.5 437.8,137.0 437.9,136.7 438.0,137.5 438.1,139.6 438.2,144.1 438.3,152.0 438.4,149.3 438.5,139.5 438.6,134.3 438.7,130.8 438.8,128.2 438.9,126.3 439.0,124.8 439.1,123.6 439.2,122.8 439.3,122.3 439.4,121.9 439.5,121.9 439.6,122.1 439.7,122.5 439.8,123.2 439.9,124.1 440.0,125.4 440.1,127.1 440.2,129.3 440.3,132.2 440.4,136.3 440.5,142.8 440.6,152.0 440.7,149.2 440.8,141.8 440.9,138.5 441.0,137.0 441.1,136.6 441.2,137.2 441.3,139.0 441.4,142.8 441.5,152.0 441.6,152.0 441.7,141.4 441.8,135.6 441.9,131.9 442.0,129.1 442.1,127.1 442.2,125.5 442.3,124.3 442.4,123.4 442.5,122.8 442.6,122.5 442.7,122.4 442.8,122.5 442.9,122.9 443.0,123.6 443.1,124.5 443.2,125.8 443.3,127.5 443.4,129.7 443.5,132.6 443.6,136.6 443.7,143.1 443.8,152.0 443.9,149.2 444.0,141.8 444.1,138.5 444.2,136.9 444.3,136.4 444.4,136.9 444.5,138.5 444.6,141.7 444.7,148.9 444.8,152.0 444.9,143.6 445.0,137.0 445.1,132.9 445.2,130.0 445.3,127.9 445.4,126.2 445.5,124.9 445.6,124.0 445.7,123.4 445.8,123.0 445.9,122.9 446.0,123.0 446.1,123.4 446.2,124.0 446.3,124.9 446.4,126.2 446.5,127.9 446.6,130.0 446.7,132.9 446.8,137.0 446.9,143.5 447.0,152.0 447.1,149.3 447.2,141.9 447.3,138.5 447.4,136.9 447.5,136.3 447.6,136.7 447.7,138.0 447.8,140.8 447.9,146.7 448.0,152.0 448.1,146.2 448.2,138.5 448.3,134.0 448.4,130.9 448.5,128.6 448.6,126.9 448.7,125.6 448.8,124.6 448.9,123.9 449.0,123.5 449.1,123.4 449.2,123.5 449.3,123.8 449.4,124.4 449.5,125.3 449.6,126.6 449.7,128.2 449.8,130.3 449.9,133.2 450.0,137.3 450.1,143.8 450.2,152.0 450.3,149.3 450.4,141.9 450.5,138.6 450.6,136.9 450.7,136.2 450.8,136.4 450.9,137.6 451.0,140.1 451.1,144.9 451.2,152.0 451.3,149.5 451.4,140.2 451.5,135.2 451.6,131.9 451.7,129.4 451.8,127.6 451.9,126.2 452.0,125.2 452.1,124.5 452.2,124.0 452.3,123.8 452.4,123.9 452.5,124.2 452.6,124.8 452.7,125.7 452.8,126.9 452.9,128.5 453.0,130.7 453.1,133.5 453.2,137.5 453.3,144.1 453.4,152.0 453.5,149.3 453.6,142.0 453.7,138.6 453.8,136.8 453.9,136.1 454.0,136.2 454.1,137.2 454.2,139.4 454.3,143.5 454.4,152.0 454.5,152.0 454.6,142.0 454.7,136.5 454.8,132.8 454.9,130.3 455.0,128.3 455.1,126.8 455.2,125.8 455.3,125.0 455.4,124.5 455.5,124.3 455.6,124.3 455.7,124.6 455.8,125.2 455.9,126.1 456.0,127.2 456.1,128.8 456.2,130.9 456.3,133.8 456.4,137.8 456.5,144.4 456.6,152.0 456.7,149.3 456.8,142.0 456.9,138.6 457.0,136.8 457.1,136.0 457.2,136.0 457.3,136.9 457.4,138.8 457.5,142.3 457.6,149.9 457.7,152.0 457.8,144.1 457.9,137.8 458.0,133.8 458.1,131.1 458.2,129.0 458.3,127.5 458.4,126.3 458.5,125.5 458.6,125.0 458.7,124.7 458.8,124.8 458.9,125.0 459.0,125.6 459.1,126.4 459.2,127.6 459.3,129.1 459.4,131.2 459.5,134.1 459.6,138.1 459.7,144.6 459.8,152.0 459.9,149.3 460.0,142.0 460.1,138.6 460.2,136.8 460.3,135.9 460.4,135.8 460.5,136.6 460.6,138.2 460.7,141.3 460.8,147.5 460.9,152.0 461.0,146.6 461.1,139.2 461.2,134.9 461.3,131.9 461.4,129.7 461.5,128.1 461.6,126.9 461.7,126.0 461.8,125.5 461.9,125.2 462.0,125.2 462.1,125.4 462.2,125.9 462.3,126.7 462.4,127.9 462.5,129.4 462.6,131.5 462.7,134.3 462.8,138.3 462.9,144.9 463.0,152.0 463.1,149.3 463.2,142.1 463.3,138.6 463.4,136.7 463.5,135.8 463.6,135.7 463.7,136.3 463.8,137.7 463.9,140.4 464.0,145.6 464.1,152.0 464.2,149.7 464.3,140.8 464.4,136.0 464.5,132.8 464.6,130.5 464.7,128.8 464.8,127.5 464.9,126.6 465.0,125.9 465.1,125.6 465.2,125.6 465.3,125.8 465.4,126.3 465.5,127.1 465.6,128.2 465.7,129.7 465.8,131.8 465.9,134.6 466.0,138.6 466.1,145.1 466.2,152.0 466.3,149.3 466.4,142.1 466.5,138.6 466.6,136.7 466.7,135.7 466.8,135.5 466.9,136.0 467.0,137.3 467.1,139.7 467.2,144.0 467.3,152.0 467.4,152.0 467.5,142.5 467.6,137.2 467.7,133.7 467.8,131.2 467.9,129.4 468.0,128.0 468.1,127.1 468.2,126.4 468.3,126.1 468.4,126.0 468.5,126.2 468.6,126.6 468.7,127.4 468.8,128.5 468.9,130.0 469.0,132.0 469.1,134.8 469.2,138.8 469.3,145.4 469.4,152.0 469.5,149.3 469.6,142.1 469.7,138.6 469.8,136.6 469.9,135.6 470.0,135.3 470.1,135.7 470.2,136.8 470.3,139.0 470.4,142.8 470.5,150.8 470.6,152.0 470.7,144.5 470.8,138.4 470.9,134.6 471.0,132.0 471.1,130.0 471.2,128.6 471.3,127.6 471.4,126.9 471.5,126.5 471.6,126.4 471.7,126.5 471.8,126.9 471.9,127.7 472.0,128.8 472.1,130.3 472.2,132.3 472.3,135.0 472.4,139.0 472.5,145.6 472.6,152.0 472.7,149.3 472.8,142.1 472.9,138.6 473.0,136.6 473.1,135.5 473.2,135.2 473.3,135.5 473.4,136.5 473.5,138.4 473.6,141.7 473.7,148.1 473.8,152.0 473.9,146.9 474.0,139.8 474.1,135.6 474.2,132.8 474.3,130.7 474.4,129.2 474.5,128.1 474.6,127.3 474.7,126.9 474.8,126.7 474.9,126.9 475.0,127.3 475.1,128.0 475.2,129.1 475.3,130.5 475.4,132.5 475.5,135.2 475.6,139.2 475.7,145.8 475.8,152.0 475.9,149.2 476.0,142.1 476.1,138.6 476.2,136.5 476.3,135.4 476.4,135.0 476.5,135.2 476.6,136.1 476.7,137.8 476.8,140.7 476.9,146.1 477.0,152.0 477.1,149.8 477.2,141.2 477.3,136.6 477.4,133.6 477.5,131.4 477.6,129.8 477.7,128.6 477.8,127.8 477.9,127.3 478.0,127.1 478.1,127.2 478.2,127.6 478.3,128.3 478.4,129.3 478.5,130.8 478.6,132.7 478.7,135.5 478.8,139.4 478.9,146.0 479.0,152.0 479.1,149.2 479.2,142.1 479.3,138.6 479.4,136.5 479.5,135.3 479.6,134.8 479.7,135.0 479.8,135.7 479.9,137.3 480.0,139.9 480.1,144.5 480.2,152.0 480.3,152.0 480.4,142.9 480.5,137.7 480.6,134.4 480.7,132.1 480.8,130.3 480.9,129.1 481.0,128.2 481.1,127.7 481.2,127.5 481.3,127.5 481.4,127.9 481.5,128.6 481.6,129.6 481.7,131.0 481.8,133.0 481.9,135.7 482.0,139.6 482.1,146.2 482.2,152.0 482.3,149.2 482.4,142.1 482.5,138.5 482.6,136.4 482.7,135.2 482.8,134.7 482.9,134.8 483.0,135.4 483.1,136.8 483.2,139.1 483.3,143.1 483.4,151.5 483.5,152.0 483.6,144.8 483.7,138.9 483.8,135.3 483.9,132.8 484.0,130.9 484.1,129.6 484.2,128.7 484.3,128.1 484.4,127.8 484.5,127.9 484.6,128.2 484.7,128.8 484.8,129.8 484.9,131.2 485.0,133.2 485.1,135.9 485.2,139.8 485.3,146.4 485.4,152.0 485.5,149.2 485.6,142.1 485.7,138.5 485.8,136.4 485.9,135.1 486.0,134.5 486.1,134.5 486.2,135.1 486.3,136.3 486.4,138.4 486.5,141.9 486.6,148.7 486.7,152.0 486.8,147.1 486.9,140.2 487.0,136.2 487.1,133.5 487.2,131.5 487.3,130.1 487.4,129.1 487.5,128.5 487.6,128.2 487.7,128.2 487.8,128.5 487.9,129.1 488.0,130.1 488.1,131.5 488.2,133.4 488.3,136.0 488.4,140.0 488.5,146.6 488.6,152.0 488.7,149.1 488.8,142.1 488.9,138.5 489.0,136.3 489.1,135.0 489.2,134.4 489.3,134.3 489.4,134.8 489.5,135.9 489.6,137.8 489.7,140.9 489.8,146.5 489.9,152.0 490.0,149.9 490.1,141.6 490.2,137.2 490.3,134.2 490.4,132.1 490.5,130.7 490.6,129.6 490.7,128.9 490.8,128.6 490.9,128.5 491.0,128.8 491.1,129.4 491.2,130.3 491.3,131.7 491.4,133.6 491.5,136.2 491.6,140.1 491.7,146.8 491.8,152.0 491.9,149.1 492.0,142.1 492.1,138.4 492.2,136.2 492.3,134.9 492.4,134.2 492.5,134.1 492.6,134.5 492.7,135.5 492.9,137.2 493.0,140.0 493.1,144.8 493.2,152.0 493.3,152.0 493.4,143.2 493.5,138.2 493.6,135.0 493.7,132.8 493.8,131.2 493.9,130.1 494.0,129.3 494.1,128.9 494.2,128.8 494.3,129.1 494.4,129.6 494.5,130.5 494.6,131.9 494.7,133.7 494.8,136.4 494.9,140.3 495.0,147.0 495.1,152.0 495.2,149.0 495.3,142.0 495.4,138.4 495.5,136.2 495.6,134.8 495.7,134.1 495.8,133.9 495.9,134.2 496.0,135.1 496.1,136.7 496.2,139.2 496.3,143.4 496.4,152.0 496.5,152.0 496.6,145.0 496.7,139.3 496.8,135.8 496.9,133.4 497.0,131.7 497.1,130.5 497.2,129.7 497.3,129.3 497.4,129.1 497.5,129.3 497.6,129.9 497.7,130.8 497.8,132.1 497.9,133.9 498.0,136.5 498.1,140.4 498.2,147.1 498.3,152.0 498.4,149.0 498.5,142.0 498.6,138.4 498.7,136.1 498.8,134.7 498.9,133.9 499.0,133.7 499.1,134.0 499.2,134.7 499.3,136.2 499.4,138.4 499.5,142.1 499.6,149.1 499.7,152.0 499.8,147.2 499.9,140.5 500.0,136.7 500.1,134.1 500.2,132.3 500.3,131.0 500.4,130.1 500.5,129.6 500.6,129.5 500.7,129.6 500.8,130.1 500.9,131.0 501.0,132.3 501.1,134.1 501.2,136.7 501.3,140.6 501.4,147.3 501.5,152.0 501.6,148.9 501.7,142.0 501.8,138.3 501.9,136.0 502.0,134.6 502.1,133.8 502.2,133.5 502.3,133.7 502.4,134.4 502.5,135.7 502.6,137.7 502.7,141.0 502.8,146.9 502.9,152.0 503.0,149.9 503.1,141.9 503.2,137.6 503.3,134.8 503.4,132.8 503.5,131.4 503.6,130.5 503.7,130.0 503.8,129.8 503.9,129.9 504.0,130.4 504.1,131.2 504.2,132.5 504.3,134.3 504.4,136.8 504.5,140.7 504.6,147.4 504.7,152.0 504.8,148.9 504.9,141.9 505.0,138.2 505.1,135.9 505.2,134.5 505.3,133.6 505.4,133.3 505.5,133.4 505.6,134.1 505.7,135.2 505.8,137.1 505.9,140.0 506.0,145.0 506.1,152.0 506.2,152.0 506.3,143.4 506.4,138.6 506.5,135.5 506.6,133.4 506.7,131.9 506.8,130.9 506.9,130.3 507.0,130.1 507.1,130.2 507.2,130.6 507.3,131.4 507.4,132.6 507.5,134.4 507.6,137.0 507.7,140.8 507.8,147.6 507.9,152.0 508.0,148.8 508.1,141.9 508.2,138.2 508.3,135.9 508.4,134.4 508.5,133.5 508.6,133.1 508.7,133.2 508.8,133.7 508.9,134.8 509.0,136.5 509.1,139.2 509.2,143.5 509.3,152.0 509.4,152.0 509.5,145.2 509.6,139.6 509.7,136.3 509.8,134.0 509.9,132.4 510.0,131.3 510.1,130.7 510.2,130.4 510.3,130.4 510.4,130.8 510.5,131.6 510.6,132.8 510.7,134.6 510.8,137.1 510.9,141.0 511.0,147.7 511.1,152.0 511.2,148.7 511.3,141.8 511.4,138.1 511.5,135.8 511.6,134.3 511.7,133.3 511.8,132.9 511.9,132.9 512.0,133.4 512.1,134.4 512.2,135.9 512.3,138.3 512.4,142.2 512.5,149.5 512.6,152.0 512.7,147.3 512.8,140.8 512.9,137.1 513.0,134.6 513.1,132.9 513.2,131.7 513.3,131.0 513.4,130.7 513.5,130.7 513.6,131.0 513.7,131.8 513.8,133.0 513.9,134.7 514.0,137.2 514.1,141.1 514.2,147.8 514.3,152.0 514.4,148.7 514.5,141.8 514.6,138.0 514.7,135.7 514.8,134.1 514.9,133.2 515.0,132.7 515.1,132.7 515.2,133.1 515.3,133.9 515.4,135.4 515.5,137.6 515.6,141.0 515.7,147.1 515.8,152.0 515.9,149.8 516.0,142.1 516.1,137.9 516.2,135.2 516.3,133.4 516.4,132.2 516.5,131.4 516.6,131.0 516.7,130.9 516.8,131.3 516.9,132.0 517.0,133.1 517.1,134.9 517.2,137.4 517.3,141.2 517.4,148.0 517.5,152.0 517.6,148.6 517.7,141.7 517.8,138.0 517.9,135.6 518.0,134.0 518.1,133.0 518.2,132.5 518.3,132.4 518.4,132.8 518.5,133.6 518.6,134.9 518.7,136.9 518.8,140.0 518.9,145.2 519.0,152.0 519.1,152.0 519.2,143.5 519.3,138.9 519.4,135.9 519.5,133.9 519.6,132.6 519.7,131.7 519.8,131.3 519.9,131.2 520.0,131.5 520.1,132.2 520.2,133.3 520.3,135.0 520.4,137.5 520.5,141.3 520.6,148.1 520.7,152.0 520.8,148.5 520.9,141.6 521.0,137.9 521.1,135.5 521.2,133.9 521.3,132.9 521.4,132.3 521.5,132.2 521.6,132.5 521.7,133.2 521.8,134.4 521.9,136.2 522.0,139.0 522.1,143.6 522.2,152.0 522.3,152.0 522.4,145.2 522.5,139.9 522.6,136.6 522.7,134.5 522.8,133.0 522.9,132.1 523.0,131.6 523.1,131.4 523.2,131.7 523.3,132.3 523.4,133.4 523.5,135.1 523.6,137.6 523.7,141.4 523.8,148.2 523.9,152.0 524.0,148.4 524.1,141.6 524.2,137.8 524.3,135.4 524.4,133.7 524.5,132.7 524.6,132.1 524.7,131.9 524.8,132.2 524.9,132.8 525.0,133.9 525.1,135.6 525.2,138.2 525.3,142.2 525.4,149.7 525.5,152.0 525.6,147.2 525.7,141.0 525.8,137.4 525.9,135.0 526.0,133.5 526.1,132.4 526.2,131.9 526.3,131.7 526.4,131.9 526.5,132.5 526.6,133.6 526.7,135.2 526.8,137.7 526.9,141.5 527.0,148.3" fill="none" stroke="#4a90d9" stroke-width="1.2" stroke-linejoin="round"/>
  <text x="154.5" y="176" text-anchor="middle" font-size="8" fill="#6b7280">n / N</text>
  <text x="424.5" y="176" text-anchor="middle" font-size="8" fill="#6b7280">Normalized frequency (× Fₛ)</text>
</svg>
