<svg xmlns="http://www.w3.org/2000/svg" viewBox="0 0 560 190" width="560" height="190" style="font-family:system-ui,-apple-system,sans-serif">
  <rect width="560" height="190" fill="none"/>
  <line x1="52" y1="152.0" x2="257" y2="152.0" stroke="#e5e7eb" stroke-width="0.5"/>
  <text x="48" y="155.0" text-anchor="end" font-size="7.5" fill="#6b7280">0</text>
  <line x1="52" y1="82.0" x2="257" y2="82.0" stroke="#e5e7eb" stroke-width="0.5"/>
  <text x="48" y="85.0" text-anchor="end" font-size="7.5" fill="#6b7280">0.5</text>
  <line x1="52" y1="12.0" x2="257" y2="12.0" stroke="#e5e7eb" stroke-width="0.5"/>
  <text x="48" y="15.0" text-anchor="end" font-size="7.5" fill="#6b7280">1</text>
  <line x1="52.0" y1="12" x2="52.0" y2="152" stroke="#e5e7eb" stroke-width="0.5"/>
  <text x="52.0" y="164" text-anchor="middle" font-size="7.5" fill="#6b7280">0</text>
  <line x1="154.5" y1="12" x2="154.5" y2="152" stroke="#e5e7eb" stroke-width="0.5"/>
  <text x="154.5" y="164" text-anchor="middle" font-size="7.5" fill="#6b7280">0.5</text>
  <line x1="257.0" y1="12" x2="257.0" y2="152" stroke="#e5e7eb" stroke-width="0.5"/>
  <text x="257.0" y="164" text-anchor="middle" font-size="7.5" fill="#6b7280">1</text>
  <line x1="52" y1="12" x2="52" y2="152" stroke="#d1d5db" stroke-width="0.75"/>
  <line x1="52" y1="152" x2="257" y2="152" stroke="#d1d5db" stroke-width="0.75"/>
  <path d="M52.0,152.0 52.0,152.0 52.8,150.9 53.6,149.8 54.4,148.7 55.2,147.6 56.0,146.5 56.8,145.4 57.6,144.3 58.4,143.2 59.2,142.1 60.0,141.0 60.8,139.9 61.6,138.8 62.5,137.7 63.3,136.6 64.1,135.5 64.9,134.4 65.7,133.3 66.5,132.2 67.3,131.1 68.1,130.0 68.9,128.9 69.7,127.8 70.5,126.7 71.3,125.6 72.1,124.5 72.9,123.5 73.7,122.4 74.5,121.3 75.3,120.2 76.1,119.1 76.9,118.0 77.7,116.9 78.5,115.8 79.3,114.7 80.1,113.6 80.9,112.5 81.7,111.4 82.5,110.3 83.4,109.2 84.2,108.1 85.0,107.0 85.8,105.9 86.6,104.8 87.4,103.7 88.2,102.6 89.0,101.5 89.8,100.4 90.6,99.3 91.4,98.2 92.2,97.1 93.0,96.0 93.8,94.9 94.6,93.8 95.4,92.7 96.2,91.6 97.0,90.5 97.8,89.4 98.6,88.3 99.4,87.2 100.2,86.1 101.0,85.0 101.8,83.9 102.6,82.8 103.5,81.7 104.3,80.6 105.1,79.5 105.9,78.4 106.7,77.3 107.5,76.2 108.3,75.1 109.1,74.0 109.9,72.9 110.7,71.8 111.5,70.7 112.3,69.6 113.1,68.5 113.9,67.5 114.7,66.4 115.5,65.3 116.3,64.2 117.1,63.1 117.9,62.0 118.7,60.9 119.5,59.8 120.3,58.7 121.1,57.6 121.9,56.5 122.7,55.4 123.5,54.3 124.4,53.2 125.2,52.1 126.0,51.0 126.8,49.9 127.6,48.8 128.4,47.7 129.2,46.6 130.0,45.5 130.8,44.4 131.6,43.3 132.4,42.2 133.2,41.1 134.0,40.0 134.8,38.9 135.6,37.8 136.4,36.7 137.2,35.6 138.0,34.5 138.8,33.4 139.6,32.3 140.4,31.2 141.2,30.1 142.0,29.0 142.8,27.9 143.6,26.8 144.5,25.7 145.3,24.6 146.1,23.5 146.9,22.4 147.7,21.3 148.5,20.2 149.3,19.1 150.1,18.0 150.9,16.9 151.7,15.8 152.5,14.7 153.3,13.6 154.1,12.5 154.9,12.5 155.7,13.6 156.5,14.7 157.3,15.8 158.1,16.9 158.9,18.0 159.7,19.1 160.5,20.2 161.3,21.3 162.1,22.4 162.9,23.5 163.7,24.6 164.5,25.7 165.4,26.8 166.2,27.9 167.0,29.0 167.8,30.1 168.6,31.2 169.4,32.3 170.2,33.4 171.0,34.5 171.8,35.6 172.6,36.7 173.4,37.8 174.2,38.9 175.0,40.0 175.8,41.1 176.6,42.2 177.4,43.3 178.2,44.4 179.0,45.5 179.8,46.6 180.6,47.7 181.4,48.8 182.2,49.9 183.0,51.0 183.8,52.1 184.6,53.2 185.5,54.3 186.3,55.4 187.1,56.5 187.9,57.6 188.7,58.7 189.5,59.8 190.3,60.9 191.1,62.0 191.9,63.1 192.7,64.2 193.5,65.3 194.3,66.4 195.1,67.5 195.9,68.5 196.7,69.6 197.5,70.7 198.3,71.8 199.1,72.9 199.9,74.0 200.7,75.1 201.5,76.2 202.3,77.3 203.1,78.4 203.9,79.5 204.7,80.6 205.5,81.7 206.4,82.8 207.2,83.9 208.0,85.0 208.8,86.1 209.6,87.2 210.4,88.3 211.2,89.4 212.0,90.5 212.8,91.6 213.6,92.7 214.4,93.8 215.2,94.9 216.0,96.0 216.8,97.1 217.6,98.2 218.4,99.3 219.2,100.4 220.0,101.5 220.8,102.6 221.6,103.7 222.4,104.8 223.2,105.9 224.0,107.0 224.8,108.1 225.6,109.2 226.5,110.3 227.3,111.4 228.1,112.5 228.9,113.6 229.7,114.7 230.5,115.8 231.3,116.9 232.1,118.0 232.9,119.1 233.7,120.2 234.5,121.3 235.3,122.4 236.1,123.5 236.9,124.5 237.7,125.6 238.5,126.7 239.3,127.8 240.1,128.9 240.9,130.0 241.7,131.1 242.5,132.2 243.3,133.3 244.1,134.4 244.9,135.5 245.7,136.6 246.5,137.7 247.4,138.8 248.2,139.9 249.0,141.0 249.8,142.1 250.6,143.2 251.4,144.3 252.2,145.4 253.0,146.5 253.8,147.6 254.6,148.7 255.4,149.8 256.2,150.9 257.0,152.0 L257.0,152.0 Z" fill="#4a90d9" fill-opacity="0.06"/>
  <polyline points="52.0,152.0 52.8,150.9 53.6,149.8 54.4,148.7 55.2,147.6 56.0,146.5 56.8,145.4 57.6,144.3 58.4,143.2 59.2,142.1 60.0,141.0 60.8,139.9 61.6,138.8 62.5,137.7 63.3,136.6 64.1,135.5 64.9,134.4 65.7,133.3 66.5,132.2 67.3,131.1 68.1,130.0 68.9,128.9 69.7,127.8 70.5,126.7 71.3,125.6 72.1,124.5 72.9,123.5 73.7,122.4 74.5,121.3 75.3,120.2 76.1,119.1 76.9,118.0 77.7,116.9 78.5,115.8 79.3,114.7 80.1,113.6 80.9,112.5 81.7,111.4 82.5,110.3 83.4,109.2 84.2,108.1 85.0,107.0 85.8,105.9 86.6,104.8 87.4,103.7 88.2,102.6 89.0,101.5 89.8,100.4 90.6,99.3 91.4,98.2 92.2,97.1 93.0,96.0 93.8,94.9 94.6,93.8 95.4,92.7 96.2,91.6 97.0,90.5 97.8,89.4 98.6,88.3 99.4,87.2 100.2,86.1 101.0,85.0 101.8,83.9 102.6,82.8 103.5,81.7 104.3,80.6 105.1,79.5 105.9,78.4 106.7,77.3 107.5,76.2 108.3,75.1 109.1,74.0 109.9,72.9 110.7,71.8 111.5,70.7 112.3,69.6 113.1,68.5 113.9,67.5 114.7,66.4 115.5,65.3 116.3,64.2 117.1,63.1 117.9,62.0 118.7,60.9 119.5,59.8 120.3,58.7 121.1,57.6 121.9,56.5 122.7,55.4 123.5,54.3 124.4,53.2 125.2,52.1 126.0,51.0 126.8,49.9 127.6,48.8 128.4,47.7 129.2,46.6 130.0,45.5 130.8,44.4 131.6,43.3 132.4,42.2 133.2,41.1 134.0,40.0 134.8,38.9 135.6,37.8 136.4,36.7 137.2,35.6 138.0,34.5 138.8,33.4 139.6,32.3 140.4,31.2 141.2,30.1 142.0,29.0 142.8,27.9 143.6,26.8 144.5,25.7 145.3,24.6 146.1,23.5 146.9,22.4 147.7,21.3 148.5,20.2 149.3,19.1 150.1,18.0 150.9,16.9 151.7,15.8 152.5,14.7 153.3,13.6 154.1,12.5 154.9,12.5 155.7,13.6 156.5,14.7 157.3,15.8 158.1,16.9 158.9,18.0 159.7,19.1 160.5,20.2 161.3,21.3 162.1,22.4 162.9,23.5 163.7,24.6 164.5,25.7 165.4,26.8 166.2,27.9 167.0,29.0 167.8,30.1 168.6,31.2 169.4,32.3 170.2,33.4 171.0,34.5 171.8,35.6 172.6,36.7 173.4,37.8 174.2,38.9 175.0,40.0 175.8,41.1 176.6,42.2 177.4,43.3 178.2,44.4 179.0,45.5 179.8,46.6 180.6,47.7 181.4,48.8 182.2,49.9 183.0,51.0 183.8,52.1 184.6,53.2 185.5,54.3 186.3,55.4 187.1,56.5 187.9,57.6 188.7,58.7 189.5,59.8 190.3,60.9 191.1,62.0 191.9,63.1 192.7,64.2 193.5,65.3 194.3,66.4 195.1,67.5 195.9,68.5 196.7,69.6 197.5,70.7 198.3,71.8 199.1,72.9 199.9,74.0 200.7,75.1 201.5,76.2 202.3,77.3 203.1,78.4 203.9,79.5 204.7,80.6 205.5,81.7 206.4,82.8 207.2,83.9 208.0,85.0 208.8,86.1 209.6,87.2 210.4,88.3 211.2,89.4 212.0,90.5 212.8,91.6 213.6,92.7 214.4,93.8 215.2,94.9 216.0,96.0 216.8,97.1 217.6,98.2 218.4,99.3 219.2,100.4 220.0,101.5 220.8,102.6 221.6,103.7 222.4,104.8 223.2,105.9 224.0,107.0 224.8,108.1 225.6,109.2 226.5,110.3 227.3,111.4 228.1,112.5 228.9,113.6 229.7,114.7 230.5,115.8 231.3,116.9 232.1,118.0 232.9,119.1 233.7,120.2 234.5,121.3 235.3,122.4 236.1,123.5 236.9,124.5 237.7,125.6 238.5,126.7 239.3,127.8 240.1,128.9 240.9,130.0 241.7,131.1 242.5,132.2 243.3,133.3 244.1,134.4 244.9,135.5 245.7,136.6 246.5,137.7 247.4,138.8 248.2,139.9 249.0,141.0 249.8,142.1 250.6,143.2 251.4,144.3 252.2,145.4 253.0,146.5 253.8,147.6 254.6,148.7 255.4,149.8 256.2,150.9 257.0,152.0" fill="none" stroke="#4a90d9" stroke-width="1.2" stroke-linejoin="round"/>
  <line x1="322" y1="12.0" x2="527" y2="12.0" stroke="#e5e7eb" stroke-width="0.5"/>
  <text x="318" y="15.0" text-anchor="end" font-size="7.5" fill="#6b7280">0</text>
  <line x1="322" y1="58.7" x2="527" y2="58.7" stroke="#e5e7eb" stroke-width="0.5"/>
  <text x="318" y="61.7" text-anchor="end" font-size="7.5" fill="#6b7280">-40</text>
  <line x1="322" y1="105.3" x2="527" y2="105.3" stroke="#e5e7eb" stroke-width="0.5"/>
  <text x="318" y="108.3" text-anchor="end" font-size="7.5" fill="#6b7280">-80</text>
  <line x1="322" y1="152.0" x2="527" y2="152.0" stroke="#e5e7eb" stroke-width="0.5"/>
  <text x="318" y="155.0" text-anchor="end" font-size="7.5" fill="#6b7280">-120</text>
  <line x1="322.0" y1="12" x2="322.0" y2="152" stroke="#e5e7eb" stroke-width="0.5"/>
  <text x="322.0" y="164" text-anchor="middle" font-size="7.5" fill="#6b7280">0</text>
  <line x1="363.0" y1="12" x2="363.0" y2="152" stroke="#e5e7eb" stroke-width="0.5"/>
  <text x="363.0" y="164" text-anchor="middle" font-size="7.5" fill="#6b7280">0.1</text>
  <line x1="404.0" y1="12" x2="404.0" y2="152" stroke="#e5e7eb" stroke-width="0.5"/>
  <text x="404.0" y="164" text-anchor="middle" font-size="7.5" fill="#6b7280">0.2</text>
  <line x1="445.0" y1="12" x2="445.0" y2="152" stroke="#e5e7eb" stroke-width="0.5"/>
  <text x="445.0" y="164" text-anchor="middle" font-size="7.5" fill="#6b7280">0.3</text>
  <line x1="486.0" y1="12" x2="486.0" y2="152" stroke="#e5e7eb" stroke-width="0.5"/>
  <text x="486.0" y="164" text-anchor="middle" font-size="7.5" fill="#6b7280">0.4</text>
  <line x1="527.0" y1="12" x2="527.0" y2="152" stroke="#e5e7eb" stroke-width="0.5"/>
  <text x="527.0" y="164" text-anchor="middle" font-size="7.5" fill="#6b7280">0.5</text>
  <line x1="322" y1="12" x2="322" y2="152" stroke="#d1d5db" stroke-width="0.75"/>
  <line x1="322" y1="152" x2="527" y2="152" stroke="#d1d5db" stroke-width="0.75"/>
  <polyline points="322.0,12.0 322.1,12.0 322.2,12.1 322.3,12.3 322.4,12.5 322.5,12.8 322.6,13.2 322.7,13.6 322.8,14.1 322.9,14.7 323.0,15.3 323.1,16.1 323.2,16.9 323.3,17.8 323.4,18.8 323.5,19.9 323.6,21.1 323.7,22.4 323.8,23.8 323.9,25.4 324.0,27.1 324.1,29.0 324.2,31.2 324.3,33.5 324.4,36.1 324.5,39.1 324.6,42.5 324.7,46.5 324.8,51.4 324.9,57.5 325.0,65.8 325.1,79.4 325.2,152.0 325.3,85.8 325.4,70.9 325.5,62.9 325.6,57.7 325.7,53.9 325.8,51.0 325.9,48.7 326.0,47.0 326.1,45.6 326.2,44.6 326.3,43.8 326.4,43.3 326.5,43.0 326.6,42.9 326.7,43.0 326.8,43.3 326.9,43.8 327.0,44.5 327.1,45.3 327.2,46.4 327.3,47.7 327.4,49.2 327.5,51.0 327.6,53.1 327.7,55.5 327.8,58.4 327.9,61.9 328.0,66.3 328.1,71.8 328.2,79.5 328.3,91.9 328.4,152.0 328.5,103.7 328.6,85.9 328.7,77.1 328.8,71.2 328.9,67.0 329.0,63.8 329.1,61.2 329.2,59.2 329.3,57.5 329.4,56.2 329.5,55.3 329.6,54.5 329.7,54.0 329.8,53.7 329.9,53.6 330.0,53.7 330.1,54.0 330.2,54.5 330.3,55.1 330.4,56.0 330.5,57.1 330.6,58.5 330.7,60.1 330.8,62.0 330.9,64.3 331.0,67.0 331.1,70.3 331.2,74.4 331.3,79.7 331.4,87.0 331.5,98.6 331.6,152.0 331.7,119.0 331.8,95.8 331.9,86.0 332.0,79.8 332.1,75.3 332.2,71.8 332.3,69.1 332.4,66.9 332.5,65.1 332.6,63.7 332.7,62.6 332.8,61.7 332.9,61.1 333.0,60.7 333.1,60.5 333.2,60.5 333.3,60.7 333.4,61.1 333.5,61.7 333.6,62.5 333.7,63.5 333.8,64.7 333.9,66.2 334.0,68.1 334.1,70.2 334.2,72.8 334.3,76.0 334.4,80.0 334.5,85.0 334.6,92.0 334.7,103.2 334.8,152.0 334.9,152.0 335.0,103.8 335.1,92.9 335.2,86.2 335.3,81.4 335.4,77.8 335.5,74.9 335.6,72.6 335.7,70.7 335.8,69.2 335.9,68.1 336.0,67.1 336.1,66.4 336.2,66.0 336.3,65.7 336.4,65.6 336.5,65.8 336.6,66.1 336.7,66.6 336.8,67.3 336.9,68.3 337.0,69.4 337.1,70.9 337.2,72.6 337.3,74.7 337.4,77.2 337.5,80.3 337.6,84.1 337.7,89.0 337.8,95.8 337.9,106.5 338.0,152.0 338.1,128.6 338.2,111.2 338.3,98.6 338.4,91.4 338.5,86.4 338.6,82.6 338.7,79.6 338.8,77.2 338.9,75.2 339.0,73.7 339.1,72.4 339.2,71.4 339.3,70.7 339.4,70.1 339.5,69.8 339.6,69.7 339.7,69.8 339.8,70.1 339.9,70.5 340.0,71.2 340.1,72.1 340.2,73.2 340.3,74.6 340.4,76.3 340.5,78.3 340.6,80.8 340.7,83.8 340.8,87.5 340.9,92.2 341.0,98.8 341.1,109.2 341.2,152.0 341.3,125.4 341.4,119.0 341.5,103.8 341.6,96.0 341.7,90.6 341.8,86.6 341.9,83.5 342.0,81.0 342.1,79.0 342.2,77.4 342.3,76.0 342.4,75.0 342.5,74.2 342.6,73.6 342.7,73.3 342.8,73.1 342.9,73.1 343.0,73.4 343.1,73.8 343.2,74.4 343.3,75.3 343.4,76.4 343.5,77.7 343.6,79.3 343.7,81.3 343.8,83.7 343.9,86.6 344.0,90.2 344.1,94.9 344.2,101.2 344.3,111.3 344.4,152.0 344.5,124.4 344.6,129.4 344.7,108.7 344.8,100.1 344.9,94.4 345.0,90.2 345.1,87.0 345.2,84.4 345.3,82.3 345.4,80.5 345.5,79.2 345.6,78.1 345.7,77.2 345.8,76.6 345.9,76.2 346.0,76.0 346.1,76.0 346.2,76.2 346.3,76.6 346.4,77.2 346.5,78.0 346.6,79.0 346.7,80.3 346.8,81.9 346.9,83.8 347.0,86.2 347.1,89.0 347.2,92.6 347.3,97.1 347.4,103.3 347.5,113.2 347.6,152.0 347.7,124.2 347.8,152.0 347.9,113.7 348.0,103.9 348.1,97.8 348.2,93.4 348.3,90.0 348.4,87.3 348.5,85.1 348.6,83.4 348.7,81.9 348.8,80.8 348.9,79.9 349.0,79.2 349.1,78.8 349.2,78.6 349.3,78.5 349.4,78.7 349.5,79.0 349.6,79.6 349.7,80.4 349.8,81.4 349.9,82.6 350.0,84.2 350.1,86.1 350.2,88.3 350.3,91.1 350.4,94.6 350.5,99.0 350.6,105.1 350.7,114.7 350.8,152.0 350.9,124.3 351.0,133.1 351.1,119.0 351.2,107.6 351.3,101.0 351.4,96.3 351.5,92.8 351.6,90.0 351.7,87.7 351.8,85.9 351.9,84.4 352.0,83.2 352.1,82.3 352.2,81.6 352.3,81.1 352.4,80.8 352.5,80.8 352.6,80.9 352.7,81.2 352.8,81.8 352.9,82.5 353.0,83.5 353.1,84.7 353.2,86.2 353.3,88.0 353.4,90.2 353.5,93.0 353.6,96.4 353.7,100.7 353.8,106.7 353.9,116.1 354.0,152.0 354.1,124.6 354.2,128.5 354.3,125.3 354.4,111.2 354.5,104.0 354.6,99.1 354.7,95.4 354.8,92.4 354.9,90.1 355.0,88.2 355.1,86.6 355.2,85.4 355.3,84.4 355.4,83.7 355.5,83.2 355.6,82.9 355.7,82.8 355.8,82.9 355.9,83.2 356.0,83.7 356.1,84.4 356.3,85.3 356.4,86.5 356.5,88.0 356.6,89.8 356.7,91.9 356.8,94.6 356.9,97.9 357.0,102.2 357.1,108.1 357.2,117.3 357.3,152.0 357.4,124.9 357.5,126.4 357.6,134.7 357.7,115.0 357.8,106.9 357.9,101.7 358.0,97.8 358.1,94.7 358.2,92.3 358.3,90.3 358.4,88.7 358.5,87.4 358.6,86.4 358.7,85.6 358.8,85.1 358.9,84.8 359.0,84.6 359.1,84.7 359.2,85.0 359.3,85.4 359.4,86.1 359.5,87.0 359.6,88.2 359.7,89.6 359.8,91.3 359.9,93.5 360.0,96.1 360.1,99.4 360.2,103.6 360.3,109.3 360.4,118.4 360.5,152.0 360.6,125.3 360.7,125.2 360.8,152.0 360.9,119.0 361.0,109.8 361.1,104.1 361.2,100.0 361.3,96.8 361.4,94.3 361.5,92.3 361.6,90.6 361.7,89.3 361.8,88.2 361.9,87.4 362.0,86.8 362.1,86.5 362.2,86.3 362.3,86.3 362.4,86.6 362.5,87.0 362.6,87.7 362.7,88.5 362.8,89.7 362.9,91.1 363.0,92.8 363.1,94.9 363.2,97.5 363.3,100.7 363.4,104.8 363.5,110.4 363.6,119.4 363.7,152.0 363.8,125.7 363.9,124.6 364.0,136.1 364.1,123.6 364.2,112.7 364.3,106.6 364.4,102.2 364.5,98.9 364.6,96.2 364.7,94.1 364.8,92.4 364.9,91.0 365.0,89.9 365.1,89.1 365.2,88.5 365.3,88.1 365.4,87.9 365.5,87.9 365.6,88.1 365.7,88.5 365.8,89.1 365.9,90.0 366.0,91.1 366.1,92.4 366.2,94.1 366.3,96.2 366.4,98.7 366.5,101.8 366.6,105.9 366.7,111.4 366.8,120.3 366.9,152.0 367.0,126.1 367.1,124.2 367.2,131.0 367.3,129.3 367.4,115.8 367.5,108.9 367.6,104.3 367.7,100.8 367.8,98.1 367.9,95.9 368.0,94.1 368.1,92.6 368.2,91.5 368.3,90.6 368.4,90.0 368.5,89.5 368.6,89.3 368.7,89.3 368.8,89.5 368.9,89.9 369.0,90.5 369.1,91.3 369.2,92.3 369.3,93.7 369.4,95.3 369.5,97.3 369.6,99.8 369.7,102.9 369.8,106.9 369.9,112.4 370.0,121.2 370.1,152.0 370.2,126.5 370.3,124.0 370.4,128.3 370.5,138.4 370.6,119.0 370.7,111.3 370.8,106.4 370.9,102.7 371.0,99.8 371.1,97.5 371.2,95.7 371.3,94.2 371.4,93.0 371.5,92.1 371.6,91.4 371.7,90.9 371.8,90.7 371.9,90.6 372.0,90.8 372.1,91.1 372.2,91.7 372.3,92.5 372.4,93.5 372.5,94.8 372.6,96.4 372.7,98.4 372.8,100.9 372.9,103.9 373.0,107.9 373.1,113.3 373.2,121.9 373.3,152.0 373.4,126.9 373.5,123.9 373.6,126.7 373.7,152.0 373.8,122.5 373.9,113.8 374.0,108.4 374.1,104.5 374.2,101.5 374.3,99.1 374.4,97.2 374.5,95.6 374.6,94.4 374.7,93.4 374.8,92.7 374.9,92.2 375.0,92.0 375.1,91.9 375.2,92.0 375.3,92.3 375.4,92.9 375.5,93.6 375.6,94.6 375.7,95.9 375.8,97.5 375.9,99.4 376.0,101.8 376.1,104.8 376.2,108.7 376.3,114.1 376.4,122.6 376.5,152.0 376.6,127.2 376.7,123.9 376.8,125.7 376.9,138.2 377.0,126.7 377.1,116.3 377.2,110.4 377.3,106.3 377.4,103.1 377.5,100.6 377.6,98.6 377.7,97.0 377.8,95.8 377.9,94.7 378.0,94.0 378.1,93.5 378.2,93.2 378.3,93.0 378.4,93.1 378.5,93.4 378.6,94.0 378.7,94.7 378.8,95.7 378.9,96.9 379.0,98.5 379.1,100.4 379.2,102.7 379.3,105.7 379.4,109.5 379.5,114.8 379.6,123.3 379.7,152.0 379.8,127.6 379.9,123.9 380.0,125.0 380.1,132.8 380.2,132.2 380.3,119.0 380.4,112.4 380.5,108.0 380.6,104.7 380.7,102.1 380.8,100.0 380.9,98.4 381.0,97.0 381.1,96.0 381.2,95.2 381.3,94.6 381.4,94.3 381.5,94.2 381.6,94.2 381.7,94.5 381.8,95.0 381.9,95.7 382.0,96.6 382.1,97.9 382.2,99.4 382.3,101.3 382.4,103.6 382.5,106.5 382.6,110.3 382.7,115.5 382.8,123.9 382.9,152.0 383.0,128.0 383.1,124.0 383.2,124.4 383.3,129.9 383.4,141.1 383.5,121.9 383.6,114.5 383.7,109.8 383.8,106.3 383.9,103.5 384.0,101.4 384.1,99.6 384.2,98.3 384.3,97.2 384.4,96.3 384.5,95.8 384.6,95.4 384.7,95.2 384.8,95.3 384.9,95.5 385.0,96.0 385.1,96.6 385.2,97.6 385.3,98.8 385.4,100.2 385.5,102.1 385.6,104.4 385.7,107.3 385.8,111.0 385.9,116.1 386.0,124.5 386.1,152.0 386.2,128.3 386.3,124.1 386.4,124.1 386.5,128.1 386.6,152.0 386.7,125.2 386.8,116.7 386.9,111.5 387.0,107.8 387.1,104.9 387.2,102.7 387.3,100.9 387.4,99.4 387.5,98.3 387.6,97.4 387.7,96.8 387.8,96.4 387.9,96.2 388.0,96.2 388.1,96.5 388.2,96.9 388.3,97.5 388.4,98.4 388.5,99.6 388.6,101.1 388.7,102.9 388.8,105.1 388.9,108.0 389.0,111.7 389.1,116.8 389.2,125.0 389.3,152.0 389.4,128.6 389.5,124.2 389.6,123.8 389.7,126.8 389.8,139.8 389.9,129.1 390.0,118.9 390.1,113.3 390.2,109.3 390.3,106.3 390.4,104.0 390.5,102.1 390.6,100.6 390.7,99.4 390.8,98.5 390.9,97.8 391.0,97.4 391.1,97.2 391.2,97.2 391.3,97.4 391.4,97.8 391.5,98.4 391.6,99.3 391.7,100.4 391.8,101.8 391.9,103.6 392.0,105.8 392.1,108.6 392.2,112.3 392.3,117.3 392.4,125.5 392.5,152.0 392.6,128.9 392.7,124.4 392.8,123.6 392.9,125.9 393.0,134.3 393.1,134.4 393.2,121.4 393.3,115.1 393.4,110.8 393.5,107.7 393.6,105.2 393.7,103.3 393.8,101.7 393.9,100.5 394.0,99.5 394.1,98.8 394.2,98.3 394.3,98.1 394.4,98.0 394.5,98.2 394.6,98.6 394.7,99.2 394.8,100.1 394.9,101.2 395.0,102.6 395.1,104.3 395.2,106.5 395.3,109.3 395.4,112.9 395.5,117.9 395.6,126.0 395.7,152.0 395.8,129.2 395.9,124.5 396.0,123.5 396.1,125.1 396.2,131.3 396.3,143.4 396.4,124.1 396.5,117.0 396.6,112.4 396.7,109.0 396.8,106.4 396.9,104.4 397.0,102.8 397.1,101.5 397.2,100.5 397.3,99.8 397.4,99.3 397.5,99.0 397.6,98.9 397.7,99.0 397.8,99.4 397.9,100.0 398.0,100.8 398.1,101.9 398.2,103.3 398.3,105.0 398.4,107.1 398.5,109.9 398.6,113.4 398.7,118.4 398.8,126.5 398.9,152.0 399.0,129.5 399.1,124.6 399.2,123.4 399.3,124.6 399.4,129.2 399.5,152.0 399.6,127.2 399.7,118.9 399.8,113.9 399.9,110.4 400.0,107.7 400.1,105.5 400.2,103.8 400.3,102.5 400.4,101.4 400.5,100.7 400.6,100.1 400.7,99.8 400.8,99.7 400.9,99.8 401.0,100.2 401.1,100.7 401.2,101.5 401.3,102.6 401.4,103.9 401.5,105.6 401.6,107.7 401.7,110.4 401.8,114.0 401.9,118.9 402.0,126.9 402.1,152.0 402.2,129.8 402.3,124.8 402.4,123.3 402.5,124.1 402.6,127.8 402.7,141.0 402.8,131.0 402.9,121.0 403.0,115.5 403.1,111.7 403.2,108.9 403.3,106.6 403.4,104.9 403.5,103.5 403.6,102.4 403.7,101.5 403.8,101.0 403.9,100.6 404.0,100.5 404.1,100.6 404.2,100.9 404.3,101.4 404.4,102.2 404.5,103.2 404.6,104.5 404.7,106.2 404.8,108.3 404.9,111.0 405.0,114.5 405.1,119.3 405.2,127.3 405.3,152.0 405.4,130.0 405.5,124.9 405.6,123.3 405.7,123.8 405.8,126.7 405.9,135.5 406.0,136.2 406.1,123.3 406.2,117.2 406.3,113.1 406.4,110.1 406.5,107.7 406.6,105.9 406.7,104.4 406.8,103.3 406.9,102.4 407.0,101.8 407.1,101.4 407.2,101.3 407.3,101.3 407.4,101.6 407.5,102.1 407.6,102.8 407.7,103.8 407.8,105.1 407.9,106.8 408.0,108.9 408.1,111.5 408.2,114.9 408.3,119.8 408.4,127.7 408.5,152.0 408.6,130.3 408.7,125.1 408.8,123.3 408.9,123.5 409.0,125.8 409.1,132.3 409.2,145.2 409.3,125.9 409.4,118.9 409.5,114.5 409.6,111.3 409.7,108.8 409.8,106.9 409.9,105.3 410.0,104.1 410.1,103.2 410.2,102.6 410.3,102.2 410.4,102.0 410.5,102.0 410.6,102.3 410.7,102.8 410.8,103.5 410.9,104.4 411.0,105.7 411.1,107.3 411.2,109.4 411.3,112.0 411.4,115.4 411.5,120.2 411.6,128.1 411.7,152.0 411.8,130.5 411.9,125.2 412.0,123.3 412.1,123.3 412.2,125.1 412.3,130.2 412.4,152.0 412.5,128.9 412.6,120.7 412.7,115.9 412.8,112.5 412.9,109.9 413.0,107.8 413.1,106.2 413.2,105.0 413.3,104.0 413.4,103.4 413.5,102.9 413.6,102.7 413.7,102.7 413.8,102.9 413.9,103.4 414.0,104.1 414.1,105.0 414.2,106.3 414.3,107.9 414.4,109.9 414.5,112.4 414.6,115.8 414.7,120.6 414.8,128.4 414.9,152.0 415.0,130.8 415.1,125.4 415.2,123.3 415.3,123.1 415.4,124.5 415.5,128.6 415.6,141.9 415.7,132.6 415.8,122.7 415.9,117.4 416.0,113.7 416.1,110.9 416.2,108.8 416.3,107.1 416.4,105.8 416.5,104.8 416.6,104.1 416.7,103.6 416.8,103.4 416.9,103.4 417.0,103.6 417.1,104.0 417.2,104.7 417.3,105.6 417.4,106.8 417.5,108.4 417.6,110.3 417.7,112.9 417.8,116.2 417.9,120.9 418.0,128.8 418.1,152.0 418.2,131.0 418.3,125.5 418.4,123.3 418.5,122.9 418.6,124.1 418.7,127.4 418.8,136.4 418.9,137.7 419.0,124.9 419.1,118.9 419.2,114.9 419.3,112.0 419.4,109.8 419.5,108.0 419.6,106.7 419.7,105.6 419.8,104.8 419.9,104.3 420.0,104.0 420.1,104.0 420.2,104.2 420.3,104.6 420.4,105.2 420.5,106.1 420.6,107.3 420.7,108.8 420.8,110.8 420.9,113.3 421.0,116.6 421.1,121.3 421.2,129.1 421.3,152.0 421.4,131.2 421.5,125.6 421.6,123.4 421.7,122.8 421.8,123.7 421.9,126.4 422.0,133.2 422.1,146.8 422.2,127.3 422.3,120.5 422.4,116.2 422.5,113.1 422.6,110.7 422.7,108.9 422.8,107.5 422.9,106.4 423.0,105.6 423.1,105.0 423.2,104.7 423.3,104.6 423.4,104.8 423.5,105.1 423.6,105.7 423.7,106.6 423.8,107.8 423.9,109.3 424.0,111.2 424.1,113.7 424.2,117.0 424.3,121.6 424.4,129.4 424.6,152.0 424.7,131.4 424.8,125.8 424.9,123.4 425.0,122.7 425.1,123.3 425.2,125.6 425.3,131.0 425.4,152.0 425.5,130.3 425.6,122.2 425.7,117.5 425.8,114.2 425.9,111.7 426.0,109.8 426.1,108.3 426.2,107.1 426.3,106.3 426.4,105.7 426.5,105.3 426.6,105.2 426.7,105.3 426.8,105.7 426.9,106.3 427.0,107.1 427.1,108.3 427.2,109.7 427.3,111.6 427.4,114.1 427.5,117.4 427.6,122.0 427.7,129.7 427.8,152.0 427.9,131.6 428.0,125.9 428.1,123.4 428.2,122.6 428.3,123.0 428.4,124.9 428.5,129.3 428.6,142.7 428.7,133.9 428.8,124.1 428.9,118.9 429.0,115.3 429.1,112.7 429.2,110.6 429.3,109.1 429.4,107.9 429.5,106.9 429.6,106.3 429.7,105.9 429.8,105.8 429.9,105.9 430.0,106.2 430.1,106.8 430.2,107.6 430.3,108.7 430.4,110.2 430.5,112.0 430.6,114.5 430.7,117.7 430.8,122.3 430.9,129.9 431.0,152.0 431.1,131.8 431.2,126.0 431.3,123.5 431.4,122.5 431.5,122.8 431.6,124.4 431.7,128.0 431.8,137.2 431.9,139.0 432.0,126.2 432.1,120.3 432.2,116.4 432.3,113.6 432.4,111.5 432.5,109.8 432.6,108.6 432.7,107.6 432.8,107.0 432.9,106.5 433.0,106.4 433.1,106.4 433.2,106.7 433.3,107.2 433.4,108.0 433.5,109.1 433.6,110.6 433.7,112.4 433.8,114.8 433.9,118.0 434.0,122.6 434.1,130.2 434.2,152.0 434.3,131.9 434.4,126.1 434.5,123.5 434.6,122.4 434.7,122.6 434.8,123.9 434.9,126.9 435.0,133.9 435.1,148.3 435.2,128.6 435.3,121.8 435.4,117.6 435.5,114.6 435.6,112.4 435.7,110.6 435.8,109.3 435.9,108.3 436.0,107.6 436.1,107.1 436.2,106.9 436.3,106.9 436.4,107.2 436.5,107.7 436.6,108.5 436.7,109.6 436.8,111.0 436.9,112.8 437.0,115.2 437.1,118.3 437.2,122.9 437.3,130.4 437.4,152.0 437.5,132.1 437.6,126.2 437.7,123.5 437.8,122.4 437.9,122.4 438.0,123.5 438.1,126.0 438.2,131.6 438.3,152.0 438.4,131.4 438.5,123.5 438.6,118.8 438.7,115.6 438.8,113.2 438.9,111.4 439.0,110.0 439.1,108.9 439.2,108.2 439.3,107.7 439.4,107.5 439.5,107.4 439.6,107.7 439.7,108.2 439.8,108.9 439.9,110.0 440.0,111.4 440.1,113.2 440.2,115.5 440.3,118.6 440.4,123.1 440.5,130.7 440.6,152.0 440.7,132.2 440.8,126.3 440.9,123.6 441.0,122.3 441.1,122.2 441.2,123.1 441.3,125.3 441.4,129.8 441.5,143.2 441.6,135.0 441.7,125.2 441.8,120.1 441.9,116.7 442.0,114.1 442.1,112.2 442.2,110.7 442.3,109.6 442.4,108.8 442.5,108.3 442.6,108.0 442.7,107.9 442.8,108.2 442.9,108.6 443.0,109.3 443.1,110.4 443.2,111.7 443.3,113.5 443.4,115.8 443.5,118.9 443.6,123.4 443.7,130.9 443.8,152.0 443.9,132.4 444.0,126.4 444.1,123.6 444.2,122.3 444.3,122.0 444.4,122.7 444.5,124.6 444.6,128.5 444.7,137.7 444.8,140.1 444.9,127.3 445.0,121.5 445.1,117.7 445.2,115.0 445.3,113.0 445.4,111.4 445.5,110.2 445.6,109.4 445.7,108.8 445.8,108.5 445.9,108.4 446.0,108.6 446.1,109.0 446.2,109.7 446.3,110.7 446.4,112.1 446.5,113.8 446.6,116.1 446.7,119.2 446.8,123.6 446.9,131.1 447.0,152.0 447.1,132.5 447.2,126.5 447.3,123.6 447.4,122.2 447.5,121.9 447.6,122.4 447.7,124.1 447.8,127.3 447.9,134.4 448.0,149.5 448.1,129.6 448.2,122.9 448.3,118.8 448.4,115.9 448.5,113.8 448.6,112.1 448.7,110.9 448.8,110.0 448.9,109.4 449.0,109.0 449.1,108.9 449.2,109.1 449.3,109.5 449.4,110.1 449.5,111.1 449.6,112.4 449.7,114.1 449.8,116.4 449.9,119.5 450.0,123.9 450.1,131.3 450.2,152.0 450.3,132.7 450.4,126.6 450.5,123.7 450.6,122.2 450.7,121.7 450.8,122.2 450.9,123.6 451.0,126.4 451.1,132.1 451.2,152.0 451.3,132.3 451.4,124.5 451.5,120.0 451.6,116.9 451.7,114.6 451.8,112.8 451.9,111.5 452.0,110.6 452.1,109.9 452.2,109.5 452.3,109.4 452.4,109.5 452.5,109.9 452.6,110.5 452.7,111.5 452.8,112.7 452.9,114.4 453.0,116.7 453.1,119.7 453.2,124.1 453.3,131.5 453.4,152.0 453.5,132.8 453.6,126.7 453.7,123.7 453.8,122.2 453.9,121.6 454.0,121.9 454.1,123.1 454.2,125.5 454.3,130.3 454.4,143.6 454.5,135.9 454.6,126.2 454.7,121.2 454.8,117.8 454.9,115.4 455.0,113.5 455.1,112.1 455.2,111.1 455.3,110.4 455.4,110.0 455.5,109.8 455.6,109.9 455.7,110.3 455.8,110.9 455.9,111.8 456.0,113.1 456.1,114.7 456.2,117.0 456.3,120.0 456.4,124.3 456.5,131.7 456.6,152.0 456.7,132.9 456.8,126.8 456.9,123.7 457.0,122.1 457.1,121.5 457.2,121.7 457.3,122.7 457.4,124.8 457.5,128.8 457.6,138.2 457.7,141.0 457.8,128.2 457.9,122.5 458.0,118.8 458.1,116.2 458.2,114.2 458.3,112.8 458.4,111.7 458.5,110.9 458.6,110.5 458.7,110.3 458.8,110.3 458.9,110.6 459.0,111.2 459.1,112.1 459.2,113.4 459.3,115.0 459.4,117.2 459.5,120.2 459.6,124.5 459.7,131.9 459.8,152.0 459.9,133.0 460.0,126.8 460.1,123.7 460.2,122.1 460.3,121.4 460.4,121.5 460.5,122.3 460.6,124.2 460.7,127.6 460.8,134.8 460.9,150.6 461.0,130.4 461.1,123.8 461.2,119.8 461.3,117.0 461.4,115.0 461.5,113.4 461.6,112.3 461.7,111.5 461.8,110.9 461.9,110.7 462.0,110.7 462.1,111.0 462.2,111.6 462.3,112.4 462.4,113.7 462.5,115.3 462.6,117.5 462.7,120.4 462.8,124.7 462.9,132.0 463.0,152.0 463.1,133.1 463.2,126.9 463.3,123.8 463.4,122.1 463.5,121.3 463.6,121.3 463.7,122.0 463.8,123.6 463.9,126.6 464.0,132.4 464.1,152.0 464.2,133.1 464.3,125.3 464.4,120.9 464.5,117.9 464.6,115.7 464.7,114.1 464.8,112.8 464.9,112.0 465.0,111.4 465.1,111.1 465.2,111.1 465.3,111.4 465.4,111.9 465.5,112.8 465.6,113.9 465.7,115.6 465.8,117.7 465.9,120.6 466.0,124.9 466.1,132.2 466.2,152.0 466.3,133.2 466.4,126.9 466.5,123.8 466.6,122.0 466.7,121.2 466.8,121.1 466.9,121.7 467.0,123.1 467.1,125.7 467.2,130.6 467.3,143.9 467.4,136.7 467.5,127.0 467.6,122.1 467.7,118.8 467.8,116.4 467.9,114.7 468.0,113.4 468.1,112.5 468.2,111.9 468.3,111.6 468.4,111.5 468.5,111.7 468.6,112.3 468.7,113.1 468.8,114.2 468.9,115.8 469.0,117.9 469.1,120.8 469.2,125.1 469.3,132.4 469.4,152.0 469.5,133.3 469.6,127.0 469.7,123.8 469.8,122.0 469.9,121.1 470.0,120.9 470.1,121.4 470.2,122.6 470.3,124.9 470.4,129.1 470.5,138.5 470.6,141.8 470.7,128.9 470.8,123.3 470.9,119.7 471.0,117.2 471.1,115.3 471.2,114.0 471.3,113.0 471.4,112.3 471.5,112.0 471.6,111.9 471.7,112.1 471.8,112.6 471.9,113.4 472.0,114.5 472.1,116.1 472.2,118.1 472.3,121.0 472.4,125.2 472.5,132.5 472.6,152.0 472.7,133.4 472.8,127.0 472.9,123.8 473.0,121.9 473.1,121.0 473.2,120.7 473.3,121.1 473.4,122.2 473.5,124.3 473.6,127.8 473.7,135.1 473.8,151.7 473.9,131.1 474.0,124.6 474.1,120.7 474.2,118.0 474.3,116.0 474.4,114.6 474.5,113.5 474.6,112.8 474.7,112.4 474.8,112.3 474.9,112.4 475.0,112.9 475.1,113.6 475.2,114.8 475.3,116.3 475.4,118.4 475.5,121.2 475.6,125.4 475.7,132.6 475.8,152.0 475.9,133.5 476.0,127.1 476.1,123.8 476.2,121.9 476.3,120.9 476.4,120.5 476.5,120.8 476.6,121.8 476.7,123.6 476.8,126.8 476.9,132.7 477.0,152.0 477.1,133.8 477.2,126.1 477.3,121.7 477.4,118.8 477.5,116.7 477.6,115.1 477.7,114.0 477.8,113.3 477.9,112.8 478.0,112.6 478.1,112.8 478.2,113.2 478.3,113.9 478.4,115.0 478.5,116.5 478.6,118.6 478.7,121.4 478.8,125.6 478.9,132.8 479.0,152.0 479.1,133.5 479.2,127.1 479.3,123.8 479.4,121.8 479.5,120.8 479.6,120.4 479.7,120.6 479.8,121.4 479.9,123.1 480.0,125.8 480.1,130.8 480.2,144.1 480.3,137.3 480.4,127.7 480.5,122.8 480.6,119.6 480.7,117.4 480.8,115.7 480.9,114.5 481.0,113.7 481.1,113.2 481.2,113.0 481.3,113.1 481.4,113.5 481.5,114.2 481.6,115.3 481.7,116.7 481.8,118.8 481.9,121.6 482.0,125.7 482.1,132.9 482.2,152.0 482.3,133.6 482.4,127.2 482.5,123.8 482.6,121.8 482.7,120.7 482.8,120.2 482.9,120.3 483.0,121.1 483.1,122.5 483.2,125.0 483.3,129.3 483.4,138.7 483.5,142.4 483.6,129.5 483.7,124.0 483.8,120.5 483.9,118.1 484.0,116.3 484.1,115.0 484.2,114.2 484.3,113.6 484.4,113.4 484.5,113.4 484.6,113.8 484.7,114.5 484.8,115.5 484.9,116.9 485.0,118.9 485.1,121.7 485.2,125.8 485.3,133.0 485.4,152.0 485.5,133.7 485.6,127.2 485.7,123.8 485.8,121.8 485.9,120.6 486.0,120.1 486.1,120.1 486.2,120.7 486.3,122.0 486.4,124.2 486.5,128.0 486.6,135.3 486.7,152.0 486.8,131.7 486.9,125.3 487.0,121.4 487.1,118.8 487.2,116.9 487.3,115.6 487.4,114.6 487.5,114.0 487.6,113.7 487.7,113.8 487.8,114.1 487.9,114.7 488.0,115.7 488.1,117.2 488.2,119.1 488.3,121.9 488.4,126.0 488.5,133.1 488.6,152.0 488.7,133.7 488.8,127.2 488.9,123.8 489.0,121.7 489.1,120.5 489.2,119.9 489.3,119.9 489.4,120.4 489.5,121.6 489.6,123.6 489.7,126.8 489.8,132.9 489.9,152.0 490.0,134.3 490.1,126.6 490.2,122.4 490.3,119.6 490.4,117.5 490.5,116.1 490.6,115.1 490.7,114.4 490.8,114.1 490.9,114.1 491.0,114.4 491.1,115.0 491.2,115.9 491.3,117.3 491.4,119.3 491.5,122.0 491.6,126.1 491.7,133.2 491.8,152.0 491.9,133.7 492.0,127.2 492.1,123.7 492.2,121.6 492.3,120.4 492.4,119.8 492.5,119.7 492.6,120.1 492.7,121.2 492.9,122.9 493.0,125.8 493.1,130.9 493.2,144.1 493.3,137.8 493.4,128.2 493.5,123.4 493.6,120.3 493.7,118.2 493.8,116.6 493.9,115.5 494.0,114.8 494.1,114.4 494.2,114.4 494.3,114.6 494.4,115.2 494.5,116.2 494.6,117.5 494.7,119.5 494.8,122.2 494.9,126.2 495.0,133.3 495.1,152.0 495.2,133.8 495.3,127.2 495.4,123.7 495.5,121.6 495.6,120.3 495.7,119.6 495.8,119.5 495.9,119.8 496.0,120.7 496.1,122.4 496.2,125.0 496.3,129.3 496.4,138.8 496.5,142.9 496.6,130.0 496.7,124.5 496.8,121.2 496.9,118.8 497.0,117.2 497.1,116.0 497.2,115.2 497.3,114.8 497.4,114.7 497.5,114.9 497.6,115.5 497.7,116.4 497.8,117.7 497.9,119.6 498.0,122.3 498.1,126.3 498.2,133.4 498.3,152.0 498.4,133.8 498.5,127.2 498.6,123.7 498.7,121.5 498.8,120.2 498.9,119.5 499.0,119.2 499.1,119.5 499.2,120.4 499.3,121.8 499.4,124.2 499.5,128.0 499.6,135.4 499.7,152.0 499.8,132.1 499.9,125.8 500.0,122.0 500.1,119.5 500.2,117.7 500.3,116.4 500.4,115.6 500.5,115.1 500.6,115.0 500.7,115.2 500.8,115.7 500.9,116.6 501.0,117.9 501.1,119.8 501.2,122.4 501.3,126.4 501.4,133.4 501.5,152.0 501.6,133.8 501.7,127.2 501.8,123.7 501.9,121.5 502.0,120.1 502.1,119.3 502.2,119.0 502.3,119.3 502.4,120.0 502.5,121.3 502.6,123.4 502.7,126.8 502.8,132.9 502.9,152.0 503.0,134.8 503.1,127.1 503.2,122.9 503.3,120.2 503.4,118.3 503.5,116.9 503.6,116.0 503.7,115.5 503.8,115.3 503.9,115.4 504.0,115.9 504.1,116.8 504.2,118.1 504.3,119.9 504.4,122.6 504.5,126.5 504.6,133.5 504.7,152.0 504.8,133.9 504.9,127.2 505.0,123.6 505.1,121.4 505.2,120.0 505.3,119.2 505.4,118.8 505.5,119.0 505.6,119.6 505.7,120.8 505.8,122.8 505.9,125.8 506.0,130.9 506.1,144.1 506.2,138.2 506.3,128.6 506.4,123.9 506.5,120.9 506.6,118.9 506.7,117.4 506.8,116.4 506.9,115.8 507.0,115.6 507.1,115.7 507.2,116.2 507.3,117.0 507.4,118.2 507.5,120.1 507.6,122.7 507.7,126.6 507.8,133.6 507.9,152.0 508.0,133.9 508.1,127.2 508.2,123.6 508.3,121.3 508.4,119.9 508.5,119.0 508.6,118.6 508.7,118.7 508.8,119.3 508.9,120.4 509.0,122.1 509.1,124.8 509.2,129.3 509.3,138.8 509.4,143.4 509.5,130.4 509.6,125.0 509.7,121.7 509.8,119.5 509.9,117.9 510.0,116.8 510.1,116.2 510.2,115.9 510.3,116.0 510.4,116.4 510.5,117.2 510.6,118.4 510.7,120.2 510.8,122.8 510.9,126.7 511.0,133.6 511.1,152.0 511.2,133.9 511.3,127.2 511.4,123.5 511.5,121.2 511.6,119.7 511.7,118.8 511.8,118.4 511.9,118.5 512.0,119.0 512.1,119.9 512.2,121.5 512.3,124.0 512.4,127.9 512.5,135.4 512.6,152.0 512.7,132.5 512.8,126.2 512.9,122.5 513.0,120.1 513.1,118.4 513.2,117.2 513.3,116.5 513.4,116.2 513.5,116.2 513.6,116.6 513.7,117.4 513.8,118.6 513.9,120.3 514.0,122.9 514.1,126.8 514.2,133.7 514.3,152.0 514.4,133.9 514.5,127.2 514.6,123.5 514.7,121.2 514.8,119.6 514.9,118.7 515.0,118.2 515.1,118.2 515.2,118.6 515.3,119.5 515.4,121.0 515.5,123.2 515.6,126.7 515.7,132.9 515.8,152.0 515.9,135.1 516.0,127.5 516.1,123.4 516.2,120.7 516.3,118.9 516.4,117.7 516.5,116.9 516.6,116.5 516.7,116.5 516.8,116.8 516.9,117.5 517.0,118.7 517.1,120.4 517.2,123.0 517.3,126.8 517.4,133.7 517.5,152.0 517.6,133.9 517.7,127.1 517.8,123.4 517.9,121.1 518.0,119.5 518.1,118.5 518.2,118.0 518.3,118.0 518.4,118.3 518.5,119.1 518.6,120.4 518.7,122.5 518.8,125.6 518.9,130.9 519.0,143.9 519.1,138.5 519.2,129.0 519.3,124.3 519.4,121.4 519.5,119.4 519.6,118.1 519.7,117.2 519.8,116.8 519.9,116.7 520.0,117.0 520.1,117.7 520.2,118.9 520.3,120.6 520.4,123.1 520.5,126.9 520.6,133.8 520.7,152.0 520.8,133.9 520.9,127.1 521.0,123.4 521.1,121.0 521.2,119.4 521.3,118.4 521.4,117.8 521.5,117.7 521.6,118.0 521.7,118.7 521.8,119.9 521.9,121.8 522.0,124.6 522.1,129.2 522.2,138.7 522.3,143.7 522.4,130.7 522.5,125.4 522.6,122.1 522.7,120.0 522.8,118.5 522.9,117.6 523.0,117.1 523.1,117.0 523.2,117.2 523.3,117.9 523.4,119.0 523.5,120.7 523.6,123.2 523.7,127.0 523.8,133.8 523.9,152.0 524.0,133.9 524.1,127.1 524.2,123.3 524.3,120.9 524.4,119.3 524.5,118.2 524.6,117.6 524.7,117.5 524.8,117.7 524.9,118.3 525.0,119.5 525.1,121.2 525.2,123.7 525.3,127.7 525.4,135.3 525.5,152.0 525.6,132.7 525.7,126.5 525.8,122.9 525.9,120.6 526.0,119.0 526.1,118.0 526.2,117.4 526.3,117.2 526.4,117.4 526.5,118.1 526.6,119.1 526.7,120.8 526.8,123.2 526.9,127.0 527.0,133.8" fill="none" stroke="#4a90d9" stroke-width="1.2" stroke-linejoin="round"/>
  <text x="154.5" y="176" text-anchor="middle" font-size="8" fill="#6b7280">n / N</text>
  <text x="424.5" y="176" text-anchor="middle" font-size="8" fill="#6b7280">Normalized frequency (× Fₛ)</text>
</svg>
