<svg xmlns="http://www.w3.org/2000/svg" viewBox="0 0 560 210" width="560" height="210" style="font-family:system-ui,-apple-system,sans-serif">
  <rect width="560" height="210" fill="#fafafa" rx="6"/>
  <text x="280" y="18" text-anchor="middle" font-size="12" font-weight="600" fill="#374151">bartlettHann</text>
  <line x1="52" y1="166.0" x2="257" y2="166.0" stroke="#e5e7eb" stroke-width="0.5"/>
  <text x="48" y="169.0" text-anchor="end" font-size="7.5" fill="#6b7280">0</text>
  <line x1="52" y1="97.0" x2="257" y2="97.0" stroke="#e5e7eb" stroke-width="0.5"/>
  <text x="48" y="100.0" text-anchor="end" font-size="7.5" fill="#6b7280">0.5</text>
  <line x1="52" y1="28.0" x2="257" y2="28.0" stroke="#e5e7eb" stroke-width="0.5"/>
  <text x="48" y="31.0" text-anchor="end" font-size="7.5" fill="#6b7280">1</text>
  <line x1="52.0" y1="28" x2="52.0" y2="166" stroke="#e5e7eb" stroke-width="0.5"/>
  <text x="52.0" y="178" text-anchor="middle" font-size="7.5" fill="#6b7280">0</text>
  <line x1="154.5" y1="28" x2="154.5" y2="166" stroke="#e5e7eb" stroke-width="0.5"/>
  <text x="154.5" y="178" text-anchor="middle" font-size="7.5" fill="#6b7280">0.5</text>
  <line x1="257.0" y1="28" x2="257.0" y2="166" stroke="#e5e7eb" stroke-width="0.5"/>
  <text x="257.0" y="178" text-anchor="middle" font-size="7.5" fill="#6b7280">1</text>
  <line x1="52" y1="28" x2="52" y2="166" stroke="#d1d5db" stroke-width="0.75"/>
  <line x1="52" y1="166" x2="257" y2="166" stroke="#d1d5db" stroke-width="0.75"/>
  <path d="M52.0,166.0 52.0,166.0 52.8,165.7 53.6,165.4 54.4,165.1 55.2,164.7 56.0,164.3 56.8,163.9 57.6,163.4 58.4,162.9 59.2,162.4 60.0,161.8 60.8,161.2 61.6,160.6 62.5,160.0 63.3,159.3 64.1,158.6 64.9,157.8 65.7,157.1 66.5,156.3 67.3,155.4 68.1,154.6 68.9,153.7 69.7,152.8 70.5,151.8 71.3,150.9 72.1,149.9 72.9,148.8 73.7,147.8 74.5,146.7 75.3,145.6 76.1,144.5 76.9,143.4 77.7,142.2 78.5,141.0 79.3,139.8 80.1,138.6 80.9,137.3 81.7,136.1 82.5,134.8 83.4,133.5 84.2,132.1 85.0,130.8 85.8,129.4 86.6,128.0 87.4,126.7 88.2,125.2 89.0,123.8 89.8,122.4 90.6,120.9 91.4,119.5 92.2,118.0 93.0,116.5 93.8,115.0 94.6,113.5 95.4,112.0 96.2,110.5 97.0,109.0 97.8,107.4 98.6,105.9 99.4,104.4 100.2,102.8 101.0,101.3 101.8,99.7 102.6,98.2 103.5,96.6 104.3,95.1 105.1,93.5 105.9,92.0 106.7,90.4 107.5,88.9 108.3,87.3 109.1,85.8 109.9,84.3 110.7,82.7 111.5,81.2 112.3,79.7 113.1,78.2 113.9,76.7 114.7,75.3 115.5,73.8 116.3,72.3 117.1,70.9 117.9,69.5 118.7,68.0 119.5,66.6 120.3,65.3 121.1,63.9 121.9,62.5 122.7,61.2 123.5,59.9 124.4,58.6 125.2,57.3 126.0,56.0 126.8,54.8 127.6,53.6 128.4,52.4 129.2,51.2 130.0,50.0 130.8,48.9 131.6,47.8 132.4,46.7 133.2,45.7 134.0,44.6 134.8,43.6 135.6,42.7 136.4,41.7 137.2,40.8 138.0,39.9 138.8,39.0 139.6,38.2 140.4,37.3 141.2,36.6 142.0,35.8 142.8,35.1 143.6,34.4 144.5,33.7 145.3,33.1 146.1,32.5 146.9,31.9 147.7,31.4 148.5,30.8 149.3,30.4 150.1,29.9 150.9,29.5 151.7,29.1 152.5,28.7 153.3,28.4 154.1,28.1 154.9,28.1 155.7,28.4 156.5,28.7 157.3,29.1 158.1,29.5 158.9,29.9 159.7,30.4 160.5,30.8 161.3,31.4 162.1,31.9 162.9,32.5 163.7,33.1 164.5,33.7 165.4,34.4 166.2,35.1 167.0,35.8 167.8,36.6 168.6,37.3 169.4,38.2 170.2,39.0 171.0,39.9 171.8,40.8 172.6,41.7 173.4,42.7 174.2,43.6 175.0,44.6 175.8,45.7 176.6,46.7 177.4,47.8 178.2,48.9 179.0,50.0 179.8,51.2 180.6,52.4 181.4,53.6 182.2,54.8 183.0,56.0 183.8,57.3 184.6,58.6 185.5,59.9 186.3,61.2 187.1,62.5 187.9,63.9 188.7,65.3 189.5,66.6 190.3,68.0 191.1,69.5 191.9,70.9 192.7,72.3 193.5,73.8 194.3,75.3 195.1,76.7 195.9,78.2 196.7,79.7 197.5,81.2 198.3,82.7 199.1,84.3 199.9,85.8 200.7,87.3 201.5,88.9 202.3,90.4 203.1,92.0 203.9,93.5 204.7,95.1 205.5,96.6 206.4,98.2 207.2,99.7 208.0,101.3 208.8,102.8 209.6,104.4 210.4,105.9 211.2,107.4 212.0,109.0 212.8,110.5 213.6,112.0 214.4,113.5 215.2,115.0 216.0,116.5 216.8,118.0 217.6,119.5 218.4,120.9 219.2,122.4 220.0,123.8 220.8,125.2 221.6,126.7 222.4,128.0 223.2,129.4 224.0,130.8 224.8,132.1 225.6,133.5 226.5,134.8 227.3,136.1 228.1,137.3 228.9,138.6 229.7,139.8 230.5,141.0 231.3,142.2 232.1,143.4 232.9,144.5 233.7,145.6 234.5,146.7 235.3,147.8 236.1,148.8 236.9,149.9 237.7,150.9 238.5,151.8 239.3,152.8 240.1,153.7 240.9,154.6 241.7,155.4 242.5,156.3 243.3,157.1 244.1,157.8 244.9,158.6 245.7,159.3 246.5,160.0 247.4,160.6 248.2,161.2 249.0,161.8 249.8,162.4 250.6,162.9 251.4,163.4 252.2,163.9 253.0,164.3 253.8,164.7 254.6,165.1 255.4,165.4 256.2,165.7 257.0,166.0 L257.0,166.0 Z" fill="#4a90d9" fill-opacity="0.06"/>
  <polyline points="52.0,166.0 52.8,165.7 53.6,165.4 54.4,165.1 55.2,164.7 56.0,164.3 56.8,163.9 57.6,163.4 58.4,162.9 59.2,162.4 60.0,161.8 60.8,161.2 61.6,160.6 62.5,160.0 63.3,159.3 64.1,158.6 64.9,157.8 65.7,157.1 66.5,156.3 67.3,155.4 68.1,154.6 68.9,153.7 69.7,152.8 70.5,151.8 71.3,150.9 72.1,149.9 72.9,148.8 73.7,147.8 74.5,146.7 75.3,145.6 76.1,144.5 76.9,143.4 77.7,142.2 78.5,141.0 79.3,139.8 80.1,138.6 80.9,137.3 81.7,136.1 82.5,134.8 83.4,133.5 84.2,132.1 85.0,130.8 85.8,129.4 86.6,128.0 87.4,126.7 88.2,125.2 89.0,123.8 89.8,122.4 90.6,120.9 91.4,119.5 92.2,118.0 93.0,116.5 93.8,115.0 94.6,113.5 95.4,112.0 96.2,110.5 97.0,109.0 97.8,107.4 98.6,105.9 99.4,104.4 100.2,102.8 101.0,101.3 101.8,99.7 102.6,98.2 103.5,96.6 104.3,95.1 105.1,93.5 105.9,92.0 106.7,90.4 107.5,88.9 108.3,87.3 109.1,85.8 109.9,84.3 110.7,82.7 111.5,81.2 112.3,79.7 113.1,78.2 113.9,76.7 114.7,75.3 115.5,73.8 116.3,72.3 117.1,70.9 117.9,69.5 118.7,68.0 119.5,66.6 120.3,65.3 121.1,63.9 121.9,62.5 122.7,61.2 123.5,59.9 124.4,58.6 125.2,57.3 126.0,56.0 126.8,54.8 127.6,53.6 128.4,52.4 129.2,51.2 130.0,50.0 130.8,48.9 131.6,47.8 132.4,46.7 133.2,45.7 134.0,44.6 134.8,43.6 135.6,42.7 136.4,41.7 137.2,40.8 138.0,39.9 138.8,39.0 139.6,38.2 140.4,37.3 141.2,36.6 142.0,35.8 142.8,35.1 143.6,34.4 144.5,33.7 145.3,33.1 146.1,32.5 146.9,31.9 147.7,31.4 148.5,30.8 149.3,30.4 150.1,29.9 150.9,29.5 151.7,29.1 152.5,28.7 153.3,28.4 154.1,28.1 154.9,28.1 155.7,28.4 156.5,28.7 157.3,29.1 158.1,29.5 158.9,29.9 159.7,30.4 160.5,30.8 161.3,31.4 162.1,31.9 162.9,32.5 163.7,33.1 164.5,33.7 165.4,34.4 166.2,35.1 167.0,35.8 167.8,36.6 168.6,37.3 169.4,38.2 170.2,39.0 171.0,39.9 171.8,40.8 172.6,41.7 173.4,42.7 174.2,43.6 175.0,44.6 175.8,45.7 176.6,46.7 177.4,47.8 178.2,48.9 179.0,50.0 179.8,51.2 180.6,52.4 181.4,53.6 182.2,54.8 183.0,56.0 183.8,57.3 184.6,58.6 185.5,59.9 186.3,61.2 187.1,62.5 187.9,63.9 188.7,65.3 189.5,66.6 190.3,68.0 191.1,69.5 191.9,70.9 192.7,72.3 193.5,73.8 194.3,75.3 195.1,76.7 195.9,78.2 196.7,79.7 197.5,81.2 198.3,82.7 199.1,84.3 199.9,85.8 200.7,87.3 201.5,88.9 202.3,90.4 203.1,92.0 203.9,93.5 204.7,95.1 205.5,96.6 206.4,98.2 207.2,99.7 208.0,101.3 208.8,102.8 209.6,104.4 210.4,105.9 211.2,107.4 212.0,109.0 212.8,110.5 213.6,112.0 214.4,113.5 215.2,115.0 216.0,116.5 216.8,118.0 217.6,119.5 218.4,120.9 219.2,122.4 220.0,123.8 220.8,125.2 221.6,126.7 222.4,128.0 223.2,129.4 224.0,130.8 224.8,132.1 225.6,133.5 226.5,134.8 227.3,136.1 228.1,137.3 228.9,138.6 229.7,139.8 230.5,141.0 231.3,142.2 232.1,143.4 232.9,144.5 233.7,145.6 234.5,146.7 235.3,147.8 236.1,148.8 236.9,149.9 237.7,150.9 238.5,151.8 239.3,152.8 240.1,153.7 240.9,154.6 241.7,155.4 242.5,156.3 243.3,157.1 244.1,157.8 244.9,158.6 245.7,159.3 246.5,160.0 247.4,160.6 248.2,161.2 249.0,161.8 249.8,162.4 250.6,162.9 251.4,163.4 252.2,163.9 253.0,164.3 253.8,164.7 254.6,165.1 255.4,165.4 256.2,165.7 257.0,166.0" fill="none" stroke="#4a90d9" stroke-width="1.2" stroke-linejoin="round"/>
  <line x1="322" y1="28.0" x2="527" y2="28.0" stroke="#e5e7eb" stroke-width="0.5"/>
  <text x="318" y="31.0" text-anchor="end" font-size="7.5" fill="#6b7280">0</text>
  <line x1="322" y1="74.0" x2="527" y2="74.0" stroke="#e5e7eb" stroke-width="0.5"/>
  <text x="318" y="77.0" text-anchor="end" font-size="7.5" fill="#6b7280">-40</text>
  <line x1="322" y1="120.0" x2="527" y2="120.0" stroke="#e5e7eb" stroke-width="0.5"/>
  <text x="318" y="123.0" text-anchor="end" font-size="7.5" fill="#6b7280">-80</text>
  <line x1="322" y1="166.0" x2="527" y2="166.0" stroke="#e5e7eb" stroke-width="0.5"/>
  <text x="318" y="169.0" text-anchor="end" font-size="7.5" fill="#6b7280">-120</text>
  <line x1="322.0" y1="28" x2="322.0" y2="166" stroke="#e5e7eb" stroke-width="0.5"/>
  <text x="322.0" y="178" text-anchor="middle" font-size="7.5" fill="#6b7280">0</text>
  <line x1="363.0" y1="28" x2="363.0" y2="166" stroke="#e5e7eb" stroke-width="0.5"/>
  <text x="363.0" y="178" text-anchor="middle" font-size="7.5" fill="#6b7280">0.1</text>
  <line x1="404.0" y1="28" x2="404.0" y2="166" stroke="#e5e7eb" stroke-width="0.5"/>
  <text x="404.0" y="178" text-anchor="middle" font-size="7.5" fill="#6b7280">0.2</text>
  <line x1="445.0" y1="28" x2="445.0" y2="166" stroke="#e5e7eb" stroke-width="0.5"/>
  <text x="445.0" y="178" text-anchor="middle" font-size="7.5" fill="#6b7280">0.3</text>
  <line x1="486.0" y1="28" x2="486.0" y2="166" stroke="#e5e7eb" stroke-width="0.5"/>
  <text x="486.0" y="178" text-anchor="middle" font-size="7.5" fill="#6b7280">0.4</text>
  <line x1="527.0" y1="28" x2="527.0" y2="166" stroke="#e5e7eb" stroke-width="0.5"/>
  <text x="527.0" y="178" text-anchor="middle" font-size="7.5" fill="#6b7280">0.5</text>
  <line x1="322" y1="28" x2="322" y2="166" stroke="#d1d5db" stroke-width="0.75"/>
  <line x1="322" y1="166" x2="527" y2="166" stroke="#d1d5db" stroke-width="0.75"/>
  <polyline points="322.0,28.0 322.1,28.0 322.2,28.1 322.3,28.2 322.4,28.4 322.5,28.7 322.6,29.0 322.7,29.3 322.8,29.7 322.9,30.2 323.0,30.7 323.1,31.3 323.2,32.0 323.3,32.7 323.4,33.5 323.5,34.4 323.6,35.3 323.7,36.4 323.8,37.5 323.9,38.7 324.0,40.0 324.1,41.5 324.2,43.1 324.3,44.8 324.4,46.7 324.5,48.8 324.6,51.2 324.7,54.0 324.8,57.1 324.9,61.0 325.0,66.0 325.1,73.6 325.2,97.0 325.3,79.0 325.4,73.0 325.5,70.5 325.6,69.4 325.7,69.3 325.8,69.8 325.9,71.0 326.0,73.0 326.1,75.9 326.2,80.5 326.3,89.7 326.4,97.1 326.5,83.5 326.6,78.4 326.7,75.4 326.8,73.5 326.9,72.3 327.0,71.5 327.1,71.1 327.2,71.1 327.3,71.3 327.4,71.8 327.5,72.6 327.6,73.6 327.7,75.0 327.8,76.6 327.9,78.7 328.0,81.3 328.1,84.6 328.2,89.0 328.3,95.8 328.4,113.1 328.5,103.2 328.6,96.2 328.7,93.5 328.8,92.5 328.9,92.8 329.0,94.2 329.1,97.1 329.2,103.2 329.3,162.0 329.4,102.2 329.5,95.1 329.6,91.0 329.7,88.2 329.8,86.2 329.9,84.7 330.0,83.7 330.1,83.0 330.2,82.6 330.3,82.4 330.4,82.5 330.5,82.8 330.6,83.4 330.7,84.2 330.8,85.2 330.9,86.6 331.0,88.3 331.1,90.3 331.2,92.9 331.3,96.1 331.4,100.5 331.5,107.0 331.6,121.5 331.7,117.3 331.8,109.7 331.9,107.2 332.0,106.9 332.1,108.4 332.2,112.7 332.3,127.8 332.4,115.6 332.5,106.5 332.6,101.5 332.7,98.1 332.8,95.6 332.9,93.7 333.0,92.3 333.1,91.2 333.2,90.4 333.3,89.9 333.4,89.6 333.5,89.6 333.6,89.7 333.7,90.1 333.8,90.7 333.9,91.6 334.0,92.7 334.1,94.1 334.2,95.8 334.3,97.9 334.4,100.5 334.5,103.8 334.6,108.1 334.7,114.5 334.8,127.4 334.9,127.7 335.0,119.4 335.1,117.3 335.2,118.1 335.3,122.4 335.4,145.5 335.5,121.2 335.6,112.9 335.7,107.9 335.8,104.5 335.9,101.8 336.0,99.8 336.1,98.2 336.2,97.0 336.3,96.1 336.4,95.4 336.5,95.0 336.6,94.8 336.7,94.8 336.8,95.0 336.9,95.5 337.0,96.1 337.1,97.0 337.2,98.1 337.3,99.6 337.4,101.3 337.5,103.4 337.6,106.0 337.7,109.4 337.8,113.7 337.9,120.0 338.0,131.9 338.1,136.0 338.2,127.0 338.3,125.4 338.4,127.8 338.5,139.4 338.6,130.6 338.7,120.1 338.8,114.5 338.9,110.5 339.0,107.6 339.1,105.3 339.2,103.4 339.3,102.0 339.4,100.9 339.5,100.0 339.6,99.4 339.7,99.1 339.8,98.9 339.9,99.0 340.0,99.2 340.1,99.7 340.2,100.3 340.3,101.2 340.4,102.4 340.5,103.8 340.6,105.6 340.7,107.7 340.8,110.4 340.9,113.7 341.0,118.1 341.1,124.3 341.2,135.6 341.3,142.9 341.4,133.0 341.5,132.0 341.6,136.6 341.7,150.1 341.8,129.0 341.9,121.5 342.0,116.7 342.1,113.2 342.2,110.4 342.3,108.3 342.4,106.6 342.5,105.2 342.6,104.2 342.7,103.4 342.8,102.8 342.9,102.4 343.0,102.3 343.1,102.4 343.2,102.6 343.3,103.1 343.4,103.8 343.5,104.7 343.6,105.9 343.7,107.3 343.8,109.1 343.9,111.3 344.0,113.9 344.1,117.3 344.2,121.6 344.3,127.8 344.4,138.7 344.5,148.5 344.6,137.8 344.7,137.4 344.8,144.7 344.9,142.9 345.0,129.9 345.1,123.4 345.2,119.0 345.3,115.7 345.4,113.1 345.5,111.0 345.6,109.3 345.7,108.0 345.8,107.0 345.9,106.2 346.0,105.7 346.1,105.3 346.2,105.2 346.3,105.3 346.4,105.6 346.5,106.0 346.6,106.7 346.7,107.6 346.8,108.8 346.9,110.3 347.0,112.0 347.1,114.2 347.2,116.9 347.3,120.2 347.4,124.6 347.5,130.7 347.6,141.4 347.7,153.0 347.8,141.6 347.9,141.6 348.0,152.1 348.1,142.4 348.2,131.5 348.3,125.5 348.4,121.2 348.5,118.0 348.6,115.5 348.7,113.4 348.8,111.8 348.9,110.5 349.0,109.5 349.1,108.7 349.2,108.2 349.3,107.9 349.4,107.7 349.5,107.8 349.6,108.1 349.7,108.6 349.8,109.2 349.9,110.2 350.0,111.3 350.1,112.8 350.2,114.6 350.3,116.7 350.4,119.4 350.5,122.7 350.6,127.1 350.7,133.2 350.8,143.8 350.9,156.3 351.0,144.6 351.1,144.8 351.2,157.8 351.3,143.6 351.4,133.4 351.5,127.5 351.6,123.4 351.7,120.2 351.8,117.7 351.9,115.7 352.0,114.1 352.1,112.8 352.2,111.7 352.3,111.0 352.4,110.4 352.5,110.1 352.6,110.0 352.7,110.0 352.8,110.3 352.9,110.8 353.0,111.5 353.1,112.4 353.2,113.5 353.3,115.0 353.4,116.7 353.5,118.9 353.6,121.6 353.7,124.9 353.8,129.2 353.9,135.4 354.0,145.9 354.1,158.7 354.2,146.8 354.3,147.1 354.4,160.8 354.5,145.5 354.6,135.4 354.7,129.6 354.8,125.4 354.9,122.2 355.0,119.7 355.1,117.7 355.2,116.1 355.3,114.8 355.4,113.8 355.5,113.0 355.6,112.4 355.7,112.1 355.8,112.0 355.9,112.0 356.0,112.3 356.1,112.8 356.3,113.4 356.4,114.3 356.5,115.5 356.6,116.9 356.7,118.7 356.8,120.8 356.9,123.5 357.0,126.8 357.1,131.2 357.2,137.3 357.3,147.9 357.4,160.3 357.5,148.5 357.6,148.7 357.7,161.1 357.8,147.9 357.9,137.5 358.0,131.6 358.1,127.4 358.2,124.2 358.3,121.7 358.4,119.6 358.5,118.0 358.6,116.7 358.7,115.6 358.8,114.8 358.9,114.3 359.0,113.9 359.1,113.8 359.2,113.8 359.3,114.1 359.4,114.6 359.5,115.2 359.6,116.1 359.7,117.3 359.8,118.7 359.9,120.4 360.0,122.6 360.1,125.2 360.2,128.5 360.3,132.8 360.4,138.9 360.5,149.6 360.6,161.3 360.7,149.8 360.8,149.7 360.9,160.1 361.0,150.7 361.1,139.7 361.2,133.5 361.3,129.3 361.4,126.0 361.5,123.5 361.6,121.4 361.7,119.7 361.8,118.4 361.9,117.4 362.0,116.6 362.1,116.0 362.2,115.6 362.3,115.5 362.4,115.5 362.5,115.7 362.6,116.2 362.7,116.8 362.8,117.7 362.9,118.9 363.0,120.3 363.1,122.0 363.2,124.1 363.3,126.8 363.4,130.1 363.5,134.4 363.6,140.5 363.7,151.3 363.8,161.9 363.9,150.8 364.0,150.4 364.1,158.7 364.2,154.0 364.3,141.9 364.4,135.5 364.5,131.1 364.6,127.8 364.7,125.2 364.8,123.1 364.9,121.4 365.0,120.0 365.1,119.0 365.2,118.1 365.3,117.5 365.4,117.2 365.5,117.0 365.6,117.0 365.7,117.3 365.8,117.7 365.9,118.3 366.0,119.2 366.1,120.3 366.2,121.7 366.3,123.4 366.4,125.5 366.5,128.1 366.6,131.4 366.7,135.7 366.8,141.8 366.9,152.8 367.0,162.2 367.1,151.5 367.2,150.9 367.3,157.4 367.4,158.2 367.5,144.2 367.6,137.4 367.7,132.9 367.8,129.5 367.9,126.8 368.0,124.7 368.1,122.9 368.2,121.5 368.3,120.5 368.4,119.6 368.5,119.0 368.6,118.6 368.7,118.4 368.8,118.4 368.9,118.6 369.0,119.1 369.1,119.7 369.2,120.5 369.3,121.6 369.4,123.0 369.5,124.7 369.6,126.8 369.7,129.4 369.8,132.7 369.9,137.0 370.0,143.1 370.1,154.2 370.2,162.4 370.3,152.1 370.4,151.2 370.5,156.3 370.6,164.0 370.7,146.6 370.8,139.4 370.9,134.6 371.0,131.1 371.1,128.3 371.2,126.2 371.3,124.4 371.4,123.0 371.5,121.9 371.6,121.0 371.7,120.4 371.8,120.0 371.9,119.8 372.0,119.7 372.1,119.9 372.2,120.3 372.3,121.0 372.4,121.8 372.5,122.9 372.6,124.2 372.7,125.9 372.8,128.0 372.9,130.6 373.0,133.8 373.1,138.1 373.2,144.2 373.3,155.5 373.4,162.6 373.5,152.6 373.6,151.4 373.7,155.4 373.8,166.0 373.9,149.2 374.0,141.3 374.1,136.3 374.2,132.7 374.3,129.8 374.4,127.6 374.5,125.8 374.6,124.3 374.7,123.2 374.8,122.3 374.9,121.7 375.0,121.2 375.1,121.0 375.2,121.0 375.3,121.2 375.4,121.5 375.5,122.1 375.6,123.0 375.7,124.0 375.8,125.4 375.9,127.0 376.0,129.1 376.1,131.7 376.2,134.9 376.3,139.2 376.4,145.3 376.5,156.8 376.6,162.6 376.7,153.0 376.8,151.5 376.9,154.7 377.0,166.0 377.1,152.1 377.2,143.3 377.3,138.0 377.4,134.2 377.5,131.3 377.6,129.0 377.7,127.1 377.8,125.6 377.9,124.5 378.0,123.5 378.1,122.9 378.2,122.4 378.3,122.2 378.4,122.1 378.5,122.3 378.6,122.7 378.7,123.2 378.8,124.0 378.9,125.1 379.0,126.4 379.1,128.1 379.2,130.1 379.3,132.7 379.4,135.9 379.5,140.1 379.6,146.3 379.7,157.9 379.8,162.7 379.9,153.3 380.0,151.7 380.1,154.1 380.2,166.0 380.3,155.5 380.4,145.4 380.5,139.7 380.6,135.7 380.7,132.7 380.8,130.3 380.9,128.4 381.0,126.9 381.1,125.7 381.2,124.7 381.3,124.0 381.4,123.5 381.5,123.3 381.6,123.2 381.7,123.4 381.8,123.7 381.9,124.3 382.0,125.1 382.1,126.1 382.2,127.4 382.3,129.0 382.4,131.1 382.5,133.6 382.6,136.8 382.7,141.0 382.8,147.2 382.9,159.1 383.0,162.7 383.1,153.6 383.2,151.7 383.3,153.6 383.4,162.5 383.5,159.6 383.6,147.6 383.7,141.4 383.8,137.2 383.9,134.1 384.0,131.6 384.1,129.6 384.2,128.1 384.3,126.8 384.4,125.8 384.5,125.1 384.6,124.6 384.7,124.3 384.8,124.3 384.9,124.4 385.0,124.7 385.1,125.3 385.2,126.0 385.3,127.0 385.4,128.3 385.5,129.9 385.6,131.9 385.7,134.4 385.8,137.6 385.9,141.8 386.0,148.0 386.1,160.1 386.2,162.7 386.3,153.8 386.4,151.8 386.5,153.2 386.6,159.8 386.7,165.5 386.8,149.9 386.9,143.2 387.0,138.7 387.1,135.4 387.2,132.9 387.3,130.8 387.4,129.2 387.5,127.9 387.6,126.9 387.7,126.2 387.8,125.6 387.9,125.3 388.0,125.2 388.1,125.3 388.2,125.6 388.3,126.2 388.4,126.9 388.5,127.9 388.6,129.2 388.7,130.8 388.8,132.8 388.9,135.3 389.0,138.4 389.1,142.6 389.2,148.8 389.3,161.2 389.4,162.8 389.5,154.0 389.6,151.9 389.7,152.8 389.8,158.0 389.9,166.0 390.0,152.5 390.1,145.0 390.2,140.2 390.3,136.8 390.4,134.1 390.5,132.0 390.6,130.3 390.7,129.0 390.8,128.0 390.9,127.2 391.0,126.6 391.1,126.3 391.2,126.2 391.3,126.3 391.4,126.5 391.5,127.0 391.6,127.8 391.7,128.8 391.8,130.0 391.9,131.6 392.0,133.6 392.1,136.0 392.2,139.2 392.3,143.4 392.4,149.5 392.5,162.2 392.6,162.8 392.7,154.2 392.8,152.0 392.9,152.6 393.0,156.6 393.1,166.0 393.2,155.4 393.3,146.8 393.4,141.7 393.5,138.1 393.6,135.3 393.7,133.1 393.8,131.4 393.9,130.0 394.0,129.0 394.1,128.1 394.2,127.6 394.3,127.2 394.4,127.1 394.5,127.1 394.6,127.4 394.7,127.9 394.8,128.6 394.9,129.6 395.0,130.8 395.1,132.3 395.2,134.3 395.3,136.7 395.4,139.9 395.5,144.0 395.6,150.2 395.7,163.1 395.8,162.8 395.9,154.4 396.0,152.0 396.1,152.3 396.2,155.6 396.3,166.0 396.4,159.0 396.5,148.8 396.6,143.3 396.7,139.4 396.8,136.5 396.9,134.3 397.0,132.5 397.1,131.0 397.2,129.9 397.3,129.1 397.4,128.5 397.5,128.1 397.6,127.9 397.7,128.0 397.8,128.2 397.9,128.7 398.0,129.4 398.1,130.3 398.2,131.5 398.3,133.1 398.4,135.0 398.5,137.4 398.6,140.5 398.7,144.7 398.8,150.9 398.9,164.0 399.0,162.9 399.1,154.6 399.2,152.1 399.3,152.1 399.4,154.7 399.5,163.4 399.6,163.6 399.7,150.9 399.8,144.8 399.9,140.7 400.0,137.7 400.1,135.4 400.2,133.5 400.3,132.0 400.4,130.9 400.5,130.0 400.6,129.3 400.7,128.9 400.8,128.7 400.9,128.7 401.0,129.0 401.1,129.4 401.2,130.1 401.3,131.0 401.4,132.2 401.5,133.7 401.6,135.6 401.7,138.0 401.8,141.1 401.9,145.3 402.0,151.5 402.1,164.9 402.2,162.9 402.3,154.7 402.4,152.1 402.5,152.0 402.6,154.1 402.7,160.6 402.8,166.0 402.9,153.3 403.0,146.5 403.1,142.1 403.2,138.9 403.3,136.4 403.4,134.5 403.5,133.0 403.6,131.8 403.7,130.8 403.8,130.2 403.9,129.7 404.0,129.5 404.1,129.5 404.2,129.7 404.3,130.1 404.4,130.8 404.5,131.7 404.6,132.9 404.7,134.4 404.8,136.3 404.9,138.6 405.0,141.7 405.1,145.9 405.2,152.1 405.3,165.8 405.4,162.9 405.5,154.9 405.6,152.2 405.7,151.8 405.8,153.5 405.9,158.7 406.0,166.0 406.1,155.9 406.2,148.2 406.3,143.4 406.4,140.1 406.5,137.5 406.6,135.5 406.7,133.9 406.8,132.6 406.9,131.7 407.0,131.0 407.1,130.5 407.2,130.3 407.3,130.2 407.4,130.4 407.5,130.8 407.6,131.5 407.7,132.4 407.8,133.5 407.9,135.0 408.0,136.9 408.1,139.2 408.2,142.3 408.3,146.4 408.4,152.7 408.5,166.0 408.6,163.0 408.7,155.0 408.8,152.3 408.9,151.7 409.0,153.1 409.1,157.2 409.2,166.0 409.3,159.1 409.4,150.0 409.5,144.8 409.6,141.2 409.7,138.6 409.8,136.5 409.9,134.8 410.0,133.5 410.1,132.5 410.2,131.8 410.3,131.3 410.4,131.0 410.5,130.9 410.6,131.1 410.7,131.5 410.8,132.1 410.9,133.0 411.0,134.1 411.1,135.6 411.2,137.4 411.3,139.8 411.4,142.8 411.5,146.9 411.6,153.2 411.7,166.0 411.8,163.0 411.9,155.1 412.0,152.3 412.1,151.6 412.2,152.7 412.3,156.1 412.4,166.0 412.5,163.2 412.6,151.9 412.7,146.3 412.8,142.4 412.9,139.6 413.0,137.4 413.1,135.7 413.2,134.3 413.3,133.3 413.4,132.5 413.5,132.0 413.6,131.7 413.7,131.6 413.8,131.8 413.9,132.1 414.0,132.7 414.1,133.6 414.2,134.7 414.3,136.1 414.4,138.0 414.5,140.3 414.6,143.3 414.7,147.4 414.8,153.7 414.9,166.0 415.0,163.0 415.1,155.2 415.2,152.4 415.3,151.6 415.4,152.4 415.5,155.2 415.6,162.8 415.7,166.0 415.8,154.1 415.9,147.8 416.0,143.7 416.1,140.7 416.2,138.4 416.3,136.6 416.4,135.2 416.5,134.1 416.6,133.3 416.7,132.7 416.8,132.4 416.9,132.3 417.0,132.4 417.1,132.7 417.2,133.3 417.3,134.1 417.4,135.2 417.5,136.7 417.6,138.5 417.7,140.8 417.8,143.8 417.9,147.9 418.0,154.2 418.1,166.0 418.2,163.1 418.3,155.3 418.4,152.4 418.5,151.5 418.6,152.1 418.7,154.4 418.8,160.4 418.9,166.0 419.0,156.6 419.1,149.3 419.2,144.9 419.3,141.7 419.4,139.3 419.5,137.4 419.6,136.0 419.7,134.8 419.8,134.0 419.9,133.4 420.0,133.1 420.1,132.9 420.2,133.0 420.3,133.3 420.4,133.9 420.5,134.7 420.6,135.8 420.7,137.2 420.8,139.0 420.9,141.2 421.0,144.2 421.1,148.3 421.2,154.6 421.3,166.0 421.4,163.1 421.5,155.4 421.6,152.5 421.7,151.4 421.8,151.8 421.9,153.8 422.0,158.6 422.1,166.0 422.2,159.5 422.3,151.0 422.4,146.2 422.5,142.8 422.6,140.3 422.7,138.3 422.8,136.8 422.9,135.6 423.0,134.7 423.1,134.1 423.2,133.7 423.3,133.5 423.4,133.6 423.5,133.9 423.6,134.4 423.7,135.2 423.8,136.3 423.9,137.7 424.0,139.4 424.1,141.7 424.2,144.6 424.3,148.7 424.4,155.0 424.6,166.0 424.7,163.1 424.8,155.5 424.9,152.5 425.0,151.4 425.1,151.6 425.2,153.3 425.3,157.2 425.4,166.0 425.5,163.2 425.6,152.9 425.7,147.5 425.8,143.9 425.9,141.2 426.0,139.2 426.1,137.6 426.2,136.3 426.3,135.4 426.4,134.7 426.5,134.3 426.6,134.1 426.7,134.2 426.8,134.5 426.9,135.0 427.0,135.7 427.1,136.8 427.2,138.1 427.3,139.9 427.4,142.1 427.5,145.1 427.6,149.1 427.7,155.5 427.8,166.0 427.9,163.2 428.0,155.6 428.1,152.5 428.2,151.3 428.3,151.4 428.4,152.8 428.5,156.1 428.6,164.6 428.7,166.0 428.8,154.9 428.9,148.9 429.0,145.0 429.1,142.2 429.2,140.0 429.3,138.3 429.4,137.0 429.5,136.1 429.6,135.4 429.7,134.9 429.8,134.7 429.9,134.7 430.0,135.0 430.1,135.5 430.2,136.2 430.3,137.2 430.4,138.6 430.5,140.3 430.6,142.5 430.7,145.5 430.8,149.5 430.9,155.9 431.0,166.0 431.1,163.2 431.2,155.7 431.3,152.6 431.4,151.3 431.5,151.2 431.6,152.4 431.7,155.2 431.8,161.8 431.9,166.0 432.0,157.2 432.1,150.4 432.2,146.1 432.3,143.1 432.4,140.9 432.5,139.1 432.6,137.8 432.7,136.7 432.8,136.0 432.9,135.5 433.0,135.3 433.1,135.3 433.2,135.5 433.3,136.0 433.4,136.7 433.5,137.7 433.6,139.0 433.7,140.7 433.8,142.9 433.9,145.8 434.0,149.9 434.1,156.2 434.2,166.0 434.3,163.2 434.4,155.8 434.5,152.6 434.6,151.2 434.7,151.1 434.8,152.0 434.9,154.4 435.0,159.8 435.1,166.0 435.2,159.9 435.3,151.9 435.4,147.3 435.5,144.1 435.6,141.7 435.7,139.9 435.8,138.5 435.9,137.4 436.0,136.6 436.1,136.1 436.2,135.8 436.3,135.8 436.4,136.0 436.5,136.4 436.6,137.1 436.7,138.1 436.8,139.4 436.9,141.1 437.0,143.3 437.1,146.2 437.2,150.2 437.3,156.6 437.4,166.0 437.5,163.2 437.6,155.8 437.7,152.7 437.8,151.2 437.9,150.9 438.0,151.7 438.1,153.8 438.2,158.2 438.3,166.0 438.4,163.4 438.5,153.7 438.6,148.6 438.7,145.1 438.8,142.6 438.9,140.7 439.0,139.2 439.1,138.0 439.2,137.2 439.3,136.7 439.4,136.4 439.5,136.3 439.6,136.5 439.7,136.9 439.8,137.6 439.9,138.5 440.0,139.8 440.1,141.5 440.2,143.7 440.3,146.5 440.4,150.5 440.5,156.9 440.6,166.0 440.7,163.3 440.8,155.9 440.9,152.7 441.0,151.2 441.1,150.8 441.2,151.4 441.3,153.2 441.4,156.9 441.5,166.0 441.6,166.0 441.7,155.6 441.8,149.9 441.9,146.1 442.0,143.5 442.1,141.4 442.2,139.9 442.3,138.7 442.4,137.8 442.5,137.2 442.6,136.9 442.7,136.8 442.8,137.0 442.9,137.4 443.0,138.0 443.1,138.9 443.2,140.2 443.3,141.8 443.4,144.0 443.5,146.9 443.6,150.9 443.7,157.3 443.8,166.0 443.9,163.3 444.0,156.0 444.1,152.7 444.2,151.1 444.3,150.7 444.4,151.1 444.5,152.7 444.6,155.9 444.7,163.0 444.8,166.0 444.9,157.7 445.0,151.2 445.1,147.2 445.2,144.3 445.3,142.2 445.4,140.6 445.5,139.3 445.6,138.4 445.7,137.8 445.8,137.4 445.9,137.3 446.0,137.4 446.1,137.8 446.2,138.4 446.3,139.3 446.4,140.6 446.5,142.2 446.6,144.3 446.7,147.2 446.8,151.2 446.9,157.6 447.0,166.0 447.1,163.3 447.2,156.0 447.3,152.7 447.4,151.1 447.5,150.5 447.6,150.9 447.7,152.2 447.8,155.0 447.9,160.7 448.0,166.0 448.1,160.3 448.2,152.7 448.3,148.3 448.4,145.2 448.5,143.0 448.6,141.3 448.7,140.0 448.8,139.0 448.9,138.3 449.0,137.9 449.1,137.8 449.2,137.9 449.3,138.2 449.4,138.8 449.5,139.7 449.6,140.9 449.7,142.5 449.8,144.7 449.9,147.5 450.0,151.5 450.1,157.9 450.2,166.0 450.3,163.3 450.4,156.1 450.5,152.8 450.6,151.1 450.7,150.4 450.8,150.7 450.9,151.8 451.0,154.2 451.1,159.0 451.2,166.0 451.3,163.5 451.4,154.3 451.5,149.5 451.6,146.2 451.7,143.8 451.8,142.0 451.9,140.6 452.0,139.6 452.1,138.9 452.2,138.4 452.3,138.2 452.4,138.3 452.5,138.6 452.6,139.2 452.7,140.1 452.8,141.3 452.9,142.9 453.0,145.0 453.1,147.8 453.2,151.7 453.3,158.2 453.4,166.0 453.5,163.3 453.6,156.1 453.7,152.8 453.8,151.0 453.9,150.3 454.0,150.4 454.1,151.4 454.2,153.6 454.3,157.6 454.4,166.0 454.5,166.0 454.6,156.2 454.7,150.7 454.8,147.1 454.9,144.6 455.0,142.6 455.1,141.2 455.2,140.1 455.3,139.4 455.4,138.9 455.5,138.7 455.6,138.7 455.7,139.0 455.8,139.6 455.9,140.4 456.0,141.6 456.1,143.2 456.2,145.3 456.3,148.0 456.4,152.0 456.5,158.5 456.6,166.0 456.7,163.3 456.8,156.2 456.9,152.8 457.0,151.0 457.1,150.2 457.2,150.3 457.3,151.1 457.4,153.0 457.5,156.4 457.6,164.0 457.7,166.0 457.8,158.2 457.9,152.0 458.0,148.1 458.1,145.4 458.2,143.4 458.3,141.8 458.4,140.7 458.5,139.9 458.6,139.4 458.7,139.1 458.8,139.1 458.9,139.4 459.0,139.9 459.1,140.8 459.2,141.9 459.3,143.5 459.4,145.5 459.5,148.3 459.6,152.3 459.7,158.7 459.8,166.0 459.9,163.3 460.0,156.2 460.1,152.8 460.2,151.0 460.3,150.1 460.4,150.1 460.5,150.8 460.6,152.4 460.7,155.5 460.8,161.5 460.9,166.0 461.0,160.7 461.1,153.4 461.2,149.1 461.3,146.2 461.4,144.1 461.5,142.5 461.6,141.3 461.7,140.4 461.8,139.9 461.9,139.6 462.0,139.5 462.1,139.8 462.2,140.3 462.3,141.1 462.4,142.2 462.5,143.8 462.6,145.8 462.7,148.6 462.8,152.5 462.9,159.0 463.0,166.0 463.1,163.3 463.2,156.2 463.3,152.8 463.4,150.9 463.5,150.0 463.6,149.9 463.7,150.5 463.8,151.9 463.9,154.6 464.0,159.7 464.1,166.0 464.2,163.7 464.3,154.9 464.4,150.2 464.5,147.1 464.6,144.8 464.7,143.1 464.8,141.8 464.9,140.9 465.0,140.3 465.1,140.0 465.2,139.9 465.3,140.2 465.4,140.6 465.5,141.4 465.6,142.5 465.7,144.0 465.8,146.1 465.9,148.8 466.0,152.7 466.1,159.2 466.2,166.0 466.3,163.3 466.4,156.2 466.5,152.8 466.6,150.9 466.7,149.9 466.8,149.7 466.9,150.2 467.0,151.5 467.1,153.8 467.2,158.2 467.3,166.0 467.4,166.0 467.5,156.6 467.6,151.4 467.7,148.0 467.8,145.5 467.9,143.7 468.0,142.4 468.1,141.4 468.2,140.8 468.3,140.4 468.4,140.3 468.5,140.5 468.6,141.0 468.7,141.7 468.8,142.8 468.9,144.3 469.0,146.3 469.1,149.0 469.2,153.0 469.3,159.5 469.4,166.0 469.5,163.3 469.6,156.2 469.7,152.8 469.8,150.9 469.9,149.8 470.0,149.6 470.1,149.9 470.2,151.1 470.3,153.2 470.4,156.9 470.5,164.8 470.6,166.0 470.7,158.6 470.8,152.6 470.9,148.9 471.0,146.3 471.1,144.4 471.2,142.9 471.3,141.9 471.4,141.2 471.5,140.8 471.6,140.7 471.7,140.9 471.8,141.3 471.9,142.0 472.0,143.1 472.1,144.6 472.2,146.6 472.3,149.3 472.4,153.2 472.5,159.7 472.6,166.0 472.7,163.3 472.8,156.3 472.9,152.8 473.0,150.8 473.1,149.7 473.2,149.4 473.3,149.7 473.4,150.7 473.5,152.6 473.6,155.8 473.7,162.2 473.8,166.0 473.9,161.0 474.0,153.9 474.1,149.8 474.2,147.0 474.3,145.0 474.4,143.5 474.5,142.4 474.6,141.7 474.7,141.2 474.8,141.1 474.9,141.2 475.0,141.6 475.1,142.3 475.2,143.4 475.3,144.8 475.4,146.8 475.5,149.5 475.6,153.4 475.7,159.9 475.8,166.0 475.9,163.3 476.0,156.3 476.1,152.8 476.2,150.8 476.3,149.7 476.4,149.2 476.5,149.5 476.6,150.3 476.7,152.0 476.8,154.9 476.9,160.2 477.0,166.0 477.1,163.9 477.2,155.4 477.3,150.9 477.4,147.8 477.5,145.7 477.6,144.1 477.7,142.9 477.8,142.1 477.9,141.7 478.0,141.5 478.1,141.6 478.2,141.9 478.3,142.6 478.4,143.6 478.5,145.1 478.6,147.0 478.7,149.7 478.8,153.6 478.9,160.1 479.0,166.0 479.1,163.3 479.2,156.3 479.3,152.8 479.4,150.7 479.5,149.6 479.6,149.1 479.7,149.2 479.8,150.0 479.9,151.5 480.0,154.0 480.1,158.6 480.2,166.0 480.3,166.0 480.4,157.0 480.5,151.9 480.6,148.7 480.7,146.3 480.8,144.7 480.9,143.4 481.0,142.6 481.1,142.1 481.2,141.8 481.3,141.9 481.4,142.2 481.5,142.9 481.6,143.9 481.7,145.3 481.8,147.2 481.9,149.9 482.0,153.8 482.1,160.3 482.2,166.0 482.3,163.2 482.4,156.3 482.5,152.7 482.6,150.7 482.7,149.5 482.8,148.9 482.9,149.0 483.0,149.7 483.1,151.0 483.2,153.3 483.3,157.2 483.4,165.5 483.5,166.0 483.6,158.9 483.7,153.1 483.8,149.5 483.9,147.0 484.0,145.2 484.1,143.9 484.2,143.0 484.3,142.5 484.4,142.2 484.5,142.2 484.6,142.5 484.7,143.2 484.8,144.1 484.9,145.5 485.0,147.4 485.1,150.1 485.2,154.0 485.3,160.5 485.4,166.0 485.5,163.2 485.6,156.2 485.7,152.7 485.8,150.6 485.9,149.4 486.0,148.8 486.1,148.8 486.2,149.3 486.3,150.6 486.4,152.6 486.5,156.1 486.6,162.7 486.7,166.0 486.8,161.2 486.9,154.4 487.0,150.4 487.1,147.7 487.2,145.8 487.3,144.4 487.4,143.5 487.5,142.9 487.6,142.5 487.7,142.5 487.8,142.8 487.9,143.4 488.0,144.4 488.1,145.7 488.2,147.6 488.3,150.3 488.4,154.1 488.5,160.7 488.6,166.0 488.7,163.2 488.8,156.2 488.9,152.7 489.0,150.5 489.1,149.3 489.2,148.6 489.3,148.6 489.4,149.0 489.5,150.1 489.6,152.0 489.7,155.1 489.8,160.6 489.9,166.0 490.0,163.9 490.1,155.8 490.2,151.4 490.3,148.5 490.4,146.4 490.5,145.0 490.6,143.9 490.7,143.2 490.8,142.9 490.9,142.9 491.0,143.1 491.1,143.7 491.2,144.6 491.3,146.0 491.4,147.8 491.5,150.4 491.6,154.3 491.7,160.9 491.8,166.0 491.9,163.1 492.0,156.2 492.1,152.6 492.2,150.5 492.3,149.2 492.4,148.5 492.5,148.4 492.6,148.8 492.7,149.7 492.9,151.4 493.0,154.2 493.1,158.9 493.2,166.0 493.3,166.0 493.4,157.3 493.5,152.4 493.6,149.3 493.7,147.1 493.8,145.5 493.9,144.4 494.0,143.6 494.1,143.2 494.2,143.2 494.3,143.4 494.4,143.9 494.5,144.8 494.6,146.2 494.7,148.0 494.8,150.6 494.9,154.4 495.0,161.0 495.1,166.0 495.2,163.1 495.3,156.2 495.4,152.6 495.5,150.4 495.6,149.1 495.7,148.4 495.8,148.2 495.9,148.5 496.0,149.4 496.1,150.9 496.2,153.4 496.3,157.5 496.4,166.0 496.5,166.0 496.6,159.1 496.7,153.5 496.8,150.1 496.9,147.7 497.0,146.0 497.1,144.8 497.2,144.0 497.3,143.6 497.4,143.5 497.5,143.7 497.6,144.2 497.7,145.1 497.8,146.4 497.9,148.2 498.0,150.8 498.1,154.6 498.2,161.2 498.3,166.0 498.4,163.0 498.5,156.2 498.6,152.5 498.7,150.3 498.8,149.0 498.9,148.2 499.0,148.0 499.1,148.2 499.2,149.0 499.3,150.4 499.4,152.6 499.5,156.2 499.6,163.2 499.7,166.0 499.8,161.3 499.9,154.7 500.0,150.9 500.1,148.3 500.2,146.5 500.3,145.3 500.4,144.4 500.5,143.9 500.6,143.8 500.7,143.9 500.8,144.4 500.9,145.3 501.0,146.5 501.1,148.4 501.2,150.9 501.3,154.7 501.4,161.4 501.5,166.0 501.6,163.0 501.7,156.1 501.8,152.5 501.9,150.3 502.0,148.9 502.1,148.1 502.2,147.8 502.3,148.0 502.4,148.6 502.5,149.9 502.6,151.9 502.7,155.2 502.8,160.9 502.9,166.0 503.0,163.9 503.1,156.0 503.2,151.8 503.3,149.0 503.4,147.1 503.5,145.7 503.6,144.8 503.7,144.3 503.8,144.1 503.9,144.2 504.0,144.7 504.1,145.5 504.2,146.7 504.3,148.5 504.4,151.1 504.5,154.9 504.6,161.5 504.7,166.0 504.8,162.9 504.9,156.1 505.0,152.4 505.1,150.2 505.2,148.7 505.3,147.9 505.4,147.6 505.5,147.7 505.6,148.3 505.7,149.5 505.8,151.3 505.9,154.2 506.0,159.1 506.1,166.0 506.2,166.0 506.3,157.5 506.4,152.8 506.5,149.7 506.6,147.7 506.7,146.2 506.8,145.2 506.9,144.6 507.0,144.4 507.1,144.5 507.2,144.9 507.3,145.7 507.4,146.9 507.5,148.7 507.6,151.2 507.7,155.0 507.8,161.6 507.9,166.0 508.0,162.9 508.1,156.0 508.2,152.4 508.3,150.1 508.4,148.6 508.5,147.8 508.6,147.4 508.7,147.4 508.8,148.0 508.9,149.0 509.0,150.7 509.1,153.3 509.2,157.6 509.3,166.0 509.4,166.0 509.5,159.3 509.6,153.8 509.7,150.5 509.8,148.3 509.9,146.7 510.0,145.6 510.1,145.0 510.2,144.7 510.3,144.7 510.4,145.1 510.5,145.9 510.6,147.1 510.7,148.8 510.8,151.3 510.9,155.1 511.0,161.8 511.1,166.0 511.2,162.8 511.3,156.0 511.4,152.3 511.5,150.0 511.6,148.5 511.7,147.6 511.8,147.2 511.9,147.2 512.0,147.7 512.1,148.6 512.2,150.2 512.3,152.5 512.4,156.3 512.5,163.5 512.6,166.0 512.7,161.3 512.8,155.0 512.9,151.3 513.0,148.9 513.1,147.2 513.2,146.0 513.3,145.3 513.4,145.0 513.5,145.0 513.6,145.3 513.7,146.1 513.8,147.2 513.9,149.0 514.0,151.5 514.1,155.2 514.2,161.9 514.3,166.0 514.4,162.7 514.5,155.9 514.6,152.2 514.7,149.9 514.8,148.4 514.9,147.4 515.0,147.0 515.1,147.0 515.2,147.3 515.3,148.2 515.4,149.6 515.5,151.8 515.6,155.2 515.7,161.2 515.8,166.0 515.9,163.9 516.0,156.2 516.1,152.1 516.2,149.5 516.3,147.7 516.4,146.4 516.5,145.7 516.6,145.3 516.7,145.2 516.8,145.6 516.9,146.3 517.0,147.4 517.1,149.1 517.2,151.6 517.3,155.3 517.4,162.0 517.5,166.0 517.6,162.6 517.7,155.9 517.8,152.2 517.9,149.8 518.0,148.3 518.1,147.3 518.2,146.8 518.3,146.7 518.4,147.0 518.5,147.8 518.6,149.1 518.7,151.1 518.8,154.2 518.9,159.3 519.0,166.0 519.1,166.0 519.2,157.7 519.3,153.0 519.4,150.2 519.5,148.2 519.6,146.9 519.7,146.0 519.8,145.6 519.9,145.5 520.0,145.8 520.1,146.4 520.2,147.6 520.3,149.2 520.4,151.7 520.5,155.4 520.6,162.1 520.7,166.0 520.8,162.5 520.9,155.8 521.0,152.1 521.1,149.7 521.2,148.1 521.3,147.1 521.4,146.6 521.5,146.5 521.6,146.7 521.7,147.4 521.8,148.6 521.9,150.5 522.0,153.2 522.1,157.7 522.2,166.0 522.3,166.0 522.4,159.3 522.5,154.0 522.6,150.8 522.7,148.7 522.8,147.3 522.9,146.4 523.0,145.8 523.1,145.7 523.2,146.0 523.3,146.6 523.4,147.7 523.5,149.4 523.6,151.8 523.7,155.5 523.8,162.3 523.9,166.0 524.0,162.5 524.1,155.7 524.2,152.0 524.3,149.6 524.4,148.0 524.5,147.0 524.6,146.4 524.7,146.2 524.8,146.4 524.9,147.1 525.0,148.2 525.1,149.9 525.2,152.4 525.3,156.3 525.4,163.7 525.5,166.0 525.6,161.3 525.7,155.1 525.8,151.6 525.9,149.3 526.0,147.7 526.1,146.7 526.2,146.1 526.3,146.0 526.4,146.2 526.5,146.8 526.6,147.9 526.7,149.5 526.8,151.9 526.9,155.6 527.0,162.4" fill="none" stroke="#4a90d9" stroke-width="1.2" stroke-linejoin="round"/>
  <text x="154.5" y="190" text-anchor="middle" font-size="8" fill="#6b7280">n / N</text>
  <text x="424.5" y="190" text-anchor="middle" font-size="8" fill="#6b7280">Normalized frequency (× Fₛ)</text>
</svg>
