<svg xmlns="http://www.w3.org/2000/svg" viewBox="0 0 560 210" width="560" height="210" style="font-family:system-ui,-apple-system,sans-serif">
  <rect width="560" height="210" fill="#fafafa" rx="6"/>
  <text x="280" y="18" text-anchor="middle" font-size="12" font-weight="600" fill="#374151">bartlett</text>
  <line x1="52" y1="166.0" x2="257" y2="166.0" stroke="#e5e7eb" stroke-width="0.5"/>
  <text x="48" y="169.0" text-anchor="end" font-size="7.5" fill="#6b7280">0</text>
  <line x1="52" y1="97.0" x2="257" y2="97.0" stroke="#e5e7eb" stroke-width="0.5"/>
  <text x="48" y="100.0" text-anchor="end" font-size="7.5" fill="#6b7280">0.5</text>
  <line x1="52" y1="28.0" x2="257" y2="28.0" stroke="#e5e7eb" stroke-width="0.5"/>
  <text x="48" y="31.0" text-anchor="end" font-size="7.5" fill="#6b7280">1</text>
  <line x1="52.0" y1="28" x2="52.0" y2="166" stroke="#e5e7eb" stroke-width="0.5"/>
  <text x="52.0" y="178" text-anchor="middle" font-size="7.5" fill="#6b7280">0</text>
  <line x1="154.5" y1="28" x2="154.5" y2="166" stroke="#e5e7eb" stroke-width="0.5"/>
  <text x="154.5" y="178" text-anchor="middle" font-size="7.5" fill="#6b7280">0.5</text>
  <line x1="257.0" y1="28" x2="257.0" y2="166" stroke="#e5e7eb" stroke-width="0.5"/>
  <text x="257.0" y="178" text-anchor="middle" font-size="7.5" fill="#6b7280">1</text>
  <line x1="52" y1="28" x2="52" y2="166" stroke="#d1d5db" stroke-width="0.75"/>
  <line x1="52" y1="166" x2="257" y2="166" stroke="#d1d5db" stroke-width="0.75"/>
  <path d="M52.0,166.0 52.0,166.0 52.8,164.9 53.6,163.8 54.4,162.8 55.2,161.7 56.0,160.6 56.8,159.5 57.6,158.4 58.4,157.3 59.2,156.3 60.0,155.2 60.8,154.1 61.6,153.0 62.5,151.9 63.3,150.8 64.1,149.8 64.9,148.7 65.7,147.6 66.5,146.5 67.3,145.4 68.1,144.4 68.9,143.3 69.7,142.2 70.5,141.1 71.3,140.0 72.1,138.9 72.9,137.9 73.7,136.8 74.5,135.7 75.3,134.6 76.1,133.5 76.9,132.4 77.7,131.4 78.5,130.3 79.3,129.2 80.1,128.1 80.9,127.0 81.7,126.0 82.5,124.9 83.4,123.8 84.2,122.7 85.0,121.6 85.8,120.5 86.6,119.5 87.4,118.4 88.2,117.3 89.0,116.2 89.8,115.1 90.6,114.0 91.4,113.0 92.2,111.9 93.0,110.8 93.8,109.7 94.6,108.6 95.4,107.6 96.2,106.5 97.0,105.4 97.8,104.3 98.6,103.2 99.4,102.1 100.2,101.1 101.0,100.0 101.8,98.9 102.6,97.8 103.5,96.7 104.3,95.6 105.1,94.6 105.9,93.5 106.7,92.4 107.5,91.3 108.3,90.2 109.1,89.2 109.9,88.1 110.7,87.0 111.5,85.9 112.3,84.8 113.1,83.7 113.9,82.7 114.7,81.6 115.5,80.5 116.3,79.4 117.1,78.3 117.9,77.2 118.7,76.2 119.5,75.1 120.3,74.0 121.1,72.9 121.9,71.8 122.7,70.8 123.5,69.7 124.4,68.6 125.2,67.5 126.0,66.4 126.8,65.3 127.6,64.3 128.4,63.2 129.2,62.1 130.0,61.0 130.8,59.9 131.6,58.8 132.4,57.8 133.2,56.7 134.0,55.6 134.8,54.5 135.6,53.4 136.4,52.4 137.2,51.3 138.0,50.2 138.8,49.1 139.6,48.0 140.4,46.9 141.2,45.9 142.0,44.8 142.8,43.7 143.6,42.6 144.5,41.5 145.3,40.4 146.1,39.4 146.9,38.3 147.7,37.2 148.5,36.1 149.3,35.0 150.1,34.0 150.9,32.9 151.7,31.8 152.5,30.7 153.3,29.6 154.1,28.5 154.9,28.5 155.7,29.6 156.5,30.7 157.3,31.8 158.1,32.9 158.9,34.0 159.7,35.0 160.5,36.1 161.3,37.2 162.1,38.3 162.9,39.4 163.7,40.4 164.5,41.5 165.4,42.6 166.2,43.7 167.0,44.8 167.8,45.9 168.6,46.9 169.4,48.0 170.2,49.1 171.0,50.2 171.8,51.3 172.6,52.4 173.4,53.4 174.2,54.5 175.0,55.6 175.8,56.7 176.6,57.8 177.4,58.8 178.2,59.9 179.0,61.0 179.8,62.1 180.6,63.2 181.4,64.3 182.2,65.3 183.0,66.4 183.8,67.5 184.6,68.6 185.5,69.7 186.3,70.8 187.1,71.8 187.9,72.9 188.7,74.0 189.5,75.1 190.3,76.2 191.1,77.2 191.9,78.3 192.7,79.4 193.5,80.5 194.3,81.6 195.1,82.7 195.9,83.7 196.7,84.8 197.5,85.9 198.3,87.0 199.1,88.1 199.9,89.2 200.7,90.2 201.5,91.3 202.3,92.4 203.1,93.5 203.9,94.6 204.7,95.6 205.5,96.7 206.4,97.8 207.2,98.9 208.0,100.0 208.8,101.1 209.6,102.1 210.4,103.2 211.2,104.3 212.0,105.4 212.8,106.5 213.6,107.6 214.4,108.6 215.2,109.7 216.0,110.8 216.8,111.9 217.6,113.0 218.4,114.0 219.2,115.1 220.0,116.2 220.8,117.3 221.6,118.4 222.4,119.5 223.2,120.5 224.0,121.6 224.8,122.7 225.6,123.8 226.5,124.9 227.3,126.0 228.1,127.0 228.9,128.1 229.7,129.2 230.5,130.3 231.3,131.4 232.1,132.4 232.9,133.5 233.7,134.6 234.5,135.7 235.3,136.8 236.1,137.9 236.9,138.9 237.7,140.0 238.5,141.1 239.3,142.2 240.1,143.3 240.9,144.4 241.7,145.4 242.5,146.5 243.3,147.6 244.1,148.7 244.9,149.8 245.7,150.8 246.5,151.9 247.4,153.0 248.2,154.1 249.0,155.2 249.8,156.3 250.6,157.3 251.4,158.4 252.2,159.5 253.0,160.6 253.8,161.7 254.6,162.8 255.4,163.8 256.2,164.9 257.0,166.0 L257.0,166.0 Z" fill="#4a90d9" fill-opacity="0.06"/>
  <polyline points="52.0,166.0 52.8,164.9 53.6,163.8 54.4,162.8 55.2,161.7 56.0,160.6 56.8,159.5 57.6,158.4 58.4,157.3 59.2,156.3 60.0,155.2 60.8,154.1 61.6,153.0 62.5,151.9 63.3,150.8 64.1,149.8 64.9,148.7 65.7,147.6 66.5,146.5 67.3,145.4 68.1,144.4 68.9,143.3 69.7,142.2 70.5,141.1 71.3,140.0 72.1,138.9 72.9,137.9 73.7,136.8 74.5,135.7 75.3,134.6 76.1,133.5 76.9,132.4 77.7,131.4 78.5,130.3 79.3,129.2 80.1,128.1 80.9,127.0 81.7,126.0 82.5,124.9 83.4,123.8 84.2,122.7 85.0,121.6 85.8,120.5 86.6,119.5 87.4,118.4 88.2,117.3 89.0,116.2 89.8,115.1 90.6,114.0 91.4,113.0 92.2,111.9 93.0,110.8 93.8,109.7 94.6,108.6 95.4,107.6 96.2,106.5 97.0,105.4 97.8,104.3 98.6,103.2 99.4,102.1 100.2,101.1 101.0,100.0 101.8,98.9 102.6,97.8 103.5,96.7 104.3,95.6 105.1,94.6 105.9,93.5 106.7,92.4 107.5,91.3 108.3,90.2 109.1,89.2 109.9,88.1 110.7,87.0 111.5,85.9 112.3,84.8 113.1,83.7 113.9,82.7 114.7,81.6 115.5,80.5 116.3,79.4 117.1,78.3 117.9,77.2 118.7,76.2 119.5,75.1 120.3,74.0 121.1,72.9 121.9,71.8 122.7,70.8 123.5,69.7 124.4,68.6 125.2,67.5 126.0,66.4 126.8,65.3 127.6,64.3 128.4,63.2 129.2,62.1 130.0,61.0 130.8,59.9 131.6,58.8 132.4,57.8 133.2,56.7 134.0,55.6 134.8,54.5 135.6,53.4 136.4,52.4 137.2,51.3 138.0,50.2 138.8,49.1 139.6,48.0 140.4,46.9 141.2,45.9 142.0,44.8 142.8,43.7 143.6,42.6 144.5,41.5 145.3,40.4 146.1,39.4 146.9,38.3 147.7,37.2 148.5,36.1 149.3,35.0 150.1,34.0 150.9,32.9 151.7,31.8 152.5,30.7 153.3,29.6 154.1,28.5 154.9,28.5 155.7,29.6 156.5,30.7 157.3,31.8 158.1,32.9 158.9,34.0 159.7,35.0 160.5,36.1 161.3,37.2 162.1,38.3 162.9,39.4 163.7,40.4 164.5,41.5 165.4,42.6 166.2,43.7 167.0,44.8 167.8,45.9 168.6,46.9 169.4,48.0 170.2,49.1 171.0,50.2 171.8,51.3 172.6,52.4 173.4,53.4 174.2,54.5 175.0,55.6 175.8,56.7 176.6,57.8 177.4,58.8 178.2,59.9 179.0,61.0 179.8,62.1 180.6,63.2 181.4,64.3 182.2,65.3 183.0,66.4 183.8,67.5 184.6,68.6 185.5,69.7 186.3,70.8 187.1,71.8 187.9,72.9 188.7,74.0 189.5,75.1 190.3,76.2 191.1,77.2 191.9,78.3 192.7,79.4 193.5,80.5 194.3,81.6 195.1,82.7 195.9,83.7 196.7,84.8 197.5,85.9 198.3,87.0 199.1,88.1 199.9,89.2 200.7,90.2 201.5,91.3 202.3,92.4 203.1,93.5 203.9,94.6 204.7,95.6 205.5,96.7 206.4,97.8 207.2,98.9 208.0,100.0 208.8,101.1 209.6,102.1 210.4,103.2 211.2,104.3 212.0,105.4 212.8,106.5 213.6,107.6 214.4,108.6 215.2,109.7 216.0,110.8 216.8,111.9 217.6,113.0 218.4,114.0 219.2,115.1 220.0,116.2 220.8,117.3 221.6,118.4 222.4,119.5 223.2,120.5 224.0,121.6 224.8,122.7 225.6,123.8 226.5,124.9 227.3,126.0 228.1,127.0 228.9,128.1 229.7,129.2 230.5,130.3 231.3,131.4 232.1,132.4 232.9,133.5 233.7,134.6 234.5,135.7 235.3,136.8 236.1,137.9 236.9,138.9 237.7,140.0 238.5,141.1 239.3,142.2 240.1,143.3 240.9,144.4 241.7,145.4 242.5,146.5 243.3,147.6 244.1,148.7 244.9,149.8 245.7,150.8 246.5,151.9 247.4,153.0 248.2,154.1 249.0,155.2 249.8,156.3 250.6,157.3 251.4,158.4 252.2,159.5 253.0,160.6 253.8,161.7 254.6,162.8 255.4,163.8 256.2,164.9 257.0,166.0" fill="none" stroke="#4a90d9" stroke-width="1.2" stroke-linejoin="round"/>
  <line x1="322" y1="28.0" x2="527" y2="28.0" stroke="#e5e7eb" stroke-width="0.5"/>
  <text x="318" y="31.0" text-anchor="end" font-size="7.5" fill="#6b7280">0</text>
  <line x1="322" y1="74.0" x2="527" y2="74.0" stroke="#e5e7eb" stroke-width="0.5"/>
  <text x="318" y="77.0" text-anchor="end" font-size="7.5" fill="#6b7280">-40</text>
  <line x1="322" y1="120.0" x2="527" y2="120.0" stroke="#e5e7eb" stroke-width="0.5"/>
  <text x="318" y="123.0" text-anchor="end" font-size="7.5" fill="#6b7280">-80</text>
  <line x1="322" y1="166.0" x2="527" y2="166.0" stroke="#e5e7eb" stroke-width="0.5"/>
  <text x="318" y="169.0" text-anchor="end" font-size="7.5" fill="#6b7280">-120</text>
  <line x1="322.0" y1="28" x2="322.0" y2="166" stroke="#e5e7eb" stroke-width="0.5"/>
  <text x="322.0" y="178" text-anchor="middle" font-size="7.5" fill="#6b7280">0</text>
  <line x1="363.0" y1="28" x2="363.0" y2="166" stroke="#e5e7eb" stroke-width="0.5"/>
  <text x="363.0" y="178" text-anchor="middle" font-size="7.5" fill="#6b7280">0.1</text>
  <line x1="404.0" y1="28" x2="404.0" y2="166" stroke="#e5e7eb" stroke-width="0.5"/>
  <text x="404.0" y="178" text-anchor="middle" font-size="7.5" fill="#6b7280">0.2</text>
  <line x1="445.0" y1="28" x2="445.0" y2="166" stroke="#e5e7eb" stroke-width="0.5"/>
  <text x="445.0" y="178" text-anchor="middle" font-size="7.5" fill="#6b7280">0.3</text>
  <line x1="486.0" y1="28" x2="486.0" y2="166" stroke="#e5e7eb" stroke-width="0.5"/>
  <text x="486.0" y="178" text-anchor="middle" font-size="7.5" fill="#6b7280">0.4</text>
  <line x1="527.0" y1="28" x2="527.0" y2="166" stroke="#e5e7eb" stroke-width="0.5"/>
  <text x="527.0" y="178" text-anchor="middle" font-size="7.5" fill="#6b7280">0.5</text>
  <line x1="322" y1="28" x2="322" y2="166" stroke="#d1d5db" stroke-width="0.75"/>
  <line x1="322" y1="166" x2="527" y2="166" stroke="#d1d5db" stroke-width="0.75"/>
  <polyline points="322.0,28.0 322.1,28.0 322.2,28.1 322.3,28.3 322.4,28.5 322.5,28.8 322.6,29.2 322.7,29.6 322.8,30.1 322.9,30.6 323.0,31.3 323.1,32.0 323.2,32.8 323.3,33.7 323.4,34.7 323.5,35.8 323.6,36.9 323.7,38.2 323.8,39.7 323.9,41.2 324.0,42.9 324.1,44.8 324.2,46.9 324.3,49.2 324.4,51.8 324.5,54.7 324.6,58.1 324.7,62.0 324.8,66.8 324.9,72.8 325.0,81.1 325.1,94.4 325.2,166.0 325.3,100.8 325.4,86.1 325.5,78.2 325.6,73.0 325.7,69.3 325.8,66.4 325.9,64.2 326.0,62.5 326.1,61.1 326.2,60.1 326.3,59.4 326.4,58.9 326.5,58.6 326.6,58.5 326.7,58.6 326.8,58.9 326.9,59.4 327.0,60.0 327.1,60.9 327.2,61.9 327.3,63.2 327.4,64.7 327.5,66.4 327.6,68.5 327.7,70.9 327.8,73.8 327.9,77.2 328.0,81.5 328.1,87.0 328.2,94.5 328.3,106.7 328.4,166.0 328.5,118.4 328.6,100.8 328.7,92.1 328.8,86.4 328.9,82.2 329.0,79.0 329.1,76.5 329.2,74.5 329.3,72.9 329.4,71.6 329.5,70.6 329.6,69.9 329.7,69.4 329.8,69.1 329.9,69.0 330.0,69.1 330.1,69.4 330.2,69.9 330.3,70.5 330.4,71.4 330.5,72.5 330.6,73.8 330.7,75.4 330.8,77.3 330.9,79.5 331.0,82.2 331.1,85.5 331.2,89.5 331.3,94.7 331.4,101.9 331.5,113.4 331.6,166.0 331.7,133.5 331.8,110.6 331.9,101.0 332.0,94.8 332.1,90.4 332.2,86.9 332.3,84.3 332.4,82.1 332.5,80.4 332.6,79.0 332.7,77.9 332.8,77.0 332.9,76.4 333.0,76.0 333.1,75.8 333.2,75.8 333.3,76.0 333.4,76.4 333.5,77.0 333.6,77.8 333.7,78.7 333.8,80.0 333.9,81.5 334.0,83.3 334.1,85.4 334.2,88.0 334.3,91.1 334.4,95.0 334.5,100.0 334.6,106.9 334.7,117.9 334.8,166.0 334.9,166.0 335.0,118.4 335.1,107.7 335.2,101.1 335.3,96.4 335.4,92.8 335.5,90.0 335.6,87.7 335.7,85.9 335.8,84.4 335.9,83.2 336.0,82.3 336.1,81.7 336.2,81.2 336.3,80.9 336.4,80.9 336.5,81.0 336.6,81.3 336.7,81.8 336.8,82.5 336.9,83.5 337.0,84.6 337.1,86.0 337.2,87.8 337.3,89.8 337.4,92.3 337.5,95.3 337.6,99.1 337.7,103.9 337.8,110.6 337.9,121.2 338.0,166.0 338.1,142.9 338.2,125.7 338.3,113.4 338.4,106.3 338.5,101.3 338.6,97.6 338.7,94.6 338.8,92.3 338.9,90.3 339.0,88.8 339.1,87.5 339.2,86.6 339.3,85.8 339.4,85.3 339.5,85.0 339.6,84.9 339.7,85.0 339.8,85.2 339.9,85.7 340.0,86.4 340.1,87.2 340.2,88.3 340.3,89.7 340.4,91.4 340.5,93.4 340.6,95.8 340.7,98.7 340.8,102.4 340.9,107.1 341.0,113.5 341.1,123.8 341.2,166.0 341.3,139.8 341.4,133.5 341.5,118.5 341.6,110.8 341.7,105.5 341.8,101.6 341.9,98.5 342.0,96.0 342.1,94.0 342.2,92.4 342.3,91.1 342.4,90.1 342.5,89.3 342.6,88.7 342.7,88.4 342.8,88.2 342.9,88.3 343.0,88.5 343.1,88.9 343.2,89.5 343.3,90.4 343.4,91.4 343.5,92.8 343.6,94.4 343.7,96.3 343.8,98.7 343.9,101.5 344.0,105.1 344.1,109.7 344.2,116.0 344.3,125.9 344.4,166.0 344.5,138.8 344.6,143.7 344.7,123.4 344.8,114.8 344.9,109.2 345.0,105.1 345.1,101.9 345.2,99.3 345.3,97.3 345.4,95.6 345.5,94.2 345.6,93.1 345.7,92.3 345.8,91.7 345.9,91.3 346.0,91.1 346.1,91.1 346.2,91.3 346.3,91.7 346.4,92.3 346.5,93.1 346.6,94.1 346.7,95.4 346.8,96.9 346.9,98.8 347.0,101.1 347.1,103.9 347.2,107.4 347.3,111.9 347.4,118.0 347.5,127.7 347.6,166.0 347.7,138.6 347.8,166.0 347.9,128.2 348.0,118.6 348.1,112.6 348.2,108.2 348.3,104.9 348.4,102.2 348.5,100.1 348.6,98.3 348.7,96.9 348.8,95.8 348.9,94.9 349.0,94.3 349.1,93.8 349.2,93.6 349.3,93.6 349.4,93.7 349.5,94.1 349.6,94.6 349.7,95.4 349.8,96.4 349.9,97.6 350.0,99.2 350.1,101.0 350.2,103.2 350.3,106.0 350.4,109.4 350.5,113.8 350.6,119.8 350.7,129.3 350.8,166.0 350.9,138.7 351.0,147.4 351.1,133.5 351.2,122.2 351.3,115.7 351.4,111.1 351.5,107.6 351.6,104.9 351.7,102.6 351.8,100.8 351.9,99.4 352.0,98.2 352.1,97.3 352.2,96.6 352.3,96.1 352.4,95.9 352.5,95.8 352.6,95.9 352.7,96.2 352.8,96.8 352.9,97.5 353.0,98.4 353.1,99.6 353.2,101.1 353.3,102.9 353.4,105.1 353.5,107.8 353.6,111.2 353.7,115.4 353.8,121.3 353.9,130.6 354.0,166.0 354.1,139.0 354.2,142.8 354.3,139.7 354.4,125.8 354.5,118.7 354.6,113.8 354.7,110.2 354.8,107.3 354.9,105.0 355.0,103.1 355.1,101.6 355.2,100.4 355.3,99.4 355.4,98.7 355.5,98.2 355.6,97.9 355.7,97.8 355.8,97.9 355.9,98.2 356.0,98.7 356.1,99.4 356.3,100.3 356.4,101.4 356.5,102.9 356.6,104.7 356.7,106.8 356.8,109.4 356.9,112.7 357.0,116.9 357.1,122.7 357.2,131.8 357.3,166.0 357.4,139.3 357.5,140.7 357.6,149.0 357.7,129.5 357.8,121.6 357.9,116.4 358.0,112.5 358.1,109.5 358.2,107.1 358.3,105.2 358.4,103.6 358.5,102.3 358.6,101.3 358.7,100.6 358.8,100.0 358.9,99.7 359.0,99.6 359.1,99.7 359.2,99.9 359.3,100.4 359.4,101.0 359.5,101.9 359.6,103.1 359.7,104.5 359.8,106.2 359.9,108.3 360.0,110.9 360.1,114.1 360.2,118.3 360.3,123.9 360.4,132.9 360.5,166.0 360.6,139.7 360.7,139.6 360.8,166.0 360.9,133.5 361.0,124.4 361.1,118.8 361.2,114.8 361.3,111.6 361.4,109.1 361.5,107.1 361.6,105.5 361.7,104.2 361.8,103.1 361.9,102.3 362.0,101.8 362.1,101.4 362.2,101.3 362.3,101.3 362.4,101.5 362.5,102.0 362.6,102.6 362.7,103.5 362.8,104.6 362.9,105.9 363.0,107.6 363.1,109.7 363.2,112.2 363.3,115.4 363.4,119.5 363.5,125.0 363.6,133.9 363.7,166.0 363.8,140.1 363.9,139.0 364.0,150.3 364.1,138.0 364.2,127.3 364.3,121.2 364.4,116.9 364.5,113.6 364.6,111.0 364.7,108.9 364.8,107.3 364.9,105.9 365.0,104.8 365.1,104.0 365.2,103.4 365.3,103.0 365.4,102.8 365.5,102.8 365.6,103.0 365.7,103.4 365.8,104.0 365.9,104.9 366.0,105.9 366.1,107.3 366.2,108.9 366.3,111.0 366.4,113.4 366.5,116.6 366.6,120.5 366.7,126.0 366.8,134.8 366.9,166.0 367.0,140.5 367.1,138.6 367.2,145.3 367.3,143.6 367.4,130.3 367.5,123.6 367.6,119.0 367.7,115.5 367.8,112.8 367.9,110.7 368.0,108.9 368.1,107.5 368.2,106.4 368.3,105.5 368.4,104.9 368.5,104.4 368.6,104.2 368.7,104.2 368.8,104.4 368.9,104.8 369.0,105.3 369.1,106.1 369.2,107.2 369.3,108.5 369.4,110.1 369.5,112.1 369.6,114.6 369.7,117.6 369.8,121.6 369.9,127.0 370.0,135.6 370.1,166.0 370.2,140.9 370.3,138.4 370.4,142.7 370.5,152.6 370.6,133.4 370.7,125.9 370.8,121.0 370.9,117.4 371.0,114.6 371.1,112.3 371.2,110.5 371.3,109.0 371.4,107.8 371.5,106.9 371.6,106.3 371.7,105.8 371.8,105.6 371.9,105.5 372.0,105.7 372.1,106.0 372.2,106.6 372.3,107.3 372.4,108.4 372.5,109.6 372.6,111.2 372.7,113.2 372.8,115.6 372.9,118.6 373.0,122.5 373.1,127.8 373.2,136.4 373.3,166.0 373.4,141.2 373.5,138.3 373.6,141.1 373.7,166.0 373.8,137.0 373.9,128.3 374.0,123.0 374.1,119.2 374.2,116.2 374.3,113.9 374.4,112.0 374.5,110.4 374.6,109.2 374.7,108.3 374.8,107.6 374.9,107.1 375.0,106.8 375.1,106.7 375.2,106.9 375.3,107.2 375.4,107.7 375.5,108.5 375.6,109.5 375.7,110.7 375.8,112.3 375.9,114.2 376.0,116.6 376.1,119.5 376.2,123.3 376.3,128.6 376.4,137.1 376.5,166.0 376.6,141.6 376.7,138.3 376.8,140.1 376.9,152.4 377.0,141.1 377.1,130.8 377.2,125.0 377.3,120.9 377.4,117.8 377.5,115.4 377.6,113.4 377.7,111.8 377.8,110.6 377.9,109.6 378.0,108.8 378.1,108.3 378.2,108.0 378.3,107.9 378.4,108.0 378.5,108.3 378.6,108.8 378.7,109.5 378.8,110.5 378.9,111.7 379.0,113.2 379.1,115.1 379.2,117.4 379.3,120.4 379.4,124.1 379.5,129.3 379.6,137.7 379.7,166.0 379.8,142.0 379.9,138.3 380.0,139.3 380.1,147.1 380.2,146.5 380.3,133.4 380.4,127.0 380.5,122.6 380.6,119.4 380.7,116.8 380.8,114.8 380.9,113.1 381.0,111.8 381.1,110.8 381.2,110.0 381.3,109.5 381.4,109.1 381.5,109.0 381.6,109.1 381.7,109.3 381.8,109.8 381.9,110.5 382.0,111.4 382.1,112.6 382.2,114.1 382.3,116.0 382.4,118.3 382.5,121.2 382.6,124.9 382.7,130.0 382.8,138.3 382.9,166.0 383.0,142.3 383.1,138.4 383.2,138.8 383.3,144.3 383.4,155.3 383.5,136.3 383.6,129.0 383.7,124.4 383.8,120.9 383.9,118.2 384.0,116.1 384.1,114.4 384.2,113.0 384.3,112.0 384.4,111.1 384.5,110.6 384.6,110.2 384.7,110.0 384.8,110.1 384.9,110.3 385.0,110.8 385.1,111.4 385.2,112.3 385.3,113.5 385.4,115.0 385.5,116.8 385.6,119.1 385.7,121.9 385.8,125.6 385.9,130.7 386.0,138.9 386.1,166.0 386.2,142.6 386.3,138.5 386.4,138.5 386.5,142.4 386.6,166.0 386.7,139.5 386.8,131.2 386.9,126.1 387.0,122.4 387.1,119.6 387.2,117.4 387.3,115.6 387.4,114.2 387.5,113.1 387.6,112.2 387.7,111.6 387.8,111.2 387.9,111.0 388.0,111.0 388.1,111.2 388.2,111.7 388.3,112.3 388.4,113.2 388.5,114.3 388.6,115.8 388.7,117.6 388.8,119.8 388.9,122.6 389.0,126.2 389.1,131.3 389.2,139.4 389.3,166.0 389.4,143.0 389.5,138.6 389.6,138.2 389.7,141.2 389.8,153.9 389.9,143.5 390.0,133.4 390.1,127.8 390.2,123.9 390.3,121.0 390.4,118.7 390.5,116.8 390.6,115.3 390.7,114.2 390.8,113.3 390.9,112.6 391.0,112.2 391.1,112.0 391.2,111.9 391.3,112.1 391.4,112.5 391.5,113.2 391.6,114.0 391.7,115.1 391.8,116.5 391.9,118.3 392.0,120.5 392.1,123.3 392.2,126.9 392.3,131.8 392.4,139.9 392.5,166.0 392.6,143.3 392.7,138.8 392.8,138.0 392.9,140.2 393.0,148.6 393.1,148.7 393.2,135.8 393.3,129.6 393.4,125.4 393.5,122.3 393.6,119.9 393.7,118.0 393.8,116.4 393.9,115.2 394.0,114.3 394.1,113.6 394.2,113.1 394.3,112.9 394.4,112.8 394.5,113.0 394.6,113.4 394.7,114.0 394.8,114.8 394.9,115.9 395.0,117.3 395.1,119.0 395.2,121.2 395.3,123.9 395.4,127.4 395.5,132.4 395.6,140.4 395.7,166.0 395.8,143.6 395.9,138.9 396.0,137.9 396.1,139.5 396.2,145.6 396.3,157.5 396.4,138.5 396.5,131.5 396.6,126.9 396.7,123.6 396.8,121.1 396.9,119.1 397.0,117.5 397.1,116.2 397.2,115.2 397.3,114.5 397.4,114.0 397.5,113.7 397.6,113.7 397.7,113.8 397.8,114.2 397.9,114.7 398.0,115.5 398.1,116.6 398.2,118.0 398.3,119.7 398.4,121.8 398.5,124.5 398.6,128.0 398.7,132.9 398.8,140.8 398.9,166.0 399.0,143.8 399.1,139.0 399.2,137.8 399.3,139.0 399.4,143.6 399.5,166.0 399.6,141.6 399.7,133.4 399.8,128.5 399.9,125.0 400.0,122.3 400.1,120.2 400.2,118.5 400.3,117.2 400.4,116.2 400.5,115.4 400.6,114.9 400.7,114.6 400.8,114.5 400.9,114.6 401.0,114.9 401.1,115.5 401.2,116.2 401.3,117.3 401.4,118.6 401.5,120.3 401.6,122.4 401.7,125.0 401.8,128.5 401.9,133.3 402.0,141.3 402.1,166.0 402.2,144.1 402.3,139.2 402.4,137.8 402.5,138.5 402.6,142.1 402.7,155.1 402.8,145.3 402.9,135.5 403.0,130.0 403.1,126.3 403.2,123.5 403.3,121.3 403.4,119.5 403.5,118.1 403.6,117.1 403.7,116.3 403.8,115.7 403.9,115.4 404.0,115.2 404.1,115.3 404.2,115.6 404.3,116.1 404.4,116.9 404.5,117.9 404.6,119.2 404.7,120.9 404.8,122.9 404.9,125.6 405.0,129.0 405.1,133.8 405.2,141.7 405.3,166.0 405.4,144.4 405.5,139.3 405.6,137.7 405.7,138.2 405.8,141.0 405.9,149.7 406.0,150.5 406.1,137.7 406.2,131.7 406.3,127.6 406.4,124.7 406.5,122.3 406.6,120.5 406.7,119.1 406.8,118.0 406.9,117.1 407.0,116.5 407.1,116.1 407.2,116.0 407.3,116.0 407.4,116.3 407.5,116.8 407.6,117.5 407.7,118.5 407.8,119.8 407.9,121.4 408.0,123.5 408.1,126.1 408.2,129.5 408.3,134.2 408.4,142.1 408.5,166.0 408.6,144.6 408.7,139.5 408.8,137.7 408.9,137.9 409.0,140.2 409.1,146.6 409.2,159.3 409.3,140.3 409.4,133.4 409.5,129.0 409.6,125.8 409.7,123.4 409.8,121.5 409.9,120.0 410.0,118.8 410.1,117.9 410.2,117.3 410.3,116.9 410.4,116.7 410.5,116.7 410.6,117.0 410.7,117.5 410.8,118.2 410.9,119.1 411.0,120.4 411.1,122.0 411.2,124.0 411.3,126.6 411.4,129.9 411.5,134.6 411.6,142.4 411.7,166.0 411.8,144.8 411.9,139.6 412.0,137.7 412.1,137.7 412.2,139.5 412.3,144.5 412.4,166.0 412.5,143.2 412.6,135.2 412.7,130.4 412.8,127.0 412.9,124.5 413.0,122.5 413.1,120.9 413.2,119.7 413.3,118.7 413.4,118.1 413.5,117.6 413.6,117.4 413.7,117.4 413.8,117.6 413.9,118.1 414.0,118.8 414.1,119.7 414.2,120.9 414.3,122.5 414.4,124.5 414.5,127.0 414.6,130.3 414.7,135.0 414.8,142.8 414.9,166.0 415.0,145.1 415.1,139.7 415.2,137.7 415.3,137.5 415.4,138.9 415.5,142.9 415.6,156.1 415.7,146.9 415.8,137.1 415.9,131.8 416.0,128.2 416.1,125.5 416.2,123.4 416.3,121.8 416.4,120.5 416.5,119.5 416.6,118.8 416.7,118.3 416.8,118.1 416.9,118.1 417.0,118.2 417.1,118.7 417.2,119.3 417.3,120.2 417.4,121.4 417.5,123.0 417.6,124.9 417.7,127.4 417.8,130.8 417.9,135.4 418.0,143.1 418.1,166.0 418.2,145.3 418.3,139.9 418.4,137.7 418.5,137.3 418.6,138.5 418.7,141.7 418.8,150.6 418.9,151.9 419.0,139.3 419.1,133.4 419.2,129.4 419.3,126.6 419.4,124.4 419.5,122.6 419.6,121.3 419.7,120.3 419.8,119.5 419.9,119.0 420.0,118.7 420.1,118.7 420.2,118.8 420.3,119.2 420.4,119.9 420.5,120.8 420.6,121.9 420.7,123.5 420.8,125.4 420.9,127.9 421.0,131.1 421.1,135.7 421.2,143.4 421.3,166.0 421.4,145.5 421.5,140.0 421.6,137.8 421.7,137.2 421.8,138.1 421.9,140.8 422.0,147.4 422.1,160.9 422.2,141.7 422.3,134.9 422.4,130.7 422.5,127.6 422.6,125.3 422.7,123.5 422.8,122.1 422.9,121.0 423.0,120.2 423.1,119.7 423.2,119.4 423.3,119.3 423.4,119.4 423.5,119.8 423.6,120.4 423.7,121.3 423.8,122.4 423.9,123.9 424.0,125.8 424.1,128.3 424.2,131.5 424.3,136.1 424.4,143.7 424.6,166.0 424.7,145.7 424.8,140.1 424.9,137.8 425.0,137.1 425.1,137.7 425.2,140.0 425.3,145.3 425.4,166.0 425.5,144.6 425.6,136.6 425.7,132.0 425.8,128.7 425.9,126.3 426.0,124.4 426.1,122.9 426.2,121.8 426.3,120.9 426.4,120.3 426.5,120.0 426.6,119.9 426.7,120.0 426.8,120.3 426.9,120.9 427.0,121.8 427.1,122.9 427.2,124.3 427.3,126.2 427.4,128.6 427.5,131.9 427.6,136.4 427.7,144.0 427.8,166.0 427.9,145.9 428.0,140.3 428.1,137.8 428.2,137.0 428.3,137.5 428.4,139.3 428.5,143.6 428.6,156.8 428.7,148.2 428.8,138.5 428.9,133.3 429.0,129.8 429.1,127.2 429.2,125.2 429.3,123.7 429.4,122.5 429.5,121.6 429.6,121.0 429.7,120.6 429.8,120.5 429.9,120.5 430.0,120.9 430.1,121.4 430.2,122.2 430.3,123.3 430.4,124.8 430.5,126.6 430.6,129.0 430.7,132.2 430.8,136.7 430.9,144.2 431.0,166.0 431.1,146.0 431.2,140.4 431.3,137.9 431.4,136.9 431.5,137.2 431.6,138.8 431.7,142.3 431.8,151.4 431.9,153.2 432.0,140.5 432.1,134.7 432.2,130.9 432.3,128.2 432.4,126.1 432.5,124.4 432.6,123.2 432.7,122.3 432.8,121.6 432.9,121.2 433.0,121.0 433.1,121.1 433.2,121.4 433.3,121.9 433.4,122.7 433.5,123.8 433.6,125.2 433.7,127.0 433.8,129.4 433.9,132.5 434.0,137.0 434.1,144.5 434.2,166.0 434.3,146.2 434.4,140.5 434.5,137.9 434.6,136.9 434.7,137.0 434.8,138.3 434.9,141.3 435.0,148.1 435.1,162.3 435.2,142.9 435.3,136.2 435.4,132.1 435.5,129.2 435.6,126.9 435.7,125.2 435.8,123.9 435.9,122.9 436.0,122.2 436.1,121.8 436.2,121.6 436.3,121.6 436.4,121.8 436.5,122.3 436.6,123.1 436.7,124.2 436.8,125.6 436.9,127.4 437.0,129.7 437.1,132.8 437.2,137.3 437.3,144.7 437.4,166.0 437.5,146.4 437.6,140.6 437.7,137.9 437.8,136.8 437.9,136.8 438.0,137.9 438.1,140.4 438.2,145.9 438.3,166.0 438.4,145.7 438.5,137.9 438.6,133.3 438.7,130.1 438.8,127.8 438.9,126.0 439.0,124.6 439.1,123.6 439.2,122.8 439.3,122.3 439.4,122.1 439.5,122.1 439.6,122.3 439.7,122.8 439.8,123.5 439.9,124.6 440.0,125.9 440.1,127.7 440.2,130.0 440.3,133.1 440.4,137.5 440.5,145.0 440.6,166.0 440.7,146.5 440.8,140.7 440.9,138.0 441.0,136.8 441.1,136.6 441.2,137.5 441.3,139.7 441.4,144.2 441.5,157.3 441.6,149.2 441.7,139.6 441.8,134.6 441.9,131.2 442.0,128.7 442.1,126.8 442.2,125.3 442.3,124.2 442.4,123.4 442.5,122.9 442.6,122.6 442.7,122.6 442.8,122.8 442.9,123.2 443.0,123.9 443.1,125.0 443.2,126.3 443.3,128.0 443.4,130.3 443.5,133.4 443.6,137.8 443.7,145.2 443.8,166.0 443.9,146.7 444.0,140.8 444.1,138.0 444.2,136.7 444.3,136.5 444.4,137.2 444.5,139.0 444.6,142.8 444.7,151.9 444.8,154.2 444.9,141.6 445.0,135.9 445.1,132.2 445.2,129.5 445.3,127.5 445.4,126.0 445.5,124.8 445.6,124.0 445.7,123.4 445.8,123.1 445.9,123.1 446.0,123.2 446.1,123.7 446.2,124.3 446.3,125.3 446.4,126.6 446.5,128.4 446.6,130.6 446.7,133.7 446.8,138.0 446.9,145.4 447.0,166.0 447.1,146.8 447.2,140.9 447.3,138.0 447.4,136.7 447.5,136.3 447.6,136.9 447.7,138.5 447.8,141.7 447.9,148.7 448.0,163.6 448.1,143.9 448.2,137.3 448.3,133.3 448.4,130.4 448.5,128.3 448.6,126.7 448.7,125.5 448.8,124.6 448.9,124.0 449.0,123.6 449.1,123.5 449.2,123.7 449.3,124.1 449.4,124.7 449.5,125.7 449.6,127.0 449.7,128.7 449.8,130.9 449.9,133.9 450.0,138.3 450.1,145.6 450.2,166.0 450.3,146.9 450.4,141.0 450.5,138.1 450.6,136.6 450.7,136.2 450.8,136.6 450.9,138.0 451.0,140.7 451.1,146.4 451.2,166.0 451.3,146.6 451.4,138.9 451.5,134.4 451.6,131.4 451.7,129.1 451.8,127.4 451.9,126.1 452.0,125.1 452.1,124.5 452.2,124.1 452.3,124.0 452.4,124.1 452.5,124.5 452.6,125.1 452.7,126.0 452.8,127.3 452.9,129.0 453.0,131.2 453.1,134.2 453.2,138.5 453.3,145.8 453.4,166.0 453.5,147.1 453.6,141.0 453.7,138.1 453.8,136.6 453.9,136.0 454.0,136.3 454.1,137.5 454.2,139.9 454.3,144.6 454.4,157.7 454.5,150.1 454.6,140.6 454.7,135.6 454.8,132.3 454.9,129.9 455.0,128.1 455.1,126.7 455.2,125.7 455.3,125.0 455.4,124.6 455.5,124.4 455.6,124.5 455.7,124.9 455.8,125.5 455.9,126.4 456.0,127.6 456.1,129.3 456.2,131.5 456.3,134.4 456.4,138.7 456.5,146.0 456.6,166.0 456.7,147.2 456.8,141.1 456.9,138.1 457.0,136.6 457.1,135.9 457.2,136.1 457.3,137.1 457.4,139.2 457.5,143.2 457.6,152.4 457.7,155.1 457.8,142.5 457.9,136.9 458.0,133.3 458.1,130.7 458.2,128.8 458.3,127.3 458.4,126.3 458.5,125.5 458.6,125.1 458.7,124.9 458.8,124.9 458.9,125.2 459.0,125.8 459.1,126.7 459.2,127.9 459.3,129.5 459.4,131.7 459.5,134.7 459.6,138.9 459.7,146.2 459.8,166.0 459.9,147.3 460.0,141.2 460.1,138.1 460.2,136.5 460.3,135.8 460.4,135.9 460.5,136.7 460.6,138.6 460.7,142.0 460.8,149.1 460.9,164.7 461.0,144.7 461.1,138.2 461.2,134.3 461.3,131.5 461.4,129.5 461.5,128.0 461.6,126.8 461.7,126.0 461.8,125.5 461.9,125.3 462.0,125.3 462.1,125.6 462.2,126.2 462.3,127.0 462.4,128.2 462.5,129.8 462.6,132.0 462.7,134.9 462.8,139.1 462.9,146.3 463.0,166.0 463.1,147.4 463.2,141.2 463.3,138.2 463.4,136.5 463.5,135.7 463.6,135.7 463.7,136.4 463.8,138.0 463.9,141.0 464.0,146.7 464.1,166.0 464.2,147.4 464.3,139.7 464.4,135.4 464.5,132.4 464.6,130.2 464.7,128.6 464.8,127.4 464.9,126.5 465.0,126.0 465.1,125.7 465.2,125.7 465.3,126.0 465.4,126.5 465.5,127.3 465.6,128.5 465.7,130.1 465.8,132.2 465.9,135.1 466.0,139.3 466.1,146.5 466.2,166.0 466.3,147.5 466.4,141.3 466.5,138.2 466.6,136.4 466.7,135.6 466.8,135.5 466.9,136.1 467.0,137.5 467.1,140.1 467.2,144.9 467.3,158.0 467.4,150.9 467.5,141.4 467.6,136.5 467.7,133.3 467.8,131.0 467.9,129.2 468.0,128.0 468.1,127.0 468.2,126.5 468.3,126.1 468.4,126.1 468.5,126.3 468.6,126.8 468.7,127.6 468.8,128.8 468.9,130.3 469.0,132.4 469.1,135.3 469.2,139.5 469.3,146.6 469.4,166.0 469.5,147.6 469.6,141.4 469.7,138.2 469.8,136.4 469.9,135.5 470.0,135.3 470.1,135.8 470.2,137.1 470.3,139.3 470.4,143.4 470.5,152.7 470.6,155.9 470.7,143.2 470.8,137.7 470.9,134.2 471.0,131.7 471.1,129.9 471.2,128.5 471.3,127.6 471.4,126.9 471.5,126.6 471.6,126.5 471.7,126.7 471.8,127.1 471.9,127.9 472.0,129.0 472.1,130.6 472.2,132.6 472.3,135.5 472.4,139.6 472.5,146.8 472.6,166.0 472.7,147.7 472.8,141.4 472.9,138.2 473.0,136.4 473.1,135.4 473.2,135.1 473.3,135.5 473.4,136.6 473.5,138.6 473.6,142.2 473.7,149.4 473.8,165.7 473.9,145.4 474.0,139.0 474.1,135.1 474.2,132.5 474.3,130.5 474.4,129.1 474.5,128.1 474.6,127.4 474.7,127.0 474.8,126.8 474.9,127.0 475.0,127.4 475.1,128.2 475.2,129.3 475.3,130.8 475.4,132.8 475.5,135.7 475.6,139.8 475.7,146.9 475.8,166.0 475.9,147.7 476.0,141.4 476.1,138.2 476.2,136.3 476.3,135.3 476.4,135.0 476.5,135.3 476.6,136.2 476.7,138.0 476.8,141.1 476.9,147.0 477.0,166.0 477.1,148.1 477.2,140.4 477.3,136.2 477.4,133.3 477.5,131.2 477.6,129.7 477.7,128.6 477.8,127.8 477.9,127.4 478.0,127.2 478.1,127.3 478.2,127.8 478.3,128.5 478.4,129.5 478.5,131.0 478.6,133.0 478.7,135.8 478.8,139.9 478.9,147.0 479.0,166.0 479.1,147.8 479.2,141.5 479.3,138.2 479.4,136.3 479.5,135.2 479.6,134.8 479.7,135.0 479.8,135.9 479.9,137.5 480.0,140.2 480.1,145.1 480.2,158.2 480.3,151.5 480.4,142.0 480.5,137.2 480.6,134.1 480.7,131.9 480.8,130.2 480.9,129.1 481.0,128.3 481.1,127.8 481.2,127.6 481.3,127.7 481.4,128.0 481.5,128.7 481.6,129.8 481.7,131.2 481.8,133.2 481.9,136.0 482.0,140.1 482.1,147.2 482.2,166.0 482.3,147.9 482.4,141.5 482.5,138.2 482.6,136.2 482.7,135.1 482.8,134.7 482.9,134.8 483.0,135.5 483.1,136.9 483.2,139.4 483.3,143.6 483.4,152.9 483.5,156.5 483.6,143.8 483.7,138.4 483.8,135.0 483.9,132.6 484.0,130.8 484.1,129.6 484.2,128.7 484.3,128.2 484.4,127.9 484.5,128.0 484.6,128.3 484.7,129.0 484.8,130.0 484.9,131.4 485.0,133.4 485.1,136.2 485.2,140.2 485.3,147.3 485.4,166.0 485.5,147.9 485.6,141.5 485.7,138.2 485.8,136.2 485.9,135.0 486.0,134.5 486.1,134.6 486.2,135.2 486.3,136.5 486.4,138.6 486.5,142.3 486.6,149.6 486.7,166.0 486.8,146.0 486.9,139.6 487.0,135.9 487.1,133.3 487.2,131.4 487.3,130.1 487.4,129.1 487.5,128.6 487.6,128.3 487.7,128.3 487.8,128.6 487.9,129.3 488.0,130.2 488.1,131.6 488.2,133.6 488.3,136.3 488.4,140.3 488.5,147.4 488.6,166.0 488.7,148.0 488.8,141.6 488.9,138.2 489.0,136.1 489.1,134.9 489.2,134.4 489.3,134.3 489.4,134.9 489.5,136.0 489.6,138.0 489.7,141.2 489.8,147.1 489.9,166.0 490.0,148.6 490.1,141.0 490.2,136.8 490.3,134.0 490.4,132.0 490.5,130.6 490.6,129.6 490.7,128.9 490.8,128.6 490.9,128.6 491.0,128.9 491.1,129.5 491.2,130.5 491.3,131.8 491.4,133.8 491.5,136.5 491.6,140.5 491.7,147.5 491.8,166.0 491.9,148.0 492.0,141.6 492.1,138.2 492.2,136.1 492.3,134.8 492.4,134.2 492.5,134.1 492.6,134.6 492.7,135.6 492.9,137.4 493.0,140.2 493.1,145.2 493.2,158.2 493.3,152.0 493.4,142.6 493.5,137.8 493.6,134.8 493.7,132.6 493.8,131.1 493.9,130.0 494.0,129.3 494.1,129.0 494.2,128.9 494.3,129.2 494.4,129.7 494.5,130.7 494.6,132.0 494.7,133.9 494.8,136.6 494.9,140.6 495.0,147.6 495.1,166.0 495.2,148.0 495.3,141.6 495.4,138.1 495.5,136.0 495.6,134.7 495.7,134.1 495.8,133.9 495.9,134.3 496.0,135.2 496.1,136.8 496.2,139.3 496.3,143.7 496.4,153.0 496.5,157.1 496.6,144.3 496.7,138.9 496.8,135.6 496.9,133.3 497.0,131.6 497.1,130.5 497.2,129.7 497.3,129.3 497.4,129.2 497.5,129.4 497.6,130.0 497.7,130.9 497.8,132.2 497.9,134.1 498.0,136.7 498.1,140.7 498.2,147.6 498.3,166.0 498.4,148.1 498.5,141.6 498.6,138.1 498.7,136.0 498.8,134.6 498.9,133.9 499.0,133.7 499.1,134.0 499.2,134.8 499.3,136.3 499.4,138.6 499.5,142.3 499.6,149.6 499.7,166.0 499.8,146.4 499.9,140.1 500.0,136.5 500.1,134.0 500.2,132.2 500.3,131.0 500.4,130.1 500.5,129.7 500.6,129.5 500.7,129.7 500.8,130.2 500.9,131.1 501.0,132.4 501.1,134.2 501.2,136.9 501.3,140.8 501.4,147.7 501.5,166.0 501.6,148.1 501.7,141.6 501.8,138.1 501.9,135.9 502.0,134.5 502.1,133.8 502.2,133.5 502.3,133.7 502.4,134.4 502.5,135.8 502.6,137.8 502.7,141.2 502.8,147.2 502.9,166.0 503.0,149.0 503.1,141.5 503.2,137.4 503.3,134.6 503.4,132.8 503.5,131.4 503.6,130.5 503.7,130.0 503.8,129.8 503.9,130.0 504.0,130.4 504.1,131.3 504.2,132.6 504.3,134.4 504.4,137.0 504.5,140.9 504.6,147.8 504.7,166.0 504.8,148.1 504.9,141.6 505.0,138.0 505.1,135.8 505.2,134.4 505.3,133.6 505.4,133.3 505.5,133.5 505.6,134.1 505.7,135.3 505.8,137.2 505.9,140.1 506.0,145.2 506.1,158.2 506.2,152.4 506.3,143.0 506.4,138.3 506.5,135.4 506.6,133.3 506.7,131.9 506.8,130.9 506.9,130.3 507.0,130.1 507.1,130.2 507.2,130.7 507.3,131.5 507.4,132.7 507.5,134.5 507.6,137.1 507.7,141.0 507.8,147.8 507.9,166.0 508.0,148.1 508.1,141.6 508.2,138.0 508.3,135.8 508.4,134.3 508.5,133.5 508.6,133.1 508.7,133.2 508.8,133.8 508.9,134.8 509.0,136.6 509.1,139.2 509.2,143.6 509.3,153.0 509.4,157.5 509.5,144.7 509.6,139.4 509.7,136.1 509.8,133.9 509.9,132.4 510.0,131.3 510.1,130.7 510.2,130.4 510.3,130.5 510.4,130.9 510.5,131.7 510.6,132.9 510.7,134.6 510.8,137.2 510.9,141.0 511.0,147.9 511.1,166.0 511.2,148.1 511.3,141.5 511.4,137.9 511.5,135.7 511.6,134.2 511.7,133.3 511.8,132.9 511.9,133.0 512.0,133.4 512.1,134.4 512.2,136.0 512.3,138.4 512.4,142.3 512.5,149.6 512.6,166.0 512.7,146.8 512.8,140.5 512.9,136.9 513.0,134.5 513.1,132.9 513.2,131.7 513.3,131.0 513.4,130.7 513.5,130.7 513.6,131.1 513.7,131.8 513.8,133.0 513.9,134.8 514.0,137.3 514.1,141.1 514.2,148.0 514.3,166.0 514.4,148.2 514.5,141.5 514.6,137.9 514.7,135.6 514.8,134.1 514.9,133.2 515.0,132.7 515.1,132.7 515.2,133.1 515.3,134.0 515.4,135.4 515.5,137.6 515.6,141.1 515.7,147.1 515.8,166.0 515.9,149.3 516.0,141.8 516.1,137.8 516.2,135.2 516.3,133.4 516.4,132.2 516.5,131.4 516.6,131.0 516.7,131.0 516.8,131.3 516.9,132.0 517.0,133.2 517.1,134.9 517.2,137.4 517.3,141.2 517.4,148.0 517.5,166.0 517.6,148.1 517.7,141.5 517.8,137.8 517.9,135.5 518.0,134.0 518.1,133.0 518.2,132.5 518.3,132.5 518.4,132.8 518.5,133.6 518.6,134.9 518.7,136.9 518.8,140.0 518.9,145.2 519.0,158.1 519.1,152.7 519.2,143.3 519.3,138.7 519.4,135.9 519.5,133.9 519.6,132.6 519.7,131.7 519.8,131.3 519.9,131.2 520.0,131.5 520.1,132.2 520.2,133.3 520.3,135.0 520.4,137.5 520.5,141.3 520.6,148.0 520.7,166.0 520.8,148.1 520.9,141.5 521.0,137.8 521.1,135.4 521.2,133.9 521.3,132.9 521.4,132.3 521.5,132.2 521.6,132.5 521.7,133.2 521.8,134.4 521.9,136.2 522.0,139.0 522.1,143.5 522.2,152.9 522.3,157.8 522.4,145.0 522.5,139.7 522.6,136.6 522.7,134.5 522.8,133.0 522.9,132.1 523.0,131.6 523.1,131.5 523.2,131.7 523.3,132.4 523.4,133.5 523.5,135.1 523.6,137.6 523.7,141.3 523.8,148.1 523.9,166.0 524.0,148.1 524.1,141.4 524.2,137.7 524.3,135.3 524.4,133.7 524.5,132.7 524.6,132.1 524.7,132.0 524.8,132.2 524.9,132.8 525.0,133.9 525.1,135.6 525.2,138.1 525.3,142.1 525.4,149.5 525.5,166.0 525.6,147.0 525.7,140.8 525.8,137.3 525.9,135.0 526.0,133.5 526.1,132.5 526.2,131.9 526.3,131.7 526.4,131.9 526.5,132.5 526.6,133.6 526.7,135.2 526.8,137.6 526.9,141.4 527.0,148.1" fill="none" stroke="#4a90d9" stroke-width="1.2" stroke-linejoin="round"/>
  <text x="154.5" y="190" text-anchor="middle" font-size="8" fill="#6b7280">n / N</text>
  <text x="424.5" y="190" text-anchor="middle" font-size="8" fill="#6b7280">Normalized frequency (× Fₛ)</text>
</svg>
