<svg xmlns="http://www.w3.org/2000/svg" viewBox="0 0 800 230" style="font-family:system-ui,-apple-system,sans-serif">
  <line x1="42" y1="182.0" x2="377" y2="182.0" stroke="#e5e7eb" stroke-width="0.7"/>
  <text x="37" y="186.0" text-anchor="end" font-size="10" fill="#6b7280">0</text>
  <line x1="42" y1="95.0" x2="377" y2="95.0" stroke="#e5e7eb" stroke-width="0.7"/>
  <text x="37" y="99.0" text-anchor="end" font-size="10" fill="#6b7280">0.5</text>
  <line x1="42" y1="8.0" x2="377" y2="8.0" stroke="#e5e7eb" stroke-width="0.7"/>
  <text x="37" y="12.0" text-anchor="end" font-size="10" fill="#6b7280">1</text>
  <line x1="42.0" y1="8" x2="42.0" y2="182" stroke="#e5e7eb" stroke-width="0.7"/>
  <text x="42.0" y="198" text-anchor="middle" font-size="10" fill="#6b7280">0</text>
  <line x1="209.5" y1="8" x2="209.5" y2="182" stroke="#e5e7eb" stroke-width="0.7"/>
  <text x="209.5" y="198" text-anchor="middle" font-size="10" fill="#6b7280">0.5</text>
  <line x1="377.0" y1="8" x2="377.0" y2="182" stroke="#e5e7eb" stroke-width="0.7"/>
  <text x="377.0" y="198" text-anchor="middle" font-size="10" fill="#6b7280">1</text>
  <line x1="42" y1="8" x2="42" y2="182" stroke="#d1d5db" stroke-width="1"/>
  <line x1="42" y1="182" x2="377" y2="182" stroke="#d1d5db" stroke-width="1"/>
  <path d="M42.0,182.0 42.0,182.0 43.3,180.6 44.6,179.3 45.9,177.9 47.3,176.5 48.6,175.2 49.9,173.8 51.2,172.4 52.5,171.1 53.8,169.7 55.1,168.4 56.5,167.0 57.8,165.6 59.1,164.3 60.4,162.9 61.7,161.5 63.0,160.2 64.3,158.8 65.6,157.4 67.0,156.1 68.3,154.7 69.6,153.3 70.9,152.0 72.2,150.6 73.5,149.2 74.8,147.9 76.2,146.5 77.5,145.2 78.8,143.8 80.1,142.4 81.4,141.1 82.7,139.7 84.0,138.3 85.4,137.0 86.7,135.6 88.0,134.2 89.3,132.9 90.6,131.5 91.9,130.1 93.2,128.8 94.5,127.4 95.9,126.0 97.2,124.7 98.5,123.3 99.8,122.0 101.1,120.6 102.4,119.2 103.7,117.9 105.1,116.5 106.4,115.1 107.7,113.8 109.0,112.4 110.3,111.0 111.6,109.7 112.9,108.3 114.3,106.9 115.6,105.6 116.9,104.2 118.2,102.8 119.5,101.5 120.8,100.1 122.1,98.8 123.5,97.4 124.8,96.0 126.1,94.7 127.4,93.3 128.7,91.9 130.0,90.6 131.3,89.2 132.6,87.8 134.0,86.5 135.3,85.1 136.6,83.7 137.9,82.4 139.2,81.0 140.5,79.6 141.8,78.3 143.2,76.9 144.5,75.6 145.8,74.2 147.1,72.8 148.4,71.5 149.7,70.1 151.0,68.7 152.4,67.4 153.7,66.0 155.0,64.6 156.3,63.3 157.6,61.9 158.9,60.5 160.2,59.2 161.5,57.8 162.9,56.4 164.2,55.1 165.5,53.7 166.8,52.4 168.1,51.0 169.4,49.6 170.7,48.3 172.1,46.9 173.4,45.5 174.7,44.2 176.0,42.8 177.3,41.4 178.6,40.1 179.9,38.7 181.3,37.3 182.6,36.0 183.9,34.6 185.2,33.2 186.5,31.9 187.8,30.5 189.1,29.2 190.5,27.8 191.8,26.4 193.1,25.1 194.4,23.7 195.7,22.3 197.0,21.0 198.3,19.6 199.6,18.2 201.0,16.9 202.3,15.5 203.6,14.1 204.9,12.8 206.2,11.4 207.5,10.0 208.8,8.7 210.2,8.7 211.5,10.0 212.8,11.4 214.1,12.8 215.4,14.1 216.7,15.5 218.0,16.9 219.4,18.2 220.7,19.6 222.0,21.0 223.3,22.3 224.6,23.7 225.9,25.1 227.2,26.4 228.5,27.8 229.9,29.2 231.2,30.5 232.5,31.9 233.8,33.2 235.1,34.6 236.4,36.0 237.7,37.3 239.1,38.7 240.4,40.1 241.7,41.4 243.0,42.8 244.3,44.2 245.6,45.5 246.9,46.9 248.3,48.3 249.6,49.6 250.9,51.0 252.2,52.4 253.5,53.7 254.8,55.1 256.1,56.4 257.5,57.8 258.8,59.2 260.1,60.5 261.4,61.9 262.7,63.3 264.0,64.6 265.3,66.0 266.6,67.4 268.0,68.7 269.3,70.1 270.6,71.5 271.9,72.8 273.2,74.2 274.5,75.6 275.8,76.9 277.2,78.3 278.5,79.6 279.8,81.0 281.1,82.4 282.4,83.7 283.7,85.1 285.0,86.5 286.4,87.8 287.7,89.2 289.0,90.6 290.3,91.9 291.6,93.3 292.9,94.7 294.2,96.0 295.5,97.4 296.9,98.8 298.2,100.1 299.5,101.5 300.8,102.8 302.1,104.2 303.4,105.6 304.7,106.9 306.1,108.3 307.4,109.7 308.7,111.0 310.0,112.4 311.3,113.8 312.6,115.1 313.9,116.5 315.3,117.9 316.6,119.2 317.9,120.6 319.2,122.0 320.5,123.3 321.8,124.7 323.1,126.0 324.5,127.4 325.8,128.8 327.1,130.1 328.4,131.5 329.7,132.9 331.0,134.2 332.3,135.6 333.6,137.0 335.0,138.3 336.3,139.7 337.6,141.1 338.9,142.4 340.2,143.8 341.5,145.2 342.8,146.5 344.2,147.9 345.5,149.2 346.8,150.6 348.1,152.0 349.4,153.3 350.7,154.7 352.0,156.1 353.4,157.4 354.7,158.8 356.0,160.2 357.3,161.5 358.6,162.9 359.9,164.3 361.2,165.6 362.5,167.0 363.9,168.4 365.2,169.7 366.5,171.1 367.8,172.4 369.1,173.8 370.4,175.2 371.7,176.5 373.1,177.9 374.4,179.3 375.7,180.6 377.0,182.0 L377.0,182.0 Z" fill="#4a90d9" fill-opacity="0.06"/>
  <polyline points="42.0,182.0 43.3,180.6 44.6,179.3 45.9,177.9 47.3,176.5 48.6,175.2 49.9,173.8 51.2,172.4 52.5,171.1 53.8,169.7 55.1,168.4 56.5,167.0 57.8,165.6 59.1,164.3 60.4,162.9 61.7,161.5 63.0,160.2 64.3,158.8 65.6,157.4 67.0,156.1 68.3,154.7 69.6,153.3 70.9,152.0 72.2,150.6 73.5,149.2 74.8,147.9 76.2,146.5 77.5,145.2 78.8,143.8 80.1,142.4 81.4,141.1 82.7,139.7 84.0,138.3 85.4,137.0 86.7,135.6 88.0,134.2 89.3,132.9 90.6,131.5 91.9,130.1 93.2,128.8 94.5,127.4 95.9,126.0 97.2,124.7 98.5,123.3 99.8,122.0 101.1,120.6 102.4,119.2 103.7,117.9 105.1,116.5 106.4,115.1 107.7,113.8 109.0,112.4 110.3,111.0 111.6,109.7 112.9,108.3 114.3,106.9 115.6,105.6 116.9,104.2 118.2,102.8 119.5,101.5 120.8,100.1 122.1,98.8 123.5,97.4 124.8,96.0 126.1,94.7 127.4,93.3 128.7,91.9 130.0,90.6 131.3,89.2 132.6,87.8 134.0,86.5 135.3,85.1 136.6,83.7 137.9,82.4 139.2,81.0 140.5,79.6 141.8,78.3 143.2,76.9 144.5,75.6 145.8,74.2 147.1,72.8 148.4,71.5 149.7,70.1 151.0,68.7 152.4,67.4 153.7,66.0 155.0,64.6 156.3,63.3 157.6,61.9 158.9,60.5 160.2,59.2 161.5,57.8 162.9,56.4 164.2,55.1 165.5,53.7 166.8,52.4 168.1,51.0 169.4,49.6 170.7,48.3 172.1,46.9 173.4,45.5 174.7,44.2 176.0,42.8 177.3,41.4 178.6,40.1 179.9,38.7 181.3,37.3 182.6,36.0 183.9,34.6 185.2,33.2 186.5,31.9 187.8,30.5 189.1,29.2 190.5,27.8 191.8,26.4 193.1,25.1 194.4,23.7 195.7,22.3 197.0,21.0 198.3,19.6 199.6,18.2 201.0,16.9 202.3,15.5 203.6,14.1 204.9,12.8 206.2,11.4 207.5,10.0 208.8,8.7 210.2,8.7 211.5,10.0 212.8,11.4 214.1,12.8 215.4,14.1 216.7,15.5 218.0,16.9 219.4,18.2 220.7,19.6 222.0,21.0 223.3,22.3 224.6,23.7 225.9,25.1 227.2,26.4 228.5,27.8 229.9,29.2 231.2,30.5 232.5,31.9 233.8,33.2 235.1,34.6 236.4,36.0 237.7,37.3 239.1,38.7 240.4,40.1 241.7,41.4 243.0,42.8 244.3,44.2 245.6,45.5 246.9,46.9 248.3,48.3 249.6,49.6 250.9,51.0 252.2,52.4 253.5,53.7 254.8,55.1 256.1,56.4 257.5,57.8 258.8,59.2 260.1,60.5 261.4,61.9 262.7,63.3 264.0,64.6 265.3,66.0 266.6,67.4 268.0,68.7 269.3,70.1 270.6,71.5 271.9,72.8 273.2,74.2 274.5,75.6 275.8,76.9 277.2,78.3 278.5,79.6 279.8,81.0 281.1,82.4 282.4,83.7 283.7,85.1 285.0,86.5 286.4,87.8 287.7,89.2 289.0,90.6 290.3,91.9 291.6,93.3 292.9,94.7 294.2,96.0 295.5,97.4 296.9,98.8 298.2,100.1 299.5,101.5 300.8,102.8 302.1,104.2 303.4,105.6 304.7,106.9 306.1,108.3 307.4,109.7 308.7,111.0 310.0,112.4 311.3,113.8 312.6,115.1 313.9,116.5 315.3,117.9 316.6,119.2 317.9,120.6 319.2,122.0 320.5,123.3 321.8,124.7 323.1,126.0 324.5,127.4 325.8,128.8 327.1,130.1 328.4,131.5 329.7,132.9 331.0,134.2 332.3,135.6 333.6,137.0 335.0,138.3 336.3,139.7 337.6,141.1 338.9,142.4 340.2,143.8 341.5,145.2 342.8,146.5 344.2,147.9 345.5,149.2 346.8,150.6 348.1,152.0 349.4,153.3 350.7,154.7 352.0,156.1 353.4,157.4 354.7,158.8 356.0,160.2 357.3,161.5 358.6,162.9 359.9,164.3 361.2,165.6 362.5,167.0 363.9,168.4 365.2,169.7 366.5,171.1 367.8,172.4 369.1,173.8 370.4,175.2 371.7,176.5 373.1,177.9 374.4,179.3 375.7,180.6 377.0,182.0" fill="none" stroke="#4a90d9" stroke-width="1.5" stroke-linejoin="round"/>
  <line x1="450" y1="8.0" x2="785" y2="8.0" stroke="#e5e7eb" stroke-width="0.7"/>
  <text x="445" y="12.0" text-anchor="end" font-size="10" fill="#6b7280">0</text>
  <line x1="450" y1="66.0" x2="785" y2="66.0" stroke="#e5e7eb" stroke-width="0.7"/>
  <text x="445" y="70.0" text-anchor="end" font-size="10" fill="#6b7280">-40</text>
  <line x1="450" y1="124.0" x2="785" y2="124.0" stroke="#e5e7eb" stroke-width="0.7"/>
  <text x="445" y="128.0" text-anchor="end" font-size="10" fill="#6b7280">-80</text>
  <line x1="450" y1="182.0" x2="785" y2="182.0" stroke="#e5e7eb" stroke-width="0.7"/>
  <text x="445" y="186.0" text-anchor="end" font-size="10" fill="#6b7280">-120</text>
  <line x1="450.0" y1="8" x2="450.0" y2="182" stroke="#e5e7eb" stroke-width="0.7"/>
  <text x="450.0" y="198" text-anchor="middle" font-size="10" fill="#6b7280">0</text>
  <line x1="517.0" y1="8" x2="517.0" y2="182" stroke="#e5e7eb" stroke-width="0.7"/>
  <text x="517.0" y="198" text-anchor="middle" font-size="10" fill="#6b7280">0.1</text>
  <line x1="584.0" y1="8" x2="584.0" y2="182" stroke="#e5e7eb" stroke-width="0.7"/>
  <text x="584.0" y="198" text-anchor="middle" font-size="10" fill="#6b7280">0.2</text>
  <line x1="651.0" y1="8" x2="651.0" y2="182" stroke="#e5e7eb" stroke-width="0.7"/>
  <text x="651.0" y="198" text-anchor="middle" font-size="10" fill="#6b7280">0.3</text>
  <line x1="718.0" y1="8" x2="718.0" y2="182" stroke="#e5e7eb" stroke-width="0.7"/>
  <text x="718.0" y="198" text-anchor="middle" font-size="10" fill="#6b7280">0.4</text>
  <line x1="785.0" y1="8" x2="785.0" y2="182" stroke="#e5e7eb" stroke-width="0.7"/>
  <text x="785.0" y="198" text-anchor="middle" font-size="10" fill="#6b7280">0.5</text>
  <line x1="450" y1="8" x2="450" y2="182" stroke="#d1d5db" stroke-width="1"/>
  <line x1="450" y1="182" x2="785" y2="182" stroke="#d1d5db" stroke-width="1"/>
  <polyline points="450.0,8.0 450.2,8.0 450.3,8.2 450.5,8.4 450.7,8.6 450.8,9.0 451.0,9.5 451.1,10.0 451.3,10.6 451.5,11.3 451.6,12.2 451.8,13.1 452.0,14.1 452.1,15.2 452.3,16.4 452.5,17.8 452.6,19.3 452.8,20.9 452.9,22.7 453.1,24.7 453.3,26.8 453.4,29.2 453.6,31.8 453.8,34.7 453.9,38.0 454.1,41.7 454.3,45.9 454.4,50.9 454.6,56.9 454.7,64.5 454.9,74.9 455.1,91.7 455.2,182.0 455.4,99.8 455.6,81.2 455.7,71.3 455.9,64.8 456.1,60.0 456.2,56.4 456.4,53.7 456.5,51.5 456.7,49.8 456.9,48.5 457.0,47.6 457.2,46.9 457.4,46.6 457.5,46.5 457.7,46.6 457.9,47.0 458.0,47.5 458.2,48.4 458.3,49.4 458.5,50.8 458.7,52.3 458.8,54.2 459.0,56.4 459.2,59.0 459.3,62.1 459.5,65.7 459.7,70.1 459.8,75.4 460.0,82.3 460.1,91.9 460.3,107.3 460.5,182.0 460.6,122.0 460.8,99.8 461.0,88.9 461.1,81.6 461.3,76.4 461.5,72.3 461.6,69.1 461.8,66.6 461.9,64.6 462.1,63.0 462.3,61.8 462.4,60.8 462.6,60.2 462.8,59.8 462.9,59.7 463.1,59.8 463.3,60.2 463.4,60.8 463.6,61.6 463.7,62.7 463.9,64.1 464.1,65.8 464.2,67.8 464.4,70.1 464.6,73.0 464.7,76.4 464.9,80.5 465.1,85.6 465.2,92.1 465.4,101.2 465.5,115.7 465.7,182.0 465.9,141.0 466.0,112.1 466.2,100.0 466.4,92.2 466.5,86.6 466.7,82.3 466.9,78.9 467.0,76.2 467.2,74.0 467.3,72.3 467.5,70.9 467.7,69.8 467.8,69.1 468.0,68.6 468.2,68.3 468.3,68.3 468.5,68.5 468.7,69.0 468.8,69.7 469.0,70.7 469.1,72.0 469.3,73.5 469.5,75.4 469.6,77.7 469.8,80.4 470.0,83.6 470.1,87.6 470.3,92.5 470.5,98.8 470.6,107.4 470.8,121.3 470.9,182.0 471.1,182.0 471.3,122.0 471.4,108.5 471.6,100.2 471.8,94.3 471.9,89.7 472.1,86.2 472.3,83.3 472.4,81.0 472.6,79.2 472.7,77.7 472.9,76.5 473.1,75.6 473.2,75.1 473.4,74.7 473.6,74.6 473.7,74.8 473.9,75.2 474.1,75.9 474.2,76.8 474.4,77.9 474.5,79.4 474.7,81.2 474.9,83.3 475.0,86.0 475.2,89.1 475.4,92.9 475.5,97.7 475.7,103.8 475.9,112.1 476.0,125.5 476.2,182.0 476.3,152.9 476.5,131.2 476.7,115.7 476.8,106.7 477.0,100.5 477.2,95.7 477.3,92.0 477.5,89.0 477.7,86.6 477.8,84.6 478.0,83.1 478.1,81.8 478.3,80.9 478.5,80.3 478.6,79.9 478.8,79.7 479.0,79.8 479.1,80.2 479.3,80.7 479.5,81.6 479.6,82.7 479.8,84.1 479.9,85.8 480.1,87.9 480.3,90.4 480.4,93.5 480.6,97.2 480.8,101.8 480.9,107.7 481.1,115.9 481.3,128.8 481.4,182.0 481.6,148.9 481.7,141.0 481.9,122.1 482.1,112.4 482.2,105.7 482.4,100.8 482.6,96.9 482.7,93.8 482.9,91.3 483.1,89.2 483.2,87.6 483.4,86.3 483.5,85.3 483.7,84.6 483.9,84.1 484.0,83.9 484.2,84.0 484.4,84.3 484.5,84.8 484.7,85.6 484.9,86.6 485.0,88.0 485.2,89.6 485.3,91.7 485.5,94.1 485.7,97.1 485.8,100.7 486.0,105.2 486.2,111.0 486.3,118.9 486.5,131.4 486.7,182.0 486.8,147.7 487.0,153.9 487.1,128.2 487.3,117.5 487.5,110.4 487.6,105.2 487.8,101.2 488.0,97.9 488.1,95.3 488.3,93.2 488.5,91.5 488.6,90.1 488.8,89.1 488.9,88.3 489.1,87.8 489.3,87.6 489.4,87.6 489.6,87.8 489.8,88.3 489.9,89.0 490.1,90.0 490.3,91.3 490.4,92.9 490.6,94.9 490.7,97.3 490.9,100.2 491.1,103.7 491.2,108.1 491.4,113.8 491.6,121.5 491.7,133.7 491.9,182.0 492.1,147.5 492.2,182.0 492.4,134.4 492.6,122.2 492.7,114.6 492.9,109.2 493.0,105.0 493.2,101.6 493.4,98.9 493.5,96.7 493.7,94.9 493.9,93.5 494.0,92.4 494.2,91.6 494.4,91.0 494.5,90.7 494.7,90.7 494.8,90.9 495.0,91.3 495.2,92.0 495.3,93.0 495.5,94.2 495.7,95.8 495.8,97.7 496.0,100.0 496.2,102.9 496.3,106.3 496.5,110.6 496.6,116.2 496.8,123.7 497.0,135.7 497.1,182.0 497.3,147.6 497.5,158.6 497.6,141.0 497.8,126.8 498.0,118.6 498.1,112.8 498.3,108.4 498.4,104.9 498.6,102.1 498.8,99.8 498.9,98.0 499.1,96.5 499.3,95.3 499.4,94.5 499.6,93.9 499.8,93.6 499.9,93.5 500.1,93.6 500.2,94.0 500.4,94.7 500.6,95.6 500.7,96.8 500.9,98.3 501.1,100.2 501.2,102.5 501.4,105.2 501.6,108.6 501.7,112.8 501.9,118.3 502.0,125.7 502.2,137.4 502.4,182.0 502.5,147.9 502.7,152.8 502.9,148.9 503.0,131.3 503.2,122.3 503.4,116.2 503.5,111.6 503.7,108.0 503.8,105.1 504.0,102.7 504.2,100.8 504.3,99.2 504.5,98.0 504.7,97.1 504.8,96.5 505.0,96.1 505.2,96.0 505.3,96.1 505.5,96.5 505.6,97.1 505.8,98.0 506.0,99.1 506.1,100.6 506.3,102.4 506.5,104.7 506.6,107.4 506.8,110.7 507.0,114.8 507.1,120.1 507.3,127.4 507.4,138.9 507.6,182.0 507.8,148.3 507.9,150.2 508.1,160.5 508.3,136.0 508.4,126.0 508.6,119.4 508.8,114.6 508.9,110.8 509.1,107.8 509.2,105.3 509.4,103.3 509.6,101.7 509.7,100.5 509.9,99.5 510.1,98.8 510.2,98.4 510.4,98.3 510.6,98.3 510.7,98.7 510.9,99.3 511.0,100.1 511.2,101.2 511.4,102.7 511.5,104.4 511.7,106.6 511.9,109.3 512.0,112.5 512.2,116.6 512.4,121.8 512.5,128.9 512.7,140.3 512.8,182.0 513.0,148.8 513.2,148.7 513.3,182.0 513.5,141.0 513.7,129.6 513.8,122.5 514.0,117.4 514.2,113.4 514.3,110.3 514.5,107.8 514.6,105.7 514.8,104.1 515.0,102.7 515.1,101.7 515.3,101.0 515.5,100.6 515.6,100.4 515.8,100.4 516.0,100.7 516.1,101.2 516.3,102.1 516.4,103.1 516.6,104.5 516.8,106.3 516.9,108.4 517.1,111.0 517.3,114.2 517.4,118.2 517.6,123.3 517.8,130.3 517.9,141.5 518.1,182.0 518.2,149.3 518.4,147.9 518.6,162.2 518.7,146.6 518.9,133.2 519.1,125.5 519.2,120.1 519.4,116.0 519.6,112.7 519.7,110.1 519.9,107.9 520.0,106.2 520.2,104.8 520.4,103.8 520.5,103.0 520.7,102.5 520.9,102.3 521.0,102.3 521.2,102.6 521.4,103.1 521.5,103.8 521.7,104.9 521.8,106.3 522.0,108.0 522.2,110.0 522.3,112.6 522.5,115.7 522.7,119.7 522.8,124.7 523.0,131.6 523.2,142.6 523.3,182.0 523.5,149.8 523.6,147.4 523.8,155.8 524.0,153.8 524.1,137.0 524.3,128.5 524.5,122.7 524.6,118.4 524.8,115.0 525.0,112.2 525.1,110.0 525.3,108.2 525.4,106.8 525.6,105.7 525.8,104.9 525.9,104.4 526.1,104.1 526.3,104.1 526.4,104.3 526.6,104.8 526.8,105.5 526.9,106.5 527.1,107.8 527.2,109.5 527.4,111.5 527.6,114.1 527.7,117.1 527.9,121.0 528.1,126.0 528.2,132.8 528.4,143.7 528.6,182.0 528.7,150.3 528.9,147.2 529.0,152.6 529.2,165.0 529.4,140.9 529.5,131.5 529.7,125.3 529.9,120.7 530.0,117.1 530.2,114.3 530.4,112.0 530.5,110.1 530.7,108.7 530.8,107.5 531.0,106.7 531.2,106.1 531.3,105.8 531.5,105.7 531.7,105.9 531.8,106.4 532.0,107.1 532.2,108.0 532.3,109.3 532.5,110.9 532.6,112.9 532.8,115.4 533.0,118.4 533.1,122.2 533.3,127.1 533.5,133.8 533.6,144.6 533.8,182.0 534.0,150.8 534.1,147.1 534.3,150.6 534.4,182.0 534.6,145.4 534.8,134.5 534.9,127.8 535.1,122.9 535.3,119.2 535.4,116.3 535.6,113.9 535.8,112.0 535.9,110.4 536.1,109.2 536.2,108.3 536.4,107.7 536.6,107.4 536.7,107.3 536.9,107.4 537.1,107.8 537.2,108.5 537.4,109.5 537.6,110.7 537.7,112.3 537.9,114.2 538.0,116.7 538.2,119.7 538.4,123.4 538.5,128.2 538.7,134.8 538.9,145.5 539.0,182.0 539.2,151.2 539.4,147.1 539.5,149.3 539.7,164.8 539.8,150.6 540.0,137.6 540.2,130.3 540.3,125.2 540.5,121.2 540.7,118.2 540.8,115.7 541.0,113.7 541.2,112.1 541.3,110.8 541.5,109.9 541.6,109.3 541.8,108.9 542.0,108.7 542.1,108.9 542.3,109.2 542.5,109.9 542.6,110.8 542.8,112.0 543.0,113.5 543.1,115.5 543.3,117.8 543.4,120.8 543.6,124.5 543.8,129.2 543.9,135.8 544.1,146.3 544.3,182.0 544.4,151.7 544.6,147.1 544.8,148.4 544.9,158.2 545.1,157.4 545.2,140.9 545.4,132.8 545.6,127.3 545.7,123.2 545.9,120.0 546.1,117.4 546.2,115.3 546.4,113.7 546.6,112.4 546.7,111.4 546.9,110.7 547.0,110.3 547.2,110.1 547.4,110.2 547.5,110.5 547.7,111.1 547.9,112.0 548.0,113.2 548.2,114.7 548.4,116.6 548.5,118.9 548.7,121.8 548.8,125.5 549.0,130.2 549.2,136.6 549.3,147.1 549.5,182.0 549.7,152.1 549.8,147.2 550.0,147.8 550.2,154.6 550.3,168.5 550.5,144.5 550.6,135.4 550.8,129.5 551.0,125.1 551.1,121.8 551.3,119.1 551.5,116.9 551.6,115.2 551.8,113.9 552.0,112.8 552.1,112.1 552.3,111.6 552.4,111.4 552.6,111.5 552.8,111.8 552.9,112.4 553.1,113.2 553.3,114.4 553.4,115.8 553.6,117.7 553.8,120.0 553.9,122.8 554.1,126.4 554.2,131.0 554.4,137.4 554.6,147.8 554.7,182.0 554.9,152.5 555.1,147.3 555.2,147.3 555.4,152.3 555.6,182.0 555.7,148.6 555.9,138.1 556.0,131.7 556.2,127.1 556.4,123.5 556.5,120.7 556.7,118.5 556.9,116.7 557.0,115.3 557.2,114.2 557.4,113.4 557.5,112.9 557.7,112.7 557.8,112.7 558.0,113.0 558.2,113.5 558.3,114.3 558.5,115.4 558.7,116.9 558.8,118.7 559.0,120.9 559.2,123.8 559.3,127.3 559.5,131.9 559.6,138.2 559.8,148.5 560.0,182.0 560.1,152.9 560.3,147.5 560.5,147.0 560.6,150.7 560.8,166.8 561.0,153.6 561.1,140.9 561.3,133.9 561.4,128.9 561.6,125.2 561.8,122.3 561.9,120.0 562.1,118.1 562.3,116.6 562.4,115.5 562.6,114.7 562.8,114.1 562.9,113.9 563.1,113.8 563.2,114.1 563.4,114.6 563.6,115.4 563.7,116.5 563.9,117.9 564.1,119.6 564.2,121.9 564.4,124.6 564.6,128.1 564.7,132.6 564.9,138.9 565.0,149.1 565.2,182.0 565.4,153.3 565.5,147.7 565.7,146.7 565.9,149.5 566.0,160.0 566.2,160.2 566.4,144.0 566.5,136.1 566.7,130.8 566.8,126.9 567.0,123.9 567.2,121.4 567.3,119.5 567.5,118.0 567.7,116.8 567.8,115.9 568.0,115.3 568.2,115.0 568.3,114.9 568.5,115.2 568.6,115.6 568.8,116.4 569.0,117.4 569.1,118.8 569.3,120.6 569.5,122.7 569.6,125.5 569.8,128.9 570.0,133.4 570.1,139.6 570.3,149.7 570.4,182.0 570.6,153.7 570.8,147.8 570.9,146.6 571.1,148.6 571.3,156.2 571.4,171.3 571.6,147.3 571.8,138.4 571.9,132.7 572.1,128.6 572.2,125.4 572.4,122.8 572.6,120.8 572.7,119.2 572.9,118.0 573.1,117.1 573.2,116.4 573.4,116.1 573.6,116.0 573.7,116.2 573.9,116.6 574.0,117.3 574.2,118.4 574.4,119.7 574.5,121.4 574.7,123.6 574.9,126.2 575.0,129.6 575.2,134.1 575.4,140.2 575.5,150.3 575.7,182.0 575.9,154.0 576.0,148.0 576.2,146.5 576.3,147.9 576.5,153.7 576.7,182.0 576.8,151.2 577.0,140.9 577.2,134.7 577.3,130.3 577.5,126.9 577.7,124.2 577.8,122.1 578.0,120.5 578.1,119.2 578.3,118.2 578.5,117.5 578.6,117.1 578.8,117.0 579.0,117.2 579.1,117.6 579.3,118.3 579.5,119.3 579.6,120.6 579.8,122.2 579.9,124.3 580.1,127.0 580.3,130.4 580.4,134.7 580.6,140.8 580.8,150.8 580.9,182.0 581.1,154.4 581.3,148.2 581.4,146.4 581.6,147.4 581.7,151.9 581.9,168.3 582.1,156.0 582.2,143.5 582.4,136.7 582.6,131.9 582.7,128.4 582.9,125.6 583.1,123.4 583.2,121.7 583.4,120.3 583.5,119.3 583.7,118.6 583.9,118.2 584.0,118.0 584.2,118.1 584.4,118.5 584.5,119.1 584.7,120.1 584.9,121.4 585.0,123.0 585.2,125.1 585.3,127.7 585.5,131.0 585.7,135.4 585.8,141.4 586.0,151.3 586.2,182.0 586.3,154.7 586.5,148.4 586.7,146.3 586.8,146.9 587.0,150.5 587.1,161.5 587.3,162.4 587.5,146.3 587.6,138.7 587.8,133.6 588.0,129.9 588.1,127.0 588.3,124.7 588.5,122.8 588.6,121.4 588.8,120.4 588.9,119.6 589.1,119.1 589.3,118.9 589.4,119.0 589.6,119.4 589.8,120.0 589.9,120.9 590.1,122.2 590.3,123.8 590.4,125.8 590.6,128.4 590.7,131.7 590.9,135.9 591.1,141.9 591.2,151.8 591.4,182.0 591.6,155.0 591.7,148.5 591.9,146.3 592.1,146.6 592.2,149.4 592.4,157.5 592.5,173.6 592.7,149.5 592.9,140.9 593.0,135.4 593.2,131.4 593.4,128.3 593.5,125.9 593.7,124.0 593.9,122.5 594.0,121.4 594.2,120.6 594.3,120.1 594.5,119.8 594.7,119.9 594.8,120.2 595.0,120.8 595.2,121.7 595.3,122.9 595.5,124.5 595.7,126.5 595.8,129.0 596.0,132.3 596.1,136.5 596.3,142.5 596.5,152.3 596.6,182.0 596.8,155.3 597.0,148.7 597.1,146.3 597.3,146.3 597.5,148.6 597.6,154.9 597.8,182.0 597.9,153.3 598.1,143.1 598.3,137.1 598.4,132.9 598.6,129.6 598.8,127.1 598.9,125.1 599.1,123.6 599.3,122.4 599.4,121.5 599.6,121.0 599.7,120.7 599.9,120.7 600.1,121.0 600.2,121.6 600.4,122.4 600.6,123.6 600.7,125.2 600.9,127.1 601.1,129.6 601.2,132.8 601.4,137.0 601.5,142.9 601.7,152.7 601.9,182.0 602.0,155.6 602.2,148.9 602.4,146.3 602.5,146.1 602.7,147.9 602.9,152.9 603.0,169.5 603.2,157.9 603.3,145.6 603.5,138.9 603.7,134.4 603.8,131.0 604.0,128.3 604.2,126.2 604.3,124.6 604.5,123.4 604.7,122.5 604.8,121.9 605.0,121.6 605.1,121.5 605.3,121.8 605.5,122.3 605.6,123.2 605.8,124.3 606.0,125.8 606.1,127.8 606.3,130.2 606.5,133.4 606.6,137.6 606.8,143.4 606.9,153.1 607.1,182.0 607.3,155.9 607.4,149.1 607.6,146.4 607.8,145.9 607.9,147.3 608.1,151.4 608.3,162.6 608.4,164.3 608.6,148.3 608.7,140.8 608.9,135.9 609.1,132.3 609.2,129.5 609.4,127.3 609.6,125.6 609.7,124.3 609.9,123.4 610.1,122.8 610.2,122.4 610.4,122.3 610.5,122.5 610.7,123.0 610.9,123.8 611.0,125.0 611.2,126.4 611.4,128.4 611.5,130.8 611.7,133.9 611.9,138.0 612.0,143.8 612.2,153.5 612.3,182.0 612.5,156.1 612.7,149.2 612.8,146.4 613.0,145.7 613.2,146.8 613.3,150.2 613.5,158.6 613.7,175.6 613.8,151.4 614.0,142.8 614.1,137.5 614.3,133.6 614.5,130.7 614.6,128.4 614.8,126.7 615.0,125.3 615.1,124.3 615.3,123.6 615.5,123.2 615.6,123.1 615.8,123.3 615.9,123.7 616.1,124.5 616.3,125.6 616.4,127.1 616.6,128.9 616.8,131.3 616.9,134.4 617.1,138.5 617.3,144.3 617.4,153.9 617.6,182.0 617.7,156.4 617.9,149.4 618.1,146.4 618.2,145.6 618.4,146.4 618.6,149.2 618.7,155.8 618.9,182.0 619.1,155.0 619.2,145.0 619.4,139.1 619.5,135.0 619.7,131.9 619.9,129.5 620.0,127.6 620.2,126.2 620.4,125.2 620.5,124.4 620.7,124.0 620.9,123.8 621.0,124.0 621.2,124.4 621.3,125.2 621.5,126.2 621.7,127.6 621.8,129.5 622.0,131.9 622.2,134.9 622.3,139.0 622.5,144.7 622.7,154.2 622.8,182.0 623.0,156.6 623.1,149.5 623.3,146.5 623.5,145.5 623.6,146.0 623.8,148.4 624.0,153.8 624.1,170.4 624.3,159.5 624.5,147.3 624.6,140.8 624.8,136.4 624.9,133.1 625.1,130.6 625.3,128.6 625.4,127.1 625.6,126.0 625.8,125.2 625.9,124.8 626.1,124.6 626.3,124.7 626.4,125.1 626.6,125.8 626.7,126.8 626.9,128.2 627.1,130.0 627.2,132.3 627.4,135.4 627.6,139.4 627.7,145.1 627.9,154.6 628.1,182.0 628.2,156.8 628.4,149.7 628.5,146.5 628.7,145.4 628.9,145.7 629.0,147.7 629.2,152.1 629.4,163.6 629.5,165.8 629.7,149.9 629.9,142.6 630.0,137.8 630.2,134.3 630.3,131.7 630.5,129.6 630.7,128.0 630.8,126.8 631.0,126.0 631.2,125.5 631.3,125.3 631.5,125.3 631.7,125.7 631.8,126.4 632.0,127.4 632.1,128.7 632.3,130.5 632.5,132.8 632.6,135.8 632.8,139.8 633.0,145.4 633.1,154.9 633.3,182.0 633.5,157.1 633.6,149.8 633.8,146.6 633.9,145.3 634.1,145.4 634.3,147.1 634.4,150.8 634.6,159.5 634.8,177.4 634.9,152.9 635.1,144.5 635.3,139.3 635.4,135.5 635.6,132.7 635.7,130.6 635.9,128.9 636.1,127.7 636.2,126.8 636.4,126.2 636.6,126.0 636.7,126.0 636.9,126.3 637.1,127.0 637.2,127.9 637.4,129.3 637.5,131.0 637.7,133.3 637.9,136.2 638.0,140.2 638.2,145.8 638.4,155.2 638.5,182.0 638.7,157.3 638.9,150.0 639.0,146.6 639.2,145.2 639.3,145.2 639.5,146.5 639.7,149.7 639.8,156.6 640.0,182.0 640.2,156.4 640.3,146.5 640.5,140.8 640.7,136.8 640.8,133.8 641.0,131.6 641.1,129.8 641.3,128.5 641.5,127.5 641.6,126.9 641.8,126.6 642.0,126.6 642.1,126.9 642.3,127.5 642.5,128.5 642.6,129.8 642.8,131.5 642.9,133.7 643.1,136.6 643.3,140.5 643.4,146.1 643.6,155.5 643.8,182.0 643.9,157.5 644.1,150.1 644.3,146.7 644.4,145.1 644.6,144.9 644.7,146.0 644.9,148.8 645.1,154.5 645.2,171.1 645.4,160.9 645.6,148.8 645.7,142.4 645.9,138.1 646.1,134.9 646.2,132.5 646.4,130.7 646.5,129.3 646.7,128.3 646.9,127.6 647.0,127.3 647.2,127.2 647.4,127.5 647.5,128.1 647.7,129.0 647.9,130.2 648.0,131.9 648.2,134.1 648.3,137.0 648.5,140.9 648.7,146.4 648.8,155.8 649.0,182.0 649.2,157.6 649.3,150.2 649.5,146.7 649.7,145.1 649.8,144.7 650.0,145.6 650.1,148.0 650.3,152.7 650.5,164.3 650.6,167.2 650.8,151.2 651.0,144.1 651.1,139.4 651.3,136.0 651.5,133.5 651.6,131.6 651.8,130.1 651.9,129.0 652.1,128.3 652.3,127.9 652.4,127.8 652.6,128.1 652.8,128.6 652.9,129.5 653.1,130.7 653.3,132.4 653.4,134.6 653.6,137.4 653.7,141.2 653.9,146.7 654.1,156.0 654.2,182.0 654.4,157.8 654.6,150.3 654.7,146.7 654.9,145.0 655.1,144.6 655.2,145.3 655.4,147.3 655.5,151.3 655.7,160.2 655.9,178.9 656.0,154.1 656.2,145.9 656.4,140.8 656.5,137.2 656.7,134.5 656.9,132.4 657.0,130.9 657.2,129.8 657.3,129.0 657.5,128.6 657.7,128.4 657.8,128.6 658.0,129.1 658.2,130.0 658.3,131.2 658.5,132.8 658.7,134.9 658.8,137.8 659.0,141.6 659.1,147.0 659.3,156.3 659.5,182.0 659.6,158.0 659.8,150.4 660.0,146.8 660.1,145.0 660.3,144.4 660.5,144.9 660.6,146.6 660.8,150.1 661.0,157.2 661.1,182.0 661.3,157.6 661.4,147.8 661.6,142.2 661.8,138.3 661.9,135.5 662.1,133.3 662.3,131.7 662.4,130.5 662.6,129.7 662.8,129.2 662.9,129.0 663.1,129.2 663.2,129.6 663.4,130.4 663.6,131.6 663.7,133.2 663.9,135.3 664.1,138.1 664.2,141.9 664.4,147.3 664.6,156.5 664.7,182.0 664.9,158.1 665.0,150.5 665.2,146.8 665.4,144.9 665.5,144.2 665.7,144.6 665.9,146.1 666.0,149.1 666.2,155.0 666.4,171.6 666.5,162.0 666.7,149.9 666.8,143.7 667.0,139.5 667.2,136.5 667.3,134.2 667.5,132.5 667.7,131.2 667.8,130.3 668.0,129.8 668.2,129.6 668.3,129.7 668.5,130.1 668.6,130.9 668.8,132.0 669.0,133.6 669.1,135.7 669.3,138.4 669.5,142.2 669.6,147.6 669.8,156.8 670.0,182.0 670.1,158.3 670.3,150.6 670.4,146.8 670.6,144.9 670.8,144.1 670.9,144.3 671.1,145.6 671.3,148.2 671.4,153.2 671.6,164.8 671.8,168.3 671.9,152.4 672.1,145.3 672.2,140.7 672.4,137.5 672.6,135.1 672.7,133.3 672.9,131.9 673.1,131.0 673.2,130.4 673.4,130.1 673.6,130.2 673.7,130.6 673.9,131.3 674.0,132.4 674.2,134.0 674.4,136.0 674.5,138.8 674.7,142.5 674.9,147.8 675.0,157.0 675.2,182.0 675.4,158.4 675.5,150.7 675.7,146.9 675.8,144.8 676.0,143.9 676.2,144.0 676.3,145.1 676.5,147.4 676.7,151.7 676.8,160.7 677.0,180.3 677.2,155.2 677.3,147.0 677.5,142.0 677.6,138.5 677.8,136.0 678.0,134.0 678.1,132.6 678.3,131.6 678.5,131.0 678.6,130.7 678.8,130.7 679.0,131.1 679.1,131.8 679.3,132.8 679.4,134.3 679.6,136.4 679.8,139.1 679.9,142.8 680.1,148.1 680.3,157.2 680.4,182.0 680.6,158.5 680.8,150.8 680.9,146.9 681.1,144.8 681.2,143.8 681.4,143.8 681.6,144.7 681.7,146.7 681.9,150.4 682.1,157.7 682.2,182.0 682.4,158.6 682.6,148.9 682.7,143.4 682.9,139.6 683.0,136.9 683.2,134.8 683.4,133.3 683.5,132.3 683.7,131.6 683.9,131.2 684.0,131.2 684.2,131.5 684.4,132.2 684.5,133.2 684.7,134.7 684.8,136.7 685.0,139.4 685.2,143.0 685.3,148.3 685.5,157.4 685.7,182.0 685.8,158.7 686.0,150.9 686.2,146.9 686.3,144.7 686.5,143.7 686.6,143.5 686.8,144.3 687.0,146.1 687.1,149.3 687.3,155.4 687.5,171.9 687.6,162.9 687.8,150.9 688.0,144.8 688.1,140.7 688.3,137.8 688.4,135.6 688.6,134.0 688.8,132.9 688.9,132.1 689.1,131.7 689.3,131.7 689.4,132.0 689.6,132.6 689.8,133.6 689.9,135.1 690.1,137.0 690.2,139.7 690.4,143.3 690.6,148.5 690.7,157.6 690.9,182.0 691.1,158.8 691.2,150.9 691.4,146.9 691.6,144.7 691.7,143.6 691.9,143.3 692.0,143.9 692.2,145.5 692.4,148.4 692.5,153.5 692.7,165.2 692.9,169.3 693.0,153.3 693.2,146.3 693.4,141.9 693.5,138.8 693.7,136.4 693.8,134.7 694.0,133.5 694.2,132.7 694.3,132.3 694.5,132.2 694.7,132.4 694.8,133.0 695.0,134.0 695.2,135.4 695.3,137.3 695.5,139.9 695.6,143.5 695.8,148.7 696.0,157.8 696.1,182.0 696.3,158.9 696.5,151.0 696.6,146.9 696.8,144.6 697.0,143.4 697.1,143.1 697.3,143.6 697.4,145.0 697.6,147.5 697.8,152.0 697.9,161.0 698.1,181.6 698.3,156.0 698.4,148.0 698.6,143.1 698.8,139.7 698.9,137.3 699.1,135.5 699.2,134.2 699.4,133.3 699.6,132.8 699.7,132.6 699.9,132.8 700.1,133.4 700.2,134.3 700.4,135.7 700.6,137.6 700.7,140.2 700.9,143.7 701.0,148.9 701.2,157.9 701.4,182.0 701.5,159.0 701.7,151.0 701.9,146.9 702.0,144.6 702.2,143.3 702.4,142.9 702.5,143.3 702.7,144.5 702.8,146.7 703.0,150.6 703.2,158.0 703.3,182.0 703.5,159.4 703.7,149.8 703.8,144.4 704.0,140.7 704.2,138.1 704.3,136.2 704.5,134.8 704.6,133.8 704.8,133.3 705.0,133.1 705.1,133.3 705.3,133.8 705.5,134.7 705.6,136.0 705.8,137.9 706.0,140.4 706.1,144.0 706.3,149.1 706.4,158.1 706.6,182.0 706.8,159.0 706.9,151.1 707.1,146.9 707.3,144.5 707.4,143.2 707.6,142.7 707.8,142.9 707.9,144.0 708.1,146.0 708.2,149.5 708.4,155.7 708.6,172.1 708.7,163.7 708.9,151.8 709.1,145.7 709.2,141.8 709.4,139.0 709.6,136.9 709.7,135.4 709.9,134.4 710.0,133.8 710.2,133.5 710.4,133.7 710.5,134.1 710.7,135.0 710.9,136.3 711.0,138.2 711.2,140.7 711.4,144.2 711.5,149.3 711.7,158.2 711.8,182.0 712.0,159.1 712.2,151.1 712.3,146.9 712.5,144.5 712.7,143.1 712.8,142.5 713.0,142.6 713.2,143.6 713.3,145.4 713.5,148.4 713.6,153.7 713.8,165.5 714.0,170.1 714.1,154.1 714.3,147.2 714.5,142.9 714.6,139.8 714.8,137.6 715.0,136.1 715.1,135.0 715.3,134.3 715.4,134.0 715.6,134.1 715.8,134.5 715.9,135.3 716.1,136.6 716.3,138.4 716.4,140.9 716.6,144.4 716.8,149.5 716.9,158.4 717.1,182.0 717.2,159.2 717.4,151.2 717.6,146.9 717.7,144.4 717.9,142.9 718.1,142.3 718.2,142.4 718.4,143.1 718.6,144.8 718.7,147.5 718.9,152.1 719.0,161.3 719.2,182.0 719.4,156.7 719.5,148.8 719.7,144.0 719.9,140.7 720.0,138.4 720.2,136.7 720.4,135.5 720.5,134.8 720.7,134.4 720.8,134.5 721.0,134.9 721.2,135.7 721.3,136.9 721.5,138.7 721.7,141.1 721.8,144.6 722.0,149.6 722.2,158.5 722.3,182.0 722.5,159.3 722.6,151.2 722.8,146.9 723.0,144.3 723.1,142.8 723.3,142.1 723.5,142.1 723.6,142.8 723.8,144.2 724.0,146.7 724.1,150.7 724.3,158.2 724.4,182.0 724.6,160.0 724.8,150.5 724.9,145.2 725.1,141.7 725.3,139.2 725.4,137.4 725.6,136.1 725.8,135.3 725.9,134.9 726.1,134.9 726.2,135.2 726.4,136.0 726.6,137.2 726.7,138.9 726.9,141.4 727.1,144.8 727.2,149.8 727.4,158.6 727.6,182.0 727.7,159.3 727.9,151.2 728.0,146.9 728.2,144.3 728.4,142.7 728.5,141.9 728.7,141.8 728.9,142.4 729.0,143.7 729.2,145.9 729.4,149.5 729.5,155.8 729.7,172.2 729.8,164.4 730.0,152.4 730.2,146.5 730.3,142.6 730.5,139.9 730.7,138.0 730.8,136.7 731.0,135.8 731.2,135.3 731.3,135.2 731.5,135.6 731.6,136.3 731.8,137.5 732.0,139.2 732.1,141.6 732.3,144.9 732.5,149.9 732.6,158.7 732.8,182.0 733.0,159.4 733.1,151.2 733.3,146.9 733.4,144.2 733.6,142.6 733.8,141.7 733.9,141.6 734.1,142.0 734.3,143.2 734.4,145.2 734.6,148.4 734.8,153.8 734.9,165.6 735.1,170.7 735.2,154.7 735.4,147.9 735.6,143.7 735.7,140.8 735.9,138.7 736.1,137.2 736.2,136.3 736.4,135.8 736.6,135.6 736.7,135.9 736.9,136.6 737.0,137.7 737.2,139.4 737.4,141.8 737.5,145.1 737.7,150.1 737.9,158.8 738.0,182.0 738.2,159.4 738.4,151.2 738.5,146.8 738.7,144.1 738.8,142.5 739.0,141.5 739.2,141.3 739.3,141.7 739.5,142.7 739.7,144.5 739.8,147.4 740.0,152.1 740.2,161.4 740.3,182.0 740.5,157.3 740.6,149.4 740.8,144.7 741.0,141.6 741.1,139.4 741.3,137.8 741.5,136.8 741.6,136.2 741.8,136.0 742.0,136.2 742.1,136.9 742.3,138.0 742.4,139.6 742.6,141.9 742.8,145.3 742.9,150.2 743.1,158.9 743.3,182.0 743.4,159.4 743.6,151.2 743.8,146.8 743.9,144.0 744.1,142.3 744.3,141.4 744.4,141.0 744.6,141.3 744.7,142.2 744.9,143.9 745.1,146.5 745.2,150.7 745.4,158.3 745.6,182.0 745.7,160.6 745.9,151.1 746.1,145.9 746.2,142.5 746.4,140.1 746.5,138.4 746.7,137.3 746.9,136.6 747.0,136.4 747.2,136.6 747.4,137.2 747.5,138.2 747.7,139.8 747.9,142.1 748.0,145.4 748.2,150.3 748.3,159.0 748.5,182.0 748.7,159.5 748.8,151.2 749.0,146.7 749.2,144.0 749.3,142.2 749.5,141.2 749.7,140.8 749.8,141.0 750.0,141.8 750.1,143.3 750.3,145.6 750.5,149.4 750.6,155.8 750.8,172.2 751.0,164.9 751.1,153.0 751.3,147.1 751.5,143.4 751.6,140.8 751.8,139.0 751.9,137.8 752.1,137.0 752.3,136.8 752.4,136.9 752.6,137.4 752.8,138.5 752.9,140.0 753.1,142.3 753.3,145.5 753.4,150.4 753.6,159.1 753.7,182.0 753.9,159.5 754.1,151.2 754.2,146.7 754.4,143.9 754.6,142.1 754.7,141.0 754.9,140.5 755.1,140.7 755.2,141.3 755.4,142.7 755.5,144.9 755.7,148.2 755.9,153.8 756.0,165.6 756.2,171.3 756.4,155.1 756.5,148.4 756.7,144.3 756.9,141.5 757.0,139.6 757.2,138.3 757.3,137.5 757.5,137.1 757.7,137.2 757.8,137.7 758.0,138.7 758.2,140.2 758.3,142.5 758.5,145.7 758.7,150.5 758.8,159.2 759.0,182.0 759.1,159.5 759.3,151.2 759.5,146.6 759.6,143.8 759.8,141.9 760.0,140.8 760.1,140.3 760.3,140.3 760.5,140.9 760.6,142.2 760.8,144.1 760.9,147.2 761.1,152.1 761.3,161.4 761.4,182.0 761.6,157.7 761.8,149.9 761.9,145.4 762.1,142.3 762.3,140.2 762.4,138.8 762.6,137.9 762.7,137.5 762.9,137.5 763.1,138.0 763.2,138.9 763.4,140.4 763.6,142.6 763.7,145.8 763.9,150.6 764.1,159.2 764.2,182.0 764.4,159.5 764.5,151.1 764.7,146.6 764.9,143.7 765.0,141.8 765.2,140.6 765.4,140.0 765.5,140.0 765.7,140.5 765.9,141.6 766.0,143.4 766.2,146.2 766.3,150.5 766.5,158.2 766.7,182.0 766.8,161.0 767.0,151.5 767.2,146.4 767.3,143.1 767.5,140.9 767.7,139.3 767.8,138.4 768.0,137.9 768.1,137.8 768.3,138.3 768.5,139.2 768.6,140.6 768.8,142.8 769.0,145.9 769.1,150.7 769.3,159.3 769.5,182.0 769.6,159.5 769.8,151.1 769.9,146.5 770.1,143.6 770.3,141.6 770.4,140.4 770.6,139.8 770.8,139.7 770.9,140.1 771.1,141.1 771.3,142.8 771.4,145.3 771.6,149.2 771.7,155.7 771.9,172.0 772.1,165.2 772.2,153.4 772.4,147.6 772.6,144.0 772.7,141.5 772.9,139.9 773.1,138.8 773.2,138.2 773.4,138.2 773.5,138.5 773.7,139.4 773.9,140.8 774.0,142.9 774.2,146.0 774.4,150.8 774.5,159.4 774.7,182.0 774.9,159.5 775.0,151.1 775.2,146.4 775.3,143.4 775.5,141.5 775.7,140.2 775.8,139.5 776.0,139.4 776.2,139.7 776.3,140.6 776.5,142.2 776.7,144.5 776.8,148.0 777.0,153.6 777.1,165.5 777.3,171.7 777.5,155.5 777.6,148.9 777.8,144.9 778.0,142.2 778.1,140.4 778.3,139.2 778.5,138.6 778.6,138.5 778.8,138.8 778.9,139.6 779.1,141.0 779.3,143.1 779.4,146.1 779.6,150.9 779.8,159.4 779.9,182.0 780.1,159.5 780.3,151.0 780.4,146.3 780.6,143.3 780.7,141.3 780.9,140.0 781.1,139.3 781.2,139.1 781.4,139.4 781.6,140.2 781.7,141.6 781.9,143.7 782.1,146.9 782.2,151.9 782.4,161.2 782.5,182.0 782.7,158.0 782.9,150.3 783.0,145.8 783.2,142.9 783.4,141.0 783.5,139.7 783.7,139.0 783.9,138.8 784.0,139.0 784.2,139.8 784.3,141.1 784.5,143.2 784.7,146.2 784.8,150.9 785.0,159.4" fill="none" stroke="#4a90d9" stroke-width="1.5" stroke-linejoin="round"/>
  <text x="209.5" y="214" text-anchor="middle" font-size="11" fill="#6b7280">n / N</text>
  <text x="617.5" y="214" text-anchor="middle" font-size="11" fill="#6b7280">Normalized frequency (× Fₛ)</text>
</svg>
