<svg xmlns="http://www.w3.org/2000/svg" viewBox="0 0 800 230" style="font-family:system-ui,-apple-system,sans-serif">
  <line x1="42" y1="182.0" x2="377" y2="182.0" stroke="#e5e7eb" stroke-width="0.7"/>
  <text x="37" y="186.0" text-anchor="end" font-size="10" fill="#6b7280">0</text>
  <line x1="42" y1="95.0" x2="377" y2="95.0" stroke="#e5e7eb" stroke-width="0.7"/>
  <text x="37" y="99.0" text-anchor="end" font-size="10" fill="#6b7280">0.5</text>
  <line x1="42" y1="8.0" x2="377" y2="8.0" stroke="#e5e7eb" stroke-width="0.7"/>
  <text x="37" y="12.0" text-anchor="end" font-size="10" fill="#6b7280">1</text>
  <line x1="42.0" y1="8" x2="42.0" y2="182" stroke="#e5e7eb" stroke-width="0.7"/>
  <text x="42.0" y="198" text-anchor="middle" font-size="10" fill="#6b7280">0</text>
  <line x1="209.5" y1="8" x2="209.5" y2="182" stroke="#e5e7eb" stroke-width="0.7"/>
  <text x="209.5" y="198" text-anchor="middle" font-size="10" fill="#6b7280">0.5</text>
  <line x1="377.0" y1="8" x2="377.0" y2="182" stroke="#e5e7eb" stroke-width="0.7"/>
  <text x="377.0" y="198" text-anchor="middle" font-size="10" fill="#6b7280">1</text>
  <line x1="42" y1="8" x2="42" y2="182" stroke="#d1d5db" stroke-width="1"/>
  <line x1="42" y1="182" x2="377" y2="182" stroke="#d1d5db" stroke-width="1"/>
  <path d="M42.0,182.0 42.0,181.9 43.3,181.9 44.6,181.9 45.9,181.9 47.3,181.9 48.6,181.9 49.9,181.9 51.2,181.8 52.5,181.8 53.8,181.8 55.1,181.7 56.5,181.7 57.8,181.6 59.1,181.5 60.4,181.5 61.7,181.4 63.0,181.3 64.3,181.2 65.6,181.0 67.0,180.9 68.3,180.8 69.6,180.6 70.9,180.4 72.2,180.2 73.5,180.0 74.8,179.8 76.2,179.6 77.5,179.3 78.8,179.0 80.1,178.7 81.4,178.3 82.7,178.0 84.0,177.6 85.4,177.1 86.7,176.7 88.0,176.2 89.3,175.7 90.6,175.1 91.9,174.5 93.2,173.9 94.5,173.2 95.9,172.5 97.2,171.7 98.5,170.9 99.8,170.1 101.1,169.2 102.4,168.2 103.7,167.2 105.1,166.2 106.4,165.1 107.7,164.0 109.0,162.8 110.3,161.5 111.6,160.2 112.9,158.8 114.3,157.4 115.6,155.9 116.9,154.4 118.2,152.8 119.5,151.2 120.8,149.4 122.1,147.7 123.5,145.8 124.8,144.0 126.1,142.0 127.4,140.0 128.7,137.9 130.0,135.8 131.3,133.7 132.6,131.4 134.0,129.2 135.3,126.8 136.6,124.4 137.9,122.0 139.2,119.5 140.5,117.0 141.8,114.5 143.2,111.9 144.5,109.2 145.8,106.5 147.1,103.8 148.4,101.1 149.7,98.3 151.0,95.5 152.4,92.7 153.7,89.9 155.0,87.1 156.3,84.2 157.6,81.4 158.9,78.5 160.2,75.7 161.5,72.8 162.9,70.0 164.2,67.2 165.5,64.4 166.8,61.6 168.1,58.8 169.4,56.1 170.7,53.4 172.1,50.8 173.4,48.2 174.7,45.6 176.0,43.1 177.3,40.7 178.6,38.3 179.9,35.9 181.3,33.7 182.6,31.5 183.9,29.4 185.2,27.4 186.5,25.4 187.8,23.6 189.1,21.8 190.5,20.2 191.8,18.6 193.1,17.1 194.4,15.7 195.7,14.5 197.0,13.3 198.3,12.3 199.6,11.3 201.0,10.5 202.3,9.8 203.6,9.2 204.9,8.7 206.2,8.4 207.5,8.1 208.8,8.0 210.2,8.0 211.5,8.1 212.8,8.4 214.1,8.7 215.4,9.2 216.7,9.8 218.0,10.5 219.4,11.3 220.7,12.3 222.0,13.3 223.3,14.5 224.6,15.7 225.9,17.1 227.2,18.6 228.5,20.2 229.9,21.8 231.2,23.6 232.5,25.4 233.8,27.4 235.1,29.4 236.4,31.5 237.7,33.7 239.1,35.9 240.4,38.3 241.7,40.7 243.0,43.1 244.3,45.6 245.6,48.2 246.9,50.8 248.3,53.4 249.6,56.1 250.9,58.8 252.2,61.6 253.5,64.4 254.8,67.2 256.1,70.0 257.5,72.8 258.8,75.7 260.1,78.5 261.4,81.4 262.7,84.2 264.0,87.1 265.3,89.9 266.6,92.7 268.0,95.5 269.3,98.3 270.6,101.1 271.9,103.8 273.2,106.5 274.5,109.2 275.8,111.9 277.2,114.5 278.5,117.0 279.8,119.5 281.1,122.0 282.4,124.4 283.7,126.8 285.0,129.2 286.4,131.4 287.7,133.7 289.0,135.8 290.3,137.9 291.6,140.0 292.9,142.0 294.2,144.0 295.5,145.8 296.9,147.7 298.2,149.4 299.5,151.2 300.8,152.8 302.1,154.4 303.4,155.9 304.7,157.4 306.1,158.8 307.4,160.2 308.7,161.5 310.0,162.8 311.3,164.0 312.6,165.1 313.9,166.2 315.3,167.2 316.6,168.2 317.9,169.2 319.2,170.1 320.5,170.9 321.8,171.7 323.1,172.5 324.5,173.2 325.8,173.9 327.1,174.5 328.4,175.1 329.7,175.7 331.0,176.2 332.3,176.7 333.6,177.1 335.0,177.6 336.3,178.0 337.6,178.3 338.9,178.7 340.2,179.0 341.5,179.3 342.8,179.6 344.2,179.8 345.5,180.0 346.8,180.2 348.1,180.4 349.4,180.6 350.7,180.8 352.0,180.9 353.4,181.0 354.7,181.2 356.0,181.3 357.3,181.4 358.6,181.5 359.9,181.5 361.2,181.6 362.5,181.7 363.9,181.7 365.2,181.8 366.5,181.8 367.8,181.8 369.1,181.9 370.4,181.9 371.7,181.9 373.1,181.9 374.4,181.9 375.7,181.9 377.0,181.9 L377.0,182.0 Z" fill="#4a90d9" fill-opacity="0.06"/>
  <polyline points="42.0,181.9 43.3,181.9 44.6,181.9 45.9,181.9 47.3,181.9 48.6,181.9 49.9,181.9 51.2,181.8 52.5,181.8 53.8,181.8 55.1,181.7 56.5,181.7 57.8,181.6 59.1,181.5 60.4,181.5 61.7,181.4 63.0,181.3 64.3,181.2 65.6,181.0 67.0,180.9 68.3,180.8 69.6,180.6 70.9,180.4 72.2,180.2 73.5,180.0 74.8,179.8 76.2,179.6 77.5,179.3 78.8,179.0 80.1,178.7 81.4,178.3 82.7,178.0 84.0,177.6 85.4,177.1 86.7,176.7 88.0,176.2 89.3,175.7 90.6,175.1 91.9,174.5 93.2,173.9 94.5,173.2 95.9,172.5 97.2,171.7 98.5,170.9 99.8,170.1 101.1,169.2 102.4,168.2 103.7,167.2 105.1,166.2 106.4,165.1 107.7,164.0 109.0,162.8 110.3,161.5 111.6,160.2 112.9,158.8 114.3,157.4 115.6,155.9 116.9,154.4 118.2,152.8 119.5,151.2 120.8,149.4 122.1,147.7 123.5,145.8 124.8,144.0 126.1,142.0 127.4,140.0 128.7,137.9 130.0,135.8 131.3,133.7 132.6,131.4 134.0,129.2 135.3,126.8 136.6,124.4 137.9,122.0 139.2,119.5 140.5,117.0 141.8,114.5 143.2,111.9 144.5,109.2 145.8,106.5 147.1,103.8 148.4,101.1 149.7,98.3 151.0,95.5 152.4,92.7 153.7,89.9 155.0,87.1 156.3,84.2 157.6,81.4 158.9,78.5 160.2,75.7 161.5,72.8 162.9,70.0 164.2,67.2 165.5,64.4 166.8,61.6 168.1,58.8 169.4,56.1 170.7,53.4 172.1,50.8 173.4,48.2 174.7,45.6 176.0,43.1 177.3,40.7 178.6,38.3 179.9,35.9 181.3,33.7 182.6,31.5 183.9,29.4 185.2,27.4 186.5,25.4 187.8,23.6 189.1,21.8 190.5,20.2 191.8,18.6 193.1,17.1 194.4,15.7 195.7,14.5 197.0,13.3 198.3,12.3 199.6,11.3 201.0,10.5 202.3,9.8 203.6,9.2 204.9,8.7 206.2,8.4 207.5,8.1 208.8,8.0 210.2,8.0 211.5,8.1 212.8,8.4 214.1,8.7 215.4,9.2 216.7,9.8 218.0,10.5 219.4,11.3 220.7,12.3 222.0,13.3 223.3,14.5 224.6,15.7 225.9,17.1 227.2,18.6 228.5,20.2 229.9,21.8 231.2,23.6 232.5,25.4 233.8,27.4 235.1,29.4 236.4,31.5 237.7,33.7 239.1,35.9 240.4,38.3 241.7,40.7 243.0,43.1 244.3,45.6 245.6,48.2 246.9,50.8 248.3,53.4 249.6,56.1 250.9,58.8 252.2,61.6 253.5,64.4 254.8,67.2 256.1,70.0 257.5,72.8 258.8,75.7 260.1,78.5 261.4,81.4 262.7,84.2 264.0,87.1 265.3,89.9 266.6,92.7 268.0,95.5 269.3,98.3 270.6,101.1 271.9,103.8 273.2,106.5 274.5,109.2 275.8,111.9 277.2,114.5 278.5,117.0 279.8,119.5 281.1,122.0 282.4,124.4 283.7,126.8 285.0,129.2 286.4,131.4 287.7,133.7 289.0,135.8 290.3,137.9 291.6,140.0 292.9,142.0 294.2,144.0 295.5,145.8 296.9,147.7 298.2,149.4 299.5,151.2 300.8,152.8 302.1,154.4 303.4,155.9 304.7,157.4 306.1,158.8 307.4,160.2 308.7,161.5 310.0,162.8 311.3,164.0 312.6,165.1 313.9,166.2 315.3,167.2 316.6,168.2 317.9,169.2 319.2,170.1 320.5,170.9 321.8,171.7 323.1,172.5 324.5,173.2 325.8,173.9 327.1,174.5 328.4,175.1 329.7,175.7 331.0,176.2 332.3,176.7 333.6,177.1 335.0,177.6 336.3,178.0 337.6,178.3 338.9,178.7 340.2,179.0 341.5,179.3 342.8,179.6 344.2,179.8 345.5,180.0 346.8,180.2 348.1,180.4 349.4,180.6 350.7,180.8 352.0,180.9 353.4,181.0 354.7,181.2 356.0,181.3 357.3,181.4 358.6,181.5 359.9,181.5 361.2,181.6 362.5,181.7 363.9,181.7 365.2,181.8 366.5,181.8 367.8,181.8 369.1,181.9 370.4,181.9 371.7,181.9 373.1,181.9 374.4,181.9 375.7,181.9 377.0,181.9" fill="none" stroke="#4a90d9" stroke-width="1.5" stroke-linejoin="round"/>
  <line x1="450" y1="8.0" x2="785" y2="8.0" stroke="#e5e7eb" stroke-width="0.7"/>
  <text x="445" y="12.0" text-anchor="end" font-size="10" fill="#6b7280">0</text>
  <line x1="450" y1="66.0" x2="785" y2="66.0" stroke="#e5e7eb" stroke-width="0.7"/>
  <text x="445" y="70.0" text-anchor="end" font-size="10" fill="#6b7280">-40</text>
  <line x1="450" y1="124.0" x2="785" y2="124.0" stroke="#e5e7eb" stroke-width="0.7"/>
  <text x="445" y="128.0" text-anchor="end" font-size="10" fill="#6b7280">-80</text>
  <line x1="450" y1="182.0" x2="785" y2="182.0" stroke="#e5e7eb" stroke-width="0.7"/>
  <text x="445" y="186.0" text-anchor="end" font-size="10" fill="#6b7280">-120</text>
  <line x1="450.0" y1="8" x2="450.0" y2="182" stroke="#e5e7eb" stroke-width="0.7"/>
  <text x="450.0" y="198" text-anchor="middle" font-size="10" fill="#6b7280">0</text>
  <line x1="517.0" y1="8" x2="517.0" y2="182" stroke="#e5e7eb" stroke-width="0.7"/>
  <text x="517.0" y="198" text-anchor="middle" font-size="10" fill="#6b7280">0.1</text>
  <line x1="584.0" y1="8" x2="584.0" y2="182" stroke="#e5e7eb" stroke-width="0.7"/>
  <text x="584.0" y="198" text-anchor="middle" font-size="10" fill="#6b7280">0.2</text>
  <line x1="651.0" y1="8" x2="651.0" y2="182" stroke="#e5e7eb" stroke-width="0.7"/>
  <text x="651.0" y="198" text-anchor="middle" font-size="10" fill="#6b7280">0.3</text>
  <line x1="718.0" y1="8" x2="718.0" y2="182" stroke="#e5e7eb" stroke-width="0.7"/>
  <text x="718.0" y="198" text-anchor="middle" font-size="10" fill="#6b7280">0.4</text>
  <line x1="785.0" y1="8" x2="785.0" y2="182" stroke="#e5e7eb" stroke-width="0.7"/>
  <text x="785.0" y="198" text-anchor="middle" font-size="10" fill="#6b7280">0.5</text>
  <line x1="450" y1="8" x2="450" y2="182" stroke="#d1d5db" stroke-width="1"/>
  <line x1="450" y1="182" x2="785" y2="182" stroke="#d1d5db" stroke-width="1"/>
  <polyline points="450.0,8.0 450.2,8.0 450.3,8.1 450.5,8.2 450.7,8.3 450.8,8.5 451.0,8.7 451.1,8.9 451.3,9.2 451.5,9.6 451.6,9.9 451.8,10.3 452.0,10.8 452.1,11.3 452.3,11.8 452.5,12.3 452.6,13.0 452.8,13.6 452.9,14.3 453.1,15.0 453.3,15.8 453.4,16.6 453.6,17.5 453.8,18.4 453.9,19.4 454.1,20.4 454.3,21.4 454.4,22.6 454.6,23.7 454.7,24.9 454.9,26.2 455.1,27.5 455.2,28.9 455.4,30.3 455.6,31.8 455.7,33.4 455.9,35.0 456.1,36.7 456.2,38.4 456.4,40.3 456.5,42.2 456.7,44.2 456.9,46.2 457.0,48.4 457.2,50.6 457.4,53.0 457.5,55.4 457.7,58.0 457.9,60.7 458.0,63.5 458.2,66.5 458.3,69.6 458.5,72.9 458.7,76.3 458.8,80.0 459.0,84.0 459.2,88.2 459.3,92.7 459.5,97.7 459.7,103.2 459.8,109.3 460.0,116.3 460.1,124.8 460.3,135.9 460.5,154.8 460.6,161.3 460.8,154.8 461.0,158.6 461.1,176.3 461.3,165.6 461.5,155.7 461.6,151.9 461.8,150.6 461.9,151.1 462.1,153.0 462.3,156.6 462.4,162.7 462.6,174.8 462.8,182.0 462.9,169.9 463.1,165.4 463.3,164.4 463.4,166.1 463.6,171.2 463.7,182.0 463.9,177.1 464.1,165.4 464.2,159.6 464.4,156.0 464.6,153.7 464.7,152.3 464.9,151.7 465.1,151.9 465.2,152.8 465.4,154.5 465.5,157.4 465.7,162.2 465.9,171.3 466.0,182.0 466.2,168.5 466.4,160.7 466.5,156.3 466.7,153.5 466.9,151.7 467.0,150.6 467.2,150.0 467.3,150.0 467.5,150.4 467.7,151.4 467.8,152.9 468.0,155.0 468.2,158.0 468.3,162.3 468.5,169.0 468.7,182.0 468.8,181.8 469.0,169.5 469.1,164.0 469.3,160.8 469.5,158.8 469.6,157.5 469.8,156.9 470.0,156.7 470.1,156.9 470.3,157.5 470.5,158.5 470.6,159.8 470.8,161.5 470.9,163.6 471.1,166.2 471.3,169.4 471.4,173.6 471.6,179.4 471.8,182.0 471.9,182.0 472.1,182.0 472.3,181.4 472.4,177.0 472.6,174.1 472.7,171.8 472.9,170.1 473.1,168.6 473.2,167.3 473.4,166.2 473.6,165.3 473.7,164.5 473.9,163.9 474.1,163.5 474.2,163.3 474.4,163.3 474.5,163.7 474.7,164.5 474.9,165.7 475.0,167.6 475.2,170.4 475.4,175.0 475.5,182.0 475.7,182.0 475.9,180.3 476.0,172.0 476.2,167.1 476.3,163.7 476.5,161.2 476.7,159.4 476.8,158.1 477.0,157.3 477.2,156.9 477.3,157.0 477.5,157.5 477.7,158.5 477.8,160.2 478.0,162.8 478.1,166.8 478.3,173.8 478.5,182.0 478.6,179.5 478.8,168.9 479.0,163.4 479.1,159.8 479.3,157.3 479.5,155.6 479.6,154.5 479.8,153.8 479.9,153.7 480.1,154.0 480.3,154.8 480.4,156.2 480.6,158.3 480.8,161.6 480.9,166.8 481.1,177.1 481.3,182.0 481.4,170.7 481.6,163.4 481.7,159.1 481.9,156.2 482.1,154.2 482.2,152.9 482.4,152.2 482.6,151.9 482.7,152.1 482.9,152.8 483.1,154.1 483.2,156.0 483.4,159.0 483.5,163.5 483.7,171.8 483.9,182.0 484.0,172.4 484.2,163.6 484.4,158.8 484.5,155.7 484.7,153.5 484.9,152.1 485.0,151.3 485.2,150.9 485.3,151.0 485.5,151.7 485.7,152.9 485.8,154.7 486.0,157.5 486.2,161.7 486.3,169.1 486.5,182.0 486.7,174.0 486.8,164.0 487.0,158.7 487.1,155.4 487.3,153.2 487.5,151.7 487.6,150.8 487.8,150.4 488.0,150.5 488.1,151.0 488.3,152.2 488.5,154.0 488.6,156.6 488.8,160.7 488.9,167.5 489.1,182.0 489.3,175.5 489.4,164.4 489.6,158.9 489.8,155.4 489.9,153.1 490.1,151.5 490.3,150.5 490.4,150.1 490.6,150.2 490.7,150.7 490.9,151.8 491.1,153.6 491.2,156.1 491.4,160.0 491.6,166.5 491.7,182.0 491.9,177.0 492.1,164.8 492.2,159.1 492.4,155.5 492.6,153.1 492.7,151.5 492.9,150.5 493.0,150.0 493.2,150.1 493.4,150.6 493.5,151.7 493.7,153.4 493.9,155.9 494.0,159.7 494.2,165.9 494.4,180.3 494.5,178.4 494.7,165.3 494.8,159.4 495.0,155.7 495.2,153.2 495.3,151.6 495.5,150.6 495.7,150.1 495.8,150.1 496.0,150.6 496.2,151.6 496.3,153.3 496.5,155.8 496.6,159.5 496.8,165.6 497.0,179.0 497.1,179.7 497.3,165.8 497.5,159.7 497.6,155.9 497.8,153.4 498.0,151.8 498.1,150.7 498.3,150.2 498.4,150.2 498.6,150.7 498.8,151.7 498.9,153.4 499.1,155.8 499.3,159.5 499.4,165.4 499.6,178.2 499.8,181.0 499.9,166.3 500.1,160.0 500.2,156.2 500.4,153.7 500.6,152.0 500.7,150.9 500.9,150.4 501.1,150.4 501.2,150.9 501.4,151.9 501.6,153.5 501.7,155.9 501.9,159.5 502.0,165.3 502.2,177.6 502.4,182.0 502.5,166.8 502.7,160.4 502.9,156.5 503.0,154.0 503.2,152.3 503.4,151.2 503.5,150.7 503.7,150.6 503.8,151.1 504.0,152.1 504.2,153.6 504.3,156.0 504.5,159.6 504.7,165.3 504.8,177.3 505.0,182.0 505.2,167.3 505.3,160.8 505.5,156.9 505.6,154.3 505.8,152.5 506.0,151.5 506.1,150.9 506.3,150.9 506.5,151.3 506.6,152.3 506.8,153.9 507.0,156.2 507.1,159.8 507.3,165.4 507.4,177.0 507.6,182.0 507.8,167.8 507.9,161.2 508.1,157.2 508.3,154.6 508.4,152.8 508.6,151.7 508.8,151.2 508.9,151.1 509.1,151.6 509.2,152.5 509.4,154.1 509.6,156.4 509.7,159.9 509.9,165.5 510.1,176.9 510.2,182.0 510.4,168.3 510.6,161.6 510.7,157.6 510.9,154.9 511.0,153.2 511.2,152.1 511.4,151.5 511.5,151.4 511.7,151.8 511.9,152.8 512.0,154.3 512.2,156.7 512.4,160.1 512.5,165.7 512.7,176.8 512.8,182.0 513.0,168.8 513.2,162.0 513.3,157.9 513.5,155.3 513.7,153.5 513.8,152.4 514.0,151.8 514.2,151.7 514.3,152.1 514.5,153.1 514.6,154.6 514.8,156.9 515.0,160.4 515.1,165.8 515.3,176.8 515.5,182.0 515.6,169.2 515.8,162.4 516.0,158.3 516.1,155.6 516.3,153.8 516.4,152.7 516.6,152.1 516.8,152.0 516.9,152.4 517.1,153.3 517.3,154.9 517.4,157.2 517.6,160.6 517.8,166.0 517.9,176.8 518.1,182.0 518.2,169.7 518.4,162.7 518.6,158.6 518.7,155.9 518.9,154.1 519.1,153.0 519.2,152.4 519.4,152.3 519.6,152.7 519.7,153.6 519.9,155.1 520.0,157.4 520.2,160.8 520.4,166.2 520.5,176.9 520.7,182.0 520.9,170.1 521.0,163.1 521.2,159.0 521.4,156.3 521.5,154.5 521.7,153.3 521.8,152.7 522.0,152.6 522.2,153.0 522.3,153.9 522.5,155.4 522.7,157.7 522.8,161.1 523.0,166.4 523.2,177.0 523.3,182.0 523.5,170.5 523.6,163.5 523.8,159.3 524.0,156.6 524.1,154.8 524.3,153.6 524.5,153.0 524.6,152.9 524.8,153.3 525.0,154.2 525.1,155.7 525.3,158.0 525.4,161.3 525.6,166.7 525.8,177.1 525.9,182.0 526.1,171.0 526.3,163.8 526.4,159.7 526.6,156.9 526.8,155.1 526.9,153.9 527.1,153.3 527.2,153.2 527.4,153.6 527.6,154.5 527.7,156.0 527.9,158.2 528.1,161.6 528.2,166.9 528.4,177.2 528.6,182.0 528.7,171.4 528.9,164.2 529.0,160.0 529.2,157.2 529.4,155.4 529.5,154.2 529.7,153.6 529.9,153.5 530.0,153.9 530.2,154.8 530.4,156.3 530.5,158.5 530.7,161.9 530.8,167.1 531.0,177.3 531.2,182.0 531.3,171.8 531.5,164.5 531.7,160.3 531.8,157.6 532.0,155.7 532.2,154.5 532.3,153.9 532.5,153.8 532.6,154.2 532.8,155.0 533.0,156.5 533.1,158.8 533.3,162.1 533.5,167.3 533.6,177.5 533.8,182.0 534.0,172.1 534.1,164.9 534.3,160.6 534.4,157.9 534.6,156.0 534.8,154.8 534.9,154.2 535.1,154.1 535.3,154.4 535.4,155.3 535.6,156.8 535.8,159.0 535.9,162.4 536.1,167.6 536.2,177.6 536.4,182.0 536.6,172.5 536.7,165.2 536.9,160.9 537.1,158.2 537.2,156.3 537.4,155.1 537.6,154.5 537.7,154.4 537.9,154.7 538.0,155.6 538.2,157.1 538.4,159.3 538.5,162.6 538.7,167.8 538.9,177.8 539.0,182.0 539.2,172.9 539.4,165.5 539.5,161.2 539.7,158.5 539.8,156.6 540.0,155.4 540.2,154.8 540.3,154.6 540.5,155.0 540.7,155.9 540.8,157.3 541.0,159.6 541.2,162.9 541.3,168.0 541.5,178.0 541.6,182.0 541.8,173.2 542.0,165.8 542.1,161.5 542.3,158.7 542.5,156.9 542.6,155.7 542.8,155.0 543.0,154.9 543.1,155.3 543.3,156.1 543.4,157.6 543.6,159.8 543.8,163.1 543.9,168.3 544.1,178.1 544.3,182.0 544.4,173.5 544.6,166.1 544.8,161.8 544.9,159.0 545.1,157.2 545.2,156.0 545.4,155.3 545.6,155.2 545.7,155.5 545.9,156.4 546.1,157.8 546.2,160.1 546.4,163.3 546.6,168.5 546.7,178.3 546.9,182.0 547.0,173.9 547.2,166.4 547.4,162.1 547.5,159.3 547.7,157.4 547.9,156.2 548.0,155.6 548.2,155.4 548.4,155.8 548.5,156.6 548.7,158.1 548.8,160.3 549.0,163.6 549.2,168.7 549.3,178.5 549.5,182.0 549.7,174.2 549.8,166.7 550.0,162.4 550.2,159.6 550.3,157.7 550.5,156.5 550.6,155.8 550.8,155.7 551.0,156.0 551.1,156.9 551.3,158.3 551.5,160.5 551.6,163.8 551.8,168.9 552.0,178.6 552.1,182.0 552.3,174.5 552.4,167.0 552.6,162.7 552.8,159.8 552.9,158.0 553.1,156.7 553.3,156.1 553.4,155.9 553.6,156.3 553.8,157.1 553.9,158.6 554.1,160.8 554.2,164.0 554.4,169.1 554.6,178.8 554.7,182.0 554.9,174.8 555.1,167.3 555.2,162.9 555.4,160.1 555.6,158.2 555.7,157.0 555.9,156.3 556.0,156.2 556.2,156.5 556.4,157.4 556.5,158.8 556.7,161.0 556.9,164.3 557.0,169.3 557.2,179.0 557.4,182.0 557.5,175.1 557.7,167.5 557.8,163.2 558.0,160.4 558.2,158.5 558.3,157.2 558.5,156.6 558.7,156.4 558.8,156.8 559.0,157.6 559.2,159.1 559.3,161.2 559.5,164.5 559.6,169.6 559.8,179.1 560.0,182.0 560.1,175.4 560.3,167.8 560.5,163.5 560.6,160.6 560.8,158.7 561.0,157.5 561.1,156.8 561.3,156.7 561.4,157.0 561.6,157.8 561.8,159.3 561.9,161.5 562.1,164.7 562.3,169.8 562.4,179.3 562.6,182.0 562.8,175.7 562.9,168.1 563.1,163.7 563.2,160.8 563.4,158.9 563.6,157.7 563.7,157.1 563.9,156.9 564.1,157.2 564.2,158.1 564.4,159.5 564.6,161.7 564.7,164.9 564.9,170.0 565.0,179.5 565.2,182.0 565.4,176.0 565.5,168.3 565.7,163.9 565.9,161.1 566.0,159.2 566.2,157.9 566.4,157.3 566.5,157.1 566.7,157.4 566.8,158.3 567.0,159.7 567.2,161.9 567.3,165.1 567.5,170.2 567.7,179.6 567.8,182.0 568.0,176.2 568.2,168.6 568.3,164.2 568.5,161.3 568.6,159.4 568.8,158.2 569.0,157.5 569.1,157.3 569.3,157.7 569.5,158.5 569.6,159.9 569.8,162.1 570.0,165.3 570.1,170.3 570.3,179.8 570.4,182.0 570.6,176.5 570.8,168.8 570.9,164.4 571.1,161.5 571.3,159.6 571.4,158.4 571.6,157.7 571.8,157.6 571.9,157.9 572.1,158.7 572.2,160.1 572.4,162.3 572.6,165.5 572.7,170.5 572.9,180.0 573.1,182.0 573.2,176.7 573.4,169.0 573.6,164.6 573.7,161.8 573.9,159.8 574.0,158.6 574.2,157.9 574.4,157.8 574.5,158.1 574.7,158.9 574.9,160.3 575.0,162.5 575.2,165.7 575.4,170.7 575.5,180.1 575.7,182.0 575.9,177.0 576.0,169.3 576.2,164.9 576.3,162.0 576.5,160.1 576.7,158.8 576.8,158.1 577.0,158.0 577.2,158.3 577.3,159.1 577.5,160.5 577.7,162.7 577.8,165.9 578.0,170.9 578.1,180.3 578.3,182.0 578.5,177.2 578.6,169.5 578.8,165.1 579.0,162.2 579.1,160.3 579.3,159.0 579.5,158.4 579.6,158.2 579.8,158.5 579.9,159.3 580.1,160.7 580.3,162.9 580.4,166.1 580.6,171.1 580.8,180.4 580.9,182.0 581.1,177.5 581.3,169.7 581.4,165.3 581.6,162.4 581.7,160.5 581.9,159.2 582.1,158.5 582.2,158.4 582.4,158.7 582.6,159.5 582.7,160.9 582.9,163.1 583.1,166.3 583.2,171.3 583.4,180.6 583.5,182.0 583.7,177.7 583.9,169.9 584.0,165.5 584.2,162.6 584.4,160.7 584.5,159.4 584.7,158.7 584.9,158.6 585.0,158.9 585.2,159.7 585.3,161.1 585.5,163.3 585.7,166.5 585.8,171.4 586.0,180.7 586.2,182.0 586.3,177.9 586.5,170.1 586.7,165.7 586.8,162.8 587.0,160.9 587.1,159.6 587.3,158.9 587.5,158.8 587.6,159.1 587.8,159.9 588.0,161.3 588.1,163.4 588.3,166.6 588.5,171.6 588.6,180.9 588.8,182.0 588.9,178.1 589.1,170.3 589.3,165.9 589.4,163.0 589.6,161.1 589.8,159.8 589.9,159.1 590.1,158.9 590.3,159.3 590.4,160.1 590.6,161.5 590.7,163.6 590.9,166.8 591.1,171.8 591.2,181.0 591.4,182.0 591.6,178.4 591.7,170.5 591.9,166.1 592.1,163.2 592.2,161.2 592.4,160.0 592.5,159.3 592.7,159.1 592.9,159.4 593.0,160.3 593.2,161.7 593.4,163.8 593.5,167.0 593.7,171.9 593.9,181.2 594.0,182.0 594.2,178.6 594.3,170.7 594.5,166.3 594.7,163.4 594.8,161.4 595.0,160.2 595.2,159.5 595.3,159.3 595.5,159.6 595.7,160.4 595.8,161.8 596.0,164.0 596.1,167.1 596.3,172.1 596.5,181.3 596.6,182.0 596.8,178.8 597.0,170.9 597.1,166.5 597.3,163.5 597.5,161.6 597.6,160.3 597.8,159.7 597.9,159.5 598.1,159.8 598.3,160.6 598.4,162.0 598.6,164.1 598.8,167.3 598.9,172.2 599.1,181.4 599.3,182.0 599.4,179.0 599.6,171.1 599.7,166.6 599.9,163.7 600.1,161.8 600.2,160.5 600.4,159.8 600.6,159.6 600.7,159.9 600.9,160.8 601.1,162.2 601.2,164.3 601.4,167.5 601.5,172.4 601.7,181.6 601.9,182.0 602.0,179.2 602.2,171.3 602.4,166.8 602.5,163.9 602.7,161.9 602.9,160.7 603.0,160.0 603.2,159.8 603.3,160.1 603.5,160.9 603.7,162.3 603.8,164.5 604.0,167.6 604.2,172.5 604.3,181.7 604.5,182.0 604.7,179.4 604.8,171.5 605.0,167.0 605.1,164.1 605.3,162.1 605.5,160.9 605.6,160.2 605.8,160.0 606.0,160.3 606.1,161.1 606.3,162.5 606.5,164.6 606.6,167.8 606.8,172.7 606.9,181.8 607.1,182.0 607.3,179.6 607.4,171.6 607.6,167.1 607.8,164.2 607.9,162.3 608.1,161.0 608.3,160.3 608.4,160.1 608.6,160.4 608.7,161.2 608.9,162.6 609.1,164.8 609.2,167.9 609.4,172.8 609.6,181.9 609.7,182.0 609.9,179.7 610.1,171.8 610.2,167.3 610.4,164.4 610.5,162.4 610.7,161.2 610.9,160.5 611.0,160.3 611.2,160.6 611.4,161.4 611.5,162.8 611.7,164.9 611.9,168.1 612.0,173.0 612.2,182.0 612.3,182.0 612.5,179.9 612.7,172.0 612.8,167.5 613.0,164.5 613.2,162.6 613.3,161.3 613.5,160.6 613.7,160.4 613.8,160.7 614.0,161.5 614.1,162.9 614.3,165.1 614.5,168.2 614.6,173.1 614.8,182.0 615.0,182.0 615.1,180.1 615.3,172.1 615.5,167.6 615.6,164.7 615.8,162.7 615.9,161.5 616.1,160.8 616.3,160.6 616.4,160.9 616.6,161.7 616.8,163.1 616.9,165.2 617.1,168.3 617.3,173.2 617.4,182.0 617.6,182.0 617.7,180.3 617.9,172.3 618.1,167.8 618.2,164.9 618.4,162.9 618.6,161.6 618.7,160.9 618.9,160.7 619.1,161.0 619.2,161.8 619.4,163.2 619.5,165.3 619.7,168.5 619.9,173.4 620.0,182.0 620.2,182.0 620.4,180.4 620.5,172.4 620.7,167.9 620.9,165.0 621.0,163.0 621.2,161.8 621.3,161.1 621.5,160.9 621.7,161.2 621.8,162.0 622.0,163.4 622.2,165.5 622.3,168.6 622.5,173.5 622.7,182.0 622.8,182.0 623.0,180.6 623.1,172.6 623.3,168.1 623.5,165.1 623.6,163.2 623.8,161.9 624.0,161.2 624.1,161.0 624.3,161.3 624.5,162.1 624.6,163.5 624.8,165.6 624.9,168.7 625.1,173.6 625.3,182.0 625.4,182.0 625.6,180.7 625.8,172.7 625.9,168.2 626.1,165.3 626.3,163.3 626.4,162.0 626.6,161.3 626.7,161.1 626.9,161.4 627.1,162.2 627.2,163.6 627.4,165.7 627.6,168.9 627.7,173.7 627.9,182.0 628.1,182.0 628.2,180.9 628.4,172.9 628.5,168.4 628.7,165.4 628.9,163.5 629.0,162.2 629.2,161.5 629.4,161.3 629.5,161.6 629.7,162.4 629.9,163.7 630.0,165.9 630.2,169.0 630.3,173.9 630.5,182.0 630.7,182.0 630.8,181.1 631.0,173.0 631.2,168.5 631.3,165.6 631.5,163.6 631.7,162.3 631.8,161.6 632.0,161.4 632.1,161.7 632.3,162.5 632.5,163.9 632.6,166.0 632.8,169.1 633.0,174.0 633.1,182.0 633.3,182.0 633.5,181.2 633.6,173.2 633.8,168.6 633.9,165.7 634.1,163.7 634.3,162.4 634.4,161.7 634.6,161.5 634.8,161.8 634.9,162.6 635.1,164.0 635.3,166.1 635.4,169.2 635.6,174.1 635.7,182.0 635.9,182.0 636.1,181.3 636.2,173.3 636.4,168.8 636.6,165.8 636.7,163.8 636.9,162.6 637.1,161.9 637.2,161.7 637.4,161.9 637.5,162.7 637.7,164.1 637.9,166.2 638.0,169.3 638.2,174.2 638.4,182.0 638.5,182.0 638.7,181.5 638.9,173.4 639.0,168.9 639.2,165.9 639.3,164.0 639.5,162.7 639.7,162.0 639.8,161.8 640.0,162.1 640.2,162.9 640.3,164.2 640.5,166.3 640.7,169.5 640.8,174.3 641.0,182.0 641.1,182.0 641.3,181.6 641.5,173.6 641.6,169.0 641.8,166.1 642.0,164.1 642.1,162.8 642.3,162.1 642.5,161.9 642.6,162.2 642.8,163.0 642.9,164.3 643.1,166.4 643.3,169.6 643.4,174.4 643.6,182.0 643.8,182.0 643.9,181.8 644.1,173.7 644.3,169.1 644.4,166.2 644.6,164.2 644.7,162.9 644.9,162.2 645.1,162.0 645.2,162.3 645.4,163.1 645.6,164.5 645.7,166.6 645.9,169.7 646.1,174.5 646.2,182.0 646.4,182.0 646.5,181.9 646.7,173.8 646.9,169.3 647.0,166.3 647.2,164.3 647.4,163.0 647.5,162.3 647.7,162.1 647.9,162.4 648.0,163.2 648.2,164.6 648.3,166.7 648.5,169.8 648.7,174.6 648.8,182.0 649.0,182.0 649.2,182.0 649.3,173.9 649.5,169.4 649.7,166.4 649.8,164.4 650.0,163.1 650.1,162.4 650.3,162.2 650.5,162.5 650.6,163.3 650.8,164.7 651.0,166.8 651.1,169.9 651.3,174.7 651.5,182.0 651.6,182.0 651.8,182.0 651.9,174.0 652.1,169.5 652.3,166.5 652.4,164.5 652.6,163.3 652.8,162.5 652.9,162.3 653.1,162.6 653.3,163.4 653.4,164.8 653.6,166.9 653.7,170.0 653.9,174.8 654.1,182.0 654.2,182.0 654.4,182.0 654.6,174.2 654.7,169.6 654.9,166.6 655.1,164.6 655.2,163.4 655.4,162.6 655.5,162.4 655.7,162.7 655.9,163.5 656.0,164.9 656.2,167.0 656.4,170.1 656.5,174.9 656.7,182.0 656.9,182.0 657.0,182.0 657.2,174.3 657.3,169.7 657.5,166.7 657.7,164.7 657.8,163.5 658.0,162.7 658.2,162.5 658.3,162.8 658.5,163.6 658.7,165.0 658.8,167.1 659.0,170.2 659.1,175.0 659.3,182.0 659.5,182.0 659.6,182.0 659.8,174.4 660.0,169.8 660.1,166.8 660.3,164.8 660.5,163.6 660.6,162.8 660.8,162.6 661.0,162.9 661.1,163.7 661.3,165.1 661.4,167.2 661.6,170.3 661.8,175.1 661.9,182.0 662.1,182.0 662.3,182.0 662.4,174.5 662.6,169.9 662.8,166.9 662.9,164.9 663.1,163.7 663.2,162.9 663.4,162.7 663.6,163.0 663.7,163.8 663.9,165.2 664.1,167.2 664.2,170.4 664.4,175.2 664.6,182.0 664.7,182.0 664.9,182.0 665.0,174.6 665.2,170.0 665.4,167.0 665.5,165.0 665.7,163.8 665.9,163.0 666.0,162.8 666.2,163.1 666.4,163.9 666.5,165.2 666.7,167.3 666.8,170.4 667.0,175.3 667.2,182.0 667.3,182.0 667.5,182.0 667.7,174.7 667.8,170.1 668.0,167.1 668.2,165.1 668.3,163.8 668.5,163.1 668.6,162.9 668.8,163.2 669.0,164.0 669.1,165.3 669.3,167.4 669.5,170.5 669.6,175.3 669.8,182.0 670.0,182.0 670.1,182.0 670.3,174.8 670.4,170.2 670.6,167.2 670.8,165.2 670.9,163.9 671.1,163.2 671.3,163.0 671.4,163.3 671.6,164.1 671.8,165.4 671.9,167.5 672.1,170.6 672.2,175.4 672.4,182.0 672.6,182.0 672.7,182.0 672.9,174.9 673.1,170.3 673.2,167.3 673.4,165.3 673.6,164.0 673.7,163.3 673.9,163.1 674.0,163.4 674.2,164.1 674.4,165.5 674.5,167.6 674.7,170.7 674.9,175.5 675.0,182.0 675.2,182.0 675.4,182.0 675.5,175.0 675.7,170.4 675.8,167.4 676.0,165.4 676.2,164.1 676.3,163.4 676.5,163.2 676.7,163.4 676.8,164.2 677.0,165.6 677.2,167.7 677.3,170.8 677.5,175.6 677.6,182.0 677.8,182.0 678.0,182.0 678.1,175.1 678.3,170.5 678.5,167.5 678.6,165.5 678.8,164.2 679.0,163.5 679.1,163.3 679.3,163.5 679.4,164.3 679.6,165.7 679.8,167.7 679.9,170.8 680.1,175.6 680.3,182.0 680.4,182.0 680.6,182.0 680.8,175.1 680.9,170.5 681.1,167.6 681.2,165.6 681.4,164.3 681.6,163.5 681.7,163.3 681.9,163.6 682.1,164.4 682.2,165.7 682.4,167.8 682.6,170.9 682.7,175.7 682.9,182.0 683.0,182.0 683.2,182.0 683.4,175.2 683.5,170.6 683.7,167.7 683.9,165.6 684.0,164.4 684.2,163.6 684.4,163.4 684.5,163.7 684.7,164.5 684.8,165.8 685.0,167.9 685.2,171.0 685.3,175.8 685.5,182.0 685.7,182.0 685.8,182.0 686.0,175.3 686.2,170.7 686.3,167.7 686.5,165.7 686.6,164.4 686.8,163.7 687.0,163.5 687.1,163.8 687.3,164.5 687.5,165.9 687.6,168.0 687.8,171.1 688.0,175.9 688.1,182.0 688.3,182.0 688.4,182.0 688.6,175.4 688.8,170.8 688.9,167.8 689.1,165.8 689.3,164.5 689.4,163.8 689.6,163.6 689.8,163.8 689.9,164.6 690.1,166.0 690.2,168.0 690.4,171.1 690.6,175.9 690.7,182.0 690.9,182.0 691.1,182.0 691.2,175.5 691.4,170.9 691.6,167.9 691.7,165.9 691.9,164.6 692.0,163.8 692.2,163.6 692.4,163.9 692.5,164.7 692.7,166.0 692.9,168.1 693.0,171.2 693.2,176.0 693.4,182.0 693.5,182.0 693.7,182.0 693.8,175.5 694.0,170.9 694.2,167.9 694.3,165.9 694.5,164.6 694.7,163.9 694.8,163.7 695.0,164.0 695.2,164.7 695.3,166.1 695.5,168.2 695.6,171.3 695.8,176.0 696.0,182.0 696.1,182.0 696.3,182.0 696.5,175.6 696.6,171.0 696.8,168.0 697.0,166.0 697.1,164.7 697.3,164.0 697.4,163.8 697.6,164.0 697.8,164.8 697.9,166.2 698.1,168.2 698.3,171.3 698.4,176.1 698.6,182.0 698.8,182.0 698.9,182.0 699.1,175.7 699.2,171.1 699.4,168.1 699.6,166.1 699.7,164.8 699.9,164.0 700.1,163.8 700.2,164.1 700.4,164.9 700.6,166.2 700.7,168.3 700.9,171.4 701.0,176.2 701.2,182.0 701.4,182.0 701.5,182.0 701.7,175.8 701.9,171.1 702.0,168.2 702.2,166.1 702.4,164.8 702.5,164.1 702.7,163.9 702.8,164.1 703.0,164.9 703.2,166.3 703.3,168.3 703.5,171.4 703.7,176.2 703.8,182.0 704.0,182.0 704.2,182.0 704.3,175.8 704.5,171.2 704.6,168.2 704.8,166.2 705.0,164.9 705.1,164.2 705.3,163.9 705.5,164.2 705.6,165.0 705.8,166.3 706.0,168.4 706.1,171.5 706.3,176.3 706.4,182.0 706.6,182.0 706.8,182.0 706.9,175.9 707.1,171.3 707.3,168.3 707.4,166.3 707.6,165.0 707.8,164.2 707.9,164.0 708.1,164.3 708.2,165.0 708.4,166.4 708.6,168.5 708.7,171.5 708.9,176.3 709.1,182.0 709.2,182.0 709.4,182.0 709.6,176.0 709.7,171.3 709.9,168.3 710.0,166.3 710.2,165.0 710.4,164.3 710.5,164.1 710.7,164.3 710.9,165.1 711.0,166.4 711.2,168.5 711.4,171.6 711.5,176.4 711.7,182.0 711.8,182.0 712.0,182.0 712.2,176.0 712.3,171.4 712.5,168.4 712.7,166.4 712.8,165.1 713.0,164.3 713.2,164.1 713.3,164.4 713.5,165.1 713.6,166.5 713.8,168.6 714.0,171.6 714.1,176.4 714.3,182.0 714.5,182.0 714.6,182.0 714.8,176.1 715.0,171.4 715.1,168.4 715.3,166.4 715.4,165.1 715.6,164.4 715.8,164.2 715.9,164.4 716.1,165.2 716.3,166.5 716.4,168.6 716.6,171.7 716.8,176.4 716.9,182.0 717.1,182.0 717.2,182.0 717.4,176.1 717.6,171.5 717.7,168.5 717.9,166.5 718.1,165.2 718.2,164.4 718.4,164.2 718.6,164.5 718.7,165.2 718.9,166.6 719.0,168.7 719.2,171.7 719.4,176.5 719.5,182.0 719.7,182.0 719.9,182.0 720.0,176.2 720.2,171.6 720.4,168.5 720.5,166.5 720.7,165.2 720.8,164.5 721.0,164.3 721.2,164.5 721.3,165.3 721.5,166.6 721.7,168.7 721.8,171.8 722.0,176.5 722.2,182.0 722.3,182.0 722.5,182.0 722.6,176.2 722.8,171.6 723.0,168.6 723.1,166.6 723.3,165.3 723.5,164.5 723.6,164.3 723.8,164.6 724.0,165.3 724.1,166.7 724.3,168.7 724.4,171.8 724.6,176.6 724.8,182.0 724.9,182.0 725.1,182.0 725.3,176.3 725.4,171.6 725.6,168.6 725.8,166.6 725.9,165.3 726.1,164.6 726.2,164.3 726.4,164.6 726.6,165.4 726.7,166.7 726.9,168.8 727.1,171.8 727.2,176.6 727.4,182.0 727.6,182.0 727.7,182.0 727.9,176.3 728.0,171.7 728.2,168.7 728.4,166.7 728.5,165.4 728.7,164.6 728.9,164.4 729.0,164.6 729.2,165.4 729.4,166.8 729.5,168.8 729.7,171.9 729.8,176.6 730.0,182.0 730.2,182.0 730.3,182.0 730.5,176.4 730.7,171.7 730.8,168.7 731.0,166.7 731.2,165.4 731.3,164.7 731.5,164.4 731.6,164.7 731.8,165.5 732.0,166.8 732.1,168.9 732.3,171.9 732.5,176.7 732.6,182.0 732.8,182.0 733.0,182.0 733.1,176.4 733.3,171.8 733.4,168.8 733.6,166.7 733.8,165.4 733.9,164.7 734.1,164.5 734.3,164.7 734.4,165.5 734.6,166.8 734.8,168.9 734.9,172.0 735.1,176.7 735.2,182.0 735.4,182.0 735.6,182.0 735.7,176.5 735.9,171.8 736.1,168.8 736.2,166.8 736.4,165.5 736.6,164.7 736.7,164.5 736.9,164.8 737.0,165.5 737.2,166.9 737.4,168.9 737.5,172.0 737.7,176.7 737.9,182.0 738.0,182.0 738.2,182.0 738.4,176.5 738.5,171.9 738.7,168.8 738.8,166.8 739.0,165.5 739.2,164.8 739.3,164.5 739.5,164.8 739.7,165.6 739.8,166.9 740.0,169.0 740.2,172.0 740.3,176.7 740.5,182.0 740.6,182.0 740.8,182.0 741.0,176.5 741.1,171.9 741.3,168.9 741.5,166.9 741.6,165.5 741.8,164.8 742.0,164.6 742.1,164.8 742.3,165.6 742.4,166.9 742.6,169.0 742.8,172.0 742.9,176.8 743.1,182.0 743.3,182.0 743.4,182.0 743.6,176.6 743.8,171.9 743.9,168.9 744.1,166.9 744.3,165.6 744.4,164.8 744.6,164.6 744.7,164.8 744.9,165.6 745.1,167.0 745.2,169.0 745.4,172.1 745.6,176.8 745.7,182.0 745.9,182.0 746.1,182.0 746.2,176.6 746.4,172.0 746.5,168.9 746.7,166.9 746.9,165.6 747.0,164.9 747.2,164.6 747.4,164.9 747.5,165.6 747.7,167.0 747.9,169.0 748.0,172.1 748.2,176.8 748.3,182.0 748.5,182.0 748.7,182.0 748.8,176.7 749.0,172.0 749.2,169.0 749.3,166.9 749.5,165.6 749.7,164.9 749.8,164.6 750.0,164.9 750.1,165.7 750.3,167.0 750.5,169.1 750.6,172.1 750.8,176.8 751.0,182.0 751.1,182.0 751.3,182.0 751.5,176.7 751.6,172.0 751.8,169.0 751.9,167.0 752.1,165.7 752.3,164.9 752.4,164.7 752.6,164.9 752.8,165.7 752.9,167.0 753.1,169.1 753.3,172.1 753.4,176.9 753.6,182.0 753.7,182.0 753.9,182.0 754.1,176.7 754.2,172.0 754.4,169.0 754.6,167.0 754.7,165.7 754.9,164.9 755.1,164.7 755.2,164.9 755.4,165.7 755.5,167.0 755.7,169.1 755.9,172.1 756.0,176.9 756.2,182.0 756.4,182.0 756.5,182.0 756.7,176.7 756.9,172.1 757.0,169.0 757.2,167.0 757.3,165.7 757.5,165.0 757.7,164.7 757.8,165.0 758.0,165.7 758.2,167.1 758.3,169.1 758.5,172.2 758.7,176.9 758.8,182.0 759.0,182.0 759.1,182.0 759.3,176.8 759.5,172.1 759.6,169.1 759.8,167.0 760.0,165.7 760.1,165.0 760.3,164.7 760.5,165.0 760.6,165.7 760.8,167.1 760.9,169.1 761.1,172.2 761.3,176.9 761.4,182.0 761.6,182.0 761.8,182.0 761.9,176.8 762.1,172.1 762.3,169.1 762.4,167.1 762.6,165.7 762.7,165.0 762.9,164.8 763.1,165.0 763.2,165.8 763.4,167.1 763.6,169.1 763.7,172.2 763.9,176.9 764.1,182.0 764.2,182.0 764.4,182.0 764.5,176.8 764.7,172.1 764.9,169.1 765.0,167.1 765.2,165.8 765.4,165.0 765.5,164.8 765.7,165.0 765.9,165.8 766.0,167.1 766.2,169.2 766.3,172.2 766.5,176.9 766.7,182.0 766.8,182.0 767.0,182.0 767.2,176.8 767.3,172.2 767.5,169.1 767.7,167.1 767.8,165.8 768.0,165.0 768.1,164.8 768.3,165.0 768.5,165.8 768.6,167.1 768.8,169.2 769.0,172.2 769.1,176.9 769.3,182.0 769.5,182.0 769.6,182.0 769.8,176.8 769.9,172.2 770.1,169.1 770.3,167.1 770.4,165.8 770.6,165.0 770.8,164.8 770.9,165.0 771.1,165.8 771.3,167.1 771.4,169.2 771.6,172.2 771.7,176.9 771.9,182.0 772.1,182.0 772.2,182.0 772.4,176.9 772.6,172.2 772.7,169.1 772.9,167.1 773.1,165.8 773.2,165.0 773.4,164.8 773.5,165.0 773.7,165.8 773.9,167.1 774.0,169.2 774.2,172.2 774.4,176.9 774.5,182.0 774.7,182.0 774.9,182.0 775.0,176.9 775.2,172.2 775.3,169.2 775.5,167.1 775.7,165.8 775.8,165.0 776.0,164.8 776.2,165.1 776.3,165.8 776.5,167.1 776.7,169.2 776.8,172.2 777.0,176.9 777.1,182.0 777.3,182.0 777.5,182.0 777.6,176.9 777.8,172.2 778.0,169.2 778.1,167.1 778.3,165.8 778.5,165.1 778.6,164.8 778.8,165.1 778.9,165.8 779.1,167.1 779.3,169.2 779.4,172.2 779.6,176.9 779.8,182.0 779.9,182.0 780.1,182.0 780.3,176.9 780.4,172.2 780.6,169.2 780.7,167.1 780.9,165.8 781.1,165.1 781.2,164.8 781.4,165.1 781.6,165.8 781.7,167.1 781.9,169.2 782.1,172.2 782.2,176.9 782.4,182.0 782.5,182.0 782.7,182.0 782.9,176.9 783.0,172.2 783.2,169.2 783.4,167.1 783.5,165.8 783.7,165.1 783.9,164.8 784.0,165.1 784.2,165.8 784.3,167.1 784.5,169.2 784.7,172.2 784.8,176.9 785.0,182.0" fill="none" stroke="#4a90d9" stroke-width="1.5" stroke-linejoin="round"/>
  <text x="209.5" y="214" text-anchor="middle" font-size="11" fill="#6b7280">n / N</text>
  <text x="617.5" y="214" text-anchor="middle" font-size="11" fill="#6b7280">Normalized frequency (× Fₛ)</text>
</svg>
