<svg xmlns="http://www.w3.org/2000/svg" viewBox="0 0 560 210" width="560" height="210" style="font-family:system-ui,-apple-system,sans-serif">
  <rect width="560" height="210" fill="#fafafa" rx="6"/>
  <text x="280" y="18" text-anchor="middle" font-size="12" font-weight="600" fill="#374151">blackmanNuttall</text>
  <line x1="52" y1="166.0" x2="257" y2="166.0" stroke="#e5e7eb" stroke-width="0.5"/>
  <text x="48" y="169.0" text-anchor="end" font-size="7.5" fill="#6b7280">0</text>
  <line x1="52" y1="97.0" x2="257" y2="97.0" stroke="#e5e7eb" stroke-width="0.5"/>
  <text x="48" y="100.0" text-anchor="end" font-size="7.5" fill="#6b7280">0.5</text>
  <line x1="52" y1="28.0" x2="257" y2="28.0" stroke="#e5e7eb" stroke-width="0.5"/>
  <text x="48" y="31.0" text-anchor="end" font-size="7.5" fill="#6b7280">1</text>
  <line x1="52.0" y1="28" x2="52.0" y2="166" stroke="#e5e7eb" stroke-width="0.5"/>
  <text x="52.0" y="178" text-anchor="middle" font-size="7.5" fill="#6b7280">0</text>
  <line x1="154.5" y1="28" x2="154.5" y2="166" stroke="#e5e7eb" stroke-width="0.5"/>
  <text x="154.5" y="178" text-anchor="middle" font-size="7.5" fill="#6b7280">0.5</text>
  <line x1="257.0" y1="28" x2="257.0" y2="166" stroke="#e5e7eb" stroke-width="0.5"/>
  <text x="257.0" y="178" text-anchor="middle" font-size="7.5" fill="#6b7280">1</text>
  <line x1="52" y1="28" x2="52" y2="166" stroke="#d1d5db" stroke-width="0.75"/>
  <line x1="52" y1="166" x2="257" y2="166" stroke="#d1d5db" stroke-width="0.75"/>
  <path d="M52.0,166.0 52.0,165.9 52.8,165.9 53.6,165.9 54.4,165.9 55.2,165.9 56.0,165.9 56.8,165.9 57.6,165.9 58.4,165.8 59.2,165.8 60.0,165.8 60.8,165.7 61.6,165.7 62.5,165.6 63.3,165.6 64.1,165.5 64.9,165.4 65.7,165.3 66.5,165.2 67.3,165.1 68.1,165.0 68.9,164.9 69.7,164.8 70.5,164.6 71.3,164.4 72.1,164.3 72.9,164.1 73.7,163.8 74.5,163.6 75.3,163.4 76.1,163.1 76.9,162.8 77.7,162.5 78.5,162.1 79.3,161.8 80.1,161.4 80.9,161.0 81.7,160.5 82.5,160.1 83.4,159.6 84.2,159.0 85.0,158.5 85.8,157.8 86.6,157.2 87.4,156.5 88.2,155.8 89.0,155.1 89.8,154.3 90.6,153.5 91.4,152.6 92.2,151.7 93.0,150.7 93.8,149.8 94.6,148.7 95.4,147.6 96.2,146.5 97.0,145.3 97.8,144.1 98.6,142.9 99.4,141.5 100.2,140.2 101.0,138.8 101.8,137.3 102.6,135.8 103.5,134.3 104.3,132.7 105.1,131.1 105.9,129.4 106.7,127.7 107.5,125.9 108.3,124.1 109.1,122.2 109.9,120.4 110.7,118.4 111.5,116.5 112.3,114.5 113.1,112.4 113.9,110.4 114.7,108.3 115.5,106.2 116.3,104.0 117.1,101.8 117.9,99.6 118.7,97.4 119.5,95.2 120.3,93.0 121.1,90.7 121.9,88.5 122.7,86.2 123.5,83.9 124.4,81.7 125.2,79.4 126.0,77.2 126.8,74.9 127.6,72.7 128.4,70.5 129.2,68.3 130.0,66.2 130.8,64.0 131.6,61.9 132.4,59.9 133.2,57.8 134.0,55.8 134.8,53.9 135.6,52.0 136.4,50.2 137.2,48.4 138.0,46.6 138.8,45.0 139.6,43.4 140.4,41.8 141.2,40.4 142.0,39.0 142.8,37.6 143.6,36.4 144.5,35.2 145.3,34.1 146.1,33.1 146.9,32.2 147.7,31.4 148.5,30.6 149.3,30.0 150.1,29.4 150.9,29.0 151.7,28.6 152.5,28.3 153.3,28.1 154.1,28.0 154.9,28.0 155.7,28.1 156.5,28.3 157.3,28.6 158.1,29.0 158.9,29.4 159.7,30.0 160.5,30.6 161.3,31.4 162.1,32.2 162.9,33.1 163.7,34.1 164.5,35.2 165.4,36.4 166.2,37.6 167.0,39.0 167.8,40.4 168.6,41.8 169.4,43.4 170.2,45.0 171.0,46.6 171.8,48.4 172.6,50.2 173.4,52.0 174.2,53.9 175.0,55.8 175.8,57.8 176.6,59.9 177.4,61.9 178.2,64.0 179.0,66.2 179.8,68.3 180.6,70.5 181.4,72.7 182.2,74.9 183.0,77.2 183.8,79.4 184.6,81.7 185.5,83.9 186.3,86.2 187.1,88.5 187.9,90.7 188.7,93.0 189.5,95.2 190.3,97.4 191.1,99.6 191.9,101.8 192.7,104.0 193.5,106.2 194.3,108.3 195.1,110.4 195.9,112.4 196.7,114.5 197.5,116.5 198.3,118.4 199.1,120.4 199.9,122.2 200.7,124.1 201.5,125.9 202.3,127.7 203.1,129.4 203.9,131.1 204.7,132.7 205.5,134.3 206.4,135.8 207.2,137.3 208.0,138.8 208.8,140.2 209.6,141.5 210.4,142.9 211.2,144.1 212.0,145.3 212.8,146.5 213.6,147.6 214.4,148.7 215.2,149.8 216.0,150.7 216.8,151.7 217.6,152.6 218.4,153.5 219.2,154.3 220.0,155.1 220.8,155.8 221.6,156.5 222.4,157.2 223.2,157.8 224.0,158.5 224.8,159.0 225.6,159.6 226.5,160.1 227.3,160.5 228.1,161.0 228.9,161.4 229.7,161.8 230.5,162.1 231.3,162.5 232.1,162.8 232.9,163.1 233.7,163.4 234.5,163.6 235.3,163.8 236.1,164.1 236.9,164.3 237.7,164.4 238.5,164.6 239.3,164.8 240.1,164.9 240.9,165.0 241.7,165.1 242.5,165.2 243.3,165.3 244.1,165.4 244.9,165.5 245.7,165.6 246.5,165.6 247.4,165.7 248.2,165.7 249.0,165.8 249.8,165.8 250.6,165.8 251.4,165.9 252.2,165.9 253.0,165.9 253.8,165.9 254.6,165.9 255.4,165.9 256.2,165.9 257.0,165.9 L257.0,166.0 Z" fill="#4a90d9" fill-opacity="0.06"/>
  <polyline points="52.0,165.9 52.8,165.9 53.6,165.9 54.4,165.9 55.2,165.9 56.0,165.9 56.8,165.9 57.6,165.9 58.4,165.8 59.2,165.8 60.0,165.8 60.8,165.7 61.6,165.7 62.5,165.6 63.3,165.6 64.1,165.5 64.9,165.4 65.7,165.3 66.5,165.2 67.3,165.1 68.1,165.0 68.9,164.9 69.7,164.8 70.5,164.6 71.3,164.4 72.1,164.3 72.9,164.1 73.7,163.8 74.5,163.6 75.3,163.4 76.1,163.1 76.9,162.8 77.7,162.5 78.5,162.1 79.3,161.8 80.1,161.4 80.9,161.0 81.7,160.5 82.5,160.1 83.4,159.6 84.2,159.0 85.0,158.5 85.8,157.8 86.6,157.2 87.4,156.5 88.2,155.8 89.0,155.1 89.8,154.3 90.6,153.5 91.4,152.6 92.2,151.7 93.0,150.7 93.8,149.8 94.6,148.7 95.4,147.6 96.2,146.5 97.0,145.3 97.8,144.1 98.6,142.9 99.4,141.5 100.2,140.2 101.0,138.8 101.8,137.3 102.6,135.8 103.5,134.3 104.3,132.7 105.1,131.1 105.9,129.4 106.7,127.7 107.5,125.9 108.3,124.1 109.1,122.2 109.9,120.4 110.7,118.4 111.5,116.5 112.3,114.5 113.1,112.4 113.9,110.4 114.7,108.3 115.5,106.2 116.3,104.0 117.1,101.8 117.9,99.6 118.7,97.4 119.5,95.2 120.3,93.0 121.1,90.7 121.9,88.5 122.7,86.2 123.5,83.9 124.4,81.7 125.2,79.4 126.0,77.2 126.8,74.9 127.6,72.7 128.4,70.5 129.2,68.3 130.0,66.2 130.8,64.0 131.6,61.9 132.4,59.9 133.2,57.8 134.0,55.8 134.8,53.9 135.6,52.0 136.4,50.2 137.2,48.4 138.0,46.6 138.8,45.0 139.6,43.4 140.4,41.8 141.2,40.4 142.0,39.0 142.8,37.6 143.6,36.4 144.5,35.2 145.3,34.1 146.1,33.1 146.9,32.2 147.7,31.4 148.5,30.6 149.3,30.0 150.1,29.4 150.9,29.0 151.7,28.6 152.5,28.3 153.3,28.1 154.1,28.0 154.9,28.0 155.7,28.1 156.5,28.3 157.3,28.6 158.1,29.0 158.9,29.4 159.7,30.0 160.5,30.6 161.3,31.4 162.1,32.2 162.9,33.1 163.7,34.1 164.5,35.2 165.4,36.4 166.2,37.6 167.0,39.0 167.8,40.4 168.6,41.8 169.4,43.4 170.2,45.0 171.0,46.6 171.8,48.4 172.6,50.2 173.4,52.0 174.2,53.9 175.0,55.8 175.8,57.8 176.6,59.9 177.4,61.9 178.2,64.0 179.0,66.2 179.8,68.3 180.6,70.5 181.4,72.7 182.2,74.9 183.0,77.2 183.8,79.4 184.6,81.7 185.5,83.9 186.3,86.2 187.1,88.5 187.9,90.7 188.7,93.0 189.5,95.2 190.3,97.4 191.1,99.6 191.9,101.8 192.7,104.0 193.5,106.2 194.3,108.3 195.1,110.4 195.9,112.4 196.7,114.5 197.5,116.5 198.3,118.4 199.1,120.4 199.9,122.2 200.7,124.1 201.5,125.9 202.3,127.7 203.1,129.4 203.9,131.1 204.7,132.7 205.5,134.3 206.4,135.8 207.2,137.3 208.0,138.8 208.8,140.2 209.6,141.5 210.4,142.9 211.2,144.1 212.0,145.3 212.8,146.5 213.6,147.6 214.4,148.7 215.2,149.8 216.0,150.7 216.8,151.7 217.6,152.6 218.4,153.5 219.2,154.3 220.0,155.1 220.8,155.8 221.6,156.5 222.4,157.2 223.2,157.8 224.0,158.5 224.8,159.0 225.6,159.6 226.5,160.1 227.3,160.5 228.1,161.0 228.9,161.4 229.7,161.8 230.5,162.1 231.3,162.5 232.1,162.8 232.9,163.1 233.7,163.4 234.5,163.6 235.3,163.8 236.1,164.1 236.9,164.3 237.7,164.4 238.5,164.6 239.3,164.8 240.1,164.9 240.9,165.0 241.7,165.1 242.5,165.2 243.3,165.3 244.1,165.4 244.9,165.5 245.7,165.6 246.5,165.6 247.4,165.7 248.2,165.7 249.0,165.8 249.8,165.8 250.6,165.8 251.4,165.9 252.2,165.9 253.0,165.9 253.8,165.9 254.6,165.9 255.4,165.9 256.2,165.9 257.0,165.9" fill="none" stroke="#4a90d9" stroke-width="1.2" stroke-linejoin="round"/>
  <line x1="322" y1="28.0" x2="527" y2="28.0" stroke="#e5e7eb" stroke-width="0.5"/>
  <text x="318" y="31.0" text-anchor="end" font-size="7.5" fill="#6b7280">0</text>
  <line x1="322" y1="74.0" x2="527" y2="74.0" stroke="#e5e7eb" stroke-width="0.5"/>
  <text x="318" y="77.0" text-anchor="end" font-size="7.5" fill="#6b7280">-40</text>
  <line x1="322" y1="120.0" x2="527" y2="120.0" stroke="#e5e7eb" stroke-width="0.5"/>
  <text x="318" y="123.0" text-anchor="end" font-size="7.5" fill="#6b7280">-80</text>
  <line x1="322" y1="166.0" x2="527" y2="166.0" stroke="#e5e7eb" stroke-width="0.5"/>
  <text x="318" y="169.0" text-anchor="end" font-size="7.5" fill="#6b7280">-120</text>
  <line x1="322.0" y1="28" x2="322.0" y2="166" stroke="#e5e7eb" stroke-width="0.5"/>
  <text x="322.0" y="178" text-anchor="middle" font-size="7.5" fill="#6b7280">0</text>
  <line x1="363.0" y1="28" x2="363.0" y2="166" stroke="#e5e7eb" stroke-width="0.5"/>
  <text x="363.0" y="178" text-anchor="middle" font-size="7.5" fill="#6b7280">0.1</text>
  <line x1="404.0" y1="28" x2="404.0" y2="166" stroke="#e5e7eb" stroke-width="0.5"/>
  <text x="404.0" y="178" text-anchor="middle" font-size="7.5" fill="#6b7280">0.2</text>
  <line x1="445.0" y1="28" x2="445.0" y2="166" stroke="#e5e7eb" stroke-width="0.5"/>
  <text x="445.0" y="178" text-anchor="middle" font-size="7.5" fill="#6b7280">0.3</text>
  <line x1="486.0" y1="28" x2="486.0" y2="166" stroke="#e5e7eb" stroke-width="0.5"/>
  <text x="486.0" y="178" text-anchor="middle" font-size="7.5" fill="#6b7280">0.4</text>
  <line x1="527.0" y1="28" x2="527.0" y2="166" stroke="#e5e7eb" stroke-width="0.5"/>
  <text x="527.0" y="178" text-anchor="middle" font-size="7.5" fill="#6b7280">0.5</text>
  <line x1="322" y1="28" x2="322" y2="166" stroke="#d1d5db" stroke-width="0.75"/>
  <line x1="322" y1="166" x2="527" y2="166" stroke="#d1d5db" stroke-width="0.75"/>
  <polyline points="322.0,28.0 322.1,28.0 322.2,28.1 322.3,28.1 322.4,28.2 322.5,28.4 322.6,28.5 322.7,28.7 322.8,29.0 322.9,29.2 323.0,29.5 323.1,29.8 323.2,30.2 323.3,30.6 323.4,31.0 323.5,31.4 323.6,31.9 323.7,32.4 323.8,33.0 323.9,33.6 324.0,34.2 324.1,34.8 324.2,35.5 324.3,36.3 324.4,37.0 324.5,37.8 324.6,38.7 324.7,39.5 324.8,40.5 324.9,41.4 325.0,42.4 325.1,43.5 325.2,44.6 325.3,45.7 325.4,46.9 325.5,48.1 325.6,49.4 325.7,50.7 325.8,52.1 325.9,53.6 326.0,55.1 326.1,56.7 326.2,58.3 326.3,60.0 326.4,61.8 326.5,63.7 326.6,65.6 326.7,67.7 326.8,69.8 326.9,72.0 327.0,74.4 327.1,76.8 327.2,79.4 327.3,82.2 327.4,85.1 327.5,88.3 327.6,91.6 327.7,95.2 327.8,99.1 327.9,103.5 328.0,108.3 328.1,113.9 328.2,120.6 328.3,129.4 328.4,144.4 328.5,149.6 328.6,144.4 328.7,147.5 328.8,161.5 328.9,153.0 329.0,145.2 329.1,142.1 329.2,141.1 329.3,141.5 329.4,143.0 329.5,145.9 329.6,150.7 329.7,160.3 329.8,166.0 329.9,156.4 330.0,152.9 330.1,152.1 330.2,153.4 330.3,157.5 330.4,166.0 330.5,162.1 330.6,152.9 330.7,148.2 330.8,145.3 330.9,143.5 331.0,142.4 331.1,142.0 331.2,142.1 331.3,142.8 331.4,144.2 331.5,146.5 331.6,150.3 331.7,157.5 331.8,166.0 331.9,155.3 332.0,149.1 332.1,145.6 332.2,143.4 332.3,141.9 332.4,141.1 332.5,140.6 332.6,140.6 332.7,141.0 332.8,141.7 332.9,142.9 333.0,144.6 333.1,147.0 333.2,150.4 333.3,155.7 333.4,166.0 333.5,165.8 333.6,156.1 333.7,151.7 333.8,149.2 333.9,147.6 334.0,146.6 334.1,146.1 334.2,145.9 334.3,146.1 334.4,146.6 334.5,147.3 334.6,148.4 334.7,149.7 334.8,151.4 334.9,153.5 335.0,156.0 335.1,159.3 335.2,163.9 335.3,166.0 335.4,166.0 335.5,166.0 335.6,165.5 335.7,162.1 335.8,159.7 335.9,157.9 336.0,156.5 336.1,155.4 336.2,154.3 336.3,153.5 336.4,152.7 336.5,152.1 336.6,151.6 336.7,151.3 336.8,151.2 336.9,151.2 337.0,151.5 337.1,152.1 337.2,153.1 337.3,154.6 337.4,156.8 337.5,160.5 337.6,166.0 337.7,166.0 337.8,164.7 337.9,158.1 338.0,154.2 338.1,151.5 338.2,149.5 338.3,148.1 338.4,147.1 338.5,146.4 338.6,146.1 338.7,146.2 338.8,146.6 338.9,147.4 339.0,148.7 339.1,150.8 339.2,154.0 339.3,159.5 339.4,166.0 339.5,164.0 339.6,155.6 339.7,151.2 339.8,148.4 339.9,146.4 340.0,145.1 340.1,144.2 340.2,143.7 340.3,143.5 340.4,143.8 340.5,144.4 340.6,145.5 340.7,147.2 340.8,149.8 340.9,153.9 341.0,162.1 341.1,166.0 341.2,157.0 341.3,151.3 341.4,147.8 341.5,145.6 341.6,144.0 341.7,142.9 341.8,142.3 341.9,142.1 342.0,142.3 342.1,142.8 342.2,143.8 342.3,145.4 342.4,147.7 342.5,151.4 342.6,157.9 342.7,166.0 342.8,158.4 342.9,151.4 343.0,147.6 343.1,145.1 343.2,143.4 343.3,142.3 343.4,141.6 343.5,141.3 343.6,141.4 343.7,141.9 343.8,142.9 343.9,144.4 344.0,146.6 344.1,149.9 344.2,155.8 344.3,166.0 344.4,159.6 344.5,151.7 344.6,147.6 344.7,144.9 344.8,143.1 344.9,141.9 345.0,141.2 345.1,140.9 345.2,141.0 345.3,141.5 345.4,142.3 345.5,143.8 345.6,145.9 345.7,149.1 345.8,154.5 345.9,166.0 346.0,160.9 346.1,152.0 346.2,147.6 346.3,144.9 346.4,143.0 346.5,141.8 346.6,141.1 346.7,140.7 346.8,140.8 346.9,141.2 347.0,142.1 347.1,143.4 347.2,145.5 347.3,148.6 347.4,153.7 347.5,166.0 347.6,162.0 347.7,152.4 347.8,147.8 347.9,145.0 348.0,143.1 348.1,141.8 348.2,141.0 348.3,140.7 348.4,140.7 348.5,141.1 348.6,141.9 348.7,143.3 348.8,145.3 348.9,148.3 349.0,153.3 349.1,164.6 349.2,163.1 349.3,152.8 349.4,148.0 349.5,145.1 349.6,143.2 349.7,141.9 349.8,141.1 349.9,140.7 350.0,140.7 350.1,141.1 350.2,141.9 350.3,143.2 350.4,145.2 350.5,148.2 350.6,153.0 350.7,163.6 350.8,164.2 350.9,153.2 351.0,148.3 351.1,145.3 351.2,143.3 351.3,142.0 351.4,141.2 351.5,140.8 351.6,140.8 351.7,141.2 351.8,142.0 351.9,143.3 352.0,145.2 352.1,148.1 352.2,152.8 352.3,163.0 352.4,165.2 352.5,153.6 352.6,148.6 352.7,145.6 352.8,143.5 352.9,142.2 353.0,141.4 353.1,141.0 353.2,140.9 353.3,141.3 353.4,142.1 353.5,143.4 353.6,145.3 353.7,148.2 353.8,152.8 353.9,162.5 354.0,166.0 354.1,154.0 354.2,148.9 354.3,145.8 354.4,143.8 354.5,142.4 354.6,141.6 354.7,141.1 354.8,141.1 354.9,141.5 355.0,142.2 355.1,143.5 355.2,145.4 355.3,148.2 355.4,152.8 355.5,162.2 355.6,166.0 355.7,154.4 355.8,149.2 355.9,146.1 356.0,144.0 356.1,142.6 356.3,141.8 356.4,141.3 356.5,141.3 356.6,141.7 356.7,142.4 356.8,143.7 356.9,145.6 357.0,148.4 357.1,152.8 357.2,162.1 357.3,166.0 357.4,154.8 357.5,149.5 357.6,146.3 357.7,144.3 357.8,142.9 357.9,142.0 358.0,141.6 358.1,141.5 358.2,141.9 358.3,142.6 358.4,143.9 358.5,145.7 358.6,148.5 358.7,152.9 358.8,161.9 358.9,166.0 359.0,155.1 359.1,149.8 359.2,146.6 359.3,144.5 359.4,143.1 359.5,142.2 359.6,141.8 359.7,141.7 359.8,142.1 359.9,142.8 360.0,144.1 360.1,145.9 360.2,148.7 360.3,153.0 360.4,161.9 360.5,166.0 360.6,155.5 360.7,150.1 360.8,146.9 360.9,144.8 361.0,143.4 361.1,142.5 361.2,142.0 361.3,142.0 361.4,142.3 361.5,143.0 361.6,144.3 361.7,146.1 361.8,148.8 361.9,153.2 362.0,161.9 362.1,166.0 362.2,155.9 362.3,150.4 362.4,147.2 362.5,145.1 362.6,143.6 362.7,142.7 362.8,142.3 362.9,142.2 363.0,142.5 363.1,143.3 363.2,144.5 363.3,146.3 363.4,149.0 363.5,153.3 363.6,161.9 363.7,166.0 363.8,156.2 363.9,150.7 364.0,147.5 364.1,145.3 364.2,143.9 364.3,143.0 364.4,142.5 364.5,142.5 364.6,142.8 364.7,143.5 364.8,144.7 364.9,146.5 365.0,149.2 365.1,153.5 365.2,161.9 365.3,166.0 365.4,156.6 365.5,151.0 365.6,147.7 365.7,145.6 365.8,144.2 365.9,143.2 366.0,142.8 366.1,142.7 366.2,143.0 366.3,143.7 366.4,144.9 366.5,146.7 366.6,149.4 366.7,153.7 366.8,162.0 366.9,166.0 367.0,156.9 367.1,151.3 367.2,148.0 367.3,145.8 367.4,144.4 367.5,143.5 367.6,143.0 367.7,142.9 367.8,143.2 367.9,144.0 368.0,145.1 368.1,146.9 368.2,149.6 368.3,153.8 368.4,162.1 368.5,166.0 368.6,157.2 368.7,151.6 368.8,148.3 368.9,146.1 369.0,144.7 369.1,143.7 369.2,143.3 369.3,143.2 369.4,143.5 369.5,144.2 369.6,145.4 369.7,147.2 369.8,149.8 369.9,154.0 370.0,162.2 370.1,166.0 370.2,157.6 370.3,151.9 370.4,148.5 370.5,146.4 370.6,144.9 370.7,144.0 370.8,143.5 370.9,143.4 371.0,143.7 371.1,144.4 371.2,145.6 371.3,147.4 371.4,150.0 371.5,154.2 371.6,162.3 371.7,166.0 371.8,157.9 371.9,152.1 372.0,148.8 372.1,146.6 372.2,145.1 372.3,144.2 372.4,143.7 372.5,143.6 372.6,143.9 372.7,144.6 372.8,145.8 372.9,147.6 373.0,150.2 373.1,154.4 373.2,162.4 373.3,166.0 373.4,158.2 373.5,152.4 373.6,149.1 373.7,146.9 373.8,145.4 373.9,144.4 374.0,144.0 374.1,143.9 374.2,144.1 374.3,144.8 374.4,146.0 374.5,147.8 374.6,150.4 374.7,154.6 374.8,162.5 374.9,166.0 375.0,158.5 375.1,152.7 375.2,149.3 375.3,147.1 375.4,145.6 375.5,144.7 375.6,144.2 375.7,144.1 375.8,144.4 375.9,145.1 376.0,146.2 376.1,148.0 376.2,150.6 376.3,154.7 376.4,162.7 376.5,166.0 376.6,158.7 376.7,152.9 376.8,149.5 376.9,147.3 377.0,145.8 377.1,144.9 377.2,144.4 377.3,144.3 377.4,144.6 377.5,145.3 377.6,146.4 377.7,148.2 377.8,150.8 377.9,154.9 378.0,162.8 378.1,166.0 378.2,159.0 378.3,153.2 378.4,149.8 378.5,147.6 378.6,146.1 378.7,145.1 378.8,144.6 378.9,144.5 379.0,144.8 379.1,145.5 379.2,146.6 379.3,148.4 379.4,151.0 379.5,155.1 379.6,162.9 379.7,166.0 379.8,159.3 379.9,153.4 380.0,150.0 380.1,147.8 380.2,146.3 380.3,145.3 380.4,144.8 380.5,144.7 380.6,145.0 380.7,145.7 380.8,146.8 380.9,148.6 381.0,151.2 381.1,155.3 381.2,163.1 381.3,166.0 381.4,159.6 381.5,153.6 381.6,150.2 381.7,148.0 381.8,146.5 381.9,145.6 382.0,145.0 382.1,144.9 382.2,145.2 382.3,145.9 382.4,147.0 382.5,148.8 382.6,151.4 382.7,155.5 382.8,163.2 382.9,166.0 383.0,159.8 383.1,153.9 383.2,150.5 383.3,148.2 383.4,146.7 383.5,145.8 383.6,145.3 383.7,145.1 383.8,145.4 383.9,146.1 384.0,147.2 384.1,149.0 384.2,151.6 384.3,155.6 384.4,163.3 384.5,166.0 384.6,160.1 384.7,154.1 384.8,150.7 384.9,148.4 385.0,146.9 385.1,146.0 385.2,145.5 385.3,145.3 385.4,145.6 385.5,146.3 385.6,147.4 385.7,149.2 385.8,151.8 385.9,155.8 386.0,163.5 386.1,166.0 386.2,160.3 386.3,154.3 386.4,150.9 386.5,148.6 386.6,147.1 386.7,146.2 386.8,145.6 386.9,145.5 387.0,145.8 387.1,146.5 387.2,147.6 387.3,149.4 387.4,151.9 387.5,156.0 387.6,163.6 387.7,166.0 387.8,160.5 387.9,154.5 388.0,151.1 388.1,148.8 388.2,147.3 388.3,146.4 388.4,145.8 388.5,145.7 388.6,146.0 388.7,146.7 388.8,147.8 388.9,149.5 389.0,152.1 389.1,156.1 389.2,163.7 389.3,166.0 389.4,160.8 389.5,154.7 389.6,151.3 389.7,149.0 389.8,147.5 389.9,146.6 390.0,146.0 390.1,145.9 390.2,146.2 390.3,146.8 390.4,148.0 390.5,149.7 390.6,152.3 390.7,156.3 390.8,163.9 390.9,166.0 391.0,161.0 391.1,154.9 391.2,151.5 391.3,149.2 391.4,147.7 391.5,146.7 391.6,146.2 391.7,146.1 391.8,146.4 391.9,147.0 392.0,148.2 392.1,149.9 392.2,152.4 392.3,156.4 392.4,164.0 392.5,166.0 392.6,161.2 392.7,155.1 392.8,151.7 392.9,149.4 393.0,147.9 393.1,146.9 393.2,146.4 393.3,146.3 393.4,146.5 393.5,147.2 393.6,148.3 393.7,150.1 393.8,152.6 393.9,156.6 394.0,164.1 394.1,166.0 394.2,161.4 394.3,155.3 394.4,151.9 394.5,149.6 394.6,148.1 394.7,147.1 394.8,146.6 394.9,146.4 395.0,146.7 395.1,147.4 395.2,148.5 395.3,150.2 395.4,152.8 395.5,156.8 395.6,164.3 395.7,166.0 395.8,161.6 395.9,155.5 396.0,152.0 396.1,149.8 396.2,148.3 396.3,147.3 396.4,146.7 396.5,146.6 396.6,146.9 396.7,147.5 396.8,148.7 396.9,150.4 397.0,152.9 397.1,156.9 397.2,164.4 397.3,166.0 397.4,161.8 397.5,155.7 397.6,152.2 397.7,150.0 397.8,148.4 397.9,147.4 398.0,146.9 398.1,146.8 398.2,147.0 398.3,147.7 398.4,148.8 398.5,150.5 398.6,153.1 398.7,157.1 398.8,164.5 398.9,166.0 399.0,162.0 399.1,155.9 399.2,152.4 399.3,150.1 399.4,148.6 399.5,147.6 399.6,147.1 399.7,146.9 399.8,147.2 399.9,147.9 400.0,149.0 400.1,150.7 400.2,153.2 400.3,157.2 400.4,164.6 400.5,166.0 400.6,162.2 400.7,156.1 400.8,152.6 400.9,150.3 401.0,148.8 401.1,147.8 401.2,147.2 401.3,147.1 401.4,147.4 401.5,148.0 401.6,149.1 401.7,150.8 401.8,153.4 401.9,157.3 402.0,164.8 402.1,166.0 402.2,162.4 402.3,156.3 402.4,152.7 402.5,150.5 402.6,148.9 402.7,147.9 402.8,147.4 402.9,147.3 403.0,147.5 403.1,148.2 403.2,149.3 403.3,151.0 403.4,153.5 403.5,157.5 403.6,164.9 403.7,166.0 403.8,162.6 403.9,156.4 404.0,152.9 404.1,150.6 404.2,149.1 404.3,148.1 404.4,147.6 404.5,147.4 404.6,147.7 404.7,148.3 404.8,149.4 404.9,151.1 405.0,153.7 405.1,157.6 405.2,165.0 405.3,166.0 405.4,162.8 405.5,156.6 405.6,153.1 405.7,150.8 405.8,149.2 405.9,148.2 406.0,147.7 406.1,147.6 406.2,147.8 406.3,148.5 406.4,149.6 406.5,151.3 406.6,153.8 406.7,157.8 406.8,165.1 406.9,166.0 407.0,162.9 407.1,156.7 407.2,153.2 407.3,150.9 407.4,149.4 407.5,148.4 407.6,147.9 407.7,147.7 407.8,148.0 407.9,148.6 408.0,149.7 408.1,151.4 408.2,154.0 408.3,157.9 408.4,165.2 408.5,166.0 408.6,163.1 408.7,156.9 408.8,153.4 408.9,151.1 409.0,149.5 409.1,148.5 409.2,148.0 409.3,147.9 409.4,148.1 409.5,148.8 409.6,149.9 409.7,151.6 409.8,154.1 409.9,158.0 410.0,165.3 410.1,166.0 410.2,163.3 410.3,157.1 410.4,153.5 410.5,151.2 410.6,149.7 410.7,148.7 410.8,148.1 410.9,148.0 411.0,148.2 411.1,148.9 411.2,150.0 411.3,151.7 411.4,154.2 411.5,158.1 411.6,165.4 411.7,166.0 411.8,163.4 411.9,157.2 412.0,153.7 412.1,151.4 412.2,149.8 412.3,148.8 412.4,148.3 412.5,148.1 412.6,148.4 412.7,149.0 412.8,150.1 412.9,151.8 413.0,154.3 413.1,158.3 413.2,165.5 413.3,166.0 413.4,163.6 413.5,157.4 413.6,153.8 413.7,151.5 413.8,150.0 413.9,149.0 414.0,148.4 414.1,148.3 414.2,148.5 414.3,149.2 414.4,150.3 414.5,152.0 414.6,154.5 414.7,158.4 414.8,165.7 414.9,166.0 415.0,163.8 415.1,157.5 415.2,154.0 415.3,151.6 415.4,150.1 415.5,149.1 415.6,148.5 415.7,148.4 415.8,148.6 415.9,149.3 416.0,150.4 416.1,152.1 416.2,154.6 416.3,158.5 416.4,165.8 416.5,166.0 416.6,163.9 416.7,157.6 416.8,154.1 416.9,151.8 417.0,150.2 417.1,149.2 417.2,148.7 417.3,148.5 417.4,148.8 417.5,149.4 417.6,150.5 417.7,152.2 417.8,154.7 417.9,158.6 418.0,165.9 418.1,166.0 418.2,164.1 418.3,157.8 418.4,154.2 418.5,151.9 418.6,150.4 418.7,149.4 418.8,148.8 418.9,148.7 419.0,148.9 419.1,149.5 419.2,150.6 419.3,152.3 419.4,154.8 419.5,158.7 419.6,166.0 419.7,166.0 419.8,164.2 419.9,157.9 420.0,154.4 420.1,152.0 420.2,150.5 420.3,149.5 420.4,148.9 420.5,148.8 420.6,149.0 420.7,149.7 420.8,150.8 420.9,152.4 421.0,154.9 421.1,158.8 421.2,166.0 421.3,166.0 421.4,164.3 421.5,158.0 421.6,154.5 421.7,152.2 421.8,150.6 421.9,149.6 422.0,149.0 422.1,148.9 422.2,149.1 422.3,149.8 422.4,150.9 422.5,152.6 422.6,155.1 422.7,158.9 422.8,166.0 422.9,166.0 423.0,164.5 423.1,158.2 423.2,154.6 423.3,152.3 423.4,150.7 423.5,149.7 423.6,149.2 423.7,149.0 423.8,149.2 423.9,149.9 424.0,151.0 424.1,152.7 424.2,155.2 424.3,159.1 424.4,166.0 424.6,166.0 424.7,164.6 424.8,158.3 424.9,154.7 425.0,152.4 425.1,150.8 425.2,149.8 425.3,149.3 425.4,149.1 425.5,149.4 425.6,150.0 425.7,151.1 425.8,152.8 425.9,155.3 426.0,159.2 426.1,166.0 426.2,166.0 426.3,164.7 426.4,158.4 426.5,154.8 426.6,152.5 426.7,151.0 426.8,150.0 426.9,149.4 427.0,149.2 427.1,149.5 427.2,150.1 427.3,151.2 427.4,152.9 427.5,155.4 427.6,159.3 427.7,166.0 427.8,166.0 427.9,164.9 428.0,158.5 428.1,155.0 428.2,152.6 428.3,151.1 428.4,150.1 428.5,149.5 428.6,149.4 428.7,149.6 428.8,150.2 428.9,151.3 429.0,153.0 429.1,155.5 429.2,159.4 429.3,166.0 429.4,166.0 429.5,165.0 429.6,158.7 429.7,155.1 429.8,152.7 429.9,151.2 430.0,150.2 430.1,149.6 430.2,149.5 430.3,149.7 430.4,150.3 430.5,151.4 430.6,153.1 430.7,155.6 430.8,159.5 430.9,166.0 431.0,166.0 431.1,165.1 431.2,158.8 431.3,155.2 431.4,152.9 431.5,151.3 431.6,150.3 431.7,149.7 431.8,149.6 431.9,149.8 432.0,150.4 432.1,151.5 432.2,153.2 432.3,155.7 432.4,159.5 432.5,166.0 432.6,166.0 432.7,165.2 432.8,158.9 432.9,155.3 433.0,153.0 433.1,151.4 433.2,150.4 433.3,149.8 433.4,149.7 433.5,149.9 433.6,150.5 433.7,151.6 433.8,153.3 433.9,155.8 434.0,159.6 434.1,166.0 434.2,166.0 434.3,165.4 434.4,159.0 434.5,155.4 434.6,153.1 434.7,151.5 434.8,150.5 434.9,149.9 435.0,149.8 435.1,150.0 435.2,150.6 435.3,151.7 435.4,153.4 435.5,155.9 435.6,159.7 435.7,166.0 435.8,166.0 435.9,165.5 436.0,159.1 436.1,155.5 436.2,153.2 436.3,151.6 436.4,150.6 436.5,150.0 436.6,149.9 436.7,150.1 436.8,150.7 436.9,151.8 437.0,153.5 437.1,156.0 437.2,159.8 437.3,166.0 437.4,166.0 437.5,165.6 437.6,159.2 437.7,155.6 437.8,153.3 437.9,151.7 438.0,150.7 438.1,150.1 438.2,150.0 438.3,150.2 438.4,150.8 438.5,151.9 438.6,153.6 438.7,156.1 438.8,159.9 438.9,166.0 439.0,166.0 439.1,165.7 439.2,159.3 439.3,155.7 439.4,153.4 439.5,151.8 439.6,150.8 439.7,150.2 439.8,150.0 439.9,150.3 440.0,150.9 440.1,152.0 440.2,153.7 440.3,156.1 440.4,160.0 440.5,166.0 440.6,166.0 440.7,165.8 440.8,159.4 440.9,155.8 441.0,153.5 441.1,151.9 441.2,150.9 441.3,150.3 441.4,150.1 441.5,150.4 441.6,151.0 441.7,152.1 441.8,153.7 441.9,156.2 442.0,160.1 442.1,166.0 442.2,166.0 442.3,165.9 442.4,159.5 442.5,155.9 442.6,153.5 442.7,152.0 442.8,151.0 442.9,150.4 443.0,150.2 443.1,150.5 443.2,151.1 443.3,152.2 443.4,153.8 443.5,156.3 443.6,160.2 443.7,166.0 443.8,166.0 443.9,166.0 444.0,159.6 444.1,156.0 444.2,153.6 444.3,152.1 444.4,151.0 444.5,150.5 444.6,150.3 444.7,150.5 444.8,151.2 444.9,152.3 445.0,153.9 445.1,156.4 445.2,160.2 445.3,166.0 445.4,166.0 445.5,166.0 445.6,159.7 445.7,156.1 445.8,153.7 445.9,152.1 446.0,151.1 446.1,150.6 446.2,150.4 446.3,150.6 446.4,151.2 446.5,152.3 446.6,154.0 446.7,156.5 446.8,160.3 446.9,166.0 447.0,166.0 447.1,166.0 447.2,159.8 447.3,156.2 447.4,153.8 447.5,152.2 447.6,151.2 447.7,150.6 447.8,150.5 447.9,150.7 448.0,151.3 448.1,152.4 448.2,154.1 448.3,156.5 448.4,160.4 448.5,166.0 448.6,166.0 448.7,166.0 448.8,159.9 448.9,156.2 449.0,153.9 449.1,152.3 449.2,151.3 449.3,150.7 449.4,150.6 449.5,150.8 449.6,151.4 449.7,152.5 449.8,154.2 449.9,156.6 450.0,160.5 450.1,166.0 450.2,166.0 450.3,166.0 450.4,159.9 450.5,156.3 450.6,154.0 450.7,152.4 450.8,151.4 450.9,150.8 451.0,150.6 451.1,150.9 451.2,151.5 451.3,152.6 451.4,154.2 451.5,156.7 451.6,160.5 451.7,166.0 451.8,166.0 451.9,166.0 452.0,160.0 452.1,156.4 452.2,154.1 452.3,152.5 452.4,151.5 452.5,150.9 452.6,150.7 452.7,150.9 452.8,151.6 452.9,152.6 453.0,154.3 453.1,156.8 453.2,160.6 453.3,166.0 453.4,166.0 453.5,166.0 453.6,160.1 453.7,156.5 453.8,154.1 453.9,152.6 454.0,151.5 454.1,151.0 454.2,150.8 454.3,151.0 454.4,151.6 454.5,152.7 454.6,154.4 454.7,156.8 454.8,160.7 454.9,166.0 455.0,166.0 455.1,166.0 455.2,160.2 455.3,156.6 455.4,154.2 455.5,152.6 455.6,151.6 455.7,151.0 455.8,150.9 455.9,151.1 456.0,151.7 456.1,152.8 456.2,154.4 456.3,156.9 456.4,160.7 456.5,166.0 456.6,166.0 456.7,166.0 456.8,160.3 456.9,156.6 457.0,154.3 457.1,152.7 457.2,151.7 457.3,151.1 457.4,150.9 457.5,151.1 457.6,151.8 457.7,152.9 457.8,154.5 457.9,157.0 458.0,160.8 458.1,166.0 458.2,166.0 458.3,166.0 458.4,160.3 458.5,156.7 458.6,154.4 458.7,152.8 458.8,151.7 458.9,151.2 459.0,151.0 459.1,151.2 459.2,151.8 459.3,152.9 459.4,154.6 459.5,157.0 459.6,160.8 459.7,166.0 459.8,166.0 459.9,166.0 460.0,160.4 460.1,156.8 460.2,154.4 460.3,152.8 460.4,151.8 460.5,151.2 460.6,151.1 460.7,151.3 460.8,151.9 460.9,153.0 461.0,154.6 461.1,157.1 461.2,160.9 461.3,166.0 461.4,166.0 461.5,166.0 461.6,160.5 461.7,156.9 461.8,154.5 461.9,152.9 462.0,151.9 462.1,151.3 462.2,151.1 462.3,151.3 462.4,152.0 462.5,153.0 462.6,154.7 462.7,157.2 462.8,161.0 462.9,166.0 463.0,166.0 463.1,166.0 463.2,160.6 463.3,156.9 463.4,154.6 463.5,153.0 463.6,151.9 463.7,151.4 463.8,151.2 463.9,151.4 464.0,152.0 464.1,153.1 464.2,154.8 464.3,157.2 464.4,161.0 464.5,166.0 464.6,166.0 464.7,166.0 464.8,160.6 464.9,157.0 465.0,154.6 465.1,153.0 465.2,152.0 465.3,151.4 465.4,151.3 465.5,151.5 465.6,152.1 465.7,153.2 465.8,154.8 465.9,157.3 466.0,161.1 466.1,166.0 466.2,166.0 466.3,166.0 466.4,160.7 466.5,157.0 466.6,154.7 466.7,153.1 466.8,152.1 466.9,151.5 467.0,151.3 467.1,151.5 467.2,152.1 467.3,153.2 467.4,154.9 467.5,157.3 467.6,161.1 467.7,166.0 467.8,166.0 467.9,166.0 468.0,160.8 468.1,157.1 468.2,154.7 468.3,153.2 468.4,152.1 468.5,151.5 468.6,151.4 468.7,151.6 468.8,152.2 468.9,153.3 469.0,154.9 469.1,157.4 469.2,161.2 469.3,166.0 469.4,166.0 469.5,166.0 469.6,160.8 469.7,157.2 469.8,154.8 469.9,153.2 470.0,152.2 470.1,151.6 470.2,151.4 470.3,151.6 470.4,152.3 470.5,153.3 470.6,155.0 470.7,157.4 470.8,161.2 470.9,166.0 471.0,166.0 471.1,166.0 471.2,160.9 471.3,157.2 471.4,154.9 471.5,153.3 471.6,152.2 471.7,151.7 471.8,151.5 471.9,151.7 472.0,152.3 472.1,153.4 472.2,155.0 472.3,157.5 472.4,161.3 472.5,166.0 472.6,166.0 472.7,166.0 472.8,160.9 472.9,157.3 473.0,154.9 473.1,153.3 473.2,152.3 473.3,151.7 473.4,151.5 473.5,151.7 473.6,152.4 473.7,153.4 473.8,155.1 473.9,157.5 474.0,161.3 474.1,166.0 474.2,166.0 474.3,166.0 474.4,161.0 474.5,157.3 474.6,155.0 474.7,153.4 474.8,152.3 474.9,151.8 475.0,151.6 475.1,151.8 475.2,152.4 475.3,153.5 475.4,155.1 475.5,157.6 475.6,161.4 475.7,166.0 475.8,166.0 475.9,166.0 476.0,161.1 476.1,157.4 476.2,155.0 476.3,153.4 476.4,152.4 476.5,151.8 476.6,151.6 476.7,151.8 476.8,152.5 476.9,153.5 477.0,155.2 477.1,157.6 477.2,161.4 477.3,166.0 477.4,166.0 477.5,166.0 477.6,161.1 477.7,157.4 477.8,155.1 477.9,153.5 478.0,152.4 478.1,151.9 478.2,151.7 478.3,151.9 478.4,152.5 478.5,153.6 478.6,155.2 478.7,157.7 478.8,161.4 478.9,166.0 479.0,166.0 479.1,166.0 479.2,161.2 479.3,157.5 479.4,155.1 479.5,153.5 479.6,152.5 479.7,151.9 479.8,151.7 479.9,151.9 480.0,152.5 480.1,153.6 480.2,155.3 480.3,157.7 480.4,161.5 480.5,166.0 480.6,166.0 480.7,166.0 480.8,161.2 480.9,157.5 481.0,155.2 481.1,153.6 481.2,152.5 481.3,151.9 481.4,151.8 481.5,152.0 481.6,152.6 481.7,153.7 481.8,155.3 481.9,157.7 482.0,161.5 482.1,166.0 482.2,166.0 482.3,166.0 482.4,161.3 482.5,157.6 482.6,155.2 482.7,153.6 482.8,152.6 482.9,152.0 483.0,151.8 483.1,152.0 483.2,152.6 483.3,153.7 483.4,155.3 483.5,157.8 483.6,161.6 483.7,166.0 483.8,166.0 483.9,166.0 484.0,161.3 484.1,157.6 484.2,155.2 484.3,153.7 484.4,152.6 484.5,152.0 484.6,151.9 484.7,152.1 484.8,152.7 484.9,153.7 485.0,155.4 485.1,157.8 485.2,161.6 485.3,166.0 485.4,166.0 485.5,166.0 485.6,161.3 485.7,157.7 485.8,155.3 485.9,153.7 486.0,152.7 486.1,152.1 486.2,151.9 486.3,152.1 486.4,152.7 486.5,153.8 486.6,155.4 486.7,157.9 486.8,161.6 486.9,166.0 487.0,166.0 487.1,166.0 487.2,161.4 487.3,157.7 487.4,155.3 487.5,153.7 487.6,152.7 487.7,152.1 487.8,151.9 487.9,152.1 488.0,152.7 488.1,153.8 488.2,155.4 488.3,157.9 488.4,161.7 488.5,166.0 488.6,166.0 488.7,166.0 488.8,161.4 488.9,157.8 489.0,155.4 489.1,153.8 489.2,152.7 489.3,152.1 489.4,152.0 489.5,152.2 489.6,152.8 489.7,153.8 489.8,155.5 489.9,157.9 490.0,161.7 490.1,166.0 490.2,166.0 490.3,166.0 490.4,161.5 490.5,157.8 490.6,155.4 490.7,153.8 490.8,152.8 490.9,152.2 491.0,152.0 491.1,152.2 491.2,152.8 491.3,153.9 491.4,155.5 491.5,157.9 491.6,161.7 491.7,166.0 491.8,166.0 491.9,166.0 492.0,161.5 492.1,157.8 492.2,155.4 492.3,153.8 492.4,152.8 492.5,152.2 492.6,152.0 492.7,152.2 492.9,152.8 493.0,153.9 493.1,155.5 493.2,158.0 493.3,161.7 493.4,166.0 493.5,166.0 493.6,166.0 493.7,161.5 493.8,157.9 493.9,155.5 494.0,153.9 494.1,152.8 494.2,152.2 494.3,152.1 494.4,152.3 494.5,152.9 494.6,153.9 494.7,155.6 494.8,158.0 494.9,161.8 495.0,166.0 495.1,166.0 495.2,166.0 495.3,161.6 495.4,157.9 495.5,155.5 495.6,153.9 495.7,152.9 495.8,152.3 495.9,152.1 496.0,152.3 496.1,152.9 496.2,154.0 496.3,155.6 496.4,158.0 496.5,161.8 496.6,166.0 496.7,166.0 496.8,166.0 496.9,161.6 497.0,157.9 497.1,155.5 497.2,153.9 497.3,152.9 497.4,152.3 497.5,152.1 497.6,152.3 497.7,152.9 497.8,154.0 497.9,155.6 498.0,158.1 498.1,161.8 498.2,166.0 498.3,166.0 498.4,166.0 498.5,161.6 498.6,158.0 498.7,155.6 498.8,154.0 498.9,152.9 499.0,152.3 499.1,152.1 499.2,152.3 499.3,153.0 499.4,154.0 499.5,155.7 499.6,158.1 499.7,161.8 499.8,166.0 499.9,166.0 500.0,166.0 500.1,161.7 500.2,158.0 500.3,155.6 500.4,154.0 500.5,152.9 500.6,152.4 500.7,152.2 500.8,152.4 500.9,153.0 501.0,154.0 501.1,155.7 501.2,158.1 501.3,161.9 501.4,166.0 501.5,166.0 501.6,166.0 501.7,161.7 501.8,158.0 501.9,155.6 502.0,154.0 502.1,153.0 502.2,152.4 502.3,152.2 502.4,152.4 502.5,153.0 502.6,154.1 502.7,155.7 502.8,158.1 502.9,161.9 503.0,166.0 503.1,166.0 503.2,166.0 503.3,161.7 503.4,158.0 503.5,155.6 503.6,154.0 503.7,153.0 503.8,152.4 503.9,152.2 504.0,152.4 504.1,153.0 504.2,154.1 504.3,155.7 504.4,158.1 504.5,161.9 504.6,166.0 504.7,166.0 504.8,166.0 504.9,161.8 505.0,158.1 505.1,155.7 505.2,154.1 505.3,153.0 505.4,152.4 505.5,152.2 505.6,152.4 505.7,153.0 505.8,154.1 505.9,155.7 506.0,158.2 506.1,161.9 506.2,166.0 506.3,166.0 506.4,166.0 506.5,161.8 506.6,158.1 506.7,155.7 506.8,154.1 506.9,153.0 507.0,152.4 507.1,152.3 507.2,152.5 507.3,153.1 507.4,154.1 507.5,155.7 507.6,158.2 507.7,161.9 507.8,166.0 507.9,166.0 508.0,166.0 508.1,161.8 508.2,158.1 508.3,155.7 508.4,154.1 508.5,153.1 508.6,152.5 508.7,152.3 508.8,152.5 508.9,153.1 509.0,154.1 509.1,155.8 509.2,158.2 509.3,161.9 509.4,166.0 509.5,166.0 509.6,166.0 509.7,161.8 509.8,158.1 509.9,155.7 510.0,154.1 510.1,153.1 510.2,152.5 510.3,152.3 510.4,152.5 510.5,153.1 510.6,154.2 510.7,155.8 510.8,158.2 510.9,161.9 511.0,166.0 511.1,166.0 511.2,166.0 511.3,161.8 511.4,158.1 511.5,155.7 511.6,154.1 511.7,153.1 511.8,152.5 511.9,152.3 512.0,152.5 512.1,153.1 512.2,154.2 512.3,155.8 512.4,158.2 512.5,161.9 512.6,166.0 512.7,166.0 512.8,166.0 512.9,161.9 513.0,158.2 513.1,155.8 513.2,154.1 513.3,153.1 513.4,152.5 513.5,152.3 513.6,152.5 513.7,153.1 513.8,154.2 513.9,155.8 514.0,158.2 514.1,162.0 514.2,166.0 514.3,166.0 514.4,166.0 514.5,161.9 514.6,158.2 514.7,155.8 514.8,154.2 514.9,153.1 515.0,152.5 515.1,152.3 515.2,152.5 515.3,153.1 515.4,154.2 515.5,155.8 515.6,158.2 515.7,162.0 515.8,166.0 515.9,166.0 516.0,166.0 516.1,161.9 516.2,158.2 516.3,155.8 516.4,154.2 516.5,153.1 516.6,152.5 516.7,152.3 516.8,152.5 516.9,153.1 517.0,154.2 517.1,155.8 517.2,158.2 517.3,162.0 517.4,166.0 517.5,166.0 517.6,166.0 517.7,161.9 517.8,158.2 517.9,155.8 518.0,154.2 518.1,153.1 518.2,152.5 518.3,152.3 518.4,152.5 518.5,153.1 518.6,154.2 518.7,155.8 518.8,158.2 518.9,162.0 519.0,166.0 519.1,166.0 519.2,166.0 519.3,161.9 519.4,158.2 519.5,155.8 519.6,154.2 519.7,153.1 519.8,152.5 519.9,152.4 520.0,152.6 520.1,153.2 520.2,154.2 520.3,155.8 520.4,158.2 520.5,162.0 520.6,166.0 520.7,166.0 520.8,166.0 520.9,161.9 521.0,158.2 521.1,155.8 521.2,154.2 521.3,153.2 521.4,152.6 521.5,152.4 521.6,152.6 521.7,153.2 521.8,154.2 521.9,155.8 522.0,158.2 522.1,162.0 522.2,166.0 522.3,166.0 522.4,166.0 522.5,161.9 522.6,158.2 522.7,155.8 522.8,154.2 522.9,153.2 523.0,152.6 523.1,152.4 523.2,152.6 523.3,153.2 523.4,154.2 523.5,155.8 523.6,158.2 523.7,162.0 523.8,166.0 523.9,166.0 524.0,166.0 524.1,162.0 524.2,158.2 524.3,155.8 524.4,154.2 524.5,153.2 524.6,152.6 524.7,152.4 524.8,152.6 524.9,153.2 525.0,154.2 525.1,155.8 525.2,158.2 525.3,162.0 525.4,166.0 525.5,166.0 525.6,166.0 525.7,162.0 525.8,158.2 525.9,155.8 526.0,154.2 526.1,153.2 526.2,152.6 526.3,152.4 526.4,152.6 526.5,153.2 526.6,154.2 526.7,155.8 526.8,158.2 526.9,162.0 527.0,166.0" fill="none" stroke="#4a90d9" stroke-width="1.2" stroke-linejoin="round"/>
  <text x="154.5" y="190" text-anchor="middle" font-size="8" fill="#6b7280">n / N</text>
  <text x="424.5" y="190" text-anchor="middle" font-size="8" fill="#6b7280">Normalized frequency (× Fₛ)</text>
</svg>
