<svg xmlns="http://www.w3.org/2000/svg" viewBox="0 0 560 210" width="560" height="210" style="font-family:system-ui,-apple-system,sans-serif">
  <rect width="560" height="210" fill="#fafafa" rx="6"/>
  <text x="280" y="18" text-anchor="middle" font-size="12" font-weight="600" fill="#374151">blackmanHarris</text>
  <line x1="52" y1="166.0" x2="257" y2="166.0" stroke="#e5e7eb" stroke-width="0.5"/>
  <text x="48" y="169.0" text-anchor="end" font-size="7.5" fill="#6b7280">0</text>
  <line x1="52" y1="97.0" x2="257" y2="97.0" stroke="#e5e7eb" stroke-width="0.5"/>
  <text x="48" y="100.0" text-anchor="end" font-size="7.5" fill="#6b7280">0.5</text>
  <line x1="52" y1="28.0" x2="257" y2="28.0" stroke="#e5e7eb" stroke-width="0.5"/>
  <text x="48" y="31.0" text-anchor="end" font-size="7.5" fill="#6b7280">1</text>
  <line x1="52.0" y1="28" x2="52.0" y2="166" stroke="#e5e7eb" stroke-width="0.5"/>
  <text x="52.0" y="178" text-anchor="middle" font-size="7.5" fill="#6b7280">0</text>
  <line x1="154.5" y1="28" x2="154.5" y2="166" stroke="#e5e7eb" stroke-width="0.5"/>
  <text x="154.5" y="178" text-anchor="middle" font-size="7.5" fill="#6b7280">0.5</text>
  <line x1="257.0" y1="28" x2="257.0" y2="166" stroke="#e5e7eb" stroke-width="0.5"/>
  <text x="257.0" y="178" text-anchor="middle" font-size="7.5" fill="#6b7280">1</text>
  <line x1="52" y1="28" x2="52" y2="166" stroke="#d1d5db" stroke-width="0.75"/>
  <line x1="52" y1="166" x2="257" y2="166" stroke="#d1d5db" stroke-width="0.75"/>
  <path d="M52.0,166.0 52.0,166.0 52.8,166.0 53.6,166.0 54.4,166.0 55.2,166.0 56.0,166.0 56.8,165.9 57.6,165.9 58.4,165.9 59.2,165.9 60.0,165.9 60.8,165.8 61.6,165.8 62.5,165.7 63.3,165.7 64.1,165.6 64.9,165.6 65.7,165.5 66.5,165.4 67.3,165.3 68.1,165.2 68.9,165.1 69.7,165.0 70.5,164.9 71.3,164.7 72.1,164.6 72.9,164.4 73.7,164.2 74.5,164.0 75.3,163.8 76.1,163.5 76.9,163.3 77.7,163.0 78.5,162.7 79.3,162.3 80.1,162.0 80.9,161.6 81.7,161.2 82.5,160.7 83.4,160.2 84.2,159.7 85.0,159.2 85.8,158.6 86.6,158.0 87.4,157.4 88.2,156.7 89.0,156.0 89.8,155.2 90.6,154.4 91.4,153.6 92.2,152.7 93.0,151.8 93.8,150.8 94.6,149.8 95.4,148.8 96.2,147.6 97.0,146.5 97.8,145.3 98.6,144.1 99.4,142.8 100.2,141.4 101.0,140.0 101.8,138.6 102.6,137.1 103.5,135.6 104.3,134.0 105.1,132.4 105.9,130.7 106.7,129.0 107.5,127.3 108.3,125.5 109.1,123.6 109.9,121.7 110.7,119.8 111.5,117.8 112.3,115.8 113.1,113.8 113.9,111.7 114.7,109.6 115.5,107.5 116.3,105.3 117.1,103.1 117.9,100.9 118.7,98.7 119.5,96.4 120.3,94.2 121.1,91.9 121.9,89.6 122.7,87.3 123.5,85.0 124.4,82.7 125.2,80.4 126.0,78.2 126.8,75.9 127.6,73.6 128.4,71.4 129.2,69.2 130.0,67.0 130.8,64.8 131.6,62.6 132.4,60.5 133.2,58.5 134.0,56.5 134.8,54.5 135.6,52.5 136.4,50.7 137.2,48.8 138.0,47.1 138.8,45.4 139.6,43.7 140.4,42.2 141.2,40.6 142.0,39.2 142.8,37.9 143.6,36.6 144.5,35.4 145.3,34.3 146.1,33.3 146.9,32.3 147.7,31.5 148.5,30.7 149.3,30.0 150.1,29.5 150.9,29.0 151.7,28.6 152.5,28.3 153.3,28.1 154.1,28.0 154.9,28.0 155.7,28.1 156.5,28.3 157.3,28.6 158.1,29.0 158.9,29.5 159.7,30.0 160.5,30.7 161.3,31.5 162.1,32.3 162.9,33.3 163.7,34.3 164.5,35.4 165.4,36.6 166.2,37.9 167.0,39.2 167.8,40.6 168.6,42.2 169.4,43.7 170.2,45.4 171.0,47.1 171.8,48.8 172.6,50.7 173.4,52.5 174.2,54.5 175.0,56.5 175.8,58.5 176.6,60.5 177.4,62.6 178.2,64.8 179.0,67.0 179.8,69.2 180.6,71.4 181.4,73.6 182.2,75.9 183.0,78.2 183.8,80.4 184.6,82.7 185.5,85.0 186.3,87.3 187.1,89.6 187.9,91.9 188.7,94.2 189.5,96.4 190.3,98.7 191.1,100.9 191.9,103.1 192.7,105.3 193.5,107.5 194.3,109.6 195.1,111.7 195.9,113.8 196.7,115.8 197.5,117.8 198.3,119.8 199.1,121.7 199.9,123.6 200.7,125.5 201.5,127.3 202.3,129.0 203.1,130.7 203.9,132.4 204.7,134.0 205.5,135.6 206.4,137.1 207.2,138.6 208.0,140.0 208.8,141.4 209.6,142.8 210.4,144.1 211.2,145.3 212.0,146.5 212.8,147.6 213.6,148.8 214.4,149.8 215.2,150.8 216.0,151.8 216.8,152.7 217.6,153.6 218.4,154.4 219.2,155.2 220.0,156.0 220.8,156.7 221.6,157.4 222.4,158.0 223.2,158.6 224.0,159.2 224.8,159.7 225.6,160.2 226.5,160.7 227.3,161.2 228.1,161.6 228.9,162.0 229.7,162.3 230.5,162.7 231.3,163.0 232.1,163.3 232.9,163.5 233.7,163.8 234.5,164.0 235.3,164.2 236.1,164.4 236.9,164.6 237.7,164.7 238.5,164.9 239.3,165.0 240.1,165.1 240.9,165.2 241.7,165.3 242.5,165.4 243.3,165.5 244.1,165.6 244.9,165.6 245.7,165.7 246.5,165.7 247.4,165.8 248.2,165.8 249.0,165.9 249.8,165.9 250.6,165.9 251.4,165.9 252.2,165.9 253.0,166.0 253.8,166.0 254.6,166.0 255.4,166.0 256.2,166.0 257.0,166.0 L257.0,166.0 Z" fill="#4a90d9" fill-opacity="0.06"/>
  <polyline points="52.0,166.0 52.8,166.0 53.6,166.0 54.4,166.0 55.2,166.0 56.0,166.0 56.8,165.9 57.6,165.9 58.4,165.9 59.2,165.9 60.0,165.9 60.8,165.8 61.6,165.8 62.5,165.7 63.3,165.7 64.1,165.6 64.9,165.6 65.7,165.5 66.5,165.4 67.3,165.3 68.1,165.2 68.9,165.1 69.7,165.0 70.5,164.9 71.3,164.7 72.1,164.6 72.9,164.4 73.7,164.2 74.5,164.0 75.3,163.8 76.1,163.5 76.9,163.3 77.7,163.0 78.5,162.7 79.3,162.3 80.1,162.0 80.9,161.6 81.7,161.2 82.5,160.7 83.4,160.2 84.2,159.7 85.0,159.2 85.8,158.6 86.6,158.0 87.4,157.4 88.2,156.7 89.0,156.0 89.8,155.2 90.6,154.4 91.4,153.6 92.2,152.7 93.0,151.8 93.8,150.8 94.6,149.8 95.4,148.8 96.2,147.6 97.0,146.5 97.8,145.3 98.6,144.1 99.4,142.8 100.2,141.4 101.0,140.0 101.8,138.6 102.6,137.1 103.5,135.6 104.3,134.0 105.1,132.4 105.9,130.7 106.7,129.0 107.5,127.3 108.3,125.5 109.1,123.6 109.9,121.7 110.7,119.8 111.5,117.8 112.3,115.8 113.1,113.8 113.9,111.7 114.7,109.6 115.5,107.5 116.3,105.3 117.1,103.1 117.9,100.9 118.7,98.7 119.5,96.4 120.3,94.2 121.1,91.9 121.9,89.6 122.7,87.3 123.5,85.0 124.4,82.7 125.2,80.4 126.0,78.2 126.8,75.9 127.6,73.6 128.4,71.4 129.2,69.2 130.0,67.0 130.8,64.8 131.6,62.6 132.4,60.5 133.2,58.5 134.0,56.5 134.8,54.5 135.6,52.5 136.4,50.7 137.2,48.8 138.0,47.1 138.8,45.4 139.6,43.7 140.4,42.2 141.2,40.6 142.0,39.2 142.8,37.9 143.6,36.6 144.5,35.4 145.3,34.3 146.1,33.3 146.9,32.3 147.7,31.5 148.5,30.7 149.3,30.0 150.1,29.5 150.9,29.0 151.7,28.6 152.5,28.3 153.3,28.1 154.1,28.0 154.9,28.0 155.7,28.1 156.5,28.3 157.3,28.6 158.1,29.0 158.9,29.5 159.7,30.0 160.5,30.7 161.3,31.5 162.1,32.3 162.9,33.3 163.7,34.3 164.5,35.4 165.4,36.6 166.2,37.9 167.0,39.2 167.8,40.6 168.6,42.2 169.4,43.7 170.2,45.4 171.0,47.1 171.8,48.8 172.6,50.7 173.4,52.5 174.2,54.5 175.0,56.5 175.8,58.5 176.6,60.5 177.4,62.6 178.2,64.8 179.0,67.0 179.8,69.2 180.6,71.4 181.4,73.6 182.2,75.9 183.0,78.2 183.8,80.4 184.6,82.7 185.5,85.0 186.3,87.3 187.1,89.6 187.9,91.9 188.7,94.2 189.5,96.4 190.3,98.7 191.1,100.9 191.9,103.1 192.7,105.3 193.5,107.5 194.3,109.6 195.1,111.7 195.9,113.8 196.7,115.8 197.5,117.8 198.3,119.8 199.1,121.7 199.9,123.6 200.7,125.5 201.5,127.3 202.3,129.0 203.1,130.7 203.9,132.4 204.7,134.0 205.5,135.6 206.4,137.1 207.2,138.6 208.0,140.0 208.8,141.4 209.6,142.8 210.4,144.1 211.2,145.3 212.0,146.5 212.8,147.6 213.6,148.8 214.4,149.8 215.2,150.8 216.0,151.8 216.8,152.7 217.6,153.6 218.4,154.4 219.2,155.2 220.0,156.0 220.8,156.7 221.6,157.4 222.4,158.0 223.2,158.6 224.0,159.2 224.8,159.7 225.6,160.2 226.5,160.7 227.3,161.2 228.1,161.6 228.9,162.0 229.7,162.3 230.5,162.7 231.3,163.0 232.1,163.3 232.9,163.5 233.7,163.8 234.5,164.0 235.3,164.2 236.1,164.4 236.9,164.6 237.7,164.7 238.5,164.9 239.3,165.0 240.1,165.1 240.9,165.2 241.7,165.3 242.5,165.4 243.3,165.5 244.1,165.6 244.9,165.6 245.7,165.7 246.5,165.7 247.4,165.8 248.2,165.8 249.0,165.9 249.8,165.9 250.6,165.9 251.4,165.9 252.2,165.9 253.0,166.0 253.8,166.0 254.6,166.0 255.4,166.0 256.2,166.0 257.0,166.0" fill="none" stroke="#4a90d9" stroke-width="1.2" stroke-linejoin="round"/>
  <line x1="322" y1="28.0" x2="527" y2="28.0" stroke="#e5e7eb" stroke-width="0.5"/>
  <text x="318" y="31.0" text-anchor="end" font-size="7.5" fill="#6b7280">0</text>
  <line x1="322" y1="74.0" x2="527" y2="74.0" stroke="#e5e7eb" stroke-width="0.5"/>
  <text x="318" y="77.0" text-anchor="end" font-size="7.5" fill="#6b7280">-40</text>
  <line x1="322" y1="120.0" x2="527" y2="120.0" stroke="#e5e7eb" stroke-width="0.5"/>
  <text x="318" y="123.0" text-anchor="end" font-size="7.5" fill="#6b7280">-80</text>
  <line x1="322" y1="166.0" x2="527" y2="166.0" stroke="#e5e7eb" stroke-width="0.5"/>
  <text x="318" y="169.0" text-anchor="end" font-size="7.5" fill="#6b7280">-120</text>
  <line x1="322.0" y1="28" x2="322.0" y2="166" stroke="#e5e7eb" stroke-width="0.5"/>
  <text x="322.0" y="178" text-anchor="middle" font-size="7.5" fill="#6b7280">0</text>
  <line x1="363.0" y1="28" x2="363.0" y2="166" stroke="#e5e7eb" stroke-width="0.5"/>
  <text x="363.0" y="178" text-anchor="middle" font-size="7.5" fill="#6b7280">0.1</text>
  <line x1="404.0" y1="28" x2="404.0" y2="166" stroke="#e5e7eb" stroke-width="0.5"/>
  <text x="404.0" y="178" text-anchor="middle" font-size="7.5" fill="#6b7280">0.2</text>
  <line x1="445.0" y1="28" x2="445.0" y2="166" stroke="#e5e7eb" stroke-width="0.5"/>
  <text x="445.0" y="178" text-anchor="middle" font-size="7.5" fill="#6b7280">0.3</text>
  <line x1="486.0" y1="28" x2="486.0" y2="166" stroke="#e5e7eb" stroke-width="0.5"/>
  <text x="486.0" y="178" text-anchor="middle" font-size="7.5" fill="#6b7280">0.4</text>
  <line x1="527.0" y1="28" x2="527.0" y2="166" stroke="#e5e7eb" stroke-width="0.5"/>
  <text x="527.0" y="178" text-anchor="middle" font-size="7.5" fill="#6b7280">0.5</text>
  <line x1="322" y1="28" x2="322" y2="166" stroke="#d1d5db" stroke-width="0.75"/>
  <line x1="322" y1="166" x2="527" y2="166" stroke="#d1d5db" stroke-width="0.75"/>
  <polyline points="322.0,28.0 322.1,28.0 322.2,28.1 322.3,28.1 322.4,28.2 322.5,28.4 322.6,28.5 322.7,28.7 322.8,28.9 322.9,29.2 323.0,29.5 323.1,29.8 323.2,30.1 323.3,30.5 323.4,30.9 323.5,31.3 323.6,31.8 323.7,32.3 323.8,32.8 323.9,33.4 324.0,34.0 324.1,34.7 324.2,35.3 324.3,36.0 324.4,36.8 324.5,37.5 324.6,38.4 324.7,39.2 324.8,40.1 324.9,41.0 325.0,42.0 325.1,43.0 325.2,44.1 325.3,45.2 325.4,46.4 325.5,47.6 325.6,48.8 325.7,50.1 325.8,51.5 325.9,52.9 326.0,54.4 326.1,55.9 326.2,57.5 326.3,59.2 326.4,60.9 326.5,62.7 326.6,64.6 326.7,66.6 326.8,68.7 326.9,70.9 327.0,73.2 327.1,75.7 327.2,78.2 327.3,80.9 327.4,83.8 327.5,86.9 327.6,90.2 327.7,93.8 327.8,97.8 327.9,102.1 328.0,107.0 328.1,112.8 328.2,119.7 328.3,129.2 328.4,148.5 328.5,144.6 328.6,142.6 328.7,149.1 328.8,156.9 328.9,142.3 329.0,137.3 329.1,134.9 329.2,133.9 329.3,133.9 329.4,134.8 329.5,136.4 329.6,138.9 329.7,142.4 329.8,147.5 329.9,155.9 330.0,166.0 330.1,160.6 330.2,157.5 330.3,159.1 330.4,166.0 330.5,165.5 330.6,154.2 330.7,148.8 330.8,145.5 330.9,143.5 331.0,142.3 331.1,141.8 331.2,142.1 331.3,143.2 331.4,145.4 331.5,149.5 331.6,159.1 331.7,161.0 331.8,149.0 331.9,143.6 332.0,140.3 332.1,138.1 332.2,136.6 332.3,135.6 332.4,135.0 332.5,134.9 332.6,135.2 332.7,135.9 332.8,137.1 332.9,139.0 333.0,141.8 333.1,146.5 333.2,156.3 333.3,159.7 333.4,147.6 333.5,142.6 333.6,139.5 333.7,137.5 333.8,136.2 333.9,135.5 334.0,135.1 334.1,135.1 334.2,135.6 334.3,136.4 334.4,137.7 334.5,139.7 334.6,142.6 334.7,147.1 334.8,156.2 334.9,163.3 335.0,149.6 335.1,144.4 335.2,141.4 335.3,139.4 335.4,138.1 335.5,137.3 335.6,137.0 335.7,137.0 335.8,137.5 335.9,138.3 336.0,139.7 336.1,141.6 336.2,144.4 336.3,148.7 336.4,157.0 336.5,166.0 336.6,152.8 336.7,147.2 336.8,144.0 336.9,141.9 337.0,140.6 337.1,139.8 337.2,139.5 337.3,139.5 337.4,139.9 337.5,140.7 337.6,142.0 337.7,143.9 337.8,146.6 337.9,150.7 338.0,158.1 338.1,166.0 338.2,156.4 338.3,150.3 338.4,147.0 338.5,144.8 338.6,143.4 338.7,142.6 338.8,142.2 338.9,142.2 339.0,142.5 339.1,143.3 339.2,144.5 339.3,146.3 339.4,148.8 339.5,152.7 339.6,159.4 339.7,166.0 339.8,160.6 339.9,153.8 340.0,150.1 340.1,147.9 340.2,146.4 340.3,145.4 340.4,145.0 340.5,144.9 340.6,145.2 340.7,145.9 340.8,147.1 340.9,148.7 341.0,151.1 341.1,154.7 341.2,160.6 341.3,166.0 341.4,165.4 341.5,157.5 341.6,153.5 341.7,151.0 341.8,149.4 341.9,148.4 342.0,147.9 342.1,147.7 342.2,148.0 342.3,148.6 342.4,149.6 342.5,151.2 342.6,153.4 342.7,156.6 342.8,161.8 342.9,166.0 343.0,166.0 343.1,161.6 343.2,157.1 343.3,154.4 343.4,152.6 343.5,151.5 343.6,150.8 343.7,150.6 343.8,150.8 343.9,151.3 344.0,152.2 344.1,153.6 344.2,155.7 344.3,158.6 344.4,163.0 344.5,166.0 344.6,166.0 344.7,166.0 344.8,161.1 344.9,158.0 345.0,156.0 345.1,154.7 345.2,153.9 345.3,153.6 345.4,153.6 345.5,154.0 345.6,154.8 345.7,156.1 345.8,157.9 345.9,160.4 346.0,164.2 346.1,166.0 346.2,166.0 346.3,166.0 346.4,165.7 346.5,162.0 346.6,159.7 346.7,158.2 346.8,157.2 346.9,156.7 347.0,156.6 347.1,156.9 347.2,157.5 347.3,158.5 347.4,160.1 347.5,162.2 347.6,165.3 347.7,166.0 347.8,166.0 347.9,166.0 348.0,166.0 348.1,166.0 348.2,163.9 348.3,162.0 348.4,160.8 348.5,160.1 348.6,159.8 348.7,159.9 348.8,160.3 348.9,161.1 349.0,162.3 349.1,164.0 349.2,166.0 349.3,166.0 349.4,166.0 349.5,166.0 349.6,166.0 349.7,166.0 349.8,166.0 349.9,166.0 350.0,165.0 350.1,163.9 350.2,163.3 350.3,163.1 350.4,163.2 350.5,163.6 350.6,164.5 350.7,165.7 350.8,166.0 350.9,166.0 351.0,166.0 351.1,166.0 351.2,166.0 351.3,166.0 351.4,166.0 351.5,166.0 351.6,166.0 351.7,166.0 351.8,166.0 351.9,166.0 352.0,166.0 352.1,166.0 352.2,166.0 352.3,166.0 352.4,166.0 352.5,166.0 352.6,166.0 352.7,166.0 352.8,166.0 352.9,166.0 353.0,166.0 353.1,166.0 353.2,166.0 353.3,166.0 353.4,166.0 353.5,166.0 353.6,166.0 353.7,166.0 353.8,166.0 353.9,166.0 354.0,166.0 354.1,166.0 354.2,166.0 354.3,166.0 354.4,166.0 354.5,166.0 354.6,166.0 354.7,166.0 354.8,166.0 354.9,166.0 355.0,166.0 355.1,166.0 355.2,166.0 355.3,166.0 355.4,166.0 355.5,166.0 355.6,166.0 355.7,166.0 355.8,166.0 355.9,166.0 356.0,166.0 356.1,166.0 356.3,166.0 356.4,166.0 356.5,166.0 356.6,166.0 356.7,166.0 356.8,166.0 356.9,166.0 357.0,166.0 357.1,166.0 357.2,166.0 357.3,166.0 357.4,166.0 357.5,166.0 357.6,166.0 357.7,166.0 357.8,166.0 357.9,166.0 358.0,166.0 358.1,166.0 358.2,166.0 358.3,166.0 358.4,166.0 358.5,166.0 358.6,166.0 358.7,166.0 358.8,166.0 358.9,166.0 359.0,166.0 359.1,166.0 359.2,166.0 359.3,166.0 359.4,166.0 359.5,166.0 359.6,166.0 359.7,166.0 359.8,166.0 359.9,166.0 360.0,166.0 360.1,166.0 360.2,166.0 360.3,166.0 360.4,166.0 360.5,166.0 360.6,166.0 360.7,166.0 360.8,166.0 360.9,166.0 361.0,166.0 361.1,166.0 361.2,166.0 361.3,166.0 361.4,166.0 361.5,166.0 361.6,166.0 361.7,166.0 361.8,166.0 361.9,166.0 362.0,166.0 362.1,166.0 362.2,166.0 362.3,166.0 362.4,166.0 362.5,166.0 362.6,166.0 362.7,166.0 362.8,166.0 362.9,166.0 363.0,166.0 363.1,166.0 363.2,166.0 363.3,166.0 363.4,166.0 363.5,166.0 363.6,166.0 363.7,166.0 363.8,166.0 363.9,166.0 364.0,166.0 364.1,166.0 364.2,166.0 364.3,166.0 364.4,166.0 364.5,166.0 364.6,166.0 364.7,166.0 364.8,166.0 364.9,166.0 365.0,166.0 365.1,166.0 365.2,166.0 365.3,166.0 365.4,166.0 365.5,166.0 365.6,166.0 365.7,166.0 365.8,166.0 365.9,166.0 366.0,166.0 366.1,166.0 366.2,166.0 366.3,166.0 366.4,166.0 366.5,166.0 366.6,166.0 366.7,166.0 366.8,166.0 366.9,166.0 367.0,166.0 367.1,166.0 367.2,166.0 367.3,166.0 367.4,166.0 367.5,166.0 367.6,166.0 367.7,166.0 367.8,166.0 367.9,166.0 368.0,166.0 368.1,166.0 368.2,166.0 368.3,166.0 368.4,166.0 368.5,166.0 368.6,166.0 368.7,166.0 368.8,166.0 368.9,166.0 369.0,166.0 369.1,165.9 369.2,166.0 369.3,166.0 369.4,166.0 369.5,166.0 369.6,166.0 369.7,166.0 369.8,166.0 369.9,166.0 370.0,166.0 370.1,166.0 370.2,166.0 370.3,166.0 370.4,166.0 370.5,166.0 370.6,166.0 370.7,165.7 370.8,165.7 370.9,166.0 371.0,166.0 371.1,166.0 371.2,166.0 371.3,166.0 371.4,166.0 371.5,166.0 371.6,166.0 371.7,166.0 371.8,166.0 371.9,166.0 372.0,166.0 372.1,166.0 372.2,166.0 372.3,165.6 372.4,165.5 372.5,165.9 372.6,166.0 372.7,166.0 372.8,166.0 372.9,166.0 373.0,166.0 373.1,166.0 373.2,166.0 373.3,166.0 373.4,166.0 373.5,166.0 373.6,166.0 373.7,166.0 373.8,165.9 373.9,165.5 374.0,165.4 374.1,165.7 374.2,166.0 374.3,166.0 374.4,166.0 374.5,166.0 374.6,166.0 374.7,166.0 374.8,166.0 374.9,166.0 375.0,166.0 375.1,166.0 375.2,166.0 375.3,166.0 375.4,165.9 375.5,165.4 375.6,165.3 375.7,165.6 375.8,166.0 375.9,166.0 376.0,166.0 376.1,166.0 376.2,166.0 376.3,166.0 376.4,166.0 376.5,166.0 376.6,166.0 376.7,166.0 376.8,166.0 376.9,166.0 377.0,165.9 377.1,165.4 377.2,165.3 377.3,165.5 377.4,166.0 377.5,166.0 377.6,166.0 377.7,166.0 377.8,166.0 377.9,166.0 378.0,166.0 378.1,166.0 378.2,166.0 378.3,166.0 378.4,166.0 378.5,166.0 378.6,165.9 378.7,165.4 378.8,165.2 378.9,165.5 379.0,166.0 379.1,166.0 379.2,166.0 379.3,166.0 379.4,166.0 379.5,166.0 379.6,166.0 379.7,166.0 379.8,166.0 379.9,166.0 380.0,166.0 380.1,166.0 380.2,166.0 380.3,165.4 380.4,165.2 380.5,165.5 380.6,166.0 380.7,166.0 380.8,166.0 380.9,166.0 381.0,166.0 381.1,166.0 381.2,166.0 381.3,166.0 381.4,166.0 381.5,166.0 381.6,166.0 381.7,166.0 381.8,166.0 381.9,165.5 382.0,165.3 382.1,165.5 382.2,166.0 382.3,166.0 382.4,166.0 382.5,166.0 382.6,166.0 382.7,166.0 382.8,166.0 382.9,166.0 383.0,166.0 383.1,166.0 383.2,166.0 383.3,166.0 383.4,166.0 383.5,165.5 383.6,165.3 383.7,165.5 383.8,166.0 383.9,166.0 384.0,166.0 384.1,166.0 384.2,166.0 384.3,166.0 384.4,166.0 384.5,166.0 384.6,166.0 384.7,166.0 384.8,166.0 384.9,166.0 385.0,166.0 385.1,165.6 385.2,165.3 385.3,165.5 385.4,166.0 385.5,166.0 385.6,166.0 385.7,166.0 385.8,166.0 385.9,166.0 386.0,166.0 386.1,166.0 386.2,166.0 386.3,166.0 386.4,166.0 386.5,166.0 386.6,166.0 386.7,165.6 386.8,165.4 386.9,165.5 387.0,166.0 387.1,166.0 387.2,166.0 387.3,166.0 387.4,166.0 387.5,166.0 387.6,166.0 387.7,166.0 387.8,166.0 387.9,166.0 388.0,166.0 388.1,166.0 388.2,166.0 388.3,165.7 388.4,165.5 388.5,165.6 388.6,166.0 388.7,166.0 388.8,166.0 388.9,166.0 389.0,166.0 389.1,166.0 389.2,166.0 389.3,166.0 389.4,166.0 389.5,166.0 389.6,166.0 389.7,166.0 389.8,166.0 389.9,165.8 390.0,165.5 390.1,165.6 390.2,166.0 390.3,166.0 390.4,166.0 390.5,166.0 390.6,166.0 390.7,166.0 390.8,166.0 390.9,166.0 391.0,166.0 391.1,166.0 391.2,166.0 391.3,166.0 391.4,166.0 391.5,165.9 391.6,165.6 391.7,165.7 391.8,166.0 391.9,166.0 392.0,166.0 392.1,166.0 392.2,166.0 392.3,166.0 392.4,166.0 392.5,166.0 392.6,166.0 392.7,166.0 392.8,166.0 392.9,166.0 393.0,166.0 393.1,166.0 393.2,165.7 393.3,165.8 393.4,166.0 393.5,166.0 393.6,166.0 393.7,166.0 393.8,166.0 393.9,166.0 394.0,166.0 394.1,166.0 394.2,166.0 394.3,166.0 394.4,166.0 394.5,166.0 394.6,166.0 394.7,166.0 394.8,165.8 394.9,165.9 395.0,166.0 395.1,166.0 395.2,166.0 395.3,166.0 395.4,166.0 395.5,166.0 395.6,166.0 395.7,166.0 395.8,166.0 395.9,166.0 396.0,166.0 396.1,166.0 396.2,166.0 396.3,166.0 396.4,165.9 396.5,165.9 396.6,166.0 396.7,166.0 396.8,166.0 396.9,166.0 397.0,166.0 397.1,166.0 397.2,166.0 397.3,166.0 397.4,166.0 397.5,166.0 397.6,166.0 397.7,166.0 397.8,166.0 397.9,166.0 398.0,166.0 398.1,166.0 398.2,166.0 398.3,166.0 398.4,166.0 398.5,166.0 398.6,166.0 398.7,166.0 398.8,166.0 398.9,166.0 399.0,166.0 399.1,166.0 399.2,166.0 399.3,166.0 399.4,166.0 399.5,166.0 399.6,166.0 399.7,166.0 399.8,166.0 399.9,166.0 400.0,166.0 400.1,166.0 400.2,166.0 400.3,166.0 400.4,166.0 400.5,166.0 400.6,166.0 400.7,166.0 400.8,166.0 400.9,166.0 401.0,166.0 401.1,166.0 401.2,166.0 401.3,166.0 401.4,166.0 401.5,166.0 401.6,166.0 401.7,166.0 401.8,166.0 401.9,166.0 402.0,166.0 402.1,166.0 402.2,166.0 402.3,166.0 402.4,166.0 402.5,166.0 402.6,166.0 402.7,166.0 402.8,166.0 402.9,166.0 403.0,166.0 403.1,166.0 403.2,166.0 403.3,166.0 403.4,166.0 403.5,166.0 403.6,166.0 403.7,166.0 403.8,166.0 403.9,166.0 404.0,166.0 404.1,166.0 404.2,166.0 404.3,166.0 404.4,166.0 404.5,166.0 404.6,166.0 404.7,166.0 404.8,166.0 404.9,166.0 405.0,166.0 405.1,166.0 405.2,166.0 405.3,166.0 405.4,166.0 405.5,166.0 405.6,166.0 405.7,166.0 405.8,166.0 405.9,166.0 406.0,166.0 406.1,166.0 406.2,166.0 406.3,166.0 406.4,166.0 406.5,166.0 406.6,166.0 406.7,166.0 406.8,166.0 406.9,166.0 407.0,166.0 407.1,166.0 407.2,166.0 407.3,166.0 407.4,166.0 407.5,166.0 407.6,166.0 407.7,166.0 407.8,166.0 407.9,166.0 408.0,166.0 408.1,166.0 408.2,166.0 408.3,166.0 408.4,166.0 408.5,166.0 408.6,166.0 408.7,166.0 408.8,166.0 408.9,166.0 409.0,166.0 409.1,166.0 409.2,166.0 409.3,166.0 409.4,166.0 409.5,166.0 409.6,166.0 409.7,166.0 409.8,166.0 409.9,166.0 410.0,166.0 410.1,166.0 410.2,166.0 410.3,166.0 410.4,166.0 410.5,166.0 410.6,166.0 410.7,166.0 410.8,166.0 410.9,166.0 411.0,166.0 411.1,166.0 411.2,166.0 411.3,166.0 411.4,166.0 411.5,166.0 411.6,166.0 411.7,166.0 411.8,166.0 411.9,166.0 412.0,166.0 412.1,166.0 412.2,166.0 412.3,166.0 412.4,166.0 412.5,166.0 412.6,166.0 412.7,166.0 412.8,166.0 412.9,166.0 413.0,166.0 413.1,166.0 413.2,166.0 413.3,166.0 413.4,166.0 413.5,166.0 413.6,166.0 413.7,166.0 413.8,166.0 413.9,166.0 414.0,166.0 414.1,166.0 414.2,166.0 414.3,166.0 414.4,166.0 414.5,166.0 414.6,166.0 414.7,166.0 414.8,166.0 414.9,166.0 415.0,166.0 415.1,166.0 415.2,166.0 415.3,166.0 415.4,166.0 415.5,166.0 415.6,166.0 415.7,166.0 415.8,166.0 415.9,166.0 416.0,166.0 416.1,166.0 416.2,166.0 416.3,166.0 416.4,166.0 416.5,166.0 416.6,166.0 416.7,166.0 416.8,166.0 416.9,166.0 417.0,166.0 417.1,166.0 417.2,166.0 417.3,166.0 417.4,166.0 417.5,166.0 417.6,166.0 417.7,166.0 417.8,166.0 417.9,166.0 418.0,166.0 418.1,166.0 418.2,166.0 418.3,166.0 418.4,166.0 418.5,166.0 418.6,166.0 418.7,166.0 418.8,166.0 418.9,166.0 419.0,166.0 419.1,166.0 419.2,166.0 419.3,166.0 419.4,166.0 419.5,166.0 419.6,166.0 419.7,166.0 419.8,166.0 419.9,166.0 420.0,166.0 420.1,166.0 420.2,166.0 420.3,166.0 420.4,166.0 420.5,166.0 420.6,166.0 420.7,166.0 420.8,166.0 420.9,166.0 421.0,166.0 421.1,166.0 421.2,166.0 421.3,166.0 421.4,166.0 421.5,166.0 421.6,166.0 421.7,166.0 421.8,166.0 421.9,166.0 422.0,166.0 422.1,166.0 422.2,166.0 422.3,166.0 422.4,166.0 422.5,166.0 422.6,166.0 422.7,166.0 422.8,166.0 422.9,166.0 423.0,166.0 423.1,166.0 423.2,166.0 423.3,166.0 423.4,166.0 423.5,166.0 423.6,166.0 423.7,166.0 423.8,166.0 423.9,166.0 424.0,166.0 424.1,166.0 424.2,166.0 424.3,166.0 424.4,166.0 424.6,166.0 424.7,166.0 424.8,166.0 424.9,166.0 425.0,166.0 425.1,166.0 425.2,166.0 425.3,166.0 425.4,166.0 425.5,166.0 425.6,166.0 425.7,166.0 425.8,166.0 425.9,166.0 426.0,166.0 426.1,166.0 426.2,166.0 426.3,166.0 426.4,166.0 426.5,166.0 426.6,166.0 426.7,166.0 426.8,166.0 426.9,166.0 427.0,166.0 427.1,166.0 427.2,166.0 427.3,166.0 427.4,166.0 427.5,166.0 427.6,166.0 427.7,166.0 427.8,166.0 427.9,166.0 428.0,166.0 428.1,166.0 428.2,166.0 428.3,166.0 428.4,166.0 428.5,166.0 428.6,166.0 428.7,166.0 428.8,166.0 428.9,166.0 429.0,166.0 429.1,166.0 429.2,166.0 429.3,166.0 429.4,166.0 429.5,166.0 429.6,166.0 429.7,166.0 429.8,166.0 429.9,166.0 430.0,166.0 430.1,166.0 430.2,166.0 430.3,166.0 430.4,166.0 430.5,166.0 430.6,166.0 430.7,166.0 430.8,166.0 430.9,166.0 431.0,166.0 431.1,166.0 431.2,166.0 431.3,166.0 431.4,166.0 431.5,166.0 431.6,166.0 431.7,166.0 431.8,166.0 431.9,166.0 432.0,166.0 432.1,166.0 432.2,166.0 432.3,166.0 432.4,166.0 432.5,166.0 432.6,166.0 432.7,166.0 432.8,166.0 432.9,166.0 433.0,166.0 433.1,166.0 433.2,166.0 433.3,166.0 433.4,166.0 433.5,166.0 433.6,166.0 433.7,166.0 433.8,166.0 433.9,166.0 434.0,166.0 434.1,166.0 434.2,166.0 434.3,166.0 434.4,166.0 434.5,166.0 434.6,166.0 434.7,166.0 434.8,166.0 434.9,166.0 435.0,166.0 435.1,166.0 435.2,166.0 435.3,166.0 435.4,166.0 435.5,166.0 435.6,166.0 435.7,166.0 435.8,166.0 435.9,166.0 436.0,166.0 436.1,166.0 436.2,166.0 436.3,166.0 436.4,166.0 436.5,166.0 436.6,166.0 436.7,166.0 436.8,166.0 436.9,166.0 437.0,166.0 437.1,166.0 437.2,166.0 437.3,166.0 437.4,166.0 437.5,166.0 437.6,166.0 437.7,166.0 437.8,166.0 437.9,166.0 438.0,166.0 438.1,166.0 438.2,166.0 438.3,166.0 438.4,166.0 438.5,166.0 438.6,166.0 438.7,166.0 438.8,166.0 438.9,166.0 439.0,166.0 439.1,166.0 439.2,166.0 439.3,166.0 439.4,166.0 439.5,166.0 439.6,166.0 439.7,166.0 439.8,166.0 439.9,166.0 440.0,166.0 440.1,166.0 440.2,166.0 440.3,166.0 440.4,166.0 440.5,166.0 440.6,166.0 440.7,166.0 440.8,166.0 440.9,166.0 441.0,166.0 441.1,166.0 441.2,166.0 441.3,166.0 441.4,166.0 441.5,166.0 441.6,166.0 441.7,166.0 441.8,166.0 441.9,166.0 442.0,166.0 442.1,166.0 442.2,166.0 442.3,166.0 442.4,166.0 442.5,166.0 442.6,166.0 442.7,166.0 442.8,166.0 442.9,166.0 443.0,166.0 443.1,166.0 443.2,166.0 443.3,166.0 443.4,166.0 443.5,166.0 443.6,166.0 443.7,166.0 443.8,166.0 443.9,166.0 444.0,166.0 444.1,166.0 444.2,166.0 444.3,166.0 444.4,166.0 444.5,166.0 444.6,166.0 444.7,166.0 444.8,166.0 444.9,166.0 445.0,166.0 445.1,166.0 445.2,166.0 445.3,166.0 445.4,166.0 445.5,166.0 445.6,166.0 445.7,166.0 445.8,166.0 445.9,166.0 446.0,166.0 446.1,166.0 446.2,166.0 446.3,166.0 446.4,166.0 446.5,166.0 446.6,166.0 446.7,166.0 446.8,166.0 446.9,166.0 447.0,166.0 447.1,166.0 447.2,166.0 447.3,166.0 447.4,166.0 447.5,166.0 447.6,166.0 447.7,166.0 447.8,166.0 447.9,166.0 448.0,166.0 448.1,166.0 448.2,166.0 448.3,166.0 448.4,166.0 448.5,166.0 448.6,166.0 448.7,166.0 448.8,166.0 448.9,166.0 449.0,166.0 449.1,166.0 449.2,166.0 449.3,166.0 449.4,166.0 449.5,166.0 449.6,166.0 449.7,166.0 449.8,166.0 449.9,166.0 450.0,166.0 450.1,166.0 450.2,166.0 450.3,166.0 450.4,166.0 450.5,166.0 450.6,166.0 450.7,166.0 450.8,166.0 450.9,166.0 451.0,166.0 451.1,166.0 451.2,166.0 451.3,166.0 451.4,166.0 451.5,166.0 451.6,166.0 451.7,166.0 451.8,166.0 451.9,166.0 452.0,166.0 452.1,166.0 452.2,166.0 452.3,166.0 452.4,166.0 452.5,166.0 452.6,166.0 452.7,166.0 452.8,166.0 452.9,166.0 453.0,166.0 453.1,166.0 453.2,166.0 453.3,166.0 453.4,166.0 453.5,166.0 453.6,166.0 453.7,166.0 453.8,166.0 453.9,166.0 454.0,166.0 454.1,166.0 454.2,166.0 454.3,166.0 454.4,166.0 454.5,166.0 454.6,166.0 454.7,166.0 454.8,166.0 454.9,166.0 455.0,166.0 455.1,166.0 455.2,166.0 455.3,166.0 455.4,166.0 455.5,166.0 455.6,166.0 455.7,166.0 455.8,166.0 455.9,166.0 456.0,166.0 456.1,166.0 456.2,166.0 456.3,166.0 456.4,166.0 456.5,166.0 456.6,166.0 456.7,166.0 456.8,166.0 456.9,166.0 457.0,166.0 457.1,166.0 457.2,166.0 457.3,166.0 457.4,166.0 457.5,166.0 457.6,166.0 457.7,166.0 457.8,166.0 457.9,166.0 458.0,166.0 458.1,166.0 458.2,166.0 458.3,166.0 458.4,166.0 458.5,166.0 458.6,166.0 458.7,166.0 458.8,166.0 458.9,166.0 459.0,166.0 459.1,166.0 459.2,166.0 459.3,166.0 459.4,166.0 459.5,166.0 459.6,166.0 459.7,166.0 459.8,166.0 459.9,166.0 460.0,166.0 460.1,166.0 460.2,166.0 460.3,166.0 460.4,166.0 460.5,166.0 460.6,166.0 460.7,166.0 460.8,166.0 460.9,166.0 461.0,166.0 461.1,166.0 461.2,166.0 461.3,166.0 461.4,166.0 461.5,166.0 461.6,166.0 461.7,166.0 461.8,166.0 461.9,166.0 462.0,166.0 462.1,166.0 462.2,166.0 462.3,166.0 462.4,166.0 462.5,166.0 462.6,166.0 462.7,166.0 462.8,166.0 462.9,166.0 463.0,166.0 463.1,166.0 463.2,166.0 463.3,166.0 463.4,166.0 463.5,166.0 463.6,166.0 463.7,166.0 463.8,166.0 463.9,166.0 464.0,166.0 464.1,166.0 464.2,166.0 464.3,166.0 464.4,166.0 464.5,166.0 464.6,166.0 464.7,166.0 464.8,166.0 464.9,166.0 465.0,166.0 465.1,166.0 465.2,166.0 465.3,166.0 465.4,166.0 465.5,166.0 465.6,166.0 465.7,166.0 465.8,166.0 465.9,166.0 466.0,166.0 466.1,166.0 466.2,166.0 466.3,166.0 466.4,166.0 466.5,166.0 466.6,166.0 466.7,166.0 466.8,166.0 466.9,166.0 467.0,166.0 467.1,166.0 467.2,166.0 467.3,166.0 467.4,166.0 467.5,166.0 467.6,166.0 467.7,166.0 467.8,166.0 467.9,166.0 468.0,166.0 468.1,166.0 468.2,166.0 468.3,166.0 468.4,166.0 468.5,166.0 468.6,166.0 468.7,166.0 468.8,166.0 468.9,166.0 469.0,166.0 469.1,166.0 469.2,166.0 469.3,166.0 469.4,166.0 469.5,166.0 469.6,166.0 469.7,166.0 469.8,166.0 469.9,166.0 470.0,166.0 470.1,166.0 470.2,166.0 470.3,166.0 470.4,166.0 470.5,166.0 470.6,166.0 470.7,166.0 470.8,166.0 470.9,166.0 471.0,166.0 471.1,166.0 471.2,166.0 471.3,166.0 471.4,166.0 471.5,166.0 471.6,166.0 471.7,166.0 471.8,166.0 471.9,166.0 472.0,166.0 472.1,166.0 472.2,166.0 472.3,166.0 472.4,166.0 472.5,166.0 472.6,166.0 472.7,166.0 472.8,166.0 472.9,166.0 473.0,166.0 473.1,166.0 473.2,166.0 473.3,166.0 473.4,166.0 473.5,166.0 473.6,166.0 473.7,166.0 473.8,166.0 473.9,166.0 474.0,166.0 474.1,166.0 474.2,166.0 474.3,166.0 474.4,166.0 474.5,166.0 474.6,166.0 474.7,166.0 474.8,166.0 474.9,166.0 475.0,166.0 475.1,166.0 475.2,166.0 475.3,166.0 475.4,166.0 475.5,166.0 475.6,166.0 475.7,166.0 475.8,166.0 475.9,166.0 476.0,166.0 476.1,166.0 476.2,166.0 476.3,166.0 476.4,166.0 476.5,166.0 476.6,166.0 476.7,166.0 476.8,166.0 476.9,166.0 477.0,166.0 477.1,166.0 477.2,166.0 477.3,166.0 477.4,166.0 477.5,166.0 477.6,166.0 477.7,166.0 477.8,166.0 477.9,166.0 478.0,166.0 478.1,166.0 478.2,166.0 478.3,166.0 478.4,166.0 478.5,166.0 478.6,166.0 478.7,166.0 478.8,166.0 478.9,166.0 479.0,166.0 479.1,166.0 479.2,166.0 479.3,166.0 479.4,166.0 479.5,166.0 479.6,166.0 479.7,166.0 479.8,166.0 479.9,166.0 480.0,166.0 480.1,166.0 480.2,166.0 480.3,166.0 480.4,166.0 480.5,166.0 480.6,166.0 480.7,166.0 480.8,166.0 480.9,166.0 481.0,166.0 481.1,166.0 481.2,166.0 481.3,166.0 481.4,166.0 481.5,166.0 481.6,166.0 481.7,166.0 481.8,166.0 481.9,166.0 482.0,166.0 482.1,166.0 482.2,166.0 482.3,166.0 482.4,166.0 482.5,166.0 482.6,166.0 482.7,166.0 482.8,166.0 482.9,166.0 483.0,166.0 483.1,166.0 483.2,166.0 483.3,166.0 483.4,166.0 483.5,166.0 483.6,166.0 483.7,166.0 483.8,166.0 483.9,166.0 484.0,166.0 484.1,166.0 484.2,166.0 484.3,166.0 484.4,166.0 484.5,166.0 484.6,166.0 484.7,166.0 484.8,166.0 484.9,166.0 485.0,166.0 485.1,166.0 485.2,166.0 485.3,166.0 485.4,166.0 485.5,166.0 485.6,166.0 485.7,166.0 485.8,166.0 485.9,166.0 486.0,166.0 486.1,166.0 486.2,166.0 486.3,166.0 486.4,166.0 486.5,166.0 486.6,166.0 486.7,166.0 486.8,166.0 486.9,166.0 487.0,166.0 487.1,166.0 487.2,166.0 487.3,166.0 487.4,166.0 487.5,166.0 487.6,166.0 487.7,166.0 487.8,166.0 487.9,166.0 488.0,166.0 488.1,166.0 488.2,166.0 488.3,166.0 488.4,166.0 488.5,166.0 488.6,166.0 488.7,166.0 488.8,166.0 488.9,166.0 489.0,166.0 489.1,166.0 489.2,166.0 489.3,166.0 489.4,166.0 489.5,166.0 489.6,166.0 489.7,166.0 489.8,166.0 489.9,166.0 490.0,166.0 490.1,166.0 490.2,166.0 490.3,166.0 490.4,166.0 490.5,166.0 490.6,166.0 490.7,166.0 490.8,166.0 490.9,166.0 491.0,166.0 491.1,166.0 491.2,166.0 491.3,166.0 491.4,166.0 491.5,166.0 491.6,166.0 491.7,166.0 491.8,166.0 491.9,166.0 492.0,166.0 492.1,166.0 492.2,166.0 492.3,166.0 492.4,166.0 492.5,166.0 492.6,166.0 492.7,166.0 492.9,166.0 493.0,166.0 493.1,166.0 493.2,166.0 493.3,166.0 493.4,166.0 493.5,166.0 493.6,166.0 493.7,166.0 493.8,166.0 493.9,166.0 494.0,166.0 494.1,166.0 494.2,166.0 494.3,166.0 494.4,166.0 494.5,166.0 494.6,166.0 494.7,166.0 494.8,166.0 494.9,166.0 495.0,166.0 495.1,166.0 495.2,166.0 495.3,166.0 495.4,166.0 495.5,166.0 495.6,166.0 495.7,166.0 495.8,166.0 495.9,166.0 496.0,166.0 496.1,166.0 496.2,166.0 496.3,166.0 496.4,166.0 496.5,166.0 496.6,166.0 496.7,166.0 496.8,166.0 496.9,166.0 497.0,166.0 497.1,166.0 497.2,166.0 497.3,166.0 497.4,166.0 497.5,166.0 497.6,166.0 497.7,166.0 497.8,166.0 497.9,166.0 498.0,166.0 498.1,166.0 498.2,166.0 498.3,166.0 498.4,166.0 498.5,166.0 498.6,166.0 498.7,166.0 498.8,166.0 498.9,166.0 499.0,166.0 499.1,166.0 499.2,166.0 499.3,166.0 499.4,166.0 499.5,166.0 499.6,166.0 499.7,166.0 499.8,166.0 499.9,166.0 500.0,166.0 500.1,166.0 500.2,166.0 500.3,166.0 500.4,166.0 500.5,166.0 500.6,166.0 500.7,166.0 500.8,166.0 500.9,166.0 501.0,166.0 501.1,166.0 501.2,166.0 501.3,166.0 501.4,166.0 501.5,166.0 501.6,166.0 501.7,166.0 501.8,166.0 501.9,166.0 502.0,166.0 502.1,166.0 502.2,166.0 502.3,166.0 502.4,166.0 502.5,166.0 502.6,166.0 502.7,166.0 502.8,166.0 502.9,166.0 503.0,166.0 503.1,166.0 503.2,166.0 503.3,166.0 503.4,166.0 503.5,166.0 503.6,166.0 503.7,166.0 503.8,166.0 503.9,166.0 504.0,166.0 504.1,166.0 504.2,166.0 504.3,166.0 504.4,166.0 504.5,166.0 504.6,166.0 504.7,166.0 504.8,166.0 504.9,166.0 505.0,166.0 505.1,166.0 505.2,166.0 505.3,166.0 505.4,166.0 505.5,166.0 505.6,166.0 505.7,166.0 505.8,166.0 505.9,166.0 506.0,166.0 506.1,166.0 506.2,166.0 506.3,166.0 506.4,166.0 506.5,166.0 506.6,166.0 506.7,166.0 506.8,166.0 506.9,166.0 507.0,166.0 507.1,166.0 507.2,166.0 507.3,166.0 507.4,166.0 507.5,166.0 507.6,166.0 507.7,166.0 507.8,166.0 507.9,166.0 508.0,166.0 508.1,166.0 508.2,166.0 508.3,166.0 508.4,166.0 508.5,166.0 508.6,166.0 508.7,166.0 508.8,166.0 508.9,166.0 509.0,166.0 509.1,166.0 509.2,166.0 509.3,166.0 509.4,166.0 509.5,166.0 509.6,166.0 509.7,166.0 509.8,166.0 509.9,166.0 510.0,166.0 510.1,166.0 510.2,166.0 510.3,166.0 510.4,166.0 510.5,166.0 510.6,166.0 510.7,166.0 510.8,166.0 510.9,166.0 511.0,166.0 511.1,166.0 511.2,166.0 511.3,166.0 511.4,166.0 511.5,166.0 511.6,166.0 511.7,166.0 511.8,166.0 511.9,166.0 512.0,166.0 512.1,166.0 512.2,166.0 512.3,166.0 512.4,166.0 512.5,166.0 512.6,166.0 512.7,166.0 512.8,166.0 512.9,166.0 513.0,166.0 513.1,166.0 513.2,166.0 513.3,166.0 513.4,166.0 513.5,166.0 513.6,166.0 513.7,166.0 513.8,166.0 513.9,166.0 514.0,166.0 514.1,166.0 514.2,166.0 514.3,166.0 514.4,166.0 514.5,166.0 514.6,166.0 514.7,166.0 514.8,166.0 514.9,166.0 515.0,166.0 515.1,166.0 515.2,166.0 515.3,166.0 515.4,166.0 515.5,166.0 515.6,166.0 515.7,166.0 515.8,166.0 515.9,166.0 516.0,166.0 516.1,166.0 516.2,166.0 516.3,166.0 516.4,166.0 516.5,166.0 516.6,166.0 516.7,166.0 516.8,166.0 516.9,166.0 517.0,166.0 517.1,166.0 517.2,166.0 517.3,166.0 517.4,166.0 517.5,166.0 517.6,166.0 517.7,166.0 517.8,166.0 517.9,166.0 518.0,166.0 518.1,166.0 518.2,166.0 518.3,166.0 518.4,166.0 518.5,166.0 518.6,166.0 518.7,166.0 518.8,166.0 518.9,166.0 519.0,166.0 519.1,166.0 519.2,166.0 519.3,166.0 519.4,166.0 519.5,166.0 519.6,166.0 519.7,166.0 519.8,166.0 519.9,166.0 520.0,166.0 520.1,166.0 520.2,166.0 520.3,166.0 520.4,166.0 520.5,166.0 520.6,166.0 520.7,166.0 520.8,166.0 520.9,166.0 521.0,166.0 521.1,166.0 521.2,166.0 521.3,166.0 521.4,166.0 521.5,166.0 521.6,166.0 521.7,166.0 521.8,166.0 521.9,166.0 522.0,166.0 522.1,166.0 522.2,166.0 522.3,166.0 522.4,166.0 522.5,166.0 522.6,166.0 522.7,166.0 522.8,166.0 522.9,166.0 523.0,166.0 523.1,166.0 523.2,166.0 523.3,166.0 523.4,166.0 523.5,166.0 523.6,166.0 523.7,166.0 523.8,166.0 523.9,166.0 524.0,166.0 524.1,166.0 524.2,166.0 524.3,166.0 524.4,166.0 524.5,166.0 524.6,166.0 524.7,166.0 524.8,166.0 524.9,166.0 525.0,166.0 525.1,166.0 525.2,166.0 525.3,166.0 525.4,166.0 525.5,166.0 525.6,166.0 525.7,166.0 525.8,166.0 525.9,166.0 526.0,166.0 526.1,166.0 526.2,166.0 526.3,166.0 526.4,166.0 526.5,166.0 526.6,166.0 526.7,166.0 526.8,166.0 526.9,166.0 527.0,166.0" fill="none" stroke="#4a90d9" stroke-width="1.2" stroke-linejoin="round"/>
  <text x="154.5" y="190" text-anchor="middle" font-size="8" fill="#6b7280">n / N</text>
  <text x="424.5" y="190" text-anchor="middle" font-size="8" fill="#6b7280">Normalized frequency (× Fₛ)</text>
</svg>
