<svg xmlns="http://www.w3.org/2000/svg" viewBox="0 0 560 190" width="560" height="190" style="font-family:system-ui,-apple-system,sans-serif">
  <rect width="560" height="190" fill="#fafafa" rx="6"/>
  <line x1="52" y1="152.0" x2="257" y2="152.0" stroke="#e5e7eb" stroke-width="0.5"/>
  <text x="48" y="155.0" text-anchor="end" font-size="7.5" fill="#6b7280">0</text>
  <line x1="52" y1="82.0" x2="257" y2="82.0" stroke="#e5e7eb" stroke-width="0.5"/>
  <text x="48" y="85.0" text-anchor="end" font-size="7.5" fill="#6b7280">0.5</text>
  <line x1="52" y1="12.0" x2="257" y2="12.0" stroke="#e5e7eb" stroke-width="0.5"/>
  <text x="48" y="15.0" text-anchor="end" font-size="7.5" fill="#6b7280">1</text>
  <line x1="52.0" y1="12" x2="52.0" y2="152" stroke="#e5e7eb" stroke-width="0.5"/>
  <text x="52.0" y="164" text-anchor="middle" font-size="7.5" fill="#6b7280">0</text>
  <line x1="154.5" y1="12" x2="154.5" y2="152" stroke="#e5e7eb" stroke-width="0.5"/>
  <text x="154.5" y="164" text-anchor="middle" font-size="7.5" fill="#6b7280">0.5</text>
  <line x1="257.0" y1="12" x2="257.0" y2="152" stroke="#e5e7eb" stroke-width="0.5"/>
  <text x="257.0" y="164" text-anchor="middle" font-size="7.5" fill="#6b7280">1</text>
  <line x1="52" y1="12" x2="52" y2="152" stroke="#d1d5db" stroke-width="0.75"/>
  <line x1="52" y1="152" x2="257" y2="152" stroke="#d1d5db" stroke-width="0.75"/>
  <path d="M52.0,152.0 52.0,152.0 52.8,152.0 53.6,152.0 54.4,151.9 55.2,151.9 56.0,151.8 56.8,151.7 57.6,151.6 58.4,151.5 59.2,151.4 60.0,151.2 60.8,151.1 61.6,150.9 62.5,150.7 63.3,150.4 64.1,150.2 64.9,149.9 65.7,149.7 66.5,149.4 67.3,149.0 68.1,148.7 68.9,148.3 69.7,147.9 70.5,147.5 71.3,147.1 72.1,146.6 72.9,146.1 73.7,145.6 74.5,145.1 75.3,144.5 76.1,143.9 76.9,143.3 77.7,142.6 78.5,141.9 79.3,141.2 80.1,140.5 80.9,139.7 81.7,138.9 82.5,138.0 83.4,137.1 84.2,136.2 85.0,135.3 85.8,134.3 86.6,133.3 87.4,132.2 88.2,131.2 89.0,130.0 89.8,128.9 90.6,127.7 91.4,126.5 92.2,125.2 93.0,123.9 93.8,122.6 94.6,121.2 95.4,119.8 96.2,118.4 97.0,116.9 97.8,115.4 98.6,113.8 99.4,112.3 100.2,110.7 101.0,109.0 101.8,107.4 102.6,105.7 103.5,104.0 104.3,102.2 105.1,100.5 105.9,98.7 106.7,96.8 107.5,95.0 108.3,93.1 109.1,91.3 109.9,89.4 110.7,87.4 111.5,85.5 112.3,83.6 113.1,81.6 113.9,79.6 114.7,77.7 115.5,75.7 116.3,73.7 117.1,71.7 117.9,69.7 118.7,67.8 119.5,65.8 120.3,63.8 121.1,61.8 121.9,59.9 122.7,57.9 123.5,56.0 124.4,54.1 125.2,52.2 126.0,50.3 126.8,48.5 127.6,46.6 128.4,44.8 129.2,43.0 130.0,41.3 130.8,39.6 131.6,37.9 132.4,36.3 133.2,34.7 134.0,33.1 134.8,31.6 135.6,30.1 136.4,28.7 137.2,27.3 138.0,26.0 138.8,24.7 139.6,23.5 140.4,22.3 141.2,21.2 142.0,20.2 142.8,19.2 143.6,18.2 144.5,17.4 145.3,16.5 146.1,15.8 146.9,15.1 147.7,14.5 148.5,13.9 149.3,13.5 150.1,13.1 150.9,12.7 151.7,12.4 152.5,12.2 153.3,12.1 154.1,12.0 154.9,12.0 155.7,12.1 156.5,12.2 157.3,12.4 158.1,12.7 158.9,13.1 159.7,13.5 160.5,13.9 161.3,14.5 162.1,15.1 162.9,15.8 163.7,16.5 164.5,17.4 165.4,18.2 166.2,19.2 167.0,20.2 167.8,21.2 168.6,22.3 169.4,23.5 170.2,24.7 171.0,26.0 171.8,27.3 172.6,28.7 173.4,30.1 174.2,31.6 175.0,33.1 175.8,34.7 176.6,36.3 177.4,37.9 178.2,39.6 179.0,41.3 179.8,43.0 180.6,44.8 181.4,46.6 182.2,48.5 183.0,50.3 183.8,52.2 184.6,54.1 185.5,56.0 186.3,57.9 187.1,59.9 187.9,61.8 188.7,63.8 189.5,65.8 190.3,67.8 191.1,69.7 191.9,71.7 192.7,73.7 193.5,75.7 194.3,77.7 195.1,79.6 195.9,81.6 196.7,83.6 197.5,85.5 198.3,87.4 199.1,89.4 199.9,91.3 200.7,93.1 201.5,95.0 202.3,96.8 203.1,98.7 203.9,100.5 204.7,102.2 205.5,104.0 206.4,105.7 207.2,107.4 208.0,109.0 208.8,110.7 209.6,112.3 210.4,113.8 211.2,115.4 212.0,116.9 212.8,118.4 213.6,119.8 214.4,121.2 215.2,122.6 216.0,123.9 216.8,125.2 217.6,126.5 218.4,127.7 219.2,128.9 220.0,130.0 220.8,131.2 221.6,132.2 222.4,133.3 223.2,134.3 224.0,135.3 224.8,136.2 225.6,137.1 226.5,138.0 227.3,138.9 228.1,139.7 228.9,140.5 229.7,141.2 230.5,141.9 231.3,142.6 232.1,143.3 232.9,143.9 233.7,144.5 234.5,145.1 235.3,145.6 236.1,146.1 236.9,146.6 237.7,147.1 238.5,147.5 239.3,147.9 240.1,148.3 240.9,148.7 241.7,149.0 242.5,149.4 243.3,149.7 244.1,149.9 244.9,150.2 245.7,150.4 246.5,150.7 247.4,150.9 248.2,151.1 249.0,151.2 249.8,151.4 250.6,151.5 251.4,151.6 252.2,151.7 253.0,151.8 253.8,151.9 254.6,151.9 255.4,152.0 256.2,152.0 257.0,152.0 L257.0,152.0 Z" fill="#4a90d9" fill-opacity="0.06"/>
  <polyline points="52.0,152.0 52.8,152.0 53.6,152.0 54.4,151.9 55.2,151.9 56.0,151.8 56.8,151.7 57.6,151.6 58.4,151.5 59.2,151.4 60.0,151.2 60.8,151.1 61.6,150.9 62.5,150.7 63.3,150.4 64.1,150.2 64.9,149.9 65.7,149.7 66.5,149.4 67.3,149.0 68.1,148.7 68.9,148.3 69.7,147.9 70.5,147.5 71.3,147.1 72.1,146.6 72.9,146.1 73.7,145.6 74.5,145.1 75.3,144.5 76.1,143.9 76.9,143.3 77.7,142.6 78.5,141.9 79.3,141.2 80.1,140.5 80.9,139.7 81.7,138.9 82.5,138.0 83.4,137.1 84.2,136.2 85.0,135.3 85.8,134.3 86.6,133.3 87.4,132.2 88.2,131.2 89.0,130.0 89.8,128.9 90.6,127.7 91.4,126.5 92.2,125.2 93.0,123.9 93.8,122.6 94.6,121.2 95.4,119.8 96.2,118.4 97.0,116.9 97.8,115.4 98.6,113.8 99.4,112.3 100.2,110.7 101.0,109.0 101.8,107.4 102.6,105.7 103.5,104.0 104.3,102.2 105.1,100.5 105.9,98.7 106.7,96.8 107.5,95.0 108.3,93.1 109.1,91.3 109.9,89.4 110.7,87.4 111.5,85.5 112.3,83.6 113.1,81.6 113.9,79.6 114.7,77.7 115.5,75.7 116.3,73.7 117.1,71.7 117.9,69.7 118.7,67.8 119.5,65.8 120.3,63.8 121.1,61.8 121.9,59.9 122.7,57.9 123.5,56.0 124.4,54.1 125.2,52.2 126.0,50.3 126.8,48.5 127.6,46.6 128.4,44.8 129.2,43.0 130.0,41.3 130.8,39.6 131.6,37.9 132.4,36.3 133.2,34.7 134.0,33.1 134.8,31.6 135.6,30.1 136.4,28.7 137.2,27.3 138.0,26.0 138.8,24.7 139.6,23.5 140.4,22.3 141.2,21.2 142.0,20.2 142.8,19.2 143.6,18.2 144.5,17.4 145.3,16.5 146.1,15.8 146.9,15.1 147.7,14.5 148.5,13.9 149.3,13.5 150.1,13.1 150.9,12.7 151.7,12.4 152.5,12.2 153.3,12.1 154.1,12.0 154.9,12.0 155.7,12.1 156.5,12.2 157.3,12.4 158.1,12.7 158.9,13.1 159.7,13.5 160.5,13.9 161.3,14.5 162.1,15.1 162.9,15.8 163.7,16.5 164.5,17.4 165.4,18.2 166.2,19.2 167.0,20.2 167.8,21.2 168.6,22.3 169.4,23.5 170.2,24.7 171.0,26.0 171.8,27.3 172.6,28.7 173.4,30.1 174.2,31.6 175.0,33.1 175.8,34.7 176.6,36.3 177.4,37.9 178.2,39.6 179.0,41.3 179.8,43.0 180.6,44.8 181.4,46.6 182.2,48.5 183.0,50.3 183.8,52.2 184.6,54.1 185.5,56.0 186.3,57.9 187.1,59.9 187.9,61.8 188.7,63.8 189.5,65.8 190.3,67.8 191.1,69.7 191.9,71.7 192.7,73.7 193.5,75.7 194.3,77.7 195.1,79.6 195.9,81.6 196.7,83.6 197.5,85.5 198.3,87.4 199.1,89.4 199.9,91.3 200.7,93.1 201.5,95.0 202.3,96.8 203.1,98.7 203.9,100.5 204.7,102.2 205.5,104.0 206.4,105.7 207.2,107.4 208.0,109.0 208.8,110.7 209.6,112.3 210.4,113.8 211.2,115.4 212.0,116.9 212.8,118.4 213.6,119.8 214.4,121.2 215.2,122.6 216.0,123.9 216.8,125.2 217.6,126.5 218.4,127.7 219.2,128.9 220.0,130.0 220.8,131.2 221.6,132.2 222.4,133.3 223.2,134.3 224.0,135.3 224.8,136.2 225.6,137.1 226.5,138.0 227.3,138.9 228.1,139.7 228.9,140.5 229.7,141.2 230.5,141.9 231.3,142.6 232.1,143.3 232.9,143.9 233.7,144.5 234.5,145.1 235.3,145.6 236.1,146.1 236.9,146.6 237.7,147.1 238.5,147.5 239.3,147.9 240.1,148.3 240.9,148.7 241.7,149.0 242.5,149.4 243.3,149.7 244.1,149.9 244.9,150.2 245.7,150.4 246.5,150.7 247.4,150.9 248.2,151.1 249.0,151.2 249.8,151.4 250.6,151.5 251.4,151.6 252.2,151.7 253.0,151.8 253.8,151.9 254.6,151.9 255.4,152.0 256.2,152.0 257.0,152.0" fill="none" stroke="#4a90d9" stroke-width="1.2" stroke-linejoin="round"/>
  <line x1="322" y1="12.0" x2="527" y2="12.0" stroke="#e5e7eb" stroke-width="0.5"/>
  <text x="318" y="15.0" text-anchor="end" font-size="7.5" fill="#6b7280">0</text>
  <line x1="322" y1="58.7" x2="527" y2="58.7" stroke="#e5e7eb" stroke-width="0.5"/>
  <text x="318" y="61.7" text-anchor="end" font-size="7.5" fill="#6b7280">-40</text>
  <line x1="322" y1="105.3" x2="527" y2="105.3" stroke="#e5e7eb" stroke-width="0.5"/>
  <text x="318" y="108.3" text-anchor="end" font-size="7.5" fill="#6b7280">-80</text>
  <line x1="322" y1="152.0" x2="527" y2="152.0" stroke="#e5e7eb" stroke-width="0.5"/>
  <text x="318" y="155.0" text-anchor="end" font-size="7.5" fill="#6b7280">-120</text>
  <line x1="322.0" y1="12" x2="322.0" y2="152" stroke="#e5e7eb" stroke-width="0.5"/>
  <text x="322.0" y="164" text-anchor="middle" font-size="7.5" fill="#6b7280">0</text>
  <line x1="363.0" y1="12" x2="363.0" y2="152" stroke="#e5e7eb" stroke-width="0.5"/>
  <text x="363.0" y="164" text-anchor="middle" font-size="7.5" fill="#6b7280">0.1</text>
  <line x1="404.0" y1="12" x2="404.0" y2="152" stroke="#e5e7eb" stroke-width="0.5"/>
  <text x="404.0" y="164" text-anchor="middle" font-size="7.5" fill="#6b7280">0.2</text>
  <line x1="445.0" y1="12" x2="445.0" y2="152" stroke="#e5e7eb" stroke-width="0.5"/>
  <text x="445.0" y="164" text-anchor="middle" font-size="7.5" fill="#6b7280">0.3</text>
  <line x1="486.0" y1="12" x2="486.0" y2="152" stroke="#e5e7eb" stroke-width="0.5"/>
  <text x="486.0" y="164" text-anchor="middle" font-size="7.5" fill="#6b7280">0.4</text>
  <line x1="527.0" y1="12" x2="527.0" y2="152" stroke="#e5e7eb" stroke-width="0.5"/>
  <text x="527.0" y="164" text-anchor="middle" font-size="7.5" fill="#6b7280">0.5</text>
  <line x1="322" y1="12" x2="322" y2="152" stroke="#d1d5db" stroke-width="0.75"/>
  <line x1="322" y1="152" x2="527" y2="152" stroke="#d1d5db" stroke-width="0.75"/>
  <polyline points="322.0,12.0 322.1,12.0 322.2,12.1 322.3,12.2 322.4,12.3 322.5,12.5 322.6,12.7 322.7,13.0 322.8,13.3 322.9,13.6 323.0,14.0 323.1,14.4 323.2,14.9 323.3,15.4 323.4,16.0 323.5,16.6 323.6,17.2 323.7,17.9 323.8,18.7 323.9,19.5 324.0,20.3 324.1,21.2 324.2,22.2 324.3,23.2 324.4,24.3 324.5,25.4 324.6,26.6 324.7,27.9 324.8,29.3 324.9,30.7 325.0,32.3 325.1,33.9 325.2,35.6 325.3,37.4 325.4,39.4 325.5,41.5 325.6,43.7 325.7,46.1 325.8,48.7 325.9,51.5 326.0,54.6 326.1,58.0 326.2,61.8 326.3,66.1 326.4,71.1 326.5,77.2 326.6,85.1 326.7,96.5 326.8,123.1 326.9,136.9 327.0,104.4 327.1,94.1 327.2,88.4 327.3,84.7 327.4,82.4 327.5,80.9 327.6,80.0 327.7,79.8 327.8,80.1 327.9,80.9 328.0,82.3 328.1,84.6 328.2,88.0 328.3,93.8 328.4,110.1 328.5,99.3 328.6,91.0 328.7,86.9 328.8,84.4 328.9,82.8 329.0,81.9 329.1,81.4 329.2,81.4 329.3,81.7 329.4,82.5 329.5,83.7 329.6,85.4 329.7,87.8 329.8,91.4 329.9,97.2 330.0,111.9 330.1,104.2 330.2,95.6 330.3,91.4 330.4,88.9 330.5,87.4 330.6,86.4 330.7,85.9 330.8,85.9 330.9,86.2 331.0,87.0 331.1,88.2 331.2,89.9 331.3,92.2 331.4,95.7 331.5,101.3 331.6,114.6 331.7,109.7 331.8,100.5 331.9,96.1 332.0,93.6 332.1,91.9 332.2,90.9 332.3,90.4 332.4,90.3 332.5,90.6 332.6,91.3 332.7,92.4 332.8,94.0 332.9,96.3 333.0,99.7 333.1,105.0 333.2,117.2 333.3,115.0 333.4,105.0 333.5,100.5 333.6,97.8 333.7,96.1 333.8,95.0 333.9,94.4 334.0,94.3 334.1,94.5 334.2,95.2 334.3,96.2 334.4,97.8 334.5,100.0 334.6,103.3 334.7,108.4 334.8,119.6 334.9,119.9 335.0,109.1 335.1,104.4 335.2,101.6 335.3,99.8 335.4,98.7 335.5,98.1 335.6,97.9 335.7,98.1 335.8,98.7 335.9,99.7 336.0,101.2 336.1,103.3 336.2,106.5 336.3,111.4 336.4,121.8 336.5,124.6 336.6,112.9 336.7,108.0 336.8,105.1 336.9,103.2 337.0,102.0 337.1,101.4 337.2,101.1 337.3,101.3 337.4,101.8 337.5,102.8 337.6,104.2 337.7,106.3 337.8,109.4 337.9,114.1 338.0,123.8 338.1,129.3 338.2,116.4 338.3,111.2 338.4,108.2 338.5,106.3 338.6,105.1 338.7,104.4 338.8,104.1 338.9,104.2 339.0,104.7 339.1,105.6 339.2,107.0 339.3,109.0 339.4,112.0 339.5,116.6 339.6,125.7 339.7,133.9 339.8,119.6 339.9,114.3 340.0,111.1 340.1,109.1 340.2,107.9 340.3,107.1 340.4,106.8 340.5,106.8 340.6,107.3 340.7,108.2 340.8,109.6 340.9,111.5 341.0,114.4 341.1,118.8 341.2,127.4 341.3,138.8 341.4,122.6 341.5,117.1 341.6,113.8 341.7,111.8 341.8,110.4 341.9,109.6 342.0,109.3 342.1,109.3 342.2,109.7 342.3,110.6 342.4,111.9 342.5,113.8 342.6,116.6 342.7,120.9 342.8,129.0 342.9,144.1 343.0,125.5 343.1,119.7 343.2,116.3 343.3,114.2 343.4,112.8 343.5,112.0 343.6,111.6 343.7,111.6 343.8,112.0 343.9,112.8 344.0,114.1 344.1,115.9 344.2,118.6 344.3,122.8 344.4,130.4 344.5,150.6 344.6,128.3 344.7,122.1 344.8,118.7 344.9,116.5 345.0,115.1 345.1,114.2 345.2,113.7 345.3,113.7 345.4,114.1 345.5,114.8 345.6,116.1 345.7,117.9 345.8,120.5 345.9,124.5 346.0,131.8 346.1,152.0 346.2,130.9 346.3,124.5 346.4,120.9 346.5,118.6 346.6,117.2 346.7,116.2 346.8,115.8 346.9,115.7 347.0,116.0 347.1,116.8 347.2,118.0 347.3,119.7 347.4,122.3 347.5,126.2 347.6,133.1 347.7,152.0 347.8,133.4 347.9,126.7 348.0,123.0 348.1,120.7 348.2,119.1 348.3,118.2 348.4,117.7 348.5,117.6 348.6,117.9 348.7,118.6 348.8,119.7 348.9,121.4 349.0,123.9 349.1,127.7 349.2,134.3 349.3,152.0 349.4,135.9 349.5,128.8 349.6,125.0 349.7,122.6 349.8,121.0 349.9,120.0 350.0,119.5 350.1,119.3 350.2,119.6 350.3,120.3 350.4,121.4 350.5,123.1 350.6,125.5 350.7,129.1 350.8,135.5 350.9,152.0 351.0,138.3 351.1,130.8 351.2,126.9 351.3,124.4 351.4,122.8 351.5,121.7 351.6,121.2 351.7,121.0 351.8,121.2 351.9,121.9 352.0,123.0 352.1,124.6 352.2,126.9 352.3,130.5 352.4,136.6 352.5,152.0 352.6,140.6 352.7,132.8 352.8,128.7 352.9,126.1 353.0,124.5 353.1,123.4 353.2,122.8 353.3,122.6 353.4,122.8 353.5,123.4 353.6,124.4 353.7,126.0 353.8,128.3 353.9,131.8 354.0,137.6 354.1,152.0 354.2,143.0 354.3,134.6 354.4,130.4 354.5,127.8 354.6,126.1 354.7,125.0 354.8,124.3 354.9,124.1 355.0,124.3 355.1,124.9 355.2,125.9 355.3,127.4 355.4,129.7 355.5,133.0 355.6,138.6 355.7,152.0 355.8,145.3 355.9,136.4 356.0,132.1 356.1,129.4 356.3,127.6 356.4,126.5 356.5,125.8 356.6,125.6 356.7,125.7 356.8,126.2 356.9,127.2 357.0,128.7 357.1,130.9 357.2,134.2 357.3,139.5 357.4,152.0 357.5,147.7 357.6,138.2 357.7,133.7 357.8,130.9 357.9,129.1 358.0,127.9 358.1,127.2 358.2,126.9 358.3,127.0 358.4,127.6 358.5,128.5 358.6,130.0 358.7,132.1 358.8,135.3 358.9,140.4 359.0,152.0 359.1,150.1 359.2,139.9 359.3,135.3 359.4,132.4 359.5,130.5 359.6,129.3 359.7,128.6 359.8,128.3 359.9,128.3 360.0,128.8 360.1,129.7 360.2,131.2 360.3,133.2 360.4,136.3 360.5,141.3 360.6,152.0 360.7,152.0 360.8,141.6 360.9,136.8 361.0,133.8 361.1,131.9 361.2,130.6 361.3,129.9 361.4,129.5 361.5,129.6 361.6,130.0 361.7,130.9 361.8,132.3 361.9,134.3 362.0,137.3 362.1,142.1 362.2,152.0 362.3,152.0 362.4,143.3 362.5,138.2 362.6,135.2 362.7,133.2 362.8,131.9 362.9,131.1 363.0,130.7 363.1,130.8 363.2,131.2 363.3,132.1 363.4,133.4 363.5,135.4 363.6,138.3 363.7,142.9 363.8,152.0 363.9,152.0 364.0,144.9 364.1,139.6 364.2,136.5 364.3,134.5 364.4,133.1 364.5,132.3 364.6,131.9 364.7,131.9 364.8,132.3 364.9,133.1 365.0,134.5 365.1,136.4 365.2,139.2 365.3,143.7 365.4,152.0 365.5,152.0 365.6,146.5 365.7,141.0 365.8,137.8 365.9,135.7 366.0,134.3 366.1,133.5 366.2,133.1 366.3,133.0 366.4,133.4 366.5,134.2 366.6,135.5 366.7,137.4 366.8,140.1 366.9,144.5 367.0,152.0 367.1,152.0 367.2,148.1 367.3,142.4 367.4,139.1 367.5,136.9 367.6,135.5 367.7,134.6 367.8,134.2 367.9,134.1 368.0,134.5 368.1,135.2 368.2,136.4 368.3,138.3 368.4,141.0 368.5,145.2 368.6,152.0 368.7,152.0 368.8,149.6 368.9,143.7 369.0,140.3 369.1,138.1 369.2,136.6 369.3,135.7 369.4,135.2 369.5,135.2 369.6,135.5 369.7,136.2 369.8,137.4 369.9,139.2 370.0,141.8 370.1,145.9 370.2,152.0 370.3,152.0 370.4,151.2 370.5,145.0 370.6,141.5 370.7,139.2 370.8,137.7 370.9,136.8 371.0,136.3 371.1,136.2 371.2,136.4 371.3,137.1 371.4,138.3 371.5,140.1 371.6,142.6 371.7,146.6 371.8,152.0 371.9,152.0 372.0,152.0 372.1,146.3 372.2,142.7 372.3,140.3 372.4,138.8 372.5,137.8 372.6,137.3 372.7,137.1 372.8,137.4 372.9,138.1 373.0,139.2 373.1,140.9 373.2,143.4 373.3,147.2 373.4,152.0 373.5,152.0 373.6,152.0 373.7,147.5 373.8,143.8 373.9,141.4 374.0,139.8 374.1,138.8 374.2,138.2 374.3,138.1 374.4,138.3 374.5,139.0 374.6,140.1 374.7,141.7 374.8,144.1 374.9,147.9 375.0,152.0 375.1,152.0 375.2,152.0 375.3,148.8 375.4,144.9 375.5,142.5 375.6,140.8 375.7,139.8 375.8,139.2 375.9,139.0 376.0,139.2 376.1,139.8 376.2,140.9 376.3,142.5 376.4,144.9 376.5,148.5 376.6,152.0 376.7,152.0 376.8,152.0 376.9,150.0 377.0,146.0 377.1,143.5 377.2,141.8 377.3,140.7 377.4,140.1 377.5,139.9 377.6,140.1 377.7,140.7 377.8,141.7 377.9,143.3 378.0,145.6 378.1,149.1 378.2,152.0 378.3,152.0 378.4,152.0 378.5,151.2 378.6,147.1 378.7,144.5 378.8,142.8 378.9,141.6 379.0,141.0 379.1,140.8 379.2,140.9 379.3,141.5 379.4,142.5 379.5,144.0 379.6,146.3 379.7,149.7 379.8,152.0 379.9,152.0 380.0,152.0 380.1,152.0 380.2,148.1 380.3,145.5 380.4,143.7 380.5,142.5 380.6,141.9 380.7,141.6 380.8,141.7 380.9,142.3 381.0,143.2 381.1,144.7 381.2,146.9 381.3,150.3 381.4,152.0 381.5,152.0 381.6,152.0 381.7,152.0 381.8,149.2 381.9,146.4 382.0,144.6 382.1,143.4 382.2,142.7 382.3,142.4 382.4,142.5 382.5,143.1 382.6,144.0 382.7,145.4 382.8,147.6 382.9,150.8 383.0,152.0 383.1,152.0 383.2,152.0 383.3,152.0 383.4,150.2 383.5,147.4 383.6,145.5 383.7,144.3 383.8,143.6 383.9,143.2 384.0,143.3 384.1,143.8 384.2,144.7 384.3,146.1 384.4,148.2 384.5,151.4 384.6,152.0 384.7,152.0 384.8,152.0 384.9,152.0 385.0,151.2 385.1,148.3 385.2,146.4 385.3,145.1 385.4,144.4 385.5,144.0 385.6,144.1 385.7,144.5 385.8,145.4 385.9,146.8 386.0,148.9 386.1,151.9 386.2,152.0 386.3,152.0 386.4,152.0 386.5,152.0 386.6,152.0 386.7,149.2 386.8,147.3 386.9,146.0 387.0,145.2 387.1,144.8 387.2,144.8 387.3,145.3 387.4,146.1 387.5,147.5 387.6,149.5 387.7,152.0 387.8,152.0 387.9,152.0 388.0,152.0 388.1,152.0 388.2,152.0 388.3,150.1 388.4,148.1 388.5,146.8 388.6,146.0 388.7,145.6 388.8,145.6 388.9,146.0 389.0,146.8 389.1,148.1 389.2,150.1 389.3,152.0 389.4,152.0 389.5,152.0 389.6,152.0 389.7,152.0 389.8,152.0 389.9,151.0 390.0,149.0 390.1,147.6 390.2,146.7 390.3,146.3 390.4,146.3 390.5,146.7 390.6,147.5 390.7,148.7 390.8,150.6 390.9,152.0 391.0,152.0 391.1,152.0 391.2,152.0 391.3,152.0 391.4,152.0 391.5,151.9 391.6,149.8 391.7,148.4 391.8,147.5 391.9,147.0 392.0,147.0 392.1,147.3 392.2,148.1 392.3,149.3 392.4,151.2 392.5,152.0 392.6,152.0 392.7,152.0 392.8,152.0 392.9,152.0 393.0,152.0 393.1,152.0 393.2,150.6 393.3,149.1 393.4,148.2 393.5,147.7 393.6,147.7 393.7,148.0 393.8,148.7 393.9,149.9 394.0,151.7 394.1,152.0 394.2,152.0 394.3,152.0 394.4,152.0 394.5,152.0 394.6,152.0 394.7,152.0 394.8,151.4 394.9,149.9 395.0,148.9 395.1,148.4 395.2,148.4 395.3,148.6 395.4,149.4 395.5,150.5 395.6,152.0 395.7,152.0 395.8,152.0 395.9,152.0 396.0,152.0 396.1,152.0 396.2,152.0 396.3,152.0 396.4,152.0 396.5,150.6 396.6,149.7 396.7,149.1 396.8,149.0 396.9,149.3 397.0,150.0 397.1,151.1 397.2,152.0 397.3,152.0 397.4,152.0 397.5,152.0 397.6,152.0 397.7,152.0 397.8,152.0 397.9,152.0 398.0,152.0 398.1,151.4 398.2,150.4 398.3,149.8 398.4,149.7 398.5,149.9 398.6,150.6 398.7,151.7 398.8,152.0 398.9,152.0 399.0,152.0 399.1,152.0 399.2,152.0 399.3,152.0 399.4,152.0 399.5,152.0 399.6,152.0 399.7,152.0 399.8,151.1 399.9,150.5 400.0,150.3 400.1,150.5 400.2,151.1 400.3,152.0 400.4,152.0 400.5,152.0 400.6,152.0 400.7,152.0 400.8,152.0 400.9,152.0 401.0,152.0 401.1,152.0 401.2,152.0 401.3,152.0 401.4,151.7 401.5,151.1 401.6,150.9 401.7,151.1 401.8,151.7 401.9,152.0 402.0,152.0 402.1,152.0 402.2,152.0 402.3,152.0 402.4,152.0 402.5,152.0 402.6,152.0 402.7,152.0 402.8,152.0 402.9,152.0 403.0,152.0 403.1,151.8 403.2,151.5 403.3,151.7 403.4,152.0 403.5,152.0 403.6,152.0 403.7,152.0 403.8,152.0 403.9,152.0 404.0,152.0 404.1,152.0 404.2,152.0 404.3,152.0 404.4,152.0 404.5,152.0 404.6,152.0 404.7,152.0 404.8,152.0 404.9,152.0 405.0,152.0 405.1,152.0 405.2,152.0 405.3,152.0 405.4,152.0 405.5,152.0 405.6,152.0 405.7,152.0 405.8,152.0 405.9,152.0 406.0,152.0 406.1,152.0 406.2,152.0 406.3,152.0 406.4,152.0 406.5,152.0 406.6,152.0 406.7,152.0 406.8,152.0 406.9,152.0 407.0,152.0 407.1,152.0 407.2,152.0 407.3,152.0 407.4,152.0 407.5,152.0 407.6,152.0 407.7,152.0 407.8,152.0 407.9,152.0 408.0,152.0 408.1,152.0 408.2,152.0 408.3,152.0 408.4,152.0 408.5,152.0 408.6,152.0 408.7,152.0 408.8,152.0 408.9,152.0 409.0,152.0 409.1,152.0 409.2,152.0 409.3,152.0 409.4,152.0 409.5,152.0 409.6,152.0 409.7,152.0 409.8,152.0 409.9,152.0 410.0,152.0 410.1,152.0 410.2,152.0 410.3,152.0 410.4,152.0 410.5,152.0 410.6,152.0 410.7,152.0 410.8,152.0 410.9,152.0 411.0,152.0 411.1,152.0 411.2,152.0 411.3,152.0 411.4,152.0 411.5,152.0 411.6,152.0 411.7,152.0 411.8,152.0 411.9,152.0 412.0,152.0 412.1,152.0 412.2,152.0 412.3,152.0 412.4,152.0 412.5,152.0 412.6,152.0 412.7,152.0 412.8,152.0 412.9,152.0 413.0,152.0 413.1,152.0 413.2,152.0 413.3,152.0 413.4,152.0 413.5,152.0 413.6,152.0 413.7,152.0 413.8,152.0 413.9,152.0 414.0,152.0 414.1,152.0 414.2,152.0 414.3,152.0 414.4,152.0 414.5,152.0 414.6,152.0 414.7,152.0 414.8,152.0 414.9,152.0 415.0,152.0 415.1,152.0 415.2,152.0 415.3,152.0 415.4,152.0 415.5,152.0 415.6,152.0 415.7,152.0 415.8,152.0 415.9,152.0 416.0,152.0 416.1,152.0 416.2,152.0 416.3,152.0 416.4,152.0 416.5,152.0 416.6,152.0 416.7,152.0 416.8,152.0 416.9,152.0 417.0,152.0 417.1,152.0 417.2,152.0 417.3,152.0 417.4,152.0 417.5,152.0 417.6,152.0 417.7,152.0 417.8,152.0 417.9,152.0 418.0,152.0 418.1,152.0 418.2,152.0 418.3,152.0 418.4,152.0 418.5,152.0 418.6,152.0 418.7,152.0 418.8,152.0 418.9,152.0 419.0,152.0 419.1,152.0 419.2,152.0 419.3,152.0 419.4,152.0 419.5,152.0 419.6,152.0 419.7,152.0 419.8,152.0 419.9,152.0 420.0,152.0 420.1,152.0 420.2,152.0 420.3,152.0 420.4,152.0 420.5,152.0 420.6,152.0 420.7,152.0 420.8,152.0 420.9,152.0 421.0,152.0 421.1,152.0 421.2,152.0 421.3,152.0 421.4,152.0 421.5,152.0 421.6,152.0 421.7,152.0 421.8,152.0 421.9,152.0 422.0,152.0 422.1,152.0 422.2,152.0 422.3,152.0 422.4,152.0 422.5,152.0 422.6,152.0 422.7,152.0 422.8,152.0 422.9,152.0 423.0,152.0 423.1,152.0 423.2,152.0 423.3,152.0 423.4,152.0 423.5,152.0 423.6,152.0 423.7,152.0 423.8,152.0 423.9,152.0 424.0,152.0 424.1,152.0 424.2,152.0 424.3,152.0 424.4,152.0 424.6,152.0 424.7,152.0 424.8,152.0 424.9,152.0 425.0,152.0 425.1,152.0 425.2,152.0 425.3,152.0 425.4,152.0 425.5,152.0 425.6,152.0 425.7,152.0 425.8,152.0 425.9,152.0 426.0,152.0 426.1,152.0 426.2,152.0 426.3,152.0 426.4,152.0 426.5,152.0 426.6,152.0 426.7,152.0 426.8,152.0 426.9,152.0 427.0,152.0 427.1,152.0 427.2,152.0 427.3,152.0 427.4,152.0 427.5,152.0 427.6,152.0 427.7,152.0 427.8,152.0 427.9,152.0 428.0,152.0 428.1,152.0 428.2,152.0 428.3,152.0 428.4,152.0 428.5,152.0 428.6,152.0 428.7,152.0 428.8,152.0 428.9,152.0 429.0,152.0 429.1,152.0 429.2,152.0 429.3,152.0 429.4,152.0 429.5,152.0 429.6,152.0 429.7,152.0 429.8,152.0 429.9,152.0 430.0,152.0 430.1,152.0 430.2,152.0 430.3,152.0 430.4,152.0 430.5,152.0 430.6,152.0 430.7,152.0 430.8,152.0 430.9,152.0 431.0,152.0 431.1,152.0 431.2,152.0 431.3,152.0 431.4,152.0 431.5,152.0 431.6,152.0 431.7,152.0 431.8,152.0 431.9,152.0 432.0,152.0 432.1,152.0 432.2,152.0 432.3,152.0 432.4,152.0 432.5,152.0 432.6,152.0 432.7,152.0 432.8,152.0 432.9,152.0 433.0,152.0 433.1,152.0 433.2,152.0 433.3,152.0 433.4,152.0 433.5,152.0 433.6,152.0 433.7,152.0 433.8,152.0 433.9,152.0 434.0,152.0 434.1,152.0 434.2,152.0 434.3,152.0 434.4,152.0 434.5,152.0 434.6,152.0 434.7,152.0 434.8,152.0 434.9,152.0 435.0,152.0 435.1,152.0 435.2,152.0 435.3,152.0 435.4,152.0 435.5,152.0 435.6,152.0 435.7,152.0 435.8,152.0 435.9,152.0 436.0,152.0 436.1,152.0 436.2,152.0 436.3,152.0 436.4,152.0 436.5,152.0 436.6,152.0 436.7,152.0 436.8,152.0 436.9,152.0 437.0,152.0 437.1,152.0 437.2,152.0 437.3,152.0 437.4,152.0 437.5,152.0 437.6,152.0 437.7,152.0 437.8,152.0 437.9,152.0 438.0,152.0 438.1,152.0 438.2,152.0 438.3,152.0 438.4,152.0 438.5,152.0 438.6,152.0 438.7,152.0 438.8,152.0 438.9,152.0 439.0,152.0 439.1,152.0 439.2,152.0 439.3,152.0 439.4,152.0 439.5,152.0 439.6,152.0 439.7,152.0 439.8,152.0 439.9,152.0 440.0,152.0 440.1,152.0 440.2,152.0 440.3,152.0 440.4,152.0 440.5,152.0 440.6,152.0 440.7,152.0 440.8,152.0 440.9,152.0 441.0,152.0 441.1,152.0 441.2,152.0 441.3,152.0 441.4,152.0 441.5,152.0 441.6,152.0 441.7,152.0 441.8,152.0 441.9,152.0 442.0,152.0 442.1,152.0 442.2,152.0 442.3,152.0 442.4,152.0 442.5,152.0 442.6,152.0 442.7,152.0 442.8,152.0 442.9,152.0 443.0,152.0 443.1,152.0 443.2,152.0 443.3,152.0 443.4,152.0 443.5,152.0 443.6,152.0 443.7,152.0 443.8,152.0 443.9,152.0 444.0,152.0 444.1,152.0 444.2,152.0 444.3,152.0 444.4,152.0 444.5,152.0 444.6,152.0 444.7,152.0 444.8,152.0 444.9,152.0 445.0,152.0 445.1,152.0 445.2,152.0 445.3,152.0 445.4,152.0 445.5,152.0 445.6,152.0 445.7,152.0 445.8,152.0 445.9,152.0 446.0,152.0 446.1,152.0 446.2,152.0 446.3,152.0 446.4,152.0 446.5,152.0 446.6,152.0 446.7,152.0 446.8,152.0 446.9,152.0 447.0,152.0 447.1,152.0 447.2,152.0 447.3,152.0 447.4,152.0 447.5,152.0 447.6,152.0 447.7,152.0 447.8,152.0 447.9,152.0 448.0,152.0 448.1,152.0 448.2,152.0 448.3,152.0 448.4,152.0 448.5,152.0 448.6,152.0 448.7,152.0 448.8,152.0 448.9,152.0 449.0,152.0 449.1,152.0 449.2,152.0 449.3,152.0 449.4,152.0 449.5,152.0 449.6,152.0 449.7,152.0 449.8,152.0 449.9,152.0 450.0,152.0 450.1,152.0 450.2,152.0 450.3,152.0 450.4,152.0 450.5,152.0 450.6,152.0 450.7,152.0 450.8,152.0 450.9,152.0 451.0,152.0 451.1,152.0 451.2,152.0 451.3,152.0 451.4,152.0 451.5,152.0 451.6,152.0 451.7,152.0 451.8,152.0 451.9,152.0 452.0,152.0 452.1,152.0 452.2,152.0 452.3,152.0 452.4,152.0 452.5,152.0 452.6,152.0 452.7,152.0 452.8,152.0 452.9,152.0 453.0,152.0 453.1,152.0 453.2,152.0 453.3,152.0 453.4,152.0 453.5,152.0 453.6,152.0 453.7,152.0 453.8,152.0 453.9,152.0 454.0,152.0 454.1,152.0 454.2,152.0 454.3,152.0 454.4,152.0 454.5,152.0 454.6,152.0 454.7,152.0 454.8,152.0 454.9,152.0 455.0,152.0 455.1,152.0 455.2,152.0 455.3,152.0 455.4,152.0 455.5,152.0 455.6,152.0 455.7,152.0 455.8,152.0 455.9,152.0 456.0,152.0 456.1,152.0 456.2,152.0 456.3,152.0 456.4,152.0 456.5,152.0 456.6,152.0 456.7,152.0 456.8,152.0 456.9,152.0 457.0,152.0 457.1,152.0 457.2,152.0 457.3,152.0 457.4,152.0 457.5,152.0 457.6,152.0 457.7,152.0 457.8,152.0 457.9,152.0 458.0,152.0 458.1,152.0 458.2,152.0 458.3,152.0 458.4,152.0 458.5,152.0 458.6,152.0 458.7,152.0 458.8,152.0 458.9,152.0 459.0,152.0 459.1,152.0 459.2,152.0 459.3,152.0 459.4,152.0 459.5,152.0 459.6,152.0 459.7,152.0 459.8,152.0 459.9,152.0 460.0,152.0 460.1,152.0 460.2,152.0 460.3,152.0 460.4,152.0 460.5,152.0 460.6,152.0 460.7,152.0 460.8,152.0 460.9,152.0 461.0,152.0 461.1,152.0 461.2,152.0 461.3,152.0 461.4,152.0 461.5,152.0 461.6,152.0 461.7,152.0 461.8,152.0 461.9,152.0 462.0,152.0 462.1,152.0 462.2,152.0 462.3,152.0 462.4,152.0 462.5,152.0 462.6,152.0 462.7,152.0 462.8,152.0 462.9,152.0 463.0,152.0 463.1,152.0 463.2,152.0 463.3,152.0 463.4,152.0 463.5,152.0 463.6,152.0 463.7,152.0 463.8,152.0 463.9,152.0 464.0,152.0 464.1,152.0 464.2,152.0 464.3,152.0 464.4,152.0 464.5,152.0 464.6,152.0 464.7,152.0 464.8,152.0 464.9,152.0 465.0,152.0 465.1,152.0 465.2,152.0 465.3,152.0 465.4,152.0 465.5,152.0 465.6,152.0 465.7,152.0 465.8,152.0 465.9,152.0 466.0,152.0 466.1,152.0 466.2,152.0 466.3,152.0 466.4,152.0 466.5,152.0 466.6,152.0 466.7,152.0 466.8,152.0 466.9,152.0 467.0,152.0 467.1,152.0 467.2,152.0 467.3,152.0 467.4,152.0 467.5,152.0 467.6,152.0 467.7,152.0 467.8,152.0 467.9,152.0 468.0,152.0 468.1,152.0 468.2,152.0 468.3,152.0 468.4,152.0 468.5,152.0 468.6,152.0 468.7,152.0 468.8,152.0 468.9,152.0 469.0,152.0 469.1,152.0 469.2,152.0 469.3,152.0 469.4,152.0 469.5,152.0 469.6,152.0 469.7,152.0 469.8,152.0 469.9,152.0 470.0,152.0 470.1,152.0 470.2,152.0 470.3,152.0 470.4,152.0 470.5,152.0 470.6,152.0 470.7,152.0 470.8,152.0 470.9,152.0 471.0,152.0 471.1,152.0 471.2,152.0 471.3,152.0 471.4,152.0 471.5,152.0 471.6,152.0 471.7,152.0 471.8,152.0 471.9,152.0 472.0,152.0 472.1,152.0 472.2,152.0 472.3,152.0 472.4,152.0 472.5,152.0 472.6,152.0 472.7,152.0 472.8,152.0 472.9,152.0 473.0,152.0 473.1,152.0 473.2,152.0 473.3,152.0 473.4,152.0 473.5,152.0 473.6,152.0 473.7,152.0 473.8,152.0 473.9,152.0 474.0,152.0 474.1,152.0 474.2,152.0 474.3,152.0 474.4,152.0 474.5,152.0 474.6,152.0 474.7,152.0 474.8,152.0 474.9,152.0 475.0,152.0 475.1,152.0 475.2,152.0 475.3,152.0 475.4,152.0 475.5,152.0 475.6,152.0 475.7,152.0 475.8,152.0 475.9,152.0 476.0,152.0 476.1,152.0 476.2,152.0 476.3,152.0 476.4,152.0 476.5,152.0 476.6,152.0 476.7,152.0 476.8,152.0 476.9,152.0 477.0,152.0 477.1,152.0 477.2,152.0 477.3,152.0 477.4,152.0 477.5,152.0 477.6,152.0 477.7,152.0 477.8,152.0 477.9,152.0 478.0,152.0 478.1,152.0 478.2,152.0 478.3,152.0 478.4,152.0 478.5,152.0 478.6,152.0 478.7,152.0 478.8,152.0 478.9,152.0 479.0,152.0 479.1,152.0 479.2,152.0 479.3,152.0 479.4,152.0 479.5,152.0 479.6,152.0 479.7,152.0 479.8,152.0 479.9,152.0 480.0,152.0 480.1,152.0 480.2,152.0 480.3,152.0 480.4,152.0 480.5,152.0 480.6,152.0 480.7,152.0 480.8,152.0 480.9,152.0 481.0,152.0 481.1,152.0 481.2,152.0 481.3,152.0 481.4,152.0 481.5,152.0 481.6,152.0 481.7,152.0 481.8,152.0 481.9,152.0 482.0,152.0 482.1,152.0 482.2,152.0 482.3,152.0 482.4,152.0 482.5,152.0 482.6,152.0 482.7,152.0 482.8,152.0 482.9,152.0 483.0,152.0 483.1,152.0 483.2,152.0 483.3,152.0 483.4,152.0 483.5,152.0 483.6,152.0 483.7,152.0 483.8,152.0 483.9,152.0 484.0,152.0 484.1,152.0 484.2,152.0 484.3,152.0 484.4,152.0 484.5,152.0 484.6,152.0 484.7,152.0 484.8,152.0 484.9,152.0 485.0,152.0 485.1,152.0 485.2,152.0 485.3,152.0 485.4,152.0 485.5,152.0 485.6,152.0 485.7,152.0 485.8,152.0 485.9,152.0 486.0,152.0 486.1,152.0 486.2,152.0 486.3,152.0 486.4,152.0 486.5,152.0 486.6,152.0 486.7,152.0 486.8,152.0 486.9,152.0 487.0,152.0 487.1,152.0 487.2,152.0 487.3,152.0 487.4,152.0 487.5,152.0 487.6,152.0 487.7,152.0 487.8,152.0 487.9,152.0 488.0,152.0 488.1,152.0 488.2,152.0 488.3,152.0 488.4,152.0 488.5,152.0 488.6,152.0 488.7,152.0 488.8,152.0 488.9,152.0 489.0,152.0 489.1,152.0 489.2,152.0 489.3,152.0 489.4,152.0 489.5,152.0 489.6,152.0 489.7,152.0 489.8,152.0 489.9,152.0 490.0,152.0 490.1,152.0 490.2,152.0 490.3,152.0 490.4,152.0 490.5,152.0 490.6,152.0 490.7,152.0 490.8,152.0 490.9,152.0 491.0,152.0 491.1,152.0 491.2,152.0 491.3,152.0 491.4,152.0 491.5,152.0 491.6,152.0 491.7,152.0 491.8,152.0 491.9,152.0 492.0,152.0 492.1,152.0 492.2,152.0 492.3,152.0 492.4,152.0 492.5,152.0 492.6,152.0 492.7,152.0 492.9,152.0 493.0,152.0 493.1,152.0 493.2,152.0 493.3,152.0 493.4,152.0 493.5,152.0 493.6,152.0 493.7,152.0 493.8,152.0 493.9,152.0 494.0,152.0 494.1,152.0 494.2,152.0 494.3,152.0 494.4,152.0 494.5,152.0 494.6,152.0 494.7,152.0 494.8,152.0 494.9,152.0 495.0,152.0 495.1,152.0 495.2,152.0 495.3,152.0 495.4,152.0 495.5,152.0 495.6,152.0 495.7,152.0 495.8,152.0 495.9,152.0 496.0,152.0 496.1,152.0 496.2,152.0 496.3,152.0 496.4,152.0 496.5,152.0 496.6,152.0 496.7,152.0 496.8,152.0 496.9,152.0 497.0,152.0 497.1,152.0 497.2,152.0 497.3,152.0 497.4,152.0 497.5,152.0 497.6,152.0 497.7,152.0 497.8,152.0 497.9,152.0 498.0,152.0 498.1,152.0 498.2,152.0 498.3,152.0 498.4,152.0 498.5,152.0 498.6,152.0 498.7,152.0 498.8,152.0 498.9,152.0 499.0,152.0 499.1,152.0 499.2,152.0 499.3,152.0 499.4,152.0 499.5,152.0 499.6,152.0 499.7,152.0 499.8,152.0 499.9,152.0 500.0,152.0 500.1,152.0 500.2,152.0 500.3,152.0 500.4,152.0 500.5,152.0 500.6,152.0 500.7,152.0 500.8,152.0 500.9,152.0 501.0,152.0 501.1,152.0 501.2,152.0 501.3,152.0 501.4,152.0 501.5,152.0 501.6,152.0 501.7,152.0 501.8,152.0 501.9,152.0 502.0,152.0 502.1,152.0 502.2,152.0 502.3,152.0 502.4,152.0 502.5,152.0 502.6,152.0 502.7,152.0 502.8,152.0 502.9,152.0 503.0,152.0 503.1,152.0 503.2,152.0 503.3,152.0 503.4,152.0 503.5,152.0 503.6,152.0 503.7,152.0 503.8,152.0 503.9,152.0 504.0,152.0 504.1,152.0 504.2,152.0 504.3,152.0 504.4,152.0 504.5,152.0 504.6,152.0 504.7,152.0 504.8,152.0 504.9,152.0 505.0,152.0 505.1,152.0 505.2,152.0 505.3,152.0 505.4,152.0 505.5,152.0 505.6,152.0 505.7,152.0 505.8,152.0 505.9,152.0 506.0,152.0 506.1,152.0 506.2,152.0 506.3,152.0 506.4,152.0 506.5,152.0 506.6,152.0 506.7,152.0 506.8,152.0 506.9,152.0 507.0,152.0 507.1,152.0 507.2,152.0 507.3,152.0 507.4,152.0 507.5,152.0 507.6,152.0 507.7,152.0 507.8,152.0 507.9,152.0 508.0,152.0 508.1,152.0 508.2,152.0 508.3,152.0 508.4,152.0 508.5,152.0 508.6,152.0 508.7,152.0 508.8,152.0 508.9,152.0 509.0,152.0 509.1,152.0 509.2,152.0 509.3,152.0 509.4,152.0 509.5,152.0 509.6,152.0 509.7,152.0 509.8,152.0 509.9,152.0 510.0,152.0 510.1,152.0 510.2,152.0 510.3,152.0 510.4,152.0 510.5,152.0 510.6,152.0 510.7,152.0 510.8,152.0 510.9,152.0 511.0,152.0 511.1,152.0 511.2,152.0 511.3,152.0 511.4,152.0 511.5,152.0 511.6,152.0 511.7,152.0 511.8,152.0 511.9,152.0 512.0,152.0 512.1,152.0 512.2,152.0 512.3,152.0 512.4,152.0 512.5,152.0 512.6,152.0 512.7,152.0 512.8,152.0 512.9,152.0 513.0,152.0 513.1,152.0 513.2,152.0 513.3,152.0 513.4,152.0 513.5,152.0 513.6,152.0 513.7,152.0 513.8,152.0 513.9,152.0 514.0,152.0 514.1,152.0 514.2,152.0 514.3,152.0 514.4,152.0 514.5,152.0 514.6,152.0 514.7,152.0 514.8,152.0 514.9,152.0 515.0,152.0 515.1,152.0 515.2,152.0 515.3,152.0 515.4,152.0 515.5,152.0 515.6,152.0 515.7,152.0 515.8,152.0 515.9,152.0 516.0,152.0 516.1,152.0 516.2,152.0 516.3,152.0 516.4,152.0 516.5,152.0 516.6,152.0 516.7,152.0 516.8,152.0 516.9,152.0 517.0,152.0 517.1,152.0 517.2,152.0 517.3,152.0 517.4,152.0 517.5,152.0 517.6,152.0 517.7,152.0 517.8,152.0 517.9,152.0 518.0,152.0 518.1,152.0 518.2,152.0 518.3,152.0 518.4,152.0 518.5,152.0 518.6,152.0 518.7,152.0 518.8,152.0 518.9,152.0 519.0,152.0 519.1,152.0 519.2,152.0 519.3,152.0 519.4,152.0 519.5,152.0 519.6,152.0 519.7,152.0 519.8,152.0 519.9,152.0 520.0,152.0 520.1,152.0 520.2,152.0 520.3,152.0 520.4,152.0 520.5,152.0 520.6,152.0 520.7,152.0 520.8,152.0 520.9,152.0 521.0,152.0 521.1,152.0 521.2,152.0 521.3,152.0 521.4,152.0 521.5,152.0 521.6,152.0 521.7,152.0 521.8,152.0 521.9,152.0 522.0,152.0 522.1,152.0 522.2,152.0 522.3,152.0 522.4,152.0 522.5,152.0 522.6,152.0 522.7,152.0 522.8,152.0 522.9,152.0 523.0,152.0 523.1,152.0 523.2,152.0 523.3,152.0 523.4,152.0 523.5,152.0 523.6,152.0 523.7,152.0 523.8,152.0 523.9,152.0 524.0,152.0 524.1,152.0 524.2,152.0 524.3,152.0 524.4,152.0 524.5,152.0 524.6,152.0 524.7,152.0 524.8,152.0 524.9,152.0 525.0,152.0 525.1,152.0 525.2,152.0 525.3,152.0 525.4,152.0 525.5,152.0 525.6,152.0 525.7,152.0 525.8,152.0 525.9,152.0 526.0,152.0 526.1,152.0 526.2,152.0 526.3,152.0 526.4,152.0 526.5,152.0 526.6,152.0 526.7,152.0 526.8,152.0 526.9,152.0 527.0,152.0" fill="none" stroke="#4a90d9" stroke-width="1.2" stroke-linejoin="round"/>
  <text x="154.5" y="176" text-anchor="middle" font-size="8" fill="#6b7280">n / N</text>
  <text x="424.5" y="176" text-anchor="middle" font-size="8" fill="#6b7280">Normalized frequency (× Fₛ)</text>
</svg>
