<svg xmlns="http://www.w3.org/2000/svg" viewBox="0 0 560 190" width="560" height="190" style="font-family:system-ui,-apple-system,sans-serif">
  <rect width="560" height="190" fill="none"/>
  <line x1="52" y1="152.0" x2="257" y2="152.0" stroke="#e5e7eb" stroke-width="0.5"/>
  <text x="48" y="155.0" text-anchor="end" font-size="7.5" fill="#6b7280">0</text>
  <line x1="52" y1="82.0" x2="257" y2="82.0" stroke="#e5e7eb" stroke-width="0.5"/>
  <text x="48" y="85.0" text-anchor="end" font-size="7.5" fill="#6b7280">0.5</text>
  <line x1="52" y1="12.0" x2="257" y2="12.0" stroke="#e5e7eb" stroke-width="0.5"/>
  <text x="48" y="15.0" text-anchor="end" font-size="7.5" fill="#6b7280">1</text>
  <line x1="52.0" y1="12" x2="52.0" y2="152" stroke="#e5e7eb" stroke-width="0.5"/>
  <text x="52.0" y="164" text-anchor="middle" font-size="7.5" fill="#6b7280">0</text>
  <line x1="154.5" y1="12" x2="154.5" y2="152" stroke="#e5e7eb" stroke-width="0.5"/>
  <text x="154.5" y="164" text-anchor="middle" font-size="7.5" fill="#6b7280">0.5</text>
  <line x1="257.0" y1="12" x2="257.0" y2="152" stroke="#e5e7eb" stroke-width="0.5"/>
  <text x="257.0" y="164" text-anchor="middle" font-size="7.5" fill="#6b7280">1</text>
  <line x1="52" y1="12" x2="52" y2="152" stroke="#d1d5db" stroke-width="0.75"/>
  <line x1="52" y1="152" x2="257" y2="152" stroke="#d1d5db" stroke-width="0.75"/>
  <path d="M52.0,152.0 52.0,151.9 52.8,151.9 53.6,151.9 54.4,151.9 55.2,151.9 56.0,151.9 56.8,151.9 57.6,151.9 58.4,151.8 59.2,151.8 60.0,151.8 60.8,151.7 61.6,151.7 62.5,151.6 63.3,151.6 64.1,151.5 64.9,151.4 65.7,151.3 66.5,151.2 67.3,151.1 68.1,151.0 68.9,150.9 69.7,150.7 70.5,150.6 71.3,150.4 72.1,150.2 72.9,150.0 73.7,149.8 74.5,149.6 75.3,149.3 76.1,149.0 76.9,148.7 77.7,148.4 78.5,148.1 79.3,147.7 80.1,147.3 80.9,146.9 81.7,146.5 82.5,146.0 83.4,145.5 84.2,144.9 85.0,144.3 85.8,143.7 86.6,143.1 87.4,142.4 88.2,141.7 89.0,140.9 89.8,140.1 90.6,139.3 91.4,138.4 92.2,137.5 93.0,136.5 93.8,135.5 94.6,134.5 95.4,133.4 96.2,132.2 97.0,131.0 97.8,129.8 98.6,128.5 99.4,127.2 100.2,125.8 101.0,124.4 101.8,122.9 102.6,121.4 103.5,119.8 104.3,118.2 105.1,116.6 105.9,114.9 106.7,113.1 107.5,111.3 108.3,109.5 109.1,107.6 109.9,105.7 110.7,103.7 111.5,101.7 112.3,99.7 113.1,97.7 113.9,95.6 114.7,93.4 115.5,91.3 116.3,89.1 117.1,86.9 117.9,84.7 118.7,82.4 119.5,80.2 120.3,77.9 121.1,75.6 121.9,73.3 122.7,71.0 123.5,68.7 124.4,66.4 125.2,64.2 126.0,61.9 126.8,59.6 127.6,57.4 128.4,55.1 129.2,52.9 130.0,50.7 130.8,48.5 131.6,46.4 132.4,44.3 133.2,42.3 134.0,40.2 134.8,38.3 135.6,36.4 136.4,34.5 137.2,32.7 138.0,30.9 138.8,29.2 139.6,27.6 140.4,26.0 141.2,24.5 142.0,23.1 142.8,21.8 143.6,20.5 144.5,19.3 145.3,18.2 146.1,17.2 146.9,16.3 147.7,15.4 148.5,14.7 149.3,14.0 150.1,13.4 150.9,13.0 151.7,12.6 152.5,12.3 153.3,12.1 154.1,12.0 154.9,12.0 155.7,12.1 156.5,12.3 157.3,12.6 158.1,13.0 158.9,13.4 159.7,14.0 160.5,14.7 161.3,15.4 162.1,16.3 162.9,17.2 163.7,18.2 164.5,19.3 165.4,20.5 166.2,21.8 167.0,23.1 167.8,24.5 168.6,26.0 169.4,27.6 170.2,29.2 171.0,30.9 171.8,32.7 172.6,34.5 173.4,36.4 174.2,38.3 175.0,40.2 175.8,42.3 176.6,44.3 177.4,46.4 178.2,48.5 179.0,50.7 179.8,52.9 180.6,55.1 181.4,57.4 182.2,59.6 183.0,61.9 183.8,64.2 184.6,66.4 185.5,68.7 186.3,71.0 187.1,73.3 187.9,75.6 188.7,77.9 189.5,80.2 190.3,82.4 191.1,84.7 191.9,86.9 192.7,89.1 193.5,91.3 194.3,93.4 195.1,95.6 195.9,97.7 196.7,99.7 197.5,101.7 198.3,103.7 199.1,105.7 199.9,107.6 200.7,109.5 201.5,111.3 202.3,113.1 203.1,114.9 203.9,116.6 204.7,118.2 205.5,119.8 206.4,121.4 207.2,122.9 208.0,124.4 208.8,125.8 209.6,127.2 210.4,128.5 211.2,129.8 212.0,131.0 212.8,132.2 213.6,133.4 214.4,134.5 215.2,135.5 216.0,136.5 216.8,137.5 217.6,138.4 218.4,139.3 219.2,140.1 220.0,140.9 220.8,141.7 221.6,142.4 222.4,143.1 223.2,143.7 224.0,144.3 224.8,144.9 225.6,145.5 226.5,146.0 227.3,146.5 228.1,146.9 228.9,147.3 229.7,147.7 230.5,148.1 231.3,148.4 232.1,148.7 232.9,149.0 233.7,149.3 234.5,149.6 235.3,149.8 236.1,150.0 236.9,150.2 237.7,150.4 238.5,150.6 239.3,150.7 240.1,150.9 240.9,151.0 241.7,151.1 242.5,151.2 243.3,151.3 244.1,151.4 244.9,151.5 245.7,151.6 246.5,151.6 247.4,151.7 248.2,151.7 249.0,151.8 249.8,151.8 250.6,151.8 251.4,151.9 252.2,151.9 253.0,151.9 253.8,151.9 254.6,151.9 255.4,151.9 256.2,151.9 257.0,151.9 L257.0,152.0 Z" fill="#4a90d9" fill-opacity="0.06"/>
  <polyline points="52.0,151.9 52.8,151.9 53.6,151.9 54.4,151.9 55.2,151.9 56.0,151.9 56.8,151.9 57.6,151.9 58.4,151.8 59.2,151.8 60.0,151.8 60.8,151.7 61.6,151.7 62.5,151.6 63.3,151.6 64.1,151.5 64.9,151.4 65.7,151.3 66.5,151.2 67.3,151.1 68.1,151.0 68.9,150.9 69.7,150.7 70.5,150.6 71.3,150.4 72.1,150.2 72.9,150.0 73.7,149.8 74.5,149.6 75.3,149.3 76.1,149.0 76.9,148.7 77.7,148.4 78.5,148.1 79.3,147.7 80.1,147.3 80.9,146.9 81.7,146.5 82.5,146.0 83.4,145.5 84.2,144.9 85.0,144.3 85.8,143.7 86.6,143.1 87.4,142.4 88.2,141.7 89.0,140.9 89.8,140.1 90.6,139.3 91.4,138.4 92.2,137.5 93.0,136.5 93.8,135.5 94.6,134.5 95.4,133.4 96.2,132.2 97.0,131.0 97.8,129.8 98.6,128.5 99.4,127.2 100.2,125.8 101.0,124.4 101.8,122.9 102.6,121.4 103.5,119.8 104.3,118.2 105.1,116.6 105.9,114.9 106.7,113.1 107.5,111.3 108.3,109.5 109.1,107.6 109.9,105.7 110.7,103.7 111.5,101.7 112.3,99.7 113.1,97.7 113.9,95.6 114.7,93.4 115.5,91.3 116.3,89.1 117.1,86.9 117.9,84.7 118.7,82.4 119.5,80.2 120.3,77.9 121.1,75.6 121.9,73.3 122.7,71.0 123.5,68.7 124.4,66.4 125.2,64.2 126.0,61.9 126.8,59.6 127.6,57.4 128.4,55.1 129.2,52.9 130.0,50.7 130.8,48.5 131.6,46.4 132.4,44.3 133.2,42.3 134.0,40.2 134.8,38.3 135.6,36.4 136.4,34.5 137.2,32.7 138.0,30.9 138.8,29.2 139.6,27.6 140.4,26.0 141.2,24.5 142.0,23.1 142.8,21.8 143.6,20.5 144.5,19.3 145.3,18.2 146.1,17.2 146.9,16.3 147.7,15.4 148.5,14.7 149.3,14.0 150.1,13.4 150.9,13.0 151.7,12.6 152.5,12.3 153.3,12.1 154.1,12.0 154.9,12.0 155.7,12.1 156.5,12.3 157.3,12.6 158.1,13.0 158.9,13.4 159.7,14.0 160.5,14.7 161.3,15.4 162.1,16.3 162.9,17.2 163.7,18.2 164.5,19.3 165.4,20.5 166.2,21.8 167.0,23.1 167.8,24.5 168.6,26.0 169.4,27.6 170.2,29.2 171.0,30.9 171.8,32.7 172.6,34.5 173.4,36.4 174.2,38.3 175.0,40.2 175.8,42.3 176.6,44.3 177.4,46.4 178.2,48.5 179.0,50.7 179.8,52.9 180.6,55.1 181.4,57.4 182.2,59.6 183.0,61.9 183.8,64.2 184.6,66.4 185.5,68.7 186.3,71.0 187.1,73.3 187.9,75.6 188.7,77.9 189.5,80.2 190.3,82.4 191.1,84.7 191.9,86.9 192.7,89.1 193.5,91.3 194.3,93.4 195.1,95.6 195.9,97.7 196.7,99.7 197.5,101.7 198.3,103.7 199.1,105.7 199.9,107.6 200.7,109.5 201.5,111.3 202.3,113.1 203.1,114.9 203.9,116.6 204.7,118.2 205.5,119.8 206.4,121.4 207.2,122.9 208.0,124.4 208.8,125.8 209.6,127.2 210.4,128.5 211.2,129.8 212.0,131.0 212.8,132.2 213.6,133.4 214.4,134.5 215.2,135.5 216.0,136.5 216.8,137.5 217.6,138.4 218.4,139.3 219.2,140.1 220.0,140.9 220.8,141.7 221.6,142.4 222.4,143.1 223.2,143.7 224.0,144.3 224.8,144.9 225.6,145.5 226.5,146.0 227.3,146.5 228.1,146.9 228.9,147.3 229.7,147.7 230.5,148.1 231.3,148.4 232.1,148.7 232.9,149.0 233.7,149.3 234.5,149.6 235.3,149.8 236.1,150.0 236.9,150.2 237.7,150.4 238.5,150.6 239.3,150.7 240.1,150.9 240.9,151.0 241.7,151.1 242.5,151.2 243.3,151.3 244.1,151.4 244.9,151.5 245.7,151.6 246.5,151.6 247.4,151.7 248.2,151.7 249.0,151.8 249.8,151.8 250.6,151.8 251.4,151.9 252.2,151.9 253.0,151.9 253.8,151.9 254.6,151.9 255.4,151.9 256.2,151.9 257.0,151.9" fill="none" stroke="#4a90d9" stroke-width="1.2" stroke-linejoin="round"/>
  <line x1="322" y1="12.0" x2="527" y2="12.0" stroke="#e5e7eb" stroke-width="0.5"/>
  <text x="318" y="15.0" text-anchor="end" font-size="7.5" fill="#6b7280">0</text>
  <line x1="322" y1="58.7" x2="527" y2="58.7" stroke="#e5e7eb" stroke-width="0.5"/>
  <text x="318" y="61.7" text-anchor="end" font-size="7.5" fill="#6b7280">-40</text>
  <line x1="322" y1="105.3" x2="527" y2="105.3" stroke="#e5e7eb" stroke-width="0.5"/>
  <text x="318" y="108.3" text-anchor="end" font-size="7.5" fill="#6b7280">-80</text>
  <line x1="322" y1="152.0" x2="527" y2="152.0" stroke="#e5e7eb" stroke-width="0.5"/>
  <text x="318" y="155.0" text-anchor="end" font-size="7.5" fill="#6b7280">-120</text>
  <line x1="322.0" y1="12" x2="322.0" y2="152" stroke="#e5e7eb" stroke-width="0.5"/>
  <text x="322.0" y="164" text-anchor="middle" font-size="7.5" fill="#6b7280">0</text>
  <line x1="363.0" y1="12" x2="363.0" y2="152" stroke="#e5e7eb" stroke-width="0.5"/>
  <text x="363.0" y="164" text-anchor="middle" font-size="7.5" fill="#6b7280">0.1</text>
  <line x1="404.0" y1="12" x2="404.0" y2="152" stroke="#e5e7eb" stroke-width="0.5"/>
  <text x="404.0" y="164" text-anchor="middle" font-size="7.5" fill="#6b7280">0.2</text>
  <line x1="445.0" y1="12" x2="445.0" y2="152" stroke="#e5e7eb" stroke-width="0.5"/>
  <text x="445.0" y="164" text-anchor="middle" font-size="7.5" fill="#6b7280">0.3</text>
  <line x1="486.0" y1="12" x2="486.0" y2="152" stroke="#e5e7eb" stroke-width="0.5"/>
  <text x="486.0" y="164" text-anchor="middle" font-size="7.5" fill="#6b7280">0.4</text>
  <line x1="527.0" y1="12" x2="527.0" y2="152" stroke="#e5e7eb" stroke-width="0.5"/>
  <text x="527.0" y="164" text-anchor="middle" font-size="7.5" fill="#6b7280">0.5</text>
  <line x1="322" y1="12" x2="322" y2="152" stroke="#d1d5db" stroke-width="0.75"/>
  <line x1="322" y1="152" x2="527" y2="152" stroke="#d1d5db" stroke-width="0.75"/>
  <polyline points="322.0,12.0 322.1,12.0 322.2,12.1 322.3,12.1 322.4,12.2 322.5,12.4 322.6,12.6 322.7,12.8 322.8,13.0 322.9,13.2 323.0,13.5 323.1,13.9 323.2,14.2 323.3,14.6 323.4,15.0 323.5,15.5 323.6,16.0 323.7,16.5 323.8,17.1 323.9,17.7 324.0,18.3 324.1,18.9 324.2,19.6 324.3,20.4 324.4,21.2 324.5,22.0 324.6,22.8 324.7,23.7 324.8,24.6 324.9,25.6 325.0,26.6 325.1,27.7 325.2,28.8 325.3,30.0 325.4,31.2 325.5,32.4 325.6,33.7 325.7,35.1 325.8,36.5 325.9,38.0 326.0,39.5 326.1,41.1 326.2,42.8 326.3,44.5 326.4,46.3 326.5,48.2 326.6,50.2 326.7,52.2 326.8,54.4 326.9,56.7 327.0,59.0 327.1,61.5 327.2,64.2 327.3,67.0 327.4,70.0 327.5,73.1 327.6,76.5 327.7,80.2 327.8,84.2 327.9,88.6 328.0,93.5 328.1,99.2 328.2,106.0 328.3,114.9 328.4,130.1 328.5,135.4 328.6,130.1 328.7,133.2 328.8,147.4 328.9,138.8 329.0,130.9 329.1,127.8 329.2,126.8 329.3,127.1 329.4,128.7 329.5,131.6 329.6,136.5 329.7,146.2 329.8,152.0 329.9,142.3 330.0,138.7 330.1,137.9 330.2,139.2 330.3,143.3 330.4,152.0 330.5,148.1 330.6,138.7 330.7,134.0 330.8,131.0 330.9,129.2 331.0,128.1 331.1,127.6 331.2,127.8 331.3,128.5 331.4,129.9 331.5,132.2 331.6,136.1 331.7,143.4 331.8,152.0 331.9,141.1 332.0,134.9 332.1,131.3 332.2,129.1 332.3,127.6 332.4,126.7 332.5,126.3 332.6,126.2 332.7,126.6 332.8,127.4 332.9,128.6 333.0,130.3 333.1,132.7 333.2,136.1 333.3,141.6 333.4,152.0 333.5,151.8 333.6,141.9 333.7,137.5 333.8,134.9 333.9,133.3 334.0,132.3 334.1,131.8 334.2,131.6 334.3,131.8 334.4,132.3 334.5,133.1 334.6,134.1 334.7,135.5 334.8,137.2 334.9,139.3 335.0,141.9 335.1,145.2 335.2,149.9 335.3,152.0 335.4,152.0 335.5,152.0 335.6,151.5 335.7,148.0 335.8,145.6 335.9,143.8 336.0,142.4 336.1,141.2 336.2,140.2 336.3,139.3 336.4,138.5 336.5,137.9 336.6,137.4 336.7,137.1 336.8,136.9 336.9,137.0 337.0,137.3 337.1,137.9 337.2,138.9 337.3,140.4 337.4,142.7 337.5,146.4 337.6,152.0 337.7,152.0 337.8,150.7 337.9,144.0 338.0,140.0 338.1,137.3 338.2,135.3 338.3,133.8 338.4,132.8 338.5,132.1 338.6,131.8 338.7,131.9 338.8,132.3 338.9,133.1 339.0,134.5 339.1,136.6 339.2,139.8 339.3,145.4 339.4,152.0 339.5,150.0 339.6,141.5 339.7,137.0 339.8,134.1 339.9,132.1 340.0,130.8 340.1,129.8 340.2,129.3 340.3,129.2 340.4,129.4 340.5,130.1 340.6,131.2 340.7,133.0 340.8,135.6 340.9,139.8 341.0,148.0 341.1,152.0 341.2,142.9 341.3,137.0 341.4,133.6 341.5,131.3 341.6,129.7 341.7,128.6 341.8,128.0 341.9,127.8 342.0,127.9 342.1,128.5 342.2,129.5 342.3,131.1 342.4,133.5 342.5,137.1 342.6,143.8 342.7,152.0 342.8,144.2 342.9,137.2 343.0,133.3 343.1,130.8 343.2,129.1 343.3,127.9 343.4,127.3 343.5,127.0 343.6,127.1 343.7,127.6 343.8,128.6 343.9,130.0 344.0,132.3 344.1,135.7 344.2,141.6 344.3,152.0 344.4,145.5 344.5,137.5 344.6,133.3 344.7,130.6 344.8,128.8 344.9,127.6 345.0,126.9 345.1,126.6 345.2,126.6 345.3,127.1 345.4,128.0 345.5,129.4 345.6,131.6 345.7,134.8 345.8,140.3 345.9,152.0 346.0,146.8 346.1,137.8 346.2,133.4 346.3,130.6 346.4,128.7 346.5,127.5 346.6,126.7 346.7,126.3 346.8,126.4 346.9,126.8 347.0,127.7 347.1,129.1 347.2,131.2 347.3,134.3 347.4,139.6 347.5,152.0 347.6,148.0 347.7,138.2 347.8,133.6 347.9,130.7 348.0,128.7 348.1,127.4 348.2,126.7 348.3,126.3 348.4,126.3 348.5,126.7 348.6,127.6 348.7,129.0 348.8,131.0 348.9,134.1 349.0,139.1 349.1,150.6 349.2,149.1 349.3,138.6 349.4,133.8 349.5,130.8 349.6,128.8 349.7,127.5 349.8,126.7 349.9,126.3 350.0,126.3 350.1,126.7 350.2,127.6 350.3,128.9 350.4,130.9 350.5,133.9 350.6,138.8 350.7,149.6 350.8,150.2 350.9,139.0 351.0,134.0 351.1,131.0 351.2,129.0 351.3,127.7 351.4,126.8 351.5,126.4 351.6,126.4 351.7,126.8 351.8,127.6 351.9,129.0 352.0,130.9 352.1,133.9 352.2,138.6 352.3,148.9 352.4,151.2 352.5,139.4 352.6,134.3 352.7,131.3 352.8,129.2 352.9,127.9 353.0,127.0 353.1,126.6 353.2,126.6 353.3,127.0 353.4,127.8 353.5,129.0 353.6,131.0 353.7,133.9 353.8,138.6 353.9,148.5 354.0,152.0 354.1,139.8 354.2,134.6 354.3,131.5 354.4,129.4 354.5,128.1 354.6,127.2 354.7,126.8 354.8,126.8 354.9,127.1 355.0,127.9 355.1,129.2 355.2,131.1 355.3,134.0 355.4,138.6 355.5,148.2 355.6,152.0 355.7,140.2 355.8,134.9 355.9,131.8 356.0,129.7 356.1,128.3 356.3,127.4 356.4,127.0 356.5,127.0 356.6,127.3 356.7,128.1 356.8,129.4 356.9,131.3 357.0,134.1 357.1,138.6 357.2,148.0 357.3,152.0 357.4,140.6 357.5,135.3 357.6,132.1 357.7,130.0 357.8,128.5 357.9,127.7 358.0,127.2 358.1,127.2 358.2,127.5 358.3,128.3 358.4,129.5 358.5,131.4 358.6,134.2 358.7,138.7 358.8,147.9 358.9,152.0 359.0,141.0 359.1,135.6 359.2,132.3 359.3,130.2 359.4,128.8 359.5,127.9 359.6,127.4 359.7,127.4 359.8,127.7 359.9,128.5 360.0,129.7 360.1,131.6 360.2,134.4 360.3,138.9 360.4,147.8 360.5,152.0 360.6,141.4 360.7,135.9 360.8,132.6 360.9,130.5 361.0,129.1 361.1,128.2 361.2,127.7 361.3,127.6 361.4,128.0 361.5,128.7 361.6,130.0 361.7,131.8 361.8,134.6 361.9,139.0 362.0,147.8 362.1,152.0 362.2,141.7 362.3,136.2 362.4,132.9 362.5,130.8 362.6,129.3 362.7,128.4 362.8,127.9 362.9,127.9 363.0,128.2 363.1,128.9 363.2,130.2 363.3,132.0 363.4,134.8 363.5,139.2 363.6,147.8 363.7,152.0 363.8,142.1 363.9,136.5 364.0,133.2 364.1,131.0 364.2,129.6 364.3,128.7 364.4,128.2 364.5,128.1 364.6,128.4 364.7,129.2 364.8,130.4 364.9,132.2 365.0,135.0 365.1,139.3 365.2,147.9 365.3,152.0 365.4,142.4 365.5,136.8 365.6,133.5 365.7,131.3 365.8,129.8 365.9,128.9 366.0,128.4 366.1,128.4 366.2,128.7 366.3,129.4 366.4,130.6 366.5,132.5 366.6,135.2 366.7,139.5 366.8,148.0 366.9,152.0 367.0,142.8 367.1,137.1 367.2,133.8 367.3,131.6 367.4,130.1 367.5,129.2 367.6,128.7 367.7,128.6 367.8,128.9 367.9,129.6 368.0,130.8 368.1,132.7 368.2,135.4 368.3,139.7 368.4,148.0 368.5,152.0 368.6,143.1 368.7,137.4 368.8,134.0 368.9,131.8 369.0,130.3 369.1,129.4 369.2,128.9 369.3,128.8 369.4,129.1 369.5,129.9 369.6,131.1 369.7,132.9 369.8,135.6 369.9,139.8 370.0,148.1 370.1,152.0 370.2,143.4 370.3,137.7 370.4,134.3 370.5,132.1 370.6,130.6 370.7,129.7 370.8,129.2 370.9,129.1 371.0,129.4 371.1,130.1 371.2,131.3 371.3,133.1 371.4,135.8 371.5,140.0 371.6,148.3 371.7,152.0 371.8,143.8 371.9,137.9 372.0,134.5 372.1,132.3 372.2,130.8 372.3,129.9 372.4,129.4 372.5,129.3 372.6,129.6 372.7,130.3 372.8,131.5 372.9,133.3 373.0,136.0 373.1,140.2 373.2,148.4 373.3,152.0 373.4,144.1 373.5,138.2 373.6,134.8 373.7,132.6 373.8,131.1 373.9,130.1 374.0,129.6 374.1,129.5 374.2,129.8 374.3,130.5 374.4,131.7 374.5,133.5 374.6,136.2 374.7,140.4 374.8,148.5 374.9,152.0 375.0,144.4 375.1,138.5 375.2,135.1 375.3,132.8 375.4,131.3 375.5,130.4 375.6,129.9 375.7,129.8 375.8,130.1 375.9,130.8 376.0,131.9 376.1,133.7 376.2,136.4 376.3,140.6 376.4,148.6 376.5,152.0 376.6,144.6 376.7,138.7 376.8,135.3 376.9,133.1 377.0,131.6 377.1,130.6 377.2,130.1 377.3,130.0 377.4,130.3 377.5,131.0 377.6,132.2 377.7,133.9 377.8,136.6 377.9,140.8 378.0,148.8 378.1,152.0 378.2,144.9 378.3,139.0 378.4,135.5 378.5,133.3 378.6,131.8 378.7,130.8 378.8,130.3 378.9,130.2 379.0,130.5 379.1,131.2 379.2,132.4 379.3,134.1 379.4,136.8 379.5,140.9 379.6,148.9 379.7,152.0 379.8,145.2 379.9,139.2 380.0,135.8 380.1,133.5 380.2,132.0 380.3,131.0 380.4,130.5 380.5,130.4 380.6,130.7 380.7,131.4 380.8,132.6 380.9,134.3 381.0,137.0 381.1,141.1 381.2,149.0 381.3,152.0 381.4,145.5 381.5,139.5 381.6,136.0 381.7,133.7 381.8,132.2 381.9,131.3 382.0,130.7 382.1,130.6 382.2,130.9 382.3,131.6 382.4,132.8 382.5,134.5 382.6,137.2 382.7,141.3 382.8,149.2 382.9,152.0 383.0,145.7 383.1,139.7 383.2,136.2 383.3,134.0 383.4,132.4 383.5,131.5 383.6,130.9 383.7,130.8 383.8,131.1 383.9,131.8 384.0,133.0 384.1,134.7 384.2,137.4 384.3,141.5 384.4,149.3 384.5,152.0 384.6,146.0 384.7,139.9 384.8,136.4 384.9,134.2 385.0,132.7 385.1,131.7 385.2,131.2 385.3,131.0 385.4,131.3 385.5,132.0 385.6,133.2 385.7,134.9 385.8,137.5 385.9,141.6 386.0,149.4 386.1,152.0 386.2,146.2 386.3,140.2 386.4,136.7 386.5,134.4 386.6,132.9 386.7,131.9 386.8,131.4 386.9,131.2 387.0,131.5 387.1,132.2 387.2,133.4 387.3,135.1 387.4,137.7 387.5,141.8 387.6,149.6 387.7,152.0 387.8,146.5 387.9,140.4 388.0,136.9 388.1,134.6 388.2,133.1 388.3,132.1 388.4,131.6 388.5,131.4 388.6,131.7 388.7,132.4 388.8,133.5 388.9,135.3 389.0,137.9 389.1,142.0 389.2,149.7 389.3,152.0 389.4,146.7 389.5,140.6 389.6,137.1 389.7,134.8 389.8,133.3 389.9,132.3 390.0,131.7 390.1,131.6 390.2,131.9 390.3,132.6 390.4,133.7 390.5,135.5 390.6,138.1 390.7,142.1 390.8,149.8 390.9,152.0 391.0,146.9 391.1,140.8 391.2,137.3 391.3,135.0 391.4,133.4 391.5,132.5 391.6,131.9 391.7,131.8 391.8,132.1 391.9,132.7 392.0,133.9 392.1,135.6 392.2,138.2 392.3,142.3 392.4,150.0 392.5,152.0 392.6,147.1 392.7,141.0 392.8,137.5 392.9,135.2 393.0,133.6 393.1,132.6 393.2,132.1 393.3,132.0 393.4,132.2 393.5,132.9 393.6,134.1 393.7,135.8 393.8,138.4 393.9,142.5 394.0,150.1 394.1,152.0 394.2,147.4 394.3,141.2 394.4,137.7 394.5,135.4 394.6,133.8 394.7,132.8 394.8,132.3 394.9,132.2 395.0,132.4 395.1,133.1 395.2,134.2 395.3,136.0 395.4,138.6 395.5,142.6 395.6,150.2 395.7,152.0 395.8,147.6 395.9,141.4 396.0,137.8 396.1,135.5 396.2,134.0 396.3,133.0 396.4,132.5 396.5,132.3 396.6,132.6 396.7,133.3 396.8,134.4 396.9,136.2 397.0,138.7 397.1,142.8 397.2,150.4 397.3,152.0 397.4,147.8 397.5,141.6 397.6,138.0 397.7,135.7 397.8,134.2 397.9,133.2 398.0,132.6 398.1,132.5 398.2,132.8 398.3,133.4 398.4,134.6 398.5,136.3 398.6,138.9 398.7,142.9 398.8,150.5 398.9,152.0 399.0,148.0 399.1,141.8 399.2,138.2 399.3,135.9 399.4,134.3 399.5,133.3 399.6,132.8 399.7,132.7 399.8,132.9 399.9,133.6 400.0,134.7 400.1,136.5 400.2,139.1 400.3,143.1 400.4,150.6 400.5,152.0 400.6,148.2 400.7,141.9 400.8,138.4 400.9,136.1 401.0,134.5 401.1,133.5 401.2,133.0 401.3,132.8 401.4,133.1 401.5,133.8 401.6,134.9 401.7,136.6 401.8,139.2 401.9,143.2 402.0,150.7 402.1,152.0 402.2,148.4 402.3,142.1 402.4,138.6 402.5,136.2 402.6,134.7 402.7,133.7 402.8,133.1 402.9,133.0 403.0,133.2 403.1,133.9 403.2,135.0 403.3,136.8 403.4,139.4 403.5,143.4 403.6,150.9 403.7,152.0 403.8,148.5 403.9,142.3 404.0,138.7 404.1,136.4 404.2,134.8 404.3,133.8 404.4,133.3 404.5,133.1 404.6,133.4 404.7,134.1 404.8,135.2 404.9,136.9 405.0,139.5 405.1,143.5 405.2,151.0 405.3,152.0 405.4,148.7 405.5,142.4 405.6,138.9 405.7,136.6 405.8,135.0 405.9,134.0 406.0,133.4 406.1,133.3 406.2,133.6 406.3,134.2 406.4,135.3 406.5,137.1 406.6,139.6 406.7,143.6 406.8,151.1 406.9,152.0 407.0,148.9 407.1,142.6 407.2,139.0 407.3,136.7 407.4,135.1 407.5,134.1 407.6,133.6 407.7,133.4 407.8,133.7 407.9,134.4 408.0,135.5 408.1,137.2 408.2,139.8 408.3,143.8 408.4,151.2 408.5,152.0 408.6,149.1 408.7,142.8 408.8,139.2 408.9,136.9 409.0,135.3 409.1,134.3 409.2,133.7 409.3,133.6 409.4,133.8 409.5,134.5 409.6,135.6 409.7,137.4 409.8,139.9 409.9,143.9 410.0,151.3 410.1,152.0 410.2,149.2 410.3,142.9 410.4,139.3 410.5,137.0 410.6,135.4 410.7,134.4 410.8,133.9 410.9,133.7 411.0,134.0 411.1,134.6 411.2,135.8 411.3,137.5 411.4,140.0 411.5,144.0 411.6,151.4 411.7,152.0 411.8,149.4 411.9,143.1 412.0,139.5 412.1,137.2 412.2,135.6 412.3,134.6 412.4,134.0 412.5,133.9 412.6,134.1 412.7,134.8 412.8,135.9 412.9,137.6 413.0,140.2 413.1,144.2 413.2,151.5 413.3,152.0 413.4,149.6 413.5,143.2 413.6,139.6 413.7,137.3 413.8,135.7 413.9,134.7 414.0,134.2 414.1,134.0 414.2,134.3 414.3,134.9 414.4,136.0 414.5,137.8 414.6,140.3 414.7,144.3 414.8,151.6 414.9,152.0 415.0,149.7 415.1,143.4 415.2,139.8 415.3,137.4 415.4,135.9 415.5,134.9 415.6,134.3 415.7,134.1 415.8,134.4 415.9,135.0 416.0,136.2 416.1,137.9 416.2,140.4 416.3,144.4 416.4,151.8 416.5,152.0 416.6,149.9 416.7,143.5 416.8,139.9 416.9,137.6 417.0,136.0 417.1,135.0 417.2,134.4 417.3,134.3 417.4,134.5 417.5,135.2 417.6,136.3 417.7,138.0 417.8,140.6 417.9,144.5 418.0,151.9 418.1,152.0 418.2,150.0 418.3,143.7 418.4,140.1 418.5,137.7 418.6,136.1 418.7,135.1 418.8,134.6 418.9,134.4 419.0,134.6 419.1,135.3 419.2,136.4 419.3,138.1 419.4,140.7 419.5,144.6 419.6,152.0 419.7,152.0 419.8,150.2 419.9,143.8 420.0,140.2 420.1,137.8 420.2,136.3 420.3,135.2 420.4,134.7 420.5,134.5 420.6,134.8 420.7,135.4 420.8,136.5 420.9,138.2 421.0,140.8 421.1,144.7 421.2,152.0 421.3,152.0 421.4,150.3 421.5,143.9 421.6,140.3 421.7,138.0 421.8,136.4 421.9,135.4 422.0,134.8 422.1,134.6 422.2,134.9 422.3,135.5 422.4,136.7 422.5,138.4 422.6,140.9 422.7,144.8 422.8,152.0 422.9,152.0 423.0,150.5 423.1,144.1 423.2,140.4 423.3,138.1 423.4,136.5 423.5,135.5 423.6,134.9 423.7,134.8 423.8,135.0 423.9,135.7 424.0,136.8 424.1,138.5 424.2,141.0 424.3,145.0 424.4,152.0 424.6,152.0 424.7,150.6 424.8,144.2 424.9,140.6 425.0,138.2 425.1,136.6 425.2,135.6 425.3,135.0 425.4,134.9 425.5,135.1 425.6,135.8 425.7,136.9 425.8,138.6 425.9,141.1 426.0,145.1 426.1,152.0 426.2,152.0 426.3,150.7 426.4,144.3 426.5,140.7 426.6,138.3 426.7,136.7 426.8,135.7 426.9,135.2 427.0,135.0 427.1,135.2 427.2,135.9 427.3,137.0 427.4,138.7 427.5,141.2 427.6,145.2 427.7,152.0 427.8,152.0 427.9,150.9 428.0,144.4 428.1,140.8 428.2,138.4 428.3,136.9 428.4,135.8 428.5,135.3 428.6,135.1 428.7,135.3 428.8,136.0 428.9,137.1 429.0,138.8 429.1,141.3 429.2,145.3 429.3,152.0 429.4,152.0 429.5,151.0 429.6,144.5 429.7,140.9 429.8,138.6 429.9,137.0 430.0,135.9 430.1,135.4 430.2,135.2 430.3,135.5 430.4,136.1 430.5,137.2 430.6,138.9 430.7,141.4 430.8,145.4 430.9,152.0 431.0,152.0 431.1,151.1 431.2,144.7 431.3,141.0 431.4,138.7 431.5,137.1 431.6,136.1 431.7,135.5 431.8,135.3 431.9,135.6 432.0,136.2 432.1,137.3 432.2,139.0 432.3,141.5 432.4,145.5 432.5,152.0 432.6,152.0 432.7,151.2 432.8,144.8 432.9,141.1 433.0,138.8 433.1,137.2 433.2,136.2 433.3,135.6 433.4,135.4 433.5,135.7 433.6,136.3 433.7,137.4 433.8,139.1 433.9,141.6 434.0,145.5 434.1,152.0 434.2,152.0 434.3,151.4 434.4,144.9 434.5,141.2 434.6,138.9 434.7,137.3 434.8,136.3 434.9,135.7 435.0,135.5 435.1,135.8 435.2,136.4 435.3,137.5 435.4,139.2 435.5,141.7 435.6,145.6 435.7,152.0 435.8,152.0 435.9,151.5 436.0,145.0 436.1,141.3 436.2,139.0 436.3,137.4 436.4,136.4 436.5,135.8 436.6,135.6 436.7,135.9 436.8,136.5 436.9,137.6 437.0,139.3 437.1,141.8 437.2,145.7 437.3,152.0 437.4,152.0 437.5,151.6 437.6,145.1 437.7,141.5 437.8,139.1 437.9,137.5 438.0,136.5 438.1,135.9 438.2,135.7 438.3,136.0 438.4,136.6 438.5,137.7 438.6,139.4 438.7,141.9 438.8,145.8 438.9,152.0 439.0,152.0 439.1,151.7 439.2,145.2 439.3,141.6 439.4,139.2 439.5,137.6 439.6,136.6 439.7,136.0 439.8,135.8 439.9,136.0 440.0,136.7 440.1,137.8 440.2,139.5 440.3,142.0 440.4,145.9 440.5,152.0 440.6,152.0 440.7,151.8 440.8,145.3 440.9,141.6 441.0,139.3 441.1,137.7 441.2,136.6 441.3,136.1 441.4,135.9 441.5,136.1 441.6,136.8 441.7,137.9 441.8,139.6 441.9,142.1 442.0,146.0 442.1,152.0 442.2,152.0 442.3,151.9 442.4,145.4 442.5,141.7 442.6,139.4 442.7,137.8 442.8,136.7 442.9,136.2 443.0,136.0 443.1,136.2 443.2,136.9 443.3,138.0 443.4,139.7 443.5,142.2 443.6,146.1 443.7,152.0 443.8,152.0 443.9,152.0 444.0,145.5 444.1,141.8 444.2,139.5 444.3,137.9 444.4,136.8 444.5,136.3 444.6,136.1 444.7,136.3 444.8,137.0 444.9,138.1 445.0,139.7 445.1,142.3 445.2,146.1 445.3,152.0 445.4,152.0 445.5,152.0 445.6,145.6 445.7,141.9 445.8,139.5 445.9,137.9 446.0,136.9 446.1,136.3 446.2,136.2 446.3,136.4 446.4,137.0 446.5,138.1 446.6,139.8 446.7,142.3 446.8,146.2 446.9,152.0 447.0,152.0 447.1,152.0 447.2,145.7 447.3,142.0 447.4,139.6 447.5,138.0 447.6,137.0 447.7,136.4 447.8,136.3 447.9,136.5 448.0,137.1 448.1,138.2 448.2,139.9 448.3,142.4 448.4,146.3 448.5,152.0 448.6,152.0 448.7,152.0 448.8,145.8 448.9,142.1 449.0,139.7 449.1,138.1 449.2,137.1 449.3,136.5 449.4,136.3 449.5,136.6 449.6,137.2 449.7,138.3 449.8,140.0 449.9,142.5 450.0,146.4 450.1,152.0 450.2,152.0 450.3,152.0 450.4,145.9 450.5,142.2 450.6,139.8 450.7,138.2 450.8,137.2 450.9,136.6 451.0,136.4 451.1,136.6 451.2,137.3 451.3,138.4 451.4,140.1 451.5,142.6 451.6,146.4 451.7,152.0 451.8,152.0 451.9,152.0 452.0,145.9 452.1,142.3 452.2,139.9 452.3,138.3 452.4,137.2 452.5,136.7 452.6,136.5 452.7,136.7 452.8,137.3 452.9,138.4 453.0,140.1 453.1,142.6 453.2,146.5 453.3,152.0 453.4,152.0 453.5,152.0 453.6,146.0 453.7,142.3 453.8,140.0 453.9,138.4 454.0,137.3 454.1,136.7 454.2,136.6 454.3,136.8 454.4,137.4 454.5,138.5 454.6,140.2 454.7,142.7 454.8,146.6 454.9,152.0 455.0,152.0 455.1,152.0 455.2,146.1 455.3,142.4 455.4,140.0 455.5,138.4 455.6,137.4 455.7,136.8 455.8,136.6 455.9,136.9 456.0,137.5 456.1,138.6 456.2,140.3 456.3,142.8 456.4,146.6 456.5,152.0 456.6,152.0 456.7,152.0 456.8,146.2 456.9,142.5 457.0,140.1 457.1,138.5 457.2,137.5 457.3,136.9 457.4,136.7 457.5,136.9 457.6,137.6 457.7,138.7 457.8,140.3 457.9,142.8 458.0,146.7 458.1,152.0 458.2,152.0 458.3,152.0 458.4,146.3 458.5,142.6 458.6,140.2 458.7,138.6 458.8,137.5 458.9,137.0 459.0,136.8 459.1,137.0 459.2,137.6 459.3,138.7 459.4,140.4 459.5,142.9 459.6,146.8 459.7,152.0 459.8,152.0 459.9,152.0 460.0,146.3 460.1,142.6 460.2,140.3 460.3,138.6 460.4,137.6 460.5,137.0 460.6,136.9 460.7,137.1 460.8,137.7 460.9,138.8 461.0,140.5 461.1,143.0 461.2,146.8 461.3,152.0 461.4,152.0 461.5,152.0 461.6,146.4 461.7,142.7 461.8,140.3 461.9,138.7 462.0,137.7 462.1,137.1 462.2,136.9 462.3,137.1 462.4,137.8 462.5,138.9 462.6,140.5 462.7,143.0 462.8,146.9 462.9,152.0 463.0,152.0 463.1,152.0 463.2,146.5 463.3,142.8 463.4,140.4 463.5,138.8 463.6,137.7 463.7,137.2 463.8,137.0 463.9,137.2 464.0,137.8 464.1,138.9 464.2,140.6 464.3,143.1 464.4,146.9 464.5,152.0 464.6,152.0 464.7,152.0 464.8,146.5 464.9,142.9 465.0,140.5 465.1,138.8 465.2,137.8 465.3,137.2 465.4,137.0 465.5,137.3 465.6,137.9 465.7,139.0 465.8,140.7 465.9,143.1 466.0,147.0 466.1,152.0 466.2,152.0 466.3,152.0 466.4,146.6 466.5,142.9 466.6,140.5 466.7,138.9 466.8,137.9 466.9,137.3 467.0,137.1 467.1,137.3 467.2,137.9 467.3,139.0 467.4,140.7 467.5,143.2 467.6,147.1 467.7,152.0 467.8,152.0 467.9,152.0 468.0,146.7 468.1,143.0 468.2,140.6 468.3,139.0 468.4,137.9 468.5,137.3 468.6,137.2 468.7,137.4 468.8,138.0 468.9,139.1 469.0,140.8 469.1,143.3 469.2,147.1 469.3,152.0 469.4,152.0 469.5,152.0 469.6,146.7 469.7,143.0 469.8,140.6 469.9,139.0 470.0,138.0 470.1,137.4 470.2,137.2 470.3,137.4 470.4,138.1 470.5,139.1 470.6,140.8 470.7,143.3 470.8,147.2 470.9,152.0 471.0,152.0 471.1,152.0 471.2,146.8 471.3,143.1 471.4,140.7 471.5,139.1 471.6,138.0 471.7,137.4 471.8,137.3 471.9,137.5 472.0,138.1 472.1,139.2 472.2,140.9 472.3,143.4 472.4,147.2 472.5,152.0 472.6,152.0 472.7,152.0 472.8,146.9 472.9,143.2 473.0,140.8 473.1,139.1 473.2,138.1 473.3,137.5 473.4,137.3 473.5,137.5 473.6,138.2 473.7,139.3 473.8,140.9 473.9,143.4 474.0,147.2 474.1,152.0 474.2,152.0 474.3,152.0 474.4,146.9 474.5,143.2 474.6,140.8 474.7,139.2 474.8,138.1 474.9,137.6 475.0,137.4 475.1,137.6 475.2,138.2 475.3,139.3 475.4,141.0 475.5,143.4 475.6,147.3 475.7,152.0 475.8,152.0 475.9,152.0 476.0,147.0 476.1,143.3 476.2,140.9 476.3,139.2 476.4,138.2 476.5,137.6 476.6,137.4 476.7,137.6 476.8,138.3 476.9,139.3 477.0,141.0 477.1,143.5 477.2,147.3 477.3,152.0 477.4,152.0 477.5,152.0 477.6,147.0 477.7,143.3 477.8,140.9 477.9,139.3 478.0,138.2 478.1,137.7 478.2,137.5 478.3,137.7 478.4,138.3 478.5,139.4 478.6,141.1 478.7,143.5 478.8,147.4 478.9,152.0 479.0,152.0 479.1,152.0 479.2,147.1 479.3,143.4 479.4,141.0 479.5,139.3 479.6,138.3 479.7,137.7 479.8,137.5 479.9,137.7 480.0,138.4 480.1,139.4 480.2,141.1 480.3,143.6 480.4,147.4 480.5,152.0 480.6,152.0 480.7,152.0 480.8,147.1 480.9,143.4 481.0,141.0 481.1,139.4 481.2,138.3 481.3,137.7 481.4,137.6 481.5,137.8 481.6,138.4 481.7,139.5 481.8,141.1 481.9,143.6 482.0,147.5 482.1,152.0 482.2,152.0 482.3,152.0 482.4,147.2 482.5,143.5 482.6,141.0 482.7,139.4 482.8,138.4 482.9,137.8 483.0,137.6 483.1,137.8 483.2,138.4 483.3,139.5 483.4,141.2 483.5,143.7 483.6,147.5 483.7,152.0 483.8,152.0 483.9,152.0 484.0,147.2 484.1,143.5 484.2,141.1 484.3,139.5 484.4,138.4 484.5,137.8 484.6,137.6 484.7,137.9 484.8,138.5 484.9,139.6 485.0,141.2 485.1,143.7 485.2,147.5 485.3,152.0 485.4,152.0 485.5,152.0 485.6,147.3 485.7,143.6 485.8,141.1 485.9,139.5 486.0,138.5 486.1,137.9 486.2,137.7 486.3,137.9 486.4,138.5 486.5,139.6 486.6,141.3 486.7,143.7 486.8,147.6 486.9,152.0 487.0,152.0 487.1,152.0 487.2,147.3 487.3,143.6 487.4,141.2 487.5,139.6 487.6,138.5 487.7,137.9 487.8,137.7 487.9,137.9 488.0,138.6 488.1,139.6 488.2,141.3 488.3,143.8 488.4,147.6 488.5,152.0 488.6,152.0 488.7,152.0 488.8,147.4 488.9,143.6 489.0,141.2 489.1,139.6 489.2,138.5 489.3,137.9 489.4,137.8 489.5,138.0 489.6,138.6 489.7,139.7 489.8,141.3 489.9,143.8 490.0,147.6 490.1,152.0 490.2,152.0 490.3,152.0 490.4,147.4 490.5,143.7 490.6,141.3 490.7,139.6 490.8,138.6 490.9,138.0 491.0,137.8 491.1,138.0 491.2,138.6 491.3,139.7 491.4,141.4 491.5,143.8 491.6,147.7 491.7,152.0 491.8,152.0 491.9,152.0 492.0,147.4 492.1,143.7 492.2,141.3 492.3,139.7 492.4,138.6 492.5,138.0 492.6,137.8 492.7,138.0 492.9,138.7 493.0,139.7 493.1,141.4 493.2,143.9 493.3,147.7 493.4,152.0 493.5,152.0 493.6,152.0 493.7,147.5 493.8,143.7 493.9,141.3 494.0,139.7 494.1,138.6 494.2,138.0 494.3,137.9 494.4,138.1 494.5,138.7 494.6,139.8 494.7,141.4 494.8,143.9 494.9,147.7 495.0,152.0 495.1,152.0 495.2,152.0 495.3,147.5 495.4,143.8 495.5,141.4 495.6,139.7 495.7,138.7 495.8,138.1 495.9,137.9 496.0,138.1 496.1,138.7 496.2,139.8 496.3,141.4 496.4,143.9 496.5,147.7 496.6,152.0 496.7,152.0 496.8,152.0 496.9,147.6 497.0,143.8 497.1,141.4 497.2,139.8 497.3,138.7 497.4,138.1 497.5,137.9 497.6,138.1 497.7,138.7 497.8,139.8 497.9,141.5 498.0,143.9 498.1,147.8 498.2,152.0 498.3,152.0 498.4,152.0 498.5,147.6 498.6,143.8 498.7,141.4 498.8,139.8 498.9,138.7 499.0,138.1 499.1,137.9 499.2,138.2 499.3,138.8 499.4,139.8 499.5,141.5 499.6,144.0 499.7,147.8 499.8,152.0 499.9,152.0 500.0,152.0 500.1,147.6 500.2,143.9 500.3,141.4 500.4,139.8 500.5,138.8 500.6,138.2 500.7,138.0 500.8,138.2 500.9,138.8 501.0,139.9 501.1,141.5 501.2,144.0 501.3,147.8 501.4,152.0 501.5,152.0 501.6,152.0 501.7,147.6 501.8,143.9 501.9,141.5 502.0,139.8 502.1,138.8 502.2,138.2 502.3,138.0 502.4,138.2 502.5,138.8 502.6,139.9 502.7,141.5 502.8,144.0 502.9,147.8 503.0,152.0 503.1,152.0 503.2,152.0 503.3,147.7 503.4,143.9 503.5,141.5 503.6,139.9 503.7,138.8 503.8,138.2 503.9,138.0 504.0,138.2 504.1,138.8 504.2,139.9 504.3,141.6 504.4,144.0 504.5,147.8 504.6,152.0 504.7,152.0 504.8,152.0 504.9,147.7 505.0,143.9 505.1,141.5 505.2,139.9 505.3,138.8 505.4,138.2 505.5,138.0 505.6,138.2 505.7,138.9 505.8,139.9 505.9,141.6 506.0,144.0 506.1,147.8 506.2,152.0 506.3,152.0 506.4,152.0 506.5,147.7 506.6,144.0 506.7,141.5 506.8,139.9 506.9,138.8 507.0,138.2 507.1,138.1 507.2,138.3 507.3,138.9 507.4,139.9 507.5,141.6 507.6,144.1 507.7,147.9 507.8,152.0 507.9,152.0 508.0,152.0 508.1,147.7 508.2,144.0 508.3,141.6 508.4,139.9 508.5,138.9 508.6,138.3 508.7,138.1 508.8,138.3 508.9,138.9 509.0,140.0 509.1,141.6 509.2,144.1 509.3,147.9 509.4,152.0 509.5,152.0 509.6,152.0 509.7,147.8 509.8,144.0 509.9,141.6 510.0,139.9 510.1,138.9 510.2,138.3 510.3,138.1 510.4,138.3 510.5,138.9 510.6,140.0 510.7,141.6 510.8,144.1 510.9,147.9 511.0,152.0 511.1,152.0 511.2,152.0 511.3,147.8 511.4,144.0 511.5,141.6 511.6,140.0 511.7,138.9 511.8,138.3 511.9,138.1 512.0,138.3 512.1,138.9 512.2,140.0 512.3,141.6 512.4,144.1 512.5,147.9 512.6,152.0 512.7,152.0 512.8,152.0 512.9,147.8 513.0,144.0 513.1,141.6 513.2,140.0 513.3,138.9 513.4,138.3 513.5,138.1 513.6,138.3 513.7,138.9 513.8,140.0 513.9,141.7 514.0,144.1 514.1,147.9 514.2,152.0 514.3,152.0 514.4,152.0 514.5,147.8 514.6,144.1 514.7,141.6 514.8,140.0 514.9,138.9 515.0,138.3 515.1,138.1 515.2,138.3 515.3,138.9 515.4,140.0 515.5,141.7 515.6,144.1 515.7,147.9 515.8,152.0 515.9,152.0 516.0,152.0 516.1,147.8 516.2,144.1 516.3,141.6 516.4,140.0 516.5,138.9 516.6,138.3 516.7,138.1 516.8,138.3 516.9,139.0 517.0,140.0 517.1,141.7 517.2,144.1 517.3,147.9 517.4,152.0 517.5,152.0 517.6,152.0 517.7,147.9 517.8,144.1 517.9,141.7 518.0,140.0 518.1,138.9 518.2,138.3 518.3,138.2 518.4,138.4 518.5,139.0 518.6,140.0 518.7,141.7 518.8,144.1 518.9,147.9 519.0,152.0 519.1,152.0 519.2,152.0 519.3,147.9 519.4,144.1 519.5,141.7 519.6,140.0 519.7,139.0 519.8,138.4 519.9,138.2 520.0,138.4 520.1,139.0 520.2,140.0 520.3,141.7 520.4,144.1 520.5,147.9 520.6,152.0 520.7,152.0 520.8,152.0 520.9,147.9 521.0,144.1 521.1,141.7 521.2,140.0 521.3,139.0 521.4,138.4 521.5,138.2 521.6,138.4 521.7,139.0 521.8,140.0 521.9,141.7 522.0,144.1 522.1,147.9 522.2,152.0 522.3,152.0 522.4,152.0 522.5,147.9 522.6,144.1 522.7,141.7 522.8,140.0 522.9,139.0 523.0,138.4 523.1,138.2 523.2,138.4 523.3,139.0 523.4,140.0 523.5,141.7 523.6,144.1 523.7,147.9 523.8,152.0 523.9,152.0 524.0,152.0 524.1,147.9 524.2,144.1 524.3,141.7 524.4,140.0 524.5,139.0 524.6,138.4 524.7,138.2 524.8,138.4 524.9,139.0 525.0,140.0 525.1,141.7 525.2,144.1 525.3,147.9 525.4,152.0 525.5,152.0 525.6,152.0 525.7,147.9 525.8,144.1 525.9,141.7 526.0,140.0 526.1,139.0 526.2,138.4 526.3,138.2 526.4,138.4 526.5,139.0 526.6,140.0 526.7,141.7 526.8,144.1 526.9,147.9 527.0,152.0" fill="none" stroke="#4a90d9" stroke-width="1.2" stroke-linejoin="round"/>
  <text x="154.5" y="176" text-anchor="middle" font-size="8" fill="#6b7280">n / N</text>
  <text x="424.5" y="176" text-anchor="middle" font-size="8" fill="#6b7280">Normalized frequency (× Fₛ)</text>
</svg>
