<svg xmlns="http://www.w3.org/2000/svg" viewBox="0 0 800 230" style="font-family:system-ui,-apple-system,sans-serif">
  <line x1="42" y1="182.0" x2="377" y2="182.0" stroke="#e5e7eb" stroke-width="0.7"/>
  <text x="37" y="186.0" text-anchor="end" font-size="10" fill="#6b7280">0</text>
  <line x1="42" y1="95.0" x2="377" y2="95.0" stroke="#e5e7eb" stroke-width="0.7"/>
  <text x="37" y="99.0" text-anchor="end" font-size="10" fill="#6b7280">0.5</text>
  <line x1="42" y1="8.0" x2="377" y2="8.0" stroke="#e5e7eb" stroke-width="0.7"/>
  <text x="37" y="12.0" text-anchor="end" font-size="10" fill="#6b7280">1</text>
  <line x1="42.0" y1="8" x2="42.0" y2="182" stroke="#e5e7eb" stroke-width="0.7"/>
  <text x="42.0" y="198" text-anchor="middle" font-size="10" fill="#6b7280">0</text>
  <line x1="209.5" y1="8" x2="209.5" y2="182" stroke="#e5e7eb" stroke-width="0.7"/>
  <text x="209.5" y="198" text-anchor="middle" font-size="10" fill="#6b7280">0.5</text>
  <line x1="377.0" y1="8" x2="377.0" y2="182" stroke="#e5e7eb" stroke-width="0.7"/>
  <text x="377.0" y="198" text-anchor="middle" font-size="10" fill="#6b7280">1</text>
  <line x1="42" y1="8" x2="42" y2="182" stroke="#d1d5db" stroke-width="1"/>
  <line x1="42" y1="182" x2="377" y2="182" stroke="#d1d5db" stroke-width="1"/>
  <path d="M42.0,182.0 42.0,182.0 43.3,182.0 44.6,182.0 45.9,181.9 47.3,181.8 48.6,181.8 49.9,181.7 51.2,181.5 52.5,181.4 53.8,181.2 55.1,181.0 56.5,180.8 57.8,180.6 59.1,180.3 60.4,180.1 61.7,179.8 63.0,179.4 64.3,179.1 65.6,178.7 67.0,178.3 68.3,177.9 69.6,177.4 70.9,176.9 72.2,176.4 73.5,175.9 74.8,175.3 76.2,174.7 77.5,174.1 78.8,173.4 80.1,172.7 81.4,171.9 82.7,171.2 84.0,170.3 85.4,169.5 86.7,168.6 88.0,167.7 89.3,166.7 90.6,165.7 91.9,164.6 93.2,163.5 94.5,162.4 95.9,161.2 97.2,160.0 98.5,158.7 99.8,157.4 101.1,156.1 102.4,154.7 103.7,153.3 105.1,151.8 106.4,150.2 107.7,148.7 109.0,147.1 110.3,145.4 111.6,143.7 112.9,142.0 114.3,140.2 115.6,138.3 116.9,136.5 118.2,134.6 119.5,132.6 120.8,130.6 122.1,128.6 123.5,126.5 124.8,124.4 126.1,122.3 127.4,120.1 128.7,117.9 130.0,115.7 131.3,113.4 132.6,111.2 134.0,108.8 135.3,106.5 136.6,104.1 137.9,101.8 139.2,99.4 140.5,96.9 141.8,94.5 143.2,92.1 144.5,89.6 145.8,87.2 147.1,84.7 148.4,82.2 149.7,79.8 151.0,77.3 152.4,74.8 153.7,72.4 155.0,69.9 156.3,67.5 157.6,65.1 158.9,62.7 160.2,60.3 161.5,57.9 162.9,55.6 164.2,53.3 165.5,51.0 166.8,48.8 168.1,46.6 169.4,44.4 170.7,42.3 172.1,40.2 173.4,38.2 174.7,36.2 176.0,34.2 177.3,32.3 178.6,30.5 179.9,28.7 181.3,27.0 182.6,25.4 183.9,23.8 185.2,22.3 186.5,20.8 187.8,19.4 189.1,18.1 190.5,16.9 191.8,15.7 193.1,14.7 194.4,13.6 195.7,12.7 197.0,11.9 198.3,11.1 199.6,10.4 201.0,9.8 202.3,9.3 203.6,8.9 204.9,8.5 206.2,8.3 207.5,8.1 208.8,8.0 210.2,8.0 211.5,8.1 212.8,8.3 214.1,8.5 215.4,8.9 216.7,9.3 218.0,9.8 219.4,10.4 220.7,11.1 222.0,11.9 223.3,12.7 224.6,13.6 225.9,14.7 227.2,15.7 228.5,16.9 229.9,18.1 231.2,19.4 232.5,20.8 233.8,22.3 235.1,23.8 236.4,25.4 237.7,27.0 239.1,28.7 240.4,30.5 241.7,32.3 243.0,34.2 244.3,36.2 245.6,38.2 246.9,40.2 248.3,42.3 249.6,44.4 250.9,46.6 252.2,48.8 253.5,51.0 254.8,53.3 256.1,55.6 257.5,57.9 258.8,60.3 260.1,62.7 261.4,65.1 262.7,67.5 264.0,69.9 265.3,72.4 266.6,74.8 268.0,77.3 269.3,79.8 270.6,82.2 271.9,84.7 273.2,87.2 274.5,89.6 275.8,92.1 277.2,94.5 278.5,96.9 279.8,99.4 281.1,101.8 282.4,104.1 283.7,106.5 285.0,108.8 286.4,111.2 287.7,113.4 289.0,115.7 290.3,117.9 291.6,120.1 292.9,122.3 294.2,124.4 295.5,126.5 296.9,128.6 298.2,130.6 299.5,132.6 300.8,134.6 302.1,136.5 303.4,138.3 304.7,140.2 306.1,142.0 307.4,143.7 308.7,145.4 310.0,147.1 311.3,148.7 312.6,150.2 313.9,151.8 315.3,153.3 316.6,154.7 317.9,156.1 319.2,157.4 320.5,158.7 321.8,160.0 323.1,161.2 324.5,162.4 325.8,163.5 327.1,164.6 328.4,165.7 329.7,166.7 331.0,167.7 332.3,168.6 333.6,169.5 335.0,170.3 336.3,171.2 337.6,171.9 338.9,172.7 340.2,173.4 341.5,174.1 342.8,174.7 344.2,175.3 345.5,175.9 346.8,176.4 348.1,176.9 349.4,177.4 350.7,177.9 352.0,178.3 353.4,178.7 354.7,179.1 356.0,179.4 357.3,179.8 358.6,180.1 359.9,180.3 361.2,180.6 362.5,180.8 363.9,181.0 365.2,181.2 366.5,181.4 367.8,181.5 369.1,181.7 370.4,181.8 371.7,181.8 373.1,181.9 374.4,182.0 375.7,182.0 377.0,182.0 L377.0,182.0 Z" fill="#4a90d9" fill-opacity="0.06"/>
  <polyline points="42.0,182.0 43.3,182.0 44.6,182.0 45.9,181.9 47.3,181.8 48.6,181.8 49.9,181.7 51.2,181.5 52.5,181.4 53.8,181.2 55.1,181.0 56.5,180.8 57.8,180.6 59.1,180.3 60.4,180.1 61.7,179.8 63.0,179.4 64.3,179.1 65.6,178.7 67.0,178.3 68.3,177.9 69.6,177.4 70.9,176.9 72.2,176.4 73.5,175.9 74.8,175.3 76.2,174.7 77.5,174.1 78.8,173.4 80.1,172.7 81.4,171.9 82.7,171.2 84.0,170.3 85.4,169.5 86.7,168.6 88.0,167.7 89.3,166.7 90.6,165.7 91.9,164.6 93.2,163.5 94.5,162.4 95.9,161.2 97.2,160.0 98.5,158.7 99.8,157.4 101.1,156.1 102.4,154.7 103.7,153.3 105.1,151.8 106.4,150.2 107.7,148.7 109.0,147.1 110.3,145.4 111.6,143.7 112.9,142.0 114.3,140.2 115.6,138.3 116.9,136.5 118.2,134.6 119.5,132.6 120.8,130.6 122.1,128.6 123.5,126.5 124.8,124.4 126.1,122.3 127.4,120.1 128.7,117.9 130.0,115.7 131.3,113.4 132.6,111.2 134.0,108.8 135.3,106.5 136.6,104.1 137.9,101.8 139.2,99.4 140.5,96.9 141.8,94.5 143.2,92.1 144.5,89.6 145.8,87.2 147.1,84.7 148.4,82.2 149.7,79.8 151.0,77.3 152.4,74.8 153.7,72.4 155.0,69.9 156.3,67.5 157.6,65.1 158.9,62.7 160.2,60.3 161.5,57.9 162.9,55.6 164.2,53.3 165.5,51.0 166.8,48.8 168.1,46.6 169.4,44.4 170.7,42.3 172.1,40.2 173.4,38.2 174.7,36.2 176.0,34.2 177.3,32.3 178.6,30.5 179.9,28.7 181.3,27.0 182.6,25.4 183.9,23.8 185.2,22.3 186.5,20.8 187.8,19.4 189.1,18.1 190.5,16.9 191.8,15.7 193.1,14.7 194.4,13.6 195.7,12.7 197.0,11.9 198.3,11.1 199.6,10.4 201.0,9.8 202.3,9.3 203.6,8.9 204.9,8.5 206.2,8.3 207.5,8.1 208.8,8.0 210.2,8.0 211.5,8.1 212.8,8.3 214.1,8.5 215.4,8.9 216.7,9.3 218.0,9.8 219.4,10.4 220.7,11.1 222.0,11.9 223.3,12.7 224.6,13.6 225.9,14.7 227.2,15.7 228.5,16.9 229.9,18.1 231.2,19.4 232.5,20.8 233.8,22.3 235.1,23.8 236.4,25.4 237.7,27.0 239.1,28.7 240.4,30.5 241.7,32.3 243.0,34.2 244.3,36.2 245.6,38.2 246.9,40.2 248.3,42.3 249.6,44.4 250.9,46.6 252.2,48.8 253.5,51.0 254.8,53.3 256.1,55.6 257.5,57.9 258.8,60.3 260.1,62.7 261.4,65.1 262.7,67.5 264.0,69.9 265.3,72.4 266.6,74.8 268.0,77.3 269.3,79.8 270.6,82.2 271.9,84.7 273.2,87.2 274.5,89.6 275.8,92.1 277.2,94.5 278.5,96.9 279.8,99.4 281.1,101.8 282.4,104.1 283.7,106.5 285.0,108.8 286.4,111.2 287.7,113.4 289.0,115.7 290.3,117.9 291.6,120.1 292.9,122.3 294.2,124.4 295.5,126.5 296.9,128.6 298.2,130.6 299.5,132.6 300.8,134.6 302.1,136.5 303.4,138.3 304.7,140.2 306.1,142.0 307.4,143.7 308.7,145.4 310.0,147.1 311.3,148.7 312.6,150.2 313.9,151.8 315.3,153.3 316.6,154.7 317.9,156.1 319.2,157.4 320.5,158.7 321.8,160.0 323.1,161.2 324.5,162.4 325.8,163.5 327.1,164.6 328.4,165.7 329.7,166.7 331.0,167.7 332.3,168.6 333.6,169.5 335.0,170.3 336.3,171.2 337.6,171.9 338.9,172.7 340.2,173.4 341.5,174.1 342.8,174.7 344.2,175.3 345.5,175.9 346.8,176.4 348.1,176.9 349.4,177.4 350.7,177.9 352.0,178.3 353.4,178.7 354.7,179.1 356.0,179.4 357.3,179.8 358.6,180.1 359.9,180.3 361.2,180.6 362.5,180.8 363.9,181.0 365.2,181.2 366.5,181.4 367.8,181.5 369.1,181.7 370.4,181.8 371.7,181.8 373.1,181.9 374.4,182.0 375.7,182.0 377.0,182.0" fill="none" stroke="#4a90d9" stroke-width="1.5" stroke-linejoin="round"/>
  <line x1="450" y1="8.0" x2="785" y2="8.0" stroke="#e5e7eb" stroke-width="0.7"/>
  <text x="445" y="12.0" text-anchor="end" font-size="10" fill="#6b7280">0</text>
  <line x1="450" y1="66.0" x2="785" y2="66.0" stroke="#e5e7eb" stroke-width="0.7"/>
  <text x="445" y="70.0" text-anchor="end" font-size="10" fill="#6b7280">-40</text>
  <line x1="450" y1="124.0" x2="785" y2="124.0" stroke="#e5e7eb" stroke-width="0.7"/>
  <text x="445" y="128.0" text-anchor="end" font-size="10" fill="#6b7280">-80</text>
  <line x1="450" y1="182.0" x2="785" y2="182.0" stroke="#e5e7eb" stroke-width="0.7"/>
  <text x="445" y="186.0" text-anchor="end" font-size="10" fill="#6b7280">-120</text>
  <line x1="450.0" y1="8" x2="450.0" y2="182" stroke="#e5e7eb" stroke-width="0.7"/>
  <text x="450.0" y="198" text-anchor="middle" font-size="10" fill="#6b7280">0</text>
  <line x1="517.0" y1="8" x2="517.0" y2="182" stroke="#e5e7eb" stroke-width="0.7"/>
  <text x="517.0" y="198" text-anchor="middle" font-size="10" fill="#6b7280">0.1</text>
  <line x1="584.0" y1="8" x2="584.0" y2="182" stroke="#e5e7eb" stroke-width="0.7"/>
  <text x="584.0" y="198" text-anchor="middle" font-size="10" fill="#6b7280">0.2</text>
  <line x1="651.0" y1="8" x2="651.0" y2="182" stroke="#e5e7eb" stroke-width="0.7"/>
  <text x="651.0" y="198" text-anchor="middle" font-size="10" fill="#6b7280">0.3</text>
  <line x1="718.0" y1="8" x2="718.0" y2="182" stroke="#e5e7eb" stroke-width="0.7"/>
  <text x="718.0" y="198" text-anchor="middle" font-size="10" fill="#6b7280">0.4</text>
  <line x1="785.0" y1="8" x2="785.0" y2="182" stroke="#e5e7eb" stroke-width="0.7"/>
  <text x="785.0" y="198" text-anchor="middle" font-size="10" fill="#6b7280">0.5</text>
  <line x1="450" y1="8" x2="450" y2="182" stroke="#d1d5db" stroke-width="1"/>
  <line x1="450" y1="182" x2="785" y2="182" stroke="#d1d5db" stroke-width="1"/>
  <polyline points="450.0,8.0 450.2,8.0 450.3,8.1 450.5,8.2 450.7,8.4 450.8,8.6 451.0,8.9 451.1,9.2 451.3,9.6 451.5,10.0 451.6,10.5 451.8,11.0 452.0,11.6 452.1,12.2 452.3,12.9 452.5,13.7 452.6,14.5 452.8,15.3 452.9,16.3 453.1,17.3 453.3,18.3 453.4,19.5 453.6,20.7 453.8,21.9 453.9,23.3 454.1,24.7 454.3,26.2 454.4,27.8 454.6,29.5 454.7,31.3 454.9,33.2 455.1,35.2 455.2,37.3 455.4,39.6 455.6,42.0 455.7,44.6 455.9,47.4 456.1,50.4 456.2,53.6 456.4,57.1 456.5,60.9 456.7,65.1 456.9,69.9 457.0,75.2 457.2,81.5 457.4,89.1 457.5,98.8 457.7,113.0 457.9,146.1 458.0,163.3 458.2,122.9 458.3,110.0 458.5,102.9 458.7,98.4 458.8,95.5 459.0,93.6 459.2,92.6 459.3,92.3 459.5,92.6 459.7,93.6 459.8,95.4 460.0,98.2 460.1,102.5 460.3,109.7 460.5,130.0 460.6,116.4 460.8,106.2 461.0,101.1 461.1,98.0 461.3,96.1 461.5,94.9 461.6,94.3 461.8,94.2 461.9,94.7 462.1,95.6 462.3,97.1 462.4,99.2 462.6,102.3 462.8,106.7 462.9,113.9 463.1,132.1 463.3,122.7 463.4,111.9 463.6,106.7 463.7,103.6 463.9,101.7 464.1,100.5 464.2,99.9 464.4,99.8 464.6,100.3 464.7,101.2 464.9,102.7 465.1,104.8 465.2,107.7 465.4,112.0 465.5,118.9 465.7,135.5 465.9,129.5 466.0,117.9 466.2,112.6 466.4,109.4 466.5,107.3 466.7,106.1 466.9,105.4 467.0,105.3 467.2,105.7 467.3,106.5 467.5,107.9 467.7,110.0 467.8,112.8 468.0,117.0 468.2,123.6 468.3,138.7 468.5,136.0 468.7,123.6 468.8,118.0 469.0,114.6 469.1,112.5 469.3,111.2 469.5,110.4 469.6,110.3 469.8,110.6 470.0,111.4 470.1,112.7 470.3,114.6 470.5,117.4 470.6,121.4 470.8,127.8 470.9,141.7 471.1,142.1 471.3,128.7 471.4,122.8 471.6,119.4 471.8,117.1 471.9,115.7 472.1,115.0 472.3,114.7 472.4,115.0 472.6,115.7 472.7,117.0 472.9,118.8 473.1,121.5 473.2,125.4 473.4,131.6 473.6,144.5 473.7,148.0 473.9,133.4 474.1,127.3 474.2,123.7 474.4,121.4 474.5,119.9 474.7,119.1 474.9,118.8 475.0,118.9 475.2,119.6 475.4,120.8 475.5,122.6 475.7,125.2 475.9,129.0 476.0,134.9 476.2,147.0 476.3,153.8 476.5,137.7 476.7,131.3 476.8,127.6 477.0,125.2 477.2,123.7 477.3,122.8 477.5,122.4 477.7,122.6 477.8,123.2 478.0,124.3 478.1,126.1 478.3,128.6 478.5,132.3 478.6,138.0 478.8,149.3 479.0,159.6 479.1,141.7 479.3,135.1 479.5,131.2 479.6,128.7 479.8,127.1 479.9,126.2 480.1,125.8 480.3,125.9 480.4,126.5 480.6,127.6 480.8,129.2 480.9,131.7 481.1,135.3 481.3,140.8 481.4,151.4 481.6,165.6 481.7,145.5 481.9,138.6 482.1,134.6 482.2,132.0 482.4,130.3 482.6,129.3 482.7,128.9 482.9,128.9 483.1,129.5 483.2,130.5 483.4,132.2 483.5,134.5 483.7,138.0 483.9,143.3 484.0,153.4 484.2,172.2 484.4,149.1 484.5,141.8 484.7,137.7 484.9,135.0 485.0,133.3 485.2,132.3 485.3,131.8 485.5,131.8 485.7,132.3 485.8,133.3 486.0,134.8 486.2,137.2 486.3,140.5 486.5,145.7 486.7,155.2 486.8,180.2 487.0,152.5 487.1,144.9 487.3,140.6 487.5,137.9 487.6,136.1 487.8,135.0 488.0,134.5 488.1,134.4 488.3,134.9 488.5,135.8 488.6,137.3 488.8,139.6 488.9,142.9 489.1,147.9 489.3,156.9 489.4,182.0 489.6,155.7 489.8,147.8 489.9,143.4 490.1,140.5 490.3,138.7 490.4,137.5 490.6,137.0 490.7,136.9 490.9,137.3 491.1,138.2 491.2,139.7 491.4,141.9 491.6,145.1 491.7,149.9 491.9,158.5 492.1,182.0 492.2,158.9 492.4,150.5 492.6,146.0 492.7,143.1 492.9,141.2 493.0,140.0 493.2,139.3 493.4,139.2 493.5,139.6 493.7,140.4 493.9,141.9 494.0,144.0 494.2,147.1 494.4,151.8 494.5,160.0 494.7,182.0 494.8,162.0 495.0,153.1 495.2,148.4 495.3,145.4 495.5,143.5 495.7,142.2 495.8,141.6 496.0,141.4 496.2,141.7 496.3,142.6 496.5,144.0 496.6,146.0 496.8,149.0 497.0,153.6 497.1,161.4 497.3,182.0 497.5,164.9 497.6,155.7 497.8,150.8 498.0,147.7 498.1,145.7 498.3,144.4 498.4,143.7 498.6,143.5 498.8,143.8 498.9,144.6 499.1,145.9 499.3,147.9 499.4,150.9 499.6,155.3 499.8,162.8 499.9,182.0 500.1,167.9 500.2,158.1 500.4,153.0 500.6,149.9 500.7,147.8 500.9,146.4 501.1,145.7 501.2,145.5 501.4,145.7 501.6,146.5 501.7,147.8 501.9,149.7 502.0,152.6 502.2,156.9 502.4,164.1 502.5,182.0 502.7,170.8 502.9,160.4 503.0,155.2 503.2,151.9 503.4,149.8 503.5,148.4 503.7,147.6 503.8,147.3 504.0,147.6 504.2,148.3 504.3,149.5 504.5,151.4 504.7,154.2 504.8,158.4 505.0,165.3 505.2,182.0 505.3,173.7 505.5,162.7 505.6,157.3 505.8,153.9 506.0,151.7 506.1,150.3 506.3,149.4 506.5,149.1 506.6,149.3 506.8,150.0 507.0,151.2 507.1,153.1 507.3,155.8 507.4,159.8 507.6,166.5 507.8,182.0 507.9,176.7 508.1,164.9 508.3,159.3 508.4,155.8 508.6,153.5 508.8,152.0 508.9,151.2 509.1,150.8 509.2,151.0 509.4,151.6 509.6,152.8 509.7,154.6 509.9,157.3 510.1,161.2 510.2,167.6 510.4,182.0 510.6,179.7 510.7,167.0 510.9,161.2 511.0,157.6 511.2,155.3 511.4,153.8 511.5,152.9 511.7,152.5 511.9,152.6 512.0,153.2 512.2,154.3 512.4,156.1 512.5,158.7 512.7,162.5 512.8,168.7 513.0,182.0 513.2,182.0 513.3,169.1 513.5,163.1 513.7,159.4 513.8,157.0 514.0,155.4 514.2,154.5 514.3,154.1 514.5,154.1 514.6,154.7 514.8,155.8 515.0,157.5 515.1,160.0 515.3,163.8 515.5,169.7 515.6,182.0 515.8,182.0 516.0,171.1 516.1,164.9 516.3,161.1 516.4,158.6 516.6,157.0 516.8,156.0 516.9,155.6 517.1,155.6 517.3,156.2 517.4,157.2 517.6,158.9 517.8,161.3 517.9,165.0 518.1,170.7 518.2,182.0 518.4,182.0 518.6,173.2 518.7,166.6 518.9,162.8 519.1,160.2 519.2,158.6 519.4,157.5 519.6,157.0 519.7,157.1 519.9,157.6 520.0,158.6 520.2,160.2 520.4,162.6 520.5,166.1 520.7,171.7 520.9,182.0 521.0,182.0 521.2,175.1 521.4,168.4 521.5,164.4 521.7,161.8 521.8,160.0 522.0,159.0 522.2,158.5 522.3,158.4 522.5,158.9 522.7,159.9 522.8,161.5 523.0,163.8 523.2,167.2 523.3,172.6 523.5,182.0 523.6,182.0 523.8,177.1 524.0,170.0 524.1,165.9 524.3,163.3 524.5,161.5 524.6,160.4 524.8,159.8 525.0,159.8 525.1,160.2 525.3,161.1 525.4,162.7 525.6,165.0 525.8,168.3 525.9,173.5 526.1,182.0 526.3,182.0 526.4,179.1 526.6,171.7 526.8,167.5 526.9,164.7 527.1,162.9 527.2,161.7 527.4,161.1 527.6,161.1 527.7,161.5 527.9,162.4 528.1,163.8 528.2,166.1 528.4,169.3 528.6,174.4 528.7,182.0 528.9,182.0 529.0,181.0 529.2,173.3 529.4,168.9 529.5,166.1 529.7,164.2 529.9,163.1 530.0,162.4 530.2,162.3 530.4,162.7 530.5,163.5 530.7,165.0 530.8,167.2 531.0,170.3 531.2,175.2 531.3,182.0 531.5,182.0 531.7,182.0 531.8,174.9 532.0,170.4 532.2,167.5 532.3,165.6 532.5,164.3 532.6,163.7 532.8,163.5 533.0,163.8 533.1,164.7 533.3,166.1 533.5,168.2 533.6,171.3 533.8,176.1 534.0,182.0 534.1,182.0 534.3,182.0 534.4,176.4 534.6,171.8 534.8,168.8 534.9,166.8 535.1,165.6 535.3,164.9 535.4,164.7 535.6,165.0 535.8,165.8 535.9,167.2 536.1,169.2 536.2,172.2 536.4,176.9 536.6,182.0 536.7,182.0 536.9,182.0 537.1,178.0 537.2,173.2 537.4,170.1 537.6,168.1 537.7,166.8 537.9,166.1 538.0,165.8 538.2,166.1 538.4,166.9 538.5,168.2 538.7,170.2 538.9,173.2 539.0,177.6 539.2,182.0 539.4,182.0 539.5,182.0 539.7,179.5 539.8,174.6 540.0,171.4 540.2,169.3 540.3,168.0 540.5,167.2 540.7,166.9 540.8,167.2 541.0,167.9 541.2,169.2 541.3,171.2 541.5,174.0 541.6,178.4 541.8,182.0 542.0,182.0 542.1,182.0 542.3,181.0 542.5,175.9 542.6,172.7 542.8,170.5 543.0,169.1 543.1,168.3 543.3,168.0 543.4,168.2 543.6,168.9 543.8,170.2 543.9,172.1 544.1,174.9 544.3,179.1 544.4,182.0 544.6,182.0 544.8,182.0 544.9,182.0 545.1,177.2 545.2,173.9 545.4,171.7 545.6,170.2 545.7,169.4 545.9,169.1 546.1,169.3 546.2,169.9 546.4,171.1 546.6,173.0 546.7,175.7 546.9,179.8 547.0,182.0 547.2,182.0 547.4,182.0 547.5,182.0 547.7,178.5 547.9,175.1 548.0,172.8 548.2,171.3 548.4,170.5 548.5,170.1 548.7,170.3 548.8,170.9 549.0,172.0 549.2,173.9 549.3,176.5 549.5,180.5 549.7,182.0 549.8,182.0 550.0,182.0 550.2,182.0 550.3,179.8 550.5,176.3 550.6,173.9 550.8,172.4 551.0,171.5 551.1,171.1 551.3,171.2 551.5,171.8 551.6,172.9 551.8,174.7 552.0,177.3 552.1,181.2 552.3,182.0 552.4,182.0 552.6,182.0 552.8,182.0 552.9,181.0 553.1,177.4 553.3,175.0 553.4,173.5 553.6,172.5 553.8,172.1 553.9,172.2 554.1,172.7 554.2,173.8 554.4,175.5 554.6,178.1 554.7,181.9 554.9,182.0 555.1,182.0 555.2,182.0 555.4,182.0 555.6,182.0 555.7,178.6 555.9,176.1 556.0,174.5 556.2,173.5 556.4,173.1 556.5,173.1 556.7,173.6 556.9,174.7 557.0,176.4 557.2,178.8 557.4,182.0 557.5,182.0 557.7,182.0 557.8,182.0 558.0,182.0 558.2,182.0 558.3,179.7 558.5,177.2 558.7,175.5 558.8,174.5 559.0,174.0 559.2,174.0 559.3,174.5 559.5,175.5 559.6,177.2 559.8,179.6 560.0,182.0 560.1,182.0 560.3,182.0 560.5,182.0 560.6,182.0 560.8,182.0 561.0,180.8 561.1,178.2 561.3,176.5 561.4,175.4 561.6,174.9 561.8,174.9 561.9,175.4 562.1,176.3 562.3,177.9 562.4,180.3 562.6,182.0 562.8,182.0 562.9,182.0 563.1,182.0 563.2,182.0 563.4,182.0 563.6,181.9 563.7,179.2 563.9,177.5 564.1,176.4 564.2,175.8 564.4,175.8 564.6,176.2 564.7,177.2 564.9,178.7 565.0,181.0 565.2,182.0 565.4,182.0 565.5,182.0 565.7,182.0 565.9,182.0 566.0,182.0 566.2,182.0 566.4,180.2 566.5,178.4 566.7,177.3 566.8,176.7 567.0,176.6 567.2,177.0 567.3,177.9 567.5,179.4 567.7,181.7 567.8,182.0 568.0,182.0 568.2,182.0 568.3,182.0 568.5,182.0 568.6,182.0 568.8,182.0 569.0,181.2 569.1,179.4 569.3,178.2 569.5,177.6 569.6,177.5 569.8,177.8 570.0,178.7 570.1,180.2 570.3,182.0 570.4,182.0 570.6,182.0 570.8,182.0 570.9,182.0 571.1,182.0 571.3,182.0 571.4,182.0 571.6,182.0 571.8,180.3 571.9,179.1 572.1,178.4 572.2,178.3 572.4,178.6 572.6,179.5 572.7,180.9 572.9,182.0 573.1,182.0 573.2,182.0 573.4,182.0 573.6,182.0 573.7,182.0 573.9,182.0 574.0,182.0 574.2,182.0 574.4,181.2 574.5,180.0 574.7,179.3 574.9,179.1 575.0,179.4 575.2,180.2 575.4,181.6 575.5,182.0 575.7,182.0 575.9,182.0 576.0,182.0 576.2,182.0 576.3,182.0 576.5,182.0 576.7,182.0 576.8,182.0 577.0,182.0 577.2,180.8 577.3,180.1 577.5,179.9 577.7,180.2 577.8,180.9 578.0,182.0 578.1,182.0 578.3,182.0 578.5,182.0 578.6,182.0 578.8,182.0 579.0,182.0 579.1,182.0 579.3,182.0 579.5,182.0 579.6,182.0 579.8,181.7 579.9,180.9 580.1,180.7 580.3,180.9 580.4,181.6 580.6,182.0 580.8,182.0 580.9,182.0 581.1,182.0 581.3,182.0 581.4,182.0 581.6,182.0 581.7,182.0 581.9,182.0 582.1,182.0 582.2,182.0 582.4,182.0 582.6,181.7 582.7,181.4 582.9,181.6 583.1,182.0 583.2,182.0 583.4,182.0 583.5,182.0 583.7,182.0 583.9,182.0 584.0,182.0 584.2,182.0 584.4,182.0 584.5,182.0 584.7,182.0 584.9,182.0 585.0,182.0 585.2,182.0 585.3,182.0 585.5,182.0 585.7,182.0 585.8,182.0 586.0,182.0 586.2,182.0 586.3,182.0 586.5,182.0 586.7,182.0 586.8,182.0 587.0,182.0 587.1,182.0 587.3,182.0 587.5,182.0 587.6,182.0 587.8,182.0 588.0,182.0 588.1,182.0 588.3,182.0 588.5,182.0 588.6,182.0 588.8,182.0 588.9,182.0 589.1,182.0 589.3,182.0 589.4,182.0 589.6,182.0 589.8,182.0 589.9,182.0 590.1,182.0 590.3,182.0 590.4,182.0 590.6,182.0 590.7,182.0 590.9,182.0 591.1,182.0 591.2,182.0 591.4,182.0 591.6,182.0 591.7,182.0 591.9,182.0 592.1,182.0 592.2,182.0 592.4,182.0 592.5,182.0 592.7,182.0 592.9,182.0 593.0,182.0 593.2,182.0 593.4,182.0 593.5,182.0 593.7,182.0 593.9,182.0 594.0,182.0 594.2,182.0 594.3,182.0 594.5,182.0 594.7,182.0 594.8,182.0 595.0,182.0 595.2,182.0 595.3,182.0 595.5,182.0 595.7,182.0 595.8,182.0 596.0,182.0 596.1,182.0 596.3,182.0 596.5,182.0 596.6,182.0 596.8,182.0 597.0,182.0 597.1,182.0 597.3,182.0 597.5,182.0 597.6,182.0 597.8,182.0 597.9,182.0 598.1,182.0 598.3,182.0 598.4,182.0 598.6,182.0 598.8,182.0 598.9,182.0 599.1,182.0 599.3,182.0 599.4,182.0 599.6,182.0 599.7,182.0 599.9,182.0 600.1,182.0 600.2,182.0 600.4,182.0 600.6,182.0 600.7,182.0 600.9,182.0 601.1,182.0 601.2,182.0 601.4,182.0 601.5,182.0 601.7,182.0 601.9,182.0 602.0,182.0 602.2,182.0 602.4,182.0 602.5,182.0 602.7,182.0 602.9,182.0 603.0,182.0 603.2,182.0 603.3,182.0 603.5,182.0 603.7,182.0 603.8,182.0 604.0,182.0 604.2,182.0 604.3,182.0 604.5,182.0 604.7,182.0 604.8,182.0 605.0,182.0 605.1,182.0 605.3,182.0 605.5,182.0 605.6,182.0 605.8,182.0 606.0,182.0 606.1,182.0 606.3,182.0 606.5,182.0 606.6,182.0 606.8,182.0 606.9,182.0 607.1,182.0 607.3,182.0 607.4,182.0 607.6,182.0 607.8,182.0 607.9,182.0 608.1,182.0 608.3,182.0 608.4,182.0 608.6,182.0 608.7,182.0 608.9,182.0 609.1,182.0 609.2,182.0 609.4,182.0 609.6,182.0 609.7,182.0 609.9,182.0 610.1,182.0 610.2,182.0 610.4,182.0 610.5,182.0 610.7,182.0 610.9,182.0 611.0,182.0 611.2,182.0 611.4,182.0 611.5,182.0 611.7,182.0 611.9,182.0 612.0,182.0 612.2,182.0 612.3,182.0 612.5,182.0 612.7,182.0 612.8,182.0 613.0,182.0 613.2,182.0 613.3,182.0 613.5,182.0 613.7,182.0 613.8,182.0 614.0,182.0 614.1,182.0 614.3,182.0 614.5,182.0 614.6,182.0 614.8,182.0 615.0,182.0 615.1,182.0 615.3,182.0 615.5,182.0 615.6,182.0 615.8,182.0 615.9,182.0 616.1,182.0 616.3,182.0 616.4,182.0 616.6,182.0 616.8,182.0 616.9,182.0 617.1,182.0 617.3,182.0 617.4,182.0 617.6,182.0 617.7,182.0 617.9,182.0 618.1,182.0 618.2,182.0 618.4,182.0 618.6,182.0 618.7,182.0 618.9,182.0 619.1,182.0 619.2,182.0 619.4,182.0 619.5,182.0 619.7,182.0 619.9,182.0 620.0,182.0 620.2,182.0 620.4,182.0 620.5,182.0 620.7,182.0 620.9,182.0 621.0,182.0 621.2,182.0 621.3,182.0 621.5,182.0 621.7,182.0 621.8,182.0 622.0,182.0 622.2,182.0 622.3,182.0 622.5,182.0 622.7,182.0 622.8,182.0 623.0,182.0 623.1,182.0 623.3,182.0 623.5,182.0 623.6,182.0 623.8,182.0 624.0,182.0 624.1,182.0 624.3,182.0 624.5,182.0 624.6,182.0 624.8,182.0 624.9,182.0 625.1,182.0 625.3,182.0 625.4,182.0 625.6,182.0 625.8,182.0 625.9,182.0 626.1,182.0 626.3,182.0 626.4,182.0 626.6,182.0 626.7,182.0 626.9,182.0 627.1,182.0 627.2,182.0 627.4,182.0 627.6,182.0 627.7,182.0 627.9,182.0 628.1,182.0 628.2,182.0 628.4,182.0 628.5,182.0 628.7,182.0 628.9,182.0 629.0,182.0 629.2,182.0 629.4,182.0 629.5,182.0 629.7,182.0 629.9,182.0 630.0,182.0 630.2,182.0 630.3,182.0 630.5,182.0 630.7,182.0 630.8,182.0 631.0,182.0 631.2,182.0 631.3,182.0 631.5,182.0 631.7,182.0 631.8,182.0 632.0,182.0 632.1,182.0 632.3,182.0 632.5,182.0 632.6,182.0 632.8,182.0 633.0,182.0 633.1,182.0 633.3,182.0 633.5,182.0 633.6,182.0 633.8,182.0 633.9,182.0 634.1,182.0 634.3,182.0 634.4,182.0 634.6,182.0 634.8,182.0 634.9,182.0 635.1,182.0 635.3,182.0 635.4,182.0 635.6,182.0 635.7,182.0 635.9,182.0 636.1,182.0 636.2,182.0 636.4,182.0 636.6,182.0 636.7,182.0 636.9,182.0 637.1,182.0 637.2,182.0 637.4,182.0 637.5,182.0 637.7,182.0 637.9,182.0 638.0,182.0 638.2,182.0 638.4,182.0 638.5,182.0 638.7,182.0 638.9,182.0 639.0,182.0 639.2,182.0 639.3,182.0 639.5,182.0 639.7,182.0 639.8,182.0 640.0,182.0 640.2,182.0 640.3,182.0 640.5,182.0 640.7,182.0 640.8,182.0 641.0,182.0 641.1,182.0 641.3,182.0 641.5,182.0 641.6,182.0 641.8,182.0 642.0,182.0 642.1,182.0 642.3,182.0 642.5,182.0 642.6,182.0 642.8,182.0 642.9,182.0 643.1,182.0 643.3,182.0 643.4,182.0 643.6,182.0 643.8,182.0 643.9,182.0 644.1,182.0 644.3,182.0 644.4,182.0 644.6,182.0 644.7,182.0 644.9,182.0 645.1,182.0 645.2,182.0 645.4,182.0 645.6,182.0 645.7,182.0 645.9,182.0 646.1,182.0 646.2,182.0 646.4,182.0 646.5,182.0 646.7,182.0 646.9,182.0 647.0,182.0 647.2,182.0 647.4,182.0 647.5,182.0 647.7,182.0 647.9,182.0 648.0,182.0 648.2,182.0 648.3,182.0 648.5,182.0 648.7,182.0 648.8,182.0 649.0,182.0 649.2,182.0 649.3,182.0 649.5,182.0 649.7,182.0 649.8,182.0 650.0,182.0 650.1,182.0 650.3,182.0 650.5,182.0 650.6,182.0 650.8,182.0 651.0,182.0 651.1,182.0 651.3,182.0 651.5,182.0 651.6,182.0 651.8,182.0 651.9,182.0 652.1,182.0 652.3,182.0 652.4,182.0 652.6,182.0 652.8,182.0 652.9,182.0 653.1,182.0 653.3,182.0 653.4,182.0 653.6,182.0 653.7,182.0 653.9,182.0 654.1,182.0 654.2,182.0 654.4,182.0 654.6,182.0 654.7,182.0 654.9,182.0 655.1,182.0 655.2,182.0 655.4,182.0 655.5,182.0 655.7,182.0 655.9,182.0 656.0,182.0 656.2,182.0 656.4,182.0 656.5,182.0 656.7,182.0 656.9,182.0 657.0,182.0 657.2,182.0 657.3,182.0 657.5,182.0 657.7,182.0 657.8,182.0 658.0,182.0 658.2,182.0 658.3,182.0 658.5,182.0 658.7,182.0 658.8,182.0 659.0,182.0 659.1,182.0 659.3,182.0 659.5,182.0 659.6,182.0 659.8,182.0 660.0,182.0 660.1,182.0 660.3,182.0 660.5,182.0 660.6,182.0 660.8,182.0 661.0,182.0 661.1,182.0 661.3,182.0 661.4,182.0 661.6,182.0 661.8,182.0 661.9,182.0 662.1,182.0 662.3,182.0 662.4,182.0 662.6,182.0 662.8,182.0 662.9,182.0 663.1,182.0 663.2,182.0 663.4,182.0 663.6,182.0 663.7,182.0 663.9,182.0 664.1,182.0 664.2,182.0 664.4,182.0 664.6,182.0 664.7,182.0 664.9,182.0 665.0,182.0 665.2,182.0 665.4,182.0 665.5,182.0 665.7,182.0 665.9,182.0 666.0,182.0 666.2,182.0 666.4,182.0 666.5,182.0 666.7,182.0 666.8,182.0 667.0,182.0 667.2,182.0 667.3,182.0 667.5,182.0 667.7,182.0 667.8,182.0 668.0,182.0 668.2,182.0 668.3,182.0 668.5,182.0 668.6,182.0 668.8,182.0 669.0,182.0 669.1,182.0 669.3,182.0 669.5,182.0 669.6,182.0 669.8,182.0 670.0,182.0 670.1,182.0 670.3,182.0 670.4,182.0 670.6,182.0 670.8,182.0 670.9,182.0 671.1,182.0 671.3,182.0 671.4,182.0 671.6,182.0 671.8,182.0 671.9,182.0 672.1,182.0 672.2,182.0 672.4,182.0 672.6,182.0 672.7,182.0 672.9,182.0 673.1,182.0 673.2,182.0 673.4,182.0 673.6,182.0 673.7,182.0 673.9,182.0 674.0,182.0 674.2,182.0 674.4,182.0 674.5,182.0 674.7,182.0 674.9,182.0 675.0,182.0 675.2,182.0 675.4,182.0 675.5,182.0 675.7,182.0 675.8,182.0 676.0,182.0 676.2,182.0 676.3,182.0 676.5,182.0 676.7,182.0 676.8,182.0 677.0,182.0 677.2,182.0 677.3,182.0 677.5,182.0 677.6,182.0 677.8,182.0 678.0,182.0 678.1,182.0 678.3,182.0 678.5,182.0 678.6,182.0 678.8,182.0 679.0,182.0 679.1,182.0 679.3,182.0 679.4,182.0 679.6,182.0 679.8,182.0 679.9,182.0 680.1,182.0 680.3,182.0 680.4,182.0 680.6,182.0 680.8,182.0 680.9,182.0 681.1,182.0 681.2,182.0 681.4,182.0 681.6,182.0 681.7,182.0 681.9,182.0 682.1,182.0 682.2,182.0 682.4,182.0 682.6,182.0 682.7,182.0 682.9,182.0 683.0,182.0 683.2,182.0 683.4,182.0 683.5,182.0 683.7,182.0 683.9,182.0 684.0,182.0 684.2,182.0 684.4,182.0 684.5,182.0 684.7,182.0 684.8,182.0 685.0,182.0 685.2,182.0 685.3,182.0 685.5,182.0 685.7,182.0 685.8,182.0 686.0,182.0 686.2,182.0 686.3,182.0 686.5,182.0 686.6,182.0 686.8,182.0 687.0,182.0 687.1,182.0 687.3,182.0 687.5,182.0 687.6,182.0 687.8,182.0 688.0,182.0 688.1,182.0 688.3,182.0 688.4,182.0 688.6,182.0 688.8,182.0 688.9,182.0 689.1,182.0 689.3,182.0 689.4,182.0 689.6,182.0 689.8,182.0 689.9,182.0 690.1,182.0 690.2,182.0 690.4,182.0 690.6,182.0 690.7,182.0 690.9,182.0 691.1,182.0 691.2,182.0 691.4,182.0 691.6,182.0 691.7,182.0 691.9,182.0 692.0,182.0 692.2,182.0 692.4,182.0 692.5,182.0 692.7,182.0 692.9,182.0 693.0,182.0 693.2,182.0 693.4,182.0 693.5,182.0 693.7,182.0 693.8,182.0 694.0,182.0 694.2,182.0 694.3,182.0 694.5,182.0 694.7,182.0 694.8,182.0 695.0,182.0 695.2,182.0 695.3,182.0 695.5,182.0 695.6,182.0 695.8,182.0 696.0,182.0 696.1,182.0 696.3,182.0 696.5,182.0 696.6,182.0 696.8,182.0 697.0,182.0 697.1,182.0 697.3,182.0 697.4,182.0 697.6,182.0 697.8,182.0 697.9,182.0 698.1,182.0 698.3,182.0 698.4,182.0 698.6,182.0 698.8,182.0 698.9,182.0 699.1,182.0 699.2,182.0 699.4,182.0 699.6,182.0 699.7,182.0 699.9,182.0 700.1,182.0 700.2,182.0 700.4,182.0 700.6,182.0 700.7,182.0 700.9,182.0 701.0,182.0 701.2,182.0 701.4,182.0 701.5,182.0 701.7,182.0 701.9,182.0 702.0,182.0 702.2,182.0 702.4,182.0 702.5,182.0 702.7,182.0 702.8,182.0 703.0,182.0 703.2,182.0 703.3,182.0 703.5,182.0 703.7,182.0 703.8,182.0 704.0,182.0 704.2,182.0 704.3,182.0 704.5,182.0 704.6,182.0 704.8,182.0 705.0,182.0 705.1,182.0 705.3,182.0 705.5,182.0 705.6,182.0 705.8,182.0 706.0,182.0 706.1,182.0 706.3,182.0 706.4,182.0 706.6,182.0 706.8,182.0 706.9,182.0 707.1,182.0 707.3,182.0 707.4,182.0 707.6,182.0 707.8,182.0 707.9,182.0 708.1,182.0 708.2,182.0 708.4,182.0 708.6,182.0 708.7,182.0 708.9,182.0 709.1,182.0 709.2,182.0 709.4,182.0 709.6,182.0 709.7,182.0 709.9,182.0 710.0,182.0 710.2,182.0 710.4,182.0 710.5,182.0 710.7,182.0 710.9,182.0 711.0,182.0 711.2,182.0 711.4,182.0 711.5,182.0 711.7,182.0 711.8,182.0 712.0,182.0 712.2,182.0 712.3,182.0 712.5,182.0 712.7,182.0 712.8,182.0 713.0,182.0 713.2,182.0 713.3,182.0 713.5,182.0 713.6,182.0 713.8,182.0 714.0,182.0 714.1,182.0 714.3,182.0 714.5,182.0 714.6,182.0 714.8,182.0 715.0,182.0 715.1,182.0 715.3,182.0 715.4,182.0 715.6,182.0 715.8,182.0 715.9,182.0 716.1,182.0 716.3,182.0 716.4,182.0 716.6,182.0 716.8,182.0 716.9,182.0 717.1,182.0 717.2,182.0 717.4,182.0 717.6,182.0 717.7,182.0 717.9,182.0 718.1,182.0 718.2,182.0 718.4,182.0 718.6,182.0 718.7,182.0 718.9,182.0 719.0,182.0 719.2,182.0 719.4,182.0 719.5,182.0 719.7,182.0 719.9,182.0 720.0,182.0 720.2,182.0 720.4,182.0 720.5,182.0 720.7,182.0 720.8,182.0 721.0,182.0 721.2,182.0 721.3,182.0 721.5,182.0 721.7,182.0 721.8,182.0 722.0,182.0 722.2,182.0 722.3,182.0 722.5,182.0 722.6,182.0 722.8,182.0 723.0,182.0 723.1,182.0 723.3,182.0 723.5,182.0 723.6,182.0 723.8,182.0 724.0,182.0 724.1,182.0 724.3,182.0 724.4,182.0 724.6,182.0 724.8,182.0 724.9,182.0 725.1,182.0 725.3,182.0 725.4,182.0 725.6,182.0 725.8,182.0 725.9,182.0 726.1,182.0 726.2,182.0 726.4,182.0 726.6,182.0 726.7,182.0 726.9,182.0 727.1,182.0 727.2,182.0 727.4,182.0 727.6,182.0 727.7,182.0 727.9,182.0 728.0,182.0 728.2,182.0 728.4,182.0 728.5,182.0 728.7,182.0 728.9,182.0 729.0,182.0 729.2,182.0 729.4,182.0 729.5,182.0 729.7,182.0 729.8,182.0 730.0,182.0 730.2,182.0 730.3,182.0 730.5,182.0 730.7,182.0 730.8,182.0 731.0,182.0 731.2,182.0 731.3,182.0 731.5,182.0 731.6,182.0 731.8,182.0 732.0,182.0 732.1,182.0 732.3,182.0 732.5,182.0 732.6,182.0 732.8,182.0 733.0,182.0 733.1,182.0 733.3,182.0 733.4,182.0 733.6,182.0 733.8,182.0 733.9,182.0 734.1,182.0 734.3,182.0 734.4,182.0 734.6,182.0 734.8,182.0 734.9,182.0 735.1,182.0 735.2,182.0 735.4,182.0 735.6,182.0 735.7,182.0 735.9,182.0 736.1,182.0 736.2,182.0 736.4,182.0 736.6,182.0 736.7,182.0 736.9,182.0 737.0,182.0 737.2,182.0 737.4,182.0 737.5,182.0 737.7,182.0 737.9,182.0 738.0,182.0 738.2,182.0 738.4,182.0 738.5,182.0 738.7,182.0 738.8,182.0 739.0,182.0 739.2,182.0 739.3,182.0 739.5,182.0 739.7,182.0 739.8,182.0 740.0,182.0 740.2,182.0 740.3,182.0 740.5,182.0 740.6,182.0 740.8,182.0 741.0,182.0 741.1,182.0 741.3,182.0 741.5,182.0 741.6,182.0 741.8,182.0 742.0,182.0 742.1,182.0 742.3,182.0 742.4,182.0 742.6,182.0 742.8,182.0 742.9,182.0 743.1,182.0 743.3,182.0 743.4,182.0 743.6,182.0 743.8,182.0 743.9,182.0 744.1,182.0 744.3,182.0 744.4,182.0 744.6,182.0 744.7,182.0 744.9,182.0 745.1,182.0 745.2,182.0 745.4,182.0 745.6,182.0 745.7,182.0 745.9,182.0 746.1,182.0 746.2,182.0 746.4,182.0 746.5,182.0 746.7,182.0 746.9,182.0 747.0,182.0 747.2,182.0 747.4,182.0 747.5,182.0 747.7,182.0 747.9,182.0 748.0,182.0 748.2,182.0 748.3,182.0 748.5,182.0 748.7,182.0 748.8,182.0 749.0,182.0 749.2,182.0 749.3,182.0 749.5,182.0 749.7,182.0 749.8,182.0 750.0,182.0 750.1,182.0 750.3,182.0 750.5,182.0 750.6,182.0 750.8,182.0 751.0,182.0 751.1,182.0 751.3,182.0 751.5,182.0 751.6,182.0 751.8,182.0 751.9,182.0 752.1,182.0 752.3,182.0 752.4,182.0 752.6,182.0 752.8,182.0 752.9,182.0 753.1,182.0 753.3,182.0 753.4,182.0 753.6,182.0 753.7,182.0 753.9,182.0 754.1,182.0 754.2,182.0 754.4,182.0 754.6,182.0 754.7,182.0 754.9,182.0 755.1,182.0 755.2,182.0 755.4,182.0 755.5,182.0 755.7,182.0 755.9,182.0 756.0,182.0 756.2,182.0 756.4,182.0 756.5,182.0 756.7,182.0 756.9,182.0 757.0,182.0 757.2,182.0 757.3,182.0 757.5,182.0 757.7,182.0 757.8,182.0 758.0,182.0 758.2,182.0 758.3,182.0 758.5,182.0 758.7,182.0 758.8,182.0 759.0,182.0 759.1,182.0 759.3,182.0 759.5,182.0 759.6,182.0 759.8,182.0 760.0,182.0 760.1,182.0 760.3,182.0 760.5,182.0 760.6,182.0 760.8,182.0 760.9,182.0 761.1,182.0 761.3,182.0 761.4,182.0 761.6,182.0 761.8,182.0 761.9,182.0 762.1,182.0 762.3,182.0 762.4,182.0 762.6,182.0 762.7,182.0 762.9,182.0 763.1,182.0 763.2,182.0 763.4,182.0 763.6,182.0 763.7,182.0 763.9,182.0 764.1,182.0 764.2,182.0 764.4,182.0 764.5,182.0 764.7,182.0 764.9,182.0 765.0,182.0 765.2,182.0 765.4,182.0 765.5,182.0 765.7,182.0 765.9,182.0 766.0,182.0 766.2,182.0 766.3,182.0 766.5,182.0 766.7,182.0 766.8,182.0 767.0,182.0 767.2,182.0 767.3,182.0 767.5,182.0 767.7,182.0 767.8,182.0 768.0,182.0 768.1,182.0 768.3,182.0 768.5,182.0 768.6,182.0 768.8,182.0 769.0,182.0 769.1,182.0 769.3,182.0 769.5,182.0 769.6,182.0 769.8,182.0 769.9,182.0 770.1,182.0 770.3,182.0 770.4,182.0 770.6,182.0 770.8,182.0 770.9,182.0 771.1,182.0 771.3,182.0 771.4,182.0 771.6,182.0 771.7,182.0 771.9,182.0 772.1,182.0 772.2,182.0 772.4,182.0 772.6,182.0 772.7,182.0 772.9,182.0 773.1,182.0 773.2,182.0 773.4,182.0 773.5,182.0 773.7,182.0 773.9,182.0 774.0,182.0 774.2,182.0 774.4,182.0 774.5,182.0 774.7,182.0 774.9,182.0 775.0,182.0 775.2,182.0 775.3,182.0 775.5,182.0 775.7,182.0 775.8,182.0 776.0,182.0 776.2,182.0 776.3,182.0 776.5,182.0 776.7,182.0 776.8,182.0 777.0,182.0 777.1,182.0 777.3,182.0 777.5,182.0 777.6,182.0 777.8,182.0 778.0,182.0 778.1,182.0 778.3,182.0 778.5,182.0 778.6,182.0 778.8,182.0 778.9,182.0 779.1,182.0 779.3,182.0 779.4,182.0 779.6,182.0 779.8,182.0 779.9,182.0 780.1,182.0 780.3,182.0 780.4,182.0 780.6,182.0 780.7,182.0 780.9,182.0 781.1,182.0 781.2,182.0 781.4,182.0 781.6,182.0 781.7,182.0 781.9,182.0 782.1,182.0 782.2,182.0 782.4,182.0 782.5,182.0 782.7,182.0 782.9,182.0 783.0,182.0 783.2,182.0 783.4,182.0 783.5,182.0 783.7,182.0 783.9,182.0 784.0,182.0 784.2,182.0 784.3,182.0 784.5,182.0 784.7,182.0 784.8,182.0 785.0,182.0" fill="none" stroke="#4a90d9" stroke-width="1.5" stroke-linejoin="round"/>
  <text x="209.5" y="214" text-anchor="middle" font-size="11" fill="#6b7280">n / N</text>
  <text x="617.5" y="214" text-anchor="middle" font-size="11" fill="#6b7280">Normalized frequency (× Fₛ)</text>
</svg>
