<svg xmlns="http://www.w3.org/2000/svg" viewBox="0 0 560 210" width="560" height="210" style="font-family:system-ui,-apple-system,sans-serif">
  <rect width="560" height="210" fill="#fafafa" rx="6"/>
  <text x="280" y="18" text-anchor="middle" font-size="12" font-weight="600" fill="#374151">blackman</text>
  <line x1="52" y1="166.0" x2="257" y2="166.0" stroke="#e5e7eb" stroke-width="0.5"/>
  <text x="48" y="169.0" text-anchor="end" font-size="7.5" fill="#6b7280">0</text>
  <line x1="52" y1="97.0" x2="257" y2="97.0" stroke="#e5e7eb" stroke-width="0.5"/>
  <text x="48" y="100.0" text-anchor="end" font-size="7.5" fill="#6b7280">0.5</text>
  <line x1="52" y1="28.0" x2="257" y2="28.0" stroke="#e5e7eb" stroke-width="0.5"/>
  <text x="48" y="31.0" text-anchor="end" font-size="7.5" fill="#6b7280">1</text>
  <line x1="52.0" y1="28" x2="52.0" y2="166" stroke="#e5e7eb" stroke-width="0.5"/>
  <text x="52.0" y="178" text-anchor="middle" font-size="7.5" fill="#6b7280">0</text>
  <line x1="154.5" y1="28" x2="154.5" y2="166" stroke="#e5e7eb" stroke-width="0.5"/>
  <text x="154.5" y="178" text-anchor="middle" font-size="7.5" fill="#6b7280">0.5</text>
  <line x1="257.0" y1="28" x2="257.0" y2="166" stroke="#e5e7eb" stroke-width="0.5"/>
  <text x="257.0" y="178" text-anchor="middle" font-size="7.5" fill="#6b7280">1</text>
  <line x1="52" y1="28" x2="52" y2="166" stroke="#d1d5db" stroke-width="0.75"/>
  <line x1="52" y1="166" x2="257" y2="166" stroke="#d1d5db" stroke-width="0.75"/>
  <path d="M52.0,166.0 52.0,166.0 52.8,166.0 53.6,166.0 54.4,165.9 55.2,165.9 56.0,165.8 56.8,165.7 57.6,165.6 58.4,165.5 59.2,165.4 60.0,165.2 60.8,165.1 61.6,164.9 62.5,164.7 63.3,164.5 64.1,164.2 64.9,164.0 65.7,163.7 66.5,163.4 67.3,163.1 68.1,162.7 68.9,162.4 69.7,162.0 70.5,161.6 71.3,161.1 72.1,160.7 72.9,160.2 73.7,159.7 74.5,159.2 75.3,158.6 76.1,158.0 76.9,157.4 77.7,156.7 78.5,156.1 79.3,155.4 80.1,154.6 80.9,153.9 81.7,153.1 82.5,152.2 83.4,151.4 84.2,150.5 85.0,149.5 85.8,148.6 86.6,147.6 87.4,146.5 88.2,145.4 89.0,144.3 89.8,143.2 90.6,142.0 91.4,140.8 92.2,139.6 93.0,138.3 93.8,137.0 94.6,135.6 95.4,134.2 96.2,132.8 97.0,131.4 97.8,129.9 98.6,128.4 99.4,126.8 100.2,125.3 101.0,123.7 101.8,122.0 102.6,120.3 103.5,118.7 104.3,116.9 105.1,115.2 105.9,113.4 106.7,111.6 107.5,109.8 108.3,108.0 109.1,106.1 109.9,104.3 110.7,102.4 111.5,100.5 112.3,98.5 113.1,96.6 113.9,94.7 114.7,92.7 115.5,90.8 116.3,88.8 117.1,86.9 117.9,84.9 118.7,83.0 119.5,81.0 120.3,79.1 121.1,77.1 121.9,75.2 122.7,73.3 123.5,71.4 124.4,69.5 125.2,67.6 126.0,65.8 126.8,63.9 127.6,62.1 128.4,60.3 129.2,58.6 130.0,56.9 130.8,55.2 131.6,53.5 132.4,51.9 133.2,50.3 134.0,48.8 134.8,47.3 135.6,45.9 136.4,44.5 137.2,43.1 138.0,41.8 138.8,40.5 139.6,39.3 140.4,38.2 141.2,37.1 142.0,36.0 142.8,35.1 143.6,34.1 144.5,33.3 145.3,32.5 146.1,31.7 146.9,31.1 147.7,30.5 148.5,29.9 149.3,29.4 150.1,29.0 150.9,28.7 151.7,28.4 152.5,28.2 153.3,28.1 154.1,28.0 154.9,28.0 155.7,28.1 156.5,28.2 157.3,28.4 158.1,28.7 158.9,29.0 159.7,29.4 160.5,29.9 161.3,30.5 162.1,31.1 162.9,31.7 163.7,32.5 164.5,33.3 165.4,34.1 166.2,35.1 167.0,36.0 167.8,37.1 168.6,38.2 169.4,39.3 170.2,40.5 171.0,41.8 171.8,43.1 172.6,44.5 173.4,45.9 174.2,47.3 175.0,48.8 175.8,50.3 176.6,51.9 177.4,53.5 178.2,55.2 179.0,56.9 179.8,58.6 180.6,60.3 181.4,62.1 182.2,63.9 183.0,65.8 183.8,67.6 184.6,69.5 185.5,71.4 186.3,73.3 187.1,75.2 187.9,77.1 188.7,79.1 189.5,81.0 190.3,83.0 191.1,84.9 191.9,86.9 192.7,88.8 193.5,90.8 194.3,92.7 195.1,94.7 195.9,96.6 196.7,98.5 197.5,100.5 198.3,102.4 199.1,104.3 199.9,106.1 200.7,108.0 201.5,109.8 202.3,111.6 203.1,113.4 203.9,115.2 204.7,116.9 205.5,118.7 206.4,120.3 207.2,122.0 208.0,123.7 208.8,125.3 209.6,126.8 210.4,128.4 211.2,129.9 212.0,131.4 212.8,132.8 213.6,134.2 214.4,135.6 215.2,137.0 216.0,138.3 216.8,139.6 217.6,140.8 218.4,142.0 219.2,143.2 220.0,144.3 220.8,145.4 221.6,146.5 222.4,147.6 223.2,148.6 224.0,149.5 224.8,150.5 225.6,151.4 226.5,152.2 227.3,153.1 228.1,153.9 228.9,154.6 229.7,155.4 230.5,156.1 231.3,156.7 232.1,157.4 232.9,158.0 233.7,158.6 234.5,159.2 235.3,159.7 236.1,160.2 236.9,160.7 237.7,161.1 238.5,161.6 239.3,162.0 240.1,162.4 240.9,162.7 241.7,163.1 242.5,163.4 243.3,163.7 244.1,164.0 244.9,164.2 245.7,164.5 246.5,164.7 247.4,164.9 248.2,165.1 249.0,165.2 249.8,165.4 250.6,165.5 251.4,165.6 252.2,165.7 253.0,165.8 253.8,165.9 254.6,165.9 255.4,166.0 256.2,166.0 257.0,166.0 L257.0,166.0 Z" fill="#4a90d9" fill-opacity="0.06"/>
  <polyline points="52.0,166.0 52.8,166.0 53.6,166.0 54.4,165.9 55.2,165.9 56.0,165.8 56.8,165.7 57.6,165.6 58.4,165.5 59.2,165.4 60.0,165.2 60.8,165.1 61.6,164.9 62.5,164.7 63.3,164.5 64.1,164.2 64.9,164.0 65.7,163.7 66.5,163.4 67.3,163.1 68.1,162.7 68.9,162.4 69.7,162.0 70.5,161.6 71.3,161.1 72.1,160.7 72.9,160.2 73.7,159.7 74.5,159.2 75.3,158.6 76.1,158.0 76.9,157.4 77.7,156.7 78.5,156.1 79.3,155.4 80.1,154.6 80.9,153.9 81.7,153.1 82.5,152.2 83.4,151.4 84.2,150.5 85.0,149.5 85.8,148.6 86.6,147.6 87.4,146.5 88.2,145.4 89.0,144.3 89.8,143.2 90.6,142.0 91.4,140.8 92.2,139.6 93.0,138.3 93.8,137.0 94.6,135.6 95.4,134.2 96.2,132.8 97.0,131.4 97.8,129.9 98.6,128.4 99.4,126.8 100.2,125.3 101.0,123.7 101.8,122.0 102.6,120.3 103.5,118.7 104.3,116.9 105.1,115.2 105.9,113.4 106.7,111.6 107.5,109.8 108.3,108.0 109.1,106.1 109.9,104.3 110.7,102.4 111.5,100.5 112.3,98.5 113.1,96.6 113.9,94.7 114.7,92.7 115.5,90.8 116.3,88.8 117.1,86.9 117.9,84.9 118.7,83.0 119.5,81.0 120.3,79.1 121.1,77.1 121.9,75.2 122.7,73.3 123.5,71.4 124.4,69.5 125.2,67.6 126.0,65.8 126.8,63.9 127.6,62.1 128.4,60.3 129.2,58.6 130.0,56.9 130.8,55.2 131.6,53.5 132.4,51.9 133.2,50.3 134.0,48.8 134.8,47.3 135.6,45.9 136.4,44.5 137.2,43.1 138.0,41.8 138.8,40.5 139.6,39.3 140.4,38.2 141.2,37.1 142.0,36.0 142.8,35.1 143.6,34.1 144.5,33.3 145.3,32.5 146.1,31.7 146.9,31.1 147.7,30.5 148.5,29.9 149.3,29.4 150.1,29.0 150.9,28.7 151.7,28.4 152.5,28.2 153.3,28.1 154.1,28.0 154.9,28.0 155.7,28.1 156.5,28.2 157.3,28.4 158.1,28.7 158.9,29.0 159.7,29.4 160.5,29.9 161.3,30.5 162.1,31.1 162.9,31.7 163.7,32.5 164.5,33.3 165.4,34.1 166.2,35.1 167.0,36.0 167.8,37.1 168.6,38.2 169.4,39.3 170.2,40.5 171.0,41.8 171.8,43.1 172.6,44.5 173.4,45.9 174.2,47.3 175.0,48.8 175.8,50.3 176.6,51.9 177.4,53.5 178.2,55.2 179.0,56.9 179.8,58.6 180.6,60.3 181.4,62.1 182.2,63.9 183.0,65.8 183.8,67.6 184.6,69.5 185.5,71.4 186.3,73.3 187.1,75.2 187.9,77.1 188.7,79.1 189.5,81.0 190.3,83.0 191.1,84.9 191.9,86.9 192.7,88.8 193.5,90.8 194.3,92.7 195.1,94.7 195.9,96.6 196.7,98.5 197.5,100.5 198.3,102.4 199.1,104.3 199.9,106.1 200.7,108.0 201.5,109.8 202.3,111.6 203.1,113.4 203.9,115.2 204.7,116.9 205.5,118.7 206.4,120.3 207.2,122.0 208.0,123.7 208.8,125.3 209.6,126.8 210.4,128.4 211.2,129.9 212.0,131.4 212.8,132.8 213.6,134.2 214.4,135.6 215.2,137.0 216.0,138.3 216.8,139.6 217.6,140.8 218.4,142.0 219.2,143.2 220.0,144.3 220.8,145.4 221.6,146.5 222.4,147.6 223.2,148.6 224.0,149.5 224.8,150.5 225.6,151.4 226.5,152.2 227.3,153.1 228.1,153.9 228.9,154.6 229.7,155.4 230.5,156.1 231.3,156.7 232.1,157.4 232.9,158.0 233.7,158.6 234.5,159.2 235.3,159.7 236.1,160.2 236.9,160.7 237.7,161.1 238.5,161.6 239.3,162.0 240.1,162.4 240.9,162.7 241.7,163.1 242.5,163.4 243.3,163.7 244.1,164.0 244.9,164.2 245.7,164.5 246.5,164.7 247.4,164.9 248.2,165.1 249.0,165.2 249.8,165.4 250.6,165.5 251.4,165.6 252.2,165.7 253.0,165.8 253.8,165.9 254.6,165.9 255.4,166.0 256.2,166.0 257.0,166.0" fill="none" stroke="#4a90d9" stroke-width="1.2" stroke-linejoin="round"/>
  <line x1="322" y1="28.0" x2="527" y2="28.0" stroke="#e5e7eb" stroke-width="0.5"/>
  <text x="318" y="31.0" text-anchor="end" font-size="7.5" fill="#6b7280">0</text>
  <line x1="322" y1="74.0" x2="527" y2="74.0" stroke="#e5e7eb" stroke-width="0.5"/>
  <text x="318" y="77.0" text-anchor="end" font-size="7.5" fill="#6b7280">-40</text>
  <line x1="322" y1="120.0" x2="527" y2="120.0" stroke="#e5e7eb" stroke-width="0.5"/>
  <text x="318" y="123.0" text-anchor="end" font-size="7.5" fill="#6b7280">-80</text>
  <line x1="322" y1="166.0" x2="527" y2="166.0" stroke="#e5e7eb" stroke-width="0.5"/>
  <text x="318" y="169.0" text-anchor="end" font-size="7.5" fill="#6b7280">-120</text>
  <line x1="322.0" y1="28" x2="322.0" y2="166" stroke="#e5e7eb" stroke-width="0.5"/>
  <text x="322.0" y="178" text-anchor="middle" font-size="7.5" fill="#6b7280">0</text>
  <line x1="363.0" y1="28" x2="363.0" y2="166" stroke="#e5e7eb" stroke-width="0.5"/>
  <text x="363.0" y="178" text-anchor="middle" font-size="7.5" fill="#6b7280">0.1</text>
  <line x1="404.0" y1="28" x2="404.0" y2="166" stroke="#e5e7eb" stroke-width="0.5"/>
  <text x="404.0" y="178" text-anchor="middle" font-size="7.5" fill="#6b7280">0.2</text>
  <line x1="445.0" y1="28" x2="445.0" y2="166" stroke="#e5e7eb" stroke-width="0.5"/>
  <text x="445.0" y="178" text-anchor="middle" font-size="7.5" fill="#6b7280">0.3</text>
  <line x1="486.0" y1="28" x2="486.0" y2="166" stroke="#e5e7eb" stroke-width="0.5"/>
  <text x="486.0" y="178" text-anchor="middle" font-size="7.5" fill="#6b7280">0.4</text>
  <line x1="527.0" y1="28" x2="527.0" y2="166" stroke="#e5e7eb" stroke-width="0.5"/>
  <text x="527.0" y="178" text-anchor="middle" font-size="7.5" fill="#6b7280">0.5</text>
  <line x1="322" y1="28" x2="322" y2="166" stroke="#d1d5db" stroke-width="0.75"/>
  <line x1="322" y1="166" x2="527" y2="166" stroke="#d1d5db" stroke-width="0.75"/>
  <polyline points="322.0,28.0 322.1,28.0 322.2,28.1 322.3,28.2 322.4,28.3 322.5,28.5 322.6,28.7 322.7,29.0 322.8,29.3 322.9,29.6 323.0,30.0 323.1,30.4 323.2,30.8 323.3,31.4 323.4,31.9 323.5,32.5 323.6,33.1 323.7,33.8 323.8,34.6 323.9,35.4 324.0,36.2 324.1,37.1 324.2,38.0 324.3,39.0 324.4,40.1 324.5,41.2 324.6,42.4 324.7,43.7 324.8,45.0 324.9,46.5 325.0,48.0 325.1,49.6 325.2,51.3 325.3,53.1 325.4,55.0 325.5,57.0 325.6,59.2 325.7,61.6 325.8,64.2 325.9,66.9 326.0,70.0 326.1,73.3 326.2,77.1 326.3,81.3 326.4,86.3 326.5,92.3 326.6,100.0 326.7,111.2 326.8,137.5 326.9,151.2 327.0,119.1 327.1,108.9 327.2,103.3 327.3,99.7 327.4,97.4 327.5,95.9 327.6,95.1 327.7,94.8 327.8,95.1 327.9,95.9 328.0,97.3 328.1,99.5 328.2,102.9 328.3,108.7 328.4,124.7 328.5,114.0 328.6,105.9 328.7,101.9 328.8,99.4 328.9,97.8 329.0,96.9 329.1,96.4 329.2,96.4 329.3,96.7 329.4,97.5 329.5,98.6 329.6,100.4 329.7,102.8 329.8,106.3 329.9,112.0 330.0,126.4 330.1,118.9 330.2,110.4 330.3,106.3 330.4,103.8 330.5,102.3 330.6,101.3 330.7,100.9 330.8,100.8 330.9,101.2 331.0,101.9 331.1,103.1 331.2,104.7 331.3,107.1 331.4,110.5 331.5,116.0 331.6,129.1 331.7,124.3 331.8,115.2 331.9,110.9 332.0,108.4 332.1,106.8 332.2,105.8 332.3,105.3 332.4,105.2 332.5,105.5 332.6,106.1 332.7,107.3 332.8,108.9 332.9,111.1 333.0,114.4 333.1,119.7 333.2,131.7 333.3,129.5 333.4,119.7 333.5,115.2 333.6,112.6 333.7,110.9 333.8,109.8 333.9,109.3 334.0,109.1 334.1,109.3 334.2,110.0 334.3,111.0 334.4,112.6 334.5,114.8 334.6,118.0 334.7,123.0 334.8,134.1 334.9,134.4 335.0,123.7 335.1,119.1 335.2,116.3 335.3,114.6 335.4,113.4 335.5,112.8 335.6,112.6 335.7,112.8 335.8,113.4 335.9,114.4 336.0,115.9 336.1,118.0 336.2,121.1 336.3,126.0 336.4,136.2 336.5,139.0 336.6,127.4 336.7,122.6 336.8,119.7 336.9,117.9 337.0,116.7 337.1,116.1 337.2,115.8 337.3,116.0 337.4,116.5 337.5,117.5 337.6,118.9 337.7,121.0 337.8,124.0 337.9,128.7 338.0,138.2 338.1,143.6 338.2,130.9 338.3,125.8 338.4,122.9 338.5,121.0 338.6,119.7 338.7,119.0 338.8,118.8 338.9,118.9 339.0,119.4 339.1,120.3 339.2,121.7 339.3,123.7 339.4,126.6 339.5,131.1 339.6,140.1 339.7,148.2 339.8,134.1 339.9,128.8 340.0,125.7 340.1,123.8 340.2,122.5 340.3,121.7 340.4,121.4 340.5,121.5 340.6,122.0 340.7,122.8 340.8,124.2 340.9,126.1 341.0,128.9 341.1,133.3 341.2,141.7 341.3,153.0 341.4,137.1 341.5,131.6 341.6,128.4 341.7,126.3 341.8,125.0 341.9,124.2 342.0,123.9 342.1,123.9 342.2,124.3 342.3,125.2 342.4,126.5 342.5,128.4 342.6,131.1 342.7,135.3 342.8,143.3 342.9,158.2 343.0,139.9 343.1,134.1 343.2,130.9 343.3,128.8 343.4,127.4 343.5,126.6 343.6,126.2 343.7,126.2 343.8,126.6 343.9,127.3 344.0,128.6 344.1,130.4 344.2,133.1 344.3,137.2 344.4,144.7 344.5,164.6 344.6,142.6 344.7,136.6 344.8,133.2 344.9,131.0 345.0,129.6 345.1,128.7 345.2,128.3 345.3,128.3 345.4,128.6 345.5,129.4 345.6,130.6 345.7,132.4 345.8,135.0 345.9,138.9 346.0,146.1 346.1,166.0 346.2,145.2 346.3,138.9 346.4,135.4 346.5,133.1 346.6,131.7 346.7,130.7 346.8,130.3 346.9,130.2 347.0,130.5 347.1,131.3 347.2,132.4 347.3,134.2 347.4,136.7 347.5,140.5 347.6,147.4 347.7,166.0 347.8,147.7 347.9,141.0 348.0,137.4 348.1,135.1 348.2,133.6 348.3,132.7 348.4,132.2 348.5,132.1 348.6,132.4 348.7,133.0 348.8,134.2 348.9,135.9 349.0,138.3 349.1,142.1 349.2,148.6 349.3,166.0 349.4,150.1 349.5,143.1 349.6,139.4 349.7,137.0 349.8,135.4 349.9,134.5 350.0,133.9 350.1,133.8 350.2,134.1 350.3,134.7 350.4,135.8 350.5,137.5 350.6,139.9 350.7,143.5 350.8,149.7 350.9,166.0 351.0,152.5 351.1,145.1 351.2,141.2 351.3,138.8 351.4,137.2 351.5,136.2 351.6,135.6 351.7,135.5 351.8,135.7 351.9,136.3 352.0,137.4 352.1,139.0 352.2,141.3 352.3,144.8 352.4,150.8 352.5,166.0 352.6,154.8 352.7,147.0 352.8,143.0 352.9,140.5 353.0,138.9 353.1,137.8 353.2,137.2 353.3,137.0 353.4,137.2 353.5,137.8 353.6,138.8 353.7,140.4 353.8,142.7 353.9,146.1 354.0,151.8 354.1,166.0 354.2,157.1 354.3,148.9 354.4,144.7 354.5,142.1 354.6,140.4 354.7,139.3 354.8,138.7 354.9,138.5 355.0,138.7 355.1,139.2 355.2,140.2 355.3,141.8 355.4,144.0 355.5,147.3 355.6,152.8 355.7,166.0 355.8,159.4 355.9,150.7 356.0,146.4 356.1,143.7 356.3,142.0 356.4,140.8 356.5,140.2 356.6,139.9 356.7,140.1 356.8,140.6 356.9,141.6 357.0,143.0 357.1,145.2 357.2,148.4 357.3,153.7 357.4,166.0 357.5,161.8 357.6,152.4 357.7,148.0 357.8,145.2 357.9,143.4 358.0,142.2 358.1,141.6 358.2,141.3 358.3,141.4 358.4,141.9 358.5,142.8 358.6,144.3 358.7,146.4 358.8,149.5 358.9,154.6 359.0,166.0 359.1,164.2 359.2,154.1 359.3,149.5 359.4,146.7 359.5,144.8 359.6,143.6 359.7,142.9 359.8,142.6 359.9,142.7 360.0,143.2 360.1,144.1 360.2,145.5 360.3,147.5 360.4,150.5 360.5,155.5 360.6,166.0 360.7,166.0 360.8,155.8 360.9,151.0 361.0,148.1 361.1,146.2 361.2,144.9 361.3,144.2 361.4,143.8 361.5,143.9 361.6,144.4 361.7,145.2 361.8,146.6 361.9,148.6 362.0,151.5 362.1,156.3 362.2,166.0 362.3,166.0 362.4,157.4 362.5,152.4 362.6,149.4 362.7,147.5 362.8,146.2 362.9,145.4 363.0,145.0 363.1,145.1 363.2,145.5 363.3,146.3 363.4,147.7 363.5,149.6 363.6,152.5 363.7,157.1 363.8,166.0 363.9,166.0 364.0,159.0 364.1,153.8 364.2,150.7 364.3,148.7 364.4,147.4 364.5,146.6 364.6,146.2 364.7,146.2 364.8,146.6 364.9,147.4 365.0,148.7 365.1,150.6 365.2,153.4 365.3,157.8 365.4,166.0 365.5,166.0 365.6,160.6 365.7,155.2 365.8,152.0 365.9,150.0 366.0,148.6 366.1,147.7 366.2,147.3 366.3,147.3 366.4,147.7 366.5,148.5 366.6,149.7 366.7,151.6 366.8,154.3 366.9,158.6 367.0,166.0 367.1,166.0 367.2,162.1 367.3,156.5 367.4,153.3 367.5,151.1 367.6,149.7 367.7,148.9 367.8,148.4 367.9,148.4 368.0,148.7 368.1,149.5 368.2,150.7 368.3,152.5 368.4,155.1 368.5,159.3 368.6,166.0 368.7,166.0 368.8,163.7 368.9,157.8 369.0,154.5 369.1,152.3 369.2,150.8 369.3,149.9 369.4,149.5 369.5,149.4 369.6,149.7 369.7,150.4 369.8,151.6 369.9,153.4 370.0,156.0 370.1,160.0 370.2,166.0 370.3,166.0 370.4,165.2 370.5,159.1 370.6,155.6 370.7,153.4 370.8,151.9 370.9,151.0 371.0,150.5 371.1,150.4 371.2,150.7 371.3,151.4 371.4,152.5 371.5,154.2 371.6,156.8 371.7,160.6 371.8,166.0 371.9,166.0 372.0,166.0 372.1,160.4 372.2,156.8 372.3,154.5 372.4,153.0 372.5,152.0 372.6,151.5 372.7,151.3 372.8,151.6 372.9,152.3 373.0,153.4 373.1,155.1 373.2,157.5 373.3,161.3 373.4,166.0 373.5,166.0 373.6,166.0 373.7,161.6 373.8,157.9 373.9,155.6 374.0,154.0 374.1,153.0 374.2,152.4 374.3,152.3 374.4,152.5 374.5,153.1 374.6,154.2 374.7,155.9 374.8,158.3 374.9,161.9 375.0,166.0 375.1,166.0 375.2,166.0 375.3,162.8 375.4,159.0 375.5,156.6 375.6,155.0 375.7,153.9 375.8,153.4 375.9,153.2 376.0,153.4 376.1,154.0 376.2,155.0 376.3,156.6 376.4,159.0 376.5,162.5 376.6,166.0 376.7,166.0 376.8,166.0 376.9,164.0 377.0,160.1 377.1,157.6 377.2,155.9 377.3,154.9 377.4,154.3 377.5,154.1 377.6,154.2 377.7,154.8 377.8,155.8 377.9,157.4 378.0,159.7 378.1,163.1 378.2,166.0 378.3,166.0 378.4,166.0 378.5,165.2 378.6,161.2 378.7,158.6 378.8,156.9 378.9,155.8 379.0,155.2 379.1,154.9 379.2,155.1 379.3,155.6 379.4,156.6 379.5,158.1 379.6,160.4 379.7,163.7 379.8,166.0 379.9,166.0 380.0,166.0 380.1,166.0 380.2,162.2 380.3,159.6 380.4,157.8 380.5,156.7 380.6,156.0 380.7,155.8 380.8,155.9 380.9,156.4 381.0,157.4 381.1,158.8 381.2,161.0 381.3,164.3 381.4,166.0 381.5,166.0 381.6,166.0 381.7,166.0 381.8,163.2 381.9,160.5 382.0,158.7 382.1,157.5 382.2,156.9 382.3,156.6 382.4,156.7 382.5,157.2 382.6,158.1 382.7,159.5 382.8,161.7 382.9,164.8 383.0,166.0 383.1,166.0 383.2,166.0 383.3,166.0 383.4,164.2 383.5,161.5 383.6,159.6 383.7,158.4 383.8,157.7 383.9,157.4 384.0,157.5 384.1,157.9 384.2,158.8 384.3,160.2 384.4,162.3 384.5,165.4 384.6,166.0 384.7,166.0 384.8,166.0 384.9,166.0 385.0,165.2 385.1,162.4 385.2,160.5 385.3,159.2 385.4,158.5 385.5,158.2 385.6,158.2 385.7,158.7 385.8,159.5 385.9,160.9 386.0,162.9 386.1,165.9 386.2,166.0 386.3,166.0 386.4,166.0 386.5,166.0 386.6,166.0 386.7,163.3 386.8,161.3 386.9,160.1 387.0,159.3 387.1,158.9 387.2,158.9 387.3,159.4 387.4,160.2 387.5,161.5 387.6,163.5 387.7,166.0 387.8,166.0 387.9,166.0 388.0,166.0 388.1,166.0 388.2,166.0 388.3,164.2 388.4,162.2 388.5,160.9 388.6,160.0 388.7,159.7 388.8,159.7 388.9,160.1 389.0,160.9 389.1,162.2 389.2,164.1 389.3,166.0 389.4,166.0 389.5,166.0 389.6,166.0 389.7,166.0 389.8,166.0 389.9,165.0 390.0,163.0 390.1,161.6 390.2,160.8 390.3,160.4 390.4,160.4 390.5,160.7 390.6,161.5 390.7,162.8 390.8,164.6 390.9,166.0 391.0,166.0 391.1,166.0 391.2,166.0 391.3,166.0 391.4,166.0 391.5,165.9 391.6,163.8 391.7,162.4 391.8,161.5 391.9,161.1 392.0,161.1 392.1,161.4 392.2,162.2 392.3,163.4 392.4,165.2 392.5,166.0 392.6,166.0 392.7,166.0 392.8,166.0 392.9,166.0 393.0,166.0 393.1,166.0 393.2,164.6 393.3,163.2 393.4,162.3 393.5,161.8 393.6,161.7 393.7,162.1 393.8,162.8 393.9,164.0 394.0,165.8 394.1,166.0 394.2,166.0 394.3,166.0 394.4,166.0 394.5,166.0 394.6,166.0 394.7,166.0 394.8,165.4 394.9,163.9 395.0,163.0 395.1,162.5 395.2,162.4 395.3,162.7 395.4,163.4 395.5,164.5 395.6,166.0 395.7,166.0 395.8,166.0 395.9,166.0 396.0,166.0 396.1,166.0 396.2,166.0 396.3,166.0 396.4,166.0 396.5,164.7 396.6,163.7 396.7,163.2 396.8,163.1 396.9,163.3 397.0,164.0 397.1,165.1 397.2,166.0 397.3,166.0 397.4,166.0 397.5,166.0 397.6,166.0 397.7,166.0 397.8,166.0 397.9,166.0 398.0,166.0 398.1,165.4 398.2,164.4 398.3,163.8 398.4,163.7 398.5,163.9 398.6,164.6 398.7,165.7 398.8,166.0 398.9,166.0 399.0,166.0 399.1,166.0 399.2,166.0 399.3,166.0 399.4,166.0 399.5,166.0 399.6,166.0 399.7,166.0 399.8,165.1 399.9,164.5 400.0,164.3 400.1,164.5 400.2,165.2 400.3,166.0 400.4,166.0 400.5,166.0 400.6,166.0 400.7,166.0 400.8,166.0 400.9,166.0 401.0,166.0 401.1,166.0 401.2,166.0 401.3,166.0 401.4,165.7 401.5,165.1 401.6,164.9 401.7,165.1 401.8,165.7 401.9,166.0 402.0,166.0 402.1,166.0 402.2,166.0 402.3,166.0 402.4,166.0 402.5,166.0 402.6,166.0 402.7,166.0 402.8,166.0 402.9,166.0 403.0,166.0 403.1,165.8 403.2,165.6 403.3,165.7 403.4,166.0 403.5,166.0 403.6,166.0 403.7,166.0 403.8,166.0 403.9,166.0 404.0,166.0 404.1,166.0 404.2,166.0 404.3,166.0 404.4,166.0 404.5,166.0 404.6,166.0 404.7,166.0 404.8,166.0 404.9,166.0 405.0,166.0 405.1,166.0 405.2,166.0 405.3,166.0 405.4,166.0 405.5,166.0 405.6,166.0 405.7,166.0 405.8,166.0 405.9,166.0 406.0,166.0 406.1,166.0 406.2,166.0 406.3,166.0 406.4,166.0 406.5,166.0 406.6,166.0 406.7,166.0 406.8,166.0 406.9,166.0 407.0,166.0 407.1,166.0 407.2,166.0 407.3,166.0 407.4,166.0 407.5,166.0 407.6,166.0 407.7,166.0 407.8,166.0 407.9,166.0 408.0,166.0 408.1,166.0 408.2,166.0 408.3,166.0 408.4,166.0 408.5,166.0 408.6,166.0 408.7,166.0 408.8,166.0 408.9,166.0 409.0,166.0 409.1,166.0 409.2,166.0 409.3,166.0 409.4,166.0 409.5,166.0 409.6,166.0 409.7,166.0 409.8,166.0 409.9,166.0 410.0,166.0 410.1,166.0 410.2,166.0 410.3,166.0 410.4,166.0 410.5,166.0 410.6,166.0 410.7,166.0 410.8,166.0 410.9,166.0 411.0,166.0 411.1,166.0 411.2,166.0 411.3,166.0 411.4,166.0 411.5,166.0 411.6,166.0 411.7,166.0 411.8,166.0 411.9,166.0 412.0,166.0 412.1,166.0 412.2,166.0 412.3,166.0 412.4,166.0 412.5,166.0 412.6,166.0 412.7,166.0 412.8,166.0 412.9,166.0 413.0,166.0 413.1,166.0 413.2,166.0 413.3,166.0 413.4,166.0 413.5,166.0 413.6,166.0 413.7,166.0 413.8,166.0 413.9,166.0 414.0,166.0 414.1,166.0 414.2,166.0 414.3,166.0 414.4,166.0 414.5,166.0 414.6,166.0 414.7,166.0 414.8,166.0 414.9,166.0 415.0,166.0 415.1,166.0 415.2,166.0 415.3,166.0 415.4,166.0 415.5,166.0 415.6,166.0 415.7,166.0 415.8,166.0 415.9,166.0 416.0,166.0 416.1,166.0 416.2,166.0 416.3,166.0 416.4,166.0 416.5,166.0 416.6,166.0 416.7,166.0 416.8,166.0 416.9,166.0 417.0,166.0 417.1,166.0 417.2,166.0 417.3,166.0 417.4,166.0 417.5,166.0 417.6,166.0 417.7,166.0 417.8,166.0 417.9,166.0 418.0,166.0 418.1,166.0 418.2,166.0 418.3,166.0 418.4,166.0 418.5,166.0 418.6,166.0 418.7,166.0 418.8,166.0 418.9,166.0 419.0,166.0 419.1,166.0 419.2,166.0 419.3,166.0 419.4,166.0 419.5,166.0 419.6,166.0 419.7,166.0 419.8,166.0 419.9,166.0 420.0,166.0 420.1,166.0 420.2,166.0 420.3,166.0 420.4,166.0 420.5,166.0 420.6,166.0 420.7,166.0 420.8,166.0 420.9,166.0 421.0,166.0 421.1,166.0 421.2,166.0 421.3,166.0 421.4,166.0 421.5,166.0 421.6,166.0 421.7,166.0 421.8,166.0 421.9,166.0 422.0,166.0 422.1,166.0 422.2,166.0 422.3,166.0 422.4,166.0 422.5,166.0 422.6,166.0 422.7,166.0 422.8,166.0 422.9,166.0 423.0,166.0 423.1,166.0 423.2,166.0 423.3,166.0 423.4,166.0 423.5,166.0 423.6,166.0 423.7,166.0 423.8,166.0 423.9,166.0 424.0,166.0 424.1,166.0 424.2,166.0 424.3,166.0 424.4,166.0 424.6,166.0 424.7,166.0 424.8,166.0 424.9,166.0 425.0,166.0 425.1,166.0 425.2,166.0 425.3,166.0 425.4,166.0 425.5,166.0 425.6,166.0 425.7,166.0 425.8,166.0 425.9,166.0 426.0,166.0 426.1,166.0 426.2,166.0 426.3,166.0 426.4,166.0 426.5,166.0 426.6,166.0 426.7,166.0 426.8,166.0 426.9,166.0 427.0,166.0 427.1,166.0 427.2,166.0 427.3,166.0 427.4,166.0 427.5,166.0 427.6,166.0 427.7,166.0 427.8,166.0 427.9,166.0 428.0,166.0 428.1,166.0 428.2,166.0 428.3,166.0 428.4,166.0 428.5,166.0 428.6,166.0 428.7,166.0 428.8,166.0 428.9,166.0 429.0,166.0 429.1,166.0 429.2,166.0 429.3,166.0 429.4,166.0 429.5,166.0 429.6,166.0 429.7,166.0 429.8,166.0 429.9,166.0 430.0,166.0 430.1,166.0 430.2,166.0 430.3,166.0 430.4,166.0 430.5,166.0 430.6,166.0 430.7,166.0 430.8,166.0 430.9,166.0 431.0,166.0 431.1,166.0 431.2,166.0 431.3,166.0 431.4,166.0 431.5,166.0 431.6,166.0 431.7,166.0 431.8,166.0 431.9,166.0 432.0,166.0 432.1,166.0 432.2,166.0 432.3,166.0 432.4,166.0 432.5,166.0 432.6,166.0 432.7,166.0 432.8,166.0 432.9,166.0 433.0,166.0 433.1,166.0 433.2,166.0 433.3,166.0 433.4,166.0 433.5,166.0 433.6,166.0 433.7,166.0 433.8,166.0 433.9,166.0 434.0,166.0 434.1,166.0 434.2,166.0 434.3,166.0 434.4,166.0 434.5,166.0 434.6,166.0 434.7,166.0 434.8,166.0 434.9,166.0 435.0,166.0 435.1,166.0 435.2,166.0 435.3,166.0 435.4,166.0 435.5,166.0 435.6,166.0 435.7,166.0 435.8,166.0 435.9,166.0 436.0,166.0 436.1,166.0 436.2,166.0 436.3,166.0 436.4,166.0 436.5,166.0 436.6,166.0 436.7,166.0 436.8,166.0 436.9,166.0 437.0,166.0 437.1,166.0 437.2,166.0 437.3,166.0 437.4,166.0 437.5,166.0 437.6,166.0 437.7,166.0 437.8,166.0 437.9,166.0 438.0,166.0 438.1,166.0 438.2,166.0 438.3,166.0 438.4,166.0 438.5,166.0 438.6,166.0 438.7,166.0 438.8,166.0 438.9,166.0 439.0,166.0 439.1,166.0 439.2,166.0 439.3,166.0 439.4,166.0 439.5,166.0 439.6,166.0 439.7,166.0 439.8,166.0 439.9,166.0 440.0,166.0 440.1,166.0 440.2,166.0 440.3,166.0 440.4,166.0 440.5,166.0 440.6,166.0 440.7,166.0 440.8,166.0 440.9,166.0 441.0,166.0 441.1,166.0 441.2,166.0 441.3,166.0 441.4,166.0 441.5,166.0 441.6,166.0 441.7,166.0 441.8,166.0 441.9,166.0 442.0,166.0 442.1,166.0 442.2,166.0 442.3,166.0 442.4,166.0 442.5,166.0 442.6,166.0 442.7,166.0 442.8,166.0 442.9,166.0 443.0,166.0 443.1,166.0 443.2,166.0 443.3,166.0 443.4,166.0 443.5,166.0 443.6,166.0 443.7,166.0 443.8,166.0 443.9,166.0 444.0,166.0 444.1,166.0 444.2,166.0 444.3,166.0 444.4,166.0 444.5,166.0 444.6,166.0 444.7,166.0 444.8,166.0 444.9,166.0 445.0,166.0 445.1,166.0 445.2,166.0 445.3,166.0 445.4,166.0 445.5,166.0 445.6,166.0 445.7,166.0 445.8,166.0 445.9,166.0 446.0,166.0 446.1,166.0 446.2,166.0 446.3,166.0 446.4,166.0 446.5,166.0 446.6,166.0 446.7,166.0 446.8,166.0 446.9,166.0 447.0,166.0 447.1,166.0 447.2,166.0 447.3,166.0 447.4,166.0 447.5,166.0 447.6,166.0 447.7,166.0 447.8,166.0 447.9,166.0 448.0,166.0 448.1,166.0 448.2,166.0 448.3,166.0 448.4,166.0 448.5,166.0 448.6,166.0 448.7,166.0 448.8,166.0 448.9,166.0 449.0,166.0 449.1,166.0 449.2,166.0 449.3,166.0 449.4,166.0 449.5,166.0 449.6,166.0 449.7,166.0 449.8,166.0 449.9,166.0 450.0,166.0 450.1,166.0 450.2,166.0 450.3,166.0 450.4,166.0 450.5,166.0 450.6,166.0 450.7,166.0 450.8,166.0 450.9,166.0 451.0,166.0 451.1,166.0 451.2,166.0 451.3,166.0 451.4,166.0 451.5,166.0 451.6,166.0 451.7,166.0 451.8,166.0 451.9,166.0 452.0,166.0 452.1,166.0 452.2,166.0 452.3,166.0 452.4,166.0 452.5,166.0 452.6,166.0 452.7,166.0 452.8,166.0 452.9,166.0 453.0,166.0 453.1,166.0 453.2,166.0 453.3,166.0 453.4,166.0 453.5,166.0 453.6,166.0 453.7,166.0 453.8,166.0 453.9,166.0 454.0,166.0 454.1,166.0 454.2,166.0 454.3,166.0 454.4,166.0 454.5,166.0 454.6,166.0 454.7,166.0 454.8,166.0 454.9,166.0 455.0,166.0 455.1,166.0 455.2,166.0 455.3,166.0 455.4,166.0 455.5,166.0 455.6,166.0 455.7,166.0 455.8,166.0 455.9,166.0 456.0,166.0 456.1,166.0 456.2,166.0 456.3,166.0 456.4,166.0 456.5,166.0 456.6,166.0 456.7,166.0 456.8,166.0 456.9,166.0 457.0,166.0 457.1,166.0 457.2,166.0 457.3,166.0 457.4,166.0 457.5,166.0 457.6,166.0 457.7,166.0 457.8,166.0 457.9,166.0 458.0,166.0 458.1,166.0 458.2,166.0 458.3,166.0 458.4,166.0 458.5,166.0 458.6,166.0 458.7,166.0 458.8,166.0 458.9,166.0 459.0,166.0 459.1,166.0 459.2,166.0 459.3,166.0 459.4,166.0 459.5,166.0 459.6,166.0 459.7,166.0 459.8,166.0 459.9,166.0 460.0,166.0 460.1,166.0 460.2,166.0 460.3,166.0 460.4,166.0 460.5,166.0 460.6,166.0 460.7,166.0 460.8,166.0 460.9,166.0 461.0,166.0 461.1,166.0 461.2,166.0 461.3,166.0 461.4,166.0 461.5,166.0 461.6,166.0 461.7,166.0 461.8,166.0 461.9,166.0 462.0,166.0 462.1,166.0 462.2,166.0 462.3,166.0 462.4,166.0 462.5,166.0 462.6,166.0 462.7,166.0 462.8,166.0 462.9,166.0 463.0,166.0 463.1,166.0 463.2,166.0 463.3,166.0 463.4,166.0 463.5,166.0 463.6,166.0 463.7,166.0 463.8,166.0 463.9,166.0 464.0,166.0 464.1,166.0 464.2,166.0 464.3,166.0 464.4,166.0 464.5,166.0 464.6,166.0 464.7,166.0 464.8,166.0 464.9,166.0 465.0,166.0 465.1,166.0 465.2,166.0 465.3,166.0 465.4,166.0 465.5,166.0 465.6,166.0 465.7,166.0 465.8,166.0 465.9,166.0 466.0,166.0 466.1,166.0 466.2,166.0 466.3,166.0 466.4,166.0 466.5,166.0 466.6,166.0 466.7,166.0 466.8,166.0 466.9,166.0 467.0,166.0 467.1,166.0 467.2,166.0 467.3,166.0 467.4,166.0 467.5,166.0 467.6,166.0 467.7,166.0 467.8,166.0 467.9,166.0 468.0,166.0 468.1,166.0 468.2,166.0 468.3,166.0 468.4,166.0 468.5,166.0 468.6,166.0 468.7,166.0 468.8,166.0 468.9,166.0 469.0,166.0 469.1,166.0 469.2,166.0 469.3,166.0 469.4,166.0 469.5,166.0 469.6,166.0 469.7,166.0 469.8,166.0 469.9,166.0 470.0,166.0 470.1,166.0 470.2,166.0 470.3,166.0 470.4,166.0 470.5,166.0 470.6,166.0 470.7,166.0 470.8,166.0 470.9,166.0 471.0,166.0 471.1,166.0 471.2,166.0 471.3,166.0 471.4,166.0 471.5,166.0 471.6,166.0 471.7,166.0 471.8,166.0 471.9,166.0 472.0,166.0 472.1,166.0 472.2,166.0 472.3,166.0 472.4,166.0 472.5,166.0 472.6,166.0 472.7,166.0 472.8,166.0 472.9,166.0 473.0,166.0 473.1,166.0 473.2,166.0 473.3,166.0 473.4,166.0 473.5,166.0 473.6,166.0 473.7,166.0 473.8,166.0 473.9,166.0 474.0,166.0 474.1,166.0 474.2,166.0 474.3,166.0 474.4,166.0 474.5,166.0 474.6,166.0 474.7,166.0 474.8,166.0 474.9,166.0 475.0,166.0 475.1,166.0 475.2,166.0 475.3,166.0 475.4,166.0 475.5,166.0 475.6,166.0 475.7,166.0 475.8,166.0 475.9,166.0 476.0,166.0 476.1,166.0 476.2,166.0 476.3,166.0 476.4,166.0 476.5,166.0 476.6,166.0 476.7,166.0 476.8,166.0 476.9,166.0 477.0,166.0 477.1,166.0 477.2,166.0 477.3,166.0 477.4,166.0 477.5,166.0 477.6,166.0 477.7,166.0 477.8,166.0 477.9,166.0 478.0,166.0 478.1,166.0 478.2,166.0 478.3,166.0 478.4,166.0 478.5,166.0 478.6,166.0 478.7,166.0 478.8,166.0 478.9,166.0 479.0,166.0 479.1,166.0 479.2,166.0 479.3,166.0 479.4,166.0 479.5,166.0 479.6,166.0 479.7,166.0 479.8,166.0 479.9,166.0 480.0,166.0 480.1,166.0 480.2,166.0 480.3,166.0 480.4,166.0 480.5,166.0 480.6,166.0 480.7,166.0 480.8,166.0 480.9,166.0 481.0,166.0 481.1,166.0 481.2,166.0 481.3,166.0 481.4,166.0 481.5,166.0 481.6,166.0 481.7,166.0 481.8,166.0 481.9,166.0 482.0,166.0 482.1,166.0 482.2,166.0 482.3,166.0 482.4,166.0 482.5,166.0 482.6,166.0 482.7,166.0 482.8,166.0 482.9,166.0 483.0,166.0 483.1,166.0 483.2,166.0 483.3,166.0 483.4,166.0 483.5,166.0 483.6,166.0 483.7,166.0 483.8,166.0 483.9,166.0 484.0,166.0 484.1,166.0 484.2,166.0 484.3,166.0 484.4,166.0 484.5,166.0 484.6,166.0 484.7,166.0 484.8,166.0 484.9,166.0 485.0,166.0 485.1,166.0 485.2,166.0 485.3,166.0 485.4,166.0 485.5,166.0 485.6,166.0 485.7,166.0 485.8,166.0 485.9,166.0 486.0,166.0 486.1,166.0 486.2,166.0 486.3,166.0 486.4,166.0 486.5,166.0 486.6,166.0 486.7,166.0 486.8,166.0 486.9,166.0 487.0,166.0 487.1,166.0 487.2,166.0 487.3,166.0 487.4,166.0 487.5,166.0 487.6,166.0 487.7,166.0 487.8,166.0 487.9,166.0 488.0,166.0 488.1,166.0 488.2,166.0 488.3,166.0 488.4,166.0 488.5,166.0 488.6,166.0 488.7,166.0 488.8,166.0 488.9,166.0 489.0,166.0 489.1,166.0 489.2,166.0 489.3,166.0 489.4,166.0 489.5,166.0 489.6,166.0 489.7,166.0 489.8,166.0 489.9,166.0 490.0,166.0 490.1,166.0 490.2,166.0 490.3,166.0 490.4,166.0 490.5,166.0 490.6,166.0 490.7,166.0 490.8,166.0 490.9,166.0 491.0,166.0 491.1,166.0 491.2,166.0 491.3,166.0 491.4,166.0 491.5,166.0 491.6,166.0 491.7,166.0 491.8,166.0 491.9,166.0 492.0,166.0 492.1,166.0 492.2,166.0 492.3,166.0 492.4,166.0 492.5,166.0 492.6,166.0 492.7,166.0 492.9,166.0 493.0,166.0 493.1,166.0 493.2,166.0 493.3,166.0 493.4,166.0 493.5,166.0 493.6,166.0 493.7,166.0 493.8,166.0 493.9,166.0 494.0,166.0 494.1,166.0 494.2,166.0 494.3,166.0 494.4,166.0 494.5,166.0 494.6,166.0 494.7,166.0 494.8,166.0 494.9,166.0 495.0,166.0 495.1,166.0 495.2,166.0 495.3,166.0 495.4,166.0 495.5,166.0 495.6,166.0 495.7,166.0 495.8,166.0 495.9,166.0 496.0,166.0 496.1,166.0 496.2,166.0 496.3,166.0 496.4,166.0 496.5,166.0 496.6,166.0 496.7,166.0 496.8,166.0 496.9,166.0 497.0,166.0 497.1,166.0 497.2,166.0 497.3,166.0 497.4,166.0 497.5,166.0 497.6,166.0 497.7,166.0 497.8,166.0 497.9,166.0 498.0,166.0 498.1,166.0 498.2,166.0 498.3,166.0 498.4,166.0 498.5,166.0 498.6,166.0 498.7,166.0 498.8,166.0 498.9,166.0 499.0,166.0 499.1,166.0 499.2,166.0 499.3,166.0 499.4,166.0 499.5,166.0 499.6,166.0 499.7,166.0 499.8,166.0 499.9,166.0 500.0,166.0 500.1,166.0 500.2,166.0 500.3,166.0 500.4,166.0 500.5,166.0 500.6,166.0 500.7,166.0 500.8,166.0 500.9,166.0 501.0,166.0 501.1,166.0 501.2,166.0 501.3,166.0 501.4,166.0 501.5,166.0 501.6,166.0 501.7,166.0 501.8,166.0 501.9,166.0 502.0,166.0 502.1,166.0 502.2,166.0 502.3,166.0 502.4,166.0 502.5,166.0 502.6,166.0 502.7,166.0 502.8,166.0 502.9,166.0 503.0,166.0 503.1,166.0 503.2,166.0 503.3,166.0 503.4,166.0 503.5,166.0 503.6,166.0 503.7,166.0 503.8,166.0 503.9,166.0 504.0,166.0 504.1,166.0 504.2,166.0 504.3,166.0 504.4,166.0 504.5,166.0 504.6,166.0 504.7,166.0 504.8,166.0 504.9,166.0 505.0,166.0 505.1,166.0 505.2,166.0 505.3,166.0 505.4,166.0 505.5,166.0 505.6,166.0 505.7,166.0 505.8,166.0 505.9,166.0 506.0,166.0 506.1,166.0 506.2,166.0 506.3,166.0 506.4,166.0 506.5,166.0 506.6,166.0 506.7,166.0 506.8,166.0 506.9,166.0 507.0,166.0 507.1,166.0 507.2,166.0 507.3,166.0 507.4,166.0 507.5,166.0 507.6,166.0 507.7,166.0 507.8,166.0 507.9,166.0 508.0,166.0 508.1,166.0 508.2,166.0 508.3,166.0 508.4,166.0 508.5,166.0 508.6,166.0 508.7,166.0 508.8,166.0 508.9,166.0 509.0,166.0 509.1,166.0 509.2,166.0 509.3,166.0 509.4,166.0 509.5,166.0 509.6,166.0 509.7,166.0 509.8,166.0 509.9,166.0 510.0,166.0 510.1,166.0 510.2,166.0 510.3,166.0 510.4,166.0 510.5,166.0 510.6,166.0 510.7,166.0 510.8,166.0 510.9,166.0 511.0,166.0 511.1,166.0 511.2,166.0 511.3,166.0 511.4,166.0 511.5,166.0 511.6,166.0 511.7,166.0 511.8,166.0 511.9,166.0 512.0,166.0 512.1,166.0 512.2,166.0 512.3,166.0 512.4,166.0 512.5,166.0 512.6,166.0 512.7,166.0 512.8,166.0 512.9,166.0 513.0,166.0 513.1,166.0 513.2,166.0 513.3,166.0 513.4,166.0 513.5,166.0 513.6,166.0 513.7,166.0 513.8,166.0 513.9,166.0 514.0,166.0 514.1,166.0 514.2,166.0 514.3,166.0 514.4,166.0 514.5,166.0 514.6,166.0 514.7,166.0 514.8,166.0 514.9,166.0 515.0,166.0 515.1,166.0 515.2,166.0 515.3,166.0 515.4,166.0 515.5,166.0 515.6,166.0 515.7,166.0 515.8,166.0 515.9,166.0 516.0,166.0 516.1,166.0 516.2,166.0 516.3,166.0 516.4,166.0 516.5,166.0 516.6,166.0 516.7,166.0 516.8,166.0 516.9,166.0 517.0,166.0 517.1,166.0 517.2,166.0 517.3,166.0 517.4,166.0 517.5,166.0 517.6,166.0 517.7,166.0 517.8,166.0 517.9,166.0 518.0,166.0 518.1,166.0 518.2,166.0 518.3,166.0 518.4,166.0 518.5,166.0 518.6,166.0 518.7,166.0 518.8,166.0 518.9,166.0 519.0,166.0 519.1,166.0 519.2,166.0 519.3,166.0 519.4,166.0 519.5,166.0 519.6,166.0 519.7,166.0 519.8,166.0 519.9,166.0 520.0,166.0 520.1,166.0 520.2,166.0 520.3,166.0 520.4,166.0 520.5,166.0 520.6,166.0 520.7,166.0 520.8,166.0 520.9,166.0 521.0,166.0 521.1,166.0 521.2,166.0 521.3,166.0 521.4,166.0 521.5,166.0 521.6,166.0 521.7,166.0 521.8,166.0 521.9,166.0 522.0,166.0 522.1,166.0 522.2,166.0 522.3,166.0 522.4,166.0 522.5,166.0 522.6,166.0 522.7,166.0 522.8,166.0 522.9,166.0 523.0,166.0 523.1,166.0 523.2,166.0 523.3,166.0 523.4,166.0 523.5,166.0 523.6,166.0 523.7,166.0 523.8,166.0 523.9,166.0 524.0,166.0 524.1,166.0 524.2,166.0 524.3,166.0 524.4,166.0 524.5,166.0 524.6,166.0 524.7,166.0 524.8,166.0 524.9,166.0 525.0,166.0 525.1,166.0 525.2,166.0 525.3,166.0 525.4,166.0 525.5,166.0 525.6,166.0 525.7,166.0 525.8,166.0 525.9,166.0 526.0,166.0 526.1,166.0 526.2,166.0 526.3,166.0 526.4,166.0 526.5,166.0 526.6,166.0 526.7,166.0 526.8,166.0 526.9,166.0 527.0,166.0" fill="none" stroke="#4a90d9" stroke-width="1.2" stroke-linejoin="round"/>
  <text x="154.5" y="190" text-anchor="middle" font-size="8" fill="#6b7280">n / N</text>
  <text x="424.5" y="190" text-anchor="middle" font-size="8" fill="#6b7280">Normalized frequency (× Fₛ)</text>
</svg>
