<svg xmlns="http://www.w3.org/2000/svg" viewBox="0 0 560 190" width="560" height="190" style="font-family:system-ui,-apple-system,sans-serif">
  <rect width="560" height="190" fill="#fafafa" rx="6"/>
  <line x1="52" y1="152.0" x2="257" y2="152.0" stroke="#e5e7eb" stroke-width="0.5"/>
  <text x="48" y="155.0" text-anchor="end" font-size="7.5" fill="#6b7280">0</text>
  <line x1="52" y1="82.0" x2="257" y2="82.0" stroke="#e5e7eb" stroke-width="0.5"/>
  <text x="48" y="85.0" text-anchor="end" font-size="7.5" fill="#6b7280">0.5</text>
  <line x1="52" y1="12.0" x2="257" y2="12.0" stroke="#e5e7eb" stroke-width="0.5"/>
  <text x="48" y="15.0" text-anchor="end" font-size="7.5" fill="#6b7280">1</text>
  <line x1="52.0" y1="12" x2="52.0" y2="152" stroke="#e5e7eb" stroke-width="0.5"/>
  <text x="52.0" y="164" text-anchor="middle" font-size="7.5" fill="#6b7280">0</text>
  <line x1="154.5" y1="12" x2="154.5" y2="152" stroke="#e5e7eb" stroke-width="0.5"/>
  <text x="154.5" y="164" text-anchor="middle" font-size="7.5" fill="#6b7280">0.5</text>
  <line x1="257.0" y1="12" x2="257.0" y2="152" stroke="#e5e7eb" stroke-width="0.5"/>
  <text x="257.0" y="164" text-anchor="middle" font-size="7.5" fill="#6b7280">1</text>
  <line x1="52" y1="12" x2="52" y2="152" stroke="#d1d5db" stroke-width="0.75"/>
  <line x1="52" y1="152" x2="257" y2="152" stroke="#d1d5db" stroke-width="0.75"/>
  <path d="M52.0,152.0 52.0,152.0 52.8,152.0 53.6,152.0 54.4,152.0 55.2,152.0 56.0,152.0 56.8,152.0 57.6,151.9 58.4,151.9 59.2,151.8 60.0,151.8 60.8,151.7 61.6,151.6 62.5,151.5 63.3,151.4 64.1,151.3 64.9,151.1 65.7,150.9 66.5,150.7 67.3,150.5 68.1,150.3 68.9,150.0 69.7,149.7 70.5,149.4 71.3,149.0 72.1,148.7 72.9,148.3 73.7,147.8 74.5,147.4 75.3,146.9 76.1,146.3 76.9,145.8 77.7,145.2 78.5,144.5 79.3,143.9 80.1,143.2 80.9,142.4 81.7,141.7 82.5,140.8 83.4,140.0 84.2,139.1 85.0,138.2 85.8,137.2 86.6,136.2 87.4,135.2 88.2,134.1 89.0,133.0 89.8,131.9 90.6,130.7 91.4,129.5 92.2,128.2 93.0,126.9 93.8,125.6 94.6,124.2 95.4,122.8 96.2,121.4 97.0,119.9 97.8,118.4 98.6,116.9 99.4,115.3 100.2,113.7 101.0,112.1 101.8,110.4 102.6,108.7 103.5,107.0 104.3,105.3 105.1,103.5 105.9,101.7 106.7,99.9 107.5,98.0 108.3,96.2 109.1,94.3 109.9,92.4 110.7,90.5 111.5,88.5 112.3,86.6 113.1,84.6 113.9,82.7 114.7,80.7 115.5,78.7 116.3,76.7 117.1,74.7 117.9,72.7 118.7,70.7 119.5,68.7 120.3,66.7 121.1,64.8 121.9,62.8 122.7,60.8 123.5,58.8 124.4,56.9 125.2,54.9 126.0,53.0 126.8,51.1 127.6,49.2 128.4,47.4 129.2,45.6 130.0,43.8 130.8,42.0 131.6,40.2 132.4,38.5 133.2,36.8 134.0,35.2 134.8,33.6 135.6,32.0 136.4,30.5 137.2,29.0 138.0,27.6 138.8,26.2 139.6,24.9 140.4,23.6 141.2,22.4 142.0,21.3 142.8,20.2 143.6,19.1 144.5,18.2 145.3,17.2 146.1,16.4 146.9,15.6 147.7,14.9 148.5,14.3 149.3,13.7 150.1,13.2 150.9,12.8 151.7,12.5 152.5,12.3 153.3,12.1 154.1,12.0 154.9,12.0 155.7,12.1 156.5,12.3 157.3,12.5 158.1,12.8 158.9,13.2 159.7,13.7 160.5,14.3 161.3,14.9 162.1,15.6 162.9,16.4 163.7,17.2 164.5,18.2 165.4,19.1 166.2,20.2 167.0,21.3 167.8,22.4 168.6,23.6 169.4,24.9 170.2,26.2 171.0,27.6 171.8,29.0 172.6,30.5 173.4,32.0 174.2,33.6 175.0,35.2 175.8,36.8 176.6,38.5 177.4,40.2 178.2,42.0 179.0,43.8 179.8,45.6 180.6,47.4 181.4,49.2 182.2,51.1 183.0,53.0 183.8,54.9 184.6,56.9 185.5,58.8 186.3,60.8 187.1,62.8 187.9,64.8 188.7,66.7 189.5,68.7 190.3,70.7 191.1,72.7 191.9,74.7 192.7,76.7 193.5,78.7 194.3,80.7 195.1,82.7 195.9,84.6 196.7,86.6 197.5,88.5 198.3,90.5 199.1,92.4 199.9,94.3 200.7,96.2 201.5,98.0 202.3,99.9 203.1,101.7 203.9,103.5 204.7,105.3 205.5,107.0 206.4,108.7 207.2,110.4 208.0,112.1 208.8,113.7 209.6,115.3 210.4,116.9 211.2,118.4 212.0,119.9 212.8,121.4 213.6,122.8 214.4,124.2 215.2,125.6 216.0,126.9 216.8,128.2 217.6,129.5 218.4,130.7 219.2,131.9 220.0,133.0 220.8,134.1 221.6,135.2 222.4,136.2 223.2,137.2 224.0,138.2 224.8,139.1 225.6,140.0 226.5,140.8 227.3,141.7 228.1,142.4 228.9,143.2 229.7,143.9 230.5,144.5 231.3,145.2 232.1,145.8 232.9,146.3 233.7,146.9 234.5,147.4 235.3,147.8 236.1,148.3 236.9,148.7 237.7,149.0 238.5,149.4 239.3,149.7 240.1,150.0 240.9,150.3 241.7,150.5 242.5,150.7 243.3,150.9 244.1,151.1 244.9,151.3 245.7,151.4 246.5,151.5 247.4,151.6 248.2,151.7 249.0,151.8 249.8,151.8 250.6,151.9 251.4,151.9 252.2,152.0 253.0,152.0 253.8,152.0 254.6,152.0 255.4,152.0 256.2,152.0 257.0,152.0 L257.0,152.0 Z" fill="#4a90d9" fill-opacity="0.06"/>
  <polyline points="52.0,152.0 52.8,152.0 53.6,152.0 54.4,152.0 55.2,152.0 56.0,152.0 56.8,152.0 57.6,151.9 58.4,151.9 59.2,151.8 60.0,151.8 60.8,151.7 61.6,151.6 62.5,151.5 63.3,151.4 64.1,151.3 64.9,151.1 65.7,150.9 66.5,150.7 67.3,150.5 68.1,150.3 68.9,150.0 69.7,149.7 70.5,149.4 71.3,149.0 72.1,148.7 72.9,148.3 73.7,147.8 74.5,147.4 75.3,146.9 76.1,146.3 76.9,145.8 77.7,145.2 78.5,144.5 79.3,143.9 80.1,143.2 80.9,142.4 81.7,141.7 82.5,140.8 83.4,140.0 84.2,139.1 85.0,138.2 85.8,137.2 86.6,136.2 87.4,135.2 88.2,134.1 89.0,133.0 89.8,131.9 90.6,130.7 91.4,129.5 92.2,128.2 93.0,126.9 93.8,125.6 94.6,124.2 95.4,122.8 96.2,121.4 97.0,119.9 97.8,118.4 98.6,116.9 99.4,115.3 100.2,113.7 101.0,112.1 101.8,110.4 102.6,108.7 103.5,107.0 104.3,105.3 105.1,103.5 105.9,101.7 106.7,99.9 107.5,98.0 108.3,96.2 109.1,94.3 109.9,92.4 110.7,90.5 111.5,88.5 112.3,86.6 113.1,84.6 113.9,82.7 114.7,80.7 115.5,78.7 116.3,76.7 117.1,74.7 117.9,72.7 118.7,70.7 119.5,68.7 120.3,66.7 121.1,64.8 121.9,62.8 122.7,60.8 123.5,58.8 124.4,56.9 125.2,54.9 126.0,53.0 126.8,51.1 127.6,49.2 128.4,47.4 129.2,45.6 130.0,43.8 130.8,42.0 131.6,40.2 132.4,38.5 133.2,36.8 134.0,35.2 134.8,33.6 135.6,32.0 136.4,30.5 137.2,29.0 138.0,27.6 138.8,26.2 139.6,24.9 140.4,23.6 141.2,22.4 142.0,21.3 142.8,20.2 143.6,19.1 144.5,18.2 145.3,17.2 146.1,16.4 146.9,15.6 147.7,14.9 148.5,14.3 149.3,13.7 150.1,13.2 150.9,12.8 151.7,12.5 152.5,12.3 153.3,12.1 154.1,12.0 154.9,12.0 155.7,12.1 156.5,12.3 157.3,12.5 158.1,12.8 158.9,13.2 159.7,13.7 160.5,14.3 161.3,14.9 162.1,15.6 162.9,16.4 163.7,17.2 164.5,18.2 165.4,19.1 166.2,20.2 167.0,21.3 167.8,22.4 168.6,23.6 169.4,24.9 170.2,26.2 171.0,27.6 171.8,29.0 172.6,30.5 173.4,32.0 174.2,33.6 175.0,35.2 175.8,36.8 176.6,38.5 177.4,40.2 178.2,42.0 179.0,43.8 179.8,45.6 180.6,47.4 181.4,49.2 182.2,51.1 183.0,53.0 183.8,54.9 184.6,56.9 185.5,58.8 186.3,60.8 187.1,62.8 187.9,64.8 188.7,66.7 189.5,68.7 190.3,70.7 191.1,72.7 191.9,74.7 192.7,76.7 193.5,78.7 194.3,80.7 195.1,82.7 195.9,84.6 196.7,86.6 197.5,88.5 198.3,90.5 199.1,92.4 199.9,94.3 200.7,96.2 201.5,98.0 202.3,99.9 203.1,101.7 203.9,103.5 204.7,105.3 205.5,107.0 206.4,108.7 207.2,110.4 208.0,112.1 208.8,113.7 209.6,115.3 210.4,116.9 211.2,118.4 212.0,119.9 212.8,121.4 213.6,122.8 214.4,124.2 215.2,125.6 216.0,126.9 216.8,128.2 217.6,129.5 218.4,130.7 219.2,131.9 220.0,133.0 220.8,134.1 221.6,135.2 222.4,136.2 223.2,137.2 224.0,138.2 224.8,139.1 225.6,140.0 226.5,140.8 227.3,141.7 228.1,142.4 228.9,143.2 229.7,143.9 230.5,144.5 231.3,145.2 232.1,145.8 232.9,146.3 233.7,146.9 234.5,147.4 235.3,147.8 236.1,148.3 236.9,148.7 237.7,149.0 238.5,149.4 239.3,149.7 240.1,150.0 240.9,150.3 241.7,150.5 242.5,150.7 243.3,150.9 244.1,151.1 244.9,151.3 245.7,151.4 246.5,151.5 247.4,151.6 248.2,151.7 249.0,151.8 249.8,151.8 250.6,151.9 251.4,151.9 252.2,152.0 253.0,152.0 253.8,152.0 254.6,152.0 255.4,152.0 256.2,152.0 257.0,152.0" fill="none" stroke="#4a90d9" stroke-width="1.2" stroke-linejoin="round"/>
  <line x1="322" y1="12.0" x2="527" y2="12.0" stroke="#e5e7eb" stroke-width="0.5"/>
  <text x="318" y="15.0" text-anchor="end" font-size="7.5" fill="#6b7280">0</text>
  <line x1="322" y1="58.7" x2="527" y2="58.7" stroke="#e5e7eb" stroke-width="0.5"/>
  <text x="318" y="61.7" text-anchor="end" font-size="7.5" fill="#6b7280">-40</text>
  <line x1="322" y1="105.3" x2="527" y2="105.3" stroke="#e5e7eb" stroke-width="0.5"/>
  <text x="318" y="108.3" text-anchor="end" font-size="7.5" fill="#6b7280">-80</text>
  <line x1="322" y1="152.0" x2="527" y2="152.0" stroke="#e5e7eb" stroke-width="0.5"/>
  <text x="318" y="155.0" text-anchor="end" font-size="7.5" fill="#6b7280">-120</text>
  <line x1="322.0" y1="12" x2="322.0" y2="152" stroke="#e5e7eb" stroke-width="0.5"/>
  <text x="322.0" y="164" text-anchor="middle" font-size="7.5" fill="#6b7280">0</text>
  <line x1="363.0" y1="12" x2="363.0" y2="152" stroke="#e5e7eb" stroke-width="0.5"/>
  <text x="363.0" y="164" text-anchor="middle" font-size="7.5" fill="#6b7280">0.1</text>
  <line x1="404.0" y1="12" x2="404.0" y2="152" stroke="#e5e7eb" stroke-width="0.5"/>
  <text x="404.0" y="164" text-anchor="middle" font-size="7.5" fill="#6b7280">0.2</text>
  <line x1="445.0" y1="12" x2="445.0" y2="152" stroke="#e5e7eb" stroke-width="0.5"/>
  <text x="445.0" y="164" text-anchor="middle" font-size="7.5" fill="#6b7280">0.3</text>
  <line x1="486.0" y1="12" x2="486.0" y2="152" stroke="#e5e7eb" stroke-width="0.5"/>
  <text x="486.0" y="164" text-anchor="middle" font-size="7.5" fill="#6b7280">0.4</text>
  <line x1="527.0" y1="12" x2="527.0" y2="152" stroke="#e5e7eb" stroke-width="0.5"/>
  <text x="527.0" y="164" text-anchor="middle" font-size="7.5" fill="#6b7280">0.5</text>
  <line x1="322" y1="12" x2="322" y2="152" stroke="#d1d5db" stroke-width="0.75"/>
  <line x1="322" y1="152" x2="527" y2="152" stroke="#d1d5db" stroke-width="0.75"/>
  <polyline points="322.0,12.0 322.1,12.0 322.2,12.1 322.3,12.2 322.4,12.3 322.5,12.5 322.6,12.7 322.7,12.9 322.8,13.2 322.9,13.5 323.0,13.9 323.1,14.3 323.2,14.7 323.3,15.2 323.4,15.7 323.5,16.3 323.6,16.9 323.7,17.5 323.8,18.2 323.9,18.9 324.0,19.7 324.1,20.6 324.2,21.5 324.3,22.4 324.4,23.4 324.5,24.5 324.6,25.7 324.7,26.9 324.8,28.1 324.9,29.5 325.0,30.9 325.1,32.4 325.2,34.1 325.3,35.8 325.4,37.6 325.5,39.6 325.6,41.7 325.7,44.0 325.8,46.5 325.9,49.2 326.0,52.1 326.1,55.4 326.2,59.2 326.3,63.5 326.4,68.6 326.5,74.9 326.6,83.4 326.7,96.7 326.8,134.9 326.9,106.3 327.0,91.0 327.1,83.1 327.2,78.1 327.3,74.5 327.4,71.8 327.5,69.8 327.6,68.3 327.7,67.3 327.8,66.5 327.9,66.0 328.0,65.7 328.1,65.7 328.2,65.8 328.3,66.2 328.4,66.7 328.5,67.4 328.6,68.3 328.7,69.4 328.8,70.7 328.9,72.2 329.0,74.0 329.1,76.0 329.2,78.3 329.3,80.9 329.4,84.0 329.5,87.7 329.6,92.2 329.7,97.8 329.8,105.5 329.9,117.4 330.0,146.9 330.1,131.5 330.2,113.9 330.3,105.1 330.4,99.4 330.5,95.3 330.6,92.2 330.7,89.9 330.8,88.0 330.9,86.5 331.0,85.4 331.1,84.6 331.2,84.0 331.3,83.7 331.4,83.6 331.5,83.6 331.6,83.9 331.7,84.4 331.8,85.0 331.9,85.8 332.0,86.9 332.1,88.2 332.2,89.7 332.3,91.4 332.4,93.5 332.5,95.9 332.6,98.7 332.7,102.2 332.8,106.3 332.9,111.6 333.0,118.8 333.1,129.7 333.2,152.0 333.3,149.5 333.4,129.2 333.5,119.7 333.6,113.5 333.7,109.1 333.8,105.8 333.9,103.2 334.0,101.1 334.1,99.5 334.2,98.2 334.3,97.3 334.4,96.5 334.5,96.0 334.6,95.8 334.7,95.7 334.8,95.8 334.9,96.2 335.0,96.7 335.1,97.4 335.2,98.3 335.3,99.4 335.4,100.8 335.5,102.4 335.6,104.3 335.7,106.6 335.8,109.3 335.9,112.5 336.0,116.5 336.1,121.6 336.2,128.3 336.3,138.5 336.4,152.0 336.5,152.0 336.6,141.1 336.7,130.8 336.8,124.3 336.9,119.6 337.0,116.1 337.1,113.3 337.2,111.1 337.3,109.4 337.4,108.0 337.5,106.9 337.6,106.1 337.7,105.5 337.8,105.1 337.9,105.0 338.0,105.0 338.1,105.2 338.2,105.7 338.3,106.3 338.4,107.1 338.5,108.1 338.6,109.4 338.7,110.9 338.8,112.8 338.9,114.9 339.0,117.5 339.1,120.6 339.2,124.4 339.3,129.3 339.4,135.7 339.5,145.2 339.6,152.0 339.7,152.0 339.8,151.0 339.9,139.9 340.0,133.0 340.1,128.1 340.2,124.4 340.3,121.6 340.4,119.2 340.5,117.4 340.6,115.9 340.7,114.7 340.8,113.8 340.9,113.2 341.0,112.7 341.1,112.5 341.2,112.5 341.3,112.6 341.4,113.0 341.5,113.5 341.6,114.3 341.7,115.3 341.8,116.5 341.9,117.9 342.0,119.7 342.1,121.8 342.2,124.2 342.3,127.2 342.4,130.9 342.5,135.5 342.6,141.7 342.7,150.6 342.8,152.0 342.9,152.0 343.0,152.0 343.1,147.7 343.2,140.4 343.3,135.3 343.4,131.5 343.5,128.5 343.6,126.1 343.7,124.1 343.8,122.6 343.9,121.3 344.0,120.4 344.1,119.7 344.2,119.2 344.3,118.9 344.4,118.8 344.5,118.9 344.6,119.2 344.7,119.7 344.8,120.4 344.9,121.3 345.0,122.4 345.1,123.8 345.2,125.5 345.3,127.5 345.4,129.9 345.5,132.8 345.6,136.4 345.7,140.8 345.8,146.7 345.9,152.0 346.0,152.0 346.1,152.0 346.2,152.0 346.3,152.0 346.4,147.0 346.5,141.6 346.6,137.6 346.7,134.5 346.8,132.0 346.9,130.0 347.0,128.4 347.1,127.1 347.2,126.0 347.3,125.3 347.4,124.7 347.5,124.4 347.6,124.2 347.7,124.3 347.8,124.6 347.9,125.0 348.0,125.7 348.1,126.5 348.2,127.6 348.3,128.9 348.4,130.6 348.5,132.5 348.6,134.8 348.7,137.6 348.8,141.1 348.9,145.4 349.0,151.0 349.1,152.0 349.2,152.0 349.3,152.0 349.4,152.0 349.5,152.0 349.6,152.0 349.7,147.2 349.8,143.1 349.9,139.8 350.0,137.2 350.1,135.2 350.2,133.5 350.3,132.1 350.4,131.0 350.5,130.2 350.6,129.6 350.7,129.2 350.8,129.1 350.9,129.1 351.0,129.3 351.1,129.7 351.2,130.3 351.3,131.1 351.4,132.2 351.5,133.5 351.6,135.0 351.7,136.9 351.8,139.2 351.9,141.9 352.0,145.2 352.1,149.4 352.2,152.0 352.3,152.0 352.4,152.0 352.5,152.0 352.6,152.0 352.7,152.0 352.8,152.0 352.9,152.0 353.0,148.0 353.1,144.6 353.2,142.0 353.3,139.8 353.4,138.0 353.5,136.6 353.6,135.5 353.7,134.6 353.8,134.0 353.9,133.6 354.0,133.4 354.1,133.4 354.2,133.5 354.3,133.9 354.4,134.5 354.5,135.2 354.6,136.2 354.7,137.5 354.8,139.0 354.9,140.8 355.0,143.0 355.1,145.7 355.2,148.9 355.3,152.0 355.4,152.0 355.5,152.0 355.6,152.0 355.7,152.0 355.8,152.0 355.9,152.0 356.0,152.0 356.1,152.0 356.3,152.0 356.4,149.0 356.5,146.2 356.6,144.0 356.7,142.2 356.8,140.7 356.9,139.6 357.0,138.7 357.1,138.0 357.2,137.5 357.3,137.3 357.4,137.2 357.5,137.4 357.6,137.7 357.7,138.2 357.8,139.0 357.9,139.9 358.0,141.1 358.1,142.6 358.2,144.4 358.3,146.5 358.4,149.1 358.5,152.0 358.6,152.0 358.7,152.0 358.8,152.0 358.9,152.0 359.0,152.0 359.1,152.0 359.2,152.0 359.3,152.0 359.4,152.0 359.5,152.0 359.6,152.0 359.7,150.2 359.8,147.9 359.9,146.0 360.0,144.5 360.1,143.3 360.2,142.3 360.3,141.6 360.4,141.1 360.5,140.8 360.6,140.8 360.7,140.9 360.8,141.2 360.9,141.7 361.0,142.4 361.1,143.3 361.2,144.4 361.3,145.9 361.4,147.6 361.5,149.7 361.6,152.0 361.7,152.0 361.8,152.0 361.9,152.0 362.0,152.0 362.1,152.0 362.2,152.0 362.3,152.0 362.4,152.0 362.5,152.0 362.6,152.0 362.7,152.0 362.8,152.0 362.9,152.0 363.0,151.5 363.1,149.5 363.2,148.0 363.3,146.7 363.4,145.7 363.5,145.0 363.6,144.5 363.7,144.1 363.8,144.0 363.9,144.1 364.0,144.3 364.1,144.8 364.2,145.5 364.3,146.4 364.4,147.5 364.5,148.9 364.6,150.5 364.7,152.0 364.8,152.0 364.9,152.0 365.0,152.0 365.1,152.0 365.2,152.0 365.3,152.0 365.4,152.0 365.5,152.0 365.6,152.0 365.7,152.0 365.8,152.0 365.9,152.0 366.0,152.0 366.1,152.0 366.2,152.0 366.3,152.0 366.4,151.2 366.5,149.9 366.6,148.9 366.7,148.1 366.8,147.5 366.9,147.2 367.0,147.0 367.1,147.1 367.2,147.3 367.3,147.7 367.4,148.4 367.5,149.2 367.6,150.3 367.7,151.6 367.8,152.0 367.9,152.0 368.0,152.0 368.1,152.0 368.2,152.0 368.3,152.0 368.4,152.0 368.5,152.0 368.6,152.0 368.7,152.0 368.8,152.0 368.9,152.0 369.0,152.0 369.1,152.0 369.2,152.0 369.3,152.0 369.4,152.0 369.5,152.0 369.6,152.0 369.7,152.0 369.8,151.8 369.9,151.0 370.0,150.4 370.1,150.0 370.2,149.8 370.3,149.9 370.4,150.1 370.5,150.5 370.6,151.1 370.7,151.9 370.8,152.0 370.9,152.0 371.0,152.0 371.1,152.0 371.2,152.0 371.3,152.0 371.4,152.0 371.5,152.0 371.6,152.0 371.7,152.0 371.8,152.0 371.9,152.0 372.0,152.0 372.1,152.0 372.2,152.0 372.3,152.0 372.4,152.0 372.5,152.0 372.6,152.0 372.7,152.0 372.8,152.0 372.9,152.0 373.0,152.0 373.1,152.0 373.2,152.0 373.3,152.0 373.4,152.0 373.5,152.0 373.6,152.0 373.7,152.0 373.8,152.0 373.9,152.0 374.0,152.0 374.1,152.0 374.2,152.0 374.3,152.0 374.4,152.0 374.5,152.0 374.6,152.0 374.7,152.0 374.8,152.0 374.9,152.0 375.0,152.0 375.1,152.0 375.2,152.0 375.3,152.0 375.4,152.0 375.5,152.0 375.6,152.0 375.7,152.0 375.8,152.0 375.9,152.0 376.0,152.0 376.1,152.0 376.2,152.0 376.3,152.0 376.4,152.0 376.5,152.0 376.6,152.0 376.7,152.0 376.8,152.0 376.9,152.0 377.0,152.0 377.1,152.0 377.2,152.0 377.3,152.0 377.4,152.0 377.5,152.0 377.6,152.0 377.7,152.0 377.8,152.0 377.9,152.0 378.0,152.0 378.1,152.0 378.2,152.0 378.3,152.0 378.4,152.0 378.5,152.0 378.6,152.0 378.7,152.0 378.8,152.0 378.9,152.0 379.0,152.0 379.1,152.0 379.2,152.0 379.3,152.0 379.4,152.0 379.5,152.0 379.6,152.0 379.7,152.0 379.8,152.0 379.9,152.0 380.0,152.0 380.1,152.0 380.2,152.0 380.3,152.0 380.4,152.0 380.5,152.0 380.6,152.0 380.7,152.0 380.8,152.0 380.9,152.0 381.0,152.0 381.1,152.0 381.2,152.0 381.3,152.0 381.4,152.0 381.5,152.0 381.6,152.0 381.7,152.0 381.8,152.0 381.9,152.0 382.0,152.0 382.1,152.0 382.2,152.0 382.3,152.0 382.4,152.0 382.5,152.0 382.6,152.0 382.7,152.0 382.8,152.0 382.9,152.0 383.0,152.0 383.1,152.0 383.2,152.0 383.3,152.0 383.4,152.0 383.5,152.0 383.6,152.0 383.7,152.0 383.8,152.0 383.9,152.0 384.0,152.0 384.1,152.0 384.2,152.0 384.3,152.0 384.4,152.0 384.5,152.0 384.6,152.0 384.7,152.0 384.8,152.0 384.9,152.0 385.0,152.0 385.1,152.0 385.2,152.0 385.3,152.0 385.4,152.0 385.5,152.0 385.6,152.0 385.7,152.0 385.8,152.0 385.9,152.0 386.0,152.0 386.1,152.0 386.2,152.0 386.3,152.0 386.4,152.0 386.5,152.0 386.6,152.0 386.7,152.0 386.8,152.0 386.9,152.0 387.0,152.0 387.1,152.0 387.2,152.0 387.3,152.0 387.4,152.0 387.5,152.0 387.6,152.0 387.7,152.0 387.8,152.0 387.9,152.0 388.0,152.0 388.1,152.0 388.2,152.0 388.3,152.0 388.4,152.0 388.5,152.0 388.6,152.0 388.7,152.0 388.8,152.0 388.9,152.0 389.0,152.0 389.1,152.0 389.2,152.0 389.3,152.0 389.4,152.0 389.5,152.0 389.6,152.0 389.7,152.0 389.8,152.0 389.9,152.0 390.0,152.0 390.1,152.0 390.2,152.0 390.3,152.0 390.4,152.0 390.5,152.0 390.6,152.0 390.7,152.0 390.8,152.0 390.9,152.0 391.0,152.0 391.1,152.0 391.2,152.0 391.3,152.0 391.4,152.0 391.5,152.0 391.6,152.0 391.7,152.0 391.8,152.0 391.9,152.0 392.0,152.0 392.1,152.0 392.2,152.0 392.3,152.0 392.4,152.0 392.5,152.0 392.6,152.0 392.7,152.0 392.8,152.0 392.9,152.0 393.0,152.0 393.1,152.0 393.2,152.0 393.3,152.0 393.4,152.0 393.5,152.0 393.6,152.0 393.7,152.0 393.8,152.0 393.9,152.0 394.0,152.0 394.1,152.0 394.2,152.0 394.3,152.0 394.4,152.0 394.5,152.0 394.6,152.0 394.7,152.0 394.8,152.0 394.9,152.0 395.0,152.0 395.1,152.0 395.2,152.0 395.3,152.0 395.4,152.0 395.5,152.0 395.6,152.0 395.7,152.0 395.8,152.0 395.9,152.0 396.0,152.0 396.1,152.0 396.2,152.0 396.3,152.0 396.4,152.0 396.5,152.0 396.6,152.0 396.7,152.0 396.8,152.0 396.9,152.0 397.0,152.0 397.1,152.0 397.2,152.0 397.3,152.0 397.4,152.0 397.5,152.0 397.6,152.0 397.7,152.0 397.8,152.0 397.9,152.0 398.0,152.0 398.1,152.0 398.2,152.0 398.3,152.0 398.4,152.0 398.5,152.0 398.6,152.0 398.7,152.0 398.8,152.0 398.9,152.0 399.0,152.0 399.1,152.0 399.2,152.0 399.3,152.0 399.4,152.0 399.5,152.0 399.6,152.0 399.7,152.0 399.8,152.0 399.9,152.0 400.0,152.0 400.1,152.0 400.2,152.0 400.3,152.0 400.4,152.0 400.5,152.0 400.6,152.0 400.7,152.0 400.8,152.0 400.9,152.0 401.0,152.0 401.1,152.0 401.2,152.0 401.3,152.0 401.4,152.0 401.5,152.0 401.6,152.0 401.7,152.0 401.8,152.0 401.9,152.0 402.0,152.0 402.1,152.0 402.2,152.0 402.3,152.0 402.4,152.0 402.5,152.0 402.6,152.0 402.7,152.0 402.8,152.0 402.9,152.0 403.0,152.0 403.1,152.0 403.2,152.0 403.3,152.0 403.4,152.0 403.5,152.0 403.6,152.0 403.7,152.0 403.8,152.0 403.9,152.0 404.0,152.0 404.1,152.0 404.2,152.0 404.3,152.0 404.4,152.0 404.5,152.0 404.6,152.0 404.7,152.0 404.8,152.0 404.9,152.0 405.0,152.0 405.1,152.0 405.2,152.0 405.3,152.0 405.4,152.0 405.5,152.0 405.6,152.0 405.7,152.0 405.8,152.0 405.9,152.0 406.0,152.0 406.1,152.0 406.2,152.0 406.3,152.0 406.4,152.0 406.5,152.0 406.6,152.0 406.7,152.0 406.8,152.0 406.9,152.0 407.0,152.0 407.1,152.0 407.2,152.0 407.3,152.0 407.4,152.0 407.5,152.0 407.6,152.0 407.7,152.0 407.8,152.0 407.9,152.0 408.0,152.0 408.1,152.0 408.2,152.0 408.3,152.0 408.4,152.0 408.5,152.0 408.6,152.0 408.7,152.0 408.8,152.0 408.9,152.0 409.0,152.0 409.1,152.0 409.2,152.0 409.3,152.0 409.4,152.0 409.5,152.0 409.6,152.0 409.7,152.0 409.8,152.0 409.9,152.0 410.0,152.0 410.1,152.0 410.2,152.0 410.3,152.0 410.4,152.0 410.5,152.0 410.6,152.0 410.7,152.0 410.8,152.0 410.9,152.0 411.0,152.0 411.1,152.0 411.2,152.0 411.3,152.0 411.4,152.0 411.5,152.0 411.6,152.0 411.7,152.0 411.8,152.0 411.9,152.0 412.0,152.0 412.1,152.0 412.2,152.0 412.3,152.0 412.4,152.0 412.5,152.0 412.6,152.0 412.7,152.0 412.8,152.0 412.9,152.0 413.0,152.0 413.1,152.0 413.2,152.0 413.3,152.0 413.4,152.0 413.5,152.0 413.6,152.0 413.7,152.0 413.8,152.0 413.9,152.0 414.0,152.0 414.1,152.0 414.2,152.0 414.3,152.0 414.4,152.0 414.5,152.0 414.6,152.0 414.7,152.0 414.8,152.0 414.9,152.0 415.0,152.0 415.1,152.0 415.2,152.0 415.3,152.0 415.4,152.0 415.5,152.0 415.6,152.0 415.7,152.0 415.8,152.0 415.9,152.0 416.0,152.0 416.1,152.0 416.2,152.0 416.3,152.0 416.4,152.0 416.5,152.0 416.6,152.0 416.7,152.0 416.8,152.0 416.9,152.0 417.0,152.0 417.1,152.0 417.2,152.0 417.3,152.0 417.4,152.0 417.5,152.0 417.6,152.0 417.7,152.0 417.8,152.0 417.9,152.0 418.0,152.0 418.1,152.0 418.2,152.0 418.3,152.0 418.4,152.0 418.5,152.0 418.6,152.0 418.7,152.0 418.8,152.0 418.9,152.0 419.0,152.0 419.1,152.0 419.2,152.0 419.3,152.0 419.4,152.0 419.5,152.0 419.6,152.0 419.7,152.0 419.8,152.0 419.9,152.0 420.0,152.0 420.1,152.0 420.2,152.0 420.3,152.0 420.4,152.0 420.5,152.0 420.6,152.0 420.7,152.0 420.8,152.0 420.9,152.0 421.0,152.0 421.1,152.0 421.2,152.0 421.3,152.0 421.4,152.0 421.5,152.0 421.6,152.0 421.7,152.0 421.8,152.0 421.9,152.0 422.0,152.0 422.1,152.0 422.2,152.0 422.3,152.0 422.4,152.0 422.5,152.0 422.6,152.0 422.7,152.0 422.8,152.0 422.9,152.0 423.0,152.0 423.1,152.0 423.2,152.0 423.3,152.0 423.4,152.0 423.5,152.0 423.6,152.0 423.7,152.0 423.8,152.0 423.9,152.0 424.0,152.0 424.1,152.0 424.2,152.0 424.3,152.0 424.4,152.0 424.6,152.0 424.7,152.0 424.8,152.0 424.9,152.0 425.0,152.0 425.1,152.0 425.2,152.0 425.3,152.0 425.4,152.0 425.5,152.0 425.6,152.0 425.7,152.0 425.8,152.0 425.9,152.0 426.0,152.0 426.1,152.0 426.2,152.0 426.3,152.0 426.4,152.0 426.5,152.0 426.6,152.0 426.7,152.0 426.8,152.0 426.9,152.0 427.0,152.0 427.1,152.0 427.2,152.0 427.3,152.0 427.4,152.0 427.5,152.0 427.6,152.0 427.7,152.0 427.8,152.0 427.9,152.0 428.0,152.0 428.1,152.0 428.2,152.0 428.3,152.0 428.4,152.0 428.5,152.0 428.6,152.0 428.7,152.0 428.8,152.0 428.9,152.0 429.0,152.0 429.1,152.0 429.2,152.0 429.3,152.0 429.4,152.0 429.5,152.0 429.6,152.0 429.7,152.0 429.8,152.0 429.9,152.0 430.0,152.0 430.1,152.0 430.2,152.0 430.3,152.0 430.4,152.0 430.5,152.0 430.6,152.0 430.7,152.0 430.8,152.0 430.9,152.0 431.0,152.0 431.1,152.0 431.2,152.0 431.3,152.0 431.4,152.0 431.5,152.0 431.6,152.0 431.7,152.0 431.8,152.0 431.9,152.0 432.0,152.0 432.1,152.0 432.2,152.0 432.3,152.0 432.4,152.0 432.5,152.0 432.6,152.0 432.7,152.0 432.8,152.0 432.9,152.0 433.0,152.0 433.1,152.0 433.2,152.0 433.3,152.0 433.4,152.0 433.5,152.0 433.6,152.0 433.7,152.0 433.8,152.0 433.9,152.0 434.0,152.0 434.1,152.0 434.2,152.0 434.3,152.0 434.4,152.0 434.5,152.0 434.6,152.0 434.7,152.0 434.8,152.0 434.9,152.0 435.0,152.0 435.1,152.0 435.2,152.0 435.3,152.0 435.4,152.0 435.5,152.0 435.6,152.0 435.7,152.0 435.8,152.0 435.9,152.0 436.0,152.0 436.1,152.0 436.2,152.0 436.3,152.0 436.4,152.0 436.5,152.0 436.6,152.0 436.7,152.0 436.8,152.0 436.9,152.0 437.0,152.0 437.1,152.0 437.2,152.0 437.3,152.0 437.4,152.0 437.5,152.0 437.6,152.0 437.7,152.0 437.8,152.0 437.9,152.0 438.0,152.0 438.1,152.0 438.2,152.0 438.3,152.0 438.4,152.0 438.5,152.0 438.6,152.0 438.7,152.0 438.8,152.0 438.9,152.0 439.0,152.0 439.1,152.0 439.2,152.0 439.3,152.0 439.4,152.0 439.5,152.0 439.6,152.0 439.7,152.0 439.8,152.0 439.9,152.0 440.0,152.0 440.1,152.0 440.2,152.0 440.3,152.0 440.4,152.0 440.5,152.0 440.6,152.0 440.7,152.0 440.8,152.0 440.9,152.0 441.0,152.0 441.1,152.0 441.2,152.0 441.3,152.0 441.4,152.0 441.5,152.0 441.6,152.0 441.7,152.0 441.8,152.0 441.9,152.0 442.0,152.0 442.1,152.0 442.2,152.0 442.3,152.0 442.4,152.0 442.5,152.0 442.6,152.0 442.7,152.0 442.8,152.0 442.9,152.0 443.0,152.0 443.1,152.0 443.2,152.0 443.3,152.0 443.4,152.0 443.5,152.0 443.6,152.0 443.7,152.0 443.8,152.0 443.9,152.0 444.0,152.0 444.1,152.0 444.2,152.0 444.3,152.0 444.4,152.0 444.5,152.0 444.6,152.0 444.7,152.0 444.8,152.0 444.9,152.0 445.0,152.0 445.1,152.0 445.2,152.0 445.3,152.0 445.4,152.0 445.5,152.0 445.6,152.0 445.7,152.0 445.8,152.0 445.9,152.0 446.0,152.0 446.1,152.0 446.2,152.0 446.3,152.0 446.4,152.0 446.5,152.0 446.6,152.0 446.7,152.0 446.8,152.0 446.9,152.0 447.0,152.0 447.1,152.0 447.2,152.0 447.3,152.0 447.4,152.0 447.5,152.0 447.6,152.0 447.7,152.0 447.8,152.0 447.9,152.0 448.0,152.0 448.1,152.0 448.2,152.0 448.3,152.0 448.4,152.0 448.5,152.0 448.6,152.0 448.7,152.0 448.8,152.0 448.9,152.0 449.0,152.0 449.1,152.0 449.2,152.0 449.3,152.0 449.4,152.0 449.5,152.0 449.6,152.0 449.7,152.0 449.8,152.0 449.9,152.0 450.0,152.0 450.1,152.0 450.2,152.0 450.3,152.0 450.4,152.0 450.5,152.0 450.6,152.0 450.7,152.0 450.8,152.0 450.9,152.0 451.0,152.0 451.1,152.0 451.2,152.0 451.3,152.0 451.4,152.0 451.5,152.0 451.6,152.0 451.7,152.0 451.8,152.0 451.9,152.0 452.0,152.0 452.1,152.0 452.2,152.0 452.3,152.0 452.4,152.0 452.5,152.0 452.6,152.0 452.7,152.0 452.8,152.0 452.9,152.0 453.0,152.0 453.1,152.0 453.2,152.0 453.3,152.0 453.4,152.0 453.5,152.0 453.6,152.0 453.7,152.0 453.8,152.0 453.9,152.0 454.0,152.0 454.1,152.0 454.2,152.0 454.3,152.0 454.4,152.0 454.5,152.0 454.6,152.0 454.7,152.0 454.8,152.0 454.9,152.0 455.0,152.0 455.1,152.0 455.2,152.0 455.3,152.0 455.4,152.0 455.5,152.0 455.6,152.0 455.7,152.0 455.8,152.0 455.9,152.0 456.0,152.0 456.1,152.0 456.2,152.0 456.3,152.0 456.4,152.0 456.5,152.0 456.6,152.0 456.7,152.0 456.8,152.0 456.9,152.0 457.0,152.0 457.1,152.0 457.2,152.0 457.3,152.0 457.4,152.0 457.5,152.0 457.6,152.0 457.7,152.0 457.8,152.0 457.9,152.0 458.0,152.0 458.1,152.0 458.2,152.0 458.3,152.0 458.4,152.0 458.5,152.0 458.6,152.0 458.7,152.0 458.8,152.0 458.9,152.0 459.0,152.0 459.1,152.0 459.2,152.0 459.3,152.0 459.4,152.0 459.5,152.0 459.6,152.0 459.7,152.0 459.8,152.0 459.9,152.0 460.0,152.0 460.1,152.0 460.2,152.0 460.3,152.0 460.4,152.0 460.5,152.0 460.6,152.0 460.7,152.0 460.8,152.0 460.9,152.0 461.0,152.0 461.1,152.0 461.2,152.0 461.3,152.0 461.4,152.0 461.5,152.0 461.6,152.0 461.7,152.0 461.8,152.0 461.9,152.0 462.0,152.0 462.1,152.0 462.2,152.0 462.3,152.0 462.4,152.0 462.5,152.0 462.6,152.0 462.7,152.0 462.8,152.0 462.9,152.0 463.0,152.0 463.1,152.0 463.2,152.0 463.3,152.0 463.4,152.0 463.5,152.0 463.6,152.0 463.7,152.0 463.8,152.0 463.9,152.0 464.0,152.0 464.1,152.0 464.2,152.0 464.3,152.0 464.4,152.0 464.5,152.0 464.6,152.0 464.7,152.0 464.8,152.0 464.9,152.0 465.0,152.0 465.1,152.0 465.2,152.0 465.3,152.0 465.4,152.0 465.5,152.0 465.6,152.0 465.7,152.0 465.8,152.0 465.9,152.0 466.0,152.0 466.1,152.0 466.2,152.0 466.3,152.0 466.4,152.0 466.5,152.0 466.6,152.0 466.7,152.0 466.8,152.0 466.9,152.0 467.0,152.0 467.1,152.0 467.2,152.0 467.3,152.0 467.4,152.0 467.5,152.0 467.6,152.0 467.7,152.0 467.8,152.0 467.9,152.0 468.0,152.0 468.1,152.0 468.2,152.0 468.3,152.0 468.4,152.0 468.5,152.0 468.6,152.0 468.7,152.0 468.8,152.0 468.9,152.0 469.0,152.0 469.1,152.0 469.2,152.0 469.3,152.0 469.4,152.0 469.5,152.0 469.6,152.0 469.7,152.0 469.8,152.0 469.9,152.0 470.0,152.0 470.1,152.0 470.2,152.0 470.3,152.0 470.4,152.0 470.5,152.0 470.6,152.0 470.7,152.0 470.8,152.0 470.9,152.0 471.0,152.0 471.1,152.0 471.2,152.0 471.3,152.0 471.4,152.0 471.5,152.0 471.6,152.0 471.7,152.0 471.8,152.0 471.9,152.0 472.0,152.0 472.1,152.0 472.2,152.0 472.3,152.0 472.4,152.0 472.5,152.0 472.6,152.0 472.7,152.0 472.8,152.0 472.9,152.0 473.0,152.0 473.1,152.0 473.2,152.0 473.3,152.0 473.4,152.0 473.5,152.0 473.6,152.0 473.7,152.0 473.8,152.0 473.9,152.0 474.0,152.0 474.1,152.0 474.2,152.0 474.3,152.0 474.4,152.0 474.5,152.0 474.6,152.0 474.7,152.0 474.8,152.0 474.9,152.0 475.0,152.0 475.1,152.0 475.2,152.0 475.3,152.0 475.4,152.0 475.5,152.0 475.6,152.0 475.7,152.0 475.8,152.0 475.9,152.0 476.0,152.0 476.1,152.0 476.2,152.0 476.3,152.0 476.4,152.0 476.5,152.0 476.6,152.0 476.7,152.0 476.8,152.0 476.9,152.0 477.0,152.0 477.1,152.0 477.2,152.0 477.3,152.0 477.4,152.0 477.5,152.0 477.6,152.0 477.7,152.0 477.8,152.0 477.9,152.0 478.0,152.0 478.1,152.0 478.2,152.0 478.3,152.0 478.4,152.0 478.5,152.0 478.6,152.0 478.7,152.0 478.8,152.0 478.9,152.0 479.0,152.0 479.1,152.0 479.2,152.0 479.3,152.0 479.4,152.0 479.5,152.0 479.6,152.0 479.7,152.0 479.8,152.0 479.9,152.0 480.0,152.0 480.1,152.0 480.2,152.0 480.3,152.0 480.4,152.0 480.5,152.0 480.6,152.0 480.7,152.0 480.8,152.0 480.9,152.0 481.0,152.0 481.1,152.0 481.2,152.0 481.3,152.0 481.4,152.0 481.5,152.0 481.6,152.0 481.7,152.0 481.8,152.0 481.9,152.0 482.0,152.0 482.1,152.0 482.2,152.0 482.3,152.0 482.4,152.0 482.5,152.0 482.6,152.0 482.7,152.0 482.8,152.0 482.9,152.0 483.0,152.0 483.1,152.0 483.2,152.0 483.3,152.0 483.4,152.0 483.5,152.0 483.6,152.0 483.7,152.0 483.8,152.0 483.9,152.0 484.0,152.0 484.1,152.0 484.2,152.0 484.3,152.0 484.4,152.0 484.5,152.0 484.6,152.0 484.7,152.0 484.8,152.0 484.9,152.0 485.0,152.0 485.1,152.0 485.2,152.0 485.3,152.0 485.4,152.0 485.5,152.0 485.6,152.0 485.7,152.0 485.8,152.0 485.9,152.0 486.0,152.0 486.1,152.0 486.2,152.0 486.3,152.0 486.4,152.0 486.5,152.0 486.6,152.0 486.7,152.0 486.8,152.0 486.9,152.0 487.0,152.0 487.1,152.0 487.2,152.0 487.3,152.0 487.4,152.0 487.5,152.0 487.6,152.0 487.7,152.0 487.8,152.0 487.9,152.0 488.0,152.0 488.1,152.0 488.2,152.0 488.3,152.0 488.4,152.0 488.5,152.0 488.6,152.0 488.7,152.0 488.8,152.0 488.9,152.0 489.0,152.0 489.1,152.0 489.2,152.0 489.3,152.0 489.4,152.0 489.5,152.0 489.6,152.0 489.7,152.0 489.8,152.0 489.9,152.0 490.0,152.0 490.1,152.0 490.2,152.0 490.3,152.0 490.4,152.0 490.5,152.0 490.6,152.0 490.7,152.0 490.8,152.0 490.9,152.0 491.0,152.0 491.1,152.0 491.2,152.0 491.3,152.0 491.4,152.0 491.5,152.0 491.6,152.0 491.7,152.0 491.8,152.0 491.9,152.0 492.0,152.0 492.1,152.0 492.2,152.0 492.3,152.0 492.4,152.0 492.5,152.0 492.6,152.0 492.7,152.0 492.9,152.0 493.0,152.0 493.1,152.0 493.2,152.0 493.3,152.0 493.4,152.0 493.5,152.0 493.6,152.0 493.7,152.0 493.8,152.0 493.9,152.0 494.0,152.0 494.1,152.0 494.2,152.0 494.3,152.0 494.4,152.0 494.5,152.0 494.6,152.0 494.7,152.0 494.8,152.0 494.9,152.0 495.0,152.0 495.1,152.0 495.2,152.0 495.3,152.0 495.4,152.0 495.5,152.0 495.6,152.0 495.7,152.0 495.8,152.0 495.9,152.0 496.0,152.0 496.1,152.0 496.2,152.0 496.3,152.0 496.4,152.0 496.5,152.0 496.6,152.0 496.7,152.0 496.8,152.0 496.9,152.0 497.0,152.0 497.1,152.0 497.2,152.0 497.3,152.0 497.4,152.0 497.5,152.0 497.6,152.0 497.7,152.0 497.8,152.0 497.9,152.0 498.0,152.0 498.1,152.0 498.2,152.0 498.3,152.0 498.4,152.0 498.5,152.0 498.6,152.0 498.7,152.0 498.8,152.0 498.9,152.0 499.0,152.0 499.1,152.0 499.2,152.0 499.3,152.0 499.4,152.0 499.5,152.0 499.6,152.0 499.7,152.0 499.8,152.0 499.9,152.0 500.0,152.0 500.1,152.0 500.2,152.0 500.3,152.0 500.4,152.0 500.5,152.0 500.6,152.0 500.7,152.0 500.8,152.0 500.9,152.0 501.0,152.0 501.1,152.0 501.2,152.0 501.3,152.0 501.4,152.0 501.5,152.0 501.6,152.0 501.7,152.0 501.8,152.0 501.9,152.0 502.0,152.0 502.1,152.0 502.2,152.0 502.3,152.0 502.4,152.0 502.5,152.0 502.6,152.0 502.7,152.0 502.8,152.0 502.9,152.0 503.0,152.0 503.1,152.0 503.2,152.0 503.3,152.0 503.4,152.0 503.5,152.0 503.6,152.0 503.7,152.0 503.8,152.0 503.9,152.0 504.0,152.0 504.1,152.0 504.2,152.0 504.3,152.0 504.4,152.0 504.5,152.0 504.6,152.0 504.7,152.0 504.8,152.0 504.9,152.0 505.0,152.0 505.1,152.0 505.2,152.0 505.3,152.0 505.4,152.0 505.5,152.0 505.6,152.0 505.7,152.0 505.8,152.0 505.9,152.0 506.0,152.0 506.1,152.0 506.2,152.0 506.3,152.0 506.4,152.0 506.5,152.0 506.6,152.0 506.7,152.0 506.8,152.0 506.9,152.0 507.0,152.0 507.1,152.0 507.2,152.0 507.3,152.0 507.4,152.0 507.5,152.0 507.6,152.0 507.7,152.0 507.8,152.0 507.9,152.0 508.0,152.0 508.1,152.0 508.2,152.0 508.3,152.0 508.4,152.0 508.5,152.0 508.6,152.0 508.7,152.0 508.8,152.0 508.9,152.0 509.0,152.0 509.1,152.0 509.2,152.0 509.3,152.0 509.4,152.0 509.5,152.0 509.6,152.0 509.7,152.0 509.8,152.0 509.9,152.0 510.0,152.0 510.1,152.0 510.2,152.0 510.3,152.0 510.4,152.0 510.5,152.0 510.6,152.0 510.7,152.0 510.8,152.0 510.9,152.0 511.0,152.0 511.1,152.0 511.2,152.0 511.3,152.0 511.4,152.0 511.5,152.0 511.6,152.0 511.7,152.0 511.8,152.0 511.9,152.0 512.0,152.0 512.1,152.0 512.2,152.0 512.3,152.0 512.4,152.0 512.5,152.0 512.6,152.0 512.7,152.0 512.8,152.0 512.9,152.0 513.0,152.0 513.1,152.0 513.2,152.0 513.3,152.0 513.4,152.0 513.5,152.0 513.6,152.0 513.7,152.0 513.8,152.0 513.9,152.0 514.0,152.0 514.1,152.0 514.2,152.0 514.3,152.0 514.4,152.0 514.5,152.0 514.6,152.0 514.7,152.0 514.8,152.0 514.9,152.0 515.0,152.0 515.1,152.0 515.2,152.0 515.3,152.0 515.4,152.0 515.5,152.0 515.6,152.0 515.7,152.0 515.8,152.0 515.9,152.0 516.0,152.0 516.1,152.0 516.2,152.0 516.3,152.0 516.4,152.0 516.5,152.0 516.6,152.0 516.7,152.0 516.8,152.0 516.9,152.0 517.0,152.0 517.1,152.0 517.2,152.0 517.3,152.0 517.4,152.0 517.5,152.0 517.6,152.0 517.7,152.0 517.8,152.0 517.9,152.0 518.0,152.0 518.1,152.0 518.2,152.0 518.3,152.0 518.4,152.0 518.5,152.0 518.6,152.0 518.7,152.0 518.8,152.0 518.9,152.0 519.0,152.0 519.1,152.0 519.2,152.0 519.3,152.0 519.4,152.0 519.5,152.0 519.6,152.0 519.7,152.0 519.8,152.0 519.9,152.0 520.0,152.0 520.1,152.0 520.2,152.0 520.3,152.0 520.4,152.0 520.5,152.0 520.6,152.0 520.7,152.0 520.8,152.0 520.9,152.0 521.0,152.0 521.1,152.0 521.2,152.0 521.3,152.0 521.4,152.0 521.5,152.0 521.6,152.0 521.7,152.0 521.8,152.0 521.9,152.0 522.0,152.0 522.1,152.0 522.2,152.0 522.3,152.0 522.4,152.0 522.5,152.0 522.6,152.0 522.7,152.0 522.8,152.0 522.9,152.0 523.0,152.0 523.1,152.0 523.2,152.0 523.3,152.0 523.4,152.0 523.5,152.0 523.6,152.0 523.7,152.0 523.8,152.0 523.9,152.0 524.0,152.0 524.1,152.0 524.2,152.0 524.3,152.0 524.4,152.0 524.5,152.0 524.6,152.0 524.7,152.0 524.8,152.0 524.9,152.0 525.0,152.0 525.1,152.0 525.2,152.0 525.3,152.0 525.4,152.0 525.5,152.0 525.6,152.0 525.7,152.0 525.8,152.0 525.9,152.0 526.0,152.0 526.1,152.0 526.2,152.0 526.3,152.0 526.4,152.0 526.5,152.0 526.6,152.0 526.7,152.0 526.8,152.0 526.9,152.0 527.0,152.0" fill="none" stroke="#4a90d9" stroke-width="1.2" stroke-linejoin="round"/>
  <text x="154.5" y="176" text-anchor="middle" font-size="8" fill="#6b7280">n / N</text>
  <text x="424.5" y="176" text-anchor="middle" font-size="8" fill="#6b7280">Normalized frequency (× Fₛ)</text>
</svg>
