<svg xmlns="http://www.w3.org/2000/svg" viewBox="0 0 800 230" style="font-family:system-ui,-apple-system,sans-serif">
  <line x1="42" y1="182.0" x2="377" y2="182.0" stroke="#e5e7eb" stroke-width="0.7"/>
  <text x="37" y="186.0" text-anchor="end" font-size="10" fill="#6b7280">0</text>
  <line x1="42" y1="95.0" x2="377" y2="95.0" stroke="#e5e7eb" stroke-width="0.7"/>
  <text x="37" y="99.0" text-anchor="end" font-size="10" fill="#6b7280">0.5</text>
  <line x1="42" y1="8.0" x2="377" y2="8.0" stroke="#e5e7eb" stroke-width="0.7"/>
  <text x="37" y="12.0" text-anchor="end" font-size="10" fill="#6b7280">1</text>
  <line x1="42.0" y1="8" x2="42.0" y2="182" stroke="#e5e7eb" stroke-width="0.7"/>
  <text x="42.0" y="198" text-anchor="middle" font-size="10" fill="#6b7280">0</text>
  <line x1="209.5" y1="8" x2="209.5" y2="182" stroke="#e5e7eb" stroke-width="0.7"/>
  <text x="209.5" y="198" text-anchor="middle" font-size="10" fill="#6b7280">0.5</text>
  <line x1="377.0" y1="8" x2="377.0" y2="182" stroke="#e5e7eb" stroke-width="0.7"/>
  <text x="377.0" y="198" text-anchor="middle" font-size="10" fill="#6b7280">1</text>
  <line x1="42" y1="8" x2="42" y2="182" stroke="#d1d5db" stroke-width="1"/>
  <line x1="42" y1="182" x2="377" y2="182" stroke="#d1d5db" stroke-width="1"/>
  <path d="M42.0,182.0 42.0,182.0 43.3,182.0 44.6,182.0 45.9,182.0 47.3,182.0 48.6,182.0 49.9,181.9 51.2,181.9 52.5,181.9 53.8,181.8 55.1,181.7 56.5,181.6 57.8,181.5 59.1,181.4 60.4,181.3 61.7,181.1 63.0,180.9 64.3,180.7 65.6,180.4 67.0,180.1 68.3,179.8 69.6,179.5 70.9,179.1 72.2,178.7 73.5,178.3 74.8,177.8 76.2,177.3 77.5,176.8 78.8,176.2 80.1,175.6 81.4,174.9 82.7,174.2 84.0,173.5 85.4,172.7 86.7,171.9 88.0,171.0 89.3,170.1 90.6,169.1 91.9,168.1 93.2,167.1 94.5,166.0 95.9,164.8 97.2,163.6 98.5,162.4 99.8,161.1 101.1,159.8 102.4,158.4 103.7,157.0 105.1,155.5 106.4,154.0 107.7,152.4 109.0,150.8 110.3,149.2 111.6,147.5 112.9,145.7 114.3,144.0 115.6,142.1 116.9,140.3 118.2,138.3 119.5,136.4 120.8,134.4 122.1,132.4 123.5,130.3 124.8,128.2 126.1,126.1 127.4,123.9 128.7,121.7 130.0,119.5 131.3,117.2 132.6,114.9 134.0,112.6 135.3,110.3 136.6,107.9 137.9,105.5 139.2,103.1 140.5,100.7 141.8,98.3 143.2,95.8 144.5,93.4 145.8,90.9 147.1,88.4 148.4,86.0 149.7,83.5 151.0,81.0 152.4,78.5 153.7,76.0 155.0,73.6 156.3,71.1 157.6,68.6 158.9,66.2 160.2,63.8 161.5,61.4 162.9,59.0 164.2,56.6 165.5,54.3 166.8,52.0 168.1,49.7 169.4,47.5 170.7,45.3 172.1,43.1 173.4,41.0 174.7,38.9 176.0,36.8 177.3,34.8 178.6,32.9 179.9,31.0 181.3,29.2 182.6,27.4 183.9,25.7 185.2,24.1 186.5,22.5 187.8,21.0 189.1,19.5 190.5,18.2 191.8,16.9 193.1,15.7 194.4,14.5 195.7,13.5 197.0,12.5 198.3,11.6 199.6,10.8 201.0,10.2 202.3,9.5 203.6,9.0 204.9,8.6 206.2,8.3 207.5,8.1 208.8,8.0 210.2,8.0 211.5,8.1 212.8,8.3 214.1,8.6 215.4,9.0 216.7,9.5 218.0,10.2 219.4,10.8 220.7,11.6 222.0,12.5 223.3,13.5 224.6,14.5 225.9,15.7 227.2,16.9 228.5,18.2 229.9,19.5 231.2,21.0 232.5,22.5 233.8,24.1 235.1,25.7 236.4,27.4 237.7,29.2 239.1,31.0 240.4,32.9 241.7,34.8 243.0,36.8 244.3,38.9 245.6,41.0 246.9,43.1 248.3,45.3 249.6,47.5 250.9,49.7 252.2,52.0 253.5,54.3 254.8,56.6 256.1,59.0 257.5,61.4 258.8,63.8 260.1,66.2 261.4,68.6 262.7,71.1 264.0,73.6 265.3,76.0 266.6,78.5 268.0,81.0 269.3,83.5 270.6,86.0 271.9,88.4 273.2,90.9 274.5,93.4 275.8,95.8 277.2,98.3 278.5,100.7 279.8,103.1 281.1,105.5 282.4,107.9 283.7,110.3 285.0,112.6 286.4,114.9 287.7,117.2 289.0,119.5 290.3,121.7 291.6,123.9 292.9,126.1 294.2,128.2 295.5,130.3 296.9,132.4 298.2,134.4 299.5,136.4 300.8,138.3 302.1,140.3 303.4,142.1 304.7,144.0 306.1,145.7 307.4,147.5 308.7,149.2 310.0,150.8 311.3,152.4 312.6,154.0 313.9,155.5 315.3,157.0 316.6,158.4 317.9,159.8 319.2,161.1 320.5,162.4 321.8,163.6 323.1,164.8 324.5,166.0 325.8,167.1 327.1,168.1 328.4,169.1 329.7,170.1 331.0,171.0 332.3,171.9 333.6,172.7 335.0,173.5 336.3,174.2 337.6,174.9 338.9,175.6 340.2,176.2 341.5,176.8 342.8,177.3 344.2,177.8 345.5,178.3 346.8,178.7 348.1,179.1 349.4,179.5 350.7,179.8 352.0,180.1 353.4,180.4 354.7,180.7 356.0,180.9 357.3,181.1 358.6,181.3 359.9,181.4 361.2,181.5 362.5,181.6 363.9,181.7 365.2,181.8 366.5,181.9 367.8,181.9 369.1,181.9 370.4,182.0 371.7,182.0 373.1,182.0 374.4,182.0 375.7,182.0 377.0,182.0 L377.0,182.0 Z" fill="#4a90d9" fill-opacity="0.06"/>
  <polyline points="42.0,182.0 43.3,182.0 44.6,182.0 45.9,182.0 47.3,182.0 48.6,182.0 49.9,181.9 51.2,181.9 52.5,181.9 53.8,181.8 55.1,181.7 56.5,181.6 57.8,181.5 59.1,181.4 60.4,181.3 61.7,181.1 63.0,180.9 64.3,180.7 65.6,180.4 67.0,180.1 68.3,179.8 69.6,179.5 70.9,179.1 72.2,178.7 73.5,178.3 74.8,177.8 76.2,177.3 77.5,176.8 78.8,176.2 80.1,175.6 81.4,174.9 82.7,174.2 84.0,173.5 85.4,172.7 86.7,171.9 88.0,171.0 89.3,170.1 90.6,169.1 91.9,168.1 93.2,167.1 94.5,166.0 95.9,164.8 97.2,163.6 98.5,162.4 99.8,161.1 101.1,159.8 102.4,158.4 103.7,157.0 105.1,155.5 106.4,154.0 107.7,152.4 109.0,150.8 110.3,149.2 111.6,147.5 112.9,145.7 114.3,144.0 115.6,142.1 116.9,140.3 118.2,138.3 119.5,136.4 120.8,134.4 122.1,132.4 123.5,130.3 124.8,128.2 126.1,126.1 127.4,123.9 128.7,121.7 130.0,119.5 131.3,117.2 132.6,114.9 134.0,112.6 135.3,110.3 136.6,107.9 137.9,105.5 139.2,103.1 140.5,100.7 141.8,98.3 143.2,95.8 144.5,93.4 145.8,90.9 147.1,88.4 148.4,86.0 149.7,83.5 151.0,81.0 152.4,78.5 153.7,76.0 155.0,73.6 156.3,71.1 157.6,68.6 158.9,66.2 160.2,63.8 161.5,61.4 162.9,59.0 164.2,56.6 165.5,54.3 166.8,52.0 168.1,49.7 169.4,47.5 170.7,45.3 172.1,43.1 173.4,41.0 174.7,38.9 176.0,36.8 177.3,34.8 178.6,32.9 179.9,31.0 181.3,29.2 182.6,27.4 183.9,25.7 185.2,24.1 186.5,22.5 187.8,21.0 189.1,19.5 190.5,18.2 191.8,16.9 193.1,15.7 194.4,14.5 195.7,13.5 197.0,12.5 198.3,11.6 199.6,10.8 201.0,10.2 202.3,9.5 203.6,9.0 204.9,8.6 206.2,8.3 207.5,8.1 208.8,8.0 210.2,8.0 211.5,8.1 212.8,8.3 214.1,8.6 215.4,9.0 216.7,9.5 218.0,10.2 219.4,10.8 220.7,11.6 222.0,12.5 223.3,13.5 224.6,14.5 225.9,15.7 227.2,16.9 228.5,18.2 229.9,19.5 231.2,21.0 232.5,22.5 233.8,24.1 235.1,25.7 236.4,27.4 237.7,29.2 239.1,31.0 240.4,32.9 241.7,34.8 243.0,36.8 244.3,38.9 245.6,41.0 246.9,43.1 248.3,45.3 249.6,47.5 250.9,49.7 252.2,52.0 253.5,54.3 254.8,56.6 256.1,59.0 257.5,61.4 258.8,63.8 260.1,66.2 261.4,68.6 262.7,71.1 264.0,73.6 265.3,76.0 266.6,78.5 268.0,81.0 269.3,83.5 270.6,86.0 271.9,88.4 273.2,90.9 274.5,93.4 275.8,95.8 277.2,98.3 278.5,100.7 279.8,103.1 281.1,105.5 282.4,107.9 283.7,110.3 285.0,112.6 286.4,114.9 287.7,117.2 289.0,119.5 290.3,121.7 291.6,123.9 292.9,126.1 294.2,128.2 295.5,130.3 296.9,132.4 298.2,134.4 299.5,136.4 300.8,138.3 302.1,140.3 303.4,142.1 304.7,144.0 306.1,145.7 307.4,147.5 308.7,149.2 310.0,150.8 311.3,152.4 312.6,154.0 313.9,155.5 315.3,157.0 316.6,158.4 317.9,159.8 319.2,161.1 320.5,162.4 321.8,163.6 323.1,164.8 324.5,166.0 325.8,167.1 327.1,168.1 328.4,169.1 329.7,170.1 331.0,171.0 332.3,171.9 333.6,172.7 335.0,173.5 336.3,174.2 337.6,174.9 338.9,175.6 340.2,176.2 341.5,176.8 342.8,177.3 344.2,177.8 345.5,178.3 346.8,178.7 348.1,179.1 349.4,179.5 350.7,179.8 352.0,180.1 353.4,180.4 354.7,180.7 356.0,180.9 357.3,181.1 358.6,181.3 359.9,181.4 361.2,181.5 362.5,181.6 363.9,181.7 365.2,181.8 366.5,181.9 367.8,181.9 369.1,181.9 370.4,182.0 371.7,182.0 373.1,182.0 374.4,182.0 375.7,182.0 377.0,182.0" fill="none" stroke="#4a90d9" stroke-width="1.5" stroke-linejoin="round"/>
  <line x1="450" y1="8.0" x2="785" y2="8.0" stroke="#e5e7eb" stroke-width="0.7"/>
  <text x="445" y="12.0" text-anchor="end" font-size="10" fill="#6b7280">0</text>
  <line x1="450" y1="66.0" x2="785" y2="66.0" stroke="#e5e7eb" stroke-width="0.7"/>
  <text x="445" y="70.0" text-anchor="end" font-size="10" fill="#6b7280">-40</text>
  <line x1="450" y1="124.0" x2="785" y2="124.0" stroke="#e5e7eb" stroke-width="0.7"/>
  <text x="445" y="128.0" text-anchor="end" font-size="10" fill="#6b7280">-80</text>
  <line x1="450" y1="182.0" x2="785" y2="182.0" stroke="#e5e7eb" stroke-width="0.7"/>
  <text x="445" y="186.0" text-anchor="end" font-size="10" fill="#6b7280">-120</text>
  <line x1="450.0" y1="8" x2="450.0" y2="182" stroke="#e5e7eb" stroke-width="0.7"/>
  <text x="450.0" y="198" text-anchor="middle" font-size="10" fill="#6b7280">0</text>
  <line x1="517.0" y1="8" x2="517.0" y2="182" stroke="#e5e7eb" stroke-width="0.7"/>
  <text x="517.0" y="198" text-anchor="middle" font-size="10" fill="#6b7280">0.1</text>
  <line x1="584.0" y1="8" x2="584.0" y2="182" stroke="#e5e7eb" stroke-width="0.7"/>
  <text x="584.0" y="198" text-anchor="middle" font-size="10" fill="#6b7280">0.2</text>
  <line x1="651.0" y1="8" x2="651.0" y2="182" stroke="#e5e7eb" stroke-width="0.7"/>
  <text x="651.0" y="198" text-anchor="middle" font-size="10" fill="#6b7280">0.3</text>
  <line x1="718.0" y1="8" x2="718.0" y2="182" stroke="#e5e7eb" stroke-width="0.7"/>
  <text x="718.0" y="198" text-anchor="middle" font-size="10" fill="#6b7280">0.4</text>
  <line x1="785.0" y1="8" x2="785.0" y2="182" stroke="#e5e7eb" stroke-width="0.7"/>
  <text x="785.0" y="198" text-anchor="middle" font-size="10" fill="#6b7280">0.5</text>
  <line x1="450" y1="8" x2="450" y2="182" stroke="#d1d5db" stroke-width="1"/>
  <line x1="450" y1="182" x2="785" y2="182" stroke="#d1d5db" stroke-width="1"/>
  <polyline points="450.0,8.0 450.2,8.0 450.3,8.1 450.5,8.2 450.7,8.4 450.8,8.6 451.0,8.8 451.1,9.1 451.3,9.5 451.5,9.9 451.6,10.3 451.8,10.8 452.0,11.3 452.1,11.9 452.3,12.6 452.5,13.3 452.6,14.0 452.8,14.8 452.9,15.7 453.1,16.6 453.3,17.6 453.4,18.7 453.6,19.8 453.8,21.0 453.9,22.2 454.1,23.6 454.3,25.0 454.4,26.5 454.6,28.0 454.7,29.7 454.9,31.5 455.1,33.4 455.2,35.4 455.4,37.6 455.6,39.8 455.7,42.3 455.9,44.9 456.1,47.8 456.2,50.8 456.4,54.2 456.5,57.9 456.7,62.0 456.9,66.6 457.0,72.0 457.2,78.4 457.4,86.2 457.5,96.8 457.7,113.2 457.9,160.8 458.0,125.2 458.2,106.2 458.3,96.4 458.5,90.1 458.7,85.6 458.8,82.4 459.0,79.9 459.2,78.0 459.3,76.7 459.5,75.7 459.7,75.1 459.8,74.8 460.0,74.7 460.1,74.9 460.3,75.3 460.5,76.0 460.6,76.9 460.8,78.0 461.0,79.4 461.1,81.0 461.3,82.8 461.5,85.0 461.6,87.5 461.8,90.3 461.9,93.6 462.1,97.5 462.3,102.1 462.4,107.6 462.6,114.7 462.8,124.2 462.9,138.9 463.1,175.6 463.3,156.6 463.4,134.7 463.6,123.7 463.7,116.7 463.9,111.6 464.1,107.7 464.2,104.8 464.4,102.4 464.6,100.6 464.7,99.3 464.9,98.2 465.1,97.5 465.2,97.1 465.4,96.9 465.5,97.0 465.7,97.4 465.9,97.9 466.0,98.7 466.2,99.8 466.4,101.1 466.5,102.6 466.7,104.5 466.9,106.7 467.0,109.3 467.2,112.3 467.3,115.8 467.5,120.1 467.7,125.3 467.8,131.8 468.0,140.7 468.2,154.3 468.3,182.0 468.5,178.9 468.7,153.7 468.8,141.8 469.0,134.2 469.1,128.7 469.3,124.6 469.5,121.4 469.6,118.8 469.8,116.8 470.0,115.2 470.1,114.0 470.3,113.1 470.5,112.5 470.6,112.1 470.8,112.0 470.9,112.2 471.1,112.6 471.3,113.2 471.4,114.1 471.6,115.2 471.8,116.6 471.9,118.3 472.1,120.4 472.3,122.7 472.4,125.6 472.6,128.9 472.7,133.0 472.9,137.9 473.1,144.2 473.2,152.6 473.4,165.2 473.6,182.0 473.7,182.0 473.9,168.4 474.1,155.6 474.2,147.5 474.4,141.8 474.5,137.4 474.7,134.0 474.9,131.2 475.0,129.0 475.2,127.3 475.4,126.0 475.5,124.9 475.7,124.2 475.9,123.7 476.0,123.5 476.2,123.6 476.3,123.9 476.5,124.4 476.7,125.2 476.8,126.2 477.0,127.5 477.2,129.1 477.3,131.0 477.5,133.2 477.7,135.9 477.8,139.1 478.0,143.0 478.1,147.7 478.3,153.7 478.5,161.7 478.6,173.6 478.8,182.0 479.0,182.0 479.1,180.8 479.3,166.9 479.5,158.4 479.6,152.3 479.8,147.7 479.9,144.2 480.1,141.3 480.3,139.0 480.4,137.1 480.6,135.7 480.8,134.6 480.9,133.7 481.1,133.2 481.3,132.9 481.4,132.9 481.6,133.1 481.7,133.5 481.9,134.2 482.1,135.1 482.2,136.4 482.4,137.8 482.6,139.7 482.7,141.8 482.9,144.4 483.1,147.5 483.2,151.2 483.4,155.8 483.5,161.6 483.7,169.2 483.9,180.3 484.0,182.0 484.2,182.0 484.4,182.0 484.5,176.7 484.7,167.6 484.9,161.3 485.0,156.5 485.2,152.8 485.3,149.8 485.5,147.4 485.7,145.4 485.8,143.9 486.0,142.7 486.2,141.8 486.3,141.2 486.5,140.8 486.7,140.7 486.8,140.9 487.0,141.2 487.1,141.8 487.3,142.7 487.5,143.8 487.6,145.3 487.8,147.0 488.0,149.1 488.1,151.6 488.3,154.6 488.5,158.2 488.6,162.6 488.8,168.1 488.9,175.4 489.1,182.0 489.3,182.0 489.4,182.0 489.6,182.0 489.8,182.0 489.9,175.7 490.1,169.1 490.3,164.1 490.4,160.2 490.6,157.1 490.7,154.6 490.9,152.6 491.1,151.0 491.2,149.7 491.4,148.8 491.6,148.1 491.7,147.7 491.9,147.5 492.1,147.6 492.2,147.9 492.4,148.5 492.6,149.3 492.7,150.3 492.9,151.7 493.0,153.3 493.2,155.4 493.4,157.8 493.5,160.7 493.7,164.2 493.9,168.4 494.0,173.8 494.2,180.8 494.4,182.0 494.5,182.0 494.7,182.0 494.8,182.0 495.0,182.0 495.2,182.0 495.3,176.1 495.5,170.9 495.7,166.9 495.8,163.7 496.0,161.1 496.2,159.0 496.3,157.3 496.5,155.9 496.6,154.9 496.8,154.2 497.0,153.7 497.1,153.5 497.3,153.5 497.5,153.8 497.6,154.3 497.8,155.0 498.0,156.1 498.1,157.4 498.3,159.0 498.4,160.9 498.6,163.2 498.8,166.0 498.9,169.4 499.1,173.6 499.3,178.7 499.4,182.0 499.6,182.0 499.8,182.0 499.9,182.0 500.1,182.0 500.2,182.0 500.4,182.0 500.6,182.0 500.7,177.0 500.9,172.8 501.1,169.5 501.2,166.8 501.4,164.7 501.6,162.9 501.7,161.5 501.9,160.4 502.0,159.6 502.2,159.1 502.4,158.8 502.5,158.8 502.7,159.0 502.9,159.5 503.0,160.2 503.2,161.2 503.4,162.4 503.5,164.0 503.7,165.8 503.8,168.1 504.0,170.8 504.2,174.1 504.3,178.1 504.5,182.0 504.7,182.0 504.8,182.0 505.0,182.0 505.2,182.0 505.3,182.0 505.5,182.0 505.6,182.0 505.8,182.0 506.0,182.0 506.1,178.3 506.3,174.8 506.5,172.1 506.6,169.8 506.8,168.0 507.0,166.6 507.1,165.4 507.3,164.6 507.4,164.0 507.6,163.7 507.8,163.6 507.9,163.8 508.1,164.2 508.3,164.9 508.4,165.8 508.6,167.0 508.8,168.5 508.9,170.3 509.1,172.5 509.2,175.2 509.4,178.4 509.6,182.0 509.7,182.0 509.9,182.0 510.1,182.0 510.2,182.0 510.4,182.0 510.6,182.0 510.7,182.0 510.9,182.0 511.0,182.0 511.2,182.0 511.4,182.0 511.5,179.7 511.7,176.9 511.9,174.6 512.0,172.7 512.2,171.2 512.4,170.0 512.5,169.1 512.7,168.5 512.8,168.1 513.0,168.0 513.2,168.2 513.3,168.5 513.5,169.1 513.7,170.0 513.8,171.2 514.0,172.6 514.2,174.4 514.3,176.5 514.5,179.1 514.6,182.0 514.8,182.0 515.0,182.0 515.1,182.0 515.3,182.0 515.5,182.0 515.6,182.0 515.8,182.0 516.0,182.0 516.1,182.0 516.3,182.0 516.4,182.0 516.6,182.0 516.8,182.0 516.9,181.3 517.1,179.0 517.3,177.0 517.4,175.4 517.6,174.2 517.8,173.3 517.9,172.6 518.1,172.2 518.2,172.1 518.4,172.2 518.6,172.5 518.7,173.1 518.9,173.9 519.1,175.0 519.2,176.4 519.4,178.1 519.6,180.2 519.7,182.0 519.9,182.0 520.0,182.0 520.2,182.0 520.4,182.0 520.5,182.0 520.7,182.0 520.9,182.0 521.0,182.0 521.2,182.0 521.4,182.0 521.5,182.0 521.7,182.0 521.8,182.0 522.0,182.0 522.2,182.0 522.3,182.0 522.5,181.0 522.7,179.4 522.8,178.1 523.0,177.2 523.2,176.5 523.3,176.0 523.5,175.8 523.6,175.9 523.8,176.2 524.0,176.7 524.1,177.5 524.3,178.5 524.5,179.9 524.6,181.6 524.8,182.0 525.0,182.0 525.1,182.0 525.3,182.0 525.4,182.0 525.6,182.0 525.8,182.0 525.9,182.0 526.1,182.0 526.3,182.0 526.4,182.0 526.6,182.0 526.8,182.0 526.9,182.0 527.1,182.0 527.2,182.0 527.4,182.0 527.6,182.0 527.7,182.0 527.9,182.0 528.1,181.8 528.2,180.8 528.4,180.0 528.6,179.5 528.7,179.3 528.9,179.3 529.0,179.6 529.2,180.1 529.4,180.8 529.5,181.8 529.7,182.0 529.9,182.0 530.0,182.0 530.2,182.0 530.4,182.0 530.5,182.0 530.7,182.0 530.8,182.0 531.0,182.0 531.2,182.0 531.3,182.0 531.5,182.0 531.7,182.0 531.8,182.0 532.0,182.0 532.2,182.0 532.3,182.0 532.5,182.0 532.6,182.0 532.8,182.0 533.0,182.0 533.1,182.0 533.3,182.0 533.5,182.0 533.6,182.0 533.8,182.0 534.0,182.0 534.1,182.0 534.3,182.0 534.4,182.0 534.6,182.0 534.8,182.0 534.9,182.0 535.1,182.0 535.3,182.0 535.4,182.0 535.6,182.0 535.8,182.0 535.9,182.0 536.1,182.0 536.2,182.0 536.4,182.0 536.6,182.0 536.7,182.0 536.9,182.0 537.1,182.0 537.2,182.0 537.4,182.0 537.6,182.0 537.7,182.0 537.9,182.0 538.0,182.0 538.2,182.0 538.4,182.0 538.5,182.0 538.7,182.0 538.9,182.0 539.0,182.0 539.2,182.0 539.4,182.0 539.5,182.0 539.7,182.0 539.8,182.0 540.0,182.0 540.2,182.0 540.3,182.0 540.5,182.0 540.7,182.0 540.8,182.0 541.0,182.0 541.2,182.0 541.3,182.0 541.5,182.0 541.6,182.0 541.8,182.0 542.0,182.0 542.1,182.0 542.3,182.0 542.5,182.0 542.6,182.0 542.8,182.0 543.0,182.0 543.1,182.0 543.3,182.0 543.4,182.0 543.6,182.0 543.8,182.0 543.9,182.0 544.1,182.0 544.3,182.0 544.4,182.0 544.6,182.0 544.8,182.0 544.9,182.0 545.1,182.0 545.2,182.0 545.4,182.0 545.6,182.0 545.7,182.0 545.9,182.0 546.1,182.0 546.2,182.0 546.4,182.0 546.6,182.0 546.7,182.0 546.9,182.0 547.0,182.0 547.2,182.0 547.4,182.0 547.5,182.0 547.7,182.0 547.9,182.0 548.0,182.0 548.2,182.0 548.4,182.0 548.5,182.0 548.7,182.0 548.8,182.0 549.0,182.0 549.2,182.0 549.3,182.0 549.5,182.0 549.7,182.0 549.8,182.0 550.0,182.0 550.2,182.0 550.3,182.0 550.5,182.0 550.6,182.0 550.8,182.0 551.0,182.0 551.1,182.0 551.3,182.0 551.5,182.0 551.6,182.0 551.8,182.0 552.0,182.0 552.1,182.0 552.3,182.0 552.4,182.0 552.6,182.0 552.8,182.0 552.9,182.0 553.1,182.0 553.3,182.0 553.4,182.0 553.6,182.0 553.8,182.0 553.9,182.0 554.1,182.0 554.2,182.0 554.4,182.0 554.6,182.0 554.7,182.0 554.9,182.0 555.1,182.0 555.2,182.0 555.4,182.0 555.6,182.0 555.7,182.0 555.9,182.0 556.0,182.0 556.2,182.0 556.4,182.0 556.5,182.0 556.7,182.0 556.9,182.0 557.0,182.0 557.2,182.0 557.4,182.0 557.5,182.0 557.7,182.0 557.8,182.0 558.0,182.0 558.2,182.0 558.3,182.0 558.5,182.0 558.7,182.0 558.8,182.0 559.0,182.0 559.2,182.0 559.3,182.0 559.5,182.0 559.6,182.0 559.8,182.0 560.0,182.0 560.1,182.0 560.3,182.0 560.5,182.0 560.6,182.0 560.8,182.0 561.0,182.0 561.1,182.0 561.3,182.0 561.4,182.0 561.6,182.0 561.8,182.0 561.9,182.0 562.1,182.0 562.3,182.0 562.4,182.0 562.6,182.0 562.8,182.0 562.9,182.0 563.1,182.0 563.2,182.0 563.4,182.0 563.6,182.0 563.7,182.0 563.9,182.0 564.1,182.0 564.2,182.0 564.4,182.0 564.6,182.0 564.7,182.0 564.9,182.0 565.0,182.0 565.2,182.0 565.4,182.0 565.5,182.0 565.7,182.0 565.9,182.0 566.0,182.0 566.2,182.0 566.4,182.0 566.5,182.0 566.7,182.0 566.8,182.0 567.0,182.0 567.2,182.0 567.3,182.0 567.5,182.0 567.7,182.0 567.8,182.0 568.0,182.0 568.2,182.0 568.3,182.0 568.5,182.0 568.6,182.0 568.8,182.0 569.0,182.0 569.1,182.0 569.3,182.0 569.5,182.0 569.6,182.0 569.8,182.0 570.0,182.0 570.1,182.0 570.3,182.0 570.4,182.0 570.6,182.0 570.8,182.0 570.9,182.0 571.1,182.0 571.3,182.0 571.4,182.0 571.6,182.0 571.8,182.0 571.9,182.0 572.1,182.0 572.2,182.0 572.4,182.0 572.6,182.0 572.7,182.0 572.9,182.0 573.1,182.0 573.2,182.0 573.4,182.0 573.6,182.0 573.7,182.0 573.9,182.0 574.0,182.0 574.2,182.0 574.4,182.0 574.5,182.0 574.7,182.0 574.9,182.0 575.0,182.0 575.2,182.0 575.4,182.0 575.5,182.0 575.7,182.0 575.9,182.0 576.0,182.0 576.2,182.0 576.3,182.0 576.5,182.0 576.7,182.0 576.8,182.0 577.0,182.0 577.2,182.0 577.3,182.0 577.5,182.0 577.7,182.0 577.8,182.0 578.0,182.0 578.1,182.0 578.3,182.0 578.5,182.0 578.6,182.0 578.8,182.0 579.0,182.0 579.1,182.0 579.3,182.0 579.5,182.0 579.6,182.0 579.8,182.0 579.9,182.0 580.1,182.0 580.3,182.0 580.4,182.0 580.6,182.0 580.8,182.0 580.9,182.0 581.1,182.0 581.3,182.0 581.4,182.0 581.6,182.0 581.7,182.0 581.9,182.0 582.1,182.0 582.2,182.0 582.4,182.0 582.6,182.0 582.7,182.0 582.9,182.0 583.1,182.0 583.2,182.0 583.4,182.0 583.5,182.0 583.7,182.0 583.9,182.0 584.0,182.0 584.2,182.0 584.4,182.0 584.5,182.0 584.7,182.0 584.9,182.0 585.0,182.0 585.2,182.0 585.3,182.0 585.5,182.0 585.7,182.0 585.8,182.0 586.0,182.0 586.2,182.0 586.3,182.0 586.5,182.0 586.7,182.0 586.8,182.0 587.0,182.0 587.1,182.0 587.3,182.0 587.5,182.0 587.6,182.0 587.8,182.0 588.0,182.0 588.1,182.0 588.3,182.0 588.5,182.0 588.6,182.0 588.8,182.0 588.9,182.0 589.1,182.0 589.3,182.0 589.4,182.0 589.6,182.0 589.8,182.0 589.9,182.0 590.1,182.0 590.3,182.0 590.4,182.0 590.6,182.0 590.7,182.0 590.9,182.0 591.1,182.0 591.2,182.0 591.4,182.0 591.6,182.0 591.7,182.0 591.9,182.0 592.1,182.0 592.2,182.0 592.4,182.0 592.5,182.0 592.7,182.0 592.9,182.0 593.0,182.0 593.2,182.0 593.4,182.0 593.5,182.0 593.7,182.0 593.9,182.0 594.0,182.0 594.2,182.0 594.3,182.0 594.5,182.0 594.7,182.0 594.8,182.0 595.0,182.0 595.2,182.0 595.3,182.0 595.5,182.0 595.7,182.0 595.8,182.0 596.0,182.0 596.1,182.0 596.3,182.0 596.5,182.0 596.6,182.0 596.8,182.0 597.0,182.0 597.1,182.0 597.3,182.0 597.5,182.0 597.6,182.0 597.8,182.0 597.9,182.0 598.1,182.0 598.3,182.0 598.4,182.0 598.6,182.0 598.8,182.0 598.9,182.0 599.1,182.0 599.3,182.0 599.4,182.0 599.6,182.0 599.7,182.0 599.9,182.0 600.1,182.0 600.2,182.0 600.4,182.0 600.6,182.0 600.7,182.0 600.9,182.0 601.1,182.0 601.2,182.0 601.4,182.0 601.5,182.0 601.7,182.0 601.9,182.0 602.0,182.0 602.2,182.0 602.4,182.0 602.5,182.0 602.7,182.0 602.9,182.0 603.0,182.0 603.2,182.0 603.3,182.0 603.5,182.0 603.7,182.0 603.8,182.0 604.0,182.0 604.2,182.0 604.3,182.0 604.5,182.0 604.7,182.0 604.8,182.0 605.0,182.0 605.1,182.0 605.3,182.0 605.5,182.0 605.6,182.0 605.8,182.0 606.0,182.0 606.1,182.0 606.3,182.0 606.5,182.0 606.6,182.0 606.8,182.0 606.9,182.0 607.1,182.0 607.3,182.0 607.4,182.0 607.6,182.0 607.8,182.0 607.9,182.0 608.1,182.0 608.3,182.0 608.4,182.0 608.6,182.0 608.7,182.0 608.9,182.0 609.1,182.0 609.2,182.0 609.4,182.0 609.6,182.0 609.7,182.0 609.9,182.0 610.1,182.0 610.2,182.0 610.4,182.0 610.5,182.0 610.7,182.0 610.9,182.0 611.0,182.0 611.2,182.0 611.4,182.0 611.5,182.0 611.7,182.0 611.9,182.0 612.0,182.0 612.2,182.0 612.3,182.0 612.5,182.0 612.7,182.0 612.8,182.0 613.0,182.0 613.2,182.0 613.3,182.0 613.5,182.0 613.7,182.0 613.8,182.0 614.0,182.0 614.1,182.0 614.3,182.0 614.5,182.0 614.6,182.0 614.8,182.0 615.0,182.0 615.1,182.0 615.3,182.0 615.5,182.0 615.6,182.0 615.8,182.0 615.9,182.0 616.1,182.0 616.3,182.0 616.4,182.0 616.6,182.0 616.8,182.0 616.9,182.0 617.1,182.0 617.3,182.0 617.4,182.0 617.6,182.0 617.7,182.0 617.9,182.0 618.1,182.0 618.2,182.0 618.4,182.0 618.6,182.0 618.7,182.0 618.9,182.0 619.1,182.0 619.2,182.0 619.4,182.0 619.5,182.0 619.7,182.0 619.9,182.0 620.0,182.0 620.2,182.0 620.4,182.0 620.5,182.0 620.7,182.0 620.9,182.0 621.0,182.0 621.2,182.0 621.3,182.0 621.5,182.0 621.7,182.0 621.8,182.0 622.0,182.0 622.2,182.0 622.3,182.0 622.5,182.0 622.7,182.0 622.8,182.0 623.0,182.0 623.1,182.0 623.3,182.0 623.5,182.0 623.6,182.0 623.8,182.0 624.0,182.0 624.1,182.0 624.3,182.0 624.5,182.0 624.6,182.0 624.8,182.0 624.9,182.0 625.1,182.0 625.3,182.0 625.4,182.0 625.6,182.0 625.8,182.0 625.9,182.0 626.1,182.0 626.3,182.0 626.4,182.0 626.6,182.0 626.7,182.0 626.9,182.0 627.1,182.0 627.2,182.0 627.4,182.0 627.6,182.0 627.7,182.0 627.9,182.0 628.1,182.0 628.2,182.0 628.4,182.0 628.5,182.0 628.7,182.0 628.9,182.0 629.0,182.0 629.2,182.0 629.4,182.0 629.5,182.0 629.7,182.0 629.9,182.0 630.0,182.0 630.2,182.0 630.3,182.0 630.5,182.0 630.7,182.0 630.8,182.0 631.0,182.0 631.2,182.0 631.3,182.0 631.5,182.0 631.7,182.0 631.8,182.0 632.0,182.0 632.1,182.0 632.3,182.0 632.5,182.0 632.6,182.0 632.8,182.0 633.0,182.0 633.1,182.0 633.3,182.0 633.5,182.0 633.6,182.0 633.8,182.0 633.9,182.0 634.1,182.0 634.3,182.0 634.4,182.0 634.6,182.0 634.8,182.0 634.9,182.0 635.1,182.0 635.3,182.0 635.4,182.0 635.6,182.0 635.7,182.0 635.9,182.0 636.1,182.0 636.2,182.0 636.4,182.0 636.6,182.0 636.7,182.0 636.9,182.0 637.1,182.0 637.2,182.0 637.4,182.0 637.5,182.0 637.7,182.0 637.9,182.0 638.0,182.0 638.2,182.0 638.4,182.0 638.5,182.0 638.7,182.0 638.9,182.0 639.0,182.0 639.2,182.0 639.3,182.0 639.5,182.0 639.7,182.0 639.8,182.0 640.0,182.0 640.2,182.0 640.3,182.0 640.5,182.0 640.7,182.0 640.8,182.0 641.0,182.0 641.1,182.0 641.3,182.0 641.5,182.0 641.6,182.0 641.8,182.0 642.0,182.0 642.1,182.0 642.3,182.0 642.5,182.0 642.6,182.0 642.8,182.0 642.9,182.0 643.1,182.0 643.3,182.0 643.4,182.0 643.6,182.0 643.8,182.0 643.9,182.0 644.1,182.0 644.3,182.0 644.4,182.0 644.6,182.0 644.7,182.0 644.9,182.0 645.1,182.0 645.2,182.0 645.4,182.0 645.6,182.0 645.7,182.0 645.9,182.0 646.1,182.0 646.2,182.0 646.4,182.0 646.5,182.0 646.7,182.0 646.9,182.0 647.0,182.0 647.2,182.0 647.4,182.0 647.5,182.0 647.7,182.0 647.9,182.0 648.0,182.0 648.2,182.0 648.3,182.0 648.5,182.0 648.7,182.0 648.8,182.0 649.0,182.0 649.2,182.0 649.3,182.0 649.5,182.0 649.7,182.0 649.8,182.0 650.0,182.0 650.1,182.0 650.3,182.0 650.5,182.0 650.6,182.0 650.8,182.0 651.0,182.0 651.1,182.0 651.3,182.0 651.5,182.0 651.6,182.0 651.8,182.0 651.9,182.0 652.1,182.0 652.3,182.0 652.4,182.0 652.6,182.0 652.8,182.0 652.9,182.0 653.1,182.0 653.3,182.0 653.4,182.0 653.6,182.0 653.7,182.0 653.9,182.0 654.1,182.0 654.2,182.0 654.4,182.0 654.6,182.0 654.7,182.0 654.9,182.0 655.1,182.0 655.2,182.0 655.4,182.0 655.5,182.0 655.7,182.0 655.9,182.0 656.0,182.0 656.2,182.0 656.4,182.0 656.5,182.0 656.7,182.0 656.9,182.0 657.0,182.0 657.2,182.0 657.3,182.0 657.5,182.0 657.7,182.0 657.8,182.0 658.0,182.0 658.2,182.0 658.3,182.0 658.5,182.0 658.7,182.0 658.8,182.0 659.0,182.0 659.1,182.0 659.3,182.0 659.5,182.0 659.6,182.0 659.8,182.0 660.0,182.0 660.1,182.0 660.3,182.0 660.5,182.0 660.6,182.0 660.8,182.0 661.0,182.0 661.1,182.0 661.3,182.0 661.4,182.0 661.6,182.0 661.8,182.0 661.9,182.0 662.1,182.0 662.3,182.0 662.4,182.0 662.6,182.0 662.8,182.0 662.9,182.0 663.1,182.0 663.2,182.0 663.4,182.0 663.6,182.0 663.7,182.0 663.9,182.0 664.1,182.0 664.2,182.0 664.4,182.0 664.6,182.0 664.7,182.0 664.9,182.0 665.0,182.0 665.2,182.0 665.4,182.0 665.5,182.0 665.7,182.0 665.9,182.0 666.0,182.0 666.2,182.0 666.4,182.0 666.5,182.0 666.7,182.0 666.8,182.0 667.0,182.0 667.2,182.0 667.3,182.0 667.5,182.0 667.7,182.0 667.8,182.0 668.0,182.0 668.2,182.0 668.3,182.0 668.5,182.0 668.6,182.0 668.8,182.0 669.0,182.0 669.1,182.0 669.3,182.0 669.5,182.0 669.6,182.0 669.8,182.0 670.0,182.0 670.1,182.0 670.3,182.0 670.4,182.0 670.6,182.0 670.8,182.0 670.9,182.0 671.1,182.0 671.3,182.0 671.4,182.0 671.6,182.0 671.8,182.0 671.9,182.0 672.1,182.0 672.2,182.0 672.4,182.0 672.6,182.0 672.7,182.0 672.9,182.0 673.1,182.0 673.2,182.0 673.4,182.0 673.6,182.0 673.7,182.0 673.9,182.0 674.0,182.0 674.2,182.0 674.4,182.0 674.5,182.0 674.7,182.0 674.9,182.0 675.0,182.0 675.2,182.0 675.4,182.0 675.5,182.0 675.7,182.0 675.8,182.0 676.0,182.0 676.2,182.0 676.3,182.0 676.5,182.0 676.7,182.0 676.8,182.0 677.0,182.0 677.2,182.0 677.3,182.0 677.5,182.0 677.6,182.0 677.8,182.0 678.0,182.0 678.1,182.0 678.3,182.0 678.5,182.0 678.6,182.0 678.8,182.0 679.0,182.0 679.1,182.0 679.3,182.0 679.4,182.0 679.6,182.0 679.8,182.0 679.9,182.0 680.1,182.0 680.3,182.0 680.4,182.0 680.6,182.0 680.8,182.0 680.9,182.0 681.1,182.0 681.2,182.0 681.4,182.0 681.6,182.0 681.7,182.0 681.9,182.0 682.1,182.0 682.2,182.0 682.4,182.0 682.6,182.0 682.7,182.0 682.9,182.0 683.0,182.0 683.2,182.0 683.4,182.0 683.5,182.0 683.7,182.0 683.9,182.0 684.0,182.0 684.2,182.0 684.4,182.0 684.5,182.0 684.7,182.0 684.8,182.0 685.0,182.0 685.2,182.0 685.3,182.0 685.5,182.0 685.7,182.0 685.8,182.0 686.0,182.0 686.2,182.0 686.3,182.0 686.5,182.0 686.6,182.0 686.8,182.0 687.0,182.0 687.1,182.0 687.3,182.0 687.5,182.0 687.6,182.0 687.8,182.0 688.0,182.0 688.1,182.0 688.3,182.0 688.4,182.0 688.6,182.0 688.8,182.0 688.9,182.0 689.1,182.0 689.3,182.0 689.4,182.0 689.6,182.0 689.8,182.0 689.9,182.0 690.1,182.0 690.2,182.0 690.4,182.0 690.6,182.0 690.7,182.0 690.9,182.0 691.1,182.0 691.2,182.0 691.4,182.0 691.6,182.0 691.7,182.0 691.9,182.0 692.0,182.0 692.2,182.0 692.4,182.0 692.5,182.0 692.7,182.0 692.9,182.0 693.0,182.0 693.2,182.0 693.4,182.0 693.5,182.0 693.7,182.0 693.8,182.0 694.0,182.0 694.2,182.0 694.3,182.0 694.5,182.0 694.7,182.0 694.8,182.0 695.0,182.0 695.2,182.0 695.3,182.0 695.5,182.0 695.6,182.0 695.8,182.0 696.0,182.0 696.1,182.0 696.3,182.0 696.5,182.0 696.6,182.0 696.8,182.0 697.0,182.0 697.1,182.0 697.3,182.0 697.4,182.0 697.6,182.0 697.8,182.0 697.9,182.0 698.1,182.0 698.3,182.0 698.4,182.0 698.6,182.0 698.8,182.0 698.9,182.0 699.1,182.0 699.2,182.0 699.4,182.0 699.6,182.0 699.7,182.0 699.9,182.0 700.1,182.0 700.2,182.0 700.4,182.0 700.6,182.0 700.7,182.0 700.9,182.0 701.0,182.0 701.2,182.0 701.4,182.0 701.5,182.0 701.7,182.0 701.9,182.0 702.0,182.0 702.2,182.0 702.4,182.0 702.5,182.0 702.7,182.0 702.8,182.0 703.0,182.0 703.2,182.0 703.3,182.0 703.5,182.0 703.7,182.0 703.8,182.0 704.0,182.0 704.2,182.0 704.3,182.0 704.5,182.0 704.6,182.0 704.8,182.0 705.0,182.0 705.1,182.0 705.3,182.0 705.5,182.0 705.6,182.0 705.8,182.0 706.0,182.0 706.1,182.0 706.3,182.0 706.4,182.0 706.6,182.0 706.8,182.0 706.9,182.0 707.1,182.0 707.3,182.0 707.4,182.0 707.6,182.0 707.8,182.0 707.9,182.0 708.1,182.0 708.2,182.0 708.4,182.0 708.6,182.0 708.7,182.0 708.9,182.0 709.1,182.0 709.2,182.0 709.4,182.0 709.6,182.0 709.7,182.0 709.9,182.0 710.0,182.0 710.2,182.0 710.4,182.0 710.5,182.0 710.7,182.0 710.9,182.0 711.0,182.0 711.2,182.0 711.4,182.0 711.5,182.0 711.7,182.0 711.8,182.0 712.0,182.0 712.2,182.0 712.3,182.0 712.5,182.0 712.7,182.0 712.8,182.0 713.0,182.0 713.2,182.0 713.3,182.0 713.5,182.0 713.6,182.0 713.8,182.0 714.0,182.0 714.1,182.0 714.3,182.0 714.5,182.0 714.6,182.0 714.8,182.0 715.0,182.0 715.1,182.0 715.3,182.0 715.4,182.0 715.6,182.0 715.8,182.0 715.9,182.0 716.1,182.0 716.3,182.0 716.4,182.0 716.6,182.0 716.8,182.0 716.9,182.0 717.1,182.0 717.2,182.0 717.4,182.0 717.6,182.0 717.7,182.0 717.9,182.0 718.1,182.0 718.2,182.0 718.4,182.0 718.6,182.0 718.7,182.0 718.9,182.0 719.0,182.0 719.2,182.0 719.4,182.0 719.5,182.0 719.7,182.0 719.9,182.0 720.0,182.0 720.2,182.0 720.4,182.0 720.5,182.0 720.7,182.0 720.8,182.0 721.0,182.0 721.2,182.0 721.3,182.0 721.5,182.0 721.7,182.0 721.8,182.0 722.0,182.0 722.2,182.0 722.3,182.0 722.5,182.0 722.6,182.0 722.8,182.0 723.0,182.0 723.1,182.0 723.3,182.0 723.5,182.0 723.6,182.0 723.8,182.0 724.0,182.0 724.1,182.0 724.3,182.0 724.4,182.0 724.6,182.0 724.8,182.0 724.9,182.0 725.1,182.0 725.3,182.0 725.4,182.0 725.6,182.0 725.8,182.0 725.9,182.0 726.1,182.0 726.2,182.0 726.4,182.0 726.6,182.0 726.7,182.0 726.9,182.0 727.1,182.0 727.2,182.0 727.4,182.0 727.6,182.0 727.7,182.0 727.9,182.0 728.0,182.0 728.2,182.0 728.4,182.0 728.5,182.0 728.7,182.0 728.9,182.0 729.0,182.0 729.2,182.0 729.4,182.0 729.5,182.0 729.7,182.0 729.8,182.0 730.0,182.0 730.2,182.0 730.3,182.0 730.5,182.0 730.7,182.0 730.8,182.0 731.0,182.0 731.2,182.0 731.3,182.0 731.5,182.0 731.6,182.0 731.8,182.0 732.0,182.0 732.1,182.0 732.3,182.0 732.5,182.0 732.6,182.0 732.8,182.0 733.0,182.0 733.1,182.0 733.3,182.0 733.4,182.0 733.6,182.0 733.8,182.0 733.9,182.0 734.1,182.0 734.3,182.0 734.4,182.0 734.6,182.0 734.8,182.0 734.9,182.0 735.1,182.0 735.2,182.0 735.4,182.0 735.6,182.0 735.7,182.0 735.9,182.0 736.1,182.0 736.2,182.0 736.4,182.0 736.6,182.0 736.7,182.0 736.9,182.0 737.0,182.0 737.2,182.0 737.4,182.0 737.5,182.0 737.7,182.0 737.9,182.0 738.0,182.0 738.2,182.0 738.4,182.0 738.5,182.0 738.7,182.0 738.8,182.0 739.0,182.0 739.2,182.0 739.3,182.0 739.5,182.0 739.7,182.0 739.8,182.0 740.0,182.0 740.2,182.0 740.3,182.0 740.5,182.0 740.6,182.0 740.8,182.0 741.0,182.0 741.1,182.0 741.3,182.0 741.5,182.0 741.6,182.0 741.8,182.0 742.0,182.0 742.1,182.0 742.3,182.0 742.4,182.0 742.6,182.0 742.8,182.0 742.9,182.0 743.1,182.0 743.3,182.0 743.4,182.0 743.6,182.0 743.8,182.0 743.9,182.0 744.1,182.0 744.3,182.0 744.4,182.0 744.6,182.0 744.7,182.0 744.9,182.0 745.1,182.0 745.2,182.0 745.4,182.0 745.6,182.0 745.7,182.0 745.9,182.0 746.1,182.0 746.2,182.0 746.4,182.0 746.5,182.0 746.7,182.0 746.9,182.0 747.0,182.0 747.2,182.0 747.4,182.0 747.5,182.0 747.7,182.0 747.9,182.0 748.0,182.0 748.2,182.0 748.3,182.0 748.5,182.0 748.7,182.0 748.8,182.0 749.0,182.0 749.2,182.0 749.3,182.0 749.5,182.0 749.7,182.0 749.8,182.0 750.0,182.0 750.1,182.0 750.3,182.0 750.5,182.0 750.6,182.0 750.8,182.0 751.0,182.0 751.1,182.0 751.3,182.0 751.5,182.0 751.6,182.0 751.8,182.0 751.9,182.0 752.1,182.0 752.3,182.0 752.4,182.0 752.6,182.0 752.8,182.0 752.9,182.0 753.1,182.0 753.3,182.0 753.4,182.0 753.6,182.0 753.7,182.0 753.9,182.0 754.1,182.0 754.2,182.0 754.4,182.0 754.6,182.0 754.7,182.0 754.9,182.0 755.1,182.0 755.2,182.0 755.4,182.0 755.5,182.0 755.7,182.0 755.9,182.0 756.0,182.0 756.2,182.0 756.4,182.0 756.5,182.0 756.7,182.0 756.9,182.0 757.0,182.0 757.2,182.0 757.3,182.0 757.5,182.0 757.7,182.0 757.8,182.0 758.0,182.0 758.2,182.0 758.3,182.0 758.5,182.0 758.7,182.0 758.8,182.0 759.0,182.0 759.1,182.0 759.3,182.0 759.5,182.0 759.6,182.0 759.8,182.0 760.0,182.0 760.1,182.0 760.3,182.0 760.5,182.0 760.6,182.0 760.8,182.0 760.9,182.0 761.1,182.0 761.3,182.0 761.4,182.0 761.6,182.0 761.8,182.0 761.9,182.0 762.1,182.0 762.3,182.0 762.4,182.0 762.6,182.0 762.7,182.0 762.9,182.0 763.1,182.0 763.2,182.0 763.4,182.0 763.6,182.0 763.7,182.0 763.9,182.0 764.1,182.0 764.2,182.0 764.4,182.0 764.5,182.0 764.7,182.0 764.9,182.0 765.0,182.0 765.2,182.0 765.4,182.0 765.5,182.0 765.7,182.0 765.9,182.0 766.0,182.0 766.2,182.0 766.3,182.0 766.5,182.0 766.7,182.0 766.8,182.0 767.0,182.0 767.2,182.0 767.3,182.0 767.5,182.0 767.7,182.0 767.8,182.0 768.0,182.0 768.1,182.0 768.3,182.0 768.5,182.0 768.6,182.0 768.8,182.0 769.0,182.0 769.1,182.0 769.3,182.0 769.5,182.0 769.6,182.0 769.8,182.0 769.9,182.0 770.1,182.0 770.3,182.0 770.4,182.0 770.6,182.0 770.8,182.0 770.9,182.0 771.1,182.0 771.3,182.0 771.4,182.0 771.6,182.0 771.7,182.0 771.9,182.0 772.1,182.0 772.2,182.0 772.4,182.0 772.6,182.0 772.7,182.0 772.9,182.0 773.1,182.0 773.2,182.0 773.4,182.0 773.5,182.0 773.7,182.0 773.9,182.0 774.0,182.0 774.2,182.0 774.4,182.0 774.5,182.0 774.7,182.0 774.9,182.0 775.0,182.0 775.2,182.0 775.3,182.0 775.5,182.0 775.7,182.0 775.8,182.0 776.0,182.0 776.2,182.0 776.3,182.0 776.5,182.0 776.7,182.0 776.8,182.0 777.0,182.0 777.1,182.0 777.3,182.0 777.5,182.0 777.6,182.0 777.8,182.0 778.0,182.0 778.1,182.0 778.3,182.0 778.5,182.0 778.6,182.0 778.8,182.0 778.9,182.0 779.1,182.0 779.3,182.0 779.4,182.0 779.6,182.0 779.8,182.0 779.9,182.0 780.1,182.0 780.3,182.0 780.4,182.0 780.6,182.0 780.7,182.0 780.9,182.0 781.1,182.0 781.2,182.0 781.4,182.0 781.6,182.0 781.7,182.0 781.9,182.0 782.1,182.0 782.2,182.0 782.4,182.0 782.5,182.0 782.7,182.0 782.9,182.0 783.0,182.0 783.2,182.0 783.4,182.0 783.5,182.0 783.7,182.0 783.9,182.0 784.0,182.0 784.2,182.0 784.3,182.0 784.5,182.0 784.7,182.0 784.8,182.0 785.0,182.0" fill="none" stroke="#4a90d9" stroke-width="1.5" stroke-linejoin="round"/>
  <text x="209.5" y="214" text-anchor="middle" font-size="11" fill="#6b7280">n / N</text>
  <text x="617.5" y="214" text-anchor="middle" font-size="11" fill="#6b7280">Normalized frequency (× Fₛ)</text>
</svg>
