<svg xmlns="http://www.w3.org/2000/svg" viewBox="0 0 800 230" style="font-family:system-ui,-apple-system,sans-serif">
  <line x1="42" y1="182.0" x2="377" y2="182.0" stroke="#e5e7eb" stroke-width="0.7"/>
  <text x="37" y="186.0" text-anchor="end" font-size="10" fill="#6b7280">0</text>
  <line x1="42" y1="95.0" x2="377" y2="95.0" stroke="#e5e7eb" stroke-width="0.7"/>
  <text x="37" y="99.0" text-anchor="end" font-size="10" fill="#6b7280">0.5</text>
  <line x1="42" y1="8.0" x2="377" y2="8.0" stroke="#e5e7eb" stroke-width="0.7"/>
  <text x="37" y="12.0" text-anchor="end" font-size="10" fill="#6b7280">1</text>
  <line x1="42.0" y1="8" x2="42.0" y2="182" stroke="#e5e7eb" stroke-width="0.7"/>
  <text x="42.0" y="198" text-anchor="middle" font-size="10" fill="#6b7280">0</text>
  <line x1="209.5" y1="8" x2="209.5" y2="182" stroke="#e5e7eb" stroke-width="0.7"/>
  <text x="209.5" y="198" text-anchor="middle" font-size="10" fill="#6b7280">0.5</text>
  <line x1="377.0" y1="8" x2="377.0" y2="182" stroke="#e5e7eb" stroke-width="0.7"/>
  <text x="377.0" y="198" text-anchor="middle" font-size="10" fill="#6b7280">1</text>
  <line x1="42" y1="8" x2="42" y2="182" stroke="#d1d5db" stroke-width="1"/>
  <line x1="42" y1="182" x2="377" y2="182" stroke="#d1d5db" stroke-width="1"/>
  <path d="M42.0,182.0 42.0,164.6 43.3,164.4 44.6,164.1 45.9,163.8 47.3,163.6 48.6,163.3 49.9,163.0 51.2,162.7 52.5,162.5 53.8,162.2 55.1,161.9 56.5,161.6 57.8,161.3 59.1,160.9 60.4,160.6 61.7,160.3 63.0,159.9 64.3,159.6 65.6,159.2 67.0,158.9 68.3,158.5 69.6,158.1 70.9,157.7 72.2,157.3 73.5,156.9 74.8,156.5 76.2,156.0 77.5,155.6 78.8,155.2 80.1,154.7 81.4,154.2 82.7,153.7 84.0,153.2 85.4,152.7 86.7,152.2 88.0,151.7 89.3,151.1 90.6,150.6 91.9,150.0 93.2,149.4 94.5,148.8 95.9,148.2 97.2,147.5 98.5,146.9 99.8,146.2 101.1,145.5 102.4,144.8 103.7,144.1 105.1,143.3 106.4,142.6 107.7,141.8 109.0,141.0 110.3,140.1 111.6,139.3 112.9,138.4 114.3,137.5 115.6,136.6 116.9,135.6 118.2,134.6 119.5,133.6 120.8,132.6 122.1,131.5 123.5,130.4 124.8,129.3 126.1,128.2 127.4,127.0 128.7,125.8 130.0,124.5 131.3,123.2 132.6,121.9 134.0,120.5 135.3,119.1 136.6,117.7 137.9,116.2 139.2,114.7 140.5,113.1 141.8,111.5 143.2,109.9 144.5,108.2 145.8,106.4 147.1,104.6 148.4,102.8 149.7,100.9 151.0,99.0 152.4,97.0 153.7,95.0 155.0,92.9 156.3,90.8 157.6,88.6 158.9,86.4 160.2,84.2 161.5,81.9 162.9,79.5 164.2,77.1 165.5,74.7 166.8,72.2 168.1,69.7 169.4,67.1 170.7,64.6 172.1,62.0 173.4,59.4 174.7,56.7 176.0,54.1 177.3,51.4 178.6,48.7 179.9,46.1 181.3,43.5 182.6,40.8 183.9,38.3 185.2,35.7 186.5,33.2 187.8,30.8 189.1,28.4 190.5,26.1 191.8,23.9 193.1,21.9 194.4,19.9 195.7,18.0 197.0,16.3 198.3,14.7 199.6,13.3 201.0,12.0 202.3,10.9 203.6,9.9 204.9,9.2 206.2,8.6 207.5,8.2 208.8,8.0 210.2,8.0 211.5,8.2 212.8,8.6 214.1,9.2 215.4,9.9 216.7,10.9 218.0,12.0 219.4,13.3 220.7,14.7 222.0,16.3 223.3,18.0 224.6,19.9 225.9,21.9 227.2,23.9 228.5,26.1 229.9,28.4 231.2,30.8 232.5,33.2 233.8,35.7 235.1,38.3 236.4,40.8 237.7,43.5 239.1,46.1 240.4,48.7 241.7,51.4 243.0,54.1 244.3,56.7 245.6,59.4 246.9,62.0 248.3,64.6 249.6,67.1 250.9,69.7 252.2,72.2 253.5,74.7 254.8,77.1 256.1,79.5 257.5,81.9 258.8,84.2 260.1,86.4 261.4,88.6 262.7,90.8 264.0,92.9 265.3,95.0 266.6,97.0 268.0,99.0 269.3,100.9 270.6,102.8 271.9,104.6 273.2,106.4 274.5,108.2 275.8,109.9 277.2,111.5 278.5,113.1 279.8,114.7 281.1,116.2 282.4,117.7 283.7,119.1 285.0,120.5 286.4,121.9 287.7,123.2 289.0,124.5 290.3,125.8 291.6,127.0 292.9,128.2 294.2,129.3 295.5,130.4 296.9,131.5 298.2,132.6 299.5,133.6 300.8,134.6 302.1,135.6 303.4,136.6 304.7,137.5 306.1,138.4 307.4,139.3 308.7,140.1 310.0,141.0 311.3,141.8 312.6,142.6 313.9,143.3 315.3,144.1 316.6,144.8 317.9,145.5 319.2,146.2 320.5,146.9 321.8,147.5 323.1,148.2 324.5,148.8 325.8,149.4 327.1,150.0 328.4,150.6 329.7,151.1 331.0,151.7 332.3,152.2 333.6,152.7 335.0,153.2 336.3,153.7 337.6,154.2 338.9,154.7 340.2,155.2 341.5,155.6 342.8,156.0 344.2,156.5 345.5,156.9 346.8,157.3 348.1,157.7 349.4,158.1 350.7,158.5 352.0,158.9 353.4,159.2 354.7,159.6 356.0,159.9 357.3,160.3 358.6,160.6 359.9,160.9 361.2,161.3 362.5,161.6 363.9,161.9 365.2,162.2 366.5,162.5 367.8,162.7 369.1,163.0 370.4,163.3 371.7,163.6 373.1,163.8 374.4,164.1 375.7,164.4 377.0,164.6 L377.0,182.0 Z" fill="#4a90d9" fill-opacity="0.06"/>
  <polyline points="42.0,164.6 43.3,164.4 44.6,164.1 45.9,163.8 47.3,163.6 48.6,163.3 49.9,163.0 51.2,162.7 52.5,162.5 53.8,162.2 55.1,161.9 56.5,161.6 57.8,161.3 59.1,160.9 60.4,160.6 61.7,160.3 63.0,159.9 64.3,159.6 65.6,159.2 67.0,158.9 68.3,158.5 69.6,158.1 70.9,157.7 72.2,157.3 73.5,156.9 74.8,156.5 76.2,156.0 77.5,155.6 78.8,155.2 80.1,154.7 81.4,154.2 82.7,153.7 84.0,153.2 85.4,152.7 86.7,152.2 88.0,151.7 89.3,151.1 90.6,150.6 91.9,150.0 93.2,149.4 94.5,148.8 95.9,148.2 97.2,147.5 98.5,146.9 99.8,146.2 101.1,145.5 102.4,144.8 103.7,144.1 105.1,143.3 106.4,142.6 107.7,141.8 109.0,141.0 110.3,140.1 111.6,139.3 112.9,138.4 114.3,137.5 115.6,136.6 116.9,135.6 118.2,134.6 119.5,133.6 120.8,132.6 122.1,131.5 123.5,130.4 124.8,129.3 126.1,128.2 127.4,127.0 128.7,125.8 130.0,124.5 131.3,123.2 132.6,121.9 134.0,120.5 135.3,119.1 136.6,117.7 137.9,116.2 139.2,114.7 140.5,113.1 141.8,111.5 143.2,109.9 144.5,108.2 145.8,106.4 147.1,104.6 148.4,102.8 149.7,100.9 151.0,99.0 152.4,97.0 153.7,95.0 155.0,92.9 156.3,90.8 157.6,88.6 158.9,86.4 160.2,84.2 161.5,81.9 162.9,79.5 164.2,77.1 165.5,74.7 166.8,72.2 168.1,69.7 169.4,67.1 170.7,64.6 172.1,62.0 173.4,59.4 174.7,56.7 176.0,54.1 177.3,51.4 178.6,48.7 179.9,46.1 181.3,43.5 182.6,40.8 183.9,38.3 185.2,35.7 186.5,33.2 187.8,30.8 189.1,28.4 190.5,26.1 191.8,23.9 193.1,21.9 194.4,19.9 195.7,18.0 197.0,16.3 198.3,14.7 199.6,13.3 201.0,12.0 202.3,10.9 203.6,9.9 204.9,9.2 206.2,8.6 207.5,8.2 208.8,8.0 210.2,8.0 211.5,8.2 212.8,8.6 214.1,9.2 215.4,9.9 216.7,10.9 218.0,12.0 219.4,13.3 220.7,14.7 222.0,16.3 223.3,18.0 224.6,19.9 225.9,21.9 227.2,23.9 228.5,26.1 229.9,28.4 231.2,30.8 232.5,33.2 233.8,35.7 235.1,38.3 236.4,40.8 237.7,43.5 239.1,46.1 240.4,48.7 241.7,51.4 243.0,54.1 244.3,56.7 245.6,59.4 246.9,62.0 248.3,64.6 249.6,67.1 250.9,69.7 252.2,72.2 253.5,74.7 254.8,77.1 256.1,79.5 257.5,81.9 258.8,84.2 260.1,86.4 261.4,88.6 262.7,90.8 264.0,92.9 265.3,95.0 266.6,97.0 268.0,99.0 269.3,100.9 270.6,102.8 271.9,104.6 273.2,106.4 274.5,108.2 275.8,109.9 277.2,111.5 278.5,113.1 279.8,114.7 281.1,116.2 282.4,117.7 283.7,119.1 285.0,120.5 286.4,121.9 287.7,123.2 289.0,124.5 290.3,125.8 291.6,127.0 292.9,128.2 294.2,129.3 295.5,130.4 296.9,131.5 298.2,132.6 299.5,133.6 300.8,134.6 302.1,135.6 303.4,136.6 304.7,137.5 306.1,138.4 307.4,139.3 308.7,140.1 310.0,141.0 311.3,141.8 312.6,142.6 313.9,143.3 315.3,144.1 316.6,144.8 317.9,145.5 319.2,146.2 320.5,146.9 321.8,147.5 323.1,148.2 324.5,148.8 325.8,149.4 327.1,150.0 328.4,150.6 329.7,151.1 331.0,151.7 332.3,152.2 333.6,152.7 335.0,153.2 336.3,153.7 337.6,154.2 338.9,154.7 340.2,155.2 341.5,155.6 342.8,156.0 344.2,156.5 345.5,156.9 346.8,157.3 348.1,157.7 349.4,158.1 350.7,158.5 352.0,158.9 353.4,159.2 354.7,159.6 356.0,159.9 357.3,160.3 358.6,160.6 359.9,160.9 361.2,161.3 362.5,161.6 363.9,161.9 365.2,162.2 366.5,162.5 367.8,162.7 369.1,163.0 370.4,163.3 371.7,163.6 373.1,163.8 374.4,164.1 375.7,164.4 377.0,164.6" fill="none" stroke="#4a90d9" stroke-width="1.5" stroke-linejoin="round"/>
  <line x1="450" y1="8.0" x2="785" y2="8.0" stroke="#e5e7eb" stroke-width="0.7"/>
  <text x="445" y="12.0" text-anchor="end" font-size="10" fill="#6b7280">0</text>
  <line x1="450" y1="66.0" x2="785" y2="66.0" stroke="#e5e7eb" stroke-width="0.7"/>
  <text x="445" y="70.0" text-anchor="end" font-size="10" fill="#6b7280">-40</text>
  <line x1="450" y1="124.0" x2="785" y2="124.0" stroke="#e5e7eb" stroke-width="0.7"/>
  <text x="445" y="128.0" text-anchor="end" font-size="10" fill="#6b7280">-80</text>
  <line x1="450" y1="182.0" x2="785" y2="182.0" stroke="#e5e7eb" stroke-width="0.7"/>
  <text x="445" y="186.0" text-anchor="end" font-size="10" fill="#6b7280">-120</text>
  <line x1="450.0" y1="8" x2="450.0" y2="182" stroke="#e5e7eb" stroke-width="0.7"/>
  <text x="450.0" y="198" text-anchor="middle" font-size="10" fill="#6b7280">0</text>
  <line x1="517.0" y1="8" x2="517.0" y2="182" stroke="#e5e7eb" stroke-width="0.7"/>
  <text x="517.0" y="198" text-anchor="middle" font-size="10" fill="#6b7280">0.1</text>
  <line x1="584.0" y1="8" x2="584.0" y2="182" stroke="#e5e7eb" stroke-width="0.7"/>
  <text x="584.0" y="198" text-anchor="middle" font-size="10" fill="#6b7280">0.2</text>
  <line x1="651.0" y1="8" x2="651.0" y2="182" stroke="#e5e7eb" stroke-width="0.7"/>
  <text x="651.0" y="198" text-anchor="middle" font-size="10" fill="#6b7280">0.3</text>
  <line x1="718.0" y1="8" x2="718.0" y2="182" stroke="#e5e7eb" stroke-width="0.7"/>
  <text x="718.0" y="198" text-anchor="middle" font-size="10" fill="#6b7280">0.4</text>
  <line x1="785.0" y1="8" x2="785.0" y2="182" stroke="#e5e7eb" stroke-width="0.7"/>
  <text x="785.0" y="198" text-anchor="middle" font-size="10" fill="#6b7280">0.5</text>
  <line x1="450" y1="8" x2="450" y2="182" stroke="#d1d5db" stroke-width="1"/>
  <line x1="450" y1="182" x2="785" y2="182" stroke="#d1d5db" stroke-width="1"/>
  <polyline points="450.0,8.0 450.2,8.0 450.3,8.2 450.5,8.3 450.7,8.6 450.8,8.9 451.0,9.4 451.1,9.8 451.3,10.4 451.5,11.1 451.6,11.8 451.8,12.6 452.0,13.4 452.1,14.3 452.3,15.3 452.5,16.4 452.6,17.5 452.8,18.7 452.9,19.9 453.1,21.1 453.3,22.4 453.4,23.6 453.6,24.8 453.8,26.0 453.9,27.1 454.1,28.1 454.3,29.1 454.4,29.9 454.6,30.5 454.7,31.1 454.9,31.5 455.1,31.9 455.2,32.2 455.4,32.4 455.6,32.6 455.7,32.8 455.9,33.0 456.1,33.3 456.2,33.7 456.4,34.1 456.5,34.6 456.7,35.2 456.9,36.0 457.0,36.8 457.2,37.8 457.4,39.0 457.5,40.3 457.7,41.9 457.9,43.6 458.0,45.5 458.2,47.6 458.3,49.9 458.5,52.5 458.7,55.3 458.8,58.3 459.0,61.3 459.2,64.1 459.3,66.4 459.5,67.8 459.7,68.0 459.8,67.1 460.0,65.5 460.1,63.5 460.3,61.4 460.5,59.5 460.6,57.8 460.8,56.3 461.0,55.1 461.1,54.1 461.3,53.5 461.5,53.0 461.6,52.9 461.8,53.0 461.9,53.4 462.1,54.1 462.3,55.1 462.4,56.5 462.6,58.3 462.8,60.7 462.9,63.8 463.1,68.0 463.3,74.4 463.4,87.0 463.6,93.8 463.7,78.4 463.9,72.5 464.1,69.3 464.2,67.4 464.4,66.5 464.6,66.4 464.7,66.9 464.9,68.2 465.1,70.4 465.2,74.0 465.4,80.0 465.5,93.9 465.7,92.5 465.9,79.1 466.0,72.9 466.2,69.1 466.4,66.5 466.5,64.7 466.7,63.6 466.9,62.9 467.0,62.7 467.2,62.9 467.3,63.6 467.5,64.7 467.7,66.4 467.8,68.9 468.0,72.4 468.2,77.9 468.3,88.2 468.5,105.1 468.7,83.3 468.8,76.2 469.0,72.1 469.1,69.6 469.3,67.9 469.5,66.9 469.6,66.5 469.8,66.7 470.0,67.3 470.1,68.5 470.3,70.5 470.5,73.3 470.6,77.6 470.8,85.0 470.9,107.4 471.1,90.2 471.3,80.2 471.4,75.1 471.6,71.9 471.8,69.7 471.9,68.3 472.1,67.5 472.3,67.2 472.4,67.4 472.6,68.1 472.7,69.3 472.9,71.1 473.1,73.8 473.2,77.9 473.4,84.5 473.6,100.7 473.7,94.8 473.9,82.9 474.1,77.3 474.2,73.8 474.4,71.6 474.5,70.1 474.7,69.2 474.9,68.9 475.0,69.1 475.2,69.8 475.4,71.0 475.5,72.9 475.7,75.7 475.9,79.9 476.0,87.0 476.2,106.7 476.3,93.9 476.5,83.4 476.7,78.1 476.8,74.8 477.0,72.6 477.2,71.2 477.3,70.3 477.5,70.0 477.7,70.2 477.8,70.9 478.0,72.1 478.1,74.0 478.3,76.8 478.5,81.0 478.6,88.1 478.8,107.5 479.0,95.2 479.1,84.6 479.3,79.3 479.5,76.0 479.6,73.8 479.8,72.3 479.9,71.5 480.1,71.2 480.3,71.4 480.4,72.1 480.6,73.3 480.8,75.2 480.9,78.1 481.1,82.3 481.3,89.6 481.4,110.3 481.6,95.7 481.7,85.4 481.9,80.2 482.1,76.9 482.2,74.8 482.4,73.3 482.6,72.5 482.7,72.2 482.9,72.4 483.1,73.1 483.2,74.4 483.4,76.3 483.5,79.1 483.7,83.4 483.9,90.7 484.0,112.1 484.2,96.5 484.4,86.3 484.5,81.1 484.7,77.9 484.9,75.7 485.0,74.3 485.2,73.5 485.3,73.2 485.5,73.4 485.7,74.1 485.8,75.3 486.0,77.3 486.2,80.1 486.3,84.4 486.5,91.8 486.7,114.1 486.8,97.1 487.0,87.1 487.1,82.0 487.3,78.7 487.5,76.6 487.6,75.2 487.8,74.4 488.0,74.1 488.1,74.3 488.3,75.0 488.5,76.2 488.6,78.2 488.8,81.0 488.9,85.4 489.1,92.8 489.3,115.8 489.4,97.8 489.6,87.9 489.8,82.8 489.9,79.5 490.1,77.4 490.3,76.0 490.4,75.2 490.6,74.9 490.7,75.1 490.9,75.8 491.1,77.1 491.2,79.0 491.4,81.9 491.6,86.3 491.7,93.8 491.9,117.4 492.1,98.4 492.2,88.6 492.4,83.5 492.6,80.3 492.7,78.2 492.9,76.8 493.0,76.0 493.2,75.7 493.4,75.9 493.5,76.6 493.7,77.9 493.9,79.8 494.0,82.7 494.2,87.1 494.4,94.6 494.5,118.9 494.7,99.0 494.8,89.3 495.0,84.2 495.2,81.0 495.3,78.9 495.5,77.5 495.7,76.7 495.8,76.4 496.0,76.6 496.2,77.3 496.3,78.6 496.5,80.5 496.6,83.4 496.8,87.8 497.0,95.4 497.1,120.4 497.3,99.5 497.5,89.9 497.6,84.9 497.8,81.7 498.0,79.5 498.1,78.2 498.3,77.4 498.4,77.1 498.6,77.3 498.8,78.0 498.9,79.3 499.1,81.2 499.3,84.1 499.4,88.6 499.6,96.2 499.8,121.8 499.9,100.1 500.1,90.5 500.2,85.5 500.4,82.3 500.6,80.2 500.7,78.8 500.9,78.0 501.1,77.7 501.2,78.0 501.4,78.7 501.6,79.9 501.7,81.9 501.9,84.8 502.0,89.2 502.2,96.9 502.4,123.1 502.5,100.6 502.7,91.1 502.9,86.1 503.0,82.9 503.2,80.8 503.4,79.4 503.5,78.6 503.7,78.4 503.8,78.6 504.0,79.3 504.2,80.6 504.3,82.5 504.5,85.4 504.7,89.9 504.8,97.6 505.0,124.3 505.2,101.1 505.3,91.7 505.5,86.7 505.6,83.5 505.8,81.4 506.0,80.0 506.1,79.2 506.3,78.9 506.5,79.2 506.6,79.9 506.8,81.2 507.0,83.1 507.1,86.0 507.3,90.5 507.4,98.3 507.6,125.5 507.8,101.6 507.9,92.2 508.1,87.2 508.3,84.0 508.4,81.9 508.6,80.6 508.8,79.8 508.9,79.5 509.1,79.7 509.2,80.4 509.4,81.7 509.6,83.7 509.7,86.6 509.9,91.1 510.1,98.9 510.2,126.6 510.4,102.0 510.6,92.7 510.7,87.7 510.9,84.6 511.0,82.5 511.2,81.1 511.4,80.3 511.5,80.0 511.7,80.2 511.9,81.0 512.0,82.3 512.2,84.2 512.4,87.2 512.5,91.6 512.7,99.4 512.8,127.7 513.0,102.5 513.2,93.2 513.3,88.2 513.5,85.1 513.7,83.0 513.8,81.6 514.0,80.8 514.2,80.5 514.3,80.8 514.5,81.5 514.6,82.8 514.8,84.7 515.0,87.7 515.1,92.2 515.3,100.0 515.5,128.7 515.6,102.9 515.8,93.6 516.0,88.7 516.1,85.6 516.3,83.4 516.4,82.1 516.6,81.3 516.8,81.0 516.9,81.2 517.1,82.0 517.3,83.3 517.4,85.2 517.6,88.2 517.8,92.7 517.9,100.5 518.1,129.7 518.2,103.3 518.4,94.1 518.6,89.2 518.7,86.0 518.9,83.9 519.1,82.5 519.2,81.8 519.4,81.5 519.6,81.7 519.7,82.4 519.9,83.7 520.0,85.7 520.2,88.7 520.4,93.2 520.5,101.0 520.7,130.7 520.9,103.7 521.0,94.5 521.2,89.6 521.4,86.5 521.5,84.4 521.7,83.0 521.8,82.2 522.0,81.9 522.2,82.2 522.3,82.9 522.5,84.2 522.7,86.2 522.8,89.1 523.0,93.6 523.2,101.5 523.3,131.6 523.5,104.1 523.6,94.9 523.8,90.0 524.0,86.9 524.1,84.8 524.3,83.4 524.5,82.6 524.6,82.4 524.8,82.6 525.0,83.3 525.1,84.6 525.3,86.6 525.4,89.6 525.6,94.1 525.8,102.0 525.9,132.6 526.1,104.4 526.3,95.3 526.4,90.4 526.6,87.3 526.8,85.2 526.9,83.8 527.1,83.1 527.2,82.8 527.4,83.0 527.6,83.7 527.7,85.0 527.9,87.0 528.1,90.0 528.2,94.5 528.4,102.4 528.6,133.4 528.7,104.8 528.9,95.7 529.0,90.8 529.2,87.7 529.4,85.6 529.5,84.2 529.7,83.5 529.9,83.2 530.0,83.4 530.2,84.1 530.4,85.4 530.5,87.4 530.7,90.4 530.8,94.9 531.0,102.9 531.2,134.3 531.3,105.2 531.5,96.1 531.7,91.2 531.8,88.1 532.0,86.0 532.2,84.6 532.3,83.8 532.5,83.6 532.6,83.8 532.8,84.5 533.0,85.8 533.1,87.8 533.3,90.8 533.5,95.3 533.6,103.3 533.8,135.1 534.0,105.5 534.1,96.4 534.3,91.6 534.4,88.4 534.6,86.3 534.8,85.0 534.9,84.2 535.1,83.9 535.3,84.2 535.4,84.9 535.6,86.2 535.8,88.2 535.9,91.2 536.1,95.7 536.2,103.7 536.4,135.9 536.6,105.8 536.7,96.8 536.9,91.9 537.1,88.8 537.2,86.7 537.4,85.3 537.6,84.6 537.7,84.3 537.9,84.5 538.0,85.3 538.2,86.6 538.4,88.6 538.5,91.5 538.7,96.1 538.9,104.1 539.0,136.7 539.2,106.1 539.4,97.1 539.5,92.3 539.7,89.1 539.8,87.0 540.0,85.7 540.2,84.9 540.3,84.7 540.5,84.9 540.7,85.6 540.8,86.9 541.0,88.9 541.2,91.9 541.3,96.4 541.5,104.4 541.6,137.4 541.8,106.4 542.0,97.4 542.1,92.6 542.3,89.5 542.5,87.4 542.6,86.0 542.8,85.3 543.0,85.0 543.1,85.2 543.3,86.0 543.4,87.3 543.6,89.3 543.8,92.2 543.9,96.8 544.1,104.8 544.3,138.2 544.4,106.7 544.6,97.8 544.8,92.9 544.9,89.8 545.1,87.7 545.2,86.4 545.4,85.6 545.6,85.3 545.7,85.5 545.9,86.3 546.1,87.6 546.2,89.6 546.4,92.6 546.6,97.1 546.7,105.2 546.9,138.9 547.0,107.0 547.2,98.1 547.4,93.2 547.5,90.1 547.7,88.0 547.9,86.7 548.0,85.9 548.2,85.6 548.4,85.9 548.5,86.6 548.7,87.9 548.8,89.9 549.0,92.9 549.2,97.4 549.3,105.5 549.5,139.6 549.7,107.3 549.8,98.4 550.0,93.5 550.2,90.4 550.3,88.3 550.5,87.0 550.6,86.2 550.8,85.9 551.0,86.2 551.1,86.9 551.3,88.2 551.5,90.2 551.6,93.2 551.8,97.7 552.0,105.8 552.1,140.3 552.3,107.6 552.4,98.6 552.6,93.8 552.8,90.7 552.9,88.6 553.1,87.3 553.3,86.5 553.4,86.2 553.6,86.5 553.8,87.2 553.9,88.5 554.1,90.5 554.2,93.5 554.4,98.1 554.6,106.1 554.7,140.9 554.9,107.8 555.1,98.9 555.2,94.1 555.4,91.0 555.6,88.9 555.7,87.6 555.9,86.8 556.0,86.5 556.2,86.8 556.4,87.5 556.5,88.8 556.7,90.8 556.9,93.8 557.0,98.3 557.2,106.5 557.4,141.6 557.5,108.1 557.7,99.2 557.8,94.4 558.0,91.3 558.2,89.2 558.3,87.8 558.5,87.1 558.7,86.8 558.8,87.0 559.0,87.8 559.2,89.1 559.3,91.1 559.5,94.1 559.6,98.6 559.8,106.7 560.0,142.2 560.1,108.4 560.3,99.5 560.5,94.6 560.6,91.5 560.8,89.5 561.0,88.1 561.1,87.3 561.3,87.1 561.4,87.3 561.6,88.1 561.8,89.4 561.9,91.4 562.1,94.3 562.3,98.9 562.4,107.0 562.6,142.8 562.8,108.6 562.9,99.7 563.1,94.9 563.2,91.8 563.4,89.7 563.6,88.4 563.7,87.6 563.9,87.3 564.1,87.6 564.2,88.3 564.4,89.6 564.6,91.6 564.7,94.6 564.9,99.2 565.0,107.3 565.2,143.5 565.4,108.8 565.5,100.0 565.7,95.2 565.9,92.1 566.0,90.0 566.2,88.6 566.4,87.9 566.5,87.6 566.7,87.8 566.8,88.6 567.0,89.9 567.2,91.9 567.3,94.9 567.5,99.5 567.7,107.6 567.8,144.1 568.0,109.1 568.2,100.2 568.3,95.4 568.5,92.3 568.6,90.2 568.8,88.9 569.0,88.1 569.1,87.9 569.3,88.1 569.5,88.8 569.6,90.1 569.8,92.1 570.0,95.1 570.1,99.7 570.3,107.9 570.4,144.7 570.6,109.3 570.8,100.4 570.9,95.6 571.1,92.5 571.3,90.5 571.4,89.1 571.6,88.4 571.8,88.1 571.9,88.3 572.1,89.1 572.2,90.4 572.4,92.4 572.6,95.4 572.7,100.0 572.9,108.1 573.1,145.2 573.2,109.5 573.4,100.7 573.6,95.9 573.7,92.8 573.9,90.7 574.0,89.4 574.2,88.6 574.4,88.3 574.5,88.6 574.7,89.3 574.9,90.6 575.0,92.6 575.2,95.6 575.4,100.2 575.5,108.4 575.7,145.8 575.9,109.7 576.0,100.9 576.2,96.1 576.3,93.0 576.5,90.9 576.7,89.6 576.8,88.8 577.0,88.6 577.2,88.8 577.3,89.5 577.5,90.8 577.7,92.9 577.8,95.9 578.0,100.4 578.1,108.6 578.3,146.4 578.5,109.9 578.6,101.1 578.8,96.3 579.0,93.2 579.1,91.2 579.3,89.8 579.5,89.1 579.6,88.8 579.8,89.0 579.9,89.8 580.1,91.1 580.3,93.1 580.4,96.1 580.6,100.7 580.8,108.9 580.9,146.9 581.1,110.1 581.3,101.3 581.4,96.5 581.6,93.5 581.7,91.4 581.9,90.0 582.1,89.3 582.2,89.0 582.4,89.2 582.6,90.0 582.7,91.3 582.9,93.3 583.1,96.3 583.2,100.9 583.4,109.1 583.5,147.5 583.7,110.3 583.9,101.5 584.0,96.7 584.2,93.7 584.4,91.6 584.5,90.2 584.7,89.5 584.9,89.2 585.0,89.5 585.2,90.2 585.3,91.5 585.5,93.5 585.7,96.5 585.8,101.1 586.0,109.3 586.2,148.0 586.3,110.5 586.5,101.7 586.7,97.0 586.8,93.9 587.0,91.8 587.1,90.5 587.3,89.7 587.5,89.4 587.6,89.7 587.8,90.4 588.0,91.7 588.1,93.7 588.3,96.7 588.5,101.3 588.6,109.5 588.8,148.5 588.9,110.7 589.1,101.9 589.3,97.2 589.4,94.1 589.6,92.0 589.8,90.7 589.9,89.9 590.1,89.6 590.3,89.9 590.4,90.6 590.6,91.9 590.7,93.9 590.9,96.9 591.1,101.5 591.2,109.8 591.4,149.0 591.6,110.9 591.7,102.1 591.9,97.3 592.1,94.3 592.2,92.2 592.4,90.9 592.5,90.1 592.7,89.8 592.9,90.1 593.0,90.8 593.2,92.1 593.4,94.1 593.5,97.1 593.7,101.7 593.9,110.0 594.0,149.6 594.2,111.1 594.3,102.3 594.5,97.5 594.7,94.5 594.8,92.4 595.0,91.0 595.2,90.3 595.3,90.0 595.5,90.3 595.7,91.0 595.8,92.3 596.0,94.3 596.1,97.3 596.3,101.9 596.5,110.2 596.6,150.1 596.8,111.3 597.0,102.5 597.1,97.7 597.3,94.6 597.5,92.6 597.6,91.2 597.8,90.5 597.9,90.2 598.1,90.5 598.3,91.2 598.4,92.5 598.6,94.5 598.8,97.5 598.9,102.1 599.1,110.4 599.3,150.6 599.4,111.4 599.6,102.7 599.7,97.9 599.9,94.8 600.1,92.8 600.2,91.4 600.4,90.7 600.6,90.4 600.7,90.6 600.9,91.4 601.1,92.7 601.2,94.7 601.4,97.7 601.5,102.3 601.7,110.6 601.9,151.1 602.0,111.6 602.2,102.9 602.4,98.1 602.5,95.0 602.7,92.9 602.9,91.6 603.0,90.8 603.2,90.6 603.3,90.8 603.5,91.6 603.7,92.9 603.8,94.9 604.0,97.9 604.2,102.5 604.3,110.7 604.5,151.5 604.7,111.8 604.8,103.0 605.0,98.3 605.1,95.2 605.3,93.1 605.5,91.8 605.6,91.0 605.8,90.8 606.0,91.0 606.1,91.7 606.3,93.0 606.5,95.1 606.6,98.1 606.8,102.7 606.9,110.9 607.1,152.0 607.3,111.9 607.4,103.2 607.6,98.4 607.8,95.3 607.9,93.3 608.1,91.9 608.3,91.2 608.4,90.9 608.6,91.2 608.7,91.9 608.9,93.2 609.1,95.2 609.2,98.2 609.4,102.9 609.6,111.1 609.7,152.5 609.9,112.1 610.1,103.4 610.2,98.6 610.4,95.5 610.5,93.4 610.7,92.1 610.9,91.3 611.0,91.1 611.2,91.3 611.4,92.1 611.5,93.4 611.7,95.4 611.9,98.4 612.0,103.0 612.2,111.3 612.3,153.0 612.5,112.2 612.7,103.5 612.8,98.7 613.0,95.7 613.2,93.6 613.3,92.3 613.5,91.5 613.7,91.3 613.8,91.5 614.0,92.2 614.1,93.5 614.3,95.6 614.5,98.6 614.6,103.2 614.8,111.5 615.0,153.5 615.1,112.4 615.3,103.7 615.5,98.9 615.6,95.8 615.8,93.8 615.9,92.4 616.1,91.7 616.3,91.4 616.4,91.6 616.6,92.4 616.8,93.7 616.9,95.7 617.1,98.7 617.3,103.4 617.4,111.6 617.6,153.9 617.7,112.5 617.9,103.8 618.1,99.1 618.2,96.0 618.4,93.9 618.6,92.6 618.7,91.8 618.9,91.6 619.1,91.8 619.2,92.5 619.4,93.9 619.5,95.9 619.7,98.9 619.9,103.5 620.0,111.8 620.2,154.4 620.4,112.7 620.5,104.0 620.7,99.2 620.9,96.1 621.0,94.1 621.2,92.7 621.3,92.0 621.5,91.7 621.7,92.0 621.8,92.7 622.0,94.0 622.2,96.0 622.3,99.0 622.5,103.7 622.7,111.9 622.8,154.8 623.0,112.8 623.1,104.1 623.3,99.3 623.5,96.3 623.6,94.2 623.8,92.9 624.0,92.1 624.1,91.9 624.3,92.1 624.5,92.8 624.6,94.2 624.8,96.2 624.9,99.2 625.1,103.8 625.3,112.1 625.4,155.3 625.6,113.0 625.8,104.3 625.9,99.5 626.1,96.4 626.3,94.4 626.4,93.0 626.6,92.3 626.7,92.0 626.9,92.2 627.1,93.0 627.2,94.3 627.4,96.3 627.6,99.3 627.7,104.0 627.9,112.3 628.1,155.7 628.2,113.1 628.4,104.4 628.5,99.6 628.7,96.6 628.9,94.5 629.0,93.2 629.2,92.4 629.4,92.1 629.5,92.4 629.7,93.1 629.9,94.4 630.0,96.5 630.2,99.5 630.3,104.1 630.5,112.4 630.7,156.2 630.8,113.2 631.0,104.5 631.2,99.8 631.3,96.7 631.5,94.6 631.7,93.3 631.8,92.5 632.0,92.3 632.1,92.5 632.3,93.3 632.5,94.6 632.6,96.6 632.8,99.6 633.0,104.3 633.1,112.5 633.3,156.6 633.5,113.3 633.6,104.7 633.8,99.9 633.9,96.8 634.1,94.8 634.3,93.4 634.4,92.7 634.6,92.4 634.8,92.7 634.9,93.4 635.1,94.7 635.3,96.7 635.4,99.8 635.6,104.4 635.7,112.7 635.9,157.1 636.1,113.5 636.2,104.8 636.4,100.0 636.6,97.0 636.7,94.9 636.9,93.6 637.1,92.8 637.2,92.5 637.4,92.8 637.5,93.5 637.7,94.8 637.9,96.9 638.0,99.9 638.2,104.5 638.4,112.8 638.5,157.5 638.7,113.6 638.9,104.9 639.0,100.1 639.2,97.1 639.3,95.0 639.5,93.7 639.7,92.9 639.8,92.7 640.0,92.9 640.2,93.7 640.3,95.0 640.5,97.0 640.7,100.0 640.8,104.6 641.0,113.0 641.1,158.0 641.3,113.7 641.5,105.0 641.6,100.3 641.8,97.2 642.0,95.1 642.1,93.8 642.3,93.1 642.5,92.8 642.6,93.0 642.8,93.8 642.9,95.1 643.1,97.1 643.3,100.1 643.4,104.8 643.6,113.1 643.8,158.4 643.9,113.8 644.1,105.1 644.3,100.4 644.4,97.3 644.6,95.3 644.7,93.9 644.9,93.2 645.1,92.9 645.2,93.2 645.4,93.9 645.6,95.2 645.7,97.2 645.9,100.3 646.1,104.9 646.2,113.2 646.4,158.8 646.5,113.9 646.7,105.3 646.9,100.5 647.0,97.4 647.2,95.4 647.4,94.0 647.5,93.3 647.7,93.0 647.9,93.3 648.0,94.0 648.2,95.3 648.3,97.4 648.5,100.4 648.7,105.0 648.8,113.3 649.0,159.3 649.2,114.0 649.3,105.4 649.5,100.6 649.7,97.6 649.8,95.5 650.0,94.2 650.1,93.4 650.3,93.2 650.5,93.4 650.6,94.1 650.8,95.5 651.0,97.5 651.1,100.5 651.3,105.1 651.5,113.5 651.6,159.7 651.8,114.1 651.9,105.5 652.1,100.7 652.3,97.7 652.4,95.6 652.6,94.3 652.8,93.5 652.9,93.3 653.1,93.5 653.3,94.2 653.4,95.6 653.6,97.6 653.7,100.6 653.9,105.3 654.1,113.6 654.2,160.2 654.4,114.2 654.6,105.6 654.7,100.8 654.9,97.8 655.1,95.7 655.2,94.4 655.4,93.6 655.5,93.4 655.7,93.6 655.9,94.4 656.0,95.7 656.2,97.7 656.4,100.7 656.5,105.4 656.7,113.7 656.9,160.6 657.0,114.3 657.2,105.7 657.3,100.9 657.5,97.9 657.7,95.8 657.8,94.5 658.0,93.7 658.2,93.5 658.3,93.7 658.5,94.5 658.7,95.8 658.8,97.8 659.0,100.8 659.1,105.5 659.3,113.8 659.5,161.0 659.6,114.4 659.8,105.8 660.0,101.0 660.1,98.0 660.3,95.9 660.5,94.6 660.6,93.8 660.8,93.6 661.0,93.8 661.1,94.6 661.3,95.9 661.4,97.9 661.6,100.9 661.8,105.6 661.9,113.9 662.1,161.5 662.3,114.5 662.4,105.9 662.6,101.1 662.8,98.1 662.9,96.0 663.1,94.7 663.2,93.9 663.4,93.7 663.6,93.9 663.7,94.7 663.9,96.0 664.1,98.0 664.2,101.0 664.4,105.7 664.6,114.0 664.7,161.9 664.9,114.6 665.0,106.0 665.2,101.2 665.4,98.2 665.5,96.1 665.7,94.8 665.9,94.0 666.0,93.8 666.2,94.0 666.4,94.8 666.5,96.1 666.7,98.1 666.8,101.1 667.0,105.8 667.2,114.1 667.3,162.4 667.5,114.7 667.7,106.1 667.8,101.3 668.0,98.3 668.2,96.2 668.3,94.9 668.5,94.1 668.6,93.9 668.8,94.1 669.0,94.9 669.1,96.2 669.3,98.2 669.5,101.2 669.6,105.9 669.8,114.2 670.0,162.8 670.1,114.8 670.3,106.2 670.4,101.4 670.6,98.4 670.8,96.3 670.9,95.0 671.1,94.2 671.3,94.0 671.4,94.2 671.6,95.0 671.8,96.3 671.9,98.3 672.1,101.3 672.2,106.0 672.4,114.3 672.6,163.2 672.7,114.9 672.9,106.2 673.1,101.5 673.2,98.5 673.4,96.4 673.6,95.1 673.7,94.3 673.9,94.1 674.0,94.3 674.2,95.0 674.4,96.4 674.5,98.4 674.7,101.4 674.9,106.1 675.0,114.4 675.2,163.7 675.4,114.9 675.5,106.3 675.7,101.6 675.8,98.5 676.0,96.5 676.2,95.2 676.3,94.4 676.5,94.1 676.7,94.4 676.8,95.1 677.0,96.5 677.2,98.5 677.3,101.5 677.5,106.2 677.6,114.5 677.8,164.1 678.0,115.0 678.1,106.4 678.3,101.7 678.5,98.6 678.6,96.6 678.8,95.2 679.0,94.5 679.1,94.2 679.3,94.5 679.4,95.2 679.6,96.5 679.8,98.6 679.9,101.6 680.1,106.2 680.3,114.6 680.4,164.6 680.6,115.1 680.8,106.5 680.9,101.8 681.1,98.7 681.2,96.7 681.4,95.3 681.6,94.6 681.7,94.3 681.9,94.6 682.1,95.3 682.2,96.6 682.4,98.7 682.6,101.7 682.7,106.3 682.9,114.7 683.0,165.0 683.2,115.2 683.4,106.6 683.5,101.8 683.7,98.8 683.9,96.7 684.0,95.4 684.2,94.6 684.4,94.4 684.5,94.6 684.7,95.4 684.8,96.7 685.0,98.7 685.2,101.8 685.3,106.4 685.5,114.8 685.7,165.5 685.8,115.2 686.0,106.6 686.2,101.9 686.3,98.9 686.5,96.8 686.6,95.5 686.8,94.7 687.0,94.5 687.1,94.7 687.3,95.5 687.5,96.8 687.6,98.8 687.8,101.8 688.0,106.5 688.1,114.9 688.3,166.0 688.4,115.3 688.6,106.7 688.8,102.0 688.9,98.9 689.1,96.9 689.3,95.6 689.4,94.8 689.6,94.5 689.8,94.8 689.9,95.5 690.1,96.9 690.2,98.9 690.4,101.9 690.6,106.6 690.7,115.0 690.9,166.4 691.1,115.4 691.2,106.8 691.4,102.1 691.6,99.0 691.7,97.0 691.9,95.6 692.0,94.9 692.2,94.6 692.4,94.9 692.5,95.6 692.7,96.9 692.9,99.0 693.0,102.0 693.2,106.6 693.4,115.0 693.5,166.9 693.7,115.4 693.8,106.9 694.0,102.1 694.2,99.1 694.3,97.0 694.5,95.7 694.7,94.9 694.8,94.7 695.0,94.9 695.2,95.7 695.3,97.0 695.5,99.0 695.6,102.1 695.8,106.7 696.0,115.1 696.1,167.4 696.3,115.5 696.5,106.9 696.6,102.2 696.8,99.1 697.0,97.1 697.1,95.8 697.3,95.0 697.4,94.8 697.6,95.0 697.8,95.7 697.9,97.1 698.1,99.1 698.3,102.1 698.4,106.8 698.6,115.2 698.8,167.9 698.9,115.6 699.1,107.0 699.2,102.3 699.4,99.2 699.6,97.2 699.7,95.8 699.9,95.1 700.1,94.8 700.2,95.1 700.4,95.8 700.6,97.1 700.7,99.2 700.9,102.2 701.0,106.9 701.2,115.3 701.4,168.4 701.5,115.6 701.7,107.1 701.9,102.3 702.0,99.3 702.2,97.2 702.4,95.9 702.5,95.1 702.7,94.9 702.8,95.1 703.0,95.9 703.2,97.2 703.3,99.2 703.5,102.3 703.7,106.9 703.8,115.3 704.0,168.9 704.2,115.7 704.3,107.1 704.5,102.4 704.6,99.3 704.8,97.3 705.0,96.0 705.1,95.2 705.3,95.0 705.5,95.2 705.6,95.9 705.8,97.3 706.0,99.3 706.1,102.3 706.3,107.0 706.4,115.4 706.6,169.4 706.8,115.7 706.9,107.2 707.1,102.4 707.3,99.4 707.4,97.3 707.6,96.0 707.8,95.3 707.9,95.0 708.1,95.3 708.2,96.0 708.4,97.3 708.6,99.4 708.7,102.4 708.9,107.1 709.1,115.5 709.2,169.9 709.4,115.8 709.6,107.2 709.7,102.5 709.9,99.5 710.0,97.4 710.2,96.1 710.4,95.3 710.5,95.1 710.7,95.3 710.9,96.1 711.0,97.4 711.2,99.4 711.4,102.4 711.5,107.1 711.7,115.5 711.8,170.5 712.0,115.8 712.2,107.3 712.3,102.6 712.5,99.5 712.7,97.5 712.8,96.1 713.0,95.4 713.2,95.1 713.3,95.4 713.5,96.1 713.6,97.4 713.8,99.5 714.0,102.5 714.1,107.2 714.3,115.6 714.5,171.0 714.6,115.9 714.8,107.3 715.0,102.6 715.1,99.6 715.3,97.5 715.4,96.2 715.6,95.4 715.8,95.2 715.9,95.4 716.1,96.2 716.3,97.5 716.4,99.5 716.6,102.6 716.8,107.2 716.9,115.6 717.1,171.6 717.2,115.9 717.4,107.4 717.6,102.7 717.7,99.6 717.9,97.6 718.1,96.2 718.2,95.5 718.4,95.2 718.6,95.5 718.7,96.2 718.9,97.5 719.0,99.6 719.2,102.6 719.4,107.3 719.5,115.7 719.7,172.2 719.9,116.0 720.0,107.4 720.2,102.7 720.4,99.7 720.5,97.6 720.7,96.3 720.8,95.5 721.0,95.3 721.2,95.5 721.3,96.3 721.5,97.6 721.7,99.6 721.8,102.7 722.0,107.3 722.2,115.7 722.3,172.8 722.5,116.0 722.6,107.5 722.8,102.8 723.0,99.7 723.1,97.7 723.3,96.3 723.5,95.6 723.6,95.3 723.8,95.6 724.0,96.3 724.1,97.6 724.3,99.7 724.4,102.7 724.6,107.4 724.8,115.8 724.9,173.4 725.1,116.1 725.3,107.5 725.4,102.8 725.6,99.7 725.8,97.7 725.9,96.4 726.1,95.6 726.2,95.4 726.4,95.6 726.6,96.4 726.7,97.7 726.9,99.7 727.1,102.7 727.2,107.4 727.4,115.8 727.6,174.0 727.7,116.1 727.9,107.6 728.0,102.8 728.2,99.8 728.4,97.7 728.5,96.4 728.7,95.7 728.9,95.4 729.0,95.7 729.2,96.4 729.4,97.7 729.5,99.8 729.7,102.8 729.8,107.5 730.0,115.9 730.2,174.7 730.3,116.1 730.5,107.6 730.7,102.9 730.8,99.8 731.0,97.8 731.2,96.5 731.3,95.7 731.5,95.5 731.6,95.7 731.8,96.4 732.0,97.8 732.1,99.8 732.3,102.8 732.5,107.5 732.6,115.9 732.8,175.3 733.0,116.2 733.1,107.6 733.3,102.9 733.4,99.9 733.6,97.8 733.8,96.5 733.9,95.7 734.1,95.5 734.3,95.7 734.4,96.5 734.6,97.8 734.8,99.8 734.9,102.9 735.1,107.6 735.2,116.0 735.4,176.0 735.6,116.2 735.7,107.7 735.9,103.0 736.1,99.9 736.2,97.9 736.4,96.5 736.6,95.8 736.7,95.5 736.9,95.8 737.0,96.5 737.2,97.8 737.4,99.9 737.5,102.9 737.7,107.6 737.9,116.0 738.0,176.8 738.2,116.2 738.4,107.7 738.5,103.0 738.7,99.9 738.8,97.9 739.0,96.6 739.2,95.8 739.3,95.6 739.5,95.8 739.7,96.6 739.8,97.9 740.0,99.9 740.2,102.9 740.3,107.6 740.5,116.1 740.6,177.6 740.8,116.3 741.0,107.7 741.1,103.0 741.3,100.0 741.5,97.9 741.6,96.6 741.8,95.8 742.0,95.6 742.1,95.8 742.3,96.6 742.4,97.9 742.6,99.9 742.8,103.0 742.9,107.7 743.1,116.1 743.3,178.4 743.4,116.3 743.6,107.8 743.8,103.0 743.9,100.0 744.1,98.0 744.3,96.6 744.4,95.9 744.6,95.6 744.7,95.9 744.9,96.6 745.1,97.9 745.2,100.0 745.4,103.0 745.6,107.7 745.7,116.1 745.9,179.2 746.1,116.3 746.2,107.8 746.4,103.1 746.5,100.0 746.7,98.0 746.9,96.7 747.0,95.9 747.2,95.7 747.4,95.9 747.5,96.6 747.7,98.0 747.9,100.0 748.0,103.0 748.2,107.7 748.3,116.2 748.5,180.2 748.7,116.3 748.8,107.8 749.0,103.1 749.2,100.1 749.3,98.0 749.5,96.7 749.7,95.9 749.8,95.7 750.0,95.9 750.1,96.7 750.3,98.0 750.5,100.0 750.6,103.1 750.8,107.8 751.0,116.2 751.1,181.1 751.3,116.4 751.5,107.8 751.6,103.1 751.8,100.1 751.9,98.0 752.1,96.7 752.3,96.0 752.4,95.7 752.6,95.9 752.8,96.7 752.9,98.0 753.1,100.1 753.3,103.1 753.4,107.8 753.6,116.2 753.7,182.0 753.9,116.4 754.1,107.8 754.2,103.1 754.4,100.1 754.6,98.1 754.7,96.7 754.9,96.0 755.1,95.7 755.2,96.0 755.4,96.7 755.5,98.0 755.7,100.1 755.9,103.1 756.0,107.8 756.2,116.3 756.4,182.0 756.5,116.4 756.7,107.9 756.9,103.2 757.0,100.1 757.2,98.1 757.3,96.7 757.5,96.0 757.7,95.8 757.8,96.0 758.0,96.7 758.2,98.1 758.3,100.1 758.5,103.1 758.7,107.8 758.8,116.3 759.0,182.0 759.1,116.4 759.3,107.9 759.5,103.2 759.6,100.1 759.8,98.1 760.0,96.8 760.1,96.0 760.3,95.8 760.5,96.0 760.6,96.8 760.8,98.1 760.9,100.1 761.1,103.2 761.3,107.8 761.4,116.3 761.6,182.0 761.8,116.4 761.9,107.9 762.1,103.2 762.3,100.2 762.4,98.1 762.6,96.8 762.7,96.0 762.9,95.8 763.1,96.0 763.2,96.8 763.4,98.1 763.6,100.1 763.7,103.2 763.9,107.9 764.1,116.3 764.2,182.0 764.4,116.4 764.5,107.9 764.7,103.2 764.9,100.2 765.0,98.1 765.2,96.8 765.4,96.0 765.5,95.8 765.7,96.0 765.9,96.8 766.0,98.1 766.2,100.2 766.3,103.2 766.5,107.9 766.7,116.4 766.8,182.0 767.0,116.4 767.2,107.9 767.3,103.2 767.5,100.2 767.7,98.1 767.8,96.8 768.0,96.1 768.1,95.8 768.3,96.1 768.5,96.8 768.6,98.1 768.8,100.2 769.0,103.2 769.1,107.9 769.3,116.4 769.5,182.0 769.6,116.4 769.8,107.9 769.9,103.2 770.1,100.2 770.3,98.2 770.4,96.8 770.6,96.1 770.8,95.8 770.9,96.1 771.1,96.8 771.3,98.1 771.4,100.2 771.6,103.2 771.7,107.9 771.9,116.4 772.1,182.0 772.2,116.4 772.4,107.9 772.6,103.2 772.7,100.2 772.9,98.2 773.1,96.8 773.2,96.1 773.4,95.8 773.5,96.1 773.7,96.8 773.9,98.2 774.0,100.2 774.2,103.2 774.4,107.9 774.5,116.4 774.7,182.0 774.9,116.4 775.0,107.9 775.2,103.2 775.3,100.2 775.5,98.2 775.7,96.8 775.8,96.1 776.0,95.8 776.2,96.1 776.3,96.8 776.5,98.2 776.7,100.2 776.8,103.2 777.0,107.9 777.1,116.4 777.3,182.0 777.5,116.4 777.6,108.0 777.8,103.3 778.0,100.2 778.1,98.2 778.3,96.8 778.5,96.1 778.6,95.8 778.8,96.1 778.9,96.8 779.1,98.2 779.3,100.2 779.4,103.2 779.6,107.9 779.8,116.4 779.9,182.0 780.1,116.4 780.3,108.0 780.4,103.3 780.6,100.2 780.7,98.2 780.9,96.9 781.1,96.1 781.2,95.9 781.4,96.1 781.6,96.8 781.7,98.2 781.9,100.2 782.1,103.3 782.2,107.9 782.4,116.4 782.5,182.0 782.7,116.4 782.9,108.0 783.0,103.3 783.2,100.2 783.4,98.2 783.5,96.9 783.7,96.1 783.9,95.9 784.0,96.1 784.2,96.9 784.3,98.2 784.5,100.2 784.7,103.3 784.8,108.0 785.0,116.4" fill="none" stroke="#4a90d9" stroke-width="1.5" stroke-linejoin="round"/>
  <text x="209.5" y="214" text-anchor="middle" font-size="11" fill="#6b7280">n / N</text>
  <text x="617.5" y="214" text-anchor="middle" font-size="11" fill="#6b7280">Normalized frequency (× Fₛ)</text>
</svg>
