<svg xmlns="http://www.w3.org/2000/svg" viewBox="0 0 560 210" width="560" height="210" style="font-family:system-ui,-apple-system,sans-serif">
  <rect width="560" height="210" fill="#fafafa" rx="6"/>
  <text x="280" y="18" text-anchor="middle" font-size="12" font-weight="600" fill="#374151">cauchy</text>
  <line x1="52" y1="166.0" x2="257" y2="166.0" stroke="#e5e7eb" stroke-width="0.5"/>
  <text x="48" y="169.0" text-anchor="end" font-size="7.5" fill="#6b7280">0</text>
  <line x1="52" y1="97.0" x2="257" y2="97.0" stroke="#e5e7eb" stroke-width="0.5"/>
  <text x="48" y="100.0" text-anchor="end" font-size="7.5" fill="#6b7280">0.5</text>
  <line x1="52" y1="28.0" x2="257" y2="28.0" stroke="#e5e7eb" stroke-width="0.5"/>
  <text x="48" y="31.0" text-anchor="end" font-size="7.5" fill="#6b7280">1</text>
  <line x1="52.0" y1="28" x2="52.0" y2="166" stroke="#e5e7eb" stroke-width="0.5"/>
  <text x="52.0" y="178" text-anchor="middle" font-size="7.5" fill="#6b7280">0</text>
  <line x1="154.5" y1="28" x2="154.5" y2="166" stroke="#e5e7eb" stroke-width="0.5"/>
  <text x="154.5" y="178" text-anchor="middle" font-size="7.5" fill="#6b7280">0.5</text>
  <line x1="257.0" y1="28" x2="257.0" y2="166" stroke="#e5e7eb" stroke-width="0.5"/>
  <text x="257.0" y="178" text-anchor="middle" font-size="7.5" fill="#6b7280">1</text>
  <line x1="52" y1="28" x2="52" y2="166" stroke="#d1d5db" stroke-width="0.75"/>
  <line x1="52" y1="166" x2="257" y2="166" stroke="#d1d5db" stroke-width="0.75"/>
  <path d="M52.0,166.0 52.0,152.2 52.8,152.0 53.6,151.8 54.4,151.6 55.2,151.4 56.0,151.2 56.8,151.0 57.6,150.7 58.4,150.5 59.2,150.3 60.0,150.0 60.8,149.8 61.6,149.5 62.5,149.3 63.3,149.0 64.1,148.8 64.9,148.5 65.7,148.2 66.5,147.9 67.3,147.6 68.1,147.3 68.9,147.0 69.7,146.7 70.5,146.4 71.3,146.1 72.1,145.8 72.9,145.4 73.7,145.1 74.5,144.7 75.3,144.3 76.1,144.0 76.9,143.6 77.7,143.2 78.5,142.8 79.3,142.4 80.1,141.9 80.9,141.5 81.7,141.1 82.5,140.6 83.4,140.1 84.2,139.7 85.0,139.2 85.8,138.7 86.6,138.1 87.4,137.6 88.2,137.1 89.0,136.5 89.8,135.9 90.6,135.3 91.4,134.7 92.2,134.1 93.0,133.5 93.8,132.8 94.6,132.1 95.4,131.4 96.2,130.7 97.0,130.0 97.8,129.2 98.6,128.4 99.4,127.6 100.2,126.8 101.0,126.0 101.8,125.1 102.6,124.2 103.5,123.3 104.3,122.4 105.1,121.4 105.9,120.4 106.7,119.4 107.5,118.3 108.3,117.2 109.1,116.1 109.9,115.0 110.7,113.8 111.5,112.6 112.3,111.4 113.1,110.1 113.9,108.8 114.7,107.4 115.5,106.1 116.3,104.6 117.1,103.2 117.9,101.7 118.7,100.2 119.5,98.6 120.3,97.0 121.1,95.4 121.9,93.7 122.7,92.0 123.5,90.2 124.4,88.4 125.2,86.6 126.0,84.7 126.8,82.8 127.6,80.9 128.4,78.9 129.2,76.9 130.0,74.9 130.8,72.9 131.6,70.8 132.4,68.7 133.2,66.6 134.0,64.5 134.8,62.4 135.6,60.3 136.4,58.2 137.2,56.1 138.0,54.0 138.8,52.0 139.6,50.0 140.4,48.0 141.2,46.1 142.0,44.2 142.8,42.4 143.6,40.6 144.5,39.0 145.3,37.4 146.1,35.9 146.9,34.6 147.7,33.3 148.5,32.2 149.3,31.2 150.1,30.3 150.9,29.5 151.7,28.9 152.5,28.5 153.3,28.2 154.1,28.0 154.9,28.0 155.7,28.2 156.5,28.5 157.3,28.9 158.1,29.5 158.9,30.3 159.7,31.2 160.5,32.2 161.3,33.3 162.1,34.6 162.9,35.9 163.7,37.4 164.5,39.0 165.4,40.6 166.2,42.4 167.0,44.2 167.8,46.1 168.6,48.0 169.4,50.0 170.2,52.0 171.0,54.0 171.8,56.1 172.6,58.2 173.4,60.3 174.2,62.4 175.0,64.5 175.8,66.6 176.6,68.7 177.4,70.8 178.2,72.9 179.0,74.9 179.8,76.9 180.6,78.9 181.4,80.9 182.2,82.8 183.0,84.7 183.8,86.6 184.6,88.4 185.5,90.2 186.3,92.0 187.1,93.7 187.9,95.4 188.7,97.0 189.5,98.6 190.3,100.2 191.1,101.7 191.9,103.2 192.7,104.6 193.5,106.1 194.3,107.4 195.1,108.8 195.9,110.1 196.7,111.4 197.5,112.6 198.3,113.8 199.1,115.0 199.9,116.1 200.7,117.2 201.5,118.3 202.3,119.4 203.1,120.4 203.9,121.4 204.7,122.4 205.5,123.3 206.4,124.2 207.2,125.1 208.0,126.0 208.8,126.8 209.6,127.6 210.4,128.4 211.2,129.2 212.0,130.0 212.8,130.7 213.6,131.4 214.4,132.1 215.2,132.8 216.0,133.5 216.8,134.1 217.6,134.7 218.4,135.3 219.2,135.9 220.0,136.5 220.8,137.1 221.6,137.6 222.4,138.1 223.2,138.7 224.0,139.2 224.8,139.7 225.6,140.1 226.5,140.6 227.3,141.1 228.1,141.5 228.9,141.9 229.7,142.4 230.5,142.8 231.3,143.2 232.1,143.6 232.9,144.0 233.7,144.3 234.5,144.7 235.3,145.1 236.1,145.4 236.9,145.8 237.7,146.1 238.5,146.4 239.3,146.7 240.1,147.0 240.9,147.3 241.7,147.6 242.5,147.9 243.3,148.2 244.1,148.5 244.9,148.8 245.7,149.0 246.5,149.3 247.4,149.5 248.2,149.8 249.0,150.0 249.8,150.3 250.6,150.5 251.4,150.7 252.2,151.0 253.0,151.2 253.8,151.4 254.6,151.6 255.4,151.8 256.2,152.0 257.0,152.2 L257.0,166.0 Z" fill="#4a90d9" fill-opacity="0.06"/>
  <polyline points="52.0,152.2 52.8,152.0 53.6,151.8 54.4,151.6 55.2,151.4 56.0,151.2 56.8,151.0 57.6,150.7 58.4,150.5 59.2,150.3 60.0,150.0 60.8,149.8 61.6,149.5 62.5,149.3 63.3,149.0 64.1,148.8 64.9,148.5 65.7,148.2 66.5,147.9 67.3,147.6 68.1,147.3 68.9,147.0 69.7,146.7 70.5,146.4 71.3,146.1 72.1,145.8 72.9,145.4 73.7,145.1 74.5,144.7 75.3,144.3 76.1,144.0 76.9,143.6 77.7,143.2 78.5,142.8 79.3,142.4 80.1,141.9 80.9,141.5 81.7,141.1 82.5,140.6 83.4,140.1 84.2,139.7 85.0,139.2 85.8,138.7 86.6,138.1 87.4,137.6 88.2,137.1 89.0,136.5 89.8,135.9 90.6,135.3 91.4,134.7 92.2,134.1 93.0,133.5 93.8,132.8 94.6,132.1 95.4,131.4 96.2,130.7 97.0,130.0 97.8,129.2 98.6,128.4 99.4,127.6 100.2,126.8 101.0,126.0 101.8,125.1 102.6,124.2 103.5,123.3 104.3,122.4 105.1,121.4 105.9,120.4 106.7,119.4 107.5,118.3 108.3,117.2 109.1,116.1 109.9,115.0 110.7,113.8 111.5,112.6 112.3,111.4 113.1,110.1 113.9,108.8 114.7,107.4 115.5,106.1 116.3,104.6 117.1,103.2 117.9,101.7 118.7,100.2 119.5,98.6 120.3,97.0 121.1,95.4 121.9,93.7 122.7,92.0 123.5,90.2 124.4,88.4 125.2,86.6 126.0,84.7 126.8,82.8 127.6,80.9 128.4,78.9 129.2,76.9 130.0,74.9 130.8,72.9 131.6,70.8 132.4,68.7 133.2,66.6 134.0,64.5 134.8,62.4 135.6,60.3 136.4,58.2 137.2,56.1 138.0,54.0 138.8,52.0 139.6,50.0 140.4,48.0 141.2,46.1 142.0,44.2 142.8,42.4 143.6,40.6 144.5,39.0 145.3,37.4 146.1,35.9 146.9,34.6 147.7,33.3 148.5,32.2 149.3,31.2 150.1,30.3 150.9,29.5 151.7,28.9 152.5,28.5 153.3,28.2 154.1,28.0 154.9,28.0 155.7,28.2 156.5,28.5 157.3,28.9 158.1,29.5 158.9,30.3 159.7,31.2 160.5,32.2 161.3,33.3 162.1,34.6 162.9,35.9 163.7,37.4 164.5,39.0 165.4,40.6 166.2,42.4 167.0,44.2 167.8,46.1 168.6,48.0 169.4,50.0 170.2,52.0 171.0,54.0 171.8,56.1 172.6,58.2 173.4,60.3 174.2,62.4 175.0,64.5 175.8,66.6 176.6,68.7 177.4,70.8 178.2,72.9 179.0,74.9 179.8,76.9 180.6,78.9 181.4,80.9 182.2,82.8 183.0,84.7 183.8,86.6 184.6,88.4 185.5,90.2 186.3,92.0 187.1,93.7 187.9,95.4 188.7,97.0 189.5,98.6 190.3,100.2 191.1,101.7 191.9,103.2 192.7,104.6 193.5,106.1 194.3,107.4 195.1,108.8 195.9,110.1 196.7,111.4 197.5,112.6 198.3,113.8 199.1,115.0 199.9,116.1 200.7,117.2 201.5,118.3 202.3,119.4 203.1,120.4 203.9,121.4 204.7,122.4 205.5,123.3 206.4,124.2 207.2,125.1 208.0,126.0 208.8,126.8 209.6,127.6 210.4,128.4 211.2,129.2 212.0,130.0 212.8,130.7 213.6,131.4 214.4,132.1 215.2,132.8 216.0,133.5 216.8,134.1 217.6,134.7 218.4,135.3 219.2,135.9 220.0,136.5 220.8,137.1 221.6,137.6 222.4,138.1 223.2,138.7 224.0,139.2 224.8,139.7 225.6,140.1 226.5,140.6 227.3,141.1 228.1,141.5 228.9,141.9 229.7,142.4 230.5,142.8 231.3,143.2 232.1,143.6 232.9,144.0 233.7,144.3 234.5,144.7 235.3,145.1 236.1,145.4 236.9,145.8 237.7,146.1 238.5,146.4 239.3,146.7 240.1,147.0 240.9,147.3 241.7,147.6 242.5,147.9 243.3,148.2 244.1,148.5 244.9,148.8 245.7,149.0 246.5,149.3 247.4,149.5 248.2,149.8 249.0,150.0 249.8,150.3 250.6,150.5 251.4,150.7 252.2,151.0 253.0,151.2 253.8,151.4 254.6,151.6 255.4,151.8 256.2,152.0 257.0,152.2" fill="none" stroke="#4a90d9" stroke-width="1.2" stroke-linejoin="round"/>
  <line x1="322" y1="28.0" x2="527" y2="28.0" stroke="#e5e7eb" stroke-width="0.5"/>
  <text x="318" y="31.0" text-anchor="end" font-size="7.5" fill="#6b7280">0</text>
  <line x1="322" y1="74.0" x2="527" y2="74.0" stroke="#e5e7eb" stroke-width="0.5"/>
  <text x="318" y="77.0" text-anchor="end" font-size="7.5" fill="#6b7280">-40</text>
  <line x1="322" y1="120.0" x2="527" y2="120.0" stroke="#e5e7eb" stroke-width="0.5"/>
  <text x="318" y="123.0" text-anchor="end" font-size="7.5" fill="#6b7280">-80</text>
  <line x1="322" y1="166.0" x2="527" y2="166.0" stroke="#e5e7eb" stroke-width="0.5"/>
  <text x="318" y="169.0" text-anchor="end" font-size="7.5" fill="#6b7280">-120</text>
  <line x1="322.0" y1="28" x2="322.0" y2="166" stroke="#e5e7eb" stroke-width="0.5"/>
  <text x="322.0" y="178" text-anchor="middle" font-size="7.5" fill="#6b7280">0</text>
  <line x1="363.0" y1="28" x2="363.0" y2="166" stroke="#e5e7eb" stroke-width="0.5"/>
  <text x="363.0" y="178" text-anchor="middle" font-size="7.5" fill="#6b7280">0.1</text>
  <line x1="404.0" y1="28" x2="404.0" y2="166" stroke="#e5e7eb" stroke-width="0.5"/>
  <text x="404.0" y="178" text-anchor="middle" font-size="7.5" fill="#6b7280">0.2</text>
  <line x1="445.0" y1="28" x2="445.0" y2="166" stroke="#e5e7eb" stroke-width="0.5"/>
  <text x="445.0" y="178" text-anchor="middle" font-size="7.5" fill="#6b7280">0.3</text>
  <line x1="486.0" y1="28" x2="486.0" y2="166" stroke="#e5e7eb" stroke-width="0.5"/>
  <text x="486.0" y="178" text-anchor="middle" font-size="7.5" fill="#6b7280">0.4</text>
  <line x1="527.0" y1="28" x2="527.0" y2="166" stroke="#e5e7eb" stroke-width="0.5"/>
  <text x="527.0" y="178" text-anchor="middle" font-size="7.5" fill="#6b7280">0.5</text>
  <line x1="322" y1="28" x2="322" y2="166" stroke="#d1d5db" stroke-width="0.75"/>
  <line x1="322" y1="166" x2="527" y2="166" stroke="#d1d5db" stroke-width="0.75"/>
  <polyline points="322.0,28.0 322.1,28.0 322.2,28.1 322.3,28.3 322.4,28.5 322.5,28.7 322.6,29.1 322.7,29.5 322.8,29.9 322.9,30.4 323.0,31.0 323.1,31.6 323.2,32.3 323.3,33.0 323.4,33.8 323.5,34.7 323.6,35.5 323.7,36.5 323.8,37.4 323.9,38.4 324.0,39.4 324.1,40.4 324.2,41.3 324.3,42.3 324.4,43.2 324.5,44.0 324.6,44.7 324.7,45.3 324.8,45.9 324.9,46.3 325.0,46.7 325.1,46.9 325.2,47.2 325.3,47.3 325.4,47.5 325.5,47.7 325.6,47.9 325.7,48.1 325.8,48.3 325.9,48.7 326.0,49.1 326.1,49.6 326.2,50.2 326.3,50.9 326.4,51.7 326.5,52.6 326.6,53.6 326.7,54.8 326.8,56.2 326.9,57.7 327.0,59.4 327.1,61.3 327.2,63.3 327.3,65.5 327.4,67.9 327.5,70.2 327.6,72.5 327.7,74.3 327.8,75.4 327.9,75.6 328.0,74.9 328.1,73.6 328.2,72.0 328.3,70.4 328.4,68.8 328.5,67.5 328.6,66.3 328.7,65.3 328.8,64.6 328.9,64.1 329.0,63.7 329.1,63.6 329.2,63.7 329.3,64.0 329.4,64.6 329.5,65.4 329.6,66.5 329.7,67.9 329.8,69.8 329.9,72.2 330.0,75.6 330.1,80.7 330.2,90.7 330.3,96.0 330.4,83.8 330.5,79.1 330.6,76.6 330.7,75.1 330.8,74.4 330.9,74.3 331.0,74.7 331.1,75.8 331.2,77.5 331.3,80.3 331.4,85.1 331.5,96.1 331.6,95.0 331.7,84.4 331.8,79.5 331.9,76.5 332.0,74.4 332.1,73.0 332.2,72.1 332.3,71.5 332.4,71.4 332.5,71.5 332.6,72.1 332.7,73.0 332.8,74.3 332.9,76.3 333.0,79.1 333.1,83.4 333.2,91.6 333.3,105.0 333.4,87.7 333.5,82.1 333.6,78.9 333.7,76.8 333.8,75.5 333.9,74.7 334.0,74.4 334.1,74.5 334.2,75.0 334.3,76.0 334.4,77.5 334.5,79.8 334.6,83.2 334.7,89.1 334.8,106.8 334.9,93.2 335.0,85.3 335.1,81.2 335.2,78.7 335.3,76.9 335.4,75.8 335.5,75.2 335.6,74.9 335.7,75.1 335.8,75.6 335.9,76.6 336.0,78.1 336.1,80.2 336.2,83.4 336.3,88.7 336.4,101.5 336.5,96.8 336.6,87.4 336.7,83.0 336.8,80.2 336.9,78.4 337.0,77.3 337.1,76.6 337.2,76.3 337.3,76.5 337.4,77.0 337.5,78.0 337.6,79.5 337.7,81.7 337.8,85.0 337.9,90.7 338.0,106.3 338.1,96.1 338.2,87.8 338.3,83.6 338.4,81.0 338.5,79.2 338.6,78.1 338.7,77.4 338.8,77.2 338.9,77.3 339.0,77.9 339.1,78.9 339.2,80.4 339.3,82.6 339.4,85.9 339.5,91.6 339.6,106.9 339.7,97.2 339.8,88.8 339.9,84.5 340.0,81.9 340.1,80.2 340.2,79.0 340.3,78.4 340.4,78.1 340.5,78.3 340.6,78.8 340.7,79.8 340.8,81.3 340.9,83.6 341.0,87.0 341.1,92.7 341.2,109.2 341.3,97.6 341.4,89.4 341.5,85.3 341.6,82.7 341.7,80.9 341.8,79.8 341.9,79.2 342.0,78.9 342.1,79.1 342.2,79.6 342.3,80.6 342.4,82.2 342.5,84.4 342.6,87.8 342.7,93.6 342.8,110.6 342.9,98.2 343.0,90.1 343.1,86.0 343.2,83.4 343.3,81.7 343.4,80.6 343.5,79.9 343.6,79.7 343.7,79.9 343.8,80.4 343.9,81.4 344.0,82.9 344.1,85.2 344.2,88.6 344.3,94.5 344.4,112.1 344.5,98.7 344.6,90.8 344.7,86.7 344.8,84.1 344.9,82.4 345.0,81.3 345.1,80.6 345.2,80.4 345.3,80.6 345.4,81.1 345.5,82.1 345.6,83.7 345.7,85.9 345.8,89.4 345.9,95.3 346.0,113.5 346.1,99.2 346.2,91.4 346.3,87.3 346.4,84.7 346.5,83.0 346.6,81.9 346.7,81.3 346.8,81.1 346.9,81.2 347.0,81.8 347.1,82.8 347.2,84.3 347.3,86.6 347.4,90.1 347.5,96.0 347.6,114.8 347.7,99.7 347.8,91.9 347.9,87.9 348.0,85.3 348.1,83.6 348.2,82.5 348.3,81.9 348.4,81.7 348.5,81.8 348.6,82.4 348.7,83.4 348.8,85.0 348.9,87.2 349.0,90.7 349.1,96.7 349.2,116.0 349.3,100.1 349.4,92.5 349.5,88.4 349.6,85.9 349.7,84.2 349.8,83.1 349.9,82.5 350.0,82.3 350.1,82.4 350.2,83.0 350.3,84.0 350.4,85.5 350.5,87.8 350.6,91.3 350.7,97.4 350.8,117.1 350.9,100.6 351.0,93.0 351.1,89.0 351.2,86.4 351.3,84.7 351.4,83.6 351.5,83.0 351.6,82.8 351.7,83.0 351.8,83.5 351.9,84.5 352.0,86.1 352.1,88.4 352.2,91.9 352.3,98.0 352.4,118.2 352.5,101.0 352.6,93.5 352.7,89.5 352.8,86.9 352.9,85.3 353.0,84.2 353.1,83.5 353.2,83.3 353.3,83.5 353.4,84.0 353.5,85.1 353.6,86.6 353.7,88.9 353.8,92.4 353.9,98.5 354.0,119.3 354.1,101.4 354.2,93.9 354.3,89.9 354.4,87.4 354.5,85.7 354.6,84.6 354.7,84.0 354.8,83.8 354.9,84.0 355.0,84.5 355.1,85.6 355.2,87.1 355.3,89.4 355.4,92.9 355.5,99.1 355.6,120.2 355.7,101.8 355.8,94.3 355.9,90.4 356.0,87.9 356.1,86.2 356.3,85.1 356.4,84.5 356.5,84.3 356.6,84.4 356.7,85.0 356.8,86.0 356.9,87.6 357.0,89.9 357.1,93.4 357.2,99.6 357.3,121.2 357.4,102.2 357.5,94.8 357.6,90.8 357.7,88.3 357.8,86.6 357.9,85.5 358.0,84.9 358.1,84.7 358.2,84.9 358.3,85.4 358.4,86.5 358.5,88.0 358.6,90.4 358.7,93.9 358.8,100.1 358.9,122.1 359.0,102.6 359.1,95.2 359.2,91.2 359.3,88.7 359.4,87.1 359.5,86.0 359.6,85.3 359.7,85.1 359.8,85.3 359.9,85.9 360.0,86.9 360.1,88.5 360.2,90.8 360.3,94.3 360.4,100.5 360.5,122.9 360.6,102.9 360.7,95.5 360.8,91.6 360.9,89.1 361.0,87.5 361.1,86.4 361.2,85.7 361.3,85.5 361.4,85.7 361.5,86.3 361.6,87.3 361.7,88.9 361.8,91.2 361.9,94.7 362.0,101.0 362.1,123.8 362.2,103.3 362.3,95.9 362.4,92.0 362.5,89.5 362.6,87.8 362.7,86.8 362.8,86.1 362.9,85.9 363.0,86.1 363.1,86.7 363.2,87.7 363.3,89.3 363.4,91.6 363.5,95.1 363.6,101.4 363.7,124.6 363.8,103.6 363.9,96.3 364.0,92.4 364.1,89.9 364.2,88.2 364.3,87.1 364.4,86.5 364.5,86.3 364.6,86.5 364.7,87.0 364.8,88.1 364.9,89.6 365.0,92.0 365.1,95.5 365.2,101.8 365.3,125.3 365.4,103.9 365.5,96.6 365.6,92.7 365.7,90.2 365.8,88.6 365.9,87.5 366.0,86.9 366.1,86.6 366.2,86.8 366.3,87.4 366.4,88.4 366.5,90.0 366.6,92.3 366.7,95.9 366.8,102.2 366.9,126.1 367.0,104.2 367.1,96.9 367.2,93.0 367.3,90.6 367.4,88.9 367.5,87.8 367.6,87.2 367.7,87.0 367.8,87.2 367.9,87.7 368.0,88.8 368.1,90.3 368.2,92.7 368.3,96.3 368.4,102.5 368.5,126.8 368.6,104.5 368.7,97.3 368.8,93.4 368.9,90.9 369.0,89.2 369.1,88.1 369.2,87.5 369.3,87.3 369.4,87.5 369.5,88.1 369.6,89.1 369.7,90.7 369.8,93.0 369.9,96.6 370.0,102.9 370.1,127.5 370.2,104.8 370.3,97.6 370.4,93.7 370.5,91.2 370.6,89.5 370.7,88.5 370.8,87.8 370.9,87.6 371.0,87.8 371.1,88.4 371.2,89.4 371.3,91.0 371.4,93.3 371.5,96.9 371.6,103.2 371.7,128.1 371.8,105.1 371.9,97.9 372.0,94.0 372.1,91.5 372.2,89.8 372.3,88.8 372.4,88.1 372.5,87.9 372.6,88.1 372.7,88.7 372.8,89.7 372.9,91.3 373.0,93.7 373.1,97.2 373.2,103.6 373.3,128.8 373.4,105.3 373.5,98.1 373.6,94.3 373.7,91.8 373.8,90.1 373.9,89.1 374.0,88.4 374.1,88.2 374.2,88.4 374.3,89.0 374.4,90.0 374.5,91.6 374.6,94.0 374.7,97.5 374.8,103.9 374.9,129.4 375.0,105.6 375.1,98.4 375.2,94.5 375.3,92.1 375.4,90.4 375.5,89.3 375.6,88.7 375.7,88.5 375.8,88.7 375.9,89.3 376.0,90.3 376.1,91.9 376.2,94.2 376.3,97.8 376.4,104.2 376.5,130.0 376.6,105.8 376.7,98.7 376.8,94.8 376.9,92.3 377.0,90.7 377.1,89.6 377.2,89.0 377.3,88.8 377.4,89.0 377.5,89.6 377.6,90.6 377.7,92.2 377.8,94.5 377.9,98.1 378.0,104.5 378.1,130.6 378.2,106.1 378.3,98.9 378.4,95.1 378.5,92.6 378.6,91.0 378.7,89.9 378.8,89.3 378.9,89.1 379.0,89.2 379.1,89.8 379.2,90.9 379.3,92.4 379.4,94.8 379.5,98.4 379.6,104.8 379.7,131.2 379.8,106.3 379.9,99.2 380.0,95.3 380.1,92.9 380.2,91.2 380.3,90.1 380.4,89.5 380.5,89.3 380.6,89.5 380.7,90.1 380.8,91.1 380.9,92.7 381.0,95.1 381.1,98.7 381.2,105.1 381.3,131.8 381.4,106.5 381.5,99.4 381.6,95.6 381.7,93.1 381.8,91.5 381.9,90.4 382.0,89.8 382.1,89.6 382.2,89.8 382.3,90.3 382.4,91.4 382.5,93.0 382.6,95.3 382.7,98.9 382.8,105.3 382.9,132.4 383.0,106.8 383.1,99.7 383.2,95.8 383.3,93.4 383.4,91.7 383.5,90.6 383.6,90.0 383.7,89.8 383.8,90.0 383.9,90.6 384.0,91.6 384.1,93.2 384.2,95.6 384.3,99.2 384.4,105.6 384.5,132.9 384.6,107.0 384.7,99.9 384.8,96.1 384.9,93.6 385.0,91.9 385.1,90.9 385.2,90.3 385.3,90.1 385.4,90.2 385.5,90.8 385.6,91.9 385.7,93.4 385.8,95.8 385.9,99.4 386.0,105.8 386.1,133.4 386.2,107.2 386.3,100.1 386.4,96.3 386.5,93.8 386.6,92.2 386.7,91.1 386.8,90.5 386.9,90.3 387.0,90.5 387.1,91.0 387.2,92.1 387.3,93.7 387.4,96.0 387.5,99.7 387.6,106.1 387.7,133.9 387.8,107.4 387.9,100.3 388.0,96.5 388.1,94.0 388.2,92.4 388.3,91.3 388.4,90.7 388.5,90.5 388.6,90.7 388.7,91.3 388.8,92.3 388.9,93.9 389.0,96.3 389.1,99.9 389.2,106.3 389.3,134.5 389.4,107.6 389.5,100.5 389.6,96.7 389.7,94.3 389.8,92.6 389.9,91.5 390.0,90.9 390.1,90.7 390.2,90.9 390.3,91.5 390.4,92.5 390.5,94.1 390.6,96.5 390.7,100.1 390.8,106.5 390.9,134.9 391.0,107.8 391.1,100.7 391.2,96.9 391.3,94.5 391.4,92.8 391.5,91.7 391.6,91.1 391.7,90.9 391.8,91.1 391.9,91.7 392.0,92.7 392.1,94.3 392.2,96.7 392.3,100.3 392.4,106.8 392.5,135.4 392.6,108.0 392.7,100.9 392.8,97.1 392.9,94.7 393.0,93.0 393.1,91.9 393.2,91.3 393.3,91.1 393.4,91.3 393.5,91.9 393.6,92.9 393.7,94.5 393.8,96.9 393.9,100.5 394.0,107.0 394.1,135.9 394.2,108.2 394.3,101.1 394.4,97.3 394.5,94.9 394.6,93.2 394.7,92.1 394.8,91.5 394.9,91.3 395.0,91.5 395.1,92.1 395.2,93.1 395.3,94.7 395.4,97.1 395.5,100.7 395.6,107.2 395.7,136.4 395.8,108.3 395.9,101.3 396.0,97.5 396.1,95.1 396.2,93.4 396.3,92.3 396.4,91.7 396.5,91.5 396.6,91.7 396.7,92.3 396.8,93.3 396.9,94.9 397.0,97.3 397.1,100.9 397.2,107.4 397.3,136.8 397.4,108.5 397.5,101.5 397.6,97.7 397.7,95.2 397.8,93.6 397.9,92.5 398.0,91.9 398.1,91.7 398.2,91.9 398.3,92.5 398.4,93.5 398.5,95.1 398.6,97.5 398.7,101.1 398.8,107.6 398.9,137.3 399.0,108.7 399.1,101.7 399.2,97.9 399.3,95.4 399.4,93.8 399.5,92.7 399.6,92.1 399.7,91.9 399.8,92.1 399.9,92.7 400.0,93.7 400.1,95.3 400.2,97.7 400.3,101.3 400.4,107.8 400.5,137.7 400.6,108.9 400.7,101.9 400.8,98.0 400.9,95.6 401.0,94.0 401.1,92.9 401.2,92.3 401.3,92.1 401.4,92.3 401.5,92.8 401.6,93.9 401.7,95.5 401.8,97.9 401.9,101.5 402.0,108.0 402.1,138.2 402.2,109.0 402.3,102.0 402.4,98.2 402.5,95.8 402.6,94.1 402.7,93.1 402.8,92.5 402.9,92.3 403.0,92.4 403.1,93.0 403.2,94.1 403.3,95.7 403.4,98.0 403.5,101.7 403.6,108.2 403.7,138.6 403.8,109.2 403.9,102.2 404.0,98.4 404.1,95.9 404.2,94.3 404.3,93.2 404.4,92.6 404.5,92.4 404.6,92.6 404.7,93.2 404.8,94.2 404.9,95.8 405.0,98.2 405.1,101.9 405.2,108.4 405.3,139.0 405.4,109.3 405.5,102.4 405.6,98.5 405.7,96.1 405.8,94.5 405.9,93.4 406.0,92.8 406.1,92.6 406.2,92.8 406.3,93.4 406.4,94.4 406.5,96.0 406.6,98.4 406.7,102.0 406.8,108.5 406.9,139.5 407.0,109.5 407.1,102.5 407.2,98.7 407.3,96.3 407.4,94.6 407.5,93.6 407.6,93.0 407.7,92.7 407.8,92.9 407.9,93.5 408.0,94.6 408.1,96.2 408.2,98.5 408.3,102.2 408.4,108.7 408.5,139.9 408.6,109.6 408.7,102.7 408.8,98.9 408.9,96.4 409.0,94.8 409.1,93.7 409.2,93.1 409.3,92.9 409.4,93.1 409.5,93.7 409.6,94.7 409.7,96.3 409.8,98.7 409.9,102.3 410.0,108.9 410.1,140.3 410.2,109.8 410.3,102.8 410.4,99.0 410.5,96.6 410.6,94.9 410.7,93.9 410.8,93.3 410.9,93.1 411.0,93.2 411.1,93.8 411.2,94.9 411.3,96.5 411.4,98.8 411.5,102.5 411.6,109.0 411.7,140.7 411.8,109.9 411.9,103.0 412.0,99.2 412.1,96.7 412.2,95.1 412.3,94.0 412.4,93.4 412.5,93.2 412.6,93.4 412.7,94.0 412.8,95.0 412.9,96.6 413.0,99.0 413.1,102.7 413.2,109.2 413.3,141.1 413.4,110.0 413.5,103.1 413.6,99.3 413.7,96.9 413.8,95.2 413.9,94.2 414.0,93.6 414.1,93.4 414.2,93.5 414.3,94.1 414.4,95.2 414.5,96.8 414.6,99.1 414.7,102.8 414.8,109.3 414.9,141.5 415.0,110.2 415.1,103.2 415.2,99.4 415.3,97.0 415.4,95.4 415.5,94.3 415.6,93.7 415.7,93.5 415.8,93.7 415.9,94.3 416.0,95.3 416.1,96.9 416.2,99.3 416.3,103.0 416.4,109.5 416.5,141.8 416.6,110.3 416.7,103.4 416.8,99.6 416.9,97.1 417.0,95.5 417.1,94.4 417.2,93.8 417.3,93.6 417.4,93.8 417.5,94.4 417.6,95.5 417.7,97.1 417.8,99.4 417.9,103.1 418.0,109.6 418.1,142.2 418.2,110.4 418.3,103.5 418.4,99.7 418.5,97.3 418.6,95.6 418.7,94.6 418.8,94.0 418.9,93.8 419.0,94.0 419.1,94.5 419.2,95.6 419.3,97.2 419.4,99.6 419.5,103.2 419.6,109.8 419.7,142.6 419.8,110.6 419.9,103.6 420.0,99.8 420.1,97.4 420.2,95.8 420.3,94.7 420.4,94.1 420.5,93.9 420.6,94.1 420.7,94.7 420.8,95.7 420.9,97.3 421.0,99.7 421.1,103.4 421.2,109.9 421.3,143.0 421.4,110.7 421.5,103.8 421.6,100.0 421.7,97.5 421.8,95.9 421.9,94.8 422.0,94.2 422.1,94.0 422.2,94.2 422.3,94.8 422.4,95.8 422.5,97.5 422.6,99.8 422.7,103.5 422.8,110.1 422.9,143.4 423.0,110.8 423.1,103.9 423.2,100.1 423.3,97.7 423.4,96.0 423.5,95.0 423.6,94.4 423.7,94.2 423.8,94.3 423.9,94.9 424.0,96.0 424.1,97.6 424.2,100.0 424.3,103.6 424.4,110.2 424.6,143.7 424.7,110.9 424.8,104.0 424.9,100.2 425.0,97.8 425.1,96.1 425.2,95.1 425.3,94.5 425.4,94.3 425.5,94.5 425.6,95.1 425.7,96.1 425.8,97.7 425.9,100.1 426.0,103.8 426.1,110.3 426.2,144.1 426.3,111.0 426.4,104.1 426.5,100.3 426.6,97.9 426.7,96.3 426.8,95.2 426.9,94.6 427.0,94.4 427.1,94.6 427.2,95.2 427.3,96.2 427.4,97.8 427.5,100.2 427.6,103.9 427.7,110.4 427.8,144.5 427.9,111.1 428.0,104.2 428.1,100.4 428.2,98.0 428.3,96.4 428.4,95.3 428.5,94.7 428.6,94.5 428.7,94.7 428.8,95.3 428.9,96.3 429.0,97.9 429.1,100.3 429.2,104.0 429.3,110.6 429.4,144.8 429.5,111.2 429.6,104.3 429.7,100.6 429.8,98.1 429.9,96.5 430.0,95.4 430.1,94.8 430.2,94.6 430.3,94.8 430.4,95.4 430.5,96.4 430.6,98.1 430.7,100.4 430.8,104.1 430.9,110.7 431.0,145.2 431.1,111.3 431.2,104.4 431.3,100.7 431.4,98.2 431.5,96.6 431.6,95.5 431.7,94.9 431.8,94.7 431.9,94.9 432.0,95.5 432.1,96.6 432.2,98.2 432.3,100.6 432.4,104.2 432.5,110.8 432.6,145.5 432.7,111.4 432.8,104.6 432.9,100.8 433.0,98.3 433.1,96.7 433.2,95.7 433.3,95.0 433.4,94.8 433.5,95.0 433.6,95.6 433.7,96.7 433.8,98.3 433.9,100.7 434.0,104.3 434.1,110.9 434.2,145.9 434.3,111.5 434.4,104.7 434.5,100.9 434.6,98.4 434.7,96.8 434.8,95.8 434.9,95.2 435.0,95.0 435.1,95.1 435.2,95.7 435.3,96.8 435.4,98.4 435.5,100.8 435.6,104.4 435.7,111.0 435.8,146.2 435.9,111.6 436.0,104.8 436.1,101.0 436.2,98.6 436.3,96.9 436.4,95.9 436.5,95.3 436.6,95.1 436.7,95.2 436.8,95.8 436.9,96.9 437.0,98.5 437.1,100.9 437.2,104.6 437.3,111.1 437.4,146.6 437.5,111.7 437.6,104.9 437.7,101.1 437.8,98.7 437.9,97.0 438.0,96.0 438.1,95.4 438.2,95.2 438.3,95.3 438.4,95.9 438.5,97.0 438.6,98.6 438.7,101.0 438.8,104.7 438.9,111.2 439.0,146.9 439.1,111.8 439.2,104.9 439.3,101.2 439.4,98.7 439.5,97.1 439.6,96.1 439.7,95.5 439.8,95.3 439.9,95.4 440.0,96.0 440.1,97.1 440.2,98.7 440.3,101.1 440.4,104.8 440.5,111.3 440.6,147.3 440.7,111.9 440.8,105.0 440.9,101.3 441.0,98.8 441.1,97.2 441.2,96.2 441.3,95.5 441.4,95.4 441.5,95.5 441.6,96.1 441.7,97.2 441.8,98.8 441.9,101.2 442.0,104.9 442.1,111.5 442.2,147.6 442.3,112.0 442.4,105.1 442.5,101.4 442.6,98.9 442.7,97.3 442.8,96.2 442.9,95.6 443.0,95.4 443.1,95.6 443.2,96.2 443.3,97.3 443.4,98.9 443.5,101.3 443.6,104.9 443.7,111.5 443.8,148.0 443.9,112.1 444.0,105.2 444.1,101.5 444.2,99.0 444.3,97.4 444.4,96.3 444.5,95.7 444.6,95.5 444.7,95.7 444.8,96.3 444.9,97.4 445.0,99.0 445.1,101.4 445.2,105.0 445.3,111.6 445.4,148.3 445.5,112.2 445.6,105.3 445.7,101.5 445.8,99.1 445.9,97.5 446.0,96.4 446.1,95.8 446.2,95.6 446.3,95.8 446.4,96.4 446.5,97.4 446.6,99.1 446.7,101.4 446.8,105.1 446.9,111.7 447.0,148.7 447.1,112.2 447.2,105.4 447.3,101.6 447.4,99.2 447.5,97.6 447.6,96.5 447.7,95.9 447.8,95.7 447.9,95.9 448.0,96.5 448.1,97.5 448.2,99.1 448.3,101.5 448.4,105.2 448.5,111.8 448.6,149.0 448.7,112.3 448.8,105.5 448.9,101.7 449.0,99.3 449.1,97.7 449.2,96.6 449.3,96.0 449.4,95.8 449.5,96.0 449.6,96.6 449.7,97.6 449.8,99.2 449.9,101.6 450.0,105.3 450.1,111.9 450.2,149.4 450.3,112.4 450.4,105.6 450.5,101.8 450.6,99.4 450.7,97.7 450.8,96.7 450.9,96.1 451.0,95.9 451.1,96.1 451.2,96.7 451.3,97.7 451.4,99.3 451.5,101.7 451.6,105.4 451.7,112.0 451.8,149.7 451.9,112.5 452.0,105.6 452.1,101.9 452.2,99.4 452.3,97.8 452.4,96.8 452.5,96.2 452.6,96.0 452.7,96.1 452.8,96.7 452.9,97.8 453.0,99.4 453.1,101.8 453.2,105.5 453.3,112.1 453.4,150.1 453.5,112.5 453.6,105.7 453.7,101.9 453.8,99.5 453.9,97.9 454.0,96.8 454.1,96.2 454.2,96.0 454.3,96.2 454.4,96.8 454.5,97.9 454.6,99.5 454.7,101.9 454.8,105.6 454.9,112.2 455.0,150.4 455.1,112.6 455.2,105.8 455.3,102.0 455.4,99.6 455.5,98.0 455.6,96.9 455.7,96.3 455.8,96.1 455.9,96.3 456.0,96.9 456.1,97.9 456.2,99.5 456.3,101.9 456.4,105.6 456.5,112.3 456.6,150.8 456.7,112.7 456.8,105.9 456.9,102.1 457.0,99.7 457.1,98.0 457.2,97.0 457.3,96.4 457.4,96.2 457.5,96.4 457.6,97.0 457.7,98.0 457.8,99.6 457.9,102.0 458.0,105.7 458.1,112.3 458.2,151.1 458.3,112.8 458.4,105.9 458.5,102.2 458.6,99.7 458.7,98.1 458.8,97.1 458.9,96.5 459.0,96.3 459.1,96.4 459.2,97.0 459.3,98.1 459.4,99.7 459.5,102.1 459.6,105.8 459.7,112.4 459.8,151.5 459.9,112.8 460.0,106.0 460.1,102.2 460.2,99.8 460.3,98.2 460.4,97.1 460.5,96.5 460.6,96.3 460.7,96.5 460.8,97.1 460.9,98.2 461.0,99.8 461.1,102.2 461.2,105.8 461.3,112.5 461.4,151.8 461.5,112.9 461.6,106.1 461.7,102.3 461.8,99.9 461.9,98.2 462.0,97.2 462.1,96.6 462.2,96.4 462.3,96.6 462.4,97.2 462.5,98.2 462.6,99.8 462.7,102.2 462.8,105.9 462.9,112.6 463.0,152.2 463.1,112.9 463.2,106.1 463.3,102.4 463.4,99.9 463.5,98.3 463.6,97.3 463.7,96.7 463.8,96.5 463.9,96.6 464.0,97.2 464.1,98.3 464.2,99.9 464.3,102.3 464.4,106.0 464.5,112.6 464.6,152.6 464.7,113.0 464.8,106.2 464.9,102.4 465.0,100.0 465.1,98.4 465.2,97.3 465.3,96.7 465.4,96.5 465.5,96.7 465.6,97.3 465.7,98.4 465.8,100.0 465.9,102.4 466.0,106.1 466.1,112.7 466.2,152.9 466.3,113.1 466.4,106.2 466.5,102.5 466.6,100.1 466.7,98.4 466.8,97.4 466.9,96.8 467.0,96.6 467.1,96.8 467.2,97.4 467.3,98.4 467.4,100.0 467.5,102.4 467.6,106.1 467.7,112.8 467.8,153.3 467.9,113.1 468.0,106.3 468.1,102.5 468.2,100.1 468.3,98.5 468.4,97.4 468.5,96.8 468.6,96.6 468.7,96.8 468.8,97.4 468.9,98.5 469.0,100.1 469.1,102.5 469.2,106.2 469.3,112.8 469.4,153.7 469.5,113.2 469.6,106.4 469.7,102.6 469.8,100.2 469.9,98.6 470.0,97.5 470.1,96.9 470.2,96.7 470.3,96.9 470.4,97.5 470.5,98.5 470.6,100.1 470.7,102.5 470.8,106.2 470.9,112.9 471.0,154.0 471.1,113.2 471.2,106.4 471.3,102.7 471.4,100.2 471.5,98.6 471.6,97.6 471.7,97.0 471.8,96.8 471.9,96.9 472.0,97.5 472.1,98.6 472.2,100.2 472.3,102.6 472.4,106.3 472.5,112.9 472.6,154.4 472.7,113.3 472.8,106.5 472.9,102.7 473.0,100.3 473.1,98.7 473.2,97.6 473.3,97.0 473.4,96.8 473.5,97.0 473.6,97.6 473.7,98.6 473.8,100.3 473.9,102.7 474.0,106.4 474.1,113.0 474.2,154.8 474.3,113.3 474.4,106.5 474.5,102.8 474.6,100.3 474.7,98.7 474.8,97.7 474.9,97.1 475.0,96.9 475.1,97.1 475.2,97.6 475.3,98.7 475.4,100.3 475.5,102.7 475.6,106.4 475.7,113.1 475.8,155.2 475.9,113.4 476.0,106.6 476.1,102.8 476.2,100.4 476.3,98.8 476.4,97.7 476.5,97.1 476.6,96.9 476.7,97.1 476.8,97.7 476.9,98.7 477.0,100.4 477.1,102.8 477.2,106.5 477.3,113.1 477.4,155.6 477.5,113.4 477.6,106.6 477.7,102.9 477.8,100.4 477.9,98.8 478.0,97.8 478.1,97.2 478.2,97.0 478.3,97.2 478.4,97.7 478.5,98.8 478.6,100.4 478.7,102.8 478.8,106.5 478.9,113.2 479.0,156.0 479.1,113.4 479.2,106.7 479.3,102.9 479.4,100.5 479.5,98.9 479.6,97.8 479.7,97.2 479.8,97.0 479.9,97.2 480.0,97.8 480.1,98.8 480.2,100.5 480.3,102.9 480.4,106.6 480.5,113.2 480.6,156.4 480.7,113.5 480.8,106.7 480.9,103.0 481.0,100.5 481.1,98.9 481.2,97.9 481.3,97.3 481.4,97.1 481.5,97.2 481.6,97.8 481.7,98.9 481.8,100.5 481.9,102.9 482.0,106.6 482.1,113.3 482.2,156.9 482.3,113.5 482.4,106.7 482.5,103.0 482.6,100.6 482.7,99.0 482.8,97.9 482.9,97.3 483.0,97.1 483.1,97.3 483.2,97.9 483.3,98.9 483.4,100.5 483.5,102.9 483.6,106.7 483.7,113.3 483.8,157.3 483.9,113.6 484.0,106.8 484.1,103.0 484.2,100.6 484.3,99.0 484.4,97.9 484.5,97.3 484.6,97.1 484.7,97.3 484.8,97.9 484.9,99.0 485.0,100.6 485.1,103.0 485.2,106.7 485.3,113.4 485.4,157.7 485.5,113.6 485.6,106.8 485.7,103.1 485.8,100.7 485.9,99.0 486.0,98.0 486.1,97.4 486.2,97.2 486.3,97.4 486.4,98.0 486.5,99.0 486.6,100.6 486.7,103.0 486.8,106.7 486.9,113.4 487.0,158.2 487.1,113.6 487.2,106.9 487.3,103.1 487.4,100.7 487.5,99.1 487.6,98.0 487.7,97.4 487.8,97.2 487.9,97.4 488.0,98.0 488.1,99.1 488.2,100.7 488.3,103.1 488.4,106.8 488.5,113.5 488.6,158.7 488.7,113.7 488.8,106.9 488.9,103.1 489.0,100.7 489.1,99.1 489.2,98.1 489.3,97.5 489.4,97.3 489.5,97.4 489.6,98.0 489.7,99.1 489.8,100.7 489.9,103.1 490.0,106.8 490.1,113.5 490.2,159.2 490.3,113.7 490.4,106.9 490.5,103.2 490.6,100.8 490.7,99.1 490.8,98.1 490.9,97.5 491.0,97.3 491.1,97.5 491.2,98.1 491.3,99.1 491.4,100.7 491.5,103.1 491.6,106.9 491.7,113.5 491.8,159.7 491.9,113.7 492.0,107.0 492.1,103.2 492.2,100.8 492.3,99.2 492.4,98.1 492.5,97.5 492.6,97.3 492.7,97.5 492.9,98.1 493.0,99.2 493.1,100.8 493.2,103.2 493.3,106.9 493.4,113.6 493.5,160.2 493.6,113.8 493.7,107.0 493.8,103.2 493.9,100.8 494.0,99.2 494.1,98.2 494.2,97.6 494.3,97.4 494.4,97.6 494.5,98.1 494.6,99.2 494.7,100.8 494.8,103.2 494.9,106.9 495.0,113.6 495.1,160.7 495.2,113.8 495.3,107.0 495.4,103.3 495.5,100.9 495.6,99.2 495.7,98.2 495.8,97.6 495.9,97.4 496.0,97.6 496.1,98.2 496.2,99.2 496.3,100.8 496.4,103.2 496.5,107.0 496.6,113.6 496.7,161.3 496.8,113.8 496.9,107.0 497.0,103.3 497.1,100.9 497.2,99.3 497.3,98.2 497.4,97.6 497.5,97.4 497.6,97.6 497.7,98.2 497.8,99.3 497.9,100.9 498.0,103.3 498.1,107.0 498.2,113.7 498.3,161.9 498.4,113.8 498.5,107.1 498.6,103.3 498.7,100.9 498.8,99.3 498.9,98.2 499.0,97.6 499.1,97.4 499.2,97.6 499.3,98.2 499.4,99.3 499.5,100.9 499.6,103.3 499.7,107.0 499.8,113.7 499.9,162.5 500.0,113.9 500.1,107.1 500.2,103.4 500.3,100.9 500.4,99.3 500.5,98.3 500.6,97.7 500.7,97.5 500.8,97.7 500.9,98.3 501.0,99.3 501.1,100.9 501.2,103.3 501.3,107.0 501.4,113.7 501.5,163.1 501.6,113.9 501.7,107.1 501.8,103.4 501.9,101.0 502.0,99.3 502.1,98.3 502.2,97.7 502.3,97.5 502.4,97.7 502.5,98.3 502.6,99.3 502.7,101.0 502.8,103.4 502.9,107.1 503.0,113.8 503.1,163.8 503.2,113.9 503.3,107.1 503.4,103.4 503.5,101.0 503.6,99.4 503.7,98.3 503.8,97.7 503.9,97.5 504.0,97.7 504.1,98.3 504.2,99.4 504.3,101.0 504.4,103.4 504.5,107.1 504.6,113.8 504.7,164.5 504.8,113.9 504.9,107.2 505.0,103.4 505.1,101.0 505.2,99.4 505.3,98.3 505.4,97.7 505.5,97.5 505.6,97.7 505.7,98.3 505.8,99.4 505.9,101.0 506.0,103.4 506.1,107.1 506.2,113.8 506.3,165.3 506.4,113.9 506.5,107.2 506.6,103.4 506.7,101.0 506.8,99.4 506.9,98.4 507.0,97.8 507.1,97.6 507.2,97.8 507.3,98.3 507.4,99.4 507.5,101.0 507.6,103.4 507.7,107.1 507.8,113.8 507.9,166.0 508.0,113.9 508.1,107.2 508.2,103.5 508.3,101.0 508.4,99.4 508.5,98.4 508.6,97.8 508.7,97.6 508.8,97.8 508.9,98.4 509.0,99.4 509.1,101.0 509.2,103.4 509.3,107.2 509.4,113.9 509.5,166.0 509.6,114.0 509.7,107.2 509.8,103.5 509.9,101.1 510.0,99.4 510.1,98.4 510.2,97.8 510.3,97.6 510.4,97.8 510.5,98.4 510.6,99.4 510.7,101.1 510.8,103.5 510.9,107.2 511.0,113.9 511.1,166.0 511.2,114.0 511.3,107.2 511.4,103.5 511.5,101.1 511.6,99.5 511.7,98.4 511.8,97.8 511.9,97.6 512.0,97.8 512.1,98.4 512.2,99.5 512.3,101.1 512.4,103.5 512.5,107.2 512.6,113.9 512.7,166.0 512.8,114.0 512.9,107.2 513.0,103.5 513.1,101.1 513.2,99.5 513.3,98.4 513.4,97.8 513.5,97.6 513.6,97.8 513.7,98.4 513.8,99.5 513.9,101.1 514.0,103.5 514.1,107.2 514.2,113.9 514.3,166.0 514.4,114.0 514.5,107.2 514.6,103.5 514.7,101.1 514.8,99.5 514.9,98.4 515.0,97.8 515.1,97.6 515.2,97.8 515.3,98.4 515.4,99.5 515.5,101.1 515.6,103.5 515.7,107.2 515.8,113.9 515.9,166.0 516.0,114.0 516.1,107.3 516.2,103.5 516.3,101.1 516.4,99.5 516.5,98.4 516.6,97.8 516.7,97.6 516.8,97.8 516.9,98.4 517.0,99.5 517.1,101.1 517.2,103.5 517.3,107.2 517.4,113.9 517.5,166.0 517.6,114.0 517.7,107.3 517.8,103.5 517.9,101.1 518.0,99.5 518.1,98.4 518.2,97.8 518.3,97.7 518.4,97.8 518.5,98.4 518.6,99.5 518.7,101.1 518.8,103.5 518.9,107.2 519.0,114.0 519.1,166.0 519.2,114.0 519.3,107.3 519.4,103.5 519.5,101.1 519.6,99.5 519.7,98.5 519.8,97.9 519.9,97.7 520.0,97.9 520.1,98.5 520.2,99.5 520.3,101.1 520.4,103.5 520.5,107.3 520.6,114.0 520.7,166.0 520.8,114.0 520.9,107.3 521.0,103.5 521.1,101.1 521.2,99.5 521.3,98.5 521.4,97.9 521.5,97.7 521.6,97.9 521.7,98.5 521.8,99.5 521.9,101.1 522.0,103.5 522.1,107.3 522.2,114.0 522.3,166.0 522.4,114.0 522.5,107.3 522.6,103.5 522.7,101.1 522.8,99.5 522.9,98.5 523.0,97.9 523.1,97.7 523.2,97.9 523.3,98.5 523.4,99.5 523.5,101.1 523.6,103.5 523.7,107.3 523.8,114.0 523.9,166.0 524.0,114.0 524.1,107.3 524.2,103.5 524.3,101.1 524.4,99.5 524.5,98.5 524.6,97.9 524.7,97.7 524.8,97.9 524.9,98.5 525.0,99.5 525.1,101.1 525.2,103.5 525.3,107.3 525.4,114.0 525.5,166.0 525.6,114.0 525.7,107.3 525.8,103.5 525.9,101.1 526.0,99.5 526.1,98.5 526.2,97.9 526.3,97.7 526.4,97.9 526.5,98.5 526.6,99.5 526.7,101.1 526.8,103.5 526.9,107.3 527.0,114.0" fill="none" stroke="#4a90d9" stroke-width="1.2" stroke-linejoin="round"/>
  <text x="154.5" y="190" text-anchor="middle" font-size="8" fill="#6b7280">n / N</text>
  <text x="424.5" y="190" text-anchor="middle" font-size="8" fill="#6b7280">Normalized frequency (× Fₛ)</text>
</svg>
