<svg xmlns="http://www.w3.org/2000/svg" viewBox="0 0 560 190" width="560" height="190" style="font-family:system-ui,-apple-system,sans-serif">
  <rect width="560" height="190" fill="#fafafa" rx="6"/>
  <line x1="52" y1="152.0" x2="257" y2="152.0" stroke="#e5e7eb" stroke-width="0.5"/>
  <text x="48" y="155.0" text-anchor="end" font-size="7.5" fill="#6b7280">0</text>
  <line x1="52" y1="82.0" x2="257" y2="82.0" stroke="#e5e7eb" stroke-width="0.5"/>
  <text x="48" y="85.0" text-anchor="end" font-size="7.5" fill="#6b7280">0.5</text>
  <line x1="52" y1="12.0" x2="257" y2="12.0" stroke="#e5e7eb" stroke-width="0.5"/>
  <text x="48" y="15.0" text-anchor="end" font-size="7.5" fill="#6b7280">1</text>
  <line x1="52.0" y1="12" x2="52.0" y2="152" stroke="#e5e7eb" stroke-width="0.5"/>
  <text x="52.0" y="164" text-anchor="middle" font-size="7.5" fill="#6b7280">0</text>
  <line x1="154.5" y1="12" x2="154.5" y2="152" stroke="#e5e7eb" stroke-width="0.5"/>
  <text x="154.5" y="164" text-anchor="middle" font-size="7.5" fill="#6b7280">0.5</text>
  <line x1="257.0" y1="12" x2="257.0" y2="152" stroke="#e5e7eb" stroke-width="0.5"/>
  <text x="257.0" y="164" text-anchor="middle" font-size="7.5" fill="#6b7280">1</text>
  <line x1="52" y1="12" x2="52" y2="152" stroke="#d1d5db" stroke-width="0.75"/>
  <line x1="52" y1="152" x2="257" y2="152" stroke="#d1d5db" stroke-width="0.75"/>
  <path d="M52.0,152.0 52.0,138.0 52.8,137.8 53.6,137.6 54.4,137.4 55.2,137.2 56.0,137.0 56.8,136.7 57.6,136.5 58.4,136.3 59.2,136.0 60.0,135.8 60.8,135.6 61.6,135.3 62.5,135.0 63.3,134.8 64.1,134.5 64.9,134.2 65.7,134.0 66.5,133.7 67.3,133.4 68.1,133.1 68.9,132.8 69.7,132.5 70.5,132.1 71.3,131.8 72.1,131.5 72.9,131.1 73.7,130.8 74.5,130.4 75.3,130.0 76.1,129.6 76.9,129.3 77.7,128.9 78.5,128.4 79.3,128.0 80.1,127.6 80.9,127.2 81.7,126.7 82.5,126.2 83.4,125.8 84.2,125.3 85.0,124.8 85.8,124.3 86.6,123.7 87.4,123.2 88.2,122.6 89.0,122.1 89.8,121.5 90.6,120.9 91.4,120.3 92.2,119.6 93.0,119.0 93.8,118.3 94.6,117.6 95.4,116.9 96.2,116.2 97.0,115.4 97.8,114.7 98.6,113.9 99.4,113.1 100.2,112.3 101.0,111.4 101.8,110.5 102.6,109.6 103.5,108.7 104.3,107.7 105.1,106.8 105.9,105.7 106.7,104.7 107.5,103.6 108.3,102.5 109.1,101.4 109.9,100.3 110.7,99.1 111.5,97.8 112.3,96.6 113.1,95.3 113.9,94.0 114.7,92.6 115.5,91.2 116.3,89.8 117.1,88.3 117.9,86.8 118.7,85.2 119.5,83.6 120.3,82.0 121.1,80.3 121.9,78.6 122.7,76.9 123.5,75.1 124.4,73.3 125.2,71.4 126.0,69.5 126.8,67.6 127.6,65.7 128.4,63.7 129.2,61.6 130.0,59.6 130.8,57.5 131.6,55.4 132.4,53.3 133.2,51.2 134.0,49.1 134.8,46.9 135.6,44.8 136.4,42.6 137.2,40.5 138.0,38.4 138.8,36.3 139.6,34.3 140.4,32.3 141.2,30.3 142.0,28.4 142.8,26.6 143.6,24.8 144.5,23.1 145.3,21.6 146.1,20.1 146.9,18.7 147.7,17.4 148.5,16.2 149.3,15.2 150.1,14.3 150.9,13.6 151.7,12.9 152.5,12.5 153.3,12.2 154.1,12.0 154.9,12.0 155.7,12.2 156.5,12.5 157.3,12.9 158.1,13.6 158.9,14.3 159.7,15.2 160.5,16.2 161.3,17.4 162.1,18.7 162.9,20.1 163.7,21.6 164.5,23.1 165.4,24.8 166.2,26.6 167.0,28.4 167.8,30.3 168.6,32.3 169.4,34.3 170.2,36.3 171.0,38.4 171.8,40.5 172.6,42.6 173.4,44.8 174.2,46.9 175.0,49.1 175.8,51.2 176.6,53.3 177.4,55.4 178.2,57.5 179.0,59.6 179.8,61.6 180.6,63.7 181.4,65.7 182.2,67.6 183.0,69.5 183.8,71.4 184.6,73.3 185.5,75.1 186.3,76.9 187.1,78.6 187.9,80.3 188.7,82.0 189.5,83.6 190.3,85.2 191.1,86.8 191.9,88.3 192.7,89.8 193.5,91.2 194.3,92.6 195.1,94.0 195.9,95.3 196.7,96.6 197.5,97.8 198.3,99.1 199.1,100.3 199.9,101.4 200.7,102.5 201.5,103.6 202.3,104.7 203.1,105.7 203.9,106.8 204.7,107.7 205.5,108.7 206.4,109.6 207.2,110.5 208.0,111.4 208.8,112.3 209.6,113.1 210.4,113.9 211.2,114.7 212.0,115.4 212.8,116.2 213.6,116.9 214.4,117.6 215.2,118.3 216.0,119.0 216.8,119.6 217.6,120.3 218.4,120.9 219.2,121.5 220.0,122.1 220.8,122.6 221.6,123.2 222.4,123.7 223.2,124.3 224.0,124.8 224.8,125.3 225.6,125.8 226.5,126.2 227.3,126.7 228.1,127.2 228.9,127.6 229.7,128.0 230.5,128.4 231.3,128.9 232.1,129.3 232.9,129.6 233.7,130.0 234.5,130.4 235.3,130.8 236.1,131.1 236.9,131.5 237.7,131.8 238.5,132.1 239.3,132.5 240.1,132.8 240.9,133.1 241.7,133.4 242.5,133.7 243.3,134.0 244.1,134.2 244.9,134.5 245.7,134.8 246.5,135.0 247.4,135.3 248.2,135.6 249.0,135.8 249.8,136.0 250.6,136.3 251.4,136.5 252.2,136.7 253.0,137.0 253.8,137.2 254.6,137.4 255.4,137.6 256.2,137.8 257.0,138.0 L257.0,152.0 Z" fill="#4a90d9" fill-opacity="0.06"/>
  <polyline points="52.0,138.0 52.8,137.8 53.6,137.6 54.4,137.4 55.2,137.2 56.0,137.0 56.8,136.7 57.6,136.5 58.4,136.3 59.2,136.0 60.0,135.8 60.8,135.6 61.6,135.3 62.5,135.0 63.3,134.8 64.1,134.5 64.9,134.2 65.7,134.0 66.5,133.7 67.3,133.4 68.1,133.1 68.9,132.8 69.7,132.5 70.5,132.1 71.3,131.8 72.1,131.5 72.9,131.1 73.7,130.8 74.5,130.4 75.3,130.0 76.1,129.6 76.9,129.3 77.7,128.9 78.5,128.4 79.3,128.0 80.1,127.6 80.9,127.2 81.7,126.7 82.5,126.2 83.4,125.8 84.2,125.3 85.0,124.8 85.8,124.3 86.6,123.7 87.4,123.2 88.2,122.6 89.0,122.1 89.8,121.5 90.6,120.9 91.4,120.3 92.2,119.6 93.0,119.0 93.8,118.3 94.6,117.6 95.4,116.9 96.2,116.2 97.0,115.4 97.8,114.7 98.6,113.9 99.4,113.1 100.2,112.3 101.0,111.4 101.8,110.5 102.6,109.6 103.5,108.7 104.3,107.7 105.1,106.8 105.9,105.7 106.7,104.7 107.5,103.6 108.3,102.5 109.1,101.4 109.9,100.3 110.7,99.1 111.5,97.8 112.3,96.6 113.1,95.3 113.9,94.0 114.7,92.6 115.5,91.2 116.3,89.8 117.1,88.3 117.9,86.8 118.7,85.2 119.5,83.6 120.3,82.0 121.1,80.3 121.9,78.6 122.7,76.9 123.5,75.1 124.4,73.3 125.2,71.4 126.0,69.5 126.8,67.6 127.6,65.7 128.4,63.7 129.2,61.6 130.0,59.6 130.8,57.5 131.6,55.4 132.4,53.3 133.2,51.2 134.0,49.1 134.8,46.9 135.6,44.8 136.4,42.6 137.2,40.5 138.0,38.4 138.8,36.3 139.6,34.3 140.4,32.3 141.2,30.3 142.0,28.4 142.8,26.6 143.6,24.8 144.5,23.1 145.3,21.6 146.1,20.1 146.9,18.7 147.7,17.4 148.5,16.2 149.3,15.2 150.1,14.3 150.9,13.6 151.7,12.9 152.5,12.5 153.3,12.2 154.1,12.0 154.9,12.0 155.7,12.2 156.5,12.5 157.3,12.9 158.1,13.6 158.9,14.3 159.7,15.2 160.5,16.2 161.3,17.4 162.1,18.7 162.9,20.1 163.7,21.6 164.5,23.1 165.4,24.8 166.2,26.6 167.0,28.4 167.8,30.3 168.6,32.3 169.4,34.3 170.2,36.3 171.0,38.4 171.8,40.5 172.6,42.6 173.4,44.8 174.2,46.9 175.0,49.1 175.8,51.2 176.6,53.3 177.4,55.4 178.2,57.5 179.0,59.6 179.8,61.6 180.6,63.7 181.4,65.7 182.2,67.6 183.0,69.5 183.8,71.4 184.6,73.3 185.5,75.1 186.3,76.9 187.1,78.6 187.9,80.3 188.7,82.0 189.5,83.6 190.3,85.2 191.1,86.8 191.9,88.3 192.7,89.8 193.5,91.2 194.3,92.6 195.1,94.0 195.9,95.3 196.7,96.6 197.5,97.8 198.3,99.1 199.1,100.3 199.9,101.4 200.7,102.5 201.5,103.6 202.3,104.7 203.1,105.7 203.9,106.8 204.7,107.7 205.5,108.7 206.4,109.6 207.2,110.5 208.0,111.4 208.8,112.3 209.6,113.1 210.4,113.9 211.2,114.7 212.0,115.4 212.8,116.2 213.6,116.9 214.4,117.6 215.2,118.3 216.0,119.0 216.8,119.6 217.6,120.3 218.4,120.9 219.2,121.5 220.0,122.1 220.8,122.6 221.6,123.2 222.4,123.7 223.2,124.3 224.0,124.8 224.8,125.3 225.6,125.8 226.5,126.2 227.3,126.7 228.1,127.2 228.9,127.6 229.7,128.0 230.5,128.4 231.3,128.9 232.1,129.3 232.9,129.6 233.7,130.0 234.5,130.4 235.3,130.8 236.1,131.1 236.9,131.5 237.7,131.8 238.5,132.1 239.3,132.5 240.1,132.8 240.9,133.1 241.7,133.4 242.5,133.7 243.3,134.0 244.1,134.2 244.9,134.5 245.7,134.8 246.5,135.0 247.4,135.3 248.2,135.6 249.0,135.8 249.8,136.0 250.6,136.3 251.4,136.5 252.2,136.7 253.0,137.0 253.8,137.2 254.6,137.4 255.4,137.6 256.2,137.8 257.0,138.0" fill="none" stroke="#4a90d9" stroke-width="1.2" stroke-linejoin="round"/>
  <line x1="322" y1="12.0" x2="527" y2="12.0" stroke="#e5e7eb" stroke-width="0.5"/>
  <text x="318" y="15.0" text-anchor="end" font-size="7.5" fill="#6b7280">0</text>
  <line x1="322" y1="58.7" x2="527" y2="58.7" stroke="#e5e7eb" stroke-width="0.5"/>
  <text x="318" y="61.7" text-anchor="end" font-size="7.5" fill="#6b7280">-40</text>
  <line x1="322" y1="105.3" x2="527" y2="105.3" stroke="#e5e7eb" stroke-width="0.5"/>
  <text x="318" y="108.3" text-anchor="end" font-size="7.5" fill="#6b7280">-80</text>
  <line x1="322" y1="152.0" x2="527" y2="152.0" stroke="#e5e7eb" stroke-width="0.5"/>
  <text x="318" y="155.0" text-anchor="end" font-size="7.5" fill="#6b7280">-120</text>
  <line x1="322.0" y1="12" x2="322.0" y2="152" stroke="#e5e7eb" stroke-width="0.5"/>
  <text x="322.0" y="164" text-anchor="middle" font-size="7.5" fill="#6b7280">0</text>
  <line x1="363.0" y1="12" x2="363.0" y2="152" stroke="#e5e7eb" stroke-width="0.5"/>
  <text x="363.0" y="164" text-anchor="middle" font-size="7.5" fill="#6b7280">0.1</text>
  <line x1="404.0" y1="12" x2="404.0" y2="152" stroke="#e5e7eb" stroke-width="0.5"/>
  <text x="404.0" y="164" text-anchor="middle" font-size="7.5" fill="#6b7280">0.2</text>
  <line x1="445.0" y1="12" x2="445.0" y2="152" stroke="#e5e7eb" stroke-width="0.5"/>
  <text x="445.0" y="164" text-anchor="middle" font-size="7.5" fill="#6b7280">0.3</text>
  <line x1="486.0" y1="12" x2="486.0" y2="152" stroke="#e5e7eb" stroke-width="0.5"/>
  <text x="486.0" y="164" text-anchor="middle" font-size="7.5" fill="#6b7280">0.4</text>
  <line x1="527.0" y1="12" x2="527.0" y2="152" stroke="#e5e7eb" stroke-width="0.5"/>
  <text x="527.0" y="164" text-anchor="middle" font-size="7.5" fill="#6b7280">0.5</text>
  <line x1="322" y1="12" x2="322" y2="152" stroke="#d1d5db" stroke-width="0.75"/>
  <line x1="322" y1="152" x2="527" y2="152" stroke="#d1d5db" stroke-width="0.75"/>
  <polyline points="322.0,12.0 322.1,12.0 322.2,12.1 322.3,12.3 322.4,12.5 322.5,12.8 322.6,13.1 322.7,13.5 322.8,13.9 322.9,14.5 323.0,15.0 323.1,15.7 323.2,16.4 323.3,17.1 323.4,17.9 323.5,18.8 323.6,19.7 323.7,20.6 323.8,21.6 323.9,22.5 324.0,23.5 324.1,24.6 324.2,25.5 324.3,26.5 324.4,27.4 324.5,28.2 324.6,28.9 324.7,29.6 324.8,30.1 324.9,30.6 325.0,30.9 325.1,31.2 325.2,31.4 325.3,31.6 325.4,31.8 325.5,32.0 325.6,32.1 325.7,32.4 325.8,32.6 325.9,33.0 326.0,33.4 326.1,33.9 326.2,34.5 326.3,35.2 326.4,36.0 326.5,36.9 326.6,38.0 326.7,39.2 326.8,40.6 326.9,42.1 327.0,43.9 327.1,45.7 327.2,47.8 327.3,50.1 327.4,52.4 327.5,54.9 327.6,57.1 327.7,59.0 327.8,60.1 327.9,60.3 328.0,59.6 328.1,58.2 328.2,56.6 328.3,55.0 328.4,53.4 328.5,52.0 328.6,50.9 328.7,49.9 328.8,49.1 328.9,48.6 329.0,48.2 329.1,48.1 329.2,48.2 329.3,48.5 329.4,49.1 329.5,49.9 329.6,51.0 329.7,52.5 329.8,54.4 329.9,56.9 330.0,60.3 330.1,65.4 330.2,75.6 330.3,81.0 330.4,68.6 330.5,63.9 330.6,61.3 330.7,59.8 330.8,59.1 330.9,59.0 331.0,59.4 331.1,60.5 331.2,62.2 331.3,65.1 331.4,69.9 331.5,81.1 331.6,80.0 331.7,69.2 331.8,64.2 331.9,61.2 332.0,59.1 332.1,57.6 332.2,56.7 332.3,56.2 332.4,56.0 332.5,56.2 332.6,56.7 332.7,57.6 332.8,59.0 332.9,61.0 333.0,63.8 333.1,68.2 333.2,76.5 333.3,90.1 333.4,72.6 333.5,66.9 333.6,63.6 333.7,61.5 333.8,60.2 333.9,59.4 334.0,59.1 334.1,59.2 334.2,59.7 334.3,60.7 334.4,62.2 334.5,64.5 334.6,68.0 334.7,74.0 334.8,92.0 334.9,78.1 335.0,70.1 335.1,66.0 335.2,63.4 335.3,61.7 335.4,60.5 335.5,59.9 335.6,59.6 335.7,59.8 335.8,60.3 335.9,61.3 336.0,62.8 336.1,65.0 336.2,68.2 336.3,73.6 336.4,86.6 336.5,81.8 336.6,72.3 336.7,67.8 336.8,65.0 336.9,63.2 337.0,62.0 337.1,61.3 337.2,61.0 337.3,61.2 337.4,61.7 337.5,62.7 337.6,64.2 337.7,66.5 337.8,69.9 337.9,75.6 338.0,91.4 338.1,81.1 338.2,72.7 338.3,68.4 338.4,65.7 338.5,64.0 338.6,62.8 338.7,62.2 338.8,61.9 338.9,62.1 339.0,62.6 339.1,63.6 339.2,65.1 339.3,67.4 339.4,70.8 339.5,76.5 339.6,92.1 339.7,82.2 339.8,73.6 339.9,69.4 340.0,66.7 340.1,64.9 340.2,63.8 340.3,63.1 340.4,62.9 340.5,63.0 340.6,63.6 340.7,64.6 340.8,66.1 340.9,68.4 341.0,71.8 341.1,77.6 341.2,94.3 341.3,82.6 341.4,74.3 341.5,70.1 341.6,67.5 341.7,65.7 341.8,64.6 341.9,63.9 342.0,63.7 342.1,63.8 342.2,64.4 342.3,65.4 342.4,66.9 342.5,69.2 342.6,72.7 342.7,78.6 342.8,95.7 342.9,83.2 343.0,75.0 343.1,70.9 343.2,68.2 343.3,66.5 343.4,65.3 343.5,64.7 343.6,64.5 343.7,64.6 343.8,65.2 343.9,66.2 344.0,67.7 344.1,70.0 344.2,73.5 344.3,79.4 344.4,97.3 344.5,83.7 344.6,75.7 344.7,71.5 344.8,68.9 344.9,67.2 345.0,66.0 345.1,65.4 345.2,65.2 345.3,65.3 345.4,65.9 345.5,66.9 345.6,68.5 345.7,70.8 345.8,74.3 345.9,80.3 346.0,98.7 346.1,84.2 346.2,76.3 346.3,72.2 346.4,69.6 346.5,67.8 346.6,66.7 346.7,66.1 346.8,65.8 346.9,66.0 347.0,66.6 347.1,67.6 347.2,69.1 347.3,71.5 347.4,75.0 347.5,81.0 347.6,100.0 347.7,84.7 347.8,76.9 347.9,72.8 348.0,70.2 348.1,68.4 348.2,67.3 348.3,66.7 348.4,66.5 348.5,66.6 348.6,67.2 348.7,68.2 348.8,69.8 348.9,72.1 349.0,75.6 349.1,81.7 349.2,101.3 349.3,85.2 349.4,77.4 349.5,73.3 349.6,70.7 349.7,69.0 349.8,67.9 349.9,67.3 350.0,67.0 350.1,67.2 350.2,67.8 350.3,68.8 350.4,70.4 350.5,72.7 350.6,76.2 350.7,82.4 350.8,102.4 350.9,85.6 351.0,77.9 351.1,73.9 351.2,71.3 351.3,69.6 351.4,68.5 351.5,67.8 351.6,67.6 351.7,67.8 351.8,68.3 351.9,69.4 352.0,70.9 352.1,73.3 352.2,76.8 352.3,83.0 352.4,103.5 352.5,86.1 352.6,78.4 352.7,74.4 352.8,71.8 352.9,70.1 353.0,69.0 353.1,68.3 353.2,68.1 353.3,68.3 353.4,68.9 353.5,69.9 353.6,71.5 353.7,73.8 353.8,77.4 353.9,83.6 354.0,104.6 354.1,86.5 354.2,78.9 354.3,74.8 354.4,72.3 354.5,70.6 354.6,69.5 354.7,68.8 354.8,68.6 354.9,68.8 355.0,69.4 355.1,70.4 355.2,72.0 355.3,74.3 355.4,77.9 355.5,84.1 355.6,105.6 355.7,86.9 355.8,79.3 355.9,75.3 356.0,72.7 356.1,71.0 356.3,69.9 356.4,69.3 356.5,69.1 356.6,69.3 356.7,69.8 356.8,70.9 356.9,72.4 357.0,74.8 357.1,78.4 357.2,84.6 357.3,106.5 357.4,87.3 357.5,79.7 357.6,75.7 357.7,73.2 357.8,71.5 357.9,70.4 358.0,69.7 358.1,69.5 358.2,69.7 358.3,70.3 358.4,71.3 358.5,72.9 358.6,75.3 358.7,78.8 358.8,85.1 358.9,107.4 359.0,87.6 359.1,80.1 359.2,76.2 359.3,73.6 359.4,71.9 359.5,70.8 359.6,70.2 359.7,70.0 359.8,70.1 359.9,70.7 360.0,71.7 360.1,73.3 360.2,75.7 360.3,79.3 360.4,85.6 360.5,108.3 360.6,88.0 360.7,80.5 360.8,76.5 360.9,74.0 361.0,72.3 361.1,71.2 361.2,70.6 361.3,70.4 361.4,70.5 361.5,71.1 361.6,72.2 361.7,73.8 361.8,76.1 361.9,79.7 362.0,86.0 362.1,109.1 362.2,88.3 362.3,80.9 362.4,76.9 362.5,74.4 362.6,72.7 362.7,71.6 362.8,71.0 362.9,70.8 363.0,70.9 363.1,71.5 363.2,72.6 363.3,74.1 363.4,76.5 363.5,80.1 363.6,86.5 363.7,110.0 363.8,88.7 363.9,81.3 364.0,77.3 364.1,74.8 364.2,73.1 364.3,72.0 364.4,71.3 364.5,71.1 364.6,71.3 364.7,71.9 364.8,72.9 364.9,74.5 365.0,76.9 365.1,80.5 365.2,86.9 365.3,110.7 365.4,89.0 365.5,81.6 365.6,77.7 365.7,75.1 365.8,73.4 365.9,72.3 366.0,71.7 366.1,71.5 366.2,71.7 366.3,72.3 366.4,73.3 366.5,74.9 366.6,77.3 366.7,80.9 366.8,87.3 366.9,111.5 367.0,89.3 367.1,81.9 367.2,78.0 367.3,75.5 367.4,73.8 367.5,72.7 367.6,72.1 367.7,71.8 367.8,72.0 367.9,72.6 368.0,73.6 368.1,75.2 368.2,77.6 368.3,81.2 368.4,87.6 368.5,112.2 368.6,89.6 368.7,82.3 368.8,78.3 368.9,75.8 369.0,74.1 369.1,73.0 369.2,72.4 369.3,72.2 369.4,72.4 369.5,72.9 369.6,74.0 369.7,75.6 369.8,78.0 369.9,81.6 370.0,88.0 370.1,112.9 370.2,89.9 370.3,82.6 370.4,78.6 370.5,76.1 370.6,74.4 370.7,73.3 370.8,72.7 370.9,72.5 371.0,72.7 371.1,73.3 371.2,74.3 371.3,75.9 371.4,78.3 371.5,81.9 371.6,88.3 371.7,113.6 371.8,90.2 371.9,82.9 372.0,78.9 372.1,76.4 372.2,74.7 372.3,73.6 372.4,73.0 372.5,72.8 372.6,73.0 372.7,73.6 372.8,74.6 372.9,76.2 373.0,78.6 373.1,82.2 373.2,88.7 373.3,114.3 373.4,90.4 373.5,83.2 373.6,79.2 373.7,76.7 373.8,75.0 373.9,73.9 374.0,73.3 374.1,73.1 374.2,73.3 374.3,73.9 374.4,74.9 374.5,76.5 374.6,78.9 374.7,82.6 374.8,89.0 374.9,114.9 375.0,90.7 375.1,83.4 375.2,79.5 375.3,77.0 375.4,75.3 375.5,74.2 375.6,73.6 375.7,73.4 375.8,73.6 375.9,74.2 376.0,75.2 376.1,76.8 376.2,79.2 376.3,82.9 376.4,89.3 376.5,115.5 376.6,91.0 376.7,83.7 376.8,79.8 376.9,77.3 377.0,75.6 377.1,74.5 377.2,73.9 377.3,73.7 377.4,73.9 377.5,74.4 377.6,75.5 377.7,77.1 377.8,79.5 377.9,83.1 378.0,89.6 378.1,116.1 378.2,91.2 378.3,84.0 378.4,80.1 378.5,77.5 378.6,75.9 378.7,74.8 378.8,74.2 378.9,73.9 379.0,74.1 379.1,74.7 379.2,75.8 379.3,77.4 379.4,79.8 379.5,83.4 379.6,89.9 379.7,116.7 379.8,91.4 379.9,84.2 380.0,80.3 380.1,77.8 380.2,76.1 380.3,75.0 380.4,74.4 380.5,74.2 380.6,74.4 380.7,75.0 380.8,76.0 380.9,77.6 381.0,80.0 381.1,83.7 381.2,90.2 381.3,117.3 381.4,91.7 381.5,84.5 381.6,80.6 381.7,78.1 381.8,76.4 381.9,75.3 382.0,74.7 382.1,74.5 382.2,74.6 382.3,75.2 382.4,76.3 382.5,77.9 382.6,80.3 382.7,84.0 382.8,90.4 382.9,117.9 383.0,91.9 383.1,84.7 383.2,80.8 383.3,78.3 383.4,76.6 383.5,75.5 383.6,74.9 383.7,74.7 383.8,74.9 383.9,75.5 384.0,76.5 384.1,78.1 384.2,80.5 384.3,84.2 384.4,90.7 384.5,118.4 384.6,92.1 384.7,84.9 384.8,81.0 384.9,78.5 385.0,76.9 385.1,75.8 385.2,75.2 385.3,75.0 385.4,75.1 385.5,75.7 385.6,76.8 385.7,78.4 385.8,80.8 385.9,84.5 386.0,91.0 386.1,119.0 386.2,92.3 386.3,85.2 386.4,81.3 386.5,78.8 386.6,77.1 386.7,76.0 386.8,75.4 386.9,75.2 387.0,75.4 387.1,76.0 387.2,77.0 387.3,78.6 387.4,81.0 387.5,84.7 387.6,91.2 387.7,119.5 387.8,92.5 387.9,85.4 388.0,81.5 388.1,79.0 388.2,77.3 388.3,76.2 388.4,75.6 388.5,75.4 388.6,75.6 388.7,76.2 388.8,77.2 388.9,78.9 389.0,81.2 389.1,84.9 389.2,91.5 389.3,120.0 389.4,92.7 389.5,85.6 389.6,81.7 389.7,79.2 389.8,77.5 389.9,76.5 390.0,75.8 390.1,75.6 390.2,75.8 390.3,76.4 390.4,77.5 390.5,79.1 390.6,81.5 390.7,85.2 390.8,91.7 390.9,120.5 391.0,92.9 391.1,85.8 391.2,81.9 391.3,79.4 391.4,77.8 391.5,76.7 391.6,76.1 391.7,75.8 391.8,76.0 391.9,76.6 392.0,77.7 392.1,79.3 392.2,81.7 392.3,85.4 392.4,91.9 392.5,121.0 392.6,93.1 392.7,86.0 392.8,82.1 392.9,79.6 393.0,78.0 393.1,76.9 393.2,76.3 393.3,76.1 393.4,76.2 393.5,76.8 393.6,77.9 393.7,79.5 393.8,81.9 393.9,85.6 394.0,92.1 394.1,121.5 394.2,93.3 394.3,86.2 394.4,82.3 394.5,79.8 394.6,78.2 394.7,77.1 394.8,76.5 394.9,76.3 395.0,76.4 395.1,77.0 395.2,78.1 395.3,79.7 395.4,82.1 395.5,85.8 395.6,92.3 395.7,122.0 395.8,93.5 395.9,86.4 396.0,82.5 396.1,80.0 396.2,78.4 396.3,77.3 396.4,76.7 396.5,76.4 396.6,76.6 396.7,77.2 396.8,78.3 396.9,79.9 397.0,82.3 397.1,86.0 397.2,92.6 397.3,122.4 397.4,93.7 397.5,86.6 397.6,82.7 397.7,80.2 397.8,78.5 397.9,77.5 398.0,76.8 398.1,76.6 398.2,76.8 398.3,77.4 398.4,78.5 398.5,80.1 398.6,82.5 398.7,86.2 398.8,92.8 398.9,122.9 399.0,93.9 399.1,86.8 399.2,82.9 399.3,80.4 399.4,78.7 399.5,77.6 399.6,77.0 399.7,76.8 399.8,77.0 399.9,77.6 400.0,78.7 400.1,80.3 400.2,82.7 400.3,86.4 400.4,93.0 400.5,123.3 400.6,94.0 400.7,86.9 400.8,83.1 400.9,80.6 401.0,78.9 401.1,77.8 401.2,77.2 401.3,77.0 401.4,77.2 401.5,77.8 401.6,78.8 401.7,80.5 401.8,82.9 401.9,86.6 402.0,93.1 402.1,123.8 402.2,94.2 402.3,87.1 402.4,83.2 402.5,80.8 402.6,79.1 402.7,78.0 402.8,77.4 402.9,77.2 403.0,77.4 403.1,78.0 403.2,79.0 403.3,80.6 403.4,83.0 403.5,86.7 403.6,93.3 403.7,124.2 403.8,94.3 403.9,87.3 404.0,83.4 404.1,80.9 404.2,79.3 404.3,78.2 404.4,77.6 404.5,77.4 404.6,77.5 404.7,78.1 404.8,79.2 404.9,80.8 405.0,83.2 405.1,86.9 405.2,93.5 405.3,124.6 405.4,94.5 405.5,87.4 405.6,83.6 405.7,81.1 405.8,79.4 405.9,78.3 406.0,77.7 406.1,77.5 406.2,77.7 406.3,78.3 406.4,79.4 406.5,81.0 406.6,83.4 406.7,87.1 406.8,93.7 406.9,125.1 407.0,94.7 407.1,87.6 407.2,83.7 407.3,81.3 407.4,79.6 407.5,78.5 407.6,77.9 407.7,77.7 407.8,77.9 407.9,78.5 408.0,79.5 408.1,81.1 408.2,83.6 408.3,87.3 408.4,93.9 408.5,125.5 408.6,94.8 408.7,87.7 408.8,83.9 408.9,81.4 409.0,79.7 409.1,78.7 409.2,78.1 409.3,77.8 409.4,78.0 409.5,78.6 409.6,79.7 409.7,81.3 409.8,83.7 409.9,87.4 410.0,94.0 410.1,125.9 410.2,95.0 410.3,87.9 410.4,84.0 410.5,81.6 410.6,79.9 410.7,78.8 410.8,78.2 410.9,78.0 411.0,78.2 411.1,78.8 411.2,79.8 411.3,81.5 411.4,83.9 411.5,87.6 411.6,94.2 411.7,126.3 411.8,95.1 411.9,88.0 412.0,84.2 412.1,81.7 412.2,80.1 412.3,79.0 412.4,78.4 412.5,78.2 412.6,78.3 412.7,78.9 412.8,80.0 412.9,81.6 413.0,84.0 413.1,87.7 413.2,94.4 413.3,126.7 413.4,95.2 413.5,88.2 413.6,84.3 413.7,81.9 413.8,80.2 413.9,79.1 414.0,78.5 414.1,78.3 414.2,78.5 414.3,79.1 414.4,80.1 414.5,81.8 414.6,84.2 414.7,87.9 414.8,94.5 414.9,127.1 415.0,95.4 415.1,88.3 415.2,84.5 415.3,82.0 415.4,80.3 415.5,79.3 415.6,78.6 415.7,78.4 415.8,78.6 415.9,79.2 416.0,80.3 416.1,81.9 416.2,84.3 416.3,88.0 416.4,94.7 416.5,127.5 416.6,95.5 416.7,88.5 416.8,84.6 416.9,82.1 417.0,80.5 417.1,79.4 417.2,78.8 417.3,78.6 417.4,78.8 417.5,79.4 417.6,80.4 417.7,82.1 417.8,84.5 417.9,88.2 418.0,94.8 418.1,127.9 418.2,95.6 418.3,88.6 418.4,84.8 418.5,82.3 418.6,80.6 418.7,79.5 418.8,78.9 418.9,78.7 419.0,78.9 419.1,79.5 419.2,80.6 419.3,82.2 419.4,84.6 419.5,88.3 419.6,95.0 419.7,128.3 419.8,95.8 419.9,88.7 420.0,84.9 420.1,82.4 420.2,80.8 420.3,79.7 420.4,79.1 420.5,78.9 420.6,79.0 420.7,79.6 420.8,80.7 420.9,82.3 421.0,84.7 421.1,88.5 421.2,95.1 421.3,128.7 421.4,95.9 421.5,88.9 421.6,85.0 421.7,82.5 421.8,80.9 421.9,79.8 422.0,79.2 422.1,79.0 422.2,79.2 422.3,79.8 422.4,80.8 422.5,82.5 422.6,84.9 422.7,88.6 422.8,95.2 422.9,129.0 423.0,96.0 423.1,89.0 423.2,85.1 423.3,82.7 423.4,81.0 423.5,79.9 423.6,79.3 423.7,79.1 423.8,79.3 423.9,79.9 424.0,81.0 424.1,82.6 424.2,85.0 424.3,88.7 424.4,95.4 424.6,129.4 424.7,96.1 424.8,89.1 424.9,85.3 425.0,82.8 425.1,81.1 425.2,80.1 425.3,79.4 425.4,79.2 425.5,79.4 425.6,80.0 425.7,81.1 425.8,82.7 425.9,85.1 426.0,88.9 426.1,95.5 426.2,129.8 426.3,96.2 426.4,89.2 426.5,85.4 426.6,82.9 426.7,81.3 426.8,80.2 426.9,79.6 427.0,79.4 427.1,79.6 427.2,80.1 427.3,81.2 427.4,82.8 427.5,85.3 427.6,89.0 427.7,95.6 427.8,130.1 427.9,96.3 428.0,89.3 428.1,85.5 428.2,83.0 428.3,81.4 428.4,80.3 428.5,79.7 428.6,79.5 428.7,79.7 428.8,80.3 428.9,81.3 429.0,83.0 429.1,85.4 429.2,89.1 429.3,95.8 429.4,130.5 429.5,96.4 429.6,89.4 429.7,85.6 429.8,83.1 429.9,81.5 430.0,80.4 430.1,79.8 430.2,79.6 430.3,79.8 430.4,80.4 430.5,81.4 430.6,83.1 430.7,85.5 430.8,89.2 430.9,95.9 431.0,130.9 431.1,96.5 431.2,89.6 431.3,85.7 431.4,83.3 431.5,81.6 431.6,80.5 431.7,79.9 431.8,79.7 431.9,79.9 432.0,80.5 432.1,81.6 432.2,83.2 432.3,85.6 432.4,89.3 432.5,96.0 432.6,131.2 432.7,96.7 432.8,89.7 432.9,85.8 433.0,83.4 433.1,81.7 433.2,80.6 433.3,80.0 433.4,79.8 433.5,80.0 433.6,80.6 433.7,81.7 433.8,83.3 433.9,85.7 434.0,89.4 434.1,96.1 434.2,131.6 434.3,96.8 434.4,89.8 434.5,85.9 434.6,83.5 434.7,81.8 434.8,80.7 434.9,80.1 435.0,79.9 435.1,80.1 435.2,80.7 435.3,81.8 435.4,83.4 435.5,85.8 435.6,89.6 435.7,96.2 435.8,132.0 435.9,96.8 436.0,89.9 436.1,86.0 436.2,83.6 436.3,81.9 436.4,80.8 436.5,80.2 436.6,80.0 436.7,80.2 436.8,80.8 436.9,81.9 437.0,83.5 437.1,85.9 437.2,89.7 437.3,96.3 437.4,132.3 437.5,96.9 437.6,90.0 437.7,86.1 437.8,83.7 437.9,82.0 438.0,80.9 438.1,80.3 438.2,80.1 438.3,80.3 438.4,80.9 438.5,82.0 438.6,83.6 438.7,86.0 438.8,89.8 438.9,96.5 439.0,132.7 439.1,97.0 439.2,90.1 439.3,86.2 439.4,83.8 439.5,82.1 439.6,81.0 439.7,80.4 439.8,80.2 439.9,80.4 440.0,81.0 440.1,82.1 440.2,83.7 440.3,86.1 440.4,89.9 440.5,96.6 440.6,133.0 440.7,97.1 440.8,90.2 440.9,86.3 441.0,83.9 441.1,82.2 441.2,81.1 441.3,80.5 441.4,80.3 441.5,80.5 441.6,81.1 441.7,82.2 441.8,83.8 441.9,86.2 442.0,90.0 442.1,96.7 442.2,133.4 442.3,97.2 442.4,90.3 442.5,86.4 442.6,84.0 442.7,82.3 442.8,81.2 442.9,80.6 443.0,80.4 443.1,80.6 443.2,81.2 443.3,82.3 443.4,83.9 443.5,86.3 443.6,90.1 443.7,96.8 443.8,133.7 443.9,97.3 444.0,90.3 444.1,86.5 444.2,84.1 444.3,82.4 444.4,81.3 444.5,80.7 444.6,80.5 444.7,80.7 444.8,81.3 444.9,82.4 445.0,84.0 445.1,86.4 445.2,90.2 445.3,96.9 445.4,134.1 445.5,97.4 445.6,90.4 445.7,86.6 445.8,84.1 445.9,82.5 446.0,81.4 446.1,80.8 446.2,80.6 446.3,80.8 446.4,81.4 446.5,82.5 446.6,84.1 446.7,86.5 446.8,90.2 446.9,97.0 447.0,134.4 447.1,97.5 447.2,90.5 447.3,86.7 447.4,84.2 447.5,82.6 447.6,81.5 447.7,80.9 447.8,80.7 447.9,80.9 448.0,81.5 448.1,82.5 448.2,84.2 448.3,86.6 448.4,90.3 448.5,97.0 448.6,134.8 448.7,97.5 448.8,90.6 448.9,86.8 449.0,84.3 449.1,82.7 449.2,81.6 449.3,81.0 449.4,80.8 449.5,81.0 449.6,81.6 449.7,82.6 449.8,84.3 449.9,86.7 450.0,90.4 450.1,97.1 450.2,135.1 450.3,97.6 450.4,90.7 450.5,86.9 450.6,84.4 450.7,82.7 450.8,81.7 450.9,81.1 451.0,80.9 451.1,81.1 451.2,81.7 451.3,82.7 451.4,84.3 451.5,86.8 451.6,90.5 451.7,97.2 451.8,135.5 451.9,97.7 452.0,90.8 452.1,86.9 452.2,84.5 452.3,82.8 452.4,81.8 452.5,81.1 452.6,80.9 452.7,81.1 452.8,81.7 452.9,82.8 453.0,84.4 453.1,86.9 453.2,90.6 453.3,97.3 453.4,135.8 453.5,97.8 453.6,90.8 453.7,87.0 453.8,84.6 453.9,82.9 454.0,81.8 454.1,81.2 454.2,81.0 454.3,81.2 454.4,81.8 454.5,82.9 454.6,84.5 454.7,86.9 454.8,90.7 454.9,97.4 455.0,136.2 455.1,97.8 455.2,90.9 455.3,87.1 455.4,84.6 455.5,83.0 455.6,81.9 455.7,81.3 455.8,81.1 455.9,81.3 456.0,81.9 456.1,83.0 456.2,84.6 456.3,87.0 456.4,90.8 456.5,97.5 456.6,136.5 456.7,97.9 456.8,91.0 456.9,87.2 457.0,84.7 457.1,83.1 457.2,82.0 457.3,81.4 457.4,81.2 457.5,81.4 457.6,82.0 457.7,83.0 457.8,84.7 457.9,87.1 458.0,90.8 458.1,97.6 458.2,136.9 458.3,98.0 458.4,91.0 458.5,87.2 458.6,84.8 458.7,83.1 458.8,82.1 458.9,81.4 459.0,81.2 459.1,81.4 459.2,82.0 459.3,83.1 459.4,84.7 459.5,87.2 459.6,90.9 459.7,97.6 459.8,137.3 459.9,98.0 460.0,91.1 460.1,87.3 460.2,84.8 460.3,83.2 460.4,82.1 460.5,81.5 460.6,81.3 460.7,81.5 460.8,82.1 460.9,83.2 461.0,84.8 461.1,87.2 461.2,91.0 461.3,97.7 461.4,137.6 461.5,98.1 461.6,91.2 461.7,87.4 461.8,84.9 461.9,83.3 462.0,82.2 462.1,81.6 462.2,81.4 462.3,81.6 462.4,82.2 462.5,83.2 462.6,84.9 462.7,87.3 462.8,91.0 462.9,97.8 463.0,138.0 463.1,98.2 463.2,91.2 463.3,87.4 463.4,85.0 463.5,83.3 463.6,82.3 463.7,81.6 463.8,81.4 463.9,81.6 464.0,82.2 464.1,83.3 464.2,84.9 464.3,87.4 464.4,91.1 464.5,97.9 464.6,138.4 464.7,98.2 464.8,91.3 464.9,87.5 465.0,85.0 465.1,83.4 465.2,82.3 465.3,81.7 465.4,81.5 465.5,81.7 465.6,82.3 465.7,83.4 465.8,85.0 465.9,87.4 466.0,91.2 466.1,97.9 466.2,138.7 466.3,98.3 466.4,91.4 466.5,87.6 466.6,85.1 466.7,83.5 466.8,82.4 466.9,81.8 467.0,81.6 467.1,81.8 467.2,82.4 467.3,83.4 467.4,85.1 467.5,87.5 467.6,91.2 467.7,98.0 467.8,139.1 467.9,98.3 468.0,91.4 468.1,87.6 468.2,85.2 468.3,83.5 468.4,82.4 468.5,81.8 468.6,81.6 468.7,81.8 468.8,82.4 468.9,83.5 469.0,85.1 469.1,87.6 469.2,91.3 469.3,98.1 469.4,139.5 469.5,98.4 469.6,91.5 469.7,87.7 469.8,85.2 469.9,83.6 470.0,82.5 470.1,81.9 470.2,81.7 470.3,81.9 470.4,82.5 470.5,83.6 470.6,85.2 470.7,87.6 470.8,91.4 470.9,98.1 471.0,139.9 471.1,98.5 471.2,91.5 471.3,87.7 471.4,85.3 471.5,83.6 471.6,82.6 471.7,82.0 471.8,81.8 471.9,81.9 472.0,82.5 472.1,83.6 472.2,85.2 472.3,87.7 472.4,91.4 472.5,98.2 472.6,140.3 472.7,98.5 472.8,91.6 472.9,87.8 473.0,85.3 473.1,83.7 473.2,82.6 473.3,82.0 473.4,81.8 473.5,82.0 473.6,82.6 473.7,83.7 473.8,85.3 473.9,87.7 474.0,91.5 474.1,98.2 474.2,140.6 474.3,98.6 474.4,91.6 474.5,87.8 474.6,85.4 474.7,83.7 474.8,82.7 474.9,82.1 475.0,81.9 475.1,82.1 475.2,82.7 475.3,83.7 475.4,85.4 475.5,87.8 475.6,91.5 475.7,98.3 475.8,141.0 475.9,98.6 476.0,91.7 476.1,87.9 476.2,85.4 476.3,83.8 476.4,82.7 476.5,82.1 476.6,81.9 476.7,82.1 476.8,82.7 476.9,83.8 477.0,85.4 477.1,87.8 477.2,91.6 477.3,98.4 477.4,141.5 477.5,98.6 477.6,91.7 477.7,87.9 477.8,85.5 477.9,83.8 478.0,82.8 478.1,82.2 478.2,82.0 478.3,82.2 478.4,82.8 478.5,83.8 478.6,85.5 478.7,87.9 478.8,91.6 478.9,98.4 479.0,141.9 479.1,98.7 479.2,91.8 479.3,88.0 479.4,85.5 479.5,83.9 479.6,82.8 479.7,82.2 479.8,82.0 479.9,82.2 480.0,82.8 480.1,83.9 480.2,85.5 480.3,87.9 480.4,91.7 480.5,98.5 480.6,142.3 480.7,98.7 480.8,91.8 480.9,88.0 481.0,85.6 481.1,83.9 481.2,82.9 481.3,82.3 481.4,82.1 481.5,82.2 481.6,82.9 481.7,83.9 481.8,85.6 481.9,88.0 482.0,91.7 482.1,98.5 482.2,142.7 482.3,98.8 482.4,91.9 482.5,88.1 482.6,85.6 482.7,84.0 482.8,82.9 482.9,82.3 483.0,82.1 483.1,82.3 483.2,82.9 483.3,84.0 483.4,85.6 483.5,88.0 483.6,91.8 483.7,98.6 483.8,143.2 483.9,98.8 484.0,91.9 484.1,88.1 484.2,85.7 484.3,84.0 484.4,82.9 484.5,82.3 484.6,82.1 484.7,82.3 484.8,82.9 484.9,84.0 485.0,85.6 485.1,88.1 485.2,91.8 485.3,98.6 485.4,143.6 485.5,98.8 485.6,92.0 485.7,88.2 485.8,85.7 485.9,84.1 486.0,83.0 486.1,82.4 486.2,82.2 486.3,82.4 486.4,83.0 486.5,84.0 486.6,85.7 486.7,88.1 486.8,91.9 486.9,98.6 487.0,144.1 487.1,98.9 487.2,92.0 487.3,88.2 487.4,85.7 487.5,84.1 487.6,83.0 487.7,82.4 487.8,82.2 487.9,82.4 488.0,83.0 488.1,84.1 488.2,85.7 488.3,88.2 488.4,91.9 488.5,98.7 488.6,144.6 488.7,98.9 488.8,92.0 488.9,88.2 489.0,85.8 489.1,84.1 489.2,83.1 489.3,82.5 489.4,82.3 489.5,82.5 489.6,83.1 489.7,84.1 489.8,85.8 489.9,88.2 490.0,92.0 490.1,98.7 490.2,145.1 490.3,98.9 490.4,92.1 490.5,88.3 490.6,85.8 490.7,84.2 490.8,83.1 490.9,82.5 491.0,82.3 491.1,82.5 491.2,83.1 491.3,84.2 491.4,85.8 491.5,88.2 491.6,92.0 491.7,98.8 491.8,145.6 491.9,99.0 492.0,92.1 492.1,88.3 492.2,85.9 492.3,84.2 492.4,83.1 492.5,82.5 492.6,82.3 492.7,82.5 492.9,83.1 493.0,84.2 493.1,85.8 493.2,88.3 493.3,92.0 493.4,98.8 493.5,146.1 493.6,99.0 493.7,92.1 493.8,88.3 493.9,85.9 494.0,84.2 494.1,83.2 494.2,82.6 494.3,82.4 494.4,82.6 494.5,83.2 494.6,84.2 494.7,85.9 494.8,88.3 494.9,92.1 495.0,98.8 495.1,146.6 495.2,99.0 495.3,92.2 495.4,88.4 495.5,85.9 495.6,84.3 495.7,83.2 495.8,82.6 495.9,82.4 496.0,82.6 496.1,83.2 496.2,84.3 496.3,85.9 496.4,88.3 496.5,92.1 496.6,98.9 496.7,147.2 496.8,99.1 496.9,92.2 497.0,88.4 497.1,85.9 497.2,84.3 497.3,83.2 497.4,82.6 497.5,82.4 497.6,82.6 497.7,83.2 497.8,84.3 497.9,85.9 498.0,88.4 498.1,92.1 498.2,98.9 498.3,147.8 498.4,99.1 498.5,92.2 498.6,88.4 498.7,86.0 498.8,84.3 498.9,83.3 499.0,82.7 499.1,82.5 499.2,82.6 499.3,83.3 499.4,84.3 499.5,86.0 499.6,88.4 499.7,92.2 499.8,98.9 499.9,148.4 500.0,99.1 500.1,92.2 500.2,88.4 500.3,86.0 500.4,84.4 500.5,83.3 500.6,82.7 500.7,82.5 500.8,82.7 500.9,83.3 501.0,84.3 501.1,86.0 501.2,88.4 501.3,92.2 501.4,99.0 501.5,149.1 501.6,99.1 501.7,92.3 501.8,88.5 501.9,86.0 502.0,84.4 502.1,83.3 502.2,82.7 502.3,82.5 502.4,82.7 502.5,83.3 502.6,84.4 502.7,86.0 502.8,88.4 502.9,92.2 503.0,99.0 503.1,149.8 503.2,99.1 503.3,92.3 503.4,88.5 503.5,86.0 503.6,84.4 503.7,83.3 503.8,82.7 503.9,82.5 504.0,82.7 504.1,83.3 504.2,84.4 504.3,86.0 504.4,88.5 504.5,92.2 504.6,99.0 504.7,150.5 504.8,99.2 504.9,92.3 505.0,88.5 505.1,86.1 505.2,84.4 505.3,83.4 505.4,82.7 505.5,82.5 505.6,82.7 505.7,83.3 505.8,84.4 505.9,86.1 506.0,88.5 506.1,92.3 506.2,99.1 506.3,151.3 506.4,99.2 506.5,92.3 506.6,88.5 506.7,86.1 506.8,84.4 506.9,83.4 507.0,82.8 507.1,82.6 507.2,82.8 507.3,83.4 507.4,84.4 507.5,86.1 507.6,88.5 507.7,92.3 507.8,99.1 507.9,152.0 508.0,99.2 508.1,92.3 508.2,88.6 508.3,86.1 508.4,84.5 508.5,83.4 508.6,82.8 508.7,82.6 508.8,82.8 508.9,83.4 509.0,84.5 509.1,86.1 509.2,88.5 509.3,92.3 509.4,99.1 509.5,152.0 509.6,99.2 509.7,92.4 509.8,88.6 509.9,86.1 510.0,84.5 510.1,83.4 510.2,82.8 510.3,82.6 510.4,82.8 510.5,83.4 510.6,84.5 510.7,86.1 510.8,88.6 510.9,92.3 511.0,99.1 511.1,152.0 511.2,99.2 511.3,92.4 511.4,88.6 511.5,86.1 511.6,84.5 511.7,83.4 511.8,82.8 511.9,82.6 512.0,82.8 512.1,83.4 512.2,84.5 512.3,86.1 512.4,88.6 512.5,92.3 512.6,99.1 512.7,152.0 512.8,99.2 512.9,92.4 513.0,88.6 513.1,86.1 513.2,84.5 513.3,83.4 513.4,82.8 513.5,82.6 513.6,82.8 513.7,83.4 513.8,84.5 513.9,86.1 514.0,88.6 514.1,92.4 514.2,99.2 514.3,152.0 514.4,99.2 514.5,92.4 514.6,88.6 514.7,86.2 514.8,84.5 514.9,83.4 515.0,82.8 515.1,82.6 515.2,82.8 515.3,83.4 515.4,84.5 515.5,86.2 515.6,88.6 515.7,92.4 515.8,99.2 515.9,152.0 516.0,99.2 516.1,92.4 516.2,88.6 516.3,86.2 516.4,84.5 516.5,83.5 516.6,82.9 516.7,82.7 516.8,82.9 516.9,83.5 517.0,84.5 517.1,86.2 517.2,88.6 517.3,92.4 517.4,99.2 517.5,152.0 517.6,99.2 517.7,92.4 517.8,88.6 517.9,86.2 518.0,84.5 518.1,83.5 518.2,82.9 518.3,82.7 518.4,82.9 518.5,83.5 518.6,84.5 518.7,86.2 518.8,88.6 518.9,92.4 519.0,99.2 519.1,152.0 519.2,99.3 519.3,92.4 519.4,88.6 519.5,86.2 519.6,84.5 519.7,83.5 519.8,82.9 519.9,82.7 520.0,82.9 520.1,83.5 520.2,84.5 520.3,86.2 520.4,88.6 520.5,92.4 520.6,99.2 520.7,152.0 520.8,99.3 520.9,92.4 521.0,88.6 521.1,86.2 521.2,84.5 521.3,83.5 521.4,82.9 521.5,82.7 521.6,82.9 521.7,83.5 521.8,84.5 521.9,86.2 522.0,88.6 522.1,92.4 522.2,99.2 522.3,152.0 522.4,99.3 522.5,92.4 522.6,88.6 522.7,86.2 522.8,84.6 522.9,83.5 523.0,82.9 523.1,82.7 523.2,82.9 523.3,83.5 523.4,84.6 523.5,86.2 523.6,88.6 523.7,92.4 523.8,99.2 523.9,152.0 524.0,99.3 524.1,92.4 524.2,88.6 524.3,86.2 524.4,84.6 524.5,83.5 524.6,82.9 524.7,82.7 524.8,82.9 524.9,83.5 525.0,84.6 525.1,86.2 525.2,88.6 525.3,92.4 525.4,99.2 525.5,152.0 525.6,99.3 525.7,92.4 525.8,88.6 525.9,86.2 526.0,84.6 526.1,83.5 526.2,82.9 526.3,82.7 526.4,82.9 526.5,83.5 526.6,84.6 526.7,86.2 526.8,88.6 526.9,92.4 527.0,99.2" fill="none" stroke="#4a90d9" stroke-width="1.2" stroke-linejoin="round"/>
  <text x="154.5" y="176" text-anchor="middle" font-size="8" fill="#6b7280">n / N</text>
  <text x="424.5" y="176" text-anchor="middle" font-size="8" fill="#6b7280">Normalized frequency (× Fₛ)</text>
</svg>
