<svg xmlns="http://www.w3.org/2000/svg" viewBox="0 0 560 190" width="560" height="190" style="font-family:system-ui,-apple-system,sans-serif">
  <rect width="560" height="190" fill="#fafafa" rx="6"/>
  <line x1="52" y1="152.0" x2="257" y2="152.0" stroke="#e5e7eb" stroke-width="0.5"/>
  <text x="48" y="155.0" text-anchor="end" font-size="7.5" fill="#6b7280">0</text>
  <line x1="52" y1="82.0" x2="257" y2="82.0" stroke="#e5e7eb" stroke-width="0.5"/>
  <text x="48" y="85.0" text-anchor="end" font-size="7.5" fill="#6b7280">0.5</text>
  <line x1="52" y1="12.0" x2="257" y2="12.0" stroke="#e5e7eb" stroke-width="0.5"/>
  <text x="48" y="15.0" text-anchor="end" font-size="7.5" fill="#6b7280">1</text>
  <line x1="52.0" y1="12" x2="52.0" y2="152" stroke="#e5e7eb" stroke-width="0.5"/>
  <text x="52.0" y="164" text-anchor="middle" font-size="7.5" fill="#6b7280">0</text>
  <line x1="154.5" y1="12" x2="154.5" y2="152" stroke="#e5e7eb" stroke-width="0.5"/>
  <text x="154.5" y="164" text-anchor="middle" font-size="7.5" fill="#6b7280">0.5</text>
  <line x1="257.0" y1="12" x2="257.0" y2="152" stroke="#e5e7eb" stroke-width="0.5"/>
  <text x="257.0" y="164" text-anchor="middle" font-size="7.5" fill="#6b7280">1</text>
  <line x1="52" y1="12" x2="52" y2="152" stroke="#d1d5db" stroke-width="0.75"/>
  <line x1="52" y1="152" x2="257" y2="152" stroke="#d1d5db" stroke-width="0.75"/>
  <path d="M52.0,152.0 52.0,152.0 52.8,151.9 53.6,151.9 54.4,151.8 55.2,151.7 56.0,151.7 56.8,151.6 57.6,151.6 58.4,151.5 59.2,151.4 60.0,151.3 60.8,151.3 61.6,151.2 62.5,151.1 63.3,151.0 64.1,150.9 64.9,150.8 65.7,150.7 66.5,150.5 67.3,150.4 68.1,150.3 68.9,150.1 69.7,150.0 70.5,149.8 71.3,149.6 72.1,149.4 72.9,149.2 73.7,149.0 74.5,148.7 75.3,148.5 76.1,148.2 76.9,147.9 77.7,147.6 78.5,147.2 79.3,146.9 80.1,146.5 80.9,146.1 81.7,145.7 82.5,145.3 83.4,144.8 84.2,144.3 85.0,143.8 85.8,143.2 86.6,142.6 87.4,142.0 88.2,141.4 89.0,140.7 89.8,140.0 90.6,139.2 91.4,138.4 92.2,137.6 93.0,136.7 93.8,135.8 94.6,134.9 95.4,133.9 96.2,132.9 97.0,131.8 97.8,130.7 98.6,129.5 99.4,128.3 100.2,127.0 101.0,125.7 101.8,124.4 102.6,123.0 103.5,121.6 104.3,120.1 105.1,118.6 105.9,117.0 106.7,115.3 107.5,113.7 108.3,111.9 109.1,110.2 109.9,108.4 110.7,106.5 111.5,104.6 112.3,102.7 113.1,100.7 113.9,98.7 114.7,96.6 115.5,94.5 116.3,92.4 117.1,90.2 117.9,88.1 118.7,85.8 119.5,83.6 120.3,81.3 121.1,79.1 121.9,76.8 122.7,74.4 123.5,72.1 124.4,69.8 125.2,67.4 126.0,65.1 126.8,62.8 127.6,60.5 128.4,58.1 129.2,55.8 130.0,53.6 130.8,51.3 131.6,49.1 132.4,46.8 133.2,44.7 134.0,42.5 134.8,40.5 135.6,38.4 136.4,36.4 137.2,34.5 138.0,32.6 138.8,30.8 139.6,29.0 140.4,27.3 141.2,25.7 142.0,24.2 142.8,22.7 143.6,21.3 144.5,20.0 145.3,18.8 146.1,17.7 146.9,16.7 147.7,15.8 148.5,14.9 149.3,14.2 150.1,13.6 150.9,13.1 151.7,12.6 152.5,12.3 153.3,12.1 154.1,12.0 154.9,12.0 155.7,12.1 156.5,12.3 157.3,12.6 158.1,13.1 158.9,13.6 159.7,14.2 160.5,14.9 161.3,15.8 162.1,16.7 162.9,17.7 163.7,18.8 164.5,20.0 165.4,21.3 166.2,22.7 167.0,24.2 167.8,25.7 168.6,27.3 169.4,29.0 170.2,30.8 171.0,32.6 171.8,34.5 172.6,36.4 173.4,38.4 174.2,40.5 175.0,42.5 175.8,44.7 176.6,46.8 177.4,49.1 178.2,51.3 179.0,53.6 179.8,55.8 180.6,58.1 181.4,60.5 182.2,62.8 183.0,65.1 183.8,67.4 184.6,69.8 185.5,72.1 186.3,74.4 187.1,76.8 187.9,79.1 188.7,81.3 189.5,83.6 190.3,85.8 191.1,88.1 191.9,90.2 192.7,92.4 193.5,94.5 194.3,96.6 195.1,98.7 195.9,100.7 196.7,102.7 197.5,104.6 198.3,106.5 199.1,108.4 199.9,110.2 200.7,111.9 201.5,113.7 202.3,115.3 203.1,117.0 203.9,118.6 204.7,120.1 205.5,121.6 206.4,123.0 207.2,124.4 208.0,125.7 208.8,127.0 209.6,128.3 210.4,129.5 211.2,130.7 212.0,131.8 212.8,132.9 213.6,133.9 214.4,134.9 215.2,135.8 216.0,136.7 216.8,137.6 217.6,138.4 218.4,139.2 219.2,140.0 220.0,140.7 220.8,141.4 221.6,142.0 222.4,142.6 223.2,143.2 224.0,143.8 224.8,144.3 225.6,144.8 226.5,145.3 227.3,145.7 228.1,146.1 228.9,146.5 229.7,146.9 230.5,147.2 231.3,147.6 232.1,147.9 232.9,148.2 233.7,148.5 234.5,148.7 235.3,149.0 236.1,149.2 236.9,149.4 237.7,149.6 238.5,149.8 239.3,150.0 240.1,150.1 240.9,150.3 241.7,150.4 242.5,150.5 243.3,150.7 244.1,150.8 244.9,150.9 245.7,151.0 246.5,151.1 247.4,151.2 248.2,151.3 249.0,151.3 249.8,151.4 250.6,151.5 251.4,151.6 252.2,151.6 253.0,151.7 253.8,151.7 254.6,151.8 255.4,151.9 256.2,151.9 257.0,152.0 L257.0,152.0 Z" fill="#4a90d9" fill-opacity="0.06"/>
  <polyline points="52.0,152.0 52.8,151.9 53.6,151.9 54.4,151.8 55.2,151.7 56.0,151.7 56.8,151.6 57.6,151.6 58.4,151.5 59.2,151.4 60.0,151.3 60.8,151.3 61.6,151.2 62.5,151.1 63.3,151.0 64.1,150.9 64.9,150.8 65.7,150.7 66.5,150.5 67.3,150.4 68.1,150.3 68.9,150.1 69.7,150.0 70.5,149.8 71.3,149.6 72.1,149.4 72.9,149.2 73.7,149.0 74.5,148.7 75.3,148.5 76.1,148.2 76.9,147.9 77.7,147.6 78.5,147.2 79.3,146.9 80.1,146.5 80.9,146.1 81.7,145.7 82.5,145.3 83.4,144.8 84.2,144.3 85.0,143.8 85.8,143.2 86.6,142.6 87.4,142.0 88.2,141.4 89.0,140.7 89.8,140.0 90.6,139.2 91.4,138.4 92.2,137.6 93.0,136.7 93.8,135.8 94.6,134.9 95.4,133.9 96.2,132.9 97.0,131.8 97.8,130.7 98.6,129.5 99.4,128.3 100.2,127.0 101.0,125.7 101.8,124.4 102.6,123.0 103.5,121.6 104.3,120.1 105.1,118.6 105.9,117.0 106.7,115.3 107.5,113.7 108.3,111.9 109.1,110.2 109.9,108.4 110.7,106.5 111.5,104.6 112.3,102.7 113.1,100.7 113.9,98.7 114.7,96.6 115.5,94.5 116.3,92.4 117.1,90.2 117.9,88.1 118.7,85.8 119.5,83.6 120.3,81.3 121.1,79.1 121.9,76.8 122.7,74.4 123.5,72.1 124.4,69.8 125.2,67.4 126.0,65.1 126.8,62.8 127.6,60.5 128.4,58.1 129.2,55.8 130.0,53.6 130.8,51.3 131.6,49.1 132.4,46.8 133.2,44.7 134.0,42.5 134.8,40.5 135.6,38.4 136.4,36.4 137.2,34.5 138.0,32.6 138.8,30.8 139.6,29.0 140.4,27.3 141.2,25.7 142.0,24.2 142.8,22.7 143.6,21.3 144.5,20.0 145.3,18.8 146.1,17.7 146.9,16.7 147.7,15.8 148.5,14.9 149.3,14.2 150.1,13.6 150.9,13.1 151.7,12.6 152.5,12.3 153.3,12.1 154.1,12.0 154.9,12.0 155.7,12.1 156.5,12.3 157.3,12.6 158.1,13.1 158.9,13.6 159.7,14.2 160.5,14.9 161.3,15.8 162.1,16.7 162.9,17.7 163.7,18.8 164.5,20.0 165.4,21.3 166.2,22.7 167.0,24.2 167.8,25.7 168.6,27.3 169.4,29.0 170.2,30.8 171.0,32.6 171.8,34.5 172.6,36.4 173.4,38.4 174.2,40.5 175.0,42.5 175.8,44.7 176.6,46.8 177.4,49.1 178.2,51.3 179.0,53.6 179.8,55.8 180.6,58.1 181.4,60.5 182.2,62.8 183.0,65.1 183.8,67.4 184.6,69.8 185.5,72.1 186.3,74.4 187.1,76.8 187.9,79.1 188.7,81.3 189.5,83.6 190.3,85.8 191.1,88.1 191.9,90.2 192.7,92.4 193.5,94.5 194.3,96.6 195.1,98.7 195.9,100.7 196.7,102.7 197.5,104.6 198.3,106.5 199.1,108.4 199.9,110.2 200.7,111.9 201.5,113.7 202.3,115.3 203.1,117.0 203.9,118.6 204.7,120.1 205.5,121.6 206.4,123.0 207.2,124.4 208.0,125.7 208.8,127.0 209.6,128.3 210.4,129.5 211.2,130.7 212.0,131.8 212.8,132.9 213.6,133.9 214.4,134.9 215.2,135.8 216.0,136.7 216.8,137.6 217.6,138.4 218.4,139.2 219.2,140.0 220.0,140.7 220.8,141.4 221.6,142.0 222.4,142.6 223.2,143.2 224.0,143.8 224.8,144.3 225.6,144.8 226.5,145.3 227.3,145.7 228.1,146.1 228.9,146.5 229.7,146.9 230.5,147.2 231.3,147.6 232.1,147.9 232.9,148.2 233.7,148.5 234.5,148.7 235.3,149.0 236.1,149.2 236.9,149.4 237.7,149.6 238.5,149.8 239.3,150.0 240.1,150.1 240.9,150.3 241.7,150.4 242.5,150.5 243.3,150.7 244.1,150.8 244.9,150.9 245.7,151.0 246.5,151.1 247.4,151.2 248.2,151.3 249.0,151.3 249.8,151.4 250.6,151.5 251.4,151.6 252.2,151.6 253.0,151.7 253.8,151.7 254.6,151.8 255.4,151.9 256.2,151.9 257.0,152.0" fill="none" stroke="#4a90d9" stroke-width="1.2" stroke-linejoin="round"/>
  <line x1="322" y1="12.0" x2="527" y2="12.0" stroke="#e5e7eb" stroke-width="0.5"/>
  <text x="318" y="15.0" text-anchor="end" font-size="7.5" fill="#6b7280">0</text>
  <line x1="322" y1="58.7" x2="527" y2="58.7" stroke="#e5e7eb" stroke-width="0.5"/>
  <text x="318" y="61.7" text-anchor="end" font-size="7.5" fill="#6b7280">-40</text>
  <line x1="322" y1="105.3" x2="527" y2="105.3" stroke="#e5e7eb" stroke-width="0.5"/>
  <text x="318" y="108.3" text-anchor="end" font-size="7.5" fill="#6b7280">-80</text>
  <line x1="322" y1="152.0" x2="527" y2="152.0" stroke="#e5e7eb" stroke-width="0.5"/>
  <text x="318" y="155.0" text-anchor="end" font-size="7.5" fill="#6b7280">-120</text>
  <line x1="322.0" y1="12" x2="322.0" y2="152" stroke="#e5e7eb" stroke-width="0.5"/>
  <text x="322.0" y="164" text-anchor="middle" font-size="7.5" fill="#6b7280">0</text>
  <line x1="363.0" y1="12" x2="363.0" y2="152" stroke="#e5e7eb" stroke-width="0.5"/>
  <text x="363.0" y="164" text-anchor="middle" font-size="7.5" fill="#6b7280">0.1</text>
  <line x1="404.0" y1="12" x2="404.0" y2="152" stroke="#e5e7eb" stroke-width="0.5"/>
  <text x="404.0" y="164" text-anchor="middle" font-size="7.5" fill="#6b7280">0.2</text>
  <line x1="445.0" y1="12" x2="445.0" y2="152" stroke="#e5e7eb" stroke-width="0.5"/>
  <text x="445.0" y="164" text-anchor="middle" font-size="7.5" fill="#6b7280">0.3</text>
  <line x1="486.0" y1="12" x2="486.0" y2="152" stroke="#e5e7eb" stroke-width="0.5"/>
  <text x="486.0" y="164" text-anchor="middle" font-size="7.5" fill="#6b7280">0.4</text>
  <line x1="527.0" y1="12" x2="527.0" y2="152" stroke="#e5e7eb" stroke-width="0.5"/>
  <text x="527.0" y="164" text-anchor="middle" font-size="7.5" fill="#6b7280">0.5</text>
  <line x1="322" y1="12" x2="322" y2="152" stroke="#d1d5db" stroke-width="0.75"/>
  <line x1="322" y1="152" x2="527" y2="152" stroke="#d1d5db" stroke-width="0.75"/>
  <polyline points="322.0,12.0 322.1,12.0 322.2,12.1 322.3,12.1 322.4,12.2 322.5,12.4 322.6,12.6 322.7,12.8 322.8,13.0 322.9,13.3 323.0,13.6 323.1,13.9 323.2,14.3 323.3,14.6 323.4,15.1 323.5,15.5 323.6,16.0 323.7,16.5 323.8,17.1 323.9,17.7 324.0,18.3 324.1,18.9 324.2,19.6 324.3,20.3 324.4,21.1 324.5,21.8 324.6,22.6 324.7,23.5 324.8,24.4 324.9,25.3 325.0,26.2 325.1,27.2 325.2,28.2 325.3,29.2 325.4,30.2 325.5,31.3 325.6,32.4 325.7,33.6 325.8,34.8 325.9,36.0 326.0,37.2 326.1,38.4 326.2,39.7 326.3,41.0 326.4,42.4 326.5,43.8 326.6,45.2 326.7,46.6 326.8,48.1 326.9,49.6 327.0,51.1 327.1,52.7 327.2,54.3 327.3,56.0 327.4,57.7 327.5,59.5 327.6,61.4 327.7,63.3 327.8,65.4 327.9,67.5 328.0,69.7 328.1,72.0 328.2,74.5 328.3,77.1 328.4,79.7 328.5,82.5 328.6,85.2 328.7,87.8 328.8,90.2 328.9,92.0 329.0,93.2 329.1,93.7 329.2,93.6 329.3,93.1 329.4,92.4 329.5,91.8 329.6,91.2 329.7,90.8 329.8,90.6 329.9,90.6 330.0,90.9 330.1,91.5 330.2,92.4 330.3,93.7 330.4,95.6 330.5,98.2 330.6,102.1 330.7,108.8 330.8,136.3 330.9,110.6 331.0,103.6 331.1,99.9 331.2,97.5 331.3,96.0 331.4,95.1 331.5,94.6 331.6,94.6 331.7,94.9 331.8,95.7 331.9,96.9 332.0,98.7 332.1,101.3 332.2,105.3 332.3,112.3 332.4,152.0 332.5,112.2 332.6,105.7 332.7,102.1 332.8,99.8 332.9,98.3 333.0,97.4 333.1,96.9 333.2,96.9 333.3,97.2 333.4,97.9 333.5,99.2 333.6,101.0 333.7,103.6 333.8,107.5 333.9,114.5 334.0,152.0 334.1,114.5 334.2,107.9 334.3,104.3 334.4,102.0 334.5,100.5 334.6,99.5 334.7,99.1 334.8,99.0 334.9,99.3 335.0,100.1 335.1,101.3 335.2,103.1 335.3,105.7 335.4,109.6 335.5,116.6 335.6,152.0 335.7,116.6 335.8,109.9 335.9,106.3 336.0,104.0 336.1,102.5 336.2,101.6 336.3,101.1 336.4,101.0 336.5,101.3 336.6,102.1 336.7,103.3 336.8,105.0 336.9,107.6 337.0,111.5 337.1,118.6 337.2,152.0 337.3,118.5 337.4,111.9 337.5,108.2 337.6,105.9 337.7,104.4 337.8,103.4 337.9,103.0 338.0,102.9 338.1,103.2 338.2,103.9 338.3,105.1 338.4,106.9 338.5,109.4 338.6,113.3 338.7,120.4 338.8,152.0 338.9,120.3 339.0,113.6 339.1,110.0 339.2,107.7 339.3,106.2 339.4,105.2 339.5,104.7 339.6,104.6 339.7,104.9 339.8,105.6 339.9,106.8 340.0,108.6 340.1,111.1 340.2,115.0 340.3,122.0 340.4,152.0 340.5,122.0 340.6,115.3 340.7,111.7 340.8,109.3 340.9,107.8 341.0,106.8 341.1,106.3 341.2,106.2 341.3,106.5 341.4,107.2 341.5,108.4 341.6,110.1 341.7,112.7 341.8,116.6 341.9,123.6 342.0,152.0 342.1,123.5 342.2,116.9 342.3,113.2 342.4,110.9 342.5,109.3 342.6,108.3 342.7,107.8 342.8,107.7 342.9,108.0 343.0,108.7 343.1,109.9 343.2,111.6 343.3,114.2 343.4,118.1 343.5,125.0 343.6,152.0 343.7,125.0 343.8,118.3 343.9,114.6 344.0,112.3 344.1,110.7 344.2,109.8 344.3,109.2 344.4,109.1 344.5,109.4 344.6,110.1 344.7,111.3 344.8,113.0 344.9,115.6 345.0,119.4 345.1,126.4 345.2,152.0 345.3,126.4 345.4,119.7 345.5,116.0 345.6,113.6 345.7,112.1 345.8,111.1 345.9,110.6 346.0,110.5 346.1,110.7 346.2,111.4 346.3,112.6 346.4,114.3 346.5,116.9 346.6,120.7 346.7,127.7 346.8,152.0 346.9,127.6 347.0,120.9 347.1,117.3 347.2,114.9 347.3,113.3 347.4,112.4 347.5,111.8 347.6,111.7 347.7,112.0 347.8,112.7 347.9,113.8 348.0,115.6 348.1,118.1 348.2,121.9 348.3,128.9 348.4,152.0 348.5,128.9 348.6,122.2 348.7,118.5 348.8,116.1 348.9,114.5 349.0,113.6 349.1,113.0 349.2,112.9 349.3,113.2 349.4,113.9 349.5,115.0 349.6,116.7 349.7,119.2 349.8,123.1 349.9,130.0 350.0,152.0 350.1,130.0 350.2,123.3 350.3,119.6 350.4,117.2 350.5,115.7 350.6,114.7 350.7,114.2 350.8,114.0 350.9,114.3 351.0,115.0 351.1,116.1 351.2,117.8 351.3,120.3 351.4,124.2 351.5,131.1 351.6,152.0 351.7,131.1 351.8,124.4 351.9,120.7 352.0,118.3 352.1,116.8 352.2,115.8 352.3,115.2 352.4,115.1 352.5,115.4 352.6,116.0 352.7,117.2 352.8,118.9 352.9,121.4 353.0,125.3 353.1,132.2 353.2,152.0 353.3,132.2 353.4,125.4 353.5,121.7 353.6,119.4 353.7,117.8 353.8,116.8 353.9,116.2 354.0,116.1 354.1,116.4 354.2,117.0 354.3,118.2 354.4,119.9 354.5,122.4 354.6,126.2 354.7,133.2 354.8,152.0 354.9,133.1 355.0,126.4 355.1,122.7 355.2,120.3 355.3,118.8 355.4,117.8 355.5,117.2 355.6,117.1 355.7,117.3 355.8,118.0 355.9,119.1 356.0,120.8 356.1,123.4 356.3,127.2 356.4,134.1 356.5,152.0 356.6,134.1 356.7,127.4 356.8,123.7 356.9,121.3 357.0,119.7 357.1,118.7 357.2,118.1 357.3,118.0 357.4,118.3 357.5,118.9 357.6,120.1 357.7,121.8 357.8,124.3 357.9,128.1 358.0,135.0 358.1,152.0 358.2,135.0 358.3,128.3 358.4,124.6 358.5,122.2 358.6,120.6 358.7,119.6 358.8,119.0 358.9,118.9 359.0,119.2 359.1,119.8 359.2,120.9 359.3,122.6 359.4,125.2 359.5,129.0 359.6,135.9 359.7,152.0 359.8,135.9 359.9,129.1 360.0,125.4 360.1,123.0 360.2,121.5 360.3,120.5 360.4,119.9 360.5,119.8 360.6,120.0 360.7,120.7 360.8,121.8 360.9,123.5 361.0,126.0 361.1,129.8 361.2,136.8 361.3,152.0 361.4,136.7 361.5,130.0 361.6,126.3 361.7,123.9 361.8,122.3 361.9,121.3 362.0,120.7 362.1,120.6 362.2,120.8 362.3,121.5 362.4,122.6 362.5,124.3 362.6,126.8 362.7,130.6 362.8,137.6 362.9,152.0 363.0,137.5 363.1,130.8 363.2,127.1 363.3,124.7 363.4,123.1 363.5,122.1 363.6,121.5 363.7,121.4 363.8,121.6 363.9,122.3 364.0,123.4 364.1,125.1 364.2,127.6 364.3,131.4 364.4,138.3 364.5,152.0 364.6,138.3 364.7,131.6 364.8,127.8 364.9,125.5 365.0,123.9 365.1,122.8 365.2,122.3 365.3,122.1 365.4,122.4 365.5,123.0 365.6,124.2 365.7,125.9 365.8,128.4 365.9,132.2 366.0,139.1 366.1,152.0 366.2,139.1 366.3,132.3 366.4,128.6 366.5,126.2 366.6,124.6 366.7,123.6 366.8,123.0 366.9,122.9 367.0,123.1 367.1,123.8 367.2,124.9 367.3,126.6 367.4,129.1 367.5,132.9 367.6,139.8 367.7,152.0 367.8,139.8 367.9,133.0 368.0,129.3 368.1,126.9 368.2,125.3 368.3,124.3 368.4,123.8 368.5,123.6 368.6,123.8 368.7,124.5 368.8,125.6 368.9,127.3 369.0,129.8 369.1,133.6 369.2,140.5 369.3,152.0 369.4,140.5 369.5,133.7 369.6,130.0 369.7,127.6 369.8,126.0 369.9,125.0 370.0,124.5 370.1,124.3 370.2,124.5 370.3,125.2 370.4,126.3 370.5,128.0 370.6,130.5 370.7,134.3 370.8,141.2 370.9,152.0 371.0,141.2 371.1,134.4 371.2,130.7 371.3,128.3 371.4,126.7 371.5,125.7 371.6,125.1 371.7,125.0 371.8,125.2 371.9,125.9 372.0,127.0 372.1,128.7 372.2,131.1 372.3,135.0 372.4,141.9 372.5,152.0 372.6,141.9 372.7,135.1 372.8,131.4 372.9,129.0 373.0,127.4 373.1,126.3 373.2,125.8 373.3,125.6 373.4,125.9 373.5,126.5 373.6,127.6 373.7,129.3 373.8,131.8 373.9,135.6 374.0,142.5 374.1,152.0 374.2,142.5 374.3,135.7 374.4,132.0 374.5,129.6 374.6,128.0 374.7,127.0 374.8,126.4 374.9,126.3 375.0,126.5 375.1,127.1 375.2,128.3 375.3,129.9 375.4,132.4 375.5,136.3 375.6,143.1 375.7,152.0 375.8,143.1 375.9,136.4 376.0,132.6 376.1,130.2 376.2,128.6 376.3,127.6 376.4,127.0 376.5,126.9 376.6,127.1 376.7,127.8 376.8,128.9 376.9,130.6 377.0,133.0 377.1,136.9 377.2,143.8 377.3,152.0 377.4,143.7 377.5,137.0 377.6,133.2 377.7,130.8 377.8,129.2 377.9,128.2 378.0,127.6 378.1,127.5 378.2,127.7 378.3,128.4 378.4,129.5 378.5,131.2 378.6,133.6 378.7,137.5 378.8,144.3 378.9,152.0 379.0,144.3 379.1,137.6 379.2,133.8 379.3,131.4 379.4,129.8 379.5,128.8 379.6,128.2 379.7,128.1 379.8,128.3 379.9,128.9 380.0,130.1 380.1,131.7 380.2,134.2 380.3,138.0 380.4,144.9 380.5,152.0 380.6,144.9 380.7,138.1 380.8,134.4 380.9,132.0 381.0,130.4 381.1,129.4 381.2,128.8 381.3,128.6 381.4,128.9 381.5,129.5 381.6,130.6 381.7,132.3 381.8,134.8 381.9,138.6 382.0,145.5 382.1,152.0 382.2,145.5 382.3,138.7 382.4,135.0 382.5,132.6 382.6,131.0 382.7,129.9 382.8,129.4 382.9,129.2 383.0,129.4 383.1,130.1 383.2,131.2 383.3,132.9 383.4,135.3 383.5,139.2 383.6,146.0 383.7,152.0 383.8,146.0 383.9,139.3 384.0,135.5 384.1,133.1 384.2,131.5 384.3,130.5 384.4,129.9 384.5,129.7 384.6,130.0 384.7,130.6 384.8,131.7 384.9,133.4 385.0,135.9 385.1,139.7 385.2,146.6 385.3,152.0 385.4,146.6 385.5,139.8 385.6,136.1 385.7,133.7 385.8,132.0 385.9,131.0 386.0,130.4 386.1,130.3 386.2,130.5 386.3,131.2 386.4,132.3 386.5,133.9 386.6,136.4 386.7,140.2 386.8,147.1 386.9,152.0 387.0,147.1 387.1,140.3 387.2,136.6 387.3,134.2 387.4,132.6 387.5,131.5 387.6,131.0 387.7,130.8 387.8,131.0 387.9,131.7 388.0,132.8 388.1,134.5 388.2,136.9 388.3,140.7 388.4,147.6 388.5,152.0 388.6,147.6 388.7,140.8 388.8,137.1 388.9,134.7 389.0,133.1 389.1,132.0 389.2,131.5 389.3,131.3 389.4,131.5 389.5,132.2 389.6,133.3 389.7,135.0 389.8,137.4 389.9,141.3 390.0,148.1 390.1,152.0 390.2,148.1 390.3,141.3 390.4,137.6 390.5,135.2 390.6,133.6 390.7,132.6 390.8,132.0 390.9,131.8 391.0,132.0 391.1,132.7 391.2,133.8 391.3,135.5 391.4,137.9 391.5,141.8 391.6,148.6 391.7,152.0 391.8,148.6 391.9,141.8 392.0,138.1 392.1,135.7 392.2,134.1 392.3,133.0 392.4,132.5 392.5,132.3 392.6,132.5 392.7,133.2 392.8,134.3 392.9,135.9 393.0,138.4 393.1,142.2 393.2,149.1 393.3,152.0 393.4,149.1 393.5,142.3 393.6,138.6 393.7,136.2 393.8,134.6 393.9,133.5 394.0,133.0 394.1,132.8 394.2,133.0 394.3,133.7 394.4,134.8 394.5,136.4 394.6,138.9 394.7,142.7 394.8,149.6 394.9,152.0 395.0,149.6 395.1,142.8 395.2,139.1 395.3,136.6 395.4,135.0 395.5,134.0 395.6,133.4 395.7,133.3 395.8,133.5 395.9,134.1 396.0,135.2 396.1,136.9 396.2,139.4 396.3,143.2 396.4,150.1 396.5,152.0 396.6,150.0 396.7,143.3 396.8,139.5 396.9,137.1 397.0,135.5 397.1,134.5 397.2,133.9 397.3,133.7 397.4,134.0 397.5,134.6 397.6,135.7 397.7,137.4 397.8,139.8 397.9,143.6 398.0,150.5 398.1,152.0 398.2,150.5 398.3,143.7 398.4,140.0 398.5,137.6 398.6,136.0 398.7,134.9 398.8,134.4 398.9,134.2 399.0,134.4 399.1,135.0 399.2,136.1 399.3,137.8 399.4,140.3 399.5,144.1 399.6,151.0 399.7,152.0 399.8,151.0 399.9,144.2 400.0,140.4 400.1,138.0 400.2,136.4 400.3,135.4 400.4,134.8 400.5,134.6 400.6,134.9 400.7,135.5 400.8,136.6 400.9,138.3 401.0,140.7 401.1,144.6 401.2,151.4 401.3,152.0 401.4,151.4 401.5,144.6 401.6,140.9 401.7,138.5 401.8,136.9 401.9,135.8 402.0,135.2 402.1,135.1 402.2,135.3 402.3,135.9 402.4,137.0 402.5,138.7 402.6,141.2 402.7,145.0 402.8,151.9 402.9,152.0 403.0,151.8 403.1,145.1 403.2,141.3 403.3,138.9 403.4,137.3 403.5,136.3 403.6,135.7 403.7,135.5 403.8,135.7 403.9,136.4 404.0,137.5 404.1,139.1 404.2,141.6 404.3,145.4 404.4,152.0 404.5,152.0 404.6,152.0 404.7,145.5 404.8,141.8 404.9,139.3 405.0,137.7 405.1,136.7 405.2,136.1 405.3,135.9 405.4,136.2 405.5,136.8 405.6,137.9 405.7,139.6 405.8,142.0 405.9,145.8 406.0,152.0 406.1,152.0 406.2,152.0 406.3,145.9 406.4,142.2 406.5,139.8 406.6,138.1 406.7,137.1 406.8,136.5 406.9,136.4 407.0,136.6 407.1,137.2 407.2,138.3 407.3,140.0 407.4,142.5 407.5,146.3 407.6,152.0 407.7,152.0 407.8,152.0 407.9,146.3 408.0,142.6 408.1,140.2 408.2,138.6 408.3,137.5 408.4,136.9 408.5,136.8 408.6,137.0 408.7,137.6 408.8,138.7 408.9,140.4 409.0,142.9 409.1,146.7 409.2,152.0 409.3,152.0 409.4,152.0 409.5,146.8 409.6,143.0 409.7,140.6 409.8,139.0 409.9,137.9 410.0,137.4 410.1,137.2 410.2,137.4 410.3,138.0 410.4,139.1 410.5,140.8 410.6,143.3 410.7,147.1 410.8,152.0 410.9,152.0 411.0,152.0 411.1,147.2 411.2,143.4 411.3,141.0 411.4,139.4 411.5,138.3 411.6,137.8 411.7,137.6 411.8,137.8 411.9,138.5 412.0,139.5 412.1,141.2 412.2,143.7 412.3,147.5 412.4,152.0 412.5,152.0 412.6,152.0 412.7,147.6 412.8,143.8 412.9,141.4 413.0,139.8 413.1,138.7 413.2,138.2 413.3,138.0 413.4,138.2 413.5,138.9 413.6,139.9 413.7,141.6 413.8,144.1 413.9,147.9 414.0,152.0 414.1,152.0 414.2,152.0 414.3,148.0 414.4,144.2 414.5,141.8 414.6,140.2 414.7,139.1 414.8,138.6 414.9,138.4 415.0,138.6 415.1,139.2 415.2,140.3 415.3,142.0 415.4,144.5 415.5,148.3 415.6,152.0 415.7,152.0 415.8,152.0 415.9,148.4 416.0,144.6 416.1,142.2 416.2,140.6 416.3,139.5 416.4,139.0 416.5,138.8 416.6,139.0 416.7,139.6 416.8,140.7 416.9,142.4 417.0,144.9 417.1,148.7 417.2,152.0 417.3,152.0 417.4,152.0 417.5,148.8 417.6,145.0 417.7,142.6 417.8,141.0 417.9,139.9 418.0,139.3 418.1,139.2 418.2,139.4 418.3,140.0 418.4,141.1 418.5,142.8 418.6,145.3 418.7,149.1 418.8,152.0 418.9,152.0 419.0,152.0 419.1,149.1 419.2,145.4 419.3,143.0 419.4,141.4 419.5,140.3 419.6,139.7 419.7,139.6 419.8,139.8 419.9,140.4 420.0,141.5 420.1,143.2 420.2,145.6 420.3,149.5 420.4,152.0 420.5,152.0 420.6,152.0 420.7,149.5 420.8,145.8 420.9,143.4 421.0,141.7 421.1,140.7 421.2,140.1 421.3,139.9 421.4,140.2 421.5,140.8 421.6,141.9 421.7,143.6 421.8,146.0 421.9,149.8 422.0,152.0 422.1,152.0 422.2,152.0 422.3,149.9 422.4,146.1 422.5,143.7 422.6,142.1 422.7,141.1 422.8,140.5 422.9,140.3 423.0,140.5 423.1,141.2 423.2,142.3 423.3,143.9 423.4,146.4 423.5,150.2 423.6,152.0 423.7,152.0 423.8,152.0 423.9,150.3 424.0,146.5 424.1,144.1 424.2,142.5 424.3,141.4 424.4,140.9 424.6,140.7 424.7,140.9 424.8,141.5 424.9,142.6 425.0,144.3 425.1,146.8 425.2,150.6 425.3,152.0 425.4,152.0 425.5,152.0 425.6,150.6 425.7,146.9 425.8,144.5 425.9,142.9 426.0,141.8 426.1,141.2 426.2,141.1 426.3,141.3 426.4,141.9 426.5,143.0 426.6,144.7 426.7,147.1 426.8,150.9 426.9,152.0 427.0,152.0 427.1,152.0 427.2,151.0 427.3,147.3 427.4,144.8 427.5,143.2 427.6,142.2 427.7,141.6 427.8,141.4 427.9,141.7 428.0,142.3 428.1,143.4 428.2,145.0 428.3,147.5 428.4,151.3 428.5,152.0 428.6,152.0 428.7,152.0 428.8,151.4 428.9,147.6 429.0,145.2 429.1,143.6 429.2,142.5 429.3,142.0 429.4,141.8 429.5,142.0 429.6,142.6 429.7,143.7 429.8,145.4 429.9,147.9 430.0,151.7 430.1,152.0 430.2,152.0 430.3,152.0 430.4,151.7 430.5,148.0 430.6,145.6 430.7,144.0 430.8,142.9 430.9,142.3 431.0,142.2 431.1,142.4 431.2,143.0 431.3,144.1 431.4,145.8 431.5,148.2 431.6,152.0 431.7,152.0 431.8,152.0 431.9,152.0 432.0,152.0 432.1,148.4 432.2,145.9 432.3,144.3 432.4,143.3 432.5,142.7 432.6,142.5 432.7,142.7 432.8,143.4 432.9,144.5 433.0,146.1 433.1,148.6 433.2,152.0 433.3,152.0 433.4,152.0 433.5,152.0 433.6,152.0 433.7,148.7 433.8,146.3 433.9,144.7 434.0,143.6 434.1,143.1 434.2,142.9 434.3,143.1 434.4,143.7 434.5,144.8 434.6,146.5 434.7,149.0 434.8,152.0 434.9,152.0 435.0,152.0 435.1,152.0 435.2,152.0 435.3,149.1 435.4,146.7 435.5,145.0 435.6,144.0 435.7,143.4 435.8,143.2 435.9,143.5 436.0,144.1 436.1,145.2 436.2,146.8 436.3,149.3 436.4,152.0 436.5,152.0 436.6,152.0 436.7,152.0 436.8,152.0 436.9,149.4 437.0,147.0 437.1,145.4 437.2,144.3 437.3,143.8 437.4,143.6 437.5,143.8 437.6,144.4 437.7,145.5 437.8,147.2 437.9,149.7 438.0,152.0 438.1,152.0 438.2,152.0 438.3,152.0 438.4,152.0 438.5,149.8 438.6,147.4 438.7,145.7 438.8,144.7 438.9,144.1 439.0,143.9 439.1,144.2 439.2,144.8 439.3,145.9 439.4,147.6 439.5,150.0 439.6,152.0 439.7,152.0 439.8,152.0 439.9,152.0 440.0,152.0 440.1,150.1 440.2,147.7 440.3,146.1 440.4,145.1 440.5,144.5 440.6,144.3 440.7,144.5 440.8,145.1 440.9,146.2 441.0,147.9 441.1,150.4 441.2,152.0 441.3,152.0 441.4,152.0 441.5,152.0 441.6,152.0 441.7,150.5 441.8,148.1 441.9,146.5 442.0,145.4 442.1,144.8 442.2,144.7 442.3,144.9 442.4,145.5 442.5,146.6 442.6,148.3 442.7,150.7 442.8,152.0 442.9,152.0 443.0,152.0 443.1,152.0 443.2,152.0 443.3,150.8 443.4,148.4 443.5,146.8 443.6,145.8 443.7,145.2 443.8,145.0 443.9,145.2 444.0,145.9 444.1,146.9 444.2,148.6 444.3,151.1 444.4,152.0 444.5,152.0 444.6,152.0 444.7,152.0 444.8,152.0 444.9,151.2 445.0,148.8 445.1,147.2 445.2,146.1 445.3,145.5 445.4,145.4 445.5,145.6 445.6,146.2 445.7,147.3 445.8,149.0 445.9,151.4 446.0,152.0 446.1,152.0 446.2,152.0 446.3,152.0 446.4,152.0 446.5,151.5 446.6,149.1 446.7,147.5 446.8,146.5 446.9,145.9 447.0,145.7 447.1,145.9 447.2,146.6 447.3,147.6 447.4,149.3 447.5,151.8 447.6,152.0 447.7,152.0 447.8,152.0 447.9,152.0 448.0,152.0 448.1,151.9 448.2,149.5 448.3,147.9 448.4,146.8 448.5,146.2 448.6,146.1 448.7,146.3 448.8,146.9 448.9,148.0 449.0,149.7 449.1,152.0 449.2,152.0 449.3,152.0 449.4,152.0 449.5,152.0 449.6,152.0 449.7,152.0 449.8,149.8 449.9,148.2 450.0,147.2 450.1,146.6 450.2,146.4 450.3,146.6 450.4,147.3 450.5,148.3 450.6,150.0 450.7,152.0 450.8,152.0 450.9,152.0 451.0,152.0 451.1,152.0 451.2,152.0 451.3,152.0 451.4,150.2 451.5,148.6 451.6,147.5 451.7,146.9 451.8,146.8 451.9,147.0 452.0,147.6 452.1,148.7 452.2,150.4 452.3,152.0 452.4,152.0 452.5,152.0 452.6,152.0 452.7,152.0 452.8,152.0 452.9,152.0 453.0,150.5 453.1,148.9 453.2,147.9 453.3,147.3 453.4,147.1 453.5,147.3 453.6,148.0 453.7,149.1 453.8,150.7 453.9,152.0 454.0,152.0 454.1,152.0 454.2,152.0 454.3,152.0 454.4,152.0 454.5,152.0 454.6,150.9 454.7,149.3 454.8,148.2 454.9,147.6 455.0,147.5 455.1,147.7 455.2,148.3 455.3,149.4 455.4,151.1 455.5,152.0 455.6,152.0 455.7,152.0 455.8,152.0 455.9,152.0 456.0,152.0 456.1,152.0 456.2,151.2 456.3,149.6 456.4,148.6 456.5,148.0 456.6,147.8 456.7,148.0 456.8,148.7 456.9,149.8 457.0,151.4 457.1,152.0 457.2,152.0 457.3,152.0 457.4,152.0 457.5,152.0 457.6,152.0 457.7,152.0 457.8,151.6 457.9,150.0 458.0,148.9 458.1,148.4 458.2,148.2 458.3,148.4 458.4,149.0 458.5,150.1 458.6,151.8 458.7,152.0 458.8,152.0 458.9,152.0 459.0,152.0 459.1,152.0 459.2,152.0 459.3,152.0 459.4,152.0 459.5,150.3 459.6,149.3 459.7,148.7 459.8,148.5 459.9,148.8 460.0,149.4 460.1,150.5 460.2,152.0 460.3,152.0 460.4,152.0 460.5,152.0 460.6,152.0 460.7,152.0 460.8,152.0 460.9,152.0 461.0,152.0 461.1,150.7 461.2,149.7 461.3,149.1 461.4,148.9 461.5,149.1 461.6,149.8 461.7,150.8 461.8,152.0 461.9,152.0 462.0,152.0 462.1,152.0 462.2,152.0 462.3,152.0 462.4,152.0 462.5,152.0 462.6,152.0 462.7,151.1 462.8,150.0 462.9,149.4 463.0,149.3 463.1,149.5 463.2,150.1 463.3,151.2 463.4,152.0 463.5,152.0 463.6,152.0 463.7,152.0 463.8,152.0 463.9,152.0 464.0,152.0 464.1,152.0 464.2,152.0 464.3,151.4 464.4,150.4 464.5,149.8 464.6,149.6 464.7,149.9 464.8,150.5 464.9,151.6 465.0,152.0 465.1,152.0 465.2,152.0 465.3,152.0 465.4,152.0 465.5,152.0 465.6,152.0 465.7,152.0 465.8,152.0 465.9,151.8 466.0,150.8 466.1,150.2 466.2,150.0 466.3,150.2 466.4,150.9 466.5,151.9 466.6,152.0 466.7,152.0 466.8,152.0 466.9,152.0 467.0,152.0 467.1,152.0 467.2,152.0 467.3,152.0 467.4,152.0 467.5,152.0 467.6,151.1 467.7,150.5 467.8,150.4 467.9,150.6 468.0,151.2 468.1,152.0 468.2,152.0 468.3,152.0 468.4,152.0 468.5,152.0 468.6,152.0 468.7,152.0 468.8,152.0 468.9,152.0 469.0,152.0 469.1,152.0 469.2,151.5 469.3,150.9 469.4,150.8 469.5,151.0 469.6,151.6 469.7,152.0 469.8,152.0 469.9,152.0 470.0,152.0 470.1,152.0 470.2,152.0 470.3,152.0 470.4,152.0 470.5,152.0 470.6,152.0 470.7,152.0 470.8,151.9 470.9,151.3 471.0,151.1 471.1,151.4 471.2,152.0 471.3,152.0 471.4,152.0 471.5,152.0 471.6,152.0 471.7,152.0 471.8,152.0 471.9,152.0 472.0,152.0 472.1,152.0 472.2,152.0 472.3,152.0 472.4,152.0 472.5,151.7 472.6,151.5 472.7,151.7 472.8,152.0 472.9,152.0 473.0,152.0 473.1,152.0 473.2,152.0 473.3,152.0 473.4,152.0 473.5,152.0 473.6,152.0 473.7,152.0 473.8,152.0 473.9,152.0 474.0,152.0 474.1,152.0 474.2,151.9 474.3,152.0 474.4,152.0 474.5,152.0 474.6,152.0 474.7,152.0 474.8,152.0 474.9,152.0 475.0,152.0 475.1,152.0 475.2,152.0 475.3,152.0 475.4,152.0 475.5,152.0 475.6,152.0 475.7,152.0 475.8,152.0 475.9,152.0 476.0,152.0 476.1,152.0 476.2,152.0 476.3,152.0 476.4,152.0 476.5,152.0 476.6,152.0 476.7,152.0 476.8,152.0 476.9,152.0 477.0,152.0 477.1,152.0 477.2,152.0 477.3,152.0 477.4,152.0 477.5,152.0 477.6,152.0 477.7,152.0 477.8,152.0 477.9,152.0 478.0,152.0 478.1,152.0 478.2,152.0 478.3,152.0 478.4,152.0 478.5,152.0 478.6,152.0 478.7,152.0 478.8,152.0 478.9,152.0 479.0,152.0 479.1,152.0 479.2,152.0 479.3,152.0 479.4,152.0 479.5,152.0 479.6,152.0 479.7,152.0 479.8,152.0 479.9,152.0 480.0,152.0 480.1,152.0 480.2,152.0 480.3,152.0 480.4,152.0 480.5,152.0 480.6,152.0 480.7,152.0 480.8,152.0 480.9,152.0 481.0,152.0 481.1,152.0 481.2,152.0 481.3,152.0 481.4,152.0 481.5,152.0 481.6,152.0 481.7,152.0 481.8,152.0 481.9,152.0 482.0,152.0 482.1,152.0 482.2,152.0 482.3,152.0 482.4,152.0 482.5,152.0 482.6,152.0 482.7,152.0 482.8,152.0 482.9,152.0 483.0,152.0 483.1,152.0 483.2,152.0 483.3,152.0 483.4,152.0 483.5,152.0 483.6,152.0 483.7,152.0 483.8,152.0 483.9,152.0 484.0,152.0 484.1,152.0 484.2,152.0 484.3,152.0 484.4,152.0 484.5,152.0 484.6,152.0 484.7,152.0 484.8,152.0 484.9,152.0 485.0,152.0 485.1,152.0 485.2,152.0 485.3,152.0 485.4,152.0 485.5,152.0 485.6,152.0 485.7,152.0 485.8,152.0 485.9,152.0 486.0,152.0 486.1,152.0 486.2,152.0 486.3,152.0 486.4,152.0 486.5,152.0 486.6,152.0 486.7,152.0 486.8,152.0 486.9,152.0 487.0,152.0 487.1,152.0 487.2,152.0 487.3,152.0 487.4,152.0 487.5,152.0 487.6,152.0 487.7,152.0 487.8,152.0 487.9,152.0 488.0,152.0 488.1,152.0 488.2,152.0 488.3,152.0 488.4,152.0 488.5,152.0 488.6,152.0 488.7,152.0 488.8,152.0 488.9,152.0 489.0,152.0 489.1,152.0 489.2,152.0 489.3,152.0 489.4,152.0 489.5,152.0 489.6,152.0 489.7,152.0 489.8,152.0 489.9,152.0 490.0,152.0 490.1,152.0 490.2,152.0 490.3,152.0 490.4,152.0 490.5,152.0 490.6,152.0 490.7,152.0 490.8,152.0 490.9,152.0 491.0,152.0 491.1,152.0 491.2,152.0 491.3,152.0 491.4,152.0 491.5,152.0 491.6,152.0 491.7,152.0 491.8,152.0 491.9,152.0 492.0,152.0 492.1,152.0 492.2,152.0 492.3,152.0 492.4,152.0 492.5,152.0 492.6,152.0 492.7,152.0 492.9,152.0 493.0,152.0 493.1,152.0 493.2,152.0 493.3,152.0 493.4,152.0 493.5,152.0 493.6,152.0 493.7,152.0 493.8,152.0 493.9,152.0 494.0,152.0 494.1,152.0 494.2,152.0 494.3,152.0 494.4,152.0 494.5,152.0 494.6,152.0 494.7,152.0 494.8,152.0 494.9,152.0 495.0,152.0 495.1,152.0 495.2,152.0 495.3,152.0 495.4,152.0 495.5,152.0 495.6,152.0 495.7,152.0 495.8,152.0 495.9,152.0 496.0,152.0 496.1,152.0 496.2,152.0 496.3,152.0 496.4,152.0 496.5,152.0 496.6,152.0 496.7,152.0 496.8,152.0 496.9,152.0 497.0,152.0 497.1,152.0 497.2,152.0 497.3,152.0 497.4,152.0 497.5,152.0 497.6,152.0 497.7,152.0 497.8,152.0 497.9,152.0 498.0,152.0 498.1,152.0 498.2,152.0 498.3,152.0 498.4,152.0 498.5,152.0 498.6,152.0 498.7,152.0 498.8,152.0 498.9,152.0 499.0,152.0 499.1,152.0 499.2,152.0 499.3,152.0 499.4,152.0 499.5,152.0 499.6,152.0 499.7,152.0 499.8,152.0 499.9,152.0 500.0,152.0 500.1,152.0 500.2,152.0 500.3,152.0 500.4,152.0 500.5,152.0 500.6,152.0 500.7,152.0 500.8,152.0 500.9,152.0 501.0,152.0 501.1,152.0 501.2,152.0 501.3,152.0 501.4,152.0 501.5,152.0 501.6,152.0 501.7,152.0 501.8,152.0 501.9,152.0 502.0,152.0 502.1,152.0 502.2,152.0 502.3,152.0 502.4,152.0 502.5,152.0 502.6,152.0 502.7,152.0 502.8,152.0 502.9,152.0 503.0,152.0 503.1,152.0 503.2,152.0 503.3,152.0 503.4,152.0 503.5,152.0 503.6,152.0 503.7,152.0 503.8,152.0 503.9,152.0 504.0,152.0 504.1,152.0 504.2,152.0 504.3,152.0 504.4,152.0 504.5,152.0 504.6,152.0 504.7,152.0 504.8,152.0 504.9,152.0 505.0,152.0 505.1,152.0 505.2,152.0 505.3,152.0 505.4,152.0 505.5,152.0 505.6,152.0 505.7,152.0 505.8,152.0 505.9,152.0 506.0,152.0 506.1,152.0 506.2,152.0 506.3,152.0 506.4,152.0 506.5,152.0 506.6,152.0 506.7,152.0 506.8,152.0 506.9,152.0 507.0,152.0 507.1,152.0 507.2,152.0 507.3,152.0 507.4,152.0 507.5,152.0 507.6,152.0 507.7,152.0 507.8,152.0 507.9,152.0 508.0,152.0 508.1,152.0 508.2,152.0 508.3,152.0 508.4,152.0 508.5,152.0 508.6,152.0 508.7,152.0 508.8,152.0 508.9,152.0 509.0,152.0 509.1,152.0 509.2,152.0 509.3,152.0 509.4,152.0 509.5,152.0 509.6,152.0 509.7,152.0 509.8,152.0 509.9,152.0 510.0,152.0 510.1,152.0 510.2,152.0 510.3,152.0 510.4,152.0 510.5,152.0 510.6,152.0 510.7,152.0 510.8,152.0 510.9,152.0 511.0,152.0 511.1,152.0 511.2,152.0 511.3,152.0 511.4,152.0 511.5,152.0 511.6,152.0 511.7,152.0 511.8,152.0 511.9,152.0 512.0,152.0 512.1,152.0 512.2,152.0 512.3,152.0 512.4,152.0 512.5,152.0 512.6,152.0 512.7,152.0 512.8,152.0 512.9,152.0 513.0,152.0 513.1,152.0 513.2,152.0 513.3,152.0 513.4,152.0 513.5,152.0 513.6,152.0 513.7,152.0 513.8,152.0 513.9,152.0 514.0,152.0 514.1,152.0 514.2,152.0 514.3,152.0 514.4,152.0 514.5,152.0 514.6,152.0 514.7,152.0 514.8,152.0 514.9,152.0 515.0,152.0 515.1,152.0 515.2,152.0 515.3,152.0 515.4,152.0 515.5,152.0 515.6,152.0 515.7,152.0 515.8,152.0 515.9,152.0 516.0,152.0 516.1,152.0 516.2,152.0 516.3,152.0 516.4,152.0 516.5,152.0 516.6,152.0 516.7,152.0 516.8,152.0 516.9,152.0 517.0,152.0 517.1,152.0 517.2,152.0 517.3,152.0 517.4,152.0 517.5,152.0 517.6,152.0 517.7,152.0 517.8,152.0 517.9,152.0 518.0,152.0 518.1,152.0 518.2,152.0 518.3,152.0 518.4,152.0 518.5,152.0 518.6,152.0 518.7,152.0 518.8,152.0 518.9,152.0 519.0,152.0 519.1,152.0 519.2,152.0 519.3,152.0 519.4,152.0 519.5,152.0 519.6,152.0 519.7,152.0 519.8,152.0 519.9,152.0 520.0,152.0 520.1,152.0 520.2,152.0 520.3,152.0 520.4,152.0 520.5,152.0 520.6,152.0 520.7,152.0 520.8,152.0 520.9,152.0 521.0,152.0 521.1,152.0 521.2,152.0 521.3,152.0 521.4,152.0 521.5,152.0 521.6,152.0 521.7,152.0 521.8,152.0 521.9,152.0 522.0,152.0 522.1,152.0 522.2,152.0 522.3,152.0 522.4,152.0 522.5,152.0 522.6,152.0 522.7,152.0 522.8,152.0 522.9,152.0 523.0,152.0 523.1,152.0 523.2,152.0 523.3,152.0 523.4,152.0 523.5,152.0 523.6,152.0 523.7,152.0 523.8,152.0 523.9,152.0 524.0,152.0 524.1,152.0 524.2,152.0 524.3,152.0 524.4,152.0 524.5,152.0 524.6,152.0 524.7,152.0 524.8,152.0 524.9,152.0 525.0,152.0 525.1,152.0 525.2,152.0 525.3,152.0 525.4,152.0 525.5,152.0 525.6,152.0 525.7,152.0 525.8,152.0 525.9,152.0 526.0,152.0 526.1,152.0 526.2,152.0 526.3,152.0 526.4,152.0 526.5,152.0 526.6,152.0 526.7,152.0 526.8,152.0 526.9,152.0 527.0,152.0" fill="none" stroke="#4a90d9" stroke-width="1.2" stroke-linejoin="round"/>
  <text x="154.5" y="176" text-anchor="middle" font-size="8" fill="#6b7280">n / N</text>
  <text x="424.5" y="176" text-anchor="middle" font-size="8" fill="#6b7280">Normalized frequency (× Fₛ)</text>
</svg>
