<svg xmlns="http://www.w3.org/2000/svg" viewBox="0 0 560 210" width="560" height="210" style="font-family:system-ui,-apple-system,sans-serif">
  <rect width="560" height="210" fill="#fafafa" rx="6"/>
  <text x="280" y="18" text-anchor="middle" font-size="12" font-weight="600" fill="#374151">confinedGaussian</text>
  <line x1="52" y1="166.0" x2="257" y2="166.0" stroke="#e5e7eb" stroke-width="0.5"/>
  <text x="48" y="169.0" text-anchor="end" font-size="7.5" fill="#6b7280">0</text>
  <line x1="52" y1="97.0" x2="257" y2="97.0" stroke="#e5e7eb" stroke-width="0.5"/>
  <text x="48" y="100.0" text-anchor="end" font-size="7.5" fill="#6b7280">0.5</text>
  <line x1="52" y1="28.0" x2="257" y2="28.0" stroke="#e5e7eb" stroke-width="0.5"/>
  <text x="48" y="31.0" text-anchor="end" font-size="7.5" fill="#6b7280">1</text>
  <line x1="52.0" y1="28" x2="52.0" y2="166" stroke="#e5e7eb" stroke-width="0.5"/>
  <text x="52.0" y="178" text-anchor="middle" font-size="7.5" fill="#6b7280">0</text>
  <line x1="154.5" y1="28" x2="154.5" y2="166" stroke="#e5e7eb" stroke-width="0.5"/>
  <text x="154.5" y="178" text-anchor="middle" font-size="7.5" fill="#6b7280">0.5</text>
  <line x1="257.0" y1="28" x2="257.0" y2="166" stroke="#e5e7eb" stroke-width="0.5"/>
  <text x="257.0" y="178" text-anchor="middle" font-size="7.5" fill="#6b7280">1</text>
  <line x1="52" y1="28" x2="52" y2="166" stroke="#d1d5db" stroke-width="0.75"/>
  <line x1="52" y1="166" x2="257" y2="166" stroke="#d1d5db" stroke-width="0.75"/>
  <path d="M52.0,166.0 52.0,166.0 52.8,165.9 53.6,165.9 54.4,165.8 55.2,165.7 56.0,165.7 56.8,165.6 57.6,165.6 58.4,165.5 59.2,165.4 60.0,165.4 60.8,165.3 61.6,165.2 62.5,165.1 63.3,165.0 64.1,164.9 64.9,164.8 65.7,164.7 66.5,164.6 67.3,164.4 68.1,164.3 68.9,164.1 69.7,164.0 70.5,163.8 71.3,163.6 72.1,163.4 72.9,163.2 73.7,163.0 74.5,162.8 75.3,162.5 76.1,162.2 76.9,161.9 77.7,161.6 78.5,161.3 79.3,161.0 80.1,160.6 80.9,160.2 81.7,159.8 82.5,159.3 83.4,158.9 84.2,158.4 85.0,157.9 85.8,157.3 86.6,156.8 87.4,156.1 88.2,155.5 89.0,154.8 89.8,154.1 90.6,153.4 91.4,152.6 92.2,151.8 93.0,150.9 93.8,150.0 94.6,149.1 95.4,148.1 96.2,147.1 97.0,146.1 97.8,145.0 98.6,143.8 99.4,142.6 100.2,141.4 101.0,140.1 101.8,138.8 102.6,137.4 103.5,136.0 104.3,134.5 105.1,133.0 105.9,131.5 106.7,129.9 107.5,128.2 108.3,126.5 109.1,124.8 109.9,123.0 110.7,121.2 111.5,119.3 112.3,117.4 113.1,115.4 113.9,113.4 114.7,111.4 115.5,109.3 116.3,107.3 117.1,105.1 117.9,103.0 118.7,100.8 119.5,98.6 120.3,96.3 121.1,94.1 121.9,91.8 122.7,89.5 123.5,87.3 124.4,85.0 125.2,82.7 126.0,80.4 126.8,78.1 127.6,75.8 128.4,73.5 129.2,71.2 130.0,69.0 130.8,66.7 131.6,64.5 132.4,62.4 133.2,60.2 134.0,58.1 134.8,56.0 135.6,54.0 136.4,52.1 137.2,50.2 138.0,48.3 138.8,46.5 139.6,44.8 140.4,43.1 141.2,41.5 142.0,40.0 142.8,38.6 143.6,37.2 144.5,35.9 145.3,34.7 146.1,33.6 146.9,32.6 147.7,31.7 148.5,30.9 149.3,30.2 150.1,29.6 150.9,29.1 151.7,28.6 152.5,28.3 153.3,28.1 154.1,28.0 154.9,28.0 155.7,28.1 156.5,28.3 157.3,28.6 158.1,29.1 158.9,29.6 159.7,30.2 160.5,30.9 161.3,31.7 162.1,32.6 162.9,33.6 163.7,34.7 164.5,35.9 165.4,37.2 166.2,38.6 167.0,40.0 167.8,41.5 168.6,43.1 169.4,44.8 170.2,46.5 171.0,48.3 171.8,50.2 172.6,52.1 173.4,54.0 174.2,56.0 175.0,58.1 175.8,60.2 176.6,62.4 177.4,64.5 178.2,66.7 179.0,69.0 179.8,71.2 180.6,73.5 181.4,75.8 182.2,78.1 183.0,80.4 183.8,82.7 184.6,85.0 185.5,87.3 186.3,89.5 187.1,91.8 187.9,94.1 188.7,96.3 189.5,98.6 190.3,100.8 191.1,103.0 191.9,105.1 192.7,107.3 193.5,109.3 194.3,111.4 195.1,113.4 195.9,115.4 196.7,117.4 197.5,119.3 198.3,121.2 199.1,123.0 199.9,124.8 200.7,126.5 201.5,128.2 202.3,129.9 203.1,131.5 203.9,133.0 204.7,134.5 205.5,136.0 206.4,137.4 207.2,138.8 208.0,140.1 208.8,141.4 209.6,142.6 210.4,143.8 211.2,145.0 212.0,146.1 212.8,147.1 213.6,148.1 214.4,149.1 215.2,150.0 216.0,150.9 216.8,151.8 217.6,152.6 218.4,153.4 219.2,154.1 220.0,154.8 220.8,155.5 221.6,156.1 222.4,156.8 223.2,157.3 224.0,157.9 224.8,158.4 225.6,158.9 226.5,159.3 227.3,159.8 228.1,160.2 228.9,160.6 229.7,161.0 230.5,161.3 231.3,161.6 232.1,161.9 232.9,162.2 233.7,162.5 234.5,162.8 235.3,163.0 236.1,163.2 236.9,163.4 237.7,163.6 238.5,163.8 239.3,164.0 240.1,164.1 240.9,164.3 241.7,164.4 242.5,164.6 243.3,164.7 244.1,164.8 244.9,164.9 245.7,165.0 246.5,165.1 247.4,165.2 248.2,165.3 249.0,165.4 249.8,165.4 250.6,165.5 251.4,165.6 252.2,165.6 253.0,165.7 253.8,165.7 254.6,165.8 255.4,165.9 256.2,165.9 257.0,166.0 L257.0,166.0 Z" fill="#4a90d9" fill-opacity="0.06"/>
  <polyline points="52.0,166.0 52.8,165.9 53.6,165.9 54.4,165.8 55.2,165.7 56.0,165.7 56.8,165.6 57.6,165.6 58.4,165.5 59.2,165.4 60.0,165.4 60.8,165.3 61.6,165.2 62.5,165.1 63.3,165.0 64.1,164.9 64.9,164.8 65.7,164.7 66.5,164.6 67.3,164.4 68.1,164.3 68.9,164.1 69.7,164.0 70.5,163.8 71.3,163.6 72.1,163.4 72.9,163.2 73.7,163.0 74.5,162.8 75.3,162.5 76.1,162.2 76.9,161.9 77.7,161.6 78.5,161.3 79.3,161.0 80.1,160.6 80.9,160.2 81.7,159.8 82.5,159.3 83.4,158.9 84.2,158.4 85.0,157.9 85.8,157.3 86.6,156.8 87.4,156.1 88.2,155.5 89.0,154.8 89.8,154.1 90.6,153.4 91.4,152.6 92.2,151.8 93.0,150.9 93.8,150.0 94.6,149.1 95.4,148.1 96.2,147.1 97.0,146.1 97.8,145.0 98.6,143.8 99.4,142.6 100.2,141.4 101.0,140.1 101.8,138.8 102.6,137.4 103.5,136.0 104.3,134.5 105.1,133.0 105.9,131.5 106.7,129.9 107.5,128.2 108.3,126.5 109.1,124.8 109.9,123.0 110.7,121.2 111.5,119.3 112.3,117.4 113.1,115.4 113.9,113.4 114.7,111.4 115.5,109.3 116.3,107.3 117.1,105.1 117.9,103.0 118.7,100.8 119.5,98.6 120.3,96.3 121.1,94.1 121.9,91.8 122.7,89.5 123.5,87.3 124.4,85.0 125.2,82.7 126.0,80.4 126.8,78.1 127.6,75.8 128.4,73.5 129.2,71.2 130.0,69.0 130.8,66.7 131.6,64.5 132.4,62.4 133.2,60.2 134.0,58.1 134.8,56.0 135.6,54.0 136.4,52.1 137.2,50.2 138.0,48.3 138.8,46.5 139.6,44.8 140.4,43.1 141.2,41.5 142.0,40.0 142.8,38.6 143.6,37.2 144.5,35.9 145.3,34.7 146.1,33.6 146.9,32.6 147.7,31.7 148.5,30.9 149.3,30.2 150.1,29.6 150.9,29.1 151.7,28.6 152.5,28.3 153.3,28.1 154.1,28.0 154.9,28.0 155.7,28.1 156.5,28.3 157.3,28.6 158.1,29.1 158.9,29.6 159.7,30.2 160.5,30.9 161.3,31.7 162.1,32.6 162.9,33.6 163.7,34.7 164.5,35.9 165.4,37.2 166.2,38.6 167.0,40.0 167.8,41.5 168.6,43.1 169.4,44.8 170.2,46.5 171.0,48.3 171.8,50.2 172.6,52.1 173.4,54.0 174.2,56.0 175.0,58.1 175.8,60.2 176.6,62.4 177.4,64.5 178.2,66.7 179.0,69.0 179.8,71.2 180.6,73.5 181.4,75.8 182.2,78.1 183.0,80.4 183.8,82.7 184.6,85.0 185.5,87.3 186.3,89.5 187.1,91.8 187.9,94.1 188.7,96.3 189.5,98.6 190.3,100.8 191.1,103.0 191.9,105.1 192.7,107.3 193.5,109.3 194.3,111.4 195.1,113.4 195.9,115.4 196.7,117.4 197.5,119.3 198.3,121.2 199.1,123.0 199.9,124.8 200.7,126.5 201.5,128.2 202.3,129.9 203.1,131.5 203.9,133.0 204.7,134.5 205.5,136.0 206.4,137.4 207.2,138.8 208.0,140.1 208.8,141.4 209.6,142.6 210.4,143.8 211.2,145.0 212.0,146.1 212.8,147.1 213.6,148.1 214.4,149.1 215.2,150.0 216.0,150.9 216.8,151.8 217.6,152.6 218.4,153.4 219.2,154.1 220.0,154.8 220.8,155.5 221.6,156.1 222.4,156.8 223.2,157.3 224.0,157.9 224.8,158.4 225.6,158.9 226.5,159.3 227.3,159.8 228.1,160.2 228.9,160.6 229.7,161.0 230.5,161.3 231.3,161.6 232.1,161.9 232.9,162.2 233.7,162.5 234.5,162.8 235.3,163.0 236.1,163.2 236.9,163.4 237.7,163.6 238.5,163.8 239.3,164.0 240.1,164.1 240.9,164.3 241.7,164.4 242.5,164.6 243.3,164.7 244.1,164.8 244.9,164.9 245.7,165.0 246.5,165.1 247.4,165.2 248.2,165.3 249.0,165.4 249.8,165.4 250.6,165.5 251.4,165.6 252.2,165.6 253.0,165.7 253.8,165.7 254.6,165.8 255.4,165.9 256.2,165.9 257.0,166.0" fill="none" stroke="#4a90d9" stroke-width="1.2" stroke-linejoin="round"/>
  <line x1="322" y1="28.0" x2="527" y2="28.0" stroke="#e5e7eb" stroke-width="0.5"/>
  <text x="318" y="31.0" text-anchor="end" font-size="7.5" fill="#6b7280">0</text>
  <line x1="322" y1="74.0" x2="527" y2="74.0" stroke="#e5e7eb" stroke-width="0.5"/>
  <text x="318" y="77.0" text-anchor="end" font-size="7.5" fill="#6b7280">-40</text>
  <line x1="322" y1="120.0" x2="527" y2="120.0" stroke="#e5e7eb" stroke-width="0.5"/>
  <text x="318" y="123.0" text-anchor="end" font-size="7.5" fill="#6b7280">-80</text>
  <line x1="322" y1="166.0" x2="527" y2="166.0" stroke="#e5e7eb" stroke-width="0.5"/>
  <text x="318" y="169.0" text-anchor="end" font-size="7.5" fill="#6b7280">-120</text>
  <line x1="322.0" y1="28" x2="322.0" y2="166" stroke="#e5e7eb" stroke-width="0.5"/>
  <text x="322.0" y="178" text-anchor="middle" font-size="7.5" fill="#6b7280">0</text>
  <line x1="363.0" y1="28" x2="363.0" y2="166" stroke="#e5e7eb" stroke-width="0.5"/>
  <text x="363.0" y="178" text-anchor="middle" font-size="7.5" fill="#6b7280">0.1</text>
  <line x1="404.0" y1="28" x2="404.0" y2="166" stroke="#e5e7eb" stroke-width="0.5"/>
  <text x="404.0" y="178" text-anchor="middle" font-size="7.5" fill="#6b7280">0.2</text>
  <line x1="445.0" y1="28" x2="445.0" y2="166" stroke="#e5e7eb" stroke-width="0.5"/>
  <text x="445.0" y="178" text-anchor="middle" font-size="7.5" fill="#6b7280">0.3</text>
  <line x1="486.0" y1="28" x2="486.0" y2="166" stroke="#e5e7eb" stroke-width="0.5"/>
  <text x="486.0" y="178" text-anchor="middle" font-size="7.5" fill="#6b7280">0.4</text>
  <line x1="527.0" y1="28" x2="527.0" y2="166" stroke="#e5e7eb" stroke-width="0.5"/>
  <text x="527.0" y="178" text-anchor="middle" font-size="7.5" fill="#6b7280">0.5</text>
  <line x1="322" y1="28" x2="322" y2="166" stroke="#d1d5db" stroke-width="0.75"/>
  <line x1="322" y1="166" x2="527" y2="166" stroke="#d1d5db" stroke-width="0.75"/>
  <polyline points="322.0,28.0 322.1,28.0 322.2,28.1 322.3,28.1 322.4,28.2 322.5,28.4 322.6,28.6 322.7,28.8 322.8,29.0 322.9,29.2 323.0,29.5 323.1,29.9 323.2,30.2 323.3,30.6 323.4,31.0 323.5,31.5 323.6,32.0 323.7,32.5 323.8,33.0 323.9,33.6 324.0,34.2 324.1,34.8 324.2,35.5 324.3,36.2 324.4,36.9 324.5,37.7 324.6,38.5 324.7,39.3 324.8,40.2 324.9,41.1 325.0,42.0 325.1,42.9 325.2,43.9 325.3,44.9 325.4,46.0 325.5,47.0 325.6,48.1 325.7,49.3 325.8,50.4 325.9,51.6 326.0,52.8 326.1,54.1 326.2,55.3 326.3,56.6 326.4,58.0 326.5,59.3 326.6,60.7 326.7,62.1 326.8,63.6 326.9,65.0 327.0,66.5 327.1,68.1 327.2,69.7 327.3,71.4 327.4,73.1 327.5,74.8 327.6,76.7 327.7,78.6 327.8,80.6 327.9,82.7 328.0,84.9 328.1,87.2 328.2,89.6 328.3,92.1 328.4,94.8 328.5,97.5 328.6,100.2 328.7,102.8 328.8,105.1 328.9,106.9 329.0,108.1 329.1,108.5 329.2,108.4 329.3,107.9 329.4,107.3 329.5,106.6 329.6,106.1 329.7,105.6 329.8,105.4 329.9,105.5 330.0,105.8 330.1,106.3 330.2,107.2 330.3,108.6 330.4,110.4 330.5,113.0 330.6,116.8 330.7,123.4 330.8,150.5 330.9,125.2 331.0,118.3 331.1,114.6 331.2,112.3 331.3,110.8 331.4,109.9 331.5,109.4 331.6,109.4 331.7,109.7 331.8,110.5 331.9,111.7 332.0,113.5 332.1,116.0 332.2,119.9 332.3,126.9 332.4,166.0 332.5,126.8 332.6,120.3 332.7,116.8 332.8,114.5 332.9,113.0 333.0,112.1 333.1,111.7 333.2,111.6 333.3,112.0 333.4,112.7 333.5,113.9 333.6,115.7 333.7,118.2 333.8,122.1 333.9,129.1 334.0,166.0 334.1,129.0 334.2,122.5 334.3,118.9 334.4,116.7 334.5,115.2 334.6,114.3 334.7,113.8 334.8,113.8 334.9,114.1 335.0,114.8 335.1,116.0 335.2,117.8 335.3,120.3 335.4,124.2 335.5,131.1 335.6,166.0 335.7,131.1 335.8,124.5 335.9,121.0 336.0,118.7 336.1,117.2 336.2,116.3 336.3,115.8 336.4,115.7 336.5,116.1 336.6,116.8 336.7,118.0 336.8,119.7 336.9,122.3 337.0,126.1 337.1,133.0 337.2,166.0 337.3,133.0 337.4,126.4 337.5,122.9 337.6,120.6 337.7,119.1 337.8,118.1 337.9,117.7 338.0,117.6 338.1,117.9 338.2,118.6 338.3,119.8 338.4,121.5 338.5,124.0 338.6,127.9 338.7,134.8 338.8,166.0 338.9,134.8 339.0,128.2 339.1,124.6 339.2,122.3 339.3,120.8 339.4,119.9 339.5,119.4 339.6,119.3 339.7,119.6 339.8,120.3 339.9,121.5 340.0,123.2 340.1,125.7 340.2,129.6 340.3,136.4 340.4,166.0 340.5,136.4 340.6,129.8 340.7,126.2 340.8,123.9 340.9,122.4 341.0,121.5 341.1,121.0 341.2,120.9 341.3,121.2 341.4,121.9 341.5,123.0 341.6,124.7 341.7,127.3 341.8,131.1 341.9,138.0 342.0,166.0 342.1,137.9 342.2,131.4 342.3,127.7 342.4,125.4 342.5,123.9 342.6,123.0 342.7,122.5 342.8,122.4 342.9,122.7 343.0,123.3 343.1,124.5 343.2,126.2 343.3,128.7 343.4,132.5 343.5,139.4 343.6,166.0 343.7,139.4 343.8,132.8 343.9,129.2 344.0,126.9 344.1,125.3 344.2,124.4 344.3,123.9 344.4,123.8 344.5,124.0 344.6,124.7 344.7,125.9 344.8,127.6 344.9,130.1 345.0,133.9 345.1,140.8 345.2,166.0 345.3,140.7 345.4,134.1 345.5,130.5 345.6,128.2 345.7,126.7 345.8,125.7 345.9,125.2 346.0,125.1 346.1,125.3 346.2,126.0 346.3,127.2 346.4,128.9 346.5,131.4 346.6,135.2 346.7,142.0 346.8,166.0 346.9,142.0 347.0,135.4 347.1,131.8 347.2,129.4 347.3,127.9 347.4,126.9 347.5,126.4 347.6,126.3 347.7,126.6 347.8,127.2 347.9,128.4 348.0,130.1 348.1,132.6 348.2,136.4 348.3,143.2 348.4,166.0 348.5,143.2 348.6,136.6 348.7,132.9 348.8,130.6 348.9,129.1 349.0,128.1 349.1,127.6 349.2,127.5 349.3,127.7 349.4,128.4 349.5,129.5 349.6,131.2 349.7,133.7 349.8,137.5 349.9,144.4 350.0,166.0 350.1,144.3 350.2,137.7 350.3,134.1 350.4,131.7 350.5,130.2 350.6,129.2 350.7,128.7 350.8,128.6 350.9,128.8 351.0,129.5 351.1,130.6 351.2,132.3 351.3,134.8 351.4,138.6 351.5,145.4 351.6,166.0 351.7,145.4 351.8,138.8 351.9,135.1 352.0,132.8 352.1,131.3 352.2,130.3 352.3,129.7 352.4,129.6 352.5,129.9 352.6,130.5 352.7,131.7 352.8,133.4 352.9,135.8 353.0,139.6 353.1,146.5 353.2,166.0 353.3,146.4 353.4,139.8 353.5,136.2 353.6,133.8 353.7,132.3 353.8,131.3 353.9,130.8 354.0,130.6 354.1,130.9 354.2,131.5 354.3,132.7 354.4,134.3 354.5,136.8 354.6,140.6 354.7,147.4 354.8,166.0 354.9,147.4 355.0,140.8 355.1,137.1 355.2,134.8 355.3,133.2 355.4,132.2 355.5,131.7 355.6,131.6 355.7,131.8 355.8,132.5 355.9,133.6 356.0,135.3 356.1,137.8 356.3,141.6 356.4,148.4 356.5,166.0 356.6,148.4 356.7,141.7 356.8,138.1 356.9,135.7 357.0,134.2 357.1,133.2 357.2,132.6 357.3,132.5 357.4,132.8 357.5,133.4 357.6,134.5 357.7,136.2 357.8,138.7 357.9,142.5 358.0,149.3 358.1,166.0 358.2,149.3 358.3,142.6 358.4,139.0 358.5,136.6 358.6,135.0 358.7,134.1 358.8,133.5 358.9,133.4 359.0,133.6 359.1,134.3 359.2,135.4 359.3,137.1 359.4,139.5 359.5,143.3 359.6,150.1 359.7,166.0 359.8,150.1 359.9,143.5 360.0,139.8 360.1,137.5 360.2,135.9 360.3,134.9 360.4,134.4 360.5,134.2 360.6,134.5 360.7,135.1 360.8,136.2 360.9,137.9 361.0,140.4 361.1,144.2 361.2,151.0 361.3,166.0 361.4,150.9 361.5,144.3 361.6,140.6 361.7,138.3 361.8,136.7 361.9,135.7 362.0,135.2 362.1,135.0 362.2,135.3 362.3,135.9 362.4,137.0 362.5,138.7 362.6,141.2 362.7,145.0 362.8,151.8 362.9,166.0 363.0,151.7 363.1,145.1 363.2,141.4 363.3,139.1 363.4,137.5 363.5,136.5 363.6,136.0 363.7,135.8 363.8,136.1 363.9,136.7 364.0,137.8 364.1,139.5 364.2,141.9 364.3,145.7 364.4,152.5 364.5,166.0 364.6,152.5 364.7,145.9 364.8,142.2 364.9,139.8 365.0,138.3 365.1,137.3 365.2,136.7 365.3,136.6 365.4,136.8 365.5,137.5 365.6,138.6 365.7,140.2 365.8,142.7 365.9,146.5 366.0,153.3 366.1,166.0 366.2,153.3 366.3,146.6 366.4,142.9 366.5,140.6 366.6,139.0 366.7,138.0 366.8,137.4 366.9,137.3 367.0,137.5 367.1,138.2 367.2,139.3 367.3,141.0 367.4,143.4 367.5,147.2 367.6,154.0 367.7,166.0 367.8,154.0 367.9,147.3 368.0,143.6 368.1,141.3 368.2,139.7 368.3,138.7 368.4,138.2 368.5,138.0 368.6,138.2 368.7,138.9 368.8,140.0 368.9,141.7 369.0,144.1 369.1,147.9 369.2,154.7 369.3,166.0 369.4,154.7 369.5,148.0 369.6,144.3 369.7,142.0 369.8,140.4 369.9,139.4 370.0,138.8 370.1,138.7 370.2,138.9 370.3,139.6 370.4,140.7 370.5,142.3 370.6,144.8 370.7,148.6 370.8,155.4 370.9,166.0 371.0,155.3 371.1,148.7 371.2,145.0 371.3,142.6 371.4,141.1 371.5,140.1 371.6,139.5 371.7,139.4 371.8,139.6 371.9,140.2 372.0,141.3 372.1,143.0 372.2,145.4 372.3,149.2 372.4,156.0 372.5,166.0 372.6,156.0 372.7,149.3 372.8,145.7 372.9,143.3 373.0,141.7 373.1,140.7 373.2,140.2 373.3,140.0 373.4,140.2 373.5,140.9 373.6,142.0 373.7,143.6 373.8,146.1 373.9,149.9 374.0,156.7 374.1,166.0 374.2,156.6 374.3,150.0 374.4,146.3 374.5,143.9 374.6,142.4 374.7,141.3 374.8,140.8 374.9,140.6 375.0,140.9 375.1,141.5 375.2,142.6 375.3,144.3 375.4,146.7 375.5,150.5 375.6,157.3 375.7,166.0 375.8,157.3 375.9,150.6 376.0,146.9 376.1,144.5 376.2,143.0 376.3,142.0 376.4,141.4 376.5,141.2 376.6,141.5 376.7,142.1 376.8,143.2 376.9,144.9 377.0,147.3 377.1,151.1 377.2,157.9 377.3,166.0 377.4,157.9 377.5,151.2 377.6,147.5 377.7,145.1 377.8,143.6 377.9,142.5 378.0,142.0 378.1,141.8 378.2,142.1 378.3,142.7 378.4,143.8 378.5,145.4 378.6,147.9 378.7,151.7 378.8,158.5 378.9,166.0 379.0,158.4 379.1,151.8 379.2,148.1 379.3,145.7 379.4,144.1 379.5,143.1 379.6,142.6 379.7,142.4 379.8,142.6 379.9,143.3 380.0,144.4 380.1,146.0 380.2,148.5 380.3,152.2 380.4,159.0 380.5,166.0 380.6,159.0 380.7,152.3 380.8,148.7 380.9,146.3 381.0,144.7 381.1,143.7 381.2,143.1 381.3,143.0 381.4,143.2 381.5,143.8 381.6,144.9 381.7,146.6 381.8,149.0 381.9,152.8 382.0,159.6 382.1,166.0 382.2,159.6 382.3,152.9 382.4,149.2 382.5,146.8 382.6,145.3 382.7,144.2 382.8,143.7 382.9,143.5 383.0,143.8 383.1,144.4 383.2,145.5 383.3,147.1 383.4,149.6 383.5,153.3 383.6,160.1 383.7,166.0 383.8,160.1 383.9,153.4 384.0,149.8 384.1,147.4 384.2,145.8 384.3,144.8 384.4,144.2 384.5,144.1 384.6,144.3 384.7,144.9 384.8,146.0 384.9,147.7 385.0,150.1 385.1,153.9 385.2,160.7 385.3,166.0 385.4,160.6 385.5,154.0 385.6,150.3 385.7,147.9 385.8,146.3 385.9,145.3 386.0,144.8 386.1,144.6 386.2,144.8 386.3,145.4 386.4,146.5 386.5,148.2 386.6,150.6 386.7,154.4 386.8,161.2 386.9,166.0 387.0,161.2 387.1,154.5 387.2,150.8 387.3,148.4 387.4,146.8 387.5,145.8 387.6,145.3 387.7,145.1 387.8,145.3 387.9,146.0 388.0,147.0 388.1,148.7 388.2,151.1 388.3,154.9 388.4,161.7 388.5,166.0 388.6,161.7 388.7,155.0 388.8,151.3 388.9,148.9 389.0,147.4 389.1,146.3 389.2,145.8 389.3,145.6 389.4,145.8 389.5,146.5 389.6,147.6 389.7,149.2 389.8,151.6 389.9,155.4 390.0,162.2 390.1,166.0 390.2,162.2 390.3,155.5 390.4,151.8 390.5,149.4 390.6,147.9 390.7,146.8 390.8,146.3 390.9,146.1 391.0,146.3 391.1,147.0 391.2,148.0 391.3,149.7 391.4,152.1 391.5,155.9 391.6,162.7 391.7,166.0 391.8,162.7 391.9,156.0 392.0,152.3 392.1,149.9 392.2,148.3 392.3,147.3 392.4,146.8 392.5,146.6 392.6,146.8 392.7,147.4 392.8,148.5 392.9,150.2 393.0,152.6 393.1,156.4 393.2,163.2 393.3,166.0 393.4,163.1 393.5,156.5 393.6,152.8 393.7,150.4 393.8,148.8 393.9,147.8 394.0,147.2 394.1,147.1 394.2,147.3 394.3,147.9 394.4,149.0 394.5,150.6 394.6,153.1 394.7,156.9 394.8,163.6 394.9,166.0 395.0,163.6 395.1,156.9 395.2,153.2 395.3,150.9 395.4,149.3 395.5,148.3 395.6,147.7 395.7,147.5 395.8,147.8 395.9,148.4 396.0,149.5 396.1,151.1 396.2,153.6 396.3,157.3 396.4,164.1 396.5,166.0 396.6,164.1 396.7,157.4 396.8,153.7 396.9,151.3 397.0,149.7 397.1,148.7 397.2,148.2 397.3,148.0 397.4,148.2 397.5,148.8 397.6,149.9 397.7,151.6 397.8,154.0 397.9,157.8 398.0,164.5 398.1,166.0 398.2,164.5 398.3,157.8 398.4,154.2 398.5,151.8 398.6,150.2 398.7,149.2 398.8,148.6 398.9,148.4 399.0,148.7 399.1,149.3 399.2,150.4 399.3,152.0 399.4,154.5 399.5,158.2 399.6,165.0 399.7,166.0 399.8,165.0 399.9,158.3 400.0,154.6 400.1,152.2 400.2,150.6 400.3,149.6 400.4,149.0 400.5,148.9 400.6,149.1 400.7,149.7 400.8,150.8 400.9,152.5 401.0,154.9 401.1,158.7 401.2,165.4 401.3,166.0 401.4,165.4 401.5,158.7 401.6,155.0 401.7,152.7 401.8,151.1 401.9,150.1 402.0,149.5 402.1,149.3 402.2,149.5 402.3,150.2 402.4,151.2 402.5,152.9 402.6,155.3 402.7,159.1 402.8,165.9 402.9,166.0 403.0,165.9 403.1,159.2 403.2,155.5 403.3,153.1 403.4,151.5 403.5,150.5 403.6,149.9 403.7,149.7 403.8,150.0 403.9,150.6 404.0,151.7 404.1,153.3 404.2,155.8 404.3,159.5 404.4,166.0 404.5,166.0 404.6,166.0 404.7,159.6 404.8,155.9 404.9,153.5 405.0,151.9 405.1,150.9 405.2,150.3 405.3,150.2 405.4,150.4 405.5,151.0 405.6,152.1 405.7,153.7 405.8,156.2 405.9,159.9 406.0,166.0 406.1,166.0 406.2,166.0 406.3,160.0 406.4,156.3 406.5,153.9 406.6,152.3 406.7,151.3 406.8,150.8 406.9,150.6 407.0,150.8 407.1,151.4 407.2,152.5 407.3,154.2 407.4,156.6 407.5,160.4 407.6,166.0 407.7,166.0 407.8,166.0 407.9,160.4 408.0,156.7 408.1,154.4 408.2,152.8 408.3,151.7 408.4,151.2 408.5,151.0 408.6,151.2 408.7,151.8 408.8,152.9 408.9,154.6 409.0,157.0 409.1,160.8 409.2,166.0 409.3,166.0 409.4,166.0 409.5,160.8 409.6,157.1 409.7,154.8 409.8,153.2 409.9,152.1 410.0,151.6 410.1,151.4 410.2,151.6 410.3,152.2 410.4,153.3 410.5,155.0 410.6,157.4 410.7,161.2 410.8,166.0 410.9,166.0 411.0,166.0 411.1,161.2 411.2,157.5 411.3,155.2 411.4,153.6 411.5,152.5 411.6,152.0 411.7,151.8 411.8,152.0 411.9,152.6 412.0,153.7 412.1,155.4 412.2,157.8 412.3,161.6 412.4,166.0 412.5,166.0 412.6,166.0 412.7,161.6 412.8,157.9 412.9,155.6 413.0,154.0 413.1,152.9 413.2,152.4 413.3,152.2 413.4,152.4 413.5,153.0 413.6,154.1 413.7,155.8 413.8,158.2 413.9,162.0 414.0,166.0 414.1,166.0 414.2,166.0 414.3,162.0 414.4,158.3 414.5,155.9 414.6,154.4 414.7,153.3 414.8,152.8 414.9,152.6 415.0,152.8 415.1,153.4 415.2,154.5 415.3,156.2 415.4,158.6 415.5,162.3 415.6,166.0 415.7,166.0 415.8,166.0 415.9,162.4 416.0,158.7 416.1,156.3 416.2,154.7 416.3,153.7 416.4,153.1 416.5,153.0 416.6,153.2 416.7,153.8 416.8,154.9 416.9,156.5 417.0,159.0 417.1,162.7 417.2,166.0 417.3,166.0 417.4,166.0 417.5,162.8 417.6,159.1 417.7,156.7 417.8,155.1 417.9,154.1 418.0,153.5 418.1,153.4 418.2,153.6 418.3,154.2 418.4,155.3 418.5,156.9 418.6,159.4 418.7,163.1 418.8,166.0 418.9,166.0 419.0,166.0 419.1,163.2 419.2,159.5 419.3,157.1 419.4,155.5 419.5,154.5 419.6,153.9 419.7,153.7 419.8,154.0 419.9,154.6 420.0,155.7 420.1,157.3 420.2,159.7 420.3,163.5 420.4,166.0 420.5,166.0 420.6,166.0 420.7,163.6 420.8,159.9 420.9,157.5 421.0,155.9 421.1,154.9 421.2,154.3 421.3,154.1 421.4,154.3 421.5,155.0 421.6,156.0 421.7,157.7 421.8,160.1 421.9,163.9 422.0,166.0 422.1,166.0 422.2,166.0 422.3,163.9 422.4,160.2 422.5,157.8 422.6,156.3 422.7,155.2 422.8,154.7 422.9,154.5 423.0,154.7 423.1,155.3 423.2,156.4 423.3,158.0 423.4,160.5 423.5,164.2 423.6,166.0 423.7,166.0 423.8,166.0 423.9,164.3 424.0,160.6 424.1,158.2 424.2,156.6 424.3,155.6 424.4,155.0 424.6,154.9 424.7,155.1 424.8,155.7 424.9,156.8 425.0,158.4 425.1,160.8 425.2,164.6 425.3,166.0 425.4,166.0 425.5,166.0 425.6,164.7 425.7,161.0 425.8,158.6 425.9,157.0 426.0,156.0 426.1,155.4 426.2,155.2 426.3,155.4 426.4,156.1 426.5,157.1 426.6,158.8 426.7,161.2 426.8,165.0 426.9,166.0 427.0,166.0 427.1,166.0 427.2,165.0 427.3,161.3 427.4,158.9 427.5,157.4 427.6,156.3 427.7,155.8 427.8,155.6 427.9,155.8 428.0,156.4 428.1,157.5 428.2,159.1 428.3,161.6 428.4,165.3 428.5,166.0 428.6,166.0 428.7,166.0 428.8,165.4 428.9,161.7 429.0,159.3 429.1,157.7 429.2,156.7 429.3,156.1 429.4,155.9 429.5,156.2 429.6,156.8 429.7,157.9 429.8,159.5 429.9,161.9 430.0,165.7 430.1,166.0 430.2,166.0 430.3,166.0 430.4,165.7 430.5,162.0 430.6,159.7 430.7,158.1 430.8,157.0 430.9,156.5 431.0,156.3 431.1,156.5 431.2,157.1 431.3,158.2 431.4,159.9 431.5,162.3 431.6,166.0 431.7,166.0 431.8,166.0 431.9,166.0 432.0,166.0 432.1,162.4 432.2,160.0 432.3,158.4 432.4,157.4 432.5,156.8 432.6,156.7 432.7,156.9 432.8,157.5 432.9,158.6 433.0,160.2 433.1,162.6 433.2,166.0 433.3,166.0 433.4,166.0 433.5,166.0 433.6,166.0 433.7,162.8 433.8,160.4 433.9,158.8 434.0,157.8 434.1,157.2 434.2,157.0 434.3,157.2 434.4,157.8 434.5,158.9 434.6,160.6 434.7,163.0 434.8,166.0 434.9,166.0 435.0,166.0 435.1,166.0 435.2,166.0 435.3,163.1 435.4,160.7 435.5,159.1 435.6,158.1 435.7,157.5 435.8,157.4 435.9,157.6 436.0,158.2 436.1,159.3 436.2,160.9 436.3,163.3 436.4,166.0 436.5,166.0 436.6,166.0 436.7,166.0 436.8,166.0 436.9,163.5 437.0,161.1 437.1,159.5 437.2,158.5 437.3,157.9 437.4,157.7 437.5,157.9 437.6,158.5 437.7,159.6 437.8,161.3 437.9,163.7 438.0,166.0 438.1,166.0 438.2,166.0 438.3,166.0 438.4,166.0 438.5,163.8 438.6,161.4 438.7,159.8 438.8,158.8 438.9,158.2 439.0,158.1 439.1,158.3 439.2,158.9 439.3,160.0 439.4,161.6 439.5,164.0 439.6,166.0 439.7,166.0 439.8,166.0 439.9,166.0 440.0,166.0 440.1,164.2 440.2,161.8 440.3,160.2 440.4,159.2 440.5,158.6 440.6,158.4 440.7,158.6 440.8,159.2 440.9,160.3 441.0,162.0 441.1,164.4 441.2,166.0 441.3,166.0 441.4,166.0 441.5,166.0 441.6,166.0 441.7,164.5 441.8,162.1 441.9,160.5 442.0,159.5 442.1,158.9 442.2,158.8 442.3,159.0 442.4,159.6 442.5,160.7 442.6,162.3 442.7,164.7 442.8,166.0 442.9,166.0 443.0,166.0 443.1,166.0 443.2,166.0 443.3,164.9 443.4,162.5 443.5,160.9 443.6,159.8 443.7,159.3 443.8,159.1 443.9,159.3 444.0,159.9 444.1,161.0 444.2,162.7 444.3,165.1 444.4,166.0 444.5,166.0 444.6,166.0 444.7,166.0 444.8,166.0 444.9,165.2 445.0,162.8 445.1,161.2 445.2,160.2 445.3,159.6 445.4,159.4 445.5,159.7 445.6,160.3 445.7,161.4 445.8,163.0 445.9,165.4 446.0,166.0 446.1,166.0 446.2,166.0 446.3,166.0 446.4,166.0 446.5,165.6 446.6,163.2 446.7,161.6 446.8,160.5 446.9,160.0 447.0,159.8 447.1,160.0 447.2,160.6 447.3,161.7 447.4,163.3 447.5,165.8 447.6,166.0 447.7,166.0 447.8,166.0 447.9,166.0 448.0,166.0 448.1,165.9 448.2,163.5 448.3,161.9 448.4,160.9 448.5,160.3 448.6,160.1 448.7,160.4 448.8,161.0 448.9,162.1 449.0,163.7 449.1,166.0 449.2,166.0 449.3,166.0 449.4,166.0 449.5,166.0 449.6,166.0 449.7,166.0 449.8,163.9 449.9,162.3 450.0,161.2 450.1,160.7 450.2,160.5 450.3,160.7 450.4,161.3 450.5,162.4 450.6,164.0 450.7,166.0 450.8,166.0 450.9,166.0 451.0,166.0 451.1,166.0 451.2,166.0 451.3,166.0 451.4,164.2 451.5,162.6 451.6,161.6 451.7,161.0 451.8,160.8 451.9,161.1 452.0,161.7 452.1,162.7 452.2,164.4 452.3,166.0 452.4,166.0 452.5,166.0 452.6,166.0 452.7,166.0 452.8,166.0 452.9,166.0 453.0,164.6 453.1,163.0 453.2,161.9 453.3,161.4 453.4,161.2 453.5,161.4 453.6,162.0 453.7,163.1 453.8,164.7 453.9,166.0 454.0,166.0 454.1,166.0 454.2,166.0 454.3,166.0 454.4,166.0 454.5,166.0 454.6,164.9 454.7,163.3 454.8,162.3 454.9,161.7 455.0,161.5 455.1,161.7 455.2,162.4 455.3,163.4 455.4,165.1 455.5,166.0 455.6,166.0 455.7,166.0 455.8,166.0 455.9,166.0 456.0,166.0 456.1,166.0 456.2,165.3 456.3,163.7 456.4,162.6 456.5,162.1 456.6,161.9 456.7,162.1 456.8,162.7 456.9,163.8 457.0,165.4 457.1,166.0 457.2,166.0 457.3,166.0 457.4,166.0 457.5,166.0 457.6,166.0 457.7,166.0 457.8,165.6 457.9,164.0 458.0,163.0 458.1,162.4 458.2,162.2 458.3,162.5 458.4,163.1 458.5,164.1 458.6,165.8 458.7,166.0 458.8,166.0 458.9,166.0 459.0,166.0 459.1,166.0 459.2,166.0 459.3,166.0 459.4,166.0 459.5,164.4 459.6,163.3 459.7,162.8 459.8,162.6 459.9,162.8 460.0,163.4 460.1,164.5 460.2,166.0 460.3,166.0 460.4,166.0 460.5,166.0 460.6,166.0 460.7,166.0 460.8,166.0 460.9,166.0 461.0,166.0 461.1,164.7 461.2,163.7 461.3,163.1 461.4,162.9 461.5,163.2 461.6,163.8 461.7,164.9 461.8,166.0 461.9,166.0 462.0,166.0 462.1,166.0 462.2,166.0 462.3,166.0 462.4,166.0 462.5,166.0 462.6,166.0 462.7,165.1 462.8,164.0 462.9,163.5 463.0,163.3 463.1,163.5 463.2,164.1 463.3,165.2 463.4,166.0 463.5,166.0 463.6,166.0 463.7,166.0 463.8,166.0 463.9,166.0 464.0,166.0 464.1,166.0 464.2,166.0 464.3,165.4 464.4,164.4 464.5,163.8 464.6,163.7 464.7,163.9 464.8,164.5 464.9,165.6 465.0,166.0 465.1,166.0 465.2,166.0 465.3,166.0 465.4,166.0 465.5,166.0 465.6,166.0 465.7,166.0 465.8,166.0 465.9,165.8 466.0,164.8 466.1,164.2 466.2,164.0 466.3,164.2 466.4,164.9 466.5,165.9 466.6,166.0 466.7,166.0 466.8,166.0 466.9,166.0 467.0,166.0 467.1,166.0 467.2,166.0 467.3,166.0 467.4,166.0 467.5,166.0 467.6,165.1 467.7,164.6 467.8,164.4 467.9,164.6 468.0,165.2 468.1,166.0 468.2,166.0 468.3,166.0 468.4,166.0 468.5,166.0 468.6,166.0 468.7,166.0 468.8,166.0 468.9,166.0 469.0,166.0 469.1,166.0 469.2,165.5 469.3,164.9 469.4,164.8 469.5,165.0 469.6,165.6 469.7,166.0 469.8,166.0 469.9,166.0 470.0,166.0 470.1,166.0 470.2,166.0 470.3,166.0 470.4,166.0 470.5,166.0 470.6,166.0 470.7,166.0 470.8,165.9 470.9,165.3 471.0,165.1 471.1,165.4 471.2,166.0 471.3,166.0 471.4,166.0 471.5,166.0 471.6,166.0 471.7,166.0 471.8,166.0 471.9,166.0 472.0,166.0 472.1,166.0 472.2,166.0 472.3,166.0 472.4,166.0 472.5,165.7 472.6,165.5 472.7,165.7 472.8,166.0 472.9,166.0 473.0,166.0 473.1,166.0 473.2,166.0 473.3,166.0 473.4,166.0 473.5,166.0 473.6,166.0 473.7,166.0 473.8,166.0 473.9,166.0 474.0,166.0 474.1,166.0 474.2,165.9 474.3,166.0 474.4,166.0 474.5,166.0 474.6,166.0 474.7,166.0 474.8,166.0 474.9,166.0 475.0,166.0 475.1,166.0 475.2,166.0 475.3,166.0 475.4,166.0 475.5,166.0 475.6,166.0 475.7,166.0 475.8,166.0 475.9,166.0 476.0,166.0 476.1,166.0 476.2,166.0 476.3,166.0 476.4,166.0 476.5,166.0 476.6,166.0 476.7,166.0 476.8,166.0 476.9,166.0 477.0,166.0 477.1,166.0 477.2,166.0 477.3,166.0 477.4,166.0 477.5,166.0 477.6,166.0 477.7,166.0 477.8,166.0 477.9,166.0 478.0,166.0 478.1,166.0 478.2,166.0 478.3,166.0 478.4,166.0 478.5,166.0 478.6,166.0 478.7,166.0 478.8,166.0 478.9,166.0 479.0,166.0 479.1,166.0 479.2,166.0 479.3,166.0 479.4,166.0 479.5,166.0 479.6,166.0 479.7,166.0 479.8,166.0 479.9,166.0 480.0,166.0 480.1,166.0 480.2,166.0 480.3,166.0 480.4,166.0 480.5,166.0 480.6,166.0 480.7,166.0 480.8,166.0 480.9,166.0 481.0,166.0 481.1,166.0 481.2,166.0 481.3,166.0 481.4,166.0 481.5,166.0 481.6,166.0 481.7,166.0 481.8,166.0 481.9,166.0 482.0,166.0 482.1,166.0 482.2,166.0 482.3,166.0 482.4,166.0 482.5,166.0 482.6,166.0 482.7,166.0 482.8,166.0 482.9,166.0 483.0,166.0 483.1,166.0 483.2,166.0 483.3,166.0 483.4,166.0 483.5,166.0 483.6,166.0 483.7,166.0 483.8,166.0 483.9,166.0 484.0,166.0 484.1,166.0 484.2,166.0 484.3,166.0 484.4,166.0 484.5,166.0 484.6,166.0 484.7,166.0 484.8,166.0 484.9,166.0 485.0,166.0 485.1,166.0 485.2,166.0 485.3,166.0 485.4,166.0 485.5,166.0 485.6,166.0 485.7,166.0 485.8,166.0 485.9,166.0 486.0,166.0 486.1,166.0 486.2,166.0 486.3,166.0 486.4,166.0 486.5,166.0 486.6,166.0 486.7,166.0 486.8,166.0 486.9,166.0 487.0,166.0 487.1,166.0 487.2,166.0 487.3,166.0 487.4,166.0 487.5,166.0 487.6,166.0 487.7,166.0 487.8,166.0 487.9,166.0 488.0,166.0 488.1,166.0 488.2,166.0 488.3,166.0 488.4,166.0 488.5,166.0 488.6,166.0 488.7,166.0 488.8,166.0 488.9,166.0 489.0,166.0 489.1,166.0 489.2,166.0 489.3,166.0 489.4,166.0 489.5,166.0 489.6,166.0 489.7,166.0 489.8,166.0 489.9,166.0 490.0,166.0 490.1,166.0 490.2,166.0 490.3,166.0 490.4,166.0 490.5,166.0 490.6,166.0 490.7,166.0 490.8,166.0 490.9,166.0 491.0,166.0 491.1,166.0 491.2,166.0 491.3,166.0 491.4,166.0 491.5,166.0 491.6,166.0 491.7,166.0 491.8,166.0 491.9,166.0 492.0,166.0 492.1,166.0 492.2,166.0 492.3,166.0 492.4,166.0 492.5,166.0 492.6,166.0 492.7,166.0 492.9,166.0 493.0,166.0 493.1,166.0 493.2,166.0 493.3,166.0 493.4,166.0 493.5,166.0 493.6,166.0 493.7,166.0 493.8,166.0 493.9,166.0 494.0,166.0 494.1,166.0 494.2,166.0 494.3,166.0 494.4,166.0 494.5,166.0 494.6,166.0 494.7,166.0 494.8,166.0 494.9,166.0 495.0,166.0 495.1,166.0 495.2,166.0 495.3,166.0 495.4,166.0 495.5,166.0 495.6,166.0 495.7,166.0 495.8,166.0 495.9,166.0 496.0,166.0 496.1,166.0 496.2,166.0 496.3,166.0 496.4,166.0 496.5,166.0 496.6,166.0 496.7,166.0 496.8,166.0 496.9,166.0 497.0,166.0 497.1,166.0 497.2,166.0 497.3,166.0 497.4,166.0 497.5,166.0 497.6,166.0 497.7,166.0 497.8,166.0 497.9,166.0 498.0,166.0 498.1,166.0 498.2,166.0 498.3,166.0 498.4,166.0 498.5,166.0 498.6,166.0 498.7,166.0 498.8,166.0 498.9,166.0 499.0,166.0 499.1,166.0 499.2,166.0 499.3,166.0 499.4,166.0 499.5,166.0 499.6,166.0 499.7,166.0 499.8,166.0 499.9,166.0 500.0,166.0 500.1,166.0 500.2,166.0 500.3,166.0 500.4,166.0 500.5,166.0 500.6,166.0 500.7,166.0 500.8,166.0 500.9,166.0 501.0,166.0 501.1,166.0 501.2,166.0 501.3,166.0 501.4,166.0 501.5,166.0 501.6,166.0 501.7,166.0 501.8,166.0 501.9,166.0 502.0,166.0 502.1,166.0 502.2,166.0 502.3,166.0 502.4,166.0 502.5,166.0 502.6,166.0 502.7,166.0 502.8,166.0 502.9,166.0 503.0,166.0 503.1,166.0 503.2,166.0 503.3,166.0 503.4,166.0 503.5,166.0 503.6,166.0 503.7,166.0 503.8,166.0 503.9,166.0 504.0,166.0 504.1,166.0 504.2,166.0 504.3,166.0 504.4,166.0 504.5,166.0 504.6,166.0 504.7,166.0 504.8,166.0 504.9,166.0 505.0,166.0 505.1,166.0 505.2,166.0 505.3,166.0 505.4,166.0 505.5,166.0 505.6,166.0 505.7,166.0 505.8,166.0 505.9,166.0 506.0,166.0 506.1,166.0 506.2,166.0 506.3,166.0 506.4,166.0 506.5,166.0 506.6,166.0 506.7,166.0 506.8,166.0 506.9,166.0 507.0,166.0 507.1,166.0 507.2,166.0 507.3,166.0 507.4,166.0 507.5,166.0 507.6,166.0 507.7,166.0 507.8,166.0 507.9,166.0 508.0,166.0 508.1,166.0 508.2,166.0 508.3,166.0 508.4,166.0 508.5,166.0 508.6,166.0 508.7,166.0 508.8,166.0 508.9,166.0 509.0,166.0 509.1,166.0 509.2,166.0 509.3,166.0 509.4,166.0 509.5,166.0 509.6,166.0 509.7,166.0 509.8,166.0 509.9,166.0 510.0,166.0 510.1,166.0 510.2,166.0 510.3,166.0 510.4,166.0 510.5,166.0 510.6,166.0 510.7,166.0 510.8,166.0 510.9,166.0 511.0,166.0 511.1,166.0 511.2,166.0 511.3,166.0 511.4,166.0 511.5,166.0 511.6,166.0 511.7,166.0 511.8,166.0 511.9,166.0 512.0,166.0 512.1,166.0 512.2,166.0 512.3,166.0 512.4,166.0 512.5,166.0 512.6,166.0 512.7,166.0 512.8,166.0 512.9,166.0 513.0,166.0 513.1,166.0 513.2,166.0 513.3,166.0 513.4,166.0 513.5,166.0 513.6,166.0 513.7,166.0 513.8,166.0 513.9,166.0 514.0,166.0 514.1,166.0 514.2,166.0 514.3,166.0 514.4,166.0 514.5,166.0 514.6,166.0 514.7,166.0 514.8,166.0 514.9,166.0 515.0,166.0 515.1,166.0 515.2,166.0 515.3,166.0 515.4,166.0 515.5,166.0 515.6,166.0 515.7,166.0 515.8,166.0 515.9,166.0 516.0,166.0 516.1,166.0 516.2,166.0 516.3,166.0 516.4,166.0 516.5,166.0 516.6,166.0 516.7,166.0 516.8,166.0 516.9,166.0 517.0,166.0 517.1,166.0 517.2,166.0 517.3,166.0 517.4,166.0 517.5,166.0 517.6,166.0 517.7,166.0 517.8,166.0 517.9,166.0 518.0,166.0 518.1,166.0 518.2,166.0 518.3,166.0 518.4,166.0 518.5,166.0 518.6,166.0 518.7,166.0 518.8,166.0 518.9,166.0 519.0,166.0 519.1,166.0 519.2,166.0 519.3,166.0 519.4,166.0 519.5,166.0 519.6,166.0 519.7,166.0 519.8,166.0 519.9,166.0 520.0,166.0 520.1,166.0 520.2,166.0 520.3,166.0 520.4,166.0 520.5,166.0 520.6,166.0 520.7,166.0 520.8,166.0 520.9,166.0 521.0,166.0 521.1,166.0 521.2,166.0 521.3,166.0 521.4,166.0 521.5,166.0 521.6,166.0 521.7,166.0 521.8,166.0 521.9,166.0 522.0,166.0 522.1,166.0 522.2,166.0 522.3,166.0 522.4,166.0 522.5,166.0 522.6,166.0 522.7,166.0 522.8,166.0 522.9,166.0 523.0,166.0 523.1,166.0 523.2,166.0 523.3,166.0 523.4,166.0 523.5,166.0 523.6,166.0 523.7,166.0 523.8,166.0 523.9,166.0 524.0,166.0 524.1,166.0 524.2,166.0 524.3,166.0 524.4,166.0 524.5,166.0 524.6,166.0 524.7,166.0 524.8,166.0 524.9,166.0 525.0,166.0 525.1,166.0 525.2,166.0 525.3,166.0 525.4,166.0 525.5,166.0 525.6,166.0 525.7,166.0 525.8,166.0 525.9,166.0 526.0,166.0 526.1,166.0 526.2,166.0 526.3,166.0 526.4,166.0 526.5,166.0 526.6,166.0 526.7,166.0 526.8,166.0 526.9,166.0 527.0,166.0" fill="none" stroke="#4a90d9" stroke-width="1.2" stroke-linejoin="round"/>
  <text x="154.5" y="190" text-anchor="middle" font-size="8" fill="#6b7280">n / N</text>
  <text x="424.5" y="190" text-anchor="middle" font-size="8" fill="#6b7280">Normalized frequency (× Fₛ)</text>
</svg>
