<svg xmlns="http://www.w3.org/2000/svg" viewBox="0 0 800 230" style="font-family:system-ui,-apple-system,sans-serif">
  <line x1="42" y1="182.0" x2="377" y2="182.0" stroke="#e5e7eb" stroke-width="0.7"/>
  <text x="37" y="186.0" text-anchor="end" font-size="10" fill="#6b7280">0</text>
  <line x1="42" y1="95.0" x2="377" y2="95.0" stroke="#e5e7eb" stroke-width="0.7"/>
  <text x="37" y="99.0" text-anchor="end" font-size="10" fill="#6b7280">0.5</text>
  <line x1="42" y1="8.0" x2="377" y2="8.0" stroke="#e5e7eb" stroke-width="0.7"/>
  <text x="37" y="12.0" text-anchor="end" font-size="10" fill="#6b7280">1</text>
  <line x1="42.0" y1="8" x2="42.0" y2="182" stroke="#e5e7eb" stroke-width="0.7"/>
  <text x="42.0" y="198" text-anchor="middle" font-size="10" fill="#6b7280">0</text>
  <line x1="209.5" y1="8" x2="209.5" y2="182" stroke="#e5e7eb" stroke-width="0.7"/>
  <text x="209.5" y="198" text-anchor="middle" font-size="10" fill="#6b7280">0.5</text>
  <line x1="377.0" y1="8" x2="377.0" y2="182" stroke="#e5e7eb" stroke-width="0.7"/>
  <text x="377.0" y="198" text-anchor="middle" font-size="10" fill="#6b7280">1</text>
  <line x1="42" y1="8" x2="42" y2="182" stroke="#d1d5db" stroke-width="1"/>
  <line x1="42" y1="182" x2="377" y2="182" stroke="#d1d5db" stroke-width="1"/>
  <path d="M42.0,182.0 42.0,182.0 43.3,181.9 44.6,181.8 45.9,181.8 47.3,181.7 48.6,181.6 49.9,181.5 51.2,181.5 52.5,181.4 53.8,181.3 55.1,181.2 56.5,181.1 57.8,181.0 59.1,180.9 60.4,180.8 61.7,180.6 63.0,180.5 64.3,180.3 65.6,180.2 67.0,180.0 68.3,179.8 69.6,179.7 70.9,179.5 72.2,179.2 73.5,179.0 74.8,178.8 76.2,178.5 77.5,178.2 78.8,177.9 80.1,177.6 81.4,177.2 82.7,176.9 84.0,176.5 85.4,176.1 86.7,175.6 88.0,175.2 89.3,174.7 90.6,174.2 91.9,173.6 93.2,173.0 94.5,172.4 95.9,171.8 97.2,171.1 98.5,170.3 99.8,169.6 101.1,168.8 102.4,167.9 103.7,167.0 105.1,166.1 106.4,165.1 107.7,164.1 109.0,163.0 110.3,161.9 111.6,160.7 112.9,159.5 114.3,158.2 115.6,156.9 116.9,155.5 118.2,154.0 119.5,152.5 120.8,151.0 122.1,149.4 123.5,147.7 124.8,146.0 126.1,144.2 127.4,142.3 128.7,140.4 130.0,138.5 131.3,136.4 132.6,134.4 134.0,132.2 135.3,130.0 136.6,127.8 137.9,125.5 139.2,123.1 140.5,120.7 141.8,118.2 143.2,115.7 144.5,113.2 145.8,110.6 147.1,107.9 148.4,105.2 149.7,102.5 151.0,99.8 152.4,97.0 153.7,94.2 155.0,91.3 156.3,88.5 157.6,85.6 158.9,82.7 160.2,79.8 161.5,76.9 162.9,74.0 164.2,71.1 165.5,68.2 166.8,65.3 168.1,62.5 169.4,59.6 170.7,56.8 172.1,54.1 173.4,51.3 174.7,48.6 176.0,46.0 177.3,43.4 178.6,40.8 179.9,38.3 181.3,35.9 182.6,33.6 183.9,31.3 185.2,29.1 186.5,27.0 187.8,25.0 189.1,23.1 190.5,21.3 191.8,19.6 193.1,18.0 194.4,16.5 195.7,15.1 197.0,13.8 198.3,12.7 199.6,11.7 201.0,10.8 202.3,10.0 203.6,9.3 204.9,8.8 206.2,8.4 207.5,8.1 208.8,8.0 210.2,8.0 211.5,8.1 212.8,8.4 214.1,8.8 215.4,9.3 216.7,10.0 218.0,10.8 219.4,11.7 220.7,12.7 222.0,13.8 223.3,15.1 224.6,16.5 225.9,18.0 227.2,19.6 228.5,21.3 229.9,23.1 231.2,25.0 232.5,27.0 233.8,29.1 235.1,31.3 236.4,33.6 237.7,35.9 239.1,38.3 240.4,40.8 241.7,43.4 243.0,46.0 244.3,48.6 245.6,51.3 246.9,54.1 248.3,56.8 249.6,59.6 250.9,62.5 252.2,65.3 253.5,68.2 254.8,71.1 256.1,74.0 257.5,76.9 258.8,79.8 260.1,82.7 261.4,85.6 262.7,88.5 264.0,91.3 265.3,94.2 266.6,97.0 268.0,99.8 269.3,102.5 270.6,105.2 271.9,107.9 273.2,110.6 274.5,113.2 275.8,115.7 277.2,118.2 278.5,120.7 279.8,123.1 281.1,125.5 282.4,127.8 283.7,130.0 285.0,132.2 286.4,134.4 287.7,136.4 289.0,138.5 290.3,140.4 291.6,142.3 292.9,144.2 294.2,146.0 295.5,147.7 296.9,149.4 298.2,151.0 299.5,152.5 300.8,154.0 302.1,155.5 303.4,156.9 304.7,158.2 306.1,159.5 307.4,160.7 308.7,161.9 310.0,163.0 311.3,164.1 312.6,165.1 313.9,166.1 315.3,167.0 316.6,167.9 317.9,168.8 319.2,169.6 320.5,170.3 321.8,171.1 323.1,171.8 324.5,172.4 325.8,173.0 327.1,173.6 328.4,174.2 329.7,174.7 331.0,175.2 332.3,175.6 333.6,176.1 335.0,176.5 336.3,176.9 337.6,177.2 338.9,177.6 340.2,177.9 341.5,178.2 342.8,178.5 344.2,178.8 345.5,179.0 346.8,179.2 348.1,179.5 349.4,179.7 350.7,179.8 352.0,180.0 353.4,180.2 354.7,180.3 356.0,180.5 357.3,180.6 358.6,180.8 359.9,180.9 361.2,181.0 362.5,181.1 363.9,181.2 365.2,181.3 366.5,181.4 367.8,181.5 369.1,181.5 370.4,181.6 371.7,181.7 373.1,181.8 374.4,181.8 375.7,181.9 377.0,182.0 L377.0,182.0 Z" fill="#4a90d9" fill-opacity="0.06"/>
  <polyline points="42.0,182.0 43.3,181.9 44.6,181.8 45.9,181.8 47.3,181.7 48.6,181.6 49.9,181.5 51.2,181.5 52.5,181.4 53.8,181.3 55.1,181.2 56.5,181.1 57.8,181.0 59.1,180.9 60.4,180.8 61.7,180.6 63.0,180.5 64.3,180.3 65.6,180.2 67.0,180.0 68.3,179.8 69.6,179.7 70.9,179.5 72.2,179.2 73.5,179.0 74.8,178.8 76.2,178.5 77.5,178.2 78.8,177.9 80.1,177.6 81.4,177.2 82.7,176.9 84.0,176.5 85.4,176.1 86.7,175.6 88.0,175.2 89.3,174.7 90.6,174.2 91.9,173.6 93.2,173.0 94.5,172.4 95.9,171.8 97.2,171.1 98.5,170.3 99.8,169.6 101.1,168.8 102.4,167.9 103.7,167.0 105.1,166.1 106.4,165.1 107.7,164.1 109.0,163.0 110.3,161.9 111.6,160.7 112.9,159.5 114.3,158.2 115.6,156.9 116.9,155.5 118.2,154.0 119.5,152.5 120.8,151.0 122.1,149.4 123.5,147.7 124.8,146.0 126.1,144.2 127.4,142.3 128.7,140.4 130.0,138.5 131.3,136.4 132.6,134.4 134.0,132.2 135.3,130.0 136.6,127.8 137.9,125.5 139.2,123.1 140.5,120.7 141.8,118.2 143.2,115.7 144.5,113.2 145.8,110.6 147.1,107.9 148.4,105.2 149.7,102.5 151.0,99.8 152.4,97.0 153.7,94.2 155.0,91.3 156.3,88.5 157.6,85.6 158.9,82.7 160.2,79.8 161.5,76.9 162.9,74.0 164.2,71.1 165.5,68.2 166.8,65.3 168.1,62.5 169.4,59.6 170.7,56.8 172.1,54.1 173.4,51.3 174.7,48.6 176.0,46.0 177.3,43.4 178.6,40.8 179.9,38.3 181.3,35.9 182.6,33.6 183.9,31.3 185.2,29.1 186.5,27.0 187.8,25.0 189.1,23.1 190.5,21.3 191.8,19.6 193.1,18.0 194.4,16.5 195.7,15.1 197.0,13.8 198.3,12.7 199.6,11.7 201.0,10.8 202.3,10.0 203.6,9.3 204.9,8.8 206.2,8.4 207.5,8.1 208.8,8.0 210.2,8.0 211.5,8.1 212.8,8.4 214.1,8.8 215.4,9.3 216.7,10.0 218.0,10.8 219.4,11.7 220.7,12.7 222.0,13.8 223.3,15.1 224.6,16.5 225.9,18.0 227.2,19.6 228.5,21.3 229.9,23.1 231.2,25.0 232.5,27.0 233.8,29.1 235.1,31.3 236.4,33.6 237.7,35.9 239.1,38.3 240.4,40.8 241.7,43.4 243.0,46.0 244.3,48.6 245.6,51.3 246.9,54.1 248.3,56.8 249.6,59.6 250.9,62.5 252.2,65.3 253.5,68.2 254.8,71.1 256.1,74.0 257.5,76.9 258.8,79.8 260.1,82.7 261.4,85.6 262.7,88.5 264.0,91.3 265.3,94.2 266.6,97.0 268.0,99.8 269.3,102.5 270.6,105.2 271.9,107.9 273.2,110.6 274.5,113.2 275.8,115.7 277.2,118.2 278.5,120.7 279.8,123.1 281.1,125.5 282.4,127.8 283.7,130.0 285.0,132.2 286.4,134.4 287.7,136.4 289.0,138.5 290.3,140.4 291.6,142.3 292.9,144.2 294.2,146.0 295.5,147.7 296.9,149.4 298.2,151.0 299.5,152.5 300.8,154.0 302.1,155.5 303.4,156.9 304.7,158.2 306.1,159.5 307.4,160.7 308.7,161.9 310.0,163.0 311.3,164.1 312.6,165.1 313.9,166.1 315.3,167.0 316.6,167.9 317.9,168.8 319.2,169.6 320.5,170.3 321.8,171.1 323.1,171.8 324.5,172.4 325.8,173.0 327.1,173.6 328.4,174.2 329.7,174.7 331.0,175.2 332.3,175.6 333.6,176.1 335.0,176.5 336.3,176.9 337.6,177.2 338.9,177.6 340.2,177.9 341.5,178.2 342.8,178.5 344.2,178.8 345.5,179.0 346.8,179.2 348.1,179.5 349.4,179.7 350.7,179.8 352.0,180.0 353.4,180.2 354.7,180.3 356.0,180.5 357.3,180.6 358.6,180.8 359.9,180.9 361.2,181.0 362.5,181.1 363.9,181.2 365.2,181.3 366.5,181.4 367.8,181.5 369.1,181.5 370.4,181.6 371.7,181.7 373.1,181.8 374.4,181.8 375.7,181.9 377.0,182.0" fill="none" stroke="#4a90d9" stroke-width="1.5" stroke-linejoin="round"/>
  <line x1="450" y1="8.0" x2="785" y2="8.0" stroke="#e5e7eb" stroke-width="0.7"/>
  <text x="445" y="12.0" text-anchor="end" font-size="10" fill="#6b7280">0</text>
  <line x1="450" y1="66.0" x2="785" y2="66.0" stroke="#e5e7eb" stroke-width="0.7"/>
  <text x="445" y="70.0" text-anchor="end" font-size="10" fill="#6b7280">-40</text>
  <line x1="450" y1="124.0" x2="785" y2="124.0" stroke="#e5e7eb" stroke-width="0.7"/>
  <text x="445" y="128.0" text-anchor="end" font-size="10" fill="#6b7280">-80</text>
  <line x1="450" y1="182.0" x2="785" y2="182.0" stroke="#e5e7eb" stroke-width="0.7"/>
  <text x="445" y="186.0" text-anchor="end" font-size="10" fill="#6b7280">-120</text>
  <line x1="450.0" y1="8" x2="450.0" y2="182" stroke="#e5e7eb" stroke-width="0.7"/>
  <text x="450.0" y="198" text-anchor="middle" font-size="10" fill="#6b7280">0</text>
  <line x1="517.0" y1="8" x2="517.0" y2="182" stroke="#e5e7eb" stroke-width="0.7"/>
  <text x="517.0" y="198" text-anchor="middle" font-size="10" fill="#6b7280">0.1</text>
  <line x1="584.0" y1="8" x2="584.0" y2="182" stroke="#e5e7eb" stroke-width="0.7"/>
  <text x="584.0" y="198" text-anchor="middle" font-size="10" fill="#6b7280">0.2</text>
  <line x1="651.0" y1="8" x2="651.0" y2="182" stroke="#e5e7eb" stroke-width="0.7"/>
  <text x="651.0" y="198" text-anchor="middle" font-size="10" fill="#6b7280">0.3</text>
  <line x1="718.0" y1="8" x2="718.0" y2="182" stroke="#e5e7eb" stroke-width="0.7"/>
  <text x="718.0" y="198" text-anchor="middle" font-size="10" fill="#6b7280">0.4</text>
  <line x1="785.0" y1="8" x2="785.0" y2="182" stroke="#e5e7eb" stroke-width="0.7"/>
  <text x="785.0" y="198" text-anchor="middle" font-size="10" fill="#6b7280">0.5</text>
  <line x1="450" y1="8" x2="450" y2="182" stroke="#d1d5db" stroke-width="1"/>
  <line x1="450" y1="182" x2="785" y2="182" stroke="#d1d5db" stroke-width="1"/>
  <polyline points="450.0,8.0 450.2,8.0 450.3,8.1 450.5,8.2 450.7,8.3 450.8,8.5 451.0,8.7 451.1,9.0 451.3,9.2 451.5,9.6 451.6,9.9 451.8,10.4 452.0,10.8 452.1,11.3 452.3,11.8 452.5,12.4 452.6,13.0 452.8,13.6 452.9,14.3 453.1,15.0 453.3,15.8 453.4,16.6 453.6,17.5 453.8,18.3 453.9,19.3 454.1,20.2 454.3,21.2 454.4,22.3 454.6,23.4 454.7,24.5 454.9,25.6 455.1,26.8 455.2,28.1 455.4,29.4 455.6,30.7 455.7,32.0 455.9,33.4 456.1,34.8 456.2,36.3 456.4,37.8 456.5,39.3 456.7,40.9 456.9,42.5 457.0,44.1 457.2,45.8 457.4,47.5 457.5,49.2 457.7,51.0 457.9,52.8 458.0,54.7 458.2,56.6 458.3,58.6 458.5,60.6 458.7,62.7 458.8,64.8 459.0,67.1 459.2,69.4 459.3,71.8 459.5,74.3 459.7,76.9 459.8,79.7 460.0,82.6 460.1,85.7 460.3,88.9 460.5,92.2 460.6,95.6 460.8,99.0 461.0,102.3 461.1,105.2 461.3,107.5 461.5,108.9 461.6,109.5 461.8,109.4 461.9,108.8 462.1,108.0 462.3,107.1 462.4,106.4 462.6,105.9 462.8,105.6 462.9,105.7 463.1,106.0 463.3,106.8 463.4,107.9 463.6,109.6 463.7,111.9 463.9,115.2 464.1,120.0 464.2,128.3 464.4,162.4 464.6,130.6 464.7,121.8 464.9,117.2 465.1,114.3 465.2,112.4 465.4,111.3 465.5,110.7 465.7,110.6 465.9,111.1 466.0,112.0 466.2,113.5 466.4,115.7 466.5,119.0 466.7,123.9 466.9,132.7 467.0,182.0 467.2,132.6 467.3,124.4 467.5,119.9 467.7,117.1 467.8,115.2 468.0,114.1 468.2,113.5 468.3,113.5 468.5,113.9 468.7,114.8 468.8,116.3 469.0,118.6 469.1,121.8 469.3,126.7 469.5,135.5 469.6,182.0 469.8,135.4 470.0,127.2 470.1,122.7 470.3,119.8 470.5,118.0 470.6,116.8 470.8,116.2 470.9,116.1 471.1,116.6 471.3,117.5 471.4,119.0 471.6,121.2 471.8,124.4 471.9,129.3 472.1,138.0 472.3,182.0 472.4,138.0 472.6,129.7 472.7,125.2 472.9,122.4 473.1,120.5 473.2,119.3 473.4,118.7 473.6,118.6 473.7,119.0 473.9,120.0 474.1,121.4 474.2,123.6 474.4,126.8 474.5,131.7 474.7,140.4 474.9,182.0 475.0,140.4 475.2,132.1 475.4,127.6 475.5,124.7 475.7,122.8 475.9,121.7 476.0,121.1 476.2,121.0 476.3,121.3 476.5,122.2 476.7,123.7 476.8,125.9 477.0,129.1 477.2,134.0 477.3,142.7 477.5,182.0 477.7,142.6 477.8,134.3 478.0,129.8 478.1,126.9 478.3,125.0 478.5,123.8 478.6,123.2 478.8,123.1 479.0,123.5 479.1,124.4 479.3,125.8 479.5,128.0 479.6,131.2 479.8,136.0 479.9,144.7 480.1,182.0 480.3,144.7 480.4,136.4 480.6,131.9 480.8,129.0 480.9,127.0 481.1,125.9 481.3,125.2 481.4,125.1 481.6,125.5 481.7,126.4 481.9,127.8 482.1,130.0 482.2,133.2 482.4,138.0 482.6,146.7 482.7,182.0 482.9,146.6 483.1,138.3 483.2,133.8 483.4,130.9 483.5,128.9 483.7,127.7 483.9,127.1 484.0,127.0 484.2,127.3 484.4,128.2 484.5,129.7 484.7,131.8 484.9,135.0 485.0,139.8 485.2,148.5 485.3,182.0 485.5,148.4 485.7,140.1 485.8,135.6 486.0,132.6 486.2,130.7 486.3,129.5 486.5,128.9 486.7,128.7 486.8,129.1 487.0,130.0 487.1,131.4 487.3,133.5 487.5,136.7 487.6,141.5 487.8,150.2 488.0,182.0 488.1,150.1 488.3,141.8 488.5,137.2 488.6,134.3 488.8,132.4 488.9,131.2 489.1,130.5 489.3,130.4 489.4,130.7 489.6,131.6 489.8,133.0 489.9,135.2 490.1,138.3 490.3,143.1 490.4,151.8 490.6,182.0 490.7,151.7 490.9,143.4 491.1,138.8 491.2,135.9 491.4,134.0 491.6,132.7 491.7,132.1 491.9,131.9 492.1,132.3 492.2,133.1 492.4,134.6 492.6,136.7 492.7,139.8 492.9,144.7 493.0,153.3 493.2,182.0 493.4,153.2 493.5,144.9 493.7,140.3 493.9,137.4 494.0,135.4 494.2,134.2 494.4,133.6 494.5,133.4 494.7,133.7 494.8,134.6 495.0,136.0 495.2,138.2 495.3,141.3 495.5,146.1 495.7,154.7 495.8,182.0 496.0,154.7 496.2,146.3 496.3,141.7 496.5,138.8 496.6,136.9 496.8,135.6 497.0,135.0 497.1,134.8 497.3,135.1 497.5,136.0 497.6,137.4 497.8,139.5 498.0,142.7 498.1,147.5 498.3,156.1 498.4,182.0 498.6,156.0 498.8,147.7 498.9,143.1 499.1,140.1 499.3,138.2 499.4,137.0 499.6,136.3 499.8,136.1 499.9,136.5 500.1,137.3 500.2,138.7 500.4,140.8 500.6,144.0 500.7,148.8 500.9,157.4 501.1,182.0 501.2,157.3 501.4,149.0 501.6,144.4 501.7,141.4 501.9,139.5 502.0,138.2 502.2,137.6 502.4,137.4 502.5,137.7 502.7,138.6 502.9,140.0 503.0,142.1 503.2,145.2 503.4,150.0 503.5,158.6 503.7,182.0 503.8,158.6 504.0,150.2 504.2,145.6 504.3,142.7 504.5,140.7 504.7,139.4 504.8,138.8 505.0,138.6 505.2,138.9 505.3,139.8 505.5,141.2 505.6,143.3 505.8,146.4 506.0,151.2 506.1,159.8 506.3,182.0 506.5,159.8 506.6,151.4 506.8,146.8 507.0,143.8 507.1,141.9 507.3,140.6 507.4,139.9 507.6,139.8 507.8,140.1 507.9,140.9 508.1,142.3 508.3,144.4 508.4,147.5 508.6,152.3 508.8,160.9 508.9,182.0 509.1,160.9 509.2,152.5 509.4,147.9 509.6,144.9 509.7,143.0 509.9,141.7 510.1,141.0 510.2,140.9 510.4,141.2 510.6,142.0 510.7,143.4 510.9,145.5 511.0,148.6 511.2,153.4 511.4,162.0 511.5,182.0 511.7,162.0 511.9,153.6 512.0,149.0 512.2,146.0 512.4,144.0 512.5,142.8 512.7,142.1 512.8,141.9 513.0,142.2 513.2,143.1 513.3,144.5 513.5,146.6 513.7,149.7 513.8,154.5 514.0,163.0 514.2,182.0 514.3,163.0 514.5,154.6 514.6,150.0 514.8,147.1 515.0,145.1 515.1,143.8 515.3,143.1 515.5,143.0 515.6,143.3 515.8,144.1 516.0,145.5 516.1,147.6 516.3,150.7 516.4,155.5 516.6,164.1 516.8,182.0 516.9,164.0 517.1,155.6 517.3,151.0 517.4,148.0 517.6,146.1 517.8,144.8 517.9,144.1 518.1,143.9 518.2,144.3 518.4,145.1 518.6,146.5 518.7,148.6 518.9,151.7 519.1,156.4 519.2,165.0 519.4,182.0 519.6,165.0 519.7,156.6 519.9,152.0 520.0,149.0 520.2,147.0 520.4,145.8 520.5,145.1 520.7,144.9 520.9,145.2 521.0,146.0 521.2,147.4 521.4,149.5 521.5,152.6 521.7,157.4 521.8,166.0 522.0,182.0 522.2,165.9 522.3,157.5 522.5,152.9 522.7,149.9 522.8,148.0 523.0,146.7 523.2,146.0 523.3,145.8 523.5,146.1 523.6,146.9 523.8,148.3 524.0,150.4 524.1,153.5 524.3,158.3 524.5,166.9 524.6,182.0 524.8,166.8 525.0,158.4 525.1,153.8 525.3,150.8 525.4,148.9 525.6,147.6 525.8,146.9 525.9,146.7 526.1,147.0 526.3,147.8 526.4,149.2 526.6,151.3 526.8,154.4 526.9,159.2 527.1,167.7 527.2,182.0 527.4,167.7 527.6,159.3 527.7,154.7 527.9,151.7 528.1,149.7 528.2,148.5 528.4,147.8 528.6,147.6 528.7,147.9 528.9,148.7 529.0,150.1 529.2,152.2 529.4,155.3 529.5,160.0 529.7,168.6 529.9,182.0 530.0,168.6 530.2,160.2 530.4,155.5 530.5,152.6 530.7,150.6 530.8,149.3 531.0,148.6 531.2,148.4 531.3,148.7 531.5,149.5 531.7,150.9 531.8,153.0 532.0,156.1 532.2,160.8 532.3,169.4 532.5,182.0 532.6,169.4 532.8,161.0 533.0,156.4 533.1,153.4 533.3,151.4 533.5,150.1 533.6,149.4 533.8,149.2 534.0,149.5 534.1,150.3 534.3,151.7 534.4,153.8 534.6,156.9 534.8,161.6 534.9,170.2 535.1,182.0 535.3,170.2 535.4,161.8 535.6,157.2 535.8,154.2 535.9,152.2 536.1,150.9 536.2,150.2 536.4,150.0 536.6,150.3 536.7,151.1 536.9,152.5 537.1,154.6 537.2,157.7 537.4,162.4 537.6,171.0 537.7,182.0 537.9,171.0 538.0,162.6 538.2,157.9 538.4,154.9 538.5,153.0 538.7,151.7 538.9,151.0 539.0,150.8 539.2,151.1 539.4,151.9 539.5,153.3 539.7,155.3 539.8,158.4 540.0,163.2 540.2,171.8 540.3,182.0 540.5,171.7 540.7,163.3 540.8,158.7 541.0,155.7 541.2,153.7 541.3,152.4 541.5,151.7 541.6,151.5 541.8,151.8 542.0,152.6 542.1,154.0 542.3,156.1 542.5,159.2 542.6,163.9 542.8,172.5 543.0,182.0 543.1,172.5 543.3,164.1 543.4,159.4 543.6,156.4 543.8,154.4 543.9,153.2 544.1,152.5 544.3,152.3 544.4,152.5 544.6,153.3 544.8,154.7 544.9,156.8 545.1,159.9 545.2,164.7 545.4,173.2 545.6,182.0 545.7,173.2 545.9,164.8 546.1,160.1 546.2,157.1 546.4,155.2 546.6,153.9 546.7,153.2 546.9,153.0 547.0,153.3 547.2,154.1 547.4,155.4 547.5,157.5 547.7,160.6 547.9,165.4 548.0,173.9 548.2,182.0 548.4,173.9 548.5,165.5 548.7,160.8 548.8,157.8 549.0,155.9 549.2,154.6 549.3,153.9 549.5,153.7 549.7,154.0 549.8,154.8 550.0,156.1 550.2,158.2 550.3,161.3 550.5,166.0 550.6,174.6 550.8,182.0 551.0,174.6 551.1,166.2 551.3,161.5 551.5,158.5 551.6,156.5 551.8,155.3 552.0,154.5 552.1,154.3 552.3,154.6 552.4,155.4 552.6,156.8 552.8,158.9 552.9,162.0 553.1,166.7 553.3,175.3 553.4,182.0 553.6,175.2 553.8,166.8 553.9,162.2 554.1,159.2 554.2,157.2 554.4,155.9 554.6,155.2 554.7,155.0 554.9,155.3 555.1,156.1 555.2,157.5 555.4,159.5 555.6,162.6 555.7,167.4 555.9,175.9 556.0,182.0 556.2,175.9 556.4,167.5 556.5,162.8 556.7,159.8 556.9,157.9 557.0,156.6 557.2,155.9 557.4,155.7 557.5,155.9 557.7,156.7 557.8,158.1 558.0,160.2 558.2,163.3 558.3,168.0 558.5,176.6 558.7,182.0 558.8,176.5 559.0,168.1 559.2,163.5 559.3,160.5 559.5,158.5 559.6,157.2 559.8,156.5 560.0,156.3 560.1,156.6 560.3,157.4 560.5,158.7 560.6,160.8 560.8,163.9 561.0,168.6 561.1,177.2 561.3,182.0 561.4,177.2 561.6,168.8 561.8,164.1 561.9,161.1 562.1,159.1 562.3,157.8 562.4,157.1 562.6,156.9 562.8,157.2 562.9,158.0 563.1,159.4 563.2,161.4 563.4,164.5 563.6,169.3 563.7,177.8 563.9,182.0 564.1,177.8 564.2,169.4 564.4,164.7 564.6,161.7 564.7,159.7 564.9,158.4 565.0,157.7 565.2,157.5 565.4,157.8 565.5,158.6 565.7,160.0 565.9,162.0 566.0,165.1 566.2,169.9 566.4,178.4 566.5,182.0 566.7,178.4 566.8,170.0 567.0,165.3 567.2,162.3 567.3,160.3 567.5,159.0 567.7,158.3 567.8,158.1 568.0,158.4 568.2,159.2 568.3,160.6 568.5,162.6 568.6,165.7 568.8,170.5 569.0,179.0 569.1,182.0 569.3,179.0 569.5,170.6 569.6,165.9 569.8,162.9 570.0,160.9 570.1,159.6 570.3,158.9 570.4,158.7 570.6,159.0 570.8,159.8 570.9,161.2 571.1,163.2 571.3,166.3 571.4,171.0 571.6,179.6 571.8,182.0 571.9,179.6 572.1,171.1 572.2,166.5 572.4,163.5 572.6,161.5 572.7,160.2 572.9,159.5 573.1,159.3 573.2,159.6 573.4,160.4 573.6,161.7 573.7,163.8 573.9,166.9 574.0,171.6 574.2,180.2 574.4,182.0 574.5,180.1 574.7,171.7 574.9,167.1 575.0,164.1 575.2,162.1 575.4,160.8 575.5,160.1 575.7,159.9 575.9,160.1 576.0,160.9 576.2,162.3 576.3,164.4 576.5,167.4 576.7,172.2 576.8,180.7 577.0,182.0 577.2,180.7 577.3,172.3 577.5,167.6 577.7,164.6 577.8,162.6 578.0,161.3 578.1,160.6 578.3,160.4 578.5,160.7 578.6,161.5 578.8,162.8 579.0,164.9 579.1,168.0 579.3,172.7 579.5,181.3 579.6,182.0 579.8,181.3 579.9,172.8 580.1,168.2 580.3,165.2 580.4,163.2 580.6,161.9 580.8,161.2 580.9,161.0 581.1,161.2 581.3,162.0 581.4,163.4 581.6,165.5 581.7,168.6 581.9,173.3 582.1,181.8 582.2,182.0 582.4,181.8 582.6,173.4 582.7,168.7 582.9,165.7 583.1,163.7 583.2,162.4 583.4,161.7 583.5,161.5 583.7,161.8 583.9,162.6 584.0,163.9 584.2,166.0 584.4,169.1 584.5,173.8 584.7,182.0 584.9,182.0 585.0,182.0 585.2,173.9 585.3,169.3 585.5,166.3 585.7,164.3 585.8,163.0 586.0,162.2 586.2,162.0 586.3,162.3 586.5,163.1 586.7,164.5 586.8,166.5 587.0,169.6 587.1,174.4 587.3,182.0 587.5,182.0 587.6,182.0 587.8,174.4 588.0,169.8 588.1,166.8 588.3,164.8 588.5,163.5 588.6,162.8 588.8,162.6 588.9,162.8 589.1,163.6 589.3,165.0 589.4,167.1 589.6,170.1 589.8,174.9 589.9,182.0 590.1,182.0 590.3,182.0 590.4,175.0 590.6,170.3 590.7,167.3 590.9,165.3 591.1,164.0 591.2,163.3 591.4,163.1 591.6,163.4 591.7,164.1 591.9,165.5 592.1,167.6 592.2,170.7 592.4,175.4 592.5,182.0 592.7,182.0 592.9,182.0 593.0,175.5 593.2,170.8 593.4,167.8 593.5,165.8 593.7,164.5 593.9,163.8 594.0,163.6 594.2,163.9 594.3,164.7 594.5,166.0 594.7,168.1 594.8,171.2 595.0,175.9 595.2,182.0 595.3,182.0 595.5,182.0 595.7,176.0 595.8,171.3 596.0,168.3 596.1,166.3 596.3,165.0 596.5,164.3 596.6,164.1 596.8,164.4 597.0,165.2 597.1,166.5 597.3,168.6 597.5,171.7 597.6,176.4 597.8,182.0 597.9,182.0 598.1,182.0 598.3,176.5 598.4,171.8 598.6,168.8 598.8,166.8 598.9,165.5 599.1,164.8 599.3,164.6 599.4,164.9 599.6,165.7 599.7,167.0 599.9,169.1 600.1,172.2 600.2,176.9 600.4,182.0 600.6,182.0 600.7,182.0 600.9,177.0 601.1,172.3 601.2,169.3 601.4,167.3 601.5,166.0 601.7,165.3 601.9,165.1 602.0,165.4 602.2,166.2 602.4,167.5 602.5,169.6 602.7,172.7 602.9,177.4 603.0,182.0 603.2,182.0 603.3,182.0 603.5,177.5 603.7,172.8 603.8,169.8 604.0,167.8 604.2,166.5 604.3,165.8 604.5,165.6 604.7,165.9 604.8,166.6 605.0,168.0 605.1,170.1 605.3,173.1 605.5,177.9 605.6,182.0 605.8,182.0 606.0,182.0 606.1,178.0 606.3,173.3 606.5,170.3 606.6,168.3 606.8,167.0 606.9,166.3 607.1,166.1 607.3,166.3 607.4,167.1 607.6,168.5 607.8,170.6 607.9,173.6 608.1,178.4 608.3,182.0 608.4,182.0 608.6,182.0 608.7,178.4 608.9,173.8 609.1,170.8 609.2,168.8 609.4,167.5 609.6,166.8 609.7,166.5 609.9,166.8 610.1,167.6 610.2,169.0 610.4,171.0 610.5,174.1 610.7,178.8 610.9,182.0 611.0,182.0 611.2,182.0 611.4,178.9 611.5,174.3 611.7,171.3 611.9,169.2 612.0,167.9 612.2,167.2 612.3,167.0 612.5,167.3 612.7,168.1 612.8,169.4 613.0,171.5 613.2,174.6 613.3,179.3 613.5,182.0 613.7,182.0 613.8,182.0 614.0,179.4 614.1,174.7 614.3,171.7 614.5,169.7 614.6,168.4 614.8,167.7 615.0,167.5 615.1,167.8 615.3,168.5 615.5,169.9 615.6,172.0 615.8,175.0 615.9,179.8 616.1,182.0 616.3,182.0 616.4,182.0 616.6,179.9 616.8,175.2 616.9,172.2 617.1,170.2 617.3,168.9 617.4,168.2 617.6,167.9 617.7,168.2 617.9,169.0 618.1,170.4 618.2,172.4 618.4,175.5 618.6,180.2 618.7,182.0 618.9,182.0 619.1,182.0 619.2,180.3 619.4,175.7 619.5,172.6 619.7,170.6 619.9,169.3 620.0,168.6 620.2,168.4 620.4,168.7 620.5,169.5 620.7,170.8 620.9,172.9 621.0,176.0 621.2,180.7 621.3,182.0 621.5,182.0 621.7,182.0 621.8,180.8 622.0,176.1 622.2,173.1 622.3,171.1 622.5,169.8 622.7,169.1 622.8,168.9 623.0,169.1 623.1,169.9 623.3,171.3 623.5,173.3 623.6,176.4 623.8,181.1 624.0,182.0 624.1,182.0 624.3,182.0 624.5,181.2 624.6,176.6 624.8,173.6 624.9,171.6 625.1,170.3 625.3,169.5 625.4,169.3 625.6,169.6 625.8,170.4 625.9,171.7 626.1,173.8 626.3,176.9 626.4,181.6 626.6,182.0 626.7,182.0 626.9,182.0 627.1,181.7 627.2,177.0 627.4,174.0 627.6,172.0 627.7,170.7 627.9,170.0 628.1,169.8 628.2,170.0 628.4,170.8 628.5,172.2 628.7,174.3 628.9,177.3 629.0,182.0 629.2,182.0 629.4,182.0 629.5,182.0 629.7,182.0 629.9,177.5 630.0,174.5 630.2,172.5 630.3,171.2 630.5,170.4 630.7,170.2 630.8,170.5 631.0,171.3 631.2,172.6 631.3,174.7 631.5,177.8 631.7,182.0 631.8,182.0 632.0,182.0 632.1,182.0 632.3,182.0 632.5,177.9 632.6,174.9 632.8,172.9 633.0,171.6 633.1,170.9 633.3,170.7 633.5,170.9 633.6,171.7 633.8,173.1 633.9,175.1 634.1,178.2 634.3,182.0 634.4,182.0 634.6,182.0 634.8,182.0 634.9,182.0 635.1,178.4 635.3,175.4 635.4,173.3 635.6,172.0 635.7,171.3 635.9,171.1 636.1,171.4 636.2,172.2 636.4,173.5 636.6,175.6 636.7,178.7 636.9,182.0 637.1,182.0 637.2,182.0 637.4,182.0 637.5,182.0 637.7,178.8 637.9,175.8 638.0,173.8 638.2,172.5 638.4,171.8 638.5,171.5 638.7,171.8 638.9,172.6 639.0,174.0 639.2,176.0 639.3,179.1 639.5,182.0 639.7,182.0 639.8,182.0 640.0,182.0 640.2,182.0 640.3,179.2 640.5,176.2 640.7,174.2 640.8,172.9 641.0,172.2 641.1,172.0 641.3,172.3 641.5,173.0 641.6,174.4 641.8,176.5 642.0,179.5 642.1,182.0 642.3,182.0 642.5,182.0 642.6,182.0 642.8,182.0 642.9,179.7 643.1,176.7 643.3,174.7 643.4,173.4 643.6,172.6 643.8,172.4 643.9,172.7 644.1,173.5 644.3,174.8 644.4,176.9 644.6,180.0 644.7,182.0 644.9,182.0 645.1,182.0 645.2,182.0 645.4,182.0 645.6,180.1 645.7,177.1 645.9,175.1 646.1,173.8 646.2,173.1 646.4,172.9 646.5,173.1 646.7,173.9 646.9,175.3 647.0,177.3 647.2,180.4 647.4,182.0 647.5,182.0 647.7,182.0 647.9,182.0 648.0,182.0 648.2,180.6 648.3,177.6 648.5,175.5 648.7,174.2 648.8,173.5 649.0,173.3 649.2,173.6 649.3,174.4 649.5,175.7 649.7,177.8 649.8,180.9 650.0,182.0 650.1,182.0 650.3,182.0 650.5,182.0 650.6,182.0 650.8,181.0 651.0,178.0 651.1,176.0 651.3,174.7 651.5,174.0 651.6,173.7 651.8,174.0 651.9,174.8 652.1,176.2 652.3,178.2 652.4,181.3 652.6,182.0 652.8,182.0 652.9,182.0 653.1,182.0 653.3,182.0 653.4,181.4 653.6,178.4 653.7,176.4 653.9,175.1 654.1,174.4 654.2,174.2 654.4,174.5 654.6,175.2 654.7,176.6 654.9,178.7 655.1,181.7 655.2,182.0 655.4,182.0 655.5,182.0 655.7,182.0 655.9,182.0 656.0,181.9 656.2,178.9 656.4,176.9 656.5,175.6 656.7,174.8 656.9,174.6 657.0,174.9 657.2,175.7 657.3,177.0 657.5,179.1 657.7,182.0 657.8,182.0 658.0,182.0 658.2,182.0 658.3,182.0 658.5,182.0 658.7,182.0 658.8,179.3 659.0,177.3 659.1,176.0 659.3,175.3 659.5,175.1 659.6,175.3 659.8,176.1 660.0,177.5 660.1,179.5 660.3,182.0 660.5,182.0 660.6,182.0 660.8,182.0 661.0,182.0 661.1,182.0 661.3,182.0 661.4,179.7 661.6,177.7 661.8,176.4 661.9,175.7 662.1,175.5 662.3,175.8 662.4,176.5 662.6,177.9 662.8,180.0 662.9,182.0 663.1,182.0 663.2,182.0 663.4,182.0 663.6,182.0 663.7,182.0 663.9,182.0 664.1,180.2 664.2,178.2 664.4,176.9 664.6,176.1 664.7,175.9 664.9,176.2 665.0,177.0 665.2,178.3 665.4,180.4 665.5,182.0 665.7,182.0 665.9,182.0 666.0,182.0 666.2,182.0 666.4,182.0 666.5,182.0 666.7,180.6 666.8,178.6 667.0,177.3 667.2,176.6 667.3,176.4 667.5,176.6 667.7,177.4 667.8,178.8 668.0,180.8 668.2,182.0 668.3,182.0 668.5,182.0 668.6,182.0 668.8,182.0 669.0,182.0 669.1,182.0 669.3,181.1 669.5,179.0 669.6,177.7 669.8,177.0 670.0,176.8 670.1,177.1 670.3,177.9 670.4,179.2 670.6,181.3 670.8,182.0 670.9,182.0 671.1,182.0 671.3,182.0 671.4,182.0 671.6,182.0 671.8,182.0 671.9,181.5 672.1,179.5 672.2,178.2 672.4,177.5 672.6,177.3 672.7,177.5 672.9,178.3 673.1,179.7 673.2,181.7 673.4,182.0 673.6,182.0 673.7,182.0 673.9,182.0 674.0,182.0 674.2,182.0 674.4,182.0 674.5,181.9 674.7,179.9 674.9,178.6 675.0,177.9 675.2,177.7 675.4,178.0 675.5,178.8 675.7,180.1 675.8,182.0 676.0,182.0 676.2,182.0 676.3,182.0 676.5,182.0 676.7,182.0 676.8,182.0 677.0,182.0 677.2,182.0 677.3,180.4 677.5,179.1 677.6,178.4 677.8,178.1 678.0,178.4 678.1,179.2 678.3,180.6 678.5,182.0 678.6,182.0 678.8,182.0 679.0,182.0 679.1,182.0 679.3,182.0 679.4,182.0 679.6,182.0 679.8,182.0 679.9,180.8 680.1,179.5 680.3,178.8 680.4,178.6 680.6,178.9 680.8,179.7 680.9,181.0 681.1,182.0 681.2,182.0 681.4,182.0 681.6,182.0 681.7,182.0 681.9,182.0 682.1,182.0 682.2,182.0 682.4,182.0 682.6,181.3 682.7,180.0 682.9,179.3 683.0,179.1 683.2,179.3 683.4,180.1 683.5,181.5 683.7,182.0 683.9,182.0 684.0,182.0 684.2,182.0 684.4,182.0 684.5,182.0 684.7,182.0 684.8,182.0 685.0,182.0 685.2,181.7 685.3,180.5 685.5,179.7 685.7,179.5 685.8,179.8 686.0,180.6 686.2,181.9 686.3,182.0 686.5,182.0 686.6,182.0 686.8,182.0 687.0,182.0 687.1,182.0 687.3,182.0 687.5,182.0 687.6,182.0 687.8,182.0 688.0,180.9 688.1,180.2 688.3,180.0 688.4,180.3 688.6,181.0 688.8,182.0 688.9,182.0 689.1,182.0 689.3,182.0 689.4,182.0 689.6,182.0 689.8,182.0 689.9,182.0 690.1,182.0 690.2,182.0 690.4,182.0 690.6,181.4 690.7,180.7 690.9,180.5 691.1,180.7 691.2,181.5 691.4,182.0 691.6,182.0 691.7,182.0 691.9,182.0 692.0,182.0 692.2,182.0 692.4,182.0 692.5,182.0 692.7,182.0 692.9,182.0 693.0,182.0 693.2,181.9 693.4,181.1 693.5,180.9 693.7,181.2 693.8,182.0 694.0,182.0 694.2,182.0 694.3,182.0 694.5,182.0 694.7,182.0 694.8,182.0 695.0,182.0 695.2,182.0 695.3,182.0 695.5,182.0 695.6,182.0 695.8,182.0 696.0,181.6 696.1,181.4 696.3,181.7 696.5,182.0 696.6,182.0 696.8,182.0 697.0,182.0 697.1,182.0 697.3,182.0 697.4,182.0 697.6,182.0 697.8,182.0 697.9,182.0 698.1,182.0 698.3,182.0 698.4,182.0 698.6,182.0 698.8,181.9 698.9,182.0 699.1,182.0 699.2,182.0 699.4,182.0 699.6,182.0 699.7,182.0 699.9,182.0 700.1,182.0 700.2,182.0 700.4,182.0 700.6,182.0 700.7,182.0 700.9,182.0 701.0,182.0 701.2,182.0 701.4,182.0 701.5,182.0 701.7,182.0 701.9,182.0 702.0,182.0 702.2,182.0 702.4,182.0 702.5,182.0 702.7,182.0 702.8,182.0 703.0,182.0 703.2,182.0 703.3,182.0 703.5,182.0 703.7,182.0 703.8,182.0 704.0,182.0 704.2,182.0 704.3,182.0 704.5,182.0 704.6,182.0 704.8,182.0 705.0,182.0 705.1,182.0 705.3,182.0 705.5,182.0 705.6,182.0 705.8,182.0 706.0,182.0 706.1,182.0 706.3,182.0 706.4,182.0 706.6,182.0 706.8,182.0 706.9,182.0 707.1,182.0 707.3,182.0 707.4,182.0 707.6,182.0 707.8,182.0 707.9,182.0 708.1,182.0 708.2,182.0 708.4,182.0 708.6,182.0 708.7,182.0 708.9,182.0 709.1,182.0 709.2,182.0 709.4,182.0 709.6,182.0 709.7,182.0 709.9,182.0 710.0,182.0 710.2,182.0 710.4,182.0 710.5,182.0 710.7,182.0 710.9,182.0 711.0,182.0 711.2,182.0 711.4,182.0 711.5,182.0 711.7,182.0 711.8,182.0 712.0,182.0 712.2,182.0 712.3,182.0 712.5,182.0 712.7,182.0 712.8,182.0 713.0,182.0 713.2,182.0 713.3,182.0 713.5,182.0 713.6,182.0 713.8,182.0 714.0,182.0 714.1,182.0 714.3,182.0 714.5,182.0 714.6,182.0 714.8,182.0 715.0,182.0 715.1,182.0 715.3,182.0 715.4,182.0 715.6,182.0 715.8,182.0 715.9,182.0 716.1,182.0 716.3,182.0 716.4,182.0 716.6,182.0 716.8,182.0 716.9,182.0 717.1,182.0 717.2,182.0 717.4,182.0 717.6,182.0 717.7,182.0 717.9,182.0 718.1,182.0 718.2,182.0 718.4,182.0 718.6,182.0 718.7,182.0 718.9,182.0 719.0,182.0 719.2,182.0 719.4,182.0 719.5,182.0 719.7,182.0 719.9,182.0 720.0,182.0 720.2,182.0 720.4,182.0 720.5,182.0 720.7,182.0 720.8,182.0 721.0,182.0 721.2,182.0 721.3,182.0 721.5,182.0 721.7,182.0 721.8,182.0 722.0,182.0 722.2,182.0 722.3,182.0 722.5,182.0 722.6,182.0 722.8,182.0 723.0,182.0 723.1,182.0 723.3,182.0 723.5,182.0 723.6,182.0 723.8,182.0 724.0,182.0 724.1,182.0 724.3,182.0 724.4,182.0 724.6,182.0 724.8,182.0 724.9,182.0 725.1,182.0 725.3,182.0 725.4,182.0 725.6,182.0 725.8,182.0 725.9,182.0 726.1,182.0 726.2,182.0 726.4,182.0 726.6,182.0 726.7,182.0 726.9,182.0 727.1,182.0 727.2,182.0 727.4,182.0 727.6,182.0 727.7,182.0 727.9,182.0 728.0,182.0 728.2,182.0 728.4,182.0 728.5,182.0 728.7,182.0 728.9,182.0 729.0,182.0 729.2,182.0 729.4,182.0 729.5,182.0 729.7,182.0 729.8,182.0 730.0,182.0 730.2,182.0 730.3,182.0 730.5,182.0 730.7,182.0 730.8,182.0 731.0,182.0 731.2,182.0 731.3,182.0 731.5,182.0 731.6,182.0 731.8,182.0 732.0,182.0 732.1,182.0 732.3,182.0 732.5,182.0 732.6,182.0 732.8,182.0 733.0,182.0 733.1,182.0 733.3,182.0 733.4,182.0 733.6,182.0 733.8,182.0 733.9,182.0 734.1,182.0 734.3,182.0 734.4,182.0 734.6,182.0 734.8,182.0 734.9,182.0 735.1,182.0 735.2,182.0 735.4,182.0 735.6,182.0 735.7,182.0 735.9,182.0 736.1,182.0 736.2,182.0 736.4,182.0 736.6,182.0 736.7,182.0 736.9,182.0 737.0,182.0 737.2,182.0 737.4,182.0 737.5,182.0 737.7,182.0 737.9,182.0 738.0,182.0 738.2,182.0 738.4,182.0 738.5,182.0 738.7,182.0 738.8,182.0 739.0,182.0 739.2,182.0 739.3,182.0 739.5,182.0 739.7,182.0 739.8,182.0 740.0,182.0 740.2,182.0 740.3,182.0 740.5,182.0 740.6,182.0 740.8,182.0 741.0,182.0 741.1,182.0 741.3,182.0 741.5,182.0 741.6,182.0 741.8,182.0 742.0,182.0 742.1,182.0 742.3,182.0 742.4,182.0 742.6,182.0 742.8,182.0 742.9,182.0 743.1,182.0 743.3,182.0 743.4,182.0 743.6,182.0 743.8,182.0 743.9,182.0 744.1,182.0 744.3,182.0 744.4,182.0 744.6,182.0 744.7,182.0 744.9,182.0 745.1,182.0 745.2,182.0 745.4,182.0 745.6,182.0 745.7,182.0 745.9,182.0 746.1,182.0 746.2,182.0 746.4,182.0 746.5,182.0 746.7,182.0 746.9,182.0 747.0,182.0 747.2,182.0 747.4,182.0 747.5,182.0 747.7,182.0 747.9,182.0 748.0,182.0 748.2,182.0 748.3,182.0 748.5,182.0 748.7,182.0 748.8,182.0 749.0,182.0 749.2,182.0 749.3,182.0 749.5,182.0 749.7,182.0 749.8,182.0 750.0,182.0 750.1,182.0 750.3,182.0 750.5,182.0 750.6,182.0 750.8,182.0 751.0,182.0 751.1,182.0 751.3,182.0 751.5,182.0 751.6,182.0 751.8,182.0 751.9,182.0 752.1,182.0 752.3,182.0 752.4,182.0 752.6,182.0 752.8,182.0 752.9,182.0 753.1,182.0 753.3,182.0 753.4,182.0 753.6,182.0 753.7,182.0 753.9,182.0 754.1,182.0 754.2,182.0 754.4,182.0 754.6,182.0 754.7,182.0 754.9,182.0 755.1,182.0 755.2,182.0 755.4,182.0 755.5,182.0 755.7,182.0 755.9,182.0 756.0,182.0 756.2,182.0 756.4,182.0 756.5,182.0 756.7,182.0 756.9,182.0 757.0,182.0 757.2,182.0 757.3,182.0 757.5,182.0 757.7,182.0 757.8,182.0 758.0,182.0 758.2,182.0 758.3,182.0 758.5,182.0 758.7,182.0 758.8,182.0 759.0,182.0 759.1,182.0 759.3,182.0 759.5,182.0 759.6,182.0 759.8,182.0 760.0,182.0 760.1,182.0 760.3,182.0 760.5,182.0 760.6,182.0 760.8,182.0 760.9,182.0 761.1,182.0 761.3,182.0 761.4,182.0 761.6,182.0 761.8,182.0 761.9,182.0 762.1,182.0 762.3,182.0 762.4,182.0 762.6,182.0 762.7,182.0 762.9,182.0 763.1,182.0 763.2,182.0 763.4,182.0 763.6,182.0 763.7,182.0 763.9,182.0 764.1,182.0 764.2,182.0 764.4,182.0 764.5,182.0 764.7,182.0 764.9,182.0 765.0,182.0 765.2,182.0 765.4,182.0 765.5,182.0 765.7,182.0 765.9,182.0 766.0,182.0 766.2,182.0 766.3,182.0 766.5,182.0 766.7,182.0 766.8,182.0 767.0,182.0 767.2,182.0 767.3,182.0 767.5,182.0 767.7,182.0 767.8,182.0 768.0,182.0 768.1,182.0 768.3,182.0 768.5,182.0 768.6,182.0 768.8,182.0 769.0,182.0 769.1,182.0 769.3,182.0 769.5,182.0 769.6,182.0 769.8,182.0 769.9,182.0 770.1,182.0 770.3,182.0 770.4,182.0 770.6,182.0 770.8,182.0 770.9,182.0 771.1,182.0 771.3,182.0 771.4,182.0 771.6,182.0 771.7,182.0 771.9,182.0 772.1,182.0 772.2,182.0 772.4,182.0 772.6,182.0 772.7,182.0 772.9,182.0 773.1,182.0 773.2,182.0 773.4,182.0 773.5,182.0 773.7,182.0 773.9,182.0 774.0,182.0 774.2,182.0 774.4,182.0 774.5,182.0 774.7,182.0 774.9,182.0 775.0,182.0 775.2,182.0 775.3,182.0 775.5,182.0 775.7,182.0 775.8,182.0 776.0,182.0 776.2,182.0 776.3,182.0 776.5,182.0 776.7,182.0 776.8,182.0 777.0,182.0 777.1,182.0 777.3,182.0 777.5,182.0 777.6,182.0 777.8,182.0 778.0,182.0 778.1,182.0 778.3,182.0 778.5,182.0 778.6,182.0 778.8,182.0 778.9,182.0 779.1,182.0 779.3,182.0 779.4,182.0 779.6,182.0 779.8,182.0 779.9,182.0 780.1,182.0 780.3,182.0 780.4,182.0 780.6,182.0 780.7,182.0 780.9,182.0 781.1,182.0 781.2,182.0 781.4,182.0 781.6,182.0 781.7,182.0 781.9,182.0 782.1,182.0 782.2,182.0 782.4,182.0 782.5,182.0 782.7,182.0 782.9,182.0 783.0,182.0 783.2,182.0 783.4,182.0 783.5,182.0 783.7,182.0 783.9,182.0 784.0,182.0 784.2,182.0 784.3,182.0 784.5,182.0 784.7,182.0 784.8,182.0 785.0,182.0" fill="none" stroke="#4a90d9" stroke-width="1.5" stroke-linejoin="round"/>
  <text x="209.5" y="214" text-anchor="middle" font-size="11" fill="#6b7280">n / N</text>
  <text x="617.5" y="214" text-anchor="middle" font-size="11" fill="#6b7280">Normalized frequency (× Fₛ)</text>
</svg>
