<svg xmlns="http://www.w3.org/2000/svg" viewBox="0 0 560 190" width="560" height="190" style="font-family:system-ui,-apple-system,sans-serif">
  <rect width="560" height="190" fill="#fafafa" rx="6"/>
  <line x1="52" y1="152.0" x2="257" y2="152.0" stroke="#e5e7eb" stroke-width="0.5"/>
  <text x="48" y="155.0" text-anchor="end" font-size="7.5" fill="#6b7280">0</text>
  <line x1="52" y1="82.0" x2="257" y2="82.0" stroke="#e5e7eb" stroke-width="0.5"/>
  <text x="48" y="85.0" text-anchor="end" font-size="7.5" fill="#6b7280">0.5</text>
  <line x1="52" y1="12.0" x2="257" y2="12.0" stroke="#e5e7eb" stroke-width="0.5"/>
  <text x="48" y="15.0" text-anchor="end" font-size="7.5" fill="#6b7280">1</text>
  <line x1="52.0" y1="12" x2="52.0" y2="152" stroke="#e5e7eb" stroke-width="0.5"/>
  <text x="52.0" y="164" text-anchor="middle" font-size="7.5" fill="#6b7280">0</text>
  <line x1="154.5" y1="12" x2="154.5" y2="152" stroke="#e5e7eb" stroke-width="0.5"/>
  <text x="154.5" y="164" text-anchor="middle" font-size="7.5" fill="#6b7280">0.5</text>
  <line x1="257.0" y1="12" x2="257.0" y2="152" stroke="#e5e7eb" stroke-width="0.5"/>
  <text x="257.0" y="164" text-anchor="middle" font-size="7.5" fill="#6b7280">1</text>
  <line x1="52" y1="12" x2="52" y2="152" stroke="#d1d5db" stroke-width="0.75"/>
  <line x1="52" y1="152" x2="257" y2="152" stroke="#d1d5db" stroke-width="0.75"/>
  <path d="M52.0,152.0 52.0,152.0 52.8,152.0 53.6,151.9 54.4,151.7 55.2,151.5 56.0,151.2 56.8,150.8 57.6,150.4 58.4,149.9 59.2,149.4 60.0,148.8 60.8,148.2 61.6,147.5 62.5,146.8 63.3,146.0 64.1,145.1 64.9,144.3 65.7,143.3 66.5,142.4 67.3,141.3 68.1,140.3 68.9,139.2 69.7,138.1 70.5,136.9 71.3,135.7 72.1,134.5 72.9,133.2 73.7,131.9 74.5,130.6 75.3,129.2 76.1,127.9 76.9,126.5 77.7,125.0 78.5,123.6 79.3,122.1 80.1,120.6 80.9,119.1 81.7,117.5 82.5,116.0 83.4,114.4 84.2,112.8 85.0,111.2 85.8,109.6 86.6,108.0 87.4,106.3 88.2,104.7 89.0,103.0 89.8,101.4 90.6,99.7 91.4,98.0 92.2,96.3 93.0,94.7 93.8,93.0 94.6,91.3 95.4,89.6 96.2,87.9 97.0,86.2 97.8,84.5 98.6,82.8 99.4,81.2 100.2,79.5 101.0,77.8 101.8,76.1 102.6,74.5 103.5,72.8 104.3,71.2 105.1,69.6 105.9,67.9 106.7,66.3 107.5,64.7 108.3,63.2 109.1,61.6 109.9,60.0 110.7,58.5 111.5,57.0 112.3,55.4 113.1,54.0 113.9,52.5 114.7,51.0 115.5,49.6 116.3,48.2 117.1,46.8 117.9,45.4 118.7,44.0 119.5,42.7 120.3,41.4 121.1,40.1 121.9,38.8 122.7,37.6 123.5,36.4 124.4,35.2 125.2,34.0 126.0,32.9 126.8,31.8 127.6,30.7 128.4,29.6 129.2,28.6 130.0,27.6 130.8,26.6 131.6,25.6 132.4,24.7 133.2,23.8 134.0,23.0 134.8,22.1 135.6,21.4 136.4,20.6 137.2,19.8 138.0,19.1 138.8,18.5 139.6,17.8 140.4,17.2 141.2,16.7 142.0,16.1 142.8,15.6 143.6,15.1 144.5,14.7 145.3,14.3 146.1,13.9 146.9,13.6 147.7,13.2 148.5,13.0 149.3,12.7 150.1,12.5 150.9,12.3 151.7,12.2 152.5,12.1 153.3,12.0 154.1,12.0 154.9,12.0 155.7,12.0 156.5,12.1 157.3,12.2 158.1,12.3 158.9,12.5 159.7,12.7 160.5,13.0 161.3,13.2 162.1,13.6 162.9,13.9 163.7,14.3 164.5,14.7 165.4,15.1 166.2,15.6 167.0,16.1 167.8,16.7 168.6,17.2 169.4,17.8 170.2,18.5 171.0,19.1 171.8,19.8 172.6,20.6 173.4,21.4 174.2,22.1 175.0,23.0 175.8,23.8 176.6,24.7 177.4,25.6 178.2,26.6 179.0,27.6 179.8,28.6 180.6,29.6 181.4,30.7 182.2,31.8 183.0,32.9 183.8,34.0 184.6,35.2 185.5,36.4 186.3,37.6 187.1,38.8 187.9,40.1 188.7,41.4 189.5,42.7 190.3,44.0 191.1,45.4 191.9,46.8 192.7,48.2 193.5,49.6 194.3,51.0 195.1,52.5 195.9,54.0 196.7,55.4 197.5,57.0 198.3,58.5 199.1,60.0 199.9,61.6 200.7,63.2 201.5,64.7 202.3,66.3 203.1,67.9 203.9,69.6 204.7,71.2 205.5,72.8 206.4,74.5 207.2,76.1 208.0,77.8 208.8,79.5 209.6,81.2 210.4,82.8 211.2,84.5 212.0,86.2 212.8,87.9 213.6,89.6 214.4,91.3 215.2,93.0 216.0,94.7 216.8,96.3 217.6,98.0 218.4,99.7 219.2,101.4 220.0,103.0 220.8,104.7 221.6,106.3 222.4,108.0 223.2,109.6 224.0,111.2 224.8,112.8 225.6,114.4 226.5,116.0 227.3,117.5 228.1,119.1 228.9,120.6 229.7,122.1 230.5,123.6 231.3,125.0 232.1,126.5 232.9,127.9 233.7,129.2 234.5,130.6 235.3,131.9 236.1,133.2 236.9,134.5 237.7,135.7 238.5,136.9 239.3,138.1 240.1,139.2 240.9,140.3 241.7,141.3 242.5,142.4 243.3,143.3 244.1,144.3 244.9,145.1 245.7,146.0 246.5,146.8 247.4,147.5 248.2,148.2 249.0,148.8 249.8,149.4 250.6,149.9 251.4,150.4 252.2,150.8 253.0,151.2 253.8,151.5 254.6,151.7 255.4,151.9 256.2,152.0 257.0,152.0 L257.0,152.0 Z" fill="#4a90d9" fill-opacity="0.06"/>
  <polyline points="52.0,152.0 52.8,152.0 53.6,151.9 54.4,151.7 55.2,151.5 56.0,151.2 56.8,150.8 57.6,150.4 58.4,149.9 59.2,149.4 60.0,148.8 60.8,148.2 61.6,147.5 62.5,146.8 63.3,146.0 64.1,145.1 64.9,144.3 65.7,143.3 66.5,142.4 67.3,141.3 68.1,140.3 68.9,139.2 69.7,138.1 70.5,136.9 71.3,135.7 72.1,134.5 72.9,133.2 73.7,131.9 74.5,130.6 75.3,129.2 76.1,127.9 76.9,126.5 77.7,125.0 78.5,123.6 79.3,122.1 80.1,120.6 80.9,119.1 81.7,117.5 82.5,116.0 83.4,114.4 84.2,112.8 85.0,111.2 85.8,109.6 86.6,108.0 87.4,106.3 88.2,104.7 89.0,103.0 89.8,101.4 90.6,99.7 91.4,98.0 92.2,96.3 93.0,94.7 93.8,93.0 94.6,91.3 95.4,89.6 96.2,87.9 97.0,86.2 97.8,84.5 98.6,82.8 99.4,81.2 100.2,79.5 101.0,77.8 101.8,76.1 102.6,74.5 103.5,72.8 104.3,71.2 105.1,69.6 105.9,67.9 106.7,66.3 107.5,64.7 108.3,63.2 109.1,61.6 109.9,60.0 110.7,58.5 111.5,57.0 112.3,55.4 113.1,54.0 113.9,52.5 114.7,51.0 115.5,49.6 116.3,48.2 117.1,46.8 117.9,45.4 118.7,44.0 119.5,42.7 120.3,41.4 121.1,40.1 121.9,38.8 122.7,37.6 123.5,36.4 124.4,35.2 125.2,34.0 126.0,32.9 126.8,31.8 127.6,30.7 128.4,29.6 129.2,28.6 130.0,27.6 130.8,26.6 131.6,25.6 132.4,24.7 133.2,23.8 134.0,23.0 134.8,22.1 135.6,21.4 136.4,20.6 137.2,19.8 138.0,19.1 138.8,18.5 139.6,17.8 140.4,17.2 141.2,16.7 142.0,16.1 142.8,15.6 143.6,15.1 144.5,14.7 145.3,14.3 146.1,13.9 146.9,13.6 147.7,13.2 148.5,13.0 149.3,12.7 150.1,12.5 150.9,12.3 151.7,12.2 152.5,12.1 153.3,12.0 154.1,12.0 154.9,12.0 155.7,12.0 156.5,12.1 157.3,12.2 158.1,12.3 158.9,12.5 159.7,12.7 160.5,13.0 161.3,13.2 162.1,13.6 162.9,13.9 163.7,14.3 164.5,14.7 165.4,15.1 166.2,15.6 167.0,16.1 167.8,16.7 168.6,17.2 169.4,17.8 170.2,18.5 171.0,19.1 171.8,19.8 172.6,20.6 173.4,21.4 174.2,22.1 175.0,23.0 175.8,23.8 176.6,24.7 177.4,25.6 178.2,26.6 179.0,27.6 179.8,28.6 180.6,29.6 181.4,30.7 182.2,31.8 183.0,32.9 183.8,34.0 184.6,35.2 185.5,36.4 186.3,37.6 187.1,38.8 187.9,40.1 188.7,41.4 189.5,42.7 190.3,44.0 191.1,45.4 191.9,46.8 192.7,48.2 193.5,49.6 194.3,51.0 195.1,52.5 195.9,54.0 196.7,55.4 197.5,57.0 198.3,58.5 199.1,60.0 199.9,61.6 200.7,63.2 201.5,64.7 202.3,66.3 203.1,67.9 203.9,69.6 204.7,71.2 205.5,72.8 206.4,74.5 207.2,76.1 208.0,77.8 208.8,79.5 209.6,81.2 210.4,82.8 211.2,84.5 212.0,86.2 212.8,87.9 213.6,89.6 214.4,91.3 215.2,93.0 216.0,94.7 216.8,96.3 217.6,98.0 218.4,99.7 219.2,101.4 220.0,103.0 220.8,104.7 221.6,106.3 222.4,108.0 223.2,109.6 224.0,111.2 224.8,112.8 225.6,114.4 226.5,116.0 227.3,117.5 228.1,119.1 228.9,120.6 229.7,122.1 230.5,123.6 231.3,125.0 232.1,126.5 232.9,127.9 233.7,129.2 234.5,130.6 235.3,131.9 236.1,133.2 236.9,134.5 237.7,135.7 238.5,136.9 239.3,138.1 240.1,139.2 240.9,140.3 241.7,141.3 242.5,142.4 243.3,143.3 244.1,144.3 244.9,145.1 245.7,146.0 246.5,146.8 247.4,147.5 248.2,148.2 249.0,148.8 249.8,149.4 250.6,149.9 251.4,150.4 252.2,150.8 253.0,151.2 253.8,151.5 254.6,151.7 255.4,151.9 256.2,152.0 257.0,152.0" fill="none" stroke="#4a90d9" stroke-width="1.2" stroke-linejoin="round"/>
  <line x1="322" y1="12.0" x2="527" y2="12.0" stroke="#e5e7eb" stroke-width="0.5"/>
  <text x="318" y="15.0" text-anchor="end" font-size="7.5" fill="#6b7280">0</text>
  <line x1="322" y1="58.7" x2="527" y2="58.7" stroke="#e5e7eb" stroke-width="0.5"/>
  <text x="318" y="61.7" text-anchor="end" font-size="7.5" fill="#6b7280">-40</text>
  <line x1="322" y1="105.3" x2="527" y2="105.3" stroke="#e5e7eb" stroke-width="0.5"/>
  <text x="318" y="108.3" text-anchor="end" font-size="7.5" fill="#6b7280">-80</text>
  <line x1="322" y1="152.0" x2="527" y2="152.0" stroke="#e5e7eb" stroke-width="0.5"/>
  <text x="318" y="155.0" text-anchor="end" font-size="7.5" fill="#6b7280">-120</text>
  <line x1="322.0" y1="12" x2="322.0" y2="152" stroke="#e5e7eb" stroke-width="0.5"/>
  <text x="322.0" y="164" text-anchor="middle" font-size="7.5" fill="#6b7280">0</text>
  <line x1="363.0" y1="12" x2="363.0" y2="152" stroke="#e5e7eb" stroke-width="0.5"/>
  <text x="363.0" y="164" text-anchor="middle" font-size="7.5" fill="#6b7280">0.1</text>
  <line x1="404.0" y1="12" x2="404.0" y2="152" stroke="#e5e7eb" stroke-width="0.5"/>
  <text x="404.0" y="164" text-anchor="middle" font-size="7.5" fill="#6b7280">0.2</text>
  <line x1="445.0" y1="12" x2="445.0" y2="152" stroke="#e5e7eb" stroke-width="0.5"/>
  <text x="445.0" y="164" text-anchor="middle" font-size="7.5" fill="#6b7280">0.3</text>
  <line x1="486.0" y1="12" x2="486.0" y2="152" stroke="#e5e7eb" stroke-width="0.5"/>
  <text x="486.0" y="164" text-anchor="middle" font-size="7.5" fill="#6b7280">0.4</text>
  <line x1="527.0" y1="12" x2="527.0" y2="152" stroke="#e5e7eb" stroke-width="0.5"/>
  <text x="527.0" y="164" text-anchor="middle" font-size="7.5" fill="#6b7280">0.5</text>
  <line x1="322" y1="12" x2="322" y2="152" stroke="#d1d5db" stroke-width="0.75"/>
  <line x1="322" y1="152" x2="527" y2="152" stroke="#d1d5db" stroke-width="0.75"/>
  <polyline points="322.0,12.0 322.1,12.0 322.2,12.1 322.3,12.2 322.4,12.4 322.5,12.7 322.6,13.0 322.7,13.4 322.8,13.8 322.9,14.3 323.0,14.9 323.1,15.5 323.2,16.2 323.3,17.0 323.4,17.8 323.5,18.7 323.6,19.8 323.7,20.9 323.8,22.1 323.9,23.5 324.0,25.0 324.1,26.6 324.2,28.5 324.3,30.5 324.4,32.9 324.5,35.7 324.6,39.0 324.7,43.3 324.8,49.5 324.9,62.0 325.0,61.8 325.1,52.2 325.2,48.3 325.3,46.2 325.4,45.0 325.5,44.5 325.6,44.4 325.7,44.6 325.8,45.3 325.9,46.2 326.0,47.5 326.1,49.2 326.2,51.3 326.3,54.1 326.4,57.8 326.5,63.4 326.6,75.1 326.7,75.8 326.8,65.4 326.9,61.1 327.0,58.7 327.1,57.2 327.2,56.4 327.3,56.1 327.4,56.2 327.5,56.7 327.6,57.5 327.7,58.7 327.8,60.3 327.9,62.5 328.0,65.5 328.1,69.8 328.2,77.1 328.3,128.8 328.4,78.1 328.5,71.7 328.6,68.4 328.7,66.4 328.8,65.2 328.9,64.5 329.0,64.3 329.1,64.5 329.2,65.0 329.3,65.9 329.4,67.3 329.5,69.2 329.6,71.7 329.7,75.4 329.8,81.3 329.9,95.8 330.0,88.8 330.1,80.1 330.2,76.0 330.3,73.6 330.4,72.0 330.5,71.1 330.6,70.7 330.7,70.7 330.8,71.1 330.9,71.8 331.0,73.0 331.1,74.6 331.2,77.0 331.3,80.2 331.4,85.3 331.5,95.9 331.6,98.5 331.7,87.0 331.8,82.2 331.9,79.5 332.0,77.7 332.1,76.6 332.2,76.0 332.3,75.9 332.4,76.1 332.5,76.7 332.6,77.8 332.7,79.3 332.8,81.4 332.9,84.4 333.0,89.0 333.1,97.8 333.2,108.5 333.3,93.0 333.4,87.6 333.5,84.5 333.6,82.5 333.7,81.3 333.8,80.6 333.9,80.3 334.0,80.5 334.1,81.0 334.2,81.9 334.3,83.3 334.4,85.3 334.5,88.1 334.6,92.3 334.7,100.0 334.8,121.3 334.9,98.3 335.0,92.2 335.1,88.8 335.2,86.7 335.3,85.4 335.4,84.6 335.5,84.2 335.6,84.3 335.7,84.7 335.8,85.5 335.9,86.8 336.0,88.7 336.1,91.3 336.2,95.3 336.3,102.2 336.4,142.2 336.5,103.1 336.6,96.3 336.7,92.7 336.8,90.5 336.9,89.0 337.0,88.1 337.1,87.7 337.2,87.7 337.3,88.0 337.4,88.8 337.5,90.0 337.6,91.8 337.7,94.3 337.8,98.0 337.9,104.4 338.0,125.9 338.1,107.5 338.2,100.1 338.3,96.2 338.4,93.8 338.5,92.3 338.6,91.3 338.7,90.8 338.8,90.7 338.9,91.0 339.0,91.7 339.1,92.8 339.2,94.5 339.3,96.9 339.4,100.5 339.5,106.4 339.6,122.9 339.7,111.7 339.8,103.5 339.9,99.4 340.0,96.9 340.1,95.2 340.2,94.2 340.3,93.6 340.4,93.5 340.5,93.7 340.6,94.4 340.7,95.5 340.8,97.0 340.9,99.3 341.0,102.7 341.1,108.3 341.2,122.1 341.3,115.8 341.4,106.7 341.5,102.4 341.6,99.7 341.7,98.0 341.8,96.9 341.9,96.2 342.0,96.0 342.1,96.2 342.2,96.8 342.3,97.8 342.4,99.4 342.5,101.6 342.6,104.8 342.7,110.1 342.8,122.1 342.9,119.8 343.0,109.7 343.1,105.1 343.2,102.3 343.3,100.5 343.4,99.3 343.5,98.6 343.6,98.4 343.7,98.5 343.8,99.1 343.9,100.0 344.0,101.5 344.1,103.6 344.2,106.8 344.3,111.7 344.4,122.5 344.5,123.8 344.6,112.5 344.7,107.6 344.8,104.7 344.9,102.8 345.0,101.6 345.1,100.9 345.2,100.6 345.3,100.7 345.4,101.2 345.5,102.1 345.6,103.5 345.7,105.6 345.8,108.6 345.9,113.3 346.0,123.1 346.1,127.9 346.2,115.2 346.3,110.0 346.4,107.0 346.5,105.0 346.6,103.7 346.7,103.0 346.8,102.6 346.9,102.7 347.0,103.2 347.1,104.0 347.2,105.4 347.3,107.4 347.4,110.2 347.5,114.8 347.6,123.7 347.7,132.3 347.8,117.7 347.9,112.3 348.0,109.2 348.1,107.1 348.2,105.8 348.3,104.9 348.4,104.6 348.5,104.6 348.6,105.0 348.7,105.8 348.8,107.1 348.9,109.0 349.0,111.8 349.1,116.2 349.2,124.5 349.3,137.3 349.4,120.2 349.5,114.5 349.6,111.2 349.7,109.1 349.8,107.7 349.9,106.8 350.0,106.4 350.1,106.4 350.2,106.7 350.3,107.5 350.4,108.8 350.5,110.6 350.6,113.3 350.7,117.5 350.8,125.3 350.9,143.5 351.0,122.6 351.1,116.5 351.2,113.1 351.3,110.9 351.4,109.5 351.5,108.5 351.6,108.1 351.7,108.0 351.8,108.4 351.9,109.1 352.0,110.3 352.1,112.1 352.2,114.7 352.3,118.7 352.4,126.0 352.5,152.0 352.6,124.9 352.7,118.5 352.8,115.0 352.9,112.7 353.0,111.2 353.1,110.2 353.2,109.7 353.3,109.6 353.4,109.9 353.5,110.6 353.6,111.8 353.7,113.6 353.8,116.1 353.9,119.9 354.0,126.8 354.1,152.0 354.2,127.2 354.3,120.4 354.4,116.7 354.5,114.4 354.6,112.8 354.7,111.8 354.8,111.3 354.9,111.2 355.0,111.4 355.1,112.1 355.2,113.2 355.3,114.9 355.4,117.4 355.5,121.1 355.6,127.6 355.7,152.0 355.8,129.5 355.9,122.3 356.0,118.4 356.1,116.0 356.3,114.3 356.4,113.3 356.5,112.8 356.6,112.6 356.7,112.8 356.8,113.5 356.9,114.6 357.0,116.2 357.1,118.6 357.2,122.2 357.3,128.3 357.4,148.5 357.5,131.7 357.6,124.0 357.7,120.0 357.8,117.5 357.9,115.8 358.0,114.8 358.1,114.2 358.2,114.0 358.3,114.2 358.4,114.8 358.5,115.8 358.6,117.4 358.7,119.7 358.8,123.2 358.9,129.1 359.0,146.1 359.1,134.0 359.2,125.8 359.3,121.6 359.4,119.0 359.5,117.3 359.6,116.2 359.7,115.5 359.8,115.3 359.9,115.5 360.0,116.1 360.1,117.1 360.2,118.6 360.3,120.8 360.4,124.2 360.5,129.8 360.6,144.6 360.7,136.2 360.8,127.5 360.9,123.1 361.0,120.4 361.1,118.7 361.2,117.5 361.3,116.8 361.4,116.6 361.5,116.7 361.6,117.3 361.7,118.2 361.8,119.7 361.9,121.9 362.0,125.2 362.1,130.5 362.2,143.7 362.3,138.5 362.4,129.1 362.5,124.6 362.6,121.8 362.7,120.0 362.8,118.8 362.9,118.1 363.0,117.8 363.1,117.9 363.2,118.4 363.3,119.4 363.4,120.8 363.5,122.9 363.6,126.1 363.7,131.2 363.8,143.2 363.9,140.9 364.0,130.7 364.1,126.0 364.2,123.2 364.3,121.3 364.4,120.0 364.5,119.3 364.6,119.0 364.7,119.1 364.8,119.5 364.9,120.4 365.0,121.8 365.1,123.9 365.2,127.0 365.3,131.9 365.4,142.8 365.5,143.4 365.6,132.3 365.7,127.4 365.8,124.5 365.9,122.5 366.0,121.2 366.1,120.5 366.2,120.1 366.3,120.2 366.4,120.6 366.5,121.5 366.6,122.9 366.7,124.9 366.8,127.8 366.9,132.6 367.0,142.7 367.1,146.1 367.2,133.9 367.3,128.8 367.4,125.7 367.5,123.7 367.6,122.4 367.7,121.6 367.8,121.2 367.9,121.2 368.0,121.7 368.1,122.5 368.2,123.8 368.3,125.8 368.4,128.7 368.5,133.3 368.6,142.6 368.7,149.0 368.8,135.4 368.9,130.1 369.0,127.0 369.1,124.9 369.2,123.5 369.3,122.7 369.4,122.3 369.5,122.3 369.6,122.7 369.7,123.5 369.8,124.8 369.9,126.7 370.0,129.5 370.1,133.9 370.2,142.6 370.3,152.0 370.4,137.0 370.5,131.4 370.6,128.2 370.7,126.0 370.8,124.6 370.9,123.8 371.0,123.3 371.1,123.3 371.2,123.6 371.3,124.4 371.4,125.7 371.5,127.5 371.6,130.2 371.7,134.5 371.8,142.7 371.9,152.0 372.0,138.5 372.1,132.7 372.2,129.3 372.3,127.2 372.4,125.7 372.5,124.8 372.6,124.3 372.7,124.3 372.8,124.6 372.9,125.3 373.0,126.5 373.1,128.3 373.2,131.0 373.3,135.1 373.4,142.8 373.5,152.0 373.6,140.0 373.7,134.0 373.8,130.5 373.9,128.2 374.0,126.7 374.1,125.8 374.2,125.3 374.3,125.2 374.4,125.5 374.5,126.2 374.6,127.4 374.7,129.1 374.8,131.7 374.9,135.7 375.0,143.0 375.1,152.0 375.2,141.6 375.3,135.2 375.4,131.6 375.5,129.3 375.6,127.8 375.7,126.8 375.8,126.2 375.9,126.1 376.0,126.4 376.1,127.1 376.2,128.2 376.3,129.9 376.4,132.4 376.5,136.3 376.6,143.2 376.7,152.0 376.8,143.1 376.9,136.4 377.0,132.7 377.1,130.3 377.2,128.7 377.3,127.7 377.4,127.2 377.5,127.0 377.6,127.3 377.7,127.9 377.8,129.0 377.9,130.7 378.0,133.1 378.1,136.9 378.2,143.5 378.3,152.0 378.4,144.7 378.5,137.6 378.6,133.8 378.7,131.3 378.8,129.7 378.9,128.7 379.0,128.1 379.1,127.9 379.2,128.1 379.3,128.7 379.4,129.8 379.5,131.4 379.6,133.8 379.7,137.4 379.8,143.7 379.9,152.0 380.0,146.3 380.1,138.8 380.2,134.8 380.3,132.3 380.4,130.6 380.5,129.6 380.6,128.9 380.7,128.7 380.8,128.9 380.9,129.5 381.0,130.5 381.1,132.1 381.2,134.4 381.3,138.0 381.4,144.0 381.5,152.0 381.6,147.9 381.7,140.0 381.8,135.9 381.9,133.3 382.0,131.6 382.1,130.4 382.2,129.8 382.3,129.6 382.4,129.7 382.5,130.3 382.6,131.3 382.7,132.8 382.8,135.1 382.9,138.5 383.0,144.2 383.1,152.0 383.2,149.6 383.3,141.2 383.4,136.9 383.5,134.2 383.6,132.5 383.7,131.3 383.8,130.6 383.9,130.4 384.0,130.5 384.1,131.0 384.2,132.0 384.3,133.5 384.4,135.7 384.5,139.0 384.6,144.5 384.7,152.0 384.8,151.3 384.9,142.3 385.0,137.9 385.1,135.2 385.2,133.3 385.3,132.2 385.4,131.4 385.5,131.2 385.6,131.3 385.7,131.8 385.8,132.7 385.9,134.2 386.0,136.3 386.1,139.5 386.2,144.8 386.3,152.0 386.4,152.0 386.5,143.5 386.6,138.9 386.7,136.1 386.8,134.2 386.9,133.0 387.0,132.2 387.1,131.9 387.2,132.0 387.3,132.5 387.4,133.4 387.5,134.8 387.6,136.9 387.7,140.0 387.8,145.1 387.9,152.0 388.0,152.0 388.1,144.6 388.2,139.9 388.3,137.0 388.4,135.1 388.5,133.8 388.6,133.0 388.7,132.7 388.8,132.7 388.9,133.2 389.0,134.1 389.1,135.4 389.2,137.5 389.3,140.5 389.4,145.4 389.5,152.0 389.6,152.0 389.7,145.8 389.8,140.9 389.9,137.9 390.0,135.9 390.1,134.6 390.2,133.8 390.3,133.4 390.4,133.5 390.5,133.9 390.6,134.7 390.7,136.1 390.8,138.0 390.9,141.0 391.0,145.7 391.1,152.0 391.2,152.0 391.3,147.0 391.4,141.8 391.5,138.8 391.6,136.7 391.7,135.4 391.8,134.6 391.9,134.2 392.0,134.2 392.1,134.5 392.2,135.4 392.3,136.7 392.4,138.6 392.5,141.5 392.6,146.0 392.7,152.0 392.8,152.0 392.9,148.1 393.0,142.8 393.1,139.6 393.2,137.5 393.3,136.2 393.4,135.3 393.5,134.9 393.6,134.8 393.7,135.2 393.8,136.0 393.9,137.3 394.0,139.1 394.1,141.9 394.2,146.3 394.3,152.0 394.4,152.0 394.5,149.3 394.6,143.7 394.7,140.5 394.8,138.3 394.9,136.9 395.0,136.0 395.1,135.6 395.2,135.5 395.3,135.8 395.4,136.6 395.5,137.8 395.6,139.7 395.7,142.4 395.8,146.7 395.9,152.0 396.0,152.0 396.1,150.5 396.2,144.7 396.3,141.3 396.4,139.1 396.5,137.7 396.6,136.7 396.7,136.3 396.8,136.2 396.9,136.5 397.0,137.2 397.1,138.4 397.2,140.2 397.3,142.8 397.4,147.0 397.5,152.0 397.6,152.0 397.7,151.7 397.8,145.6 397.9,142.2 398.0,139.9 398.1,138.4 398.2,137.4 398.3,136.9 398.4,136.8 398.5,137.1 398.6,137.8 398.7,139.0 398.8,140.7 398.9,143.3 399.0,147.3 399.1,152.0 399.2,152.0 399.3,152.0 399.4,146.6 399.5,143.0 399.6,140.7 399.7,139.1 399.8,138.1 399.9,137.6 400.0,137.5 400.1,137.7 400.2,138.4 400.3,139.5 400.4,141.2 400.5,143.7 400.6,147.6 400.7,152.0 400.8,152.0 400.9,152.0 401.0,147.5 401.1,143.8 401.2,141.4 401.3,139.8 401.4,138.8 401.5,138.2 401.6,138.1 401.7,138.3 401.8,139.0 401.9,140.0 402.0,141.7 402.1,144.2 402.2,147.9 402.3,152.0 402.4,152.0 402.5,152.0 402.6,148.4 402.7,144.6 402.8,142.2 402.9,140.5 403.0,139.5 403.1,138.9 403.2,138.7 403.3,138.9 403.4,139.5 403.5,140.6 403.6,142.2 403.7,144.6 403.8,148.2 403.9,152.0 404.0,152.0 404.1,152.0 404.2,149.4 404.3,145.4 404.4,142.9 404.5,141.2 404.6,140.1 404.7,139.5 404.8,139.3 404.9,139.5 405.0,140.1 405.1,141.1 405.2,142.7 405.3,145.0 405.4,148.5 405.5,152.0 405.6,152.0 405.7,152.0 405.8,150.3 405.9,146.2 406.0,143.6 406.1,141.9 406.2,140.8 406.3,140.1 406.4,139.9 406.5,140.1 406.6,140.6 406.7,141.6 406.8,143.1 406.9,145.4 407.0,148.8 407.1,152.0 407.2,152.0 407.3,152.0 407.4,151.2 407.5,147.0 407.6,144.4 407.7,142.6 407.8,141.4 407.9,140.8 408.0,140.5 408.1,140.6 408.2,141.1 408.3,142.1 408.4,143.6 408.5,145.8 408.6,149.2 408.7,152.0 408.8,152.0 408.9,152.0 409.0,152.0 409.1,147.8 409.2,145.1 409.3,143.3 409.4,142.1 409.5,141.4 409.6,141.1 409.7,141.2 409.8,141.7 409.9,142.6 410.0,144.1 410.1,146.2 410.2,149.5 410.3,152.0 410.4,152.0 410.5,152.0 410.6,152.0 410.7,148.6 410.8,145.8 410.9,143.9 411.0,142.7 411.1,142.0 411.2,141.6 411.3,141.7 411.4,142.2 411.5,143.1 411.6,144.5 411.7,146.6 411.8,149.8 411.9,152.0 412.0,152.0 412.1,152.0 412.2,152.0 412.3,149.4 412.4,146.5 412.5,144.6 412.6,143.3 412.7,142.6 412.8,142.2 412.9,142.3 413.0,142.7 413.1,143.6 413.2,145.0 413.3,147.0 413.4,150.1 413.5,152.0 413.6,152.0 413.7,152.0 413.8,152.0 413.9,150.2 414.0,147.2 414.1,145.2 414.2,143.9 414.3,143.1 414.4,142.8 414.5,142.8 414.6,143.2 414.7,144.1 414.8,145.4 414.9,147.4 415.0,150.4 415.1,152.0 415.2,152.0 415.3,152.0 415.4,152.0 415.5,150.9 415.6,147.9 415.7,145.9 415.8,144.5 415.9,143.7 416.0,143.3 416.1,143.3 416.2,143.7 416.3,144.5 416.4,145.8 416.5,147.8 416.6,150.7 416.7,152.0 416.8,152.0 416.9,152.0 417.0,152.0 417.1,151.7 417.2,148.6 417.3,146.5 417.4,145.1 417.5,144.3 417.6,143.9 417.7,143.8 417.8,144.2 417.9,145.0 418.0,146.3 418.1,148.2 418.2,151.0 418.3,152.0 418.4,152.0 418.5,152.0 418.6,152.0 418.7,152.0 418.8,149.3 418.9,147.2 419.0,145.7 419.1,144.9 419.2,144.4 419.3,144.4 419.4,144.7 419.5,145.5 419.6,146.7 419.7,148.6 419.8,151.3 419.9,152.0 420.0,152.0 420.1,152.0 420.2,152.0 420.3,152.0 420.4,150.0 420.5,147.8 420.6,146.3 420.7,145.4 420.8,144.9 420.9,144.9 421.0,145.2 421.1,145.9 421.2,147.1 421.3,148.9 421.4,151.6 421.5,152.0 421.6,152.0 421.7,152.0 421.8,152.0 421.9,152.0 422.0,150.6 422.1,148.4 422.2,146.9 422.3,146.0 422.4,145.5 422.5,145.4 422.6,145.7 422.7,146.4 422.8,147.5 422.9,149.3 423.0,151.9 423.1,152.0 423.2,152.0 423.3,152.0 423.4,152.0 423.5,152.0 423.6,151.3 423.7,149.0 423.8,147.5 423.9,146.5 424.0,146.0 424.1,145.9 424.2,146.1 424.3,146.8 424.4,147.9 424.6,149.7 424.7,152.0 424.8,152.0 424.9,152.0 425.0,152.0 425.1,152.0 425.2,152.0 425.3,152.0 425.4,149.7 425.5,148.1 425.6,147.1 425.7,146.5 425.8,146.4 425.9,146.6 426.0,147.2 426.1,148.4 426.2,150.0 426.3,152.0 426.4,152.0 426.5,152.0 426.6,152.0 426.7,152.0 426.8,152.0 426.9,152.0 427.0,150.3 427.1,148.7 427.2,147.6 427.3,147.0 427.4,146.9 427.5,147.1 427.6,147.7 427.7,148.8 427.8,150.4 427.9,152.0 428.0,152.0 428.1,152.0 428.2,152.0 428.3,152.0 428.4,152.0 428.5,152.0 428.6,150.9 428.7,149.2 428.8,148.2 428.9,147.5 429.0,147.3 429.1,147.5 429.2,148.1 429.3,149.2 429.4,150.8 429.5,152.0 429.6,152.0 429.7,152.0 429.8,152.0 429.9,152.0 430.0,152.0 430.1,152.0 430.2,151.5 430.3,149.8 430.4,148.7 430.5,148.0 430.6,147.8 430.7,148.0 430.8,148.5 430.9,149.6 431.0,151.1 431.1,152.0 431.2,152.0 431.3,152.0 431.4,152.0 431.5,152.0 431.6,152.0 431.7,152.0 431.8,152.0 431.9,150.4 432.0,149.2 432.1,148.6 432.2,148.3 432.3,148.4 432.4,149.0 432.5,150.0 432.6,151.5 432.7,152.0 432.8,152.0 432.9,152.0 433.0,152.0 433.1,152.0 433.2,152.0 433.3,152.0 433.4,152.0 433.5,150.9 433.6,149.7 433.7,149.1 433.8,148.8 433.9,148.9 434.0,149.4 434.1,150.3 434.2,151.8 434.3,152.0 434.4,152.0 434.5,152.0 434.6,152.0 434.7,152.0 434.8,152.0 434.9,152.0 435.0,152.0 435.1,151.5 435.2,150.3 435.3,149.6 435.4,149.2 435.5,149.3 435.6,149.8 435.7,150.7 435.8,152.0 435.9,152.0 436.0,152.0 436.1,152.0 436.2,152.0 436.3,152.0 436.4,152.0 436.5,152.0 436.6,152.0 436.7,152.0 436.8,150.8 436.9,150.0 437.0,149.7 437.1,149.8 437.2,150.2 437.3,151.1 437.4,152.0 437.5,152.0 437.6,152.0 437.7,152.0 437.8,152.0 437.9,152.0 438.0,152.0 438.1,152.0 438.2,152.0 438.3,152.0 438.4,151.3 438.5,150.5 438.6,150.2 438.7,150.2 438.8,150.7 438.9,151.5 439.0,152.0 439.1,152.0 439.2,152.0 439.3,152.0 439.4,152.0 439.5,152.0 439.6,152.0 439.7,152.0 439.8,152.0 439.9,152.0 440.0,151.8 440.1,151.0 440.2,150.7 440.3,150.7 440.4,151.1 440.5,151.9 440.6,152.0 440.7,152.0 440.8,152.0 440.9,152.0 441.0,152.0 441.1,152.0 441.2,152.0 441.3,152.0 441.4,152.0 441.5,152.0 441.6,152.0 441.7,151.5 441.8,151.1 441.9,151.1 442.0,151.5 442.1,152.0 442.2,152.0 442.3,152.0 442.4,152.0 442.5,152.0 442.6,152.0 442.7,152.0 442.8,152.0 442.9,152.0 443.0,152.0 443.1,152.0 443.2,152.0 443.3,152.0 443.4,151.6 443.5,151.5 443.6,151.9 443.7,152.0 443.8,152.0 443.9,152.0 444.0,152.0 444.1,152.0 444.2,152.0 444.3,152.0 444.4,152.0 444.5,152.0 444.6,152.0 444.7,152.0 444.8,152.0 444.9,152.0 445.0,152.0 445.1,152.0 445.2,152.0 445.3,152.0 445.4,152.0 445.5,152.0 445.6,152.0 445.7,152.0 445.8,152.0 445.9,152.0 446.0,152.0 446.1,152.0 446.2,152.0 446.3,152.0 446.4,152.0 446.5,152.0 446.6,152.0 446.7,152.0 446.8,152.0 446.9,152.0 447.0,152.0 447.1,152.0 447.2,152.0 447.3,152.0 447.4,152.0 447.5,152.0 447.6,152.0 447.7,152.0 447.8,152.0 447.9,152.0 448.0,152.0 448.1,152.0 448.2,152.0 448.3,152.0 448.4,152.0 448.5,152.0 448.6,152.0 448.7,152.0 448.8,152.0 448.9,152.0 449.0,152.0 449.1,152.0 449.2,152.0 449.3,152.0 449.4,152.0 449.5,152.0 449.6,152.0 449.7,152.0 449.8,152.0 449.9,152.0 450.0,152.0 450.1,152.0 450.2,152.0 450.3,152.0 450.4,152.0 450.5,152.0 450.6,152.0 450.7,152.0 450.8,152.0 450.9,152.0 451.0,152.0 451.1,152.0 451.2,152.0 451.3,152.0 451.4,152.0 451.5,152.0 451.6,152.0 451.7,152.0 451.8,152.0 451.9,152.0 452.0,152.0 452.1,152.0 452.2,152.0 452.3,152.0 452.4,152.0 452.5,152.0 452.6,152.0 452.7,152.0 452.8,152.0 452.9,152.0 453.0,152.0 453.1,152.0 453.2,152.0 453.3,152.0 453.4,152.0 453.5,152.0 453.6,152.0 453.7,152.0 453.8,152.0 453.9,152.0 454.0,152.0 454.1,152.0 454.2,152.0 454.3,152.0 454.4,152.0 454.5,152.0 454.6,152.0 454.7,152.0 454.8,152.0 454.9,152.0 455.0,152.0 455.1,152.0 455.2,152.0 455.3,152.0 455.4,152.0 455.5,152.0 455.6,152.0 455.7,152.0 455.8,152.0 455.9,152.0 456.0,152.0 456.1,152.0 456.2,152.0 456.3,152.0 456.4,152.0 456.5,152.0 456.6,152.0 456.7,152.0 456.8,152.0 456.9,152.0 457.0,152.0 457.1,152.0 457.2,152.0 457.3,152.0 457.4,152.0 457.5,152.0 457.6,152.0 457.7,152.0 457.8,152.0 457.9,152.0 458.0,152.0 458.1,152.0 458.2,152.0 458.3,152.0 458.4,152.0 458.5,152.0 458.6,152.0 458.7,152.0 458.8,152.0 458.9,152.0 459.0,152.0 459.1,152.0 459.2,152.0 459.3,152.0 459.4,152.0 459.5,152.0 459.6,152.0 459.7,152.0 459.8,152.0 459.9,152.0 460.0,152.0 460.1,152.0 460.2,152.0 460.3,152.0 460.4,152.0 460.5,152.0 460.6,152.0 460.7,152.0 460.8,152.0 460.9,152.0 461.0,152.0 461.1,152.0 461.2,152.0 461.3,152.0 461.4,152.0 461.5,152.0 461.6,152.0 461.7,152.0 461.8,152.0 461.9,152.0 462.0,152.0 462.1,152.0 462.2,152.0 462.3,152.0 462.4,152.0 462.5,152.0 462.6,152.0 462.7,152.0 462.8,152.0 462.9,152.0 463.0,152.0 463.1,152.0 463.2,152.0 463.3,152.0 463.4,152.0 463.5,152.0 463.6,152.0 463.7,152.0 463.8,152.0 463.9,152.0 464.0,152.0 464.1,152.0 464.2,152.0 464.3,152.0 464.4,152.0 464.5,152.0 464.6,152.0 464.7,152.0 464.8,152.0 464.9,152.0 465.0,152.0 465.1,152.0 465.2,152.0 465.3,152.0 465.4,152.0 465.5,152.0 465.6,152.0 465.7,152.0 465.8,152.0 465.9,152.0 466.0,152.0 466.1,152.0 466.2,152.0 466.3,152.0 466.4,152.0 466.5,152.0 466.6,152.0 466.7,152.0 466.8,152.0 466.9,152.0 467.0,152.0 467.1,152.0 467.2,152.0 467.3,152.0 467.4,152.0 467.5,152.0 467.6,152.0 467.7,152.0 467.8,152.0 467.9,152.0 468.0,152.0 468.1,152.0 468.2,152.0 468.3,152.0 468.4,152.0 468.5,152.0 468.6,152.0 468.7,152.0 468.8,152.0 468.9,152.0 469.0,152.0 469.1,152.0 469.2,152.0 469.3,152.0 469.4,152.0 469.5,152.0 469.6,152.0 469.7,152.0 469.8,152.0 469.9,152.0 470.0,152.0 470.1,152.0 470.2,152.0 470.3,152.0 470.4,152.0 470.5,152.0 470.6,152.0 470.7,152.0 470.8,152.0 470.9,152.0 471.0,152.0 471.1,152.0 471.2,152.0 471.3,152.0 471.4,152.0 471.5,152.0 471.6,152.0 471.7,152.0 471.8,152.0 471.9,152.0 472.0,152.0 472.1,152.0 472.2,152.0 472.3,152.0 472.4,152.0 472.5,152.0 472.6,152.0 472.7,152.0 472.8,152.0 472.9,152.0 473.0,152.0 473.1,152.0 473.2,152.0 473.3,152.0 473.4,152.0 473.5,152.0 473.6,152.0 473.7,152.0 473.8,152.0 473.9,152.0 474.0,152.0 474.1,152.0 474.2,152.0 474.3,152.0 474.4,152.0 474.5,152.0 474.6,152.0 474.7,152.0 474.8,152.0 474.9,152.0 475.0,152.0 475.1,152.0 475.2,152.0 475.3,152.0 475.4,152.0 475.5,152.0 475.6,152.0 475.7,152.0 475.8,152.0 475.9,152.0 476.0,152.0 476.1,152.0 476.2,152.0 476.3,152.0 476.4,152.0 476.5,152.0 476.6,152.0 476.7,152.0 476.8,152.0 476.9,152.0 477.0,152.0 477.1,152.0 477.2,152.0 477.3,152.0 477.4,152.0 477.5,152.0 477.6,152.0 477.7,152.0 477.8,152.0 477.9,152.0 478.0,152.0 478.1,152.0 478.2,152.0 478.3,152.0 478.4,152.0 478.5,152.0 478.6,152.0 478.7,152.0 478.8,152.0 478.9,152.0 479.0,152.0 479.1,152.0 479.2,152.0 479.3,152.0 479.4,152.0 479.5,152.0 479.6,152.0 479.7,152.0 479.8,152.0 479.9,152.0 480.0,152.0 480.1,152.0 480.2,152.0 480.3,152.0 480.4,152.0 480.5,152.0 480.6,152.0 480.7,152.0 480.8,152.0 480.9,152.0 481.0,152.0 481.1,152.0 481.2,152.0 481.3,152.0 481.4,152.0 481.5,152.0 481.6,152.0 481.7,152.0 481.8,152.0 481.9,152.0 482.0,152.0 482.1,152.0 482.2,152.0 482.3,152.0 482.4,152.0 482.5,152.0 482.6,152.0 482.7,152.0 482.8,152.0 482.9,152.0 483.0,152.0 483.1,152.0 483.2,152.0 483.3,152.0 483.4,152.0 483.5,152.0 483.6,152.0 483.7,152.0 483.8,152.0 483.9,152.0 484.0,152.0 484.1,152.0 484.2,152.0 484.3,152.0 484.4,152.0 484.5,152.0 484.6,152.0 484.7,152.0 484.8,152.0 484.9,152.0 485.0,152.0 485.1,152.0 485.2,152.0 485.3,152.0 485.4,152.0 485.5,152.0 485.6,152.0 485.7,152.0 485.8,152.0 485.9,152.0 486.0,152.0 486.1,152.0 486.2,152.0 486.3,152.0 486.4,152.0 486.5,152.0 486.6,152.0 486.7,152.0 486.8,152.0 486.9,152.0 487.0,152.0 487.1,152.0 487.2,152.0 487.3,152.0 487.4,152.0 487.5,152.0 487.6,152.0 487.7,152.0 487.8,152.0 487.9,152.0 488.0,152.0 488.1,152.0 488.2,152.0 488.3,152.0 488.4,152.0 488.5,152.0 488.6,152.0 488.7,152.0 488.8,152.0 488.9,152.0 489.0,152.0 489.1,152.0 489.2,152.0 489.3,152.0 489.4,152.0 489.5,152.0 489.6,152.0 489.7,152.0 489.8,152.0 489.9,152.0 490.0,152.0 490.1,152.0 490.2,152.0 490.3,152.0 490.4,152.0 490.5,152.0 490.6,152.0 490.7,152.0 490.8,152.0 490.9,152.0 491.0,152.0 491.1,152.0 491.2,152.0 491.3,152.0 491.4,152.0 491.5,152.0 491.6,152.0 491.7,152.0 491.8,152.0 491.9,152.0 492.0,152.0 492.1,152.0 492.2,152.0 492.3,152.0 492.4,152.0 492.5,152.0 492.6,152.0 492.7,152.0 492.9,152.0 493.0,152.0 493.1,152.0 493.2,152.0 493.3,152.0 493.4,152.0 493.5,152.0 493.6,152.0 493.7,152.0 493.8,152.0 493.9,152.0 494.0,152.0 494.1,152.0 494.2,152.0 494.3,152.0 494.4,152.0 494.5,152.0 494.6,152.0 494.7,152.0 494.8,152.0 494.9,152.0 495.0,152.0 495.1,152.0 495.2,152.0 495.3,152.0 495.4,152.0 495.5,152.0 495.6,152.0 495.7,152.0 495.8,152.0 495.9,152.0 496.0,152.0 496.1,152.0 496.2,152.0 496.3,152.0 496.4,152.0 496.5,152.0 496.6,152.0 496.7,152.0 496.8,152.0 496.9,152.0 497.0,152.0 497.1,152.0 497.2,152.0 497.3,152.0 497.4,152.0 497.5,152.0 497.6,152.0 497.7,152.0 497.8,152.0 497.9,152.0 498.0,152.0 498.1,152.0 498.2,152.0 498.3,152.0 498.4,152.0 498.5,152.0 498.6,152.0 498.7,152.0 498.8,152.0 498.9,152.0 499.0,152.0 499.1,152.0 499.2,152.0 499.3,152.0 499.4,152.0 499.5,152.0 499.6,152.0 499.7,152.0 499.8,152.0 499.9,152.0 500.0,152.0 500.1,152.0 500.2,152.0 500.3,152.0 500.4,152.0 500.5,152.0 500.6,152.0 500.7,152.0 500.8,152.0 500.9,152.0 501.0,152.0 501.1,152.0 501.2,152.0 501.3,152.0 501.4,152.0 501.5,152.0 501.6,152.0 501.7,152.0 501.8,152.0 501.9,152.0 502.0,152.0 502.1,152.0 502.2,152.0 502.3,152.0 502.4,152.0 502.5,152.0 502.6,152.0 502.7,152.0 502.8,152.0 502.9,152.0 503.0,152.0 503.1,152.0 503.2,152.0 503.3,152.0 503.4,152.0 503.5,152.0 503.6,152.0 503.7,152.0 503.8,152.0 503.9,152.0 504.0,152.0 504.1,152.0 504.2,152.0 504.3,152.0 504.4,152.0 504.5,152.0 504.6,152.0 504.7,152.0 504.8,152.0 504.9,152.0 505.0,152.0 505.1,152.0 505.2,152.0 505.3,152.0 505.4,152.0 505.5,152.0 505.6,152.0 505.7,152.0 505.8,152.0 505.9,152.0 506.0,152.0 506.1,152.0 506.2,152.0 506.3,152.0 506.4,152.0 506.5,152.0 506.6,152.0 506.7,152.0 506.8,152.0 506.9,152.0 507.0,152.0 507.1,152.0 507.2,152.0 507.3,152.0 507.4,152.0 507.5,152.0 507.6,152.0 507.7,152.0 507.8,152.0 507.9,152.0 508.0,152.0 508.1,152.0 508.2,152.0 508.3,152.0 508.4,152.0 508.5,152.0 508.6,152.0 508.7,152.0 508.8,152.0 508.9,152.0 509.0,152.0 509.1,152.0 509.2,152.0 509.3,152.0 509.4,152.0 509.5,152.0 509.6,152.0 509.7,152.0 509.8,152.0 509.9,152.0 510.0,152.0 510.1,152.0 510.2,152.0 510.3,152.0 510.4,152.0 510.5,152.0 510.6,152.0 510.7,152.0 510.8,152.0 510.9,152.0 511.0,152.0 511.1,152.0 511.2,152.0 511.3,152.0 511.4,152.0 511.5,152.0 511.6,152.0 511.7,152.0 511.8,152.0 511.9,152.0 512.0,152.0 512.1,152.0 512.2,152.0 512.3,152.0 512.4,152.0 512.5,152.0 512.6,152.0 512.7,152.0 512.8,152.0 512.9,152.0 513.0,152.0 513.1,152.0 513.2,152.0 513.3,152.0 513.4,152.0 513.5,152.0 513.6,152.0 513.7,152.0 513.8,152.0 513.9,152.0 514.0,152.0 514.1,152.0 514.2,152.0 514.3,152.0 514.4,152.0 514.5,152.0 514.6,152.0 514.7,152.0 514.8,152.0 514.9,152.0 515.0,152.0 515.1,152.0 515.2,152.0 515.3,152.0 515.4,152.0 515.5,152.0 515.6,152.0 515.7,152.0 515.8,152.0 515.9,152.0 516.0,152.0 516.1,152.0 516.2,152.0 516.3,152.0 516.4,152.0 516.5,152.0 516.6,152.0 516.7,152.0 516.8,152.0 516.9,152.0 517.0,152.0 517.1,152.0 517.2,152.0 517.3,152.0 517.4,152.0 517.5,152.0 517.6,152.0 517.7,152.0 517.8,152.0 517.9,152.0 518.0,152.0 518.1,152.0 518.2,152.0 518.3,152.0 518.4,152.0 518.5,152.0 518.6,152.0 518.7,152.0 518.8,152.0 518.9,152.0 519.0,152.0 519.1,152.0 519.2,152.0 519.3,152.0 519.4,152.0 519.5,152.0 519.6,152.0 519.7,152.0 519.8,152.0 519.9,152.0 520.0,152.0 520.1,152.0 520.2,152.0 520.3,152.0 520.4,152.0 520.5,152.0 520.6,152.0 520.7,152.0 520.8,152.0 520.9,152.0 521.0,152.0 521.1,152.0 521.2,152.0 521.3,152.0 521.4,152.0 521.5,152.0 521.6,152.0 521.7,152.0 521.8,152.0 521.9,152.0 522.0,152.0 522.1,152.0 522.2,152.0 522.3,152.0 522.4,152.0 522.5,152.0 522.6,152.0 522.7,152.0 522.8,152.0 522.9,152.0 523.0,152.0 523.1,152.0 523.2,152.0 523.3,152.0 523.4,152.0 523.5,152.0 523.6,152.0 523.7,152.0 523.8,152.0 523.9,152.0 524.0,152.0 524.1,152.0 524.2,152.0 524.3,152.0 524.4,152.0 524.5,152.0 524.6,152.0 524.7,152.0 524.8,152.0 524.9,152.0 525.0,152.0 525.1,152.0 525.2,152.0 525.3,152.0 525.4,152.0 525.5,152.0 525.6,152.0 525.7,152.0 525.8,152.0 525.9,152.0 526.0,152.0 526.1,152.0 526.2,152.0 526.3,152.0 526.4,152.0 526.5,152.0 526.6,152.0 526.7,152.0 526.8,152.0 526.9,152.0 527.0,152.0" fill="none" stroke="#4a90d9" stroke-width="1.2" stroke-linejoin="round"/>
  <text x="154.5" y="176" text-anchor="middle" font-size="8" fill="#6b7280">n / N</text>
  <text x="424.5" y="176" text-anchor="middle" font-size="8" fill="#6b7280">Normalized frequency (× Fₛ)</text>
</svg>
