<svg xmlns="http://www.w3.org/2000/svg" viewBox="0 0 560 210" width="560" height="210" style="font-family:system-ui,-apple-system,sans-serif">
  <rect width="560" height="210" fill="#fafafa" rx="6"/>
  <text x="280" y="18" text-anchor="middle" font-size="12" font-weight="600" fill="#374151">connes</text>
  <line x1="52" y1="166.0" x2="257" y2="166.0" stroke="#e5e7eb" stroke-width="0.5"/>
  <text x="48" y="169.0" text-anchor="end" font-size="7.5" fill="#6b7280">0</text>
  <line x1="52" y1="97.0" x2="257" y2="97.0" stroke="#e5e7eb" stroke-width="0.5"/>
  <text x="48" y="100.0" text-anchor="end" font-size="7.5" fill="#6b7280">0.5</text>
  <line x1="52" y1="28.0" x2="257" y2="28.0" stroke="#e5e7eb" stroke-width="0.5"/>
  <text x="48" y="31.0" text-anchor="end" font-size="7.5" fill="#6b7280">1</text>
  <line x1="52.0" y1="28" x2="52.0" y2="166" stroke="#e5e7eb" stroke-width="0.5"/>
  <text x="52.0" y="178" text-anchor="middle" font-size="7.5" fill="#6b7280">0</text>
  <line x1="154.5" y1="28" x2="154.5" y2="166" stroke="#e5e7eb" stroke-width="0.5"/>
  <text x="154.5" y="178" text-anchor="middle" font-size="7.5" fill="#6b7280">0.5</text>
  <line x1="257.0" y1="28" x2="257.0" y2="166" stroke="#e5e7eb" stroke-width="0.5"/>
  <text x="257.0" y="178" text-anchor="middle" font-size="7.5" fill="#6b7280">1</text>
  <line x1="52" y1="28" x2="52" y2="166" stroke="#d1d5db" stroke-width="0.75"/>
  <line x1="52" y1="166" x2="257" y2="166" stroke="#d1d5db" stroke-width="0.75"/>
  <path d="M52.0,166.0 52.0,166.0 52.8,166.0 53.6,165.9 54.4,165.7 55.2,165.5 56.0,165.2 56.8,164.8 57.6,164.4 58.4,164.0 59.2,163.4 60.0,162.9 60.8,162.2 61.6,161.6 62.5,160.8 63.3,160.1 64.1,159.2 64.9,158.4 65.7,157.5 66.5,156.5 67.3,155.5 68.1,154.5 68.9,153.4 69.7,152.3 70.5,151.1 71.3,149.9 72.1,148.7 72.9,147.5 73.7,146.2 74.5,144.9 75.3,143.6 76.1,142.2 76.9,140.8 77.7,139.4 78.5,138.0 79.3,136.5 80.1,135.0 80.9,133.5 81.7,132.0 82.5,130.5 83.4,128.9 84.2,127.4 85.0,125.8 85.8,124.2 86.6,122.6 87.4,121.0 88.2,119.4 89.0,117.7 89.8,116.1 90.6,114.4 91.4,112.8 92.2,111.1 93.0,109.5 93.8,107.8 94.6,106.1 95.4,104.5 96.2,102.8 97.0,101.1 97.8,99.5 98.6,97.8 99.4,96.2 100.2,94.5 101.0,92.9 101.8,91.2 102.6,89.6 103.5,88.0 104.3,86.4 105.1,84.7 105.9,83.1 106.7,81.6 107.5,80.0 108.3,78.4 109.1,76.9 109.9,75.3 110.7,73.8 111.5,72.3 112.3,70.8 113.1,69.4 113.9,67.9 114.7,66.5 115.5,65.0 116.3,63.6 117.1,62.3 117.9,60.9 118.7,59.6 119.5,58.3 120.3,57.0 121.1,55.7 121.9,54.4 122.7,53.2 123.5,52.0 124.4,50.8 125.2,49.7 126.0,48.6 126.8,47.5 127.6,46.4 128.4,45.4 129.2,44.3 130.0,43.3 130.8,42.4 131.6,41.4 132.4,40.5 133.2,39.7 134.0,38.8 134.8,38.0 135.6,37.2 136.4,36.5 137.2,35.7 138.0,35.0 138.8,34.4 139.6,33.7 140.4,33.2 141.2,32.6 142.0,32.0 142.8,31.5 143.6,31.1 144.5,30.6 145.3,30.2 146.1,29.9 146.9,29.5 147.7,29.2 148.5,29.0 149.3,28.7 150.1,28.5 150.9,28.3 151.7,28.2 152.5,28.1 153.3,28.0 154.1,28.0 154.9,28.0 155.7,28.0 156.5,28.1 157.3,28.2 158.1,28.3 158.9,28.5 159.7,28.7 160.5,29.0 161.3,29.2 162.1,29.5 162.9,29.9 163.7,30.2 164.5,30.6 165.4,31.1 166.2,31.5 167.0,32.0 167.8,32.6 168.6,33.2 169.4,33.7 170.2,34.4 171.0,35.0 171.8,35.7 172.6,36.5 173.4,37.2 174.2,38.0 175.0,38.8 175.8,39.7 176.6,40.5 177.4,41.4 178.2,42.4 179.0,43.3 179.8,44.3 180.6,45.4 181.4,46.4 182.2,47.5 183.0,48.6 183.8,49.7 184.6,50.8 185.5,52.0 186.3,53.2 187.1,54.4 187.9,55.7 188.7,57.0 189.5,58.3 190.3,59.6 191.1,60.9 191.9,62.3 192.7,63.6 193.5,65.0 194.3,66.5 195.1,67.9 195.9,69.4 196.7,70.8 197.5,72.3 198.3,73.8 199.1,75.3 199.9,76.9 200.7,78.4 201.5,80.0 202.3,81.6 203.1,83.1 203.9,84.7 204.7,86.4 205.5,88.0 206.4,89.6 207.2,91.2 208.0,92.9 208.8,94.5 209.6,96.2 210.4,97.8 211.2,99.5 212.0,101.1 212.8,102.8 213.6,104.5 214.4,106.1 215.2,107.8 216.0,109.5 216.8,111.1 217.6,112.8 218.4,114.4 219.2,116.1 220.0,117.7 220.8,119.4 221.6,121.0 222.4,122.6 223.2,124.2 224.0,125.8 224.8,127.4 225.6,128.9 226.5,130.5 227.3,132.0 228.1,133.5 228.9,135.0 229.7,136.5 230.5,138.0 231.3,139.4 232.1,140.8 232.9,142.2 233.7,143.6 234.5,144.9 235.3,146.2 236.1,147.5 236.9,148.7 237.7,149.9 238.5,151.1 239.3,152.3 240.1,153.4 240.9,154.5 241.7,155.5 242.5,156.5 243.3,157.5 244.1,158.4 244.9,159.2 245.7,160.1 246.5,160.8 247.4,161.6 248.2,162.2 249.0,162.9 249.8,163.4 250.6,164.0 251.4,164.4 252.2,164.8 253.0,165.2 253.8,165.5 254.6,165.7 255.4,165.9 256.2,166.0 257.0,166.0 L257.0,166.0 Z" fill="#4a90d9" fill-opacity="0.06"/>
  <polyline points="52.0,166.0 52.8,166.0 53.6,165.9 54.4,165.7 55.2,165.5 56.0,165.2 56.8,164.8 57.6,164.4 58.4,164.0 59.2,163.4 60.0,162.9 60.8,162.2 61.6,161.6 62.5,160.8 63.3,160.1 64.1,159.2 64.9,158.4 65.7,157.5 66.5,156.5 67.3,155.5 68.1,154.5 68.9,153.4 69.7,152.3 70.5,151.1 71.3,149.9 72.1,148.7 72.9,147.5 73.7,146.2 74.5,144.9 75.3,143.6 76.1,142.2 76.9,140.8 77.7,139.4 78.5,138.0 79.3,136.5 80.1,135.0 80.9,133.5 81.7,132.0 82.5,130.5 83.4,128.9 84.2,127.4 85.0,125.8 85.8,124.2 86.6,122.6 87.4,121.0 88.2,119.4 89.0,117.7 89.8,116.1 90.6,114.4 91.4,112.8 92.2,111.1 93.0,109.5 93.8,107.8 94.6,106.1 95.4,104.5 96.2,102.8 97.0,101.1 97.8,99.5 98.6,97.8 99.4,96.2 100.2,94.5 101.0,92.9 101.8,91.2 102.6,89.6 103.5,88.0 104.3,86.4 105.1,84.7 105.9,83.1 106.7,81.6 107.5,80.0 108.3,78.4 109.1,76.9 109.9,75.3 110.7,73.8 111.5,72.3 112.3,70.8 113.1,69.4 113.9,67.9 114.7,66.5 115.5,65.0 116.3,63.6 117.1,62.3 117.9,60.9 118.7,59.6 119.5,58.3 120.3,57.0 121.1,55.7 121.9,54.4 122.7,53.2 123.5,52.0 124.4,50.8 125.2,49.7 126.0,48.6 126.8,47.5 127.6,46.4 128.4,45.4 129.2,44.3 130.0,43.3 130.8,42.4 131.6,41.4 132.4,40.5 133.2,39.7 134.0,38.8 134.8,38.0 135.6,37.2 136.4,36.5 137.2,35.7 138.0,35.0 138.8,34.4 139.6,33.7 140.4,33.2 141.2,32.6 142.0,32.0 142.8,31.5 143.6,31.1 144.5,30.6 145.3,30.2 146.1,29.9 146.9,29.5 147.7,29.2 148.5,29.0 149.3,28.7 150.1,28.5 150.9,28.3 151.7,28.2 152.5,28.1 153.3,28.0 154.1,28.0 154.9,28.0 155.7,28.0 156.5,28.1 157.3,28.2 158.1,28.3 158.9,28.5 159.7,28.7 160.5,29.0 161.3,29.2 162.1,29.5 162.9,29.9 163.7,30.2 164.5,30.6 165.4,31.1 166.2,31.5 167.0,32.0 167.8,32.6 168.6,33.2 169.4,33.7 170.2,34.4 171.0,35.0 171.8,35.7 172.6,36.5 173.4,37.2 174.2,38.0 175.0,38.8 175.8,39.7 176.6,40.5 177.4,41.4 178.2,42.4 179.0,43.3 179.8,44.3 180.6,45.4 181.4,46.4 182.2,47.5 183.0,48.6 183.8,49.7 184.6,50.8 185.5,52.0 186.3,53.2 187.1,54.4 187.9,55.7 188.7,57.0 189.5,58.3 190.3,59.6 191.1,60.9 191.9,62.3 192.7,63.6 193.5,65.0 194.3,66.5 195.1,67.9 195.9,69.4 196.7,70.8 197.5,72.3 198.3,73.8 199.1,75.3 199.9,76.9 200.7,78.4 201.5,80.0 202.3,81.6 203.1,83.1 203.9,84.7 204.7,86.4 205.5,88.0 206.4,89.6 207.2,91.2 208.0,92.9 208.8,94.5 209.6,96.2 210.4,97.8 211.2,99.5 212.0,101.1 212.8,102.8 213.6,104.5 214.4,106.1 215.2,107.8 216.0,109.5 216.8,111.1 217.6,112.8 218.4,114.4 219.2,116.1 220.0,117.7 220.8,119.4 221.6,121.0 222.4,122.6 223.2,124.2 224.0,125.8 224.8,127.4 225.6,128.9 226.5,130.5 227.3,132.0 228.1,133.5 228.9,135.0 229.7,136.5 230.5,138.0 231.3,139.4 232.1,140.8 232.9,142.2 233.7,143.6 234.5,144.9 235.3,146.2 236.1,147.5 236.9,148.7 237.7,149.9 238.5,151.1 239.3,152.3 240.1,153.4 240.9,154.5 241.7,155.5 242.5,156.5 243.3,157.5 244.1,158.4 244.9,159.2 245.7,160.1 246.5,160.8 247.4,161.6 248.2,162.2 249.0,162.9 249.8,163.4 250.6,164.0 251.4,164.4 252.2,164.8 253.0,165.2 253.8,165.5 254.6,165.7 255.4,165.9 256.2,166.0 257.0,166.0" fill="none" stroke="#4a90d9" stroke-width="1.2" stroke-linejoin="round"/>
  <line x1="322" y1="28.0" x2="527" y2="28.0" stroke="#e5e7eb" stroke-width="0.5"/>
  <text x="318" y="31.0" text-anchor="end" font-size="7.5" fill="#6b7280">0</text>
  <line x1="322" y1="74.0" x2="527" y2="74.0" stroke="#e5e7eb" stroke-width="0.5"/>
  <text x="318" y="77.0" text-anchor="end" font-size="7.5" fill="#6b7280">-40</text>
  <line x1="322" y1="120.0" x2="527" y2="120.0" stroke="#e5e7eb" stroke-width="0.5"/>
  <text x="318" y="123.0" text-anchor="end" font-size="7.5" fill="#6b7280">-80</text>
  <line x1="322" y1="166.0" x2="527" y2="166.0" stroke="#e5e7eb" stroke-width="0.5"/>
  <text x="318" y="169.0" text-anchor="end" font-size="7.5" fill="#6b7280">-120</text>
  <line x1="322.0" y1="28" x2="322.0" y2="166" stroke="#e5e7eb" stroke-width="0.5"/>
  <text x="322.0" y="178" text-anchor="middle" font-size="7.5" fill="#6b7280">0</text>
  <line x1="363.0" y1="28" x2="363.0" y2="166" stroke="#e5e7eb" stroke-width="0.5"/>
  <text x="363.0" y="178" text-anchor="middle" font-size="7.5" fill="#6b7280">0.1</text>
  <line x1="404.0" y1="28" x2="404.0" y2="166" stroke="#e5e7eb" stroke-width="0.5"/>
  <text x="404.0" y="178" text-anchor="middle" font-size="7.5" fill="#6b7280">0.2</text>
  <line x1="445.0" y1="28" x2="445.0" y2="166" stroke="#e5e7eb" stroke-width="0.5"/>
  <text x="445.0" y="178" text-anchor="middle" font-size="7.5" fill="#6b7280">0.3</text>
  <line x1="486.0" y1="28" x2="486.0" y2="166" stroke="#e5e7eb" stroke-width="0.5"/>
  <text x="486.0" y="178" text-anchor="middle" font-size="7.5" fill="#6b7280">0.4</text>
  <line x1="527.0" y1="28" x2="527.0" y2="166" stroke="#e5e7eb" stroke-width="0.5"/>
  <text x="527.0" y="178" text-anchor="middle" font-size="7.5" fill="#6b7280">0.5</text>
  <line x1="322" y1="28" x2="322" y2="166" stroke="#d1d5db" stroke-width="0.75"/>
  <line x1="322" y1="166" x2="527" y2="166" stroke="#d1d5db" stroke-width="0.75"/>
  <polyline points="322.0,28.0 322.1,28.0 322.2,28.1 322.3,28.2 322.4,28.4 322.5,28.7 322.6,29.0 322.7,29.4 322.8,29.8 322.9,30.3 323.0,30.8 323.1,31.4 323.2,32.1 323.3,32.9 323.4,33.7 323.5,34.6 323.6,35.6 323.7,36.8 323.8,38.0 323.9,39.3 324.0,40.8 324.1,42.4 324.2,44.2 324.3,46.3 324.4,48.6 324.5,51.3 324.6,54.6 324.7,58.9 324.8,64.9 324.9,77.3 325.0,77.1 325.1,67.6 325.2,63.7 325.3,61.7 325.4,60.5 325.5,60.0 325.6,59.9 325.7,60.2 325.8,60.8 325.9,61.7 326.0,63.0 326.1,64.6 326.2,66.7 326.3,69.5 326.4,73.1 326.5,78.7 326.6,90.2 326.7,90.9 326.8,80.6 326.9,76.4 327.0,74.0 327.1,72.6 327.2,71.8 327.3,71.5 327.4,71.6 327.5,72.0 327.6,72.8 327.7,74.0 327.8,75.6 327.9,77.8 328.0,80.7 328.1,84.9 328.2,92.1 328.3,143.2 328.4,93.2 328.5,86.9 328.6,83.6 328.7,81.6 328.8,80.4 328.9,79.8 329.0,79.5 329.1,79.7 329.2,80.3 329.3,81.2 329.4,82.5 329.5,84.4 329.6,86.9 329.7,90.5 329.8,96.3 329.9,110.6 330.0,103.7 330.1,95.1 330.2,91.1 330.3,88.7 330.4,87.2 330.5,86.3 330.6,85.9 330.7,85.9 330.8,86.2 330.9,87.0 331.0,88.1 331.1,89.8 331.2,92.0 331.3,95.3 331.4,100.3 331.5,110.7 331.6,113.3 331.7,101.9 331.8,97.2 331.9,94.5 332.0,92.8 332.1,91.7 332.2,91.1 332.3,91.0 332.4,91.2 332.5,91.8 332.6,92.8 332.7,94.3 332.8,96.4 332.9,99.4 333.0,103.9 333.1,112.6 333.2,123.1 333.3,107.8 333.4,102.5 333.5,99.4 333.6,97.5 333.7,96.3 333.8,95.6 333.9,95.4 334.0,95.5 334.1,96.0 334.2,96.9 334.3,98.3 334.4,100.2 334.5,103.0 334.6,107.2 334.7,114.8 334.8,135.7 334.9,113.0 335.0,107.1 335.1,103.7 335.2,101.7 335.3,100.3 335.4,99.5 335.5,99.2 335.6,99.2 335.7,99.7 335.8,100.5 335.9,101.8 336.0,103.6 336.1,106.2 336.2,110.1 336.3,117.0 336.4,156.3 336.5,117.8 336.6,111.1 336.7,107.6 336.8,105.3 336.9,103.9 337.0,103.0 337.1,102.6 337.2,102.6 337.3,102.9 337.4,103.7 337.5,104.9 337.6,106.6 337.7,109.1 337.8,112.8 337.9,119.1 338.0,140.3 338.1,122.2 338.2,114.8 338.3,111.0 338.4,108.7 338.5,107.1 338.6,106.2 338.7,105.7 338.8,105.6 338.9,105.9 339.0,106.6 339.1,107.7 339.2,109.3 339.3,111.7 339.4,115.2 339.5,121.0 339.6,137.3 339.7,126.3 339.8,118.2 339.9,114.2 340.0,111.7 340.1,110.0 340.2,109.0 340.3,108.5 340.4,108.3 340.5,108.6 340.6,109.2 340.7,110.3 340.8,111.8 340.9,114.1 341.0,117.4 341.1,122.9 341.2,136.5 341.3,130.3 341.4,121.4 341.5,117.1 341.6,114.4 341.7,112.7 341.8,111.6 341.9,111.0 342.0,110.8 342.1,111.0 342.2,111.6 342.3,112.6 342.4,114.1 342.5,116.3 342.6,119.5 342.7,124.7 342.8,136.5 342.9,134.3 343.0,124.3 343.1,119.8 343.2,117.0 343.3,115.2 343.4,114.1 343.5,113.4 343.6,113.2 343.7,113.3 343.8,113.8 343.9,114.8 344.0,116.2 344.1,118.3 344.2,121.4 344.3,126.3 344.4,136.9 344.5,138.2 344.6,127.1 344.7,122.3 344.8,119.4 344.9,117.5 345.0,116.3 345.1,115.6 345.2,115.3 345.3,115.4 345.4,115.9 345.5,116.8 345.6,118.2 345.7,120.2 345.8,123.2 345.9,127.8 346.0,137.5 346.1,142.3 346.2,129.7 346.3,124.6 346.4,121.6 346.5,119.7 346.6,118.4 346.7,117.7 346.8,117.3 346.9,117.4 347.0,117.9 347.1,118.7 347.2,120.0 347.3,122.0 347.4,124.8 347.5,129.3 347.6,138.1 347.7,146.6 347.8,132.2 347.9,126.9 348.0,123.8 348.1,121.7 348.2,120.4 348.3,119.6 348.4,119.2 348.5,119.3 348.6,119.7 348.7,120.5 348.8,121.8 348.9,123.7 349.0,126.4 349.1,130.7 349.2,138.9 349.3,151.5 349.4,134.7 349.5,129.0 349.6,125.8 349.7,123.7 349.8,122.3 349.9,121.4 350.0,121.0 350.1,121.0 350.2,121.4 350.3,122.2 350.4,123.4 350.5,125.2 350.6,127.9 350.7,132.0 350.8,139.6 350.9,157.6 351.0,137.0 351.1,131.0 351.2,127.7 351.3,125.5 351.4,124.1 351.5,123.2 351.6,122.7 351.7,122.7 351.8,123.0 351.9,123.7 352.0,124.9 352.1,126.7 352.2,129.3 352.3,133.2 352.4,140.4 352.5,166.0 352.6,139.3 352.7,133.0 352.8,129.5 352.9,127.2 353.0,125.7 353.1,124.8 353.2,124.3 353.3,124.2 353.4,124.5 353.5,125.2 353.6,126.4 353.7,128.1 353.8,130.6 353.9,134.4 354.0,141.2 354.1,166.0 354.2,141.6 354.3,134.9 354.4,131.2 354.5,128.9 354.6,127.4 354.7,126.4 354.8,125.9 354.9,125.7 355.0,126.0 355.1,126.7 355.2,127.8 355.3,129.4 355.4,131.9 355.5,135.5 355.6,141.9 355.7,166.0 355.8,143.8 355.9,136.7 356.0,132.9 356.1,130.5 356.3,128.9 356.4,127.9 356.5,127.3 356.6,127.2 356.7,127.4 356.8,128.0 356.9,129.1 357.0,130.7 357.1,133.1 357.2,136.6 357.3,142.7 357.4,162.6 357.5,146.0 357.6,138.4 357.7,134.5 357.8,132.0 357.9,130.4 358.0,129.3 358.1,128.7 358.2,128.5 358.3,128.7 358.4,129.3 358.5,130.4 358.6,131.9 358.7,134.2 358.8,137.6 358.9,143.4 359.0,160.1 359.1,148.2 359.2,140.1 359.3,136.0 359.4,133.5 359.5,131.8 359.6,130.7 359.7,130.1 359.8,129.8 359.9,130.0 360.0,130.6 360.1,131.6 360.2,133.1 360.3,135.3 360.4,138.6 360.5,144.1 360.6,158.7 360.7,150.5 360.8,141.8 360.9,137.5 361.0,134.9 361.1,133.1 361.2,132.0 361.3,131.3 361.4,131.1 361.5,131.2 361.6,131.8 361.7,132.7 361.8,134.2 361.9,136.3 362.0,139.6 362.1,144.9 362.2,157.8 362.3,152.7 362.4,143.4 362.5,139.0 362.6,136.3 362.7,134.4 362.8,133.3 362.9,132.6 363.0,132.3 363.1,132.4 363.2,132.9 363.3,133.8 363.4,135.3 363.5,137.3 363.6,140.5 363.7,145.5 363.8,157.3 363.9,155.1 364.0,145.0 364.1,140.4 364.2,137.6 364.3,135.7 364.4,134.5 364.5,133.8 364.6,133.5 364.7,133.5 364.8,134.0 364.9,134.9 365.0,136.3 365.1,138.3 365.2,141.3 365.3,146.2 365.4,157.0 365.5,157.6 365.6,146.6 365.7,141.8 365.8,138.9 365.9,136.9 366.0,135.7 366.1,134.9 366.2,134.6 366.3,134.6 366.4,135.1 366.5,135.9 366.6,137.3 366.7,139.3 366.8,142.2 366.9,146.9 367.0,156.8 367.1,160.2 367.2,148.1 367.3,143.1 367.4,140.1 367.5,138.1 367.6,136.8 367.7,136.0 367.8,135.7 367.9,135.7 368.0,136.1 368.1,136.9 368.2,138.2 368.3,140.2 368.4,143.0 368.5,147.5 368.6,156.7 368.7,163.0 368.8,149.7 368.9,144.4 369.0,141.3 369.1,139.3 369.2,137.9 369.3,137.1 369.4,136.7 369.5,136.7 369.6,137.1 369.7,137.9 369.8,139.1 369.9,141.0 370.0,143.8 370.1,148.1 370.2,156.8 370.3,166.0 370.4,151.2 370.5,145.7 370.6,142.5 370.7,140.4 370.8,139.0 370.9,138.2 371.0,137.7 371.1,137.7 371.2,138.0 371.3,138.8 371.4,140.0 371.5,141.9 371.6,144.6 371.7,148.8 371.8,156.8 371.9,166.0 372.0,152.7 372.1,147.0 372.2,143.7 372.3,141.5 372.4,140.1 372.5,139.2 372.6,138.7 372.7,138.7 372.8,139.0 372.9,139.7 373.0,140.9 373.1,142.7 373.2,145.3 373.3,149.4 373.4,157.0 373.5,166.0 373.6,154.2 373.7,148.2 373.8,144.8 373.9,142.6 374.0,141.1 374.1,140.2 374.2,139.7 374.3,139.6 374.4,139.9 374.5,140.6 374.6,141.7 374.7,143.5 374.8,146.0 374.9,149.9 375.0,157.2 375.1,166.0 375.2,155.7 375.3,149.4 375.4,145.9 375.5,143.6 375.6,142.1 375.7,141.1 375.8,140.6 375.9,140.5 376.0,140.8 376.1,141.4 376.2,142.5 376.3,144.2 376.4,146.7 376.5,150.5 376.6,157.4 376.7,166.0 376.8,157.3 376.9,150.6 377.0,147.0 377.1,144.6 377.2,143.1 377.3,142.1 377.4,141.5 377.5,141.4 377.6,141.6 377.7,142.2 377.8,143.3 377.9,145.0 378.0,147.4 378.1,151.1 378.2,157.6 378.3,166.0 378.4,158.8 378.5,151.8 378.6,148.0 378.7,145.6 378.8,144.0 378.9,143.0 379.0,142.4 379.1,142.2 379.2,142.4 379.3,143.1 379.4,144.1 379.5,145.7 379.6,148.1 379.7,151.6 379.8,157.8 379.9,166.0 380.0,160.4 380.1,153.0 380.2,149.1 380.3,146.6 380.4,144.9 380.5,143.9 380.6,143.3 380.7,143.1 380.8,143.3 380.9,143.8 381.0,144.8 381.1,146.4 381.2,148.7 381.3,152.2 381.4,158.1 381.5,166.0 381.6,162.0 381.7,154.2 381.8,150.1 381.9,147.6 382.0,145.9 382.1,144.7 382.2,144.1 382.3,143.9 382.4,144.0 382.5,144.6 382.6,145.6 382.7,147.1 382.8,149.3 382.9,152.7 383.0,158.4 383.1,166.0 383.2,163.6 383.3,155.3 383.4,151.1 383.5,148.5 383.6,146.7 383.7,145.6 383.8,144.9 383.9,144.7 384.0,144.8 384.1,145.3 384.2,146.3 384.3,147.8 384.4,149.9 384.5,153.2 384.6,158.6 384.7,166.0 384.8,165.3 384.9,156.5 385.0,152.1 385.1,149.4 385.2,147.6 385.3,146.4 385.4,145.7 385.5,145.5 385.6,145.6 385.7,146.1 385.8,147.0 385.9,148.4 386.0,150.5 386.1,153.7 386.2,158.9 386.3,166.0 386.4,166.0 386.5,157.6 386.6,153.1 386.7,150.3 386.8,148.5 386.9,147.3 387.0,146.5 387.1,146.2 387.2,146.3 387.3,146.8 387.4,147.7 387.5,149.1 387.6,151.1 387.7,154.2 387.8,159.2 387.9,166.0 388.0,166.0 388.1,158.7 388.2,154.1 388.3,151.2 388.4,149.3 388.5,148.1 388.6,147.3 388.7,147.0 388.8,147.0 388.9,147.5 389.0,148.3 389.1,149.7 389.2,151.7 389.3,154.7 389.4,159.5 389.5,166.0 389.6,166.0 389.7,159.9 389.8,155.0 389.9,152.1 390.0,150.1 390.1,148.8 390.2,148.1 390.3,147.7 390.4,147.7 390.5,148.1 390.6,149.0 390.7,150.3 390.8,152.2 390.9,155.1 391.0,159.8 391.1,166.0 391.2,166.0 391.3,161.0 391.4,156.0 391.5,152.9 391.6,150.9 391.7,149.6 391.8,148.8 391.9,148.4 392.0,148.4 392.1,148.8 392.2,149.6 392.3,150.9 392.4,152.8 392.5,155.6 392.6,160.1 392.7,166.0 392.8,166.0 392.9,162.2 393.0,156.9 393.1,153.8 393.2,151.7 393.3,150.4 393.4,149.5 393.5,149.1 393.6,149.1 393.7,149.4 393.8,150.2 393.9,151.5 394.0,153.3 394.1,156.1 394.2,160.4 394.3,166.0 394.4,166.0 394.5,163.3 394.6,157.9 394.7,154.6 394.8,152.5 394.9,151.1 395.0,150.2 395.1,149.8 395.2,149.7 395.3,150.1 395.4,150.8 395.5,152.0 395.6,153.8 395.7,156.5 395.8,160.7 395.9,166.0 396.0,166.0 396.1,164.5 396.2,158.8 396.3,155.5 396.4,153.3 396.5,151.9 396.6,150.9 396.7,150.5 396.8,150.4 396.9,150.7 397.0,151.4 397.1,152.6 397.2,154.4 397.3,157.0 397.4,161.0 397.5,166.0 397.6,166.0 397.7,165.7 397.8,159.7 397.9,156.3 398.0,154.1 398.1,152.6 398.2,151.6 398.3,151.1 398.4,151.0 398.5,151.3 398.6,152.0 398.7,153.1 398.8,154.9 398.9,157.4 399.0,161.3 399.1,166.0 399.2,166.0 399.3,166.0 399.4,160.6 399.5,157.1 399.6,154.8 399.7,153.3 399.8,152.3 399.9,151.8 400.0,151.7 400.1,151.9 400.2,152.6 400.3,153.7 400.4,155.4 400.5,157.8 400.6,161.7 400.7,166.0 400.8,166.0 400.9,166.0 401.0,161.6 401.1,157.9 401.2,155.6 401.3,154.0 401.4,153.0 401.5,152.4 401.6,152.3 401.7,152.5 401.8,153.1 401.9,154.2 402.0,155.9 402.1,158.3 402.2,162.0 402.3,166.0 402.4,166.0 402.5,166.0 402.6,162.5 402.7,158.7 402.8,156.3 402.9,154.7 403.0,153.7 403.1,153.1 403.2,152.9 403.3,153.1 403.4,153.7 403.5,154.7 403.6,156.3 403.7,158.7 403.8,162.3 403.9,166.0 404.0,166.0 404.1,166.0 404.2,163.4 404.3,159.5 404.4,157.0 404.5,155.4 404.6,154.3 404.7,153.7 404.8,153.5 404.9,153.7 405.0,154.2 405.1,155.3 405.2,156.8 405.3,159.1 405.4,162.6 405.5,166.0 405.6,166.0 405.7,166.0 405.8,164.3 405.9,160.3 406.0,157.8 406.1,156.1 406.2,154.9 406.3,154.3 406.4,154.1 406.5,154.2 406.6,154.8 406.7,155.8 406.8,157.3 406.9,159.5 407.0,162.9 407.1,166.0 407.2,166.0 407.3,166.0 407.4,165.2 407.5,161.1 407.6,158.5 407.7,156.7 407.8,155.6 407.9,154.9 408.0,154.7 408.1,154.8 408.2,155.3 408.3,156.3 408.4,157.7 408.5,159.9 408.6,163.2 408.7,166.0 408.8,166.0 408.9,166.0 409.0,166.0 409.1,161.9 409.2,159.2 409.3,157.4 409.4,156.2 409.5,155.5 409.6,155.2 409.7,155.3 409.8,155.8 409.9,156.7 410.0,158.2 410.1,160.3 410.2,163.5 410.3,166.0 410.4,166.0 410.5,166.0 410.6,166.0 410.7,162.6 410.8,159.9 410.9,158.0 411.0,156.8 411.1,156.1 411.2,155.8 411.3,155.9 411.4,156.3 411.5,157.2 411.6,158.6 411.7,160.7 411.8,163.8 411.9,166.0 412.0,166.0 412.1,166.0 412.2,166.0 412.3,163.4 412.4,160.6 412.5,158.7 412.6,157.4 412.7,156.7 412.8,156.4 412.9,156.4 413.0,156.8 413.1,157.7 413.2,159.1 413.3,161.1 413.4,164.1 413.5,166.0 413.6,166.0 413.7,166.0 413.8,166.0 413.9,164.2 414.0,161.3 414.1,159.3 414.2,158.0 414.3,157.3 414.4,156.9 414.5,156.9 414.6,157.3 414.7,158.2 414.8,159.5 414.9,161.5 415.0,164.4 415.1,166.0 415.2,166.0 415.3,166.0 415.4,166.0 415.5,165.0 415.6,162.0 415.7,160.0 415.8,158.6 415.9,157.8 416.0,157.4 416.1,157.4 416.2,157.8 416.3,158.6 416.4,159.9 416.5,161.9 416.6,164.7 416.7,166.0 416.8,166.0 416.9,166.0 417.0,166.0 417.1,165.7 417.2,162.6 417.3,160.6 417.4,159.2 417.5,158.4 417.6,158.0 417.7,158.0 417.8,158.3 417.9,159.1 418.0,160.4 418.1,162.2 418.2,165.0 418.3,166.0 418.4,166.0 418.5,166.0 418.6,166.0 418.7,166.0 418.8,163.3 418.9,161.2 419.0,159.8 419.1,159.0 419.2,158.5 419.3,158.5 419.4,158.8 419.5,159.5 419.6,160.8 419.7,162.6 419.8,165.3 419.9,166.0 420.0,166.0 420.1,166.0 420.2,166.0 420.3,166.0 420.4,164.0 420.5,161.8 420.6,160.4 420.7,159.5 420.8,159.0 420.9,159.0 421.0,159.3 421.1,160.0 421.2,161.2 421.3,163.0 421.4,165.6 421.5,166.0 421.6,166.0 421.7,166.0 421.8,166.0 421.9,166.0 422.0,164.7 422.1,162.5 422.2,161.0 422.3,160.1 422.4,159.6 422.5,159.5 422.6,159.7 422.7,160.4 422.8,161.6 422.9,163.3 423.0,165.9 423.1,166.0 423.2,166.0 423.3,166.0 423.4,166.0 423.5,166.0 423.6,165.3 423.7,163.1 423.8,161.6 423.9,160.6 424.0,160.1 424.1,160.0 424.2,160.2 424.3,160.9 424.4,162.0 424.6,163.7 424.7,166.0 424.8,166.0 424.9,166.0 425.0,166.0 425.1,166.0 425.2,166.0 425.3,166.0 425.4,163.7 425.5,162.1 425.6,161.1 425.7,160.6 425.8,160.4 425.9,160.7 426.0,161.3 426.1,162.4 426.2,164.1 426.3,166.0 426.4,166.0 426.5,166.0 426.6,166.0 426.7,166.0 426.8,166.0 426.9,166.0 427.0,164.3 427.1,162.7 427.2,161.7 427.3,161.1 427.4,160.9 427.5,161.1 427.6,161.7 427.7,162.8 427.8,164.4 427.9,166.0 428.0,166.0 428.1,166.0 428.2,166.0 428.3,166.0 428.4,166.0 428.5,166.0 428.6,164.9 428.7,163.3 428.8,162.2 428.9,161.6 429.0,161.4 429.1,161.6 429.2,162.2 429.3,163.2 429.4,164.8 429.5,166.0 429.6,166.0 429.7,166.0 429.8,166.0 429.9,166.0 430.0,166.0 430.1,166.0 430.2,165.5 430.3,163.8 430.4,162.7 430.5,162.1 430.6,161.9 430.7,162.0 430.8,162.6 430.9,163.6 431.0,165.1 431.1,166.0 431.2,166.0 431.3,166.0 431.4,166.0 431.5,166.0 431.6,166.0 431.7,166.0 431.8,166.0 431.9,164.4 432.0,163.3 432.1,162.6 432.2,162.4 432.3,162.5 432.4,163.0 432.5,164.0 432.6,165.5 432.7,166.0 432.8,166.0 432.9,166.0 433.0,166.0 433.1,166.0 433.2,166.0 433.3,166.0 433.4,166.0 433.5,164.9 433.6,163.8 433.7,163.1 433.8,162.8 433.9,162.9 434.0,163.4 434.1,164.4 434.2,165.8 434.3,166.0 434.4,166.0 434.5,166.0 434.6,166.0 434.7,166.0 434.8,166.0 434.9,166.0 435.0,166.0 435.1,165.5 435.2,164.3 435.3,163.6 435.4,163.3 435.5,163.4 435.6,163.9 435.7,164.8 435.8,166.0 435.9,166.0 436.0,166.0 436.1,166.0 436.2,166.0 436.3,166.0 436.4,166.0 436.5,166.0 436.6,166.0 436.7,166.0 436.8,164.8 436.9,164.1 437.0,163.8 437.1,163.8 437.2,164.3 437.3,165.1 437.4,166.0 437.5,166.0 437.6,166.0 437.7,166.0 437.8,166.0 437.9,166.0 438.0,166.0 438.1,166.0 438.2,166.0 438.3,166.0 438.4,165.3 438.5,164.6 438.6,164.2 438.7,164.2 438.8,164.7 438.9,165.5 439.0,166.0 439.1,166.0 439.2,166.0 439.3,166.0 439.4,166.0 439.5,166.0 439.6,166.0 439.7,166.0 439.8,166.0 439.9,166.0 440.0,165.8 440.1,165.0 440.2,164.7 440.3,164.7 440.4,165.1 440.5,165.9 440.6,166.0 440.7,166.0 440.8,166.0 440.9,166.0 441.0,166.0 441.1,166.0 441.2,166.0 441.3,166.0 441.4,166.0 441.5,166.0 441.6,166.0 441.7,165.5 441.8,165.1 441.9,165.1 442.0,165.5 442.1,166.0 442.2,166.0 442.3,166.0 442.4,166.0 442.5,166.0 442.6,166.0 442.7,166.0 442.8,166.0 442.9,166.0 443.0,166.0 443.1,166.0 443.2,166.0 443.3,166.0 443.4,165.6 443.5,165.5 443.6,165.9 443.7,166.0 443.8,166.0 443.9,166.0 444.0,166.0 444.1,166.0 444.2,166.0 444.3,166.0 444.4,166.0 444.5,166.0 444.6,166.0 444.7,166.0 444.8,166.0 444.9,166.0 445.0,166.0 445.1,166.0 445.2,166.0 445.3,166.0 445.4,166.0 445.5,166.0 445.6,166.0 445.7,166.0 445.8,166.0 445.9,166.0 446.0,166.0 446.1,166.0 446.2,166.0 446.3,166.0 446.4,166.0 446.5,166.0 446.6,166.0 446.7,166.0 446.8,166.0 446.9,166.0 447.0,166.0 447.1,166.0 447.2,166.0 447.3,166.0 447.4,166.0 447.5,166.0 447.6,166.0 447.7,166.0 447.8,166.0 447.9,166.0 448.0,166.0 448.1,166.0 448.2,166.0 448.3,166.0 448.4,166.0 448.5,166.0 448.6,166.0 448.7,166.0 448.8,166.0 448.9,166.0 449.0,166.0 449.1,166.0 449.2,166.0 449.3,166.0 449.4,166.0 449.5,166.0 449.6,166.0 449.7,166.0 449.8,166.0 449.9,166.0 450.0,166.0 450.1,166.0 450.2,166.0 450.3,166.0 450.4,166.0 450.5,166.0 450.6,166.0 450.7,166.0 450.8,166.0 450.9,166.0 451.0,166.0 451.1,166.0 451.2,166.0 451.3,166.0 451.4,166.0 451.5,166.0 451.6,166.0 451.7,166.0 451.8,166.0 451.9,166.0 452.0,166.0 452.1,166.0 452.2,166.0 452.3,166.0 452.4,166.0 452.5,166.0 452.6,166.0 452.7,166.0 452.8,166.0 452.9,166.0 453.0,166.0 453.1,166.0 453.2,166.0 453.3,166.0 453.4,166.0 453.5,166.0 453.6,166.0 453.7,166.0 453.8,166.0 453.9,166.0 454.0,166.0 454.1,166.0 454.2,166.0 454.3,166.0 454.4,166.0 454.5,166.0 454.6,166.0 454.7,166.0 454.8,166.0 454.9,166.0 455.0,166.0 455.1,166.0 455.2,166.0 455.3,166.0 455.4,166.0 455.5,166.0 455.6,166.0 455.7,166.0 455.8,166.0 455.9,166.0 456.0,166.0 456.1,166.0 456.2,166.0 456.3,166.0 456.4,166.0 456.5,166.0 456.6,166.0 456.7,166.0 456.8,166.0 456.9,166.0 457.0,166.0 457.1,166.0 457.2,166.0 457.3,166.0 457.4,166.0 457.5,166.0 457.6,166.0 457.7,166.0 457.8,166.0 457.9,166.0 458.0,166.0 458.1,166.0 458.2,166.0 458.3,166.0 458.4,166.0 458.5,166.0 458.6,166.0 458.7,166.0 458.8,166.0 458.9,166.0 459.0,166.0 459.1,166.0 459.2,166.0 459.3,166.0 459.4,166.0 459.5,166.0 459.6,166.0 459.7,166.0 459.8,166.0 459.9,166.0 460.0,166.0 460.1,166.0 460.2,166.0 460.3,166.0 460.4,166.0 460.5,166.0 460.6,166.0 460.7,166.0 460.8,166.0 460.9,166.0 461.0,166.0 461.1,166.0 461.2,166.0 461.3,166.0 461.4,166.0 461.5,166.0 461.6,166.0 461.7,166.0 461.8,166.0 461.9,166.0 462.0,166.0 462.1,166.0 462.2,166.0 462.3,166.0 462.4,166.0 462.5,166.0 462.6,166.0 462.7,166.0 462.8,166.0 462.9,166.0 463.0,166.0 463.1,166.0 463.2,166.0 463.3,166.0 463.4,166.0 463.5,166.0 463.6,166.0 463.7,166.0 463.8,166.0 463.9,166.0 464.0,166.0 464.1,166.0 464.2,166.0 464.3,166.0 464.4,166.0 464.5,166.0 464.6,166.0 464.7,166.0 464.8,166.0 464.9,166.0 465.0,166.0 465.1,166.0 465.2,166.0 465.3,166.0 465.4,166.0 465.5,166.0 465.6,166.0 465.7,166.0 465.8,166.0 465.9,166.0 466.0,166.0 466.1,166.0 466.2,166.0 466.3,166.0 466.4,166.0 466.5,166.0 466.6,166.0 466.7,166.0 466.8,166.0 466.9,166.0 467.0,166.0 467.1,166.0 467.2,166.0 467.3,166.0 467.4,166.0 467.5,166.0 467.6,166.0 467.7,166.0 467.8,166.0 467.9,166.0 468.0,166.0 468.1,166.0 468.2,166.0 468.3,166.0 468.4,166.0 468.5,166.0 468.6,166.0 468.7,166.0 468.8,166.0 468.9,166.0 469.0,166.0 469.1,166.0 469.2,166.0 469.3,166.0 469.4,166.0 469.5,166.0 469.6,166.0 469.7,166.0 469.8,166.0 469.9,166.0 470.0,166.0 470.1,166.0 470.2,166.0 470.3,166.0 470.4,166.0 470.5,166.0 470.6,166.0 470.7,166.0 470.8,166.0 470.9,166.0 471.0,166.0 471.1,166.0 471.2,166.0 471.3,166.0 471.4,166.0 471.5,166.0 471.6,166.0 471.7,166.0 471.8,166.0 471.9,166.0 472.0,166.0 472.1,166.0 472.2,166.0 472.3,166.0 472.4,166.0 472.5,166.0 472.6,166.0 472.7,166.0 472.8,166.0 472.9,166.0 473.0,166.0 473.1,166.0 473.2,166.0 473.3,166.0 473.4,166.0 473.5,166.0 473.6,166.0 473.7,166.0 473.8,166.0 473.9,166.0 474.0,166.0 474.1,166.0 474.2,166.0 474.3,166.0 474.4,166.0 474.5,166.0 474.6,166.0 474.7,166.0 474.8,166.0 474.9,166.0 475.0,166.0 475.1,166.0 475.2,166.0 475.3,166.0 475.4,166.0 475.5,166.0 475.6,166.0 475.7,166.0 475.8,166.0 475.9,166.0 476.0,166.0 476.1,166.0 476.2,166.0 476.3,166.0 476.4,166.0 476.5,166.0 476.6,166.0 476.7,166.0 476.8,166.0 476.9,166.0 477.0,166.0 477.1,166.0 477.2,166.0 477.3,166.0 477.4,166.0 477.5,166.0 477.6,166.0 477.7,166.0 477.8,166.0 477.9,166.0 478.0,166.0 478.1,166.0 478.2,166.0 478.3,166.0 478.4,166.0 478.5,166.0 478.6,166.0 478.7,166.0 478.8,166.0 478.9,166.0 479.0,166.0 479.1,166.0 479.2,166.0 479.3,166.0 479.4,166.0 479.5,166.0 479.6,166.0 479.7,166.0 479.8,166.0 479.9,166.0 480.0,166.0 480.1,166.0 480.2,166.0 480.3,166.0 480.4,166.0 480.5,166.0 480.6,166.0 480.7,166.0 480.8,166.0 480.9,166.0 481.0,166.0 481.1,166.0 481.2,166.0 481.3,166.0 481.4,166.0 481.5,166.0 481.6,166.0 481.7,166.0 481.8,166.0 481.9,166.0 482.0,166.0 482.1,166.0 482.2,166.0 482.3,166.0 482.4,166.0 482.5,166.0 482.6,166.0 482.7,166.0 482.8,166.0 482.9,166.0 483.0,166.0 483.1,166.0 483.2,166.0 483.3,166.0 483.4,166.0 483.5,166.0 483.6,166.0 483.7,166.0 483.8,166.0 483.9,166.0 484.0,166.0 484.1,166.0 484.2,166.0 484.3,166.0 484.4,166.0 484.5,166.0 484.6,166.0 484.7,166.0 484.8,166.0 484.9,166.0 485.0,166.0 485.1,166.0 485.2,166.0 485.3,166.0 485.4,166.0 485.5,166.0 485.6,166.0 485.7,166.0 485.8,166.0 485.9,166.0 486.0,166.0 486.1,166.0 486.2,166.0 486.3,166.0 486.4,166.0 486.5,166.0 486.6,166.0 486.7,166.0 486.8,166.0 486.9,166.0 487.0,166.0 487.1,166.0 487.2,166.0 487.3,166.0 487.4,166.0 487.5,166.0 487.6,166.0 487.7,166.0 487.8,166.0 487.9,166.0 488.0,166.0 488.1,166.0 488.2,166.0 488.3,166.0 488.4,166.0 488.5,166.0 488.6,166.0 488.7,166.0 488.8,166.0 488.9,166.0 489.0,166.0 489.1,166.0 489.2,166.0 489.3,166.0 489.4,166.0 489.5,166.0 489.6,166.0 489.7,166.0 489.8,166.0 489.9,166.0 490.0,166.0 490.1,166.0 490.2,166.0 490.3,166.0 490.4,166.0 490.5,166.0 490.6,166.0 490.7,166.0 490.8,166.0 490.9,166.0 491.0,166.0 491.1,166.0 491.2,166.0 491.3,166.0 491.4,166.0 491.5,166.0 491.6,166.0 491.7,166.0 491.8,166.0 491.9,166.0 492.0,166.0 492.1,166.0 492.2,166.0 492.3,166.0 492.4,166.0 492.5,166.0 492.6,166.0 492.7,166.0 492.9,166.0 493.0,166.0 493.1,166.0 493.2,166.0 493.3,166.0 493.4,166.0 493.5,166.0 493.6,166.0 493.7,166.0 493.8,166.0 493.9,166.0 494.0,166.0 494.1,166.0 494.2,166.0 494.3,166.0 494.4,166.0 494.5,166.0 494.6,166.0 494.7,166.0 494.8,166.0 494.9,166.0 495.0,166.0 495.1,166.0 495.2,166.0 495.3,166.0 495.4,166.0 495.5,166.0 495.6,166.0 495.7,166.0 495.8,166.0 495.9,166.0 496.0,166.0 496.1,166.0 496.2,166.0 496.3,166.0 496.4,166.0 496.5,166.0 496.6,166.0 496.7,166.0 496.8,166.0 496.9,166.0 497.0,166.0 497.1,166.0 497.2,166.0 497.3,166.0 497.4,166.0 497.5,166.0 497.6,166.0 497.7,166.0 497.8,166.0 497.9,166.0 498.0,166.0 498.1,166.0 498.2,166.0 498.3,166.0 498.4,166.0 498.5,166.0 498.6,166.0 498.7,166.0 498.8,166.0 498.9,166.0 499.0,166.0 499.1,166.0 499.2,166.0 499.3,166.0 499.4,166.0 499.5,166.0 499.6,166.0 499.7,166.0 499.8,166.0 499.9,166.0 500.0,166.0 500.1,166.0 500.2,166.0 500.3,166.0 500.4,166.0 500.5,166.0 500.6,166.0 500.7,166.0 500.8,166.0 500.9,166.0 501.0,166.0 501.1,166.0 501.2,166.0 501.3,166.0 501.4,166.0 501.5,166.0 501.6,166.0 501.7,166.0 501.8,166.0 501.9,166.0 502.0,166.0 502.1,166.0 502.2,166.0 502.3,166.0 502.4,166.0 502.5,166.0 502.6,166.0 502.7,166.0 502.8,166.0 502.9,166.0 503.0,166.0 503.1,166.0 503.2,166.0 503.3,166.0 503.4,166.0 503.5,166.0 503.6,166.0 503.7,166.0 503.8,166.0 503.9,166.0 504.0,166.0 504.1,166.0 504.2,166.0 504.3,166.0 504.4,166.0 504.5,166.0 504.6,166.0 504.7,166.0 504.8,166.0 504.9,166.0 505.0,166.0 505.1,166.0 505.2,166.0 505.3,166.0 505.4,166.0 505.5,166.0 505.6,166.0 505.7,166.0 505.8,166.0 505.9,166.0 506.0,166.0 506.1,166.0 506.2,166.0 506.3,166.0 506.4,166.0 506.5,166.0 506.6,166.0 506.7,166.0 506.8,166.0 506.9,166.0 507.0,166.0 507.1,166.0 507.2,166.0 507.3,166.0 507.4,166.0 507.5,166.0 507.6,166.0 507.7,166.0 507.8,166.0 507.9,166.0 508.0,166.0 508.1,166.0 508.2,166.0 508.3,166.0 508.4,166.0 508.5,166.0 508.6,166.0 508.7,166.0 508.8,166.0 508.9,166.0 509.0,166.0 509.1,166.0 509.2,166.0 509.3,166.0 509.4,166.0 509.5,166.0 509.6,166.0 509.7,166.0 509.8,166.0 509.9,166.0 510.0,166.0 510.1,166.0 510.2,166.0 510.3,166.0 510.4,166.0 510.5,166.0 510.6,166.0 510.7,166.0 510.8,166.0 510.9,166.0 511.0,166.0 511.1,166.0 511.2,166.0 511.3,166.0 511.4,166.0 511.5,166.0 511.6,166.0 511.7,166.0 511.8,166.0 511.9,166.0 512.0,166.0 512.1,166.0 512.2,166.0 512.3,166.0 512.4,166.0 512.5,166.0 512.6,166.0 512.7,166.0 512.8,166.0 512.9,166.0 513.0,166.0 513.1,166.0 513.2,166.0 513.3,166.0 513.4,166.0 513.5,166.0 513.6,166.0 513.7,166.0 513.8,166.0 513.9,166.0 514.0,166.0 514.1,166.0 514.2,166.0 514.3,166.0 514.4,166.0 514.5,166.0 514.6,166.0 514.7,166.0 514.8,166.0 514.9,166.0 515.0,166.0 515.1,166.0 515.2,166.0 515.3,166.0 515.4,166.0 515.5,166.0 515.6,166.0 515.7,166.0 515.8,166.0 515.9,166.0 516.0,166.0 516.1,166.0 516.2,166.0 516.3,166.0 516.4,166.0 516.5,166.0 516.6,166.0 516.7,166.0 516.8,166.0 516.9,166.0 517.0,166.0 517.1,166.0 517.2,166.0 517.3,166.0 517.4,166.0 517.5,166.0 517.6,166.0 517.7,166.0 517.8,166.0 517.9,166.0 518.0,166.0 518.1,166.0 518.2,166.0 518.3,166.0 518.4,166.0 518.5,166.0 518.6,166.0 518.7,166.0 518.8,166.0 518.9,166.0 519.0,166.0 519.1,166.0 519.2,166.0 519.3,166.0 519.4,166.0 519.5,166.0 519.6,166.0 519.7,166.0 519.8,166.0 519.9,166.0 520.0,166.0 520.1,166.0 520.2,166.0 520.3,166.0 520.4,166.0 520.5,166.0 520.6,166.0 520.7,166.0 520.8,166.0 520.9,166.0 521.0,166.0 521.1,166.0 521.2,166.0 521.3,166.0 521.4,166.0 521.5,166.0 521.6,166.0 521.7,166.0 521.8,166.0 521.9,166.0 522.0,166.0 522.1,166.0 522.2,166.0 522.3,166.0 522.4,166.0 522.5,166.0 522.6,166.0 522.7,166.0 522.8,166.0 522.9,166.0 523.0,166.0 523.1,166.0 523.2,166.0 523.3,166.0 523.4,166.0 523.5,166.0 523.6,166.0 523.7,166.0 523.8,166.0 523.9,166.0 524.0,166.0 524.1,166.0 524.2,166.0 524.3,166.0 524.4,166.0 524.5,166.0 524.6,166.0 524.7,166.0 524.8,166.0 524.9,166.0 525.0,166.0 525.1,166.0 525.2,166.0 525.3,166.0 525.4,166.0 525.5,166.0 525.6,166.0 525.7,166.0 525.8,166.0 525.9,166.0 526.0,166.0 526.1,166.0 526.2,166.0 526.3,166.0 526.4,166.0 526.5,166.0 526.6,166.0 526.7,166.0 526.8,166.0 526.9,166.0 527.0,166.0" fill="none" stroke="#4a90d9" stroke-width="1.2" stroke-linejoin="round"/>
  <text x="154.5" y="190" text-anchor="middle" font-size="8" fill="#6b7280">n / N</text>
  <text x="424.5" y="190" text-anchor="middle" font-size="8" fill="#6b7280">Normalized frequency (× Fₛ)</text>
</svg>
