<svg xmlns="http://www.w3.org/2000/svg" viewBox="0 0 800 230" style="font-family:system-ui,-apple-system,sans-serif">
  <line x1="42" y1="182.0" x2="377" y2="182.0" stroke="#e5e7eb" stroke-width="0.7"/>
  <text x="37" y="186.0" text-anchor="end" font-size="10" fill="#6b7280">0</text>
  <line x1="42" y1="95.0" x2="377" y2="95.0" stroke="#e5e7eb" stroke-width="0.7"/>
  <text x="37" y="99.0" text-anchor="end" font-size="10" fill="#6b7280">0.5</text>
  <line x1="42" y1="8.0" x2="377" y2="8.0" stroke="#e5e7eb" stroke-width="0.7"/>
  <text x="37" y="12.0" text-anchor="end" font-size="10" fill="#6b7280">1</text>
  <line x1="42.0" y1="8" x2="42.0" y2="182" stroke="#e5e7eb" stroke-width="0.7"/>
  <text x="42.0" y="198" text-anchor="middle" font-size="10" fill="#6b7280">0</text>
  <line x1="209.5" y1="8" x2="209.5" y2="182" stroke="#e5e7eb" stroke-width="0.7"/>
  <text x="209.5" y="198" text-anchor="middle" font-size="10" fill="#6b7280">0.5</text>
  <line x1="377.0" y1="8" x2="377.0" y2="182" stroke="#e5e7eb" stroke-width="0.7"/>
  <text x="377.0" y="198" text-anchor="middle" font-size="10" fill="#6b7280">1</text>
  <line x1="42" y1="8" x2="42" y2="182" stroke="#d1d5db" stroke-width="1"/>
  <line x1="42" y1="182" x2="377" y2="182" stroke="#d1d5db" stroke-width="1"/>
  <path d="M42.0,182.0 42.0,182.0 43.3,182.0 44.6,181.8 45.9,181.6 47.3,181.3 48.6,181.0 49.9,180.5 51.2,180.0 52.5,179.4 53.8,178.8 55.1,178.0 56.5,177.3 57.8,176.4 59.1,175.5 60.4,174.5 61.7,173.5 63.0,172.4 64.3,171.2 65.6,170.0 67.0,168.8 68.3,167.5 69.6,166.1 70.9,164.7 72.2,163.3 73.5,161.8 74.8,160.2 76.2,158.7 77.5,157.0 78.8,155.4 80.1,153.7 81.4,152.0 82.7,150.3 84.0,148.5 85.4,146.7 86.7,144.8 88.0,143.0 89.3,141.1 90.6,139.2 91.9,137.2 93.2,135.3 94.5,133.3 95.9,131.3 97.2,129.3 98.5,127.3 99.8,125.2 101.1,123.2 102.4,121.1 103.7,119.1 105.1,117.0 106.4,114.9 107.7,112.8 109.0,110.7 110.3,108.6 111.6,106.5 112.9,104.4 114.3,102.3 115.6,100.2 116.9,98.1 118.2,96.0 119.5,94.0 120.8,91.9 122.1,89.8 123.5,87.7 124.8,85.7 126.1,83.6 127.4,81.6 128.7,79.5 130.0,77.5 131.3,75.5 132.6,73.5 134.0,71.6 135.3,69.6 136.6,67.7 137.9,65.8 139.2,63.9 140.5,62.0 141.8,60.1 143.2,58.3 144.5,56.5 145.8,54.7 147.1,52.9 148.4,51.2 149.7,49.5 151.0,47.8 152.4,46.2 153.7,44.5 155.0,42.9 156.3,41.3 157.6,39.8 158.9,38.3 160.2,36.8 161.5,35.4 162.9,33.9 164.2,32.5 165.5,31.2 166.8,29.9 168.1,28.6 169.4,27.3 170.7,26.1 172.1,25.0 173.4,23.8 174.7,22.7 176.0,21.6 177.3,20.6 178.6,19.6 179.9,18.7 181.3,17.8 182.6,16.9 183.9,16.0 185.2,15.2 186.5,14.5 187.8,13.8 189.1,13.1 190.5,12.5 191.8,11.9 193.1,11.3 194.4,10.8 195.7,10.4 197.0,9.9 198.3,9.5 199.6,9.2 201.0,8.9 202.3,8.6 203.6,8.4 204.9,8.3 206.2,8.1 207.5,8.0 208.8,8.0 210.2,8.0 211.5,8.0 212.8,8.1 214.1,8.3 215.4,8.4 216.7,8.6 218.0,8.9 219.4,9.2 220.7,9.5 222.0,9.9 223.3,10.4 224.6,10.8 225.9,11.3 227.2,11.9 228.5,12.5 229.9,13.1 231.2,13.8 232.5,14.5 233.8,15.2 235.1,16.0 236.4,16.9 237.7,17.8 239.1,18.7 240.4,19.6 241.7,20.6 243.0,21.6 244.3,22.7 245.6,23.8 246.9,25.0 248.3,26.1 249.6,27.3 250.9,28.6 252.2,29.9 253.5,31.2 254.8,32.5 256.1,33.9 257.5,35.4 258.8,36.8 260.1,38.3 261.4,39.8 262.7,41.3 264.0,42.9 265.3,44.5 266.6,46.2 268.0,47.8 269.3,49.5 270.6,51.2 271.9,52.9 273.2,54.7 274.5,56.5 275.8,58.3 277.2,60.1 278.5,62.0 279.8,63.9 281.1,65.8 282.4,67.7 283.7,69.6 285.0,71.6 286.4,73.5 287.7,75.5 289.0,77.5 290.3,79.5 291.6,81.6 292.9,83.6 294.2,85.7 295.5,87.7 296.9,89.8 298.2,91.9 299.5,94.0 300.8,96.0 302.1,98.1 303.4,100.2 304.7,102.3 306.1,104.4 307.4,106.5 308.7,108.6 310.0,110.7 311.3,112.8 312.6,114.9 313.9,117.0 315.3,119.1 316.6,121.1 317.9,123.2 319.2,125.2 320.5,127.3 321.8,129.3 323.1,131.3 324.5,133.3 325.8,135.3 327.1,137.2 328.4,139.2 329.7,141.1 331.0,143.0 332.3,144.8 333.6,146.7 335.0,148.5 336.3,150.3 337.6,152.0 338.9,153.7 340.2,155.4 341.5,157.0 342.8,158.7 344.2,160.2 345.5,161.8 346.8,163.3 348.1,164.7 349.4,166.1 350.7,167.5 352.0,168.8 353.4,170.0 354.7,171.2 356.0,172.4 357.3,173.5 358.6,174.5 359.9,175.5 361.2,176.4 362.5,177.3 363.9,178.0 365.2,178.8 366.5,179.4 367.8,180.0 369.1,180.5 370.4,181.0 371.7,181.3 373.1,181.6 374.4,181.8 375.7,182.0 377.0,182.0 L377.0,182.0 Z" fill="#4a90d9" fill-opacity="0.06"/>
  <polyline points="42.0,182.0 43.3,182.0 44.6,181.8 45.9,181.6 47.3,181.3 48.6,181.0 49.9,180.5 51.2,180.0 52.5,179.4 53.8,178.8 55.1,178.0 56.5,177.3 57.8,176.4 59.1,175.5 60.4,174.5 61.7,173.5 63.0,172.4 64.3,171.2 65.6,170.0 67.0,168.8 68.3,167.5 69.6,166.1 70.9,164.7 72.2,163.3 73.5,161.8 74.8,160.2 76.2,158.7 77.5,157.0 78.8,155.4 80.1,153.7 81.4,152.0 82.7,150.3 84.0,148.5 85.4,146.7 86.7,144.8 88.0,143.0 89.3,141.1 90.6,139.2 91.9,137.2 93.2,135.3 94.5,133.3 95.9,131.3 97.2,129.3 98.5,127.3 99.8,125.2 101.1,123.2 102.4,121.1 103.7,119.1 105.1,117.0 106.4,114.9 107.7,112.8 109.0,110.7 110.3,108.6 111.6,106.5 112.9,104.4 114.3,102.3 115.6,100.2 116.9,98.1 118.2,96.0 119.5,94.0 120.8,91.9 122.1,89.8 123.5,87.7 124.8,85.7 126.1,83.6 127.4,81.6 128.7,79.5 130.0,77.5 131.3,75.5 132.6,73.5 134.0,71.6 135.3,69.6 136.6,67.7 137.9,65.8 139.2,63.9 140.5,62.0 141.8,60.1 143.2,58.3 144.5,56.5 145.8,54.7 147.1,52.9 148.4,51.2 149.7,49.5 151.0,47.8 152.4,46.2 153.7,44.5 155.0,42.9 156.3,41.3 157.6,39.8 158.9,38.3 160.2,36.8 161.5,35.4 162.9,33.9 164.2,32.5 165.5,31.2 166.8,29.9 168.1,28.6 169.4,27.3 170.7,26.1 172.1,25.0 173.4,23.8 174.7,22.7 176.0,21.6 177.3,20.6 178.6,19.6 179.9,18.7 181.3,17.8 182.6,16.9 183.9,16.0 185.2,15.2 186.5,14.5 187.8,13.8 189.1,13.1 190.5,12.5 191.8,11.9 193.1,11.3 194.4,10.8 195.7,10.4 197.0,9.9 198.3,9.5 199.6,9.2 201.0,8.9 202.3,8.6 203.6,8.4 204.9,8.3 206.2,8.1 207.5,8.0 208.8,8.0 210.2,8.0 211.5,8.0 212.8,8.1 214.1,8.3 215.4,8.4 216.7,8.6 218.0,8.9 219.4,9.2 220.7,9.5 222.0,9.9 223.3,10.4 224.6,10.8 225.9,11.3 227.2,11.9 228.5,12.5 229.9,13.1 231.2,13.8 232.5,14.5 233.8,15.2 235.1,16.0 236.4,16.9 237.7,17.8 239.1,18.7 240.4,19.6 241.7,20.6 243.0,21.6 244.3,22.7 245.6,23.8 246.9,25.0 248.3,26.1 249.6,27.3 250.9,28.6 252.2,29.9 253.5,31.2 254.8,32.5 256.1,33.9 257.5,35.4 258.8,36.8 260.1,38.3 261.4,39.8 262.7,41.3 264.0,42.9 265.3,44.5 266.6,46.2 268.0,47.8 269.3,49.5 270.6,51.2 271.9,52.9 273.2,54.7 274.5,56.5 275.8,58.3 277.2,60.1 278.5,62.0 279.8,63.9 281.1,65.8 282.4,67.7 283.7,69.6 285.0,71.6 286.4,73.5 287.7,75.5 289.0,77.5 290.3,79.5 291.6,81.6 292.9,83.6 294.2,85.7 295.5,87.7 296.9,89.8 298.2,91.9 299.5,94.0 300.8,96.0 302.1,98.1 303.4,100.2 304.7,102.3 306.1,104.4 307.4,106.5 308.7,108.6 310.0,110.7 311.3,112.8 312.6,114.9 313.9,117.0 315.3,119.1 316.6,121.1 317.9,123.2 319.2,125.2 320.5,127.3 321.8,129.3 323.1,131.3 324.5,133.3 325.8,135.3 327.1,137.2 328.4,139.2 329.7,141.1 331.0,143.0 332.3,144.8 333.6,146.7 335.0,148.5 336.3,150.3 337.6,152.0 338.9,153.7 340.2,155.4 341.5,157.0 342.8,158.7 344.2,160.2 345.5,161.8 346.8,163.3 348.1,164.7 349.4,166.1 350.7,167.5 352.0,168.8 353.4,170.0 354.7,171.2 356.0,172.4 357.3,173.5 358.6,174.5 359.9,175.5 361.2,176.4 362.5,177.3 363.9,178.0 365.2,178.8 366.5,179.4 367.8,180.0 369.1,180.5 370.4,181.0 371.7,181.3 373.1,181.6 374.4,181.8 375.7,182.0 377.0,182.0" fill="none" stroke="#4a90d9" stroke-width="1.5" stroke-linejoin="round"/>
  <line x1="450" y1="8.0" x2="785" y2="8.0" stroke="#e5e7eb" stroke-width="0.7"/>
  <text x="445" y="12.0" text-anchor="end" font-size="10" fill="#6b7280">0</text>
  <line x1="450" y1="66.0" x2="785" y2="66.0" stroke="#e5e7eb" stroke-width="0.7"/>
  <text x="445" y="70.0" text-anchor="end" font-size="10" fill="#6b7280">-40</text>
  <line x1="450" y1="124.0" x2="785" y2="124.0" stroke="#e5e7eb" stroke-width="0.7"/>
  <text x="445" y="128.0" text-anchor="end" font-size="10" fill="#6b7280">-80</text>
  <line x1="450" y1="182.0" x2="785" y2="182.0" stroke="#e5e7eb" stroke-width="0.7"/>
  <text x="445" y="186.0" text-anchor="end" font-size="10" fill="#6b7280">-120</text>
  <line x1="450.0" y1="8" x2="450.0" y2="182" stroke="#e5e7eb" stroke-width="0.7"/>
  <text x="450.0" y="198" text-anchor="middle" font-size="10" fill="#6b7280">0</text>
  <line x1="517.0" y1="8" x2="517.0" y2="182" stroke="#e5e7eb" stroke-width="0.7"/>
  <text x="517.0" y="198" text-anchor="middle" font-size="10" fill="#6b7280">0.1</text>
  <line x1="584.0" y1="8" x2="584.0" y2="182" stroke="#e5e7eb" stroke-width="0.7"/>
  <text x="584.0" y="198" text-anchor="middle" font-size="10" fill="#6b7280">0.2</text>
  <line x1="651.0" y1="8" x2="651.0" y2="182" stroke="#e5e7eb" stroke-width="0.7"/>
  <text x="651.0" y="198" text-anchor="middle" font-size="10" fill="#6b7280">0.3</text>
  <line x1="718.0" y1="8" x2="718.0" y2="182" stroke="#e5e7eb" stroke-width="0.7"/>
  <text x="718.0" y="198" text-anchor="middle" font-size="10" fill="#6b7280">0.4</text>
  <line x1="785.0" y1="8" x2="785.0" y2="182" stroke="#e5e7eb" stroke-width="0.7"/>
  <text x="785.0" y="198" text-anchor="middle" font-size="10" fill="#6b7280">0.5</text>
  <line x1="450" y1="8" x2="450" y2="182" stroke="#d1d5db" stroke-width="1"/>
  <line x1="450" y1="182" x2="785" y2="182" stroke="#d1d5db" stroke-width="1"/>
  <polyline points="450.0,8.0 450.2,8.0 450.3,8.1 450.5,8.3 450.7,8.6 450.8,8.9 451.0,9.3 451.1,9.7 451.3,10.2 451.5,10.9 451.6,11.6 451.8,12.3 452.0,13.2 452.1,14.2 452.3,15.2 452.5,16.4 452.6,17.6 452.8,19.0 452.9,20.6 453.1,22.3 453.3,24.1 453.4,26.2 453.6,28.5 453.8,31.0 453.9,34.0 454.1,37.4 454.3,41.6 454.4,46.9 454.6,54.6 454.7,70.2 454.9,69.9 455.1,57.9 455.2,53.1 455.4,50.5 455.6,49.0 455.7,48.3 455.9,48.2 456.1,48.6 456.2,49.3 456.4,50.5 456.5,52.1 456.7,54.2 456.9,56.8 457.0,60.3 457.2,64.9 457.4,71.9 457.5,86.4 457.7,87.3 457.9,74.4 458.0,69.0 458.2,66.0 458.3,64.2 458.5,63.2 458.7,62.8 458.8,62.9 459.0,63.5 459.2,64.5 459.3,66.0 459.5,68.0 459.7,70.8 459.8,74.5 460.0,79.8 460.1,88.9 460.3,153.2 460.5,90.2 460.6,82.3 460.8,78.1 461.0,75.6 461.1,74.1 461.3,73.3 461.5,73.0 461.6,73.2 461.8,73.9 461.9,75.0 462.1,76.7 462.3,79.1 462.4,82.2 462.6,86.8 462.8,94.1 462.9,112.1 463.1,103.4 463.3,92.6 463.4,87.5 463.6,84.5 463.7,82.6 463.9,81.5 464.1,81.0 464.2,81.0 464.4,81.4 464.6,82.4 464.7,83.8 464.9,85.9 465.1,88.7 465.2,92.8 465.4,99.1 465.5,112.3 465.7,115.5 465.9,101.2 466.0,95.3 466.2,91.8 466.4,89.7 466.5,88.3 466.7,87.6 466.9,87.4 467.0,87.7 467.2,88.5 467.3,89.8 467.5,91.6 467.7,94.3 467.8,98.0 468.0,103.7 468.2,114.7 468.3,128.0 468.5,108.6 468.7,101.9 468.8,98.1 469.0,95.7 469.1,94.1 469.3,93.3 469.5,92.9 469.6,93.1 469.8,93.7 470.0,94.9 470.1,96.6 470.3,99.1 470.5,102.6 470.6,107.8 470.8,117.4 470.9,143.8 471.1,115.2 471.3,107.7 471.4,103.5 471.6,100.9 471.8,99.2 471.9,98.2 472.1,97.8 472.3,97.8 472.4,98.4 472.6,99.4 472.7,101.0 472.9,103.3 473.1,106.6 473.2,111.5 473.4,120.2 473.6,169.8 473.7,121.2 473.9,112.8 474.1,108.3 474.2,105.5 474.4,103.7 474.5,102.6 474.7,102.1 474.9,102.0 475.0,102.5 475.2,103.4 475.4,104.9 475.5,107.1 475.7,110.2 475.9,114.9 476.0,122.8 476.2,149.5 476.3,126.7 476.5,117.5 476.7,112.7 476.8,109.7 477.0,107.8 477.2,106.6 477.3,105.9 477.5,105.8 477.7,106.2 477.8,107.1 478.0,108.5 478.1,110.6 478.3,113.5 478.5,118.0 478.6,125.3 478.8,145.9 479.0,132.0 479.1,121.8 479.3,116.7 479.5,113.5 479.6,111.4 479.8,110.2 479.9,109.5 480.1,109.3 480.3,109.6 480.4,110.4 480.6,111.7 480.8,113.7 480.9,116.6 481.1,120.8 481.3,127.7 481.4,144.9 481.6,137.0 481.7,125.7 481.9,120.3 482.1,117.0 482.2,114.8 482.4,113.5 482.6,112.7 482.7,112.5 482.9,112.7 483.1,113.4 483.2,114.7 483.4,116.6 483.5,119.3 483.7,123.4 483.9,129.9 484.0,144.8 484.2,142.0 484.4,129.4 484.5,123.7 484.7,120.2 484.9,118.0 485.0,116.5 485.2,115.7 485.3,115.4 485.5,115.6 485.7,116.2 485.8,117.4 486.0,119.3 486.2,121.9 486.3,125.8 486.5,131.9 486.7,145.3 486.8,146.9 487.0,132.9 487.1,126.9 487.3,123.2 487.5,120.9 487.6,119.4 487.8,118.5 488.0,118.1 488.1,118.2 488.3,118.8 488.5,120.0 488.6,121.7 488.8,124.3 488.9,128.0 489.1,133.9 489.3,146.0 489.4,152.1 489.6,136.2 489.8,129.9 489.9,126.1 490.1,123.6 490.3,122.0 490.4,121.1 490.6,120.7 490.7,120.7 490.9,121.3 491.1,122.4 491.2,124.1 491.4,126.5 491.6,130.1 491.7,135.7 491.9,146.9 492.1,157.6 492.2,139.4 492.4,132.7 492.6,128.7 492.7,126.2 492.9,124.5 493.0,123.5 493.2,123.0 493.4,123.1 493.5,123.6 493.7,124.6 493.9,126.2 494.0,128.6 494.2,132.1 494.4,137.5 494.5,147.8 494.7,163.8 494.8,142.5 495.0,135.4 495.2,131.3 495.3,128.6 495.5,126.9 495.7,125.8 495.8,125.3 496.0,125.3 496.2,125.7 496.3,126.7 496.5,128.3 496.6,130.6 496.8,133.9 497.0,139.1 497.1,148.8 497.3,171.5 497.5,145.5 497.6,137.9 497.8,133.7 498.0,130.9 498.1,129.1 498.3,128.0 498.4,127.4 498.6,127.4 498.8,127.8 498.9,128.7 499.1,130.2 499.3,132.4 499.4,135.7 499.6,140.7 499.8,149.7 499.9,182.0 500.1,148.4 500.2,140.4 500.4,136.0 500.6,133.1 500.7,131.2 500.9,130.1 501.1,129.5 501.2,129.3 501.4,129.7 501.6,130.6 501.7,132.1 501.9,134.2 502.0,137.4 502.2,142.2 502.4,150.7 502.5,182.0 502.7,151.2 502.9,142.8 503.0,138.1 503.2,135.2 503.4,133.3 503.5,132.0 503.7,131.4 503.8,131.2 504.0,131.6 504.2,132.4 504.3,133.8 504.5,135.9 504.7,138.9 504.8,143.6 505.0,151.7 505.2,182.0 505.3,154.0 505.5,145.0 505.6,140.3 505.8,137.2 506.0,135.2 506.1,133.9 506.3,133.2 506.5,133.0 506.6,133.3 506.8,134.1 507.0,135.5 507.1,137.5 507.3,140.5 507.4,144.9 507.6,152.6 507.8,177.7 507.9,156.8 508.1,147.3 508.3,142.3 508.4,139.1 508.6,137.1 508.8,135.7 508.9,135.0 509.1,134.8 509.2,135.0 509.4,135.8 509.6,137.1 509.7,139.0 509.9,141.9 510.1,146.2 510.2,153.5 510.4,174.6 510.6,159.6 510.7,149.4 510.9,144.2 511.0,141.0 511.2,138.8 511.4,137.5 511.5,136.7 511.7,136.4 511.9,136.6 512.0,137.3 512.2,138.6 512.4,140.5 512.5,143.3 512.7,147.5 512.8,154.4 513.0,172.8 513.2,162.4 513.3,151.5 513.5,146.1 513.7,142.8 513.8,140.6 514.0,139.1 514.2,138.3 514.3,138.0 514.5,138.2 514.6,138.8 514.8,140.0 515.0,141.9 515.1,144.6 515.3,148.7 515.5,155.3 515.6,171.7 515.8,165.3 516.0,153.5 516.1,148.0 516.3,144.5 516.4,142.2 516.6,140.7 516.8,139.9 516.9,139.5 517.1,139.6 517.3,140.3 517.4,141.4 517.6,143.2 517.8,145.9 517.9,149.8 518.1,156.2 518.2,171.0 518.4,168.2 518.6,155.6 518.7,149.7 518.9,146.2 519.1,143.8 519.2,142.3 519.4,141.4 519.6,141.0 519.7,141.1 519.9,141.7 520.0,142.8 520.2,144.5 520.4,147.1 520.5,150.9 520.7,157.1 520.9,170.6 521.0,171.3 521.2,157.5 521.4,151.5 521.5,147.8 521.7,145.4 521.8,143.8 522.0,142.8 522.2,142.4 522.3,142.4 522.5,143.0 522.7,144.1 522.8,145.8 523.0,148.3 523.2,152.0 523.3,157.9 523.5,170.4 523.6,174.6 523.8,159.5 524.0,153.2 524.1,149.4 524.3,146.9 524.5,145.2 524.6,144.2 524.8,143.8 525.0,143.8 525.1,144.3 525.3,145.3 525.4,147.0 525.6,149.4 525.8,153.0 525.9,158.7 526.1,170.3 526.3,178.2 526.4,161.4 526.6,154.8 526.8,150.9 526.9,148.3 527.1,146.6 527.2,145.6 527.4,145.1 527.6,145.1 527.7,145.5 527.9,146.5 528.1,148.1 528.2,150.5 528.4,154.0 528.6,159.5 528.7,170.3 528.9,182.0 529.0,163.3 529.2,156.4 529.4,152.4 529.5,149.7 529.7,148.0 529.9,146.9 530.0,146.4 530.2,146.3 530.4,146.8 530.5,147.7 530.7,149.3 530.8,151.6 531.0,155.0 531.2,160.3 531.3,170.5 531.5,182.0 531.7,165.2 531.8,158.0 532.0,153.8 532.2,151.1 532.3,149.3 532.5,148.2 532.6,147.6 532.8,147.5 533.0,147.9 533.1,148.8 533.3,150.3 533.5,152.6 533.6,155.9 533.8,161.0 534.0,170.6 534.1,182.0 534.3,167.1 534.4,159.6 534.6,155.3 534.8,152.5 534.9,150.6 535.1,149.4 535.3,148.8 535.4,148.7 535.6,149.1 535.8,149.9 535.9,151.4 536.1,153.6 536.2,156.8 536.4,161.8 536.6,170.8 536.7,182.0 536.9,169.0 537.1,161.1 537.2,156.7 537.4,153.8 537.6,151.9 537.7,150.6 537.9,150.0 538.0,149.8 538.2,150.2 538.4,151.0 538.5,152.4 538.7,154.6 538.9,157.7 539.0,162.5 539.2,171.1 539.4,182.0 539.5,171.0 539.7,162.6 539.8,158.0 540.0,155.1 540.2,153.1 540.3,151.8 540.5,151.1 540.7,151.0 540.8,151.3 541.0,152.1 541.2,153.4 541.3,155.5 541.5,158.5 541.6,163.2 541.8,171.4 542.0,182.0 542.1,172.9 542.3,164.1 542.5,159.4 542.6,156.3 542.8,154.3 543.0,153.0 543.1,152.3 543.3,152.0 543.4,152.3 543.6,153.1 543.8,154.4 543.9,156.4 544.1,159.4 544.3,163.9 544.4,171.7 544.6,182.0 544.8,174.9 544.9,165.6 545.1,160.7 545.2,157.5 545.4,155.5 545.6,154.1 545.7,153.3 545.9,153.1 546.1,153.3 546.2,154.0 546.4,155.3 546.6,157.3 546.7,160.2 546.9,164.5 547.0,172.0 547.2,182.0 547.4,176.9 547.5,167.1 547.7,162.0 547.9,158.7 548.0,156.6 548.2,155.2 548.4,154.4 548.5,154.1 548.7,154.3 548.8,155.0 549.0,156.2 549.2,158.2 549.3,161.0 549.5,165.2 549.7,172.4 549.8,182.0 550.0,179.0 550.2,168.5 550.3,163.2 550.5,159.9 550.6,157.7 550.8,156.3 551.0,155.4 551.1,155.1 551.3,155.3 551.5,155.9 551.6,157.1 551.8,159.0 552.0,161.7 552.1,165.9 552.3,172.7 552.4,182.0 552.6,181.1 552.8,170.0 552.9,164.5 553.1,161.1 553.3,158.8 553.4,157.3 553.6,156.5 553.8,156.1 553.9,156.2 554.1,156.9 554.2,158.0 554.4,159.8 554.6,162.5 554.7,166.5 554.9,173.1 555.1,182.0 555.2,182.0 555.4,171.4 555.6,165.7 555.7,162.2 555.9,159.9 556.0,158.4 556.2,157.5 556.4,157.1 556.5,157.2 556.7,157.7 556.9,158.9 557.0,160.6 557.2,163.2 557.4,167.1 557.5,173.4 557.7,182.0 557.8,182.0 558.0,172.8 558.2,167.0 558.3,163.3 558.5,161.0 558.7,159.4 558.8,158.4 559.0,158.0 559.2,158.1 559.3,158.6 559.5,159.7 559.6,161.4 559.8,163.9 560.0,167.7 560.1,173.8 560.3,182.0 560.5,182.0 560.6,174.3 560.8,168.2 561.0,164.5 561.1,162.0 561.3,160.4 561.4,159.4 561.6,158.9 561.8,159.0 561.9,159.5 562.1,160.5 562.3,162.2 562.4,164.7 562.6,168.3 562.8,174.2 562.9,182.0 563.1,182.0 563.2,175.7 563.4,169.4 563.6,165.5 563.7,163.0 563.9,161.3 564.1,160.3 564.2,159.8 564.4,159.8 564.6,160.3 564.7,161.3 564.9,162.9 565.0,165.3 565.2,168.9 565.4,174.6 565.5,182.0 565.7,182.0 565.9,177.2 566.0,170.6 566.2,166.6 566.4,164.0 566.5,162.3 566.7,161.2 566.8,160.7 567.0,160.7 567.2,161.1 567.3,162.1 567.5,163.7 567.7,166.0 567.8,169.5 568.0,175.0 568.2,182.0 568.3,182.0 568.5,178.6 568.6,171.7 568.8,167.7 569.0,165.0 569.1,163.2 569.3,162.1 569.5,161.6 569.6,161.5 569.8,161.9 570.0,162.9 570.1,164.4 570.3,166.7 570.4,170.1 570.6,175.4 570.8,182.0 570.9,182.0 571.1,180.1 571.3,172.9 571.4,168.7 571.6,166.0 571.8,164.2 571.9,163.0 572.1,162.4 572.2,162.3 572.4,162.7 572.6,163.6 572.7,165.1 572.9,167.3 573.1,170.6 573.2,175.7 573.4,182.0 573.6,182.0 573.7,181.6 573.9,174.1 574.0,169.8 574.2,167.0 574.4,165.1 574.5,163.9 574.7,163.3 574.9,163.1 575.0,163.5 575.2,164.3 575.4,165.8 575.5,168.0 575.7,171.2 575.9,176.1 576.0,182.0 576.2,182.0 576.3,182.0 576.5,175.2 576.7,170.8 576.8,167.9 577.0,166.0 577.2,164.8 577.3,164.1 577.5,163.9 577.7,164.2 577.8,165.1 578.0,166.5 578.1,168.6 578.3,171.7 578.5,176.5 578.6,182.0 578.8,182.0 579.0,182.0 579.1,176.4 579.3,171.8 579.5,168.8 579.6,166.9 579.8,165.6 579.9,164.9 580.1,164.7 580.3,165.0 580.4,165.8 580.6,167.1 580.8,169.2 580.9,172.2 581.1,176.9 581.3,182.0 581.4,182.0 581.6,182.0 581.7,177.6 581.9,172.8 582.1,169.8 582.2,167.7 582.4,166.4 582.6,165.7 582.7,165.5 582.9,165.7 583.1,166.5 583.2,167.8 583.4,169.8 583.5,172.8 583.7,177.3 583.9,182.0 584.0,182.0 584.2,182.0 584.4,178.7 584.5,173.8 584.7,170.7 584.9,168.6 585.0,167.3 585.2,166.5 585.3,166.2 585.5,166.4 585.7,167.2 585.8,168.4 586.0,170.4 586.2,173.3 586.3,177.7 586.5,182.0 586.7,182.0 586.8,182.0 587.0,179.9 587.1,174.8 587.3,171.6 587.5,169.5 587.6,168.1 587.8,167.3 588.0,167.0 588.1,167.2 588.3,167.8 588.5,169.1 588.6,171.0 588.8,173.8 588.9,178.1 589.1,182.0 589.3,182.0 589.4,182.0 589.6,181.0 589.8,175.8 589.9,172.5 590.1,170.3 590.3,168.9 590.4,168.0 590.6,167.7 590.7,167.9 590.9,168.5 591.1,169.7 591.2,171.6 591.4,174.3 591.6,178.5 591.7,182.0 591.9,182.0 592.1,182.0 592.2,182.0 592.4,176.8 592.5,173.4 592.7,171.1 592.9,169.7 593.0,168.8 593.2,168.4 593.4,168.5 593.5,169.2 593.7,170.3 593.9,172.1 594.0,174.8 594.2,178.8 594.3,182.0 594.5,182.0 594.7,182.0 594.8,182.0 595.0,177.8 595.2,174.3 595.3,172.0 595.5,170.4 595.7,169.5 595.8,169.1 596.0,169.2 596.1,169.8 596.3,170.9 596.5,172.7 596.6,175.3 596.8,179.2 597.0,182.0 597.1,182.0 597.3,182.0 597.5,182.0 597.6,178.7 597.8,175.2 597.9,172.8 598.1,171.2 598.3,170.3 598.4,169.8 598.6,169.9 598.8,170.5 598.9,171.5 599.1,173.3 599.3,175.8 599.4,179.6 599.6,182.0 599.7,182.0 599.9,182.0 600.1,182.0 600.2,179.7 600.4,176.0 600.6,173.6 600.7,172.0 600.9,171.0 601.1,170.5 601.2,170.6 601.4,171.1 601.5,172.1 601.7,173.8 601.9,176.3 602.0,180.0 602.2,182.0 602.4,182.0 602.5,182.0 602.7,182.0 602.9,180.7 603.0,176.9 603.2,174.4 603.3,172.7 603.5,171.7 603.7,171.2 603.8,171.2 604.0,171.7 604.2,172.7 604.3,174.3 604.5,176.8 604.7,180.4 604.8,182.0 605.0,182.0 605.1,182.0 605.3,182.0 605.5,181.7 605.6,177.8 605.8,175.2 606.0,173.5 606.1,172.4 606.3,171.9 606.5,171.9 606.6,172.3 606.8,173.3 606.9,174.9 607.1,177.2 607.3,180.8 607.4,182.0 607.6,182.0 607.8,182.0 607.9,182.0 608.1,182.0 608.3,178.6 608.4,176.0 608.6,174.2 608.7,173.1 608.9,172.6 609.1,172.5 609.2,172.9 609.4,173.9 609.6,175.4 609.7,177.7 609.9,181.1 610.1,182.0 610.2,182.0 610.4,182.0 610.5,182.0 610.7,182.0 610.9,179.5 611.0,176.8 611.2,175.0 611.4,173.8 611.5,173.2 611.7,173.1 611.9,173.5 612.0,174.4 612.2,175.9 612.3,178.2 612.5,181.5 612.7,182.0 612.8,182.0 613.0,182.0 613.2,182.0 613.3,182.0 613.5,180.3 613.7,177.5 613.8,175.7 614.0,174.5 614.1,173.9 614.3,173.8 614.5,174.1 614.6,175.0 614.8,176.4 615.0,178.6 615.1,181.9 615.3,182.0 615.5,182.0 615.6,182.0 615.8,182.0 615.9,182.0 616.1,181.2 616.3,178.3 616.4,176.4 616.6,175.2 616.8,174.5 616.9,174.4 617.1,174.7 617.3,175.5 617.4,177.0 617.6,179.1 617.7,182.0 617.9,182.0 618.1,182.0 618.2,182.0 618.4,182.0 618.6,182.0 618.7,182.0 618.9,179.1 619.1,177.1 619.2,175.9 619.4,175.2 619.5,175.0 619.7,175.3 619.9,176.1 620.0,177.5 620.2,179.6 620.4,182.0 620.5,182.0 620.7,182.0 620.9,182.0 621.0,182.0 621.2,182.0 621.3,182.0 621.5,179.9 621.7,177.8 621.8,176.5 622.0,175.8 622.2,175.6 622.3,175.9 622.5,176.6 622.7,178.0 622.8,180.0 623.0,182.0 623.1,182.0 623.3,182.0 623.5,182.0 623.6,182.0 623.8,182.0 624.0,182.0 624.1,180.6 624.3,178.6 624.5,177.2 624.6,176.5 624.8,176.2 624.9,176.4 625.1,177.2 625.3,178.5 625.4,180.5 625.6,182.0 625.8,182.0 625.9,182.0 626.1,182.0 626.3,182.0 626.4,182.0 626.6,182.0 626.7,181.4 626.9,179.3 627.1,177.9 627.2,177.1 627.4,176.8 627.6,177.0 627.7,177.7 627.9,179.0 628.1,180.9 628.2,182.0 628.4,182.0 628.5,182.0 628.7,182.0 628.9,182.0 629.0,182.0 629.2,182.0 629.4,182.0 629.5,180.0 629.7,178.5 629.9,177.7 630.0,177.4 630.2,177.6 630.3,178.2 630.5,179.5 630.7,181.3 630.8,182.0 631.0,182.0 631.2,182.0 631.3,182.0 631.5,182.0 631.7,182.0 631.8,182.0 632.0,182.0 632.1,180.7 632.3,179.2 632.5,178.3 632.6,178.0 632.8,178.1 633.0,178.8 633.1,179.9 633.3,181.8 633.5,182.0 633.6,182.0 633.8,182.0 633.9,182.0 634.1,182.0 634.3,182.0 634.4,182.0 634.6,182.0 634.8,181.4 634.9,179.9 635.1,179.0 635.3,178.6 635.4,178.7 635.6,179.3 635.7,180.4 635.9,182.0 636.1,182.0 636.2,182.0 636.4,182.0 636.6,182.0 636.7,182.0 636.9,182.0 637.1,182.0 637.2,182.0 637.4,182.0 637.5,180.5 637.7,179.6 637.9,179.2 638.0,179.2 638.2,179.8 638.4,180.9 638.5,182.0 638.7,182.0 638.9,182.0 639.0,182.0 639.2,182.0 639.3,182.0 639.5,182.0 639.7,182.0 639.8,182.0 640.0,182.0 640.2,181.2 640.3,180.2 640.5,179.7 640.7,179.8 640.8,180.3 641.0,181.4 641.1,182.0 641.3,182.0 641.5,182.0 641.6,182.0 641.8,182.0 642.0,182.0 642.1,182.0 642.3,182.0 642.5,182.0 642.6,182.0 642.8,181.8 642.9,180.8 643.1,180.3 643.3,180.3 643.4,180.8 643.6,181.9 643.8,182.0 643.9,182.0 644.1,182.0 644.3,182.0 644.4,182.0 644.6,182.0 644.7,182.0 644.9,182.0 645.1,182.0 645.2,182.0 645.4,182.0 645.6,181.4 645.7,180.9 645.9,180.9 646.1,181.4 646.2,182.0 646.4,182.0 646.5,182.0 646.7,182.0 646.9,182.0 647.0,182.0 647.2,182.0 647.4,182.0 647.5,182.0 647.7,182.0 647.9,182.0 648.0,182.0 648.2,182.0 648.3,181.5 648.5,181.4 648.7,181.9 648.8,182.0 649.0,182.0 649.2,182.0 649.3,182.0 649.5,182.0 649.7,182.0 649.8,182.0 650.0,182.0 650.1,182.0 650.3,182.0 650.5,182.0 650.6,182.0 650.8,182.0 651.0,182.0 651.1,182.0 651.3,182.0 651.5,182.0 651.6,182.0 651.8,182.0 651.9,182.0 652.1,182.0 652.3,182.0 652.4,182.0 652.6,182.0 652.8,182.0 652.9,182.0 653.1,182.0 653.3,182.0 653.4,182.0 653.6,182.0 653.7,182.0 653.9,182.0 654.1,182.0 654.2,182.0 654.4,182.0 654.6,182.0 654.7,182.0 654.9,182.0 655.1,182.0 655.2,182.0 655.4,182.0 655.5,182.0 655.7,182.0 655.9,182.0 656.0,182.0 656.2,182.0 656.4,182.0 656.5,182.0 656.7,182.0 656.9,182.0 657.0,182.0 657.2,182.0 657.3,182.0 657.5,182.0 657.7,182.0 657.8,182.0 658.0,182.0 658.2,182.0 658.3,182.0 658.5,182.0 658.7,182.0 658.8,182.0 659.0,182.0 659.1,182.0 659.3,182.0 659.5,182.0 659.6,182.0 659.8,182.0 660.0,182.0 660.1,182.0 660.3,182.0 660.5,182.0 660.6,182.0 660.8,182.0 661.0,182.0 661.1,182.0 661.3,182.0 661.4,182.0 661.6,182.0 661.8,182.0 661.9,182.0 662.1,182.0 662.3,182.0 662.4,182.0 662.6,182.0 662.8,182.0 662.9,182.0 663.1,182.0 663.2,182.0 663.4,182.0 663.6,182.0 663.7,182.0 663.9,182.0 664.1,182.0 664.2,182.0 664.4,182.0 664.6,182.0 664.7,182.0 664.9,182.0 665.0,182.0 665.2,182.0 665.4,182.0 665.5,182.0 665.7,182.0 665.9,182.0 666.0,182.0 666.2,182.0 666.4,182.0 666.5,182.0 666.7,182.0 666.8,182.0 667.0,182.0 667.2,182.0 667.3,182.0 667.5,182.0 667.7,182.0 667.8,182.0 668.0,182.0 668.2,182.0 668.3,182.0 668.5,182.0 668.6,182.0 668.8,182.0 669.0,182.0 669.1,182.0 669.3,182.0 669.5,182.0 669.6,182.0 669.8,182.0 670.0,182.0 670.1,182.0 670.3,182.0 670.4,182.0 670.6,182.0 670.8,182.0 670.9,182.0 671.1,182.0 671.3,182.0 671.4,182.0 671.6,182.0 671.8,182.0 671.9,182.0 672.1,182.0 672.2,182.0 672.4,182.0 672.6,182.0 672.7,182.0 672.9,182.0 673.1,182.0 673.2,182.0 673.4,182.0 673.6,182.0 673.7,182.0 673.9,182.0 674.0,182.0 674.2,182.0 674.4,182.0 674.5,182.0 674.7,182.0 674.9,182.0 675.0,182.0 675.2,182.0 675.4,182.0 675.5,182.0 675.7,182.0 675.8,182.0 676.0,182.0 676.2,182.0 676.3,182.0 676.5,182.0 676.7,182.0 676.8,182.0 677.0,182.0 677.2,182.0 677.3,182.0 677.5,182.0 677.6,182.0 677.8,182.0 678.0,182.0 678.1,182.0 678.3,182.0 678.5,182.0 678.6,182.0 678.8,182.0 679.0,182.0 679.1,182.0 679.3,182.0 679.4,182.0 679.6,182.0 679.8,182.0 679.9,182.0 680.1,182.0 680.3,182.0 680.4,182.0 680.6,182.0 680.8,182.0 680.9,182.0 681.1,182.0 681.2,182.0 681.4,182.0 681.6,182.0 681.7,182.0 681.9,182.0 682.1,182.0 682.2,182.0 682.4,182.0 682.6,182.0 682.7,182.0 682.9,182.0 683.0,182.0 683.2,182.0 683.4,182.0 683.5,182.0 683.7,182.0 683.9,182.0 684.0,182.0 684.2,182.0 684.4,182.0 684.5,182.0 684.7,182.0 684.8,182.0 685.0,182.0 685.2,182.0 685.3,182.0 685.5,182.0 685.7,182.0 685.8,182.0 686.0,182.0 686.2,182.0 686.3,182.0 686.5,182.0 686.6,182.0 686.8,182.0 687.0,182.0 687.1,182.0 687.3,182.0 687.5,182.0 687.6,182.0 687.8,182.0 688.0,182.0 688.1,182.0 688.3,182.0 688.4,182.0 688.6,182.0 688.8,182.0 688.9,182.0 689.1,182.0 689.3,182.0 689.4,182.0 689.6,182.0 689.8,182.0 689.9,182.0 690.1,182.0 690.2,182.0 690.4,182.0 690.6,182.0 690.7,182.0 690.9,182.0 691.1,182.0 691.2,182.0 691.4,182.0 691.6,182.0 691.7,182.0 691.9,182.0 692.0,182.0 692.2,182.0 692.4,182.0 692.5,182.0 692.7,182.0 692.9,182.0 693.0,182.0 693.2,182.0 693.4,182.0 693.5,182.0 693.7,182.0 693.8,182.0 694.0,182.0 694.2,182.0 694.3,182.0 694.5,182.0 694.7,182.0 694.8,182.0 695.0,182.0 695.2,182.0 695.3,182.0 695.5,182.0 695.6,182.0 695.8,182.0 696.0,182.0 696.1,182.0 696.3,182.0 696.5,182.0 696.6,182.0 696.8,182.0 697.0,182.0 697.1,182.0 697.3,182.0 697.4,182.0 697.6,182.0 697.8,182.0 697.9,182.0 698.1,182.0 698.3,182.0 698.4,182.0 698.6,182.0 698.8,182.0 698.9,182.0 699.1,182.0 699.2,182.0 699.4,182.0 699.6,182.0 699.7,182.0 699.9,182.0 700.1,182.0 700.2,182.0 700.4,182.0 700.6,182.0 700.7,182.0 700.9,182.0 701.0,182.0 701.2,182.0 701.4,182.0 701.5,182.0 701.7,182.0 701.9,182.0 702.0,182.0 702.2,182.0 702.4,182.0 702.5,182.0 702.7,182.0 702.8,182.0 703.0,182.0 703.2,182.0 703.3,182.0 703.5,182.0 703.7,182.0 703.8,182.0 704.0,182.0 704.2,182.0 704.3,182.0 704.5,182.0 704.6,182.0 704.8,182.0 705.0,182.0 705.1,182.0 705.3,182.0 705.5,182.0 705.6,182.0 705.8,182.0 706.0,182.0 706.1,182.0 706.3,182.0 706.4,182.0 706.6,182.0 706.8,182.0 706.9,182.0 707.1,182.0 707.3,182.0 707.4,182.0 707.6,182.0 707.8,182.0 707.9,182.0 708.1,182.0 708.2,182.0 708.4,182.0 708.6,182.0 708.7,182.0 708.9,182.0 709.1,182.0 709.2,182.0 709.4,182.0 709.6,182.0 709.7,182.0 709.9,182.0 710.0,182.0 710.2,182.0 710.4,182.0 710.5,182.0 710.7,182.0 710.9,182.0 711.0,182.0 711.2,182.0 711.4,182.0 711.5,182.0 711.7,182.0 711.8,182.0 712.0,182.0 712.2,182.0 712.3,182.0 712.5,182.0 712.7,182.0 712.8,182.0 713.0,182.0 713.2,182.0 713.3,182.0 713.5,182.0 713.6,182.0 713.8,182.0 714.0,182.0 714.1,182.0 714.3,182.0 714.5,182.0 714.6,182.0 714.8,182.0 715.0,182.0 715.1,182.0 715.3,182.0 715.4,182.0 715.6,182.0 715.8,182.0 715.9,182.0 716.1,182.0 716.3,182.0 716.4,182.0 716.6,182.0 716.8,182.0 716.9,182.0 717.1,182.0 717.2,182.0 717.4,182.0 717.6,182.0 717.7,182.0 717.9,182.0 718.1,182.0 718.2,182.0 718.4,182.0 718.6,182.0 718.7,182.0 718.9,182.0 719.0,182.0 719.2,182.0 719.4,182.0 719.5,182.0 719.7,182.0 719.9,182.0 720.0,182.0 720.2,182.0 720.4,182.0 720.5,182.0 720.7,182.0 720.8,182.0 721.0,182.0 721.2,182.0 721.3,182.0 721.5,182.0 721.7,182.0 721.8,182.0 722.0,182.0 722.2,182.0 722.3,182.0 722.5,182.0 722.6,182.0 722.8,182.0 723.0,182.0 723.1,182.0 723.3,182.0 723.5,182.0 723.6,182.0 723.8,182.0 724.0,182.0 724.1,182.0 724.3,182.0 724.4,182.0 724.6,182.0 724.8,182.0 724.9,182.0 725.1,182.0 725.3,182.0 725.4,182.0 725.6,182.0 725.8,182.0 725.9,182.0 726.1,182.0 726.2,182.0 726.4,182.0 726.6,182.0 726.7,182.0 726.9,182.0 727.1,182.0 727.2,182.0 727.4,182.0 727.6,182.0 727.7,182.0 727.9,182.0 728.0,182.0 728.2,182.0 728.4,182.0 728.5,182.0 728.7,182.0 728.9,182.0 729.0,182.0 729.2,182.0 729.4,182.0 729.5,182.0 729.7,182.0 729.8,182.0 730.0,182.0 730.2,182.0 730.3,182.0 730.5,182.0 730.7,182.0 730.8,182.0 731.0,182.0 731.2,182.0 731.3,182.0 731.5,182.0 731.6,182.0 731.8,182.0 732.0,182.0 732.1,182.0 732.3,182.0 732.5,182.0 732.6,182.0 732.8,182.0 733.0,182.0 733.1,182.0 733.3,182.0 733.4,182.0 733.6,182.0 733.8,182.0 733.9,182.0 734.1,182.0 734.3,182.0 734.4,182.0 734.6,182.0 734.8,182.0 734.9,182.0 735.1,182.0 735.2,182.0 735.4,182.0 735.6,182.0 735.7,182.0 735.9,182.0 736.1,182.0 736.2,182.0 736.4,182.0 736.6,182.0 736.7,182.0 736.9,182.0 737.0,182.0 737.2,182.0 737.4,182.0 737.5,182.0 737.7,182.0 737.9,182.0 738.0,182.0 738.2,182.0 738.4,182.0 738.5,182.0 738.7,182.0 738.8,182.0 739.0,182.0 739.2,182.0 739.3,182.0 739.5,182.0 739.7,182.0 739.8,182.0 740.0,182.0 740.2,182.0 740.3,182.0 740.5,182.0 740.6,182.0 740.8,182.0 741.0,182.0 741.1,182.0 741.3,182.0 741.5,182.0 741.6,182.0 741.8,182.0 742.0,182.0 742.1,182.0 742.3,182.0 742.4,182.0 742.6,182.0 742.8,182.0 742.9,182.0 743.1,182.0 743.3,182.0 743.4,182.0 743.6,182.0 743.8,182.0 743.9,182.0 744.1,182.0 744.3,182.0 744.4,182.0 744.6,182.0 744.7,182.0 744.9,182.0 745.1,182.0 745.2,182.0 745.4,182.0 745.6,182.0 745.7,182.0 745.9,182.0 746.1,182.0 746.2,182.0 746.4,182.0 746.5,182.0 746.7,182.0 746.9,182.0 747.0,182.0 747.2,182.0 747.4,182.0 747.5,182.0 747.7,182.0 747.9,182.0 748.0,182.0 748.2,182.0 748.3,182.0 748.5,182.0 748.7,182.0 748.8,182.0 749.0,182.0 749.2,182.0 749.3,182.0 749.5,182.0 749.7,182.0 749.8,182.0 750.0,182.0 750.1,182.0 750.3,182.0 750.5,182.0 750.6,182.0 750.8,182.0 751.0,182.0 751.1,182.0 751.3,182.0 751.5,182.0 751.6,182.0 751.8,182.0 751.9,182.0 752.1,182.0 752.3,182.0 752.4,182.0 752.6,182.0 752.8,182.0 752.9,182.0 753.1,182.0 753.3,182.0 753.4,182.0 753.6,182.0 753.7,182.0 753.9,182.0 754.1,182.0 754.2,182.0 754.4,182.0 754.6,182.0 754.7,182.0 754.9,182.0 755.1,182.0 755.2,182.0 755.4,182.0 755.5,182.0 755.7,182.0 755.9,182.0 756.0,182.0 756.2,182.0 756.4,182.0 756.5,182.0 756.7,182.0 756.9,182.0 757.0,182.0 757.2,182.0 757.3,182.0 757.5,182.0 757.7,182.0 757.8,182.0 758.0,182.0 758.2,182.0 758.3,182.0 758.5,182.0 758.7,182.0 758.8,182.0 759.0,182.0 759.1,182.0 759.3,182.0 759.5,182.0 759.6,182.0 759.8,182.0 760.0,182.0 760.1,182.0 760.3,182.0 760.5,182.0 760.6,182.0 760.8,182.0 760.9,182.0 761.1,182.0 761.3,182.0 761.4,182.0 761.6,182.0 761.8,182.0 761.9,182.0 762.1,182.0 762.3,182.0 762.4,182.0 762.6,182.0 762.7,182.0 762.9,182.0 763.1,182.0 763.2,182.0 763.4,182.0 763.6,182.0 763.7,182.0 763.9,182.0 764.1,182.0 764.2,182.0 764.4,182.0 764.5,182.0 764.7,182.0 764.9,182.0 765.0,182.0 765.2,182.0 765.4,182.0 765.5,182.0 765.7,182.0 765.9,182.0 766.0,182.0 766.2,182.0 766.3,182.0 766.5,182.0 766.7,182.0 766.8,182.0 767.0,182.0 767.2,182.0 767.3,182.0 767.5,182.0 767.7,182.0 767.8,182.0 768.0,182.0 768.1,182.0 768.3,182.0 768.5,182.0 768.6,182.0 768.8,182.0 769.0,182.0 769.1,182.0 769.3,182.0 769.5,182.0 769.6,182.0 769.8,182.0 769.9,182.0 770.1,182.0 770.3,182.0 770.4,182.0 770.6,182.0 770.8,182.0 770.9,182.0 771.1,182.0 771.3,182.0 771.4,182.0 771.6,182.0 771.7,182.0 771.9,182.0 772.1,182.0 772.2,182.0 772.4,182.0 772.6,182.0 772.7,182.0 772.9,182.0 773.1,182.0 773.2,182.0 773.4,182.0 773.5,182.0 773.7,182.0 773.9,182.0 774.0,182.0 774.2,182.0 774.4,182.0 774.5,182.0 774.7,182.0 774.9,182.0 775.0,182.0 775.2,182.0 775.3,182.0 775.5,182.0 775.7,182.0 775.8,182.0 776.0,182.0 776.2,182.0 776.3,182.0 776.5,182.0 776.7,182.0 776.8,182.0 777.0,182.0 777.1,182.0 777.3,182.0 777.5,182.0 777.6,182.0 777.8,182.0 778.0,182.0 778.1,182.0 778.3,182.0 778.5,182.0 778.6,182.0 778.8,182.0 778.9,182.0 779.1,182.0 779.3,182.0 779.4,182.0 779.6,182.0 779.8,182.0 779.9,182.0 780.1,182.0 780.3,182.0 780.4,182.0 780.6,182.0 780.7,182.0 780.9,182.0 781.1,182.0 781.2,182.0 781.4,182.0 781.6,182.0 781.7,182.0 781.9,182.0 782.1,182.0 782.2,182.0 782.4,182.0 782.5,182.0 782.7,182.0 782.9,182.0 783.0,182.0 783.2,182.0 783.4,182.0 783.5,182.0 783.7,182.0 783.9,182.0 784.0,182.0 784.2,182.0 784.3,182.0 784.5,182.0 784.7,182.0 784.8,182.0 785.0,182.0" fill="none" stroke="#4a90d9" stroke-width="1.5" stroke-linejoin="round"/>
  <text x="209.5" y="214" text-anchor="middle" font-size="11" fill="#6b7280">n / N</text>
  <text x="617.5" y="214" text-anchor="middle" font-size="11" fill="#6b7280">Normalized frequency (× Fₛ)</text>
</svg>
