<svg xmlns="http://www.w3.org/2000/svg" viewBox="0 0 560 190" width="560" height="190" style="font-family:system-ui,-apple-system,sans-serif">
  <rect width="560" height="190" fill="#fafafa" rx="6"/>
  <line x1="52" y1="152.0" x2="257" y2="152.0" stroke="#e5e7eb" stroke-width="0.5"/>
  <text x="48" y="155.0" text-anchor="end" font-size="7.5" fill="#6b7280">0</text>
  <line x1="52" y1="82.0" x2="257" y2="82.0" stroke="#e5e7eb" stroke-width="0.5"/>
  <text x="48" y="85.0" text-anchor="end" font-size="7.5" fill="#6b7280">0.5</text>
  <line x1="52" y1="12.0" x2="257" y2="12.0" stroke="#e5e7eb" stroke-width="0.5"/>
  <text x="48" y="15.0" text-anchor="end" font-size="7.5" fill="#6b7280">1</text>
  <line x1="52.0" y1="12" x2="52.0" y2="152" stroke="#e5e7eb" stroke-width="0.5"/>
  <text x="52.0" y="164" text-anchor="middle" font-size="7.5" fill="#6b7280">0</text>
  <line x1="154.5" y1="12" x2="154.5" y2="152" stroke="#e5e7eb" stroke-width="0.5"/>
  <text x="154.5" y="164" text-anchor="middle" font-size="7.5" fill="#6b7280">0.5</text>
  <line x1="257.0" y1="12" x2="257.0" y2="152" stroke="#e5e7eb" stroke-width="0.5"/>
  <text x="257.0" y="164" text-anchor="middle" font-size="7.5" fill="#6b7280">1</text>
  <line x1="52" y1="12" x2="52" y2="152" stroke="#d1d5db" stroke-width="0.75"/>
  <line x1="52" y1="152" x2="257" y2="152" stroke="#d1d5db" stroke-width="0.75"/>
  <path d="M52.0,152.0 52.0,152.0 52.8,150.3 53.6,148.6 54.4,146.8 55.2,145.1 56.0,143.4 56.8,141.7 57.6,139.9 58.4,138.2 59.2,136.5 60.0,134.8 60.8,133.1 61.6,131.4 62.5,129.7 63.3,128.0 64.1,126.3 64.9,124.6 65.7,122.9 66.5,121.2 67.3,119.5 68.1,117.9 68.9,116.2 69.7,114.5 70.5,112.9 71.3,111.2 72.1,109.6 72.9,107.9 73.7,106.3 74.5,104.7 75.3,103.0 76.1,101.4 76.9,99.8 77.7,98.2 78.5,96.6 79.3,95.1 80.1,93.5 80.9,91.9 81.7,90.4 82.5,88.8 83.4,87.3 84.2,85.8 85.0,84.3 85.8,82.7 86.6,81.3 87.4,79.8 88.2,78.3 89.0,76.8 89.8,75.4 90.6,74.0 91.4,72.5 92.2,71.1 93.0,69.7 93.8,68.3 94.6,66.9 95.4,65.6 96.2,64.2 97.0,62.9 97.8,61.6 98.6,60.3 99.4,59.0 100.2,57.7 101.0,56.4 101.8,55.2 102.6,53.9 103.5,52.7 104.3,51.5 105.1,50.3 105.9,49.1 106.7,48.0 107.5,46.8 108.3,45.7 109.1,44.6 109.9,43.5 110.7,42.4 111.5,41.3 112.3,40.3 113.1,39.2 113.9,38.2 114.7,37.2 115.5,36.3 116.3,35.3 117.1,34.4 117.9,33.4 118.7,32.5 119.5,31.6 120.3,30.8 121.1,29.9 121.9,29.1 122.7,28.3 123.5,27.5 124.4,26.7 125.2,25.9 126.0,25.2 126.8,24.5 127.6,23.8 128.4,23.1 129.2,22.4 130.0,21.8 130.8,21.1 131.6,20.5 132.4,20.0 133.2,19.4 134.0,18.9 134.8,18.3 135.6,17.8 136.4,17.3 137.2,16.9 138.0,16.4 138.8,16.0 139.6,15.6 140.4,15.2 141.2,14.9 142.0,14.5 142.8,14.2 143.6,13.9 144.5,13.7 145.3,13.4 146.1,13.2 146.9,13.0 147.7,12.8 148.5,12.6 149.3,12.4 150.1,12.3 150.9,12.2 151.7,12.1 152.5,12.1 153.3,12.0 154.1,12.0 154.9,12.0 155.7,12.0 156.5,12.1 157.3,12.1 158.1,12.2 158.9,12.3 159.7,12.4 160.5,12.6 161.3,12.8 162.1,13.0 162.9,13.2 163.7,13.4 164.5,13.7 165.4,13.9 166.2,14.2 167.0,14.5 167.8,14.9 168.6,15.2 169.4,15.6 170.2,16.0 171.0,16.4 171.8,16.9 172.6,17.3 173.4,17.8 174.2,18.3 175.0,18.9 175.8,19.4 176.6,20.0 177.4,20.5 178.2,21.1 179.0,21.8 179.8,22.4 180.6,23.1 181.4,23.8 182.2,24.5 183.0,25.2 183.8,25.9 184.6,26.7 185.5,27.5 186.3,28.3 187.1,29.1 187.9,29.9 188.7,30.8 189.5,31.6 190.3,32.5 191.1,33.4 191.9,34.4 192.7,35.3 193.5,36.3 194.3,37.2 195.1,38.2 195.9,39.2 196.7,40.3 197.5,41.3 198.3,42.4 199.1,43.5 199.9,44.6 200.7,45.7 201.5,46.8 202.3,48.0 203.1,49.1 203.9,50.3 204.7,51.5 205.5,52.7 206.4,53.9 207.2,55.2 208.0,56.4 208.8,57.7 209.6,59.0 210.4,60.3 211.2,61.6 212.0,62.9 212.8,64.2 213.6,65.6 214.4,66.9 215.2,68.3 216.0,69.7 216.8,71.1 217.6,72.5 218.4,74.0 219.2,75.4 220.0,76.8 220.8,78.3 221.6,79.8 222.4,81.3 223.2,82.7 224.0,84.3 224.8,85.8 225.6,87.3 226.5,88.8 227.3,90.4 228.1,91.9 228.9,93.5 229.7,95.1 230.5,96.6 231.3,98.2 232.1,99.8 232.9,101.4 233.7,103.0 234.5,104.7 235.3,106.3 236.1,107.9 236.9,109.6 237.7,111.2 238.5,112.9 239.3,114.5 240.1,116.2 240.9,117.9 241.7,119.5 242.5,121.2 243.3,122.9 244.1,124.6 244.9,126.3 245.7,128.0 246.5,129.7 247.4,131.4 248.2,133.1 249.0,134.8 249.8,136.5 250.6,138.2 251.4,139.9 252.2,141.7 253.0,143.4 253.8,145.1 254.6,146.8 255.4,148.6 256.2,150.3 257.0,152.0 L257.0,152.0 Z" fill="#4a90d9" fill-opacity="0.06"/>
  <polyline points="52.0,152.0 52.8,150.3 53.6,148.6 54.4,146.8 55.2,145.1 56.0,143.4 56.8,141.7 57.6,139.9 58.4,138.2 59.2,136.5 60.0,134.8 60.8,133.1 61.6,131.4 62.5,129.7 63.3,128.0 64.1,126.3 64.9,124.6 65.7,122.9 66.5,121.2 67.3,119.5 68.1,117.9 68.9,116.2 69.7,114.5 70.5,112.9 71.3,111.2 72.1,109.6 72.9,107.9 73.7,106.3 74.5,104.7 75.3,103.0 76.1,101.4 76.9,99.8 77.7,98.2 78.5,96.6 79.3,95.1 80.1,93.5 80.9,91.9 81.7,90.4 82.5,88.8 83.4,87.3 84.2,85.8 85.0,84.3 85.8,82.7 86.6,81.3 87.4,79.8 88.2,78.3 89.0,76.8 89.8,75.4 90.6,74.0 91.4,72.5 92.2,71.1 93.0,69.7 93.8,68.3 94.6,66.9 95.4,65.6 96.2,64.2 97.0,62.9 97.8,61.6 98.6,60.3 99.4,59.0 100.2,57.7 101.0,56.4 101.8,55.2 102.6,53.9 103.5,52.7 104.3,51.5 105.1,50.3 105.9,49.1 106.7,48.0 107.5,46.8 108.3,45.7 109.1,44.6 109.9,43.5 110.7,42.4 111.5,41.3 112.3,40.3 113.1,39.2 113.9,38.2 114.7,37.2 115.5,36.3 116.3,35.3 117.1,34.4 117.9,33.4 118.7,32.5 119.5,31.6 120.3,30.8 121.1,29.9 121.9,29.1 122.7,28.3 123.5,27.5 124.4,26.7 125.2,25.9 126.0,25.2 126.8,24.5 127.6,23.8 128.4,23.1 129.2,22.4 130.0,21.8 130.8,21.1 131.6,20.5 132.4,20.0 133.2,19.4 134.0,18.9 134.8,18.3 135.6,17.8 136.4,17.3 137.2,16.9 138.0,16.4 138.8,16.0 139.6,15.6 140.4,15.2 141.2,14.9 142.0,14.5 142.8,14.2 143.6,13.9 144.5,13.7 145.3,13.4 146.1,13.2 146.9,13.0 147.7,12.8 148.5,12.6 149.3,12.4 150.1,12.3 150.9,12.2 151.7,12.1 152.5,12.1 153.3,12.0 154.1,12.0 154.9,12.0 155.7,12.0 156.5,12.1 157.3,12.1 158.1,12.2 158.9,12.3 159.7,12.4 160.5,12.6 161.3,12.8 162.1,13.0 162.9,13.2 163.7,13.4 164.5,13.7 165.4,13.9 166.2,14.2 167.0,14.5 167.8,14.9 168.6,15.2 169.4,15.6 170.2,16.0 171.0,16.4 171.8,16.9 172.6,17.3 173.4,17.8 174.2,18.3 175.0,18.9 175.8,19.4 176.6,20.0 177.4,20.5 178.2,21.1 179.0,21.8 179.8,22.4 180.6,23.1 181.4,23.8 182.2,24.5 183.0,25.2 183.8,25.9 184.6,26.7 185.5,27.5 186.3,28.3 187.1,29.1 187.9,29.9 188.7,30.8 189.5,31.6 190.3,32.5 191.1,33.4 191.9,34.4 192.7,35.3 193.5,36.3 194.3,37.2 195.1,38.2 195.9,39.2 196.7,40.3 197.5,41.3 198.3,42.4 199.1,43.5 199.9,44.6 200.7,45.7 201.5,46.8 202.3,48.0 203.1,49.1 203.9,50.3 204.7,51.5 205.5,52.7 206.4,53.9 207.2,55.2 208.0,56.4 208.8,57.7 209.6,59.0 210.4,60.3 211.2,61.6 212.0,62.9 212.8,64.2 213.6,65.6 214.4,66.9 215.2,68.3 216.0,69.7 216.8,71.1 217.6,72.5 218.4,74.0 219.2,75.4 220.0,76.8 220.8,78.3 221.6,79.8 222.4,81.3 223.2,82.7 224.0,84.3 224.8,85.8 225.6,87.3 226.5,88.8 227.3,90.4 228.1,91.9 228.9,93.5 229.7,95.1 230.5,96.6 231.3,98.2 232.1,99.8 232.9,101.4 233.7,103.0 234.5,104.7 235.3,106.3 236.1,107.9 236.9,109.6 237.7,111.2 238.5,112.9 239.3,114.5 240.1,116.2 240.9,117.9 241.7,119.5 242.5,121.2 243.3,122.9 244.1,124.6 244.9,126.3 245.7,128.0 246.5,129.7 247.4,131.4 248.2,133.1 249.0,134.8 249.8,136.5 250.6,138.2 251.4,139.9 252.2,141.7 253.0,143.4 253.8,145.1 254.6,146.8 255.4,148.6 256.2,150.3 257.0,152.0" fill="none" stroke="#4a90d9" stroke-width="1.2" stroke-linejoin="round"/>
  <line x1="322" y1="12.0" x2="527" y2="12.0" stroke="#e5e7eb" stroke-width="0.5"/>
  <text x="318" y="15.0" text-anchor="end" font-size="7.5" fill="#6b7280">0</text>
  <line x1="322" y1="58.7" x2="527" y2="58.7" stroke="#e5e7eb" stroke-width="0.5"/>
  <text x="318" y="61.7" text-anchor="end" font-size="7.5" fill="#6b7280">-40</text>
  <line x1="322" y1="105.3" x2="527" y2="105.3" stroke="#e5e7eb" stroke-width="0.5"/>
  <text x="318" y="108.3" text-anchor="end" font-size="7.5" fill="#6b7280">-80</text>
  <line x1="322" y1="152.0" x2="527" y2="152.0" stroke="#e5e7eb" stroke-width="0.5"/>
  <text x="318" y="155.0" text-anchor="end" font-size="7.5" fill="#6b7280">-120</text>
  <line x1="322.0" y1="12" x2="322.0" y2="152" stroke="#e5e7eb" stroke-width="0.5"/>
  <text x="322.0" y="164" text-anchor="middle" font-size="7.5" fill="#6b7280">0</text>
  <line x1="363.0" y1="12" x2="363.0" y2="152" stroke="#e5e7eb" stroke-width="0.5"/>
  <text x="363.0" y="164" text-anchor="middle" font-size="7.5" fill="#6b7280">0.1</text>
  <line x1="404.0" y1="12" x2="404.0" y2="152" stroke="#e5e7eb" stroke-width="0.5"/>
  <text x="404.0" y="164" text-anchor="middle" font-size="7.5" fill="#6b7280">0.2</text>
  <line x1="445.0" y1="12" x2="445.0" y2="152" stroke="#e5e7eb" stroke-width="0.5"/>
  <text x="445.0" y="164" text-anchor="middle" font-size="7.5" fill="#6b7280">0.3</text>
  <line x1="486.0" y1="12" x2="486.0" y2="152" stroke="#e5e7eb" stroke-width="0.5"/>
  <text x="486.0" y="164" text-anchor="middle" font-size="7.5" fill="#6b7280">0.4</text>
  <line x1="527.0" y1="12" x2="527.0" y2="152" stroke="#e5e7eb" stroke-width="0.5"/>
  <text x="527.0" y="164" text-anchor="middle" font-size="7.5" fill="#6b7280">0.5</text>
  <line x1="322" y1="12" x2="322" y2="152" stroke="#d1d5db" stroke-width="0.75"/>
  <line x1="322" y1="152" x2="527" y2="152" stroke="#d1d5db" stroke-width="0.75"/>
  <polyline points="322.0,12.0 322.1,12.0 322.2,12.1 322.3,12.3 322.4,12.6 322.5,12.9 322.6,13.3 322.7,13.8 322.8,14.4 322.9,15.1 323.0,15.9 323.1,16.7 323.2,17.7 323.3,18.8 323.4,20.1 323.5,21.5 323.6,23.0 323.7,24.8 323.8,26.9 323.9,29.2 324.0,32.1 324.1,35.6 324.2,40.3 324.3,47.7 324.4,73.5 324.5,51.5 324.6,45.0 324.7,41.9 324.8,40.2 324.9,39.2 325.0,38.9 325.1,38.9 325.2,39.4 325.3,40.2 325.4,41.4 325.5,43.0 325.6,45.1 325.7,48.0 325.8,52.1 325.9,58.7 326.0,79.4 326.1,63.0 326.2,55.7 326.3,52.1 326.4,50.0 326.5,48.7 326.6,48.0 326.7,47.8 326.8,47.9 326.9,48.5 327.0,49.4 327.1,50.8 327.2,52.7 327.3,55.4 327.4,59.2 327.5,65.4 327.6,83.0 327.7,70.6 327.8,62.8 327.9,58.9 328.0,56.6 328.1,55.1 328.2,54.3 328.3,53.9 328.4,53.9 328.5,54.3 328.6,55.1 328.7,56.4 328.8,58.2 328.9,60.6 329.0,64.2 329.1,70.1 329.2,85.7 329.3,76.5 329.4,68.1 329.5,64.0 329.6,61.6 329.7,60.0 329.8,59.0 329.9,58.6 330.0,58.5 330.1,58.8 330.2,59.5 330.3,60.7 330.4,62.4 330.5,64.7 330.6,68.2 330.7,73.8 330.8,87.7 330.9,81.5 331.0,72.5 331.1,68.2 331.2,65.6 331.3,63.9 331.4,62.9 331.5,62.4 331.6,62.2 331.7,62.5 331.8,63.1 331.9,64.2 332.0,65.8 332.1,68.1 332.2,71.4 332.3,76.8 332.4,89.5 332.5,85.9 332.6,76.2 332.7,71.7 332.8,69.0 332.9,67.3 333.0,66.2 333.1,65.6 333.2,65.4 333.3,65.6 333.4,66.2 333.5,67.2 333.6,68.7 333.7,70.9 333.8,74.2 333.9,79.3 334.0,90.9 334.1,89.9 334.2,79.4 334.3,74.8 334.4,72.0 334.5,70.1 334.6,69.0 334.7,68.3 334.8,68.1 334.9,68.2 335.0,68.8 335.1,69.8 335.2,71.2 335.3,73.4 335.4,76.5 335.5,81.5 335.6,92.2 335.7,93.7 335.8,82.4 335.9,77.5 336.0,74.6 336.1,72.7 336.2,71.5 336.3,70.8 336.4,70.5 336.5,70.6 336.6,71.1 336.7,72.0 336.8,73.5 336.9,75.5 337.0,78.6 337.1,83.4 337.2,93.3 337.3,97.4 337.4,85.0 337.5,79.9 337.6,76.9 337.7,75.0 337.8,73.7 337.9,73.0 338.0,72.6 338.1,72.7 338.2,73.2 338.3,74.1 338.4,75.4 338.5,77.5 338.6,80.4 338.7,85.0 338.8,94.3 338.9,101.1 339.0,87.5 339.1,82.2 339.2,79.1 339.3,77.0 339.4,75.7 339.5,74.9 339.6,74.6 339.7,74.6 339.8,75.0 339.9,75.9 340.0,77.2 340.1,79.2 340.2,82.0 340.3,86.5 340.4,95.3 340.5,105.0 340.6,89.8 340.7,84.2 340.8,81.0 340.9,78.9 341.0,77.6 341.1,76.7 341.2,76.3 341.3,76.4 341.4,76.8 341.5,77.6 341.6,78.9 341.7,80.7 341.8,83.5 341.9,87.8 342.0,96.1 342.1,109.2 342.2,91.9 342.3,86.2 342.4,82.8 342.5,80.7 342.6,79.3 342.7,78.4 342.8,78.0 342.9,78.0 343.0,78.3 343.1,79.1 343.2,80.3 343.3,82.2 343.4,84.9 343.5,89.1 343.6,96.9 343.7,114.3 343.8,94.0 343.9,88.0 344.0,84.5 344.1,82.3 344.2,80.9 344.3,80.0 344.4,79.5 344.5,79.4 344.6,79.8 344.7,80.5 344.8,81.7 344.9,83.5 345.0,86.1 345.1,90.2 345.2,97.6 345.3,121.0 345.4,96.0 345.5,89.7 345.6,86.1 345.7,83.8 345.8,82.3 345.9,81.4 346.0,80.9 346.1,80.8 346.2,81.1 346.3,81.8 346.4,83.0 346.5,84.7 346.6,87.3 346.7,91.2 346.8,98.3 346.9,134.4 347.0,97.9 347.1,91.3 347.2,87.6 347.3,85.3 347.4,83.7 347.5,82.7 347.6,82.2 347.7,82.1 347.8,82.4 347.9,83.0 348.0,84.2 348.1,85.9 348.2,88.4 348.3,92.2 348.4,98.9 348.5,133.1 348.6,99.7 348.7,92.8 348.8,89.0 348.9,86.6 349.0,85.0 349.1,84.0 349.2,83.5 349.3,83.3 349.4,83.5 349.5,84.2 349.6,85.3 349.7,86.9 349.8,89.4 349.9,93.1 350.0,99.5 350.1,124.0 350.2,101.6 350.3,94.3 350.4,90.4 350.5,87.9 350.6,86.3 350.7,85.2 350.8,84.6 350.9,84.4 351.0,84.7 351.1,85.3 351.2,86.3 351.3,88.0 351.4,90.3 351.5,93.9 351.6,100.0 351.7,120.0 351.8,103.4 351.9,95.7 352.0,91.7 352.1,89.1 352.2,87.4 352.3,86.3 352.4,85.7 352.5,85.5 352.6,85.7 352.7,86.3 352.8,87.3 352.9,88.9 353.0,91.2 353.1,94.7 353.2,100.6 353.3,117.8 353.4,105.2 353.5,97.1 353.6,92.9 353.7,90.3 353.8,88.6 353.9,87.4 354.0,86.8 354.1,86.5 354.2,86.7 354.3,87.3 354.4,88.3 354.5,89.8 354.6,92.0 354.7,95.4 354.8,101.1 354.9,116.2 355.0,107.1 355.1,98.4 355.2,94.1 355.3,91.4 355.4,89.6 355.5,88.5 355.6,87.8 355.7,87.5 355.8,87.6 355.9,88.2 356.0,89.1 356.1,90.6 356.3,92.8 356.4,96.1 356.5,101.5 356.6,115.2 356.7,108.9 356.8,99.7 356.9,95.3 357.0,92.5 357.1,90.6 357.2,89.4 357.3,88.7 357.4,88.4 357.5,88.5 357.6,89.0 357.7,90.0 357.8,91.4 357.9,93.6 358.0,96.7 358.1,102.0 358.2,114.4 358.3,110.9 358.4,101.0 358.5,96.4 358.6,93.5 358.7,91.6 358.8,90.4 358.9,89.7 359.0,89.3 359.1,89.4 359.2,89.9 359.3,90.8 359.4,92.2 359.5,94.3 359.6,97.4 359.7,102.4 359.8,113.8 359.9,112.8 360.0,102.2 360.1,97.4 360.2,94.5 360.3,92.6 360.4,91.3 360.5,90.5 360.6,90.2 360.7,90.2 360.8,90.7 360.9,91.5 361.0,92.9 361.1,94.9 361.2,98.0 361.3,102.8 361.4,113.4 361.5,114.9 361.6,103.5 361.7,98.5 361.8,95.5 361.9,93.5 362.0,92.2 362.1,91.4 362.2,91.0 362.3,91.0 362.4,91.4 362.5,92.3 362.6,93.6 362.7,95.6 362.8,98.5 362.9,103.2 363.0,113.1 363.1,117.2 363.2,104.7 363.3,99.5 363.4,96.4 363.5,94.4 363.6,93.0 363.7,92.2 363.8,91.8 363.9,91.8 364.0,92.2 364.1,93.0 364.2,94.3 364.3,96.2 364.4,99.1 364.5,103.6 364.6,112.8 364.7,119.7 364.8,105.9 364.9,100.5 365.0,97.3 365.1,95.2 365.2,93.8 365.3,93.0 365.4,92.5 365.5,92.5 365.6,92.9 365.7,93.6 365.8,94.9 365.9,96.8 366.0,99.6 366.1,103.9 366.2,112.6 366.3,122.5 366.4,107.1 366.5,101.5 366.6,98.2 366.7,96.0 366.8,94.6 366.9,93.7 367.0,93.3 367.1,93.2 367.2,93.5 367.3,94.3 367.4,95.5 367.5,97.3 367.6,100.1 367.7,104.3 367.8,112.5 367.9,125.8 368.0,108.3 368.1,102.4 368.2,99.0 368.3,96.8 368.4,95.4 368.5,94.4 368.6,94.0 368.7,93.9 368.8,94.2 368.9,94.9 369.0,96.1 369.1,97.9 369.2,100.5 369.3,104.6 369.4,112.4 369.5,130.0 369.6,109.4 369.7,103.4 369.8,99.9 369.9,97.6 370.0,96.1 370.1,95.1 370.2,94.6 370.3,94.5 370.4,94.8 370.5,95.5 370.6,96.7 370.7,98.4 370.8,101.0 370.9,105.0 371.0,112.3 371.1,136.2 371.2,110.6 371.3,104.3 371.4,100.7 371.5,98.4 371.6,96.8 371.7,95.8 371.8,95.3 371.9,95.1 372.0,95.4 372.1,96.1 372.2,97.2 372.3,98.9 372.4,101.4 372.5,105.3 372.6,112.3 372.7,150.0 372.8,111.9 372.9,105.2 373.0,101.5 373.1,99.1 373.2,97.5 373.3,96.5 373.4,95.9 373.5,95.8 373.6,96.0 373.7,96.6 373.8,97.7 373.9,99.4 374.0,101.8 374.1,105.6 374.2,112.2 374.3,145.4 374.4,113.1 374.5,106.1 374.6,102.3 374.7,99.8 374.8,98.2 374.9,97.1 375.0,96.5 375.1,96.3 375.2,96.6 375.3,97.2 375.4,98.2 375.5,99.8 375.6,102.2 375.7,105.9 375.8,112.2 375.9,136.3 376.0,114.3 376.1,107.0 376.2,103.0 376.3,100.5 376.4,98.8 376.5,97.8 376.6,97.1 376.7,96.9 376.8,97.1 376.9,97.7 377.0,98.7 377.1,100.3 377.2,102.6 377.3,106.1 377.4,112.2 377.5,132.0 377.6,115.6 377.7,107.9 377.8,103.8 377.9,101.2 378.0,99.5 378.1,98.4 378.2,97.7 378.3,97.5 378.4,97.6 378.5,98.2 378.6,99.2 378.7,100.7 378.8,103.0 378.9,106.4 379.0,112.3 379.1,129.3 379.2,117.0 379.3,108.7 379.4,104.5 379.5,101.9 379.6,100.1 379.7,99.0 379.8,98.3 379.9,98.0 380.0,98.1 380.1,98.7 380.2,99.6 380.3,101.1 380.4,103.3 380.5,106.7 380.6,112.3 380.7,127.3 380.8,118.3 380.9,109.6 381.0,105.3 381.1,102.5 381.2,100.7 381.3,99.5 381.4,98.8 381.5,98.5 381.6,98.6 381.7,99.1 381.8,100.1 381.9,101.5 382.0,103.7 382.1,106.9 382.2,112.3 382.3,125.9 382.4,119.8 382.5,110.5 382.6,106.0 382.7,103.2 382.8,101.3 382.9,100.1 383.0,99.4 383.1,99.0 383.2,99.1 383.3,99.6 383.4,100.5 383.5,101.9 383.6,104.0 383.7,107.2 383.8,112.4 383.9,124.7 384.0,121.3 384.1,111.4 384.2,106.7 384.3,103.8 384.4,101.9 384.5,100.6 384.6,99.9 384.7,99.5 384.8,99.6 384.9,100.0 385.0,100.9 385.1,102.3 385.2,104.3 385.3,107.4 385.4,112.4 385.5,123.8 385.6,122.9 385.7,112.2 385.8,107.4 385.9,104.4 386.0,102.5 386.1,101.2 386.2,100.4 386.3,100.0 386.4,100.0 386.5,100.5 386.6,101.3 386.7,102.7 386.8,104.7 386.9,107.6 387.0,112.5 387.1,123.0 387.2,124.7 387.3,113.1 387.4,108.1 387.5,105.1 387.6,103.0 387.7,101.7 387.8,100.9 387.9,100.5 388.0,100.5 388.1,100.9 388.2,101.7 388.3,103.0 388.4,105.0 388.5,107.9 388.6,112.5 388.7,122.3 388.8,126.6 388.9,114.0 389.0,108.8 389.1,105.7 389.2,103.6 389.3,102.2 389.4,101.4 389.5,100.9 389.6,100.9 389.7,101.3 389.8,102.1 389.9,103.4 390.0,105.3 390.1,108.1 390.2,112.6 390.3,121.8 390.4,128.8 390.5,114.9 390.6,109.5 390.7,106.3 390.8,104.1 390.9,102.7 391.0,101.8 391.1,101.4 391.2,101.3 391.3,101.7 391.4,102.4 391.5,103.7 391.6,105.5 391.7,108.3 391.8,112.7 391.9,121.3 392.0,131.3 392.1,115.8 392.2,110.2 392.3,106.8 392.4,104.7 392.5,103.2 392.6,102.3 392.7,101.8 392.8,101.8 392.9,102.1 393.0,102.8 393.1,104.0 393.2,105.8 393.3,108.5 393.4,112.7 393.5,120.9 393.6,134.4 393.7,116.7 393.8,110.8 393.9,107.4 394.0,105.2 394.1,103.7 394.2,102.8 394.3,102.3 394.4,102.2 394.5,102.4 394.6,103.1 394.7,104.3 394.8,106.1 394.9,108.7 395.0,112.8 395.1,120.5 395.2,138.4 395.3,117.6 395.4,111.5 395.5,108.0 395.6,105.7 395.7,104.2 395.8,103.2 395.9,102.7 396.0,102.6 396.1,102.8 396.2,103.5 396.3,104.6 396.4,106.4 396.5,108.9 396.6,112.9 396.7,120.2 396.8,144.6 396.9,118.6 397.0,112.2 397.1,108.6 397.2,106.2 397.3,104.7 397.4,103.6 397.5,103.1 397.6,102.9 397.7,103.2 397.8,103.8 397.9,104.9 398.0,106.6 398.1,109.1 398.2,112.9 398.3,119.9 398.4,152.0 398.5,119.6 398.6,112.8 398.7,109.1 398.8,106.7 398.9,105.1 399.0,104.1 399.1,103.5 399.2,103.3 399.3,103.5 399.4,104.1 399.5,105.2 399.6,106.9 399.7,109.3 399.8,113.0 399.9,119.6 400.0,151.9 400.1,120.6 400.2,113.5 400.3,109.7 400.4,107.2 400.5,105.6 400.6,104.5 400.7,103.9 400.8,103.7 400.9,103.9 401.0,104.5 401.1,105.5 401.2,107.1 401.3,109.5 401.4,113.1 401.5,119.4 401.6,143.1 401.7,121.6 401.8,114.2 401.9,110.2 402.0,107.7 402.1,106.0 402.2,104.9 402.3,104.3 402.4,104.0 402.5,104.2 402.6,104.8 402.7,105.8 402.8,107.3 402.9,109.6 403.0,113.2 403.1,119.2 403.2,138.8 403.3,122.7 403.4,114.9 403.5,110.8 403.6,108.2 403.7,106.4 403.8,105.3 403.9,104.6 404.0,104.4 404.1,104.5 404.2,105.1 404.3,106.0 404.4,107.6 404.5,109.8 404.6,113.2 404.7,119.1 404.8,135.9 404.9,123.8 405.0,115.6 405.1,111.3 405.2,108.7 405.3,106.9 405.4,105.7 405.5,105.0 405.6,104.7 405.7,104.8 405.8,105.4 405.9,106.3 406.0,107.8 406.1,110.0 406.2,113.3 406.3,118.9 406.4,133.8 406.5,125.0 406.6,116.2 406.7,111.9 406.8,109.1 406.9,107.3 407.0,106.1 407.1,105.4 407.2,105.1 407.3,105.2 407.4,105.6 407.5,106.6 407.6,108.0 407.7,110.1 407.8,113.4 407.9,118.7 408.0,132.2 408.1,126.3 408.2,116.9 408.3,112.4 408.4,109.6 408.5,107.7 408.6,106.5 408.7,105.7 408.8,105.4 408.9,105.5 409.0,105.9 409.1,106.8 409.2,108.2 409.3,110.3 409.4,113.4 409.5,118.6 409.6,130.9 409.7,127.6 409.8,117.6 409.9,112.9 410.0,110.1 410.1,108.1 410.2,106.9 410.3,106.1 410.4,105.7 410.5,105.8 410.6,106.2 410.7,107.1 410.8,108.4 410.9,110.5 411.0,113.5 411.1,118.5 411.2,129.8 411.3,129.1 411.4,118.3 411.5,113.5 411.6,110.5 411.7,108.5 411.8,107.2 411.9,106.4 412.0,106.0 412.1,106.1 412.2,106.5 412.3,107.3 412.4,108.6 412.5,110.6 412.6,113.6 412.7,118.4 412.8,128.8 412.9,130.7 413.0,119.0 413.1,114.0 413.2,111.0 413.3,108.9 413.4,107.6 413.5,106.8 413.6,106.3 413.7,106.3 413.8,106.7 413.9,107.5 414.0,108.8 414.1,110.8 414.2,113.7 414.3,118.3 414.4,128.0 414.5,132.5 414.6,119.8 414.7,114.6 414.8,111.4 414.9,109.3 415.0,108.0 415.1,107.1 415.2,106.7 415.3,106.6 415.4,107.0 415.5,107.7 415.6,109.0 415.7,110.9 415.8,113.7 415.9,118.2 416.0,127.3 416.1,134.5 416.2,120.5 416.3,115.1 416.4,111.9 416.5,109.7 416.6,108.3 416.7,107.4 416.8,107.0 416.9,106.9 417.0,107.2 417.1,108.0 417.2,109.2 417.3,111.0 417.4,113.8 417.5,118.1 417.6,126.7 417.7,136.9 417.8,121.3 417.9,115.6 418.0,112.3 418.1,110.1 418.2,108.7 418.3,107.7 418.4,107.2 418.5,107.2 418.6,107.5 418.7,108.2 418.8,109.4 418.9,111.2 419.0,113.9 419.1,118.1 419.2,126.2 419.3,139.9 419.4,122.1 419.5,116.2 419.6,112.7 419.7,110.5 419.8,109.0 419.9,108.0 420.0,107.5 420.1,107.4 420.2,107.7 420.3,108.4 420.4,109.6 420.5,111.3 420.6,113.9 420.7,118.0 420.8,125.7 420.9,143.9 421.0,122.9 421.1,116.7 421.2,113.2 421.3,110.9 421.4,109.3 421.5,108.4 421.6,107.8 421.7,107.7 421.8,107.9 421.9,108.6 422.0,109.7 422.1,111.5 422.2,114.0 422.3,117.9 422.4,125.2 422.5,150.1 422.6,123.7 422.7,117.2 422.8,113.6 422.9,111.3 423.0,109.7 423.1,108.7 423.2,108.1 423.3,107.9 423.4,108.2 423.5,108.8 423.6,109.9 423.7,111.6 423.8,114.1 423.9,117.9 424.0,124.8 424.1,152.0 424.2,124.5 424.3,117.8 424.4,114.1 424.6,111.6 424.7,110.0 424.8,109.0 424.9,108.4 425.0,108.2 425.1,108.4 425.2,109.0 425.3,110.1 425.4,111.7 425.5,114.1 425.6,117.8 425.7,124.4 425.8,152.0 425.9,125.4 426.0,118.3 426.1,114.5 426.2,112.0 426.3,110.3 426.4,109.3 426.5,108.6 426.6,108.4 426.7,108.6 426.8,109.2 426.9,110.2 427.0,111.8 427.1,114.2 427.2,117.8 427.3,124.1 427.4,147.5 427.5,126.3 427.6,118.9 427.7,114.9 427.8,112.4 427.9,110.7 428.0,109.6 428.1,108.9 428.2,108.7 428.3,108.8 428.4,109.4 428.5,110.4 428.6,111.9 428.7,114.2 428.8,117.7 428.9,123.8 429.0,143.1 429.1,127.3 429.2,119.5 429.3,115.4 429.4,112.7 429.5,111.0 429.6,109.8 429.7,109.2 429.8,108.9 429.9,109.0 430.0,109.6 430.1,110.5 430.2,112.1 430.3,114.3 430.4,117.7 430.5,123.5 430.6,140.2 430.7,128.3 430.8,120.0 430.9,115.8 431.0,113.1 431.1,111.3 431.2,110.1 431.3,109.4 431.4,109.1 431.5,109.3 431.6,109.8 431.7,110.7 431.8,112.2 431.9,114.4 432.0,117.7 432.1,123.2 432.2,138.1 432.3,129.4 432.4,120.6 432.5,116.2 432.6,113.5 432.7,111.6 432.8,110.4 432.9,109.7 433.0,109.4 433.1,109.5 433.2,109.9 433.3,110.8 433.4,112.3 433.5,114.4 433.6,117.6 433.7,123.0 433.8,136.3 433.9,130.6 434.0,121.2 434.1,116.7 434.2,113.8 434.3,111.9 434.4,110.7 434.5,109.9 434.6,109.6 434.7,109.7 434.8,110.1 434.9,111.0 435.0,112.4 435.1,114.5 435.2,117.6 435.3,122.8 435.4,134.9 435.5,131.8 435.6,121.8 435.7,117.1 435.8,114.2 435.9,112.3 436.0,111.0 436.1,110.2 436.2,109.8 436.3,109.9 436.4,110.3 436.5,111.1 436.6,112.5 436.7,114.5 436.8,117.6 436.9,122.5 437.0,133.7 437.1,133.2 437.2,122.4 437.3,117.5 437.4,114.5 437.5,112.6 437.6,111.2 437.7,110.4 437.8,110.0 437.9,110.0 438.0,110.4 438.1,111.3 438.2,112.6 438.3,114.6 438.4,117.5 438.5,122.3 438.6,132.7 438.7,134.7 438.8,123.0 438.9,118.0 439.0,114.9 439.1,112.9 439.2,111.5 439.3,110.7 439.4,110.3 439.5,110.2 439.6,110.6 439.7,111.4 439.8,112.7 439.9,114.6 440.0,117.5 440.1,122.1 440.2,131.8 440.3,136.4 440.4,123.6 440.5,118.4 440.6,115.3 440.7,113.2 440.8,111.8 440.9,110.9 441.0,110.5 441.1,110.4 441.2,110.8 441.3,111.5 441.4,112.8 441.5,114.7 441.6,117.5 441.7,122.0 441.8,131.0 441.9,138.4 442.0,124.3 442.1,118.8 442.2,115.6 442.3,113.5 442.4,112.0 442.5,111.1 442.6,110.7 442.7,110.6 442.8,110.9 442.9,111.7 443.0,112.9 443.1,114.7 443.2,117.5 443.3,121.8 443.4,130.3 443.5,140.8 443.6,125.0 443.7,119.3 443.8,116.0 443.9,113.8 444.0,112.3 444.1,111.4 444.2,110.9 444.3,110.8 444.4,111.1 444.5,111.8 444.6,113.0 444.7,114.8 444.8,117.4 444.9,121.6 445.0,129.7 445.1,143.7 445.2,125.7 445.3,119.7 445.4,116.3 445.5,114.1 445.6,112.6 445.7,111.6 445.8,111.1 445.9,111.0 446.0,111.2 446.1,111.9 446.2,113.1 446.3,114.8 446.4,117.4 446.5,121.5 446.6,129.1 446.7,147.7 446.8,126.4 446.9,120.2 447.0,116.7 447.1,114.4 447.2,112.8 447.3,111.8 447.4,111.3 447.5,111.1 447.6,111.4 447.7,112.0 447.8,113.2 447.9,114.9 448.0,117.4 448.1,121.3 448.2,128.6 448.3,152.0 448.4,127.1 448.5,120.7 448.6,117.0 448.7,114.7 448.8,113.1 448.9,112.0 449.0,111.5 449.1,111.3 449.2,111.5 449.3,112.1 449.4,113.2 449.5,114.9 449.6,117.4 449.7,121.2 449.8,128.1 449.9,152.0 450.0,127.9 450.1,121.1 450.2,117.4 450.3,114.9 450.4,113.3 450.5,112.3 450.6,111.7 450.7,111.5 450.8,111.7 450.9,112.3 451.0,113.3 451.1,114.9 451.2,117.4 451.3,121.1 451.4,127.6 451.5,152.0 451.6,128.7 451.7,121.6 451.8,117.7 451.9,115.2 452.0,113.6 452.1,112.5 452.2,111.8 452.3,111.6 452.4,111.8 452.5,112.4 452.6,113.4 452.7,115.0 452.8,117.3 452.9,120.9 453.0,127.2 453.1,150.3 453.2,129.5 453.3,122.1 453.4,118.1 453.5,115.5 453.6,113.8 453.7,112.7 453.8,112.0 453.9,111.8 454.0,111.9 454.1,112.5 454.2,113.5 454.3,115.0 454.4,117.3 454.5,120.8 454.6,126.8 454.7,146.0 454.8,130.4 454.9,122.5 455.0,118.4 455.1,115.8 455.2,114.1 455.3,112.9 455.4,112.2 455.5,111.9 455.6,112.1 455.7,112.6 455.8,113.6 455.9,115.1 456.0,117.3 456.1,120.7 456.2,126.5 456.3,143.0 456.4,131.4 456.5,123.0 456.6,118.8 456.7,116.1 456.8,114.3 456.9,113.1 457.0,112.4 457.1,112.1 457.2,112.2 457.3,112.7 457.4,113.6 457.5,115.1 457.6,117.3 457.7,120.6 457.8,126.1 457.9,140.8 458.0,132.4 458.1,123.5 458.2,119.1 458.3,116.4 458.4,114.5 458.5,113.3 458.6,112.6 458.7,112.3 458.8,112.3 458.9,112.8 459.0,113.7 459.1,115.1 459.2,117.3 459.3,120.5 459.4,125.8 459.5,139.1 459.6,133.5 459.7,124.0 459.8,119.5 459.9,116.7 460.0,114.8 460.1,113.5 460.2,112.7 460.3,112.4 460.4,112.5 460.5,112.9 460.6,113.8 460.7,115.2 460.8,117.2 460.9,120.4 461.0,125.5 461.1,137.6 461.2,134.7 461.3,124.6 461.4,119.9 461.5,117.0 461.6,115.0 461.7,113.7 461.8,112.9 461.9,112.6 462.0,112.6 462.1,113.0 462.2,113.8 462.3,115.2 462.4,117.2 462.5,120.3 462.6,125.2 462.7,136.4 462.8,136.0 462.9,125.1 463.0,120.2 463.1,117.2 463.2,115.2 463.3,113.9 463.4,113.1 463.5,112.7 463.6,112.7 463.7,113.1 463.8,113.9 463.9,115.2 464.0,117.2 464.1,120.2 464.2,124.9 464.3,135.3 464.4,137.4 464.5,125.7 464.6,120.6 464.7,117.5 464.8,115.5 464.9,114.1 465.0,113.3 465.1,112.8 465.2,112.8 465.3,113.2 465.4,114.0 465.5,115.3 465.6,117.2 465.7,120.1 465.8,124.7 465.9,134.3 466.0,139.1 466.1,126.2 466.2,121.0 466.3,117.8 466.4,115.7 466.5,114.3 466.6,113.4 466.7,113.0 466.8,112.9 466.9,113.3 467.0,114.0 467.1,115.3 467.2,117.2 467.3,120.0 467.4,124.4 467.5,133.5 467.6,141.0 467.7,126.8 467.8,121.3 467.9,118.1 468.0,115.9 468.1,114.5 468.2,113.6 468.3,113.1 468.4,113.0 468.5,113.4 468.6,114.1 468.7,115.3 468.8,117.1 468.9,119.9 469.0,124.2 469.1,132.7 469.2,143.3 469.3,127.4 469.4,121.7 469.5,118.4 469.6,116.2 469.7,114.7 469.8,113.8 469.9,113.3 470.0,113.2 470.1,113.5 470.2,114.2 470.3,115.3 470.4,117.1 470.5,119.8 470.6,124.0 470.7,132.0 470.8,146.3 470.9,128.0 471.0,122.1 471.1,118.7 471.2,116.4 471.3,114.9 471.4,113.9 471.5,113.4 471.6,113.3 471.7,113.5 471.8,114.2 471.9,115.4 472.0,117.1 472.1,119.7 472.2,123.7 472.3,131.3 472.4,150.3 472.5,128.7 472.6,122.5 472.7,118.9 472.8,116.6 472.9,115.1 473.0,114.1 473.1,113.5 473.2,113.4 473.3,113.6 473.4,114.3 473.5,115.4 473.6,117.1 473.7,119.6 473.8,123.5 473.9,130.8 474.0,152.0 474.1,129.4 474.2,122.9 474.3,119.2 474.4,116.9 474.5,115.3 474.6,114.2 474.7,113.7 474.8,113.5 474.9,113.7 475.0,114.3 475.1,115.4 475.2,117.1 475.3,119.5 475.4,123.3 475.5,130.2 475.6,152.0 475.7,130.1 475.8,123.3 475.9,119.5 476.0,117.1 476.1,115.5 476.2,114.4 476.3,113.8 476.4,113.6 476.5,113.8 476.6,114.4 476.7,115.4 476.8,117.0 476.9,119.4 477.0,123.1 477.1,129.7 477.2,152.0 477.3,130.8 477.4,123.7 477.5,119.8 477.6,117.3 477.7,115.6 477.8,114.5 477.9,113.9 478.0,113.7 478.1,113.9 478.2,114.4 478.3,115.4 478.4,117.0 478.5,119.4 478.6,122.9 478.7,129.2 478.8,152.0 478.9,131.6 479.0,124.1 479.1,120.1 479.2,117.5 479.3,115.8 479.4,114.7 479.5,114.0 479.6,113.8 479.7,113.9 479.8,114.5 479.9,115.5 480.0,117.0 480.1,119.3 480.2,122.8 480.3,128.8 480.4,147.7 480.5,132.4 480.6,124.5 480.7,120.4 480.8,117.8 480.9,116.0 481.0,114.8 481.1,114.2 481.2,113.9 481.3,114.0 481.4,114.5 481.5,115.5 481.6,117.0 481.7,119.2 481.8,122.6 481.9,128.3 482.0,144.8 482.1,133.3 482.2,125.0 482.3,120.7 482.4,118.0 482.5,116.2 482.6,115.0 482.7,114.3 482.8,114.0 482.9,114.1 483.0,114.6 483.1,115.5 483.2,117.0 483.3,119.1 483.4,122.4 483.5,127.9 483.6,142.6 483.7,134.3 483.8,125.4 483.9,121.0 484.0,118.2 484.1,116.4 484.2,115.1 484.3,114.4 484.4,114.1 484.5,114.1 484.6,114.6 484.7,115.5 484.8,116.9 484.9,119.0 485.0,122.2 485.1,127.6 485.2,140.8 485.3,135.3 485.4,125.9 485.5,121.3 485.6,118.4 485.7,116.5 485.8,115.3 485.9,114.5 486.0,114.2 486.1,114.2 486.2,114.6 486.3,115.5 486.4,116.9 486.5,119.0 486.6,122.1 486.7,127.2 486.8,139.2 486.9,136.5 487.0,126.3 487.1,121.6 487.2,118.7 487.3,116.7 487.4,115.4 487.5,114.6 487.6,114.3 487.7,114.3 487.8,114.7 487.9,115.5 488.0,116.9 488.1,118.9 488.2,121.9 488.3,126.9 488.4,137.9 488.5,137.7 488.6,126.8 488.7,121.9 488.8,118.9 488.9,116.9 489.0,115.6 489.1,114.7 489.2,114.3 489.3,114.3 489.4,114.7 489.5,115.5 489.6,116.9 489.7,118.8 489.8,121.8 489.9,126.5 490.0,136.8 490.1,139.1 490.2,127.3 490.3,122.2 490.4,119.1 490.5,117.1 490.6,115.7 490.7,114.9 490.8,114.4 490.9,114.4 491.0,114.8 491.1,115.5 491.2,116.8 491.3,118.7 491.4,121.6 491.5,126.2 491.6,135.8 491.7,140.7 491.8,127.8 491.9,122.5 492.0,119.4 492.1,117.3 492.2,115.8 492.3,115.0 492.4,114.5 492.5,114.5 492.6,114.8 492.7,115.6 492.9,116.8 493.0,118.7 493.1,121.5 493.2,125.9 493.3,134.9 493.4,142.6 493.5,128.3 493.6,122.8 493.7,119.6 493.8,117.4 493.9,116.0 494.0,115.1 494.1,114.6 494.2,114.5 494.3,114.8 494.4,115.6 494.5,116.8 494.6,118.6 494.7,121.3 494.8,125.6 494.9,134.1 495.0,144.9 495.1,128.9 495.2,123.2 495.3,119.8 495.4,117.6 495.5,116.1 495.6,115.2 495.7,114.7 495.8,114.6 495.9,114.9 496.0,115.6 496.1,116.7 496.2,118.5 496.3,121.2 496.4,125.3 496.5,133.3 496.6,147.8 496.7,129.4 496.8,123.5 496.9,120.0 497.0,117.8 497.1,116.3 497.2,115.3 497.3,114.8 497.4,114.6 497.5,114.9 497.6,115.6 497.7,116.7 497.8,118.4 497.9,121.0 498.0,125.1 498.1,132.6 498.2,151.9 498.3,130.0 498.4,123.8 498.5,120.3 498.6,118.0 498.7,116.4 498.8,115.4 498.9,114.8 499.0,114.7 499.1,114.9 499.2,115.6 499.3,116.7 499.4,118.4 499.5,120.9 499.6,124.8 499.7,132.0 499.8,152.0 499.9,130.7 500.0,124.2 500.1,120.5 500.2,118.1 500.3,116.5 500.4,115.5 500.5,114.9 500.6,114.7 500.7,114.9 500.8,115.6 500.9,116.6 501.0,118.3 501.1,120.7 501.2,124.5 501.3,131.4 501.4,152.0 501.5,131.3 501.6,124.5 501.7,120.7 501.8,118.3 501.9,116.7 502.0,115.6 502.1,115.0 502.2,114.8 502.3,115.0 502.4,115.6 502.5,116.6 502.6,118.2 502.7,120.6 502.8,124.3 502.9,130.8 503.0,152.0 503.1,132.0 503.2,124.9 503.3,121.0 503.4,118.5 503.5,116.8 503.6,115.7 503.7,115.1 503.8,114.8 503.9,115.0 504.0,115.6 504.1,116.6 504.2,118.1 504.3,120.5 504.4,124.1 504.5,130.3 504.6,152.0 504.7,132.8 504.8,125.2 504.9,121.2 505.0,118.7 505.1,116.9 505.2,115.8 505.3,115.1 505.4,114.9 505.5,115.0 505.6,115.6 505.7,116.5 505.8,118.1 505.9,120.3 506.0,123.8 506.1,129.8 506.2,148.6 506.3,133.5 506.4,125.6 506.5,121.5 506.6,118.8 506.7,117.1 506.8,115.9 506.9,115.2 507.0,114.9 507.1,115.0 507.2,115.5 507.3,116.5 507.4,118.0 507.5,120.2 507.6,123.6 507.7,129.3 507.8,145.6 507.9,134.4 508.0,126.0 508.1,121.7 508.2,119.0 508.3,117.2 508.4,116.0 508.5,115.3 508.6,115.0 508.7,115.1 508.8,115.5 508.9,116.5 509.0,117.9 509.1,120.1 509.2,123.4 509.3,128.9 509.4,143.4 509.5,135.3 509.6,126.4 509.7,122.0 509.8,119.2 509.9,117.3 510.0,116.1 510.1,115.3 510.2,115.0 510.3,115.1 510.4,115.5 510.5,116.4 510.6,117.8 510.7,120.0 510.8,123.1 510.9,128.4 511.0,141.5 511.1,136.3 511.2,126.8 511.3,122.2 511.4,119.3 511.5,117.4 511.6,116.2 511.7,115.4 511.8,115.0 511.9,115.1 512.0,115.5 512.1,116.4 512.2,117.8 512.3,119.8 512.4,122.9 512.5,128.0 512.6,140.0 512.7,137.4 512.8,127.2 512.9,122.5 513.0,119.5 513.1,117.6 513.2,116.3 513.3,115.5 513.4,115.1 513.5,115.1 513.6,115.5 513.7,116.3 513.8,117.7 513.9,119.7 514.0,122.7 514.1,127.6 514.2,138.7 514.3,138.6 514.4,127.6 514.5,122.7 514.6,119.7 514.7,117.7 514.8,116.4 514.9,115.5 515.0,115.1 515.1,115.1 515.2,115.5 515.3,116.3 515.4,117.6 515.5,119.6 515.6,122.5 515.7,127.3 515.8,137.5 515.9,140.0 516.0,128.1 516.1,123.0 516.2,119.9 516.3,117.8 516.4,116.4 516.5,115.6 516.6,115.2 516.7,115.1 516.8,115.5 516.9,116.3 517.0,117.5 517.1,119.4 517.2,122.3 517.3,126.9 517.4,136.4 517.5,141.5 517.6,128.5 517.7,123.2 517.8,120.1 517.9,117.9 518.0,116.5 518.1,115.6 518.2,115.2 518.3,115.1 518.4,115.5 518.5,116.2 518.6,117.5 518.7,119.3 518.8,122.1 518.9,126.5 519.0,135.5 519.1,143.4 519.2,129.0 519.3,123.5 519.4,120.2 519.5,118.1 519.6,116.6 519.7,115.7 519.8,115.2 519.9,115.1 520.0,115.4 520.1,116.2 520.2,117.4 520.3,119.2 520.4,121.9 520.5,126.2 520.6,134.6 520.7,145.7 520.8,129.5 520.9,123.8 521.0,120.4 521.1,118.2 521.2,116.7 521.3,115.8 521.4,115.3 521.5,115.1 521.6,115.4 521.7,116.1 521.8,117.3 521.9,119.1 522.0,121.7 522.1,125.9 522.2,133.8 522.3,148.6 522.4,130.0 522.5,124.1 522.6,120.6 522.7,118.3 522.8,116.8 522.9,115.8 523.0,115.3 523.1,115.1 523.2,115.4 523.3,116.1 523.4,117.2 523.5,118.9 523.6,121.5 523.7,125.5 523.8,133.1 523.9,152.0 524.0,130.6 524.1,124.3 524.2,120.8 524.3,118.4 524.4,116.9 524.5,115.9 524.6,115.3 524.7,115.2 524.8,115.4 524.9,116.0 525.0,117.1 525.1,118.8 525.2,121.3 525.3,125.2 525.4,132.4 525.5,152.0 525.6,131.1 525.7,124.6 525.8,121.0 525.9,118.6 526.0,117.0 526.1,115.9 526.2,115.3 526.3,115.2 526.4,115.4 526.5,116.0 526.6,117.0 526.7,118.7 526.8,121.1 526.9,124.9 527.0,131.8" fill="none" stroke="#4a90d9" stroke-width="1.2" stroke-linejoin="round"/>
  <text x="154.5" y="176" text-anchor="middle" font-size="8" fill="#6b7280">n / N</text>
  <text x="424.5" y="176" text-anchor="middle" font-size="8" fill="#6b7280">Normalized frequency (× Fₛ)</text>
</svg>
