<svg xmlns="http://www.w3.org/2000/svg" viewBox="0 0 560 210" width="560" height="210" style="font-family:system-ui,-apple-system,sans-serif">
  <rect width="560" height="210" fill="#fafafa" rx="6"/>
  <text x="280" y="18" text-anchor="middle" font-size="12" font-weight="600" fill="#374151">cosine</text>
  <line x1="52" y1="166.0" x2="257" y2="166.0" stroke="#e5e7eb" stroke-width="0.5"/>
  <text x="48" y="169.0" text-anchor="end" font-size="7.5" fill="#6b7280">0</text>
  <line x1="52" y1="97.0" x2="257" y2="97.0" stroke="#e5e7eb" stroke-width="0.5"/>
  <text x="48" y="100.0" text-anchor="end" font-size="7.5" fill="#6b7280">0.5</text>
  <line x1="52" y1="28.0" x2="257" y2="28.0" stroke="#e5e7eb" stroke-width="0.5"/>
  <text x="48" y="31.0" text-anchor="end" font-size="7.5" fill="#6b7280">1</text>
  <line x1="52.0" y1="28" x2="52.0" y2="166" stroke="#e5e7eb" stroke-width="0.5"/>
  <text x="52.0" y="178" text-anchor="middle" font-size="7.5" fill="#6b7280">0</text>
  <line x1="154.5" y1="28" x2="154.5" y2="166" stroke="#e5e7eb" stroke-width="0.5"/>
  <text x="154.5" y="178" text-anchor="middle" font-size="7.5" fill="#6b7280">0.5</text>
  <line x1="257.0" y1="28" x2="257.0" y2="166" stroke="#e5e7eb" stroke-width="0.5"/>
  <text x="257.0" y="178" text-anchor="middle" font-size="7.5" fill="#6b7280">1</text>
  <line x1="52" y1="28" x2="52" y2="166" stroke="#d1d5db" stroke-width="0.75"/>
  <line x1="52" y1="166" x2="257" y2="166" stroke="#d1d5db" stroke-width="0.75"/>
  <path d="M52.0,166.0 52.0,166.0 52.8,164.3 53.6,162.6 54.4,160.9 55.2,159.2 56.0,157.5 56.8,155.8 57.6,154.1 58.4,152.4 59.2,150.7 60.0,149.0 60.8,147.4 61.6,145.7 62.5,144.0 63.3,142.3 64.1,140.6 64.9,139.0 65.7,137.3 66.5,135.6 67.3,134.0 68.1,132.3 68.9,130.7 69.7,129.1 70.5,127.4 71.3,125.8 72.1,124.2 72.9,122.5 73.7,120.9 74.5,119.3 75.3,117.7 76.1,116.1 76.9,114.6 77.7,113.0 78.5,111.4 79.3,109.9 80.1,108.3 80.9,106.8 81.7,105.3 82.5,103.7 83.4,102.2 84.2,100.7 85.0,99.2 85.8,97.7 86.6,96.3 87.4,94.8 88.2,93.4 89.0,91.9 89.8,90.5 90.6,89.1 91.4,87.7 92.2,86.3 93.0,84.9 93.8,83.5 94.6,82.2 95.4,80.8 96.2,79.5 97.0,78.2 97.8,76.9 98.6,75.6 99.4,74.3 100.2,73.0 101.0,71.8 101.8,70.5 102.6,69.3 103.5,68.1 104.3,66.9 105.1,65.8 105.9,64.6 106.7,63.4 107.5,62.3 108.3,61.2 109.1,60.1 109.9,59.0 110.7,58.0 111.5,56.9 112.3,55.9 113.1,54.9 113.9,53.9 114.7,52.9 115.5,51.9 116.3,51.0 117.1,50.0 117.9,49.1 118.7,48.2 119.5,47.3 120.3,46.5 121.1,45.6 121.9,44.8 122.7,44.0 123.5,43.2 124.4,42.5 125.2,41.7 126.0,41.0 126.8,40.3 127.6,39.6 128.4,38.9 129.2,38.3 130.0,37.6 130.8,37.0 131.6,36.4 132.4,35.8 133.2,35.3 134.0,34.8 134.8,34.2 135.6,33.7 136.4,33.3 137.2,32.8 138.0,32.4 138.8,32.0 139.6,31.6 140.4,31.2 141.2,30.8 142.0,30.5 142.8,30.2 143.6,29.9 144.5,29.6 145.3,29.4 146.1,29.2 146.9,28.9 147.7,28.8 148.5,28.6 149.3,28.4 150.1,28.3 150.9,28.2 151.7,28.1 152.5,28.1 153.3,28.0 154.1,28.0 154.9,28.0 155.7,28.0 156.5,28.1 157.3,28.1 158.1,28.2 158.9,28.3 159.7,28.4 160.5,28.6 161.3,28.8 162.1,28.9 162.9,29.2 163.7,29.4 164.5,29.6 165.4,29.9 166.2,30.2 167.0,30.5 167.8,30.8 168.6,31.2 169.4,31.6 170.2,32.0 171.0,32.4 171.8,32.8 172.6,33.3 173.4,33.7 174.2,34.2 175.0,34.8 175.8,35.3 176.6,35.8 177.4,36.4 178.2,37.0 179.0,37.6 179.8,38.3 180.6,38.9 181.4,39.6 182.2,40.3 183.0,41.0 183.8,41.7 184.6,42.5 185.5,43.2 186.3,44.0 187.1,44.8 187.9,45.6 188.7,46.5 189.5,47.3 190.3,48.2 191.1,49.1 191.9,50.0 192.7,51.0 193.5,51.9 194.3,52.9 195.1,53.9 195.9,54.9 196.7,55.9 197.5,56.9 198.3,58.0 199.1,59.0 199.9,60.1 200.7,61.2 201.5,62.3 202.3,63.4 203.1,64.6 203.9,65.8 204.7,66.9 205.5,68.1 206.4,69.3 207.2,70.5 208.0,71.8 208.8,73.0 209.6,74.3 210.4,75.6 211.2,76.9 212.0,78.2 212.8,79.5 213.6,80.8 214.4,82.2 215.2,83.5 216.0,84.9 216.8,86.3 217.6,87.7 218.4,89.1 219.2,90.5 220.0,91.9 220.8,93.4 221.6,94.8 222.4,96.3 223.2,97.7 224.0,99.2 224.8,100.7 225.6,102.2 226.5,103.7 227.3,105.3 228.1,106.8 228.9,108.3 229.7,109.9 230.5,111.4 231.3,113.0 232.1,114.6 232.9,116.1 233.7,117.7 234.5,119.3 235.3,120.9 236.1,122.5 236.9,124.2 237.7,125.8 238.5,127.4 239.3,129.1 240.1,130.7 240.9,132.3 241.7,134.0 242.5,135.6 243.3,137.3 244.1,139.0 244.9,140.6 245.7,142.3 246.5,144.0 247.4,145.7 248.2,147.4 249.0,149.0 249.8,150.7 250.6,152.4 251.4,154.1 252.2,155.8 253.0,157.5 253.8,159.2 254.6,160.9 255.4,162.6 256.2,164.3 257.0,166.0 L257.0,166.0 Z" fill="#4a90d9" fill-opacity="0.06"/>
  <polyline points="52.0,166.0 52.8,164.3 53.6,162.6 54.4,160.9 55.2,159.2 56.0,157.5 56.8,155.8 57.6,154.1 58.4,152.4 59.2,150.7 60.0,149.0 60.8,147.4 61.6,145.7 62.5,144.0 63.3,142.3 64.1,140.6 64.9,139.0 65.7,137.3 66.5,135.6 67.3,134.0 68.1,132.3 68.9,130.7 69.7,129.1 70.5,127.4 71.3,125.8 72.1,124.2 72.9,122.5 73.7,120.9 74.5,119.3 75.3,117.7 76.1,116.1 76.9,114.6 77.7,113.0 78.5,111.4 79.3,109.9 80.1,108.3 80.9,106.8 81.7,105.3 82.5,103.7 83.4,102.2 84.2,100.7 85.0,99.2 85.8,97.7 86.6,96.3 87.4,94.8 88.2,93.4 89.0,91.9 89.8,90.5 90.6,89.1 91.4,87.7 92.2,86.3 93.0,84.9 93.8,83.5 94.6,82.2 95.4,80.8 96.2,79.5 97.0,78.2 97.8,76.9 98.6,75.6 99.4,74.3 100.2,73.0 101.0,71.8 101.8,70.5 102.6,69.3 103.5,68.1 104.3,66.9 105.1,65.8 105.9,64.6 106.7,63.4 107.5,62.3 108.3,61.2 109.1,60.1 109.9,59.0 110.7,58.0 111.5,56.9 112.3,55.9 113.1,54.9 113.9,53.9 114.7,52.9 115.5,51.9 116.3,51.0 117.1,50.0 117.9,49.1 118.7,48.2 119.5,47.3 120.3,46.5 121.1,45.6 121.9,44.8 122.7,44.0 123.5,43.2 124.4,42.5 125.2,41.7 126.0,41.0 126.8,40.3 127.6,39.6 128.4,38.9 129.2,38.3 130.0,37.6 130.8,37.0 131.6,36.4 132.4,35.8 133.2,35.3 134.0,34.8 134.8,34.2 135.6,33.7 136.4,33.3 137.2,32.8 138.0,32.4 138.8,32.0 139.6,31.6 140.4,31.2 141.2,30.8 142.0,30.5 142.8,30.2 143.6,29.9 144.5,29.6 145.3,29.4 146.1,29.2 146.9,28.9 147.7,28.8 148.5,28.6 149.3,28.4 150.1,28.3 150.9,28.2 151.7,28.1 152.5,28.1 153.3,28.0 154.1,28.0 154.9,28.0 155.7,28.0 156.5,28.1 157.3,28.1 158.1,28.2 158.9,28.3 159.7,28.4 160.5,28.6 161.3,28.8 162.1,28.9 162.9,29.2 163.7,29.4 164.5,29.6 165.4,29.9 166.2,30.2 167.0,30.5 167.8,30.8 168.6,31.2 169.4,31.6 170.2,32.0 171.0,32.4 171.8,32.8 172.6,33.3 173.4,33.7 174.2,34.2 175.0,34.8 175.8,35.3 176.6,35.8 177.4,36.4 178.2,37.0 179.0,37.6 179.8,38.3 180.6,38.9 181.4,39.6 182.2,40.3 183.0,41.0 183.8,41.7 184.6,42.5 185.5,43.2 186.3,44.0 187.1,44.8 187.9,45.6 188.7,46.5 189.5,47.3 190.3,48.2 191.1,49.1 191.9,50.0 192.7,51.0 193.5,51.9 194.3,52.9 195.1,53.9 195.9,54.9 196.7,55.9 197.5,56.9 198.3,58.0 199.1,59.0 199.9,60.1 200.7,61.2 201.5,62.3 202.3,63.4 203.1,64.6 203.9,65.8 204.7,66.9 205.5,68.1 206.4,69.3 207.2,70.5 208.0,71.8 208.8,73.0 209.6,74.3 210.4,75.6 211.2,76.9 212.0,78.2 212.8,79.5 213.6,80.8 214.4,82.2 215.2,83.5 216.0,84.9 216.8,86.3 217.6,87.7 218.4,89.1 219.2,90.5 220.0,91.9 220.8,93.4 221.6,94.8 222.4,96.3 223.2,97.7 224.0,99.2 224.8,100.7 225.6,102.2 226.5,103.7 227.3,105.3 228.1,106.8 228.9,108.3 229.7,109.9 230.5,111.4 231.3,113.0 232.1,114.6 232.9,116.1 233.7,117.7 234.5,119.3 235.3,120.9 236.1,122.5 236.9,124.2 237.7,125.8 238.5,127.4 239.3,129.1 240.1,130.7 240.9,132.3 241.7,134.0 242.5,135.6 243.3,137.3 244.1,139.0 244.9,140.6 245.7,142.3 246.5,144.0 247.4,145.7 248.2,147.4 249.0,149.0 249.8,150.7 250.6,152.4 251.4,154.1 252.2,155.8 253.0,157.5 253.8,159.2 254.6,160.9 255.4,162.6 256.2,164.3 257.0,166.0" fill="none" stroke="#4a90d9" stroke-width="1.2" stroke-linejoin="round"/>
  <line x1="322" y1="28.0" x2="527" y2="28.0" stroke="#e5e7eb" stroke-width="0.5"/>
  <text x="318" y="31.0" text-anchor="end" font-size="7.5" fill="#6b7280">0</text>
  <line x1="322" y1="74.0" x2="527" y2="74.0" stroke="#e5e7eb" stroke-width="0.5"/>
  <text x="318" y="77.0" text-anchor="end" font-size="7.5" fill="#6b7280">-40</text>
  <line x1="322" y1="120.0" x2="527" y2="120.0" stroke="#e5e7eb" stroke-width="0.5"/>
  <text x="318" y="123.0" text-anchor="end" font-size="7.5" fill="#6b7280">-80</text>
  <line x1="322" y1="166.0" x2="527" y2="166.0" stroke="#e5e7eb" stroke-width="0.5"/>
  <text x="318" y="169.0" text-anchor="end" font-size="7.5" fill="#6b7280">-120</text>
  <line x1="322.0" y1="28" x2="322.0" y2="166" stroke="#e5e7eb" stroke-width="0.5"/>
  <text x="322.0" y="178" text-anchor="middle" font-size="7.5" fill="#6b7280">0</text>
  <line x1="363.0" y1="28" x2="363.0" y2="166" stroke="#e5e7eb" stroke-width="0.5"/>
  <text x="363.0" y="178" text-anchor="middle" font-size="7.5" fill="#6b7280">0.1</text>
  <line x1="404.0" y1="28" x2="404.0" y2="166" stroke="#e5e7eb" stroke-width="0.5"/>
  <text x="404.0" y="178" text-anchor="middle" font-size="7.5" fill="#6b7280">0.2</text>
  <line x1="445.0" y1="28" x2="445.0" y2="166" stroke="#e5e7eb" stroke-width="0.5"/>
  <text x="445.0" y="178" text-anchor="middle" font-size="7.5" fill="#6b7280">0.3</text>
  <line x1="486.0" y1="28" x2="486.0" y2="166" stroke="#e5e7eb" stroke-width="0.5"/>
  <text x="486.0" y="178" text-anchor="middle" font-size="7.5" fill="#6b7280">0.4</text>
  <line x1="527.0" y1="28" x2="527.0" y2="166" stroke="#e5e7eb" stroke-width="0.5"/>
  <text x="527.0" y="178" text-anchor="middle" font-size="7.5" fill="#6b7280">0.5</text>
  <line x1="322" y1="28" x2="322" y2="166" stroke="#d1d5db" stroke-width="0.75"/>
  <line x1="322" y1="166" x2="527" y2="166" stroke="#d1d5db" stroke-width="0.75"/>
  <polyline points="322.0,28.0 322.1,28.0 322.2,28.1 322.3,28.3 322.4,28.6 322.5,28.9 322.6,29.3 322.7,29.8 322.8,30.4 322.9,31.1 323.0,31.8 323.1,32.7 323.2,33.6 323.3,34.7 323.4,36.0 323.5,37.3 323.6,38.9 323.7,40.6 323.8,42.6 323.9,45.0 324.0,47.8 324.1,51.3 324.2,55.9 324.3,63.2 324.4,88.6 324.5,66.9 324.6,60.6 324.7,57.5 324.8,55.8 324.9,54.8 325.0,54.5 325.1,54.5 325.2,55.0 325.3,55.8 325.4,56.9 325.5,58.5 325.6,60.7 325.7,63.5 325.8,67.5 325.9,74.1 326.0,94.5 326.1,78.2 326.2,71.1 326.3,67.5 326.4,65.4 326.5,64.2 326.6,63.5 326.7,63.3 326.8,63.4 326.9,64.0 327.0,64.9 327.1,66.3 327.2,68.1 327.3,70.7 327.4,74.5 327.5,80.6 327.6,98.0 327.7,85.8 327.8,78.0 327.9,74.2 328.0,71.9 328.1,70.5 328.2,69.7 328.3,69.3 328.4,69.3 328.5,69.7 328.6,70.5 328.7,71.7 328.8,73.5 328.9,75.9 329.0,79.5 329.1,85.3 329.2,100.6 329.3,91.6 329.4,83.3 329.5,79.3 329.6,76.9 329.7,75.3 329.8,74.4 329.9,73.9 330.0,73.8 330.1,74.1 330.2,74.9 330.3,76.0 330.4,77.6 330.5,80.0 330.6,83.4 330.7,89.0 330.8,102.7 330.9,96.5 331.0,87.6 331.1,83.4 331.2,80.8 331.3,79.2 331.4,78.2 331.5,77.6 331.6,77.5 331.7,77.8 331.8,78.4 331.9,79.5 332.0,81.0 332.1,83.3 332.2,86.6 332.3,91.9 332.4,104.4 332.5,100.8 332.6,91.3 332.7,86.9 332.8,84.2 332.9,82.5 333.0,81.4 333.1,80.8 333.2,80.6 333.3,80.8 333.4,81.4 333.5,82.4 333.6,83.9 333.7,86.1 333.8,89.3 333.9,94.4 334.0,105.8 334.1,104.8 334.2,94.5 334.3,89.9 334.4,87.1 334.5,85.3 334.6,84.2 334.7,83.5 334.8,83.3 334.9,83.4 335.0,84.0 335.1,84.9 335.2,86.4 335.3,88.5 335.4,91.6 335.5,96.5 335.6,107.0 335.7,108.5 335.8,97.4 335.9,92.6 336.0,89.7 336.1,87.8 336.2,86.6 336.3,85.9 336.4,85.7 336.5,85.8 336.6,86.3 336.7,87.2 336.8,88.6 336.9,90.6 337.0,93.6 337.1,98.3 337.2,108.2 337.3,112.2 337.4,100.0 337.5,95.0 337.6,92.0 337.7,90.1 337.8,88.8 337.9,88.1 338.0,87.8 338.1,87.8 338.2,88.3 338.3,89.2 338.4,90.5 338.5,92.5 338.6,95.4 338.7,100.0 338.8,109.2 338.9,115.8 339.0,102.4 339.1,97.2 339.2,94.1 339.3,92.1 339.4,90.8 339.5,90.0 339.6,89.7 339.7,89.7 339.8,90.1 339.9,91.0 340.0,92.3 340.1,94.2 340.2,97.0 340.3,101.4 340.4,110.1 340.5,119.7 340.6,104.6 340.7,99.2 340.8,96.0 340.9,94.0 341.0,92.6 341.1,91.8 341.2,91.4 341.3,91.4 341.4,91.8 341.5,92.6 341.6,93.9 341.7,95.8 341.8,98.5 341.9,102.8 342.0,110.9 342.1,123.9 342.2,106.8 342.3,101.1 342.4,97.8 342.5,95.7 342.6,94.3 342.7,93.5 342.8,93.0 342.9,93.0 343.0,93.4 343.1,94.1 343.2,95.4 343.3,97.2 343.4,99.8 343.5,104.0 343.6,111.7 343.7,128.8 343.8,108.8 343.9,102.9 344.0,99.5 344.1,97.3 344.2,95.9 344.3,95.0 344.4,94.5 344.5,94.5 344.6,94.8 344.7,95.5 344.8,96.7 344.9,98.5 345.0,101.1 345.1,105.1 345.2,112.4 345.3,135.5 345.4,110.8 345.5,104.5 345.6,101.1 345.7,98.8 345.8,97.3 345.9,96.4 346.0,95.9 346.1,95.8 346.2,96.1 346.3,96.8 346.4,98.0 346.5,99.7 346.6,102.2 346.7,106.1 346.8,113.0 346.9,148.7 347.0,112.6 347.1,106.1 347.2,102.5 347.3,100.2 347.4,98.7 347.5,97.7 347.6,97.2 347.7,97.1 347.8,97.4 347.9,98.0 348.0,99.1 348.1,100.8 348.2,103.3 348.3,107.0 348.4,113.6 348.5,147.4 348.6,114.5 348.7,107.7 348.8,103.9 348.9,101.6 349.0,100.0 349.1,99.0 349.2,98.4 349.3,98.3 349.4,98.5 349.5,99.2 349.6,100.2 349.7,101.9 349.8,104.3 349.9,107.9 350.0,114.2 350.1,138.4 350.2,116.3 350.3,109.1 350.4,105.3 350.5,102.8 350.6,101.2 350.7,100.2 350.8,99.6 350.9,99.4 351.0,99.6 351.1,100.2 351.2,101.3 351.3,102.9 351.4,105.2 351.5,108.7 351.6,114.8 351.7,134.5 351.8,118.1 351.9,110.5 352.0,106.5 352.1,104.0 352.2,102.4 352.3,101.3 352.4,100.7 352.5,100.5 352.6,100.7 352.7,101.2 352.8,102.2 352.9,103.8 353.0,106.1 353.1,109.5 353.2,115.3 353.3,132.2 353.4,119.9 353.5,111.9 353.6,107.8 353.7,105.2 353.8,103.5 353.9,102.4 354.0,101.7 354.1,101.5 354.2,101.6 354.3,102.2 354.4,103.2 354.5,104.7 354.6,106.9 354.7,110.2 354.8,115.8 354.9,130.8 355.0,121.7 355.1,113.2 355.2,108.9 355.3,106.3 355.4,104.5 355.5,103.4 355.6,102.7 355.7,102.4 355.8,102.6 355.9,103.1 356.0,104.0 356.1,105.5 356.3,107.7 356.4,110.9 356.5,116.2 356.6,129.7 356.7,123.6 356.8,114.5 356.9,110.1 357.0,107.3 357.1,105.5 357.2,104.3 357.3,103.6 357.4,103.4 357.5,103.5 357.6,103.9 357.7,104.9 357.8,106.3 357.9,108.4 358.0,111.5 358.1,116.7 358.2,128.9 358.3,125.4 358.4,115.7 358.5,111.2 358.6,108.3 358.7,106.5 358.8,105.3 358.9,104.5 359.0,104.2 359.1,104.3 359.2,104.8 359.3,105.7 359.4,107.0 359.5,109.1 359.6,112.1 359.7,117.1 359.8,128.4 359.9,127.4 360.0,116.9 360.1,112.2 360.2,109.3 360.3,107.4 360.4,106.2 360.5,105.4 360.6,105.1 360.7,105.1 360.8,105.5 360.9,106.4 361.0,107.8 361.1,109.8 361.2,112.7 361.3,117.5 361.4,127.9 361.5,129.5 361.6,118.1 361.7,113.2 361.8,110.3 361.9,108.3 362.0,107.0 362.1,106.2 362.2,105.9 362.3,105.9 362.4,106.3 362.5,107.1 362.6,108.4 362.7,110.4 362.8,113.3 362.9,117.9 363.0,127.6 363.1,131.7 363.2,119.3 363.3,114.3 363.4,111.2 363.5,109.2 363.6,107.9 363.7,107.0 363.8,106.6 363.9,106.6 364.0,107.0 364.1,107.8 364.2,109.1 364.3,111.0 364.4,113.8 364.5,118.3 364.6,127.4 364.7,134.1 364.8,120.5 364.9,115.2 365.0,112.1 365.1,110.0 365.2,108.7 365.3,107.8 365.4,107.4 365.5,107.3 365.6,107.7 365.7,108.5 365.8,109.7 365.9,111.6 366.0,114.3 366.1,118.6 366.2,127.2 366.3,136.9 366.4,121.7 366.5,116.2 366.6,113.0 366.7,110.8 366.8,109.4 366.9,108.5 367.0,108.1 367.1,108.0 367.2,108.4 367.3,109.1 367.4,110.3 367.5,112.1 367.6,114.8 367.7,119.0 367.8,127.0 367.9,140.2 368.0,122.9 368.1,117.1 368.2,113.8 368.3,111.6 368.4,110.2 368.5,109.3 368.6,108.8 368.7,108.7 368.8,109.0 368.9,109.7 369.0,110.9 369.1,112.7 369.2,115.3 369.3,119.3 369.4,126.9 369.5,144.3 369.6,124.1 369.7,118.1 369.8,114.6 369.9,112.4 370.0,110.9 370.1,110.0 370.2,109.4 370.3,109.3 370.4,109.6 370.5,110.3 370.6,111.4 370.7,113.2 370.8,115.7 370.9,119.6 371.0,126.9 371.1,150.4 371.2,125.2 371.3,119.0 371.4,115.4 371.5,113.1 371.6,111.6 371.7,110.6 371.8,110.1 371.9,110.0 372.0,110.2 372.1,110.9 372.2,112.0 372.3,113.7 372.4,116.1 372.5,119.9 372.6,126.8 372.7,164.0 372.8,126.4 372.9,119.9 373.0,116.2 373.1,113.9 373.2,112.3 373.3,111.3 373.4,110.7 373.5,110.6 373.6,110.8 373.7,111.4 373.8,112.5 373.9,114.1 374.0,116.5 374.1,120.2 374.2,126.8 374.3,159.5 374.4,127.6 374.5,120.7 374.6,117.0 374.7,114.6 374.8,113.0 374.9,111.9 375.0,111.3 375.1,111.1 375.2,111.3 375.3,111.9 375.4,113.0 375.5,114.6 375.6,116.9 375.7,120.5 375.8,126.8 375.9,150.5 376.0,128.9 376.1,121.6 376.2,117.7 376.3,115.3 376.4,113.6 376.5,112.5 376.6,111.9 376.7,111.7 376.8,111.9 376.9,112.5 377.0,113.5 377.1,115.0 377.2,117.3 377.3,120.8 377.4,126.8 377.5,146.3 377.6,130.1 377.7,122.5 377.8,118.5 377.9,115.9 378.0,114.2 378.1,113.1 378.2,112.5 378.3,112.3 378.4,112.4 378.5,112.9 378.6,113.9 378.7,115.4 378.8,117.7 378.9,121.1 379.0,126.8 379.1,143.6 379.2,131.5 379.3,123.4 379.4,119.2 379.5,116.6 379.6,114.9 379.7,113.7 379.8,113.0 379.9,112.8 380.0,112.9 380.1,113.4 380.2,114.4 380.3,115.8 380.4,118.0 380.5,121.3 380.6,126.9 380.7,141.7 380.8,132.8 380.9,124.2 381.0,119.9 381.1,117.2 381.2,115.5 381.3,114.3 381.4,113.6 381.5,113.3 381.6,113.4 381.7,113.9 381.8,114.8 381.9,116.2 382.0,118.4 382.1,121.6 382.2,126.9 382.3,140.2 382.4,134.2 382.5,125.1 382.6,120.6 382.7,117.9 382.8,116.0 382.9,114.8 383.0,114.1 383.1,113.8 383.2,113.9 383.3,114.3 383.4,115.2 383.5,116.6 383.6,118.7 383.7,121.8 383.8,126.9 383.9,139.1 384.0,135.7 384.1,125.9 384.2,121.3 384.3,118.5 384.4,116.6 384.5,115.4 384.6,114.6 384.7,114.3 384.8,114.3 384.9,114.8 385.0,115.6 385.1,117.0 385.2,119.0 385.3,122.1 385.4,127.0 385.5,138.2 385.6,137.3 385.7,126.8 385.8,122.0 385.9,119.1 386.0,117.2 386.1,115.9 386.2,115.1 386.3,114.8 386.4,114.8 386.5,115.2 386.6,116.0 386.7,117.4 386.8,119.3 386.9,122.3 387.0,127.0 387.1,137.4 387.2,139.1 387.3,127.7 387.4,122.7 387.5,119.7 387.6,117.7 387.7,116.4 387.8,115.6 387.9,115.2 388.0,115.2 388.1,115.6 388.2,116.4 388.3,117.7 388.4,119.6 388.5,122.5 388.6,127.1 388.7,136.7 388.8,141.0 388.9,128.5 389.0,123.4 389.1,120.3 389.2,118.3 389.3,116.9 389.4,116.1 389.5,115.7 389.6,115.7 389.7,116.0 389.8,116.8 389.9,118.0 390.0,119.9 390.1,122.7 390.2,127.2 390.3,136.2 390.4,143.1 390.5,129.4 390.6,124.1 390.7,120.9 390.8,118.8 390.9,117.4 391.0,116.6 391.1,116.1 391.2,116.1 391.3,116.4 391.4,117.2 391.5,118.4 391.6,120.2 391.7,122.9 391.8,127.2 391.9,135.7 392.0,145.6 392.1,130.3 392.2,124.7 392.3,121.5 392.4,119.3 392.5,117.9 392.6,117.0 392.7,116.5 392.8,116.5 392.9,116.8 393.0,117.5 393.1,118.7 393.2,120.5 393.3,123.1 393.4,127.3 393.5,135.3 393.6,148.7 393.7,131.2 393.8,125.4 393.9,122.1 394.0,119.9 394.1,118.4 394.2,117.5 394.3,117.0 394.4,116.9 394.5,117.2 394.6,117.8 394.7,119.0 394.8,120.7 394.9,123.3 395.0,127.4 395.1,134.9 395.2,152.6 395.3,132.1 395.4,126.1 395.5,122.6 395.6,120.4 395.7,118.9 395.8,117.9 395.9,117.4 396.0,117.3 396.1,117.5 396.2,118.2 396.3,119.3 396.4,121.0 396.5,123.5 396.6,127.4 396.7,134.6 396.8,158.7 396.9,133.1 397.0,126.7 397.1,123.2 397.2,120.9 397.3,119.3 397.4,118.3 397.5,117.8 397.6,117.6 397.7,117.9 397.8,118.5 397.9,119.6 398.0,121.3 398.1,123.7 398.2,127.5 398.3,134.4 398.4,166.0 398.5,134.0 398.6,127.4 398.7,123.7 398.8,121.4 398.9,119.8 399.0,118.8 399.1,118.2 399.2,118.0 399.3,118.2 399.4,118.8 399.5,119.9 399.6,121.5 399.7,123.9 399.8,127.6 399.9,134.1 400.0,165.9 400.1,135.0 400.2,128.1 400.3,124.3 400.4,121.9 400.5,120.2 400.6,119.2 400.7,118.6 400.8,118.4 400.9,118.6 401.0,119.1 401.1,120.2 401.2,121.7 401.3,124.1 401.4,127.6 401.5,133.9 401.6,157.3 401.7,136.0 401.8,128.7 401.9,124.8 402.0,122.3 402.1,120.7 402.2,119.6 402.3,118.9 402.4,118.7 402.5,118.9 402.6,119.4 402.7,120.4 402.8,122.0 402.9,124.3 403.0,127.7 403.1,133.7 403.2,153.0 403.3,137.1 403.4,129.4 403.5,125.4 403.6,122.8 403.7,121.1 403.8,120.0 403.9,119.3 404.0,119.1 404.1,119.2 404.2,119.7 404.3,120.7 404.4,122.2 404.5,124.4 404.6,127.8 404.7,133.5 404.8,150.1 404.9,138.2 405.0,130.1 405.1,125.9 405.2,123.3 405.3,121.5 405.4,120.4 405.5,119.7 405.6,119.4 405.7,119.5 405.8,120.0 405.9,121.0 406.0,122.4 406.1,124.6 406.2,127.9 406.3,133.4 406.4,148.1 406.5,139.4 406.6,130.7 406.7,126.4 406.8,123.7 406.9,121.9 407.0,120.7 407.1,120.0 407.2,119.7 407.3,119.8 407.4,120.3 407.5,121.2 407.6,122.6 407.7,124.7 407.8,127.9 407.9,133.2 408.0,146.5 408.1,140.6 408.2,131.4 408.3,127.0 408.4,124.2 408.5,122.3 408.6,121.1 408.7,120.4 408.8,120.1 408.9,120.1 409.0,120.6 409.1,121.5 409.2,122.8 409.3,124.9 409.4,128.0 409.5,133.1 409.6,145.2 409.7,142.0 409.8,132.1 409.9,127.5 410.0,124.7 410.1,122.8 410.2,121.5 410.3,120.7 410.4,120.4 410.5,120.4 410.6,120.8 410.7,121.7 410.8,123.0 410.9,125.1 411.0,128.1 411.1,133.0 411.2,144.1 411.3,143.4 411.4,132.8 411.5,128.0 411.6,125.1 411.7,123.2 411.8,121.9 411.9,121.1 412.0,120.7 412.1,120.7 412.2,121.1 412.3,121.9 412.4,123.2 412.5,125.2 412.6,128.1 412.7,132.9 412.8,143.2 412.9,145.0 413.0,133.5 413.1,128.6 413.2,125.6 413.3,123.6 413.4,122.2 413.5,121.4 413.6,121.0 413.7,121.0 413.8,121.4 413.9,122.2 414.0,123.4 414.1,125.4 414.2,128.2 414.3,132.8 414.4,142.4 414.5,146.8 414.6,134.2 414.7,129.1 414.8,126.0 414.9,123.9 415.0,122.6 415.1,121.7 415.2,121.3 415.3,121.3 415.4,121.6 415.5,122.4 415.6,123.6 415.7,125.5 415.8,128.3 415.9,132.7 416.0,141.7 416.1,148.8 416.2,135.0 416.3,129.6 416.4,126.4 416.5,124.3 416.6,122.9 416.7,122.0 416.8,121.6 416.9,121.5 417.0,121.9 417.1,122.6 417.2,123.8 417.3,125.6 417.4,128.3 417.5,132.6 417.6,141.1 417.7,151.2 417.8,135.7 417.9,130.1 418.0,126.9 418.1,124.7 418.2,123.3 418.3,122.4 418.4,121.9 418.5,121.8 418.6,122.1 418.7,122.8 418.8,124.0 418.9,125.8 419.0,128.4 419.1,132.5 419.2,140.5 419.3,154.1 419.4,136.5 419.5,130.7 419.6,127.3 419.7,125.1 419.8,123.6 419.9,122.7 420.0,122.2 420.1,122.1 420.2,122.3 420.3,123.0 420.4,124.2 420.5,125.9 420.6,128.5 420.7,132.5 420.8,140.0 420.9,158.0 421.0,137.3 421.1,131.2 421.2,127.7 421.3,125.5 421.4,124.0 421.5,123.0 421.6,122.5 421.7,122.3 421.8,122.6 421.9,123.2 422.0,124.3 422.1,126.0 422.2,128.5 422.3,132.4 422.4,139.6 422.5,164.2 422.6,138.1 422.7,131.7 422.8,128.2 422.9,125.8 423.0,124.3 423.1,123.3 423.2,122.7 423.3,122.6 423.4,122.8 423.5,123.4 423.6,124.5 423.7,126.2 423.8,128.6 423.9,132.4 424.0,139.2 424.1,166.0 424.2,138.9 424.3,132.3 424.4,128.6 424.6,126.2 424.7,124.6 424.8,123.6 424.9,123.0 425.0,122.8 425.1,123.0 425.2,123.6 425.3,124.7 425.4,126.3 425.5,128.7 425.6,132.3 425.7,138.8 425.8,166.0 425.9,139.8 426.0,132.8 426.1,129.0 426.2,126.6 426.3,124.9 426.4,123.9 426.5,123.3 426.6,123.1 426.7,123.2 426.8,123.8 426.9,124.8 427.0,126.4 427.1,128.7 427.2,132.3 427.3,138.5 427.4,161.5 427.5,140.7 427.6,133.4 427.7,129.5 427.8,126.9 427.9,125.3 428.0,124.2 428.1,123.5 428.2,123.3 428.3,123.4 428.4,124.0 428.5,125.0 428.6,126.5 428.7,128.8 428.8,132.2 428.9,138.2 429.0,157.3 429.1,141.7 429.2,133.9 429.3,129.9 429.4,127.3 429.5,125.6 429.6,124.5 429.7,123.8 429.8,123.5 429.9,123.7 430.0,124.2 430.1,125.1 430.2,126.6 430.3,128.8 430.4,132.2 430.5,137.9 430.6,154.4 430.7,142.7 430.8,134.5 430.9,130.3 431.0,127.7 431.1,125.9 431.2,124.7 431.3,124.0 431.4,123.8 431.5,123.9 431.6,124.4 431.7,125.3 431.8,126.7 431.9,128.9 432.0,132.2 432.1,137.6 432.2,152.3 432.3,143.7 432.4,135.1 432.5,130.7 432.6,128.0 432.7,126.2 432.8,125.0 432.9,124.3 433.0,124.0 433.1,124.1 433.2,124.5 433.3,125.4 433.4,126.8 433.5,129.0 433.6,132.1 433.7,137.4 433.8,150.6 433.9,144.9 434.0,135.6 434.1,131.2 434.2,128.4 434.3,126.5 434.4,125.3 434.5,124.5 434.6,124.2 434.7,124.3 434.8,124.7 434.9,125.6 435.0,127.0 435.1,129.0 435.2,132.1 435.3,137.2 435.4,149.2 435.5,146.1 435.6,136.2 435.7,131.6 435.8,128.7 435.9,126.8 436.0,125.6 436.1,124.8 436.2,124.4 436.3,124.5 436.4,124.9 436.5,125.7 436.6,127.1 436.7,129.1 436.8,132.1 436.9,137.0 437.0,148.0 437.1,147.5 437.2,136.8 437.3,132.0 437.4,129.1 437.5,127.1 437.6,125.8 437.7,125.0 437.8,124.6 437.9,124.6 438.0,125.0 438.1,125.8 438.2,127.2 438.3,129.1 438.4,132.0 438.5,136.8 438.6,147.0 438.7,149.0 438.8,137.4 438.9,132.5 439.0,129.4 439.1,127.4 439.2,126.1 439.3,125.3 439.4,124.8 439.5,124.8 439.6,125.2 439.7,126.0 439.8,127.3 439.9,129.2 440.0,132.0 440.1,136.6 440.2,146.1 440.3,150.7 440.4,138.0 440.5,132.9 440.6,129.8 440.7,127.7 440.8,126.4 440.9,125.5 441.0,125.1 441.1,125.0 441.2,125.4 441.3,126.1 441.4,127.4 441.5,129.2 441.6,132.0 441.7,136.4 441.8,145.3 441.9,152.6 442.0,138.7 442.1,133.3 442.2,130.1 442.3,128.0 442.4,126.6 442.5,125.7 442.6,125.3 442.7,125.2 442.8,125.5 442.9,126.2 443.0,127.4 443.1,129.3 443.2,132.0 443.3,136.2 443.4,144.6 443.5,154.9 443.6,139.3 443.7,133.8 443.8,130.5 443.9,128.3 444.0,126.9 444.1,125.9 444.2,125.5 444.3,125.4 444.4,125.7 444.5,126.4 444.6,127.5 444.7,129.3 444.8,131.9 444.9,136.1 445.0,144.0 445.1,157.8 445.2,140.0 445.3,134.2 445.4,130.8 445.5,128.6 445.6,127.1 445.7,126.2 445.8,125.7 445.9,125.5 446.0,125.8 446.1,126.5 446.2,127.6 446.3,129.3 446.4,131.9 446.5,135.9 446.6,143.4 446.7,161.8 446.8,140.7 446.9,134.6 447.0,131.2 447.1,128.9 447.2,127.4 447.3,126.4 447.4,125.9 447.5,125.7 447.6,126.0 447.7,126.6 447.8,127.7 447.9,129.4 448.0,131.9 448.1,135.8 448.2,142.9 448.3,166.0 448.4,141.5 448.5,135.1 448.6,131.5 448.7,129.2 448.8,127.6 448.9,126.6 449.0,126.0 449.1,125.9 449.2,126.1 449.3,126.7 449.4,127.8 449.5,129.4 449.6,131.9 449.7,135.6 449.8,142.4 449.9,166.0 450.0,142.2 450.1,135.6 450.2,131.9 450.3,129.5 450.4,127.9 450.5,126.8 450.6,126.2 450.7,126.0 450.8,126.2 450.9,126.8 451.0,127.9 451.1,129.5 451.2,131.9 451.3,135.5 451.4,142.0 451.5,166.0 451.6,143.0 451.7,136.0 451.8,132.2 451.9,129.8 452.0,128.1 452.1,127.0 452.2,126.4 452.3,126.2 452.4,126.4 452.5,126.9 452.6,128.0 452.7,129.5 452.8,131.8 452.9,135.4 453.0,141.6 453.1,164.3 453.2,143.8 453.3,136.5 453.4,132.6 453.5,130.0 453.6,128.4 453.7,127.2 453.8,126.6 453.9,126.4 454.0,126.5 454.1,127.1 454.2,128.0 454.3,129.6 454.4,131.8 454.5,135.3 454.6,141.2 454.7,160.1 454.8,144.7 454.9,137.0 455.0,132.9 455.1,130.3 455.2,128.6 455.3,127.5 455.4,126.8 455.5,126.5 455.6,126.6 455.7,127.2 455.8,128.1 455.9,129.6 456.0,131.8 456.1,135.1 456.2,140.8 456.3,157.2 456.4,145.7 456.5,137.5 456.6,133.3 456.7,130.6 456.8,128.8 456.9,127.7 457.0,127.0 457.1,126.7 457.2,126.8 457.3,127.3 457.4,128.2 457.5,129.6 457.6,131.8 457.7,135.0 457.8,140.5 457.9,155.0 458.0,146.7 458.1,137.9 458.2,133.6 458.3,130.9 458.4,129.1 458.5,127.9 458.6,127.1 458.7,126.8 458.8,126.9 458.9,127.4 459.0,128.3 459.1,129.7 459.2,131.8 459.3,134.9 459.4,140.2 459.5,153.3 459.6,147.7 459.7,138.4 459.8,134.0 459.9,131.2 460.0,129.3 460.1,128.1 460.2,127.3 460.3,127.0 460.4,127.0 460.5,127.5 460.6,128.3 460.7,129.7 460.8,131.7 460.9,134.8 461.0,139.9 461.1,151.8 461.2,148.9 461.3,139.0 461.4,134.3 461.5,131.5 461.6,129.5 461.7,128.3 461.8,127.5 461.9,127.1 462.0,127.1 462.1,127.6 462.2,128.4 462.3,129.7 462.4,131.7 462.5,134.7 462.6,139.6 462.7,150.6 462.8,150.2 462.9,139.5 463.0,134.7 463.1,131.7 463.2,129.8 463.3,128.5 463.4,127.7 463.5,127.3 463.6,127.3 463.7,127.6 463.8,128.5 463.9,129.8 464.0,131.7 464.1,134.6 464.2,139.3 464.3,149.5 464.4,151.6 464.5,140.0 464.6,135.0 464.7,132.0 464.8,130.0 464.9,128.7 465.0,127.8 465.1,127.4 465.2,127.4 465.3,127.7 465.4,128.5 465.5,129.8 465.6,131.7 465.7,134.5 465.8,139.1 465.9,148.6 466.0,153.3 466.1,140.6 466.2,135.4 466.3,132.3 466.4,130.2 466.5,128.8 466.6,128.0 466.7,127.5 466.8,127.5 466.9,127.8 467.0,128.6 467.1,129.8 467.2,131.7 467.3,134.4 467.4,138.8 467.5,147.7 467.6,155.2 467.7,141.2 467.8,135.8 467.9,132.6 468.0,130.5 468.1,129.0 468.2,128.1 468.3,127.7 468.4,127.6 468.5,127.9 468.6,128.6 468.7,129.8 468.8,131.6 468.9,134.3 469.0,138.6 469.1,147.0 469.2,157.5 469.3,141.8 469.4,136.1 469.5,132.9 469.6,130.7 469.7,129.2 469.8,128.3 469.9,127.8 470.0,127.7 470.1,128.0 470.2,128.7 470.3,129.9 470.4,131.6 470.5,134.2 470.6,138.4 470.7,146.3 470.8,160.3 470.9,142.4 471.0,136.5 471.1,133.1 471.2,130.9 471.3,129.4 471.4,128.5 471.5,127.9 471.6,127.8 471.7,128.1 471.8,128.8 471.9,129.9 472.0,131.6 472.1,134.2 472.2,138.1 472.3,145.6 472.4,164.3 472.5,143.0 472.6,136.9 472.7,133.4 472.8,131.1 472.9,129.6 473.0,128.6 473.1,128.1 473.2,127.9 473.3,128.2 473.4,128.8 473.5,129.9 473.6,131.6 473.7,134.1 473.8,137.9 473.9,145.1 474.0,166.0 474.1,143.7 474.2,137.3 474.3,133.7 474.4,131.4 474.5,129.8 474.6,128.8 474.7,128.2 474.8,128.0 474.9,128.2 475.0,128.9 475.1,129.9 475.2,131.6 475.3,134.0 475.4,137.7 475.5,144.5 475.6,166.0 475.7,144.4 475.8,137.7 475.9,134.0 476.0,131.6 476.1,130.0 476.2,128.9 476.3,128.3 476.4,128.1 476.5,128.3 476.6,128.9 476.7,130.0 476.8,131.5 476.9,133.9 477.0,137.5 477.1,144.0 477.2,166.0 477.3,145.1 477.4,138.1 477.5,134.3 477.6,131.8 477.7,130.2 477.8,129.1 477.9,128.5 478.0,128.2 478.1,128.4 478.2,129.0 478.3,130.0 478.4,131.5 478.5,133.8 478.6,137.4 478.7,143.5 478.8,166.0 478.9,145.9 479.0,138.5 479.1,134.6 479.2,132.0 479.3,130.3 479.4,129.2 479.5,128.6 479.6,128.3 479.7,128.5 479.8,129.0 479.9,130.0 480.0,131.5 480.1,133.8 480.2,137.2 480.3,143.1 480.4,161.8 480.5,146.7 480.6,138.9 480.7,134.8 480.8,132.3 480.9,130.5 481.0,129.4 481.1,128.7 481.2,128.4 481.3,128.5 481.4,129.1 481.5,130.0 481.6,131.5 481.7,133.7 481.8,137.0 481.9,142.7 482.0,158.9 482.1,147.6 482.2,139.3 482.3,135.1 482.4,132.5 482.5,130.7 482.6,129.5 482.7,128.8 482.8,128.5 482.9,128.6 483.0,129.1 483.1,130.0 483.2,131.5 483.3,133.6 483.4,136.8 483.5,142.3 483.6,156.7 483.7,148.5 483.8,139.8 483.9,135.4 484.0,132.7 484.1,130.9 484.2,129.7 484.3,128.9 484.4,128.6 484.5,128.7 484.6,129.1 484.7,130.0 484.8,131.4 484.9,133.5 485.0,136.7 485.1,141.9 485.2,154.9 485.3,149.6 485.4,140.2 485.5,135.7 485.6,132.9 485.7,131.1 485.8,129.8 485.9,129.0 486.0,128.7 486.1,128.7 486.2,129.2 486.3,130.0 486.4,131.4 486.5,133.4 486.6,136.5 486.7,141.6 486.8,153.4 486.9,150.7 487.0,140.7 487.1,136.0 487.2,133.1 487.3,131.2 487.4,129.9 487.5,129.2 487.6,128.8 487.7,128.8 487.8,129.2 487.9,130.1 488.0,131.4 488.1,133.4 488.2,136.4 488.3,141.2 488.4,152.1 488.5,151.9 488.6,141.2 488.7,136.3 488.8,133.4 488.9,131.4 489.0,130.1 489.1,129.3 489.2,128.9 489.3,128.9 489.4,129.3 489.5,130.1 489.6,131.4 489.7,133.3 489.8,136.2 489.9,140.9 490.0,151.0 490.1,153.3 490.2,141.6 490.3,136.6 490.4,133.6 490.5,131.6 490.6,130.2 490.7,129.4 490.8,129.0 490.9,128.9 491.0,129.3 491.1,130.1 491.2,131.3 491.3,133.2 491.4,136.0 491.5,140.6 491.6,150.0 491.7,154.9 491.8,142.1 491.9,136.9 492.0,133.8 492.1,131.8 492.2,130.4 492.3,129.5 492.4,129.0 492.5,129.0 492.6,129.3 492.7,130.1 492.9,131.3 493.0,133.1 493.1,135.9 493.2,140.3 493.3,149.1 493.4,156.8 493.5,142.7 493.6,137.3 493.7,134.0 493.8,131.9 493.9,130.5 494.0,129.6 494.1,129.1 494.2,129.1 494.3,129.4 494.4,130.1 494.5,131.3 494.6,133.1 494.7,135.8 494.8,140.0 494.9,148.3 495.0,159.0 495.1,143.2 495.2,137.6 495.3,134.3 495.4,132.1 495.5,130.6 495.6,129.7 495.7,129.2 495.8,129.1 495.9,129.4 496.0,130.1 496.1,131.2 496.2,133.0 496.3,135.6 496.4,139.7 496.5,147.6 496.6,161.9 496.7,143.8 496.8,137.9 496.9,134.5 497.0,132.3 497.1,130.8 497.2,129.8 497.3,129.3 497.4,129.2 497.5,129.4 497.6,130.1 497.7,131.2 497.8,132.9 497.9,135.5 498.0,139.4 498.1,146.9 498.2,165.9 498.3,144.4 498.4,138.2 498.5,134.7 498.6,132.4 498.7,130.9 498.8,129.9 498.9,129.4 499.0,129.2 499.1,129.4 499.2,130.1 499.3,131.2 499.4,132.9 499.5,135.3 499.6,139.2 499.7,146.3 499.8,166.0 499.9,145.0 500.0,138.6 500.1,135.0 500.2,132.6 500.3,131.0 500.4,130.0 500.5,129.4 500.6,129.3 500.7,129.5 500.8,130.1 500.9,131.1 501.0,132.8 501.1,135.2 501.2,138.9 501.3,145.7 501.4,166.0 501.5,145.6 501.6,138.9 501.7,135.2 501.8,132.8 501.9,131.2 502.0,130.1 502.1,129.5 502.2,129.3 502.3,129.5 502.4,130.1 502.5,131.1 502.6,132.7 502.7,135.1 502.8,138.7 502.9,145.1 503.0,166.0 503.1,146.3 503.2,139.3 503.3,135.4 503.4,133.0 503.5,131.3 503.6,130.2 503.7,129.6 503.8,129.4 503.9,129.5 504.0,130.1 504.1,131.1 504.2,132.6 504.3,134.9 504.4,138.4 504.5,144.6 504.6,166.0 504.7,147.0 504.8,139.6 504.9,135.7 505.0,133.1 505.1,131.4 505.2,130.3 505.3,129.7 505.4,129.4 505.5,129.5 505.6,130.1 505.7,131.0 505.8,132.6 505.9,134.8 506.0,138.2 506.1,144.1 506.2,162.6 506.3,147.8 506.4,140.0 506.5,135.9 506.6,133.3 506.7,131.6 506.8,130.4 506.9,129.7 507.0,129.4 507.1,129.6 507.2,130.1 507.3,131.0 507.4,132.5 507.5,134.7 507.6,138.0 507.7,143.7 507.8,159.7 507.9,148.6 508.0,140.4 508.1,136.1 508.2,133.5 508.3,131.7 508.4,130.5 508.5,129.8 508.6,129.5 508.7,129.6 508.8,130.1 508.9,131.0 509.0,132.4 509.1,134.5 509.2,137.8 509.3,143.2 509.4,157.5 509.5,149.5 509.6,140.7 509.7,136.4 509.8,133.6 509.9,131.8 510.0,130.6 510.1,129.9 510.2,129.5 510.3,129.6 510.4,130.0 510.5,130.9 510.6,132.3 510.7,134.4 510.8,137.6 510.9,142.8 511.0,155.7 511.1,150.5 511.2,141.1 511.3,136.6 511.4,133.8 511.5,131.9 511.6,130.7 511.7,129.9 511.8,129.6 511.9,129.6 512.0,130.0 512.1,130.9 512.2,132.3 512.3,134.3 512.4,137.3 512.5,142.4 512.6,154.2 512.7,151.6 512.8,141.5 512.9,136.9 513.0,134.0 513.1,132.1 513.2,130.8 513.3,130.0 513.4,129.6 513.5,129.6 513.6,130.0 513.7,130.9 513.8,132.2 513.9,134.2 514.0,137.1 514.1,142.0 514.2,152.9 514.3,152.8 514.4,142.0 514.5,137.1 514.6,134.2 514.7,132.2 514.8,130.9 514.9,130.0 515.0,129.6 515.1,129.6 515.2,130.0 515.3,130.8 515.4,132.1 515.5,134.0 515.6,136.9 515.7,141.6 515.8,151.7 515.9,154.1 516.0,142.4 516.1,137.4 516.2,134.3 516.3,132.3 516.4,131.0 516.5,130.1 516.6,129.7 516.7,129.6 516.8,130.0 516.9,130.8 517.0,132.0 517.1,133.9 517.2,136.7 517.3,141.2 517.4,150.7 517.5,155.7 517.6,142.9 517.7,137.6 517.8,134.5 517.9,132.4 518.0,131.0 518.1,130.2 518.2,129.7 518.3,129.7 518.4,130.0 518.5,130.7 518.6,131.9 518.7,133.8 518.8,136.5 518.9,140.9 519.0,149.7 519.1,157.5 519.2,143.3 519.3,137.9 519.4,134.7 519.5,132.6 519.6,131.1 519.7,130.2 519.8,129.7 519.9,129.7 520.0,130.0 520.1,130.7 520.2,131.9 520.3,133.7 520.4,136.3 520.5,140.6 520.6,148.9 520.7,159.8 520.8,143.8 520.9,138.2 521.0,134.9 521.1,132.7 521.2,131.2 521.3,130.3 521.4,129.8 521.5,129.7 521.6,129.9 521.7,130.6 521.8,131.8 521.9,133.5 522.0,136.1 522.1,140.2 522.2,148.1 522.3,162.6 522.4,144.3 522.5,138.5 522.6,135.0 522.7,132.8 522.8,131.3 522.9,130.3 523.0,129.8 523.1,129.7 523.2,129.9 523.3,130.6 523.4,131.7 523.5,133.4 523.6,136.0 523.7,139.9 523.8,147.4 523.9,166.0 524.0,144.9 524.1,138.7 524.2,135.2 524.3,132.9 524.4,131.4 524.5,130.4 524.6,129.8 524.7,129.7 524.8,129.9 524.9,130.5 525.0,131.6 525.1,133.3 525.2,135.8 525.3,139.6 525.4,146.7 525.5,166.0 525.6,145.4 525.7,139.0 525.8,135.4 525.9,133.0 526.0,131.5 526.1,130.4 526.2,129.9 526.3,129.7 526.4,129.9 526.5,130.5 526.6,131.5 526.7,133.2 526.8,135.6 526.9,139.3 527.0,146.0" fill="none" stroke="#4a90d9" stroke-width="1.2" stroke-linejoin="round"/>
  <text x="154.5" y="190" text-anchor="middle" font-size="8" fill="#6b7280">n / N</text>
  <text x="424.5" y="190" text-anchor="middle" font-size="8" fill="#6b7280">Normalized frequency (× Fₛ)</text>
</svg>
