<svg xmlns="http://www.w3.org/2000/svg" viewBox="0 0 800 230" style="font-family:system-ui,-apple-system,sans-serif">
  <line x1="42" y1="182.0" x2="377" y2="182.0" stroke="#e5e7eb" stroke-width="0.7"/>
  <text x="37" y="186.0" text-anchor="end" font-size="10" fill="#6b7280">0</text>
  <line x1="42" y1="95.0" x2="377" y2="95.0" stroke="#e5e7eb" stroke-width="0.7"/>
  <text x="37" y="99.0" text-anchor="end" font-size="10" fill="#6b7280">0.5</text>
  <line x1="42" y1="8.0" x2="377" y2="8.0" stroke="#e5e7eb" stroke-width="0.7"/>
  <text x="37" y="12.0" text-anchor="end" font-size="10" fill="#6b7280">1</text>
  <line x1="42.0" y1="8" x2="42.0" y2="182" stroke="#e5e7eb" stroke-width="0.7"/>
  <text x="42.0" y="198" text-anchor="middle" font-size="10" fill="#6b7280">0</text>
  <line x1="209.5" y1="8" x2="209.5" y2="182" stroke="#e5e7eb" stroke-width="0.7"/>
  <text x="209.5" y="198" text-anchor="middle" font-size="10" fill="#6b7280">0.5</text>
  <line x1="377.0" y1="8" x2="377.0" y2="182" stroke="#e5e7eb" stroke-width="0.7"/>
  <text x="377.0" y="198" text-anchor="middle" font-size="10" fill="#6b7280">1</text>
  <line x1="42" y1="8" x2="42" y2="182" stroke="#d1d5db" stroke-width="1"/>
  <line x1="42" y1="182" x2="377" y2="182" stroke="#d1d5db" stroke-width="1"/>
  <path d="M42.0,182.0 42.0,182.0 43.3,179.9 44.6,177.7 45.9,175.6 47.3,173.4 48.6,171.3 49.9,169.1 51.2,167.0 52.5,164.9 53.8,162.7 55.1,160.6 56.5,158.5 57.8,156.4 59.1,154.3 60.4,152.1 61.7,150.0 63.0,147.9 64.3,145.8 65.6,143.7 67.0,141.6 68.3,139.6 69.6,137.5 70.9,135.4 72.2,133.4 73.5,131.3 74.8,129.3 76.2,127.2 77.5,125.2 78.8,123.2 80.1,121.1 81.4,119.1 82.7,117.1 84.0,115.2 85.4,113.2 86.7,111.2 88.0,109.3 89.3,107.3 90.6,105.4 91.9,103.5 93.2,101.6 94.5,99.7 95.9,97.8 97.2,95.9 98.5,94.1 99.8,92.2 101.1,90.4 102.4,88.6 103.7,86.8 105.1,85.0 106.4,83.2 107.7,81.5 109.0,79.7 110.3,78.0 111.6,76.3 112.9,74.6 114.3,72.9 115.6,71.3 116.9,69.6 118.2,68.0 119.5,66.4 120.8,64.8 122.1,63.2 123.5,61.6 124.8,60.1 126.1,58.6 127.4,57.1 128.7,55.6 130.0,54.1 131.3,52.7 132.6,51.3 134.0,49.9 135.3,48.5 136.6,47.1 137.9,45.8 139.2,44.4 140.5,43.1 141.8,41.9 143.2,40.6 144.5,39.4 145.8,38.1 147.1,37.0 148.4,35.8 149.7,34.6 151.0,33.5 152.4,32.4 153.7,31.3 155.0,30.3 156.3,29.2 157.6,28.2 158.9,27.2 160.2,26.2 161.5,25.3 162.9,24.4 164.2,23.5 165.5,22.6 166.8,21.8 168.1,20.9 169.4,20.1 170.7,19.4 172.1,18.6 173.4,17.9 174.7,17.2 176.0,16.5 177.3,15.9 178.6,15.2 179.9,14.6 181.3,14.1 182.6,13.5 183.9,13.0 185.2,12.5 186.5,12.0 187.8,11.6 189.1,11.2 190.5,10.8 191.8,10.4 193.1,10.1 194.4,9.7 195.7,9.5 197.0,9.2 198.3,9.0 199.6,8.7 201.0,8.6 202.3,8.4 203.6,8.3 204.9,8.2 206.2,8.1 207.5,8.0 208.8,8.0 210.2,8.0 211.5,8.0 212.8,8.1 214.1,8.2 215.4,8.3 216.7,8.4 218.0,8.6 219.4,8.7 220.7,9.0 222.0,9.2 223.3,9.5 224.6,9.7 225.9,10.1 227.2,10.4 228.5,10.8 229.9,11.2 231.2,11.6 232.5,12.0 233.8,12.5 235.1,13.0 236.4,13.5 237.7,14.1 239.1,14.6 240.4,15.2 241.7,15.9 243.0,16.5 244.3,17.2 245.6,17.9 246.9,18.6 248.3,19.4 249.6,20.1 250.9,20.9 252.2,21.8 253.5,22.6 254.8,23.5 256.1,24.4 257.5,25.3 258.8,26.2 260.1,27.2 261.4,28.2 262.7,29.2 264.0,30.3 265.3,31.3 266.6,32.4 268.0,33.5 269.3,34.6 270.6,35.8 271.9,37.0 273.2,38.1 274.5,39.4 275.8,40.6 277.2,41.9 278.5,43.1 279.8,44.4 281.1,45.8 282.4,47.1 283.7,48.5 285.0,49.9 286.4,51.3 287.7,52.7 289.0,54.1 290.3,55.6 291.6,57.1 292.9,58.6 294.2,60.1 295.5,61.6 296.9,63.2 298.2,64.8 299.5,66.4 300.8,68.0 302.1,69.6 303.4,71.3 304.7,72.9 306.1,74.6 307.4,76.3 308.7,78.0 310.0,79.7 311.3,81.5 312.6,83.2 313.9,85.0 315.3,86.8 316.6,88.6 317.9,90.4 319.2,92.2 320.5,94.1 321.8,95.9 323.1,97.8 324.5,99.7 325.8,101.6 327.1,103.5 328.4,105.4 329.7,107.3 331.0,109.3 332.3,111.2 333.6,113.2 335.0,115.2 336.3,117.1 337.6,119.1 338.9,121.1 340.2,123.2 341.5,125.2 342.8,127.2 344.2,129.3 345.5,131.3 346.8,133.4 348.1,135.4 349.4,137.5 350.7,139.6 352.0,141.6 353.4,143.7 354.7,145.8 356.0,147.9 357.3,150.0 358.6,152.1 359.9,154.3 361.2,156.4 362.5,158.5 363.9,160.6 365.2,162.7 366.5,164.9 367.8,167.0 369.1,169.1 370.4,171.3 371.7,173.4 373.1,175.6 374.4,177.7 375.7,179.9 377.0,182.0 L377.0,182.0 Z" fill="#4a90d9" fill-opacity="0.06"/>
  <polyline points="42.0,182.0 43.3,179.9 44.6,177.7 45.9,175.6 47.3,173.4 48.6,171.3 49.9,169.1 51.2,167.0 52.5,164.9 53.8,162.7 55.1,160.6 56.5,158.5 57.8,156.4 59.1,154.3 60.4,152.1 61.7,150.0 63.0,147.9 64.3,145.8 65.6,143.7 67.0,141.6 68.3,139.6 69.6,137.5 70.9,135.4 72.2,133.4 73.5,131.3 74.8,129.3 76.2,127.2 77.5,125.2 78.8,123.2 80.1,121.1 81.4,119.1 82.7,117.1 84.0,115.2 85.4,113.2 86.7,111.2 88.0,109.3 89.3,107.3 90.6,105.4 91.9,103.5 93.2,101.6 94.5,99.7 95.9,97.8 97.2,95.9 98.5,94.1 99.8,92.2 101.1,90.4 102.4,88.6 103.7,86.8 105.1,85.0 106.4,83.2 107.7,81.5 109.0,79.7 110.3,78.0 111.6,76.3 112.9,74.6 114.3,72.9 115.6,71.3 116.9,69.6 118.2,68.0 119.5,66.4 120.8,64.8 122.1,63.2 123.5,61.6 124.8,60.1 126.1,58.6 127.4,57.1 128.7,55.6 130.0,54.1 131.3,52.7 132.6,51.3 134.0,49.9 135.3,48.5 136.6,47.1 137.9,45.8 139.2,44.4 140.5,43.1 141.8,41.9 143.2,40.6 144.5,39.4 145.8,38.1 147.1,37.0 148.4,35.8 149.7,34.6 151.0,33.5 152.4,32.4 153.7,31.3 155.0,30.3 156.3,29.2 157.6,28.2 158.9,27.2 160.2,26.2 161.5,25.3 162.9,24.4 164.2,23.5 165.5,22.6 166.8,21.8 168.1,20.9 169.4,20.1 170.7,19.4 172.1,18.6 173.4,17.9 174.7,17.2 176.0,16.5 177.3,15.9 178.6,15.2 179.9,14.6 181.3,14.1 182.6,13.5 183.9,13.0 185.2,12.5 186.5,12.0 187.8,11.6 189.1,11.2 190.5,10.8 191.8,10.4 193.1,10.1 194.4,9.7 195.7,9.5 197.0,9.2 198.3,9.0 199.6,8.7 201.0,8.6 202.3,8.4 203.6,8.3 204.9,8.2 206.2,8.1 207.5,8.0 208.8,8.0 210.2,8.0 211.5,8.0 212.8,8.1 214.1,8.2 215.4,8.3 216.7,8.4 218.0,8.6 219.4,8.7 220.7,9.0 222.0,9.2 223.3,9.5 224.6,9.7 225.9,10.1 227.2,10.4 228.5,10.8 229.9,11.2 231.2,11.6 232.5,12.0 233.8,12.5 235.1,13.0 236.4,13.5 237.7,14.1 239.1,14.6 240.4,15.2 241.7,15.9 243.0,16.5 244.3,17.2 245.6,17.9 246.9,18.6 248.3,19.4 249.6,20.1 250.9,20.9 252.2,21.8 253.5,22.6 254.8,23.5 256.1,24.4 257.5,25.3 258.8,26.2 260.1,27.2 261.4,28.2 262.7,29.2 264.0,30.3 265.3,31.3 266.6,32.4 268.0,33.5 269.3,34.6 270.6,35.8 271.9,37.0 273.2,38.1 274.5,39.4 275.8,40.6 277.2,41.9 278.5,43.1 279.8,44.4 281.1,45.8 282.4,47.1 283.7,48.5 285.0,49.9 286.4,51.3 287.7,52.7 289.0,54.1 290.3,55.6 291.6,57.1 292.9,58.6 294.2,60.1 295.5,61.6 296.9,63.2 298.2,64.8 299.5,66.4 300.8,68.0 302.1,69.6 303.4,71.3 304.7,72.9 306.1,74.6 307.4,76.3 308.7,78.0 310.0,79.7 311.3,81.5 312.6,83.2 313.9,85.0 315.3,86.8 316.6,88.6 317.9,90.4 319.2,92.2 320.5,94.1 321.8,95.9 323.1,97.8 324.5,99.7 325.8,101.6 327.1,103.5 328.4,105.4 329.7,107.3 331.0,109.3 332.3,111.2 333.6,113.2 335.0,115.2 336.3,117.1 337.6,119.1 338.9,121.1 340.2,123.2 341.5,125.2 342.8,127.2 344.2,129.3 345.5,131.3 346.8,133.4 348.1,135.4 349.4,137.5 350.7,139.6 352.0,141.6 353.4,143.7 354.7,145.8 356.0,147.9 357.3,150.0 358.6,152.1 359.9,154.3 361.2,156.4 362.5,158.5 363.9,160.6 365.2,162.7 366.5,164.9 367.8,167.0 369.1,169.1 370.4,171.3 371.7,173.4 373.1,175.6 374.4,177.7 375.7,179.9 377.0,182.0" fill="none" stroke="#4a90d9" stroke-width="1.5" stroke-linejoin="round"/>
  <line x1="450" y1="8.0" x2="785" y2="8.0" stroke="#e5e7eb" stroke-width="0.7"/>
  <text x="445" y="12.0" text-anchor="end" font-size="10" fill="#6b7280">0</text>
  <line x1="450" y1="66.0" x2="785" y2="66.0" stroke="#e5e7eb" stroke-width="0.7"/>
  <text x="445" y="70.0" text-anchor="end" font-size="10" fill="#6b7280">-40</text>
  <line x1="450" y1="124.0" x2="785" y2="124.0" stroke="#e5e7eb" stroke-width="0.7"/>
  <text x="445" y="128.0" text-anchor="end" font-size="10" fill="#6b7280">-80</text>
  <line x1="450" y1="182.0" x2="785" y2="182.0" stroke="#e5e7eb" stroke-width="0.7"/>
  <text x="445" y="186.0" text-anchor="end" font-size="10" fill="#6b7280">-120</text>
  <line x1="450.0" y1="8" x2="450.0" y2="182" stroke="#e5e7eb" stroke-width="0.7"/>
  <text x="450.0" y="198" text-anchor="middle" font-size="10" fill="#6b7280">0</text>
  <line x1="517.0" y1="8" x2="517.0" y2="182" stroke="#e5e7eb" stroke-width="0.7"/>
  <text x="517.0" y="198" text-anchor="middle" font-size="10" fill="#6b7280">0.1</text>
  <line x1="584.0" y1="8" x2="584.0" y2="182" stroke="#e5e7eb" stroke-width="0.7"/>
  <text x="584.0" y="198" text-anchor="middle" font-size="10" fill="#6b7280">0.2</text>
  <line x1="651.0" y1="8" x2="651.0" y2="182" stroke="#e5e7eb" stroke-width="0.7"/>
  <text x="651.0" y="198" text-anchor="middle" font-size="10" fill="#6b7280">0.3</text>
  <line x1="718.0" y1="8" x2="718.0" y2="182" stroke="#e5e7eb" stroke-width="0.7"/>
  <text x="718.0" y="198" text-anchor="middle" font-size="10" fill="#6b7280">0.4</text>
  <line x1="785.0" y1="8" x2="785.0" y2="182" stroke="#e5e7eb" stroke-width="0.7"/>
  <text x="785.0" y="198" text-anchor="middle" font-size="10" fill="#6b7280">0.5</text>
  <line x1="450" y1="8" x2="450" y2="182" stroke="#d1d5db" stroke-width="1"/>
  <line x1="450" y1="182" x2="785" y2="182" stroke="#d1d5db" stroke-width="1"/>
  <polyline points="450.0,8.0 450.2,8.0 450.3,8.2 450.5,8.4 450.7,8.7 450.8,9.2 451.0,9.7 451.1,10.3 451.3,11.0 451.5,11.9 451.6,12.8 451.8,13.9 452.0,15.1 452.1,16.5 452.3,18.0 452.5,19.8 452.6,21.7 452.8,23.9 452.9,26.5 453.1,29.4 453.3,32.9 453.4,37.3 453.6,43.2 453.8,52.4 453.9,84.4 454.1,57.1 454.3,49.0 454.4,45.2 454.6,43.0 454.7,41.9 454.9,41.4 455.1,41.5 455.2,42.0 455.4,43.0 455.6,44.5 455.7,46.5 455.9,49.2 456.1,52.8 456.2,57.8 456.4,66.1 456.5,91.8 456.7,71.3 456.9,62.3 457.0,57.9 457.2,55.2 457.4,53.6 457.5,52.8 457.7,52.5 457.9,52.7 458.0,53.4 458.2,54.5 458.3,56.2 458.5,58.6 458.7,61.9 458.8,66.6 459.0,74.4 459.2,96.3 459.3,80.8 459.5,71.1 459.7,66.3 459.8,63.4 460.0,61.6 460.1,60.5 460.3,60.0 460.5,60.1 460.6,60.6 460.8,61.6 461.0,63.2 461.1,65.4 461.3,68.5 461.5,72.9 461.6,80.3 461.8,99.6 461.9,88.2 462.1,77.8 462.3,72.7 462.4,69.6 462.6,67.6 462.8,66.5 462.9,65.9 463.1,65.8 463.3,66.2 463.4,67.1 463.6,68.5 463.7,70.6 463.9,73.6 464.1,77.9 464.2,84.9 464.4,102.1 464.6,94.4 464.7,83.2 464.9,77.9 465.1,74.6 465.2,72.6 465.4,71.3 465.5,70.6 465.7,70.4 465.9,70.7 466.0,71.6 466.2,72.9 466.4,74.9 466.5,77.7 466.7,81.9 466.9,88.6 467.0,104.3 467.2,99.8 467.3,87.8 467.5,82.2 467.7,78.9 467.8,76.7 468.0,75.3 468.2,74.6 468.3,74.3 468.5,74.6 468.7,75.3 468.8,76.6 469.0,78.5 469.1,81.2 469.3,85.3 469.5,91.7 469.6,106.1 469.8,104.8 470.0,91.8 470.1,86.0 470.3,82.5 470.5,80.3 470.6,78.8 470.8,78.0 470.9,77.7 471.1,77.9 471.3,78.6 471.4,79.8 471.6,81.6 471.8,84.3 471.9,88.2 472.1,94.3 472.3,107.7 472.4,109.5 472.6,95.4 472.7,89.4 472.9,85.8 473.1,83.4 473.2,81.9 473.4,81.0 473.6,80.7 473.7,80.8 473.9,81.5 474.1,82.6 474.2,84.4 474.4,87.0 474.5,90.7 474.7,96.7 474.9,109.1 475.0,114.1 475.2,98.7 475.4,92.4 475.5,88.7 475.7,86.3 475.9,84.7 476.0,83.8 476.2,83.4 476.3,83.5 476.5,84.0 476.7,85.1 476.8,86.9 477.0,89.3 477.2,93.0 477.3,98.7 477.5,110.3 477.7,118.7 477.8,101.8 478.0,95.2 478.1,91.4 478.3,88.8 478.5,87.2 478.6,86.2 478.8,85.8 479.0,85.8 479.1,86.4 479.3,87.4 479.5,89.1 479.6,91.5 479.8,95.0 479.9,100.6 480.1,111.5 480.3,123.6 480.4,104.6 480.6,97.8 480.8,93.8 480.9,91.2 481.1,89.5 481.3,88.5 481.4,88.0 481.6,88.0 481.7,88.5 481.9,89.5 482.1,91.1 482.2,93.4 482.4,96.9 482.6,102.3 482.7,112.5 482.9,128.9 483.1,107.3 483.2,100.2 483.4,96.0 483.5,93.4 483.7,91.6 483.9,90.5 484.0,90.0 484.2,90.0 484.4,90.4 484.5,91.4 484.7,92.9 484.9,95.2 485.0,98.6 485.2,103.8 485.3,113.5 485.5,135.1 485.7,109.9 485.8,102.4 486.0,98.1 486.2,95.4 486.3,93.6 486.5,92.5 486.7,91.9 486.8,91.8 487.0,92.2 487.1,93.1 487.3,94.6 487.5,96.9 487.6,100.1 487.8,105.2 488.0,114.4 488.1,143.5 488.3,112.3 488.5,104.5 488.6,100.1 488.8,97.3 488.9,95.4 489.1,94.2 489.3,93.6 489.4,93.5 489.6,93.9 489.8,94.8 489.9,96.2 490.1,98.4 490.3,101.6 490.4,106.4 490.6,115.2 490.7,160.2 490.9,114.7 491.1,106.5 491.2,102.0 491.4,99.1 491.6,97.1 491.7,95.9 491.9,95.3 492.1,95.1 492.2,95.5 492.4,96.3 492.6,97.7 492.7,99.8 492.9,102.9 493.0,107.6 493.2,116.0 493.4,158.6 493.5,117.1 493.7,108.4 493.9,103.7 494.0,100.7 494.2,98.8 494.4,97.5 494.5,96.8 494.7,96.6 494.8,96.9 495.0,97.7 495.2,99.1 495.3,101.2 495.5,104.2 495.7,108.7 495.8,116.7 496.0,147.1 496.2,119.3 496.3,110.3 496.5,105.4 496.6,102.3 496.8,100.3 497.0,99.0 497.1,98.3 497.3,98.0 497.5,98.3 497.6,99.1 497.8,100.4 498.0,102.4 498.1,105.3 498.3,109.8 498.4,117.4 498.6,142.3 498.8,121.6 498.9,112.0 499.1,107.0 499.3,103.9 499.4,101.8 499.6,100.4 499.8,99.6 499.9,99.4 500.1,99.6 500.2,100.3 500.4,101.6 500.6,103.6 500.7,106.4 500.9,110.7 501.1,118.1 501.2,139.4 501.4,123.9 501.6,113.7 501.7,108.6 501.9,105.3 502.0,103.2 502.2,101.7 502.4,100.9 502.5,100.7 502.7,100.8 502.9,101.5 503.0,102.8 503.2,104.7 503.4,107.5 503.5,111.7 503.7,118.7 503.8,137.6 504.0,126.2 504.2,115.4 504.3,110.0 504.5,106.7 504.7,104.5 504.8,103.0 505.0,102.2 505.2,101.9 505.3,102.0 505.5,102.7 505.6,103.9 505.8,105.7 506.0,108.4 506.1,112.5 506.3,119.3 506.5,136.2 506.6,128.5 506.8,117.0 507.0,111.5 507.1,108.0 507.3,105.7 507.4,104.3 507.6,103.4 507.8,103.0 507.9,103.1 508.1,103.8 508.3,104.9 508.4,106.7 508.6,109.4 508.8,113.3 508.9,119.8 509.1,135.3 509.2,130.9 509.4,118.6 509.6,112.8 509.7,109.3 509.9,107.0 510.1,105.4 510.2,104.5 510.4,104.1 510.6,104.2 510.7,104.8 510.9,105.9 511.0,107.7 511.2,110.2 511.4,114.1 511.5,120.4 511.7,134.6 511.9,133.3 512.0,120.1 512.2,114.2 512.4,110.5 512.5,108.1 512.7,106.6 512.8,105.6 513.0,105.2 513.2,105.2 513.3,105.8 513.5,106.9 513.7,108.6 513.8,111.1 514.0,114.8 514.2,120.9 514.3,134.0 514.5,135.9 514.6,121.7 514.8,115.5 515.0,111.7 515.1,109.3 515.3,107.6 515.5,106.6 515.6,106.2 515.8,106.2 516.0,106.7 516.1,107.8 516.3,109.4 516.4,111.9 516.6,115.5 516.8,121.4 516.9,133.6 517.1,138.7 517.3,123.2 517.4,116.8 517.6,112.9 517.8,110.4 517.9,108.7 518.1,107.6 518.2,107.2 518.4,107.1 518.6,107.6 518.7,108.6 518.9,110.2 519.1,112.6 519.2,116.2 519.4,121.8 519.6,133.3 519.7,141.8 519.9,124.7 520.0,118.0 520.2,114.0 520.4,111.4 520.5,109.7 520.7,108.6 520.9,108.1 521.0,108.0 521.2,108.5 521.4,109.5 521.5,111.0 521.7,113.4 521.8,116.8 522.0,122.3 522.2,133.0 522.3,145.3 522.5,126.2 522.7,119.2 522.8,115.1 523.0,112.4 523.2,110.7 523.3,109.6 523.5,109.0 523.6,108.9 523.8,109.3 524.0,110.3 524.1,111.8 524.3,114.1 524.5,117.4 524.6,122.7 524.8,132.9 525.0,149.4 525.1,127.6 525.3,120.4 525.4,116.2 525.6,113.4 525.8,111.6 525.9,110.5 526.1,109.9 526.3,109.8 526.4,110.1 526.6,111.0 526.8,112.5 526.9,114.7 527.1,118.0 527.2,123.1 527.4,132.7 527.6,154.7 527.7,129.1 527.9,121.5 528.1,117.2 528.2,114.4 528.4,112.5 528.6,111.3 528.7,110.7 528.9,110.6 529.0,110.9 529.2,111.8 529.4,113.2 529.5,115.4 529.7,118.6 529.9,123.5 530.0,132.7 530.2,162.4 530.4,130.6 530.5,122.7 530.7,118.2 530.8,115.3 531.0,113.4 531.2,112.2 531.3,111.5 531.5,111.3 531.7,111.7 531.8,112.5 532.0,113.9 532.2,116.0 532.3,119.1 532.5,123.9 532.6,132.6 532.8,179.5 533.0,132.1 533.1,123.8 533.3,119.2 533.5,116.3 533.6,114.3 533.8,113.0 534.0,112.3 534.1,112.1 534.3,112.4 534.4,113.2 534.6,114.5 534.8,116.6 534.9,119.6 535.1,124.3 535.3,132.6 535.4,173.8 535.6,133.6 535.8,124.9 535.9,120.2 536.1,117.2 536.2,115.1 536.4,113.8 536.6,113.1 536.7,112.8 536.9,113.1 537.1,113.8 537.2,115.2 537.4,117.2 537.6,120.1 537.7,124.6 537.9,132.6 538.0,162.5 538.2,135.2 538.4,126.0 538.5,121.1 538.7,118.0 538.9,115.9 539.0,114.6 539.2,113.8 539.4,113.5 539.5,113.8 539.7,114.5 539.8,115.8 540.0,117.7 540.2,120.6 540.3,125.0 540.5,132.6 540.7,157.1 540.8,136.8 541.0,127.1 541.2,122.1 541.3,118.9 541.5,116.7 541.6,115.3 541.8,114.5 542.0,114.2 542.1,114.4 542.3,115.1 542.5,116.3 542.6,118.3 542.8,121.1 543.0,125.3 543.1,132.6 543.3,153.8 543.4,138.4 543.6,128.2 543.8,123.0 543.9,119.7 544.1,117.5 544.3,116.1 544.4,115.2 544.6,114.9 544.8,115.1 544.9,115.7 545.1,116.9 545.2,118.8 545.4,121.5 545.6,125.7 545.7,132.6 545.9,151.3 546.1,140.2 546.2,129.3 546.4,123.9 546.6,120.5 546.7,118.3 546.9,116.8 547.0,115.9 547.2,115.5 547.4,115.7 547.5,116.3 547.7,117.5 547.9,119.3 548.0,121.9 548.2,126.0 548.4,132.7 548.5,149.5 548.7,141.9 548.8,130.4 549.0,124.8 549.2,121.3 549.3,119.0 549.5,117.5 549.7,116.6 549.8,116.2 550.0,116.3 550.2,116.9 550.3,118.0 550.5,119.7 550.6,122.4 550.8,126.3 551.0,132.7 551.1,148.1 551.3,143.8 551.5,131.5 551.6,125.7 551.8,122.1 552.0,119.7 552.1,118.2 552.3,117.2 552.4,116.8 552.6,116.9 552.8,117.4 552.9,118.5 553.1,120.2 553.3,122.8 553.4,126.6 553.6,132.8 553.8,146.9 553.9,145.8 554.1,132.6 554.2,126.6 554.4,122.9 554.6,120.5 554.7,118.8 554.9,117.9 555.1,117.4 555.2,117.4 555.4,117.9 555.6,119.0 555.7,120.7 555.9,123.2 556.0,126.9 556.2,132.9 556.4,145.9 556.5,148.0 556.7,133.7 556.9,127.4 557.0,123.7 557.2,121.2 557.4,119.5 557.5,118.5 557.7,118.0 557.8,118.0 558.0,118.5 558.2,119.5 558.3,121.1 558.5,123.5 558.7,127.2 558.8,133.0 559.0,145.1 559.2,150.4 559.3,134.8 559.5,128.3 559.6,124.4 559.8,121.8 560.0,120.1 560.1,119.1 560.3,118.5 560.5,118.5 560.6,119.0 560.8,120.0 561.0,121.5 561.1,123.9 561.3,127.4 561.4,133.0 561.6,144.4 561.8,153.2 561.9,135.9 562.1,129.1 562.3,125.1 562.4,122.5 562.6,120.8 562.8,119.7 562.9,119.1 563.1,119.0 563.2,119.5 563.4,120.4 563.6,122.0 563.7,124.3 563.9,127.7 564.1,133.1 564.2,143.8 564.4,156.3 564.6,137.0 564.7,130.0 564.9,125.9 565.0,123.2 565.2,121.4 565.4,120.2 565.5,119.6 565.7,119.6 565.9,119.9 566.0,120.9 566.2,122.4 566.4,124.6 566.5,128.0 566.7,133.2 566.8,143.3 567.0,160.1 567.2,138.1 567.3,130.8 567.5,126.6 567.7,123.8 567.8,122.0 568.0,120.8 568.2,120.2 568.3,120.1 568.5,120.4 568.6,121.3 568.8,122.7 569.0,124.9 569.1,128.2 569.3,133.3 569.5,142.8 569.6,165.2 569.8,139.3 570.0,131.7 570.1,127.3 570.3,124.5 570.4,122.6 570.6,121.4 570.8,120.7 570.9,120.5 571.1,120.9 571.3,121.7 571.4,123.1 571.6,125.3 571.8,128.4 571.9,133.4 572.1,142.5 572.2,172.8 572.4,140.5 572.6,132.5 572.7,128.0 572.9,125.1 573.1,123.2 573.2,121.9 573.4,121.2 573.6,121.0 573.7,121.3 573.9,122.1 574.0,123.5 574.2,125.6 574.4,128.7 574.5,133.5 574.7,142.1 574.9,182.0 575.0,141.7 575.2,133.3 575.4,128.7 575.5,125.7 575.7,123.7 575.9,122.4 576.0,121.7 576.2,121.5 576.3,121.7 576.5,122.5 576.7,123.9 576.8,125.9 577.0,128.9 577.2,133.5 577.3,141.8 577.5,181.9 577.7,142.9 577.8,134.2 578.0,129.4 578.1,126.3 578.3,124.3 578.5,122.9 578.6,122.2 578.8,121.9 579.0,122.2 579.1,122.9 579.3,124.2 579.5,126.2 579.6,129.1 579.8,133.6 579.9,141.5 580.1,171.0 580.3,144.2 580.4,135.0 580.6,130.1 580.8,126.9 580.9,124.8 581.1,123.5 581.3,122.7 581.4,122.4 581.6,122.6 581.7,123.3 581.9,124.5 582.1,126.5 582.2,129.4 582.4,133.7 582.6,141.3 582.7,165.6 582.9,145.6 583.1,135.9 583.2,130.8 583.4,127.5 583.5,125.4 583.7,124.0 583.9,123.1 584.0,122.8 584.2,123.0 584.4,123.7 584.5,124.9 584.7,126.8 584.9,129.6 585.0,133.8 585.2,141.0 585.3,162.0 585.5,147.0 585.7,136.7 585.8,131.4 586.0,128.1 586.2,125.9 586.3,124.5 586.5,123.6 586.7,123.2 586.8,123.4 587.0,124.0 587.1,125.2 587.3,127.1 587.5,129.8 587.6,133.9 587.8,140.9 588.0,159.4 588.1,148.4 588.3,137.5 588.5,132.1 588.6,128.7 588.8,126.4 588.9,124.9 589.1,124.0 589.3,123.7 589.4,123.8 589.6,124.4 589.8,125.5 589.9,127.3 590.1,130.0 590.3,134.0 590.4,140.7 590.6,157.4 590.7,150.0 590.9,138.4 591.1,132.8 591.2,129.3 591.4,127.0 591.6,125.4 591.7,124.5 591.9,124.1 592.1,124.2 592.2,124.7 592.4,125.8 592.5,127.6 592.7,130.2 592.9,134.1 593.0,140.5 593.2,155.7 593.4,151.7 593.5,139.3 593.7,133.5 593.9,129.9 594.0,127.5 594.2,125.9 594.3,124.9 594.5,124.5 594.7,124.5 594.8,125.1 595.0,126.1 595.2,127.8 595.3,130.4 595.5,134.2 595.7,140.4 595.8,154.4 596.0,153.5 596.1,140.2 596.3,134.1 596.5,130.4 596.6,128.0 596.8,126.4 597.0,125.3 597.1,124.9 597.3,124.9 597.5,125.4 597.6,126.4 597.8,128.1 597.9,130.6 598.1,134.3 598.3,140.2 598.4,153.2 598.6,155.5 598.8,141.0 598.9,134.8 599.1,131.0 599.3,128.5 599.4,126.8 599.6,125.8 599.7,125.3 599.9,125.2 600.1,125.7 600.2,126.7 600.4,128.3 600.6,130.7 600.7,134.3 600.9,140.1 601.1,152.2 601.2,157.7 601.4,141.9 601.5,135.5 601.7,131.6 601.9,129.0 602.0,127.3 602.2,126.2 602.4,125.6 602.5,125.6 602.7,126.0 602.9,127.0 603.0,128.6 603.2,130.9 603.3,134.4 603.5,140.0 603.7,151.3 603.8,160.3 604.0,142.9 604.2,136.1 604.3,132.1 604.5,129.5 604.7,127.7 604.8,126.6 605.0,126.0 605.1,125.9 605.3,126.3 605.5,127.3 605.6,128.8 605.8,131.1 606.0,134.5 606.1,139.9 606.3,150.6 606.5,163.3 606.6,143.8 606.8,136.8 606.9,132.7 607.1,130.0 607.3,128.1 607.4,127.0 607.6,126.4 607.8,126.3 607.9,126.7 608.1,127.5 608.3,129.0 608.4,131.3 608.6,134.6 608.7,139.8 608.9,149.9 609.1,167.0 609.2,144.8 609.4,137.5 609.6,133.2 609.7,130.4 609.9,128.6 610.1,127.4 610.2,126.7 610.4,126.6 610.5,126.9 610.7,127.8 610.9,129.3 611.0,131.4 611.2,134.7 611.4,139.7 611.5,149.3 611.7,172.0 611.9,145.8 612.0,138.1 612.2,133.8 612.3,130.9 612.5,129.0 612.7,127.8 612.8,127.1 613.0,126.9 613.2,127.2 613.3,128.1 613.5,129.5 613.7,131.6 613.8,134.8 614.0,139.7 614.1,148.7 614.3,179.7 614.5,146.8 614.6,138.8 614.8,134.3 615.0,131.4 615.1,129.4 615.3,128.1 615.5,127.4 615.6,127.2 615.8,127.5 615.9,128.3 616.1,129.7 616.3,131.8 616.4,134.8 616.6,139.6 616.8,148.2 616.9,182.0 617.1,147.9 617.3,139.5 617.4,134.8 617.6,131.8 617.7,129.8 617.9,128.5 618.1,127.8 618.2,127.6 618.4,127.8 618.6,128.6 618.7,129.9 618.9,131.9 619.1,134.9 619.2,139.5 619.4,147.7 619.5,182.0 619.7,149.0 619.9,140.2 620.0,135.4 620.2,132.3 620.4,130.2 620.5,128.9 620.7,128.1 620.9,127.9 621.0,128.1 621.2,128.8 621.3,130.1 621.5,132.1 621.7,135.0 621.8,139.5 622.0,147.3 622.2,176.4 622.3,150.1 622.5,140.9 622.7,135.9 622.8,132.8 623.0,130.6 623.1,129.3 623.3,128.4 623.5,128.2 623.6,128.3 623.8,129.0 624.0,130.3 624.1,132.2 624.3,135.1 624.5,139.4 624.6,146.9 624.8,171.0 624.9,151.3 625.1,141.6 625.3,136.5 625.4,133.2 625.6,131.0 625.8,129.6 625.9,128.8 626.1,128.4 626.3,128.6 626.4,129.3 626.6,130.5 626.7,132.4 626.9,135.1 627.1,139.4 627.2,146.6 627.4,167.4 627.6,152.6 627.7,142.3 627.9,137.0 628.1,133.7 628.2,131.4 628.4,130.0 628.5,129.1 628.7,128.7 628.9,128.9 629.0,129.5 629.2,130.7 629.4,132.5 629.5,135.2 629.7,139.3 629.9,146.2 630.0,164.7 630.2,153.9 630.3,143.0 630.5,137.5 630.7,134.1 630.8,131.8 631.0,130.3 631.2,129.4 631.3,129.0 631.5,129.1 631.7,129.7 631.8,130.8 632.0,132.6 632.1,135.3 632.3,139.3 632.5,145.9 632.6,162.5 632.8,155.4 633.0,143.7 633.1,138.1 633.3,134.6 633.5,132.2 633.6,130.7 633.8,129.7 633.9,129.3 634.1,129.4 634.3,129.9 634.4,131.0 634.6,132.8 634.8,135.4 634.9,139.2 635.1,145.6 635.3,160.8 635.4,156.9 635.6,144.4 635.7,138.6 635.9,135.0 636.1,132.6 636.2,131.0 636.4,130.0 636.6,129.6 636.7,129.6 636.9,130.1 637.1,131.2 637.2,132.9 637.4,135.4 637.5,139.2 637.7,145.4 637.9,159.3 638.0,158.6 638.2,145.2 638.4,139.2 638.5,135.5 638.7,133.0 638.9,131.3 639.0,130.3 639.2,129.8 639.3,129.9 639.5,130.4 639.7,131.4 639.8,133.0 640.0,135.5 640.2,139.2 640.3,145.1 640.5,158.0 640.7,160.5 640.8,146.0 641.0,139.7 641.1,135.9 641.3,133.4 641.5,131.7 641.6,130.6 641.8,130.1 642.0,130.1 642.1,130.6 642.3,131.5 642.5,133.1 642.6,135.6 642.8,139.1 642.9,144.9 643.1,156.9 643.3,162.6 643.4,146.8 643.6,140.2 643.8,136.3 643.9,133.7 644.1,132.0 644.3,130.9 644.4,130.4 644.6,130.3 644.7,130.8 644.9,131.7 645.1,133.3 645.2,135.6 645.4,139.1 645.6,144.7 645.7,155.9 645.9,165.1 646.1,147.6 646.2,140.8 646.4,136.8 646.5,134.1 646.7,132.3 646.9,131.2 647.0,130.6 647.2,130.5 647.4,130.9 647.5,131.9 647.7,133.4 647.9,135.7 648.0,139.1 648.2,144.5 648.3,155.1 648.5,168.0 648.7,148.4 648.8,141.4 649.0,137.2 649.2,134.5 649.3,132.7 649.5,131.5 649.7,130.9 649.8,130.8 650.0,131.1 650.1,132.0 650.3,133.5 650.5,135.7 650.6,139.0 650.8,144.2 651.0,154.3 651.1,171.7 651.3,149.3 651.5,141.9 651.6,137.6 651.8,134.9 651.9,133.0 652.1,131.8 652.3,131.1 652.4,131.0 652.6,131.3 652.8,132.2 652.9,133.6 653.1,135.8 653.3,139.0 653.4,144.1 653.6,153.5 653.7,176.7 653.9,150.1 654.1,142.5 654.2,138.1 654.4,135.2 654.6,133.3 654.7,132.1 654.9,131.4 655.1,131.2 655.2,131.5 655.4,132.3 655.5,133.7 655.7,135.8 655.9,139.0 656.0,143.9 656.2,152.9 656.4,182.0 656.5,151.1 656.7,143.0 656.9,138.5 657.0,135.6 657.2,133.6 657.3,132.3 657.5,131.6 657.7,131.4 657.8,131.7 658.0,132.5 658.2,133.8 658.3,135.9 658.5,139.0 658.7,143.7 658.8,152.3 659.0,182.0 659.1,152.0 659.3,143.6 659.5,139.0 659.6,135.9 659.8,133.9 660.0,132.6 660.1,131.9 660.3,131.6 660.5,131.9 660.6,132.6 660.8,133.9 661.0,135.9 661.1,138.9 661.3,143.5 661.4,151.7 661.6,182.0 661.8,153.0 661.9,144.2 662.1,139.4 662.3,136.3 662.4,134.2 662.6,132.9 662.8,132.1 662.9,131.8 663.1,132.0 663.2,132.8 663.4,134.0 663.6,136.0 663.7,138.9 663.9,143.4 664.1,151.2 664.2,179.9 664.4,154.1 664.6,144.8 664.7,139.8 664.9,136.7 665.0,134.5 665.2,133.1 665.4,132.3 665.5,132.0 665.7,132.2 665.9,132.9 666.0,134.1 666.2,136.0 666.4,138.9 666.5,143.2 666.7,150.7 666.8,174.5 667.0,155.2 667.2,145.4 667.3,140.3 667.5,137.0 667.7,134.8 667.8,133.4 668.0,132.6 668.2,132.2 668.3,132.4 668.5,133.0 668.6,134.2 668.8,136.1 669.0,138.9 669.1,143.1 669.3,150.3 669.5,170.9 669.6,156.4 669.8,146.0 670.0,140.7 670.1,137.4 670.3,135.1 670.4,133.7 670.6,132.8 670.8,132.4 670.9,132.5 671.1,133.2 671.3,134.3 671.4,136.1 671.6,138.8 671.8,142.9 671.9,149.8 672.1,168.1 672.2,157.6 672.4,146.6 672.6,141.2 672.7,137.7 672.9,135.4 673.1,133.9 673.2,133.0 673.4,132.6 673.6,132.7 673.7,133.3 673.9,134.4 674.0,136.2 674.2,138.8 674.4,142.8 674.5,149.4 674.7,165.9 674.9,159.0 675.0,147.3 675.2,141.6 675.4,138.1 675.5,135.7 675.7,134.2 675.8,133.2 676.0,132.8 676.2,132.9 676.3,133.4 676.5,134.5 676.7,136.2 676.8,138.8 677.0,142.7 677.2,149.1 677.3,164.1 677.5,160.5 677.6,147.9 677.8,142.1 678.0,138.4 678.1,136.0 678.3,134.4 678.5,133.4 678.6,133.0 678.8,133.0 679.0,133.5 679.1,134.6 679.3,136.3 679.4,138.8 679.6,142.5 679.8,148.7 679.9,162.6 680.1,162.1 680.3,148.6 680.4,142.5 680.6,138.8 680.8,136.3 680.9,134.7 681.1,133.6 681.2,133.2 681.4,133.2 681.6,133.6 681.7,134.7 681.9,136.3 682.1,138.8 682.2,142.4 682.4,148.4 682.6,161.2 682.7,163.9 682.9,149.3 683.0,143.0 683.2,139.1 683.4,136.6 683.5,134.9 683.7,133.9 683.9,133.3 684.0,133.3 684.2,133.8 684.4,134.7 684.5,136.3 684.7,138.7 684.8,142.3 685.0,148.0 685.2,160.0 685.3,165.9 685.5,150.0 685.7,143.4 685.8,139.5 686.0,136.9 686.2,135.2 686.3,134.1 686.5,133.5 686.6,133.4 686.8,133.9 687.0,134.8 687.1,136.4 687.3,138.7 687.5,142.2 687.6,147.7 687.8,159.0 688.0,168.3 688.1,150.7 688.3,143.9 688.4,139.9 688.6,137.2 688.8,135.4 688.9,134.3 689.1,133.7 689.3,133.6 689.4,134.0 689.6,134.9 689.8,136.4 689.9,138.7 690.1,142.1 690.2,147.4 690.4,158.0 690.6,171.2 690.7,151.4 690.9,144.4 691.1,140.2 691.2,137.5 691.4,135.6 691.6,134.5 691.7,133.9 691.9,133.7 692.0,134.1 692.2,135.0 692.4,136.4 692.5,138.7 692.7,142.0 692.9,147.2 693.0,157.1 693.2,174.9 693.4,152.2 693.5,144.8 693.7,140.6 693.8,137.8 694.0,135.9 694.2,134.7 694.3,134.0 694.5,133.9 694.7,134.2 694.8,135.0 695.0,136.5 695.2,138.6 695.3,141.9 695.5,146.9 695.6,156.3 695.8,179.9 696.0,153.0 696.1,145.3 696.3,140.9 696.5,138.0 696.6,136.1 696.8,134.9 697.0,134.2 697.1,134.0 697.3,134.3 697.4,135.1 697.6,136.5 697.8,138.6 697.9,141.7 698.1,146.6 698.3,155.6 698.4,182.0 698.6,153.9 698.8,145.8 698.9,141.3 699.1,138.3 699.2,136.3 699.4,135.1 699.6,134.3 699.7,134.1 699.9,134.4 700.1,135.2 700.2,136.5 700.4,138.6 700.6,141.6 700.7,146.4 700.9,154.9 701.0,182.0 701.2,154.7 701.4,146.3 701.5,141.6 701.7,138.6 701.9,136.6 702.0,135.3 702.2,134.5 702.4,134.3 702.5,134.5 702.7,135.2 702.8,136.5 703.0,138.6 703.2,141.5 703.3,146.1 703.5,154.3 703.7,182.0 703.8,155.7 704.0,146.8 704.2,142.0 704.3,138.9 704.5,136.8 704.6,135.4 704.8,134.7 705.0,134.4 705.1,134.6 705.3,135.3 705.5,136.6 705.6,138.5 705.8,141.4 706.0,145.9 706.1,153.7 706.3,181.9 706.4,156.6 706.6,147.3 706.8,142.4 706.9,139.2 707.1,137.0 707.3,135.6 707.4,134.8 707.6,134.5 707.8,134.7 707.9,135.4 708.1,136.6 708.2,138.5 708.4,141.3 708.6,145.7 708.7,153.1 708.9,176.7 709.1,157.7 709.2,147.9 709.4,142.7 709.6,139.5 709.7,137.3 709.9,135.8 710.0,135.0 710.2,134.6 710.4,134.8 710.5,135.4 710.7,136.6 710.9,138.5 711.0,141.2 711.2,145.4 711.4,152.6 711.5,173.0 711.7,158.8 711.8,148.4 712.0,143.1 712.2,139.7 712.3,137.5 712.5,136.0 712.7,135.1 712.8,134.7 713.0,134.9 713.2,135.5 713.3,136.6 713.5,138.4 713.6,141.1 713.8,145.2 714.0,152.1 714.1,170.3 714.3,160.0 714.5,148.9 714.6,143.5 714.8,140.0 715.0,137.7 715.1,136.2 715.3,135.3 715.4,134.9 715.6,134.9 715.8,135.5 715.9,136.6 716.1,138.4 716.3,141.0 716.4,145.0 716.6,151.6 716.8,168.0 716.9,161.3 717.1,149.5 717.2,143.8 717.4,140.3 717.6,137.9 717.7,136.4 717.9,135.4 718.1,135.0 718.2,135.0 718.4,135.6 718.6,136.7 718.7,138.4 718.9,141.0 719.0,144.8 719.2,151.2 719.4,166.1 719.5,162.7 719.7,150.1 719.9,144.2 720.0,140.6 720.2,138.2 720.4,136.5 720.5,135.6 720.7,135.1 720.8,135.1 721.0,135.6 721.2,136.7 721.3,138.4 721.5,140.9 721.7,144.6 721.8,150.8 722.0,164.5 722.2,164.2 722.3,150.7 722.5,144.6 722.6,140.9 722.8,138.4 723.0,136.7 723.1,135.7 723.3,135.2 723.5,135.2 723.6,135.7 723.8,136.7 724.0,138.3 724.1,140.8 724.3,144.4 724.4,150.3 724.6,163.1 724.8,166.0 724.9,151.3 725.1,145.0 725.3,141.1 725.4,138.6 725.6,136.9 725.8,135.8 725.9,135.3 726.1,135.3 726.2,135.7 726.4,136.7 726.6,138.3 726.7,140.7 726.9,144.2 727.1,149.9 727.2,161.9 727.4,168.0 727.6,151.9 727.7,145.4 727.9,141.4 728.0,138.8 728.2,137.1 728.4,136.0 728.5,135.4 728.7,135.3 728.9,135.8 729.0,136.7 729.2,138.2 729.4,140.6 729.5,144.0 729.7,149.6 729.8,160.8 730.0,170.4 730.2,152.6 730.3,145.8 730.5,141.7 730.7,139.0 730.8,137.2 731.0,136.1 731.2,135.5 731.3,135.4 731.5,135.8 731.6,136.7 731.8,138.2 732.0,140.5 732.1,143.9 732.3,149.2 732.5,159.7 732.6,173.2 732.8,153.3 733.0,146.2 733.1,142.0 733.3,139.3 733.4,137.4 733.6,136.2 733.8,135.6 733.9,135.5 734.1,135.8 734.3,136.7 734.4,138.2 734.6,140.4 734.8,143.7 734.9,148.9 735.1,158.8 735.2,176.8 735.4,154.0 735.6,146.6 735.7,142.3 735.9,139.5 736.1,137.6 736.2,136.4 736.4,135.7 736.6,135.6 736.7,135.9 736.9,136.7 737.0,138.1 737.2,140.3 737.4,143.5 737.5,148.5 737.7,157.9 737.9,181.9 738.0,154.7 738.2,147.0 738.4,142.6 738.5,139.7 738.7,137.7 738.8,136.5 739.0,135.8 739.2,135.6 739.3,135.9 739.5,136.7 739.7,138.1 739.8,140.2 740.0,143.3 740.2,148.2 740.3,157.1 740.5,182.0 740.6,155.5 740.8,147.4 741.0,142.9 741.1,139.9 741.3,137.9 741.5,136.6 741.6,135.9 741.8,135.7 742.0,135.9 742.1,136.7 742.3,138.1 742.4,140.1 742.6,143.2 742.8,147.9 742.9,156.4 743.1,182.0 743.3,156.3 743.4,147.8 743.6,143.2 743.8,140.1 743.9,138.1 744.1,136.8 744.3,136.0 744.4,135.7 744.6,136.0 744.7,136.7 744.9,138.0 745.1,140.0 745.2,143.0 745.4,147.6 745.6,155.7 745.7,182.0 745.9,157.2 746.1,148.3 746.2,143.4 746.4,140.3 746.5,138.2 746.7,136.9 746.9,136.1 747.0,135.8 747.2,136.0 747.4,136.7 747.5,138.0 747.7,139.9 747.9,142.8 748.0,147.3 748.2,155.0 748.3,182.0 748.5,158.1 748.7,148.7 748.8,143.7 749.0,140.6 749.2,138.4 749.3,137.0 749.5,136.2 749.7,135.9 749.8,136.0 750.0,136.7 750.1,137.9 750.3,139.8 750.5,142.7 750.6,147.0 750.8,154.4 751.0,177.7 751.1,159.1 751.3,149.2 751.5,144.0 751.6,140.8 751.8,138.6 751.9,137.1 752.1,136.3 752.3,135.9 752.4,136.1 752.6,136.7 752.8,137.9 752.9,139.7 753.1,142.5 753.3,146.7 753.4,153.8 753.6,174.1 753.7,160.1 753.9,149.7 754.1,144.3 754.2,141.0 754.4,138.7 754.6,137.2 754.7,136.3 754.9,136.0 755.1,136.1 755.2,136.7 755.4,137.8 755.5,139.6 755.7,142.3 755.9,146.4 756.0,153.3 756.2,171.3 756.4,161.2 756.5,150.1 756.7,144.7 756.9,141.2 757.0,138.9 757.2,137.4 757.3,136.4 757.5,136.0 757.7,136.1 757.8,136.7 758.0,137.8 758.2,139.5 758.3,142.2 758.5,146.1 758.7,152.7 758.8,169.0 759.0,162.5 759.1,150.6 759.3,145.0 759.5,141.4 759.6,139.0 759.8,137.5 760.0,136.5 760.1,136.1 760.3,136.1 760.5,136.7 760.6,137.7 760.8,139.5 760.9,142.0 761.1,145.9 761.3,152.2 761.4,167.1 761.6,163.8 761.8,151.2 761.9,145.3 762.1,141.6 762.3,139.2 762.4,137.6 762.6,136.6 762.7,136.1 762.9,136.1 763.1,136.6 763.2,137.7 763.4,139.4 763.6,141.9 763.7,145.6 763.9,151.7 764.1,165.4 764.2,165.3 764.4,151.7 764.5,145.6 764.7,141.9 764.9,139.4 765.0,137.7 765.2,136.7 765.4,136.2 765.5,136.2 765.7,136.6 765.9,137.6 766.0,139.3 766.2,141.7 766.3,145.3 766.5,151.2 766.7,164.0 766.8,167.0 767.0,152.2 767.2,145.9 767.3,142.1 767.5,139.5 767.7,137.8 767.8,136.7 768.0,136.2 768.1,136.2 768.3,136.6 768.5,137.6 768.6,139.2 768.8,141.5 769.0,145.1 769.1,150.8 769.3,162.7 769.5,169.0 769.6,152.8 769.8,146.2 769.9,142.3 770.1,139.7 770.3,137.9 770.4,136.8 770.6,136.2 770.8,136.2 770.9,136.6 771.1,137.5 771.3,139.1 771.4,141.4 771.6,144.8 771.7,150.4 771.9,161.5 772.1,171.3 772.2,153.4 772.4,146.6 772.6,142.5 772.7,139.8 772.9,138.0 773.1,136.9 773.2,136.3 773.4,136.2 773.5,136.6 773.7,137.5 773.9,139.0 774.0,141.2 774.2,144.6 774.4,149.9 774.5,160.4 774.7,174.1 774.9,154.0 775.0,146.9 775.2,142.7 775.3,140.0 775.5,138.1 775.7,137.0 775.8,136.3 776.0,136.2 776.2,136.5 776.3,137.4 776.5,138.9 776.7,141.1 776.8,144.4 777.0,149.5 777.1,159.4 777.3,177.8 777.5,154.7 777.6,147.3 777.8,143.0 778.0,140.1 778.1,138.2 778.3,137.0 778.5,136.4 778.6,136.2 778.8,136.5 778.9,137.3 779.1,138.8 779.3,140.9 779.4,144.1 779.6,149.1 779.8,158.5 779.9,182.0 780.1,155.4 780.3,147.6 780.4,143.2 780.6,140.3 780.7,138.4 780.9,137.1 781.1,136.4 781.2,136.2 781.4,136.5 781.6,137.3 781.7,138.7 781.9,140.8 782.1,143.9 782.2,148.7 782.4,157.6 782.5,182.0 782.7,156.1 782.9,148.0 783.0,143.4 783.2,140.5 783.4,138.5 783.5,137.2 783.7,136.4 783.9,136.2 784.0,136.5 784.2,137.2 784.3,138.6 784.5,140.6 784.7,143.7 784.8,148.3 785.0,156.8" fill="none" stroke="#4a90d9" stroke-width="1.5" stroke-linejoin="round"/>
  <text x="209.5" y="214" text-anchor="middle" font-size="11" fill="#6b7280">n / N</text>
  <text x="617.5" y="214" text-anchor="middle" font-size="11" fill="#6b7280">Normalized frequency (× Fₛ)</text>
</svg>
