<svg xmlns="http://www.w3.org/2000/svg" viewBox="0 0 560 210" width="560" height="210" style="font-family:system-ui,-apple-system,sans-serif">
  <rect width="560" height="210" fill="#fafafa" rx="6"/>
  <text x="280" y="18" text-anchor="middle" font-size="12" font-weight="600" fill="#374151">dolphChebyshev</text>
  <line x1="52" y1="166.0" x2="257" y2="166.0" stroke="#e5e7eb" stroke-width="0.5"/>
  <text x="48" y="169.0" text-anchor="end" font-size="7.5" fill="#6b7280">0</text>
  <line x1="52" y1="97.0" x2="257" y2="97.0" stroke="#e5e7eb" stroke-width="0.5"/>
  <text x="48" y="100.0" text-anchor="end" font-size="7.5" fill="#6b7280">0.5</text>
  <line x1="52" y1="28.0" x2="257" y2="28.0" stroke="#e5e7eb" stroke-width="0.5"/>
  <text x="48" y="31.0" text-anchor="end" font-size="7.5" fill="#6b7280">1</text>
  <line x1="52.0" y1="28" x2="52.0" y2="166" stroke="#e5e7eb" stroke-width="0.5"/>
  <text x="52.0" y="178" text-anchor="middle" font-size="7.5" fill="#6b7280">0</text>
  <line x1="154.5" y1="28" x2="154.5" y2="166" stroke="#e5e7eb" stroke-width="0.5"/>
  <text x="154.5" y="178" text-anchor="middle" font-size="7.5" fill="#6b7280">0.5</text>
  <line x1="257.0" y1="28" x2="257.0" y2="166" stroke="#e5e7eb" stroke-width="0.5"/>
  <text x="257.0" y="178" text-anchor="middle" font-size="7.5" fill="#6b7280">1</text>
  <line x1="52" y1="28" x2="52" y2="166" stroke="#d1d5db" stroke-width="0.75"/>
  <line x1="52" y1="166" x2="257" y2="166" stroke="#d1d5db" stroke-width="0.75"/>
  <path d="M52.0,166.0 52.0,166.0 52.8,166.0 53.6,166.0 54.4,166.0 55.2,166.0 56.0,166.0 56.8,166.0 57.6,166.0 58.4,166.0 59.2,166.0 60.0,166.0 60.8,166.0 61.6,166.0 62.5,166.0 63.3,166.0 64.1,166.0 64.9,166.0 65.7,166.0 66.5,166.0 67.3,166.0 68.1,166.0 68.9,166.0 69.7,166.0 70.5,166.0 71.3,166.0 72.1,166.0 72.9,166.0 73.7,166.0 74.5,166.0 75.3,166.0 76.1,166.0 76.9,166.0 77.7,166.0 78.5,166.0 79.3,166.0 80.1,166.0 80.9,166.0 81.7,166.0 82.5,166.0 83.4,166.0 84.2,166.0 85.0,166.0 85.8,166.0 86.6,166.0 87.4,166.0 88.2,166.0 89.0,166.0 89.8,166.0 90.6,166.0 91.4,166.0 92.2,166.0 93.0,166.0 93.8,166.0 94.6,166.0 95.4,166.0 96.2,166.0 97.0,166.0 97.8,166.0 98.6,166.0 99.4,165.9 100.2,164.2 101.0,162.5 101.8,160.7 102.6,158.9 103.5,157.0 104.3,155.0 105.1,153.0 105.9,150.9 106.7,148.8 107.5,146.7 108.3,144.5 109.1,142.2 109.9,139.9 110.7,137.6 111.5,135.2 112.3,132.7 113.1,130.3 113.9,127.8 114.7,125.2 115.5,122.7 116.3,120.1 117.1,117.5 117.9,114.8 118.7,112.1 119.5,109.5 120.3,106.8 121.1,104.0 121.9,101.3 122.7,98.6 123.5,95.9 124.4,93.2 125.2,90.4 126.0,87.7 126.8,85.1 127.6,82.4 128.4,79.7 129.2,77.1 130.0,74.5 130.8,72.0 131.6,69.4 132.4,67.0 133.2,64.5 134.0,62.1 134.8,59.8 135.6,57.5 136.4,55.3 137.2,53.1 138.0,51.1 138.8,49.0 139.6,47.1 140.4,45.2 141.2,43.5 142.0,41.8 142.8,40.2 143.6,38.6 144.5,37.2 145.3,35.9 146.1,34.6 146.9,33.5 147.7,32.5 148.5,31.5 149.3,30.7 150.1,30.0 150.9,29.4 151.7,28.9 152.5,28.5 153.3,28.2 154.1,28.1 154.9,28.0 155.7,28.1 156.5,28.2 157.3,28.5 158.1,28.9 158.9,29.4 159.7,30.0 160.5,30.7 161.3,31.5 162.1,32.5 162.9,33.5 163.7,34.6 164.5,35.9 165.4,37.2 166.2,38.6 167.0,40.2 167.8,41.8 168.6,43.5 169.4,45.2 170.2,47.1 171.0,49.0 171.8,51.1 172.6,53.1 173.4,55.3 174.2,57.5 175.0,59.8 175.8,62.1 176.6,64.5 177.4,67.0 178.2,69.4 179.0,72.0 179.8,74.5 180.6,77.1 181.4,79.7 182.2,82.4 183.0,85.1 183.8,87.7 184.6,90.4 185.5,93.2 186.3,95.9 187.1,98.6 187.9,101.3 188.7,104.0 189.5,106.8 190.3,109.5 191.1,112.1 191.9,114.8 192.7,117.5 193.5,120.1 194.3,122.7 195.1,125.2 195.9,127.8 196.7,130.3 197.5,132.7 198.3,135.2 199.1,137.6 199.9,139.9 200.7,142.2 201.5,144.5 202.3,146.7 203.1,148.8 203.9,150.9 204.7,153.0 205.5,155.0 206.4,157.0 207.2,158.9 208.0,160.7 208.8,162.5 209.6,164.2 210.4,165.9 211.2,166.0 212.0,166.0 212.8,166.0 213.6,166.0 214.4,166.0 215.2,166.0 216.0,166.0 216.8,166.0 217.6,166.0 218.4,166.0 219.2,166.0 220.0,166.0 220.8,166.0 221.6,166.0 222.4,166.0 223.2,166.0 224.0,166.0 224.8,166.0 225.6,166.0 226.5,166.0 227.3,166.0 228.1,166.0 228.9,166.0 229.7,166.0 230.5,166.0 231.3,166.0 232.1,166.0 232.9,166.0 233.7,166.0 234.5,166.0 235.3,166.0 236.1,166.0 236.9,166.0 237.7,166.0 238.5,166.0 239.3,166.0 240.1,166.0 240.9,166.0 241.7,166.0 242.5,166.0 243.3,166.0 244.1,166.0 244.9,166.0 245.7,166.0 246.5,166.0 247.4,166.0 248.2,166.0 249.0,166.0 249.8,166.0 250.6,166.0 251.4,166.0 252.2,166.0 253.0,166.0 253.8,166.0 254.6,166.0 255.4,166.0 256.2,166.0 257.0,166.0 L257.0,166.0 Z" fill="#4a90d9" fill-opacity="0.06"/>
  <polyline points="52.0,166.0 52.8,166.0 53.6,166.0 54.4,166.0 55.2,166.0 56.0,166.0 56.8,166.0 57.6,166.0 58.4,166.0 59.2,166.0 60.0,166.0 60.8,166.0 61.6,166.0 62.5,166.0 63.3,166.0 64.1,166.0 64.9,166.0 65.7,166.0 66.5,166.0 67.3,166.0 68.1,166.0 68.9,166.0 69.7,166.0 70.5,166.0 71.3,166.0 72.1,166.0 72.9,166.0 73.7,166.0 74.5,166.0 75.3,166.0 76.1,166.0 76.9,166.0 77.7,166.0 78.5,166.0 79.3,166.0 80.1,166.0 80.9,166.0 81.7,166.0 82.5,166.0 83.4,166.0 84.2,166.0 85.0,166.0 85.8,166.0 86.6,166.0 87.4,166.0 88.2,166.0 89.0,166.0 89.8,166.0 90.6,166.0 91.4,166.0 92.2,166.0 93.0,166.0 93.8,166.0 94.6,166.0 95.4,166.0 96.2,166.0 97.0,166.0 97.8,166.0 98.6,166.0 99.4,165.9 100.2,164.2 101.0,162.5 101.8,160.7 102.6,158.9 103.5,157.0 104.3,155.0 105.1,153.0 105.9,150.9 106.7,148.8 107.5,146.7 108.3,144.5 109.1,142.2 109.9,139.9 110.7,137.6 111.5,135.2 112.3,132.7 113.1,130.3 113.9,127.8 114.7,125.2 115.5,122.7 116.3,120.1 117.1,117.5 117.9,114.8 118.7,112.1 119.5,109.5 120.3,106.8 121.1,104.0 121.9,101.3 122.7,98.6 123.5,95.9 124.4,93.2 125.2,90.4 126.0,87.7 126.8,85.1 127.6,82.4 128.4,79.7 129.2,77.1 130.0,74.5 130.8,72.0 131.6,69.4 132.4,67.0 133.2,64.5 134.0,62.1 134.8,59.8 135.6,57.5 136.4,55.3 137.2,53.1 138.0,51.1 138.8,49.0 139.6,47.1 140.4,45.2 141.2,43.5 142.0,41.8 142.8,40.2 143.6,38.6 144.5,37.2 145.3,35.9 146.1,34.6 146.9,33.5 147.7,32.5 148.5,31.5 149.3,30.7 150.1,30.0 150.9,29.4 151.7,28.9 152.5,28.5 153.3,28.2 154.1,28.1 154.9,28.0 155.7,28.1 156.5,28.2 157.3,28.5 158.1,28.9 158.9,29.4 159.7,30.0 160.5,30.7 161.3,31.5 162.1,32.5 162.9,33.5 163.7,34.6 164.5,35.9 165.4,37.2 166.2,38.6 167.0,40.2 167.8,41.8 168.6,43.5 169.4,45.2 170.2,47.1 171.0,49.0 171.8,51.1 172.6,53.1 173.4,55.3 174.2,57.5 175.0,59.8 175.8,62.1 176.6,64.5 177.4,67.0 178.2,69.4 179.0,72.0 179.8,74.5 180.6,77.1 181.4,79.7 182.2,82.4 183.0,85.1 183.8,87.7 184.6,90.4 185.5,93.2 186.3,95.9 187.1,98.6 187.9,101.3 188.7,104.0 189.5,106.8 190.3,109.5 191.1,112.1 191.9,114.8 192.7,117.5 193.5,120.1 194.3,122.7 195.1,125.2 195.9,127.8 196.7,130.3 197.5,132.7 198.3,135.2 199.1,137.6 199.9,139.9 200.7,142.2 201.5,144.5 202.3,146.7 203.1,148.8 203.9,150.9 204.7,153.0 205.5,155.0 206.4,157.0 207.2,158.9 208.0,160.7 208.8,162.5 209.6,164.2 210.4,165.9 211.2,166.0 212.0,166.0 212.8,166.0 213.6,166.0 214.4,166.0 215.2,166.0 216.0,166.0 216.8,166.0 217.6,166.0 218.4,166.0 219.2,166.0 220.0,166.0 220.8,166.0 221.6,166.0 222.4,166.0 223.2,166.0 224.0,166.0 224.8,166.0 225.6,166.0 226.5,166.0 227.3,166.0 228.1,166.0 228.9,166.0 229.7,166.0 230.5,166.0 231.3,166.0 232.1,166.0 232.9,166.0 233.7,166.0 234.5,166.0 235.3,166.0 236.1,166.0 236.9,166.0 237.7,166.0 238.5,166.0 239.3,166.0 240.1,166.0 240.9,166.0 241.7,166.0 242.5,166.0 243.3,166.0 244.1,166.0 244.9,166.0 245.7,166.0 246.5,166.0 247.4,166.0 248.2,166.0 249.0,166.0 249.8,166.0 250.6,166.0 251.4,166.0 252.2,166.0 253.0,166.0 253.8,166.0 254.6,166.0 255.4,166.0 256.2,166.0 257.0,166.0" fill="none" stroke="#4a90d9" stroke-width="1.2" stroke-linejoin="round"/>
  <line x1="322" y1="28.0" x2="527" y2="28.0" stroke="#e5e7eb" stroke-width="0.5"/>
  <text x="318" y="31.0" text-anchor="end" font-size="7.5" fill="#6b7280">0</text>
  <line x1="322" y1="74.0" x2="527" y2="74.0" stroke="#e5e7eb" stroke-width="0.5"/>
  <text x="318" y="77.0" text-anchor="end" font-size="7.5" fill="#6b7280">-40</text>
  <line x1="322" y1="120.0" x2="527" y2="120.0" stroke="#e5e7eb" stroke-width="0.5"/>
  <text x="318" y="123.0" text-anchor="end" font-size="7.5" fill="#6b7280">-80</text>
  <line x1="322" y1="166.0" x2="527" y2="166.0" stroke="#e5e7eb" stroke-width="0.5"/>
  <text x="318" y="169.0" text-anchor="end" font-size="7.5" fill="#6b7280">-120</text>
  <line x1="322.0" y1="28" x2="322.0" y2="166" stroke="#e5e7eb" stroke-width="0.5"/>
  <text x="322.0" y="178" text-anchor="middle" font-size="7.5" fill="#6b7280">0</text>
  <line x1="363.0" y1="28" x2="363.0" y2="166" stroke="#e5e7eb" stroke-width="0.5"/>
  <text x="363.0" y="178" text-anchor="middle" font-size="7.5" fill="#6b7280">0.1</text>
  <line x1="404.0" y1="28" x2="404.0" y2="166" stroke="#e5e7eb" stroke-width="0.5"/>
  <text x="404.0" y="178" text-anchor="middle" font-size="7.5" fill="#6b7280">0.2</text>
  <line x1="445.0" y1="28" x2="445.0" y2="166" stroke="#e5e7eb" stroke-width="0.5"/>
  <text x="445.0" y="178" text-anchor="middle" font-size="7.5" fill="#6b7280">0.3</text>
  <line x1="486.0" y1="28" x2="486.0" y2="166" stroke="#e5e7eb" stroke-width="0.5"/>
  <text x="486.0" y="178" text-anchor="middle" font-size="7.5" fill="#6b7280">0.4</text>
  <line x1="527.0" y1="28" x2="527.0" y2="166" stroke="#e5e7eb" stroke-width="0.5"/>
  <text x="527.0" y="178" text-anchor="middle" font-size="7.5" fill="#6b7280">0.5</text>
  <line x1="322" y1="28" x2="322" y2="166" stroke="#d1d5db" stroke-width="0.75"/>
  <line x1="322" y1="166" x2="527" y2="166" stroke="#d1d5db" stroke-width="0.75"/>
  <polyline points="322.0,30.9 322.1,30.8 322.2,30.7 322.3,30.6 322.4,30.4 322.5,30.1 322.6,29.9 322.7,29.6 322.8,29.3 322.9,29.0 323.0,28.7 323.1,28.5 323.2,28.3 323.3,28.1 323.4,28.0 323.5,28.0 323.6,28.0 323.7,28.1 323.8,28.3 323.9,28.5 324.0,28.8 324.1,29.2 324.2,29.7 324.3,30.2 324.4,30.9 324.5,31.7 324.6,32.6 324.7,33.6 324.8,34.8 324.9,36.1 325.0,37.6 325.1,39.3 325.2,41.2 325.3,43.4 325.4,45.9 325.5,48.9 325.6,52.6 325.7,57.3 325.8,64.0 325.9,76.9 326.0,75.9 326.1,68.5 326.2,66.2 326.3,66.1 326.4,67.8 326.5,72.1 326.6,84.8 326.7,77.4 326.8,68.0 326.9,63.2 327.0,60.1 327.1,57.9 327.2,56.4 327.3,55.3 327.4,54.7 327.5,54.5 327.6,54.6 327.7,55.0 327.8,55.8 327.9,57.1 328.0,58.9 328.1,61.5 328.2,65.4 328.3,72.3 328.4,166.0 328.5,72.6 328.6,66.0 328.7,62.5 328.8,60.2 328.9,58.7 329.0,57.8 329.1,57.4 329.2,57.3 329.3,57.7 329.4,58.4 329.5,59.6 329.6,61.3 329.7,63.9 329.8,67.7 329.9,74.6 330.0,166.0 330.1,74.8 330.2,68.2 330.3,64.6 330.4,62.3 330.5,60.8 330.6,59.9 330.7,59.4 330.8,59.3 330.9,59.6 331.0,60.3 331.1,61.5 331.2,63.2 331.3,65.7 331.4,69.6 331.5,76.4 331.6,166.0 331.7,76.6 331.8,70.0 331.9,66.4 332.0,64.0 332.1,62.5 332.2,61.6 332.3,61.1 332.4,61.0 332.5,61.3 332.6,62.0 332.7,63.1 332.8,64.8 332.9,67.3 333.0,71.1 333.1,78.0 333.2,166.0 333.3,78.1 333.4,71.5 333.5,67.9 333.6,65.5 333.7,64.0 333.8,63.0 333.9,62.5 334.0,62.4 334.1,62.7 334.2,63.4 334.3,64.5 334.4,66.2 334.5,68.7 334.6,72.5 334.7,79.3 334.8,166.0 334.9,79.5 335.0,72.8 335.1,69.2 335.2,66.8 335.3,65.3 335.4,64.3 335.5,63.8 335.6,63.7 335.7,63.9 335.8,64.6 335.9,65.7 336.0,67.4 336.1,69.9 336.2,73.7 336.3,80.5 336.4,166.0 336.5,80.6 336.6,74.0 336.7,70.3 336.8,68.0 336.9,66.4 337.0,65.4 337.1,64.9 337.2,64.8 337.3,65.0 337.4,65.7 337.5,66.8 337.6,68.5 337.7,71.0 337.8,74.7 337.9,81.5 338.0,166.0 338.1,81.7 338.2,75.0 338.3,71.3 338.4,69.0 338.5,67.4 338.6,66.4 338.7,65.9 338.8,65.8 338.9,66.0 339.0,66.7 339.1,67.8 339.2,69.5 339.3,71.9 339.4,75.7 339.5,82.5 339.6,166.0 339.7,82.6 339.8,75.9 339.9,72.3 340.0,69.9 340.1,68.3 340.2,67.4 340.3,66.8 340.4,66.7 340.5,66.9 340.6,67.6 340.7,68.7 340.8,70.3 340.9,72.8 341.0,76.6 341.1,83.4 341.2,166.0 341.3,83.5 341.4,76.8 341.5,73.1 341.6,70.8 341.7,69.2 341.8,68.2 341.9,67.6 342.0,67.5 342.1,67.7 342.2,68.4 342.3,69.5 342.4,71.2 342.5,73.6 342.6,77.4 342.7,84.2 342.8,166.0 342.9,84.3 343.0,77.6 343.1,73.9 343.2,71.5 343.3,70.0 343.4,69.0 343.5,68.4 343.6,68.3 343.7,68.5 343.8,69.1 343.9,70.2 344.0,71.9 344.1,74.4 344.2,78.1 344.3,84.9 344.4,166.0 344.5,85.0 344.6,78.3 344.7,74.6 344.8,72.3 344.9,70.7 345.0,69.7 345.1,69.1 345.2,69.0 345.3,69.2 345.4,69.8 345.5,70.9 345.6,72.6 345.7,75.1 345.8,78.8 345.9,85.6 346.0,166.0 346.1,85.7 346.2,79.0 346.3,75.3 346.4,72.9 346.5,71.4 346.6,70.3 346.7,69.8 346.8,69.6 346.9,69.9 347.0,70.5 347.1,71.6 347.2,73.3 347.3,75.7 347.4,79.5 347.5,86.2 347.6,166.0 347.7,86.3 347.8,79.6 347.9,75.9 348.0,73.6 348.1,72.0 348.2,71.0 348.3,70.4 348.4,70.2 348.5,70.5 348.6,71.1 348.7,72.2 348.8,73.9 348.9,76.3 349.0,80.1 349.1,86.8 349.2,166.0 349.3,86.9 349.4,80.2 349.5,76.5 349.6,74.1 349.7,72.6 349.8,71.5 349.9,71.0 350.0,70.8 350.1,71.1 350.2,71.7 350.3,72.8 350.4,74.4 350.5,76.9 350.6,80.6 350.7,87.4 350.8,166.0 350.9,87.5 351.0,80.8 351.1,77.1 351.2,74.7 351.3,73.1 351.4,72.1 351.5,71.5 351.6,71.4 351.7,71.6 351.8,72.2 351.9,73.3 352.0,75.0 352.1,77.4 352.2,81.2 352.3,87.9 352.4,166.0 352.5,88.0 352.6,81.3 352.7,77.6 352.8,75.2 352.9,73.6 353.0,72.6 353.1,72.1 353.2,71.9 353.3,72.1 353.4,72.7 353.5,73.8 353.6,75.5 353.7,77.9 353.8,81.7 353.9,88.4 354.0,166.0 354.1,88.5 354.2,81.8 354.3,78.1 354.4,75.7 354.5,74.1 354.6,73.1 354.7,72.5 354.8,72.4 354.9,72.6 355.0,73.2 355.1,74.3 355.2,76.0 355.3,78.4 355.4,82.2 355.5,88.9 355.6,166.0 355.7,89.0 355.8,82.3 355.9,78.6 356.0,76.2 356.1,74.6 356.3,73.6 356.4,73.0 356.5,72.8 356.6,73.1 356.7,73.7 356.8,74.8 356.9,76.4 357.0,78.9 357.1,82.6 357.2,89.4 357.3,166.0 357.4,89.4 357.5,82.7 357.6,79.0 357.7,76.6 357.8,75.1 357.9,74.0 358.0,73.5 358.1,73.3 358.2,73.5 358.3,74.1 358.4,75.2 358.5,76.9 358.6,79.3 358.7,83.0 358.8,89.8 358.9,166.0 359.0,89.9 359.1,83.2 359.2,79.5 359.3,77.1 359.4,75.5 359.5,74.5 359.6,73.9 359.7,73.7 359.8,73.9 359.9,74.6 360.0,75.6 360.1,77.3 360.2,79.7 360.3,83.5 360.4,90.2 360.5,166.0 360.6,90.3 360.7,83.6 360.8,79.9 360.9,77.5 361.0,75.9 361.1,74.9 361.2,74.3 361.3,74.1 361.4,74.3 361.5,75.0 361.6,76.0 361.7,77.7 361.8,80.1 361.9,83.9 362.0,90.6 362.1,166.0 362.2,90.7 362.3,84.0 362.4,80.3 362.5,77.9 362.6,76.3 362.7,75.2 362.8,74.7 362.9,74.5 363.0,74.7 363.1,75.3 363.2,76.4 363.3,78.1 363.4,80.5 363.5,84.2 363.6,91.0 363.7,166.0 363.8,91.0 363.9,84.3 364.0,80.6 364.1,78.2 364.2,76.7 364.3,75.6 364.4,75.0 364.5,74.9 364.6,75.1 364.7,75.7 364.8,76.8 364.9,78.4 365.0,80.9 365.1,84.6 365.2,91.4 365.3,166.0 365.4,91.4 365.5,84.7 365.6,81.0 365.7,78.6 365.8,77.0 365.9,76.0 366.0,75.4 366.1,75.2 366.2,75.4 366.3,76.1 366.4,77.1 366.5,78.8 366.6,81.2 366.7,85.0 366.8,91.7 366.9,166.0 367.0,91.8 367.1,85.0 367.2,81.3 367.3,79.0 367.4,77.4 367.5,76.3 367.6,75.7 367.7,75.6 367.8,75.8 367.9,76.4 368.0,77.5 368.1,79.1 368.2,81.6 368.3,85.3 368.4,92.0 368.5,166.0 368.6,92.1 368.7,85.4 368.8,81.7 368.9,79.3 369.0,77.7 369.1,76.7 369.2,76.1 369.3,75.9 369.4,76.1 369.5,76.7 369.6,77.8 369.7,79.4 369.8,81.9 369.9,85.6 370.0,92.4 370.1,166.0 370.2,92.4 370.3,85.7 370.4,82.0 370.5,79.6 370.6,78.0 370.7,77.0 370.8,76.4 370.9,76.2 371.0,76.4 371.1,77.1 371.2,78.1 371.3,79.8 371.4,82.2 371.5,85.9 371.6,92.7 371.7,166.0 371.8,92.7 371.9,86.0 372.0,82.3 372.1,79.9 372.2,78.3 372.3,77.3 372.4,76.7 372.5,76.5 372.6,76.7 372.7,77.4 372.8,78.4 372.9,80.1 373.0,82.5 373.1,86.2 373.2,93.0 373.3,166.0 373.4,93.0 373.5,86.3 373.6,82.6 373.7,80.2 373.8,78.6 373.9,77.6 374.0,77.0 374.1,76.8 374.2,77.0 374.3,77.7 374.4,78.7 374.5,80.4 374.6,82.8 374.7,86.5 374.8,93.3 374.9,166.0 375.0,93.3 375.1,86.6 375.2,82.9 375.3,80.5 375.4,78.9 375.5,77.9 375.6,77.3 375.7,77.1 375.8,77.3 375.9,77.9 376.0,79.0 376.1,80.6 376.2,83.1 376.3,86.8 376.4,93.6 376.5,166.0 376.6,93.6 376.7,86.9 376.8,83.2 376.9,80.8 377.0,79.2 377.1,78.1 377.2,77.6 377.3,77.4 377.4,77.6 377.5,78.2 377.6,79.3 377.7,80.9 377.8,83.3 377.9,87.1 378.0,93.8 378.1,166.0 378.2,93.9 378.3,87.2 378.4,83.4 378.5,81.1 378.6,79.5 378.7,78.4 378.8,77.8 378.9,77.7 379.0,77.9 379.1,78.5 379.2,79.6 379.3,81.2 379.4,83.6 379.5,87.4 379.6,94.1 379.7,166.0 379.8,94.1 379.9,87.4 380.0,83.7 380.1,81.3 380.2,79.7 380.3,78.7 380.4,78.1 380.5,77.9 380.6,78.1 380.7,78.7 380.8,79.8 380.9,81.4 381.0,83.9 381.1,87.6 381.2,94.4 381.3,166.0 381.4,94.4 381.5,87.7 381.6,84.0 381.7,81.6 381.8,80.0 381.9,78.9 382.0,78.3 382.1,78.2 382.2,78.4 382.3,79.0 382.4,80.1 382.5,81.7 382.6,84.1 382.7,87.9 382.8,94.6 382.9,166.0 383.0,94.6 383.1,87.9 383.2,84.2 383.3,81.8 383.4,80.2 383.5,79.2 383.6,78.6 383.7,78.4 383.8,78.6 383.9,79.2 384.0,80.3 384.1,81.9 384.2,84.4 384.3,88.1 384.4,94.8 384.5,166.0 384.6,94.9 384.7,88.2 384.8,84.4 384.9,82.1 385.0,80.4 385.1,79.4 385.2,78.8 385.3,78.6 385.4,78.9 385.5,79.5 385.6,80.5 385.7,82.2 385.8,84.6 385.9,88.3 386.0,95.1 386.1,166.0 386.2,95.1 386.3,88.4 386.4,84.7 386.5,82.3 386.6,80.7 386.7,79.6 386.8,79.1 386.9,78.9 387.0,79.1 387.1,79.7 387.2,80.8 387.3,82.4 387.4,84.8 387.5,88.6 387.6,95.3 387.7,166.0 387.8,95.3 387.9,88.6 388.0,84.9 388.1,82.5 388.2,80.9 388.3,79.9 388.4,79.3 388.5,79.1 388.6,79.3 388.7,79.9 388.8,81.0 388.9,82.6 389.0,85.0 389.1,88.8 389.2,95.5 389.3,166.0 389.4,95.5 389.5,88.8 389.6,85.1 389.7,82.7 389.8,81.1 389.9,80.1 390.0,79.5 390.1,79.3 390.2,79.5 390.3,80.1 390.4,81.2 390.5,82.8 390.6,85.3 390.7,89.0 390.8,95.7 390.9,166.0 391.0,95.8 391.1,89.0 391.2,85.3 391.3,82.9 391.4,81.3 391.5,80.3 391.6,79.7 391.7,79.5 391.8,79.7 391.9,80.3 392.0,81.4 392.1,83.0 392.2,85.5 392.3,89.2 392.4,95.9 392.5,166.0 392.6,96.0 392.7,89.3 392.8,85.5 392.9,83.1 393.0,81.5 393.1,80.5 393.2,79.9 393.3,79.7 393.4,79.9 393.5,80.5 393.6,81.6 393.7,83.2 393.8,85.7 393.9,89.4 394.0,96.1 394.1,166.0 394.2,96.2 394.3,89.5 394.4,85.7 394.5,83.3 394.6,81.7 394.7,80.7 394.8,80.1 394.9,79.9 395.0,80.1 395.1,80.7 395.2,81.8 395.3,83.4 395.4,85.9 395.5,89.6 395.6,96.3 395.7,166.0 395.8,96.4 395.9,89.6 396.0,85.9 396.1,83.5 396.2,81.9 396.3,80.9 396.4,80.3 396.5,80.1 396.6,80.3 396.7,80.9 396.8,82.0 396.9,83.6 397.0,86.1 397.1,89.8 397.2,96.5 397.3,166.0 397.4,96.6 397.5,89.8 397.6,86.1 397.7,83.7 397.8,82.1 397.9,81.1 398.0,80.5 398.1,80.3 398.2,80.5 398.3,81.1 398.4,82.2 398.5,83.8 398.6,86.2 398.7,90.0 398.8,96.7 398.9,166.0 399.0,96.7 399.1,90.0 399.2,86.3 399.3,83.9 399.4,82.3 399.5,81.3 399.6,80.7 399.7,80.5 399.8,80.7 399.9,81.3 400.0,82.4 400.1,84.0 400.2,86.4 400.3,90.2 400.4,96.9 400.5,166.0 400.6,96.9 400.7,90.2 400.8,86.5 400.9,84.1 401.0,82.5 401.1,81.4 401.2,80.9 401.3,80.7 401.4,80.9 401.5,81.5 401.6,82.6 401.7,84.2 401.8,86.6 401.9,90.3 402.0,97.1 402.1,166.0 402.2,97.1 402.3,90.4 402.4,86.7 402.5,84.3 402.6,82.7 402.7,81.6 402.8,81.0 402.9,80.9 403.0,81.1 403.1,81.7 403.2,82.7 403.3,84.4 403.4,86.8 403.5,90.5 403.6,97.2 403.7,166.0 403.8,97.3 403.9,90.6 404.0,86.8 404.1,84.4 404.2,82.8 404.3,81.8 404.4,81.2 404.5,81.0 404.6,81.2 404.7,81.8 404.8,82.9 404.9,84.5 405.0,86.9 405.1,90.7 405.2,97.4 405.3,166.0 405.4,97.4 405.5,90.7 405.6,87.0 405.7,84.6 405.8,83.0 405.9,82.0 406.0,81.4 406.1,81.2 406.2,81.4 406.3,82.0 406.4,83.1 406.5,84.7 406.6,87.1 406.7,90.8 406.8,97.6 406.9,166.0 407.0,97.6 407.1,90.9 407.2,87.2 407.3,84.8 407.4,83.2 407.5,82.1 407.6,81.5 407.7,81.3 407.8,81.5 407.9,82.2 408.0,83.2 408.1,84.8 408.2,87.3 408.3,91.0 408.4,97.7 408.5,166.0 408.6,97.8 408.7,91.0 408.8,87.3 408.9,84.9 409.0,83.3 409.1,82.3 409.2,81.7 409.3,81.5 409.4,81.7 409.5,82.3 409.6,83.4 409.7,85.0 409.8,87.4 409.9,91.2 410.0,97.9 410.1,166.0 410.2,97.9 410.3,91.2 410.4,87.5 410.5,85.1 410.6,83.5 410.7,82.4 410.8,81.8 410.9,81.7 411.0,81.9 411.1,82.5 411.2,83.5 411.3,85.2 411.4,87.6 411.5,91.3 411.6,98.0 411.7,166.0 411.8,98.1 411.9,91.3 412.0,87.6 412.1,85.2 412.2,83.6 412.3,82.6 412.4,82.0 412.5,81.8 412.6,82.0 412.7,82.6 412.8,83.7 412.9,85.3 413.0,87.7 413.1,91.5 413.2,98.2 413.3,166.0 413.4,98.2 413.5,91.5 413.6,87.8 413.7,85.4 413.8,83.8 413.9,82.7 414.0,82.1 414.1,82.0 414.2,82.2 414.3,82.8 414.4,83.8 414.5,85.4 414.6,87.9 414.7,91.6 414.8,98.3 414.9,166.0 415.0,98.4 415.1,91.6 415.2,87.9 415.3,85.5 415.4,83.9 415.5,82.9 415.6,82.3 415.7,82.1 415.8,82.3 415.9,82.9 416.0,84.0 416.1,85.6 416.2,88.0 416.3,91.7 416.4,98.5 416.5,166.0 416.6,98.5 416.7,91.8 416.8,88.1 416.9,85.7 417.0,84.1 417.1,83.0 417.2,82.4 417.3,82.2 417.4,82.4 417.5,83.0 417.6,84.1 417.7,85.7 417.8,88.1 417.9,91.9 418.0,98.6 418.1,166.0 418.2,98.6 418.3,91.9 418.4,88.2 418.5,85.8 418.6,84.2 418.7,83.1 418.8,82.6 418.9,82.4 419.0,82.6 419.1,83.2 419.2,84.2 419.3,85.9 419.4,88.3 419.5,92.0 419.6,98.8 419.7,166.0 419.8,98.8 419.9,92.0 420.0,88.3 420.1,85.9 420.2,84.3 420.3,83.3 420.4,82.7 420.5,82.5 420.6,82.7 420.7,83.3 420.8,84.4 420.9,86.0 421.0,88.4 421.1,92.1 421.2,98.9 421.3,166.0 421.4,98.9 421.5,92.2 421.6,88.5 421.7,86.1 421.8,84.4 421.9,83.4 422.0,82.8 422.1,82.6 422.2,82.8 422.3,83.4 422.4,84.5 422.5,86.1 422.6,88.5 422.7,92.3 422.8,99.0 422.9,166.0 423.0,99.0 423.1,92.3 423.2,88.6 423.3,86.2 423.4,84.6 423.5,83.5 423.6,82.9 423.7,82.8 423.8,83.0 423.9,83.6 424.0,84.6 424.1,86.2 424.2,88.7 424.3,92.4 424.4,99.1 424.6,166.0 424.7,99.1 424.8,92.4 424.9,88.7 425.0,86.3 425.1,84.7 425.2,83.7 425.3,83.1 425.4,82.9 425.5,83.1 425.6,83.7 425.7,84.7 425.8,86.4 425.9,88.8 426.0,92.5 426.1,99.3 426.2,166.0 426.3,99.3 426.4,92.5 426.5,88.8 426.6,86.4 426.7,84.8 426.8,83.8 426.9,83.2 427.0,83.0 427.1,83.2 427.2,83.8 427.3,84.9 427.4,86.5 427.5,88.9 427.6,92.6 427.7,99.4 427.8,166.0 427.9,99.4 428.0,92.7 428.1,88.9 428.2,86.5 428.3,84.9 428.4,83.9 428.5,83.3 428.6,83.1 428.7,83.3 428.8,83.9 428.9,85.0 429.0,86.6 429.1,89.0 429.2,92.8 429.3,99.5 429.4,166.0 429.5,99.5 429.6,92.8 429.7,89.1 429.8,86.7 429.9,85.0 430.0,84.0 430.1,83.4 430.2,83.2 430.3,83.4 430.4,84.0 430.5,85.1 430.6,86.7 430.7,89.1 430.8,92.9 430.9,99.6 431.0,166.0 431.1,99.6 431.2,92.9 431.3,89.2 431.4,86.8 431.5,85.2 431.6,84.1 431.7,83.5 431.8,83.3 431.9,83.5 432.0,84.1 432.1,85.2 432.2,86.8 432.3,89.2 432.4,93.0 432.5,99.7 432.6,166.0 432.7,99.7 432.8,93.0 432.9,89.3 433.0,86.9 433.1,85.3 433.2,84.2 433.3,83.6 433.4,83.4 433.5,83.6 433.6,84.3 433.7,85.3 433.8,86.9 433.9,89.4 434.0,93.1 434.1,99.8 434.2,166.0 434.3,99.8 434.4,93.1 434.5,89.4 434.6,87.0 434.7,85.4 434.8,84.3 434.9,83.7 435.0,83.6 435.1,83.8 435.2,84.4 435.3,85.4 435.4,87.0 435.5,89.5 435.6,93.2 435.7,99.9 435.8,166.0 435.9,99.9 436.0,93.2 436.1,89.5 436.2,87.1 436.3,85.5 436.4,84.4 436.5,83.8 436.6,83.7 436.7,83.9 436.8,84.5 436.9,85.5 437.0,87.1 437.1,89.6 437.2,93.3 437.3,100.0 437.4,166.0 437.5,100.0 437.6,93.3 437.7,89.6 437.8,87.2 437.9,85.6 438.0,84.5 438.1,83.9 438.2,83.8 438.3,84.0 438.4,84.6 438.5,85.6 438.6,87.2 438.7,89.7 438.8,93.4 438.9,100.1 439.0,166.0 439.1,100.1 439.2,93.4 439.3,89.7 439.4,87.3 439.5,85.7 439.6,84.6 439.7,84.0 439.8,83.9 439.9,84.1 440.0,84.7 440.1,85.7 440.2,87.3 440.3,89.8 440.4,93.5 440.5,100.2 440.6,166.0 440.7,100.2 440.8,93.5 440.9,89.8 441.0,87.4 441.1,85.8 441.2,84.7 441.3,84.1 441.4,83.9 441.5,84.1 441.6,84.8 441.7,85.8 441.8,87.4 441.9,89.9 442.0,93.6 442.1,100.3 442.2,166.0 442.3,100.3 442.4,93.6 442.5,89.9 442.6,87.5 442.7,85.9 442.8,84.8 442.9,84.2 443.0,84.0 443.1,84.2 443.2,84.8 443.3,85.9 443.4,87.5 443.5,89.9 443.6,93.7 443.7,100.4 443.8,166.0 443.9,100.4 444.0,93.7 444.1,90.0 444.2,87.6 444.3,86.0 444.4,84.9 444.5,84.3 444.6,84.1 444.7,84.3 444.8,84.9 444.9,86.0 445.0,87.6 445.1,90.0 445.2,93.8 445.3,100.5 445.4,166.0 445.5,100.5 445.6,93.8 445.7,90.1 445.8,87.7 445.9,86.0 446.0,85.0 446.1,84.4 446.2,84.2 446.3,84.4 446.4,85.0 446.5,86.1 446.6,87.7 446.7,90.1 446.8,93.8 446.9,100.6 447.0,166.0 447.1,100.6 447.2,93.9 447.3,90.2 447.4,87.7 447.5,86.1 447.6,85.1 447.7,84.5 447.8,84.3 447.9,84.5 448.0,85.1 448.1,86.2 448.2,87.8 448.3,90.2 448.4,93.9 448.5,100.7 448.6,166.0 448.7,100.7 448.8,94.0 448.9,90.2 449.0,87.8 449.1,86.2 449.2,85.2 449.3,84.6 449.4,84.4 449.5,84.6 449.6,85.2 449.7,86.3 449.8,87.9 449.9,90.3 450.0,94.0 450.1,100.8 450.2,166.0 450.3,100.8 450.4,94.0 450.5,90.3 450.6,87.9 450.7,86.3 450.8,85.3 450.9,84.7 451.0,84.5 451.1,84.7 451.2,85.3 451.3,86.3 451.4,88.0 451.5,90.4 451.6,94.1 451.7,100.8 451.8,166.0 451.9,100.8 452.0,94.1 452.1,90.4 452.2,88.0 452.3,86.4 452.4,85.3 452.5,84.7 452.6,84.6 452.7,84.8 452.8,85.4 452.9,86.4 453.0,88.0 453.1,90.5 453.2,94.2 453.3,100.9 453.4,166.0 453.5,100.9 453.6,94.2 453.7,90.5 453.8,88.1 453.9,86.5 454.0,85.4 454.1,84.8 454.2,84.6 454.3,84.8 454.4,85.4 454.5,86.5 454.6,88.1 454.7,90.5 454.8,94.3 454.9,101.0 455.0,166.0 455.1,101.0 455.2,94.3 455.3,90.6 455.4,88.2 455.5,86.5 455.6,85.5 455.7,84.9 455.8,84.7 455.9,84.9 456.0,85.5 456.1,86.6 456.2,88.2 456.3,90.6 456.4,94.3 456.5,101.1 456.6,166.0 456.7,101.1 456.8,94.3 456.9,90.6 457.0,88.2 457.1,86.6 457.2,85.6 457.3,85.0 457.4,84.8 457.5,85.0 457.6,85.6 457.7,86.6 457.8,88.3 457.9,90.7 458.0,94.4 458.1,101.1 458.2,166.0 458.3,101.1 458.4,94.4 458.5,90.7 458.6,88.3 458.7,86.7 458.8,85.6 458.9,85.0 459.0,84.9 459.1,85.1 459.2,85.7 459.3,86.7 459.4,88.3 459.5,90.7 459.6,94.5 459.7,101.2 459.8,166.0 459.9,101.2 460.0,94.5 460.1,90.8 460.2,88.4 460.3,86.8 460.4,85.7 460.5,85.1 460.6,84.9 460.7,85.1 460.8,85.7 460.9,86.8 461.0,88.4 461.1,90.8 461.2,94.5 461.3,101.3 461.4,166.0 461.5,101.3 461.6,94.6 461.7,90.8 461.8,88.4 461.9,86.8 462.0,85.8 462.1,85.2 462.2,85.0 462.3,85.2 462.4,85.8 462.5,86.8 462.6,88.5 462.7,90.9 462.8,94.6 462.9,101.3 463.0,166.0 463.1,101.4 463.2,94.6 463.3,90.9 463.4,88.5 463.5,86.9 463.6,85.8 463.7,85.2 463.8,85.1 463.9,85.3 464.0,85.9 464.1,86.9 464.2,88.5 464.3,90.9 464.4,94.7 464.5,101.4 464.6,166.0 464.7,101.4 464.8,94.7 464.9,91.0 465.0,88.6 465.1,87.0 465.2,85.9 465.3,85.3 465.4,85.1 465.5,85.3 465.6,85.9 465.7,87.0 465.8,88.6 465.9,91.0 466.0,94.7 466.1,101.5 466.2,166.0 466.3,101.5 466.4,94.8 466.5,91.0 466.6,88.6 466.7,87.0 466.8,86.0 466.9,85.4 467.0,85.2 467.1,85.4 467.2,86.0 467.3,87.0 467.4,88.7 467.5,91.1 467.6,94.8 467.7,101.5 467.8,166.0 467.9,101.5 468.0,94.8 468.1,91.1 468.2,88.7 468.3,87.1 468.4,86.0 468.5,85.4 468.6,85.2 468.7,85.4 468.8,86.0 468.9,87.1 469.0,88.7 469.1,91.1 469.2,94.9 469.3,101.6 469.4,166.0 469.5,101.6 469.6,94.9 469.7,91.2 469.8,88.7 469.9,87.1 470.0,86.1 470.1,85.5 470.2,85.3 470.3,85.5 470.4,86.1 470.5,87.2 470.6,88.8 470.7,91.2 470.8,94.9 470.9,101.6 471.0,166.0 471.1,101.7 471.2,94.9 471.3,91.2 471.4,88.8 471.5,87.2 471.6,86.1 471.7,85.5 471.8,85.4 471.9,85.6 472.0,86.2 472.1,87.2 472.2,88.8 472.3,91.2 472.4,95.0 472.5,101.7 472.6,166.0 472.7,101.7 472.8,95.0 472.9,91.3 473.0,88.9 473.1,87.2 473.2,86.2 473.3,85.6 473.4,85.4 473.5,85.6 473.6,86.2 473.7,87.3 473.8,88.9 473.9,91.3 474.0,95.0 474.1,101.8 474.2,166.0 474.3,101.8 474.4,95.0 474.5,91.3 474.6,88.9 474.7,87.3 474.8,86.2 474.9,85.7 475.0,85.5 475.1,85.7 475.2,86.3 475.3,87.3 475.4,88.9 475.5,91.3 475.6,95.1 475.7,101.8 475.8,166.0 475.9,101.8 476.0,95.1 476.1,91.4 476.2,89.0 476.3,87.3 476.4,86.3 476.5,85.7 476.6,85.5 476.7,85.7 476.8,86.3 476.9,87.4 477.0,89.0 477.1,91.4 477.2,95.1 477.3,101.9 477.4,166.0 477.5,101.9 477.6,95.1 477.7,91.4 477.8,89.0 477.9,87.4 478.0,86.3 478.1,85.8 478.2,85.6 478.3,85.8 478.4,86.4 478.5,87.4 478.6,89.0 478.7,91.4 478.8,95.2 478.9,101.9 479.0,166.0 479.1,101.9 479.2,95.2 479.3,91.5 479.4,89.1 479.5,87.4 479.6,86.4 479.7,85.8 479.8,85.6 479.9,85.8 480.0,86.4 480.1,87.5 480.2,89.1 480.3,91.5 480.4,95.2 480.5,102.0 480.6,166.0 480.7,102.0 480.8,95.2 480.9,91.5 481.0,89.1 481.1,87.5 481.2,86.4 481.3,85.8 481.4,85.7 481.5,85.9 481.6,86.5 481.7,87.5 481.8,89.1 481.9,91.5 482.0,95.3 482.1,102.0 482.2,166.0 482.3,102.0 482.4,95.3 482.5,91.6 482.6,89.1 482.7,87.5 482.8,86.5 482.9,85.9 483.0,85.7 483.1,85.9 483.2,86.5 483.3,87.5 483.4,89.2 483.5,91.6 483.6,95.3 483.7,102.0 483.8,166.0 483.9,102.0 484.0,95.3 484.1,91.6 484.2,89.2 484.3,87.6 484.4,86.5 484.5,85.9 484.6,85.7 484.7,85.9 484.8,86.5 484.9,87.6 485.0,89.2 485.1,91.6 485.2,95.4 485.3,102.1 485.4,166.0 485.5,102.1 485.6,95.4 485.7,91.6 485.8,89.2 485.9,87.6 486.0,86.6 486.1,86.0 486.2,85.8 486.3,86.0 486.4,86.6 486.5,87.6 486.6,89.3 486.7,91.7 486.8,95.4 486.9,102.1 487.0,166.0 487.1,102.1 487.2,95.4 487.3,91.7 487.4,89.3 487.5,87.7 487.6,86.6 487.7,86.0 487.8,85.8 487.9,86.0 488.0,86.6 488.1,87.7 488.2,89.3 488.3,91.7 488.4,95.4 488.5,102.2 488.6,166.0 488.7,102.2 488.8,95.4 488.9,91.7 489.0,89.3 489.1,87.7 489.2,86.6 489.3,86.0 489.4,85.9 489.5,86.1 489.6,86.7 489.7,87.7 489.8,89.3 489.9,91.7 490.0,95.5 490.1,102.2 490.2,166.0 490.3,102.2 490.4,95.5 490.5,91.8 490.6,89.3 490.7,87.7 490.8,86.7 490.9,86.1 491.0,85.9 491.1,86.1 491.2,86.7 491.3,87.7 491.4,89.4 491.5,91.8 491.6,95.5 491.7,102.2 491.8,166.0 491.9,102.2 492.0,95.5 492.1,91.8 492.2,89.4 492.3,87.8 492.4,86.7 492.5,86.1 492.6,85.9 492.7,86.1 492.9,86.7 493.0,87.8 493.1,89.4 493.2,91.8 493.3,95.5 493.4,102.3 493.5,166.0 493.6,102.3 493.7,95.5 493.8,91.8 493.9,89.4 494.0,87.8 494.1,86.7 494.2,86.2 494.3,86.0 494.4,86.2 494.5,86.8 494.6,87.8 494.7,89.4 494.8,91.8 494.9,95.6 495.0,102.3 495.1,166.0 495.2,102.3 495.3,95.6 495.4,91.9 495.5,89.4 495.6,87.8 495.7,86.8 495.8,86.2 495.9,86.0 496.0,86.2 496.1,86.8 496.2,87.8 496.3,89.5 496.4,91.9 496.5,95.6 496.6,102.3 496.7,166.0 496.8,102.3 496.9,95.6 497.0,91.9 497.1,89.5 497.2,87.9 497.3,86.8 497.4,86.2 497.5,86.0 497.6,86.2 497.7,86.8 497.8,87.9 497.9,89.5 498.0,91.9 498.1,95.6 498.2,102.4 498.3,166.0 498.4,102.4 498.5,95.6 498.6,91.9 498.7,89.5 498.8,87.9 498.9,86.8 499.0,86.2 499.1,86.0 499.2,86.2 499.3,86.8 499.4,87.9 499.5,89.5 499.6,91.9 499.7,95.7 499.8,102.4 499.9,166.0 500.0,102.4 500.1,95.7 500.2,91.9 500.3,89.5 500.4,87.9 500.5,86.9 500.6,86.3 500.7,86.1 500.8,86.3 500.9,86.9 501.0,87.9 501.1,89.5 501.2,92.0 501.3,95.7 501.4,102.4 501.5,166.0 501.6,102.4 501.7,95.7 501.8,92.0 501.9,89.6 502.0,87.9 502.1,86.9 502.2,86.3 502.3,86.1 502.4,86.3 502.5,86.9 502.6,87.9 502.7,89.6 502.8,92.0 502.9,95.7 503.0,102.4 503.1,166.0 503.2,102.4 503.3,95.7 503.4,92.0 503.5,89.6 503.6,88.0 503.7,86.9 503.8,86.3 503.9,86.1 504.0,86.3 504.1,86.9 504.2,88.0 504.3,89.6 504.4,92.0 504.5,95.7 504.6,102.5 504.7,166.0 504.8,102.5 504.9,95.7 505.0,92.0 505.1,89.6 505.2,88.0 505.3,86.9 505.4,86.3 505.5,86.1 505.6,86.3 505.7,86.9 505.8,88.0 505.9,89.6 506.0,92.0 506.1,95.7 506.2,102.5 506.3,166.0 506.4,102.5 506.5,95.7 506.6,92.0 506.7,89.6 506.8,88.0 506.9,86.9 507.0,86.4 507.1,86.2 507.2,86.4 507.3,87.0 507.4,88.0 507.5,89.6 507.6,92.0 507.7,95.8 507.8,102.5 507.9,166.0 508.0,102.5 508.1,95.8 508.2,92.0 508.3,89.6 508.4,88.0 508.5,87.0 508.6,86.4 508.7,86.2 508.8,86.4 508.9,87.0 509.0,88.0 509.1,89.6 509.2,92.1 509.3,95.8 509.4,102.5 509.5,166.0 509.6,102.5 509.7,95.8 509.8,92.1 509.9,89.7 510.0,88.0 510.1,87.0 510.2,86.4 510.3,86.2 510.4,86.4 510.5,87.0 510.6,88.0 510.7,89.7 510.8,92.1 510.9,95.8 511.0,102.5 511.1,166.0 511.2,102.5 511.3,95.8 511.4,92.1 511.5,89.7 511.6,88.1 511.7,87.0 511.8,86.4 511.9,86.2 512.0,86.4 512.1,87.0 512.2,88.1 512.3,89.7 512.4,92.1 512.5,95.8 512.6,102.5 512.7,166.0 512.8,102.5 512.9,95.8 513.0,92.1 513.1,89.7 513.2,88.1 513.3,87.0 513.4,86.4 513.5,86.2 513.6,86.4 513.7,87.0 513.8,88.1 513.9,89.7 514.0,92.1 514.1,95.8 514.2,102.6 514.3,166.0 514.4,102.6 514.5,95.8 514.6,92.1 514.7,89.7 514.8,88.1 514.9,87.0 515.0,86.4 515.1,86.2 515.2,86.4 515.3,87.0 515.4,88.1 515.5,89.7 515.6,92.1 515.7,95.8 515.8,102.6 515.9,166.0 516.0,102.6 516.1,95.8 516.2,92.1 516.3,89.7 516.4,88.1 516.5,87.0 516.6,86.4 516.7,86.2 516.8,86.4 516.9,87.0 517.0,88.1 517.1,89.7 517.2,92.1 517.3,95.8 517.4,102.6 517.5,166.0 517.6,102.6 517.7,95.8 517.8,92.1 517.9,89.7 518.0,88.1 518.1,87.0 518.2,86.4 518.3,86.3 518.4,86.4 518.5,87.0 518.6,88.1 518.7,89.7 518.8,92.1 518.9,95.9 519.0,102.6 519.1,166.0 519.2,102.6 519.3,95.9 519.4,92.1 519.5,89.7 519.6,88.1 519.7,87.1 519.8,86.5 519.9,86.3 520.0,86.5 520.1,87.1 520.2,88.1 520.3,89.7 520.4,92.1 520.5,95.9 520.6,102.6 520.7,166.0 520.8,102.6 520.9,95.9 521.0,92.1 521.1,89.7 521.2,88.1 521.3,87.1 521.4,86.5 521.5,86.3 521.6,86.5 521.7,87.1 521.8,88.1 521.9,89.7 522.0,92.1 522.1,95.9 522.2,102.6 522.3,166.0 522.4,102.6 522.5,95.9 522.6,92.1 522.7,89.7 522.8,88.1 522.9,87.1 523.0,86.5 523.1,86.3 523.2,86.5 523.3,87.1 523.4,88.1 523.5,89.7 523.6,92.1 523.7,95.9 523.8,102.6 523.9,166.0 524.0,102.6 524.1,95.9 524.2,92.1 524.3,89.7 524.4,88.1 524.5,87.1 524.6,86.5 524.7,86.3 524.8,86.5 524.9,87.1 525.0,88.1 525.1,89.7 525.2,92.1 525.3,95.9 525.4,102.6 525.5,166.0 525.6,102.6 525.7,95.9 525.8,92.1 525.9,89.7 526.0,88.1 526.1,87.1 526.2,86.5 526.3,86.3 526.4,86.5 526.5,87.1 526.6,88.1 526.7,89.7 526.8,92.1 526.9,95.9 527.0,102.6" fill="none" stroke="#4a90d9" stroke-width="1.2" stroke-linejoin="round"/>
  <text x="154.5" y="190" text-anchor="middle" font-size="8" fill="#6b7280">n / N</text>
  <text x="424.5" y="190" text-anchor="middle" font-size="8" fill="#6b7280">Normalized frequency (× Fₛ)</text>
</svg>
