<svg xmlns="http://www.w3.org/2000/svg" viewBox="0 0 560 190" width="560" height="190" style="font-family:system-ui,-apple-system,sans-serif">
  <rect width="560" height="190" fill="#fafafa" rx="6"/>
  <line x1="52" y1="152.0" x2="257" y2="152.0" stroke="#e5e7eb" stroke-width="0.5"/>
  <text x="48" y="155.0" text-anchor="end" font-size="7.5" fill="#6b7280">0</text>
  <line x1="52" y1="82.0" x2="257" y2="82.0" stroke="#e5e7eb" stroke-width="0.5"/>
  <text x="48" y="85.0" text-anchor="end" font-size="7.5" fill="#6b7280">0.5</text>
  <line x1="52" y1="12.0" x2="257" y2="12.0" stroke="#e5e7eb" stroke-width="0.5"/>
  <text x="48" y="15.0" text-anchor="end" font-size="7.5" fill="#6b7280">1</text>
  <line x1="52.0" y1="12" x2="52.0" y2="152" stroke="#e5e7eb" stroke-width="0.5"/>
  <text x="52.0" y="164" text-anchor="middle" font-size="7.5" fill="#6b7280">0</text>
  <line x1="154.5" y1="12" x2="154.5" y2="152" stroke="#e5e7eb" stroke-width="0.5"/>
  <text x="154.5" y="164" text-anchor="middle" font-size="7.5" fill="#6b7280">0.5</text>
  <line x1="257.0" y1="12" x2="257.0" y2="152" stroke="#e5e7eb" stroke-width="0.5"/>
  <text x="257.0" y="164" text-anchor="middle" font-size="7.5" fill="#6b7280">1</text>
  <line x1="52" y1="12" x2="52" y2="152" stroke="#d1d5db" stroke-width="0.75"/>
  <line x1="52" y1="152" x2="257" y2="152" stroke="#d1d5db" stroke-width="0.75"/>
  <path d="M52.0,152.0 52.0,152.0 52.8,152.0 53.6,152.0 54.4,152.0 55.2,152.0 56.0,152.0 56.8,152.0 57.6,152.0 58.4,152.0 59.2,152.0 60.0,152.0 60.8,152.0 61.6,152.0 62.5,152.0 63.3,152.0 64.1,152.0 64.9,152.0 65.7,152.0 66.5,152.0 67.3,152.0 68.1,152.0 68.9,152.0 69.7,152.0 70.5,152.0 71.3,152.0 72.1,152.0 72.9,152.0 73.7,152.0 74.5,152.0 75.3,152.0 76.1,152.0 76.9,152.0 77.7,152.0 78.5,152.0 79.3,152.0 80.1,152.0 80.9,152.0 81.7,152.0 82.5,152.0 83.4,152.0 84.2,152.0 85.0,152.0 85.8,152.0 86.6,152.0 87.4,152.0 88.2,152.0 89.0,152.0 89.8,152.0 90.6,152.0 91.4,152.0 92.2,152.0 93.0,152.0 93.8,152.0 94.6,152.0 95.4,152.0 96.2,152.0 97.0,152.0 97.8,152.0 98.6,152.0 99.4,151.9 100.2,150.2 101.0,148.4 101.8,146.6 102.6,144.8 103.5,142.8 104.3,140.8 105.1,138.8 105.9,136.7 106.7,134.6 107.5,132.4 108.3,130.2 109.1,127.9 109.9,125.5 110.7,123.2 111.5,120.7 112.3,118.3 113.1,115.8 113.9,113.2 114.7,110.7 115.5,108.0 116.3,105.4 117.1,102.8 117.9,100.1 118.7,97.4 119.5,94.6 120.3,91.9 121.1,89.1 121.9,86.4 122.7,83.6 123.5,80.9 124.4,78.1 125.2,75.4 126.0,72.6 126.8,69.9 127.6,67.2 128.4,64.5 129.2,61.8 130.0,59.2 130.8,56.6 131.6,54.0 132.4,51.5 133.2,49.0 134.0,46.6 134.8,44.3 135.6,41.9 136.4,39.7 137.2,37.5 138.0,35.4 138.8,33.3 139.6,31.4 140.4,29.5 141.2,27.7 142.0,26.0 142.8,24.3 143.6,22.8 144.5,21.3 145.3,20.0 146.1,18.7 146.9,17.6 147.7,16.5 148.5,15.6 149.3,14.8 150.1,14.0 150.9,13.4 151.7,12.9 152.5,12.5 153.3,12.2 154.1,12.1 154.9,12.0 155.7,12.1 156.5,12.2 157.3,12.5 158.1,12.9 158.9,13.4 159.7,14.0 160.5,14.8 161.3,15.6 162.1,16.5 162.9,17.6 163.7,18.7 164.5,20.0 165.4,21.3 166.2,22.8 167.0,24.3 167.8,26.0 168.6,27.7 169.4,29.5 170.2,31.4 171.0,33.3 171.8,35.4 172.6,37.5 173.4,39.7 174.2,41.9 175.0,44.3 175.8,46.6 176.6,49.0 177.4,51.5 178.2,54.0 179.0,56.6 179.8,59.2 180.6,61.8 181.4,64.5 182.2,67.2 183.0,69.9 183.8,72.6 184.6,75.4 185.5,78.1 186.3,80.9 187.1,83.6 187.9,86.4 188.7,89.1 189.5,91.9 190.3,94.6 191.1,97.4 191.9,100.1 192.7,102.8 193.5,105.4 194.3,108.0 195.1,110.7 195.9,113.2 196.7,115.8 197.5,118.3 198.3,120.7 199.1,123.2 199.9,125.5 200.7,127.9 201.5,130.2 202.3,132.4 203.1,134.6 203.9,136.7 204.7,138.8 205.5,140.8 206.4,142.8 207.2,144.8 208.0,146.6 208.8,148.4 209.6,150.2 210.4,151.9 211.2,152.0 212.0,152.0 212.8,152.0 213.6,152.0 214.4,152.0 215.2,152.0 216.0,152.0 216.8,152.0 217.6,152.0 218.4,152.0 219.2,152.0 220.0,152.0 220.8,152.0 221.6,152.0 222.4,152.0 223.2,152.0 224.0,152.0 224.8,152.0 225.6,152.0 226.5,152.0 227.3,152.0 228.1,152.0 228.9,152.0 229.7,152.0 230.5,152.0 231.3,152.0 232.1,152.0 232.9,152.0 233.7,152.0 234.5,152.0 235.3,152.0 236.1,152.0 236.9,152.0 237.7,152.0 238.5,152.0 239.3,152.0 240.1,152.0 240.9,152.0 241.7,152.0 242.5,152.0 243.3,152.0 244.1,152.0 244.9,152.0 245.7,152.0 246.5,152.0 247.4,152.0 248.2,152.0 249.0,152.0 249.8,152.0 250.6,152.0 251.4,152.0 252.2,152.0 253.0,152.0 253.8,152.0 254.6,152.0 255.4,152.0 256.2,152.0 257.0,152.0 L257.0,152.0 Z" fill="#4a90d9" fill-opacity="0.06"/>
  <polyline points="52.0,152.0 52.8,152.0 53.6,152.0 54.4,152.0 55.2,152.0 56.0,152.0 56.8,152.0 57.6,152.0 58.4,152.0 59.2,152.0 60.0,152.0 60.8,152.0 61.6,152.0 62.5,152.0 63.3,152.0 64.1,152.0 64.9,152.0 65.7,152.0 66.5,152.0 67.3,152.0 68.1,152.0 68.9,152.0 69.7,152.0 70.5,152.0 71.3,152.0 72.1,152.0 72.9,152.0 73.7,152.0 74.5,152.0 75.3,152.0 76.1,152.0 76.9,152.0 77.7,152.0 78.5,152.0 79.3,152.0 80.1,152.0 80.9,152.0 81.7,152.0 82.5,152.0 83.4,152.0 84.2,152.0 85.0,152.0 85.8,152.0 86.6,152.0 87.4,152.0 88.2,152.0 89.0,152.0 89.8,152.0 90.6,152.0 91.4,152.0 92.2,152.0 93.0,152.0 93.8,152.0 94.6,152.0 95.4,152.0 96.2,152.0 97.0,152.0 97.8,152.0 98.6,152.0 99.4,151.9 100.2,150.2 101.0,148.4 101.8,146.6 102.6,144.8 103.5,142.8 104.3,140.8 105.1,138.8 105.9,136.7 106.7,134.6 107.5,132.4 108.3,130.2 109.1,127.9 109.9,125.5 110.7,123.2 111.5,120.7 112.3,118.3 113.1,115.8 113.9,113.2 114.7,110.7 115.5,108.0 116.3,105.4 117.1,102.8 117.9,100.1 118.7,97.4 119.5,94.6 120.3,91.9 121.1,89.1 121.9,86.4 122.7,83.6 123.5,80.9 124.4,78.1 125.2,75.4 126.0,72.6 126.8,69.9 127.6,67.2 128.4,64.5 129.2,61.8 130.0,59.2 130.8,56.6 131.6,54.0 132.4,51.5 133.2,49.0 134.0,46.6 134.8,44.3 135.6,41.9 136.4,39.7 137.2,37.5 138.0,35.4 138.8,33.3 139.6,31.4 140.4,29.5 141.2,27.7 142.0,26.0 142.8,24.3 143.6,22.8 144.5,21.3 145.3,20.0 146.1,18.7 146.9,17.6 147.7,16.5 148.5,15.6 149.3,14.8 150.1,14.0 150.9,13.4 151.7,12.9 152.5,12.5 153.3,12.2 154.1,12.1 154.9,12.0 155.7,12.1 156.5,12.2 157.3,12.5 158.1,12.9 158.9,13.4 159.7,14.0 160.5,14.8 161.3,15.6 162.1,16.5 162.9,17.6 163.7,18.7 164.5,20.0 165.4,21.3 166.2,22.8 167.0,24.3 167.8,26.0 168.6,27.7 169.4,29.5 170.2,31.4 171.0,33.3 171.8,35.4 172.6,37.5 173.4,39.7 174.2,41.9 175.0,44.3 175.8,46.6 176.6,49.0 177.4,51.5 178.2,54.0 179.0,56.6 179.8,59.2 180.6,61.8 181.4,64.5 182.2,67.2 183.0,69.9 183.8,72.6 184.6,75.4 185.5,78.1 186.3,80.9 187.1,83.6 187.9,86.4 188.7,89.1 189.5,91.9 190.3,94.6 191.1,97.4 191.9,100.1 192.7,102.8 193.5,105.4 194.3,108.0 195.1,110.7 195.9,113.2 196.7,115.8 197.5,118.3 198.3,120.7 199.1,123.2 199.9,125.5 200.7,127.9 201.5,130.2 202.3,132.4 203.1,134.6 203.9,136.7 204.7,138.8 205.5,140.8 206.4,142.8 207.2,144.8 208.0,146.6 208.8,148.4 209.6,150.2 210.4,151.9 211.2,152.0 212.0,152.0 212.8,152.0 213.6,152.0 214.4,152.0 215.2,152.0 216.0,152.0 216.8,152.0 217.6,152.0 218.4,152.0 219.2,152.0 220.0,152.0 220.8,152.0 221.6,152.0 222.4,152.0 223.2,152.0 224.0,152.0 224.8,152.0 225.6,152.0 226.5,152.0 227.3,152.0 228.1,152.0 228.9,152.0 229.7,152.0 230.5,152.0 231.3,152.0 232.1,152.0 232.9,152.0 233.7,152.0 234.5,152.0 235.3,152.0 236.1,152.0 236.9,152.0 237.7,152.0 238.5,152.0 239.3,152.0 240.1,152.0 240.9,152.0 241.7,152.0 242.5,152.0 243.3,152.0 244.1,152.0 244.9,152.0 245.7,152.0 246.5,152.0 247.4,152.0 248.2,152.0 249.0,152.0 249.8,152.0 250.6,152.0 251.4,152.0 252.2,152.0 253.0,152.0 253.8,152.0 254.6,152.0 255.4,152.0 256.2,152.0 257.0,152.0" fill="none" stroke="#4a90d9" stroke-width="1.2" stroke-linejoin="round"/>
  <line x1="322" y1="12.0" x2="527" y2="12.0" stroke="#e5e7eb" stroke-width="0.5"/>
  <text x="318" y="15.0" text-anchor="end" font-size="7.5" fill="#6b7280">0</text>
  <line x1="322" y1="58.7" x2="527" y2="58.7" stroke="#e5e7eb" stroke-width="0.5"/>
  <text x="318" y="61.7" text-anchor="end" font-size="7.5" fill="#6b7280">-40</text>
  <line x1="322" y1="105.3" x2="527" y2="105.3" stroke="#e5e7eb" stroke-width="0.5"/>
  <text x="318" y="108.3" text-anchor="end" font-size="7.5" fill="#6b7280">-80</text>
  <line x1="322" y1="152.0" x2="527" y2="152.0" stroke="#e5e7eb" stroke-width="0.5"/>
  <text x="318" y="155.0" text-anchor="end" font-size="7.5" fill="#6b7280">-120</text>
  <line x1="322.0" y1="12" x2="322.0" y2="152" stroke="#e5e7eb" stroke-width="0.5"/>
  <text x="322.0" y="164" text-anchor="middle" font-size="7.5" fill="#6b7280">0</text>
  <line x1="363.0" y1="12" x2="363.0" y2="152" stroke="#e5e7eb" stroke-width="0.5"/>
  <text x="363.0" y="164" text-anchor="middle" font-size="7.5" fill="#6b7280">0.1</text>
  <line x1="404.0" y1="12" x2="404.0" y2="152" stroke="#e5e7eb" stroke-width="0.5"/>
  <text x="404.0" y="164" text-anchor="middle" font-size="7.5" fill="#6b7280">0.2</text>
  <line x1="445.0" y1="12" x2="445.0" y2="152" stroke="#e5e7eb" stroke-width="0.5"/>
  <text x="445.0" y="164" text-anchor="middle" font-size="7.5" fill="#6b7280">0.3</text>
  <line x1="486.0" y1="12" x2="486.0" y2="152" stroke="#e5e7eb" stroke-width="0.5"/>
  <text x="486.0" y="164" text-anchor="middle" font-size="7.5" fill="#6b7280">0.4</text>
  <line x1="527.0" y1="12" x2="527.0" y2="152" stroke="#e5e7eb" stroke-width="0.5"/>
  <text x="527.0" y="164" text-anchor="middle" font-size="7.5" fill="#6b7280">0.5</text>
  <line x1="322" y1="12" x2="322" y2="152" stroke="#d1d5db" stroke-width="0.75"/>
  <line x1="322" y1="152" x2="527" y2="152" stroke="#d1d5db" stroke-width="0.75"/>
  <polyline points="322.0,14.9 322.1,14.9 322.2,14.8 322.3,14.6 322.4,14.4 322.5,14.2 322.6,13.9 322.7,13.6 322.8,13.3 322.9,13.0 323.0,12.7 323.1,12.5 323.2,12.3 323.3,12.1 323.4,12.0 323.5,12.0 323.6,12.0 323.7,12.1 323.8,12.3 323.9,12.5 324.0,12.8 324.1,13.2 324.2,13.7 324.3,14.3 324.4,15.0 324.5,15.8 324.6,16.7 324.7,17.7 324.8,18.9 324.9,20.2 325.0,21.7 325.1,23.4 325.2,25.4 325.3,27.6 325.4,30.2 325.5,33.2 325.6,37.0 325.7,41.7 325.8,48.5 325.9,61.6 326.0,60.6 326.1,53.1 326.2,50.7 326.3,50.7 326.4,52.4 326.5,56.8 326.6,69.6 326.7,62.1 326.8,52.6 326.9,47.7 327.0,44.5 327.1,42.3 327.2,40.8 327.3,39.7 327.4,39.1 327.5,38.9 327.6,39.0 327.7,39.4 327.8,40.2 327.9,41.5 328.0,43.4 328.1,46.0 328.2,49.9 328.3,56.9 328.4,152.0 328.5,57.3 328.6,50.6 328.7,47.0 328.8,44.7 328.9,43.2 329.0,42.3 329.1,41.8 329.2,41.7 329.3,42.1 329.4,42.8 329.5,44.0 329.6,45.8 329.7,48.4 329.8,52.3 329.9,59.2 330.0,152.0 330.1,59.5 330.2,52.8 330.3,49.1 330.4,46.8 330.5,45.3 330.6,44.3 330.7,43.8 330.8,43.8 330.9,44.1 331.0,44.8 331.1,46.0 331.2,47.7 331.3,50.3 331.4,54.2 331.5,61.1 331.6,152.0 331.7,61.3 331.8,54.6 331.9,50.9 332.0,48.6 332.1,47.0 332.2,46.1 332.3,45.6 332.4,45.5 332.5,45.7 332.6,46.4 332.7,47.6 332.8,49.3 332.9,51.9 333.0,55.8 333.1,62.7 333.2,152.0 333.3,62.9 333.4,56.1 333.5,52.4 333.6,50.1 333.7,48.5 333.8,47.5 333.9,47.0 334.0,46.9 334.1,47.2 334.2,47.9 334.3,49.0 334.4,50.7 334.5,53.3 334.6,57.1 334.7,64.0 334.8,152.0 334.9,64.2 335.0,57.4 335.1,53.7 335.2,51.4 335.3,49.8 335.4,48.8 335.5,48.3 335.6,48.2 335.7,48.4 335.8,49.1 335.9,50.3 336.0,52.0 336.1,54.5 336.2,58.3 336.3,65.2 336.4,152.0 336.5,65.4 336.6,58.6 336.7,54.9 336.8,52.5 336.9,51.0 337.0,50.0 337.1,49.4 337.2,49.3 337.3,49.6 337.4,50.2 337.5,51.4 337.6,53.1 337.7,55.6 337.8,59.4 337.9,66.3 338.0,152.0 338.1,66.4 338.2,59.7 338.3,56.0 338.4,53.6 338.5,52.0 338.6,51.0 338.7,50.4 338.8,50.3 338.9,50.6 339.0,51.2 339.1,52.4 339.2,54.1 339.3,56.6 339.4,60.4 339.5,67.3 339.6,152.0 339.7,67.4 339.8,60.6 339.9,56.9 340.0,54.5 340.1,52.9 340.2,51.9 340.3,51.4 340.4,51.2 340.5,51.5 340.6,52.1 340.7,53.3 340.8,55.0 340.9,57.5 341.0,61.3 341.1,68.2 341.2,152.0 341.3,68.3 341.4,61.5 341.5,57.8 341.6,55.4 341.7,53.8 341.8,52.8 341.9,52.2 342.0,52.1 342.1,52.3 342.2,53.0 342.3,54.1 342.4,55.8 342.5,58.3 342.6,62.1 342.7,69.0 342.8,152.0 342.9,69.1 343.0,62.3 343.1,58.6 343.2,56.2 343.3,54.6 343.4,53.6 343.5,53.0 343.6,52.8 343.7,53.1 343.8,53.7 343.9,54.9 344.0,56.5 344.1,59.0 344.2,62.9 344.3,69.7 344.4,152.0 344.5,69.8 344.6,63.0 344.7,59.3 344.8,56.9 344.9,55.3 345.0,54.3 345.1,53.7 345.2,53.6 345.3,53.8 345.4,54.5 345.5,55.6 345.6,57.2 345.7,59.7 345.8,63.6 345.9,70.4 346.0,152.0 346.1,70.5 346.2,63.7 346.3,60.0 346.4,57.6 346.5,56.0 346.6,55.0 346.7,54.4 346.8,54.2 346.9,54.5 347.0,55.1 347.1,56.2 347.2,57.9 347.3,60.4 347.4,64.2 347.5,71.1 347.6,152.0 347.7,71.2 347.8,64.4 347.9,60.6 348.0,58.2 348.1,56.6 348.2,55.6 348.3,55.0 348.4,54.9 348.5,55.1 348.6,55.7 348.7,56.8 348.8,58.5 348.9,61.0 349.0,64.8 349.1,71.7 349.2,152.0 349.3,71.8 349.4,65.0 349.5,61.2 349.6,58.8 349.7,57.2 349.8,56.2 349.9,55.6 350.0,55.4 350.1,55.7 350.2,56.3 350.3,57.4 350.4,59.1 350.5,61.6 350.6,65.4 350.7,72.3 350.8,152.0 350.9,72.3 351.0,65.5 351.1,61.8 351.2,59.4 351.3,57.8 351.4,56.7 351.5,56.2 351.6,56.0 351.7,56.2 351.8,56.9 351.9,58.0 352.0,59.6 352.1,62.1 352.2,65.9 352.3,72.8 352.4,152.0 352.5,72.9 352.6,66.1 352.7,62.3 352.8,59.9 352.9,58.3 353.0,57.3 353.1,56.7 353.2,56.5 353.3,56.8 353.4,57.4 353.5,58.5 353.6,60.2 353.7,62.6 353.8,66.5 353.9,73.3 354.0,152.0 354.1,73.4 354.2,66.6 354.3,62.8 354.4,60.4 354.5,58.8 354.6,57.8 354.7,57.2 354.8,57.0 354.9,57.3 355.0,57.9 355.1,59.0 355.2,60.7 355.3,63.1 355.4,66.9 355.5,73.8 355.6,152.0 355.7,73.9 355.8,67.1 355.9,63.3 356.0,60.9 356.1,59.3 356.3,58.2 356.4,57.7 356.5,57.5 356.6,57.7 356.7,58.4 356.8,59.5 356.9,61.1 357.0,63.6 357.1,67.4 357.2,74.3 357.3,152.0 357.4,74.3 357.5,67.5 357.6,63.8 357.7,61.3 357.8,59.7 357.9,58.7 358.0,58.1 358.1,57.9 358.2,58.2 358.3,58.8 358.4,59.9 358.5,61.6 358.6,64.0 358.7,67.8 358.8,74.7 358.9,152.0 359.0,74.8 359.1,68.0 359.2,64.2 359.3,61.8 359.4,60.2 359.5,59.1 359.6,58.5 359.7,58.4 359.8,58.6 359.9,59.2 360.0,60.3 360.1,62.0 360.2,64.5 360.3,68.3 360.4,75.1 360.5,152.0 360.6,75.2 360.7,68.4 360.8,64.6 360.9,62.2 361.0,60.6 361.1,59.5 361.2,59.0 361.3,58.8 361.4,59.0 361.5,59.6 361.6,60.7 361.7,62.4 361.8,64.9 361.9,68.7 362.0,75.5 362.1,152.0 362.2,75.6 362.3,68.8 362.4,65.0 362.5,62.6 362.6,61.0 362.7,59.9 362.8,59.4 362.9,59.2 363.0,59.4 363.1,60.0 363.2,61.1 363.3,62.8 363.4,65.3 363.5,69.1 363.6,75.9 363.7,152.0 363.8,76.0 363.9,69.2 364.0,65.4 364.1,63.0 364.2,61.4 364.3,60.3 364.4,59.7 364.5,59.6 364.6,59.8 364.7,60.4 364.8,61.5 364.9,63.2 365.0,65.6 365.1,69.4 365.2,76.3 365.3,152.0 365.4,76.3 365.5,69.5 365.6,65.8 365.7,63.3 365.8,61.7 365.9,60.7 366.0,60.1 366.1,59.9 366.2,60.1 366.3,60.8 366.4,61.9 366.5,63.5 366.6,66.0 366.7,69.8 366.8,76.6 366.9,152.0 367.0,76.7 367.1,69.9 367.2,66.1 367.3,63.7 367.4,62.1 367.5,61.0 367.6,60.4 367.7,60.3 367.8,60.5 367.9,61.1 368.0,62.2 368.1,63.9 368.2,66.3 368.3,70.1 368.4,77.0 368.5,152.0 368.6,77.0 368.7,70.2 368.8,66.5 368.9,64.0 369.0,62.4 369.1,61.4 369.2,60.8 369.3,60.6 369.4,60.8 369.5,61.4 369.6,62.5 369.7,64.2 369.8,66.7 369.9,70.5 370.0,77.3 370.1,152.0 370.2,77.3 370.3,70.5 370.4,66.8 370.5,64.4 370.6,62.7 370.7,61.7 370.8,61.1 370.9,60.9 371.0,61.1 371.1,61.8 371.2,62.9 371.3,64.5 371.4,67.0 371.5,70.8 371.6,77.6 371.7,152.0 371.8,77.7 371.9,70.9 372.0,67.1 372.1,64.7 372.2,63.0 372.3,62.0 372.4,61.4 372.5,61.2 372.6,61.5 372.7,62.1 372.8,63.2 372.9,64.8 373.0,67.3 373.1,71.1 373.2,77.9 373.3,152.0 373.4,78.0 373.5,71.2 373.6,67.4 373.7,65.0 373.8,63.4 373.9,62.3 374.0,61.7 374.1,61.5 374.2,61.8 374.3,62.4 374.4,63.5 374.5,65.1 374.6,67.6 374.7,71.4 374.8,78.2 374.9,152.0 375.0,78.3 375.1,71.5 375.2,67.7 375.3,65.3 375.4,63.6 375.5,62.6 375.6,62.0 375.7,61.8 375.8,62.0 375.9,62.7 376.0,63.7 376.1,65.4 376.2,67.9 376.3,71.7 376.4,78.5 376.5,152.0 376.6,78.5 376.7,71.7 376.8,68.0 376.9,65.5 377.0,63.9 377.1,62.9 377.2,62.3 377.3,62.1 377.4,62.3 377.5,62.9 377.6,64.0 377.7,65.7 377.8,68.1 377.9,71.9 378.0,78.8 378.1,152.0 378.2,78.8 378.3,72.0 378.4,68.3 378.5,65.8 378.6,64.2 378.7,63.1 378.8,62.6 378.9,62.4 379.0,62.6 379.1,63.2 379.2,64.3 379.3,66.0 379.4,68.4 379.5,72.2 379.6,79.1 379.7,152.0 379.8,79.1 379.9,72.3 380.0,68.5 380.1,66.1 380.2,64.5 380.3,63.4 380.4,62.8 380.5,62.6 380.6,62.9 380.7,63.5 380.8,64.6 380.9,66.2 381.0,68.7 381.1,72.5 381.2,79.3 381.3,152.0 381.4,79.3 381.5,72.5 381.6,68.8 381.7,66.3 381.8,64.7 381.9,63.7 382.0,63.1 382.1,62.9 382.2,63.1 382.3,63.7 382.4,64.8 382.5,66.5 382.6,68.9 382.7,72.7 382.8,79.6 382.9,152.0 383.0,79.6 383.1,72.8 383.2,69.0 383.3,66.6 383.4,65.0 383.5,63.9 383.6,63.3 383.7,63.1 383.8,63.4 383.9,64.0 384.0,65.1 384.1,66.7 384.2,69.2 384.3,73.0 384.4,79.8 384.5,152.0 384.6,79.8 384.7,73.0 384.8,69.3 384.9,66.8 385.0,65.2 385.1,64.2 385.2,63.6 385.3,63.4 385.4,63.6 385.5,64.2 385.6,65.3 385.7,67.0 385.8,69.4 385.9,73.2 386.0,80.0 386.1,152.0 386.2,80.1 386.3,73.3 386.4,69.5 386.5,67.1 386.6,65.4 386.7,64.4 386.8,63.8 386.9,63.6 387.0,63.8 387.1,64.4 387.2,65.5 387.3,67.2 387.4,69.6 387.5,73.4 387.6,80.3 387.7,152.0 387.8,80.3 387.9,73.5 388.0,69.7 388.1,67.3 388.2,65.7 388.3,64.6 388.4,64.0 388.5,63.8 388.6,64.1 388.7,64.7 388.8,65.8 388.9,67.4 389.0,69.9 389.1,73.7 389.2,80.5 389.3,152.0 389.4,80.5 389.5,73.7 389.6,69.9 389.7,67.5 389.8,65.9 389.9,64.8 390.0,64.2 390.1,64.1 390.2,64.3 390.3,64.9 390.4,66.0 390.5,67.6 390.6,70.1 390.7,73.9 390.8,80.7 390.9,152.0 391.0,80.7 391.1,73.9 391.2,70.2 391.3,67.7 391.4,66.1 391.5,65.1 391.6,64.5 391.7,64.3 391.8,64.5 391.9,65.1 392.0,66.2 392.1,67.8 392.2,70.3 392.3,74.1 392.4,80.9 392.5,152.0 392.6,81.0 392.7,74.1 392.8,70.4 392.9,67.9 393.0,66.3 393.1,65.3 393.2,64.7 393.3,64.5 393.4,64.7 393.5,65.3 393.6,66.4 393.7,68.0 393.8,70.5 393.9,74.3 394.0,81.1 394.1,152.0 394.2,81.2 394.3,74.3 394.4,70.6 394.5,68.1 394.6,66.5 394.7,65.5 394.8,64.9 394.9,64.7 395.0,64.9 395.1,65.5 395.2,66.6 395.3,68.2 395.4,70.7 395.5,74.5 395.6,81.3 395.7,152.0 395.8,81.4 395.9,74.5 396.0,70.8 396.1,68.3 396.2,66.7 396.3,65.7 396.4,65.1 396.5,64.9 396.6,65.1 396.7,65.7 396.8,66.8 396.9,68.4 397.0,70.9 397.1,74.7 397.2,81.5 397.3,152.0 397.4,81.6 397.5,74.7 397.6,71.0 397.7,68.5 397.8,66.9 397.9,65.9 398.0,65.3 398.1,65.1 398.2,65.3 398.3,65.9 398.4,67.0 398.5,68.6 398.6,71.1 398.7,74.9 398.8,81.7 398.9,152.0 399.0,81.7 399.1,74.9 399.2,71.2 399.3,68.7 399.4,67.1 399.5,66.0 399.6,65.4 399.7,65.3 399.8,65.5 399.9,66.1 400.0,67.2 400.1,68.8 400.2,71.3 400.3,75.1 400.4,81.9 400.5,152.0 400.6,81.9 400.7,75.1 400.8,71.3 400.9,68.9 401.0,67.3 401.1,66.2 401.2,65.6 401.3,65.4 401.4,65.6 401.5,66.3 401.6,67.3 401.7,69.0 401.8,71.5 401.9,75.2 402.0,82.1 402.1,152.0 402.2,82.1 402.3,75.3 402.4,71.5 402.5,69.1 402.6,67.5 402.7,66.4 402.8,65.8 402.9,65.6 403.0,65.8 403.1,66.4 403.2,67.5 403.3,69.2 403.4,71.6 403.5,75.4 403.6,82.3 403.7,152.0 403.8,82.3 403.9,75.5 404.0,71.7 404.1,69.3 404.2,67.6 404.3,66.6 404.4,66.0 404.5,65.8 404.6,66.0 404.7,66.6 404.8,67.7 404.9,69.3 405.0,71.8 405.1,75.6 405.2,82.4 405.3,152.0 405.4,82.4 405.5,75.6 405.6,71.9 405.7,69.4 405.8,67.8 405.9,66.7 406.0,66.1 406.1,66.0 406.2,66.2 406.3,66.8 406.4,67.9 406.5,69.5 406.6,72.0 406.7,75.8 406.8,82.6 406.9,152.0 407.0,82.6 407.1,75.8 407.2,72.0 407.3,69.6 407.4,68.0 407.5,66.9 407.6,66.3 407.7,66.1 407.8,66.3 407.9,66.9 408.0,68.0 408.1,69.7 408.2,72.1 408.3,75.9 408.4,82.8 408.5,152.0 408.6,82.8 408.7,76.0 408.8,72.2 408.9,69.8 409.0,68.1 409.1,67.1 409.2,66.5 409.3,66.3 409.4,66.5 409.5,67.1 409.6,68.2 409.7,69.8 409.8,72.3 409.9,76.1 410.0,82.9 410.1,152.0 410.2,82.9 410.3,76.1 410.4,72.3 410.5,69.9 410.6,68.3 410.7,67.2 410.8,66.6 410.9,66.4 411.0,66.6 411.1,67.3 411.2,68.3 411.3,70.0 411.4,72.4 411.5,76.2 411.6,83.1 411.7,152.0 411.8,83.1 411.9,76.3 412.0,72.5 412.1,70.1 412.2,68.4 412.3,67.4 412.4,66.8 412.5,66.6 412.6,66.8 412.7,67.4 412.8,68.5 412.9,70.1 413.0,72.6 413.1,76.4 413.2,83.2 413.3,152.0 413.4,83.2 413.5,76.4 413.6,72.6 413.7,70.2 413.8,68.6 413.9,67.5 414.0,66.9 414.1,66.7 414.2,66.9 414.3,67.6 414.4,68.6 414.5,70.3 414.6,72.7 414.7,76.5 414.8,83.4 414.9,152.0 415.0,83.4 415.1,76.6 415.2,72.8 415.3,70.4 415.4,68.7 415.5,67.7 415.6,67.1 415.7,66.9 415.8,67.1 415.9,67.7 416.0,68.8 416.1,70.4 416.2,72.9 416.3,76.7 416.4,83.5 416.5,152.0 416.6,83.5 416.7,76.7 416.8,72.9 416.9,70.5 417.0,68.9 417.1,67.8 417.2,67.2 417.3,67.0 417.4,67.2 417.5,67.8 417.6,68.9 417.7,70.6 417.8,73.0 417.9,76.8 418.0,83.6 418.1,152.0 418.2,83.7 418.3,76.8 418.4,73.1 418.5,70.6 418.6,69.0 418.7,67.9 418.8,67.3 418.9,67.2 419.0,67.4 419.1,68.0 419.2,69.1 419.3,70.7 419.4,73.2 419.5,76.9 419.6,83.8 419.7,152.0 419.8,83.8 419.9,77.0 420.0,73.2 420.1,70.8 420.2,69.1 420.3,68.1 420.4,67.5 420.5,67.3 420.6,67.5 420.7,68.1 420.8,69.2 420.9,70.8 421.0,73.3 421.1,77.1 421.2,83.9 421.3,152.0 421.4,83.9 421.5,77.1 421.6,73.3 421.7,70.9 421.8,69.3 421.9,68.2 422.0,67.6 422.1,67.4 422.2,67.6 422.3,68.2 422.4,69.3 422.5,71.0 422.6,73.4 422.7,77.2 422.8,84.0 422.9,152.0 423.0,84.1 423.1,77.2 423.2,73.5 423.3,71.0 423.4,69.4 423.5,68.3 423.6,67.7 423.7,67.5 423.8,67.8 423.9,68.4 424.0,69.4 424.1,71.1 424.2,73.5 424.3,77.3 424.4,84.2 424.6,152.0 424.7,84.2 424.8,77.4 424.9,73.6 425.0,71.2 425.1,69.5 425.2,68.5 425.3,67.9 425.4,67.7 425.5,67.9 425.6,68.5 425.7,69.6 425.8,71.2 425.9,73.7 426.0,77.5 426.1,84.3 426.2,152.0 426.3,84.3 426.4,77.5 426.5,73.7 426.6,71.3 426.7,69.6 426.8,68.6 426.9,68.0 427.0,67.8 427.1,68.0 427.2,68.6 427.3,69.7 427.4,71.3 427.5,73.8 427.6,77.6 427.7,84.4 427.8,152.0 427.9,84.4 428.0,77.6 428.1,73.8 428.2,71.4 428.3,69.8 428.4,68.7 428.5,68.1 428.6,67.9 428.7,68.1 428.8,68.7 428.9,69.8 429.0,71.5 429.1,73.9 429.2,77.7 429.3,84.5 429.4,152.0 429.5,84.5 429.6,77.7 429.7,73.9 429.8,71.5 429.9,69.9 430.0,68.8 430.1,68.2 430.2,68.0 430.3,68.2 430.4,68.8 430.5,69.9 430.6,71.6 430.7,74.0 430.8,77.8 430.9,84.6 431.0,152.0 431.1,84.7 431.2,77.8 431.3,74.1 431.4,71.6 431.5,70.0 431.6,68.9 431.7,68.3 431.8,68.1 431.9,68.3 432.0,69.0 432.1,70.0 432.2,71.7 432.3,74.1 432.4,77.9 432.5,84.7 432.6,152.0 432.7,84.8 432.8,77.9 432.9,74.2 433.0,71.7 433.1,70.1 433.2,69.0 433.3,68.4 433.4,68.3 433.5,68.5 433.6,69.1 433.7,70.1 433.8,71.8 433.9,74.2 434.0,78.0 434.1,84.9 434.2,152.0 434.3,84.9 434.4,78.1 434.5,74.3 434.6,71.8 434.7,70.2 434.8,69.1 434.9,68.5 435.0,68.4 435.1,68.6 435.2,69.2 435.3,70.2 435.4,71.9 435.5,74.3 435.6,78.1 435.7,85.0 435.8,152.0 435.9,85.0 436.0,78.2 436.1,74.4 436.2,71.9 436.3,70.3 436.4,69.3 436.5,68.7 436.6,68.5 436.7,68.7 436.8,69.3 436.9,70.4 437.0,72.0 437.1,74.5 437.2,78.2 437.3,85.1 437.4,152.0 437.5,85.1 437.6,78.3 437.7,74.5 437.8,72.1 437.9,70.4 438.0,69.4 438.1,68.8 438.2,68.6 438.3,68.8 438.4,69.4 438.5,70.5 438.6,72.1 438.7,74.6 438.8,78.3 438.9,85.2 439.0,152.0 439.1,85.2 439.2,78.4 439.3,74.6 439.4,72.2 439.5,70.5 439.6,69.5 439.7,68.9 439.8,68.7 439.9,68.9 440.0,69.5 440.1,70.6 440.2,72.2 440.3,74.7 440.4,78.4 440.5,85.3 440.6,152.0 440.7,85.3 440.8,78.5 440.9,74.7 441.0,72.2 441.1,70.6 441.2,69.6 441.3,69.0 441.4,68.8 441.5,69.0 441.6,69.6 441.7,70.6 441.8,72.3 441.9,74.7 442.0,78.5 442.1,85.4 442.2,152.0 442.3,85.4 442.4,78.6 442.5,74.8 442.6,72.3 442.7,70.7 442.8,69.6 442.9,69.0 443.0,68.9 443.1,69.1 443.2,69.7 443.3,70.7 443.4,72.4 443.5,74.8 443.6,78.6 443.7,85.5 443.8,152.0 443.9,85.5 444.0,78.6 444.1,74.9 444.2,72.4 444.3,70.8 444.4,69.7 444.5,69.1 444.6,68.9 444.7,69.1 444.8,69.8 444.9,70.8 445.0,72.5 445.1,74.9 445.2,78.7 445.3,85.5 445.4,152.0 445.5,85.6 445.6,78.7 445.7,75.0 445.8,72.5 445.9,70.9 446.0,69.8 446.1,69.2 446.2,69.0 446.3,69.2 446.4,69.9 446.5,70.9 446.6,72.6 446.7,75.0 446.8,78.8 446.9,85.6 447.0,152.0 447.1,85.6 447.2,78.8 447.3,75.1 447.4,72.6 447.5,71.0 447.6,69.9 447.7,69.3 447.8,69.1 447.9,69.3 448.0,69.9 448.1,71.0 448.2,72.7 448.3,75.1 448.4,78.9 448.5,85.7 448.6,152.0 448.7,85.7 448.8,78.9 448.9,75.1 449.0,72.7 449.1,71.1 449.2,70.0 449.3,69.4 449.4,69.2 449.5,69.4 449.6,70.0 449.7,71.1 449.8,72.7 449.9,75.2 450.0,79.0 450.1,85.8 450.2,152.0 450.3,85.8 450.4,79.0 450.5,75.2 450.6,72.8 450.7,71.1 450.8,70.1 450.9,69.5 451.0,69.3 451.1,69.5 451.2,70.1 451.3,71.2 451.4,72.8 451.5,75.3 451.6,79.1 451.7,85.9 451.8,152.0 451.9,85.9 452.0,79.1 452.1,75.3 452.2,72.9 452.3,71.2 452.4,70.2 452.5,69.6 452.6,69.4 452.7,69.6 452.8,70.2 452.9,71.3 453.0,72.9 453.1,75.4 453.2,79.1 453.3,86.0 453.4,152.0 453.5,86.0 453.6,79.2 453.7,75.4 453.8,72.9 453.9,71.3 454.0,70.2 454.1,69.6 454.2,69.5 454.3,69.7 454.4,70.3 454.5,71.3 454.6,73.0 454.7,75.4 454.8,79.2 454.9,86.0 455.0,152.0 455.1,86.1 455.2,79.2 455.3,75.5 455.4,73.0 455.5,71.4 455.6,70.3 455.7,69.7 455.8,69.5 455.9,69.7 456.0,70.3 456.1,71.4 456.2,73.1 456.3,75.5 456.4,79.3 456.5,86.1 456.6,152.0 456.7,86.1 456.8,79.3 456.9,75.5 457.0,73.1 457.1,71.5 457.2,70.4 457.3,69.8 457.4,69.6 457.5,69.8 457.6,70.4 457.7,71.5 457.8,73.1 457.9,75.6 458.0,79.4 458.1,86.2 458.2,152.0 458.3,86.2 458.4,79.4 458.5,75.6 458.6,73.2 458.7,71.5 458.8,70.5 458.9,69.9 459.0,69.7 459.1,69.9 459.2,70.5 459.3,71.6 459.4,73.2 459.5,75.7 459.6,79.4 459.7,86.3 459.8,152.0 459.9,86.3 460.0,79.5 460.1,75.7 460.2,73.2 460.3,71.6 460.4,70.5 460.5,69.9 460.6,69.7 460.7,69.9 460.8,70.6 460.9,71.6 461.0,73.3 461.1,75.7 461.2,79.5 461.3,86.3 461.4,152.0 461.5,86.3 461.6,79.5 461.7,75.8 461.8,73.3 461.9,71.7 462.0,70.6 462.1,70.0 462.2,69.8 462.3,70.0 462.4,70.6 462.5,71.7 462.6,73.3 462.7,75.8 462.8,79.6 462.9,86.4 463.0,152.0 463.1,86.4 463.2,79.6 463.3,75.8 463.4,73.4 463.5,71.7 463.6,70.7 463.7,70.1 463.8,69.9 463.9,70.1 464.0,70.7 464.1,71.8 464.2,73.4 464.3,75.9 464.4,79.6 464.5,86.5 464.6,152.0 464.7,86.5 464.8,79.7 464.9,75.9 465.0,73.4 465.1,71.8 465.2,70.7 465.3,70.1 465.4,69.9 465.5,70.1 465.6,70.8 465.7,71.8 465.8,73.5 465.9,75.9 466.0,79.7 466.1,86.5 466.2,152.0 466.3,86.5 466.4,79.7 466.5,75.9 466.6,73.5 466.7,71.9 466.8,70.8 466.9,70.2 467.0,70.0 467.1,70.2 467.2,70.8 467.3,71.9 467.4,73.5 467.5,76.0 467.6,79.8 467.7,86.6 467.8,152.0 467.9,86.6 468.0,79.8 468.1,76.0 468.2,73.6 468.3,71.9 468.4,70.9 468.5,70.3 468.6,70.1 468.7,70.3 468.8,70.9 468.9,72.0 469.0,73.6 469.1,76.0 469.2,79.8 469.3,86.7 469.4,152.0 469.5,86.7 469.6,79.8 469.7,76.1 469.8,73.6 469.9,72.0 470.0,70.9 470.1,70.3 470.2,70.1 470.3,70.3 470.4,70.9 470.5,72.0 470.6,73.7 470.7,76.1 470.8,79.9 470.9,86.7 471.0,152.0 471.1,86.7 471.2,79.9 471.3,76.1 471.4,73.7 471.5,72.0 471.6,71.0 471.7,70.4 471.8,70.2 471.9,70.4 472.0,71.0 472.1,72.1 472.2,73.7 472.3,76.2 472.4,79.9 472.5,86.8 472.6,152.0 472.7,86.8 472.8,80.0 472.9,76.2 473.0,73.7 473.1,72.1 473.2,71.0 473.3,70.4 473.4,70.2 473.5,70.4 473.6,71.0 473.7,72.1 473.8,73.8 473.9,76.2 474.0,80.0 474.1,86.8 474.2,152.0 474.3,86.8 474.4,80.0 474.5,76.2 474.6,73.8 474.7,72.2 474.8,71.1 474.9,70.5 475.0,70.3 475.1,70.5 475.2,71.1 475.3,72.2 475.4,73.8 475.5,76.3 475.6,80.0 475.7,86.9 475.8,152.0 475.9,86.9 476.0,80.1 476.1,76.3 476.2,73.8 476.3,72.2 476.4,71.1 476.5,70.5 476.6,70.3 476.7,70.5 476.8,71.2 476.9,72.2 477.0,73.9 477.1,76.3 477.2,80.1 477.3,86.9 477.4,152.0 477.5,86.9 477.6,80.1 477.7,76.3 477.8,73.9 477.9,72.3 478.0,71.2 478.1,70.6 478.2,70.4 478.3,70.6 478.4,71.2 478.5,72.3 478.6,73.9 478.7,76.4 478.8,80.1 478.9,87.0 479.0,152.0 479.1,87.0 479.2,80.2 479.3,76.4 479.4,73.9 479.5,72.3 479.6,71.2 479.7,70.6 479.8,70.4 479.9,70.6 480.0,71.3 480.1,72.3 480.2,74.0 480.3,76.4 480.4,80.2 480.5,87.0 480.6,152.0 480.7,87.0 480.8,80.2 480.9,76.4 481.0,74.0 481.1,72.4 481.2,71.3 481.3,70.7 481.4,70.5 481.5,70.7 481.6,71.3 481.7,72.4 481.8,74.0 481.9,76.5 482.0,80.2 482.1,87.1 482.2,152.0 482.3,87.1 482.4,80.3 482.5,76.5 482.6,74.0 482.7,72.4 482.8,71.3 482.9,70.7 483.0,70.5 483.1,70.7 483.2,71.3 483.3,72.4 483.4,74.1 483.5,76.5 483.6,80.3 483.7,87.1 483.8,152.0 483.9,87.1 484.0,80.3 484.1,76.5 484.2,74.1 484.3,72.4 484.4,71.4 484.5,70.8 484.6,70.6 484.7,70.8 484.8,71.4 484.9,72.5 485.0,74.1 485.1,76.5 485.2,80.3 485.3,87.2 485.4,152.0 485.5,87.2 485.6,80.3 485.7,76.6 485.8,74.1 485.9,72.5 486.0,71.4 486.1,70.8 486.2,70.6 486.3,70.8 486.4,71.4 486.5,72.5 486.6,74.1 486.7,76.6 486.8,80.4 486.9,87.2 487.0,152.0 487.1,87.2 487.2,80.4 487.3,76.6 487.4,74.2 487.5,72.5 487.6,71.5 487.7,70.9 487.8,70.7 487.9,70.9 488.0,71.5 488.1,72.5 488.2,74.2 488.3,76.6 488.4,80.4 488.5,87.2 488.6,152.0 488.7,87.2 488.8,80.4 488.9,76.6 489.0,74.2 489.1,72.6 489.2,71.5 489.3,70.9 489.4,70.7 489.5,70.9 489.6,71.5 489.7,72.6 489.8,74.2 489.9,76.7 490.0,80.4 490.1,87.3 490.2,152.0 490.3,87.3 490.4,80.5 490.5,76.7 490.6,74.2 490.7,72.6 490.8,71.5 490.9,70.9 491.0,70.7 491.1,70.9 491.2,71.5 491.3,72.6 491.4,74.3 491.5,76.7 491.6,80.5 491.7,87.3 491.8,152.0 491.9,87.3 492.0,80.5 492.1,76.7 492.2,74.3 492.3,72.6 492.4,71.6 492.5,71.0 492.6,70.8 492.7,71.0 492.9,71.6 493.0,72.6 493.1,74.3 493.2,76.7 493.3,80.5 493.4,87.3 493.5,152.0 493.6,87.3 493.7,80.5 493.8,76.7 493.9,74.3 494.0,72.7 494.1,71.6 494.2,71.0 494.3,70.8 494.4,71.0 494.5,71.6 494.6,72.7 494.7,74.3 494.8,76.8 494.9,80.5 495.0,87.4 495.1,152.0 495.2,87.4 495.3,80.6 495.4,76.8 495.5,74.3 495.6,72.7 495.7,71.6 495.8,71.0 495.9,70.8 496.0,71.0 496.1,71.6 496.2,72.7 496.3,74.3 496.4,76.8 496.5,80.6 496.6,87.4 496.7,152.0 496.8,87.4 496.9,80.6 497.0,76.8 497.1,74.4 497.2,72.7 497.3,71.7 497.4,71.1 497.5,70.9 497.6,71.1 497.7,71.7 497.8,72.7 497.9,74.4 498.0,76.8 498.1,80.6 498.2,87.4 498.3,152.0 498.4,87.4 498.5,80.6 498.6,76.8 498.7,74.4 498.8,72.8 498.9,71.7 499.0,71.1 499.1,70.9 499.2,71.1 499.3,71.7 499.4,72.8 499.5,74.4 499.6,76.9 499.7,80.6 499.8,87.5 499.9,152.0 500.0,87.5 500.1,80.6 500.2,76.9 500.3,74.4 500.4,72.8 500.5,71.7 500.6,71.1 500.7,70.9 500.8,71.1 500.9,71.7 501.0,72.8 501.1,74.4 501.2,76.9 501.3,80.7 501.4,87.5 501.5,152.0 501.6,87.5 501.7,80.7 501.8,76.9 501.9,74.4 502.0,72.8 502.1,71.7 502.2,71.1 502.3,70.9 502.4,71.1 502.5,71.7 502.6,72.8 502.7,74.5 502.8,76.9 502.9,80.7 503.0,87.5 503.1,152.0 503.2,87.5 503.3,80.7 503.4,76.9 503.5,74.5 503.6,72.8 503.7,71.8 503.8,71.2 503.9,71.0 504.0,71.2 504.1,71.8 504.2,72.8 504.3,74.5 504.4,76.9 504.5,80.7 504.6,87.5 504.7,152.0 504.8,87.5 504.9,80.7 505.0,76.9 505.1,74.5 505.2,72.8 505.3,71.8 505.4,71.2 505.5,71.0 505.6,71.2 505.7,71.8 505.8,72.9 505.9,74.5 506.0,76.9 506.1,80.7 506.2,87.6 506.3,152.0 506.4,87.6 506.5,80.7 506.6,77.0 506.7,74.5 506.8,72.9 506.9,71.8 507.0,71.2 507.1,71.0 507.2,71.2 507.3,71.8 507.4,72.9 507.5,74.5 507.6,77.0 507.7,80.7 507.8,87.6 507.9,152.0 508.0,87.6 508.1,80.7 508.2,77.0 508.3,74.5 508.4,72.9 508.5,71.8 508.6,71.2 508.7,71.0 508.8,71.2 508.9,71.8 509.0,72.9 509.1,74.5 509.2,77.0 509.3,80.8 509.4,87.6 509.5,152.0 509.6,87.6 509.7,80.8 509.8,77.0 509.9,74.5 510.0,72.9 510.1,71.8 510.2,71.2 510.3,71.0 510.4,71.2 510.5,71.8 510.6,72.9 510.7,74.6 510.8,77.0 510.9,80.8 511.0,87.6 511.1,152.0 511.2,87.6 511.3,80.8 511.4,77.0 511.5,74.6 511.6,72.9 511.7,71.9 511.8,71.2 511.9,71.1 512.0,71.3 512.1,71.9 512.2,72.9 512.3,74.6 512.4,77.0 512.5,80.8 512.6,87.6 512.7,152.0 512.8,87.6 512.9,80.8 513.0,77.0 513.1,74.6 513.2,72.9 513.3,71.9 513.4,71.3 513.5,71.1 513.6,71.3 513.7,71.9 513.8,72.9 513.9,74.6 514.0,77.0 514.1,80.8 514.2,87.6 514.3,152.0 514.4,87.6 514.5,80.8 514.6,77.0 514.7,74.6 514.8,72.9 514.9,71.9 515.0,71.3 515.1,71.1 515.2,71.3 515.3,71.9 515.4,73.0 515.5,74.6 515.6,77.0 515.7,80.8 515.8,87.6 515.9,152.0 516.0,87.6 516.1,80.8 516.2,77.0 516.3,74.6 516.4,73.0 516.5,71.9 516.6,71.3 516.7,71.1 516.8,71.3 516.9,71.9 517.0,73.0 517.1,74.6 517.2,77.0 517.3,80.8 517.4,87.7 517.5,152.0 517.6,87.7 517.7,80.8 517.8,77.1 517.9,74.6 518.0,73.0 518.1,71.9 518.2,71.3 518.3,71.1 518.4,71.3 518.5,71.9 518.6,73.0 518.7,74.6 518.8,77.1 518.9,80.8 519.0,87.7 519.1,152.0 519.2,87.7 519.3,80.8 519.4,77.1 519.5,74.6 519.6,73.0 519.7,71.9 519.8,71.3 519.9,71.1 520.0,71.3 520.1,71.9 520.2,73.0 520.3,74.6 520.4,77.1 520.5,80.8 520.6,87.7 520.7,152.0 520.8,87.7 520.9,80.8 521.0,77.1 521.1,74.6 521.2,73.0 521.3,71.9 521.4,71.3 521.5,71.1 521.6,71.3 521.7,71.9 521.8,73.0 521.9,74.6 522.0,77.1 522.1,80.8 522.2,87.7 522.3,152.0 522.4,87.7 522.5,80.9 522.6,77.1 522.7,74.6 522.8,73.0 522.9,71.9 523.0,71.3 523.1,71.1 523.2,71.3 523.3,71.9 523.4,73.0 523.5,74.6 523.6,77.1 523.7,80.9 523.8,87.7 523.9,152.0 524.0,87.7 524.1,80.9 524.2,77.1 524.3,74.6 524.4,73.0 524.5,71.9 524.6,71.3 524.7,71.1 524.8,71.3 524.9,71.9 525.0,73.0 525.1,74.6 525.2,77.1 525.3,80.9 525.4,87.7 525.5,152.0 525.6,87.7 525.7,80.9 525.8,77.1 525.9,74.6 526.0,73.0 526.1,71.9 526.2,71.3 526.3,71.1 526.4,71.3 526.5,71.9 526.6,73.0 526.7,74.6 526.8,77.1 526.9,80.9 527.0,87.7" fill="none" stroke="#4a90d9" stroke-width="1.2" stroke-linejoin="round"/>
  <text x="154.5" y="176" text-anchor="middle" font-size="8" fill="#6b7280">n / N</text>
  <text x="424.5" y="176" text-anchor="middle" font-size="8" fill="#6b7280">Normalized frequency (× Fₛ)</text>
</svg>
