<svg xmlns="http://www.w3.org/2000/svg" viewBox="0 0 800 230" style="font-family:system-ui,-apple-system,sans-serif">
  <line x1="42" y1="182.0" x2="377" y2="182.0" stroke="#e5e7eb" stroke-width="0.7"/>
  <text x="37" y="186.0" text-anchor="end" font-size="10" fill="#6b7280">0</text>
  <line x1="42" y1="95.0" x2="377" y2="95.0" stroke="#e5e7eb" stroke-width="0.7"/>
  <text x="37" y="99.0" text-anchor="end" font-size="10" fill="#6b7280">0.5</text>
  <line x1="42" y1="8.0" x2="377" y2="8.0" stroke="#e5e7eb" stroke-width="0.7"/>
  <text x="37" y="12.0" text-anchor="end" font-size="10" fill="#6b7280">1</text>
  <line x1="42.0" y1="8" x2="42.0" y2="182" stroke="#e5e7eb" stroke-width="0.7"/>
  <text x="42.0" y="198" text-anchor="middle" font-size="10" fill="#6b7280">0</text>
  <line x1="209.5" y1="8" x2="209.5" y2="182" stroke="#e5e7eb" stroke-width="0.7"/>
  <text x="209.5" y="198" text-anchor="middle" font-size="10" fill="#6b7280">0.5</text>
  <line x1="377.0" y1="8" x2="377.0" y2="182" stroke="#e5e7eb" stroke-width="0.7"/>
  <text x="377.0" y="198" text-anchor="middle" font-size="10" fill="#6b7280">1</text>
  <line x1="42" y1="8" x2="42" y2="182" stroke="#d1d5db" stroke-width="1"/>
  <line x1="42" y1="182" x2="377" y2="182" stroke="#d1d5db" stroke-width="1"/>
  <path d="M42.0,182.0 42.0,182.0 43.3,182.0 44.6,182.0 45.9,182.0 47.3,182.0 48.6,182.0 49.9,182.0 51.2,182.0 52.5,182.0 53.8,182.0 55.1,182.0 56.5,182.0 57.8,182.0 59.1,182.0 60.4,182.0 61.7,182.0 63.0,182.0 64.3,182.0 65.6,182.0 67.0,182.0 68.3,182.0 69.6,182.0 70.9,182.0 72.2,182.0 73.5,182.0 74.8,182.0 76.2,182.0 77.5,182.0 78.8,182.0 80.1,182.0 81.4,182.0 82.7,182.0 84.0,182.0 85.4,182.0 86.7,182.0 88.0,182.0 89.3,182.0 90.6,182.0 91.9,182.0 93.2,182.0 94.5,182.0 95.9,182.0 97.2,182.0 98.5,182.0 99.8,182.0 101.1,182.0 102.4,182.0 103.7,182.0 105.1,182.0 106.4,182.0 107.7,182.0 109.0,182.0 110.3,182.0 111.6,182.0 112.9,182.0 114.3,182.0 115.6,182.0 116.9,182.0 118.2,182.0 119.5,181.9 120.8,179.8 122.1,177.6 123.5,175.3 124.8,173.0 126.1,170.6 127.4,168.1 128.7,165.6 130.0,163.0 131.3,160.4 132.6,157.6 134.0,154.8 135.3,152.0 136.6,149.1 137.9,146.1 139.2,143.1 140.5,140.1 141.8,137.0 143.2,133.8 144.5,130.6 145.8,127.4 147.1,124.1 148.4,120.8 149.7,117.5 151.0,114.1 152.4,110.7 153.7,107.3 155.0,103.9 156.3,100.5 157.6,97.0 158.9,93.6 160.2,90.2 161.5,86.7 162.9,83.3 164.2,79.9 165.5,76.6 166.8,73.2 168.1,69.9 169.4,66.7 170.7,63.4 172.1,60.2 173.4,57.1 174.7,54.0 176.0,51.0 177.3,48.1 178.6,45.2 179.9,42.4 181.3,39.7 182.6,37.1 183.9,34.5 185.2,32.1 186.5,29.7 187.8,27.5 189.1,25.3 190.5,23.3 191.8,21.4 193.1,19.6 194.4,17.9 195.7,16.4 197.0,14.9 198.3,13.6 199.6,12.5 201.0,11.4 202.3,10.5 203.6,9.8 204.9,9.1 206.2,8.6 207.5,8.3 208.8,8.1 210.2,8.0 211.5,8.1 212.8,8.3 214.1,8.6 215.4,9.1 216.7,9.8 218.0,10.5 219.4,11.4 220.7,12.5 222.0,13.6 223.3,14.9 224.6,16.4 225.9,17.9 227.2,19.6 228.5,21.4 229.9,23.3 231.2,25.3 232.5,27.5 233.8,29.7 235.1,32.1 236.4,34.5 237.7,37.1 239.1,39.7 240.4,42.4 241.7,45.2 243.0,48.1 244.3,51.0 245.6,54.0 246.9,57.1 248.3,60.2 249.6,63.4 250.9,66.7 252.2,69.9 253.5,73.2 254.8,76.6 256.1,79.9 257.5,83.3 258.8,86.7 260.1,90.2 261.4,93.6 262.7,97.0 264.0,100.5 265.3,103.9 266.6,107.3 268.0,110.7 269.3,114.1 270.6,117.5 271.9,120.8 273.2,124.1 274.5,127.4 275.8,130.6 277.2,133.8 278.5,137.0 279.8,140.1 281.1,143.1 282.4,146.1 283.7,149.1 285.0,152.0 286.4,154.8 287.7,157.6 289.0,160.4 290.3,163.0 291.6,165.6 292.9,168.1 294.2,170.6 295.5,173.0 296.9,175.3 298.2,177.6 299.5,179.8 300.8,181.9 302.1,182.0 303.4,182.0 304.7,182.0 306.1,182.0 307.4,182.0 308.7,182.0 310.0,182.0 311.3,182.0 312.6,182.0 313.9,182.0 315.3,182.0 316.6,182.0 317.9,182.0 319.2,182.0 320.5,182.0 321.8,182.0 323.1,182.0 324.5,182.0 325.8,182.0 327.1,182.0 328.4,182.0 329.7,182.0 331.0,182.0 332.3,182.0 333.6,182.0 335.0,182.0 336.3,182.0 337.6,182.0 338.9,182.0 340.2,182.0 341.5,182.0 342.8,182.0 344.2,182.0 345.5,182.0 346.8,182.0 348.1,182.0 349.4,182.0 350.7,182.0 352.0,182.0 353.4,182.0 354.7,182.0 356.0,182.0 357.3,182.0 358.6,182.0 359.9,182.0 361.2,182.0 362.5,182.0 363.9,182.0 365.2,182.0 366.5,182.0 367.8,182.0 369.1,182.0 370.4,182.0 371.7,182.0 373.1,182.0 374.4,182.0 375.7,182.0 377.0,182.0 L377.0,182.0 Z" fill="#4a90d9" fill-opacity="0.06"/>
  <polyline points="42.0,182.0 43.3,182.0 44.6,182.0 45.9,182.0 47.3,182.0 48.6,182.0 49.9,182.0 51.2,182.0 52.5,182.0 53.8,182.0 55.1,182.0 56.5,182.0 57.8,182.0 59.1,182.0 60.4,182.0 61.7,182.0 63.0,182.0 64.3,182.0 65.6,182.0 67.0,182.0 68.3,182.0 69.6,182.0 70.9,182.0 72.2,182.0 73.5,182.0 74.8,182.0 76.2,182.0 77.5,182.0 78.8,182.0 80.1,182.0 81.4,182.0 82.7,182.0 84.0,182.0 85.4,182.0 86.7,182.0 88.0,182.0 89.3,182.0 90.6,182.0 91.9,182.0 93.2,182.0 94.5,182.0 95.9,182.0 97.2,182.0 98.5,182.0 99.8,182.0 101.1,182.0 102.4,182.0 103.7,182.0 105.1,182.0 106.4,182.0 107.7,182.0 109.0,182.0 110.3,182.0 111.6,182.0 112.9,182.0 114.3,182.0 115.6,182.0 116.9,182.0 118.2,182.0 119.5,181.9 120.8,179.8 122.1,177.6 123.5,175.3 124.8,173.0 126.1,170.6 127.4,168.1 128.7,165.6 130.0,163.0 131.3,160.4 132.6,157.6 134.0,154.8 135.3,152.0 136.6,149.1 137.9,146.1 139.2,143.1 140.5,140.1 141.8,137.0 143.2,133.8 144.5,130.6 145.8,127.4 147.1,124.1 148.4,120.8 149.7,117.5 151.0,114.1 152.4,110.7 153.7,107.3 155.0,103.9 156.3,100.5 157.6,97.0 158.9,93.6 160.2,90.2 161.5,86.7 162.9,83.3 164.2,79.9 165.5,76.6 166.8,73.2 168.1,69.9 169.4,66.7 170.7,63.4 172.1,60.2 173.4,57.1 174.7,54.0 176.0,51.0 177.3,48.1 178.6,45.2 179.9,42.4 181.3,39.7 182.6,37.1 183.9,34.5 185.2,32.1 186.5,29.7 187.8,27.5 189.1,25.3 190.5,23.3 191.8,21.4 193.1,19.6 194.4,17.9 195.7,16.4 197.0,14.9 198.3,13.6 199.6,12.5 201.0,11.4 202.3,10.5 203.6,9.8 204.9,9.1 206.2,8.6 207.5,8.3 208.8,8.1 210.2,8.0 211.5,8.1 212.8,8.3 214.1,8.6 215.4,9.1 216.7,9.8 218.0,10.5 219.4,11.4 220.7,12.5 222.0,13.6 223.3,14.9 224.6,16.4 225.9,17.9 227.2,19.6 228.5,21.4 229.9,23.3 231.2,25.3 232.5,27.5 233.8,29.7 235.1,32.1 236.4,34.5 237.7,37.1 239.1,39.7 240.4,42.4 241.7,45.2 243.0,48.1 244.3,51.0 245.6,54.0 246.9,57.1 248.3,60.2 249.6,63.4 250.9,66.7 252.2,69.9 253.5,73.2 254.8,76.6 256.1,79.9 257.5,83.3 258.8,86.7 260.1,90.2 261.4,93.6 262.7,97.0 264.0,100.5 265.3,103.9 266.6,107.3 268.0,110.7 269.3,114.1 270.6,117.5 271.9,120.8 273.2,124.1 274.5,127.4 275.8,130.6 277.2,133.8 278.5,137.0 279.8,140.1 281.1,143.1 282.4,146.1 283.7,149.1 285.0,152.0 286.4,154.8 287.7,157.6 289.0,160.4 290.3,163.0 291.6,165.6 292.9,168.1 294.2,170.6 295.5,173.0 296.9,175.3 298.2,177.6 299.5,179.8 300.8,181.9 302.1,182.0 303.4,182.0 304.7,182.0 306.1,182.0 307.4,182.0 308.7,182.0 310.0,182.0 311.3,182.0 312.6,182.0 313.9,182.0 315.3,182.0 316.6,182.0 317.9,182.0 319.2,182.0 320.5,182.0 321.8,182.0 323.1,182.0 324.5,182.0 325.8,182.0 327.1,182.0 328.4,182.0 329.7,182.0 331.0,182.0 332.3,182.0 333.6,182.0 335.0,182.0 336.3,182.0 337.6,182.0 338.9,182.0 340.2,182.0 341.5,182.0 342.8,182.0 344.2,182.0 345.5,182.0 346.8,182.0 348.1,182.0 349.4,182.0 350.7,182.0 352.0,182.0 353.4,182.0 354.7,182.0 356.0,182.0 357.3,182.0 358.6,182.0 359.9,182.0 361.2,182.0 362.5,182.0 363.9,182.0 365.2,182.0 366.5,182.0 367.8,182.0 369.1,182.0 370.4,182.0 371.7,182.0 373.1,182.0 374.4,182.0 375.7,182.0 377.0,182.0" fill="none" stroke="#4a90d9" stroke-width="1.5" stroke-linejoin="round"/>
  <line x1="450" y1="8.0" x2="785" y2="8.0" stroke="#e5e7eb" stroke-width="0.7"/>
  <text x="445" y="12.0" text-anchor="end" font-size="10" fill="#6b7280">0</text>
  <line x1="450" y1="66.0" x2="785" y2="66.0" stroke="#e5e7eb" stroke-width="0.7"/>
  <text x="445" y="70.0" text-anchor="end" font-size="10" fill="#6b7280">-40</text>
  <line x1="450" y1="124.0" x2="785" y2="124.0" stroke="#e5e7eb" stroke-width="0.7"/>
  <text x="445" y="128.0" text-anchor="end" font-size="10" fill="#6b7280">-80</text>
  <line x1="450" y1="182.0" x2="785" y2="182.0" stroke="#e5e7eb" stroke-width="0.7"/>
  <text x="445" y="186.0" text-anchor="end" font-size="10" fill="#6b7280">-120</text>
  <line x1="450.0" y1="8" x2="450.0" y2="182" stroke="#e5e7eb" stroke-width="0.7"/>
  <text x="450.0" y="198" text-anchor="middle" font-size="10" fill="#6b7280">0</text>
  <line x1="517.0" y1="8" x2="517.0" y2="182" stroke="#e5e7eb" stroke-width="0.7"/>
  <text x="517.0" y="198" text-anchor="middle" font-size="10" fill="#6b7280">0.1</text>
  <line x1="584.0" y1="8" x2="584.0" y2="182" stroke="#e5e7eb" stroke-width="0.7"/>
  <text x="584.0" y="198" text-anchor="middle" font-size="10" fill="#6b7280">0.2</text>
  <line x1="651.0" y1="8" x2="651.0" y2="182" stroke="#e5e7eb" stroke-width="0.7"/>
  <text x="651.0" y="198" text-anchor="middle" font-size="10" fill="#6b7280">0.3</text>
  <line x1="718.0" y1="8" x2="718.0" y2="182" stroke="#e5e7eb" stroke-width="0.7"/>
  <text x="718.0" y="198" text-anchor="middle" font-size="10" fill="#6b7280">0.4</text>
  <line x1="785.0" y1="8" x2="785.0" y2="182" stroke="#e5e7eb" stroke-width="0.7"/>
  <text x="785.0" y="198" text-anchor="middle" font-size="10" fill="#6b7280">0.5</text>
  <line x1="450" y1="8" x2="450" y2="182" stroke="#d1d5db" stroke-width="1"/>
  <line x1="450" y1="182" x2="785" y2="182" stroke="#d1d5db" stroke-width="1"/>
  <polyline points="450.0,11.6 450.2,11.6 450.3,11.4 450.5,11.3 450.7,11.0 450.8,10.7 451.0,10.3 451.1,10.0 451.3,9.6 451.5,9.3 451.6,8.9 451.8,8.6 452.0,8.4 452.1,8.2 452.3,8.1 452.5,8.0 452.6,8.0 452.8,8.1 452.9,8.3 453.1,8.6 453.3,9.0 453.4,9.5 453.6,10.1 453.8,10.8 453.9,11.7 454.1,12.7 454.3,13.8 454.4,15.1 454.6,16.6 454.7,18.2 454.9,20.1 455.1,22.2 455.2,24.6 455.4,27.4 455.6,30.6 455.7,34.4 455.9,39.0 456.1,44.9 456.2,53.3 456.4,69.7 456.5,68.3 456.7,59.0 456.9,56.2 457.0,56.1 457.2,58.2 457.4,63.6 457.5,79.6 457.7,70.2 457.9,58.4 458.0,52.3 458.2,48.4 458.3,45.7 458.5,43.8 458.7,42.5 458.8,41.7 459.0,41.4 459.2,41.5 459.3,42.1 459.5,43.1 459.7,44.7 459.8,47.0 460.0,50.2 460.1,55.2 460.3,63.9 460.5,182.0 460.6,64.3 460.8,56.0 461.0,51.5 461.1,48.6 461.3,46.8 461.5,45.6 461.6,45.0 461.8,45.0 461.9,45.4 462.1,46.3 462.3,47.8 462.4,50.0 462.6,53.2 462.8,58.1 462.9,66.7 463.1,182.0 463.3,67.0 463.4,58.7 463.6,54.1 463.7,51.3 463.9,49.4 464.1,48.2 464.2,47.6 464.4,47.5 464.6,47.9 464.7,48.8 464.9,50.2 465.1,52.4 465.2,55.6 465.4,60.4 465.5,69.0 465.7,182.0 465.9,69.3 466.0,60.9 466.2,56.4 466.4,53.5 466.5,51.5 466.7,50.3 466.9,49.7 467.0,49.6 467.2,49.9 467.3,50.8 467.5,52.3 467.7,54.4 467.8,57.6 468.0,62.4 468.2,71.0 468.3,182.0 468.5,71.2 468.7,62.8 468.8,58.2 469.0,55.3 469.1,53.4 469.3,52.2 469.5,51.5 469.6,51.4 469.8,51.7 470.0,52.6 470.1,54.0 470.3,56.2 470.5,59.3 470.6,64.1 470.8,72.7 470.9,182.0 471.1,72.9 471.3,64.5 471.4,59.9 471.6,56.9 471.8,55.0 471.9,53.8 472.1,53.1 472.3,53.0 472.4,53.3 472.6,54.1 472.7,55.6 472.9,57.7 473.1,60.8 473.2,65.6 473.4,74.2 473.6,182.0 473.7,74.3 473.9,65.9 474.1,61.3 474.2,58.4 474.4,56.4 474.5,55.2 474.7,54.5 474.9,54.4 475.0,54.7 475.2,55.5 475.4,56.9 475.5,59.0 475.7,62.2 475.9,66.9 476.0,75.5 476.2,182.0 476.3,75.7 476.5,67.3 476.7,62.6 476.8,59.7 477.0,57.7 477.2,56.5 477.3,55.8 477.5,55.6 477.7,55.9 477.8,56.8 478.0,58.2 478.1,60.3 478.3,63.4 478.5,68.2 478.6,76.7 478.8,182.0 479.0,76.9 479.1,68.4 479.3,63.8 479.5,60.8 479.6,58.9 479.8,57.6 479.9,56.9 480.1,56.8 480.3,57.1 480.4,57.9 480.6,59.3 480.8,61.4 480.9,64.5 481.1,69.3 481.3,77.8 481.4,182.0 481.6,77.9 481.7,69.5 481.9,64.9 482.1,61.9 482.2,59.9 482.4,58.7 482.6,58.0 482.7,57.8 482.9,58.1 483.1,58.9 483.2,60.3 483.4,62.4 483.5,65.5 483.7,70.3 483.9,78.8 484.0,182.0 484.2,78.9 484.4,70.5 484.5,65.9 484.7,62.9 484.9,60.9 485.0,59.6 485.2,59.0 485.3,58.8 485.5,59.1 485.7,59.9 485.8,61.3 486.0,63.4 486.2,66.5 486.3,71.2 486.5,79.7 486.7,182.0 486.8,79.9 487.0,71.4 487.1,66.8 487.3,63.8 487.5,61.8 487.6,60.5 487.8,59.8 488.0,59.7 488.1,60.0 488.3,60.8 488.5,62.1 488.6,64.2 488.8,67.3 488.9,72.1 489.1,80.6 489.3,182.0 489.4,80.7 489.6,72.3 489.8,67.6 489.9,64.7 490.1,62.7 490.3,61.4 490.4,60.7 490.6,60.5 490.7,60.8 490.9,61.6 491.1,63.0 491.2,65.1 491.4,68.1 491.6,72.9 491.7,81.4 491.9,182.0 492.1,81.5 492.2,73.1 492.4,68.4 492.6,65.4 492.7,63.5 492.9,62.2 493.0,61.5 493.2,61.3 493.4,61.6 493.5,62.4 493.7,63.7 493.9,65.8 494.0,68.9 494.2,73.6 494.4,82.2 494.5,182.0 494.7,82.3 494.8,73.8 495.0,69.2 495.2,66.2 495.3,64.2 495.5,62.9 495.7,62.2 495.8,62.0 496.0,62.3 496.2,63.1 496.3,64.5 496.5,66.5 496.6,69.6 496.8,74.4 497.0,82.9 497.1,182.0 497.3,83.0 497.5,74.5 497.6,69.9 497.8,66.9 498.0,64.9 498.1,63.6 498.3,62.9 498.4,62.7 498.6,63.0 498.8,63.8 498.9,65.1 499.1,67.2 499.3,70.3 499.4,75.0 499.6,83.6 499.8,182.0 499.9,83.6 500.1,75.2 500.2,70.5 500.4,67.5 500.6,65.5 500.7,64.3 500.9,63.5 501.1,63.3 501.2,63.6 501.4,64.4 501.6,65.8 501.7,67.9 501.9,70.9 502.0,75.7 502.2,84.2 502.4,182.0 502.5,84.3 502.7,75.8 502.9,71.2 503.0,68.2 503.2,66.2 503.4,64.9 503.5,64.2 503.7,64.0 503.8,64.2 504.0,65.0 504.2,66.4 504.3,68.5 504.5,71.5 504.7,76.3 504.8,84.8 505.0,182.0 505.2,84.9 505.3,76.4 505.5,71.8 505.6,68.8 505.8,66.8 506.0,65.5 506.1,64.8 506.3,64.5 506.5,64.8 506.6,65.6 506.8,67.0 507.0,69.1 507.1,72.1 507.3,76.9 507.4,85.4 507.6,182.0 507.8,85.4 507.9,77.0 508.1,72.3 508.3,69.3 508.4,67.3 508.6,66.0 508.8,65.3 508.9,65.1 509.1,65.4 509.2,66.2 509.4,67.5 509.6,69.6 509.7,72.7 509.9,77.4 510.1,85.9 510.2,182.0 510.4,86.0 510.6,77.5 510.7,72.9 510.9,69.9 511.0,67.9 511.2,66.6 511.4,65.9 511.5,65.6 511.7,65.9 511.9,66.7 512.0,68.1 512.2,70.1 512.4,73.2 512.5,77.9 512.7,86.4 512.8,182.0 513.0,86.5 513.2,78.1 513.3,73.4 513.5,70.4 513.7,68.4 513.8,67.1 514.0,66.4 514.2,66.1 514.3,66.4 514.5,67.2 514.6,68.6 514.8,70.6 515.0,73.7 515.1,78.4 515.3,86.9 515.5,182.0 515.6,87.0 515.8,78.6 516.0,73.9 516.1,70.9 516.3,68.9 516.4,67.6 516.6,66.9 516.8,66.6 516.9,66.9 517.1,67.7 517.3,69.1 517.4,71.1 517.6,74.2 517.8,78.9 517.9,87.4 518.1,182.0 518.2,87.5 518.4,79.0 518.6,74.4 518.7,71.4 518.9,69.3 519.1,68.0 519.2,67.3 519.4,67.1 519.6,67.4 519.7,68.2 519.9,69.5 520.0,71.6 520.2,74.7 520.4,79.4 520.5,87.9 520.7,182.0 520.9,87.9 521.0,79.5 521.2,74.8 521.4,71.8 521.5,69.8 521.7,68.5 521.8,67.8 522.0,67.6 522.2,67.8 522.3,68.6 522.5,70.0 522.7,72.0 522.8,75.1 523.0,79.8 523.2,88.3 523.3,182.0 523.5,88.4 523.6,79.9 523.8,75.3 524.0,72.2 524.1,70.2 524.3,68.9 524.5,68.2 524.6,68.0 524.8,68.3 525.0,69.0 525.1,70.4 525.3,72.5 525.4,75.5 525.6,80.2 525.8,88.8 525.9,182.0 526.1,88.8 526.3,80.3 526.4,75.7 526.6,72.7 526.8,70.7 526.9,69.4 527.1,68.6 527.2,68.4 527.4,68.7 527.6,69.5 527.7,70.8 527.9,72.9 528.1,75.9 528.2,80.7 528.4,89.2 528.6,182.0 528.7,89.2 528.9,80.8 529.0,76.1 529.2,73.1 529.4,71.1 529.5,69.8 529.7,69.0 529.9,68.8 530.0,69.1 530.2,69.9 530.4,71.2 530.5,73.3 530.7,76.3 530.8,81.0 531.0,89.6 531.2,182.0 531.3,89.6 531.5,81.1 531.7,76.5 531.8,73.5 532.0,71.4 532.2,70.1 532.3,69.4 532.5,69.2 532.6,69.5 532.8,70.2 533.0,71.6 533.1,73.7 533.3,76.7 533.5,81.4 533.6,89.9 533.8,182.0 534.0,90.0 534.1,81.5 534.3,76.9 534.4,73.8 534.6,71.8 534.8,70.5 534.9,69.8 535.1,69.6 535.3,69.8 535.4,70.6 535.6,72.0 535.8,74.0 535.9,77.1 536.1,81.8 536.2,90.3 536.4,182.0 536.6,90.4 536.7,81.9 536.9,77.2 537.1,74.2 537.2,72.2 537.4,70.9 537.6,70.1 537.7,69.9 537.9,70.2 538.0,71.0 538.2,72.3 538.4,74.4 538.5,77.4 538.7,82.2 538.9,90.7 539.0,182.0 539.2,90.7 539.4,82.2 539.5,77.6 539.7,74.6 539.8,72.5 540.0,71.2 540.2,70.5 540.3,70.3 540.5,70.5 540.7,71.3 540.8,72.7 541.0,74.7 541.2,77.8 541.3,82.5 541.5,91.0 541.6,182.0 541.8,91.0 542.0,82.6 542.1,77.9 542.3,74.9 542.5,72.9 542.6,71.6 542.8,70.8 543.0,70.6 543.1,70.9 543.3,71.7 543.4,73.0 543.6,75.1 543.8,78.1 543.9,82.8 544.1,91.3 544.3,182.0 544.4,91.4 544.6,82.9 544.8,78.2 544.9,75.2 545.1,73.2 545.2,71.9 545.4,71.2 545.6,70.9 545.7,71.2 545.9,72.0 546.1,73.3 546.2,75.4 546.4,78.4 546.6,83.2 546.7,91.7 546.9,182.0 547.0,91.7 547.2,83.2 547.4,78.6 547.5,75.5 547.7,73.5 547.9,72.2 548.0,71.5 548.2,71.3 548.4,71.5 548.5,72.3 548.7,73.6 548.8,75.7 549.0,78.8 549.2,83.5 549.3,92.0 549.5,182.0 549.7,92.0 549.8,83.5 550.0,78.9 550.2,75.9 550.3,73.8 550.5,72.5 550.6,71.8 550.8,71.6 551.0,71.8 551.1,72.6 551.3,73.9 551.5,76.0 551.6,79.1 551.8,83.8 552.0,92.3 552.1,182.0 552.3,92.3 552.4,83.8 552.6,79.2 552.8,76.2 552.9,74.1 553.1,72.8 553.3,72.1 553.4,71.9 553.6,72.1 553.8,72.9 553.9,74.2 554.1,76.3 554.2,79.4 554.4,84.1 554.6,92.6 554.7,182.0 554.9,92.6 555.1,84.1 555.2,79.5 555.4,76.4 555.6,74.4 555.7,73.1 555.9,72.4 556.0,72.2 556.2,72.4 556.4,73.2 556.5,74.5 556.7,76.6 556.9,79.6 557.0,84.4 557.2,92.9 557.4,182.0 557.5,92.9 557.7,84.4 557.8,79.7 558.0,76.7 558.2,74.7 558.3,73.4 558.5,72.7 558.7,72.4 558.8,72.7 559.0,73.5 559.2,74.8 559.3,76.9 559.5,79.9 559.6,84.6 559.8,93.1 560.0,182.0 560.1,93.2 560.3,84.7 560.5,80.0 560.6,77.0 560.8,75.0 561.0,73.7 561.1,72.9 561.3,72.7 561.4,73.0 561.6,73.7 561.8,75.1 561.9,77.1 562.1,80.2 562.3,84.9 562.4,93.4 562.6,182.0 562.8,93.4 562.9,85.0 563.1,80.3 563.2,77.3 563.4,75.2 563.6,73.9 563.7,73.2 563.9,73.0 564.1,73.2 564.2,74.0 564.4,75.3 564.6,77.4 564.7,80.5 564.9,85.2 565.0,93.7 565.2,182.0 565.4,93.7 565.5,85.2 565.7,80.6 565.9,77.5 566.0,75.5 566.2,74.2 566.4,73.5 566.5,73.2 566.7,73.5 566.8,74.3 567.0,75.6 567.2,77.7 567.3,80.7 567.5,85.4 567.7,93.9 567.8,182.0 568.0,94.0 568.2,85.5 568.3,80.8 568.5,77.8 568.6,75.8 568.8,74.4 569.0,73.7 569.1,73.5 569.3,73.7 569.5,74.5 569.6,75.8 569.8,77.9 570.0,81.0 570.1,85.7 570.3,94.2 570.4,182.0 570.6,94.2 570.8,85.7 570.9,81.1 571.1,78.0 571.3,76.0 571.4,74.7 571.6,74.0 571.8,73.7 571.9,74.0 572.1,74.8 572.2,76.1 572.4,78.1 572.6,81.2 572.7,85.9 572.9,94.4 573.1,182.0 573.2,94.4 573.4,86.0 573.6,81.3 573.7,78.3 573.9,76.2 574.0,74.9 574.2,74.2 574.4,74.0 574.5,74.2 574.7,75.0 574.9,76.3 575.0,78.4 575.2,81.4 575.4,86.1 575.5,94.6 575.7,182.0 575.9,94.7 576.0,86.2 576.2,81.5 576.3,78.5 576.5,76.5 576.7,75.2 576.8,74.4 577.0,74.2 577.2,74.5 577.3,75.2 577.5,76.6 577.7,78.6 577.8,81.7 578.0,86.4 578.1,94.9 578.3,182.0 578.5,94.9 578.6,86.4 578.8,81.8 579.0,78.7 579.1,76.7 579.3,75.4 579.5,74.6 579.6,74.4 579.8,74.7 579.9,75.4 580.1,76.8 580.3,78.8 580.4,81.9 580.6,86.6 580.8,95.1 580.9,182.0 581.1,95.1 581.3,86.7 581.4,82.0 581.6,78.9 581.7,76.9 581.9,75.6 582.1,74.9 582.2,74.6 582.4,74.9 582.6,75.7 582.7,77.0 582.9,79.1 583.1,82.1 583.2,86.8 583.4,95.3 583.5,182.0 583.7,95.3 583.9,86.9 584.0,82.2 584.2,79.2 584.4,77.1 584.5,75.8 584.7,75.1 584.9,74.9 585.0,75.1 585.2,75.9 585.3,77.2 585.5,79.3 585.7,82.3 585.8,87.0 586.0,95.5 586.2,182.0 586.3,95.6 586.5,87.1 586.7,82.4 586.8,79.4 587.0,77.3 587.1,76.0 587.3,75.3 587.5,75.1 587.6,75.3 587.8,76.1 588.0,77.4 588.1,79.5 588.3,82.5 588.5,87.2 588.6,95.7 588.8,182.0 588.9,95.8 589.1,87.3 589.3,82.6 589.4,79.6 589.6,77.5 589.8,76.2 589.9,75.5 590.1,75.3 590.3,75.5 590.4,76.3 590.6,77.6 590.7,79.7 590.9,82.7 591.1,87.4 591.2,95.9 591.4,182.0 591.6,96.0 591.7,87.5 591.9,82.8 592.1,79.8 592.2,77.7 592.4,76.4 592.5,75.7 592.7,75.5 592.9,75.7 593.0,76.5 593.2,77.8 593.4,79.9 593.5,82.9 593.7,87.6 593.9,96.1 594.0,182.0 594.2,96.2 594.3,87.7 594.5,83.0 594.7,80.0 594.8,77.9 595.0,76.6 595.2,75.9 595.3,75.7 595.5,75.9 595.7,76.7 595.8,78.0 596.0,80.1 596.1,83.1 596.3,87.8 596.5,96.3 596.6,182.0 596.8,96.3 597.0,87.9 597.1,83.2 597.3,80.2 597.5,78.1 597.6,76.8 597.8,76.1 597.9,75.8 598.1,76.1 598.3,76.9 598.4,78.2 598.6,80.3 598.8,83.3 598.9,88.0 599.1,96.5 599.3,182.0 599.4,96.5 599.6,88.1 599.7,83.4 599.9,80.3 600.1,78.3 600.2,77.0 600.4,76.3 600.6,76.0 600.7,76.3 600.9,77.0 601.1,78.4 601.2,80.4 601.4,83.5 601.5,88.2 601.7,96.7 601.9,182.0 602.0,96.7 602.2,88.2 602.4,83.6 602.5,80.5 602.7,78.5 602.9,77.2 603.0,76.4 603.2,76.2 603.3,76.5 603.5,77.2 603.7,78.6 603.8,80.6 604.0,83.7 604.2,88.4 604.3,96.9 604.5,182.0 604.7,96.9 604.8,88.4 605.0,83.7 605.1,80.7 605.3,78.7 605.5,77.4 605.6,76.6 605.8,76.4 606.0,76.6 606.1,77.4 606.3,78.7 606.5,80.8 606.6,83.8 606.8,88.5 606.9,97.0 607.1,182.0 607.3,97.1 607.4,88.6 607.6,83.9 607.8,80.9 607.9,78.8 608.1,77.5 608.3,76.8 608.4,76.6 608.6,76.8 608.7,77.6 608.9,78.9 609.1,81.0 609.2,84.0 609.4,88.7 609.6,97.2 609.7,182.0 609.9,97.2 610.1,88.8 610.2,84.1 610.4,81.0 610.5,79.0 610.7,77.7 610.9,77.0 611.0,76.7 611.2,77.0 611.4,77.7 611.5,79.1 611.7,81.1 611.9,84.2 612.0,88.9 612.2,97.4 612.3,182.0 612.5,97.4 612.7,88.9 612.8,84.2 613.0,81.2 613.2,79.2 613.3,77.9 613.5,77.1 613.7,76.9 613.8,77.1 614.0,77.9 614.1,79.2 614.3,81.3 614.5,84.3 614.6,89.0 614.8,97.5 615.0,182.0 615.1,97.6 615.3,89.1 615.5,84.4 615.6,81.4 615.8,79.3 615.9,78.0 616.1,77.3 616.3,77.0 616.4,77.3 616.6,78.1 616.8,79.4 616.9,81.4 617.1,84.5 617.3,89.2 617.4,97.7 617.6,182.0 617.7,97.7 617.9,89.2 618.1,84.5 618.2,81.5 618.4,79.5 618.6,78.2 618.7,77.4 618.9,77.2 619.1,77.4 619.2,78.2 619.4,79.5 619.5,81.6 619.7,84.6 619.9,89.3 620.0,97.8 620.2,182.0 620.4,97.9 620.5,89.4 620.7,84.7 620.9,81.7 621.0,79.6 621.2,78.3 621.3,77.6 621.5,77.3 621.7,77.6 621.8,78.4 622.0,79.7 622.2,81.7 622.3,84.8 622.5,89.5 622.7,98.0 622.8,182.0 623.0,98.0 623.1,89.5 623.3,84.8 623.5,81.8 623.6,79.8 623.8,78.5 624.0,77.7 624.1,77.5 624.3,77.7 624.5,78.5 624.6,79.8 624.8,81.9 624.9,84.9 625.1,89.6 625.3,98.1 625.4,182.0 625.6,98.2 625.8,89.7 625.9,85.0 626.1,82.0 626.3,79.9 626.4,78.6 626.6,77.9 626.7,77.6 626.9,77.9 627.1,78.6 627.2,80.0 627.4,82.0 627.6,85.1 627.7,89.8 627.9,98.3 628.1,182.0 628.2,98.3 628.4,89.8 628.5,85.1 628.7,82.1 628.9,80.1 629.0,78.8 629.2,78.0 629.4,77.8 629.5,78.0 629.7,78.8 629.9,80.1 630.0,82.2 630.2,85.2 630.3,89.9 630.5,98.4 630.7,182.0 630.8,98.4 631.0,90.0 631.2,85.3 631.3,82.2 631.5,80.2 631.7,78.9 631.8,78.1 632.0,77.9 632.1,78.2 632.3,78.9 632.5,80.3 632.6,82.3 632.8,85.4 633.0,90.1 633.1,98.6 633.3,182.0 633.5,98.6 633.6,90.1 633.8,85.4 633.9,82.4 634.1,80.3 634.3,79.0 634.4,78.3 634.6,78.0 634.8,78.3 634.9,79.1 635.1,80.4 635.3,82.4 635.4,85.5 635.6,90.2 635.7,98.7 635.9,182.0 636.1,98.7 636.2,90.2 636.4,85.5 636.6,82.5 636.7,80.5 636.9,79.2 637.1,78.4 637.2,78.2 637.4,78.4 637.5,79.2 637.7,80.5 637.9,82.6 638.0,85.6 638.2,90.3 638.4,98.8 638.5,182.0 638.7,98.8 638.9,90.4 639.0,85.7 639.2,82.6 639.3,80.6 639.5,79.3 639.7,78.5 639.8,78.3 640.0,78.6 640.2,79.3 640.3,80.6 640.5,82.7 640.7,85.7 640.8,90.4 641.0,98.9 641.1,182.0 641.3,99.0 641.5,90.5 641.6,85.8 641.8,82.8 642.0,80.7 642.1,79.4 642.3,78.7 642.5,78.4 642.6,78.7 642.8,79.4 642.9,80.8 643.1,82.8 643.3,85.9 643.4,90.6 643.6,99.1 643.8,182.0 643.9,99.1 644.1,90.6 644.3,85.9 644.4,82.9 644.6,80.8 644.7,79.5 644.9,78.8 645.1,78.5 645.2,78.8 645.4,79.6 645.6,80.9 645.7,82.9 645.9,86.0 646.1,90.7 646.2,99.2 646.4,182.0 646.5,99.2 646.7,90.7 646.9,86.0 647.0,83.0 647.2,81.0 647.4,79.6 647.5,78.9 647.7,78.7 647.9,78.9 648.0,79.7 648.2,81.0 648.3,83.1 648.5,86.1 648.7,90.8 648.8,99.3 649.0,182.0 649.2,99.3 649.3,90.8 649.5,86.1 649.7,83.1 649.8,81.1 650.0,79.8 650.1,79.0 650.3,78.8 650.5,79.0 650.6,79.8 650.8,81.1 651.0,83.2 651.1,86.2 651.3,90.9 651.5,99.4 651.6,182.0 651.8,99.4 651.9,90.9 652.1,86.3 652.3,83.2 652.4,81.2 652.6,79.9 652.8,79.1 652.9,78.9 653.1,79.1 653.3,79.9 653.4,81.2 653.6,83.3 653.7,86.3 653.9,91.0 654.1,99.5 654.2,182.0 654.4,99.5 654.6,91.1 654.7,86.4 654.9,83.3 655.1,81.3 655.2,80.0 655.4,79.2 655.5,79.0 655.7,79.2 655.9,80.0 656.0,81.3 656.2,83.4 656.4,86.4 656.5,91.1 656.7,99.6 656.9,182.0 657.0,99.6 657.2,91.2 657.3,86.5 657.5,83.4 657.7,81.4 657.8,80.1 658.0,79.3 658.2,79.1 658.3,79.4 658.5,80.1 658.7,81.4 658.8,83.5 659.0,86.5 659.1,91.2 659.3,99.7 659.5,182.0 659.6,99.7 659.8,91.3 660.0,86.6 660.1,83.5 660.3,81.5 660.5,80.2 660.6,79.4 660.8,79.2 661.0,79.5 661.1,80.2 661.3,81.6 661.4,83.6 661.6,86.6 661.8,91.3 661.9,99.8 662.1,182.0 662.3,99.8 662.4,91.4 662.6,86.7 662.8,83.6 662.9,81.6 663.1,80.3 663.2,79.5 663.4,79.3 663.6,79.6 663.7,80.3 663.9,81.7 664.1,83.7 664.2,86.7 664.4,91.4 664.6,99.9 664.7,182.0 664.9,99.9 665.0,91.5 665.2,86.8 665.4,83.7 665.5,81.7 665.7,80.4 665.9,79.6 666.0,79.4 666.2,79.7 666.4,80.4 666.5,81.7 666.7,83.8 666.8,86.8 667.0,91.5 667.2,100.0 667.3,182.0 667.5,100.0 667.7,91.6 667.8,86.9 668.0,83.8 668.2,81.8 668.3,80.5 668.5,79.7 668.6,79.5 668.8,79.8 669.0,80.5 669.1,81.8 669.3,83.9 669.5,86.9 669.6,91.6 669.8,100.1 670.0,182.0 670.1,100.1 670.3,91.7 670.4,87.0 670.6,83.9 670.8,81.9 670.9,80.6 671.1,79.8 671.3,79.6 671.4,79.8 671.6,80.6 671.8,81.9 671.9,84.0 672.1,87.0 672.2,91.7 672.4,100.2 672.6,182.0 672.7,100.2 672.9,91.7 673.1,87.1 673.2,84.0 673.4,82.0 673.6,80.7 673.7,79.9 673.9,79.7 674.0,79.9 674.2,80.7 674.4,82.0 674.5,84.1 674.7,87.1 674.9,91.8 675.0,100.3 675.2,182.0 675.4,100.3 675.5,91.8 675.7,87.1 675.8,84.1 676.0,82.1 676.2,80.8 676.3,80.0 676.5,79.8 676.7,80.0 676.8,80.8 677.0,82.1 677.2,84.2 677.3,87.2 677.5,91.9 677.6,100.4 677.8,182.0 678.0,100.4 678.1,91.9 678.3,87.2 678.5,84.2 678.6,82.2 678.8,80.8 679.0,80.1 679.1,79.9 679.3,80.1 679.4,80.9 679.6,82.2 679.8,84.2 679.9,87.3 680.1,92.0 680.3,100.5 680.4,182.0 680.6,100.5 680.8,92.0 680.9,87.3 681.1,84.3 681.2,82.2 681.4,80.9 681.6,80.2 681.7,79.9 681.9,80.2 682.1,80.9 682.2,82.3 682.4,84.3 682.6,87.4 682.7,92.1 682.9,100.6 683.0,182.0 683.2,100.6 683.4,92.1 683.5,87.4 683.7,84.4 683.9,82.3 684.0,81.0 684.2,80.3 684.4,80.0 684.5,80.3 684.7,81.0 684.8,82.4 685.0,84.4 685.2,87.4 685.3,92.1 685.5,100.6 685.7,182.0 685.8,100.6 686.0,92.2 686.2,87.5 686.3,84.4 686.5,82.4 686.6,81.1 686.8,80.3 687.0,80.1 687.1,80.3 687.3,81.1 687.5,82.4 687.6,84.5 687.8,87.5 688.0,92.2 688.1,100.7 688.3,182.0 688.4,100.7 688.6,92.2 688.8,87.6 688.9,84.5 689.1,82.5 689.3,81.2 689.4,80.4 689.6,80.2 689.8,80.4 689.9,81.2 690.1,82.5 690.2,84.6 690.4,87.6 690.6,92.3 690.7,100.8 690.9,182.0 691.1,100.8 691.2,92.3 691.4,87.6 691.6,84.6 691.7,82.6 691.9,81.2 692.0,80.5 692.2,80.2 692.4,80.5 692.5,81.3 692.7,82.6 692.9,84.6 693.0,87.7 693.2,92.4 693.4,100.9 693.5,182.0 693.7,100.9 693.8,92.4 694.0,87.7 694.2,84.7 694.3,82.6 694.5,81.3 694.7,80.6 694.8,80.3 695.0,80.6 695.2,81.3 695.3,82.7 695.5,84.7 695.6,87.7 695.8,92.4 696.0,100.9 696.1,182.0 696.3,100.9 696.5,92.5 696.6,87.8 696.8,84.7 697.0,82.7 697.1,81.4 697.3,80.6 697.4,80.4 697.6,80.6 697.8,81.4 697.9,82.7 698.1,84.8 698.3,87.8 698.4,92.5 698.6,101.0 698.8,182.0 698.9,101.0 699.1,92.5 699.2,87.8 699.4,84.8 699.6,82.8 699.7,81.4 699.9,80.7 700.1,80.5 700.2,80.7 700.4,81.5 700.6,82.8 700.7,84.8 700.9,87.9 701.0,92.6 701.2,101.1 701.4,182.0 701.5,101.1 701.7,92.6 701.9,87.9 702.0,84.9 702.2,82.8 702.4,81.5 702.5,80.8 702.7,80.5 702.8,80.8 703.0,81.5 703.2,82.9 703.3,84.9 703.5,87.9 703.7,92.6 703.8,101.1 704.0,182.0 704.2,101.1 704.3,92.7 704.5,88.0 704.6,84.9 704.8,82.9 705.0,81.6 705.1,80.8 705.3,80.6 705.5,80.8 705.6,81.6 705.8,82.9 706.0,85.0 706.1,88.0 706.3,92.7 706.4,101.2 706.6,182.0 706.8,101.2 706.9,92.7 707.1,88.0 707.3,85.0 707.4,83.0 707.6,81.6 707.8,80.9 707.9,80.6 708.1,80.9 708.2,81.6 708.4,83.0 708.6,85.0 708.7,88.1 708.9,92.8 709.1,101.2 709.2,182.0 709.4,101.3 709.6,92.8 709.7,88.1 709.9,85.0 710.0,83.0 710.2,81.7 710.4,80.9 710.5,80.7 710.7,80.9 710.9,81.7 711.0,83.0 711.2,85.1 711.4,88.1 711.5,92.8 711.7,101.3 711.8,182.0 712.0,101.3 712.2,92.8 712.3,88.1 712.5,85.1 712.7,83.1 712.8,81.7 713.0,81.0 713.2,80.7 713.3,81.0 713.5,81.8 713.6,83.1 713.8,85.1 714.0,88.2 714.1,92.9 714.3,101.4 714.5,182.0 714.6,101.4 714.8,92.9 715.0,88.2 715.1,85.2 715.3,83.1 715.4,81.8 715.6,81.0 715.8,80.8 715.9,81.1 716.1,81.8 716.3,83.1 716.4,85.2 716.6,88.2 716.8,92.9 716.9,101.4 717.1,182.0 717.2,101.4 717.4,92.9 717.6,88.2 717.7,85.2 717.9,83.2 718.1,81.8 718.2,81.1 718.4,80.9 718.6,81.1 718.7,81.9 718.9,83.2 719.0,85.2 719.2,88.3 719.4,93.0 719.5,101.5 719.7,182.0 719.9,101.5 720.0,93.0 720.2,88.3 720.4,85.3 720.5,83.2 720.7,81.9 720.8,81.1 721.0,80.9 721.2,81.2 721.3,81.9 721.5,83.2 721.7,85.3 721.8,88.3 722.0,93.0 722.2,101.5 722.3,182.0 722.5,101.5 722.6,93.0 722.8,88.3 723.0,85.3 723.1,83.3 723.3,81.9 723.5,81.2 723.6,80.9 723.8,81.2 724.0,82.0 724.1,83.3 724.3,85.3 724.4,88.4 724.6,93.1 724.8,101.6 724.9,182.0 725.1,101.6 725.3,93.1 725.4,88.4 725.6,85.3 725.8,83.3 725.9,82.0 726.1,81.2 726.2,81.0 726.4,81.2 726.6,82.0 726.7,83.3 726.9,85.4 727.1,88.4 727.2,93.1 727.4,101.6 727.6,182.0 727.7,101.6 727.9,93.1 728.0,88.4 728.2,85.4 728.4,83.4 728.5,82.0 728.7,81.3 728.9,81.0 729.0,81.3 729.2,82.0 729.4,83.4 729.5,85.4 729.7,88.5 729.8,93.2 730.0,101.6 730.2,182.0 730.3,101.6 730.5,93.2 730.7,88.5 730.8,85.4 731.0,83.4 731.2,82.1 731.3,81.3 731.5,81.1 731.6,81.3 731.8,82.1 732.0,83.4 732.1,85.5 732.3,88.5 732.5,93.2 732.6,101.7 732.8,182.0 733.0,101.7 733.1,93.2 733.3,88.5 733.4,85.5 733.6,83.4 733.8,82.1 733.9,81.4 734.1,81.1 734.3,81.4 734.4,82.1 734.6,83.4 734.8,85.5 734.9,88.5 735.1,93.2 735.2,101.7 735.4,182.0 735.6,101.7 735.7,93.2 735.9,88.5 736.1,85.5 736.2,83.5 736.4,82.1 736.6,81.4 736.7,81.2 736.9,81.4 737.0,82.2 737.2,83.5 737.4,85.5 737.5,88.6 737.7,93.3 737.9,101.8 738.0,182.0 738.2,101.8 738.4,93.3 738.5,88.6 738.7,85.5 738.8,83.5 739.0,82.2 739.2,81.4 739.3,81.2 739.5,81.4 739.7,82.2 739.8,83.5 740.0,85.6 740.2,88.6 740.3,93.3 740.5,101.8 740.6,182.0 740.8,101.8 741.0,93.3 741.1,88.6 741.3,85.6 741.5,83.5 741.6,82.2 741.8,81.5 742.0,81.2 742.1,81.5 742.3,82.2 742.4,83.6 742.6,85.6 742.8,88.6 742.9,93.3 743.1,101.8 743.3,182.0 743.4,101.8 743.6,93.3 743.8,88.6 743.9,85.6 744.1,83.6 744.3,82.2 744.4,81.5 744.6,81.3 744.7,81.5 744.9,82.3 745.1,83.6 745.2,85.6 745.4,88.7 745.6,93.4 745.7,101.8 745.9,182.0 746.1,101.9 746.2,93.4 746.4,88.7 746.5,85.6 746.7,83.6 746.9,82.3 747.0,81.5 747.2,81.3 747.4,81.5 747.5,82.3 747.7,83.6 747.9,85.7 748.0,88.7 748.2,93.4 748.3,101.9 748.5,182.0 748.7,101.9 748.8,93.4 749.0,88.7 749.2,85.7 749.3,83.6 749.5,82.3 749.7,81.6 749.8,81.3 750.0,81.6 750.1,82.3 750.3,83.6 750.5,85.7 750.6,88.7 750.8,93.4 751.0,101.9 751.1,182.0 751.3,101.9 751.5,93.4 751.6,88.7 751.8,85.7 751.9,83.7 752.1,82.3 752.3,81.6 752.4,81.3 752.6,81.6 752.8,82.3 752.9,83.7 753.1,85.7 753.3,88.7 753.4,93.4 753.6,101.9 753.7,182.0 753.9,101.9 754.1,93.4 754.2,88.8 754.4,85.7 754.6,83.7 754.7,82.3 754.9,81.6 755.1,81.4 755.2,81.6 755.4,82.4 755.5,83.7 755.7,85.7 755.9,88.8 756.0,93.5 756.2,101.9 756.4,182.0 756.5,102.0 756.7,93.5 756.9,88.8 757.0,85.7 757.2,83.7 757.3,82.4 757.5,81.6 757.7,81.4 757.8,81.6 758.0,82.4 758.2,83.7 758.3,85.7 758.5,88.8 758.7,93.5 758.8,102.0 759.0,182.0 759.1,102.0 759.3,93.5 759.5,88.8 759.6,85.8 759.8,83.7 760.0,82.4 760.1,81.6 760.3,81.4 760.5,81.6 760.6,82.4 760.8,83.7 760.9,85.8 761.1,88.8 761.3,93.5 761.4,102.0 761.6,182.0 761.8,102.0 761.9,93.5 762.1,88.8 762.3,85.8 762.4,83.7 762.6,82.4 762.7,81.7 762.9,81.4 763.1,81.7 763.2,82.4 763.4,83.7 763.6,85.8 763.7,88.8 763.9,93.5 764.1,102.0 764.2,182.0 764.4,102.0 764.5,93.5 764.7,88.8 764.9,85.8 765.0,83.7 765.2,82.4 765.4,81.7 765.5,81.4 765.7,81.7 765.9,82.4 766.0,83.8 766.2,85.8 766.3,88.8 766.5,93.5 766.7,102.0 766.8,182.0 767.0,102.0 767.2,93.5 767.3,88.8 767.5,85.8 767.7,83.8 767.8,82.4 768.0,81.7 768.1,81.4 768.3,81.7 768.5,82.4 768.6,83.8 768.8,85.8 769.0,88.8 769.1,93.5 769.3,102.0 769.5,182.0 769.6,102.0 769.8,93.5 769.9,88.9 770.1,85.8 770.3,83.8 770.4,82.4 770.6,81.7 770.8,81.5 770.9,81.7 771.1,82.5 771.3,83.8 771.4,85.8 771.6,88.9 771.7,93.6 771.9,102.0 772.1,182.0 772.2,102.0 772.4,93.6 772.6,88.9 772.7,85.8 772.9,83.8 773.1,82.5 773.2,81.7 773.4,81.5 773.5,81.7 773.7,82.5 773.9,83.8 774.0,85.8 774.2,88.9 774.4,93.6 774.5,102.0 774.7,182.0 774.9,102.0 775.0,93.6 775.2,88.9 775.3,85.8 775.5,83.8 775.7,82.5 775.8,81.7 776.0,81.5 776.2,81.7 776.3,82.5 776.5,83.8 776.7,85.8 776.8,88.9 777.0,93.6 777.1,102.1 777.3,182.0 777.5,102.1 777.6,93.6 777.8,88.9 778.0,85.8 778.1,83.8 778.3,82.5 778.5,81.7 778.6,81.5 778.8,81.7 778.9,82.5 779.1,83.8 779.3,85.8 779.4,88.9 779.6,93.6 779.8,102.1 779.9,182.0 780.1,102.1 780.3,93.6 780.4,88.9 780.6,85.8 780.7,83.8 780.9,82.5 781.1,81.7 781.2,81.5 781.4,81.7 781.6,82.5 781.7,83.8 781.9,85.8 782.1,88.9 782.2,93.6 782.4,102.1 782.5,182.0 782.7,102.1 782.9,93.6 783.0,88.9 783.2,85.8 783.4,83.8 783.5,82.5 783.7,81.7 783.9,81.5 784.0,81.7 784.2,82.5 784.3,83.8 784.5,85.8 784.7,88.9 784.8,93.6 785.0,102.1" fill="none" stroke="#4a90d9" stroke-width="1.5" stroke-linejoin="round"/>
  <text x="209.5" y="214" text-anchor="middle" font-size="11" fill="#6b7280">n / N</text>
  <text x="617.5" y="214" text-anchor="middle" font-size="11" fill="#6b7280">Normalized frequency (× Fₛ)</text>
</svg>
