<svg xmlns="http://www.w3.org/2000/svg" viewBox="0 0 560 190" width="560" height="190" style="font-family:system-ui,-apple-system,sans-serif">
  <rect width="560" height="190" fill="none"/>
  <line x1="52" y1="152.0" x2="257" y2="152.0" stroke="#e5e7eb" stroke-width="0.5"/>
  <text x="48" y="155.0" text-anchor="end" font-size="7.5" fill="#6b7280">0</text>
  <line x1="52" y1="82.0" x2="257" y2="82.0" stroke="#e5e7eb" stroke-width="0.5"/>
  <text x="48" y="85.0" text-anchor="end" font-size="7.5" fill="#6b7280">0.5</text>
  <line x1="52" y1="12.0" x2="257" y2="12.0" stroke="#e5e7eb" stroke-width="0.5"/>
  <text x="48" y="15.0" text-anchor="end" font-size="7.5" fill="#6b7280">1</text>
  <line x1="52.0" y1="12" x2="52.0" y2="152" stroke="#e5e7eb" stroke-width="0.5"/>
  <text x="52.0" y="164" text-anchor="middle" font-size="7.5" fill="#6b7280">0</text>
  <line x1="154.5" y1="12" x2="154.5" y2="152" stroke="#e5e7eb" stroke-width="0.5"/>
  <text x="154.5" y="164" text-anchor="middle" font-size="7.5" fill="#6b7280">0.5</text>
  <line x1="257.0" y1="12" x2="257.0" y2="152" stroke="#e5e7eb" stroke-width="0.5"/>
  <text x="257.0" y="164" text-anchor="middle" font-size="7.5" fill="#6b7280">1</text>
  <line x1="52" y1="12" x2="52" y2="152" stroke="#d1d5db" stroke-width="0.75"/>
  <line x1="52" y1="152" x2="257" y2="152" stroke="#d1d5db" stroke-width="0.75"/>
  <path d="M52.0,152.0 52.0,151.8 52.8,151.7 53.6,151.4 54.4,151.2 55.2,150.9 56.0,150.6 56.8,150.4 57.6,150.2 58.4,150.1 59.2,150.0 60.0,149.9 60.8,149.9 61.6,149.8 62.5,149.6 63.3,149.4 64.1,149.2 64.9,149.0 65.7,148.7 66.5,148.4 67.3,148.2 68.1,147.9 68.9,147.7 69.7,147.5 70.5,147.2 71.3,146.9 72.1,146.5 72.9,146.1 73.7,145.7 74.5,145.3 75.3,144.9 76.1,144.4 76.9,144.0 77.7,143.5 78.5,143.0 79.3,142.5 80.1,142.0 80.9,141.4 81.7,140.7 82.5,140.1 83.4,139.4 84.2,138.7 85.0,138.0 85.8,137.2 86.6,136.4 87.4,135.6 88.2,134.8 89.0,133.9 89.8,132.9 90.6,132.0 91.4,130.9 92.2,129.9 93.0,128.8 93.8,127.7 94.6,126.6 95.4,125.4 96.2,124.2 97.0,123.0 97.8,121.7 98.6,120.3 99.4,118.9 100.2,117.5 101.0,116.0 101.8,114.6 102.6,113.0 103.5,111.5 104.3,109.9 105.1,108.3 105.9,106.6 106.7,104.9 107.5,103.1 108.3,101.3 109.1,99.5 109.9,97.7 110.7,95.8 111.5,93.9 112.3,92.0 113.1,90.1 113.9,88.1 114.7,86.1 115.5,84.1 116.3,82.0 117.1,80.0 117.9,77.9 118.7,75.8 119.5,73.8 120.3,71.7 121.1,69.6 121.9,67.5 122.7,65.4 123.5,63.2 124.4,61.1 125.2,59.0 126.0,56.9 126.8,54.9 127.6,52.8 128.4,50.8 129.2,48.8 130.0,46.8 130.8,44.9 131.6,42.9 132.4,41.0 133.2,39.2 134.0,37.3 134.8,35.6 135.6,33.8 136.4,32.2 137.2,30.5 138.0,29.0 138.8,27.4 139.6,26.0 140.4,24.6 141.2,23.2 142.0,21.9 142.8,20.7 143.6,19.6 144.5,18.5 145.3,17.6 146.1,16.7 146.9,15.8 147.7,15.1 148.5,14.4 149.3,13.8 150.1,13.3 150.9,12.8 151.7,12.5 152.5,12.2 153.3,12.1 154.1,12.0 154.9,12.0 155.7,12.1 156.5,12.2 157.3,12.5 158.1,12.8 158.9,13.3 159.7,13.8 160.5,14.4 161.3,15.1 162.1,15.8 162.9,16.7 163.7,17.6 164.5,18.5 165.4,19.6 166.2,20.7 167.0,21.9 167.8,23.2 168.6,24.6 169.4,26.0 170.2,27.4 171.0,29.0 171.8,30.5 172.6,32.2 173.4,33.8 174.2,35.6 175.0,37.3 175.8,39.2 176.6,41.0 177.4,42.9 178.2,44.9 179.0,46.8 179.8,48.8 180.6,50.8 181.4,52.8 182.2,54.9 183.0,56.9 183.8,59.0 184.6,61.1 185.5,63.2 186.3,65.4 187.1,67.5 187.9,69.6 188.7,71.7 189.5,73.8 190.3,75.8 191.1,77.9 191.9,80.0 192.7,82.0 193.5,84.1 194.3,86.1 195.1,88.1 195.9,90.1 196.7,92.0 197.5,93.9 198.3,95.8 199.1,97.7 199.9,99.5 200.7,101.3 201.5,103.1 202.3,104.9 203.1,106.6 203.9,108.3 204.7,109.9 205.5,111.5 206.4,113.0 207.2,114.6 208.0,116.0 208.8,117.5 209.6,118.9 210.4,120.3 211.2,121.7 212.0,123.0 212.8,124.2 213.6,125.4 214.4,126.6 215.2,127.7 216.0,128.8 216.8,129.9 217.6,130.9 218.4,132.0 219.2,132.9 220.0,133.9 220.8,134.8 221.6,135.6 222.4,136.4 223.2,137.2 224.0,138.0 224.8,138.7 225.6,139.4 226.5,140.1 227.3,140.7 228.1,141.4 228.9,142.0 229.7,142.5 230.5,143.0 231.3,143.5 232.1,144.0 232.9,144.4 233.7,144.9 234.5,145.3 235.3,145.7 236.1,146.1 236.9,146.5 237.7,146.9 238.5,147.2 239.3,147.5 240.1,147.7 240.9,147.9 241.7,148.2 242.5,148.4 243.3,148.7 244.1,149.0 244.9,149.2 245.7,149.4 246.5,149.6 247.4,149.8 248.2,149.9 249.0,149.9 249.8,150.0 250.6,150.1 251.4,150.2 252.2,150.4 253.0,150.6 253.8,150.9 254.6,151.2 255.4,151.4 256.2,151.7 257.0,151.8 L257.0,152.0 Z" fill="#4a90d9" fill-opacity="0.06"/>
  <polyline points="52.0,151.8 52.8,151.7 53.6,151.4 54.4,151.2 55.2,150.9 56.0,150.6 56.8,150.4 57.6,150.2 58.4,150.1 59.2,150.0 60.0,149.9 60.8,149.9 61.6,149.8 62.5,149.6 63.3,149.4 64.1,149.2 64.9,149.0 65.7,148.7 66.5,148.4 67.3,148.2 68.1,147.9 68.9,147.7 69.7,147.5 70.5,147.2 71.3,146.9 72.1,146.5 72.9,146.1 73.7,145.7 74.5,145.3 75.3,144.9 76.1,144.4 76.9,144.0 77.7,143.5 78.5,143.0 79.3,142.5 80.1,142.0 80.9,141.4 81.7,140.7 82.5,140.1 83.4,139.4 84.2,138.7 85.0,138.0 85.8,137.2 86.6,136.4 87.4,135.6 88.2,134.8 89.0,133.9 89.8,132.9 90.6,132.0 91.4,130.9 92.2,129.9 93.0,128.8 93.8,127.7 94.6,126.6 95.4,125.4 96.2,124.2 97.0,123.0 97.8,121.7 98.6,120.3 99.4,118.9 100.2,117.5 101.0,116.0 101.8,114.6 102.6,113.0 103.5,111.5 104.3,109.9 105.1,108.3 105.9,106.6 106.7,104.9 107.5,103.1 108.3,101.3 109.1,99.5 109.9,97.7 110.7,95.8 111.5,93.9 112.3,92.0 113.1,90.1 113.9,88.1 114.7,86.1 115.5,84.1 116.3,82.0 117.1,80.0 117.9,77.9 118.7,75.8 119.5,73.8 120.3,71.7 121.1,69.6 121.9,67.5 122.7,65.4 123.5,63.2 124.4,61.1 125.2,59.0 126.0,56.9 126.8,54.9 127.6,52.8 128.4,50.8 129.2,48.8 130.0,46.8 130.8,44.9 131.6,42.9 132.4,41.0 133.2,39.2 134.0,37.3 134.8,35.6 135.6,33.8 136.4,32.2 137.2,30.5 138.0,29.0 138.8,27.4 139.6,26.0 140.4,24.6 141.2,23.2 142.0,21.9 142.8,20.7 143.6,19.6 144.5,18.5 145.3,17.6 146.1,16.7 146.9,15.8 147.7,15.1 148.5,14.4 149.3,13.8 150.1,13.3 150.9,12.8 151.7,12.5 152.5,12.2 153.3,12.1 154.1,12.0 154.9,12.0 155.7,12.1 156.5,12.2 157.3,12.5 158.1,12.8 158.9,13.3 159.7,13.8 160.5,14.4 161.3,15.1 162.1,15.8 162.9,16.7 163.7,17.6 164.5,18.5 165.4,19.6 166.2,20.7 167.0,21.9 167.8,23.2 168.6,24.6 169.4,26.0 170.2,27.4 171.0,29.0 171.8,30.5 172.6,32.2 173.4,33.8 174.2,35.6 175.0,37.3 175.8,39.2 176.6,41.0 177.4,42.9 178.2,44.9 179.0,46.8 179.8,48.8 180.6,50.8 181.4,52.8 182.2,54.9 183.0,56.9 183.8,59.0 184.6,61.1 185.5,63.2 186.3,65.4 187.1,67.5 187.9,69.6 188.7,71.7 189.5,73.8 190.3,75.8 191.1,77.9 191.9,80.0 192.7,82.0 193.5,84.1 194.3,86.1 195.1,88.1 195.9,90.1 196.7,92.0 197.5,93.9 198.3,95.8 199.1,97.7 199.9,99.5 200.7,101.3 201.5,103.1 202.3,104.9 203.1,106.6 203.9,108.3 204.7,109.9 205.5,111.5 206.4,113.0 207.2,114.6 208.0,116.0 208.8,117.5 209.6,118.9 210.4,120.3 211.2,121.7 212.0,123.0 212.8,124.2 213.6,125.4 214.4,126.6 215.2,127.7 216.0,128.8 216.8,129.9 217.6,130.9 218.4,132.0 219.2,132.9 220.0,133.9 220.8,134.8 221.6,135.6 222.4,136.4 223.2,137.2 224.0,138.0 224.8,138.7 225.6,139.4 226.5,140.1 227.3,140.7 228.1,141.4 228.9,142.0 229.7,142.5 230.5,143.0 231.3,143.5 232.1,144.0 232.9,144.4 233.7,144.9 234.5,145.3 235.3,145.7 236.1,146.1 236.9,146.5 237.7,146.9 238.5,147.2 239.3,147.5 240.1,147.7 240.9,147.9 241.7,148.2 242.5,148.4 243.3,148.7 244.1,149.0 244.9,149.2 245.7,149.4 246.5,149.6 247.4,149.8 248.2,149.9 249.0,149.9 249.8,150.0 250.6,150.1 251.4,150.2 252.2,150.4 253.0,150.6 253.8,150.9 254.6,151.2 255.4,151.4 256.2,151.7 257.0,151.8" fill="none" stroke="#4a90d9" stroke-width="1.2" stroke-linejoin="round"/>
  <line x1="322" y1="12.0" x2="527" y2="12.0" stroke="#e5e7eb" stroke-width="0.5"/>
  <text x="318" y="15.0" text-anchor="end" font-size="7.5" fill="#6b7280">0</text>
  <line x1="322" y1="58.7" x2="527" y2="58.7" stroke="#e5e7eb" stroke-width="0.5"/>
  <text x="318" y="61.7" text-anchor="end" font-size="7.5" fill="#6b7280">-40</text>
  <line x1="322" y1="105.3" x2="527" y2="105.3" stroke="#e5e7eb" stroke-width="0.5"/>
  <text x="318" y="108.3" text-anchor="end" font-size="7.5" fill="#6b7280">-80</text>
  <line x1="322" y1="152.0" x2="527" y2="152.0" stroke="#e5e7eb" stroke-width="0.5"/>
  <text x="318" y="155.0" text-anchor="end" font-size="7.5" fill="#6b7280">-120</text>
  <line x1="322.0" y1="12" x2="322.0" y2="152" stroke="#e5e7eb" stroke-width="0.5"/>
  <text x="322.0" y="164" text-anchor="middle" font-size="7.5" fill="#6b7280">0</text>
  <line x1="363.0" y1="12" x2="363.0" y2="152" stroke="#e5e7eb" stroke-width="0.5"/>
  <text x="363.0" y="164" text-anchor="middle" font-size="7.5" fill="#6b7280">0.1</text>
  <line x1="404.0" y1="12" x2="404.0" y2="152" stroke="#e5e7eb" stroke-width="0.5"/>
  <text x="404.0" y="164" text-anchor="middle" font-size="7.5" fill="#6b7280">0.2</text>
  <line x1="445.0" y1="12" x2="445.0" y2="152" stroke="#e5e7eb" stroke-width="0.5"/>
  <text x="445.0" y="164" text-anchor="middle" font-size="7.5" fill="#6b7280">0.3</text>
  <line x1="486.0" y1="12" x2="486.0" y2="152" stroke="#e5e7eb" stroke-width="0.5"/>
  <text x="486.0" y="164" text-anchor="middle" font-size="7.5" fill="#6b7280">0.4</text>
  <line x1="527.0" y1="12" x2="527.0" y2="152" stroke="#e5e7eb" stroke-width="0.5"/>
  <text x="527.0" y="164" text-anchor="middle" font-size="7.5" fill="#6b7280">0.5</text>
  <line x1="322" y1="12" x2="322" y2="152" stroke="#d1d5db" stroke-width="0.75"/>
  <line x1="322" y1="152" x2="527" y2="152" stroke="#d1d5db" stroke-width="0.75"/>
  <polyline points="322.0,12.0 322.1,12.0 322.2,12.1 322.3,12.2 322.4,12.3 322.5,12.5 322.6,12.7 322.7,12.9 322.8,13.2 322.9,13.5 323.0,13.9 323.1,14.3 323.2,14.8 323.3,15.2 323.4,15.8 323.5,16.3 323.6,16.9 323.7,17.6 323.8,18.2 323.9,19.0 324.0,19.7 324.1,20.5 324.2,21.4 324.3,22.2 324.4,23.2 324.5,24.1 324.6,25.1 324.7,26.2 324.8,27.2 324.9,28.4 325.0,29.5 325.1,30.7 325.2,31.9 325.3,33.2 325.4,34.5 325.5,35.8 325.6,37.2 325.7,38.5 325.8,40.0 325.9,41.4 326.0,42.8 326.1,44.3 326.2,45.8 326.3,47.4 326.4,48.9 326.5,50.5 326.6,52.2 326.7,53.9 326.8,55.7 326.9,57.5 327.0,59.5 327.1,61.6 327.2,63.9 327.3,66.4 327.4,69.2 327.5,72.5 327.6,76.4 327.7,81.4 327.8,88.8 327.9,107.2 328.0,96.7 328.1,90.1 328.2,87.6 328.3,86.9 328.4,87.4 328.5,89.1 328.6,92.3 328.7,98.7 328.8,152.0 328.9,98.1 329.0,91.1 329.1,87.2 329.2,84.7 329.3,82.9 329.4,81.8 329.5,81.1 329.6,80.9 329.7,81.0 329.8,81.6 329.9,82.5 330.0,84.1 330.1,86.3 330.2,89.6 330.3,95.0 330.4,108.5 330.5,102.6 330.6,93.4 330.7,88.9 330.8,86.2 330.9,84.4 331.0,83.3 331.1,82.6 331.2,82.4 331.3,82.6 331.4,83.1 331.5,84.2 331.6,85.7 331.7,88.1 331.8,91.5 331.9,97.4 332.0,114.4 332.1,102.3 332.2,94.1 332.3,89.9 332.4,87.3 332.5,85.6 332.6,84.5 332.7,83.9 332.8,83.7 332.9,83.9 333.0,84.4 333.1,85.5 333.2,87.1 333.3,89.4 333.4,92.9 333.5,98.8 333.6,116.5 333.7,103.3 333.8,95.2 333.9,91.1 334.0,88.5 334.1,86.8 334.2,85.7 334.3,85.1 334.4,84.8 334.5,85.0 334.6,85.6 334.7,86.6 334.8,88.1 334.9,90.4 335.0,93.8 335.1,99.5 335.2,115.2 335.3,105.2 335.4,96.7 335.5,92.4 335.6,89.8 335.7,88.0 335.8,86.8 335.9,86.2 336.0,85.9 336.1,86.0 336.2,86.6 336.3,87.5 336.4,89.0 336.5,91.2 336.6,94.4 336.7,99.7 336.8,112.6 336.9,108.0 337.0,98.4 337.1,93.9 337.2,91.0 337.3,89.2 337.4,88.0 337.5,87.2 337.6,86.9 337.7,87.0 337.8,87.4 337.9,88.3 338.0,89.7 338.1,91.7 338.2,94.7 338.3,99.5 338.4,109.9 338.5,112.2 338.6,100.4 338.7,95.4 338.8,92.4 338.9,90.4 339.0,89.0 339.1,88.2 339.2,87.8 339.3,87.8 339.4,88.2 339.5,89.0 339.6,90.2 339.7,92.1 339.8,94.9 339.9,99.2 340.0,107.6 340.1,119.4 340.2,102.8 340.3,97.1 340.4,93.8 340.5,91.6 340.6,90.1 340.7,89.2 340.8,88.7 340.9,88.6 341.0,88.9 341.1,89.6 341.2,90.7 341.3,92.4 341.4,94.9 341.5,98.7 341.6,105.6 341.7,152.0 341.8,105.8 341.9,99.0 342.0,95.2 342.1,92.8 342.2,91.2 342.3,90.1 342.4,89.5 342.5,89.3 342.6,89.5 342.7,90.1 342.8,91.1 342.9,92.6 343.0,94.9 343.1,98.2 343.2,103.8 343.3,118.9 343.4,110.0 343.5,101.2 343.6,96.9 343.7,94.1 343.8,92.3 343.9,91.1 344.0,90.4 344.1,90.1 344.2,90.1 344.3,90.6 344.4,91.4 344.5,92.8 344.6,94.7 344.7,97.7 344.8,102.3 344.9,112.0 345.0,116.7 345.1,103.9 345.2,98.7 345.3,95.6 345.4,93.5 345.5,92.1 345.6,91.2 345.7,90.8 345.8,90.7 345.9,91.0 346.0,91.7 346.1,92.9 346.2,94.6 346.3,97.1 346.4,101.0 346.5,108.0 346.6,144.4 346.7,107.6 346.8,100.9 346.9,97.2 347.0,94.8 347.1,93.2 347.2,92.1 347.3,91.5 347.4,91.3 347.5,91.4 347.6,92.0 347.7,92.9 347.8,94.4 347.9,96.6 348.0,99.8 348.1,105.1 348.2,118.1 348.3,113.2 348.4,103.6 348.5,99.1 348.6,96.2 348.7,94.3 348.8,93.0 348.9,92.2 349.0,91.9 349.1,91.9 349.2,92.2 349.3,93.0 349.4,94.2 349.5,96.0 349.6,98.7 349.7,102.8 349.8,110.7 349.9,127.5 350.0,107.5 350.1,101.4 350.2,97.9 350.3,95.6 350.4,94.1 350.5,93.1 350.6,92.5 350.7,92.3 350.8,92.5 350.9,93.0 351.0,94.0 351.1,95.5 351.2,97.7 351.3,100.9 351.4,106.3 351.5,119.5 351.6,114.1 351.7,104.6 351.8,100.1 351.9,97.2 352.0,95.3 352.1,94.0 352.2,93.2 352.3,92.8 352.4,92.8 352.5,93.1 352.6,93.8 352.7,95.0 352.8,96.7 352.9,99.3 353.0,103.1 353.1,110.1 353.2,152.0 353.3,109.8 353.4,103.1 353.5,99.3 353.6,96.9 353.7,95.2 353.8,94.1 353.9,93.5 354.0,93.2 354.1,93.3 354.2,93.7 354.3,94.5 354.4,95.9 354.5,97.8 354.6,100.6 354.7,105.0 354.8,113.6 354.9,123.5 355.0,108.0 355.1,102.4 355.2,99.0 355.3,96.8 355.4,95.3 355.5,94.3 355.6,93.7 355.7,93.5 355.8,93.6 355.9,94.1 356.0,95.0 356.1,96.4 356.3,98.4 356.4,101.3 356.5,105.8 356.6,115.1 356.7,121.5 356.8,107.9 356.9,102.5 357.0,99.3 357.1,97.1 357.2,95.6 357.3,94.6 357.4,94.0 357.5,93.8 357.6,93.9 357.7,94.3 357.8,95.1 357.9,96.4 358.0,98.2 358.1,100.8 358.2,104.9 358.3,112.3 358.4,135.3 358.5,110.4 358.6,104.0 358.7,100.4 358.8,97.9 358.9,96.3 359.0,95.1 359.1,94.3 359.2,93.9 359.3,93.9 359.4,94.1 359.5,94.6 359.6,95.5 359.7,96.9 359.8,98.7 359.9,101.4 360.0,105.5 360.1,112.9 360.2,135.3 360.3,111.0 360.4,104.6 360.5,100.9 360.6,98.4 360.7,96.6 360.8,95.3 360.9,94.4 361.0,93.8 361.1,93.4 361.2,93.3 361.3,93.4 361.4,93.7 361.5,94.2 361.6,94.9 361.7,95.9 361.8,97.0 361.9,98.5 362.0,100.2 362.1,102.4 362.2,105.0 362.3,108.4 362.4,112.9 362.5,120.1 362.6,142.3 362.7,124.9 362.8,118.3 362.9,115.4 363.0,113.9 363.1,113.4 363.2,113.6 363.3,114.4 363.4,116.0 363.5,118.4 363.6,122.1 363.7,128.6 363.8,151.6 363.9,131.5 364.0,124.4 364.1,120.8 364.2,118.7 364.3,117.5 364.4,117.0 364.5,117.0 364.6,117.7 364.7,118.9 364.8,120.8 364.9,123.8 365.0,128.8 365.1,139.9 365.2,139.8 365.3,129.0 365.4,124.3 365.5,121.5 365.6,119.7 365.7,118.7 365.8,118.2 365.9,118.2 366.0,118.7 366.1,119.7 366.2,121.4 366.3,123.9 366.4,127.9 366.5,135.4 366.6,152.0 366.7,133.4 366.8,127.2 366.9,123.7 367.0,121.5 367.1,120.1 367.2,119.3 367.3,119.0 367.4,119.2 367.5,119.8 367.6,120.9 367.7,122.7 367.8,125.4 367.9,129.7 368.0,138.2 368.1,149.1 368.2,133.1 368.3,127.5 368.4,124.2 368.5,122.2 368.6,120.8 368.7,120.0 368.8,119.7 368.9,119.9 369.0,120.5 369.1,121.6 369.2,123.3 369.3,125.9 369.4,130.0 369.5,137.7 369.6,152.0 369.7,134.8 369.8,128.7 369.9,125.3 370.0,123.1 370.1,121.6 370.2,120.8 370.3,120.4 370.4,120.4 370.5,120.9 370.6,121.9 370.7,123.4 370.8,125.7 370.9,129.3 371.0,135.6 371.1,152.0 371.2,138.1 371.3,130.6 371.4,126.7 371.5,124.2 371.6,122.6 371.7,121.5 371.8,121.0 371.9,120.9 372.0,121.2 372.1,122.0 372.2,123.3 372.3,125.3 372.4,128.3 372.5,133.2 372.6,144.1 372.7,144.5 372.8,133.4 372.9,128.5 373.0,125.6 373.1,123.7 373.2,122.4 373.3,121.7 373.4,121.4 373.5,121.5 373.6,122.1 373.7,123.2 373.8,124.8 373.9,127.3 374.0,131.1 374.1,138.0 374.2,152.0 374.3,137.7 374.4,131.0 374.5,127.3 374.6,125.0 374.7,123.4 374.8,122.4 374.9,121.9 375.0,121.9 375.1,122.2 375.2,123.0 375.3,124.3 375.4,126.3 375.5,129.3 375.6,134.2 375.7,145.0 375.8,145.6 375.9,134.5 376.0,129.5 376.1,126.6 376.2,124.6 376.3,123.3 376.4,122.6 376.5,122.3 376.6,122.4 376.7,122.9 376.8,123.9 376.9,125.5 377.0,127.8 377.1,131.4 377.2,137.7 377.3,152.0 377.4,139.9 377.5,132.5 377.6,128.6 377.7,126.1 377.8,124.4 377.9,123.4 378.0,122.8 378.1,122.6 378.2,122.9 378.3,123.6 378.4,124.8 378.5,126.6 378.6,129.4 378.7,133.7 378.8,142.3 378.9,152.0 379.0,136.8 379.1,131.2 379.2,127.9 379.3,125.8 379.4,124.3 379.5,123.5 379.6,123.1 379.7,123.1 379.8,123.5 379.9,124.3 380.0,125.7 380.1,127.8 380.2,130.9 380.3,136.2 380.4,148.8 380.5,144.6 380.6,134.9 380.7,130.3 380.8,127.5 380.9,125.6 381.0,124.4 381.1,123.6 381.2,123.4 381.3,123.5 381.4,124.0 381.5,125.0 381.6,126.6 381.7,129.0 381.8,132.6 381.9,139.0 382.0,152.0 382.1,140.9 382.2,133.6 382.3,129.6 382.4,127.1 382.5,125.5 382.6,124.4 382.7,123.8 382.8,123.7 382.9,123.9 383.0,124.6 383.1,125.8 383.2,127.5 383.3,130.2 383.4,134.3 383.5,142.3 383.6,152.0 383.7,138.5 383.8,132.6 383.9,129.2 384.0,126.9 384.1,125.5 384.2,124.5 384.3,124.1 384.4,124.0 384.5,124.4 384.6,125.2 384.7,126.5 384.8,128.4 384.9,131.4 385.0,136.2 385.1,146.6 385.2,148.6 385.3,136.9 385.4,131.8 385.5,128.8 385.6,126.8 385.7,125.5 385.8,124.7 385.9,124.3 386.0,124.4 386.1,124.8 386.2,125.7 386.3,127.2 386.4,129.3 386.5,132.6 386.6,138.2 386.7,152.0 386.8,144.5 386.9,135.7 387.0,131.3 387.1,128.5 387.2,126.7 387.3,125.5 387.4,124.8 387.5,124.6 387.6,124.7 387.7,125.3 387.8,126.3 387.9,127.9 388.0,130.2 388.1,133.9 388.2,140.3 388.3,152.0 388.4,142.0 388.5,134.7 388.6,130.8 388.7,128.3 388.8,126.7 388.9,125.6 389.0,125.0 389.1,124.8 389.2,125.1 389.3,125.7 389.4,126.9 389.5,128.6 389.6,131.2 389.7,135.2 389.8,142.8 389.9,152.0 390.0,140.2 390.1,134.0 390.2,130.5 390.3,128.2 390.4,126.7 390.5,125.7 390.6,125.2 390.7,125.1 390.8,125.4 390.9,126.2 391.0,127.4 391.1,129.3 391.2,132.1 391.3,136.5 391.4,145.6 391.5,152.0 391.6,138.9 391.7,133.4 391.8,130.2 391.9,128.1 392.0,126.7 392.1,125.8 392.2,125.4 392.3,125.4 392.4,125.8 392.5,126.6 392.6,128.0 392.7,130.0 392.8,133.0 392.9,138.0 393.0,149.2 393.1,148.6 393.2,137.8 393.3,133.0 393.4,130.0 393.5,128.1 393.6,126.8 393.7,126.0 393.8,125.6 393.9,125.7 394.0,126.1 394.1,127.1 394.2,128.5 394.3,130.7 394.4,133.9 394.5,139.5 394.6,152.0 394.7,145.9 394.8,137.0 394.9,132.6 395.0,129.9 395.1,128.0 395.2,126.8 395.3,126.1 395.4,125.8 395.5,126.0 395.6,126.5 395.7,127.5 395.8,129.0 395.9,131.3 396.0,134.9 396.1,141.0 396.2,152.0 396.3,144.0 396.4,136.3 396.5,132.3 396.6,129.7 396.7,128.0 396.8,126.9 396.9,126.3 397.0,126.1 397.1,126.2 397.2,126.9 397.3,127.9 397.4,129.6 397.5,132.0 397.6,135.8 397.7,142.8 397.8,152.0 397.9,142.5 398.0,135.8 398.1,132.0 398.2,129.6 398.3,128.0 398.4,127.0 398.5,126.4 398.6,126.3 398.7,126.5 398.8,127.2 398.9,128.4 399.0,130.1 399.1,132.7 399.2,136.8 399.3,144.6 399.4,152.0 399.5,141.4 399.6,135.3 399.7,131.8 399.8,129.6 399.9,128.1 400.0,127.1 400.1,126.6 400.2,126.5 400.3,126.8 400.4,127.5 400.5,128.8 400.6,130.6 400.7,133.4 400.8,137.8 400.9,146.7 401.0,152.0 401.1,140.4 401.2,134.9 401.3,131.7 401.4,129.5 401.5,128.1 401.6,127.2 401.7,126.8 401.8,126.7 401.9,127.1 402.0,127.9 402.1,129.2 402.2,131.2 402.3,134.1 402.4,138.9 402.5,149.2 402.6,151.5 402.7,139.6 402.8,134.6 402.9,131.5 403.0,129.5 403.1,128.1 403.2,127.3 403.3,126.9 403.4,126.9 403.5,127.4 403.6,128.2 403.7,129.6 403.8,131.7 403.9,134.8 404.0,139.9 404.1,152.0 404.2,149.1 404.3,139.0 404.4,134.3 404.5,131.4 404.6,129.5 404.7,128.2 404.8,127.4 404.9,127.1 405.0,127.2 405.1,127.6 405.2,128.6 405.3,130.0 405.4,132.2 405.5,135.5 405.6,141.0 405.7,152.0 405.8,147.3 405.9,138.4 406.0,134.1 406.1,131.3 406.2,129.5 406.3,128.3 406.4,127.6 406.5,127.3 406.6,127.4 406.7,127.9 406.8,128.9 406.9,130.4 407.0,132.7 407.1,136.2 407.2,142.2 407.3,152.0 407.4,145.9 407.5,138.0 407.6,133.8 407.7,131.2 407.8,129.5 407.9,128.3 408.0,127.7 408.1,127.5 408.2,127.6 408.3,128.2 408.4,129.2 408.5,130.8 408.6,133.2 408.7,136.9 408.8,143.4 408.9,152.0 409.0,144.7 409.1,137.6 409.2,133.7 409.3,131.2 409.4,129.5 409.5,128.4 409.6,127.8 409.7,127.6 409.8,127.8 409.9,128.5 410.0,129.5 410.1,131.2 410.2,133.7 410.3,137.6 410.4,144.6 410.5,152.0 410.6,143.8 410.7,137.2 410.8,133.5 410.9,131.1 411.0,129.5 411.1,128.5 411.2,127.9 411.3,127.8 411.4,128.0 411.5,128.7 411.6,129.9 411.7,131.6 411.8,134.2 411.9,138.3 412.0,146.0 412.1,152.0 412.2,143.0 412.3,136.9 412.4,133.4 412.5,131.1 412.6,129.6 412.7,128.6 412.8,128.1 412.9,128.0 413.0,128.3 413.1,129.0 413.2,130.2 413.3,132.0 413.4,134.7 413.5,139.0 413.6,147.5 413.7,152.0 413.8,142.3 413.9,136.6 414.0,133.3 414.1,131.1 414.2,129.6 414.3,128.7 414.4,128.2 414.5,128.1 414.6,128.5 414.7,129.2 414.8,130.5 414.9,132.4 415.0,135.2 415.1,139.7 415.2,149.1 415.3,152.0 415.4,141.7 415.5,136.4 415.6,133.2 415.7,131.1 415.8,129.7 415.9,128.8 416.0,128.3 416.1,128.3 416.2,128.7 416.3,129.5 416.4,130.8 416.5,132.8 416.6,135.7 416.7,140.5 416.8,150.8 416.9,152.0 417.0,141.2 417.1,136.1 417.2,133.1 417.3,131.1 417.4,129.7 417.5,128.9 417.6,128.5 417.7,128.5 417.8,128.9 417.9,129.7 418.0,131.1 418.1,133.1 418.2,136.2 418.3,141.2 418.4,152.0 418.5,151.2 418.6,140.7 418.7,135.9 418.8,133.0 418.9,131.1 419.0,129.8 419.1,129.0 419.2,128.6 419.3,128.7 419.4,129.1 419.5,130.0 419.6,131.4 419.7,133.5 419.8,136.7 419.9,142.0 420.0,152.0 420.1,149.8 420.2,140.3 420.3,135.8 420.4,132.9 420.5,131.1 420.6,129.8 420.7,129.1 420.8,128.7 420.9,128.8 421.0,129.3 421.1,130.2 421.2,131.7 421.3,133.9 421.4,137.2 421.5,142.8 421.6,152.0 421.7,148.6 421.8,140.0 421.9,135.6 422.0,132.9 422.1,131.1 422.2,129.9 422.3,129.2 422.4,128.9 422.5,129.0 422.6,129.5 422.7,130.5 422.8,132.0 422.9,134.3 423.0,137.7 423.1,143.6 423.2,152.0 423.3,147.7 423.4,139.6 423.5,135.5 423.6,132.8 423.7,131.1 423.8,129.9 423.9,129.3 424.0,129.0 424.1,129.2 424.2,129.7 424.3,130.7 424.4,132.3 424.6,134.6 424.7,138.2 424.8,144.5 424.9,152.0 425.0,146.8 425.1,139.3 425.2,135.4 425.3,132.8 425.4,131.1 425.5,130.0 425.6,129.4 425.7,129.1 425.8,129.3 425.9,129.9 426.0,131.0 426.1,132.6 426.2,135.0 426.3,138.7 426.4,145.4 426.5,152.0 426.6,146.1 426.7,139.1 426.8,135.2 426.9,132.8 427.0,131.1 427.1,130.1 427.2,129.5 427.3,129.3 427.4,129.5 427.5,130.1 427.6,131.2 427.7,132.9 427.8,135.3 427.9,139.2 428.0,146.3 428.1,152.0 428.2,145.4 428.3,138.8 428.4,135.1 428.5,132.8 428.6,131.2 428.7,130.1 428.8,129.6 428.9,129.4 429.0,129.6 429.1,130.3 429.2,131.4 429.3,133.1 429.4,135.7 429.5,139.7 429.6,147.2 429.7,152.0 429.8,144.9 429.9,138.6 430.0,135.1 430.1,132.7 430.2,131.2 430.3,130.2 430.4,129.7 430.5,129.5 430.6,129.8 430.7,130.5 430.8,131.6 430.9,133.4 431.0,136.1 431.1,140.2 431.2,148.2 431.3,152.0 431.4,144.4 431.5,138.4 431.6,135.0 431.7,132.7 431.8,131.2 431.9,130.3 432.0,129.8 432.1,129.6 432.2,129.9 432.3,130.7 432.4,131.9 432.5,133.7 432.6,136.4 432.7,140.7 432.8,149.3 432.9,152.0 433.0,143.9 433.1,138.2 433.2,134.9 433.3,132.7 433.4,131.2 433.5,130.3 433.6,129.8 433.7,129.8 433.8,130.1 433.9,130.8 434.0,132.1 434.1,134.0 434.2,136.8 434.3,141.2 434.4,150.4 434.5,152.0 434.6,143.5 434.7,138.1 434.8,134.8 434.9,132.7 435.0,131.3 435.1,130.4 435.2,129.9 435.3,129.9 435.4,130.2 435.5,131.0 435.6,132.3 435.7,134.2 435.8,137.1 435.9,141.8 436.0,151.6 436.1,152.0 436.2,143.1 436.3,137.9 436.4,134.8 436.5,132.7 436.6,131.3 436.7,130.5 436.8,130.0 436.9,130.0 437.0,130.4 437.1,131.2 437.2,132.5 437.3,134.5 437.4,137.5 437.5,142.3 437.6,152.0 437.7,152.0 437.8,142.8 437.9,137.8 438.0,134.7 438.1,132.7 438.2,131.4 438.3,130.5 438.4,130.1 438.5,130.1 438.6,130.5 438.7,131.4 438.8,132.7 438.9,134.8 439.0,137.8 439.1,142.8 439.2,152.0 439.3,152.0 439.4,142.4 439.5,137.6 439.6,134.7 439.7,132.7 439.8,131.4 439.9,130.6 440.0,130.2 440.1,130.3 440.2,130.7 440.3,131.6 440.4,133.0 440.5,135.0 440.6,138.2 440.7,143.4 440.8,152.0 440.9,152.0 441.0,142.2 441.1,137.5 441.2,134.6 441.3,132.7 441.4,131.4 441.5,130.7 441.6,130.3 441.7,130.4 441.8,130.8 441.9,131.7 442.0,133.2 442.1,135.3 442.2,138.5 442.3,143.9 442.4,152.0 442.5,151.1 442.6,141.9 442.7,137.4 442.8,134.6 442.9,132.7 443.0,131.5 443.1,130.7 443.2,130.4 443.3,130.5 443.4,131.0 443.5,131.9 443.6,133.4 443.7,135.6 443.8,138.9 443.9,144.5 444.0,152.0 444.1,150.3 444.2,141.6 444.3,137.3 444.4,134.5 444.5,132.7 444.6,131.5 444.7,130.8 444.8,130.5 444.9,130.6 445.0,131.1 445.1,132.1 445.2,133.6 445.3,135.8 445.4,139.2 445.5,145.0 445.6,152.0 445.7,149.6 445.8,141.4 445.9,137.2 446.0,134.5 446.1,132.7 446.2,131.6 446.3,130.9 446.4,130.6 446.5,130.7 446.6,131.3 446.7,132.2 446.8,133.8 446.9,136.1 447.0,139.6 447.1,145.6 447.2,152.0 447.3,149.0 447.4,141.2 447.5,137.1 447.6,134.5 447.7,132.7 447.8,131.6 447.9,130.9 448.0,130.7 448.1,130.8 448.2,131.4 448.3,132.4 448.4,134.0 448.5,136.3 448.6,139.9 448.7,146.2 448.8,152.0 448.9,148.4 449.0,141.0 449.1,137.0 449.2,134.4 449.3,132.7 449.4,131.6 449.5,131.0 449.6,130.8 449.7,130.9 449.8,131.5 449.9,132.6 450.0,134.2 450.1,136.6 450.2,140.3 450.3,146.8 450.4,152.0 450.5,147.9 450.6,140.8 450.7,136.9 450.8,134.4 450.9,132.8 451.0,131.7 451.1,131.1 451.2,130.9 451.3,131.0 451.4,131.7 451.5,132.7 451.6,134.4 451.7,136.8 451.8,140.6 451.9,147.5 452.0,152.0 452.1,147.4 452.2,140.6 452.3,136.8 452.4,134.4 452.5,132.8 452.6,131.7 452.7,131.1 452.8,130.9 452.9,131.2 453.0,131.8 453.1,132.9 453.2,134.6 453.3,137.1 453.4,141.0 453.5,148.1 453.6,152.0 453.7,146.9 453.8,140.4 453.9,136.8 454.0,134.4 454.1,132.8 454.2,131.8 454.3,131.2 454.4,131.0 454.5,131.3 454.6,131.9 454.7,133.0 454.8,134.8 454.9,137.3 455.0,141.3 455.1,148.8 455.2,152.0 455.3,146.5 455.4,140.3 455.5,136.7 455.6,134.4 455.7,132.8 455.8,131.8 455.9,131.2 456.0,131.1 456.1,131.4 456.2,132.0 456.3,133.2 456.4,134.9 456.5,137.6 456.6,141.7 456.7,149.5 456.8,152.0 456.9,146.2 457.0,140.1 457.1,136.6 457.2,134.3 457.3,132.8 457.4,131.8 457.5,131.3 457.6,131.2 457.7,131.5 457.8,132.2 457.9,133.3 458.0,135.1 458.1,137.8 458.2,142.0 458.3,150.2 458.4,152.0 458.5,145.8 458.6,140.0 458.7,136.5 458.8,134.3 458.9,132.8 459.0,131.9 459.1,131.4 459.2,131.3 459.3,131.6 459.4,132.3 459.5,133.5 459.6,135.3 459.7,138.1 459.8,142.4 459.9,150.9 460.0,152.0 460.1,145.5 460.2,139.8 460.3,136.5 460.4,134.3 460.5,132.8 460.6,131.9 460.7,131.4 460.8,131.3 460.9,131.7 461.0,132.4 461.1,133.6 461.2,135.5 461.3,138.3 461.4,142.7 461.5,151.7 461.6,152.0 461.7,145.2 461.8,139.7 461.9,136.4 462.0,134.3 462.1,132.8 462.2,131.9 462.3,131.5 462.4,131.4 462.5,131.8 462.6,132.5 462.7,133.8 462.8,135.7 462.9,138.5 463.0,143.1 463.1,152.0 463.2,152.0 463.3,144.9 463.4,139.6 463.5,136.4 463.6,134.3 463.7,132.9 463.8,132.0 463.9,131.5 464.0,131.5 464.1,131.9 464.2,132.6 464.3,133.9 464.4,135.9 464.5,138.8 464.6,143.5 464.7,152.0 464.8,152.0 464.9,144.6 465.0,139.4 465.1,136.3 465.2,134.3 465.3,132.9 465.4,132.0 465.5,131.6 465.6,131.6 465.7,132.0 465.8,132.8 465.9,134.1 466.0,136.1 466.1,139.0 466.2,143.8 466.3,152.0 466.4,152.0 466.5,144.3 466.6,139.3 466.7,136.3 466.8,134.2 466.9,132.9 467.0,132.1 467.1,131.7 467.2,131.7 467.3,132.1 467.4,132.9 467.5,134.2 467.6,136.2 467.7,139.3 467.8,144.2 467.9,152.0 468.0,152.0 468.1,144.1 468.2,139.2 468.3,136.2 468.4,134.2 468.5,132.9 468.6,132.1 468.7,131.7 468.8,131.7 468.9,132.1 469.0,133.0 469.1,134.4 469.2,136.4 469.3,139.5 469.4,144.6 469.5,152.0 469.6,152.0 469.7,143.8 469.8,139.1 469.9,136.2 470.0,134.2 470.1,132.9 470.2,132.1 470.3,131.8 470.4,131.8 470.5,132.2 470.6,133.1 470.7,134.5 470.8,136.6 470.9,139.7 471.0,145.0 471.1,152.0 471.2,152.0 471.3,143.6 471.4,139.0 471.5,136.1 471.6,134.2 471.7,132.9 471.8,132.2 471.9,131.8 472.0,131.9 472.1,132.3 472.2,133.2 472.3,134.6 472.4,136.8 472.5,140.0 472.6,145.3 472.7,152.0 472.8,152.0 472.9,143.4 473.0,138.9 473.1,136.1 473.2,134.2 473.3,132.9 473.4,132.2 473.5,131.9 473.6,131.9 473.7,132.4 473.8,133.3 473.9,134.8 474.0,136.9 474.1,140.2 474.2,145.7 474.3,152.0 474.4,152.0 474.5,143.2 474.6,138.8 474.7,136.0 474.8,134.2 474.9,133.0 475.0,132.2 475.1,131.9 475.2,132.0 475.3,132.5 475.4,133.4 475.5,134.9 475.6,137.1 475.7,140.5 475.8,146.1 475.9,152.0 476.0,151.5 476.1,143.0 476.2,138.7 476.3,136.0 476.4,134.2 476.5,133.0 476.6,132.3 476.7,132.0 476.8,132.1 476.9,132.6 477.0,133.5 477.1,135.0 477.2,137.3 477.3,140.7 477.4,146.5 477.5,152.0 477.6,151.0 477.7,142.8 477.8,138.6 477.9,135.9 478.0,134.2 478.1,133.0 478.2,132.3 478.3,132.0 478.4,132.1 478.5,132.7 478.6,133.6 478.7,135.2 478.8,137.5 478.9,140.9 479.0,147.0 479.1,152.0 479.2,150.5 479.3,142.6 479.4,138.5 479.5,135.9 479.6,134.1 479.7,133.0 479.8,132.3 479.9,132.1 480.0,132.2 480.1,132.7 480.2,133.7 480.3,135.3 480.4,137.6 480.5,141.2 480.6,147.4 480.7,152.0 480.8,150.0 480.9,142.4 481.0,138.4 481.1,135.9 481.2,134.1 481.3,133.0 481.4,132.3 481.5,132.1 481.6,132.3 481.7,132.8 481.8,133.8 481.9,135.4 482.0,137.8 482.1,141.4 482.2,147.8 482.3,152.0 482.4,149.6 482.5,142.3 482.6,138.3 482.7,135.8 482.8,134.1 482.9,133.0 483.0,132.4 483.1,132.1 483.2,132.3 483.3,132.9 483.4,133.9 483.5,135.6 483.6,138.0 483.7,141.7 483.8,148.2 483.9,152.0 484.0,149.2 484.1,142.1 484.2,138.3 484.3,135.8 484.4,134.1 484.5,133.0 484.6,132.4 484.7,132.2 484.8,132.4 484.9,133.0 485.0,134.0 485.1,135.7 485.2,138.1 485.3,141.9 485.4,148.7 485.5,152.0 485.6,148.8 485.7,142.0 485.8,138.2 485.9,135.7 486.0,134.1 486.1,133.0 486.2,132.4 486.3,132.2 486.4,132.4 486.5,133.1 486.6,134.1 486.7,135.8 486.8,138.3 486.9,142.1 487.0,149.2 487.1,152.0 487.2,148.4 487.3,141.8 487.4,138.1 487.5,135.7 487.6,134.1 487.7,133.0 487.8,132.5 487.9,132.3 488.0,132.5 488.1,133.1 488.2,134.2 488.3,135.9 488.4,138.5 488.5,142.4 488.6,149.6 488.7,152.0 488.8,148.1 488.9,141.6 489.0,138.0 489.1,135.6 489.2,134.1 489.3,133.0 489.4,132.5 489.5,132.3 489.6,132.6 489.7,133.2 489.8,134.3 489.9,136.1 490.0,138.6 490.1,142.6 490.2,150.1 490.3,152.0 490.4,147.8 490.5,141.5 490.6,137.9 490.7,135.6 490.8,134.0 490.9,133.0 491.0,132.5 491.1,132.4 491.2,132.6 491.3,133.3 491.4,134.4 491.5,136.2 491.6,138.8 491.7,142.9 491.8,150.6 491.9,152.0 492.0,147.4 492.1,141.4 492.2,137.9 492.3,135.6 492.4,134.0 492.5,133.1 492.6,132.5 492.7,132.4 492.9,132.7 493.0,133.4 493.1,134.5 493.2,136.3 493.3,139.0 493.4,143.1 493.5,151.2 493.6,152.0 493.7,147.1 493.8,141.2 493.9,137.8 494.0,135.5 494.1,134.0 494.2,133.1 494.3,132.5 494.4,132.4 494.5,132.7 494.6,133.4 494.7,134.6 494.8,136.4 494.9,139.1 495.0,143.4 495.1,151.7 495.2,152.0 495.3,146.8 495.4,141.1 495.5,137.7 495.6,135.5 495.7,134.0 495.8,133.1 495.9,132.6 496.0,132.5 496.1,132.8 496.2,133.5 496.3,134.7 496.4,136.5 496.5,139.3 496.6,143.6 496.7,152.0 496.8,152.0 496.9,146.6 497.0,140.9 497.1,137.6 497.2,135.4 497.3,134.0 497.4,133.1 497.5,132.6 497.6,132.5 497.7,132.8 497.8,133.6 497.9,134.8 498.0,136.7 498.1,139.4 498.2,143.9 498.3,152.0 498.4,152.0 498.5,146.3 498.6,140.8 498.7,137.6 498.8,135.4 498.9,134.0 499.0,133.1 499.1,132.6 499.2,132.5 499.3,132.9 499.4,133.6 499.5,134.9 499.6,136.8 499.7,139.6 499.8,144.1 499.9,152.0 500.0,152.0 500.1,146.0 500.2,140.7 500.3,137.5 500.4,135.4 500.5,134.0 500.6,133.1 500.7,132.6 500.8,132.6 500.9,132.9 501.0,133.7 501.1,135.0 501.2,136.9 501.3,139.8 501.4,144.4 501.5,152.0 501.6,152.0 501.7,145.8 501.8,140.6 501.9,137.4 502.0,135.3 502.1,133.9 502.2,133.1 502.3,132.6 502.4,132.6 502.5,133.0 502.6,133.8 502.7,135.1 502.8,137.0 502.9,139.9 503.0,144.7 503.1,152.0 503.2,152.0 503.3,145.5 503.4,140.4 503.5,137.3 503.6,135.3 503.7,133.9 503.8,133.1 503.9,132.6 504.0,132.6 504.1,133.0 504.2,133.8 504.3,135.1 504.4,137.1 504.5,140.1 504.6,144.9 504.7,152.0 504.8,152.0 504.9,145.3 505.0,140.3 505.1,137.3 505.2,135.2 505.3,133.9 505.4,133.1 505.5,132.7 505.6,132.7 505.7,133.1 505.8,133.9 505.9,135.2 506.0,137.2 506.1,140.3 506.2,145.2 506.3,152.0 506.4,152.0 506.5,145.1 506.6,140.2 506.7,137.2 506.8,135.2 506.9,133.9 507.0,133.1 507.1,132.7 507.2,132.7 507.3,133.1 507.4,134.0 507.5,135.3 507.6,137.4 507.7,140.4 507.8,145.5 507.9,152.0 508.0,152.0 508.1,144.8 508.2,140.1 508.3,137.1 508.4,135.2 508.5,133.9 508.6,133.1 508.7,132.7 508.8,132.7 508.9,133.1 509.0,134.0 509.1,135.4 509.2,137.5 509.3,140.6 509.4,145.8 509.5,152.0 509.6,152.0 509.7,144.6 509.8,139.9 509.9,137.0 510.0,135.1 510.1,133.8 510.2,133.1 510.3,132.7 510.4,132.7 510.5,133.2 510.6,134.1 510.7,135.5 510.8,137.6 510.9,140.8 511.0,146.1 511.1,152.0 511.2,152.0 511.3,144.4 511.4,139.8 511.5,137.0 511.6,135.1 511.7,133.8 511.8,133.1 511.9,132.7 512.0,132.8 512.1,133.2 512.2,134.1 512.3,135.6 512.4,137.7 512.5,140.9 512.6,146.3 512.7,152.0 512.8,152.0 512.9,144.2 513.0,139.7 513.1,136.9 513.2,135.0 513.3,133.8 513.4,133.0 513.5,132.7 513.6,132.8 513.7,133.3 513.8,134.2 513.9,135.6 514.0,137.8 514.1,141.1 514.2,146.6 514.3,152.0 514.4,152.0 514.5,144.0 514.6,139.6 514.7,136.8 514.8,135.0 514.9,133.8 515.0,133.0 515.1,132.7 515.2,132.8 515.3,133.3 515.4,134.2 515.5,135.7 515.6,137.9 515.7,141.3 515.8,146.9 515.9,152.0 516.0,152.0 516.1,143.8 516.2,139.5 516.3,136.8 516.4,134.9 516.5,133.7 516.6,133.0 516.7,132.7 516.8,132.8 516.9,133.3 517.0,134.3 517.1,135.8 517.2,138.0 517.3,141.4 517.4,147.3 517.5,152.0 517.6,151.8 517.7,143.6 517.8,139.4 517.9,136.7 518.0,134.9 518.1,133.7 518.2,133.0 518.3,132.7 518.4,132.9 518.5,133.4 518.6,134.4 518.7,135.9 518.8,138.1 518.9,141.6 519.0,147.6 519.1,152.0 519.2,151.3 519.3,143.4 519.4,139.3 519.5,136.6 519.6,134.9 519.7,133.7 519.8,133.0 519.9,132.7 520.0,132.9 520.1,133.4 520.2,134.4 520.3,135.9 520.4,138.2 520.5,141.8 520.6,147.9 520.7,152.0 520.8,150.9 520.9,143.2 521.0,139.1 521.1,136.5 521.2,134.8 521.3,133.7 521.4,133.0 521.5,132.8 521.6,132.9 521.7,133.5 521.8,134.5 521.9,136.0 522.0,138.4 522.1,141.9 522.2,148.2 522.3,152.0 522.4,150.5 522.5,143.0 522.6,139.0 522.7,136.5 522.8,134.8 522.9,133.6 523.0,133.0 523.1,132.8 523.2,132.9 523.3,133.5 523.4,134.5 523.5,136.1 523.6,138.5 523.7,142.1 523.8,148.6 523.9,152.0 524.0,150.1 524.1,142.8 524.2,138.9 524.3,136.4 524.4,134.7 524.5,133.6 524.6,133.0 524.7,132.8 524.8,132.9 524.9,133.5 525.0,134.6 525.1,136.2 525.2,138.6 525.3,142.3 525.4,148.9 525.5,152.0 525.6,149.7 525.7,142.6 525.8,138.8 525.9,136.3 526.0,134.7 526.1,133.6 526.2,133.0 526.3,132.8 526.4,132.9 526.5,133.5 526.6,134.6 526.7,136.3 526.8,138.7 526.9,142.5 527.0,149.3" fill="none" stroke="#4a90d9" stroke-width="1.2" stroke-linejoin="round"/>
  <text x="154.5" y="176" text-anchor="middle" font-size="8" fill="#6b7280">n / N</text>
  <text x="424.5" y="176" text-anchor="middle" font-size="8" fill="#6b7280">Normalized frequency (× Fₛ)</text>
</svg>
