<svg xmlns="http://www.w3.org/2000/svg" viewBox="0 0 560 210" width="560" height="210" style="font-family:system-ui,-apple-system,sans-serif">
  <rect width="560" height="210" fill="#fafafa" rx="6"/>
  <text x="280" y="18" text-anchor="middle" font-size="12" font-weight="600" fill="#374151">dpss</text>
  <line x1="52" y1="166.0" x2="257" y2="166.0" stroke="#e5e7eb" stroke-width="0.5"/>
  <text x="48" y="169.0" text-anchor="end" font-size="7.5" fill="#6b7280">0</text>
  <line x1="52" y1="97.0" x2="257" y2="97.0" stroke="#e5e7eb" stroke-width="0.5"/>
  <text x="48" y="100.0" text-anchor="end" font-size="7.5" fill="#6b7280">0.5</text>
  <line x1="52" y1="28.0" x2="257" y2="28.0" stroke="#e5e7eb" stroke-width="0.5"/>
  <text x="48" y="31.0" text-anchor="end" font-size="7.5" fill="#6b7280">1</text>
  <line x1="52.0" y1="28" x2="52.0" y2="166" stroke="#e5e7eb" stroke-width="0.5"/>
  <text x="52.0" y="178" text-anchor="middle" font-size="7.5" fill="#6b7280">0</text>
  <line x1="154.5" y1="28" x2="154.5" y2="166" stroke="#e5e7eb" stroke-width="0.5"/>
  <text x="154.5" y="178" text-anchor="middle" font-size="7.5" fill="#6b7280">0.5</text>
  <line x1="257.0" y1="28" x2="257.0" y2="166" stroke="#e5e7eb" stroke-width="0.5"/>
  <text x="257.0" y="178" text-anchor="middle" font-size="7.5" fill="#6b7280">1</text>
  <line x1="52" y1="28" x2="52" y2="166" stroke="#d1d5db" stroke-width="0.75"/>
  <line x1="52" y1="166" x2="257" y2="166" stroke="#d1d5db" stroke-width="0.75"/>
  <path d="M52.0,166.0 52.0,165.8 52.8,165.7 53.6,165.4 54.4,165.2 55.2,164.9 56.0,164.7 56.8,164.4 57.6,164.3 58.4,164.1 59.2,164.0 60.0,164.0 60.8,163.9 61.6,163.8 62.5,163.7 63.3,163.5 64.1,163.2 64.9,163.0 65.7,162.7 66.5,162.5 67.3,162.2 68.1,162.0 68.9,161.8 69.7,161.5 70.5,161.2 71.3,160.9 72.1,160.6 72.9,160.2 73.7,159.8 74.5,159.4 75.3,159.0 76.1,158.5 76.9,158.1 77.7,157.6 78.5,157.2 79.3,156.7 80.1,156.1 80.9,155.5 81.7,154.9 82.5,154.2 83.4,153.6 84.2,152.9 85.0,152.2 85.8,151.4 86.6,150.7 87.4,149.9 88.2,149.0 89.0,148.1 89.8,147.2 90.6,146.2 91.4,145.2 92.2,144.2 93.0,143.2 93.8,142.1 94.6,141.0 95.4,139.8 96.2,138.6 97.0,137.4 97.8,136.1 98.6,134.8 99.4,133.4 100.2,132.0 101.0,130.6 101.8,129.1 102.6,127.6 103.5,126.1 104.3,124.5 105.1,122.9 105.9,121.2 106.7,119.5 107.5,117.8 108.3,116.1 109.1,114.3 109.9,112.5 110.7,110.6 111.5,108.8 112.3,106.9 113.1,105.0 113.9,103.0 114.7,101.0 115.5,99.0 116.3,97.0 117.1,95.0 117.9,93.0 118.7,90.9 119.5,88.9 120.3,86.8 121.1,84.8 121.9,82.7 122.7,80.6 123.5,78.5 124.4,76.4 125.2,74.4 126.0,72.3 126.8,70.3 127.6,68.3 128.4,66.3 129.2,64.3 130.0,62.3 130.8,60.4 131.6,58.5 132.4,56.6 133.2,54.8 134.0,53.0 134.8,51.2 135.6,49.5 136.4,47.9 137.2,46.3 138.0,44.7 138.8,43.2 139.6,41.8 140.4,40.4 141.2,39.0 142.0,37.8 142.8,36.6 143.6,35.5 144.5,34.5 145.3,33.5 146.1,32.6 146.9,31.8 147.7,31.0 148.5,30.3 149.3,29.7 150.1,29.2 150.9,28.8 151.7,28.5 152.5,28.2 153.3,28.1 154.1,28.0 154.9,28.0 155.7,28.1 156.5,28.2 157.3,28.5 158.1,28.8 158.9,29.2 159.7,29.7 160.5,30.3 161.3,31.0 162.1,31.8 162.9,32.6 163.7,33.5 164.5,34.5 165.4,35.5 166.2,36.6 167.0,37.8 167.8,39.0 168.6,40.4 169.4,41.8 170.2,43.2 171.0,44.7 171.8,46.3 172.6,47.9 173.4,49.5 174.2,51.2 175.0,53.0 175.8,54.8 176.6,56.6 177.4,58.5 178.2,60.4 179.0,62.3 179.8,64.3 180.6,66.3 181.4,68.3 182.2,70.3 183.0,72.3 183.8,74.4 184.6,76.4 185.5,78.5 186.3,80.6 187.1,82.7 187.9,84.8 188.7,86.8 189.5,88.9 190.3,90.9 191.1,93.0 191.9,95.0 192.7,97.0 193.5,99.0 194.3,101.0 195.1,103.0 195.9,105.0 196.7,106.9 197.5,108.8 198.3,110.6 199.1,112.5 199.9,114.3 200.7,116.1 201.5,117.8 202.3,119.5 203.1,121.2 203.9,122.9 204.7,124.5 205.5,126.1 206.4,127.6 207.2,129.1 208.0,130.6 208.8,132.0 209.6,133.4 210.4,134.8 211.2,136.1 212.0,137.4 212.8,138.6 213.6,139.8 214.4,141.0 215.2,142.1 216.0,143.2 216.8,144.2 217.6,145.2 218.4,146.2 219.2,147.2 220.0,148.1 220.8,149.0 221.6,149.9 222.4,150.7 223.2,151.4 224.0,152.2 224.8,152.9 225.6,153.6 226.5,154.2 227.3,154.9 228.1,155.5 228.9,156.1 229.7,156.7 230.5,157.2 231.3,157.6 232.1,158.1 232.9,158.5 233.7,159.0 234.5,159.4 235.3,159.8 236.1,160.2 236.9,160.6 237.7,160.9 238.5,161.2 239.3,161.5 240.1,161.8 240.9,162.0 241.7,162.2 242.5,162.5 243.3,162.7 244.1,163.0 244.9,163.2 245.7,163.5 246.5,163.7 247.4,163.8 248.2,163.9 249.0,164.0 249.8,164.0 250.6,164.1 251.4,164.3 252.2,164.4 253.0,164.7 253.8,164.9 254.6,165.2 255.4,165.4 256.2,165.7 257.0,165.8 L257.0,166.0 Z" fill="#4a90d9" fill-opacity="0.06"/>
  <polyline points="52.0,165.8 52.8,165.7 53.6,165.4 54.4,165.2 55.2,164.9 56.0,164.7 56.8,164.4 57.6,164.3 58.4,164.1 59.2,164.0 60.0,164.0 60.8,163.9 61.6,163.8 62.5,163.7 63.3,163.5 64.1,163.2 64.9,163.0 65.7,162.7 66.5,162.5 67.3,162.2 68.1,162.0 68.9,161.8 69.7,161.5 70.5,161.2 71.3,160.9 72.1,160.6 72.9,160.2 73.7,159.8 74.5,159.4 75.3,159.0 76.1,158.5 76.9,158.1 77.7,157.6 78.5,157.2 79.3,156.7 80.1,156.1 80.9,155.5 81.7,154.9 82.5,154.2 83.4,153.6 84.2,152.9 85.0,152.2 85.8,151.4 86.6,150.7 87.4,149.9 88.2,149.0 89.0,148.1 89.8,147.2 90.6,146.2 91.4,145.2 92.2,144.2 93.0,143.2 93.8,142.1 94.6,141.0 95.4,139.8 96.2,138.6 97.0,137.4 97.8,136.1 98.6,134.8 99.4,133.4 100.2,132.0 101.0,130.6 101.8,129.1 102.6,127.6 103.5,126.1 104.3,124.5 105.1,122.9 105.9,121.2 106.7,119.5 107.5,117.8 108.3,116.1 109.1,114.3 109.9,112.5 110.7,110.6 111.5,108.8 112.3,106.9 113.1,105.0 113.9,103.0 114.7,101.0 115.5,99.0 116.3,97.0 117.1,95.0 117.9,93.0 118.7,90.9 119.5,88.9 120.3,86.8 121.1,84.8 121.9,82.7 122.7,80.6 123.5,78.5 124.4,76.4 125.2,74.4 126.0,72.3 126.8,70.3 127.6,68.3 128.4,66.3 129.2,64.3 130.0,62.3 130.8,60.4 131.6,58.5 132.4,56.6 133.2,54.8 134.0,53.0 134.8,51.2 135.6,49.5 136.4,47.9 137.2,46.3 138.0,44.7 138.8,43.2 139.6,41.8 140.4,40.4 141.2,39.0 142.0,37.8 142.8,36.6 143.6,35.5 144.5,34.5 145.3,33.5 146.1,32.6 146.9,31.8 147.7,31.0 148.5,30.3 149.3,29.7 150.1,29.2 150.9,28.8 151.7,28.5 152.5,28.2 153.3,28.1 154.1,28.0 154.9,28.0 155.7,28.1 156.5,28.2 157.3,28.5 158.1,28.8 158.9,29.2 159.7,29.7 160.5,30.3 161.3,31.0 162.1,31.8 162.9,32.6 163.7,33.5 164.5,34.5 165.4,35.5 166.2,36.6 167.0,37.8 167.8,39.0 168.6,40.4 169.4,41.8 170.2,43.2 171.0,44.7 171.8,46.3 172.6,47.9 173.4,49.5 174.2,51.2 175.0,53.0 175.8,54.8 176.6,56.6 177.4,58.5 178.2,60.4 179.0,62.3 179.8,64.3 180.6,66.3 181.4,68.3 182.2,70.3 183.0,72.3 183.8,74.4 184.6,76.4 185.5,78.5 186.3,80.6 187.1,82.7 187.9,84.8 188.7,86.8 189.5,88.9 190.3,90.9 191.1,93.0 191.9,95.0 192.7,97.0 193.5,99.0 194.3,101.0 195.1,103.0 195.9,105.0 196.7,106.9 197.5,108.8 198.3,110.6 199.1,112.5 199.9,114.3 200.7,116.1 201.5,117.8 202.3,119.5 203.1,121.2 203.9,122.9 204.7,124.5 205.5,126.1 206.4,127.6 207.2,129.1 208.0,130.6 208.8,132.0 209.6,133.4 210.4,134.8 211.2,136.1 212.0,137.4 212.8,138.6 213.6,139.8 214.4,141.0 215.2,142.1 216.0,143.2 216.8,144.2 217.6,145.2 218.4,146.2 219.2,147.2 220.0,148.1 220.8,149.0 221.6,149.9 222.4,150.7 223.2,151.4 224.0,152.2 224.8,152.9 225.6,153.6 226.5,154.2 227.3,154.9 228.1,155.5 228.9,156.1 229.7,156.7 230.5,157.2 231.3,157.6 232.1,158.1 232.9,158.5 233.7,159.0 234.5,159.4 235.3,159.8 236.1,160.2 236.9,160.6 237.7,160.9 238.5,161.2 239.3,161.5 240.1,161.8 240.9,162.0 241.7,162.2 242.5,162.5 243.3,162.7 244.1,163.0 244.9,163.2 245.7,163.5 246.5,163.7 247.4,163.8 248.2,163.9 249.0,164.0 249.8,164.0 250.6,164.1 251.4,164.3 252.2,164.4 253.0,164.7 253.8,164.9 254.6,165.2 255.4,165.4 256.2,165.7 257.0,165.8" fill="none" stroke="#4a90d9" stroke-width="1.2" stroke-linejoin="round"/>
  <line x1="322" y1="28.0" x2="527" y2="28.0" stroke="#e5e7eb" stroke-width="0.5"/>
  <text x="318" y="31.0" text-anchor="end" font-size="7.5" fill="#6b7280">0</text>
  <line x1="322" y1="74.0" x2="527" y2="74.0" stroke="#e5e7eb" stroke-width="0.5"/>
  <text x="318" y="77.0" text-anchor="end" font-size="7.5" fill="#6b7280">-40</text>
  <line x1="322" y1="120.0" x2="527" y2="120.0" stroke="#e5e7eb" stroke-width="0.5"/>
  <text x="318" y="123.0" text-anchor="end" font-size="7.5" fill="#6b7280">-80</text>
  <line x1="322" y1="166.0" x2="527" y2="166.0" stroke="#e5e7eb" stroke-width="0.5"/>
  <text x="318" y="169.0" text-anchor="end" font-size="7.5" fill="#6b7280">-120</text>
  <line x1="322.0" y1="28" x2="322.0" y2="166" stroke="#e5e7eb" stroke-width="0.5"/>
  <text x="322.0" y="178" text-anchor="middle" font-size="7.5" fill="#6b7280">0</text>
  <line x1="363.0" y1="28" x2="363.0" y2="166" stroke="#e5e7eb" stroke-width="0.5"/>
  <text x="363.0" y="178" text-anchor="middle" font-size="7.5" fill="#6b7280">0.1</text>
  <line x1="404.0" y1="28" x2="404.0" y2="166" stroke="#e5e7eb" stroke-width="0.5"/>
  <text x="404.0" y="178" text-anchor="middle" font-size="7.5" fill="#6b7280">0.2</text>
  <line x1="445.0" y1="28" x2="445.0" y2="166" stroke="#e5e7eb" stroke-width="0.5"/>
  <text x="445.0" y="178" text-anchor="middle" font-size="7.5" fill="#6b7280">0.3</text>
  <line x1="486.0" y1="28" x2="486.0" y2="166" stroke="#e5e7eb" stroke-width="0.5"/>
  <text x="486.0" y="178" text-anchor="middle" font-size="7.5" fill="#6b7280">0.4</text>
  <line x1="527.0" y1="28" x2="527.0" y2="166" stroke="#e5e7eb" stroke-width="0.5"/>
  <text x="527.0" y="178" text-anchor="middle" font-size="7.5" fill="#6b7280">0.5</text>
  <line x1="322" y1="28" x2="322" y2="166" stroke="#d1d5db" stroke-width="0.75"/>
  <line x1="322" y1="166" x2="527" y2="166" stroke="#d1d5db" stroke-width="0.75"/>
  <polyline points="322.0,28.0 322.1,28.0 322.2,28.1 322.3,28.2 322.4,28.3 322.5,28.5 322.6,28.7 322.7,28.9 322.8,29.2 322.9,29.5 323.0,29.9 323.1,30.3 323.2,30.7 323.3,31.2 323.4,31.7 323.5,32.3 323.6,32.8 323.7,33.5 323.8,34.1 323.9,34.9 324.0,35.6 324.1,36.4 324.2,37.2 324.3,38.1 324.4,39.0 324.5,39.9 324.6,40.9 324.7,42.0 324.8,43.0 324.9,44.1 325.0,45.3 325.1,46.4 325.2,47.7 325.3,48.9 325.4,50.2 325.5,51.5 325.6,52.8 325.7,54.2 325.8,55.6 325.9,57.0 326.0,58.4 326.1,59.9 326.2,61.4 326.3,62.9 326.4,64.4 326.5,66.0 326.6,67.6 326.7,69.3 326.8,71.1 326.9,72.9 327.0,74.8 327.1,76.9 327.2,79.2 327.3,81.6 327.4,84.4 327.5,87.6 327.6,91.5 327.7,96.4 327.8,103.7 327.9,121.8 328.0,111.5 328.1,105.0 328.2,102.6 328.3,101.9 328.4,102.3 328.5,104.0 328.6,107.1 328.7,113.5 328.8,166.0 328.9,112.9 329.0,106.0 329.1,102.1 329.2,99.6 329.3,97.9 329.4,96.8 329.5,96.1 329.6,95.9 329.7,96.0 329.8,96.6 329.9,97.5 330.0,99.0 330.1,101.2 330.2,104.4 330.3,109.8 330.4,123.2 330.5,117.3 330.6,108.2 330.7,103.8 330.8,101.2 330.9,99.4 331.0,98.3 331.1,97.6 331.2,97.4 331.3,97.6 331.4,98.1 331.5,99.1 331.6,100.7 331.7,103.0 331.8,106.4 331.9,112.2 332.0,128.9 332.1,117.0 332.2,108.9 332.3,104.8 332.4,102.2 332.5,100.5 332.6,99.5 332.7,98.8 332.8,98.6 332.9,98.8 333.0,99.4 333.1,100.4 333.2,102.0 333.3,104.3 333.4,107.7 333.5,113.6 333.6,131.0 333.7,118.0 333.8,110.0 333.9,106.0 334.0,103.4 334.1,101.7 334.2,100.6 334.3,100.0 334.4,99.8 334.5,100.0 334.6,100.5 334.7,101.5 334.8,103.1 334.9,105.3 335.0,108.6 335.1,114.3 335.2,129.7 335.3,119.9 335.4,111.5 335.5,107.3 335.6,104.7 335.7,102.9 335.8,101.8 335.9,101.1 336.0,100.9 336.1,101.0 336.2,101.5 336.3,102.4 336.4,103.9 336.5,106.0 336.6,109.2 336.7,114.5 336.8,127.1 336.9,122.7 337.0,113.2 337.1,108.7 337.2,105.9 337.3,104.1 337.4,102.9 337.5,102.1 337.6,101.8 337.7,101.9 337.8,102.4 337.9,103.2 338.0,104.6 338.1,106.6 338.2,109.5 338.3,114.3 338.4,124.5 338.5,126.8 338.6,115.2 338.7,110.2 338.8,107.2 338.9,105.3 339.0,103.9 339.1,103.1 339.2,102.7 339.3,102.7 339.4,103.1 339.5,103.9 339.6,105.1 339.7,107.0 339.8,109.7 339.9,113.9 340.0,122.2 340.1,133.9 340.2,117.5 340.3,111.9 340.4,108.6 340.5,106.4 340.6,105.0 340.7,104.1 340.8,103.6 340.9,103.5 341.0,103.8 341.1,104.5 341.2,105.6 341.3,107.3 341.4,109.7 341.5,113.5 341.6,120.2 341.7,166.0 341.8,120.5 341.9,113.8 342.0,110.1 342.1,107.7 342.2,106.1 342.3,105.0 342.4,104.4 342.5,104.2 342.6,104.4 342.7,105.0 342.8,106.0 342.9,107.5 343.0,109.7 343.1,113.0 343.2,118.5 343.3,133.3 343.4,124.6 343.5,115.9 343.6,111.7 343.7,109.0 343.8,107.2 343.9,106.0 344.0,105.3 344.1,104.9 344.2,105.0 344.3,105.4 344.4,106.3 344.5,107.6 344.6,109.6 344.7,112.4 344.8,117.0 344.9,126.6 345.0,131.2 345.1,118.6 345.2,113.5 345.3,110.4 345.4,108.3 345.5,107.0 345.6,106.1 345.7,105.6 345.8,105.6 345.9,105.9 346.0,106.6 346.1,107.7 346.2,109.4 346.3,111.9 346.4,115.7 346.5,122.6 346.6,158.6 346.7,122.2 346.8,115.6 346.9,112.0 347.0,109.6 347.1,108.0 347.2,107.0 347.3,106.4 347.4,106.1 347.5,106.3 347.6,106.8 347.7,107.8 347.8,109.2 347.9,111.4 348.0,114.5 348.1,119.8 348.2,132.6 348.3,127.8 348.4,118.3 348.5,113.8 348.6,111.0 348.7,109.1 348.8,107.9 348.9,107.1 349.0,106.7 349.1,106.7 349.2,107.1 349.3,107.8 349.4,109.0 349.5,110.8 349.6,113.5 349.7,117.5 349.8,125.2 349.9,141.8 350.0,122.1 350.1,116.2 350.2,112.7 350.3,110.4 350.4,108.9 350.5,107.9 350.6,107.4 350.7,107.2 350.8,107.3 350.9,107.9 351.0,108.9 351.1,110.3 351.2,112.5 351.3,115.7 351.4,120.9 351.5,134.0 351.6,128.6 351.7,119.3 351.8,114.8 351.9,112.0 352.0,110.1 352.1,108.9 352.2,108.1 352.3,107.7 352.4,107.6 352.5,108.0 352.6,108.7 352.7,109.8 352.8,111.5 352.9,114.0 353.0,117.8 353.1,124.7 353.2,166.0 353.3,124.4 353.4,117.8 353.5,114.1 353.6,111.7 353.7,110.0 353.8,108.9 353.9,108.3 354.0,108.0 354.1,108.1 354.2,108.5 354.3,109.4 354.4,110.7 354.5,112.5 354.6,115.3 354.7,119.6 354.8,128.2 354.9,137.9 355.0,122.6 355.1,117.1 355.2,113.8 355.3,111.6 355.4,110.1 355.5,109.1 355.6,108.6 355.7,108.3 355.8,108.5 355.9,109.0 356.0,109.8 356.1,111.2 356.3,113.1 356.4,116.0 356.5,120.5 356.6,129.6 356.7,136.0 356.8,122.5 356.9,117.2 357.0,114.0 357.1,111.9 357.2,110.4 357.3,109.4 357.4,108.8 357.5,108.6 357.6,108.7 357.7,109.1 357.8,109.9 357.9,111.2 358.0,113.0 358.1,115.6 358.2,119.5 358.3,126.8 358.4,149.5 358.5,125.0 358.6,118.7 358.7,115.1 358.8,112.7 358.9,111.1 359.0,109.9 359.1,109.2 359.2,108.8 359.3,108.7 359.4,108.9 359.5,109.4 359.6,110.3 359.7,111.7 359.8,113.5 359.9,116.1 360.0,120.1 360.1,127.5 360.2,149.5 360.3,125.5 360.4,119.2 360.5,115.6 360.6,113.1 360.7,111.4 360.8,110.1 360.9,109.2 361.0,108.6 361.1,108.3 361.2,108.2 361.3,108.3 361.4,108.5 361.5,109.0 361.6,109.8 361.7,110.7 361.8,111.8 361.9,113.2 362.0,115.0 362.1,117.1 362.2,119.7 362.3,123.0 362.4,127.5 362.5,134.5 362.6,156.4 362.7,139.3 362.8,132.8 362.9,129.9 363.0,128.4 363.1,127.9 363.2,128.1 363.3,129.0 363.4,130.5 363.5,132.8 363.6,136.5 363.7,142.9 363.8,165.6 363.9,145.8 364.0,138.8 364.1,135.2 364.2,133.2 364.3,132.0 364.4,131.5 364.5,131.5 364.6,132.1 364.7,133.3 364.8,135.2 364.9,138.2 365.0,143.1 365.1,154.1 365.2,153.9 365.3,143.3 365.4,138.7 365.5,135.9 365.6,134.2 365.7,133.2 365.8,132.7 365.9,132.7 366.0,133.2 366.1,134.2 366.2,135.8 366.3,138.3 366.4,142.3 366.5,149.6 366.6,166.0 366.7,147.6 366.8,141.5 366.9,138.1 367.0,136.0 367.1,134.6 367.2,133.8 367.3,133.5 367.4,133.7 367.5,134.3 367.6,135.4 367.7,137.1 367.8,139.8 367.9,144.0 368.0,152.4 368.1,163.2 368.2,147.4 368.3,141.8 368.4,138.6 368.5,136.6 368.6,135.3 368.7,134.5 368.8,134.2 368.9,134.3 369.0,134.9 369.1,136.0 369.2,137.7 369.3,140.3 369.4,144.3 369.5,151.9 369.6,166.0 369.7,149.0 369.8,143.0 369.9,139.7 370.0,137.5 370.1,136.1 370.2,135.2 370.3,134.8 370.4,134.9 370.5,135.4 370.6,136.3 370.7,137.8 370.8,140.1 370.9,143.6 371.0,149.8 371.1,166.0 371.2,152.3 371.3,144.9 371.4,141.0 371.5,138.6 371.6,137.0 371.7,136.0 371.8,135.4 371.9,135.4 372.0,135.7 372.1,136.4 372.2,137.7 372.3,139.7 372.4,142.6 372.5,147.5 372.6,158.2 372.7,158.6 372.8,147.7 372.9,142.9 373.0,140.0 373.1,138.1 373.2,136.8 373.3,136.1 373.4,135.8 373.5,136.0 373.6,136.5 373.7,137.6 373.8,139.2 373.9,141.6 374.0,145.4 374.1,152.2 374.2,166.0 374.3,151.9 374.4,145.3 374.5,141.7 374.6,139.3 374.7,137.8 374.8,136.8 374.9,136.4 375.0,136.3 375.1,136.6 375.2,137.4 375.3,138.7 375.4,140.7 375.5,143.6 375.6,148.4 375.7,159.1 375.8,159.7 375.9,148.7 376.0,143.9 376.1,140.9 376.2,139.0 376.3,137.7 376.4,137.0 376.5,136.7 376.6,136.8 376.7,137.3 376.8,138.3 376.9,139.8 377.0,142.1 377.1,145.7 377.2,152.0 377.3,166.0 377.4,154.1 377.5,146.8 377.6,142.9 377.7,140.4 377.8,138.8 377.9,137.8 378.0,137.2 378.1,137.1 378.2,137.3 378.3,138.0 378.4,139.2 378.5,141.0 378.6,143.7 378.7,147.9 378.8,156.4 378.9,166.0 379.0,151.1 379.1,145.5 379.2,142.3 379.3,140.1 379.4,138.7 379.5,137.9 379.6,137.5 379.7,137.5 379.8,137.9 379.9,138.7 380.0,140.1 380.1,142.1 380.2,145.2 380.3,150.4 380.4,162.9 380.5,158.7 380.6,149.1 380.7,144.6 380.8,141.8 380.9,140.0 381.0,138.8 381.1,138.0 381.2,137.8 381.3,137.9 381.4,138.4 381.5,139.4 381.6,141.0 381.7,143.3 381.8,146.9 381.9,153.2 382.0,166.0 382.1,155.0 382.2,147.8 382.3,144.0 382.4,141.5 382.5,139.9 382.6,138.8 382.7,138.2 382.8,138.1 382.9,138.3 383.0,139.0 383.1,140.1 383.2,141.9 383.3,144.5 383.4,148.6 383.5,156.5 383.6,166.0 383.7,152.7 383.8,146.9 383.9,143.5 384.0,141.3 384.1,139.8 384.2,138.9 384.3,138.5 384.4,138.4 384.5,138.8 384.6,139.5 384.7,140.8 384.8,142.8 384.9,145.7 385.0,150.4 385.1,160.6 385.2,162.6 385.3,151.1 385.4,146.1 385.5,143.1 385.6,141.2 385.7,139.9 385.8,139.1 385.9,138.7 386.0,138.8 386.1,139.2 386.2,140.1 386.3,141.5 386.4,143.7 386.5,146.9 386.6,152.4 386.7,166.0 386.8,158.6 386.9,149.9 387.0,145.6 387.1,142.9 387.2,141.1 387.3,139.9 387.4,139.2 387.5,139.0 387.6,139.1 387.7,139.7 387.8,140.7 387.9,142.2 388.0,144.6 388.1,148.1 388.2,154.5 388.3,166.0 388.4,156.1 388.5,149.0 388.6,145.1 388.7,142.7 388.8,141.0 388.9,140.0 389.0,139.4 389.1,139.2 389.2,139.5 389.3,140.1 389.4,141.2 389.5,142.9 389.6,145.5 389.7,149.4 389.8,156.9 389.9,166.0 390.0,154.4 390.1,148.3 390.2,144.8 390.3,142.5 390.4,141.0 390.5,140.1 390.6,139.6 390.7,139.5 390.8,139.8 390.9,140.5 391.0,141.8 391.1,143.6 391.2,146.4 391.3,150.8 391.4,159.7 391.5,166.0 391.6,153.1 391.7,147.7 391.8,144.5 391.9,142.5 392.0,141.1 392.1,140.2 392.2,139.8 392.3,139.8 392.4,140.2 392.5,141.0 392.6,142.3 392.7,144.3 392.8,147.3 392.9,152.2 393.0,163.2 393.1,162.7 393.2,152.0 393.3,147.3 393.4,144.3 393.5,142.4 393.6,141.1 393.7,140.3 393.8,140.0 393.9,140.1 394.0,140.5 394.1,141.4 394.2,142.8 394.3,145.0 394.4,148.2 394.5,153.6 394.6,166.0 394.7,160.0 394.8,151.2 394.9,146.9 395.0,144.2 395.1,142.4 395.2,141.2 395.3,140.5 395.4,140.2 395.5,140.3 395.6,140.9 395.7,141.8 395.8,143.4 395.9,145.6 396.0,149.1 396.1,155.2 396.2,166.0 396.3,158.1 396.4,150.6 396.5,146.6 396.6,144.0 396.7,142.4 396.8,141.3 396.9,140.6 397.0,140.4 397.1,140.6 397.2,141.2 397.3,142.3 397.4,143.9 397.5,146.3 397.6,150.1 397.7,156.9 397.8,166.0 397.9,156.6 398.0,150.0 398.1,146.3 398.2,144.0 398.3,142.4 398.4,141.4 398.5,140.8 398.6,140.6 398.7,140.9 398.8,141.6 398.9,142.7 399.0,144.4 399.1,147.0 399.2,151.0 399.3,158.7 399.4,166.0 399.5,155.5 399.6,149.5 399.7,146.1 399.8,143.9 399.9,142.4 400.0,141.5 400.1,141.0 400.2,140.9 400.3,141.2 400.4,141.9 400.5,143.1 400.6,144.9 400.7,147.7 400.8,152.0 400.9,160.8 401.0,166.0 401.1,154.6 401.2,149.2 401.3,145.9 401.4,143.8 401.5,142.4 401.6,141.6 401.7,141.1 401.8,141.1 401.9,141.4 402.0,142.2 402.1,143.5 402.2,145.5 402.3,148.4 402.4,153.0 402.5,163.2 402.6,165.5 402.7,153.8 402.8,148.8 402.9,145.8 403.0,143.8 403.1,142.5 403.2,141.7 403.3,141.3 403.4,141.3 403.5,141.7 403.6,142.6 403.7,143.9 403.8,146.0 403.9,149.0 404.0,154.1 404.1,166.0 404.2,163.1 404.3,153.2 404.4,148.5 404.5,145.7 404.6,143.8 404.7,142.5 404.8,141.8 404.9,141.5 405.0,141.5 405.1,142.0 405.2,142.9 405.3,144.3 405.4,146.5 405.5,149.7 405.6,155.2 405.7,166.0 405.8,161.3 405.9,152.6 406.0,148.3 406.1,145.6 406.2,143.8 406.3,142.6 406.4,141.9 406.5,141.6 406.6,141.7 406.7,142.3 406.8,143.2 406.9,144.7 407.0,147.0 407.1,150.4 407.2,156.3 407.3,166.0 407.4,160.0 407.5,152.2 407.6,148.1 407.7,145.5 407.8,143.8 407.9,142.7 408.0,142.0 408.1,141.8 408.2,142.0 408.3,142.5 408.4,143.5 408.5,145.1 408.6,147.5 408.7,151.1 408.8,157.5 408.9,166.0 409.0,158.8 409.1,151.8 409.2,147.9 409.3,145.5 409.4,143.8 409.5,142.8 409.6,142.2 409.7,142.0 409.8,142.2 409.9,142.8 410.0,143.9 410.1,145.5 410.2,148.0 410.3,151.8 410.4,158.8 410.5,166.0 410.6,157.9 410.7,151.4 410.8,147.8 410.9,145.4 411.0,143.9 411.1,142.8 411.2,142.3 411.3,142.1 411.4,142.4 411.5,143.0 411.6,144.2 411.7,145.9 411.8,148.5 411.9,152.5 412.0,160.1 412.1,166.0 412.2,157.1 412.3,151.1 412.4,147.6 412.5,145.4 412.6,143.9 412.7,142.9 412.8,142.4 412.9,142.3 413.0,142.6 413.1,143.3 413.2,144.5 413.3,146.3 413.4,149.0 413.5,153.2 413.6,161.5 413.7,166.0 413.8,156.4 413.9,150.8 414.0,147.5 414.1,145.4 414.2,143.9 414.3,143.0 414.4,142.6 414.5,142.5 414.6,142.8 414.7,143.6 414.8,144.8 414.9,146.7 415.0,149.5 415.1,153.9 415.2,163.1 415.3,166.0 415.4,155.9 415.5,150.6 415.6,147.4 415.7,145.4 415.8,144.0 415.9,143.1 416.0,142.7 416.1,142.7 416.2,143.0 416.3,143.8 416.4,145.1 416.5,147.0 416.6,149.9 416.7,154.7 416.8,164.9 416.9,166.0 417.0,155.3 417.1,150.4 417.2,147.3 417.3,145.3 417.4,144.0 417.5,143.2 417.6,142.8 417.7,142.8 417.8,143.2 417.9,144.1 418.0,145.4 418.1,147.4 418.2,150.4 418.3,155.4 418.4,166.0 418.5,165.2 418.6,154.9 418.7,150.2 418.8,147.3 418.9,145.4 419.0,144.1 419.1,143.3 419.2,142.9 419.3,143.0 419.4,143.4 419.5,144.3 419.6,145.7 419.7,147.8 419.8,150.9 419.9,156.2 420.0,166.0 420.1,163.8 420.2,154.5 420.3,150.0 420.4,147.2 420.5,145.4 420.6,144.1 420.7,143.4 420.8,143.1 420.9,143.2 421.0,143.6 421.1,144.5 421.2,146.0 421.3,148.1 421.4,151.4 421.5,157.0 421.6,166.0 421.7,162.7 421.8,154.1 421.9,149.9 422.0,147.2 422.1,145.4 422.2,144.2 422.3,143.5 422.4,143.2 422.5,143.3 422.6,143.8 422.7,144.8 422.8,146.3 422.9,148.5 423.0,151.9 423.1,157.8 423.2,166.0 423.3,161.7 423.4,153.8 423.5,149.7 423.6,147.1 423.7,145.4 423.8,144.2 423.9,143.6 424.0,143.3 424.1,143.5 424.2,144.0 424.3,145.0 424.4,146.6 424.6,148.9 424.7,152.4 424.8,158.6 424.9,166.0 425.0,160.9 425.1,153.5 425.2,149.6 425.3,147.1 425.4,145.4 425.5,144.3 425.6,143.7 425.7,143.5 425.8,143.6 425.9,144.2 426.0,145.3 426.1,146.8 426.2,149.2 426.3,152.9 426.4,159.4 426.5,166.0 426.6,160.2 426.7,153.3 426.8,149.5 426.9,147.1 427.0,145.4 427.1,144.4 427.2,143.8 427.3,143.6 427.4,143.8 427.5,144.4 427.6,145.5 427.7,147.1 427.8,149.6 427.9,153.4 428.0,160.3 428.1,166.0 428.2,159.5 428.3,153.0 428.4,149.4 428.5,147.0 428.6,145.5 428.7,144.4 428.8,143.9 428.9,143.7 429.0,144.0 429.1,144.6 429.2,145.7 429.3,147.4 429.4,149.9 429.5,153.9 429.6,161.3 429.7,166.0 429.8,159.0 429.9,152.8 430.0,149.3 430.1,147.0 430.2,145.5 430.3,144.5 430.4,144.0 430.5,143.8 430.6,144.1 430.7,144.8 430.8,145.9 430.9,147.7 431.0,150.3 431.1,154.4 431.2,162.3 431.3,166.0 431.4,158.5 431.5,152.6 431.6,149.2 431.7,147.0 431.8,145.5 431.9,144.6 432.0,144.1 432.1,144.0 432.2,144.3 432.3,145.0 432.4,146.2 432.5,148.0 432.6,150.6 432.7,154.9 432.8,163.3 432.9,166.0 433.0,158.0 433.1,152.4 433.2,149.1 433.3,147.0 433.4,145.5 433.5,144.6 433.6,144.2 433.7,144.1 433.8,144.4 433.9,145.2 434.0,146.4 434.1,148.2 434.2,151.0 434.3,155.4 434.4,164.4 434.5,166.0 434.6,157.6 434.7,152.3 434.8,149.1 434.9,147.0 435.0,145.6 435.1,144.7 435.2,144.3 435.3,144.2 435.4,144.6 435.5,145.3 435.6,146.6 435.7,148.5 435.8,151.3 435.9,155.9 436.0,165.6 436.1,166.0 436.2,157.2 436.3,152.1 436.4,149.0 436.5,147.0 436.6,145.6 436.7,144.8 436.8,144.4 436.9,144.3 437.0,144.7 437.1,145.5 437.2,146.8 437.3,148.8 437.4,151.7 437.5,156.4 437.6,166.0 437.7,166.0 437.8,156.9 437.9,152.0 438.0,149.0 438.1,147.0 438.2,145.7 438.3,144.8 438.4,144.4 438.5,144.5 438.6,144.9 438.7,145.7 438.8,147.0 438.9,149.0 439.0,152.0 439.1,157.0 439.2,166.0 439.3,166.0 439.4,156.6 439.5,151.8 439.6,148.9 439.7,147.0 439.8,145.7 439.9,144.9 440.0,144.5 440.1,144.6 440.2,145.0 440.3,145.9 440.4,147.2 440.5,149.3 440.6,152.4 440.7,157.5 440.8,166.0 440.9,166.0 441.0,156.3 441.1,151.7 441.2,148.9 441.3,147.0 441.4,145.7 441.5,145.0 441.6,144.6 441.7,144.7 441.8,145.1 441.9,146.0 442.0,147.4 442.1,149.5 442.2,152.7 442.3,158.0 442.4,166.0 442.5,165.1 442.6,156.0 442.7,151.6 442.8,148.8 442.9,147.0 443.0,145.8 443.1,145.0 443.2,144.7 443.3,144.8 443.4,145.3 443.5,146.2 443.6,147.6 443.7,149.8 443.8,153.1 443.9,158.6 444.0,166.0 444.1,164.3 444.2,155.8 444.3,151.5 444.4,148.8 444.5,147.0 444.6,145.8 444.7,145.1 444.8,144.8 444.9,144.9 445.0,145.4 445.1,146.4 445.2,147.8 445.3,150.0 445.4,153.4 445.5,159.1 445.6,166.0 445.7,163.6 445.8,155.5 445.9,151.4 446.0,148.8 446.1,147.0 446.2,145.8 446.3,145.2 446.4,144.9 446.5,145.0 446.6,145.5 446.7,146.5 446.8,148.0 446.9,150.3 447.0,153.7 447.1,159.7 447.2,166.0 447.3,163.0 447.4,155.3 447.5,151.3 447.6,148.7 447.7,147.0 447.8,145.9 447.9,145.2 448.0,145.0 448.1,145.1 448.2,145.7 448.3,146.7 448.4,148.2 448.5,150.5 448.6,154.1 448.7,160.3 448.8,166.0 448.9,162.4 449.0,155.1 449.1,151.2 449.2,148.7 449.3,147.0 449.4,145.9 449.5,145.3 449.6,145.1 449.7,145.2 449.8,145.8 449.9,146.8 450.0,148.4 450.1,150.8 450.2,154.4 450.3,160.9 450.4,166.0 450.5,161.9 450.6,154.9 450.7,151.1 450.8,148.7 450.9,147.0 451.0,146.0 451.1,145.4 451.2,145.2 451.3,145.3 451.4,145.9 451.5,147.0 451.6,148.6 451.7,151.0 451.8,154.8 451.9,161.5 452.0,166.0 452.1,161.5 452.2,154.8 452.3,151.0 452.4,148.6 452.5,147.0 452.6,146.0 452.7,145.4 452.8,145.2 452.9,145.5 453.0,146.1 453.1,147.2 453.2,148.8 453.3,151.3 453.4,155.1 453.5,162.2 453.6,166.0 453.7,161.0 453.8,154.6 453.9,151.0 454.0,148.6 454.1,147.1 454.2,146.0 454.3,145.5 454.4,145.3 454.5,145.6 454.6,146.2 454.7,147.3 454.8,149.0 454.9,151.5 455.0,155.5 455.1,162.8 455.2,166.0 455.3,160.6 455.4,154.4 455.5,150.9 455.6,148.6 455.7,147.1 455.8,146.1 455.9,145.5 456.0,145.4 456.1,145.7 456.2,146.3 456.3,147.5 456.4,149.2 456.5,151.8 456.6,155.8 456.7,163.5 456.8,166.0 456.9,160.2 457.0,154.3 457.1,150.8 457.2,148.6 457.3,147.1 457.4,146.1 457.5,145.6 457.6,145.5 457.7,145.8 457.8,146.4 457.9,147.6 458.0,149.4 458.1,152.0 458.2,156.2 458.3,164.2 458.4,166.0 458.5,159.9 458.6,154.1 458.7,150.8 458.8,148.6 458.9,147.1 459.0,146.2 459.1,145.7 459.2,145.6 459.3,145.9 459.4,146.6 459.5,147.8 459.6,149.6 459.7,152.3 459.8,156.5 459.9,165.0 460.0,166.0 460.1,159.6 460.2,154.0 460.3,150.7 460.4,148.5 460.5,147.1 460.6,146.2 460.7,145.7 460.8,145.6 460.9,146.0 461.0,146.7 461.1,147.9 461.2,149.7 461.3,152.5 461.4,156.9 461.5,165.7 461.6,166.0 461.7,159.3 461.8,153.9 461.9,150.6 462.0,148.5 462.1,147.1 462.2,146.2 462.3,145.8 462.4,145.7 462.5,146.1 462.6,146.8 462.7,148.1 462.8,149.9 462.9,152.7 463.0,157.2 463.1,166.0 463.2,166.0 463.3,159.0 463.4,153.7 463.5,150.6 463.6,148.5 463.7,147.1 463.8,146.3 463.9,145.8 464.0,145.8 464.1,146.1 464.2,146.9 464.3,148.2 464.4,150.1 464.5,153.0 464.6,157.6 464.7,166.0 464.8,166.0 464.9,158.7 465.0,153.6 465.1,150.5 465.2,148.5 465.3,147.1 465.4,146.3 465.5,145.9 465.6,145.9 465.7,146.2 465.8,147.0 465.9,148.3 466.0,150.3 466.1,153.2 466.2,157.9 466.3,166.0 466.4,166.0 466.5,158.4 466.6,153.5 466.7,150.5 466.8,148.5 466.9,147.2 467.0,146.3 467.1,145.9 467.2,145.9 467.3,146.3 467.4,147.2 467.5,148.5 467.6,150.5 467.7,153.4 467.8,158.3 467.9,166.0 468.0,166.0 468.1,158.2 468.2,153.4 468.3,150.4 468.4,148.5 468.5,147.2 468.6,146.4 468.7,146.0 468.8,146.0 468.9,146.4 469.0,147.3 469.1,148.6 469.2,150.6 469.3,153.7 469.4,158.7 469.5,166.0 469.6,166.0 469.7,158.0 469.8,153.3 469.9,150.4 470.0,148.5 470.1,147.2 470.2,146.4 470.3,146.1 470.4,146.1 470.5,146.5 470.6,147.4 470.7,148.8 470.8,150.8 470.9,153.9 471.0,159.1 471.1,166.0 471.2,166.0 471.3,157.7 471.4,153.2 471.5,150.3 471.6,148.5 471.7,147.2 471.8,146.4 471.9,146.1 472.0,146.2 472.1,146.6 472.2,147.5 472.3,148.9 472.4,151.0 472.5,154.1 472.6,159.4 472.7,166.0 472.8,166.0 472.9,157.5 473.0,153.1 473.1,150.3 473.2,148.4 473.3,147.2 473.4,146.5 473.5,146.2 473.6,146.2 473.7,146.7 473.8,147.6 473.9,149.0 474.0,151.2 474.1,154.4 474.2,159.8 474.3,166.0 474.4,166.0 474.5,157.3 474.6,153.0 474.7,150.3 474.8,148.4 474.9,147.2 475.0,146.5 475.1,146.2 475.2,146.3 475.3,146.8 475.4,147.7 475.5,149.2 475.6,151.3 475.7,154.6 475.8,160.2 475.9,166.0 476.0,165.5 476.1,157.1 476.2,152.9 476.3,150.2 476.4,148.4 476.5,147.2 476.6,146.5 476.7,146.3 476.8,146.4 476.9,146.9 477.0,147.8 477.1,149.3 477.2,151.5 477.3,154.9 477.4,160.6 477.5,166.0 477.6,165.0 477.7,156.9 477.8,152.8 477.9,150.2 478.0,148.4 478.1,147.2 478.2,146.6 478.3,146.3 478.4,146.4 478.5,146.9 478.6,147.9 478.7,149.4 478.8,151.7 478.9,155.1 479.0,161.0 479.1,166.0 479.2,164.5 479.3,156.8 479.4,152.7 479.5,150.1 479.6,148.4 479.7,147.3 479.8,146.6 479.9,146.3 480.0,146.5 480.1,147.0 480.2,148.0 480.3,149.5 480.4,151.8 480.5,155.3 480.6,161.4 480.7,166.0 480.8,164.1 480.9,156.6 481.0,152.6 481.1,150.1 481.2,148.4 481.3,147.3 481.4,146.6 481.5,146.4 481.6,146.5 481.7,147.1 481.8,148.1 481.9,149.7 482.0,152.0 482.1,155.6 482.2,161.9 482.3,166.0 482.4,163.6 482.5,156.4 482.6,152.5 482.7,150.0 482.8,148.4 482.9,147.3 483.0,146.7 483.1,146.4 483.2,146.6 483.3,147.2 483.4,148.2 483.5,149.8 483.6,152.2 483.7,155.8 483.8,162.3 483.9,166.0 484.0,163.2 484.1,156.3 484.2,152.4 484.3,150.0 484.4,148.4 484.5,147.3 484.6,146.7 484.7,146.5 484.8,146.7 484.9,147.3 485.0,148.3 485.1,149.9 485.2,152.3 485.3,156.0 485.4,162.7 485.5,166.0 485.6,162.8 485.7,156.1 485.8,152.4 485.9,150.0 486.0,148.3 486.1,147.3 486.2,146.7 486.3,146.5 486.4,146.7 486.5,147.3 486.6,148.4 486.7,150.0 486.8,152.5 486.9,156.3 487.0,163.2 487.1,166.0 487.2,162.5 487.3,155.9 487.4,152.3 487.5,149.9 487.6,148.3 487.7,147.3 487.8,146.7 487.9,146.6 488.0,146.8 488.1,147.4 488.2,148.5 488.3,150.2 488.4,152.7 488.5,156.5 488.6,163.7 488.7,166.0 488.8,162.1 488.9,155.8 489.0,152.2 489.1,149.9 489.2,148.3 489.3,147.3 489.4,146.8 489.5,146.6 489.6,146.8 489.7,147.5 489.8,148.6 489.9,150.3 490.0,152.8 490.1,156.8 490.2,164.2 490.3,166.0 490.4,161.8 490.5,155.6 490.6,152.1 490.7,149.8 490.8,148.3 490.9,147.3 491.0,146.8 491.1,146.6 491.2,146.9 491.3,147.6 491.4,148.7 491.5,150.4 491.6,153.0 491.7,157.0 491.8,164.7 491.9,166.0 492.0,161.5 492.1,155.5 492.2,152.1 492.3,149.8 492.4,148.3 492.5,147.3 492.6,146.8 492.7,146.7 492.9,146.9 493.0,147.6 493.1,148.8 493.2,150.5 493.3,153.1 493.4,157.3 493.5,165.2 493.6,166.0 493.7,161.2 493.8,155.4 493.9,152.0 494.0,149.8 494.1,148.3 494.2,147.3 494.3,146.8 494.4,146.7 494.5,147.0 494.6,147.7 494.7,148.9 494.8,150.6 494.9,153.3 495.0,157.5 495.1,165.7 495.2,166.0 495.3,160.9 495.4,155.2 495.5,151.9 495.6,149.7 495.7,148.3 495.8,147.3 495.9,146.8 496.0,146.7 496.1,147.0 496.2,147.8 496.3,149.0 496.4,150.8 496.5,153.5 496.6,157.7 496.7,166.0 496.8,166.0 496.9,160.6 497.0,155.1 497.1,151.8 497.2,149.7 497.3,148.2 497.4,147.3 497.5,146.9 497.6,146.8 497.7,147.1 497.8,147.8 497.9,149.0 498.0,150.9 498.1,153.6 498.2,158.0 498.3,166.0 498.4,166.0 498.5,160.4 498.6,155.0 498.7,151.8 498.8,149.6 498.9,148.2 499.0,147.3 499.1,146.9 499.2,146.8 499.3,147.1 499.4,147.9 499.5,149.1 499.6,151.0 499.7,153.8 499.8,158.3 499.9,166.0 500.0,166.0 500.1,160.1 500.2,154.8 500.3,151.7 500.4,149.6 500.5,148.2 500.6,147.3 500.7,146.9 500.8,146.8 500.9,147.2 501.0,148.0 501.1,149.2 501.2,151.1 501.3,153.9 501.4,158.5 501.5,166.0 501.6,166.0 501.7,159.9 501.8,154.7 501.9,151.6 502.0,149.6 502.1,148.2 502.2,147.3 502.3,146.9 502.4,146.9 502.5,147.2 502.6,148.0 502.7,149.3 502.8,151.2 502.9,154.1 503.0,158.8 503.1,166.0 503.2,166.0 503.3,159.6 503.4,154.6 503.5,151.5 503.6,149.5 503.7,148.2 503.8,147.3 503.9,146.9 504.0,146.9 504.1,147.3 504.2,148.1 504.3,149.4 504.4,151.3 504.5,154.3 504.6,159.0 504.7,166.0 504.8,166.0 504.9,159.4 505.0,154.5 505.1,151.5 505.2,149.5 505.3,148.2 505.4,147.3 505.5,146.9 505.6,146.9 505.7,147.3 505.8,148.1 505.9,149.5 506.0,151.4 506.1,154.4 506.2,159.3 506.3,166.0 506.4,166.0 506.5,159.2 506.6,154.4 506.7,151.4 506.8,149.4 506.9,148.1 507.0,147.3 507.1,147.0 507.2,147.0 507.3,147.4 507.4,148.2 507.5,149.6 507.6,151.6 507.7,154.6 507.8,159.6 507.9,166.0 508.0,166.0 508.1,158.9 508.2,154.2 508.3,151.3 508.4,149.4 508.5,148.1 508.6,147.3 508.7,147.0 508.8,147.0 508.9,147.4 509.0,148.3 509.1,149.6 509.2,151.7 509.3,154.8 509.4,159.9 509.5,166.0 509.6,166.0 509.7,158.7 509.8,154.1 509.9,151.3 510.0,149.4 510.1,148.1 510.2,147.3 510.3,147.0 510.4,147.0 510.5,147.5 510.6,148.3 510.7,149.7 510.8,151.8 510.9,154.9 511.0,160.1 511.1,166.0 511.2,166.0 511.3,158.5 511.4,154.0 511.5,151.2 511.6,149.3 511.7,148.1 511.8,147.3 511.9,147.0 512.0,147.0 512.1,147.5 512.2,148.4 512.3,149.8 512.4,151.9 512.5,155.1 512.6,160.4 512.7,166.0 512.8,166.0 512.9,158.3 513.0,153.9 513.1,151.1 513.2,149.3 513.3,148.1 513.4,147.3 513.5,147.0 513.6,147.1 513.7,147.5 513.8,148.4 513.9,149.9 514.0,152.0 514.1,155.2 514.2,160.7 514.3,166.0 514.4,166.0 514.5,158.1 514.6,153.8 514.7,151.1 514.8,149.2 514.9,148.0 515.0,147.3 515.1,147.0 515.2,147.1 515.3,147.6 515.4,148.5 515.5,149.9 515.6,152.1 515.7,155.4 515.8,161.0 515.9,166.0 516.0,166.0 516.1,157.9 516.2,153.7 516.3,151.0 516.4,149.2 516.5,148.0 516.6,147.3 516.7,147.0 516.8,147.1 516.9,147.6 517.0,148.6 517.1,150.0 517.2,152.2 517.3,155.6 517.4,161.3 517.5,166.0 517.6,165.8 517.7,157.7 517.8,153.5 517.9,150.9 518.0,149.1 518.1,148.0 518.2,147.3 518.3,147.0 518.4,147.1 518.5,147.6 518.6,148.6 518.7,150.1 518.8,152.3 518.9,155.7 519.0,161.6 519.1,166.0 519.2,165.4 519.3,157.5 519.4,153.4 519.5,150.8 519.6,149.1 519.7,148.0 519.8,147.3 519.9,147.0 520.0,147.2 520.1,147.7 520.2,148.7 520.3,150.2 520.4,152.4 520.5,155.9 520.6,162.0 520.7,166.0 520.8,164.9 520.9,157.3 521.0,153.3 521.1,150.8 521.2,149.1 521.3,147.9 521.4,147.3 521.5,147.0 521.6,147.2 521.7,147.7 521.8,148.7 521.9,150.3 522.0,152.6 522.1,156.1 522.2,162.3 522.3,166.0 522.4,164.5 522.5,157.1 522.6,153.2 522.7,150.7 522.8,149.0 522.9,147.9 523.0,147.3 523.1,147.0 523.2,147.2 523.3,147.7 523.4,148.8 523.5,150.3 523.6,152.7 523.7,156.3 523.8,162.6 523.9,166.0 524.0,164.1 524.1,157.0 524.2,153.1 524.3,150.6 524.4,149.0 524.5,147.9 524.6,147.2 524.7,147.0 524.8,147.2 524.9,147.8 525.0,148.8 525.1,150.4 525.2,152.8 525.3,156.4 525.4,163.0 525.5,166.0 525.6,163.7 525.7,156.8 525.8,153.0 525.9,150.5 526.0,148.9 526.1,147.8 526.2,147.2 526.3,147.0 526.4,147.2 526.5,147.8 526.6,148.9 526.7,150.5 526.8,152.9 526.9,156.6 527.0,163.3" fill="none" stroke="#4a90d9" stroke-width="1.2" stroke-linejoin="round"/>
  <text x="154.5" y="190" text-anchor="middle" font-size="8" fill="#6b7280">n / N</text>
  <text x="424.5" y="190" text-anchor="middle" font-size="8" fill="#6b7280">Normalized frequency (× Fₛ)</text>
</svg>
