<svg xmlns="http://www.w3.org/2000/svg" viewBox="0 0 800 230" style="font-family:system-ui,-apple-system,sans-serif">
  <line x1="42" y1="182.0" x2="377" y2="182.0" stroke="#e5e7eb" stroke-width="0.7"/>
  <text x="37" y="186.0" text-anchor="end" font-size="10" fill="#6b7280">0</text>
  <line x1="42" y1="95.0" x2="377" y2="95.0" stroke="#e5e7eb" stroke-width="0.7"/>
  <text x="37" y="99.0" text-anchor="end" font-size="10" fill="#6b7280">0.5</text>
  <line x1="42" y1="8.0" x2="377" y2="8.0" stroke="#e5e7eb" stroke-width="0.7"/>
  <text x="37" y="12.0" text-anchor="end" font-size="10" fill="#6b7280">1</text>
  <line x1="42.0" y1="8" x2="42.0" y2="182" stroke="#e5e7eb" stroke-width="0.7"/>
  <text x="42.0" y="198" text-anchor="middle" font-size="10" fill="#6b7280">0</text>
  <line x1="209.5" y1="8" x2="209.5" y2="182" stroke="#e5e7eb" stroke-width="0.7"/>
  <text x="209.5" y="198" text-anchor="middle" font-size="10" fill="#6b7280">0.5</text>
  <line x1="377.0" y1="8" x2="377.0" y2="182" stroke="#e5e7eb" stroke-width="0.7"/>
  <text x="377.0" y="198" text-anchor="middle" font-size="10" fill="#6b7280">1</text>
  <line x1="42" y1="8" x2="42" y2="182" stroke="#d1d5db" stroke-width="1"/>
  <line x1="42" y1="182" x2="377" y2="182" stroke="#d1d5db" stroke-width="1"/>
  <path d="M42.0,182.0 42.0,181.8 43.3,181.6 44.6,181.3 45.9,181.0 47.3,180.6 48.6,180.3 49.9,180.0 51.2,179.8 52.5,179.6 53.8,179.5 55.1,179.4 56.5,179.3 57.8,179.2 59.1,179.0 60.4,178.8 61.7,178.5 63.0,178.2 64.3,177.9 65.6,177.6 67.0,177.3 68.3,177.0 69.6,176.7 70.9,176.3 72.2,176.0 73.5,175.6 74.8,175.2 76.2,174.7 77.5,174.2 78.8,173.7 80.1,173.1 81.4,172.6 82.7,172.0 84.0,171.5 85.4,170.9 86.7,170.2 88.0,169.5 89.3,168.8 90.6,168.0 91.9,167.2 93.2,166.3 94.5,165.4 95.9,164.5 97.2,163.6 98.5,162.7 99.8,161.6 101.1,160.6 102.4,159.5 103.7,158.3 105.1,157.1 106.4,155.8 107.7,154.5 109.0,153.2 110.3,151.8 111.6,150.4 112.9,149.0 114.3,147.5 115.6,145.9 116.9,144.3 118.2,142.6 119.5,140.9 120.8,139.1 122.1,137.3 123.5,135.5 124.8,133.6 126.1,131.7 127.4,129.7 128.7,127.7 130.0,125.6 131.3,123.4 132.6,121.2 134.0,119.0 135.3,116.8 136.6,114.5 137.9,112.2 139.2,109.8 140.5,107.5 141.8,105.1 143.2,102.6 144.5,100.1 145.8,97.6 147.1,95.0 148.4,92.5 149.7,89.9 151.0,87.3 152.4,84.8 153.7,82.2 155.0,79.6 156.3,76.9 157.6,74.3 158.9,71.7 160.2,69.1 161.5,66.4 162.9,63.9 164.2,61.3 165.5,58.8 166.8,56.3 168.1,53.8 169.4,51.3 170.7,48.9 172.1,46.4 173.4,44.1 174.7,41.8 176.0,39.5 177.3,37.3 178.6,35.1 179.9,33.1 181.3,31.0 182.6,29.1 183.9,27.2 185.2,25.4 186.5,23.6 187.8,21.9 189.1,20.3 190.5,18.8 191.8,17.4 193.1,16.1 194.4,14.9 195.7,13.8 197.0,12.7 198.3,11.8 199.6,10.9 201.0,10.2 202.3,9.6 203.6,9.0 204.9,8.6 206.2,8.3 207.5,8.1 208.8,8.0 210.2,8.0 211.5,8.1 212.8,8.3 214.1,8.6 215.4,9.0 216.7,9.6 218.0,10.2 219.4,10.9 220.7,11.8 222.0,12.7 223.3,13.8 224.6,14.9 225.9,16.1 227.2,17.4 228.5,18.8 229.9,20.3 231.2,21.9 232.5,23.6 233.8,25.4 235.1,27.2 236.4,29.1 237.7,31.0 239.1,33.1 240.4,35.1 241.7,37.3 243.0,39.5 244.3,41.8 245.6,44.1 246.9,46.4 248.3,48.9 249.6,51.3 250.9,53.8 252.2,56.3 253.5,58.8 254.8,61.3 256.1,63.9 257.5,66.4 258.8,69.1 260.1,71.7 261.4,74.3 262.7,76.9 264.0,79.6 265.3,82.2 266.6,84.8 268.0,87.3 269.3,89.9 270.6,92.5 271.9,95.0 273.2,97.6 274.5,100.1 275.8,102.6 277.2,105.1 278.5,107.5 279.8,109.8 281.1,112.2 282.4,114.5 283.7,116.8 285.0,119.0 286.4,121.2 287.7,123.4 289.0,125.6 290.3,127.7 291.6,129.7 292.9,131.7 294.2,133.6 295.5,135.5 296.9,137.3 298.2,139.1 299.5,140.9 300.8,142.6 302.1,144.3 303.4,145.9 304.7,147.5 306.1,149.0 307.4,150.4 308.7,151.8 310.0,153.2 311.3,154.5 312.6,155.8 313.9,157.1 315.3,158.3 316.6,159.5 317.9,160.6 319.2,161.6 320.5,162.7 321.8,163.6 323.1,164.5 324.5,165.4 325.8,166.3 327.1,167.2 328.4,168.0 329.7,168.8 331.0,169.5 332.3,170.2 333.6,170.9 335.0,171.5 336.3,172.0 337.6,172.6 338.9,173.1 340.2,173.7 341.5,174.2 342.8,174.7 344.2,175.2 345.5,175.6 346.8,176.0 348.1,176.3 349.4,176.7 350.7,177.0 352.0,177.3 353.4,177.6 354.7,177.9 356.0,178.2 357.3,178.5 358.6,178.8 359.9,179.0 361.2,179.2 362.5,179.3 363.9,179.4 365.2,179.5 366.5,179.6 367.8,179.8 369.1,180.0 370.4,180.3 371.7,180.6 373.1,181.0 374.4,181.3 375.7,181.6 377.0,181.8 L377.0,182.0 Z" fill="#4a90d9" fill-opacity="0.06"/>
  <polyline points="42.0,181.8 43.3,181.6 44.6,181.3 45.9,181.0 47.3,180.6 48.6,180.3 49.9,180.0 51.2,179.8 52.5,179.6 53.8,179.5 55.1,179.4 56.5,179.3 57.8,179.2 59.1,179.0 60.4,178.8 61.7,178.5 63.0,178.2 64.3,177.9 65.6,177.6 67.0,177.3 68.3,177.0 69.6,176.7 70.9,176.3 72.2,176.0 73.5,175.6 74.8,175.2 76.2,174.7 77.5,174.2 78.8,173.7 80.1,173.1 81.4,172.6 82.7,172.0 84.0,171.5 85.4,170.9 86.7,170.2 88.0,169.5 89.3,168.8 90.6,168.0 91.9,167.2 93.2,166.3 94.5,165.4 95.9,164.5 97.2,163.6 98.5,162.7 99.8,161.6 101.1,160.6 102.4,159.5 103.7,158.3 105.1,157.1 106.4,155.8 107.7,154.5 109.0,153.2 110.3,151.8 111.6,150.4 112.9,149.0 114.3,147.5 115.6,145.9 116.9,144.3 118.2,142.6 119.5,140.9 120.8,139.1 122.1,137.3 123.5,135.5 124.8,133.6 126.1,131.7 127.4,129.7 128.7,127.7 130.0,125.6 131.3,123.4 132.6,121.2 134.0,119.0 135.3,116.8 136.6,114.5 137.9,112.2 139.2,109.8 140.5,107.5 141.8,105.1 143.2,102.6 144.5,100.1 145.8,97.6 147.1,95.0 148.4,92.5 149.7,89.9 151.0,87.3 152.4,84.8 153.7,82.2 155.0,79.6 156.3,76.9 157.6,74.3 158.9,71.7 160.2,69.1 161.5,66.4 162.9,63.9 164.2,61.3 165.5,58.8 166.8,56.3 168.1,53.8 169.4,51.3 170.7,48.9 172.1,46.4 173.4,44.1 174.7,41.8 176.0,39.5 177.3,37.3 178.6,35.1 179.9,33.1 181.3,31.0 182.6,29.1 183.9,27.2 185.2,25.4 186.5,23.6 187.8,21.9 189.1,20.3 190.5,18.8 191.8,17.4 193.1,16.1 194.4,14.9 195.7,13.8 197.0,12.7 198.3,11.8 199.6,10.9 201.0,10.2 202.3,9.6 203.6,9.0 204.9,8.6 206.2,8.3 207.5,8.1 208.8,8.0 210.2,8.0 211.5,8.1 212.8,8.3 214.1,8.6 215.4,9.0 216.7,9.6 218.0,10.2 219.4,10.9 220.7,11.8 222.0,12.7 223.3,13.8 224.6,14.9 225.9,16.1 227.2,17.4 228.5,18.8 229.9,20.3 231.2,21.9 232.5,23.6 233.8,25.4 235.1,27.2 236.4,29.1 237.7,31.0 239.1,33.1 240.4,35.1 241.7,37.3 243.0,39.5 244.3,41.8 245.6,44.1 246.9,46.4 248.3,48.9 249.6,51.3 250.9,53.8 252.2,56.3 253.5,58.8 254.8,61.3 256.1,63.9 257.5,66.4 258.8,69.1 260.1,71.7 261.4,74.3 262.7,76.9 264.0,79.6 265.3,82.2 266.6,84.8 268.0,87.3 269.3,89.9 270.6,92.5 271.9,95.0 273.2,97.6 274.5,100.1 275.8,102.6 277.2,105.1 278.5,107.5 279.8,109.8 281.1,112.2 282.4,114.5 283.7,116.8 285.0,119.0 286.4,121.2 287.7,123.4 289.0,125.6 290.3,127.7 291.6,129.7 292.9,131.7 294.2,133.6 295.5,135.5 296.9,137.3 298.2,139.1 299.5,140.9 300.8,142.6 302.1,144.3 303.4,145.9 304.7,147.5 306.1,149.0 307.4,150.4 308.7,151.8 310.0,153.2 311.3,154.5 312.6,155.8 313.9,157.1 315.3,158.3 316.6,159.5 317.9,160.6 319.2,161.6 320.5,162.7 321.8,163.6 323.1,164.5 324.5,165.4 325.8,166.3 327.1,167.2 328.4,168.0 329.7,168.8 331.0,169.5 332.3,170.2 333.6,170.9 335.0,171.5 336.3,172.0 337.6,172.6 338.9,173.1 340.2,173.7 341.5,174.2 342.8,174.7 344.2,175.2 345.5,175.6 346.8,176.0 348.1,176.3 349.4,176.7 350.7,177.0 352.0,177.3 353.4,177.6 354.7,177.9 356.0,178.2 357.3,178.5 358.6,178.8 359.9,179.0 361.2,179.2 362.5,179.3 363.9,179.4 365.2,179.5 366.5,179.6 367.8,179.8 369.1,180.0 370.4,180.3 371.7,180.6 373.1,181.0 374.4,181.3 375.7,181.6 377.0,181.8" fill="none" stroke="#4a90d9" stroke-width="1.5" stroke-linejoin="round"/>
  <line x1="450" y1="8.0" x2="785" y2="8.0" stroke="#e5e7eb" stroke-width="0.7"/>
  <text x="445" y="12.0" text-anchor="end" font-size="10" fill="#6b7280">0</text>
  <line x1="450" y1="66.0" x2="785" y2="66.0" stroke="#e5e7eb" stroke-width="0.7"/>
  <text x="445" y="70.0" text-anchor="end" font-size="10" fill="#6b7280">-40</text>
  <line x1="450" y1="124.0" x2="785" y2="124.0" stroke="#e5e7eb" stroke-width="0.7"/>
  <text x="445" y="128.0" text-anchor="end" font-size="10" fill="#6b7280">-80</text>
  <line x1="450" y1="182.0" x2="785" y2="182.0" stroke="#e5e7eb" stroke-width="0.7"/>
  <text x="445" y="186.0" text-anchor="end" font-size="10" fill="#6b7280">-120</text>
  <line x1="450.0" y1="8" x2="450.0" y2="182" stroke="#e5e7eb" stroke-width="0.7"/>
  <text x="450.0" y="198" text-anchor="middle" font-size="10" fill="#6b7280">0</text>
  <line x1="517.0" y1="8" x2="517.0" y2="182" stroke="#e5e7eb" stroke-width="0.7"/>
  <text x="517.0" y="198" text-anchor="middle" font-size="10" fill="#6b7280">0.1</text>
  <line x1="584.0" y1="8" x2="584.0" y2="182" stroke="#e5e7eb" stroke-width="0.7"/>
  <text x="584.0" y="198" text-anchor="middle" font-size="10" fill="#6b7280">0.2</text>
  <line x1="651.0" y1="8" x2="651.0" y2="182" stroke="#e5e7eb" stroke-width="0.7"/>
  <text x="651.0" y="198" text-anchor="middle" font-size="10" fill="#6b7280">0.3</text>
  <line x1="718.0" y1="8" x2="718.0" y2="182" stroke="#e5e7eb" stroke-width="0.7"/>
  <text x="718.0" y="198" text-anchor="middle" font-size="10" fill="#6b7280">0.4</text>
  <line x1="785.0" y1="8" x2="785.0" y2="182" stroke="#e5e7eb" stroke-width="0.7"/>
  <text x="785.0" y="198" text-anchor="middle" font-size="10" fill="#6b7280">0.5</text>
  <line x1="450" y1="8" x2="450" y2="182" stroke="#d1d5db" stroke-width="1"/>
  <line x1="450" y1="182" x2="785" y2="182" stroke="#d1d5db" stroke-width="1"/>
  <polyline points="450.0,8.0 450.2,8.0 450.3,8.1 450.5,8.2 450.7,8.4 450.8,8.6 451.0,8.9 451.1,9.2 451.3,9.5 451.5,9.9 451.6,10.4 451.8,10.9 452.0,11.4 452.1,12.0 452.3,12.7 452.5,13.4 452.6,14.1 452.8,14.9 452.9,15.7 453.1,16.6 453.3,17.6 453.4,18.6 453.6,19.6 453.8,20.7 453.9,21.9 454.1,23.1 454.3,24.3 454.4,25.6 454.6,26.9 454.7,28.3 454.9,29.8 455.1,31.3 455.2,32.8 455.4,34.3 455.6,35.9 455.7,37.6 455.9,39.3 456.1,41.0 456.2,42.7 456.4,44.5 456.5,46.3 456.7,48.2 456.9,50.1 457.0,52.0 457.2,53.9 457.4,55.9 457.5,58.0 457.7,60.1 457.9,62.3 458.0,64.6 458.2,67.0 458.3,69.7 458.5,72.5 458.7,75.6 458.8,79.1 459.0,83.2 459.2,88.0 459.3,94.2 459.5,103.4 459.7,126.3 459.8,113.3 460.0,105.1 460.1,102.0 460.3,101.1 460.5,101.7 460.6,103.8 460.8,107.8 461.0,115.8 461.1,182.0 461.3,115.0 461.5,106.3 461.6,101.5 461.8,98.3 461.9,96.2 462.1,94.7 462.3,93.9 462.4,93.6 462.6,93.8 462.8,94.5 462.9,95.7 463.1,97.5 463.3,100.3 463.4,104.4 463.6,111.2 463.7,128.0 463.9,120.6 464.1,109.1 464.2,103.6 464.4,100.2 464.6,98.0 464.7,96.6 464.9,95.8 465.1,95.5 465.2,95.7 465.4,96.4 465.5,97.7 465.7,99.7 465.9,102.5 466.0,106.8 466.2,114.1 466.4,135.2 466.5,120.2 466.7,110.0 466.9,104.8 467.0,101.6 467.2,99.5 467.3,98.1 467.5,97.3 467.7,97.1 467.8,97.3 468.0,98.0 468.2,99.3 468.3,101.3 468.5,104.2 468.7,108.5 468.8,115.9 469.0,137.9 469.1,121.5 469.3,111.4 469.5,106.3 469.6,103.1 469.8,101.0 470.0,99.6 470.1,98.8 470.3,98.5 470.5,98.7 470.6,99.5 470.8,100.7 470.9,102.6 471.1,105.5 471.3,109.7 471.4,116.8 471.6,136.2 471.8,123.9 471.9,113.3 472.1,108.0 472.3,104.6 472.4,102.4 472.6,101.0 472.7,100.2 472.9,99.9 473.1,100.0 473.2,100.7 473.4,101.9 473.6,103.7 473.7,106.4 473.9,110.4 474.1,117.0 474.2,133.0 474.4,127.4 474.5,115.4 474.7,109.7 474.9,106.2 475.0,103.9 475.2,102.4 475.4,101.5 475.5,101.1 475.7,101.2 475.9,101.7 476.0,102.8 476.2,104.6 476.3,107.1 476.5,110.8 476.7,116.8 476.8,129.7 477.0,132.5 477.2,117.9 477.3,111.7 477.5,107.9 477.7,105.4 477.8,103.8 478.0,102.7 478.1,102.2 478.3,102.2 478.5,102.7 478.6,103.7 478.8,105.3 479.0,107.6 479.1,111.0 479.3,116.4 479.5,126.8 479.6,141.5 479.8,120.9 479.9,113.8 480.1,109.6 480.3,106.9 480.4,105.1 480.6,103.9 480.8,103.3 480.9,103.2 481.1,103.6 481.3,104.4 481.4,105.8 481.6,107.9 481.7,111.0 481.9,115.8 482.1,124.3 482.2,182.0 482.4,124.6 482.6,116.1 482.7,111.5 482.9,108.5 483.1,106.4 483.2,105.1 483.4,104.4 483.5,104.1 483.7,104.4 483.9,105.1 484.0,106.3 484.2,108.2 484.4,111.0 484.5,115.2 484.7,122.1 484.9,140.8 485.0,129.7 485.2,118.9 485.3,113.5 485.5,110.1 485.7,107.8 485.8,106.3 486.0,105.4 486.2,105.0 486.3,105.1 486.5,105.6 486.7,106.7 486.8,108.4 487.0,110.8 487.1,114.5 487.3,120.3 487.5,132.3 487.6,138.1 487.8,122.3 488.0,115.8 488.1,111.9 488.3,109.3 488.5,107.6 488.6,106.5 488.8,105.9 488.9,105.8 489.1,106.2 489.3,107.1 489.4,108.5 489.6,110.7 489.8,113.8 489.9,118.6 490.1,127.3 490.3,172.6 490.4,126.8 490.6,118.5 490.7,113.9 490.9,110.9 491.1,108.9 491.2,107.6 491.4,106.8 491.6,106.5 491.7,106.7 491.9,107.4 492.1,108.6 492.2,110.4 492.4,113.1 492.6,117.1 492.7,123.7 492.9,139.9 493.0,133.8 493.2,121.9 493.4,116.2 493.5,112.7 493.7,110.3 493.9,108.7 494.0,107.7 494.2,107.3 494.4,107.3 494.5,107.7 494.7,108.7 494.8,110.2 495.0,112.4 495.2,115.8 495.3,120.9 495.5,130.6 495.7,151.5 495.8,126.7 496.0,119.1 496.2,114.8 496.3,112.0 496.5,110.0 496.6,108.8 496.8,108.1 497.0,107.8 497.1,108.0 497.3,108.7 497.5,109.9 497.6,111.8 497.8,114.5 498.0,118.5 498.1,125.2 498.3,141.6 498.4,134.9 498.6,123.1 498.8,117.5 498.9,113.9 499.1,111.6 499.3,110.0 499.4,109.0 499.6,108.5 499.8,108.4 499.9,108.8 500.1,109.7 500.2,111.2 500.4,113.3 500.6,116.5 500.7,121.2 500.9,129.9 501.1,182.0 501.2,129.6 501.4,121.2 501.6,116.5 501.7,113.5 501.9,111.4 502.0,110.1 502.2,109.2 502.4,108.9 502.5,109.0 502.7,109.5 502.9,110.6 503.0,112.2 503.2,114.6 503.4,118.1 503.5,123.5 503.7,134.3 503.8,146.5 504.0,127.3 504.2,120.3 504.3,116.2 504.5,113.4 504.7,111.5 504.8,110.3 505.0,109.6 505.2,109.3 505.3,109.5 505.5,110.1 505.6,111.2 505.8,112.9 506.0,115.3 506.1,118.9 506.3,124.6 506.5,136.2 506.6,144.1 506.8,127.2 507.0,120.5 507.1,116.5 507.3,113.7 507.4,111.9 507.6,110.6 507.8,109.9 507.9,109.6 508.1,109.7 508.3,110.3 508.4,111.3 508.6,112.9 508.8,115.1 508.9,118.4 509.1,123.4 509.2,132.6 509.4,161.2 509.6,130.3 509.7,122.4 509.9,117.8 510.1,114.8 510.2,112.7 510.4,111.3 510.6,110.3 510.7,109.8 510.9,109.7 511.0,110.0 511.2,110.7 511.4,111.8 511.5,113.5 511.7,115.8 511.9,119.1 512.0,124.2 512.2,133.4 512.4,161.2 512.5,131.0 512.7,123.0 512.8,118.4 513.0,115.4 513.2,113.1 513.3,111.5 513.5,110.4 513.7,109.7 513.8,109.2 514.0,109.1 514.2,109.2 514.3,109.6 514.5,110.2 514.6,111.1 514.8,112.2 515.0,113.7 515.1,115.5 515.3,117.7 515.5,120.3 515.6,123.6 515.8,127.7 516.0,133.4 516.1,142.3 516.3,169.9 516.4,148.3 516.6,140.2 516.8,136.5 516.9,134.7 517.1,134.0 517.3,134.2 517.4,135.3 517.6,137.2 517.8,140.2 517.9,144.8 518.1,152.9 518.2,181.5 518.4,156.5 518.6,147.7 518.7,143.2 518.9,140.6 519.1,139.1 519.2,138.5 519.4,138.6 519.6,139.3 519.7,140.8 519.9,143.2 520.0,146.9 520.2,153.1 520.4,167.0 520.5,166.8 520.7,153.4 520.9,147.5 521.0,144.1 521.2,141.9 521.4,140.6 521.5,140.0 521.7,140.0 521.8,140.6 522.0,141.9 522.2,144.0 522.3,147.1 522.5,152.1 522.7,161.3 522.8,182.0 523.0,158.9 523.2,151.1 523.3,146.8 523.5,144.1 523.6,142.4 523.8,141.4 524.0,141.0 524.1,141.2 524.3,142.0 524.5,143.4 524.6,145.6 524.8,149.0 525.0,154.3 525.1,164.9 525.3,178.4 525.4,158.5 525.6,151.5 525.8,147.5 525.9,144.9 526.1,143.2 526.3,142.3 526.4,141.9 526.6,142.1 526.8,142.8 526.9,144.2 527.1,146.3 527.2,149.5 527.4,154.6 527.6,164.2 527.7,182.0 527.9,160.6 528.1,153.1 528.2,148.8 528.4,146.0 528.6,144.3 528.7,143.2 528.9,142.7 529.0,142.8 529.2,143.4 529.4,144.6 529.5,146.5 529.7,149.4 529.9,153.8 530.0,161.6 530.2,182.0 530.4,164.7 530.5,155.4 530.7,150.5 530.8,147.4 531.0,145.4 531.2,144.1 531.3,143.5 531.5,143.4 531.7,143.8 531.8,144.7 532.0,146.4 532.2,148.8 532.3,152.6 532.5,158.6 532.6,172.2 532.8,172.7 533.0,158.9 533.1,152.9 533.3,149.2 533.5,146.8 533.6,145.2 533.8,144.3 534.0,144.0 534.1,144.1 534.3,144.8 534.4,146.1 534.6,148.2 534.8,151.2 534.9,156.0 535.1,164.6 535.3,182.0 535.4,164.2 535.6,155.9 535.8,151.3 535.9,148.4 536.1,146.5 536.2,145.2 536.4,144.6 536.6,144.5 536.7,145.0 536.9,145.9 537.1,147.6 537.2,150.0 537.4,153.8 537.6,159.8 537.7,173.3 537.9,174.1 538.0,160.2 538.2,154.1 538.4,150.4 538.5,147.9 538.7,146.4 538.9,145.4 539.0,145.0 539.2,145.2 539.4,145.8 539.5,147.1 539.7,149.0 539.8,151.9 540.0,156.4 540.2,164.3 540.3,182.0 540.5,166.9 540.7,157.8 540.8,152.9 541.0,149.8 541.2,147.7 541.3,146.4 541.5,145.7 541.6,145.5 541.8,145.8 542.0,146.7 542.1,148.2 542.3,150.5 542.5,153.9 542.6,159.2 542.8,169.9 543.0,182.0 543.1,163.2 543.3,156.2 543.4,152.1 543.6,149.4 543.8,147.6 543.9,146.5 544.1,146.0 544.3,146.0 544.4,146.5 544.6,147.6 544.8,149.3 544.9,151.9 545.1,155.8 545.2,162.3 545.4,178.1 545.6,172.8 545.7,160.7 545.9,155.0 546.1,151.5 546.2,149.2 546.4,147.6 546.6,146.7 546.7,146.4 546.9,146.6 547.0,147.2 547.2,148.5 547.4,150.5 547.5,153.4 547.7,157.9 547.9,165.8 548.0,182.0 548.2,168.2 548.4,159.1 548.5,154.2 548.7,151.1 548.8,149.0 549.0,147.7 549.2,147.0 549.3,146.8 549.5,147.1 549.7,147.9 549.8,149.4 550.0,151.6 550.2,154.9 550.3,160.0 550.5,170.0 550.6,182.0 550.8,165.2 551.0,157.9 551.1,153.6 551.3,150.8 551.5,149.0 551.6,147.9 551.8,147.3 552.0,147.2 552.1,147.7 552.3,148.6 552.4,150.3 552.6,152.7 552.8,156.4 552.9,162.3 553.1,175.2 553.3,177.7 553.4,163.2 553.6,156.9 553.8,153.2 553.9,150.7 554.1,149.0 554.2,148.0 554.4,147.6 554.6,147.6 554.7,148.2 554.9,149.3 555.1,151.1 555.2,153.8 555.4,157.9 555.6,164.8 555.7,182.0 555.9,172.7 556.0,161.7 556.2,156.2 556.4,152.8 556.5,150.6 556.7,149.1 556.9,148.2 557.0,147.9 557.2,148.1 557.4,148.8 557.5,150.0 557.7,152.0 557.8,155.0 558.0,159.5 558.2,167.5 558.3,182.0 558.5,169.6 558.7,160.6 558.8,155.7 559.0,152.6 559.2,150.5 559.3,149.2 559.5,148.5 559.6,148.2 559.8,148.5 560.0,149.3 560.1,150.7 560.3,152.9 560.5,156.1 560.6,161.1 560.8,170.5 561.0,182.0 561.1,167.4 561.3,159.7 561.4,155.3 561.6,152.4 561.8,150.5 561.9,149.3 562.1,148.7 562.3,148.6 562.4,149.0 562.6,149.9 562.8,151.4 562.9,153.8 563.1,157.2 563.2,162.8 563.4,174.1 563.6,182.0 563.7,165.7 563.9,158.9 564.1,154.9 564.2,152.3 564.4,150.6 564.6,149.5 564.7,149.0 564.9,148.9 565.0,149.4 565.2,150.4 565.4,152.1 565.5,154.6 565.7,158.4 565.9,164.6 566.0,178.5 566.2,177.8 566.4,164.4 566.5,158.4 566.7,154.7 566.8,152.2 567.0,150.6 567.2,149.7 567.3,149.2 567.5,149.3 567.7,149.9 567.8,151.0 568.0,152.8 568.2,155.5 568.3,159.6 568.5,166.4 568.6,182.0 568.8,174.4 569.0,163.4 569.1,157.9 569.3,154.5 569.5,152.2 569.6,150.7 569.8,149.8 570.0,149.5 570.1,149.6 570.3,150.3 570.4,151.5 570.6,153.5 570.8,156.3 570.9,160.7 571.1,168.4 571.3,182.0 571.4,172.0 571.6,162.5 571.8,157.5 571.9,154.3 572.1,152.2 572.2,150.8 572.4,150.0 572.6,149.8 572.7,150.0 572.9,150.7 573.1,152.1 573.2,154.1 573.4,157.2 573.6,161.9 573.7,170.5 573.9,182.0 574.0,170.2 574.2,161.8 574.4,157.2 574.5,154.2 574.7,152.2 574.9,150.9 575.0,150.2 575.2,150.0 575.4,150.3 575.5,151.2 575.7,152.6 575.9,154.8 576.0,158.0 576.2,163.1 576.3,172.8 576.5,182.0 576.7,168.8 576.8,161.3 577.0,156.9 577.2,154.1 577.3,152.2 577.5,151.0 577.7,150.4 577.8,150.3 578.0,150.7 578.1,151.6 578.3,153.1 578.5,155.4 578.6,158.9 578.8,164.4 579.0,175.5 579.1,182.0 579.3,167.6 579.5,160.8 579.6,156.7 579.8,154.1 579.9,152.3 580.1,151.2 580.3,150.6 580.4,150.6 580.6,151.0 580.8,152.0 580.9,153.7 581.1,156.1 581.3,159.7 581.4,165.7 581.6,178.5 581.7,181.3 581.9,166.6 582.1,160.3 582.2,156.5 582.4,154.0 582.6,152.4 582.7,151.3 582.9,150.8 583.1,150.9 583.2,151.4 583.4,152.5 583.5,154.2 583.7,156.7 583.9,160.6 584.0,167.0 584.2,182.0 584.4,178.3 584.5,165.8 584.7,160.0 584.9,156.4 585.0,154.0 585.2,152.4 585.3,151.5 585.5,151.1 585.7,151.1 585.8,151.7 586.0,152.9 586.2,154.7 586.3,157.4 586.5,161.5 586.7,168.4 586.8,182.0 587.0,176.1 587.1,165.1 587.3,159.7 587.5,156.3 587.6,154.0 587.8,152.5 588.0,151.6 588.1,151.3 588.3,151.4 588.5,152.1 588.6,153.3 588.8,155.2 588.9,158.0 589.1,162.3 589.3,169.8 589.4,182.0 589.6,174.4 589.8,164.6 589.9,159.4 590.1,156.2 590.3,154.0 590.4,152.6 590.6,151.8 590.7,151.5 590.9,151.7 591.1,152.4 591.2,153.7 591.4,155.7 591.6,158.6 591.7,163.2 591.9,171.3 592.1,182.0 592.2,173.0 592.4,164.0 592.5,159.2 592.7,156.1 592.9,154.0 593.0,152.7 593.2,151.9 593.4,151.7 593.5,152.0 593.7,152.7 593.9,154.1 594.0,156.2 594.2,159.3 594.3,164.1 594.5,172.9 594.7,182.0 594.8,171.8 595.0,163.6 595.2,159.0 595.3,156.1 595.5,154.1 595.7,152.8 595.8,152.1 596.0,151.9 596.1,152.2 596.3,153.1 596.5,154.5 596.6,156.7 596.8,159.9 597.0,165.0 597.1,174.6 597.3,182.0 597.5,170.8 597.6,163.2 597.8,158.9 597.9,156.0 598.1,154.1 598.3,152.9 598.4,152.3 598.6,152.1 598.8,152.5 598.9,153.4 599.1,154.9 599.3,157.1 599.4,160.5 599.6,165.9 599.7,176.4 599.9,182.0 600.1,169.9 600.2,162.9 600.4,158.7 600.6,156.0 600.7,154.2 600.9,153.0 601.1,152.4 601.2,152.4 601.4,152.8 601.5,153.7 601.7,155.3 601.9,157.6 602.0,161.1 602.2,166.8 602.4,178.4 602.5,182.0 602.7,169.2 602.9,162.6 603.0,158.6 603.2,156.0 603.3,154.2 603.5,153.1 603.7,152.6 603.8,152.6 604.0,153.0 604.2,154.0 604.3,155.6 604.5,158.1 604.7,161.8 604.8,167.7 605.0,180.6 605.1,182.0 605.3,168.6 605.5,162.3 605.6,158.5 605.8,156.0 606.0,154.3 606.1,153.3 606.3,152.8 606.5,152.8 606.6,153.3 606.8,154.3 606.9,156.0 607.1,158.6 607.3,162.4 607.4,168.6 607.6,182.0 607.8,181.0 607.9,168.0 608.1,162.0 608.3,158.4 608.4,156.0 608.6,154.4 608.7,153.4 608.9,152.9 609.1,153.0 609.2,153.5 609.4,154.6 609.6,156.4 609.7,159.0 609.9,163.0 610.1,169.6 610.2,182.0 610.4,179.3 610.5,167.5 610.7,161.8 610.9,158.3 611.0,156.0 611.2,154.4 611.4,153.5 611.5,153.1 611.7,153.2 611.9,153.8 612.0,154.9 612.2,156.8 612.3,159.5 612.5,163.6 612.7,170.6 612.8,182.0 613.0,177.8 613.2,167.0 613.3,161.6 613.5,158.3 613.7,156.0 613.8,154.5 614.0,153.6 614.1,153.3 614.3,153.4 614.5,154.0 614.6,155.2 614.8,157.1 615.0,159.9 615.1,164.2 615.3,171.6 615.5,182.0 615.6,176.6 615.8,166.6 615.9,161.5 616.1,158.2 616.3,156.0 616.4,154.6 616.6,153.7 616.8,153.4 616.9,153.6 617.1,154.3 617.3,155.5 617.4,157.5 617.6,160.4 617.7,164.8 617.9,172.7 618.1,182.0 618.2,175.6 618.4,166.3 618.6,161.3 618.7,158.2 618.9,156.0 619.1,154.7 619.2,153.9 619.4,153.6 619.5,153.8 619.7,154.5 619.9,155.8 620.0,157.9 620.2,160.9 620.4,165.5 620.5,173.7 620.7,182.0 620.9,174.7 621.0,165.9 621.2,161.2 621.3,158.1 621.5,156.1 621.7,154.7 621.8,154.0 622.0,153.7 622.2,154.0 622.3,154.8 622.5,156.1 622.7,158.2 622.8,161.3 623.0,166.1 623.1,174.9 623.3,182.0 623.5,173.9 623.6,165.6 623.8,161.1 624.0,158.1 624.1,156.1 624.3,154.8 624.5,154.1 624.6,153.9 624.8,154.2 624.9,155.0 625.1,156.4 625.3,158.6 625.4,161.7 625.6,166.7 625.8,176.0 625.9,182.0 626.1,173.1 626.3,165.4 626.4,160.9 626.6,158.1 626.7,156.1 626.9,154.9 627.1,154.2 627.2,154.1 627.4,154.4 627.6,155.3 627.7,156.7 627.9,158.9 628.1,162.2 628.2,167.4 628.4,177.3 628.5,182.0 628.7,172.5 628.9,165.1 629.0,160.8 629.2,158.0 629.4,156.2 629.5,155.0 629.7,154.3 629.9,154.2 630.0,154.6 630.2,155.5 630.3,157.0 630.5,159.2 630.7,162.6 630.8,168.0 631.0,178.6 631.2,182.0 631.3,171.9 631.5,164.9 631.7,160.7 631.8,158.0 632.0,156.2 632.1,155.1 632.3,154.5 632.5,154.4 632.6,154.8 632.8,155.7 633.0,157.3 633.1,159.6 633.3,163.1 633.5,168.6 633.6,180.0 633.8,182.0 633.9,171.4 634.1,164.7 634.3,160.7 634.4,158.0 634.6,156.3 634.8,155.1 634.9,154.6 635.1,154.5 635.3,155.0 635.4,155.9 635.6,157.5 635.7,159.9 635.9,163.5 636.1,169.3 636.2,181.5 636.4,182.0 636.6,171.0 636.7,164.5 636.9,160.6 637.1,158.0 637.2,156.3 637.4,155.2 637.5,154.7 637.7,154.7 637.9,155.2 638.0,156.2 638.2,157.8 638.4,160.3 638.5,163.9 638.7,169.9 638.9,182.0 639.0,182.0 639.2,170.5 639.3,164.3 639.5,160.5 639.7,158.0 639.8,156.3 640.0,155.3 640.2,154.8 640.3,154.8 640.5,155.3 640.7,156.4 640.8,158.1 641.0,160.6 641.1,164.4 641.3,170.6 641.5,182.0 641.6,182.0 641.8,170.1 642.0,164.1 642.1,160.5 642.3,158.0 642.5,156.4 642.6,155.4 642.8,154.9 642.9,155.0 643.1,155.5 643.3,156.6 643.4,158.3 643.6,160.9 643.8,164.8 643.9,171.3 644.1,182.0 644.3,182.0 644.4,169.8 644.6,164.0 644.7,160.4 644.9,158.0 645.1,156.4 645.2,155.5 645.4,155.1 645.6,155.1 645.7,155.7 645.9,156.8 646.1,158.6 646.2,161.2 646.4,165.2 646.5,172.0 646.7,182.0 646.9,180.9 647.0,169.4 647.2,163.8 647.4,160.3 647.5,158.0 647.7,156.5 647.9,155.6 648.0,155.2 648.2,155.3 648.3,155.9 648.5,157.0 648.7,158.8 648.8,161.6 649.0,165.7 649.2,172.7 649.3,182.0 649.5,179.9 649.7,169.1 649.8,163.7 650.0,160.3 650.1,158.0 650.3,156.5 650.5,155.6 650.6,155.3 650.8,155.4 651.0,156.0 651.1,157.2 651.3,159.1 651.5,161.9 651.6,166.1 651.8,173.4 651.9,182.0 652.1,179.0 652.3,168.8 652.4,163.6 652.6,160.3 652.8,158.0 652.9,156.6 653.1,155.7 653.3,155.4 653.4,155.6 653.6,156.2 653.7,157.4 653.9,159.3 654.1,162.2 654.2,166.5 654.4,174.1 654.6,182.0 654.7,178.2 654.9,168.5 655.1,163.5 655.2,160.2 655.4,158.1 655.5,156.6 655.7,155.8 655.9,155.5 656.0,155.7 656.2,156.4 656.4,157.6 656.5,159.6 656.7,162.5 656.9,167.0 657.0,174.8 657.2,182.0 657.3,177.5 657.5,168.3 657.7,163.3 657.8,160.2 658.0,158.1 658.2,156.7 658.3,155.9 658.5,155.6 658.7,155.8 658.8,156.6 659.0,157.8 659.1,159.8 659.3,162.8 659.5,167.4 659.6,175.6 659.8,182.0 660.0,176.9 660.1,168.0 660.3,163.2 660.5,160.2 660.6,158.1 660.8,156.7 661.0,156.0 661.1,155.7 661.3,156.0 661.4,156.7 661.6,158.0 661.8,160.1 661.9,163.1 662.1,167.8 662.3,176.4 662.4,182.0 662.6,176.3 662.8,167.8 662.9,163.1 663.1,160.1 663.2,158.1 663.4,156.8 663.6,156.0 663.7,155.8 663.9,156.1 664.1,156.9 664.2,158.2 664.4,160.3 664.6,163.4 664.7,168.3 664.9,177.2 665.0,182.0 665.2,175.7 665.4,167.6 665.5,163.0 665.7,160.1 665.9,158.1 666.0,156.8 666.2,156.1 666.4,155.9 666.5,156.2 666.7,157.0 666.8,158.4 667.0,160.6 667.2,163.8 667.3,168.7 667.5,178.0 667.7,182.0 667.8,175.2 668.0,167.4 668.2,163.0 668.3,160.1 668.5,158.1 668.6,156.9 668.8,156.2 669.0,156.0 669.1,156.4 669.3,157.2 669.5,158.6 669.6,160.8 669.8,164.1 670.0,169.2 670.1,178.9 670.3,182.0 670.4,174.7 670.6,167.2 670.8,162.9 670.9,160.0 671.1,158.1 671.3,156.9 671.4,156.3 671.6,156.1 671.8,156.5 671.9,157.3 672.1,158.8 672.2,161.0 672.4,164.4 672.6,169.6 672.7,179.7 672.9,182.0 673.1,174.3 673.2,167.0 673.4,162.8 673.6,160.0 673.7,158.2 673.9,157.0 674.0,156.4 674.2,156.2 674.4,156.6 674.5,157.5 674.7,159.0 674.9,161.3 675.0,164.7 675.2,170.0 675.4,180.7 675.5,182.0 675.7,173.9 675.8,166.9 676.0,162.7 676.2,160.0 676.3,158.2 676.5,157.0 676.7,156.4 676.8,156.3 677.0,156.7 677.2,157.7 677.3,159.2 677.5,161.5 677.6,165.0 677.8,170.5 678.0,181.7 678.1,182.0 678.3,173.5 678.5,166.7 678.6,162.6 678.8,160.0 679.0,158.2 679.1,157.1 679.3,156.5 679.4,156.4 679.6,156.9 679.8,157.8 679.9,159.4 680.1,161.7 680.3,165.3 680.4,170.9 680.6,182.0 680.8,182.0 680.9,173.1 681.1,166.5 681.2,162.6 681.4,160.0 681.6,158.2 681.7,157.1 681.9,156.6 682.1,156.5 682.2,157.0 682.4,157.9 682.6,159.5 682.7,162.0 682.9,165.6 683.0,171.4 683.2,182.0 683.4,182.0 683.5,172.8 683.7,166.4 683.9,162.5 684.0,159.9 684.2,158.2 684.4,157.2 684.5,156.6 684.7,156.6 684.8,157.1 685.0,158.1 685.2,159.7 685.3,162.2 685.5,165.9 685.7,171.8 685.8,182.0 686.0,182.0 686.2,172.5 686.3,166.2 686.5,162.4 686.6,159.9 686.8,158.2 687.0,157.2 687.1,156.7 687.3,156.7 687.5,157.2 687.6,158.2 687.8,159.9 688.0,162.4 688.1,166.2 688.3,172.3 688.4,182.0 688.6,182.0 688.8,172.2 688.9,166.1 689.1,162.4 689.3,159.9 689.4,158.3 689.6,157.3 689.8,156.8 689.9,156.8 690.1,157.3 690.2,158.4 690.4,160.1 690.6,162.6 690.7,166.5 690.9,172.8 691.1,182.0 691.2,182.0 691.4,171.9 691.6,166.0 691.7,162.3 691.9,159.9 692.0,158.3 692.2,157.3 692.4,156.8 692.5,156.9 692.7,157.4 692.9,158.5 693.0,160.3 693.2,162.8 693.4,166.8 693.5,173.2 693.7,182.0 693.8,182.0 694.0,171.6 694.2,165.8 694.3,162.3 694.5,159.9 694.7,158.3 694.8,157.3 695.0,156.9 695.2,157.0 695.3,157.5 695.5,158.7 695.6,160.4 695.8,163.1 696.0,167.1 696.1,173.7 696.3,182.0 696.5,182.0 696.6,171.3 696.8,165.7 697.0,162.2 697.1,159.9 697.3,158.3 697.4,157.4 697.6,157.0 697.8,157.1 697.9,157.7 698.1,158.8 698.3,160.6 698.4,163.3 698.6,167.4 698.8,174.2 698.9,182.0 699.1,182.0 699.2,171.1 699.4,165.6 699.6,162.1 699.7,159.8 699.9,158.3 700.1,157.4 700.2,157.0 700.4,157.1 700.6,157.8 700.7,158.9 700.9,160.8 701.0,163.5 701.2,167.6 701.4,174.7 701.5,182.0 701.7,181.4 701.9,170.8 702.0,165.5 702.2,162.1 702.4,159.8 702.5,158.3 702.7,157.5 702.8,157.1 703.0,157.2 703.2,157.9 703.3,159.1 703.5,160.9 703.7,163.7 703.8,167.9 704.0,175.2 704.2,182.0 704.3,180.7 704.5,170.6 704.6,165.3 704.8,162.0 705.0,159.8 705.1,158.4 705.3,157.5 705.5,157.2 705.6,157.3 705.8,158.0 706.0,159.2 706.1,161.1 706.3,163.9 706.4,168.2 706.6,175.7 706.8,182.0 706.9,180.1 707.1,170.3 707.3,165.2 707.4,162.0 707.6,159.8 707.8,158.4 707.9,157.5 708.1,157.2 708.2,157.4 708.4,158.1 708.6,159.3 708.7,161.2 708.9,164.1 709.1,168.5 709.2,176.3 709.4,182.0 709.6,179.6 709.7,170.1 709.9,165.1 710.0,161.9 710.2,159.8 710.4,158.4 710.5,157.6 710.7,157.3 710.9,157.5 711.0,158.2 711.2,159.4 711.4,161.4 711.5,164.3 711.7,168.8 711.8,176.8 712.0,182.0 712.2,179.0 712.3,169.9 712.5,165.0 712.7,161.9 712.8,159.8 713.0,158.4 713.2,157.6 713.3,157.3 713.5,157.5 713.6,158.3 713.8,159.6 714.0,161.6 714.1,164.5 714.3,169.1 714.5,177.3 714.6,182.0 714.8,178.5 715.0,169.7 715.1,164.9 715.3,161.8 715.4,159.8 715.6,158.4 715.8,157.6 715.9,157.4 716.1,157.6 716.3,158.4 716.4,159.7 716.6,161.7 716.8,164.8 716.9,169.4 717.1,177.9 717.2,182.0 717.4,178.0 717.6,169.5 717.7,164.8 717.9,161.8 718.1,159.7 718.2,158.4 718.4,157.7 718.6,157.4 718.7,157.7 718.9,158.5 719.0,159.8 719.2,161.9 719.4,165.0 719.5,169.7 719.7,178.5 719.9,182.0 720.0,177.6 720.2,169.3 720.4,164.7 720.5,161.7 720.7,159.7 720.8,158.4 721.0,157.7 721.2,157.5 721.3,157.8 721.5,158.6 721.7,159.9 721.8,162.0 722.0,165.2 722.2,170.0 722.3,179.1 722.5,182.0 722.6,177.1 722.8,169.1 723.0,164.6 723.1,161.7 723.3,159.7 723.5,158.4 723.6,157.7 723.8,157.5 724.0,157.8 724.1,158.6 724.3,160.0 724.4,162.2 724.6,165.4 724.8,170.4 724.9,179.7 725.1,182.0 725.3,176.7 725.4,168.9 725.6,164.5 725.8,161.6 725.9,159.7 726.1,158.4 726.2,157.8 726.4,157.6 726.6,157.9 726.7,158.7 726.9,160.2 727.1,162.3 727.2,165.6 727.4,170.7 727.6,180.3 727.7,182.0 727.9,176.3 728.0,168.8 728.2,164.4 728.4,161.6 728.5,159.7 728.7,158.4 728.9,157.8 729.0,157.6 729.2,158.0 729.4,158.8 729.5,160.3 729.7,162.5 729.8,165.8 730.0,171.0 730.2,181.0 730.3,182.0 730.5,176.0 730.7,168.6 730.8,164.3 731.0,161.5 731.2,159.7 731.3,158.5 731.5,157.8 731.6,157.7 731.8,158.0 732.0,158.9 732.1,160.4 732.3,162.6 732.5,166.0 732.6,171.3 732.8,181.6 733.0,182.0 733.1,175.6 733.3,168.4 733.4,164.2 733.6,161.5 733.8,159.6 733.9,158.5 734.1,157.8 734.3,157.7 734.4,158.1 734.6,159.0 734.8,160.5 734.9,162.8 735.1,166.2 735.2,171.6 735.4,182.0 735.6,182.0 735.7,175.2 735.9,168.3 736.1,164.1 736.2,161.4 736.4,159.6 736.6,158.5 736.7,157.9 736.9,157.8 737.0,158.2 737.2,159.1 737.4,160.6 737.5,162.9 737.7,166.4 737.9,171.9 738.0,182.0 738.2,182.0 738.4,174.9 738.5,168.1 738.7,164.0 738.8,161.4 739.0,159.6 739.2,158.5 739.3,157.9 739.5,157.8 739.7,158.2 739.8,159.2 740.0,160.7 740.2,163.1 740.3,166.6 740.5,172.2 740.6,182.0 740.8,182.0 741.0,174.6 741.1,167.9 741.3,164.0 741.5,161.3 741.6,159.6 741.8,158.5 742.0,157.9 742.1,157.9 742.3,158.3 742.4,159.3 742.6,160.8 742.8,163.2 742.9,166.8 743.1,172.6 743.3,182.0 743.4,182.0 743.6,174.3 743.8,167.8 743.9,163.9 744.1,161.3 744.3,159.5 744.4,158.5 744.6,157.9 744.7,157.9 744.9,158.3 745.1,159.3 745.2,160.9 745.4,163.4 745.6,167.0 745.7,172.9 745.9,182.0 746.1,182.0 746.2,174.0 746.4,167.6 746.5,163.8 746.7,161.2 746.9,159.5 747.0,158.5 747.2,157.9 747.4,157.9 747.5,158.4 747.7,159.4 747.9,161.1 748.0,163.5 748.2,167.2 748.3,173.2 748.5,182.0 748.7,182.0 748.8,173.7 749.0,167.5 749.2,163.7 749.3,161.2 749.5,159.5 749.7,158.5 749.8,158.0 750.0,158.0 750.1,158.5 750.3,159.5 750.5,161.2 750.6,163.7 750.8,167.4 751.0,173.6 751.1,182.0 751.3,182.0 751.5,173.4 751.6,167.3 751.8,163.6 751.9,161.1 752.1,159.5 752.3,158.5 752.4,158.0 752.6,158.0 752.8,158.5 752.9,159.6 753.1,161.3 753.3,163.8 753.4,167.6 753.6,173.9 753.7,182.0 753.9,182.0 754.1,173.1 754.2,167.2 754.4,163.5 754.6,161.1 754.7,159.5 754.9,158.5 755.1,158.0 755.2,158.0 755.4,158.6 755.5,159.6 755.7,161.4 755.9,163.9 756.0,167.8 756.2,174.3 756.4,182.0 756.5,182.0 756.7,172.8 756.9,167.0 757.0,163.4 757.2,161.0 757.3,159.4 757.5,158.5 757.7,158.0 757.8,158.1 758.0,158.6 758.2,159.7 758.3,161.5 758.5,164.1 758.7,168.0 758.8,174.6 759.0,182.0 759.1,182.0 759.3,172.6 759.5,166.9 759.6,163.3 759.8,161.0 760.0,159.4 760.1,158.4 760.3,158.0 760.5,158.1 760.6,158.7 760.8,159.8 760.9,161.6 761.1,164.2 761.3,168.2 761.4,175.0 761.6,182.0 761.8,182.0 761.9,172.3 762.1,166.7 762.3,163.2 762.4,160.9 762.6,159.4 762.7,158.4 762.9,158.0 763.1,158.1 763.2,158.7 763.4,159.9 763.6,161.7 763.7,164.4 763.9,168.4 764.1,175.3 764.2,182.0 764.4,182.0 764.5,172.0 764.7,166.6 764.9,163.2 765.0,160.9 765.2,159.3 765.4,158.4 765.5,158.0 765.7,158.2 765.9,158.8 766.0,159.9 766.2,161.8 766.3,164.5 766.5,168.6 766.7,175.7 766.8,182.0 767.0,182.0 767.2,171.8 767.3,166.4 767.5,163.1 767.7,160.8 767.8,159.3 768.0,158.4 768.1,158.1 768.3,158.2 768.5,158.8 768.6,160.0 768.8,161.9 769.0,164.6 769.1,168.9 769.3,176.1 769.5,182.0 769.6,181.8 769.8,171.5 769.9,166.3 770.1,163.0 770.3,160.7 770.4,159.3 770.6,158.4 770.8,158.1 770.9,158.2 771.1,158.9 771.3,160.1 771.4,162.0 771.6,164.8 771.7,169.1 771.9,176.5 772.1,182.0 772.2,181.2 772.4,171.3 772.6,166.2 772.7,162.9 772.9,160.7 773.1,159.2 773.2,158.4 773.4,158.1 773.5,158.2 773.7,158.9 773.9,160.1 774.0,162.1 774.2,164.9 774.4,169.3 774.5,176.9 774.7,182.0 774.9,180.6 775.0,171.1 775.2,166.0 775.3,162.8 775.5,160.6 775.7,159.2 775.8,158.4 776.0,158.1 776.2,158.3 776.3,158.9 776.5,160.2 776.7,162.1 776.8,165.0 777.0,169.5 777.1,177.3 777.3,182.0 777.5,180.1 777.6,170.8 777.8,165.9 778.0,162.7 778.1,160.6 778.3,159.2 778.5,158.4 778.6,158.1 778.8,158.3 778.9,159.0 779.1,160.3 779.3,162.2 779.4,165.2 779.6,169.7 779.8,177.7 779.9,182.0 780.1,179.6 780.3,170.6 780.4,165.7 780.6,162.6 780.7,160.5 780.9,159.1 781.1,158.4 781.2,158.1 781.4,158.3 781.6,159.0 781.7,160.3 781.9,162.3 782.1,165.3 782.2,169.9 782.4,178.2 782.5,182.0 782.7,179.1 782.9,170.4 783.0,165.6 783.2,162.5 783.4,160.5 783.5,159.1 783.7,158.3 783.9,158.1 784.0,158.3 784.2,159.1 784.3,160.4 784.5,162.4 784.7,165.5 784.8,170.2 785.0,178.6" fill="none" stroke="#4a90d9" stroke-width="1.5" stroke-linejoin="round"/>
  <text x="209.5" y="214" text-anchor="middle" font-size="11" fill="#6b7280">n / N</text>
  <text x="617.5" y="214" text-anchor="middle" font-size="11" fill="#6b7280">Normalized frequency (× Fₛ)</text>
</svg>
