<svg xmlns="http://www.w3.org/2000/svg" viewBox="0 0 560 190" width="560" height="190" style="font-family:system-ui,-apple-system,sans-serif">
  <rect width="560" height="190" fill="#fafafa" rx="6"/>
  <line x1="52" y1="152.0" x2="257" y2="152.0" stroke="#e5e7eb" stroke-width="0.5"/>
  <text x="48" y="155.0" text-anchor="end" font-size="7.5" fill="#6b7280">0</text>
  <line x1="52" y1="82.0" x2="257" y2="82.0" stroke="#e5e7eb" stroke-width="0.5"/>
  <text x="48" y="85.0" text-anchor="end" font-size="7.5" fill="#6b7280">0.5</text>
  <line x1="52" y1="12.0" x2="257" y2="12.0" stroke="#e5e7eb" stroke-width="0.5"/>
  <text x="48" y="15.0" text-anchor="end" font-size="7.5" fill="#6b7280">1</text>
  <line x1="52.0" y1="12" x2="52.0" y2="152" stroke="#e5e7eb" stroke-width="0.5"/>
  <text x="52.0" y="164" text-anchor="middle" font-size="7.5" fill="#6b7280">0</text>
  <line x1="154.5" y1="12" x2="154.5" y2="152" stroke="#e5e7eb" stroke-width="0.5"/>
  <text x="154.5" y="164" text-anchor="middle" font-size="7.5" fill="#6b7280">0.5</text>
  <line x1="257.0" y1="12" x2="257.0" y2="152" stroke="#e5e7eb" stroke-width="0.5"/>
  <text x="257.0" y="164" text-anchor="middle" font-size="7.5" fill="#6b7280">1</text>
  <line x1="52" y1="12" x2="52" y2="152" stroke="#d1d5db" stroke-width="0.75"/>
  <line x1="52" y1="152" x2="257" y2="152" stroke="#d1d5db" stroke-width="0.75"/>
  <path d="M52.0,152.0 52.0,151.0 52.8,151.0 53.6,151.0 54.4,151.0 55.2,150.9 56.0,150.8 56.8,150.7 57.6,150.6 58.4,150.5 59.2,150.4 60.0,150.2 60.8,150.0 61.6,149.8 62.5,149.6 63.3,149.4 64.1,149.2 64.9,148.9 65.7,148.6 66.5,148.3 67.3,147.9 68.1,147.6 68.9,147.2 69.7,146.8 70.5,146.4 71.3,145.9 72.1,145.4 72.9,144.9 73.7,144.4 74.5,143.9 75.3,143.3 76.1,142.7 76.9,142.0 77.7,141.3 78.5,140.6 79.3,139.9 80.1,139.2 80.9,138.4 81.7,137.5 82.5,136.7 83.4,135.8 84.2,134.9 85.0,133.9 85.8,132.9 86.6,131.9 87.4,130.8 88.2,129.7 89.0,128.6 89.8,127.5 90.6,126.3 91.4,125.0 92.2,123.8 93.0,122.5 93.8,121.1 94.6,119.8 95.4,118.4 96.2,116.9 97.0,115.5 97.8,114.0 98.6,112.4 99.4,110.9 100.2,109.3 101.0,107.6 101.8,106.0 102.6,104.3 103.5,102.6 104.3,100.9 105.1,99.1 105.9,97.3 106.7,95.5 107.5,93.7 108.3,91.9 109.1,90.0 109.9,88.1 110.7,86.2 111.5,84.3 112.3,82.4 113.1,80.5 113.9,78.5 114.7,76.6 115.5,74.6 116.3,72.7 117.1,70.7 117.9,68.8 118.7,66.8 119.5,64.8 120.3,62.9 121.1,61.0 121.9,59.0 122.7,57.1 123.5,55.2 124.4,53.3 125.2,51.5 126.0,49.6 126.8,47.8 127.6,46.0 128.4,44.2 129.2,42.5 130.0,40.8 130.8,39.1 131.6,37.4 132.4,35.8 133.2,34.2 134.0,32.7 134.8,31.2 135.6,29.8 136.4,28.4 137.2,27.0 138.0,25.7 138.8,24.5 139.6,23.3 140.4,22.1 141.2,21.0 142.0,20.0 142.8,19.0 143.6,18.1 144.5,17.2 145.3,16.5 146.1,15.7 146.9,15.1 147.7,14.4 148.5,13.9 149.3,13.4 150.1,13.0 150.9,12.7 151.7,12.4 152.5,12.2 153.3,12.1 154.1,12.0 154.9,12.0 155.7,12.1 156.5,12.2 157.3,12.4 158.1,12.7 158.9,13.0 159.7,13.4 160.5,13.9 161.3,14.4 162.1,15.1 162.9,15.7 163.7,16.5 164.5,17.2 165.4,18.1 166.2,19.0 167.0,20.0 167.8,21.0 168.6,22.1 169.4,23.3 170.2,24.5 171.0,25.7 171.8,27.0 172.6,28.4 173.4,29.8 174.2,31.2 175.0,32.7 175.8,34.2 176.6,35.8 177.4,37.4 178.2,39.1 179.0,40.8 179.8,42.5 180.6,44.2 181.4,46.0 182.2,47.8 183.0,49.6 183.8,51.5 184.6,53.3 185.5,55.2 186.3,57.1 187.1,59.0 187.9,61.0 188.7,62.9 189.5,64.8 190.3,66.8 191.1,68.8 191.9,70.7 192.7,72.7 193.5,74.6 194.3,76.6 195.1,78.5 195.9,80.5 196.7,82.4 197.5,84.3 198.3,86.2 199.1,88.1 199.9,90.0 200.7,91.9 201.5,93.7 202.3,95.5 203.1,97.3 203.9,99.1 204.7,100.9 205.5,102.6 206.4,104.3 207.2,106.0 208.0,107.6 208.8,109.3 209.6,110.9 210.4,112.4 211.2,114.0 212.0,115.5 212.8,116.9 213.6,118.4 214.4,119.8 215.2,121.1 216.0,122.5 216.8,123.8 217.6,125.0 218.4,126.3 219.2,127.5 220.0,128.6 220.8,129.7 221.6,130.8 222.4,131.9 223.2,132.9 224.0,133.9 224.8,134.9 225.6,135.8 226.5,136.7 227.3,137.5 228.1,138.4 228.9,139.2 229.7,139.9 230.5,140.6 231.3,141.3 232.1,142.0 232.9,142.7 233.7,143.3 234.5,143.9 235.3,144.4 236.1,144.9 236.9,145.4 237.7,145.9 238.5,146.4 239.3,146.8 240.1,147.2 240.9,147.6 241.7,147.9 242.5,148.3 243.3,148.6 244.1,148.9 244.9,149.2 245.7,149.4 246.5,149.6 247.4,149.8 248.2,150.0 249.0,150.2 249.8,150.4 250.6,150.5 251.4,150.6 252.2,150.7 253.0,150.8 253.8,150.9 254.6,151.0 255.4,151.0 256.2,151.0 257.0,151.0 L257.0,152.0 Z" fill="#4a90d9" fill-opacity="0.06"/>
  <polyline points="52.0,151.0 52.8,151.0 53.6,151.0 54.4,151.0 55.2,150.9 56.0,150.8 56.8,150.7 57.6,150.6 58.4,150.5 59.2,150.4 60.0,150.2 60.8,150.0 61.6,149.8 62.5,149.6 63.3,149.4 64.1,149.2 64.9,148.9 65.7,148.6 66.5,148.3 67.3,147.9 68.1,147.6 68.9,147.2 69.7,146.8 70.5,146.4 71.3,145.9 72.1,145.4 72.9,144.9 73.7,144.4 74.5,143.9 75.3,143.3 76.1,142.7 76.9,142.0 77.7,141.3 78.5,140.6 79.3,139.9 80.1,139.2 80.9,138.4 81.7,137.5 82.5,136.7 83.4,135.8 84.2,134.9 85.0,133.9 85.8,132.9 86.6,131.9 87.4,130.8 88.2,129.7 89.0,128.6 89.8,127.5 90.6,126.3 91.4,125.0 92.2,123.8 93.0,122.5 93.8,121.1 94.6,119.8 95.4,118.4 96.2,116.9 97.0,115.5 97.8,114.0 98.6,112.4 99.4,110.9 100.2,109.3 101.0,107.6 101.8,106.0 102.6,104.3 103.5,102.6 104.3,100.9 105.1,99.1 105.9,97.3 106.7,95.5 107.5,93.7 108.3,91.9 109.1,90.0 109.9,88.1 110.7,86.2 111.5,84.3 112.3,82.4 113.1,80.5 113.9,78.5 114.7,76.6 115.5,74.6 116.3,72.7 117.1,70.7 117.9,68.8 118.7,66.8 119.5,64.8 120.3,62.9 121.1,61.0 121.9,59.0 122.7,57.1 123.5,55.2 124.4,53.3 125.2,51.5 126.0,49.6 126.8,47.8 127.6,46.0 128.4,44.2 129.2,42.5 130.0,40.8 130.8,39.1 131.6,37.4 132.4,35.8 133.2,34.2 134.0,32.7 134.8,31.2 135.6,29.8 136.4,28.4 137.2,27.0 138.0,25.7 138.8,24.5 139.6,23.3 140.4,22.1 141.2,21.0 142.0,20.0 142.8,19.0 143.6,18.1 144.5,17.2 145.3,16.5 146.1,15.7 146.9,15.1 147.7,14.4 148.5,13.9 149.3,13.4 150.1,13.0 150.9,12.7 151.7,12.4 152.5,12.2 153.3,12.1 154.1,12.0 154.9,12.0 155.7,12.1 156.5,12.2 157.3,12.4 158.1,12.7 158.9,13.0 159.7,13.4 160.5,13.9 161.3,14.4 162.1,15.1 162.9,15.7 163.7,16.5 164.5,17.2 165.4,18.1 166.2,19.0 167.0,20.0 167.8,21.0 168.6,22.1 169.4,23.3 170.2,24.5 171.0,25.7 171.8,27.0 172.6,28.4 173.4,29.8 174.2,31.2 175.0,32.7 175.8,34.2 176.6,35.8 177.4,37.4 178.2,39.1 179.0,40.8 179.8,42.5 180.6,44.2 181.4,46.0 182.2,47.8 183.0,49.6 183.8,51.5 184.6,53.3 185.5,55.2 186.3,57.1 187.1,59.0 187.9,61.0 188.7,62.9 189.5,64.8 190.3,66.8 191.1,68.8 191.9,70.7 192.7,72.7 193.5,74.6 194.3,76.6 195.1,78.5 195.9,80.5 196.7,82.4 197.5,84.3 198.3,86.2 199.1,88.1 199.9,90.0 200.7,91.9 201.5,93.7 202.3,95.5 203.1,97.3 203.9,99.1 204.7,100.9 205.5,102.6 206.4,104.3 207.2,106.0 208.0,107.6 208.8,109.3 209.6,110.9 210.4,112.4 211.2,114.0 212.0,115.5 212.8,116.9 213.6,118.4 214.4,119.8 215.2,121.1 216.0,122.5 216.8,123.8 217.6,125.0 218.4,126.3 219.2,127.5 220.0,128.6 220.8,129.7 221.6,130.8 222.4,131.9 223.2,132.9 224.0,133.9 224.8,134.9 225.6,135.8 226.5,136.7 227.3,137.5 228.1,138.4 228.9,139.2 229.7,139.9 230.5,140.6 231.3,141.3 232.1,142.0 232.9,142.7 233.7,143.3 234.5,143.9 235.3,144.4 236.1,144.9 236.9,145.4 237.7,145.9 238.5,146.4 239.3,146.8 240.1,147.2 240.9,147.6 241.7,147.9 242.5,148.3 243.3,148.6 244.1,148.9 244.9,149.2 245.7,149.4 246.5,149.6 247.4,149.8 248.2,150.0 249.0,150.2 249.8,150.4 250.6,150.5 251.4,150.6 252.2,150.7 253.0,150.8 253.8,150.9 254.6,151.0 255.4,151.0 256.2,151.0 257.0,151.0" fill="none" stroke="#4a90d9" stroke-width="1.2" stroke-linejoin="round"/>
  <line x1="322" y1="12.0" x2="527" y2="12.0" stroke="#e5e7eb" stroke-width="0.5"/>
  <text x="318" y="15.0" text-anchor="end" font-size="7.5" fill="#6b7280">0</text>
  <line x1="322" y1="58.7" x2="527" y2="58.7" stroke="#e5e7eb" stroke-width="0.5"/>
  <text x="318" y="61.7" text-anchor="end" font-size="7.5" fill="#6b7280">-40</text>
  <line x1="322" y1="105.3" x2="527" y2="105.3" stroke="#e5e7eb" stroke-width="0.5"/>
  <text x="318" y="108.3" text-anchor="end" font-size="7.5" fill="#6b7280">-80</text>
  <line x1="322" y1="152.0" x2="527" y2="152.0" stroke="#e5e7eb" stroke-width="0.5"/>
  <text x="318" y="155.0" text-anchor="end" font-size="7.5" fill="#6b7280">-120</text>
  <line x1="322.0" y1="12" x2="322.0" y2="152" stroke="#e5e7eb" stroke-width="0.5"/>
  <text x="322.0" y="164" text-anchor="middle" font-size="7.5" fill="#6b7280">0</text>
  <line x1="363.0" y1="12" x2="363.0" y2="152" stroke="#e5e7eb" stroke-width="0.5"/>
  <text x="363.0" y="164" text-anchor="middle" font-size="7.5" fill="#6b7280">0.1</text>
  <line x1="404.0" y1="12" x2="404.0" y2="152" stroke="#e5e7eb" stroke-width="0.5"/>
  <text x="404.0" y="164" text-anchor="middle" font-size="7.5" fill="#6b7280">0.2</text>
  <line x1="445.0" y1="12" x2="445.0" y2="152" stroke="#e5e7eb" stroke-width="0.5"/>
  <text x="445.0" y="164" text-anchor="middle" font-size="7.5" fill="#6b7280">0.3</text>
  <line x1="486.0" y1="12" x2="486.0" y2="152" stroke="#e5e7eb" stroke-width="0.5"/>
  <text x="486.0" y="164" text-anchor="middle" font-size="7.5" fill="#6b7280">0.4</text>
  <line x1="527.0" y1="12" x2="527.0" y2="152" stroke="#e5e7eb" stroke-width="0.5"/>
  <text x="527.0" y="164" text-anchor="middle" font-size="7.5" fill="#6b7280">0.5</text>
  <line x1="322" y1="12" x2="322" y2="152" stroke="#d1d5db" stroke-width="0.75"/>
  <line x1="322" y1="152" x2="527" y2="152" stroke="#d1d5db" stroke-width="0.75"/>
  <polyline points="322.0,12.0 322.1,12.0 322.2,12.1 322.3,12.2 322.4,12.3 322.5,12.5 322.6,12.7 322.7,13.0 322.8,13.3 322.9,13.7 323.0,14.1 323.1,14.5 323.2,15.0 323.3,15.6 323.4,16.1 323.5,16.8 323.6,17.4 323.7,18.2 323.8,18.9 323.9,19.8 324.0,20.7 324.1,21.6 324.2,22.6 324.3,23.6 324.4,24.7 324.5,25.9 324.6,27.1 324.7,28.5 324.8,29.8 324.9,31.3 325.0,32.8 325.1,34.5 325.2,36.2 325.3,38.0 325.4,39.9 325.5,41.9 325.6,44.1 325.7,46.4 325.8,48.9 325.9,51.5 326.0,54.4 326.1,57.5 326.2,60.9 326.3,64.7 326.4,69.0 326.5,74.2 326.6,80.7 326.7,90.2 326.8,143.0 326.9,95.8 327.0,92.0 327.1,91.5 327.2,92.7 327.3,95.2 327.4,99.3 327.5,106.1 327.6,125.0 327.7,112.8 327.8,106.2 327.9,103.6 328.0,102.9 328.1,103.2 328.2,104.3 328.3,106.3 328.4,109.1 328.5,113.0 328.6,118.5 328.7,127.1 328.8,152.0 328.9,135.2 329.0,132.2 329.1,134.5 329.2,143.9 329.3,147.0 329.4,136.8 329.5,136.0 329.6,146.5 329.7,134.3 329.8,122.7 329.9,116.0 330.0,111.2 330.1,107.6 330.2,104.7 330.3,102.4 330.4,100.6 330.5,99.2 330.6,98.3 330.7,97.7 330.8,97.5 330.9,97.6 331.0,98.3 331.1,99.4 331.2,101.4 331.3,104.5 331.4,110.0 331.5,126.8 331.6,114.0 331.7,105.6 331.8,101.1 331.9,98.2 332.0,96.1 332.1,94.7 332.2,93.8 332.3,93.3 332.4,93.2 332.5,93.5 332.6,94.2 332.7,95.4 332.8,97.3 332.9,100.2 333.0,104.9 333.1,115.3 333.2,116.7 333.3,105.1 333.4,100.0 333.5,96.9 333.6,94.8 333.7,93.4 333.8,92.5 333.9,92.0 334.0,91.9 334.1,92.2 334.2,92.9 334.3,94.1 334.4,96.0 334.5,98.8 334.6,103.2 334.7,112.4 334.8,119.2 334.9,105.3 335.0,99.9 335.1,96.6 335.2,94.5 335.3,93.0 335.4,92.1 335.5,91.6 335.6,91.6 335.7,91.9 335.8,92.6 335.9,93.8 336.0,95.6 336.1,98.4 336.2,102.7 336.3,111.3 336.4,121.4 336.5,105.8 336.6,100.1 336.7,96.8 336.8,94.6 336.9,93.2 337.0,92.2 337.1,91.7 337.2,91.7 337.3,92.0 337.4,92.7 337.5,93.9 337.6,95.7 337.7,98.4 337.8,102.6 337.9,110.9 338.0,123.4 338.1,106.4 338.2,100.6 338.3,97.2 338.4,95.0 338.5,93.5 338.6,92.5 338.7,92.0 338.8,92.0 338.9,92.3 339.0,93.0 339.1,94.2 339.2,96.0 339.3,98.6 339.4,102.8 339.5,110.9 339.6,125.3 339.7,107.0 339.8,101.1 339.9,97.6 340.0,95.4 340.1,93.9 340.2,93.0 340.3,92.5 340.4,92.4 340.5,92.7 340.6,93.4 340.7,94.6 340.8,96.3 340.9,99.0 341.0,103.1 341.1,111.0 341.2,127.0 341.3,107.6 341.4,101.6 341.5,98.2 341.6,95.9 341.7,94.4 341.8,93.4 341.9,92.9 342.0,92.8 342.1,93.1 342.2,93.8 342.3,95.0 342.4,96.8 342.5,99.4 342.6,103.5 342.7,111.3 342.8,128.6 342.9,108.2 343.0,102.2 343.1,98.7 343.2,96.4 343.3,94.9 343.4,93.9 343.5,93.4 343.6,93.3 343.7,93.6 343.8,94.3 343.9,95.5 344.0,97.2 344.1,99.9 344.2,103.9 344.3,111.6 344.4,130.1 344.5,108.9 344.6,102.7 344.7,99.2 344.8,96.9 344.9,95.4 345.0,94.4 345.1,93.9 345.2,93.8 345.3,94.1 345.4,94.8 345.5,95.9 345.6,97.7 345.7,100.3 345.8,104.4 345.9,111.9 346.0,131.4 346.1,109.4 346.2,103.3 346.3,99.7 346.4,97.4 346.5,95.9 346.6,94.9 346.7,94.4 346.8,94.3 346.9,94.6 347.0,95.3 347.1,96.4 347.2,98.2 347.3,100.8 347.4,104.8 347.5,112.3 347.6,132.7 347.7,110.0 347.8,103.8 347.9,100.2 348.0,97.9 348.1,96.4 348.2,95.4 348.3,94.9 348.4,94.8 348.5,95.0 348.6,95.7 348.7,96.9 348.8,98.6 348.9,101.2 349.0,105.2 349.1,112.7 349.2,134.0 349.3,110.6 349.4,104.3 349.5,100.7 349.6,98.4 349.7,96.9 349.8,95.9 349.9,95.4 350.0,95.2 350.1,95.5 350.2,96.2 350.3,97.3 350.4,99.1 350.5,101.6 350.6,105.6 350.7,113.1 350.8,135.1 350.9,111.1 351.0,104.8 351.1,101.2 351.2,98.9 351.3,97.3 351.4,96.3 351.5,95.8 351.6,95.7 351.7,95.9 351.8,96.6 351.9,97.8 352.0,99.5 352.1,102.1 352.2,106.1 352.3,113.4 352.4,136.2 352.5,111.6 352.6,105.2 352.7,101.7 352.8,99.3 352.9,97.8 353.0,96.8 353.1,96.3 353.2,96.1 353.3,96.4 353.4,97.1 353.5,98.2 353.6,99.9 353.7,102.5 353.8,106.5 353.9,113.8 354.0,137.2 354.1,112.1 354.2,105.7 354.3,102.1 354.4,99.8 354.5,98.2 354.6,97.2 354.7,96.7 354.8,96.5 354.9,96.8 355.0,97.5 355.1,98.6 355.2,100.3 355.3,102.9 355.4,106.8 355.5,114.2 355.6,138.2 355.7,112.5 355.8,106.1 355.9,102.5 356.0,100.2 356.1,98.6 356.3,97.6 356.4,97.1 356.5,96.9 356.6,97.2 356.7,97.9 356.8,99.0 356.9,100.7 357.0,103.3 357.1,107.2 357.2,114.5 357.3,139.2 357.4,113.0 357.5,106.6 357.6,102.9 357.7,100.6 357.8,99.0 357.9,98.0 358.0,97.5 358.1,97.3 358.2,97.6 358.3,98.3 358.4,99.4 358.5,101.1 358.6,103.7 358.7,107.6 358.8,114.9 358.9,140.1 359.0,113.4 359.1,107.0 359.2,103.3 359.3,101.0 359.4,99.4 359.5,98.4 359.6,97.9 359.7,97.7 359.8,98.0 359.9,98.6 360.0,99.8 360.1,101.5 360.2,104.0 360.3,108.0 360.4,115.2 360.5,140.9 360.6,113.8 360.7,107.3 360.8,103.7 360.9,101.4 361.0,99.8 361.1,98.8 361.2,98.2 361.3,98.1 361.4,98.3 361.5,99.0 361.6,100.1 361.7,101.8 361.8,104.4 361.9,108.3 362.0,115.5 362.1,141.8 362.2,114.2 362.3,107.7 362.4,104.1 362.5,101.7 362.6,100.2 362.7,99.2 362.8,98.6 362.9,98.4 363.0,98.7 363.1,99.4 363.2,100.5 363.3,102.2 363.4,104.7 363.5,108.6 363.6,115.9 363.7,142.6 363.8,114.6 363.9,108.1 364.0,104.4 364.1,102.1 364.2,100.5 364.3,99.5 364.4,98.9 364.5,98.8 364.6,99.0 364.7,99.7 364.8,100.8 364.9,102.5 365.0,105.0 365.1,109.0 365.2,116.2 365.3,143.4 365.4,114.9 365.5,108.4 365.6,104.8 365.7,102.4 365.8,100.9 365.9,99.8 366.0,99.3 366.1,99.1 366.2,99.4 366.3,100.0 366.4,101.1 366.5,102.8 366.6,105.4 366.7,109.3 366.8,116.5 366.9,144.1 367.0,115.3 367.1,108.8 367.2,105.1 367.3,102.8 367.4,101.2 367.5,100.2 367.6,99.6 367.7,99.4 367.8,99.7 367.9,100.3 368.0,101.5 368.1,103.2 368.2,105.7 368.3,109.6 368.4,116.8 368.5,144.8 368.6,115.6 368.7,109.1 368.8,105.4 368.9,103.1 369.0,101.5 369.1,100.5 369.2,99.9 369.3,99.8 369.4,100.0 369.5,100.6 369.6,101.8 369.7,103.5 369.8,106.0 369.9,109.9 370.0,117.0 370.1,145.5 370.2,115.9 370.3,109.4 370.4,105.8 370.5,103.4 370.6,101.8 370.7,100.8 370.8,100.2 370.9,100.1 371.0,100.3 371.1,100.9 371.2,102.1 371.3,103.8 371.4,106.3 371.5,110.2 371.6,117.3 371.7,146.2 371.8,116.3 371.9,109.7 372.0,106.1 372.1,103.7 372.2,102.1 372.3,101.1 372.4,100.5 372.5,100.4 372.6,100.6 372.7,101.2 372.8,102.3 372.9,104.0 373.0,106.6 373.1,110.4 373.2,117.6 373.3,146.9 373.4,116.6 373.5,110.0 373.6,106.3 373.7,104.0 373.8,102.4 373.9,101.4 374.0,100.8 374.1,100.6 374.2,100.9 374.3,101.5 374.4,102.6 374.5,104.3 374.6,106.8 374.7,110.7 374.8,117.8 374.9,147.5 375.0,116.9 375.1,110.3 375.2,106.6 375.3,104.3 375.4,102.7 375.5,101.6 375.6,101.1 375.7,100.9 375.8,101.1 375.9,101.8 376.0,102.9 376.1,104.6 376.2,107.1 376.3,111.0 376.4,118.1 376.5,148.1 376.6,117.1 376.7,110.6 376.8,106.9 376.9,104.5 377.0,102.9 377.1,101.9 377.2,101.3 377.3,101.2 377.4,101.4 377.5,102.0 377.6,103.2 377.7,104.8 377.8,107.4 377.9,111.2 378.0,118.3 378.1,148.7 378.2,117.4 378.3,110.8 378.4,107.2 378.5,104.8 378.6,103.2 378.7,102.2 378.8,101.6 378.9,101.4 379.0,101.7 379.1,102.3 379.2,103.4 379.3,105.1 379.4,107.6 379.5,111.5 379.6,118.6 379.7,149.3 379.8,117.7 379.9,111.1 380.0,107.4 380.1,105.0 380.2,103.4 380.3,102.4 380.4,101.8 380.5,101.7 380.6,101.9 380.7,102.6 380.8,103.7 380.9,105.3 381.0,107.8 381.1,111.7 381.2,118.8 381.3,149.9 381.4,117.9 381.5,111.4 381.6,107.7 381.7,105.3 381.8,103.7 381.9,102.7 382.0,102.1 382.1,101.9 382.2,102.2 382.3,102.8 382.4,103.9 382.5,105.6 382.6,108.1 382.7,112.0 382.8,119.0 382.9,150.5 383.0,118.2 383.1,111.6 383.2,107.9 383.3,105.5 383.4,103.9 383.5,102.9 383.6,102.3 383.7,102.2 383.8,102.4 383.9,103.0 384.0,104.1 384.1,105.8 384.2,108.3 384.3,112.2 384.4,119.3 384.5,151.0 384.6,118.4 384.7,111.8 384.8,108.2 384.9,105.8 385.0,104.2 385.1,103.1 385.2,102.6 385.3,102.4 385.4,102.6 385.5,103.3 385.6,104.4 385.7,106.0 385.8,108.5 385.9,112.4 386.0,119.5 386.1,151.6 386.2,118.7 386.3,112.1 386.4,108.4 386.5,106.0 386.6,104.4 386.7,103.4 386.8,102.8 386.9,102.6 387.0,102.8 387.1,103.5 387.2,104.6 387.3,106.3 387.4,108.8 387.5,112.6 387.6,119.7 387.7,152.0 387.8,118.9 387.9,112.3 388.0,108.6 388.1,106.2 388.2,104.6 388.3,103.6 388.4,103.0 388.5,102.8 388.6,103.1 388.7,103.7 388.8,104.8 388.9,106.5 389.0,109.0 389.1,112.8 389.2,119.9 389.3,152.0 389.4,119.1 389.5,112.5 389.6,108.8 389.7,106.4 389.8,104.8 389.9,103.8 390.0,103.2 390.1,103.0 390.2,103.3 390.3,103.9 390.4,105.0 390.5,106.7 390.6,109.2 390.7,113.0 390.8,120.1 390.9,152.0 391.0,119.4 391.1,112.7 391.2,109.0 391.3,106.6 391.4,105.0 391.5,104.0 391.6,103.4 391.7,103.3 391.8,103.5 391.9,104.1 392.0,105.2 392.1,106.9 392.2,109.4 392.3,113.2 392.4,120.3 392.5,152.0 392.6,119.6 392.7,112.9 392.8,109.2 392.9,106.8 393.0,105.2 393.1,104.2 393.2,103.6 393.3,103.5 393.4,103.7 393.5,104.3 393.6,105.4 393.7,107.1 393.8,109.6 393.9,113.4 394.0,120.5 394.1,152.0 394.2,119.8 394.3,113.1 394.4,109.4 394.5,107.0 394.6,105.4 394.7,104.4 394.8,103.8 394.9,103.6 395.0,103.9 395.1,104.5 395.2,105.6 395.3,107.3 395.4,109.8 395.5,113.6 395.6,120.6 395.7,152.0 395.8,120.0 395.9,113.3 396.0,109.6 396.1,107.2 396.2,105.6 396.3,104.6 396.4,104.0 396.5,103.8 396.6,104.1 396.7,104.7 396.8,105.8 396.9,107.5 397.0,110.0 397.1,113.8 397.2,120.8 397.3,152.0 397.4,120.2 397.5,113.5 397.6,109.8 397.7,107.4 397.8,105.8 397.9,104.8 398.0,104.2 398.1,104.0 398.2,104.2 398.3,104.9 398.4,106.0 398.5,107.6 398.6,110.1 398.7,114.0 398.8,121.0 398.9,152.0 399.0,120.4 399.1,113.7 399.2,110.0 399.3,107.6 399.4,106.0 399.5,105.0 399.6,104.4 399.7,104.2 399.8,104.4 399.9,105.1 400.0,106.2 400.1,107.8 400.2,110.3 400.3,114.2 400.4,121.2 400.5,152.0 400.6,120.6 400.7,113.9 400.8,110.2 400.9,107.8 401.0,106.2 401.1,105.1 401.2,104.6 401.3,104.4 401.4,104.6 401.5,105.2 401.6,106.3 401.7,108.0 401.8,110.5 401.9,114.3 402.0,121.3 402.1,152.0 402.2,120.7 402.3,114.1 402.4,110.4 402.5,108.0 402.6,106.4 402.7,105.3 402.8,104.7 402.9,104.6 403.0,104.8 403.1,105.4 403.2,106.5 403.3,108.2 403.4,110.7 403.5,114.5 403.6,121.5 403.7,152.0 403.8,120.9 403.9,114.3 404.0,110.5 404.1,108.1 404.2,106.5 404.3,105.5 404.4,104.9 404.5,104.7 404.6,104.9 404.7,105.6 404.8,106.7 404.9,108.3 405.0,110.8 405.1,114.7 405.2,121.6 405.3,152.0 405.4,121.1 405.5,114.4 405.6,110.7 405.7,108.3 405.8,106.7 405.9,105.6 406.0,105.1 406.1,104.9 406.2,105.1 406.3,105.7 406.4,106.8 406.5,108.5 406.6,111.0 406.7,114.8 406.8,121.8 406.9,152.0 407.0,121.3 407.1,114.6 407.2,110.9 407.3,108.5 407.4,106.9 407.5,105.8 407.6,105.2 407.7,105.0 407.8,105.3 407.9,105.9 408.0,107.0 408.1,108.7 408.2,111.1 408.3,115.0 408.4,122.0 408.5,152.0 408.6,121.4 408.7,114.7 408.8,111.0 408.9,108.6 409.0,107.0 409.1,106.0 409.2,105.4 409.3,105.2 409.4,105.4 409.5,106.0 409.6,107.1 409.7,108.8 409.8,111.3 409.9,115.1 410.0,122.1 410.1,152.0 410.2,121.6 410.3,114.9 410.4,111.2 410.5,108.8 410.6,107.2 410.7,106.1 410.8,105.5 410.9,105.4 411.0,105.6 411.1,106.2 411.2,107.3 411.3,109.0 411.4,111.4 411.5,115.3 411.6,122.2 411.7,152.0 411.8,121.7 411.9,115.1 412.0,111.3 412.1,108.9 412.2,107.3 412.3,106.3 412.4,105.7 412.5,105.5 412.6,105.7 412.7,106.3 412.8,107.4 412.9,109.1 413.0,111.6 413.1,115.4 413.2,122.4 413.3,152.0 413.4,121.9 413.5,115.2 413.6,111.5 413.7,109.1 413.8,107.5 413.9,106.4 414.0,105.8 414.1,105.6 414.2,105.9 414.3,106.5 414.4,107.6 414.5,109.2 414.6,111.7 414.7,115.6 414.8,122.5 414.9,152.0 415.0,122.0 415.1,115.4 415.2,111.6 415.3,109.2 415.4,107.6 415.5,106.6 415.6,106.0 415.7,105.8 415.8,106.0 415.9,106.6 416.0,107.7 416.1,109.4 416.2,111.9 416.3,115.7 416.4,122.7 416.5,152.0 416.6,122.2 416.7,115.5 416.8,111.8 416.9,109.4 417.0,107.7 417.1,106.7 417.2,106.1 417.3,105.9 417.4,106.1 417.5,106.8 417.6,107.9 417.7,109.5 417.8,112.0 417.9,115.8 418.0,122.8 418.1,152.0 418.2,122.3 418.3,115.6 418.4,111.9 418.5,109.5 418.6,107.9 418.7,106.8 418.8,106.2 418.9,106.1 419.0,106.3 419.1,106.9 419.2,108.0 419.3,109.7 419.4,112.1 419.5,116.0 419.6,122.9 419.7,152.0 419.8,122.5 419.9,115.8 420.0,112.0 420.1,109.6 420.2,108.0 420.3,107.0 420.4,106.4 420.5,106.2 420.6,106.4 420.7,107.0 420.8,108.1 420.9,109.8 421.0,112.3 421.1,116.1 421.2,123.0 421.3,152.0 421.4,122.6 421.5,115.9 421.6,112.2 421.7,109.8 421.8,108.1 421.9,107.1 422.0,106.5 422.1,106.3 422.2,106.5 422.3,107.2 422.4,108.2 422.5,109.9 422.6,112.4 422.7,116.2 422.8,123.2 422.9,152.0 423.0,122.7 423.1,116.0 423.2,112.3 423.3,109.9 423.4,108.3 423.5,107.2 423.6,106.6 423.7,106.4 423.8,106.7 423.9,107.3 424.0,108.4 424.1,110.0 424.2,112.5 424.3,116.3 424.4,123.3 424.6,152.0 424.7,122.9 424.8,116.2 424.9,112.4 425.0,110.0 425.1,108.4 425.2,107.3 425.3,106.7 425.4,106.6 425.5,106.8 425.6,107.4 425.7,108.5 425.8,110.2 425.9,112.6 426.0,116.4 426.1,123.4 426.2,152.0 426.3,123.0 426.4,116.3 426.5,112.5 426.6,110.1 426.7,108.5 426.8,107.5 426.9,106.9 427.0,106.7 427.1,106.9 427.2,107.5 427.3,108.6 427.4,110.3 427.5,112.7 427.6,116.6 427.7,123.5 427.8,152.0 427.9,123.1 428.0,116.4 428.1,112.7 428.2,110.2 428.3,108.6 428.4,107.6 428.5,107.0 428.6,106.8 428.7,107.0 428.8,107.6 428.9,108.7 429.0,110.4 429.1,112.9 429.2,116.7 429.3,123.6 429.4,152.0 429.5,123.2 429.6,116.5 429.7,112.8 429.8,110.4 429.9,108.7 430.0,107.7 430.1,107.1 430.2,106.9 430.3,107.1 430.4,107.8 430.5,108.8 430.6,110.5 430.7,113.0 430.8,116.8 430.9,123.7 431.0,152.0 431.1,123.4 431.2,116.6 431.3,112.9 431.4,110.5 431.5,108.9 431.6,107.8 431.7,107.2 431.8,107.0 431.9,107.2 432.0,107.9 432.1,108.9 432.2,110.6 432.3,113.1 432.4,116.9 432.5,123.8 432.6,152.0 432.7,123.5 432.8,116.7 432.9,113.0 433.0,110.6 433.1,109.0 433.2,107.9 433.3,107.3 433.4,107.1 433.5,107.3 433.6,108.0 433.7,109.1 433.8,110.7 433.9,113.2 434.0,117.0 434.1,123.9 434.2,152.0 434.3,123.6 434.4,116.9 434.5,113.1 434.6,110.7 434.7,109.1 434.8,108.0 434.9,107.4 435.0,107.2 435.1,107.5 435.2,108.1 435.3,109.2 435.4,110.8 435.5,113.3 435.6,117.1 435.7,124.0 435.8,152.0 435.9,123.7 436.0,117.0 436.1,113.2 436.2,110.8 436.3,109.2 436.4,108.1 436.5,107.5 436.6,107.3 436.7,107.6 436.8,108.2 436.9,109.3 437.0,110.9 437.1,113.4 437.2,117.2 437.3,124.1 437.4,152.0 437.5,123.8 437.6,117.1 437.7,113.3 437.8,110.9 437.9,109.3 438.0,108.2 438.1,107.6 438.2,107.4 438.3,107.7 438.4,108.3 438.5,109.4 438.6,111.0 438.7,113.5 438.8,117.3 438.9,124.2 439.0,152.0 439.1,123.9 439.2,117.2 439.3,113.4 439.4,111.0 439.5,109.4 439.6,108.3 439.7,107.7 439.8,107.5 439.9,107.8 440.0,108.4 440.1,109.5 440.2,111.1 440.3,113.6 440.4,117.4 440.5,124.3 440.6,152.0 440.7,124.0 440.8,117.3 440.9,113.5 441.0,111.1 441.1,109.5 441.2,108.4 441.3,107.8 441.4,107.6 441.5,107.9 441.6,108.5 441.7,109.6 441.8,111.2 441.9,113.7 442.0,117.5 442.1,124.4 442.2,152.0 442.3,124.1 442.4,117.4 442.5,113.6 442.6,111.2 442.7,109.6 442.8,108.5 442.9,107.9 443.0,107.7 443.1,107.9 443.2,108.6 443.3,109.6 443.4,111.3 443.5,113.8 443.6,117.6 443.7,124.5 443.8,152.0 443.9,124.2 444.0,117.5 444.1,113.7 444.2,111.3 444.3,109.7 444.4,108.6 444.5,108.0 444.6,107.8 444.7,108.0 444.8,108.7 444.9,109.7 445.0,111.4 445.1,113.9 445.2,117.7 445.3,124.6 445.4,152.0 445.5,124.3 445.6,117.5 445.7,113.8 445.8,111.4 445.9,109.7 446.0,108.7 446.1,108.1 446.2,107.9 446.3,108.1 446.4,108.7 446.5,109.8 446.6,111.5 446.7,113.9 446.8,117.8 446.9,124.7 447.0,152.0 447.1,124.4 447.2,117.6 447.3,113.9 447.4,111.5 447.5,109.8 447.6,108.8 447.7,108.2 447.8,108.0 447.9,108.2 448.0,108.8 448.1,109.9 448.2,111.6 448.3,114.0 448.4,117.8 448.5,124.7 448.6,152.0 448.7,124.5 448.8,117.7 448.9,114.0 449.0,111.5 449.1,109.9 449.2,108.9 449.3,108.3 449.4,108.1 449.5,108.3 449.6,108.9 449.7,110.0 449.8,111.6 449.9,114.1 450.0,117.9 450.1,124.8 450.2,152.0 450.3,124.6 450.4,117.8 450.5,114.1 450.6,111.6 450.7,110.0 450.8,108.9 450.9,108.4 451.0,108.2 451.1,108.4 451.2,109.0 451.3,110.1 451.4,111.7 451.5,114.2 451.6,118.0 451.7,124.9 451.8,152.0 451.9,124.6 452.0,117.9 452.1,114.1 452.2,111.7 452.3,110.1 452.4,109.0 452.5,108.4 452.6,108.2 452.7,108.5 452.8,109.1 452.9,110.2 453.0,111.8 453.1,114.3 453.2,118.1 453.3,125.0 453.4,152.0 453.5,124.7 453.6,118.0 453.7,114.2 453.8,111.8 453.9,110.2 454.0,109.1 454.1,108.5 454.2,108.3 454.3,108.5 454.4,109.1 454.5,110.2 454.6,111.9 454.7,114.3 454.8,118.2 454.9,125.1 455.0,152.0 455.1,124.8 455.2,118.0 455.3,114.3 455.4,111.9 455.5,110.2 455.6,109.2 455.7,108.6 455.8,108.4 455.9,108.6 456.0,109.2 456.1,110.3 456.2,112.0 456.3,114.4 456.4,118.2 456.5,125.1 456.6,152.0 456.7,124.9 456.8,118.1 456.9,114.4 457.0,111.9 457.1,110.3 457.2,109.3 457.3,108.7 457.4,108.5 457.5,108.7 457.6,109.3 457.7,110.4 457.8,112.0 457.9,114.5 458.0,118.3 458.1,125.2 458.2,152.0 458.3,125.0 458.4,118.2 458.5,114.4 458.6,112.0 458.7,110.4 458.8,109.3 458.9,108.7 459.0,108.5 459.1,108.8 459.2,109.4 459.3,110.4 459.4,112.1 459.5,114.6 459.6,118.4 459.7,125.3 459.8,152.0 459.9,125.0 460.0,118.3 460.1,114.5 460.2,112.1 460.3,110.5 460.4,109.4 460.5,108.8 460.6,108.6 460.7,108.8 460.8,109.4 460.9,110.5 461.0,112.2 461.1,114.6 461.2,118.4 461.3,125.3 461.4,152.0 461.5,125.1 461.6,118.3 461.7,114.6 461.8,112.2 461.9,110.5 462.0,109.5 462.1,108.9 462.2,108.7 462.3,108.9 462.4,109.5 462.5,110.6 462.6,112.2 462.7,114.7 462.8,118.5 462.9,125.4 463.0,152.0 463.1,125.2 463.2,118.4 463.3,114.7 463.4,112.2 463.5,110.6 463.6,109.5 463.7,108.9 463.8,108.7 463.9,109.0 464.0,109.6 464.1,110.6 464.2,112.3 464.3,114.8 464.4,118.6 464.5,125.4 464.6,152.0 464.7,125.2 464.8,118.5 464.9,114.7 465.0,112.3 465.1,110.7 465.2,109.6 465.3,109.0 465.4,108.8 465.5,109.0 465.6,109.6 465.7,110.7 465.8,112.4 465.9,114.8 466.0,118.6 466.1,125.5 466.2,152.0 466.3,125.3 466.4,118.5 466.5,114.8 466.6,112.4 466.7,110.7 466.8,109.7 466.9,109.1 467.0,108.9 467.1,109.1 467.2,109.7 467.3,110.8 467.4,112.4 467.5,114.9 467.6,118.7 467.7,125.6 467.8,152.0 467.9,125.4 468.0,118.6 468.1,114.8 468.2,112.4 468.3,110.8 468.4,109.7 468.5,109.1 468.6,108.9 468.7,109.1 468.8,109.8 468.9,110.8 469.0,112.5 469.1,114.9 469.2,118.7 469.3,125.6 469.4,152.0 469.5,125.4 469.6,118.7 469.7,114.9 469.8,112.5 469.9,110.8 470.0,109.8 470.1,109.2 470.2,109.0 470.3,109.2 470.4,109.8 470.5,110.9 470.6,112.5 470.7,115.0 470.8,118.8 470.9,125.7 471.0,152.0 471.1,125.5 471.2,118.7 471.3,115.0 471.4,112.5 471.5,110.9 471.6,109.8 471.7,109.2 471.8,109.0 471.9,109.3 472.0,109.9 472.1,110.9 472.2,112.6 472.3,115.1 472.4,118.8 472.5,125.7 472.6,152.0 472.7,125.5 472.8,118.8 472.9,115.0 473.0,112.6 473.1,111.0 473.2,109.9 473.3,109.3 473.4,109.1 473.5,109.3 473.6,109.9 473.7,111.0 473.8,112.6 473.9,115.1 474.0,118.9 474.1,125.8 474.2,152.0 474.3,125.6 474.4,118.8 474.5,115.1 474.6,112.6 474.7,111.0 474.8,109.9 474.9,109.3 475.0,109.2 475.1,109.4 475.2,110.0 475.3,111.0 475.4,112.7 475.5,115.2 475.6,119.0 475.7,125.8 475.8,152.0 475.9,125.7 476.0,118.9 476.1,115.1 476.2,112.7 476.3,111.1 476.4,110.0 476.5,109.4 476.6,109.2 476.7,109.4 476.8,110.0 476.9,111.1 477.0,112.7 477.1,115.2 477.2,119.0 477.3,125.9 477.4,152.0 477.5,125.7 477.6,118.9 477.7,115.2 477.8,112.7 477.9,111.1 478.0,110.0 478.1,109.4 478.2,109.3 478.3,109.5 478.4,110.1 478.5,111.1 478.6,112.8 478.7,115.3 478.8,119.0 478.9,125.9 479.0,152.0 479.1,125.8 479.2,119.0 479.3,115.2 479.4,112.8 479.5,111.2 479.6,110.1 479.7,109.5 479.8,109.3 479.9,109.5 480.0,110.1 480.1,111.2 480.2,112.8 480.3,115.3 480.4,119.1 480.5,126.0 480.6,152.0 480.7,125.8 480.8,119.0 480.9,115.3 481.0,112.8 481.1,111.2 481.2,110.1 481.3,109.5 481.4,109.4 481.5,109.6 481.6,110.2 481.7,111.2 481.8,112.9 481.9,115.3 482.0,119.1 482.1,126.0 482.2,152.0 482.3,125.9 482.4,119.1 482.5,115.3 482.6,112.9 482.7,111.2 482.8,110.2 482.9,109.6 483.0,109.4 483.1,109.6 483.2,110.2 483.3,111.3 483.4,112.9 483.5,115.4 483.6,119.2 483.7,126.0 483.8,152.0 483.9,125.9 484.0,119.1 484.1,115.4 484.2,112.9 484.3,111.3 484.4,110.2 484.5,109.6 484.6,109.4 484.7,109.6 484.8,110.3 484.9,111.3 485.0,113.0 485.1,115.4 485.2,119.2 485.3,126.1 485.4,152.0 485.5,126.0 485.6,119.2 485.7,115.4 485.8,113.0 485.9,111.3 486.0,110.3 486.1,109.7 486.2,109.5 486.3,109.7 486.4,110.3 486.5,111.4 486.6,113.0 486.7,115.5 486.8,119.3 486.9,126.1 487.0,152.0 487.1,126.0 487.2,119.2 487.3,115.4 487.4,113.0 487.5,111.4 487.6,110.3 487.7,109.7 487.8,109.5 487.9,109.7 488.0,110.3 488.1,111.4 488.2,113.1 488.3,115.5 488.4,119.3 488.5,126.2 488.6,152.0 488.7,126.0 488.8,119.2 488.9,115.5 489.0,113.0 489.1,111.4 489.2,110.3 489.3,109.7 489.4,109.6 489.5,109.8 489.6,110.4 489.7,111.4 489.8,113.1 489.9,115.5 490.0,119.3 490.1,126.2 490.2,152.0 490.3,126.1 490.4,119.3 490.5,115.5 490.6,113.1 490.7,111.4 490.8,110.4 490.9,109.8 491.0,109.6 491.1,109.8 491.2,110.4 491.3,111.5 491.4,113.1 491.5,115.6 491.6,119.4 491.7,126.2 491.8,152.0 491.9,126.1 492.0,119.3 492.1,115.6 492.2,113.1 492.3,111.5 492.4,110.4 492.5,109.8 492.6,109.6 492.7,109.8 492.9,110.4 493.0,111.5 493.1,113.2 493.2,115.6 493.3,119.4 493.4,126.3 493.5,152.0 493.6,126.1 493.7,119.4 493.8,115.6 493.9,113.1 494.0,111.5 494.1,110.5 494.2,109.8 494.3,109.7 494.4,109.9 494.5,110.5 494.6,111.5 494.7,113.2 494.8,115.6 494.9,119.4 495.0,126.3 495.1,152.0 495.2,126.2 495.3,119.4 495.4,115.6 495.5,113.2 495.6,111.5 495.7,110.5 495.8,109.9 495.9,109.7 496.0,109.9 496.1,110.5 496.2,111.6 496.3,113.2 496.4,115.7 496.5,119.5 496.6,126.3 496.7,152.0 496.8,126.2 496.9,119.4 497.0,115.6 497.1,113.2 497.2,111.6 497.3,110.5 497.4,109.9 497.5,109.7 497.6,109.9 497.7,110.5 497.8,111.6 497.9,113.2 498.0,115.7 498.1,119.5 498.2,126.3 498.3,152.0 498.4,126.2 498.5,119.4 498.6,115.7 498.7,113.2 498.8,111.6 498.9,110.5 499.0,109.9 499.1,109.7 499.2,109.9 499.3,110.6 499.4,111.6 499.5,113.3 499.6,115.7 499.7,119.5 499.8,126.4 499.9,152.0 500.0,126.3 500.1,119.5 500.2,115.7 500.3,113.3 500.4,111.6 500.5,110.6 500.6,110.0 500.7,109.8 500.8,110.0 500.9,110.6 501.0,111.7 501.1,113.3 501.2,115.7 501.3,119.5 501.4,126.4 501.5,152.0 501.6,126.3 501.7,119.5 501.8,115.7 501.9,113.3 502.0,111.7 502.1,110.6 502.2,110.0 502.3,109.8 502.4,110.0 502.5,110.6 502.6,111.7 502.7,113.3 502.8,115.8 502.9,119.6 503.0,126.4 503.1,152.0 503.2,126.3 503.3,119.5 503.4,115.8 503.5,113.3 503.6,111.7 503.7,110.6 503.8,110.0 503.9,109.8 504.0,110.0 504.1,110.6 504.2,111.7 504.3,113.3 504.4,115.8 504.5,119.6 504.6,126.4 504.7,152.0 504.8,126.4 504.9,119.5 505.0,115.8 505.1,113.3 505.2,111.7 505.3,110.6 505.4,110.0 505.5,109.8 505.6,110.0 505.7,110.6 505.8,111.7 505.9,113.4 506.0,115.8 506.1,119.6 506.2,126.4 506.3,152.0 506.4,126.4 506.5,119.6 506.6,115.8 506.7,113.4 506.8,111.7 506.9,110.7 507.0,110.1 507.1,109.9 507.2,110.1 507.3,110.7 507.4,111.7 507.5,113.4 507.6,115.8 507.7,119.6 507.8,126.5 507.9,152.0 508.0,126.4 508.1,119.6 508.2,115.8 508.3,113.4 508.4,111.7 508.5,110.7 508.6,110.1 508.7,109.9 508.8,110.1 508.9,110.7 509.0,111.8 509.1,113.4 509.2,115.8 509.3,119.6 509.4,126.5 509.5,152.0 509.6,126.4 509.7,119.6 509.8,115.8 509.9,113.4 510.0,111.8 510.1,110.7 510.2,110.1 510.3,109.9 510.4,110.1 510.5,110.7 510.6,111.8 510.7,113.4 510.8,115.9 510.9,119.6 511.0,126.5 511.1,152.0 511.2,126.4 511.3,119.6 511.4,115.9 511.5,113.4 511.6,111.8 511.7,110.7 511.8,110.1 511.9,109.9 512.0,110.1 512.1,110.7 512.2,111.8 512.3,113.4 512.4,115.9 512.5,119.7 512.6,126.5 512.7,152.0 512.8,126.5 512.9,119.6 513.0,115.9 513.1,113.4 513.2,111.8 513.3,110.7 513.4,110.1 513.5,109.9 513.6,110.1 513.7,110.7 513.8,111.8 513.9,113.4 514.0,115.9 514.1,119.7 514.2,126.5 514.3,152.0 514.4,126.5 514.5,119.7 514.6,115.9 514.7,113.4 514.8,111.8 514.9,110.7 515.0,110.1 515.1,109.9 515.2,110.1 515.3,110.7 515.4,111.8 515.5,113.5 515.6,115.9 515.7,119.7 515.8,126.5 515.9,152.0 516.0,126.5 516.1,119.7 516.2,115.9 516.3,113.5 516.4,111.8 516.5,110.7 516.6,110.1 516.7,109.9 516.8,110.1 516.9,110.8 517.0,111.8 517.1,113.5 517.2,115.9 517.3,119.7 517.4,126.5 517.5,152.0 517.6,126.5 517.7,119.7 517.8,115.9 517.9,113.5 518.0,111.8 518.1,110.8 518.2,110.2 518.3,110.0 518.4,110.2 518.5,110.8 518.6,111.8 518.7,113.5 518.8,115.9 518.9,119.7 519.0,126.5 519.1,152.0 519.2,126.5 519.3,119.7 519.4,115.9 519.5,113.5 519.6,111.8 519.7,110.8 519.8,110.2 519.9,110.0 520.0,110.2 520.1,110.8 520.2,111.8 520.3,113.5 520.4,115.9 520.5,119.7 520.6,126.5 520.7,152.0 520.8,126.5 520.9,119.7 521.0,115.9 521.1,113.5 521.2,111.8 521.3,110.8 521.4,110.2 521.5,110.0 521.6,110.2 521.7,110.8 521.8,111.8 521.9,113.5 522.0,115.9 522.1,119.7 522.2,126.5 522.3,152.0 522.4,126.5 522.5,119.7 522.6,115.9 522.7,113.5 522.8,111.8 522.9,110.8 523.0,110.2 523.1,110.0 523.2,110.2 523.3,110.8 523.4,111.8 523.5,113.5 523.6,115.9 523.7,119.7 523.8,126.5 523.9,152.0 524.0,126.5 524.1,119.7 524.2,115.9 524.3,113.5 524.4,111.8 524.5,110.8 524.6,110.2 524.7,110.0 524.8,110.2 524.9,110.8 525.0,111.8 525.1,113.5 525.2,115.9 525.3,119.7 525.4,126.5 525.5,152.0 525.6,126.5 525.7,119.7 525.8,115.9 525.9,113.5 526.0,111.8 526.1,110.8 526.2,110.2 526.3,110.0 526.4,110.2 526.5,110.8 526.6,111.8 526.7,113.5 526.8,115.9 526.9,119.7 527.0,126.5" fill="none" stroke="#4a90d9" stroke-width="1.2" stroke-linejoin="round"/>
  <text x="154.5" y="176" text-anchor="middle" font-size="8" fill="#6b7280">n / N</text>
  <text x="424.5" y="176" text-anchor="middle" font-size="8" fill="#6b7280">Normalized frequency (× Fₛ)</text>
</svg>
