<svg xmlns="http://www.w3.org/2000/svg" viewBox="0 0 560 210" width="560" height="210" style="font-family:system-ui,-apple-system,sans-serif">
  <rect width="560" height="210" fill="#fafafa" rx="6"/>
  <text x="280" y="18" text-anchor="middle" font-size="12" font-weight="600" fill="#374151">exactBlackman</text>
  <line x1="52" y1="166.0" x2="257" y2="166.0" stroke="#e5e7eb" stroke-width="0.5"/>
  <text x="48" y="169.0" text-anchor="end" font-size="7.5" fill="#6b7280">0</text>
  <line x1="52" y1="97.0" x2="257" y2="97.0" stroke="#e5e7eb" stroke-width="0.5"/>
  <text x="48" y="100.0" text-anchor="end" font-size="7.5" fill="#6b7280">0.5</text>
  <line x1="52" y1="28.0" x2="257" y2="28.0" stroke="#e5e7eb" stroke-width="0.5"/>
  <text x="48" y="31.0" text-anchor="end" font-size="7.5" fill="#6b7280">1</text>
  <line x1="52.0" y1="28" x2="52.0" y2="166" stroke="#e5e7eb" stroke-width="0.5"/>
  <text x="52.0" y="178" text-anchor="middle" font-size="7.5" fill="#6b7280">0</text>
  <line x1="154.5" y1="28" x2="154.5" y2="166" stroke="#e5e7eb" stroke-width="0.5"/>
  <text x="154.5" y="178" text-anchor="middle" font-size="7.5" fill="#6b7280">0.5</text>
  <line x1="257.0" y1="28" x2="257.0" y2="166" stroke="#e5e7eb" stroke-width="0.5"/>
  <text x="257.0" y="178" text-anchor="middle" font-size="7.5" fill="#6b7280">1</text>
  <line x1="52" y1="28" x2="52" y2="166" stroke="#d1d5db" stroke-width="0.75"/>
  <line x1="52" y1="166" x2="257" y2="166" stroke="#d1d5db" stroke-width="0.75"/>
  <path d="M52.0,166.0 52.0,165.1 52.8,165.0 53.6,165.0 54.4,165.0 55.2,164.9 56.0,164.9 56.8,164.8 57.6,164.7 58.4,164.5 59.2,164.4 60.0,164.2 60.8,164.1 61.6,163.9 62.5,163.7 63.3,163.4 64.1,163.2 64.9,162.9 65.7,162.6 66.5,162.3 67.3,162.0 68.1,161.6 68.9,161.3 69.7,160.9 70.5,160.5 71.3,160.0 72.1,159.5 72.9,159.0 73.7,158.5 74.5,158.0 75.3,157.4 76.1,156.8 76.9,156.2 77.7,155.5 78.5,154.8 79.3,154.1 80.1,153.3 80.9,152.6 81.7,151.7 82.5,150.9 83.4,150.0 84.2,149.1 85.0,148.2 85.8,147.2 86.6,146.2 87.4,145.1 88.2,144.1 89.0,143.0 89.8,141.8 90.6,140.6 91.4,139.4 92.2,138.2 93.0,136.9 93.8,135.6 94.6,134.2 95.4,132.8 96.2,131.4 97.0,130.0 97.8,128.5 98.6,127.0 99.4,125.4 100.2,123.9 101.0,122.3 101.8,120.7 102.6,119.0 103.5,117.3 104.3,115.6 105.1,113.9 105.9,112.1 106.7,110.3 107.5,108.5 108.3,106.7 109.1,104.9 109.9,103.0 110.7,101.2 111.5,99.3 112.3,97.4 113.1,95.5 113.9,93.6 114.7,91.7 115.5,89.7 116.3,87.8 117.1,85.9 117.9,83.9 118.7,82.0 119.5,80.1 120.3,78.2 121.1,76.3 121.9,74.4 122.7,72.5 123.5,70.6 124.4,68.7 125.2,66.9 126.0,65.1 126.8,63.3 127.6,61.5 128.4,59.8 129.2,58.0 130.0,56.3 130.8,54.7 131.6,53.1 132.4,51.5 133.2,49.9 134.0,48.4 134.8,46.9 135.6,45.5 136.4,44.1 137.2,42.8 138.0,41.5 138.8,40.3 139.6,39.1 140.4,38.0 141.2,36.9 142.0,35.9 142.8,34.9 143.6,34.0 144.5,33.2 145.3,32.4 146.1,31.7 146.9,31.0 147.7,30.4 148.5,29.9 149.3,29.4 150.1,29.0 150.9,28.7 151.7,28.4 152.5,28.2 153.3,28.1 154.1,28.0 154.9,28.0 155.7,28.1 156.5,28.2 157.3,28.4 158.1,28.7 158.9,29.0 159.7,29.4 160.5,29.9 161.3,30.4 162.1,31.0 162.9,31.7 163.7,32.4 164.5,33.2 165.4,34.0 166.2,34.9 167.0,35.9 167.8,36.9 168.6,38.0 169.4,39.1 170.2,40.3 171.0,41.5 171.8,42.8 172.6,44.1 173.4,45.5 174.2,46.9 175.0,48.4 175.8,49.9 176.6,51.5 177.4,53.1 178.2,54.7 179.0,56.3 179.8,58.0 180.6,59.8 181.4,61.5 182.2,63.3 183.0,65.1 183.8,66.9 184.6,68.7 185.5,70.6 186.3,72.5 187.1,74.4 187.9,76.3 188.7,78.2 189.5,80.1 190.3,82.0 191.1,83.9 191.9,85.9 192.7,87.8 193.5,89.7 194.3,91.7 195.1,93.6 195.9,95.5 196.7,97.4 197.5,99.3 198.3,101.2 199.1,103.0 199.9,104.9 200.7,106.7 201.5,108.5 202.3,110.3 203.1,112.1 203.9,113.9 204.7,115.6 205.5,117.3 206.4,119.0 207.2,120.7 208.0,122.3 208.8,123.9 209.6,125.4 210.4,127.0 211.2,128.5 212.0,130.0 212.8,131.4 213.6,132.8 214.4,134.2 215.2,135.6 216.0,136.9 216.8,138.2 217.6,139.4 218.4,140.6 219.2,141.8 220.0,143.0 220.8,144.1 221.6,145.1 222.4,146.2 223.2,147.2 224.0,148.2 224.8,149.1 225.6,150.0 226.5,150.9 227.3,151.7 228.1,152.6 228.9,153.3 229.7,154.1 230.5,154.8 231.3,155.5 232.1,156.2 232.9,156.8 233.7,157.4 234.5,158.0 235.3,158.5 236.1,159.0 236.9,159.5 237.7,160.0 238.5,160.5 239.3,160.9 240.1,161.3 240.9,161.6 241.7,162.0 242.5,162.3 243.3,162.6 244.1,162.9 244.9,163.2 245.7,163.4 246.5,163.7 247.4,163.9 248.2,164.1 249.0,164.2 249.8,164.4 250.6,164.5 251.4,164.7 252.2,164.8 253.0,164.9 253.8,164.9 254.6,165.0 255.4,165.0 256.2,165.0 257.0,165.1 L257.0,166.0 Z" fill="#4a90d9" fill-opacity="0.06"/>
  <polyline points="52.0,165.1 52.8,165.0 53.6,165.0 54.4,165.0 55.2,164.9 56.0,164.9 56.8,164.8 57.6,164.7 58.4,164.5 59.2,164.4 60.0,164.2 60.8,164.1 61.6,163.9 62.5,163.7 63.3,163.4 64.1,163.2 64.9,162.9 65.7,162.6 66.5,162.3 67.3,162.0 68.1,161.6 68.9,161.3 69.7,160.9 70.5,160.5 71.3,160.0 72.1,159.5 72.9,159.0 73.7,158.5 74.5,158.0 75.3,157.4 76.1,156.8 76.9,156.2 77.7,155.5 78.5,154.8 79.3,154.1 80.1,153.3 80.9,152.6 81.7,151.7 82.5,150.9 83.4,150.0 84.2,149.1 85.0,148.2 85.8,147.2 86.6,146.2 87.4,145.1 88.2,144.1 89.0,143.0 89.8,141.8 90.6,140.6 91.4,139.4 92.2,138.2 93.0,136.9 93.8,135.6 94.6,134.2 95.4,132.8 96.2,131.4 97.0,130.0 97.8,128.5 98.6,127.0 99.4,125.4 100.2,123.9 101.0,122.3 101.8,120.7 102.6,119.0 103.5,117.3 104.3,115.6 105.1,113.9 105.9,112.1 106.7,110.3 107.5,108.5 108.3,106.7 109.1,104.9 109.9,103.0 110.7,101.2 111.5,99.3 112.3,97.4 113.1,95.5 113.9,93.6 114.7,91.7 115.5,89.7 116.3,87.8 117.1,85.9 117.9,83.9 118.7,82.0 119.5,80.1 120.3,78.2 121.1,76.3 121.9,74.4 122.7,72.5 123.5,70.6 124.4,68.7 125.2,66.9 126.0,65.1 126.8,63.3 127.6,61.5 128.4,59.8 129.2,58.0 130.0,56.3 130.8,54.7 131.6,53.1 132.4,51.5 133.2,49.9 134.0,48.4 134.8,46.9 135.6,45.5 136.4,44.1 137.2,42.8 138.0,41.5 138.8,40.3 139.6,39.1 140.4,38.0 141.2,36.9 142.0,35.9 142.8,34.9 143.6,34.0 144.5,33.2 145.3,32.4 146.1,31.7 146.9,31.0 147.7,30.4 148.5,29.9 149.3,29.4 150.1,29.0 150.9,28.7 151.7,28.4 152.5,28.2 153.3,28.1 154.1,28.0 154.9,28.0 155.7,28.1 156.5,28.2 157.3,28.4 158.1,28.7 158.9,29.0 159.7,29.4 160.5,29.9 161.3,30.4 162.1,31.0 162.9,31.7 163.7,32.4 164.5,33.2 165.4,34.0 166.2,34.9 167.0,35.9 167.8,36.9 168.6,38.0 169.4,39.1 170.2,40.3 171.0,41.5 171.8,42.8 172.6,44.1 173.4,45.5 174.2,46.9 175.0,48.4 175.8,49.9 176.6,51.5 177.4,53.1 178.2,54.7 179.0,56.3 179.8,58.0 180.6,59.8 181.4,61.5 182.2,63.3 183.0,65.1 183.8,66.9 184.6,68.7 185.5,70.6 186.3,72.5 187.1,74.4 187.9,76.3 188.7,78.2 189.5,80.1 190.3,82.0 191.1,83.9 191.9,85.9 192.7,87.8 193.5,89.7 194.3,91.7 195.1,93.6 195.9,95.5 196.7,97.4 197.5,99.3 198.3,101.2 199.1,103.0 199.9,104.9 200.7,106.7 201.5,108.5 202.3,110.3 203.1,112.1 203.9,113.9 204.7,115.6 205.5,117.3 206.4,119.0 207.2,120.7 208.0,122.3 208.8,123.9 209.6,125.4 210.4,127.0 211.2,128.5 212.0,130.0 212.8,131.4 213.6,132.8 214.4,134.2 215.2,135.6 216.0,136.9 216.8,138.2 217.6,139.4 218.4,140.6 219.2,141.8 220.0,143.0 220.8,144.1 221.6,145.1 222.4,146.2 223.2,147.2 224.0,148.2 224.8,149.1 225.6,150.0 226.5,150.9 227.3,151.7 228.1,152.6 228.9,153.3 229.7,154.1 230.5,154.8 231.3,155.5 232.1,156.2 232.9,156.8 233.7,157.4 234.5,158.0 235.3,158.5 236.1,159.0 236.9,159.5 237.7,160.0 238.5,160.5 239.3,160.9 240.1,161.3 240.9,161.6 241.7,162.0 242.5,162.3 243.3,162.6 244.1,162.9 244.9,163.2 245.7,163.4 246.5,163.7 247.4,163.9 248.2,164.1 249.0,164.2 249.8,164.4 250.6,164.5 251.4,164.7 252.2,164.8 253.0,164.9 253.8,164.9 254.6,165.0 255.4,165.0 256.2,165.0 257.0,165.1" fill="none" stroke="#4a90d9" stroke-width="1.2" stroke-linejoin="round"/>
  <line x1="322" y1="28.0" x2="527" y2="28.0" stroke="#e5e7eb" stroke-width="0.5"/>
  <text x="318" y="31.0" text-anchor="end" font-size="7.5" fill="#6b7280">0</text>
  <line x1="322" y1="74.0" x2="527" y2="74.0" stroke="#e5e7eb" stroke-width="0.5"/>
  <text x="318" y="77.0" text-anchor="end" font-size="7.5" fill="#6b7280">-40</text>
  <line x1="322" y1="120.0" x2="527" y2="120.0" stroke="#e5e7eb" stroke-width="0.5"/>
  <text x="318" y="123.0" text-anchor="end" font-size="7.5" fill="#6b7280">-80</text>
  <line x1="322" y1="166.0" x2="527" y2="166.0" stroke="#e5e7eb" stroke-width="0.5"/>
  <text x="318" y="169.0" text-anchor="end" font-size="7.5" fill="#6b7280">-120</text>
  <line x1="322.0" y1="28" x2="322.0" y2="166" stroke="#e5e7eb" stroke-width="0.5"/>
  <text x="322.0" y="178" text-anchor="middle" font-size="7.5" fill="#6b7280">0</text>
  <line x1="363.0" y1="28" x2="363.0" y2="166" stroke="#e5e7eb" stroke-width="0.5"/>
  <text x="363.0" y="178" text-anchor="middle" font-size="7.5" fill="#6b7280">0.1</text>
  <line x1="404.0" y1="28" x2="404.0" y2="166" stroke="#e5e7eb" stroke-width="0.5"/>
  <text x="404.0" y="178" text-anchor="middle" font-size="7.5" fill="#6b7280">0.2</text>
  <line x1="445.0" y1="28" x2="445.0" y2="166" stroke="#e5e7eb" stroke-width="0.5"/>
  <text x="445.0" y="178" text-anchor="middle" font-size="7.5" fill="#6b7280">0.3</text>
  <line x1="486.0" y1="28" x2="486.0" y2="166" stroke="#e5e7eb" stroke-width="0.5"/>
  <text x="486.0" y="178" text-anchor="middle" font-size="7.5" fill="#6b7280">0.4</text>
  <line x1="527.0" y1="28" x2="527.0" y2="166" stroke="#e5e7eb" stroke-width="0.5"/>
  <text x="527.0" y="178" text-anchor="middle" font-size="7.5" fill="#6b7280">0.5</text>
  <line x1="322" y1="28" x2="322" y2="166" stroke="#d1d5db" stroke-width="0.75"/>
  <line x1="322" y1="166" x2="527" y2="166" stroke="#d1d5db" stroke-width="0.75"/>
  <polyline points="322.0,28.0 322.1,28.0 322.2,28.1 322.3,28.2 322.4,28.3 322.5,28.5 322.6,28.7 322.7,29.0 322.8,29.3 322.9,29.7 323.0,30.1 323.1,30.5 323.2,31.0 323.3,31.5 323.4,32.1 323.5,32.7 323.6,33.4 323.7,34.1 323.8,34.8 323.9,35.7 324.0,36.5 324.1,37.4 324.2,38.4 324.3,39.5 324.4,40.6 324.5,41.7 324.6,42.9 324.7,44.2 324.8,45.6 324.9,47.0 325.0,48.5 325.1,50.1 325.2,51.8 325.3,53.6 325.4,55.5 325.5,57.5 325.6,59.6 325.7,61.9 325.8,64.3 325.9,66.9 326.0,69.8 326.1,72.8 326.2,76.2 326.3,79.9 326.4,84.2 326.5,89.3 326.6,95.7 326.7,105.1 326.8,157.1 326.9,110.6 327.0,106.9 327.1,106.4 327.2,107.5 327.3,110.0 327.4,114.0 327.5,120.7 327.6,139.3 327.7,127.3 327.8,120.8 327.9,118.3 328.0,117.6 328.1,117.8 328.2,119.0 328.3,120.9 328.4,123.7 328.5,127.6 328.6,133.0 328.7,141.4 328.8,166.0 328.9,149.4 329.0,146.4 329.1,148.7 329.2,158.0 329.3,161.0 329.4,151.1 329.5,150.2 329.6,160.6 329.7,148.5 329.8,137.2 329.9,130.5 330.0,125.8 330.1,122.2 330.2,119.4 330.3,117.1 330.4,115.3 330.5,114.0 330.6,113.0 330.7,112.4 330.8,112.2 330.9,112.4 331.0,113.0 331.1,114.2 331.2,116.1 331.3,119.1 331.4,124.6 331.5,141.1 331.6,128.6 331.7,120.2 331.8,115.8 331.9,112.9 332.0,110.9 332.1,109.6 332.2,108.7 332.3,108.2 332.4,108.0 332.5,108.3 332.6,109.0 332.7,110.2 332.8,112.1 332.9,114.9 333.0,119.6 333.1,129.9 333.2,131.2 333.3,119.8 333.4,114.8 333.5,111.7 333.6,109.6 333.7,108.2 333.8,107.3 333.9,106.8 334.0,106.7 334.1,107.0 334.2,107.8 334.3,109.0 334.4,110.8 334.5,113.5 334.6,117.9 334.7,127.0 334.8,133.6 334.9,120.0 335.0,114.6 335.1,111.4 335.2,109.3 335.3,107.9 335.4,107.0 335.5,106.5 335.6,106.4 335.7,106.7 335.8,107.4 335.9,108.6 336.0,110.4 336.1,113.1 336.2,117.4 336.3,125.9 336.4,135.8 336.5,120.4 336.6,114.9 336.7,111.6 336.8,109.4 336.9,108.0 337.0,107.1 337.1,106.6 337.2,106.5 337.3,106.8 337.4,107.5 337.5,108.7 337.6,110.5 337.7,113.2 337.8,117.3 337.9,125.5 338.0,137.8 338.1,121.0 338.2,115.3 338.3,112.0 338.4,109.8 338.5,108.3 338.6,107.4 338.7,106.9 338.8,106.8 338.9,107.1 339.0,107.8 339.1,109.0 339.2,110.8 339.3,113.4 339.4,117.5 339.5,125.4 339.6,139.7 339.7,121.6 339.8,115.8 339.9,112.4 340.0,110.2 340.1,108.7 340.2,107.8 340.3,107.3 340.4,107.2 340.5,107.5 340.6,108.2 340.7,109.4 340.8,111.1 340.9,113.8 341.0,117.8 341.1,125.6 341.2,141.4 341.3,122.3 341.4,116.3 341.5,112.9 341.6,110.7 341.7,109.2 341.8,108.3 341.9,107.8 342.0,107.7 342.1,108.0 342.2,108.7 342.3,109.8 342.4,111.6 342.5,114.2 342.6,118.2 342.7,125.9 342.8,142.9 342.9,122.9 343.0,116.9 343.1,113.4 343.2,111.2 343.3,109.7 343.4,108.8 343.5,108.3 343.6,108.2 343.7,108.4 343.8,109.1 343.9,110.3 344.0,112.0 344.1,114.6 344.2,118.6 344.3,126.2 344.4,144.4 344.5,123.5 344.6,117.4 344.7,114.0 344.8,111.7 344.9,110.2 345.0,109.3 345.1,108.7 345.2,108.6 345.3,108.9 345.4,109.6 345.5,110.7 345.6,112.5 345.7,115.0 345.8,119.0 345.9,126.5 346.0,145.7 346.1,124.1 346.2,117.9 346.3,114.5 346.4,112.2 346.5,110.7 346.6,109.7 346.7,109.2 346.8,109.1 346.9,109.4 347.0,110.1 347.1,111.2 347.2,112.9 347.3,115.5 347.4,119.5 347.5,126.9 347.6,147.0 347.7,124.6 347.8,118.5 347.9,115.0 348.0,112.7 348.1,111.2 348.2,110.2 348.3,109.7 348.4,109.6 348.5,109.8 348.6,110.5 348.7,111.7 348.8,113.4 348.9,115.9 349.0,119.9 349.1,127.3 349.2,148.2 349.3,125.1 349.4,119.0 349.5,115.5 349.6,113.2 349.7,111.7 349.8,110.7 349.9,110.2 350.0,110.0 350.1,110.3 350.2,111.0 350.3,112.1 350.4,113.8 350.5,116.4 350.6,120.3 350.7,127.6 350.8,149.3 350.9,125.7 351.0,119.4 351.1,115.9 351.2,113.6 351.3,112.1 351.4,111.1 351.5,110.6 351.6,110.5 351.7,110.7 351.8,111.4 351.9,112.5 352.0,114.2 352.1,116.8 352.2,120.7 352.3,128.0 352.4,150.4 352.5,126.2 352.6,119.9 352.7,116.4 352.8,114.1 352.9,112.6 353.0,111.6 353.1,111.0 353.2,110.9 353.3,111.2 353.4,111.8 353.5,113.0 353.6,114.7 353.7,117.2 353.8,121.1 353.9,128.4 354.0,151.4 354.1,126.6 354.2,120.4 354.3,116.8 354.4,114.5 354.5,113.0 354.6,112.0 354.7,111.5 354.8,111.3 354.9,111.6 355.0,112.2 355.1,113.4 355.2,115.1 355.3,117.6 355.4,121.5 355.5,128.7 355.6,152.4 355.7,127.1 355.8,120.8 355.9,117.2 356.0,114.9 356.1,113.4 356.3,112.4 356.4,111.9 356.5,111.7 356.6,112.0 356.7,112.6 356.8,113.8 356.9,115.5 357.0,118.0 357.1,121.9 357.2,129.1 357.3,153.4 357.4,127.5 357.5,121.2 357.6,117.6 357.7,115.3 357.8,113.8 357.9,112.8 358.0,112.3 358.1,112.1 358.2,112.4 358.3,113.0 358.4,114.1 358.5,115.8 358.6,118.3 358.7,122.2 358.8,129.4 358.9,154.2 359.0,127.9 359.1,121.6 359.2,118.0 359.3,115.7 359.4,114.2 359.5,113.2 359.6,112.6 359.7,112.5 359.8,112.7 359.9,113.4 360.0,114.5 360.1,116.2 360.2,118.7 360.3,122.6 360.4,129.7 360.5,155.1 360.6,128.3 360.7,122.0 360.8,118.4 360.9,116.1 361.0,114.5 361.1,113.6 361.2,113.0 361.3,112.9 361.4,113.1 361.5,113.8 361.6,114.9 361.7,116.6 361.8,119.1 361.9,122.9 362.0,130.1 362.1,155.9 362.2,128.7 362.3,122.4 362.4,118.8 362.5,116.5 362.6,114.9 362.7,113.9 362.8,113.4 362.9,113.2 363.0,113.5 363.1,114.1 363.2,115.2 363.3,116.9 363.4,119.4 363.5,123.3 363.6,130.4 363.7,156.7 363.8,129.1 363.9,122.7 364.0,119.1 364.1,116.8 364.2,115.2 364.3,114.2 364.4,113.7 364.5,113.6 364.6,113.8 364.7,114.4 364.8,115.5 364.9,117.2 365.0,119.7 365.1,123.6 365.2,130.7 365.3,157.5 365.4,129.5 365.5,123.1 365.6,119.5 365.7,117.1 365.8,115.6 365.9,114.6 366.0,114.0 366.1,113.9 366.2,114.1 366.3,114.8 366.4,115.9 366.5,117.5 366.6,120.0 366.7,123.9 366.8,131.0 366.9,158.2 367.0,129.8 367.1,123.4 367.2,119.8 367.3,117.5 367.4,115.9 367.5,114.9 367.6,114.3 367.7,114.2 367.8,114.4 367.9,115.1 368.0,116.2 368.1,117.9 368.2,120.3 368.3,124.2 368.4,131.3 368.5,158.9 368.6,130.1 368.7,123.7 368.8,120.1 368.9,117.8 369.0,116.2 369.1,115.2 369.2,114.7 369.3,114.5 369.4,114.7 369.5,115.4 369.6,116.5 369.7,118.2 369.8,120.6 369.9,124.5 370.0,131.5 370.1,159.6 370.2,130.5 370.3,124.0 370.4,120.4 370.5,118.1 370.6,116.5 370.7,115.5 370.8,115.0 370.9,114.8 371.0,115.0 371.1,115.7 371.2,116.8 371.3,118.4 371.4,120.9 371.5,124.8 371.6,131.8 371.7,160.3 371.8,130.8 371.9,124.3 372.0,120.7 372.1,118.4 372.2,116.8 372.3,115.8 372.4,115.2 372.5,115.1 372.6,115.3 372.7,116.0 372.8,117.1 372.9,118.7 373.0,121.2 373.1,125.0 373.2,132.1 373.3,160.9 373.4,131.1 373.5,124.6 373.6,121.0 373.7,118.7 373.8,117.1 373.9,116.1 374.0,115.5 374.1,115.4 374.2,115.6 374.3,116.2 374.4,117.3 374.5,119.0 374.6,121.5 374.7,125.3 374.8,132.3 374.9,161.6 375.0,131.4 375.1,124.9 375.2,121.3 375.3,118.9 375.4,117.4 375.5,116.4 375.6,115.8 375.7,115.6 375.8,115.9 375.9,116.5 376.0,117.6 376.1,119.3 376.2,121.7 376.3,125.6 376.4,132.6 376.5,162.2 376.6,131.6 376.7,125.2 376.8,121.5 376.9,119.2 377.0,117.6 377.1,116.6 377.2,116.1 377.3,115.9 377.4,116.1 377.5,116.8 377.6,117.9 377.7,119.5 377.8,122.0 377.9,125.8 378.0,132.8 378.1,162.8 378.2,131.9 378.3,125.4 378.4,121.8 378.5,119.5 378.6,117.9 378.7,116.9 378.8,116.3 378.9,116.2 379.0,116.4 379.1,117.0 379.2,118.1 379.3,119.8 379.4,122.2 379.5,126.1 379.6,133.0 379.7,163.4 379.8,132.2 379.9,125.7 380.0,122.1 380.1,119.7 380.2,118.1 380.3,117.1 380.4,116.6 380.5,116.4 380.6,116.6 380.7,117.3 380.8,118.3 380.9,120.0 381.0,122.5 381.1,126.3 381.2,133.3 381.3,163.9 381.4,132.4 381.5,125.9 381.6,122.3 381.7,120.0 381.8,118.4 381.9,117.4 382.0,116.8 382.1,116.6 382.2,116.9 382.3,117.5 382.4,118.6 382.5,120.2 382.6,122.7 382.7,126.5 382.8,133.5 382.9,164.5 383.0,132.7 383.1,126.2 383.2,122.5 383.3,120.2 383.4,118.6 383.5,117.6 383.6,117.0 383.7,116.9 383.8,117.1 383.9,117.7 384.0,118.8 384.1,120.5 384.2,122.9 384.3,126.8 384.4,133.7 384.5,165.0 384.6,132.9 384.7,126.4 384.8,122.8 384.9,120.4 385.0,118.8 385.1,117.8 385.2,117.3 385.3,117.1 385.4,117.3 385.5,118.0 385.6,119.0 385.7,120.7 385.8,123.2 385.9,127.0 386.0,133.9 386.1,165.6 386.2,133.2 386.3,126.6 386.4,123.0 386.5,120.7 386.6,119.1 386.7,118.1 386.8,117.5 386.9,117.3 387.0,117.5 387.1,118.2 387.2,119.3 387.3,120.9 387.4,123.4 387.5,127.2 387.6,134.1 387.7,166.0 387.8,133.4 387.9,126.9 388.0,123.2 388.1,120.9 388.2,119.3 388.3,118.3 388.4,117.7 388.5,117.5 388.6,117.8 388.7,118.4 388.8,119.5 388.9,121.1 389.0,123.6 389.1,127.4 389.2,134.3 389.3,166.0 389.4,133.6 389.5,127.1 389.6,123.4 389.7,121.1 389.8,119.5 389.9,118.5 390.0,117.9 390.1,117.7 390.2,118.0 390.3,118.6 390.4,119.7 390.5,121.3 390.6,123.8 390.7,127.6 390.8,134.5 390.9,166.0 391.0,133.8 391.1,127.3 391.2,123.7 391.3,121.3 391.4,119.7 391.5,118.7 391.6,118.1 391.7,117.9 391.8,118.2 391.9,118.8 392.0,119.9 392.1,121.5 392.2,124.0 392.3,127.8 392.4,134.7 392.5,166.0 392.6,134.0 392.7,127.5 392.8,123.9 392.9,121.5 393.0,119.9 393.1,118.9 393.2,118.3 393.3,118.1 393.4,118.4 393.5,119.0 393.6,120.1 393.7,121.7 393.8,124.2 393.9,128.0 394.0,134.9 394.1,166.0 394.2,134.2 394.3,127.7 394.4,124.1 394.5,121.7 394.6,120.1 394.7,119.1 394.8,118.5 394.9,118.3 395.0,118.6 395.1,119.2 395.2,120.3 395.3,121.9 395.4,124.4 395.5,128.2 395.6,135.1 395.7,166.0 395.8,134.4 395.9,127.9 396.0,124.2 396.1,121.9 396.2,120.3 396.3,119.3 396.4,118.7 396.5,118.5 396.6,118.7 396.7,119.4 396.8,120.4 396.9,122.1 397.0,124.6 397.1,128.3 397.2,135.3 397.3,166.0 397.4,134.6 397.5,128.1 397.6,124.4 397.7,122.1 397.8,120.5 397.9,119.5 398.0,118.9 398.1,118.7 398.2,118.9 398.3,119.6 398.4,120.6 398.5,122.3 398.6,124.7 398.7,128.5 398.8,135.4 398.9,166.0 399.0,134.8 399.1,128.3 399.2,124.6 399.3,122.2 399.4,120.7 399.5,119.6 399.6,119.1 399.7,118.9 399.8,119.1 399.9,119.7 400.0,120.8 400.1,122.5 400.2,124.9 400.3,128.7 400.4,135.6 400.5,166.0 400.6,135.0 400.7,128.4 400.8,124.8 400.9,122.4 401.0,120.8 401.1,119.8 401.2,119.2 401.3,119.1 401.4,119.3 401.5,119.9 401.6,121.0 401.7,122.6 401.8,125.1 401.9,128.9 402.0,135.8 402.1,166.0 402.2,135.2 402.3,128.6 402.4,125.0 402.5,122.6 402.6,121.0 402.7,120.0 402.8,119.4 402.9,119.2 403.0,119.4 403.1,120.1 403.2,121.1 403.3,122.8 403.4,125.2 403.5,129.0 403.6,135.9 403.7,166.0 403.8,135.4 403.9,128.8 404.0,125.1 404.1,122.8 404.2,121.2 404.3,120.1 404.4,119.6 404.5,119.4 404.6,119.6 404.7,120.2 404.8,121.3 404.9,123.0 405.0,125.4 405.1,129.2 405.2,136.1 405.3,166.0 405.4,135.5 405.5,129.0 405.6,125.3 405.7,122.9 405.8,121.3 405.9,120.3 406.0,119.7 406.1,119.6 406.2,119.8 406.3,120.4 406.4,121.5 406.5,123.1 406.6,125.6 406.7,129.3 406.8,136.2 406.9,166.0 407.0,135.7 407.1,129.1 407.2,125.5 407.3,123.1 407.4,121.5 407.5,120.5 407.6,119.9 407.7,119.7 407.8,119.9 407.9,120.6 408.0,121.6 408.1,123.3 408.2,125.7 408.3,129.5 408.4,136.4 408.5,166.0 408.6,135.9 408.7,129.3 408.8,125.6 408.9,123.2 409.0,121.7 409.1,120.6 409.2,120.0 409.3,119.9 409.4,120.1 409.5,120.7 409.6,121.8 409.7,123.4 409.8,125.9 409.9,129.6 410.0,136.5 410.1,166.0 410.2,136.0 410.3,129.4 410.4,125.8 410.5,123.4 410.6,121.8 410.7,120.8 410.8,120.2 410.9,120.0 411.0,120.2 411.1,120.9 411.2,121.9 411.3,123.6 411.4,126.0 411.5,129.8 411.6,136.7 411.7,166.0 411.8,136.2 411.9,129.6 412.0,125.9 412.1,123.5 412.2,121.9 412.3,120.9 412.4,120.3 412.5,120.2 412.6,120.4 412.7,121.0 412.8,122.1 412.9,123.7 413.0,126.2 413.1,129.9 413.2,136.8 413.3,166.0 413.4,136.3 413.5,129.7 413.6,126.1 413.7,123.7 413.8,122.1 413.9,121.1 414.0,120.5 414.1,120.3 414.2,120.5 414.3,121.1 414.4,122.2 414.5,123.9 414.6,126.3 414.7,130.1 414.8,136.9 414.9,166.0 415.0,136.5 415.1,129.9 415.2,126.2 415.3,123.8 415.4,122.2 415.5,121.2 415.6,120.6 415.7,120.4 415.8,120.7 415.9,121.3 416.0,122.4 416.1,124.0 416.2,126.4 416.3,130.2 416.4,137.1 416.5,166.0 416.6,136.6 416.7,130.0 416.8,126.3 416.9,124.0 417.0,122.4 417.1,121.3 417.2,120.8 417.3,120.6 417.4,120.8 417.5,121.4 417.6,122.5 417.7,124.1 417.8,126.6 417.9,130.3 418.0,137.2 418.1,166.0 418.2,136.8 418.3,130.2 418.4,126.5 418.5,124.1 418.6,122.5 418.7,121.5 418.8,120.9 418.9,120.7 419.0,120.9 419.1,121.5 419.2,122.6 419.3,124.3 419.4,126.7 419.5,130.5 419.6,137.3 419.7,166.0 419.8,136.9 419.9,130.3 420.0,126.6 420.1,124.2 420.2,122.6 420.3,121.6 420.4,121.0 420.5,120.8 420.6,121.1 420.7,121.7 420.8,122.7 420.9,124.4 421.0,126.8 421.1,130.6 421.2,137.5 421.3,166.0 421.4,137.0 421.5,130.4 421.6,126.7 421.7,124.4 421.8,122.8 421.9,121.7 422.0,121.2 422.1,121.0 422.2,121.2 422.3,121.8 422.4,122.9 422.5,124.5 422.6,126.9 422.7,130.7 422.8,137.6 422.9,166.0 423.0,137.2 423.1,130.5 423.2,126.9 423.3,124.5 423.4,122.9 423.5,121.9 423.6,121.3 423.7,121.1 423.8,121.3 423.9,121.9 424.0,123.0 424.1,124.6 424.2,127.1 424.3,130.8 424.4,137.7 424.6,166.0 424.7,137.3 424.8,130.7 424.9,127.0 425.0,124.6 425.1,123.0 425.2,122.0 425.3,121.4 425.4,121.2 425.5,121.4 425.6,122.0 425.7,123.1 425.8,124.8 425.9,127.2 426.0,131.0 426.1,137.8 426.2,166.0 426.3,137.4 426.4,130.8 426.5,127.1 426.6,124.7 426.7,123.1 426.8,122.1 426.9,121.5 427.0,121.3 427.1,121.5 427.2,122.2 427.3,123.2 427.4,124.9 427.5,127.3 427.6,131.1 427.7,137.9 427.8,166.0 427.9,137.5 428.0,130.9 428.1,127.2 428.2,124.8 428.3,123.2 428.4,122.2 428.5,121.6 428.6,121.5 428.7,121.7 428.8,122.3 428.9,123.3 429.0,125.0 429.1,127.4 429.2,131.2 429.3,138.0 429.4,166.0 429.5,137.6 429.6,131.0 429.7,127.3 429.8,125.0 429.9,123.4 430.0,122.3 430.1,121.7 430.2,121.6 430.3,121.8 430.4,122.4 430.5,123.5 430.6,125.1 430.7,127.5 430.8,131.3 430.9,138.1 431.0,166.0 431.1,137.8 431.2,131.1 431.3,127.5 431.4,125.1 431.5,123.5 431.6,122.4 431.7,121.9 431.8,121.7 431.9,121.9 432.0,122.5 432.1,123.6 432.2,125.2 432.3,127.6 432.4,131.4 432.5,138.2 432.6,166.0 432.7,137.9 432.8,131.2 432.9,127.6 433.0,125.2 433.1,123.6 433.2,122.5 433.3,122.0 433.4,121.8 433.5,122.0 433.6,122.6 433.7,123.7 433.8,125.3 433.9,127.7 434.0,131.5 434.1,138.3 434.2,166.0 434.3,138.0 434.4,131.4 434.5,127.7 434.6,125.3 434.7,123.7 434.8,122.6 434.9,122.1 435.0,121.9 435.1,122.1 435.2,122.7 435.3,123.8 435.4,125.4 435.5,127.8 435.6,131.6 435.7,138.4 435.8,166.0 435.9,138.1 436.0,131.5 436.1,127.8 436.2,125.4 436.3,123.8 436.4,122.7 436.5,122.2 436.6,122.0 436.7,122.2 436.8,122.8 436.9,123.9 437.0,125.5 437.1,127.9 437.2,131.7 437.3,138.5 437.4,166.0 437.5,138.2 437.6,131.6 437.7,127.9 437.8,125.5 437.9,123.9 438.0,122.8 438.1,122.3 438.2,122.1 438.3,122.3 438.4,122.9 438.5,124.0 438.6,125.6 438.7,128.0 438.8,131.8 438.9,138.6 439.0,166.0 439.1,138.3 439.2,131.7 439.3,128.0 439.4,125.6 439.5,124.0 439.6,122.9 439.7,122.4 439.8,122.2 439.9,122.4 440.0,123.0 440.1,124.1 440.2,125.7 440.3,128.1 440.4,131.9 440.5,138.7 440.6,166.0 440.7,138.4 440.8,131.8 440.9,128.1 441.0,125.7 441.1,124.1 441.2,123.0 441.3,122.5 441.4,122.3 441.5,122.5 441.6,123.1 441.7,124.2 441.8,125.8 441.9,128.2 442.0,132.0 442.1,138.8 442.2,166.0 442.3,138.5 442.4,131.9 442.5,128.2 442.6,125.8 442.7,124.2 442.8,123.1 442.9,122.5 443.0,122.4 443.1,122.6 443.2,123.2 443.3,124.2 443.4,125.9 443.5,128.3 443.6,132.1 443.7,138.9 443.8,166.0 443.9,138.6 444.0,131.9 444.1,128.3 444.2,125.9 444.3,124.3 444.4,123.2 444.5,122.6 444.6,122.5 444.7,122.7 444.8,123.3 444.9,124.3 445.0,126.0 445.1,128.4 445.2,132.2 445.3,139.0 445.4,166.0 445.5,138.7 445.6,132.0 445.7,128.3 445.8,126.0 445.9,124.4 446.0,123.3 446.1,122.7 446.2,122.5 446.3,122.7 446.4,123.4 446.5,124.4 446.6,126.1 446.7,128.5 446.8,132.2 446.9,139.1 447.0,166.0 447.1,138.8 447.2,132.1 447.3,128.4 447.4,126.0 447.5,124.4 447.6,123.4 447.7,122.8 447.8,122.6 447.9,122.8 448.0,123.4 448.1,124.5 448.2,126.1 448.3,128.6 448.4,132.3 448.5,139.1 448.6,166.0 448.7,138.9 448.8,132.2 448.9,128.5 449.0,126.1 449.1,124.5 449.2,123.5 449.3,122.9 449.4,122.7 449.5,122.9 449.6,123.5 449.7,124.6 449.8,126.2 449.9,128.7 450.0,132.4 450.1,139.2 450.2,166.0 450.3,138.9 450.4,132.3 450.5,128.6 450.6,126.2 450.7,124.6 450.8,123.6 450.9,123.0 451.0,122.8 451.1,123.0 451.2,123.6 451.3,124.7 451.4,126.3 451.5,128.7 451.6,132.5 451.7,139.3 451.8,166.0 451.9,139.0 452.0,132.4 452.1,128.7 452.2,126.3 452.3,124.7 452.4,123.6 452.5,123.1 452.6,122.9 452.7,123.1 452.8,123.7 452.9,124.7 453.0,126.4 453.1,128.8 453.2,132.6 453.3,139.4 453.4,166.0 453.5,139.1 453.6,132.5 453.7,128.8 453.8,126.4 453.9,124.8 454.0,123.7 454.1,123.1 454.2,122.9 454.3,123.2 454.4,123.8 454.5,124.8 454.6,126.5 454.7,128.9 454.8,132.6 454.9,139.4 455.0,166.0 455.1,139.2 455.2,132.5 455.3,128.8 455.4,126.4 455.5,124.8 455.6,123.8 455.7,123.2 455.8,123.0 455.9,123.2 456.0,123.8 456.1,124.9 456.2,126.5 456.3,129.0 456.4,132.7 456.5,139.5 456.6,166.0 456.7,139.3 456.8,132.6 456.9,128.9 457.0,126.5 457.1,124.9 457.2,123.9 457.3,123.3 457.4,123.1 457.5,123.3 457.6,123.9 457.7,125.0 457.8,126.6 457.9,129.0 458.0,132.8 458.1,139.6 458.2,166.0 458.3,139.3 458.4,132.7 458.5,129.0 458.6,126.6 458.7,125.0 458.8,123.9 458.9,123.4 459.0,123.2 459.1,123.4 459.2,124.0 459.3,125.0 459.4,126.7 459.5,129.1 459.6,132.8 459.7,139.6 459.8,166.0 459.9,139.4 460.0,132.7 460.1,129.1 460.2,126.7 460.3,125.1 460.4,124.0 460.5,123.4 460.6,123.2 460.7,123.4 460.8,124.0 460.9,125.1 461.0,126.7 461.1,129.2 461.2,132.9 461.3,139.7 461.4,166.0 461.5,139.5 461.6,132.8 461.7,129.1 461.8,126.7 461.9,125.1 462.0,124.1 462.1,123.5 462.2,123.3 462.3,123.5 462.4,124.1 462.5,125.2 462.6,126.8 462.7,129.2 462.8,133.0 462.9,139.8 463.0,166.0 463.1,139.6 463.2,132.9 463.3,129.2 463.4,126.8 463.5,125.2 463.6,124.1 463.7,123.6 463.8,123.4 463.9,123.6 464.0,124.2 464.1,125.2 464.2,126.9 464.3,129.3 464.4,133.0 464.5,139.8 464.6,166.0 464.7,139.6 464.8,132.9 464.9,129.2 465.0,126.9 465.1,125.2 465.2,124.2 465.3,123.6 465.4,123.4 465.5,123.6 465.6,124.2 465.7,125.3 465.8,126.9 465.9,129.4 466.0,133.1 466.1,139.9 466.2,166.0 466.3,139.7 466.4,133.0 466.5,129.3 466.6,126.9 466.7,125.3 466.8,124.3 466.9,123.7 467.0,123.5 467.1,123.7 467.2,124.3 467.3,125.4 467.4,127.0 467.5,129.4 467.6,133.2 467.7,139.9 467.8,166.0 467.9,139.7 468.0,133.1 468.1,129.4 468.2,127.0 468.3,125.4 468.4,124.3 468.5,123.7 468.6,123.6 468.7,123.8 468.8,124.4 468.9,125.4 469.0,127.0 469.1,129.5 469.2,133.2 469.3,140.0 469.4,166.0 469.5,139.8 469.6,133.1 469.7,129.4 469.8,127.0 469.9,125.4 470.0,124.4 470.1,123.8 470.2,123.6 470.3,123.8 470.4,124.4 470.5,125.5 470.6,127.1 470.7,129.5 470.8,133.3 470.9,140.1 471.0,166.0 471.1,139.9 471.2,133.2 471.3,129.5 471.4,127.1 471.5,125.5 471.6,124.4 471.7,123.8 471.8,123.7 471.9,123.9 472.0,124.5 472.1,125.5 472.2,127.2 472.3,129.6 472.4,133.3 472.5,140.1 472.6,166.0 472.7,139.9 472.8,133.2 472.9,129.5 473.0,127.1 473.1,125.5 473.2,124.5 473.3,123.9 473.4,123.7 473.5,123.9 473.6,124.5 473.7,125.6 473.8,127.2 473.9,129.6 474.0,133.4 474.1,140.2 474.2,166.0 474.3,140.0 474.4,133.3 474.5,129.6 474.6,127.2 474.7,125.6 474.8,124.5 474.9,124.0 475.0,123.8 475.1,124.0 475.2,124.6 475.3,125.6 475.4,127.3 475.5,129.7 475.6,133.4 475.7,140.2 475.8,166.0 475.9,140.0 476.0,133.4 476.1,129.6 476.2,127.3 476.3,125.6 476.4,124.6 476.5,124.0 476.6,123.8 476.7,124.0 476.8,124.6 476.9,125.7 477.0,127.3 477.1,129.7 477.2,133.5 477.3,140.2 477.4,166.0 477.5,140.1 477.6,133.4 477.7,129.7 477.8,127.3 477.9,125.7 478.0,124.6 478.1,124.1 478.2,123.9 478.3,124.1 478.4,124.7 478.5,125.7 478.6,127.4 478.7,129.8 478.8,133.5 478.9,140.3 479.0,166.0 479.1,140.1 479.2,133.5 479.3,129.7 479.4,127.3 479.5,125.7 479.6,124.7 479.7,124.1 479.8,123.9 479.9,124.1 480.0,124.7 480.1,125.8 480.2,127.4 480.3,129.8 480.4,133.6 480.5,140.3 480.6,166.0 480.7,140.2 480.8,133.5 480.9,129.8 481.0,127.4 481.1,125.8 481.2,124.7 481.3,124.1 481.4,124.0 481.5,124.2 481.6,124.8 481.7,125.8 481.8,127.4 481.9,129.9 482.0,133.6 482.1,140.4 482.2,166.0 482.3,140.2 482.4,133.5 482.5,129.8 482.6,127.4 482.7,125.8 482.8,124.8 482.9,124.2 483.0,124.0 483.1,124.2 483.2,124.8 483.3,125.9 483.4,127.5 483.5,129.9 483.6,133.6 483.7,140.4 483.8,166.0 483.9,140.3 484.0,133.6 484.1,129.9 484.2,127.5 484.3,125.9 484.4,124.8 484.5,124.2 484.6,124.0 484.7,124.2 484.8,124.8 484.9,125.9 485.0,127.5 485.1,129.9 485.2,133.7 485.3,140.5 485.4,166.0 485.5,140.3 485.6,133.6 485.7,129.9 485.8,127.5 485.9,125.9 486.0,124.9 486.1,124.3 486.2,124.1 486.3,124.3 486.4,124.9 486.5,125.9 486.6,127.6 486.7,130.0 486.8,133.7 486.9,140.5 487.0,166.0 487.1,140.4 487.2,133.7 487.3,130.0 487.4,127.6 487.5,126.0 487.6,124.9 487.7,124.3 487.8,124.1 487.9,124.3 488.0,124.9 488.1,126.0 488.2,127.6 488.3,130.0 488.4,133.8 488.5,140.5 488.6,166.0 488.7,140.4 488.8,133.7 488.9,130.0 489.0,127.6 489.1,126.0 489.2,124.9 489.3,124.3 489.4,124.2 489.5,124.4 489.6,125.0 489.7,126.0 489.8,127.6 489.9,130.1 490.0,133.8 490.1,140.6 490.2,166.0 490.3,140.4 490.4,133.7 490.5,130.0 490.6,127.6 490.7,126.0 490.8,125.0 490.9,124.4 491.0,124.2 491.1,124.4 491.2,125.0 491.3,126.1 491.4,127.7 491.5,130.1 491.6,133.8 491.7,140.6 491.8,166.0 491.9,140.5 492.0,133.8 492.1,130.1 492.2,127.7 492.3,126.1 492.4,125.0 492.5,124.4 492.6,124.2 492.7,124.4 492.9,125.0 493.0,126.1 493.1,127.7 493.2,130.1 493.3,133.9 493.4,140.6 493.5,166.0 493.6,140.5 493.7,133.8 493.8,130.1 493.9,127.7 494.0,126.1 494.1,125.0 494.2,124.5 494.3,124.3 494.4,124.5 494.5,125.1 494.6,126.1 494.7,127.7 494.8,130.2 494.9,133.9 495.0,140.7 495.1,166.0 495.2,140.6 495.3,133.9 495.4,130.1 495.5,127.7 495.6,126.1 495.7,125.1 495.8,124.5 495.9,124.3 496.0,124.5 496.1,125.1 496.2,126.1 496.3,127.8 496.4,130.2 496.5,133.9 496.6,140.7 496.7,166.0 496.8,140.6 496.9,133.9 497.0,130.2 497.1,127.8 497.2,126.2 497.3,125.1 497.4,124.5 497.5,124.3 497.6,124.5 497.7,125.1 497.8,126.2 497.9,127.8 498.0,130.2 498.1,133.9 498.2,140.7 498.3,166.0 498.4,140.6 498.5,133.9 498.6,130.2 498.7,127.8 498.8,126.2 498.9,125.1 499.0,124.5 499.1,124.3 499.2,124.5 499.3,125.1 499.4,126.2 499.5,127.8 499.6,130.2 499.7,134.0 499.8,140.7 499.9,166.0 500.0,140.6 500.1,133.9 500.2,130.2 500.3,127.8 500.4,126.2 500.5,125.2 500.6,124.6 500.7,124.4 500.8,124.6 500.9,125.2 501.0,126.2 501.1,127.9 501.2,130.3 501.3,134.0 501.4,140.8 501.5,166.0 501.6,140.7 501.7,134.0 501.8,130.2 501.9,127.8 502.0,126.2 502.1,125.2 502.2,124.6 502.3,124.4 502.4,124.6 502.5,125.2 502.6,126.3 502.7,127.9 502.8,130.3 502.9,134.0 503.0,140.8 503.1,166.0 503.2,140.7 503.3,134.0 503.4,130.3 503.5,127.9 503.6,126.3 503.7,125.2 503.8,124.6 503.9,124.4 504.0,124.6 504.1,125.2 504.2,126.3 504.3,127.9 504.4,130.3 504.5,134.0 504.6,140.8 504.7,166.0 504.8,140.7 504.9,134.0 505.0,130.3 505.1,127.9 505.2,126.3 505.3,125.2 505.4,124.6 505.5,124.4 505.6,124.6 505.7,125.2 505.8,126.3 505.9,127.9 506.0,130.3 506.1,134.1 506.2,140.8 506.3,166.0 506.4,140.7 506.5,134.0 506.6,130.3 506.7,127.9 506.8,126.3 506.9,125.2 507.0,124.7 507.1,124.5 507.2,124.7 507.3,125.3 507.4,126.3 507.5,127.9 507.6,130.3 507.7,134.1 507.8,140.8 507.9,166.0 508.0,140.8 508.1,134.1 508.2,130.3 508.3,127.9 508.4,126.3 508.5,125.3 508.6,124.7 508.7,124.5 508.8,124.7 508.9,125.3 509.0,126.3 509.1,128.0 509.2,130.4 509.3,134.1 509.4,140.8 509.5,166.0 509.6,140.8 509.7,134.1 509.8,130.4 509.9,127.9 510.0,126.3 510.1,125.3 510.2,124.7 510.3,124.5 510.4,124.7 510.5,125.3 510.6,126.3 510.7,128.0 510.8,130.4 510.9,134.1 511.0,140.9 511.1,166.0 511.2,140.8 511.3,134.1 511.4,130.4 511.5,128.0 511.6,126.3 511.7,125.3 511.8,124.7 511.9,124.5 512.0,124.7 512.1,125.3 512.2,126.4 512.3,128.0 512.4,130.4 512.5,134.1 512.6,140.9 512.7,166.0 512.8,140.8 512.9,134.1 513.0,130.4 513.1,128.0 513.2,126.4 513.3,125.3 513.4,124.7 513.5,124.5 513.6,124.7 513.7,125.3 513.8,126.4 513.9,128.0 514.0,130.4 514.1,134.1 514.2,140.9 514.3,166.0 514.4,140.8 514.5,134.1 514.6,130.4 514.7,128.0 514.8,126.4 514.9,125.3 515.0,124.7 515.1,124.5 515.2,124.7 515.3,125.3 515.4,126.4 515.5,128.0 515.6,130.4 515.7,134.1 515.8,140.9 515.9,166.0 516.0,140.8 516.1,134.1 516.2,130.4 516.3,128.0 516.4,126.4 516.5,125.3 516.6,124.7 516.7,124.5 516.8,124.7 516.9,125.3 517.0,126.4 517.1,128.0 517.2,130.4 517.3,134.2 517.4,140.9 517.5,166.0 517.6,140.9 517.7,134.1 517.8,130.4 517.9,128.0 518.0,126.4 518.1,125.3 518.2,124.7 518.3,124.6 518.4,124.8 518.5,125.3 518.6,126.4 518.7,128.0 518.8,130.4 518.9,134.2 519.0,140.9 519.1,166.0 519.2,140.9 519.3,134.1 519.4,130.4 519.5,128.0 519.6,126.4 519.7,125.4 519.8,124.8 519.9,124.6 520.0,124.8 520.1,125.4 520.2,126.4 520.3,128.0 520.4,130.4 520.5,134.2 520.6,140.9 520.7,166.0 520.8,140.9 520.9,134.2 521.0,130.4 521.1,128.0 521.2,126.4 521.3,125.4 521.4,124.8 521.5,124.6 521.6,124.8 521.7,125.4 521.8,126.4 521.9,128.0 522.0,130.4 522.1,134.2 522.2,140.9 522.3,166.0 522.4,140.9 522.5,134.2 522.6,130.4 522.7,128.0 522.8,126.4 522.9,125.4 523.0,124.8 523.1,124.6 523.2,124.8 523.3,125.4 523.4,126.4 523.5,128.0 523.6,130.4 523.7,134.2 523.8,140.9 523.9,166.0 524.0,140.9 524.1,134.2 524.2,130.4 524.3,128.0 524.4,126.4 524.5,125.4 524.6,124.8 524.7,124.6 524.8,124.8 524.9,125.4 525.0,126.4 525.1,128.0 525.2,130.4 525.3,134.2 525.4,140.9 525.5,166.0 525.6,140.9 525.7,134.2 525.8,130.4 525.9,128.0 526.0,126.4 526.1,125.4 526.2,124.8 526.3,124.6 526.4,124.8 526.5,125.4 526.6,126.4 526.7,128.0 526.8,130.4 526.9,134.2 527.0,140.9" fill="none" stroke="#4a90d9" stroke-width="1.2" stroke-linejoin="round"/>
  <text x="154.5" y="190" text-anchor="middle" font-size="8" fill="#6b7280">n / N</text>
  <text x="424.5" y="190" text-anchor="middle" font-size="8" fill="#6b7280">Normalized frequency (× Fₛ)</text>
</svg>
