<svg xmlns="http://www.w3.org/2000/svg" viewBox="0 0 800 230" style="font-family:system-ui,-apple-system,sans-serif">
  <line x1="42" y1="182.0" x2="377" y2="182.0" stroke="#e5e7eb" stroke-width="0.7"/>
  <text x="37" y="186.0" text-anchor="end" font-size="10" fill="#6b7280">0</text>
  <line x1="42" y1="95.0" x2="377" y2="95.0" stroke="#e5e7eb" stroke-width="0.7"/>
  <text x="37" y="99.0" text-anchor="end" font-size="10" fill="#6b7280">0.5</text>
  <line x1="42" y1="8.0" x2="377" y2="8.0" stroke="#e5e7eb" stroke-width="0.7"/>
  <text x="37" y="12.0" text-anchor="end" font-size="10" fill="#6b7280">1</text>
  <line x1="42.0" y1="8" x2="42.0" y2="182" stroke="#e5e7eb" stroke-width="0.7"/>
  <text x="42.0" y="198" text-anchor="middle" font-size="10" fill="#6b7280">0</text>
  <line x1="209.5" y1="8" x2="209.5" y2="182" stroke="#e5e7eb" stroke-width="0.7"/>
  <text x="209.5" y="198" text-anchor="middle" font-size="10" fill="#6b7280">0.5</text>
  <line x1="377.0" y1="8" x2="377.0" y2="182" stroke="#e5e7eb" stroke-width="0.7"/>
  <text x="377.0" y="198" text-anchor="middle" font-size="10" fill="#6b7280">1</text>
  <line x1="42" y1="8" x2="42" y2="182" stroke="#d1d5db" stroke-width="1"/>
  <line x1="42" y1="182" x2="377" y2="182" stroke="#d1d5db" stroke-width="1"/>
  <path d="M42.0,182.0 42.0,118.0 43.3,117.5 44.6,117.0 45.9,116.5 47.3,115.9 48.6,115.4 49.9,114.9 51.2,114.4 52.5,113.8 53.8,113.3 55.1,112.8 56.5,112.2 57.8,111.7 59.1,111.1 60.4,110.6 61.7,110.0 63.0,109.4 64.3,108.9 65.6,108.3 67.0,107.7 68.3,107.1 69.6,106.5 70.9,105.9 72.2,105.3 73.5,104.7 74.8,104.1 76.2,103.5 77.5,102.9 78.8,102.3 80.1,101.6 81.4,101.0 82.7,100.4 84.0,99.7 85.4,99.1 86.7,98.4 88.0,97.8 89.3,97.1 90.6,96.4 91.9,95.8 93.2,95.1 94.5,94.4 95.9,93.7 97.2,93.0 98.5,92.3 99.8,91.6 101.1,90.9 102.4,90.2 103.7,89.5 105.1,88.7 106.4,88.0 107.7,87.3 109.0,86.5 110.3,85.8 111.6,85.0 112.9,84.2 114.3,83.5 115.6,82.7 116.9,81.9 118.2,81.1 119.5,80.3 120.8,79.5 122.1,78.7 123.5,77.9 124.8,77.1 126.1,76.3 127.4,75.4 128.7,74.6 130.0,73.7 131.3,72.9 132.6,72.0 134.0,71.2 135.3,70.3 136.6,69.4 137.9,68.5 139.2,67.6 140.5,66.7 141.8,65.8 143.2,64.9 144.5,64.0 145.8,63.1 147.1,62.1 148.4,61.2 149.7,60.2 151.0,59.3 152.4,58.3 153.7,57.3 155.0,56.3 156.3,55.4 157.6,54.4 158.9,53.4 160.2,52.3 161.5,51.3 162.9,50.3 164.2,49.3 165.5,48.2 166.8,47.2 168.1,46.1 169.4,45.0 170.7,43.9 172.1,42.9 173.4,41.8 174.7,40.7 176.0,39.5 177.3,38.4 178.6,37.3 179.9,36.1 181.3,35.0 182.6,33.8 183.9,32.7 185.2,31.5 186.5,30.3 187.8,29.1 189.1,27.9 190.5,26.7 191.8,25.5 193.1,24.2 194.4,23.0 195.7,21.8 197.0,20.5 198.3,19.2 199.6,17.9 201.0,16.6 202.3,15.3 203.6,14.0 204.9,12.7 206.2,11.4 207.5,10.0 208.8,8.7 210.2,8.7 211.5,10.0 212.8,11.4 214.1,12.7 215.4,14.0 216.7,15.3 218.0,16.6 219.4,17.9 220.7,19.2 222.0,20.5 223.3,21.8 224.6,23.0 225.9,24.2 227.2,25.5 228.5,26.7 229.9,27.9 231.2,29.1 232.5,30.3 233.8,31.5 235.1,32.7 236.4,33.8 237.7,35.0 239.1,36.1 240.4,37.3 241.7,38.4 243.0,39.5 244.3,40.7 245.6,41.8 246.9,42.9 248.3,43.9 249.6,45.0 250.9,46.1 252.2,47.2 253.5,48.2 254.8,49.3 256.1,50.3 257.5,51.3 258.8,52.3 260.1,53.4 261.4,54.4 262.7,55.4 264.0,56.3 265.3,57.3 266.6,58.3 268.0,59.3 269.3,60.2 270.6,61.2 271.9,62.1 273.2,63.1 274.5,64.0 275.8,64.9 277.2,65.8 278.5,66.7 279.8,67.6 281.1,68.5 282.4,69.4 283.7,70.3 285.0,71.2 286.4,72.0 287.7,72.9 289.0,73.7 290.3,74.6 291.6,75.4 292.9,76.3 294.2,77.1 295.5,77.9 296.9,78.7 298.2,79.5 299.5,80.3 300.8,81.1 302.1,81.9 303.4,82.7 304.7,83.5 306.1,84.2 307.4,85.0 308.7,85.8 310.0,86.5 311.3,87.3 312.6,88.0 313.9,88.7 315.3,89.5 316.6,90.2 317.9,90.9 319.2,91.6 320.5,92.3 321.8,93.0 323.1,93.7 324.5,94.4 325.8,95.1 327.1,95.8 328.4,96.4 329.7,97.1 331.0,97.8 332.3,98.4 333.6,99.1 335.0,99.7 336.3,100.4 337.6,101.0 338.9,101.6 340.2,102.3 341.5,102.9 342.8,103.5 344.2,104.1 345.5,104.7 346.8,105.3 348.1,105.9 349.4,106.5 350.7,107.1 352.0,107.7 353.4,108.3 354.7,108.9 356.0,109.4 357.3,110.0 358.6,110.6 359.9,111.1 361.2,111.7 362.5,112.2 363.9,112.8 365.2,113.3 366.5,113.8 367.8,114.4 369.1,114.9 370.4,115.4 371.7,115.9 373.1,116.5 374.4,117.0 375.7,117.5 377.0,118.0 L377.0,182.0 Z" fill="#4a90d9" fill-opacity="0.06"/>
  <polyline points="42.0,118.0 43.3,117.5 44.6,117.0 45.9,116.5 47.3,115.9 48.6,115.4 49.9,114.9 51.2,114.4 52.5,113.8 53.8,113.3 55.1,112.8 56.5,112.2 57.8,111.7 59.1,111.1 60.4,110.6 61.7,110.0 63.0,109.4 64.3,108.9 65.6,108.3 67.0,107.7 68.3,107.1 69.6,106.5 70.9,105.9 72.2,105.3 73.5,104.7 74.8,104.1 76.2,103.5 77.5,102.9 78.8,102.3 80.1,101.6 81.4,101.0 82.7,100.4 84.0,99.7 85.4,99.1 86.7,98.4 88.0,97.8 89.3,97.1 90.6,96.4 91.9,95.8 93.2,95.1 94.5,94.4 95.9,93.7 97.2,93.0 98.5,92.3 99.8,91.6 101.1,90.9 102.4,90.2 103.7,89.5 105.1,88.7 106.4,88.0 107.7,87.3 109.0,86.5 110.3,85.8 111.6,85.0 112.9,84.2 114.3,83.5 115.6,82.7 116.9,81.9 118.2,81.1 119.5,80.3 120.8,79.5 122.1,78.7 123.5,77.9 124.8,77.1 126.1,76.3 127.4,75.4 128.7,74.6 130.0,73.7 131.3,72.9 132.6,72.0 134.0,71.2 135.3,70.3 136.6,69.4 137.9,68.5 139.2,67.6 140.5,66.7 141.8,65.8 143.2,64.9 144.5,64.0 145.8,63.1 147.1,62.1 148.4,61.2 149.7,60.2 151.0,59.3 152.4,58.3 153.7,57.3 155.0,56.3 156.3,55.4 157.6,54.4 158.9,53.4 160.2,52.3 161.5,51.3 162.9,50.3 164.2,49.3 165.5,48.2 166.8,47.2 168.1,46.1 169.4,45.0 170.7,43.9 172.1,42.9 173.4,41.8 174.7,40.7 176.0,39.5 177.3,38.4 178.6,37.3 179.9,36.1 181.3,35.0 182.6,33.8 183.9,32.7 185.2,31.5 186.5,30.3 187.8,29.1 189.1,27.9 190.5,26.7 191.8,25.5 193.1,24.2 194.4,23.0 195.7,21.8 197.0,20.5 198.3,19.2 199.6,17.9 201.0,16.6 202.3,15.3 203.6,14.0 204.9,12.7 206.2,11.4 207.5,10.0 208.8,8.7 210.2,8.7 211.5,10.0 212.8,11.4 214.1,12.7 215.4,14.0 216.7,15.3 218.0,16.6 219.4,17.9 220.7,19.2 222.0,20.5 223.3,21.8 224.6,23.0 225.9,24.2 227.2,25.5 228.5,26.7 229.9,27.9 231.2,29.1 232.5,30.3 233.8,31.5 235.1,32.7 236.4,33.8 237.7,35.0 239.1,36.1 240.4,37.3 241.7,38.4 243.0,39.5 244.3,40.7 245.6,41.8 246.9,42.9 248.3,43.9 249.6,45.0 250.9,46.1 252.2,47.2 253.5,48.2 254.8,49.3 256.1,50.3 257.5,51.3 258.8,52.3 260.1,53.4 261.4,54.4 262.7,55.4 264.0,56.3 265.3,57.3 266.6,58.3 268.0,59.3 269.3,60.2 270.6,61.2 271.9,62.1 273.2,63.1 274.5,64.0 275.8,64.9 277.2,65.8 278.5,66.7 279.8,67.6 281.1,68.5 282.4,69.4 283.7,70.3 285.0,71.2 286.4,72.0 287.7,72.9 289.0,73.7 290.3,74.6 291.6,75.4 292.9,76.3 294.2,77.1 295.5,77.9 296.9,78.7 298.2,79.5 299.5,80.3 300.8,81.1 302.1,81.9 303.4,82.7 304.7,83.5 306.1,84.2 307.4,85.0 308.7,85.8 310.0,86.5 311.3,87.3 312.6,88.0 313.9,88.7 315.3,89.5 316.6,90.2 317.9,90.9 319.2,91.6 320.5,92.3 321.8,93.0 323.1,93.7 324.5,94.4 325.8,95.1 327.1,95.8 328.4,96.4 329.7,97.1 331.0,97.8 332.3,98.4 333.6,99.1 335.0,99.7 336.3,100.4 337.6,101.0 338.9,101.6 340.2,102.3 341.5,102.9 342.8,103.5 344.2,104.1 345.5,104.7 346.8,105.3 348.1,105.9 349.4,106.5 350.7,107.1 352.0,107.7 353.4,108.3 354.7,108.9 356.0,109.4 357.3,110.0 358.6,110.6 359.9,111.1 361.2,111.7 362.5,112.2 363.9,112.8 365.2,113.3 366.5,113.8 367.8,114.4 369.1,114.9 370.4,115.4 371.7,115.9 373.1,116.5 374.4,117.0 375.7,117.5 377.0,118.0" fill="none" stroke="#4a90d9" stroke-width="1.5" stroke-linejoin="round"/>
  <line x1="450" y1="8.0" x2="785" y2="8.0" stroke="#e5e7eb" stroke-width="0.7"/>
  <text x="445" y="12.0" text-anchor="end" font-size="10" fill="#6b7280">0</text>
  <line x1="450" y1="66.0" x2="785" y2="66.0" stroke="#e5e7eb" stroke-width="0.7"/>
  <text x="445" y="70.0" text-anchor="end" font-size="10" fill="#6b7280">-40</text>
  <line x1="450" y1="124.0" x2="785" y2="124.0" stroke="#e5e7eb" stroke-width="0.7"/>
  <text x="445" y="128.0" text-anchor="end" font-size="10" fill="#6b7280">-80</text>
  <line x1="450" y1="182.0" x2="785" y2="182.0" stroke="#e5e7eb" stroke-width="0.7"/>
  <text x="445" y="186.0" text-anchor="end" font-size="10" fill="#6b7280">-120</text>
  <line x1="450.0" y1="8" x2="450.0" y2="182" stroke="#e5e7eb" stroke-width="0.7"/>
  <text x="450.0" y="198" text-anchor="middle" font-size="10" fill="#6b7280">0</text>
  <line x1="517.0" y1="8" x2="517.0" y2="182" stroke="#e5e7eb" stroke-width="0.7"/>
  <text x="517.0" y="198" text-anchor="middle" font-size="10" fill="#6b7280">0.1</text>
  <line x1="584.0" y1="8" x2="584.0" y2="182" stroke="#e5e7eb" stroke-width="0.7"/>
  <text x="584.0" y="198" text-anchor="middle" font-size="10" fill="#6b7280">0.2</text>
  <line x1="651.0" y1="8" x2="651.0" y2="182" stroke="#e5e7eb" stroke-width="0.7"/>
  <text x="651.0" y="198" text-anchor="middle" font-size="10" fill="#6b7280">0.3</text>
  <line x1="718.0" y1="8" x2="718.0" y2="182" stroke="#e5e7eb" stroke-width="0.7"/>
  <text x="718.0" y="198" text-anchor="middle" font-size="10" fill="#6b7280">0.4</text>
  <line x1="785.0" y1="8" x2="785.0" y2="182" stroke="#e5e7eb" stroke-width="0.7"/>
  <text x="785.0" y="198" text-anchor="middle" font-size="10" fill="#6b7280">0.5</text>
  <line x1="450" y1="8" x2="450" y2="182" stroke="#d1d5db" stroke-width="1"/>
  <line x1="450" y1="182" x2="785" y2="182" stroke="#d1d5db" stroke-width="1"/>
  <polyline points="450.0,8.0 450.2,8.1 450.3,8.2 450.5,8.6 450.7,9.0 450.8,9.6 451.0,10.3 451.1,11.1 451.3,12.1 451.5,13.3 451.6,14.7 451.8,16.2 452.0,18.0 452.1,20.0 452.3,22.4 452.5,25.1 452.6,28.3 452.8,32.2 452.9,37.1 453.1,43.8 453.3,55.1 453.4,76.8 453.6,54.2 453.8,48.4 453.9,45.9 454.1,45.1 454.3,45.6 454.4,47.2 454.6,50.4 454.7,56.1 454.9,70.1 455.1,67.8 455.2,54.5 455.4,48.3 455.6,44.4 455.7,41.7 455.9,39.8 456.1,38.5 456.2,37.7 456.4,37.3 456.5,37.2 456.7,37.6 456.9,38.3 457.0,39.4 457.2,40.9 457.4,43.0 457.5,45.7 457.7,49.4 457.9,54.9 458.0,64.3 458.2,102.6 458.3,64.3 458.5,56.8 458.7,52.8 458.8,50.5 459.0,49.2 459.2,48.7 459.3,48.9 459.5,49.8 459.7,51.3 459.8,53.9 460.0,57.8 460.1,64.7 460.3,83.5 460.5,71.7 460.6,60.9 460.8,55.4 461.0,51.9 461.1,49.5 461.3,47.8 461.5,46.8 461.6,46.2 461.8,46.0 461.9,46.3 462.1,47.0 462.3,48.1 462.4,49.7 462.6,52.0 462.8,55.2 462.9,59.9 463.1,67.7 463.3,90.7 463.4,73.3 463.6,63.8 463.7,59.0 463.9,56.1 464.1,54.3 464.2,53.3 464.4,52.9 464.6,53.2 464.7,54.0 464.9,55.5 465.1,57.9 465.2,61.5 465.4,67.4 465.5,80.6 465.7,81.9 465.9,67.7 466.0,61.4 466.2,57.6 466.4,55.0 466.5,53.3 466.7,52.1 466.9,51.5 467.0,51.3 467.2,51.5 467.3,52.2 467.5,53.4 467.7,55.1 467.8,57.5 468.0,61.0 468.2,66.3 468.3,76.1 468.5,99.1 468.7,73.1 468.8,65.7 469.0,61.6 469.1,59.0 469.3,57.4 469.5,56.5 469.6,56.2 469.8,56.4 470.0,57.3 470.1,58.7 470.3,61.0 470.5,64.4 470.6,70.0 470.8,81.6 470.9,89.2 471.1,72.3 471.3,65.6 471.4,61.6 471.6,58.9 471.8,57.1 471.9,55.9 472.1,55.2 472.3,55.0 472.4,55.2 472.6,55.9 472.7,57.1 472.9,58.9 473.1,61.4 473.2,65.1 473.4,70.9 473.6,82.4 473.7,91.5 473.9,74.3 474.1,67.7 474.2,63.9 474.4,61.5 474.5,60.0 474.7,59.1 474.9,58.8 475.0,59.1 475.2,59.9 475.4,61.3 475.5,63.5 475.7,66.9 475.9,72.3 476.0,83.0 476.2,94.8 476.3,75.8 476.5,68.8 476.7,64.6 476.8,61.8 477.0,60.0 477.2,58.8 477.3,58.1 477.5,57.9 477.7,58.1 477.8,58.8 478.0,60.0 478.1,61.8 478.3,64.5 478.5,68.3 478.6,74.4 478.8,87.5 479.0,90.0 479.1,75.7 479.3,69.6 479.5,65.9 479.6,63.6 479.8,62.1 479.9,61.3 480.1,61.0 480.3,61.2 480.4,62.0 480.6,63.4 480.8,65.6 480.9,68.9 481.1,74.2 481.3,84.5 481.4,99.4 481.6,78.5 481.7,71.3 481.9,67.0 482.1,64.2 482.2,62.3 482.4,61.1 482.6,60.4 482.7,60.2 482.9,60.4 483.1,61.1 483.2,62.4 483.4,64.2 483.5,66.9 483.7,70.8 483.9,77.2 484.0,91.7 484.2,90.0 484.4,77.0 484.5,71.2 484.7,67.7 484.9,65.4 485.0,63.9 485.2,63.1 485.3,62.8 485.5,63.1 485.7,63.9 485.8,65.3 486.0,67.4 486.2,70.7 486.3,75.9 486.5,85.8 486.7,103.3 486.8,80.8 487.0,73.4 487.1,69.1 487.3,66.3 487.5,64.3 487.6,63.1 487.8,62.4 488.0,62.2 488.1,62.4 488.3,63.1 488.5,64.3 488.6,66.2 488.8,68.9 488.9,73.0 489.1,79.6 489.3,95.3 489.4,90.3 489.6,78.3 489.8,72.7 489.9,69.2 490.1,67.0 490.3,65.5 490.4,64.7 490.6,64.4 490.7,64.7 490.9,65.5 491.1,66.9 491.2,69.0 491.4,72.3 491.6,77.3 491.7,87.1 491.9,106.7 492.1,82.7 492.2,75.2 492.4,70.8 492.6,68.0 492.7,66.1 492.9,64.8 493.0,64.1 493.2,63.8 493.4,64.1 493.5,64.8 493.7,66.0 493.9,67.9 494.0,70.7 494.2,74.8 494.4,81.6 494.5,98.5 494.7,90.9 494.8,79.5 495.0,74.0 495.2,70.6 495.3,68.3 495.5,66.9 495.7,66.1 495.8,65.9 496.0,66.1 496.2,66.9 496.3,68.3 496.5,70.4 496.6,73.6 496.8,78.7 497.0,88.3 497.1,109.7 497.3,84.4 497.5,76.8 497.6,72.4 497.8,69.5 498.0,67.6 498.1,66.3 498.3,65.6 498.4,65.3 498.6,65.6 498.8,66.3 498.9,67.5 499.1,69.5 499.3,72.2 499.4,76.4 499.6,83.3 499.8,101.3 499.9,91.6 500.1,80.6 500.2,75.2 500.4,71.8 500.6,69.6 500.7,68.2 500.9,67.4 501.1,67.1 501.2,67.4 501.4,68.2 501.6,69.5 501.7,71.7 501.9,74.9 502.0,79.9 502.2,89.3 502.4,112.3 502.5,85.8 502.7,78.2 502.9,73.7 503.0,70.8 503.2,68.9 503.4,67.6 503.5,66.9 503.7,66.7 503.8,66.9 504.0,67.6 504.2,68.9 504.3,70.8 504.5,73.6 504.7,77.8 504.8,84.9 505.0,103.9 505.2,92.3 505.3,81.6 505.5,76.2 505.6,72.9 505.8,70.7 506.0,69.3 506.1,68.5 506.3,68.3 506.5,68.5 506.6,69.3 506.8,70.7 507.0,72.8 507.1,76.0 507.3,80.9 507.4,90.3 507.6,114.8 507.8,87.2 507.9,79.4 508.1,75.0 508.3,72.1 508.4,70.1 508.6,68.8 508.8,68.1 508.9,67.9 509.1,68.1 509.2,68.8 509.4,70.1 509.6,72.0 509.7,74.8 509.9,79.1 510.1,86.2 510.2,106.2 510.4,92.9 510.6,82.5 510.7,77.2 510.9,73.9 511.0,71.8 511.2,70.4 511.4,69.6 511.5,69.3 511.7,69.6 511.9,70.3 512.0,71.7 512.2,73.8 512.4,77.0 512.5,81.9 512.7,91.2 512.8,117.0 513.0,88.3 513.2,80.5 513.3,76.1 513.5,73.1 513.7,71.2 513.8,69.9 514.0,69.2 514.2,68.9 514.3,69.2 514.5,69.9 514.6,71.2 514.8,73.1 515.0,75.9 515.1,80.2 515.3,87.5 515.5,108.3 515.6,93.6 515.8,83.3 516.0,78.1 516.1,74.9 516.3,72.7 516.4,71.3 516.6,70.5 516.8,70.3 516.9,70.5 517.1,71.3 517.3,72.7 517.4,74.8 517.6,77.9 517.8,82.9 517.9,92.1 518.1,119.0 518.2,89.4 518.4,81.6 518.6,77.1 518.7,74.2 518.9,72.2 519.1,70.9 519.2,70.2 519.4,69.9 519.6,70.2 519.7,70.9 519.9,72.2 520.0,74.1 520.2,77.0 520.4,81.3 520.5,88.6 520.7,110.3 520.9,94.2 521.0,84.1 521.2,79.0 521.4,75.7 521.5,73.6 521.7,72.2 521.8,71.4 522.0,71.2 522.2,71.4 522.3,72.2 522.5,73.5 522.7,75.6 522.8,78.8 523.0,83.7 523.2,92.8 523.3,120.9 523.5,90.4 523.6,82.5 523.8,78.0 524.0,75.1 524.1,73.1 524.3,71.8 524.5,71.1 524.6,70.8 524.8,71.1 525.0,71.8 525.1,73.1 525.3,75.0 525.4,77.9 525.6,82.2 525.8,89.7 525.9,112.2 526.1,94.8 526.3,84.9 526.4,79.8 526.6,76.5 526.8,74.4 526.9,73.0 527.1,72.2 527.2,72.0 527.4,72.2 527.6,73.0 527.7,74.4 527.9,76.5 528.1,79.6 528.2,84.5 528.4,93.6 528.6,122.7 528.7,91.3 528.9,83.4 529.0,78.9 529.2,75.9 529.4,73.9 529.5,72.6 529.7,71.9 529.9,71.7 530.0,71.9 530.2,72.6 530.4,73.9 530.5,75.9 530.7,78.8 530.8,83.1 531.0,90.6 531.2,113.9 531.3,95.4 531.5,85.6 531.7,80.5 531.8,77.3 532.0,75.1 532.2,73.8 532.3,73.0 532.5,72.7 532.6,73.0 532.8,73.8 533.0,75.1 533.1,77.2 533.3,80.3 533.5,85.2 533.6,94.3 533.8,124.4 534.0,92.2 534.1,84.2 534.3,79.7 534.4,76.7 534.6,74.7 534.8,73.4 534.9,72.7 535.1,72.5 535.3,72.7 535.4,73.4 535.6,74.7 535.8,76.7 535.9,79.6 536.1,83.9 536.2,91.5 536.4,115.5 536.6,96.0 536.7,86.2 536.9,81.2 537.1,78.0 537.2,75.9 537.4,74.5 537.6,73.7 537.7,73.4 537.9,73.7 538.0,74.5 538.2,75.8 538.4,77.9 538.5,81.0 538.7,85.9 538.9,94.9 539.0,126.0 539.2,93.0 539.4,84.9 539.5,80.4 539.7,77.4 539.8,75.5 540.0,74.2 540.2,73.4 540.3,73.2 540.5,73.4 540.7,74.2 540.8,75.4 541.0,77.4 541.2,80.3 541.3,84.7 541.5,92.3 541.6,117.0 541.8,96.5 542.0,86.9 542.1,81.8 542.3,78.6 542.5,76.5 542.6,75.1 542.8,74.4 543.0,74.1 543.1,74.4 543.3,75.1 543.4,76.5 543.6,78.6 543.8,81.7 543.9,86.5 544.1,95.5 544.3,127.4 544.4,93.7 544.6,85.6 544.8,81.1 544.9,78.1 545.1,76.1 545.2,74.8 545.4,74.1 545.6,73.9 545.7,74.1 545.9,74.8 546.1,76.1 546.2,78.1 546.4,81.0 546.6,85.4 546.7,93.1 546.9,118.5 547.0,97.0 547.2,87.4 547.4,82.4 547.5,79.2 547.7,77.1 547.9,75.8 548.0,75.0 548.2,74.7 548.4,75.0 548.5,75.8 548.7,77.1 548.8,79.2 549.0,82.3 549.2,87.2 549.3,96.1 549.5,128.9 549.7,94.4 549.8,86.3 550.0,81.7 550.2,78.8 550.3,76.8 550.5,75.5 550.6,74.7 550.8,74.5 551.0,74.7 551.1,75.5 551.3,76.8 551.5,78.8 551.6,81.7 551.8,86.1 552.0,93.8 552.1,119.9 552.3,97.5 552.4,88.0 552.6,83.0 552.8,79.8 552.9,77.7 553.1,76.4 553.3,75.6 553.4,75.3 553.6,75.6 553.8,76.3 553.9,77.7 554.1,79.8 554.2,82.9 554.4,87.7 554.6,96.6 554.7,130.2 554.9,95.0 555.1,86.9 555.2,82.4 555.4,79.4 555.6,77.4 555.7,76.1 555.9,75.4 556.0,75.1 556.2,75.4 556.4,76.1 556.5,77.4 556.7,79.4 556.9,82.3 557.0,86.7 557.2,94.5 557.4,121.2 557.5,97.9 557.7,88.5 557.8,83.5 558.0,80.4 558.2,78.3 558.3,76.9 558.5,76.1 558.7,75.9 558.8,76.1 559.0,76.9 559.2,78.2 559.3,80.3 559.5,83.4 559.6,88.3 559.8,97.2 560.0,131.5 560.1,95.6 560.3,87.5 560.5,82.9 560.6,80.0 560.8,78.0 561.0,76.7 561.1,75.9 561.3,75.7 561.4,75.9 561.6,76.7 561.8,78.0 561.9,79.9 562.1,82.9 562.3,87.3 562.4,95.1 562.6,122.5 562.8,98.4 562.9,89.0 563.1,84.0 563.2,80.9 563.4,78.8 563.6,77.4 563.7,76.7 563.9,76.4 564.1,76.7 564.2,77.4 564.4,78.8 564.6,80.8 564.7,83.9 564.9,88.8 565.0,97.6 565.2,132.8 565.4,96.2 565.5,88.1 565.7,83.5 565.9,80.5 566.0,78.5 566.2,77.2 566.4,76.5 566.5,76.2 566.7,76.5 566.8,77.2 567.0,78.5 567.2,80.5 567.3,83.4 567.5,87.9 567.7,95.7 567.8,123.7 568.0,98.8 568.2,89.5 568.3,84.5 568.5,81.4 568.6,79.3 568.8,77.9 569.0,77.2 569.1,76.9 569.3,77.2 569.5,77.9 569.6,79.3 569.8,81.3 570.0,84.4 570.1,89.2 570.3,98.1 570.4,133.9 570.6,96.7 570.8,88.6 570.9,84.0 571.1,81.0 571.3,79.0 571.4,77.7 571.6,77.0 571.8,76.7 571.9,77.0 572.1,77.7 572.2,79.0 572.4,81.0 572.6,83.9 572.7,88.4 572.9,96.2 573.1,124.8 573.2,99.2 573.4,89.9 573.6,85.0 573.7,81.8 573.9,79.7 574.0,78.4 574.2,77.6 574.4,77.4 574.5,77.6 574.7,78.4 574.9,79.7 575.0,81.8 575.2,84.9 575.4,89.7 575.5,98.5 575.7,135.1 575.9,97.2 576.0,89.1 576.2,84.5 576.3,81.5 576.5,79.5 576.7,78.2 576.8,77.4 577.0,77.2 577.2,77.4 577.3,78.2 577.5,79.5 577.7,81.5 577.8,84.4 578.0,88.9 578.1,96.8 578.3,126.0 578.5,99.6 578.6,90.3 578.8,85.4 579.0,82.3 579.1,80.2 579.3,78.8 579.5,78.1 579.6,77.8 579.8,78.1 579.9,78.8 580.1,80.2 580.3,82.2 580.4,85.3 580.6,90.1 580.8,98.9 580.9,136.2 581.1,97.7 581.3,89.5 581.4,84.9 581.6,82.0 581.7,79.9 581.9,78.6 582.1,77.9 582.2,77.7 582.4,77.9 582.6,78.6 582.7,79.9 582.9,81.9 583.1,84.9 583.2,89.4 583.4,97.3 583.5,127.1 583.7,99.9 583.9,90.7 584.0,85.8 584.2,82.7 584.4,80.6 584.5,79.3 584.7,78.5 584.9,78.2 585.0,78.5 585.2,79.3 585.3,80.6 585.5,82.7 585.7,85.8 585.8,90.6 586.0,99.3 586.2,137.3 586.3,98.2 586.5,90.0 586.7,85.4 586.8,82.4 587.0,80.4 587.1,79.1 587.3,78.3 587.5,78.1 587.6,78.3 587.8,79.1 588.0,80.4 588.1,82.4 588.3,85.3 588.5,89.8 588.6,97.8 588.8,128.1 588.9,100.3 589.1,91.1 589.3,86.2 589.4,83.1 589.6,81.0 589.8,79.7 589.9,78.9 590.1,78.6 590.3,78.9 590.4,79.7 590.6,81.0 590.7,83.1 590.9,86.2 591.1,90.9 591.2,99.7 591.4,138.3 591.6,98.6 591.7,90.4 591.9,85.8 592.1,82.8 592.2,80.8 592.4,79.5 592.5,78.7 592.7,78.5 592.9,78.7 593.0,79.5 593.2,80.8 593.4,82.8 593.5,85.7 593.7,90.3 593.9,98.2 594.0,129.2 594.2,100.6 594.3,91.5 594.5,86.6 594.7,83.5 594.8,81.4 595.0,80.0 595.2,79.3 595.3,79.0 595.5,79.3 595.7,80.0 595.8,81.4 596.0,83.4 596.1,86.5 596.3,91.3 596.5,100.1 596.6,139.4 596.8,99.0 597.0,90.8 597.1,86.2 597.3,83.2 597.5,81.2 597.6,79.9 597.8,79.1 597.9,78.9 598.1,79.1 598.3,79.9 598.4,81.2 598.6,83.2 598.8,86.1 598.9,90.7 599.1,98.6 599.3,130.2 599.4,100.9 599.6,91.8 599.7,87.0 599.9,83.8 600.1,81.8 600.2,80.4 600.4,79.6 600.6,79.4 600.7,79.6 600.9,80.4 601.1,81.7 601.2,83.8 601.4,86.9 601.5,91.7 601.7,100.4 601.9,140.4 602.0,99.4 602.2,91.2 602.4,86.6 602.5,83.6 602.7,81.6 602.9,80.2 603.0,79.5 603.2,79.3 603.3,79.5 603.5,80.2 603.7,81.5 603.8,83.5 604.0,86.5 604.2,91.1 604.3,99.0 604.5,131.2 604.7,101.2 604.8,92.2 605.0,87.3 605.1,84.2 605.3,82.1 605.5,80.7 605.6,80.0 605.8,79.7 606.0,80.0 606.1,80.7 606.3,82.1 606.5,84.2 606.6,87.2 606.8,92.0 606.9,100.7 607.1,141.3 607.3,99.8 607.4,91.5 607.6,86.9 607.8,83.9 607.9,81.9 608.1,80.6 608.3,79.9 608.4,79.6 608.6,79.9 608.7,80.6 608.9,81.9 609.1,83.9 609.2,86.9 609.4,91.4 609.6,99.4 609.7,132.1 609.9,101.5 610.1,92.5 610.2,87.6 610.4,84.5 610.5,82.4 610.7,81.1 610.9,80.3 611.0,80.1 611.2,80.3 611.4,81.1 611.5,82.4 611.7,84.5 611.9,87.6 612.0,92.3 612.2,101.1 612.3,142.3 612.5,100.1 612.7,91.9 612.8,87.3 613.0,84.3 613.2,82.2 613.3,80.9 613.5,80.2 613.7,79.9 613.8,80.2 614.0,80.9 614.1,82.2 614.3,84.2 614.5,87.2 614.6,91.8 614.8,99.8 615.0,133.1 615.1,101.8 615.3,92.8 615.5,87.9 615.6,84.8 615.8,82.7 615.9,81.4 616.1,80.6 616.3,80.4 616.4,80.6 616.6,81.4 616.8,82.7 616.9,84.8 617.1,87.9 617.3,92.6 617.4,101.3 617.6,143.2 617.7,100.5 617.9,92.2 618.1,87.6 618.2,84.6 618.4,82.6 618.6,81.3 618.7,80.5 618.9,80.3 619.1,80.5 619.2,81.3 619.4,82.6 619.5,84.6 619.7,87.5 619.9,92.1 620.0,100.2 620.2,134.0 620.4,102.0 620.5,93.1 620.7,88.2 620.9,85.1 621.0,83.0 621.2,81.7 621.3,80.9 621.5,80.7 621.7,80.9 621.8,81.7 622.0,83.0 622.2,85.1 622.3,88.2 622.5,92.9 622.7,101.6 622.8,144.1 623.0,100.8 623.1,92.5 623.3,87.9 623.5,84.9 623.6,82.9 623.8,81.6 624.0,80.8 624.1,80.6 624.3,80.8 624.5,81.6 624.6,82.9 624.8,84.9 624.9,87.9 625.1,92.4 625.3,100.5 625.4,134.9 625.6,102.3 625.8,93.3 625.9,88.5 626.1,85.4 626.3,83.3 626.4,82.0 626.6,81.2 626.7,81.0 626.9,81.2 627.1,82.0 627.2,83.3 627.4,85.4 627.6,88.4 627.7,93.2 627.9,101.9 628.1,145.0 628.2,101.1 628.4,92.8 628.5,88.2 628.7,85.2 628.9,83.2 629.0,81.8 629.2,81.1 629.4,80.9 629.5,81.1 629.7,81.8 629.9,83.2 630.0,85.2 630.2,88.1 630.3,92.7 630.5,100.8 630.7,135.8 630.8,102.5 631.0,93.6 631.2,88.8 631.3,85.7 631.5,83.6 631.7,82.2 631.8,81.5 632.0,81.2 632.1,81.5 632.3,82.2 632.5,83.6 632.6,85.6 632.8,88.7 633.0,93.5 633.1,102.1 633.3,145.9 633.5,101.4 633.6,93.1 633.8,88.5 633.9,85.5 634.1,83.4 634.3,82.1 634.4,81.4 634.6,81.1 634.8,81.4 634.9,82.1 635.1,83.4 635.3,85.4 635.4,88.4 635.6,93.0 635.7,101.1 635.9,136.7 636.1,102.7 636.2,93.8 636.4,89.0 636.6,85.9 636.7,83.8 636.9,82.5 637.1,81.7 637.2,81.5 637.4,81.7 637.5,82.5 637.7,83.8 637.9,85.9 638.0,89.0 638.2,93.7 638.4,102.4 638.5,146.8 638.7,101.7 638.9,93.4 639.0,88.7 639.2,85.7 639.3,83.7 639.5,82.4 639.7,81.6 639.8,81.4 640.0,81.6 640.2,82.4 640.3,83.7 640.5,85.7 640.7,88.7 640.8,93.3 641.0,101.4 641.1,137.6 641.3,102.9 641.5,94.1 641.6,89.2 641.8,86.2 642.0,84.1 642.1,82.7 642.3,82.0 642.5,81.7 642.6,82.0 642.8,82.7 642.9,84.1 643.1,86.1 643.3,89.2 643.4,94.0 643.6,102.6 643.8,147.7 643.9,101.9 644.1,93.6 644.3,89.0 644.4,86.0 644.6,84.0 644.7,82.6 644.9,81.9 645.1,81.6 645.2,81.9 645.4,82.6 645.6,83.9 645.7,86.0 645.9,89.0 646.1,93.5 646.2,101.7 646.4,138.5 646.5,103.1 646.7,94.3 646.9,89.5 647.0,86.4 647.2,84.3 647.4,83.0 647.5,82.2 647.7,82.0 647.9,82.2 648.0,83.0 648.2,84.3 648.3,86.4 648.5,89.4 648.7,94.2 648.8,102.8 649.0,148.6 649.2,102.2 649.3,93.9 649.5,89.2 649.7,86.2 649.8,84.2 650.0,82.9 650.1,82.1 650.3,81.9 650.5,82.1 650.6,82.9 650.8,84.2 651.0,86.2 651.1,89.2 651.3,93.8 651.5,102.0 651.6,139.3 651.8,103.3 651.9,94.5 652.1,89.7 652.3,86.6 652.4,84.5 652.6,83.2 652.8,82.4 652.9,82.2 653.1,82.4 653.3,83.2 653.4,84.5 653.6,86.6 653.7,89.7 653.9,94.4 654.1,103.0 654.2,149.5 654.4,102.4 654.6,94.1 654.7,89.5 654.9,86.4 655.1,84.4 655.2,83.1 655.4,82.4 655.5,82.1 655.7,82.4 655.9,83.1 656.0,84.4 656.2,86.4 656.4,89.4 656.5,94.0 656.7,102.2 656.9,140.2 657.0,103.5 657.2,94.7 657.3,89.9 657.5,86.8 657.7,84.7 657.8,83.4 658.0,82.6 658.2,82.4 658.3,82.6 658.5,83.4 658.7,84.7 658.8,86.8 659.0,89.9 659.1,94.6 659.3,103.2 659.5,150.3 659.6,102.7 659.8,94.3 660.0,89.7 660.1,86.7 660.3,84.6 660.5,83.3 660.6,82.6 660.8,82.3 661.0,82.6 661.1,83.3 661.3,84.6 661.4,86.6 661.6,89.6 661.8,94.2 661.9,102.4 662.1,141.1 662.3,103.7 662.4,94.9 662.6,90.1 662.8,87.0 662.9,84.9 663.1,83.6 663.2,82.8 663.4,82.6 663.6,82.8 663.7,83.6 663.9,84.9 664.1,87.0 664.2,90.1 664.4,94.8 664.6,103.4 664.7,151.2 664.9,102.9 665.0,94.5 665.2,89.9 665.4,86.9 665.5,84.8 665.7,83.5 665.9,82.8 666.0,82.5 666.2,82.8 666.4,83.5 666.5,84.8 666.7,86.9 666.8,89.8 667.0,94.5 667.2,102.7 667.3,142.0 667.5,103.8 667.7,95.1 667.8,90.3 668.0,87.2 668.2,85.1 668.3,83.8 668.5,83.0 668.6,82.8 668.8,83.0 669.0,83.8 669.1,85.1 669.3,87.2 669.5,90.2 669.6,95.0 669.8,103.6 670.0,152.1 670.1,103.1 670.3,94.7 670.4,90.1 670.6,87.1 670.8,85.0 670.9,83.7 671.1,83.0 671.3,82.7 671.4,83.0 671.6,83.7 671.8,85.0 671.9,87.0 672.1,90.0 672.2,94.7 672.4,102.9 672.6,142.9 672.7,104.0 672.9,95.2 673.1,90.4 673.2,87.4 673.4,85.3 673.6,84.0 673.7,83.2 673.9,83.0 674.0,83.2 674.2,84.0 674.4,85.3 674.5,87.4 674.7,90.4 674.9,95.2 675.0,103.8 675.2,153.0 675.4,103.3 675.5,94.9 675.7,90.3 675.8,87.2 676.0,85.2 676.2,83.9 676.3,83.1 676.5,82.9 676.7,83.1 676.8,83.9 677.0,85.2 677.2,87.2 677.3,90.2 677.5,94.8 677.6,103.1 677.8,143.8 678.0,104.1 678.1,95.4 678.3,90.6 678.5,87.5 678.6,85.5 678.8,84.1 679.0,83.4 679.1,83.1 679.3,83.4 679.4,84.1 679.6,85.5 679.8,87.5 679.9,90.6 680.1,95.3 680.3,103.9 680.4,153.9 680.6,103.5 680.8,95.1 680.9,90.4 681.1,87.4 681.2,85.4 681.4,84.1 681.6,83.3 681.7,83.1 681.9,83.3 682.1,84.1 682.2,85.4 682.4,87.4 682.6,90.4 682.7,95.0 682.9,103.3 683.0,144.7 683.2,104.3 683.4,95.5 683.5,90.8 683.7,87.7 683.9,85.6 684.0,84.3 684.2,83.5 684.4,83.3 684.5,83.5 684.7,84.3 684.8,85.6 685.0,87.7 685.2,90.7 685.3,95.5 685.5,104.1 685.7,154.8 685.8,103.6 686.0,95.3 686.2,90.6 686.3,87.6 686.5,85.5 686.6,84.2 686.8,83.5 687.0,83.2 687.1,83.5 687.3,84.2 687.5,85.5 687.6,87.6 687.8,90.6 688.0,95.2 688.1,103.5 688.3,145.6 688.4,104.4 688.6,95.7 688.8,90.9 688.9,87.8 689.1,85.8 689.3,84.4 689.4,83.7 689.6,83.4 689.8,83.7 689.9,84.4 690.1,85.8 690.2,87.8 690.4,90.9 690.6,95.6 690.7,104.2 690.9,155.7 691.1,103.8 691.2,95.4 691.4,90.8 691.6,87.7 691.7,85.7 691.9,84.4 692.0,83.6 692.2,83.4 692.4,83.6 692.5,84.4 692.7,85.7 692.9,87.7 693.0,90.7 693.2,95.4 693.4,103.6 693.5,146.5 693.7,104.5 693.8,95.8 694.0,91.0 694.2,88.0 694.3,85.9 694.5,84.6 694.7,83.8 694.8,83.6 695.0,83.8 695.2,84.6 695.3,85.9 695.5,88.0 695.6,91.0 695.8,95.7 696.0,104.3 696.1,156.7 696.3,103.9 696.5,95.6 696.6,90.9 696.8,87.9 697.0,85.8 697.1,84.5 697.3,83.8 697.4,83.5 697.6,83.8 697.8,84.5 697.9,85.8 698.1,87.9 698.3,90.9 698.4,95.5 698.6,103.8 698.8,147.5 698.9,104.6 699.1,95.9 699.2,91.2 699.4,88.1 699.6,86.1 699.7,84.7 699.9,84.0 700.1,83.7 700.2,84.0 700.4,84.7 700.6,86.0 700.7,88.1 700.9,91.1 701.0,95.9 701.2,104.5 701.4,157.7 701.5,104.1 701.7,95.7 701.9,91.0 702.0,88.0 702.2,86.0 702.4,84.7 702.5,83.9 702.7,83.7 702.8,83.9 703.0,84.7 703.2,86.0 703.3,88.0 703.5,91.0 703.7,95.7 703.8,104.0 704.0,148.5 704.2,104.7 704.3,96.0 704.5,91.3 704.6,88.2 704.8,86.2 705.0,84.8 705.1,84.1 705.3,83.8 705.5,84.1 705.6,84.8 705.8,86.2 706.0,88.2 706.1,91.3 706.3,96.0 706.4,104.6 706.6,158.7 706.8,104.2 706.9,95.8 707.1,91.2 707.3,88.1 707.4,86.1 707.6,84.8 707.8,84.0 707.9,83.8 708.1,84.0 708.2,84.8 708.4,86.1 708.6,88.1 708.7,91.1 708.9,95.8 709.1,104.1 709.2,149.5 709.4,104.8 709.6,96.2 709.7,91.4 709.9,88.3 710.0,86.3 710.2,85.0 710.4,84.2 710.5,83.9 710.7,84.2 710.9,84.9 711.0,86.3 711.2,88.3 711.4,91.4 711.5,96.1 711.7,104.7 711.8,159.8 712.0,104.4 712.2,95.9 712.3,91.3 712.5,88.3 712.7,86.2 712.8,84.9 713.0,84.2 713.2,83.9 713.3,84.2 713.5,84.9 713.6,86.2 713.8,88.2 714.0,91.3 714.1,95.9 714.3,104.2 714.5,150.6 714.6,104.9 714.8,96.2 715.0,91.5 715.1,88.4 715.3,86.4 715.4,85.1 715.6,84.3 715.8,84.1 715.9,84.3 716.1,85.1 716.3,86.4 716.4,88.4 716.6,91.5 716.8,96.2 716.9,104.8 717.1,160.9 717.2,104.5 717.4,96.1 717.6,91.4 717.7,88.4 717.9,86.3 718.1,85.0 718.2,84.3 718.4,84.0 718.6,84.3 718.7,85.0 718.9,86.3 719.0,88.4 719.2,91.4 719.4,96.0 719.5,104.4 719.7,151.8 719.9,105.0 720.0,96.3 720.2,91.6 720.4,88.5 720.5,86.5 720.7,85.2 720.8,84.4 721.0,84.1 721.2,84.4 721.3,85.1 721.5,86.5 721.7,88.5 721.8,91.6 722.0,96.3 722.2,104.8 722.3,162.0 722.5,104.6 722.6,96.2 722.8,91.5 723.0,88.5 723.1,86.4 723.3,85.1 723.5,84.4 723.6,84.1 723.8,84.4 724.0,85.1 724.1,86.4 724.3,88.5 724.4,91.5 724.6,96.1 724.8,104.5 724.9,153.0 725.1,105.0 725.3,96.4 725.4,91.7 725.6,88.6 725.8,86.6 725.9,85.2 726.1,84.5 726.2,84.2 726.4,84.5 726.6,85.2 726.7,86.6 726.9,88.6 727.1,91.7 727.2,96.4 727.4,104.9 727.6,163.3 727.7,104.7 727.9,96.3 728.0,91.6 728.2,88.6 728.4,86.5 728.5,85.2 728.7,84.4 728.9,84.2 729.0,84.4 729.2,85.2 729.4,86.5 729.5,88.6 729.7,91.6 729.8,96.2 730.0,104.6 730.2,154.3 730.3,105.1 730.5,96.5 730.7,91.8 730.8,88.7 731.0,86.7 731.2,85.3 731.3,84.6 731.5,84.3 731.6,84.6 731.8,85.3 732.0,86.6 732.1,88.7 732.3,91.7 732.5,96.5 732.6,105.0 732.8,164.6 733.0,104.8 733.1,96.3 733.3,91.7 733.4,88.6 733.6,86.6 733.8,85.3 733.9,84.5 734.1,84.3 734.3,84.5 734.4,85.3 734.6,86.6 734.8,88.6 734.9,91.7 735.1,96.3 735.2,104.7 735.4,155.7 735.6,105.1 735.7,96.6 735.9,91.8 736.1,88.8 736.2,86.7 736.4,85.4 736.6,84.6 736.7,84.4 736.9,84.6 737.0,85.4 737.2,86.7 737.4,88.8 737.5,91.8 737.7,96.5 737.9,105.1 738.0,166.1 738.2,104.9 738.4,96.4 738.5,91.7 738.7,88.7 738.8,86.7 739.0,85.4 739.2,84.6 739.3,84.4 739.5,84.6 739.7,85.4 739.8,86.7 740.0,88.7 740.2,91.7 740.3,96.4 740.5,104.8 740.6,157.2 740.8,105.2 741.0,96.6 741.1,91.9 741.3,88.8 741.5,86.8 741.6,85.5 741.8,84.7 742.0,84.5 742.1,84.7 742.3,85.5 742.4,86.8 742.6,88.8 742.8,91.9 742.9,96.6 743.1,105.1 743.3,167.7 743.4,104.9 743.6,96.5 743.8,91.8 743.9,88.8 744.1,86.7 744.3,85.4 744.4,84.7 744.6,84.4 744.7,84.7 744.9,85.4 745.1,86.7 745.2,88.8 745.4,91.8 745.6,96.5 745.7,104.9 745.9,158.9 746.1,105.2 746.2,96.7 746.4,91.9 746.5,88.9 746.7,86.8 746.9,85.5 747.0,84.8 747.2,84.5 747.4,84.8 747.5,85.5 747.7,86.8 747.9,88.9 748.0,91.9 748.2,96.6 748.3,105.2 748.5,169.5 748.7,105.0 748.8,96.6 749.0,91.9 749.2,88.8 749.3,86.8 749.5,85.5 749.7,84.7 749.8,84.5 750.0,84.7 750.1,85.5 750.3,86.8 750.5,88.8 750.6,91.9 750.8,96.5 751.0,105.0 751.1,160.7 751.3,105.3 751.5,96.7 751.6,92.0 751.8,88.9 751.9,86.9 752.1,85.6 752.3,84.8 752.4,84.6 752.6,84.8 752.8,85.6 752.9,86.9 753.1,88.9 753.3,92.0 753.4,96.7 753.6,105.2 753.7,171.5 753.9,105.1 754.1,96.6 754.2,91.9 754.4,88.9 754.6,86.9 754.7,85.5 754.9,84.8 755.1,84.5 755.2,84.8 755.4,85.5 755.5,86.9 755.7,88.9 755.9,91.9 756.0,96.6 756.2,105.0 756.4,162.9 756.5,105.3 756.7,96.7 756.9,92.0 757.0,89.0 757.2,86.9 757.3,85.6 757.5,84.8 757.7,84.6 757.8,84.8 758.0,85.6 758.2,86.9 758.3,89.0 758.5,92.0 758.7,96.7 758.8,105.2 759.0,173.8 759.1,105.1 759.3,96.7 759.5,92.0 759.6,88.9 759.8,86.9 760.0,85.6 760.1,84.8 760.3,84.6 760.5,84.8 760.6,85.6 760.8,86.9 760.9,88.9 761.1,92.0 761.3,96.7 761.4,105.1 761.6,165.5 761.8,105.3 761.9,96.8 762.1,92.0 762.3,89.0 762.4,87.0 762.6,85.6 762.7,84.9 762.9,84.6 763.1,84.9 763.2,85.6 763.4,87.0 763.6,89.0 763.7,92.0 763.9,96.7 764.1,105.3 764.2,176.7 764.4,105.2 764.5,96.7 764.7,92.0 764.9,89.0 765.0,86.9 765.2,85.6 765.4,84.9 765.5,84.6 765.7,84.9 765.9,85.6 766.0,86.9 766.2,89.0 766.3,92.0 766.5,96.7 766.7,105.1 766.8,168.7 767.0,105.3 767.2,96.8 767.3,92.1 767.5,89.0 767.7,87.0 767.8,85.7 768.0,84.9 768.1,84.7 768.3,84.9 768.5,85.7 768.6,87.0 768.8,89.0 769.0,92.1 769.1,96.8 769.3,105.3 769.5,180.4 769.6,105.2 769.8,96.7 769.9,92.0 770.1,89.0 770.3,87.0 770.4,85.6 770.6,84.9 770.8,84.6 770.9,84.9 771.1,85.6 771.3,87.0 771.4,89.0 771.6,92.0 771.7,96.7 771.9,105.2 772.1,173.0 772.2,105.3 772.4,96.8 772.6,92.1 772.7,89.0 772.9,87.0 773.1,85.7 773.2,84.9 773.4,84.7 773.5,84.9 773.7,85.7 773.9,87.0 774.0,89.0 774.2,92.1 774.4,96.8 774.5,105.3 774.7,182.0 774.9,105.2 775.0,96.8 775.2,92.1 775.3,89.0 775.5,87.0 775.7,85.7 775.8,84.9 776.0,84.7 776.2,84.9 776.3,85.7 776.5,87.0 776.7,89.0 776.8,92.1 777.0,96.8 777.1,105.2 777.3,179.5 777.5,105.3 777.6,96.8 777.8,92.1 778.0,89.1 778.1,87.0 778.3,85.7 778.5,84.9 778.6,84.7 778.8,84.9 778.9,85.7 779.1,87.0 779.3,89.0 779.4,92.1 779.6,96.8 779.8,105.3 779.9,182.0 780.1,105.3 780.3,96.8 780.4,92.1 780.6,89.0 780.7,87.0 780.9,85.7 781.1,84.9 781.2,84.7 781.4,84.9 781.6,85.7 781.7,87.0 781.9,89.0 782.1,92.1 782.2,96.8 782.4,105.3 782.5,182.0 782.7,105.3 782.9,96.8 783.0,92.1 783.2,89.1 783.4,87.0 783.5,85.7 783.7,84.9 783.9,84.7 784.0,84.9 784.2,85.7 784.3,87.0 784.5,89.1 784.7,92.1 784.8,96.8 785.0,105.3" fill="none" stroke="#4a90d9" stroke-width="1.5" stroke-linejoin="round"/>
  <text x="209.5" y="214" text-anchor="middle" font-size="11" fill="#6b7280">n / N</text>
  <text x="617.5" y="214" text-anchor="middle" font-size="11" fill="#6b7280">Normalized frequency (× Fₛ)</text>
</svg>
