<svg xmlns="http://www.w3.org/2000/svg" viewBox="0 0 560 210" width="560" height="210" style="font-family:system-ui,-apple-system,sans-serif">
  <rect width="560" height="210" fill="#fafafa" rx="6"/>
  <text x="280" y="18" text-anchor="middle" font-size="12" font-weight="600" fill="#374151">exponential</text>
  <line x1="52" y1="166.0" x2="257" y2="166.0" stroke="#e5e7eb" stroke-width="0.5"/>
  <text x="48" y="169.0" text-anchor="end" font-size="7.5" fill="#6b7280">0</text>
  <line x1="52" y1="97.0" x2="257" y2="97.0" stroke="#e5e7eb" stroke-width="0.5"/>
  <text x="48" y="100.0" text-anchor="end" font-size="7.5" fill="#6b7280">0.5</text>
  <line x1="52" y1="28.0" x2="257" y2="28.0" stroke="#e5e7eb" stroke-width="0.5"/>
  <text x="48" y="31.0" text-anchor="end" font-size="7.5" fill="#6b7280">1</text>
  <line x1="52.0" y1="28" x2="52.0" y2="166" stroke="#e5e7eb" stroke-width="0.5"/>
  <text x="52.0" y="178" text-anchor="middle" font-size="7.5" fill="#6b7280">0</text>
  <line x1="154.5" y1="28" x2="154.5" y2="166" stroke="#e5e7eb" stroke-width="0.5"/>
  <text x="154.5" y="178" text-anchor="middle" font-size="7.5" fill="#6b7280">0.5</text>
  <line x1="257.0" y1="28" x2="257.0" y2="166" stroke="#e5e7eb" stroke-width="0.5"/>
  <text x="257.0" y="178" text-anchor="middle" font-size="7.5" fill="#6b7280">1</text>
  <line x1="52" y1="28" x2="52" y2="166" stroke="#d1d5db" stroke-width="0.75"/>
  <line x1="52" y1="166" x2="257" y2="166" stroke="#d1d5db" stroke-width="0.75"/>
  <path d="M52.0,166.0 52.0,115.2 52.8,114.8 53.6,114.4 54.4,114.0 55.2,113.6 56.0,113.2 56.8,112.8 57.6,112.4 58.4,111.9 59.2,111.5 60.0,111.1 60.8,110.7 61.6,110.2 62.5,109.8 63.3,109.3 64.1,108.9 64.9,108.4 65.7,108.0 66.5,107.5 67.3,107.1 68.1,106.6 68.9,106.1 69.7,105.7 70.5,105.2 71.3,104.7 72.1,104.2 72.9,103.7 73.7,103.3 74.5,102.8 75.3,102.3 76.1,101.8 76.9,101.3 77.7,100.7 78.5,100.2 79.3,99.7 80.1,99.2 80.9,98.7 81.7,98.1 82.5,97.6 83.4,97.1 84.2,96.5 85.0,96.0 85.8,95.4 86.6,94.9 87.4,94.3 88.2,93.7 89.0,93.2 89.8,92.6 90.6,92.0 91.4,91.4 92.2,90.9 93.0,90.3 93.8,89.7 94.6,89.1 95.4,88.5 96.2,87.9 97.0,87.2 97.8,86.6 98.6,86.0 99.4,85.4 100.2,84.7 101.0,84.1 101.8,83.4 102.6,82.8 103.5,82.1 104.3,81.5 105.1,80.8 105.9,80.1 106.7,79.5 107.5,78.8 108.3,78.1 109.1,77.4 109.9,76.7 110.7,76.0 111.5,75.3 112.3,74.6 113.1,73.9 113.9,73.1 114.7,72.4 115.5,71.7 116.3,70.9 117.1,70.2 117.9,69.4 118.7,68.7 119.5,67.9 120.3,67.1 121.1,66.3 121.9,65.6 122.7,64.8 123.5,64.0 124.4,63.2 125.2,62.4 126.0,61.5 126.8,60.7 127.6,59.9 128.4,59.1 129.2,58.2 130.0,57.4 130.8,56.5 131.6,55.6 132.4,54.8 133.2,53.9 134.0,53.0 134.8,52.1 135.6,51.2 136.4,50.3 137.2,49.4 138.0,48.5 138.8,47.6 139.6,46.6 140.4,45.7 141.2,44.8 142.0,43.8 142.8,42.8 143.6,41.9 144.5,40.9 145.3,39.9 146.1,38.9 146.9,37.9 147.7,36.9 148.5,35.9 149.3,34.9 150.1,33.8 150.9,32.8 151.7,31.7 152.5,30.7 153.3,29.6 154.1,28.5 154.9,28.5 155.7,29.6 156.5,30.7 157.3,31.7 158.1,32.8 158.9,33.8 159.7,34.9 160.5,35.9 161.3,36.9 162.1,37.9 162.9,38.9 163.7,39.9 164.5,40.9 165.4,41.9 166.2,42.8 167.0,43.8 167.8,44.8 168.6,45.7 169.4,46.6 170.2,47.6 171.0,48.5 171.8,49.4 172.6,50.3 173.4,51.2 174.2,52.1 175.0,53.0 175.8,53.9 176.6,54.8 177.4,55.6 178.2,56.5 179.0,57.4 179.8,58.2 180.6,59.1 181.4,59.9 182.2,60.7 183.0,61.5 183.8,62.4 184.6,63.2 185.5,64.0 186.3,64.8 187.1,65.6 187.9,66.3 188.7,67.1 189.5,67.9 190.3,68.7 191.1,69.4 191.9,70.2 192.7,70.9 193.5,71.7 194.3,72.4 195.1,73.1 195.9,73.9 196.7,74.6 197.5,75.3 198.3,76.0 199.1,76.7 199.9,77.4 200.7,78.1 201.5,78.8 202.3,79.5 203.1,80.1 203.9,80.8 204.7,81.5 205.5,82.1 206.4,82.8 207.2,83.4 208.0,84.1 208.8,84.7 209.6,85.4 210.4,86.0 211.2,86.6 212.0,87.2 212.8,87.9 213.6,88.5 214.4,89.1 215.2,89.7 216.0,90.3 216.8,90.9 217.6,91.4 218.4,92.0 219.2,92.6 220.0,93.2 220.8,93.7 221.6,94.3 222.4,94.9 223.2,95.4 224.0,96.0 224.8,96.5 225.6,97.1 226.5,97.6 227.3,98.1 228.1,98.7 228.9,99.2 229.7,99.7 230.5,100.2 231.3,100.7 232.1,101.3 232.9,101.8 233.7,102.3 234.5,102.8 235.3,103.3 236.1,103.7 236.9,104.2 237.7,104.7 238.5,105.2 239.3,105.7 240.1,106.1 240.9,106.6 241.7,107.1 242.5,107.5 243.3,108.0 244.1,108.4 244.9,108.9 245.7,109.3 246.5,109.8 247.4,110.2 248.2,110.7 249.0,111.1 249.8,111.5 250.6,111.9 251.4,112.4 252.2,112.8 253.0,113.2 253.8,113.6 254.6,114.0 255.4,114.4 256.2,114.8 257.0,115.2 L257.0,166.0 Z" fill="#4a90d9" fill-opacity="0.06"/>
  <polyline points="52.0,115.2 52.8,114.8 53.6,114.4 54.4,114.0 55.2,113.6 56.0,113.2 56.8,112.8 57.6,112.4 58.4,111.9 59.2,111.5 60.0,111.1 60.8,110.7 61.6,110.2 62.5,109.8 63.3,109.3 64.1,108.9 64.9,108.4 65.7,108.0 66.5,107.5 67.3,107.1 68.1,106.6 68.9,106.1 69.7,105.7 70.5,105.2 71.3,104.7 72.1,104.2 72.9,103.7 73.7,103.3 74.5,102.8 75.3,102.3 76.1,101.8 76.9,101.3 77.7,100.7 78.5,100.2 79.3,99.7 80.1,99.2 80.9,98.7 81.7,98.1 82.5,97.6 83.4,97.1 84.2,96.5 85.0,96.0 85.8,95.4 86.6,94.9 87.4,94.3 88.2,93.7 89.0,93.2 89.8,92.6 90.6,92.0 91.4,91.4 92.2,90.9 93.0,90.3 93.8,89.7 94.6,89.1 95.4,88.5 96.2,87.9 97.0,87.2 97.8,86.6 98.6,86.0 99.4,85.4 100.2,84.7 101.0,84.1 101.8,83.4 102.6,82.8 103.5,82.1 104.3,81.5 105.1,80.8 105.9,80.1 106.7,79.5 107.5,78.8 108.3,78.1 109.1,77.4 109.9,76.7 110.7,76.0 111.5,75.3 112.3,74.6 113.1,73.9 113.9,73.1 114.7,72.4 115.5,71.7 116.3,70.9 117.1,70.2 117.9,69.4 118.7,68.7 119.5,67.9 120.3,67.1 121.1,66.3 121.9,65.6 122.7,64.8 123.5,64.0 124.4,63.2 125.2,62.4 126.0,61.5 126.8,60.7 127.6,59.9 128.4,59.1 129.2,58.2 130.0,57.4 130.8,56.5 131.6,55.6 132.4,54.8 133.2,53.9 134.0,53.0 134.8,52.1 135.6,51.2 136.4,50.3 137.2,49.4 138.0,48.5 138.8,47.6 139.6,46.6 140.4,45.7 141.2,44.8 142.0,43.8 142.8,42.8 143.6,41.9 144.5,40.9 145.3,39.9 146.1,38.9 146.9,37.9 147.7,36.9 148.5,35.9 149.3,34.9 150.1,33.8 150.9,32.8 151.7,31.7 152.5,30.7 153.3,29.6 154.1,28.5 154.9,28.5 155.7,29.6 156.5,30.7 157.3,31.7 158.1,32.8 158.9,33.8 159.7,34.9 160.5,35.9 161.3,36.9 162.1,37.9 162.9,38.9 163.7,39.9 164.5,40.9 165.4,41.9 166.2,42.8 167.0,43.8 167.8,44.8 168.6,45.7 169.4,46.6 170.2,47.6 171.0,48.5 171.8,49.4 172.6,50.3 173.4,51.2 174.2,52.1 175.0,53.0 175.8,53.9 176.6,54.8 177.4,55.6 178.2,56.5 179.0,57.4 179.8,58.2 180.6,59.1 181.4,59.9 182.2,60.7 183.0,61.5 183.8,62.4 184.6,63.2 185.5,64.0 186.3,64.8 187.1,65.6 187.9,66.3 188.7,67.1 189.5,67.9 190.3,68.7 191.1,69.4 191.9,70.2 192.7,70.9 193.5,71.7 194.3,72.4 195.1,73.1 195.9,73.9 196.7,74.6 197.5,75.3 198.3,76.0 199.1,76.7 199.9,77.4 200.7,78.1 201.5,78.8 202.3,79.5 203.1,80.1 203.9,80.8 204.7,81.5 205.5,82.1 206.4,82.8 207.2,83.4 208.0,84.1 208.8,84.7 209.6,85.4 210.4,86.0 211.2,86.6 212.0,87.2 212.8,87.9 213.6,88.5 214.4,89.1 215.2,89.7 216.0,90.3 216.8,90.9 217.6,91.4 218.4,92.0 219.2,92.6 220.0,93.2 220.8,93.7 221.6,94.3 222.4,94.9 223.2,95.4 224.0,96.0 224.8,96.5 225.6,97.1 226.5,97.6 227.3,98.1 228.1,98.7 228.9,99.2 229.7,99.7 230.5,100.2 231.3,100.7 232.1,101.3 232.9,101.8 233.7,102.3 234.5,102.8 235.3,103.3 236.1,103.7 236.9,104.2 237.7,104.7 238.5,105.2 239.3,105.7 240.1,106.1 240.9,106.6 241.7,107.1 242.5,107.5 243.3,108.0 244.1,108.4 244.9,108.9 245.7,109.3 246.5,109.8 247.4,110.2 248.2,110.7 249.0,111.1 249.8,111.5 250.6,111.9 251.4,112.4 252.2,112.8 253.0,113.2 253.8,113.6 254.6,114.0 255.4,114.4 256.2,114.8 257.0,115.2" fill="none" stroke="#4a90d9" stroke-width="1.2" stroke-linejoin="round"/>
  <line x1="322" y1="28.0" x2="527" y2="28.0" stroke="#e5e7eb" stroke-width="0.5"/>
  <text x="318" y="31.0" text-anchor="end" font-size="7.5" fill="#6b7280">0</text>
  <line x1="322" y1="74.0" x2="527" y2="74.0" stroke="#e5e7eb" stroke-width="0.5"/>
  <text x="318" y="77.0" text-anchor="end" font-size="7.5" fill="#6b7280">-40</text>
  <line x1="322" y1="120.0" x2="527" y2="120.0" stroke="#e5e7eb" stroke-width="0.5"/>
  <text x="318" y="123.0" text-anchor="end" font-size="7.5" fill="#6b7280">-80</text>
  <line x1="322" y1="166.0" x2="527" y2="166.0" stroke="#e5e7eb" stroke-width="0.5"/>
  <text x="318" y="169.0" text-anchor="end" font-size="7.5" fill="#6b7280">-120</text>
  <line x1="322.0" y1="28" x2="322.0" y2="166" stroke="#e5e7eb" stroke-width="0.5"/>
  <text x="322.0" y="178" text-anchor="middle" font-size="7.5" fill="#6b7280">0</text>
  <line x1="363.0" y1="28" x2="363.0" y2="166" stroke="#e5e7eb" stroke-width="0.5"/>
  <text x="363.0" y="178" text-anchor="middle" font-size="7.5" fill="#6b7280">0.1</text>
  <line x1="404.0" y1="28" x2="404.0" y2="166" stroke="#e5e7eb" stroke-width="0.5"/>
  <text x="404.0" y="178" text-anchor="middle" font-size="7.5" fill="#6b7280">0.2</text>
  <line x1="445.0" y1="28" x2="445.0" y2="166" stroke="#e5e7eb" stroke-width="0.5"/>
  <text x="445.0" y="178" text-anchor="middle" font-size="7.5" fill="#6b7280">0.3</text>
  <line x1="486.0" y1="28" x2="486.0" y2="166" stroke="#e5e7eb" stroke-width="0.5"/>
  <text x="486.0" y="178" text-anchor="middle" font-size="7.5" fill="#6b7280">0.4</text>
  <line x1="527.0" y1="28" x2="527.0" y2="166" stroke="#e5e7eb" stroke-width="0.5"/>
  <text x="527.0" y="178" text-anchor="middle" font-size="7.5" fill="#6b7280">0.5</text>
  <line x1="322" y1="28" x2="322" y2="166" stroke="#d1d5db" stroke-width="0.75"/>
  <line x1="322" y1="166" x2="527" y2="166" stroke="#d1d5db" stroke-width="0.75"/>
  <polyline points="322.0,28.0 322.1,28.0 322.2,28.2 322.3,28.4 322.4,28.8 322.5,29.2 322.6,29.8 322.7,30.5 322.8,31.3 322.9,32.2 323.0,33.3 323.1,34.5 323.2,35.9 323.3,37.5 323.4,39.4 323.5,41.5 323.6,44.1 323.7,47.2 323.8,51.0 323.9,56.4 324.0,65.4 324.1,82.6 324.2,64.6 324.3,60.0 324.4,58.1 324.5,57.4 324.6,57.8 324.7,59.1 324.8,61.6 324.9,66.2 325.0,77.3 325.1,75.4 325.2,64.9 325.3,60.0 325.4,56.9 325.5,54.7 325.6,53.2 325.7,52.2 325.8,51.5 325.9,51.2 326.0,51.2 326.1,51.5 326.2,52.0 326.3,52.9 326.4,54.1 326.5,55.7 326.6,57.9 326.7,60.9 326.8,65.2 326.9,72.6 327.0,103.0 327.1,72.7 327.2,66.7 327.3,63.6 327.4,61.7 327.5,60.7 327.6,60.3 327.7,60.5 327.8,61.1 327.9,62.4 328.0,64.4 328.1,67.5 328.2,73.0 328.3,87.9 328.4,78.6 328.5,69.9 328.6,65.6 328.7,62.8 328.8,60.9 328.9,59.6 329.0,58.7 329.1,58.3 329.2,58.2 329.3,58.4 329.4,58.9 329.5,59.8 329.6,61.1 329.7,62.9 329.8,65.5 329.9,69.2 330.0,75.3 330.1,93.6 330.2,79.8 330.3,72.2 330.4,68.4 330.5,66.1 330.6,64.7 330.7,63.9 330.8,63.6 330.9,63.8 331.0,64.5 331.1,65.7 331.2,67.5 331.3,70.4 331.4,75.1 331.5,85.6 331.6,86.6 331.7,75.4 331.8,70.4 331.9,67.3 332.0,65.3 332.1,63.9 332.2,63.0 332.3,62.5 332.4,62.3 332.5,62.5 332.6,63.1 332.7,64.0 332.8,65.3 332.9,67.3 333.0,70.1 333.1,74.3 333.2,82.0 333.3,100.2 333.4,79.6 333.5,73.8 333.6,70.5 333.7,68.5 333.8,67.2 333.9,66.5 334.0,66.2 334.1,66.4 334.2,67.1 334.3,68.2 334.4,70.0 334.5,72.8 334.6,77.2 334.7,86.3 334.8,92.4 334.9,79.0 335.0,73.7 335.1,70.5 335.2,68.4 335.3,66.9 335.4,66.0 335.5,65.4 335.6,65.3 335.7,65.5 335.8,66.0 335.9,66.9 336.0,68.4 336.1,70.4 336.2,73.3 336.3,77.9 336.4,87.0 336.5,94.2 336.6,80.6 336.7,75.4 336.8,72.4 336.9,70.4 337.0,69.2 337.1,68.5 337.2,68.3 337.3,68.5 337.4,69.1 337.5,70.3 337.6,72.0 337.7,74.7 337.8,79.0 337.9,87.5 338.0,96.8 338.1,81.7 338.2,76.2 338.3,72.9 338.4,70.7 338.5,69.2 338.6,68.3 338.7,67.7 338.8,67.5 338.9,67.7 339.0,68.3 339.1,69.2 339.2,70.7 339.3,72.8 339.4,75.8 339.5,80.7 339.6,91.1 339.7,93.1 339.8,81.7 339.9,76.8 340.0,74.0 340.1,72.1 340.2,70.9 340.3,70.2 340.4,70.0 340.5,70.2 340.6,70.9 340.7,72.0 340.8,73.7 340.9,76.3 341.0,80.5 341.1,88.6 341.2,100.5 341.3,83.9 341.4,78.2 341.5,74.8 341.6,72.6 341.7,71.1 341.8,70.1 341.9,69.6 342.0,69.4 342.1,69.6 342.2,70.1 342.3,71.1 342.4,72.6 342.5,74.7 342.6,77.8 342.7,82.9 342.8,94.4 342.9,93.0 343.0,82.8 343.1,78.1 343.2,75.3 343.3,73.5 343.4,72.4 343.5,71.7 343.6,71.5 343.7,71.7 343.8,72.3 343.9,73.4 344.0,75.1 344.1,77.7 344.2,81.8 344.3,89.7 344.4,103.6 344.5,85.7 344.6,79.9 344.7,76.5 344.8,74.2 344.9,72.7 345.0,71.7 345.1,71.1 345.2,71.0 345.3,71.1 345.4,71.7 345.5,72.7 345.6,74.2 345.7,76.3 345.8,79.5 345.9,84.8 346.0,97.3 346.1,93.3 346.2,83.8 346.3,79.3 346.4,76.5 346.5,74.8 346.6,73.6 346.7,73.0 346.8,72.8 346.9,73.0 347.0,73.6 347.1,74.7 347.2,76.4 347.3,79.0 347.4,83.0 347.5,90.7 347.6,106.2 347.7,87.2 347.8,81.3 347.9,77.8 348.0,75.6 348.1,74.0 348.2,73.0 348.3,72.5 348.4,72.3 348.5,72.5 348.6,73.0 348.7,74.0 348.8,75.5 348.9,77.7 349.0,81.0 349.1,86.4 349.2,99.8 349.3,93.8 349.4,84.7 349.5,80.3 349.6,77.6 349.7,75.9 349.8,74.7 349.9,74.1 350.0,73.9 350.1,74.1 350.2,74.7 350.3,75.8 350.4,77.5 350.5,80.0 350.6,84.0 350.7,91.7 350.8,108.6 350.9,88.6 351.0,82.5 351.1,79.1 351.2,76.8 351.3,75.2 351.4,74.2 351.5,73.7 351.6,73.5 351.7,73.7 351.8,74.2 351.9,75.2 352.0,76.7 352.1,78.9 352.2,82.2 352.3,87.7 352.4,102.0 352.5,94.3 352.6,85.5 352.7,81.3 352.8,78.6 352.9,76.9 353.0,75.7 353.1,75.1 353.2,74.9 353.3,75.1 353.4,75.7 353.5,76.8 353.6,78.5 353.7,81.0 353.8,85.0 353.9,92.5 354.0,110.7 354.1,89.7 354.2,83.6 354.3,80.1 354.4,77.8 354.5,76.3 354.6,75.3 354.7,74.7 354.8,74.5 354.9,74.7 355.0,75.3 355.1,76.3 355.2,77.8 355.3,80.0 355.4,83.4 355.5,89.0 355.6,104.1 355.7,94.8 355.8,86.3 355.9,82.1 356.0,79.5 356.1,77.8 356.3,76.6 356.4,76.0 356.5,75.8 356.6,76.0 356.7,76.6 356.8,77.7 356.9,79.4 357.0,81.9 357.1,85.9 357.2,93.3 357.3,112.7 357.4,90.8 357.5,84.6 357.6,81.1 357.7,78.8 357.8,77.2 357.9,76.2 358.0,75.7 358.1,75.5 358.2,75.7 358.3,76.2 358.4,77.2 358.5,78.8 358.6,81.0 358.7,84.4 358.8,90.1 358.9,105.9 359.0,95.4 359.1,87.1 359.2,82.9 359.3,80.3 359.4,78.6 359.5,77.5 359.6,76.8 359.7,76.6 359.8,76.8 359.9,77.4 360.0,78.5 360.1,80.2 360.2,82.7 360.3,86.6 360.4,94.0 360.5,114.4 360.6,91.7 360.7,85.5 360.8,82.0 360.9,79.7 361.0,78.1 361.1,77.1 361.2,76.5 361.3,76.3 361.4,76.5 361.5,77.1 361.6,78.1 361.7,79.6 361.8,81.9 361.9,85.3 362.0,91.0 362.1,107.6 362.2,95.9 362.3,87.8 362.4,83.6 362.5,81.0 362.6,79.3 362.7,78.2 362.8,77.6 362.9,77.4 363.0,77.6 363.1,78.2 363.2,79.3 363.3,81.0 363.4,83.5 363.5,87.4 363.6,94.7 363.7,116.1 363.8,92.6 363.9,86.3 364.0,82.8 364.1,80.5 364.2,78.9 364.3,77.9 364.4,77.3 364.5,77.1 364.6,77.3 364.7,77.9 364.8,78.9 364.9,80.4 365.0,82.7 365.1,86.1 365.2,91.9 365.3,109.1 365.4,96.4 365.5,88.4 365.6,84.3 365.7,81.7 365.8,80.0 365.9,78.9 366.0,78.3 366.1,78.1 366.2,78.3 366.3,78.9 366.4,80.0 366.5,81.6 366.6,84.1 366.7,88.0 366.8,95.3 366.9,117.6 367.0,93.4 367.1,87.1 367.2,83.5 367.3,81.2 367.4,79.6 367.5,78.6 367.6,78.0 367.7,77.8 367.8,78.0 367.9,78.6 368.0,79.6 368.1,81.2 368.2,83.4 368.3,86.9 368.4,92.8 368.5,110.6 368.6,96.9 368.7,89.0 368.8,84.9 368.9,82.4 369.0,80.7 369.1,79.6 369.2,78.9 369.3,78.7 369.4,78.9 369.5,79.5 369.6,80.6 369.7,82.3 369.8,84.8 369.9,88.7 370.0,95.9 370.1,119.0 370.2,94.1 370.3,87.8 370.4,84.2 370.5,81.9 370.6,80.3 370.7,79.3 370.8,78.7 370.9,78.5 371.0,78.7 371.1,79.3 371.2,80.3 371.3,81.8 371.4,84.1 371.5,87.6 371.6,93.5 371.7,112.0 371.8,97.3 371.9,89.5 372.0,85.5 372.1,82.9 372.2,81.3 372.3,80.2 372.4,79.5 372.5,79.3 372.6,79.5 372.7,80.2 372.8,81.2 372.9,82.9 373.0,85.4 373.1,89.2 373.2,96.4 373.3,120.3 373.4,94.8 373.5,88.4 373.6,84.8 373.7,82.5 373.8,80.9 373.9,79.9 374.0,79.3 374.1,79.1 374.2,79.3 374.3,79.9 374.4,80.9 374.5,82.5 374.6,84.8 374.7,88.2 374.8,94.2 374.9,113.3 375.0,97.8 375.1,90.1 375.2,86.0 375.3,83.5 375.4,81.8 375.5,80.7 375.6,80.1 375.7,79.9 375.8,80.1 375.9,80.7 376.0,81.8 376.1,83.4 376.2,85.9 376.3,89.8 376.4,96.9 376.5,121.6 376.6,95.4 376.7,89.0 376.8,85.4 376.9,83.1 377.0,81.5 377.1,80.5 377.2,79.9 377.3,79.7 377.4,79.9 377.5,80.5 377.6,81.5 377.7,83.1 377.8,85.4 377.9,88.8 378.0,94.9 378.1,114.5 378.2,98.2 378.3,90.5 378.4,86.6 378.5,84.0 378.6,82.3 378.7,81.2 378.8,80.6 378.9,80.4 379.0,80.6 379.1,81.2 379.2,82.3 379.3,84.0 379.4,86.4 379.5,90.3 379.6,97.4 379.7,122.7 379.8,96.0 379.9,89.6 380.0,86.0 380.1,83.6 380.2,82.0 380.3,81.0 380.4,80.4 380.5,80.2 380.6,80.4 380.7,81.0 380.8,82.0 380.9,83.6 381.0,85.9 381.1,89.4 381.2,95.5 381.3,115.6 381.4,98.6 381.5,91.0 381.6,87.0 381.7,84.5 381.8,82.8 381.9,81.7 382.0,81.1 382.1,80.9 382.2,81.1 382.3,81.7 382.4,82.8 382.5,84.5 382.6,86.9 382.7,90.8 382.8,97.9 382.9,123.9 383.0,96.5 383.1,90.1 383.2,86.5 383.3,84.1 383.4,82.6 383.5,81.5 383.6,80.9 383.7,80.7 383.8,80.9 383.9,81.5 384.0,82.5 384.1,84.1 384.2,86.4 384.3,89.9 384.4,96.0 384.5,116.7 384.6,99.0 384.7,91.4 384.8,87.5 384.9,85.0 385.0,83.3 385.1,82.2 385.2,81.6 385.3,81.4 385.4,81.6 385.5,82.2 385.6,83.3 385.7,84.9 385.8,87.4 385.9,91.2 386.0,98.3 386.1,124.9 386.2,97.0 386.3,90.6 386.4,87.0 386.5,84.6 386.6,83.0 386.7,82.0 386.8,81.4 386.9,81.2 387.0,81.4 387.1,82.0 387.2,83.0 387.3,84.6 387.4,86.9 387.5,90.4 387.6,96.6 387.7,117.8 387.8,99.3 387.9,91.9 388.0,87.9 388.1,85.4 388.2,83.7 388.3,82.6 388.4,82.0 388.5,81.8 388.6,82.0 388.7,82.6 388.8,83.7 388.9,85.4 389.0,87.8 389.1,91.7 389.2,98.7 389.3,126.0 389.4,97.5 389.5,91.1 389.6,87.4 389.7,85.1 389.8,83.5 389.9,82.5 390.0,81.9 390.1,81.7 390.2,81.9 390.3,82.5 390.4,83.5 390.5,85.1 390.6,87.4 390.7,90.9 390.8,97.1 390.9,118.8 391.0,99.7 391.1,92.2 391.2,88.3 391.3,85.8 391.4,84.1 391.5,83.1 391.6,82.5 391.7,82.3 391.8,82.5 391.9,83.1 392.0,84.1 392.1,85.8 392.2,88.2 392.3,92.1 392.4,99.1 392.5,126.9 392.6,97.9 392.7,91.5 392.8,87.9 392.9,85.5 393.0,83.9 393.1,82.9 393.2,82.3 393.3,82.1 393.4,82.3 393.5,82.9 393.6,83.9 393.7,85.5 393.8,87.8 393.9,91.4 394.0,97.5 394.1,119.7 394.2,100.0 394.3,92.6 394.4,88.7 394.5,86.2 394.6,84.5 394.7,83.5 394.8,82.8 394.9,82.6 395.0,82.8 395.1,83.4 395.2,84.5 395.3,86.2 395.4,88.6 395.5,92.4 395.6,99.5 395.7,127.9 395.8,98.4 395.9,91.9 396.0,88.3 396.1,85.9 396.2,84.3 396.3,83.3 396.4,82.7 396.5,82.5 396.6,82.7 396.7,83.3 396.8,84.3 396.9,85.9 397.0,88.2 397.1,91.8 397.2,98.0 397.3,120.7 397.4,100.3 397.5,93.0 397.6,89.1 397.7,86.6 397.8,84.9 397.9,83.8 398.0,83.2 398.1,83.0 398.2,83.2 398.3,83.8 398.4,84.9 398.5,86.5 398.6,89.0 398.7,92.8 398.8,99.8 398.9,128.8 399.0,98.8 399.1,92.3 399.2,88.7 399.3,86.3 399.4,84.7 399.5,83.7 399.6,83.1 399.7,82.9 399.8,83.1 399.9,83.7 400.0,84.7 400.1,86.3 400.2,88.6 400.3,92.2 400.4,98.4 400.5,121.6 400.6,100.6 400.7,93.3 400.8,89.4 400.9,86.9 401.0,85.3 401.1,84.2 401.2,83.6 401.3,83.4 401.4,83.6 401.5,84.2 401.6,85.2 401.7,86.9 401.8,89.3 401.9,93.1 402.0,100.1 402.1,129.7 402.2,99.2 402.3,92.7 402.4,89.0 402.5,86.7 402.6,85.1 402.7,84.0 402.8,83.4 402.9,83.2 403.0,83.4 403.1,84.0 403.2,85.1 403.3,86.6 403.4,89.0 403.5,92.5 403.6,98.8 403.7,122.4 403.8,100.9 403.9,93.6 404.0,89.7 404.1,87.2 404.2,85.6 404.3,84.5 404.4,83.9 404.5,83.7 404.6,83.9 404.7,84.5 404.8,85.6 404.9,87.2 405.0,89.7 405.1,93.5 405.2,100.4 405.3,130.5 405.4,99.5 405.5,93.0 405.6,89.4 405.7,87.0 405.8,85.4 405.9,84.4 406.0,83.8 406.1,83.6 406.2,83.8 406.3,84.4 406.4,85.4 406.5,87.0 406.6,89.3 406.7,92.9 406.8,99.2 406.9,123.3 407.0,101.2 407.1,93.9 407.2,90.0 407.3,87.6 407.4,85.9 407.5,84.8 407.6,84.2 407.7,84.0 407.8,84.2 407.9,84.8 408.0,85.9 408.1,87.5 408.2,90.0 408.3,93.8 408.4,100.7 408.5,131.4 408.6,99.9 408.7,93.3 408.8,89.7 408.9,87.3 409.0,85.7 409.1,84.7 409.2,84.1 409.3,83.9 409.4,84.1 409.5,84.7 409.6,85.7 409.7,87.3 409.8,89.7 409.9,93.2 410.0,99.5 410.1,124.1 410.2,101.4 410.3,94.2 410.4,90.3 410.5,87.9 410.6,86.2 410.7,85.1 410.8,84.5 410.9,84.3 411.0,84.5 411.1,85.1 411.2,86.2 411.3,87.8 411.4,90.3 411.5,94.1 411.6,101.0 411.7,132.2 411.8,100.2 411.9,93.7 412.0,90.0 412.1,87.6 412.2,86.0 412.3,85.0 412.4,84.4 412.5,84.2 412.6,84.4 412.7,85.0 412.8,86.0 412.9,87.6 413.0,90.0 413.1,93.6 413.2,99.9 413.3,124.9 413.4,101.7 413.5,94.5 413.6,90.6 413.7,88.1 413.8,86.5 413.9,85.4 414.0,84.8 414.1,84.6 414.2,84.8 414.3,85.4 414.4,86.5 414.5,88.1 414.6,90.6 414.7,94.4 414.8,101.3 414.9,133.0 415.0,100.5 415.1,94.0 415.2,90.3 415.3,87.9 415.4,86.3 415.5,85.3 415.6,84.7 415.7,84.5 415.8,84.7 415.9,85.3 416.0,86.3 416.1,87.9 416.2,90.3 416.3,93.9 416.4,100.2 416.5,125.7 416.6,101.9 416.7,94.7 416.8,90.9 416.9,88.4 417.0,86.8 417.1,85.7 417.2,85.1 417.3,84.9 417.4,85.1 417.5,85.7 417.6,86.8 417.7,88.4 417.8,90.8 417.9,94.6 418.0,101.6 418.1,133.7 418.2,100.8 418.3,94.3 418.4,90.6 418.5,88.2 418.6,86.6 418.7,85.6 418.8,85.0 418.9,84.8 419.0,85.0 419.1,85.6 419.2,86.6 419.3,88.2 419.4,90.6 419.5,94.2 419.6,100.5 419.7,126.4 419.8,102.1 419.9,95.0 420.0,91.1 420.1,88.7 420.2,87.0 420.3,86.0 420.4,85.4 420.5,85.2 420.6,85.4 420.7,86.0 420.8,87.0 420.9,88.7 421.0,91.1 421.1,94.9 421.2,101.8 421.3,134.5 421.4,101.1 421.5,94.5 421.6,90.9 421.7,88.5 421.8,86.9 421.9,85.8 422.0,85.3 422.1,85.1 422.2,85.3 422.3,85.8 422.4,86.9 422.5,88.5 422.6,90.8 422.7,94.4 422.8,100.8 422.9,127.2 423.0,102.4 423.1,95.2 423.2,91.4 423.3,88.9 423.4,87.3 423.5,86.2 423.6,85.6 423.7,85.4 423.8,85.6 423.9,86.2 424.0,87.3 424.1,88.9 424.2,91.3 424.3,95.1 424.4,102.0 424.6,135.2 424.7,101.3 424.8,94.8 424.9,91.1 425.0,88.7 425.1,87.1 425.2,86.1 425.3,85.5 425.4,85.3 425.5,85.5 425.6,86.1 425.7,87.1 425.8,88.7 425.9,91.1 426.0,94.7 426.1,101.1 426.2,127.9 426.3,102.6 426.4,95.5 426.5,91.6 426.6,89.2 426.7,87.5 426.8,86.4 426.9,85.8 427.0,85.6 427.1,85.8 427.2,86.4 427.3,87.5 427.4,89.1 427.5,91.6 427.6,95.4 427.7,102.3 427.8,136.0 427.9,101.6 428.0,95.0 428.1,91.4 428.2,89.0 428.3,87.4 428.4,86.3 428.5,85.7 428.6,85.6 428.7,85.7 428.8,86.3 428.9,87.4 429.0,89.0 429.1,91.3 429.2,95.0 429.3,101.4 429.4,128.7 429.5,102.8 429.6,95.7 429.7,91.8 429.8,89.4 429.9,87.7 430.0,86.7 430.1,86.1 430.2,85.9 430.3,86.1 430.4,86.7 430.5,87.7 430.6,89.4 430.7,91.8 430.8,95.6 430.9,102.5 431.0,136.7 431.1,101.8 431.2,95.3 431.3,91.6 431.4,89.2 431.5,87.6 431.6,86.6 431.7,86.0 431.8,85.8 431.9,86.0 432.0,86.6 432.1,87.6 432.2,89.2 432.3,91.6 432.4,95.2 432.5,101.6 432.6,129.4 432.7,102.9 432.8,95.9 432.9,92.0 433.0,89.6 433.1,87.9 433.2,86.9 433.3,86.3 433.4,86.1 433.5,86.3 433.6,86.9 433.7,87.9 433.8,89.6 433.9,92.0 434.0,95.8 434.1,102.7 434.2,137.4 434.3,102.1 434.4,95.5 434.5,91.8 434.6,89.4 434.7,87.8 434.8,86.8 434.9,86.2 435.0,86.0 435.1,86.2 435.2,86.8 435.3,87.8 435.4,89.4 435.5,91.8 435.6,95.4 435.7,101.9 435.8,130.1 435.9,103.1 436.0,96.1 436.1,92.2 436.2,89.8 436.3,88.2 436.4,87.1 436.5,86.5 436.6,86.3 436.7,86.5 436.8,87.1 436.9,88.1 437.0,89.8 437.1,92.2 437.2,96.0 437.3,102.9 437.4,138.1 437.5,102.3 437.6,95.7 437.7,92.0 437.8,89.6 437.9,88.0 438.0,87.0 438.1,86.4 438.2,86.2 438.3,86.4 438.4,87.0 438.5,88.0 438.6,89.6 438.7,92.0 438.8,95.6 438.9,102.1 439.0,130.8 439.1,103.3 439.2,96.3 439.3,92.4 439.4,90.0 439.5,88.3 439.6,87.3 439.7,86.7 439.8,86.5 439.9,86.7 440.0,87.3 440.1,88.3 440.2,90.0 440.3,92.4 440.4,96.2 440.5,103.0 440.6,138.8 440.7,102.5 440.8,95.9 440.9,92.2 441.0,89.8 441.1,88.2 441.2,87.2 441.3,86.6 441.4,86.4 441.5,86.6 441.6,87.2 441.7,88.2 441.8,89.8 441.9,92.2 442.0,95.8 442.1,102.3 442.2,131.5 442.3,103.5 442.4,96.4 442.5,92.6 442.6,90.2 442.7,88.5 442.8,87.5 442.9,86.9 443.0,86.7 443.1,86.9 443.2,87.5 443.3,88.5 443.4,90.2 443.5,92.6 443.6,96.4 443.7,103.2 443.8,139.5 443.9,102.7 444.0,96.1 444.1,92.4 444.2,90.0 444.3,88.4 444.4,87.4 444.5,86.8 444.6,86.6 444.7,86.8 444.8,87.4 444.9,88.4 445.0,90.0 445.1,92.4 445.2,96.0 445.3,102.5 445.4,132.2 445.5,103.6 445.6,96.6 445.7,92.8 445.8,90.3 445.9,88.7 446.0,87.6 446.1,87.0 446.2,86.8 446.3,87.0 446.4,87.6 446.5,88.7 446.6,90.3 446.7,92.8 446.8,96.5 446.9,103.4 447.0,140.2 447.1,102.9 447.2,96.3 447.3,92.6 447.4,90.2 447.5,88.6 447.6,87.6 447.7,87.0 447.8,86.8 447.9,87.0 448.0,87.6 448.1,88.6 448.2,90.2 448.3,92.6 448.4,96.2 448.5,102.7 448.6,132.9 448.7,103.7 448.8,96.8 448.9,93.0 449.0,90.5 449.1,88.9 449.2,87.8 449.3,87.2 449.4,87.0 449.5,87.2 449.6,87.8 449.7,88.9 449.8,90.5 449.9,92.9 450.0,96.7 450.1,103.5 450.2,140.9 450.3,103.1 450.4,96.5 450.5,92.8 450.6,90.4 450.7,88.8 450.8,87.7 450.9,87.1 451.0,86.9 451.1,87.1 451.2,87.7 451.3,88.8 451.4,90.4 451.5,92.8 451.6,96.4 451.7,102.9 451.8,133.6 451.9,103.9 452.0,96.9 452.1,93.1 452.2,90.7 452.3,89.0 452.4,88.0 452.5,87.4 452.6,87.2 452.7,87.4 452.8,88.0 452.9,89.0 453.0,90.6 453.1,93.1 453.2,96.8 453.3,103.7 453.4,141.6 453.5,103.2 453.6,96.6 453.7,92.9 453.8,90.5 453.9,88.9 454.0,87.9 454.1,87.3 454.2,87.1 454.3,87.3 454.4,87.9 454.5,88.9 454.6,90.5 454.7,92.9 454.8,96.6 454.9,103.1 455.0,134.3 455.1,104.0 455.2,97.0 455.3,93.3 455.4,90.8 455.5,89.2 455.6,88.1 455.7,87.5 455.8,87.3 455.9,87.5 456.0,88.1 456.1,89.2 456.2,90.8 456.3,93.2 456.4,97.0 456.5,103.8 456.6,142.3 456.7,103.4 456.8,96.8 456.9,93.1 457.0,90.7 457.1,89.1 457.2,88.0 457.3,87.5 457.4,87.3 457.5,87.5 457.6,88.0 457.7,89.1 457.8,90.7 457.9,93.1 458.0,96.7 458.1,103.3 458.2,135.0 458.3,104.1 458.4,97.2 458.5,93.4 458.6,90.9 458.7,89.3 458.8,88.3 458.9,87.7 459.0,87.5 459.1,87.7 459.2,88.3 459.3,89.3 459.4,90.9 459.5,93.4 459.6,97.1 459.7,104.0 459.8,143.0 459.9,103.6 460.0,96.9 460.1,93.2 460.2,90.8 460.3,89.2 460.4,88.2 460.5,87.6 460.6,87.4 460.7,87.6 460.8,88.2 460.9,89.2 461.0,90.8 461.1,93.2 461.2,96.9 461.3,103.4 461.4,135.7 461.5,104.2 461.6,97.3 461.7,93.5 461.8,91.1 461.9,89.4 462.0,88.4 462.1,87.8 462.2,87.6 462.3,87.8 462.4,88.4 462.5,89.4 462.6,91.1 462.7,93.5 462.8,97.3 462.9,104.1 463.0,143.7 463.1,103.7 463.2,97.1 463.3,93.4 463.4,91.0 463.5,89.4 463.6,88.3 463.7,87.7 463.8,87.5 463.9,87.7 464.0,88.3 464.1,89.4 464.2,91.0 464.3,93.4 464.4,97.0 464.5,103.6 464.6,136.4 464.7,104.4 464.8,97.4 464.9,93.6 465.0,91.2 465.1,89.6 465.2,88.5 465.3,87.9 465.4,87.7 465.5,87.9 465.6,88.5 465.7,89.6 465.8,91.2 465.9,93.6 466.0,97.4 466.1,104.2 466.2,144.4 466.3,103.8 466.4,97.2 466.5,93.5 466.6,91.1 466.7,89.5 466.8,88.5 466.9,87.9 467.0,87.7 467.1,87.9 467.2,88.5 467.3,89.5 467.4,91.1 467.5,93.5 467.6,97.2 467.7,103.7 467.8,137.1 467.9,104.5 468.0,97.5 468.1,93.8 468.2,91.3 468.3,89.7 468.4,88.6 468.5,88.0 468.6,87.8 468.7,88.0 468.8,88.6 468.9,89.7 469.0,91.3 469.1,93.7 469.2,97.5 469.3,104.3 469.4,145.2 469.5,104.0 469.6,97.3 469.7,93.6 469.8,91.2 469.9,89.6 470.0,88.6 470.1,88.0 470.2,87.8 470.3,88.0 470.4,88.6 470.5,89.6 470.6,91.2 470.7,93.6 470.8,97.3 470.9,103.9 471.0,137.9 471.1,104.5 471.2,97.6 471.3,93.9 471.4,91.4 471.5,89.8 471.6,88.7 471.7,88.1 471.8,87.9 471.9,88.1 472.0,88.7 472.1,89.8 472.2,91.4 472.3,93.8 472.4,97.6 472.5,104.4 472.6,145.9 472.7,104.1 472.8,97.4 472.9,93.7 473.0,91.3 473.1,89.7 473.2,88.7 473.3,88.1 473.4,87.9 473.5,88.1 473.6,88.7 473.7,89.7 473.8,91.3 473.9,93.7 474.0,97.4 474.1,104.0 474.2,138.6 474.3,104.6 474.4,97.7 474.5,94.0 474.6,91.5 474.7,89.9 474.8,88.8 474.9,88.2 475.0,88.0 475.1,88.2 475.2,88.8 475.3,89.9 475.4,91.5 475.5,93.9 475.6,97.7 475.7,104.5 475.8,146.7 475.9,104.2 476.0,97.6 476.1,93.9 476.2,91.5 476.3,89.8 476.4,88.8 476.5,88.2 476.6,88.0 476.7,88.2 476.8,88.8 476.9,89.8 477.0,91.5 477.1,93.8 477.2,97.5 477.3,104.1 477.4,139.4 477.5,104.7 477.6,97.8 477.7,94.1 477.8,91.6 477.9,90.0 478.0,88.9 478.1,88.3 478.2,88.1 478.3,88.3 478.4,88.9 478.5,90.0 478.6,91.6 478.7,94.0 478.8,97.8 478.9,104.6 479.0,147.5 479.1,104.3 479.2,97.7 479.3,94.0 479.4,91.6 479.5,89.9 479.6,88.9 479.7,88.3 479.8,88.1 479.9,88.3 480.0,88.9 480.1,89.9 480.2,91.6 480.3,93.9 480.4,97.6 480.5,104.2 480.6,140.3 480.7,104.8 480.8,97.9 480.9,94.1 481.0,91.7 481.1,90.1 481.2,89.0 481.3,88.4 481.4,88.2 481.5,88.4 481.6,89.0 481.7,90.1 481.8,91.7 481.9,94.1 482.0,97.9 482.1,104.7 482.2,148.4 482.3,104.4 482.4,97.8 482.5,94.0 482.6,91.7 482.7,90.0 482.8,89.0 482.9,88.4 483.0,88.2 483.1,88.4 483.2,89.0 483.3,90.0 483.4,91.6 483.5,94.0 483.6,97.7 483.7,104.3 483.8,141.1 483.9,104.8 484.0,98.0 484.1,94.2 484.2,91.8 484.3,90.2 484.4,89.1 484.5,88.5 484.6,88.3 484.7,88.5 484.8,89.1 484.9,90.2 485.0,91.8 485.1,94.2 485.2,98.0 485.3,104.7 485.4,149.2 485.5,104.5 485.6,97.8 485.7,94.1 485.8,91.7 485.9,90.1 486.0,89.1 486.1,88.5 486.2,88.3 486.3,88.5 486.4,89.1 486.5,90.1 486.6,91.7 486.7,94.1 486.8,97.8 486.9,104.4 487.0,142.0 487.1,104.9 487.2,98.1 487.3,94.3 487.4,91.9 487.5,90.2 487.6,89.2 487.7,88.6 487.8,88.4 487.9,88.6 488.0,89.2 488.1,90.2 488.2,91.9 488.3,94.3 488.4,98.0 488.5,104.8 488.6,150.2 488.7,104.6 488.8,97.9 488.9,94.2 489.0,91.8 489.1,90.2 489.2,89.2 489.3,88.6 489.4,88.4 489.5,88.6 489.6,89.2 489.7,90.2 489.8,91.8 489.9,94.2 490.0,97.9 490.1,104.5 490.2,143.0 490.3,105.0 490.4,98.1 490.5,94.4 490.6,91.9 490.7,90.3 490.8,89.3 490.9,88.7 491.0,88.5 491.1,88.7 491.2,89.3 491.3,90.3 491.4,91.9 491.5,94.4 491.6,98.1 491.7,104.9 491.8,151.2 491.9,104.7 492.0,98.0 492.1,94.3 492.2,91.9 492.3,90.3 492.4,89.2 492.5,88.6 492.6,88.4 492.7,88.6 492.9,89.2 493.0,90.3 493.1,91.9 493.2,94.3 493.3,98.0 493.4,104.6 493.5,144.0 493.6,105.0 493.7,98.2 493.8,94.4 493.9,92.0 494.0,90.4 494.1,89.3 494.2,88.7 494.3,88.5 494.4,88.7 494.5,89.3 494.6,90.4 494.7,92.0 494.8,94.4 494.9,98.2 495.0,104.9 495.1,152.2 495.2,104.8 495.3,98.1 495.4,94.4 495.5,92.0 495.6,90.3 495.7,89.3 495.8,88.7 495.9,88.5 496.0,88.7 496.1,89.3 496.2,90.3 496.3,92.0 496.4,94.4 496.5,98.0 496.6,104.7 496.7,145.1 496.8,105.0 496.9,98.2 497.0,94.5 497.1,92.1 497.2,90.4 497.3,89.4 497.4,88.8 497.5,88.6 497.6,88.8 497.7,89.4 497.8,90.4 497.9,92.1 498.0,94.5 498.1,98.2 498.2,105.0 498.3,153.4 498.4,104.8 498.5,98.1 498.6,94.4 498.7,92.0 498.8,90.4 498.9,89.4 499.0,88.8 499.1,88.6 499.2,88.8 499.3,89.4 499.4,90.4 499.5,92.0 499.6,94.4 499.7,98.1 499.8,104.8 499.9,146.3 500.0,105.1 500.1,98.3 500.2,94.5 500.3,92.1 500.4,90.5 500.5,89.4 500.6,88.8 500.7,88.6 500.8,88.8 500.9,89.4 501.0,90.5 501.1,92.1 501.2,94.5 501.3,98.3 501.4,105.0 501.5,154.6 501.6,104.9 501.7,98.2 501.8,94.5 501.9,92.1 502.0,90.5 502.1,89.4 502.2,88.8 502.3,88.6 502.4,88.8 502.5,89.4 502.6,90.5 502.7,92.1 502.8,94.5 502.9,98.2 503.0,104.8 503.1,147.6 503.2,105.1 503.3,98.3 503.4,94.6 503.5,92.2 503.6,90.5 503.7,89.5 503.8,88.9 503.9,88.7 504.0,88.9 504.1,89.5 504.2,90.5 504.3,92.1 504.4,94.6 504.5,98.3 504.6,105.1 504.7,156.0 504.8,104.9 504.9,98.2 505.0,94.5 505.1,92.1 505.2,90.5 505.3,89.5 505.4,88.9 505.5,88.7 505.6,88.9 505.7,89.5 505.8,90.5 505.9,92.1 506.0,94.5 506.1,98.2 506.2,104.9 506.3,149.1 506.4,105.1 506.5,98.3 506.6,94.6 506.7,92.2 506.8,90.6 506.9,89.5 507.0,88.9 507.1,88.7 507.2,88.9 507.3,89.5 507.4,90.6 507.5,92.2 507.6,94.6 507.7,98.3 507.8,105.1 507.9,157.7 508.0,105.0 508.1,98.3 508.2,94.6 508.3,92.2 508.4,90.5 508.5,89.5 508.6,88.9 508.7,88.7 508.8,88.9 508.9,89.5 509.0,90.5 509.1,92.2 509.2,94.6 509.3,98.3 509.4,105.0 509.5,150.9 509.6,105.2 509.7,98.4 509.8,94.6 509.9,92.2 510.0,90.6 510.1,89.5 510.2,88.9 510.3,88.8 510.4,88.9 510.5,89.5 510.6,90.6 510.7,92.2 510.8,94.6 510.9,98.4 511.0,105.1 511.1,159.5 511.2,105.0 511.3,98.3 511.4,94.6 511.5,92.2 511.6,90.6 511.7,89.5 511.8,88.9 511.9,88.7 512.0,88.9 512.1,89.5 512.2,90.6 512.3,92.2 512.4,94.6 512.5,98.3 512.6,105.0 512.7,152.9 512.8,105.2 512.9,98.4 513.0,94.7 513.1,92.2 513.2,90.6 513.3,89.6 513.4,89.0 513.5,88.8 513.6,89.0 513.7,89.6 513.8,90.6 513.9,92.2 514.0,94.7 514.1,98.4 514.2,105.1 514.3,161.8 514.4,105.1 514.5,98.3 514.6,94.6 514.7,92.2 514.8,90.6 514.9,89.6 515.0,89.0 515.1,88.8 515.2,89.0 515.3,89.6 515.4,90.6 515.5,92.2 515.6,94.6 515.7,98.3 515.8,105.0 515.9,155.5 516.0,105.2 516.1,98.4 516.2,94.7 516.3,92.3 516.4,90.6 516.5,89.6 516.6,89.0 516.7,88.8 516.8,89.0 516.9,89.6 517.0,90.6 517.1,92.3 517.2,94.7 517.3,98.4 517.4,105.1 517.5,164.7 517.6,105.1 517.7,98.4 517.8,94.7 517.9,92.2 518.0,90.6 518.1,89.6 518.2,89.0 518.3,88.8 518.4,89.0 518.5,89.6 518.6,90.6 518.7,92.2 518.8,94.7 518.9,98.4 519.0,105.1 519.1,158.9 519.2,105.2 519.3,98.4 519.4,94.7 519.5,92.3 519.6,90.7 519.7,89.6 519.8,89.0 519.9,88.8 520.0,89.0 520.1,89.6 520.2,90.7 520.3,92.3 520.4,94.7 520.5,98.4 520.6,105.1 520.7,166.0 520.8,105.1 520.9,98.4 521.0,94.7 521.1,92.3 521.2,90.6 521.3,89.6 521.4,89.0 521.5,88.8 521.6,89.0 521.7,89.6 521.8,90.6 521.9,92.3 522.0,94.7 522.1,98.4 522.2,105.1 522.3,164.0 522.4,105.2 522.5,98.4 522.6,94.7 522.7,92.3 522.8,90.7 522.9,89.6 523.0,89.0 523.1,88.8 523.2,89.0 523.3,89.6 523.4,90.7 523.5,92.3 523.6,94.7 523.7,98.4 523.8,105.1 523.9,166.0 524.0,105.1 524.1,98.4 524.2,94.7 524.3,92.3 524.4,90.7 524.5,89.6 524.6,89.0 524.7,88.8 524.8,89.0 524.9,89.6 525.0,90.7 525.1,92.3 525.2,94.7 525.3,98.4 525.4,105.1 525.5,166.0 525.6,105.2 525.7,98.4 525.8,94.7 525.9,92.3 526.0,90.7 526.1,89.6 526.2,89.0 526.3,88.8 526.4,89.0 526.5,89.6 526.6,90.7 526.7,92.3 526.8,94.7 526.9,98.4 527.0,105.1" fill="none" stroke="#4a90d9" stroke-width="1.2" stroke-linejoin="round"/>
  <text x="154.5" y="190" text-anchor="middle" font-size="8" fill="#6b7280">n / N</text>
  <text x="424.5" y="190" text-anchor="middle" font-size="8" fill="#6b7280">Normalized frequency (× Fₛ)</text>
</svg>
