<svg xmlns="http://www.w3.org/2000/svg" viewBox="0 0 560 190" width="560" height="190" style="font-family:system-ui,-apple-system,sans-serif">
  <rect width="560" height="190" fill="#fafafa" rx="6"/>
  <line x1="52" y1="152.0" x2="257" y2="152.0" stroke="#e5e7eb" stroke-width="0.5"/>
  <text x="48" y="155.0" text-anchor="end" font-size="7.5" fill="#6b7280">0</text>
  <line x1="52" y1="82.0" x2="257" y2="82.0" stroke="#e5e7eb" stroke-width="0.5"/>
  <text x="48" y="85.0" text-anchor="end" font-size="7.5" fill="#6b7280">0.5</text>
  <line x1="52" y1="12.0" x2="257" y2="12.0" stroke="#e5e7eb" stroke-width="0.5"/>
  <text x="48" y="15.0" text-anchor="end" font-size="7.5" fill="#6b7280">1</text>
  <line x1="52.0" y1="12" x2="52.0" y2="152" stroke="#e5e7eb" stroke-width="0.5"/>
  <text x="52.0" y="164" text-anchor="middle" font-size="7.5" fill="#6b7280">0</text>
  <line x1="154.5" y1="12" x2="154.5" y2="152" stroke="#e5e7eb" stroke-width="0.5"/>
  <text x="154.5" y="164" text-anchor="middle" font-size="7.5" fill="#6b7280">0.5</text>
  <line x1="257.0" y1="12" x2="257.0" y2="152" stroke="#e5e7eb" stroke-width="0.5"/>
  <text x="257.0" y="164" text-anchor="middle" font-size="7.5" fill="#6b7280">1</text>
  <line x1="52" y1="12" x2="52" y2="152" stroke="#d1d5db" stroke-width="0.75"/>
  <line x1="52" y1="152" x2="257" y2="152" stroke="#d1d5db" stroke-width="0.75"/>
  <path d="M52.0,152.0 52.0,100.5 52.8,100.1 53.6,99.7 54.4,99.3 55.2,98.9 56.0,98.4 56.8,98.0 57.6,97.6 58.4,97.2 59.2,96.7 60.0,96.3 60.8,95.9 61.6,95.4 62.5,95.0 63.3,94.5 64.1,94.1 64.9,93.6 65.7,93.2 66.5,92.7 67.3,92.2 68.1,91.7 68.9,91.3 69.7,90.8 70.5,90.3 71.3,89.8 72.1,89.3 72.9,88.8 73.7,88.3 74.5,87.8 75.3,87.3 76.1,86.8 76.9,86.3 77.7,85.8 78.5,85.3 79.3,84.8 80.1,84.2 80.9,83.7 81.7,83.2 82.5,82.6 83.4,82.1 84.2,81.5 85.0,81.0 85.8,80.4 86.6,79.8 87.4,79.3 88.2,78.7 89.0,78.1 89.8,77.5 90.6,77.0 91.4,76.4 92.2,75.8 93.0,75.2 93.8,74.6 94.6,74.0 95.4,73.3 96.2,72.7 97.0,72.1 97.8,71.5 98.6,70.8 99.4,70.2 100.2,69.5 101.0,68.9 101.8,68.2 102.6,67.6 103.5,66.9 104.3,66.2 105.1,65.6 105.9,64.9 106.7,64.2 107.5,63.5 108.3,62.8 109.1,62.1 109.9,61.4 110.7,60.7 111.5,60.0 112.3,59.3 113.1,58.5 113.9,57.8 114.7,57.0 115.5,56.3 116.3,55.5 117.1,54.8 117.9,54.0 118.7,53.2 119.5,52.5 120.3,51.7 121.1,50.9 121.9,50.1 122.7,49.3 123.5,48.5 124.4,47.7 125.2,46.9 126.0,46.0 126.8,45.2 127.6,44.3 128.4,43.5 129.2,42.6 130.0,41.8 130.8,40.9 131.6,40.0 132.4,39.2 133.2,38.3 134.0,37.4 134.8,36.5 135.6,35.6 136.4,34.6 137.2,33.7 138.0,32.8 138.8,31.9 139.6,30.9 140.4,30.0 141.2,29.0 142.0,28.0 142.8,27.0 143.6,26.1 144.5,25.1 145.3,24.1 146.1,23.1 146.9,22.1 147.7,21.0 148.5,20.0 149.3,19.0 150.1,17.9 150.9,16.9 151.7,15.8 152.5,14.7 153.3,13.6 154.1,12.5 154.9,12.5 155.7,13.6 156.5,14.7 157.3,15.8 158.1,16.9 158.9,17.9 159.7,19.0 160.5,20.0 161.3,21.0 162.1,22.1 162.9,23.1 163.7,24.1 164.5,25.1 165.4,26.1 166.2,27.0 167.0,28.0 167.8,29.0 168.6,30.0 169.4,30.9 170.2,31.9 171.0,32.8 171.8,33.7 172.6,34.6 173.4,35.6 174.2,36.5 175.0,37.4 175.8,38.3 176.6,39.2 177.4,40.0 178.2,40.9 179.0,41.8 179.8,42.6 180.6,43.5 181.4,44.3 182.2,45.2 183.0,46.0 183.8,46.9 184.6,47.7 185.5,48.5 186.3,49.3 187.1,50.1 187.9,50.9 188.7,51.7 189.5,52.5 190.3,53.2 191.1,54.0 191.9,54.8 192.7,55.5 193.5,56.3 194.3,57.0 195.1,57.8 195.9,58.5 196.7,59.3 197.5,60.0 198.3,60.7 199.1,61.4 199.9,62.1 200.7,62.8 201.5,63.5 202.3,64.2 203.1,64.9 203.9,65.6 204.7,66.2 205.5,66.9 206.4,67.6 207.2,68.2 208.0,68.9 208.8,69.5 209.6,70.2 210.4,70.8 211.2,71.5 212.0,72.1 212.8,72.7 213.6,73.3 214.4,74.0 215.2,74.6 216.0,75.2 216.8,75.8 217.6,76.4 218.4,77.0 219.2,77.5 220.0,78.1 220.8,78.7 221.6,79.3 222.4,79.8 223.2,80.4 224.0,81.0 224.8,81.5 225.6,82.1 226.5,82.6 227.3,83.2 228.1,83.7 228.9,84.2 229.7,84.8 230.5,85.3 231.3,85.8 232.1,86.3 232.9,86.8 233.7,87.3 234.5,87.8 235.3,88.3 236.1,88.8 236.9,89.3 237.7,89.8 238.5,90.3 239.3,90.8 240.1,91.3 240.9,91.7 241.7,92.2 242.5,92.7 243.3,93.2 244.1,93.6 244.9,94.1 245.7,94.5 246.5,95.0 247.4,95.4 248.2,95.9 249.0,96.3 249.8,96.7 250.6,97.2 251.4,97.6 252.2,98.0 253.0,98.4 253.8,98.9 254.6,99.3 255.4,99.7 256.2,100.1 257.0,100.5 L257.0,152.0 Z" fill="#4a90d9" fill-opacity="0.06"/>
  <polyline points="52.0,100.5 52.8,100.1 53.6,99.7 54.4,99.3 55.2,98.9 56.0,98.4 56.8,98.0 57.6,97.6 58.4,97.2 59.2,96.7 60.0,96.3 60.8,95.9 61.6,95.4 62.5,95.0 63.3,94.5 64.1,94.1 64.9,93.6 65.7,93.2 66.5,92.7 67.3,92.2 68.1,91.7 68.9,91.3 69.7,90.8 70.5,90.3 71.3,89.8 72.1,89.3 72.9,88.8 73.7,88.3 74.5,87.8 75.3,87.3 76.1,86.8 76.9,86.3 77.7,85.8 78.5,85.3 79.3,84.8 80.1,84.2 80.9,83.7 81.7,83.2 82.5,82.6 83.4,82.1 84.2,81.5 85.0,81.0 85.8,80.4 86.6,79.8 87.4,79.3 88.2,78.7 89.0,78.1 89.8,77.5 90.6,77.0 91.4,76.4 92.2,75.8 93.0,75.2 93.8,74.6 94.6,74.0 95.4,73.3 96.2,72.7 97.0,72.1 97.8,71.5 98.6,70.8 99.4,70.2 100.2,69.5 101.0,68.9 101.8,68.2 102.6,67.6 103.5,66.9 104.3,66.2 105.1,65.6 105.9,64.9 106.7,64.2 107.5,63.5 108.3,62.8 109.1,62.1 109.9,61.4 110.7,60.7 111.5,60.0 112.3,59.3 113.1,58.5 113.9,57.8 114.7,57.0 115.5,56.3 116.3,55.5 117.1,54.8 117.9,54.0 118.7,53.2 119.5,52.5 120.3,51.7 121.1,50.9 121.9,50.1 122.7,49.3 123.5,48.5 124.4,47.7 125.2,46.9 126.0,46.0 126.8,45.2 127.6,44.3 128.4,43.5 129.2,42.6 130.0,41.8 130.8,40.9 131.6,40.0 132.4,39.2 133.2,38.3 134.0,37.4 134.8,36.5 135.6,35.6 136.4,34.6 137.2,33.7 138.0,32.8 138.8,31.9 139.6,30.9 140.4,30.0 141.2,29.0 142.0,28.0 142.8,27.0 143.6,26.1 144.5,25.1 145.3,24.1 146.1,23.1 146.9,22.1 147.7,21.0 148.5,20.0 149.3,19.0 150.1,17.9 150.9,16.9 151.7,15.8 152.5,14.7 153.3,13.6 154.1,12.5 154.9,12.5 155.7,13.6 156.5,14.7 157.3,15.8 158.1,16.9 158.9,17.9 159.7,19.0 160.5,20.0 161.3,21.0 162.1,22.1 162.9,23.1 163.7,24.1 164.5,25.1 165.4,26.1 166.2,27.0 167.0,28.0 167.8,29.0 168.6,30.0 169.4,30.9 170.2,31.9 171.0,32.8 171.8,33.7 172.6,34.6 173.4,35.6 174.2,36.5 175.0,37.4 175.8,38.3 176.6,39.2 177.4,40.0 178.2,40.9 179.0,41.8 179.8,42.6 180.6,43.5 181.4,44.3 182.2,45.2 183.0,46.0 183.8,46.9 184.6,47.7 185.5,48.5 186.3,49.3 187.1,50.1 187.9,50.9 188.7,51.7 189.5,52.5 190.3,53.2 191.1,54.0 191.9,54.8 192.7,55.5 193.5,56.3 194.3,57.0 195.1,57.8 195.9,58.5 196.7,59.3 197.5,60.0 198.3,60.7 199.1,61.4 199.9,62.1 200.7,62.8 201.5,63.5 202.3,64.2 203.1,64.9 203.9,65.6 204.7,66.2 205.5,66.9 206.4,67.6 207.2,68.2 208.0,68.9 208.8,69.5 209.6,70.2 210.4,70.8 211.2,71.5 212.0,72.1 212.8,72.7 213.6,73.3 214.4,74.0 215.2,74.6 216.0,75.2 216.8,75.8 217.6,76.4 218.4,77.0 219.2,77.5 220.0,78.1 220.8,78.7 221.6,79.3 222.4,79.8 223.2,80.4 224.0,81.0 224.8,81.5 225.6,82.1 226.5,82.6 227.3,83.2 228.1,83.7 228.9,84.2 229.7,84.8 230.5,85.3 231.3,85.8 232.1,86.3 232.9,86.8 233.7,87.3 234.5,87.8 235.3,88.3 236.1,88.8 236.9,89.3 237.7,89.8 238.5,90.3 239.3,90.8 240.1,91.3 240.9,91.7 241.7,92.2 242.5,92.7 243.3,93.2 244.1,93.6 244.9,94.1 245.7,94.5 246.5,95.0 247.4,95.4 248.2,95.9 249.0,96.3 249.8,96.7 250.6,97.2 251.4,97.6 252.2,98.0 253.0,98.4 253.8,98.9 254.6,99.3 255.4,99.7 256.2,100.1 257.0,100.5" fill="none" stroke="#4a90d9" stroke-width="1.2" stroke-linejoin="round"/>
  <line x1="322" y1="12.0" x2="527" y2="12.0" stroke="#e5e7eb" stroke-width="0.5"/>
  <text x="318" y="15.0" text-anchor="end" font-size="7.5" fill="#6b7280">0</text>
  <line x1="322" y1="58.7" x2="527" y2="58.7" stroke="#e5e7eb" stroke-width="0.5"/>
  <text x="318" y="61.7" text-anchor="end" font-size="7.5" fill="#6b7280">-40</text>
  <line x1="322" y1="105.3" x2="527" y2="105.3" stroke="#e5e7eb" stroke-width="0.5"/>
  <text x="318" y="108.3" text-anchor="end" font-size="7.5" fill="#6b7280">-80</text>
  <line x1="322" y1="152.0" x2="527" y2="152.0" stroke="#e5e7eb" stroke-width="0.5"/>
  <text x="318" y="155.0" text-anchor="end" font-size="7.5" fill="#6b7280">-120</text>
  <line x1="322.0" y1="12" x2="322.0" y2="152" stroke="#e5e7eb" stroke-width="0.5"/>
  <text x="322.0" y="164" text-anchor="middle" font-size="7.5" fill="#6b7280">0</text>
  <line x1="363.0" y1="12" x2="363.0" y2="152" stroke="#e5e7eb" stroke-width="0.5"/>
  <text x="363.0" y="164" text-anchor="middle" font-size="7.5" fill="#6b7280">0.1</text>
  <line x1="404.0" y1="12" x2="404.0" y2="152" stroke="#e5e7eb" stroke-width="0.5"/>
  <text x="404.0" y="164" text-anchor="middle" font-size="7.5" fill="#6b7280">0.2</text>
  <line x1="445.0" y1="12" x2="445.0" y2="152" stroke="#e5e7eb" stroke-width="0.5"/>
  <text x="445.0" y="164" text-anchor="middle" font-size="7.5" fill="#6b7280">0.3</text>
  <line x1="486.0" y1="12" x2="486.0" y2="152" stroke="#e5e7eb" stroke-width="0.5"/>
  <text x="486.0" y="164" text-anchor="middle" font-size="7.5" fill="#6b7280">0.4</text>
  <line x1="527.0" y1="12" x2="527.0" y2="152" stroke="#e5e7eb" stroke-width="0.5"/>
  <text x="527.0" y="164" text-anchor="middle" font-size="7.5" fill="#6b7280">0.5</text>
  <line x1="322" y1="12" x2="322" y2="152" stroke="#d1d5db" stroke-width="0.75"/>
  <line x1="322" y1="152" x2="527" y2="152" stroke="#d1d5db" stroke-width="0.75"/>
  <polyline points="322.0,12.0 322.1,12.0 322.2,12.2 322.3,12.4 322.4,12.8 322.5,13.3 322.6,13.8 322.7,14.5 322.8,15.3 322.9,16.3 323.0,17.4 323.1,18.6 323.2,20.0 323.3,21.7 323.4,23.5 323.5,25.7 323.6,28.3 323.7,31.4 323.8,35.4 323.9,40.8 324.0,49.9 324.1,67.4 324.2,49.1 324.3,44.5 324.4,42.5 324.5,41.9 324.6,42.2 324.7,43.6 324.8,46.1 324.9,50.7 325.0,62.0 325.1,60.1 325.2,49.4 325.3,44.4 325.4,41.3 325.5,39.1 325.6,37.6 325.7,36.5 325.8,35.9 325.9,35.6 326.0,35.5 326.1,35.8 326.2,36.4 326.3,37.2 326.4,38.5 326.5,40.1 326.6,42.3 326.7,45.3 326.8,49.7 326.9,57.3 327.0,88.1 327.1,57.3 327.2,51.2 327.3,48.1 327.4,46.2 327.5,45.2 327.6,44.8 327.7,44.9 327.8,45.6 327.9,46.9 328.0,48.9 328.1,52.1 328.2,57.6 328.3,72.8 328.4,63.3 328.5,54.5 328.6,50.1 328.7,47.3 328.8,45.4 328.9,44.0 329.0,43.2 329.1,42.7 329.2,42.6 329.3,42.8 329.4,43.4 329.5,44.3 329.6,45.6 329.7,47.4 329.8,50.0 329.9,53.8 330.0,60.0 330.1,78.5 330.2,64.6 330.3,56.9 330.4,53.0 330.5,50.7 330.6,49.2 330.7,48.4 330.8,48.2 330.9,48.3 331.0,49.0 331.1,50.2 331.2,52.1 331.3,55.0 331.4,59.8 331.5,70.4 331.6,71.5 331.7,60.0 331.8,55.0 331.9,51.9 332.0,49.8 332.1,48.4 332.2,47.5 332.3,47.0 332.4,46.8 332.5,47.0 332.6,47.6 332.7,48.5 332.8,49.9 332.9,51.9 333.0,54.7 333.1,58.9 333.2,66.8 333.3,85.3 333.4,64.4 333.5,58.4 333.6,55.1 333.7,53.1 333.8,51.8 333.9,51.0 334.0,50.8 334.1,51.0 334.2,51.6 334.3,52.8 334.4,54.6 334.5,57.4 334.6,61.9 334.7,71.2 334.8,77.3 334.9,63.7 335.0,58.4 335.1,55.1 335.2,52.9 335.3,51.5 335.4,50.5 335.5,50.0 335.6,49.8 335.7,50.0 335.8,50.6 335.9,51.5 336.0,52.9 336.1,55.0 336.2,58.0 336.3,62.6 336.4,71.9 336.5,79.2 336.6,65.3 336.7,60.1 336.8,57.0 336.9,55.0 337.0,53.8 337.1,53.1 337.2,52.9 337.3,53.1 337.4,53.7 337.5,54.9 337.6,56.7 337.7,59.4 337.8,63.7 337.9,72.3 338.0,81.8 338.1,66.5 338.2,60.9 338.3,57.5 338.4,55.3 338.5,53.8 338.6,52.8 338.7,52.3 338.8,52.1 338.9,52.3 339.0,52.9 339.1,53.8 339.2,55.3 339.3,57.4 339.4,60.5 339.5,65.4 339.6,76.0 339.7,78.0 339.8,66.5 339.9,61.5 340.0,58.6 340.1,56.7 340.2,55.5 340.3,54.8 340.4,54.6 340.5,54.8 340.6,55.5 340.7,56.6 340.8,58.4 340.9,61.0 341.0,65.3 341.1,73.5 341.2,85.5 341.3,68.7 341.4,62.9 341.5,59.5 341.6,57.3 341.7,55.7 341.8,54.7 341.9,54.2 342.0,54.0 342.1,54.2 342.2,54.7 342.3,55.7 342.4,57.2 342.5,59.4 342.6,62.6 342.7,67.7 342.8,79.4 342.9,77.9 343.0,67.5 343.1,62.9 343.2,60.0 343.3,58.2 343.4,57.0 343.5,56.3 343.6,56.1 343.7,56.3 343.8,57.0 343.9,58.1 344.0,59.8 344.1,62.5 344.2,66.6 344.3,74.6 344.4,88.7 344.5,70.6 344.6,64.6 344.7,61.2 344.8,58.9 344.9,57.3 345.0,56.3 345.1,55.8 345.2,55.6 345.3,55.8 345.4,56.3 345.5,57.3 345.6,58.8 345.7,61.0 345.8,64.3 345.9,69.6 346.0,82.3 346.1,78.3 346.2,68.6 346.3,64.0 346.4,61.3 346.5,59.4 346.6,58.3 346.7,57.6 346.8,57.4 346.9,57.6 347.0,58.2 347.1,59.4 347.2,61.1 347.3,63.7 347.4,67.8 347.5,75.6 347.6,91.4 347.7,72.1 347.8,66.1 347.9,62.6 348.0,60.3 348.1,58.7 348.2,57.7 348.3,57.1 348.4,56.9 348.5,57.1 348.6,57.7 348.7,58.7 348.8,60.2 348.9,62.4 349.0,65.7 349.1,71.2 349.2,84.8 349.3,78.7 349.4,69.5 349.5,65.1 349.6,62.3 349.7,60.6 349.8,59.4 349.9,58.8 350.0,58.5 350.1,58.8 350.2,59.4 350.3,60.5 350.4,62.2 350.5,64.8 350.6,68.9 350.7,76.6 350.8,93.8 350.9,73.4 351.0,67.3 351.1,63.8 351.2,61.5 351.3,59.9 351.4,58.9 351.5,58.3 351.6,58.1 351.7,58.3 351.8,58.9 351.9,59.9 352.0,61.4 352.1,63.7 352.2,67.0 352.3,72.6 352.4,87.1 352.5,79.3 352.6,70.4 352.7,66.0 352.8,63.3 352.9,61.6 353.0,60.4 353.1,59.8 353.2,59.6 353.3,59.8 353.4,60.4 353.5,61.5 353.6,63.2 353.7,65.8 353.8,69.8 353.9,77.4 354.0,95.9 354.1,74.6 354.2,68.4 354.3,64.9 354.4,62.6 354.5,61.0 354.6,60.0 354.7,59.4 354.8,59.2 354.9,59.4 355.0,60.0 355.1,61.0 355.2,62.5 355.3,64.8 355.4,68.2 355.5,73.9 355.6,89.2 355.7,79.8 355.8,71.2 355.9,66.9 356.0,64.2 356.1,62.5 356.3,61.3 356.4,60.7 356.5,60.5 356.6,60.7 356.7,61.3 356.8,62.4 356.9,64.1 357.0,66.7 357.1,70.7 357.2,78.2 357.3,97.9 357.4,75.7 357.5,69.4 357.6,65.9 357.7,63.5 357.8,62.0 357.9,60.9 358.0,60.3 358.1,60.2 358.2,60.3 358.3,60.9 358.4,61.9 358.5,63.5 358.6,65.8 358.7,69.2 358.8,75.0 358.9,91.0 359.0,80.3 359.1,71.9 359.2,67.7 359.3,65.0 359.4,63.3 359.5,62.2 359.6,61.5 359.7,61.3 359.8,61.5 359.9,62.2 360.0,63.3 360.1,65.0 360.2,67.5 360.3,71.5 360.4,79.0 360.5,99.7 360.6,76.6 360.7,70.4 360.8,66.8 360.9,64.4 361.0,62.8 361.1,61.8 361.2,61.2 361.3,61.0 361.4,61.2 361.5,61.8 361.6,62.8 361.7,64.4 361.8,66.7 361.9,70.1 362.0,76.0 362.1,92.7 362.2,80.9 362.3,72.6 362.4,68.4 362.5,65.8 362.6,64.1 362.7,62.9 362.8,62.3 362.9,62.1 363.0,62.3 363.1,62.9 363.2,64.0 363.3,65.7 363.4,68.3 363.5,72.2 363.6,79.6 363.7,101.3 363.8,77.5 363.9,71.2 364.0,67.6 364.1,65.2 364.2,63.6 364.3,62.6 364.4,62.0 364.5,61.8 364.6,62.0 364.7,62.6 364.8,63.6 364.9,65.2 365.0,67.5 365.1,71.0 365.2,76.9 365.3,94.3 365.4,81.4 365.5,73.3 365.6,69.1 365.7,66.5 365.8,64.8 365.9,63.7 366.0,63.0 366.1,62.8 366.2,63.0 366.3,63.6 366.4,64.7 366.5,66.4 366.6,69.0 366.7,72.9 366.8,80.3 366.9,102.9 367.0,78.3 367.1,71.9 367.2,68.3 367.3,66.0 367.4,64.4 367.5,63.3 367.6,62.7 367.7,62.6 367.8,62.7 367.9,63.3 368.0,64.4 368.1,65.9 368.2,68.2 368.3,71.7 368.4,77.7 368.5,95.8 368.6,81.9 368.7,73.9 368.8,69.7 368.9,67.1 369.0,65.4 369.1,64.3 369.2,63.7 369.3,63.5 369.4,63.7 369.5,64.3 369.6,65.4 369.7,67.1 369.8,69.6 369.9,73.5 370.0,80.9 370.1,104.3 370.2,79.0 370.3,72.6 370.4,69.0 370.5,66.7 370.6,65.1 370.7,64.0 370.8,63.4 370.9,63.2 371.0,63.4 371.1,64.0 371.2,65.0 371.3,66.6 371.4,68.9 371.5,72.4 371.6,78.5 371.7,97.2 371.8,82.3 371.9,74.4 372.0,70.3 372.1,67.7 372.2,66.0 372.3,64.9 372.4,64.3 372.5,64.1 372.6,64.3 372.7,64.9 372.8,66.0 372.9,67.7 373.0,70.2 373.1,74.1 373.2,81.4 373.3,105.6 373.4,79.7 373.5,73.3 373.6,69.7 373.7,67.3 373.8,65.7 373.9,64.6 374.0,64.1 374.1,63.9 374.2,64.1 374.3,64.6 374.4,65.7 374.5,67.3 374.6,69.6 374.7,73.1 374.8,79.2 374.9,98.5 375.0,82.8 375.1,75.0 375.2,70.9 375.3,68.3 375.4,66.6 375.5,65.5 375.6,64.9 375.7,64.7 375.8,64.9 375.9,65.5 376.0,66.6 376.1,68.3 376.2,70.8 376.3,74.7 376.4,81.9 376.5,106.9 376.6,80.4 376.7,73.9 376.8,70.3 376.9,67.9 377.0,66.3 377.1,65.2 377.2,64.6 377.3,64.4 377.4,64.6 377.5,65.2 377.6,66.3 377.7,67.9 377.8,70.2 377.9,73.7 378.0,79.8 378.1,99.7 378.2,83.2 378.3,75.5 378.4,71.4 378.5,68.8 378.6,67.1 378.7,66.0 378.8,65.4 378.9,65.2 379.0,65.4 379.1,66.0 379.2,67.1 379.3,68.8 379.4,71.3 379.5,75.2 379.6,82.4 379.7,108.1 379.8,80.9 379.9,74.5 380.0,70.8 380.1,68.4 380.2,66.8 380.3,65.8 380.4,65.2 380.5,65.0 380.6,65.2 380.7,65.8 380.8,66.8 380.9,68.4 381.0,70.7 381.1,74.3 381.2,80.5 381.3,100.9 381.4,83.6 381.5,75.9 381.6,71.9 381.7,69.3 381.8,67.6 381.9,66.5 382.0,65.9 382.1,65.7 382.2,65.9 382.3,66.5 382.4,67.6 382.5,69.3 382.6,71.8 382.7,75.7 382.8,82.9 382.9,109.2 383.0,81.5 383.1,75.0 383.2,71.3 383.3,69.0 383.4,67.3 383.5,66.3 383.6,65.7 383.7,65.5 383.8,65.7 383.9,66.3 384.0,67.3 384.1,68.9 384.2,71.3 384.3,74.8 384.4,81.0 384.5,102.0 384.6,84.0 384.7,76.4 384.8,72.3 384.9,69.8 385.0,68.1 385.1,67.0 385.2,66.4 385.3,66.2 385.4,66.4 385.5,67.0 385.6,68.1 385.7,69.8 385.8,72.3 385.9,76.1 386.0,83.3 386.1,110.3 386.2,82.0 386.3,75.5 386.4,71.8 386.5,69.4 386.6,67.8 386.7,66.8 386.8,66.2 386.9,66.0 387.0,66.2 387.1,66.8 387.2,67.8 387.3,69.4 387.4,71.8 387.5,75.3 387.6,81.6 387.7,103.1 387.8,84.4 387.9,76.8 388.0,72.8 388.1,70.2 388.2,68.5 388.3,67.4 388.4,66.8 388.5,66.6 388.6,66.8 388.7,67.4 388.8,68.5 388.9,70.2 389.0,72.7 389.1,76.6 389.2,83.7 389.3,111.4 389.4,82.5 389.5,76.0 389.6,72.3 389.7,69.9 389.8,68.3 389.9,67.2 390.0,66.6 390.1,66.5 390.2,66.6 390.3,67.2 390.4,68.3 390.5,69.9 390.6,72.2 390.7,75.8 390.8,82.1 390.9,104.1 391.0,84.7 391.1,77.2 391.2,73.2 391.3,70.6 391.4,69.0 391.5,67.9 391.6,67.2 391.7,67.0 391.8,67.2 391.9,67.9 392.0,68.9 392.1,70.6 392.2,73.1 392.3,77.0 392.4,84.1 392.5,112.4 392.6,83.0 392.7,76.4 392.8,72.7 392.9,70.3 393.0,68.7 393.1,67.7 393.2,67.1 393.3,66.9 393.4,67.1 393.5,67.7 393.6,68.7 393.7,70.3 393.8,72.7 393.9,76.3 394.0,82.6 394.1,105.1 394.2,85.0 394.3,77.6 394.4,73.6 394.5,71.0 394.6,69.4 394.7,68.3 394.8,67.6 394.9,67.4 395.0,67.6 395.1,68.3 395.2,69.3 395.3,71.0 395.4,73.5 395.5,77.4 395.6,84.5 395.7,113.3 395.8,83.4 395.9,76.8 396.0,73.1 396.1,70.7 396.2,69.1 396.3,68.1 396.4,67.5 396.5,67.3 396.6,67.5 396.7,68.1 396.8,69.1 396.9,70.7 397.0,73.1 397.1,76.7 397.2,83.0 397.3,106.0 397.4,85.4 397.5,77.9 397.6,73.9 397.7,71.4 397.8,69.7 397.9,68.6 398.0,68.0 398.1,67.8 398.2,68.0 398.3,68.6 398.4,69.7 398.5,71.4 398.6,73.9 398.7,77.7 398.8,84.8 398.9,114.3 399.0,83.8 399.1,77.2 399.2,73.5 399.3,71.1 399.4,69.5 399.5,68.5 399.6,67.9 399.7,67.7 399.8,67.9 399.9,68.5 400.0,69.5 400.1,71.1 400.2,73.5 400.3,77.1 400.4,83.4 400.5,106.9 400.6,85.7 400.7,78.3 400.8,74.3 400.9,71.8 401.0,70.1 401.1,69.0 401.2,68.4 401.3,68.2 401.4,68.4 401.5,69.0 401.6,70.1 401.7,71.7 401.8,74.2 401.9,78.1 402.0,85.2 402.1,115.2 402.2,84.2 402.3,77.6 402.4,73.9 402.5,71.5 402.6,69.9 402.7,68.8 402.8,68.2 402.9,68.0 403.0,68.2 403.1,68.8 403.2,69.9 403.3,71.5 403.4,73.9 403.5,77.5 403.6,83.8 403.7,107.8 403.8,86.0 403.9,78.6 404.0,74.6 404.1,72.1 404.2,70.4 404.3,69.3 404.4,68.7 404.5,68.5 404.6,68.7 404.7,69.3 404.8,70.4 404.9,72.1 405.0,74.6 405.1,78.4 405.2,85.5 405.3,116.0 405.4,84.6 405.5,78.0 405.6,74.3 405.7,71.9 405.8,70.2 405.9,69.2 406.0,68.6 406.1,68.4 406.2,68.6 406.3,69.2 406.4,70.2 406.5,71.8 406.6,74.2 406.7,77.8 406.8,84.2 406.9,108.7 407.0,86.2 407.1,78.9 407.2,74.9 407.3,72.4 407.4,70.7 407.5,69.7 407.6,69.0 407.7,68.8 407.8,69.0 407.9,69.7 408.0,70.7 408.1,72.4 408.2,74.9 408.3,78.7 408.4,85.8 408.5,116.9 408.6,84.9 408.7,78.3 408.8,74.6 408.9,72.2 409.0,70.6 409.1,69.5 409.2,68.9 409.3,68.7 409.4,68.9 409.5,69.5 409.6,70.6 409.7,72.2 409.8,74.5 409.9,78.2 410.0,84.6 410.1,109.5 410.2,86.5 410.3,79.2 410.4,75.2 410.5,72.7 410.6,71.1 410.7,70.0 410.8,69.3 410.9,69.1 411.0,69.3 411.1,70.0 411.2,71.0 411.3,72.7 411.4,75.2 411.5,79.0 411.6,86.1 411.7,117.7 411.8,85.2 411.9,78.6 412.0,74.9 412.1,72.5 412.2,70.9 412.3,69.8 412.4,69.2 412.5,69.0 412.6,69.2 412.7,69.8 412.8,70.9 412.9,72.5 413.0,74.9 413.1,78.5 413.2,84.9 413.3,110.3 413.4,86.7 413.5,79.5 413.6,75.5 413.7,73.0 413.8,71.3 413.9,70.3 414.0,69.6 414.1,69.4 414.2,69.6 414.3,70.3 414.4,71.3 414.5,73.0 414.6,75.5 414.7,79.3 414.8,86.4 414.9,118.5 415.0,85.6 415.1,78.9 415.2,75.2 415.3,72.8 415.4,71.2 415.5,70.1 415.6,69.5 415.7,69.3 415.8,69.5 415.9,70.1 416.0,71.2 416.1,72.8 416.2,75.2 416.3,78.8 416.4,85.3 416.5,111.1 416.6,87.0 416.7,79.7 416.8,75.8 416.9,73.3 417.0,71.6 417.1,70.5 417.2,69.9 417.3,69.7 417.4,69.9 417.5,70.5 417.6,71.6 417.7,73.3 417.8,75.7 417.9,79.6 418.0,86.6 418.1,119.3 418.2,85.9 418.3,79.2 418.4,75.5 418.5,73.1 418.6,71.5 418.7,70.4 418.8,69.8 418.9,69.6 419.0,69.8 419.1,70.4 419.2,71.5 419.3,73.1 419.4,75.5 419.5,79.1 419.6,85.6 419.7,111.9 419.8,87.2 419.9,80.0 420.0,76.1 420.1,73.6 420.2,71.9 420.3,70.8 420.4,70.2 420.5,70.0 420.6,70.2 420.7,70.8 420.8,71.9 420.9,73.5 421.0,76.0 421.1,79.9 421.2,86.9 421.3,120.0 421.4,86.1 421.5,79.5 421.6,75.8 421.7,73.4 421.8,71.7 421.9,70.7 422.0,70.1 422.1,69.9 422.2,70.1 422.3,70.7 422.4,71.7 422.5,73.3 422.6,75.7 422.7,79.4 422.8,85.9 422.9,112.6 423.0,87.4 423.1,80.2 423.2,76.3 423.3,73.8 423.4,72.1 423.5,71.0 423.6,70.4 423.7,70.2 423.8,70.4 423.9,71.0 424.0,72.1 424.1,73.8 424.2,76.3 424.3,80.1 424.4,87.1 424.6,120.8 424.7,86.4 424.8,79.8 424.9,76.0 425.0,73.6 425.1,72.0 425.2,70.9 425.3,70.3 425.4,70.1 425.5,70.3 425.6,70.9 425.7,72.0 425.8,73.6 425.9,76.0 426.0,79.7 426.1,86.2 426.2,113.4 426.3,87.6 426.4,80.4 426.5,76.5 426.6,74.0 426.7,72.4 426.8,71.3 426.9,70.7 427.0,70.5 427.1,70.7 427.2,71.3 427.3,72.4 427.4,74.0 427.5,76.5 427.6,80.3 427.7,87.3 427.8,121.5 427.9,86.7 428.0,80.0 428.1,76.3 428.2,73.9 428.3,72.2 428.4,71.2 428.5,70.6 428.6,70.4 428.7,70.6 428.8,71.2 428.9,72.2 429.0,73.9 429.1,76.2 429.2,79.9 429.3,86.4 429.4,114.1 429.5,87.8 429.6,80.7 429.7,76.8 429.8,74.3 429.9,72.6 430.0,71.5 430.1,70.9 430.2,70.7 430.3,70.9 430.4,71.5 430.5,72.6 430.6,74.3 430.7,76.7 430.8,80.6 430.9,87.5 431.0,122.3 431.1,86.9 431.2,80.2 431.3,76.5 431.4,74.1 431.5,72.5 431.6,71.4 431.7,70.8 431.8,70.6 431.9,70.8 432.0,71.4 432.1,72.5 432.2,74.1 432.3,76.5 432.4,80.2 432.5,86.7 432.6,114.8 432.7,88.0 432.8,80.9 432.9,77.0 433.0,74.5 433.1,72.8 433.2,71.7 433.3,71.1 433.4,70.9 433.5,71.1 433.6,71.7 433.7,72.8 433.8,74.5 433.9,76.9 434.0,80.8 434.1,87.7 434.2,123.0 434.3,87.1 434.4,80.5 434.5,76.7 434.6,74.3 434.7,72.7 434.8,71.6 434.9,71.0 435.0,70.8 435.1,71.0 435.2,71.6 435.3,72.7 435.4,74.3 435.5,76.7 435.6,80.4 435.7,86.9 435.8,115.6 435.9,88.2 436.0,81.1 436.1,77.2 436.2,74.7 436.3,73.0 436.4,71.9 436.5,71.3 436.6,71.1 436.7,71.3 436.8,71.9 436.9,73.0 437.0,74.7 437.1,77.1 437.2,81.0 437.3,87.9 437.4,123.7 437.5,87.4 437.6,80.7 437.7,77.0 437.8,74.5 437.9,72.9 438.0,71.9 438.1,71.3 438.2,71.1 438.3,71.3 438.4,71.9 438.5,72.9 438.6,74.5 438.7,76.9 438.8,80.6 438.9,87.2 439.0,116.3 439.1,88.4 439.2,81.2 439.3,77.4 439.4,74.9 439.5,73.2 439.6,72.1 439.7,71.5 439.8,71.3 439.9,71.5 440.0,72.1 440.1,73.2 440.2,74.9 440.3,77.3 440.4,81.2 440.5,88.1 440.6,124.4 440.7,87.6 440.8,80.9 440.9,77.2 441.0,74.7 441.1,73.1 441.2,72.1 441.3,71.5 441.4,71.3 441.5,71.5 441.6,72.1 441.7,73.1 441.8,74.7 441.9,77.1 442.0,80.8 442.1,87.4 442.2,117.0 442.3,88.5 442.4,81.4 442.5,77.6 442.6,75.1 442.7,73.4 442.8,72.3 442.9,71.7 443.0,71.5 443.1,71.7 443.2,72.3 443.3,73.4 443.4,75.1 443.5,77.5 443.6,81.3 443.7,88.3 443.8,125.1 443.9,87.8 444.0,81.1 444.1,77.4 444.2,74.9 444.3,73.3 444.4,72.2 444.5,71.6 444.6,71.4 444.7,71.6 444.8,72.2 444.9,73.3 445.0,74.9 445.1,77.3 445.2,81.0 445.3,87.6 445.4,117.7 445.5,88.7 445.6,81.6 445.7,77.7 445.8,75.2 445.9,73.6 446.0,72.5 446.1,71.9 446.2,71.7 446.3,71.9 446.4,72.5 446.5,73.6 446.6,75.2 446.7,77.7 446.8,81.5 446.9,88.5 447.0,125.8 447.1,88.0 447.2,81.3 447.3,77.5 447.4,75.1 447.5,73.5 447.6,72.4 447.7,71.8 447.8,71.6 447.9,71.8 448.0,72.4 448.1,73.5 448.2,75.1 448.3,77.5 448.4,81.2 448.5,87.8 448.6,118.4 448.7,88.8 448.8,81.8 448.9,77.9 449.0,75.4 449.1,73.8 449.2,72.7 449.3,72.1 449.4,71.9 449.5,72.1 449.6,72.7 449.7,73.7 449.8,75.4 449.9,77.9 450.0,81.7 450.1,88.6 450.2,126.5 450.3,88.2 450.4,81.5 450.5,77.7 450.6,75.3 450.7,73.7 450.8,72.6 450.9,72.0 451.0,71.8 451.1,72.0 451.2,72.6 451.3,73.7 451.4,75.3 451.5,77.7 451.6,81.4 451.7,88.0 451.8,119.1 451.9,89.0 452.0,81.9 452.1,78.1 452.2,75.6 452.3,73.9 452.4,72.8 452.5,72.2 452.6,72.0 452.7,72.2 452.8,72.8 452.9,73.9 453.0,75.6 453.1,78.0 453.2,81.8 453.3,88.8 453.4,127.2 453.5,88.3 453.6,81.6 453.7,77.9 453.8,75.5 453.9,73.8 454.0,72.8 454.1,72.2 454.2,72.0 454.3,72.2 454.4,72.8 454.5,73.8 454.6,75.4 454.7,77.9 454.8,81.6 454.9,88.2 455.0,119.8 455.1,89.1 455.2,82.0 455.3,78.2 455.4,75.7 455.5,74.1 455.6,73.0 455.7,72.4 455.8,72.2 455.9,72.4 456.0,73.0 456.1,74.1 456.2,75.7 456.3,78.2 456.4,82.0 456.5,88.9 456.6,127.9 456.7,88.5 456.8,81.8 456.9,78.0 457.0,75.6 457.1,74.0 457.2,72.9 457.3,72.3 457.4,72.1 457.5,72.3 457.6,72.9 457.7,74.0 457.8,75.6 457.9,78.0 458.0,81.7 458.1,88.3 458.2,120.5 458.3,89.2 458.4,82.2 458.5,78.3 458.6,75.9 458.7,74.2 458.8,73.1 458.9,72.5 459.0,72.3 459.1,72.5 459.2,73.1 459.3,74.2 459.4,75.9 459.5,78.3 459.6,82.1 459.7,89.1 459.8,128.7 459.9,88.7 460.0,81.9 460.1,78.2 460.2,75.8 460.3,74.1 460.4,73.1 460.5,72.5 460.6,72.3 460.7,72.5 460.8,73.1 460.9,74.1 461.0,75.7 461.1,78.2 461.2,81.9 461.3,88.5 461.4,121.2 461.5,89.3 461.6,82.3 461.7,78.5 461.8,76.0 461.9,74.3 462.0,73.3 462.1,72.7 462.2,72.5 462.3,72.7 462.4,73.3 462.5,74.3 462.6,76.0 462.7,78.4 462.8,82.3 462.9,89.2 463.0,129.4 463.1,88.8 463.2,82.1 463.3,78.3 463.4,75.9 463.5,74.3 463.6,73.2 463.7,72.6 463.8,72.4 463.9,72.6 464.0,73.2 464.1,74.3 464.2,75.9 464.3,78.3 464.4,82.0 464.5,88.7 464.6,122.0 464.7,89.5 464.8,82.4 464.9,78.6 465.0,76.1 465.1,74.5 465.2,73.4 465.3,72.8 465.4,72.6 465.5,72.8 465.6,73.4 465.7,74.5 465.8,76.1 465.9,78.6 466.0,82.4 466.1,89.3 466.2,130.1 466.3,88.9 466.4,82.2 466.5,78.5 466.6,76.0 466.7,74.4 466.8,73.3 466.9,72.7 467.0,72.5 467.1,72.7 467.2,73.3 467.3,74.4 467.4,76.0 467.5,78.4 467.6,82.2 467.7,88.8 467.8,122.7 467.9,89.6 468.0,82.5 468.1,78.7 468.2,76.2 468.3,74.6 468.4,73.5 468.5,72.9 468.6,72.7 468.7,72.9 468.8,73.5 468.9,74.6 469.0,76.2 469.1,78.7 469.2,82.5 469.3,89.4 469.4,130.9 469.5,89.1 469.6,82.3 469.7,78.6 469.8,76.2 469.9,74.5 470.0,73.5 470.1,72.9 470.2,72.7 470.3,72.9 470.4,73.5 470.5,74.5 470.6,76.1 470.7,78.6 470.8,82.3 470.9,89.0 471.0,123.5 471.1,89.7 471.2,82.7 471.3,78.8 471.4,76.4 471.5,74.7 471.6,73.6 471.7,73.0 471.8,72.8 471.9,73.0 472.0,73.6 472.1,74.7 472.2,76.3 472.3,78.8 472.4,82.6 472.5,89.5 472.6,131.6 472.7,89.2 472.8,82.5 472.9,78.7 473.0,76.3 473.1,74.6 473.2,73.6 473.3,73.0 473.4,72.8 473.5,73.0 473.6,73.6 473.7,74.6 473.8,76.3 473.9,78.7 474.0,82.4 474.1,89.1 474.2,124.2 474.3,89.7 474.4,82.7 474.5,78.9 474.6,76.5 474.7,74.8 474.8,73.7 474.9,73.1 475.0,72.9 475.1,73.1 475.2,73.7 475.3,74.8 475.4,76.4 475.5,78.9 475.6,82.7 475.7,89.6 475.8,132.4 475.9,89.3 476.0,82.6 476.1,78.8 476.2,76.4 476.3,74.7 476.4,73.7 476.5,73.1 476.6,72.9 476.7,73.1 476.8,73.7 476.9,74.7 477.0,76.4 477.1,78.8 477.2,82.5 477.3,89.2 477.4,125.1 477.5,89.8 477.6,82.8 477.7,79.0 477.8,76.6 477.9,74.9 478.0,73.8 478.1,73.2 478.2,73.0 478.3,73.2 478.4,73.8 478.5,74.9 478.6,76.5 478.7,79.0 478.8,82.8 478.9,89.7 479.0,133.3 479.1,89.4 479.2,82.7 479.3,78.9 479.4,76.5 479.5,74.8 479.6,73.8 479.7,73.2 479.8,73.0 479.9,73.2 480.0,73.8 480.1,74.8 480.2,76.5 480.3,78.9 480.4,82.6 480.5,89.3 480.6,125.9 480.7,89.9 480.8,82.9 480.9,79.1 481.0,76.6 481.1,75.0 481.2,73.9 481.3,73.3 481.4,73.1 481.5,73.3 481.6,73.9 481.7,75.0 481.8,76.6 481.9,79.1 482.0,82.9 482.1,89.8 482.2,134.1 482.3,89.5 482.4,82.8 482.5,79.0 482.6,76.6 482.7,74.9 482.8,73.9 482.9,73.3 483.0,73.1 483.1,73.3 483.2,73.9 483.3,74.9 483.4,76.6 483.5,79.0 483.6,82.7 483.7,89.4 483.8,126.8 483.9,90.0 484.0,83.0 484.1,79.2 484.2,76.7 484.3,75.1 484.4,74.0 484.5,73.4 484.6,73.2 484.7,73.4 484.8,74.0 484.9,75.1 485.0,76.7 485.1,79.2 485.2,83.0 485.3,89.9 485.4,135.0 485.5,89.6 485.6,82.9 485.7,79.1 485.8,76.7 485.9,75.0 486.0,74.0 486.1,73.4 486.2,73.2 486.3,73.4 486.4,74.0 486.5,75.0 486.6,76.7 486.7,79.1 486.8,82.8 486.9,89.5 487.0,127.7 487.1,90.0 487.2,83.1 487.3,79.3 487.4,76.8 487.5,75.1 487.6,74.1 487.7,73.5 487.8,73.3 487.9,73.5 488.0,74.1 488.1,75.1 488.2,76.8 488.3,79.2 488.4,83.0 488.5,89.9 488.6,135.9 488.7,89.7 488.8,82.9 488.9,79.2 489.0,76.7 489.1,75.1 489.2,74.0 489.3,73.4 489.4,73.2 489.5,73.4 489.6,74.0 489.7,75.1 489.8,76.7 489.9,79.2 490.0,82.9 490.1,89.6 490.2,128.7 490.3,90.1 490.4,83.1 490.5,79.3 490.6,76.9 490.7,75.2 490.8,74.1 490.9,73.5 491.0,73.3 491.1,73.5 491.2,74.1 491.3,75.2 491.4,76.9 491.5,79.3 491.6,83.1 491.7,90.0 491.8,136.9 491.9,89.8 492.0,83.0 492.1,79.3 492.2,76.8 492.3,75.2 492.4,74.1 492.5,73.5 492.6,73.3 492.7,73.5 492.9,74.1 493.0,75.2 493.1,76.8 493.2,79.2 493.3,83.0 493.4,89.7 493.5,129.7 493.6,90.1 493.7,83.2 493.8,79.4 493.9,76.9 494.0,75.3 494.1,74.2 494.2,73.6 494.3,73.4 494.4,73.6 494.5,74.2 494.6,75.3 494.7,76.9 494.8,79.4 494.9,83.2 495.0,90.0 495.1,138.0 495.2,89.9 495.3,83.1 495.4,79.3 495.5,76.9 495.6,75.2 495.7,74.2 495.8,73.6 495.9,73.4 496.0,73.6 496.1,74.2 496.2,75.2 496.3,76.9 496.4,79.3 496.5,83.1 496.6,89.8 496.7,130.8 496.8,90.2 496.9,83.3 497.0,79.4 497.1,77.0 497.2,75.3 497.3,74.3 497.4,73.7 497.5,73.5 497.6,73.7 497.7,74.3 497.8,75.3 497.9,77.0 498.0,79.4 498.1,83.2 498.2,90.1 498.3,139.2 498.4,89.9 498.5,83.1 498.6,79.4 498.7,76.9 498.8,75.3 498.9,74.2 499.0,73.6 499.1,73.4 499.2,73.6 499.3,74.2 499.4,75.3 499.5,76.9 499.6,79.4 499.7,83.1 499.8,89.9 499.9,132.0 500.0,90.2 500.1,83.3 500.2,79.5 500.3,77.0 500.4,75.4 500.5,74.3 500.6,73.7 500.7,73.5 500.8,73.7 500.9,74.3 501.0,75.4 501.1,77.0 501.2,79.5 501.3,83.3 501.4,90.1 501.5,140.5 501.6,90.0 501.7,83.2 501.8,79.4 501.9,77.0 502.0,75.4 502.1,74.3 502.2,73.7 502.3,73.5 502.4,73.7 502.5,74.3 502.6,75.4 502.7,77.0 502.8,79.4 502.9,83.2 503.0,89.9 503.1,133.4 503.2,90.2 503.3,83.3 503.4,79.5 503.5,77.1 503.6,75.4 503.7,74.4 503.8,73.8 503.9,73.6 504.0,73.8 504.1,74.4 504.2,75.4 504.3,77.1 504.4,79.5 504.5,83.3 504.6,90.2 504.7,141.9 504.8,90.1 504.9,83.3 505.0,79.5 505.1,77.0 505.2,75.4 505.3,74.3 505.4,73.7 505.5,73.5 505.6,73.7 505.7,74.3 505.8,75.4 505.9,77.0 506.0,79.5 506.1,83.2 506.2,90.0 506.3,134.9 506.4,90.3 506.5,83.4 506.6,79.6 506.7,77.1 506.8,75.5 506.9,74.4 507.0,73.8 507.1,73.6 507.2,73.8 507.3,74.4 507.4,75.5 507.5,77.1 507.6,79.6 507.7,83.4 507.8,90.2 507.9,143.5 508.0,90.1 508.1,83.3 508.2,79.5 508.3,77.1 508.4,75.5 508.5,74.4 508.6,73.8 508.7,73.6 508.8,73.8 508.9,74.4 509.0,75.5 509.1,77.1 509.2,79.5 509.3,83.3 509.4,90.1 509.5,136.7 509.6,90.3 509.7,83.4 509.8,79.6 509.9,77.2 510.0,75.5 510.1,74.4 510.2,73.8 510.3,73.6 510.4,73.8 510.5,74.4 510.6,75.5 510.7,77.1 510.8,79.6 510.9,83.4 511.0,90.2 511.1,145.4 511.2,90.1 511.3,83.3 511.4,79.6 511.5,77.1 511.6,75.5 511.7,74.4 511.8,73.8 511.9,73.6 512.0,73.8 512.1,74.4 512.2,75.5 512.3,77.1 512.4,79.6 512.5,83.3 512.6,90.1 512.7,138.7 512.8,90.3 512.9,83.4 513.0,79.6 513.1,77.2 513.2,75.5 513.3,74.5 513.4,73.9 513.5,73.7 513.6,73.9 513.7,74.5 513.8,75.5 513.9,77.2 514.0,79.6 514.1,83.4 514.2,90.2 514.3,147.7 514.4,90.2 514.5,83.4 514.6,79.6 514.7,77.2 514.8,75.5 514.9,74.4 515.0,73.8 515.1,73.6 515.2,73.8 515.3,74.4 515.4,75.5 515.5,77.2 515.6,79.6 515.7,83.4 515.8,90.2 515.9,141.3 516.0,90.3 516.1,83.4 516.2,79.6 516.3,77.2 516.4,75.5 516.5,74.5 516.6,73.9 516.7,73.7 516.8,73.9 516.9,74.5 517.0,75.5 517.1,77.2 517.2,79.6 517.3,83.4 517.4,90.3 517.5,150.7 517.6,90.2 517.7,83.4 517.8,79.6 517.9,77.2 518.0,75.5 518.1,74.5 518.2,73.9 518.3,73.7 518.4,73.9 518.5,74.5 518.6,75.5 518.7,77.2 518.8,79.6 518.9,83.4 519.0,90.2 519.1,144.8 519.2,90.3 519.3,83.4 519.4,79.7 519.5,77.2 519.6,75.6 519.7,74.5 519.8,73.9 519.9,73.7 520.0,73.9 520.1,74.5 520.2,75.6 520.3,77.2 520.4,79.7 520.5,83.4 520.6,90.3 520.7,152.0 520.8,90.2 520.9,83.4 521.0,79.6 521.1,77.2 521.2,75.6 521.3,74.5 521.4,73.9 521.5,73.7 521.6,73.9 521.7,74.5 521.8,75.6 521.9,77.2 522.0,79.6 522.1,83.4 522.2,90.2 522.3,150.0 522.4,90.3 522.5,83.4 522.6,79.7 522.7,77.2 522.8,75.6 522.9,74.5 523.0,73.9 523.1,73.7 523.2,73.9 523.3,74.5 523.4,75.6 523.5,77.2 523.6,79.7 523.7,83.4 523.8,90.3 523.9,152.0 524.0,90.3 524.1,83.4 524.2,79.7 524.3,77.2 524.4,75.6 524.5,74.5 524.6,73.9 524.7,73.7 524.8,73.9 524.9,74.5 525.0,75.6 525.1,77.2 525.2,79.7 525.3,83.4 525.4,90.3 525.5,152.0 525.6,90.3 525.7,83.4 525.8,79.7 525.9,77.2 526.0,75.6 526.1,74.5 526.2,73.9 526.3,73.7 526.4,73.9 526.5,74.5 526.6,75.6 526.7,77.2 526.8,79.7 526.9,83.4 527.0,90.3" fill="none" stroke="#4a90d9" stroke-width="1.2" stroke-linejoin="round"/>
  <text x="154.5" y="176" text-anchor="middle" font-size="8" fill="#6b7280">n / N</text>
  <text x="424.5" y="176" text-anchor="middle" font-size="8" fill="#6b7280">Normalized frequency (× Fₛ)</text>
</svg>
