<svg xmlns="http://www.w3.org/2000/svg" viewBox="0 0 560 190" width="560" height="190" style="font-family:system-ui,-apple-system,sans-serif">
  <rect width="560" height="190" fill="none"/>
  <line x1="52" y1="152.0" x2="257" y2="152.0" stroke="#e5e7eb" stroke-width="0.5"/>
  <text x="48" y="155.0" text-anchor="end" font-size="7.5" fill="#6b7280">0</text>
  <line x1="52" y1="124.0" x2="257" y2="124.0" stroke="#e5e7eb" stroke-width="0.5"/>
  <text x="48" y="127.0" text-anchor="end" font-size="7.5" fill="#6b7280">1</text>
  <line x1="52" y1="96.0" x2="257" y2="96.0" stroke="#e5e7eb" stroke-width="0.5"/>
  <text x="48" y="99.0" text-anchor="end" font-size="7.5" fill="#6b7280">2</text>
  <line x1="52" y1="68.0" x2="257" y2="68.0" stroke="#e5e7eb" stroke-width="0.5"/>
  <text x="48" y="71.0" text-anchor="end" font-size="7.5" fill="#6b7280">3</text>
  <line x1="52" y1="40.0" x2="257" y2="40.0" stroke="#e5e7eb" stroke-width="0.5"/>
  <text x="48" y="43.0" text-anchor="end" font-size="7.5" fill="#6b7280">4</text>
  <line x1="52" y1="12.0" x2="257" y2="12.0" stroke="#e5e7eb" stroke-width="0.5"/>
  <text x="48" y="15.0" text-anchor="end" font-size="7.5" fill="#6b7280">5</text>
  <line x1="52.0" y1="12" x2="52.0" y2="152" stroke="#e5e7eb" stroke-width="0.5"/>
  <text x="52.0" y="164" text-anchor="middle" font-size="7.5" fill="#6b7280">0</text>
  <line x1="154.5" y1="12" x2="154.5" y2="152" stroke="#e5e7eb" stroke-width="0.5"/>
  <text x="154.5" y="164" text-anchor="middle" font-size="7.5" fill="#6b7280">0.5</text>
  <line x1="257.0" y1="12" x2="257.0" y2="152" stroke="#e5e7eb" stroke-width="0.5"/>
  <text x="257.0" y="164" text-anchor="middle" font-size="7.5" fill="#6b7280">1</text>
  <line x1="52" y1="12" x2="52" y2="152" stroke="#d1d5db" stroke-width="0.75"/>
  <line x1="52" y1="152" x2="257" y2="152" stroke="#d1d5db" stroke-width="0.75"/>
  <path d="M52.0,152.0 52.0,152.0 52.8,152.0 53.6,152.0 54.4,152.0 55.2,152.0 56.0,152.0 56.8,152.0 57.6,152.0 58.4,152.0 59.2,152.0 60.0,152.0 60.8,152.0 61.6,152.0 62.5,152.0 63.3,152.0 64.1,152.0 64.9,152.0 65.7,152.0 66.5,152.0 67.3,152.0 68.1,152.0 68.9,152.0 69.7,152.0 70.5,152.0 71.3,152.0 72.1,152.0 72.9,152.0 73.7,152.0 74.5,152.0 75.3,152.0 76.1,152.0 76.9,152.0 77.7,152.0 78.5,152.0 79.3,152.0 80.1,152.0 80.9,152.0 81.7,152.0 82.5,152.0 83.4,152.0 84.2,152.0 85.0,152.0 85.8,152.0 86.6,152.0 87.4,152.0 88.2,152.0 89.0,152.0 89.8,152.0 90.6,152.0 91.4,152.0 92.2,152.0 93.0,152.0 93.8,152.0 94.6,152.0 95.4,152.0 96.2,152.0 97.0,152.0 97.8,152.0 98.6,152.0 99.4,152.0 100.2,152.0 101.0,152.0 101.8,152.0 102.6,152.0 103.5,152.0 104.3,152.0 105.1,152.0 105.9,152.0 106.7,152.0 107.5,152.0 108.3,152.0 109.1,152.0 109.9,151.9 110.7,150.6 111.5,149.2 112.3,147.6 113.1,145.9 113.9,144.2 114.7,142.3 115.5,140.3 116.3,138.2 117.1,136.0 117.9,133.8 118.7,131.4 119.5,128.9 120.3,126.3 121.1,123.6 121.9,120.9 122.7,118.0 123.5,115.1 124.4,112.1 125.2,109.1 126.0,105.9 126.8,102.8 127.6,99.6 128.4,96.3 129.2,93.0 130.0,89.7 130.8,86.4 131.6,83.1 132.4,79.7 133.2,76.4 134.0,73.1 134.8,69.8 135.6,66.6 136.4,63.4 137.2,60.3 138.0,57.2 138.8,54.3 139.6,51.4 140.4,48.6 141.2,45.8 142.0,43.3 142.8,40.8 143.6,38.4 144.5,36.2 145.3,34.1 146.1,32.2 146.9,30.4 147.7,28.8 148.5,27.4 149.3,26.1 150.1,25.0 150.9,24.1 151.7,23.3 152.5,22.8 153.3,22.4 154.1,22.2 154.9,22.2 155.7,22.4 156.5,22.8 157.3,23.3 158.1,24.1 158.9,25.0 159.7,26.1 160.5,27.4 161.3,28.8 162.1,30.4 162.9,32.2 163.7,34.1 164.5,36.2 165.4,38.4 166.2,40.8 167.0,43.3 167.8,45.8 168.6,48.6 169.4,51.4 170.2,54.3 171.0,57.2 171.8,60.3 172.6,63.4 173.4,66.6 174.2,69.8 175.0,73.1 175.8,76.4 176.6,79.7 177.4,83.1 178.2,86.4 179.0,89.7 179.8,93.0 180.6,96.3 181.4,99.6 182.2,102.8 183.0,105.9 183.8,109.1 184.6,112.1 185.5,115.1 186.3,118.0 187.1,120.9 187.9,123.6 188.7,126.3 189.5,128.9 190.3,131.4 191.1,133.8 191.9,136.0 192.7,138.2 193.5,140.3 194.3,142.3 195.1,144.2 195.9,145.9 196.7,147.6 197.5,149.2 198.3,150.6 199.1,151.9 199.9,152.0 200.7,152.0 201.5,152.0 202.3,152.0 203.1,152.0 203.9,152.0 204.7,152.0 205.5,152.0 206.4,152.0 207.2,152.0 208.0,152.0 208.8,152.0 209.6,152.0 210.4,152.0 211.2,152.0 212.0,152.0 212.8,152.0 213.6,152.0 214.4,152.0 215.2,152.0 216.0,152.0 216.8,152.0 217.6,152.0 218.4,152.0 219.2,152.0 220.0,152.0 220.8,152.0 221.6,152.0 222.4,152.0 223.2,152.0 224.0,152.0 224.8,152.0 225.6,152.0 226.5,152.0 227.3,152.0 228.1,152.0 228.9,152.0 229.7,152.0 230.5,152.0 231.3,152.0 232.1,152.0 232.9,152.0 233.7,152.0 234.5,152.0 235.3,152.0 236.1,152.0 236.9,152.0 237.7,152.0 238.5,152.0 239.3,152.0 240.1,152.0 240.9,152.0 241.7,152.0 242.5,152.0 243.3,152.0 244.1,152.0 244.9,152.0 245.7,152.0 246.5,152.0 247.4,152.0 248.2,152.0 249.0,152.0 249.8,152.0 250.6,152.0 251.4,152.0 252.2,152.0 253.0,152.0 253.8,152.0 254.6,152.0 255.4,152.0 256.2,152.0 257.0,152.0 L257.0,152.0 Z" fill="#4a90d9" fill-opacity="0.06"/>
  <polyline points="52.0,152.0 52.8,152.0 53.6,152.0 54.4,152.0 55.2,152.0 56.0,152.0 56.8,152.0 57.6,152.0 58.4,152.0 59.2,152.0 60.0,152.0 60.8,152.0 61.6,152.0 62.5,152.0 63.3,152.0 64.1,152.0 64.9,152.0 65.7,152.0 66.5,152.0 67.3,152.0 68.1,152.0 68.9,152.0 69.7,152.0 70.5,152.0 71.3,152.0 72.1,152.0 72.9,152.0 73.7,152.0 74.5,152.0 75.3,152.0 76.1,152.0 76.9,152.0 77.7,152.0 78.5,152.0 79.3,152.0 80.1,152.0 80.9,152.0 81.7,152.0 82.5,152.0 83.4,152.0 84.2,152.0 85.0,152.0 85.8,152.0 86.6,152.0 87.4,152.0 88.2,152.0 89.0,152.0 89.8,152.0 90.6,152.0 91.4,152.0 92.2,152.0 93.0,152.0 93.8,152.0 94.6,152.0 95.4,152.0 96.2,152.0 97.0,152.0 97.8,152.0 98.6,152.0 99.4,152.0 100.2,152.0 101.0,152.0 101.8,152.0 102.6,152.0 103.5,152.0 104.3,152.0 105.1,152.0 105.9,152.0 106.7,152.0 107.5,152.0 108.3,152.0 109.1,152.0 109.9,151.9 110.7,150.6 111.5,149.2 112.3,147.6 113.1,145.9 113.9,144.2 114.7,142.3 115.5,140.3 116.3,138.2 117.1,136.0 117.9,133.8 118.7,131.4 119.5,128.9 120.3,126.3 121.1,123.6 121.9,120.9 122.7,118.0 123.5,115.1 124.4,112.1 125.2,109.1 126.0,105.9 126.8,102.8 127.6,99.6 128.4,96.3 129.2,93.0 130.0,89.7 130.8,86.4 131.6,83.1 132.4,79.7 133.2,76.4 134.0,73.1 134.8,69.8 135.6,66.6 136.4,63.4 137.2,60.3 138.0,57.2 138.8,54.3 139.6,51.4 140.4,48.6 141.2,45.8 142.0,43.3 142.8,40.8 143.6,38.4 144.5,36.2 145.3,34.1 146.1,32.2 146.9,30.4 147.7,28.8 148.5,27.4 149.3,26.1 150.1,25.0 150.9,24.1 151.7,23.3 152.5,22.8 153.3,22.4 154.1,22.2 154.9,22.2 155.7,22.4 156.5,22.8 157.3,23.3 158.1,24.1 158.9,25.0 159.7,26.1 160.5,27.4 161.3,28.8 162.1,30.4 162.9,32.2 163.7,34.1 164.5,36.2 165.4,38.4 166.2,40.8 167.0,43.3 167.8,45.8 168.6,48.6 169.4,51.4 170.2,54.3 171.0,57.2 171.8,60.3 172.6,63.4 173.4,66.6 174.2,69.8 175.0,73.1 175.8,76.4 176.6,79.7 177.4,83.1 178.2,86.4 179.0,89.7 179.8,93.0 180.6,96.3 181.4,99.6 182.2,102.8 183.0,105.9 183.8,109.1 184.6,112.1 185.5,115.1 186.3,118.0 187.1,120.9 187.9,123.6 188.7,126.3 189.5,128.9 190.3,131.4 191.1,133.8 191.9,136.0 192.7,138.2 193.5,140.3 194.3,142.3 195.1,144.2 195.9,145.9 196.7,147.6 197.5,149.2 198.3,150.6 199.1,151.9 199.9,152.0 200.7,152.0 201.5,152.0 202.3,152.0 203.1,152.0 203.9,152.0 204.7,152.0 205.5,152.0 206.4,152.0 207.2,152.0 208.0,152.0 208.8,152.0 209.6,152.0 210.4,152.0 211.2,152.0 212.0,152.0 212.8,152.0 213.6,152.0 214.4,152.0 215.2,152.0 216.0,152.0 216.8,152.0 217.6,152.0 218.4,152.0 219.2,152.0 220.0,152.0 220.8,152.0 221.6,152.0 222.4,152.0 223.2,152.0 224.0,152.0 224.8,152.0 225.6,152.0 226.5,152.0 227.3,152.0 228.1,152.0 228.9,152.0 229.7,152.0 230.5,152.0 231.3,152.0 232.1,152.0 232.9,152.0 233.7,152.0 234.5,152.0 235.3,152.0 236.1,152.0 236.9,152.0 237.7,152.0 238.5,152.0 239.3,152.0 240.1,152.0 240.9,152.0 241.7,152.0 242.5,152.0 243.3,152.0 244.1,152.0 244.9,152.0 245.7,152.0 246.5,152.0 247.4,152.0 248.2,152.0 249.0,152.0 249.8,152.0 250.6,152.0 251.4,152.0 252.2,152.0 253.0,152.0 253.8,152.0 254.6,152.0 255.4,152.0 256.2,152.0 257.0,152.0" fill="none" stroke="#4a90d9" stroke-width="1.2" stroke-linejoin="round"/>
  <line x1="322" y1="12.0" x2="527" y2="12.0" stroke="#e5e7eb" stroke-width="0.5"/>
  <text x="318" y="15.0" text-anchor="end" font-size="7.5" fill="#6b7280">0</text>
  <line x1="322" y1="58.7" x2="527" y2="58.7" stroke="#e5e7eb" stroke-width="0.5"/>
  <text x="318" y="61.7" text-anchor="end" font-size="7.5" fill="#6b7280">-40</text>
  <line x1="322" y1="105.3" x2="527" y2="105.3" stroke="#e5e7eb" stroke-width="0.5"/>
  <text x="318" y="108.3" text-anchor="end" font-size="7.5" fill="#6b7280">-80</text>
  <line x1="322" y1="152.0" x2="527" y2="152.0" stroke="#e5e7eb" stroke-width="0.5"/>
  <text x="318" y="155.0" text-anchor="end" font-size="7.5" fill="#6b7280">-120</text>
  <line x1="322.0" y1="12" x2="322.0" y2="152" stroke="#e5e7eb" stroke-width="0.5"/>
  <text x="322.0" y="164" text-anchor="middle" font-size="7.5" fill="#6b7280">0</text>
  <line x1="363.0" y1="12" x2="363.0" y2="152" stroke="#e5e7eb" stroke-width="0.5"/>
  <text x="363.0" y="164" text-anchor="middle" font-size="7.5" fill="#6b7280">0.1</text>
  <line x1="404.0" y1="12" x2="404.0" y2="152" stroke="#e5e7eb" stroke-width="0.5"/>
  <text x="404.0" y="164" text-anchor="middle" font-size="7.5" fill="#6b7280">0.2</text>
  <line x1="445.0" y1="12" x2="445.0" y2="152" stroke="#e5e7eb" stroke-width="0.5"/>
  <text x="445.0" y="164" text-anchor="middle" font-size="7.5" fill="#6b7280">0.3</text>
  <line x1="486.0" y1="12" x2="486.0" y2="152" stroke="#e5e7eb" stroke-width="0.5"/>
  <text x="486.0" y="164" text-anchor="middle" font-size="7.5" fill="#6b7280">0.4</text>
  <line x1="527.0" y1="12" x2="527.0" y2="152" stroke="#e5e7eb" stroke-width="0.5"/>
  <text x="527.0" y="164" text-anchor="middle" font-size="7.5" fill="#6b7280">0.5</text>
  <line x1="322" y1="12" x2="322" y2="152" stroke="#d1d5db" stroke-width="0.75"/>
  <line x1="322" y1="152" x2="527" y2="152" stroke="#d1d5db" stroke-width="0.75"/>
  <polyline points="322.0,12.0 322.1,12.0 322.2,12.0 322.3,12.0 322.4,12.0 322.5,12.0 322.6,12.0 322.7,12.0 322.8,12.0 322.9,12.0 323.0,12.1 323.1,12.1 323.2,12.1 323.3,12.2 323.4,12.2 323.5,12.3 323.6,12.4 323.7,12.5 323.8,12.6 323.9,12.7 324.0,12.8 324.1,13.0 324.2,13.2 324.3,13.4 324.4,13.6 324.5,13.9 324.6,14.1 324.7,14.5 324.8,14.8 324.9,15.1 325.0,15.5 325.1,15.9 325.2,16.4 325.3,16.9 325.4,17.4 325.5,17.9 325.6,18.5 325.7,19.1 325.8,19.7 325.9,20.4 326.0,21.1 326.1,21.9 326.2,22.7 326.3,23.5 326.4,24.4 326.5,25.4 326.6,26.3 326.7,27.3 326.8,28.4 326.9,29.5 327.0,30.7 327.1,31.9 327.2,33.2 327.3,34.6 327.4,36.0 327.5,37.4 327.6,39.0 327.7,40.6 327.8,42.3 327.9,44.1 328.0,46.0 328.1,48.0 328.2,50.1 328.3,52.3 328.4,54.6 328.5,57.1 328.6,59.8 328.7,62.7 328.8,65.8 328.9,69.2 329.0,72.9 329.1,77.1 329.2,81.9 329.3,87.6 329.4,95.0 329.5,106.5 329.6,124.0 329.7,110.2 329.8,109.4 329.9,113.0 330.0,126.6 330.1,118.4 330.2,109.6 330.3,105.4 330.4,103.1 330.5,101.9 330.6,101.4 330.7,101.5 330.8,102.1 330.9,103.2 331.0,104.7 331.1,106.8 331.2,109.5 331.3,113.0 331.4,117.7 331.5,124.6 331.6,139.4 331.7,136.3 331.8,129.1 331.9,127.3 332.0,128.0 332.1,131.0 332.2,138.3 332.3,152.0 332.4,134.1 332.5,128.4 332.6,125.4 332.7,124.0 332.8,123.6 332.9,124.3 333.0,126.3 333.1,130.5 333.2,141.6 333.3,138.5 333.4,127.8 333.5,122.5 333.6,119.2 333.7,116.9 333.8,115.3 333.9,114.3 334.0,113.7 334.1,113.5 334.2,113.7 334.3,114.4 334.4,115.7 334.5,117.6 334.6,120.5 334.7,125.4 334.8,136.3 334.9,136.4 335.0,125.3 335.1,120.4 335.2,117.4 335.3,115.4 335.4,114.1 335.5,113.3 335.6,112.9 335.7,112.9 335.8,113.3 335.9,114.2 336.0,115.6 336.1,117.6 336.2,120.6 336.3,125.4 336.4,135.7 336.5,138.4 336.6,126.5 336.7,121.5 336.8,118.5 336.9,116.5 337.0,115.2 337.1,114.4 337.2,114.1 337.3,114.2 337.4,114.6 337.5,115.5 337.6,116.9 337.7,118.9 337.8,121.9 337.9,126.6 338.0,136.2 338.1,141.6 338.2,128.6 338.3,123.4 338.4,120.3 338.5,118.3 338.6,117.0 338.7,116.2 338.8,115.9 338.9,116.0 339.0,116.4 339.1,117.3 339.2,118.6 339.3,120.6 339.4,123.5 339.5,128.1 339.6,137.1 339.7,145.3 339.8,130.9 339.9,125.5 340.0,122.4 340.1,120.4 340.2,119.0 340.3,118.2 340.4,117.9 340.5,117.9 340.6,118.3 340.7,119.2 340.8,120.5 340.9,122.4 341.0,125.3 341.1,129.7 341.2,138.2 341.3,149.6 341.4,133.4 341.5,127.8 341.6,124.5 341.7,122.4 341.8,121.1 341.9,120.2 342.0,119.9 342.1,119.9 342.2,120.3 342.3,121.1 342.4,122.4 342.5,124.3 342.6,127.0 342.7,131.3 342.8,139.3 342.9,152.0 343.0,135.9 343.1,130.0 343.2,126.6 343.3,124.5 343.4,123.1 343.5,122.2 343.6,121.8 343.7,121.8 343.8,122.2 343.9,122.9 344.0,124.2 344.1,126.0 344.2,128.7 344.3,132.9 344.4,140.5 344.5,152.0 344.6,138.3 344.7,132.2 344.8,128.7 344.9,126.5 345.0,125.0 345.1,124.1 345.2,123.7 345.3,123.6 345.4,124.0 345.5,124.7 345.6,125.9 345.7,127.7 345.8,130.4 345.9,134.4 346.0,141.6 346.1,152.0 346.2,140.7 346.3,134.2 346.4,130.7 346.5,128.4 346.6,126.9 346.7,126.0 346.8,125.5 346.9,125.4 347.0,125.7 347.1,126.4 347.2,127.6 347.3,129.4 347.4,131.9 347.5,135.8 347.6,142.7 347.7,152.0 347.8,143.0 347.9,136.3 348.0,132.6 348.1,130.2 348.2,128.7 348.3,127.7 348.4,127.2 348.5,127.1 348.6,127.4 348.7,128.1 348.8,129.2 348.9,130.9 349.0,133.4 349.1,137.2 349.2,143.8 349.3,152.0 349.4,145.3 349.5,138.2 349.6,134.4 349.7,132.0 349.8,130.4 349.9,129.4 350.0,128.9 350.1,128.7 350.2,129.0 350.3,129.7 350.4,130.8 350.5,132.4 350.6,134.9 350.7,138.5 350.8,144.8 350.9,152.0 351.0,147.6 351.1,140.1 351.2,136.2 351.3,133.7 351.4,132.1 351.5,131.0 351.6,130.5 351.7,130.3 351.8,130.5 351.9,131.2 352.0,132.2 352.1,133.9 352.2,136.2 352.3,139.8 352.4,145.8 352.5,152.0 352.6,149.9 352.7,142.0 352.8,137.9 352.9,135.4 353.0,133.7 353.1,132.6 353.2,132.0 353.3,131.8 353.4,132.0 353.5,132.6 353.6,133.6 353.7,135.2 353.8,137.5 353.9,141.0 354.0,146.8 354.1,152.0 354.2,152.0 354.3,143.8 354.4,139.6 354.5,136.9 354.6,135.2 354.7,134.1 354.8,133.5 354.9,133.2 355.0,133.4 355.1,134.0 355.2,135.0 355.3,136.5 355.4,138.8 355.5,142.1 355.6,147.7 355.7,152.0 355.8,152.0 355.9,145.5 356.0,141.2 356.1,138.5 356.3,136.7 356.4,135.5 356.5,134.9 356.6,134.6 356.7,134.8 356.8,135.3 356.9,136.3 357.0,137.8 357.1,139.9 357.2,143.2 357.3,148.6 357.4,152.0 357.5,152.0 357.6,147.2 357.7,142.7 357.8,139.9 357.9,138.1 358.0,136.9 358.1,136.2 358.2,135.9 358.3,136.1 358.4,136.6 358.5,137.5 358.6,139.0 358.7,141.1 358.8,144.3 358.9,149.4 359.0,152.0 359.1,152.0 359.2,148.9 359.3,144.2 359.4,141.4 359.5,139.5 359.6,138.2 359.7,137.5 359.8,137.2 359.9,137.3 360.0,137.8 360.1,138.7 360.2,140.1 360.3,142.2 360.4,145.3 360.5,150.2 360.6,152.0 360.7,152.0 360.8,150.5 360.9,145.7 361.0,142.7 361.1,140.8 361.2,139.5 361.3,138.8 361.4,138.4 361.5,138.5 361.6,139.0 361.7,139.8 361.8,141.2 361.9,143.2 362.0,146.2 362.1,151.0 362.2,152.0 362.3,152.0 362.4,152.0 362.5,147.1 362.6,144.1 362.7,142.1 362.8,140.8 362.9,140.0 363.0,139.6 363.1,139.7 363.2,140.1 363.3,140.9 363.4,142.3 363.5,144.2 363.6,147.2 363.7,151.8 363.8,152.0 363.9,152.0 364.0,152.0 364.1,148.5 364.2,145.4 364.3,143.3 364.4,142.0 364.5,141.2 364.6,140.8 364.7,140.8 364.8,141.2 364.9,142.0 365.0,143.3 365.1,145.2 365.2,148.1 365.3,152.0 365.4,152.0 365.5,152.0 365.6,152.0 365.7,149.9 365.8,146.6 365.9,144.5 366.0,143.2 366.1,142.3 366.2,141.9 366.3,141.9 366.4,142.2 366.5,143.0 366.6,144.3 366.7,146.2 366.8,148.9 366.9,152.0 367.0,152.0 367.1,152.0 367.2,152.0 367.3,151.2 367.4,147.9 367.5,145.7 367.6,144.3 367.7,143.4 367.8,143.0 367.9,142.9 368.0,143.2 368.1,144.0 368.2,145.2 368.3,147.1 368.4,149.8 368.5,152.0 368.6,152.0 368.7,152.0 368.8,152.0 368.9,152.0 369.0,149.1 369.1,146.9 369.2,145.4 369.3,144.5 369.4,144.0 369.5,143.9 369.6,144.2 369.7,145.0 369.8,146.2 369.9,147.9 370.0,150.6 370.1,152.0 370.2,152.0 370.3,152.0 370.4,152.0 370.5,152.0 370.6,150.2 370.7,148.0 370.8,146.5 370.9,145.5 371.0,145.0 371.1,144.9 371.2,145.2 371.3,145.9 371.4,147.1 371.5,148.8 371.6,151.4 371.7,152.0 371.8,152.0 371.9,152.0 372.0,152.0 372.1,152.0 372.2,151.4 372.3,149.1 372.4,147.5 372.5,146.5 372.6,146.0 372.7,145.9 372.8,146.1 372.9,146.8 373.0,147.9 373.1,149.6 373.2,152.0 373.3,152.0 373.4,152.0 373.5,152.0 373.6,152.0 373.7,152.0 373.8,152.0 373.9,150.1 374.0,148.5 374.1,147.5 374.2,146.9 374.3,146.8 374.4,147.0 374.5,147.7 374.6,148.8 374.7,150.4 374.8,152.0 374.9,152.0 375.0,152.0 375.1,152.0 375.2,152.0 375.3,152.0 375.4,152.0 375.5,151.2 375.6,149.5 375.7,148.5 375.8,147.9 375.9,147.7 376.0,147.9 376.1,148.5 376.2,149.6 376.3,151.2 376.4,152.0 376.5,152.0 376.6,152.0 376.7,152.0 376.8,152.0 376.9,152.0 377.0,152.0 377.1,152.0 377.2,150.5 377.3,149.4 377.4,148.8 377.5,148.6 377.6,148.8 377.7,149.3 377.8,150.4 377.9,152.0 378.0,152.0 378.1,152.0 378.2,152.0 378.3,152.0 378.4,152.0 378.5,152.0 378.6,152.0 378.7,152.0 378.8,151.4 378.9,150.3 379.0,149.7 379.1,149.4 379.2,149.6 379.3,150.1 379.4,151.1 379.5,152.0 379.6,152.0 379.7,152.0 379.8,152.0 379.9,152.0 380.0,152.0 380.1,152.0 380.2,152.0 380.3,152.0 380.4,152.0 380.5,151.2 380.6,150.5 380.7,150.3 380.8,150.4 380.9,150.9 381.0,151.9 381.1,152.0 381.2,152.0 381.3,152.0 381.4,152.0 381.5,152.0 381.6,152.0 381.7,152.0 381.8,152.0 381.9,152.0 382.0,152.0 382.1,152.0 382.2,151.4 382.3,151.1 382.4,151.2 382.5,151.7 382.6,152.0 382.7,152.0 382.8,152.0 382.9,152.0 383.0,152.0 383.1,152.0 383.2,152.0 383.3,152.0 383.4,152.0 383.5,152.0 383.6,152.0 383.7,152.0 383.8,152.0 383.9,151.9 384.0,152.0 384.1,152.0 384.2,152.0 384.3,152.0 384.4,152.0 384.5,152.0 384.6,152.0 384.7,152.0 384.8,152.0 384.9,152.0 385.0,152.0 385.1,152.0 385.2,152.0 385.3,152.0 385.4,152.0 385.5,152.0 385.6,152.0 385.7,152.0 385.8,152.0 385.9,152.0 386.0,152.0 386.1,152.0 386.2,152.0 386.3,152.0 386.4,152.0 386.5,152.0 386.6,152.0 386.7,152.0 386.8,152.0 386.9,152.0 387.0,152.0 387.1,152.0 387.2,152.0 387.3,152.0 387.4,152.0 387.5,152.0 387.6,152.0 387.7,152.0 387.8,152.0 387.9,152.0 388.0,152.0 388.1,152.0 388.2,152.0 388.3,152.0 388.4,152.0 388.5,152.0 388.6,152.0 388.7,152.0 388.8,152.0 388.9,152.0 389.0,152.0 389.1,152.0 389.2,152.0 389.3,152.0 389.4,152.0 389.5,152.0 389.6,152.0 389.7,152.0 389.8,152.0 389.9,152.0 390.0,152.0 390.1,152.0 390.2,152.0 390.3,152.0 390.4,152.0 390.5,152.0 390.6,152.0 390.7,152.0 390.8,152.0 390.9,152.0 391.0,152.0 391.1,152.0 391.2,152.0 391.3,152.0 391.4,152.0 391.5,152.0 391.6,152.0 391.7,152.0 391.8,152.0 391.9,152.0 392.0,152.0 392.1,152.0 392.2,152.0 392.3,152.0 392.4,152.0 392.5,152.0 392.6,152.0 392.7,152.0 392.8,152.0 392.9,152.0 393.0,152.0 393.1,152.0 393.2,152.0 393.3,152.0 393.4,152.0 393.5,152.0 393.6,152.0 393.7,152.0 393.8,152.0 393.9,152.0 394.0,152.0 394.1,152.0 394.2,152.0 394.3,152.0 394.4,152.0 394.5,152.0 394.6,152.0 394.7,152.0 394.8,152.0 394.9,152.0 395.0,152.0 395.1,152.0 395.2,152.0 395.3,152.0 395.4,152.0 395.5,152.0 395.6,152.0 395.7,152.0 395.8,152.0 395.9,152.0 396.0,152.0 396.1,152.0 396.2,152.0 396.3,152.0 396.4,152.0 396.5,152.0 396.6,152.0 396.7,152.0 396.8,152.0 396.9,152.0 397.0,152.0 397.1,152.0 397.2,152.0 397.3,152.0 397.4,152.0 397.5,152.0 397.6,152.0 397.7,152.0 397.8,152.0 397.9,152.0 398.0,152.0 398.1,152.0 398.2,152.0 398.3,152.0 398.4,152.0 398.5,152.0 398.6,152.0 398.7,152.0 398.8,152.0 398.9,152.0 399.0,152.0 399.1,152.0 399.2,152.0 399.3,152.0 399.4,152.0 399.5,152.0 399.6,152.0 399.7,152.0 399.8,152.0 399.9,152.0 400.0,152.0 400.1,152.0 400.2,152.0 400.3,152.0 400.4,152.0 400.5,152.0 400.6,152.0 400.7,152.0 400.8,152.0 400.9,152.0 401.0,152.0 401.1,152.0 401.2,152.0 401.3,152.0 401.4,152.0 401.5,152.0 401.6,152.0 401.7,152.0 401.8,152.0 401.9,152.0 402.0,152.0 402.1,152.0 402.2,152.0 402.3,152.0 402.4,152.0 402.5,152.0 402.6,152.0 402.7,152.0 402.8,152.0 402.9,152.0 403.0,152.0 403.1,152.0 403.2,152.0 403.3,152.0 403.4,152.0 403.5,152.0 403.6,152.0 403.7,152.0 403.8,152.0 403.9,152.0 404.0,152.0 404.1,152.0 404.2,152.0 404.3,152.0 404.4,152.0 404.5,152.0 404.6,152.0 404.7,152.0 404.8,152.0 404.9,152.0 405.0,152.0 405.1,152.0 405.2,152.0 405.3,152.0 405.4,152.0 405.5,152.0 405.6,152.0 405.7,152.0 405.8,152.0 405.9,152.0 406.0,152.0 406.1,152.0 406.2,152.0 406.3,152.0 406.4,152.0 406.5,152.0 406.6,152.0 406.7,152.0 406.8,152.0 406.9,152.0 407.0,152.0 407.1,152.0 407.2,152.0 407.3,152.0 407.4,152.0 407.5,152.0 407.6,152.0 407.7,152.0 407.8,152.0 407.9,152.0 408.0,152.0 408.1,152.0 408.2,152.0 408.3,152.0 408.4,152.0 408.5,152.0 408.6,152.0 408.7,152.0 408.8,152.0 408.9,152.0 409.0,152.0 409.1,152.0 409.2,152.0 409.3,152.0 409.4,152.0 409.5,152.0 409.6,152.0 409.7,152.0 409.8,152.0 409.9,152.0 410.0,152.0 410.1,152.0 410.2,152.0 410.3,152.0 410.4,152.0 410.5,152.0 410.6,152.0 410.7,152.0 410.8,152.0 410.9,152.0 411.0,152.0 411.1,152.0 411.2,152.0 411.3,152.0 411.4,152.0 411.5,152.0 411.6,152.0 411.7,152.0 411.8,152.0 411.9,152.0 412.0,152.0 412.1,152.0 412.2,152.0 412.3,152.0 412.4,152.0 412.5,152.0 412.6,152.0 412.7,152.0 412.8,152.0 412.9,152.0 413.0,152.0 413.1,152.0 413.2,152.0 413.3,152.0 413.4,152.0 413.5,152.0 413.6,152.0 413.7,152.0 413.8,152.0 413.9,152.0 414.0,152.0 414.1,152.0 414.2,152.0 414.3,152.0 414.4,152.0 414.5,152.0 414.6,152.0 414.7,152.0 414.8,152.0 414.9,152.0 415.0,152.0 415.1,152.0 415.2,152.0 415.3,152.0 415.4,152.0 415.5,152.0 415.6,152.0 415.7,152.0 415.8,152.0 415.9,152.0 416.0,152.0 416.1,152.0 416.2,152.0 416.3,152.0 416.4,152.0 416.5,152.0 416.6,152.0 416.7,152.0 416.8,152.0 416.9,152.0 417.0,152.0 417.1,152.0 417.2,152.0 417.3,152.0 417.4,152.0 417.5,152.0 417.6,152.0 417.7,152.0 417.8,152.0 417.9,152.0 418.0,152.0 418.1,152.0 418.2,152.0 418.3,152.0 418.4,152.0 418.5,152.0 418.6,152.0 418.7,152.0 418.8,152.0 418.9,152.0 419.0,152.0 419.1,152.0 419.2,152.0 419.3,152.0 419.4,152.0 419.5,152.0 419.6,152.0 419.7,152.0 419.8,152.0 419.9,152.0 420.0,152.0 420.1,152.0 420.2,152.0 420.3,152.0 420.4,152.0 420.5,152.0 420.6,152.0 420.7,152.0 420.8,152.0 420.9,152.0 421.0,152.0 421.1,152.0 421.2,152.0 421.3,152.0 421.4,152.0 421.5,152.0 421.6,152.0 421.7,152.0 421.8,152.0 421.9,152.0 422.0,152.0 422.1,152.0 422.2,152.0 422.3,152.0 422.4,152.0 422.5,152.0 422.6,152.0 422.7,152.0 422.8,152.0 422.9,152.0 423.0,152.0 423.1,152.0 423.2,152.0 423.3,152.0 423.4,152.0 423.5,152.0 423.6,152.0 423.7,152.0 423.8,152.0 423.9,152.0 424.0,152.0 424.1,152.0 424.2,152.0 424.3,152.0 424.4,152.0 424.6,152.0 424.7,152.0 424.8,152.0 424.9,152.0 425.0,152.0 425.1,152.0 425.2,152.0 425.3,152.0 425.4,152.0 425.5,152.0 425.6,152.0 425.7,152.0 425.8,152.0 425.9,152.0 426.0,152.0 426.1,152.0 426.2,152.0 426.3,152.0 426.4,152.0 426.5,152.0 426.6,152.0 426.7,152.0 426.8,152.0 426.9,152.0 427.0,152.0 427.1,152.0 427.2,152.0 427.3,152.0 427.4,152.0 427.5,152.0 427.6,152.0 427.7,152.0 427.8,152.0 427.9,152.0 428.0,152.0 428.1,152.0 428.2,152.0 428.3,152.0 428.4,152.0 428.5,152.0 428.6,152.0 428.7,152.0 428.8,152.0 428.9,152.0 429.0,152.0 429.1,152.0 429.2,152.0 429.3,152.0 429.4,152.0 429.5,152.0 429.6,152.0 429.7,152.0 429.8,152.0 429.9,152.0 430.0,152.0 430.1,152.0 430.2,152.0 430.3,152.0 430.4,152.0 430.5,152.0 430.6,152.0 430.7,152.0 430.8,152.0 430.9,152.0 431.0,152.0 431.1,152.0 431.2,152.0 431.3,152.0 431.4,152.0 431.5,152.0 431.6,152.0 431.7,152.0 431.8,152.0 431.9,152.0 432.0,152.0 432.1,152.0 432.2,152.0 432.3,152.0 432.4,152.0 432.5,152.0 432.6,152.0 432.7,152.0 432.8,152.0 432.9,152.0 433.0,152.0 433.1,152.0 433.2,152.0 433.3,152.0 433.4,152.0 433.5,152.0 433.6,152.0 433.7,152.0 433.8,152.0 433.9,152.0 434.0,152.0 434.1,152.0 434.2,152.0 434.3,152.0 434.4,152.0 434.5,152.0 434.6,152.0 434.7,152.0 434.8,152.0 434.9,152.0 435.0,152.0 435.1,152.0 435.2,152.0 435.3,152.0 435.4,152.0 435.5,152.0 435.6,152.0 435.7,152.0 435.8,152.0 435.9,152.0 436.0,152.0 436.1,152.0 436.2,152.0 436.3,152.0 436.4,152.0 436.5,152.0 436.6,152.0 436.7,152.0 436.8,152.0 436.9,152.0 437.0,152.0 437.1,152.0 437.2,152.0 437.3,152.0 437.4,152.0 437.5,152.0 437.6,152.0 437.7,152.0 437.8,152.0 437.9,152.0 438.0,152.0 438.1,152.0 438.2,152.0 438.3,152.0 438.4,152.0 438.5,152.0 438.6,152.0 438.7,152.0 438.8,152.0 438.9,152.0 439.0,152.0 439.1,152.0 439.2,152.0 439.3,152.0 439.4,152.0 439.5,152.0 439.6,152.0 439.7,152.0 439.8,152.0 439.9,152.0 440.0,152.0 440.1,152.0 440.2,152.0 440.3,152.0 440.4,152.0 440.5,152.0 440.6,152.0 440.7,152.0 440.8,152.0 440.9,152.0 441.0,152.0 441.1,152.0 441.2,152.0 441.3,152.0 441.4,152.0 441.5,152.0 441.6,152.0 441.7,152.0 441.8,152.0 441.9,152.0 442.0,152.0 442.1,152.0 442.2,152.0 442.3,152.0 442.4,152.0 442.5,152.0 442.6,152.0 442.7,152.0 442.8,152.0 442.9,152.0 443.0,152.0 443.1,152.0 443.2,152.0 443.3,152.0 443.4,152.0 443.5,152.0 443.6,152.0 443.7,152.0 443.8,152.0 443.9,152.0 444.0,152.0 444.1,152.0 444.2,152.0 444.3,152.0 444.4,152.0 444.5,152.0 444.6,152.0 444.7,152.0 444.8,152.0 444.9,152.0 445.0,152.0 445.1,152.0 445.2,152.0 445.3,152.0 445.4,152.0 445.5,152.0 445.6,152.0 445.7,152.0 445.8,152.0 445.9,152.0 446.0,152.0 446.1,152.0 446.2,152.0 446.3,152.0 446.4,152.0 446.5,152.0 446.6,152.0 446.7,152.0 446.8,152.0 446.9,152.0 447.0,152.0 447.1,152.0 447.2,152.0 447.3,152.0 447.4,152.0 447.5,152.0 447.6,152.0 447.7,152.0 447.8,152.0 447.9,152.0 448.0,152.0 448.1,152.0 448.2,152.0 448.3,152.0 448.4,152.0 448.5,152.0 448.6,152.0 448.7,152.0 448.8,152.0 448.9,152.0 449.0,152.0 449.1,152.0 449.2,152.0 449.3,152.0 449.4,152.0 449.5,152.0 449.6,152.0 449.7,152.0 449.8,152.0 449.9,152.0 450.0,152.0 450.1,152.0 450.2,152.0 450.3,152.0 450.4,152.0 450.5,152.0 450.6,152.0 450.7,152.0 450.8,152.0 450.9,152.0 451.0,152.0 451.1,152.0 451.2,152.0 451.3,152.0 451.4,152.0 451.5,152.0 451.6,152.0 451.7,152.0 451.8,152.0 451.9,152.0 452.0,152.0 452.1,152.0 452.2,152.0 452.3,152.0 452.4,152.0 452.5,152.0 452.6,152.0 452.7,152.0 452.8,152.0 452.9,152.0 453.0,152.0 453.1,152.0 453.2,152.0 453.3,152.0 453.4,152.0 453.5,152.0 453.6,152.0 453.7,152.0 453.8,152.0 453.9,152.0 454.0,152.0 454.1,152.0 454.2,152.0 454.3,152.0 454.4,152.0 454.5,152.0 454.6,152.0 454.7,152.0 454.8,152.0 454.9,152.0 455.0,152.0 455.1,152.0 455.2,152.0 455.3,152.0 455.4,152.0 455.5,152.0 455.6,152.0 455.7,152.0 455.8,152.0 455.9,152.0 456.0,152.0 456.1,152.0 456.2,152.0 456.3,152.0 456.4,152.0 456.5,152.0 456.6,152.0 456.7,152.0 456.8,152.0 456.9,152.0 457.0,152.0 457.1,152.0 457.2,152.0 457.3,152.0 457.4,152.0 457.5,152.0 457.6,152.0 457.7,152.0 457.8,152.0 457.9,152.0 458.0,152.0 458.1,152.0 458.2,152.0 458.3,152.0 458.4,152.0 458.5,152.0 458.6,152.0 458.7,152.0 458.8,152.0 458.9,152.0 459.0,152.0 459.1,152.0 459.2,152.0 459.3,152.0 459.4,152.0 459.5,152.0 459.6,152.0 459.7,152.0 459.8,152.0 459.9,152.0 460.0,152.0 460.1,152.0 460.2,152.0 460.3,152.0 460.4,152.0 460.5,152.0 460.6,152.0 460.7,152.0 460.8,152.0 460.9,152.0 461.0,152.0 461.1,152.0 461.2,152.0 461.3,152.0 461.4,152.0 461.5,152.0 461.6,152.0 461.7,152.0 461.8,152.0 461.9,152.0 462.0,152.0 462.1,152.0 462.2,152.0 462.3,152.0 462.4,152.0 462.5,152.0 462.6,152.0 462.7,152.0 462.8,152.0 462.9,152.0 463.0,152.0 463.1,152.0 463.2,152.0 463.3,152.0 463.4,152.0 463.5,152.0 463.6,152.0 463.7,152.0 463.8,152.0 463.9,152.0 464.0,152.0 464.1,152.0 464.2,152.0 464.3,152.0 464.4,152.0 464.5,152.0 464.6,152.0 464.7,152.0 464.8,152.0 464.9,152.0 465.0,152.0 465.1,152.0 465.2,152.0 465.3,152.0 465.4,152.0 465.5,152.0 465.6,152.0 465.7,152.0 465.8,152.0 465.9,152.0 466.0,152.0 466.1,152.0 466.2,152.0 466.3,152.0 466.4,152.0 466.5,152.0 466.6,152.0 466.7,152.0 466.8,152.0 466.9,152.0 467.0,152.0 467.1,152.0 467.2,152.0 467.3,152.0 467.4,152.0 467.5,152.0 467.6,152.0 467.7,152.0 467.8,152.0 467.9,152.0 468.0,152.0 468.1,152.0 468.2,152.0 468.3,152.0 468.4,152.0 468.5,152.0 468.6,152.0 468.7,152.0 468.8,152.0 468.9,152.0 469.0,152.0 469.1,152.0 469.2,152.0 469.3,152.0 469.4,152.0 469.5,152.0 469.6,152.0 469.7,152.0 469.8,152.0 469.9,152.0 470.0,152.0 470.1,152.0 470.2,152.0 470.3,152.0 470.4,152.0 470.5,152.0 470.6,152.0 470.7,152.0 470.8,152.0 470.9,152.0 471.0,152.0 471.1,152.0 471.2,152.0 471.3,152.0 471.4,152.0 471.5,152.0 471.6,152.0 471.7,152.0 471.8,152.0 471.9,152.0 472.0,152.0 472.1,152.0 472.2,152.0 472.3,152.0 472.4,152.0 472.5,152.0 472.6,152.0 472.7,152.0 472.8,152.0 472.9,152.0 473.0,152.0 473.1,152.0 473.2,152.0 473.3,152.0 473.4,152.0 473.5,152.0 473.6,152.0 473.7,152.0 473.8,152.0 473.9,152.0 474.0,152.0 474.1,152.0 474.2,152.0 474.3,152.0 474.4,152.0 474.5,152.0 474.6,152.0 474.7,152.0 474.8,152.0 474.9,152.0 475.0,152.0 475.1,152.0 475.2,152.0 475.3,152.0 475.4,152.0 475.5,152.0 475.6,152.0 475.7,152.0 475.8,152.0 475.9,152.0 476.0,152.0 476.1,152.0 476.2,152.0 476.3,152.0 476.4,152.0 476.5,152.0 476.6,152.0 476.7,152.0 476.8,152.0 476.9,152.0 477.0,152.0 477.1,152.0 477.2,152.0 477.3,152.0 477.4,152.0 477.5,152.0 477.6,152.0 477.7,152.0 477.8,152.0 477.9,152.0 478.0,152.0 478.1,152.0 478.2,152.0 478.3,152.0 478.4,152.0 478.5,152.0 478.6,152.0 478.7,152.0 478.8,152.0 478.9,152.0 479.0,152.0 479.1,152.0 479.2,152.0 479.3,152.0 479.4,152.0 479.5,152.0 479.6,152.0 479.7,152.0 479.8,152.0 479.9,152.0 480.0,152.0 480.1,152.0 480.2,152.0 480.3,152.0 480.4,152.0 480.5,152.0 480.6,152.0 480.7,152.0 480.8,152.0 480.9,152.0 481.0,152.0 481.1,152.0 481.2,152.0 481.3,152.0 481.4,152.0 481.5,152.0 481.6,152.0 481.7,152.0 481.8,152.0 481.9,152.0 482.0,152.0 482.1,152.0 482.2,152.0 482.3,152.0 482.4,152.0 482.5,152.0 482.6,152.0 482.7,152.0 482.8,152.0 482.9,152.0 483.0,152.0 483.1,152.0 483.2,152.0 483.3,152.0 483.4,152.0 483.5,152.0 483.6,152.0 483.7,152.0 483.8,152.0 483.9,152.0 484.0,152.0 484.1,152.0 484.2,152.0 484.3,152.0 484.4,152.0 484.5,152.0 484.6,152.0 484.7,152.0 484.8,152.0 484.9,152.0 485.0,152.0 485.1,152.0 485.2,152.0 485.3,152.0 485.4,152.0 485.5,152.0 485.6,152.0 485.7,152.0 485.8,152.0 485.9,152.0 486.0,152.0 486.1,152.0 486.2,152.0 486.3,152.0 486.4,152.0 486.5,152.0 486.6,152.0 486.7,152.0 486.8,152.0 486.9,152.0 487.0,152.0 487.1,152.0 487.2,152.0 487.3,152.0 487.4,152.0 487.5,152.0 487.6,152.0 487.7,152.0 487.8,152.0 487.9,152.0 488.0,152.0 488.1,152.0 488.2,152.0 488.3,152.0 488.4,152.0 488.5,152.0 488.6,152.0 488.7,152.0 488.8,152.0 488.9,152.0 489.0,152.0 489.1,152.0 489.2,152.0 489.3,152.0 489.4,152.0 489.5,152.0 489.6,152.0 489.7,152.0 489.8,152.0 489.9,152.0 490.0,152.0 490.1,152.0 490.2,152.0 490.3,152.0 490.4,152.0 490.5,152.0 490.6,152.0 490.7,152.0 490.8,152.0 490.9,152.0 491.0,152.0 491.1,152.0 491.2,152.0 491.3,152.0 491.4,152.0 491.5,152.0 491.6,152.0 491.7,152.0 491.8,152.0 491.9,152.0 492.0,152.0 492.1,152.0 492.2,152.0 492.3,152.0 492.4,152.0 492.5,152.0 492.6,152.0 492.7,152.0 492.9,152.0 493.0,152.0 493.1,152.0 493.2,152.0 493.3,152.0 493.4,152.0 493.5,152.0 493.6,152.0 493.7,152.0 493.8,152.0 493.9,152.0 494.0,152.0 494.1,152.0 494.2,152.0 494.3,152.0 494.4,152.0 494.5,152.0 494.6,152.0 494.7,152.0 494.8,152.0 494.9,152.0 495.0,152.0 495.1,152.0 495.2,152.0 495.3,152.0 495.4,152.0 495.5,152.0 495.6,152.0 495.7,152.0 495.8,152.0 495.9,152.0 496.0,152.0 496.1,152.0 496.2,152.0 496.3,152.0 496.4,152.0 496.5,152.0 496.6,152.0 496.7,152.0 496.8,152.0 496.9,152.0 497.0,152.0 497.1,152.0 497.2,152.0 497.3,152.0 497.4,152.0 497.5,152.0 497.6,152.0 497.7,152.0 497.8,152.0 497.9,152.0 498.0,152.0 498.1,152.0 498.2,152.0 498.3,152.0 498.4,152.0 498.5,152.0 498.6,152.0 498.7,152.0 498.8,152.0 498.9,152.0 499.0,152.0 499.1,152.0 499.2,152.0 499.3,152.0 499.4,152.0 499.5,152.0 499.6,152.0 499.7,152.0 499.8,152.0 499.9,152.0 500.0,152.0 500.1,152.0 500.2,152.0 500.3,152.0 500.4,152.0 500.5,152.0 500.6,152.0 500.7,152.0 500.8,152.0 500.9,152.0 501.0,152.0 501.1,152.0 501.2,152.0 501.3,152.0 501.4,152.0 501.5,152.0 501.6,152.0 501.7,152.0 501.8,152.0 501.9,152.0 502.0,152.0 502.1,152.0 502.2,152.0 502.3,152.0 502.4,152.0 502.5,152.0 502.6,152.0 502.7,152.0 502.8,152.0 502.9,152.0 503.0,152.0 503.1,152.0 503.2,152.0 503.3,152.0 503.4,152.0 503.5,152.0 503.6,152.0 503.7,152.0 503.8,152.0 503.9,152.0 504.0,152.0 504.1,152.0 504.2,152.0 504.3,152.0 504.4,152.0 504.5,152.0 504.6,152.0 504.7,152.0 504.8,152.0 504.9,152.0 505.0,152.0 505.1,152.0 505.2,152.0 505.3,152.0 505.4,152.0 505.5,152.0 505.6,152.0 505.7,152.0 505.8,152.0 505.9,152.0 506.0,152.0 506.1,152.0 506.2,152.0 506.3,152.0 506.4,152.0 506.5,152.0 506.6,152.0 506.7,152.0 506.8,152.0 506.9,152.0 507.0,152.0 507.1,152.0 507.2,152.0 507.3,152.0 507.4,152.0 507.5,152.0 507.6,152.0 507.7,152.0 507.8,152.0 507.9,152.0 508.0,152.0 508.1,152.0 508.2,152.0 508.3,152.0 508.4,152.0 508.5,152.0 508.6,152.0 508.7,152.0 508.8,152.0 508.9,152.0 509.0,152.0 509.1,152.0 509.2,152.0 509.3,152.0 509.4,152.0 509.5,152.0 509.6,152.0 509.7,152.0 509.8,152.0 509.9,152.0 510.0,152.0 510.1,152.0 510.2,152.0 510.3,152.0 510.4,152.0 510.5,152.0 510.6,152.0 510.7,152.0 510.8,152.0 510.9,152.0 511.0,152.0 511.1,152.0 511.2,152.0 511.3,152.0 511.4,152.0 511.5,152.0 511.6,152.0 511.7,152.0 511.8,152.0 511.9,152.0 512.0,152.0 512.1,152.0 512.2,152.0 512.3,152.0 512.4,152.0 512.5,152.0 512.6,152.0 512.7,152.0 512.8,152.0 512.9,152.0 513.0,152.0 513.1,152.0 513.2,152.0 513.3,152.0 513.4,152.0 513.5,152.0 513.6,152.0 513.7,152.0 513.8,152.0 513.9,152.0 514.0,152.0 514.1,152.0 514.2,152.0 514.3,152.0 514.4,152.0 514.5,152.0 514.6,152.0 514.7,152.0 514.8,152.0 514.9,152.0 515.0,152.0 515.1,152.0 515.2,152.0 515.3,152.0 515.4,152.0 515.5,152.0 515.6,152.0 515.7,152.0 515.8,152.0 515.9,152.0 516.0,152.0 516.1,152.0 516.2,152.0 516.3,152.0 516.4,152.0 516.5,152.0 516.6,152.0 516.7,152.0 516.8,152.0 516.9,152.0 517.0,152.0 517.1,152.0 517.2,152.0 517.3,152.0 517.4,152.0 517.5,152.0 517.6,152.0 517.7,152.0 517.8,152.0 517.9,152.0 518.0,152.0 518.1,152.0 518.2,152.0 518.3,152.0 518.4,152.0 518.5,152.0 518.6,152.0 518.7,152.0 518.8,152.0 518.9,152.0 519.0,152.0 519.1,152.0 519.2,152.0 519.3,152.0 519.4,152.0 519.5,152.0 519.6,152.0 519.7,152.0 519.8,152.0 519.9,152.0 520.0,152.0 520.1,152.0 520.2,152.0 520.3,152.0 520.4,152.0 520.5,152.0 520.6,152.0 520.7,152.0 520.8,152.0 520.9,152.0 521.0,152.0 521.1,152.0 521.2,152.0 521.3,152.0 521.4,152.0 521.5,152.0 521.6,152.0 521.7,152.0 521.8,152.0 521.9,152.0 522.0,152.0 522.1,152.0 522.2,152.0 522.3,152.0 522.4,152.0 522.5,152.0 522.6,152.0 522.7,152.0 522.8,152.0 522.9,152.0 523.0,152.0 523.1,152.0 523.2,152.0 523.3,152.0 523.4,152.0 523.5,152.0 523.6,152.0 523.7,152.0 523.8,152.0 523.9,152.0 524.0,152.0 524.1,152.0 524.2,152.0 524.3,152.0 524.4,152.0 524.5,152.0 524.6,152.0 524.7,152.0 524.8,152.0 524.9,152.0 525.0,152.0 525.1,152.0 525.2,152.0 525.3,152.0 525.4,152.0 525.5,152.0 525.6,152.0 525.7,152.0 525.8,152.0 525.9,152.0 526.0,152.0 526.1,152.0 526.2,152.0 526.3,152.0 526.4,152.0 526.5,152.0 526.6,152.0 526.7,152.0 526.8,152.0 526.9,152.0 527.0,152.0" fill="none" stroke="#4a90d9" stroke-width="1.2" stroke-linejoin="round"/>
  <text x="154.5" y="176" text-anchor="middle" font-size="8" fill="#6b7280">n / N</text>
  <text x="424.5" y="176" text-anchor="middle" font-size="8" fill="#6b7280">Normalized frequency (× Fₛ)</text>
</svg>
