<svg xmlns="http://www.w3.org/2000/svg" viewBox="0 0 800 230" style="font-family:system-ui,-apple-system,sans-serif">
  <line x1="42" y1="182.0" x2="377" y2="182.0" stroke="#e5e7eb" stroke-width="0.7"/>
  <text x="37" y="186.0" text-anchor="end" font-size="10" fill="#6b7280">-0.5</text>
  <line x1="42" y1="150.4" x2="377" y2="150.4" stroke="#e5e7eb" stroke-width="0.7"/>
  <text x="37" y="154.4" text-anchor="end" font-size="10" fill="#6b7280">0.5</text>
  <line x1="42" y1="118.7" x2="377" y2="118.7" stroke="#e5e7eb" stroke-width="0.7"/>
  <text x="37" y="122.7" text-anchor="end" font-size="10" fill="#6b7280">1.5</text>
  <line x1="42" y1="87.1" x2="377" y2="87.1" stroke="#e5e7eb" stroke-width="0.7"/>
  <text x="37" y="91.1" text-anchor="end" font-size="10" fill="#6b7280">2.5</text>
  <line x1="42" y1="55.5" x2="377" y2="55.5" stroke="#e5e7eb" stroke-width="0.7"/>
  <text x="37" y="59.5" text-anchor="end" font-size="10" fill="#6b7280">3.5</text>
  <line x1="42" y1="23.8" x2="377" y2="23.8" stroke="#e5e7eb" stroke-width="0.7"/>
  <text x="37" y="27.8" text-anchor="end" font-size="10" fill="#6b7280">4.5</text>
  <line x1="42.0" y1="8" x2="42.0" y2="182" stroke="#e5e7eb" stroke-width="0.7"/>
  <text x="42.0" y="198" text-anchor="middle" font-size="10" fill="#6b7280">0</text>
  <line x1="209.5" y1="8" x2="209.5" y2="182" stroke="#e5e7eb" stroke-width="0.7"/>
  <text x="209.5" y="198" text-anchor="middle" font-size="10" fill="#6b7280">0.5</text>
  <line x1="377.0" y1="8" x2="377.0" y2="182" stroke="#e5e7eb" stroke-width="0.7"/>
  <text x="377.0" y="198" text-anchor="middle" font-size="10" fill="#6b7280">1</text>
  <line x1="42" y1="8" x2="42" y2="182" stroke="#d1d5db" stroke-width="1"/>
  <line x1="42" y1="182" x2="377" y2="182" stroke="#d1d5db" stroke-width="1"/>
  <path d="M42.0,166.2 42.0,166.2 43.3,166.2 44.6,166.2 45.9,166.2 47.3,166.2 48.6,166.2 49.9,166.2 51.2,166.3 52.5,166.3 53.8,166.3 55.1,166.4 56.5,166.4 57.8,166.5 59.1,166.6 60.4,166.6 61.7,166.7 63.0,166.8 64.3,166.9 65.6,167.0 67.0,167.1 68.3,167.3 69.6,167.4 70.9,167.6 72.2,167.8 73.5,167.9 74.8,168.1 76.2,168.4 77.5,168.6 78.8,168.8 80.1,169.1 81.4,169.4 82.7,169.7 84.0,170.0 85.4,170.3 86.7,170.6 88.0,170.9 89.3,171.3 90.6,171.6 91.9,172.0 93.2,172.4 94.5,172.7 95.9,173.1 97.2,173.5 98.5,173.8 99.8,174.2 101.1,174.5 102.4,174.9 103.7,175.2 105.1,175.5 106.4,175.8 107.7,176.0 109.0,176.2 110.3,176.4 111.6,176.6 112.9,176.7 114.3,176.7 115.6,176.7 116.9,176.7 118.2,176.5 119.5,176.4 120.8,176.1 122.1,175.8 123.5,175.4 124.8,174.9 126.1,174.3 127.4,173.7 128.7,172.9 130.0,172.0 131.3,171.1 132.6,170.0 134.0,168.8 135.3,167.5 136.6,166.1 137.9,164.6 139.2,163.0 140.5,161.2 141.8,159.3 143.2,157.3 144.5,155.2 145.8,153.0 147.1,150.6 148.4,148.2 149.7,145.6 151.0,142.9 152.4,140.1 153.7,137.1 155.0,134.1 156.3,131.0 157.6,127.8 158.9,124.5 160.2,121.1 161.5,117.7 162.9,114.1 164.2,110.6 165.5,106.9 166.8,103.3 168.1,99.5 169.4,95.8 170.7,92.0 172.1,88.3 173.4,84.5 174.7,80.8 176.0,77.0 177.3,73.4 178.6,69.7 179.9,66.1 181.3,62.6 182.6,59.1 183.9,55.7 185.2,52.5 186.5,49.3 187.8,46.2 189.1,43.3 190.5,40.5 191.8,37.9 193.1,35.4 194.4,33.0 195.7,30.8 197.0,28.8 198.3,27.0 199.6,25.4 201.0,23.9 202.3,22.7 203.6,21.6 204.9,20.8 206.2,20.2 207.5,19.8 208.8,19.5 210.2,19.5 211.5,19.8 212.8,20.2 214.1,20.8 215.4,21.6 216.7,22.7 218.0,23.9 219.4,25.4 220.7,27.0 222.0,28.8 223.3,30.8 224.6,33.0 225.9,35.4 227.2,37.9 228.5,40.5 229.9,43.3 231.2,46.2 232.5,49.3 233.8,52.5 235.1,55.7 236.4,59.1 237.7,62.6 239.1,66.1 240.4,69.7 241.7,73.4 243.0,77.0 244.3,80.8 245.6,84.5 246.9,88.3 248.3,92.0 249.6,95.8 250.9,99.5 252.2,103.3 253.5,106.9 254.8,110.6 256.1,114.1 257.5,117.7 258.8,121.1 260.1,124.5 261.4,127.8 262.7,131.0 264.0,134.1 265.3,137.1 266.6,140.1 268.0,142.9 269.3,145.6 270.6,148.2 271.9,150.6 273.2,153.0 274.5,155.2 275.8,157.3 277.2,159.3 278.5,161.2 279.8,163.0 281.1,164.6 282.4,166.1 283.7,167.5 285.0,168.8 286.4,170.0 287.7,171.1 289.0,172.0 290.3,172.9 291.6,173.7 292.9,174.3 294.2,174.9 295.5,175.4 296.9,175.8 298.2,176.1 299.5,176.4 300.8,176.5 302.1,176.7 303.4,176.7 304.7,176.7 306.1,176.7 307.4,176.6 308.7,176.4 310.0,176.2 311.3,176.0 312.6,175.8 313.9,175.5 315.3,175.2 316.6,174.9 317.9,174.5 319.2,174.2 320.5,173.8 321.8,173.5 323.1,173.1 324.5,172.7 325.8,172.4 327.1,172.0 328.4,171.6 329.7,171.3 331.0,170.9 332.3,170.6 333.6,170.3 335.0,170.0 336.3,169.7 337.6,169.4 338.9,169.1 340.2,168.8 341.5,168.6 342.8,168.4 344.2,168.1 345.5,167.9 346.8,167.8 348.1,167.6 349.4,167.4 350.7,167.3 352.0,167.1 353.4,167.0 354.7,166.9 356.0,166.8 357.3,166.7 358.6,166.6 359.9,166.6 361.2,166.5 362.5,166.4 363.9,166.4 365.2,166.3 366.5,166.3 367.8,166.3 369.1,166.2 370.4,166.2 371.7,166.2 373.1,166.2 374.4,166.2 375.7,166.2 377.0,166.2 L377.0,166.2 Z" fill="#4a90d9" fill-opacity="0.06"/>
  <polyline points="42.0,166.2 43.3,166.2 44.6,166.2 45.9,166.2 47.3,166.2 48.6,166.2 49.9,166.2 51.2,166.3 52.5,166.3 53.8,166.3 55.1,166.4 56.5,166.4 57.8,166.5 59.1,166.6 60.4,166.6 61.7,166.7 63.0,166.8 64.3,166.9 65.6,167.0 67.0,167.1 68.3,167.3 69.6,167.4 70.9,167.6 72.2,167.8 73.5,167.9 74.8,168.1 76.2,168.4 77.5,168.6 78.8,168.8 80.1,169.1 81.4,169.4 82.7,169.7 84.0,170.0 85.4,170.3 86.7,170.6 88.0,170.9 89.3,171.3 90.6,171.6 91.9,172.0 93.2,172.4 94.5,172.7 95.9,173.1 97.2,173.5 98.5,173.8 99.8,174.2 101.1,174.5 102.4,174.9 103.7,175.2 105.1,175.5 106.4,175.8 107.7,176.0 109.0,176.2 110.3,176.4 111.6,176.6 112.9,176.7 114.3,176.7 115.6,176.7 116.9,176.7 118.2,176.5 119.5,176.4 120.8,176.1 122.1,175.8 123.5,175.4 124.8,174.9 126.1,174.3 127.4,173.7 128.7,172.9 130.0,172.0 131.3,171.1 132.6,170.0 134.0,168.8 135.3,167.5 136.6,166.1 137.9,164.6 139.2,163.0 140.5,161.2 141.8,159.3 143.2,157.3 144.5,155.2 145.8,153.0 147.1,150.6 148.4,148.2 149.7,145.6 151.0,142.9 152.4,140.1 153.7,137.1 155.0,134.1 156.3,131.0 157.6,127.8 158.9,124.5 160.2,121.1 161.5,117.7 162.9,114.1 164.2,110.6 165.5,106.9 166.8,103.3 168.1,99.5 169.4,95.8 170.7,92.0 172.1,88.3 173.4,84.5 174.7,80.8 176.0,77.0 177.3,73.4 178.6,69.7 179.9,66.1 181.3,62.6 182.6,59.1 183.9,55.7 185.2,52.5 186.5,49.3 187.8,46.2 189.1,43.3 190.5,40.5 191.8,37.9 193.1,35.4 194.4,33.0 195.7,30.8 197.0,28.8 198.3,27.0 199.6,25.4 201.0,23.9 202.3,22.7 203.6,21.6 204.9,20.8 206.2,20.2 207.5,19.8 208.8,19.5 210.2,19.5 211.5,19.8 212.8,20.2 214.1,20.8 215.4,21.6 216.7,22.7 218.0,23.9 219.4,25.4 220.7,27.0 222.0,28.8 223.3,30.8 224.6,33.0 225.9,35.4 227.2,37.9 228.5,40.5 229.9,43.3 231.2,46.2 232.5,49.3 233.8,52.5 235.1,55.7 236.4,59.1 237.7,62.6 239.1,66.1 240.4,69.7 241.7,73.4 243.0,77.0 244.3,80.8 245.6,84.5 246.9,88.3 248.3,92.0 249.6,95.8 250.9,99.5 252.2,103.3 253.5,106.9 254.8,110.6 256.1,114.1 257.5,117.7 258.8,121.1 260.1,124.5 261.4,127.8 262.7,131.0 264.0,134.1 265.3,137.1 266.6,140.1 268.0,142.9 269.3,145.6 270.6,148.2 271.9,150.6 273.2,153.0 274.5,155.2 275.8,157.3 277.2,159.3 278.5,161.2 279.8,163.0 281.1,164.6 282.4,166.1 283.7,167.5 285.0,168.8 286.4,170.0 287.7,171.1 289.0,172.0 290.3,172.9 291.6,173.7 292.9,174.3 294.2,174.9 295.5,175.4 296.9,175.8 298.2,176.1 299.5,176.4 300.8,176.5 302.1,176.7 303.4,176.7 304.7,176.7 306.1,176.7 307.4,176.6 308.7,176.4 310.0,176.2 311.3,176.0 312.6,175.8 313.9,175.5 315.3,175.2 316.6,174.9 317.9,174.5 319.2,174.2 320.5,173.8 321.8,173.5 323.1,173.1 324.5,172.7 325.8,172.4 327.1,172.0 328.4,171.6 329.7,171.3 331.0,170.9 332.3,170.6 333.6,170.3 335.0,170.0 336.3,169.7 337.6,169.4 338.9,169.1 340.2,168.8 341.5,168.6 342.8,168.4 344.2,168.1 345.5,167.9 346.8,167.8 348.1,167.6 349.4,167.4 350.7,167.3 352.0,167.1 353.4,167.0 354.7,166.9 356.0,166.8 357.3,166.7 358.6,166.6 359.9,166.6 361.2,166.5 362.5,166.4 363.9,166.4 365.2,166.3 366.5,166.3 367.8,166.3 369.1,166.2 370.4,166.2 371.7,166.2 373.1,166.2 374.4,166.2 375.7,166.2 377.0,166.2" fill="none" stroke="#4a90d9" stroke-width="1.5" stroke-linejoin="round"/>
  <line x1="450" y1="8.0" x2="785" y2="8.0" stroke="#e5e7eb" stroke-width="0.7"/>
  <text x="445" y="12.0" text-anchor="end" font-size="10" fill="#6b7280">0</text>
  <line x1="450" y1="66.0" x2="785" y2="66.0" stroke="#e5e7eb" stroke-width="0.7"/>
  <text x="445" y="70.0" text-anchor="end" font-size="10" fill="#6b7280">-40</text>
  <line x1="450" y1="124.0" x2="785" y2="124.0" stroke="#e5e7eb" stroke-width="0.7"/>
  <text x="445" y="128.0" text-anchor="end" font-size="10" fill="#6b7280">-80</text>
  <line x1="450" y1="182.0" x2="785" y2="182.0" stroke="#e5e7eb" stroke-width="0.7"/>
  <text x="445" y="186.0" text-anchor="end" font-size="10" fill="#6b7280">-120</text>
  <line x1="450.0" y1="8" x2="450.0" y2="182" stroke="#e5e7eb" stroke-width="0.7"/>
  <text x="450.0" y="198" text-anchor="middle" font-size="10" fill="#6b7280">0</text>
  <line x1="517.0" y1="8" x2="517.0" y2="182" stroke="#e5e7eb" stroke-width="0.7"/>
  <text x="517.0" y="198" text-anchor="middle" font-size="10" fill="#6b7280">0.1</text>
  <line x1="584.0" y1="8" x2="584.0" y2="182" stroke="#e5e7eb" stroke-width="0.7"/>
  <text x="584.0" y="198" text-anchor="middle" font-size="10" fill="#6b7280">0.2</text>
  <line x1="651.0" y1="8" x2="651.0" y2="182" stroke="#e5e7eb" stroke-width="0.7"/>
  <text x="651.0" y="198" text-anchor="middle" font-size="10" fill="#6b7280">0.3</text>
  <line x1="718.0" y1="8" x2="718.0" y2="182" stroke="#e5e7eb" stroke-width="0.7"/>
  <text x="718.0" y="198" text-anchor="middle" font-size="10" fill="#6b7280">0.4</text>
  <line x1="785.0" y1="8" x2="785.0" y2="182" stroke="#e5e7eb" stroke-width="0.7"/>
  <text x="785.0" y="198" text-anchor="middle" font-size="10" fill="#6b7280">0.5</text>
  <line x1="450" y1="8" x2="450" y2="182" stroke="#d1d5db" stroke-width="1"/>
  <line x1="450" y1="182" x2="785" y2="182" stroke="#d1d5db" stroke-width="1"/>
  <polyline points="450.0,8.0 450.2,8.0 450.3,8.0 450.5,8.0 450.7,8.0 450.8,8.0 451.0,8.0 451.1,8.0 451.3,8.0 451.5,8.0 451.6,8.1 451.8,8.1 452.0,8.1 452.1,8.2 452.3,8.3 452.5,8.3 452.6,8.4 452.8,8.6 452.9,8.7 453.1,8.9 453.3,9.0 453.4,9.2 453.6,9.5 453.8,9.7 453.9,10.0 454.1,10.3 454.3,10.7 454.4,11.0 454.6,11.5 454.7,11.9 454.9,12.4 455.1,12.9 455.2,13.5 455.4,14.0 455.6,14.7 455.7,15.3 455.9,16.1 456.1,16.8 456.2,17.6 456.4,18.5 456.5,19.4 456.7,20.3 456.9,21.3 457.0,22.3 457.2,23.4 457.4,24.6 457.5,25.8 457.7,27.1 457.9,28.4 458.0,29.8 458.2,31.2 458.3,32.8 458.5,34.4 458.7,36.0 458.8,37.8 459.0,39.6 459.2,41.6 459.3,43.6 459.5,45.7 459.7,47.9 459.8,50.3 460.0,52.7 460.1,55.3 460.3,58.1 460.5,61.0 460.6,64.1 460.8,67.4 461.0,71.0 461.1,74.9 461.3,79.1 461.5,83.7 461.6,88.9 461.8,94.9 461.9,102.0 462.1,111.2 462.3,125.4 462.4,147.2 462.6,130.0 462.8,129.0 462.9,133.6 463.1,150.5 463.3,140.3 463.4,129.3 463.6,124.1 463.7,121.3 463.9,119.7 464.1,119.1 464.2,119.2 464.4,120.0 464.6,121.3 464.7,123.3 464.9,125.8 465.1,129.2 465.2,133.5 465.4,139.3 465.5,147.9 465.7,166.3 465.9,162.5 466.0,153.6 466.2,151.3 466.4,152.2 466.5,155.9 466.7,165.0 466.9,182.0 467.0,159.7 467.2,152.7 467.3,149.0 467.5,147.2 467.7,146.7 467.8,147.6 468.0,150.0 468.2,155.2 468.3,169.1 468.5,165.3 468.7,151.9 468.8,145.4 469.0,141.3 469.1,138.4 469.3,136.4 469.5,135.1 469.6,134.4 469.8,134.1 470.0,134.4 470.1,135.3 470.3,136.9 470.5,139.2 470.6,142.9 470.8,148.9 470.9,162.5 471.1,162.6 471.3,148.8 471.4,142.7 471.6,139.0 471.8,136.5 471.9,134.9 472.1,133.8 472.3,133.4 472.4,133.4 472.6,134.0 472.7,135.0 472.9,136.7 473.1,139.2 473.2,143.0 473.4,148.9 473.6,161.7 473.7,165.1 473.9,150.3 474.1,144.1 474.2,140.3 474.4,137.9 474.5,136.3 474.7,135.3 474.9,134.9 475.0,135.0 475.2,135.6 475.4,136.7 475.5,138.4 475.7,140.9 475.9,144.5 476.0,150.4 476.2,162.3 476.3,169.0 476.5,152.9 476.7,146.4 476.8,142.6 477.0,140.1 477.2,138.5 477.3,137.6 477.5,137.1 477.7,137.2 477.8,137.8 478.0,138.8 478.1,140.5 478.3,143.0 478.5,146.6 478.6,152.3 478.8,163.5 479.0,173.7 479.1,155.8 479.3,149.1 479.5,145.2 479.6,142.7 479.8,141.0 479.9,140.0 480.1,139.6 480.3,139.6 480.4,140.2 480.6,141.2 480.8,142.9 480.9,145.3 481.1,148.8 481.3,154.3 481.4,164.8 481.6,179.0 481.7,158.9 481.9,151.9 482.1,147.9 482.2,145.3 482.4,143.6 482.6,142.5 482.7,142.0 482.9,142.1 483.1,142.6 483.2,143.6 483.4,145.2 483.5,147.5 483.7,151.0 483.9,156.3 484.0,166.3 484.2,182.0 484.4,161.9 484.5,154.6 484.7,150.5 484.9,147.8 485.0,146.1 485.2,145.0 485.3,144.5 485.5,144.4 485.7,144.9 485.8,145.9 486.0,147.4 486.2,149.7 486.3,153.1 486.5,158.2 486.7,167.7 486.8,182.0 487.0,165.0 487.1,157.3 487.3,153.0 487.5,150.3 487.6,148.5 487.8,147.4 488.0,146.8 488.1,146.7 488.3,147.2 488.5,148.1 488.6,149.6 488.8,151.9 488.9,155.1 489.1,160.1 489.3,169.1 489.4,182.0 489.6,167.9 489.8,159.9 489.9,155.5 490.1,152.7 490.3,150.8 490.4,149.6 490.6,149.1 490.7,149.0 490.9,149.3 491.1,150.2 491.2,151.7 491.4,153.9 491.6,157.1 491.7,161.9 491.9,170.5 492.1,182.0 492.2,170.8 492.4,162.5 492.6,157.9 492.7,155.0 492.9,153.0 493.0,151.8 493.2,151.2 493.4,151.1 493.5,151.4 493.7,152.3 493.9,153.7 494.0,155.8 494.2,158.9 494.4,163.6 494.5,171.8 494.7,182.0 494.8,173.7 495.0,164.9 495.2,160.2 495.3,157.2 495.5,155.2 495.7,153.9 495.8,153.3 496.0,153.1 496.2,153.4 496.3,154.2 496.5,155.6 496.6,157.7 496.8,160.7 497.0,165.2 497.1,173.1 497.3,182.0 497.5,176.6 497.6,167.3 497.8,162.4 498.0,159.3 498.1,157.3 498.3,156.0 498.4,155.2 498.6,155.0 498.8,155.3 498.9,156.1 499.1,157.4 499.3,159.5 499.4,162.4 499.6,166.8 499.8,174.3 499.9,182.0 500.1,179.4 500.2,169.6 500.4,164.5 500.6,161.3 500.7,159.2 500.9,157.9 501.1,157.1 501.2,156.9 501.4,157.1 501.6,157.9 501.7,159.2 501.9,161.1 502.0,164.0 502.2,168.3 502.4,175.5 502.5,182.0 502.7,182.0 502.9,171.8 503.0,166.6 503.2,163.3 503.4,161.1 503.5,159.7 503.7,159.0 503.8,158.7 504.0,158.9 504.2,159.6 504.3,160.9 504.5,162.8 504.7,165.5 504.8,169.7 505.0,176.6 505.2,182.0 505.3,182.0 505.5,174.0 505.6,168.5 505.8,165.2 506.0,163.0 506.1,161.5 506.3,160.7 506.5,160.4 506.6,160.6 506.8,161.2 507.0,162.4 507.1,164.3 507.3,167.0 507.4,171.1 507.6,177.7 507.8,182.0 507.9,182.0 508.1,176.1 508.3,170.5 508.4,167.0 508.6,164.7 508.8,163.3 508.9,162.4 509.1,162.0 509.2,162.2 509.4,162.8 509.6,164.0 509.7,165.8 509.9,168.4 510.1,172.4 510.2,178.8 510.4,182.0 510.6,182.0 510.7,178.2 510.9,172.3 511.0,168.8 511.2,166.4 511.4,164.9 511.5,164.0 511.7,163.6 511.9,163.7 512.0,164.3 512.2,165.5 512.4,167.2 512.5,169.8 512.7,173.6 512.8,179.8 513.0,182.0 513.2,182.0 513.3,180.2 513.5,174.2 513.7,170.5 513.8,168.1 514.0,166.5 514.2,165.6 514.3,165.1 514.5,165.2 514.6,165.8 514.8,166.9 515.0,168.6 515.1,171.1 515.3,174.8 515.5,180.8 515.6,182.0 515.8,182.0 516.0,182.0 516.1,175.9 516.3,172.2 516.4,169.7 516.6,168.1 516.8,167.1 516.9,166.6 517.1,166.7 517.3,167.2 517.4,168.2 517.6,169.9 517.8,172.4 517.9,176.0 518.1,181.8 518.2,182.0 518.4,182.0 518.6,182.0 518.7,177.6 518.9,173.8 519.1,171.2 519.2,169.6 519.4,168.5 519.6,168.0 519.7,168.1 519.9,168.5 520.0,169.6 520.2,171.2 520.4,173.6 520.5,177.1 520.7,182.0 520.9,182.0 521.0,182.0 521.2,182.0 521.4,179.3 521.5,175.3 521.7,172.7 521.8,171.0 522.0,169.9 522.2,169.4 522.3,169.4 522.5,169.9 522.7,170.8 522.8,172.4 523.0,174.7 523.2,178.2 523.3,182.0 523.5,182.0 523.6,182.0 523.8,182.0 524.0,181.0 524.1,176.9 524.3,174.2 524.5,172.4 524.6,171.3 524.8,170.8 525.0,170.7 525.1,171.1 525.3,172.1 525.4,173.6 525.6,175.9 525.8,179.2 525.9,182.0 526.1,182.0 526.3,182.0 526.4,182.0 526.6,182.0 526.8,178.4 526.9,175.6 527.1,173.8 527.2,172.6 527.4,172.0 527.6,172.0 527.7,172.4 527.9,173.3 528.1,174.7 528.2,177.0 528.4,180.2 528.6,182.0 528.7,182.0 528.9,182.0 529.0,182.0 529.2,182.0 529.4,179.8 529.5,177.0 529.7,175.1 529.9,173.9 530.0,173.3 530.2,173.2 530.4,173.5 530.5,174.4 530.7,175.9 530.8,178.0 531.0,181.2 531.2,182.0 531.3,182.0 531.5,182.0 531.7,182.0 531.8,182.0 532.0,181.2 532.2,178.3 532.3,176.4 532.5,175.2 532.6,174.5 532.8,174.4 533.0,174.7 533.1,175.5 533.3,176.9 533.5,179.0 533.6,182.0 533.8,182.0 534.0,182.0 534.1,182.0 534.3,182.0 534.4,182.0 534.6,182.0 534.8,179.7 534.9,177.7 535.1,176.4 535.3,175.7 535.4,175.5 535.6,175.8 535.8,176.6 535.9,178.0 536.1,180.0 536.2,182.0 536.4,182.0 536.6,182.0 536.7,182.0 536.9,182.0 537.1,182.0 537.2,182.0 537.4,180.9 537.6,178.9 537.7,177.6 537.9,176.9 538.0,176.6 538.2,176.9 538.4,177.7 538.5,179.0 538.7,181.0 538.9,182.0 539.0,182.0 539.2,182.0 539.4,182.0 539.5,182.0 539.7,182.0 539.8,182.0 540.0,182.0 540.2,180.1 540.3,178.8 540.5,178.0 540.7,177.7 540.8,178.0 541.0,178.7 541.2,180.0 541.3,181.9 541.5,182.0 541.6,182.0 541.8,182.0 542.0,182.0 542.1,182.0 542.3,182.0 542.5,182.0 542.6,182.0 542.8,181.3 543.0,179.9 543.1,179.1 543.3,178.8 543.4,179.0 543.6,179.7 543.8,180.9 543.9,182.0 544.1,182.0 544.3,182.0 544.4,182.0 544.6,182.0 544.8,182.0 544.9,182.0 545.1,182.0 545.2,182.0 545.4,182.0 545.6,181.0 545.7,180.2 545.9,179.9 546.1,180.0 546.2,180.7 546.4,181.9 546.6,182.0 546.7,182.0 546.9,182.0 547.0,182.0 547.2,182.0 547.4,182.0 547.5,182.0 547.7,182.0 547.9,182.0 548.0,182.0 548.2,182.0 548.4,181.2 548.5,180.9 548.7,181.0 548.8,181.6 549.0,182.0 549.2,182.0 549.3,182.0 549.5,182.0 549.7,182.0 549.8,182.0 550.0,182.0 550.2,182.0 550.3,182.0 550.5,182.0 550.6,182.0 550.8,182.0 551.0,182.0 551.1,181.9 551.3,182.0 551.5,182.0 551.6,182.0 551.8,182.0 552.0,182.0 552.1,182.0 552.3,182.0 552.4,182.0 552.6,182.0 552.8,182.0 552.9,182.0 553.1,182.0 553.3,182.0 553.4,182.0 553.6,182.0 553.8,182.0 553.9,182.0 554.1,182.0 554.2,182.0 554.4,182.0 554.6,182.0 554.7,182.0 554.9,182.0 555.1,182.0 555.2,182.0 555.4,182.0 555.6,182.0 555.7,182.0 555.9,182.0 556.0,182.0 556.2,182.0 556.4,182.0 556.5,182.0 556.7,182.0 556.9,182.0 557.0,182.0 557.2,182.0 557.4,182.0 557.5,182.0 557.7,182.0 557.8,182.0 558.0,182.0 558.2,182.0 558.3,182.0 558.5,182.0 558.7,182.0 558.8,182.0 559.0,182.0 559.2,182.0 559.3,182.0 559.5,182.0 559.6,182.0 559.8,182.0 560.0,182.0 560.1,182.0 560.3,182.0 560.5,182.0 560.6,182.0 560.8,182.0 561.0,182.0 561.1,182.0 561.3,182.0 561.4,182.0 561.6,182.0 561.8,182.0 561.9,182.0 562.1,182.0 562.3,182.0 562.4,182.0 562.6,182.0 562.8,182.0 562.9,182.0 563.1,182.0 563.2,182.0 563.4,182.0 563.6,182.0 563.7,182.0 563.9,182.0 564.1,182.0 564.2,182.0 564.4,182.0 564.6,182.0 564.7,182.0 564.9,182.0 565.0,182.0 565.2,182.0 565.4,182.0 565.5,182.0 565.7,182.0 565.9,182.0 566.0,182.0 566.2,182.0 566.4,182.0 566.5,182.0 566.7,182.0 566.8,182.0 567.0,182.0 567.2,182.0 567.3,182.0 567.5,182.0 567.7,182.0 567.8,182.0 568.0,182.0 568.2,182.0 568.3,182.0 568.5,182.0 568.6,182.0 568.8,182.0 569.0,182.0 569.1,182.0 569.3,182.0 569.5,182.0 569.6,182.0 569.8,182.0 570.0,182.0 570.1,182.0 570.3,182.0 570.4,182.0 570.6,182.0 570.8,182.0 570.9,182.0 571.1,182.0 571.3,182.0 571.4,182.0 571.6,182.0 571.8,182.0 571.9,182.0 572.1,182.0 572.2,182.0 572.4,182.0 572.6,182.0 572.7,182.0 572.9,182.0 573.1,182.0 573.2,182.0 573.4,182.0 573.6,182.0 573.7,182.0 573.9,182.0 574.0,182.0 574.2,182.0 574.4,182.0 574.5,182.0 574.7,182.0 574.9,182.0 575.0,182.0 575.2,182.0 575.4,182.0 575.5,182.0 575.7,182.0 575.9,182.0 576.0,182.0 576.2,182.0 576.3,182.0 576.5,182.0 576.7,182.0 576.8,182.0 577.0,182.0 577.2,182.0 577.3,182.0 577.5,182.0 577.7,182.0 577.8,182.0 578.0,182.0 578.1,182.0 578.3,182.0 578.5,182.0 578.6,182.0 578.8,182.0 579.0,182.0 579.1,182.0 579.3,182.0 579.5,182.0 579.6,182.0 579.8,182.0 579.9,182.0 580.1,182.0 580.3,182.0 580.4,182.0 580.6,182.0 580.8,182.0 580.9,182.0 581.1,182.0 581.3,182.0 581.4,182.0 581.6,182.0 581.7,182.0 581.9,182.0 582.1,182.0 582.2,182.0 582.4,182.0 582.6,182.0 582.7,182.0 582.9,182.0 583.1,182.0 583.2,182.0 583.4,182.0 583.5,182.0 583.7,182.0 583.9,182.0 584.0,182.0 584.2,182.0 584.4,182.0 584.5,182.0 584.7,182.0 584.9,182.0 585.0,182.0 585.2,182.0 585.3,182.0 585.5,182.0 585.7,182.0 585.8,182.0 586.0,182.0 586.2,182.0 586.3,182.0 586.5,182.0 586.7,182.0 586.8,182.0 587.0,182.0 587.1,182.0 587.3,182.0 587.5,182.0 587.6,182.0 587.8,182.0 588.0,182.0 588.1,182.0 588.3,182.0 588.5,182.0 588.6,182.0 588.8,182.0 588.9,182.0 589.1,182.0 589.3,182.0 589.4,182.0 589.6,182.0 589.8,182.0 589.9,182.0 590.1,182.0 590.3,182.0 590.4,182.0 590.6,182.0 590.7,182.0 590.9,182.0 591.1,182.0 591.2,182.0 591.4,182.0 591.6,182.0 591.7,182.0 591.9,182.0 592.1,182.0 592.2,182.0 592.4,182.0 592.5,182.0 592.7,182.0 592.9,182.0 593.0,182.0 593.2,182.0 593.4,182.0 593.5,182.0 593.7,182.0 593.9,182.0 594.0,182.0 594.2,182.0 594.3,182.0 594.5,182.0 594.7,182.0 594.8,182.0 595.0,182.0 595.2,182.0 595.3,182.0 595.5,182.0 595.7,182.0 595.8,182.0 596.0,182.0 596.1,182.0 596.3,182.0 596.5,182.0 596.6,182.0 596.8,182.0 597.0,182.0 597.1,182.0 597.3,182.0 597.5,182.0 597.6,182.0 597.8,182.0 597.9,182.0 598.1,182.0 598.3,182.0 598.4,182.0 598.6,182.0 598.8,182.0 598.9,182.0 599.1,182.0 599.3,182.0 599.4,182.0 599.6,182.0 599.7,182.0 599.9,182.0 600.1,182.0 600.2,182.0 600.4,182.0 600.6,182.0 600.7,182.0 600.9,182.0 601.1,182.0 601.2,182.0 601.4,182.0 601.5,182.0 601.7,182.0 601.9,182.0 602.0,182.0 602.2,182.0 602.4,182.0 602.5,182.0 602.7,182.0 602.9,182.0 603.0,182.0 603.2,182.0 603.3,182.0 603.5,182.0 603.7,182.0 603.8,182.0 604.0,182.0 604.2,182.0 604.3,182.0 604.5,182.0 604.7,182.0 604.8,182.0 605.0,182.0 605.1,182.0 605.3,182.0 605.5,182.0 605.6,182.0 605.8,182.0 606.0,182.0 606.1,182.0 606.3,182.0 606.5,182.0 606.6,182.0 606.8,182.0 606.9,182.0 607.1,182.0 607.3,182.0 607.4,182.0 607.6,182.0 607.8,182.0 607.9,182.0 608.1,182.0 608.3,182.0 608.4,182.0 608.6,182.0 608.7,182.0 608.9,182.0 609.1,182.0 609.2,182.0 609.4,182.0 609.6,182.0 609.7,182.0 609.9,182.0 610.1,182.0 610.2,182.0 610.4,182.0 610.5,182.0 610.7,182.0 610.9,182.0 611.0,182.0 611.2,182.0 611.4,182.0 611.5,182.0 611.7,182.0 611.9,182.0 612.0,182.0 612.2,182.0 612.3,182.0 612.5,182.0 612.7,182.0 612.8,182.0 613.0,182.0 613.2,182.0 613.3,182.0 613.5,182.0 613.7,182.0 613.8,182.0 614.0,182.0 614.1,182.0 614.3,182.0 614.5,182.0 614.6,182.0 614.8,182.0 615.0,182.0 615.1,182.0 615.3,182.0 615.5,182.0 615.6,182.0 615.8,182.0 615.9,182.0 616.1,182.0 616.3,182.0 616.4,182.0 616.6,182.0 616.8,182.0 616.9,182.0 617.1,182.0 617.3,182.0 617.4,182.0 617.6,182.0 617.7,182.0 617.9,182.0 618.1,182.0 618.2,182.0 618.4,182.0 618.6,182.0 618.7,182.0 618.9,182.0 619.1,182.0 619.2,182.0 619.4,182.0 619.5,182.0 619.7,182.0 619.9,182.0 620.0,182.0 620.2,182.0 620.4,182.0 620.5,182.0 620.7,182.0 620.9,182.0 621.0,182.0 621.2,182.0 621.3,182.0 621.5,182.0 621.7,182.0 621.8,182.0 622.0,182.0 622.2,182.0 622.3,182.0 622.5,182.0 622.7,182.0 622.8,182.0 623.0,182.0 623.1,182.0 623.3,182.0 623.5,182.0 623.6,182.0 623.8,182.0 624.0,182.0 624.1,182.0 624.3,182.0 624.5,182.0 624.6,182.0 624.8,182.0 624.9,182.0 625.1,182.0 625.3,182.0 625.4,182.0 625.6,182.0 625.8,182.0 625.9,182.0 626.1,182.0 626.3,182.0 626.4,182.0 626.6,182.0 626.7,182.0 626.9,182.0 627.1,182.0 627.2,182.0 627.4,182.0 627.6,182.0 627.7,182.0 627.9,182.0 628.1,182.0 628.2,182.0 628.4,182.0 628.5,182.0 628.7,182.0 628.9,182.0 629.0,182.0 629.2,182.0 629.4,182.0 629.5,182.0 629.7,182.0 629.9,182.0 630.0,182.0 630.2,182.0 630.3,182.0 630.5,182.0 630.7,182.0 630.8,182.0 631.0,182.0 631.2,182.0 631.3,182.0 631.5,182.0 631.7,182.0 631.8,182.0 632.0,182.0 632.1,182.0 632.3,182.0 632.5,182.0 632.6,182.0 632.8,182.0 633.0,182.0 633.1,182.0 633.3,182.0 633.5,182.0 633.6,182.0 633.8,182.0 633.9,182.0 634.1,182.0 634.3,182.0 634.4,182.0 634.6,182.0 634.8,182.0 634.9,182.0 635.1,182.0 635.3,182.0 635.4,182.0 635.6,182.0 635.7,182.0 635.9,182.0 636.1,182.0 636.2,182.0 636.4,182.0 636.6,182.0 636.7,182.0 636.9,182.0 637.1,182.0 637.2,182.0 637.4,182.0 637.5,182.0 637.7,182.0 637.9,182.0 638.0,182.0 638.2,182.0 638.4,182.0 638.5,182.0 638.7,182.0 638.9,182.0 639.0,182.0 639.2,182.0 639.3,182.0 639.5,182.0 639.7,182.0 639.8,182.0 640.0,182.0 640.2,182.0 640.3,182.0 640.5,182.0 640.7,182.0 640.8,182.0 641.0,182.0 641.1,182.0 641.3,182.0 641.5,182.0 641.6,182.0 641.8,182.0 642.0,182.0 642.1,182.0 642.3,182.0 642.5,182.0 642.6,182.0 642.8,182.0 642.9,182.0 643.1,182.0 643.3,182.0 643.4,182.0 643.6,182.0 643.8,182.0 643.9,182.0 644.1,182.0 644.3,182.0 644.4,182.0 644.6,182.0 644.7,182.0 644.9,182.0 645.1,182.0 645.2,182.0 645.4,182.0 645.6,182.0 645.7,182.0 645.9,182.0 646.1,182.0 646.2,182.0 646.4,182.0 646.5,182.0 646.7,182.0 646.9,182.0 647.0,182.0 647.2,182.0 647.4,182.0 647.5,182.0 647.7,182.0 647.9,182.0 648.0,182.0 648.2,182.0 648.3,182.0 648.5,182.0 648.7,182.0 648.8,182.0 649.0,182.0 649.2,182.0 649.3,182.0 649.5,182.0 649.7,182.0 649.8,182.0 650.0,182.0 650.1,182.0 650.3,182.0 650.5,182.0 650.6,182.0 650.8,182.0 651.0,182.0 651.1,182.0 651.3,182.0 651.5,182.0 651.6,182.0 651.8,182.0 651.9,182.0 652.1,182.0 652.3,182.0 652.4,182.0 652.6,182.0 652.8,182.0 652.9,182.0 653.1,182.0 653.3,182.0 653.4,182.0 653.6,182.0 653.7,182.0 653.9,182.0 654.1,182.0 654.2,182.0 654.4,182.0 654.6,182.0 654.7,182.0 654.9,182.0 655.1,182.0 655.2,182.0 655.4,182.0 655.5,182.0 655.7,182.0 655.9,182.0 656.0,182.0 656.2,182.0 656.4,182.0 656.5,182.0 656.7,182.0 656.9,182.0 657.0,182.0 657.2,182.0 657.3,182.0 657.5,182.0 657.7,182.0 657.8,182.0 658.0,182.0 658.2,182.0 658.3,182.0 658.5,182.0 658.7,182.0 658.8,182.0 659.0,182.0 659.1,182.0 659.3,182.0 659.5,182.0 659.6,182.0 659.8,182.0 660.0,182.0 660.1,182.0 660.3,182.0 660.5,182.0 660.6,182.0 660.8,182.0 661.0,182.0 661.1,182.0 661.3,182.0 661.4,182.0 661.6,182.0 661.8,182.0 661.9,182.0 662.1,182.0 662.3,182.0 662.4,182.0 662.6,182.0 662.8,182.0 662.9,182.0 663.1,182.0 663.2,182.0 663.4,182.0 663.6,182.0 663.7,182.0 663.9,182.0 664.1,182.0 664.2,182.0 664.4,182.0 664.6,182.0 664.7,182.0 664.9,182.0 665.0,182.0 665.2,182.0 665.4,182.0 665.5,182.0 665.7,182.0 665.9,182.0 666.0,182.0 666.2,182.0 666.4,182.0 666.5,182.0 666.7,182.0 666.8,182.0 667.0,182.0 667.2,182.0 667.3,182.0 667.5,182.0 667.7,182.0 667.8,182.0 668.0,182.0 668.2,182.0 668.3,182.0 668.5,182.0 668.6,182.0 668.8,182.0 669.0,182.0 669.1,182.0 669.3,182.0 669.5,182.0 669.6,182.0 669.8,182.0 670.0,182.0 670.1,182.0 670.3,182.0 670.4,182.0 670.6,182.0 670.8,182.0 670.9,182.0 671.1,182.0 671.3,182.0 671.4,182.0 671.6,182.0 671.8,182.0 671.9,182.0 672.1,182.0 672.2,182.0 672.4,182.0 672.6,182.0 672.7,182.0 672.9,182.0 673.1,182.0 673.2,182.0 673.4,182.0 673.6,182.0 673.7,182.0 673.9,182.0 674.0,182.0 674.2,182.0 674.4,182.0 674.5,182.0 674.7,182.0 674.9,182.0 675.0,182.0 675.2,182.0 675.4,182.0 675.5,182.0 675.7,182.0 675.8,182.0 676.0,182.0 676.2,182.0 676.3,182.0 676.5,182.0 676.7,182.0 676.8,182.0 677.0,182.0 677.2,182.0 677.3,182.0 677.5,182.0 677.6,182.0 677.8,182.0 678.0,182.0 678.1,182.0 678.3,182.0 678.5,182.0 678.6,182.0 678.8,182.0 679.0,182.0 679.1,182.0 679.3,182.0 679.4,182.0 679.6,182.0 679.8,182.0 679.9,182.0 680.1,182.0 680.3,182.0 680.4,182.0 680.6,182.0 680.8,182.0 680.9,182.0 681.1,182.0 681.2,182.0 681.4,182.0 681.6,182.0 681.7,182.0 681.9,182.0 682.1,182.0 682.2,182.0 682.4,182.0 682.6,182.0 682.7,182.0 682.9,182.0 683.0,182.0 683.2,182.0 683.4,182.0 683.5,182.0 683.7,182.0 683.9,182.0 684.0,182.0 684.2,182.0 684.4,182.0 684.5,182.0 684.7,182.0 684.8,182.0 685.0,182.0 685.2,182.0 685.3,182.0 685.5,182.0 685.7,182.0 685.8,182.0 686.0,182.0 686.2,182.0 686.3,182.0 686.5,182.0 686.6,182.0 686.8,182.0 687.0,182.0 687.1,182.0 687.3,182.0 687.5,182.0 687.6,182.0 687.8,182.0 688.0,182.0 688.1,182.0 688.3,182.0 688.4,182.0 688.6,182.0 688.8,182.0 688.9,182.0 689.1,182.0 689.3,182.0 689.4,182.0 689.6,182.0 689.8,182.0 689.9,182.0 690.1,182.0 690.2,182.0 690.4,182.0 690.6,182.0 690.7,182.0 690.9,182.0 691.1,182.0 691.2,182.0 691.4,182.0 691.6,182.0 691.7,182.0 691.9,182.0 692.0,182.0 692.2,182.0 692.4,182.0 692.5,182.0 692.7,182.0 692.9,182.0 693.0,182.0 693.2,182.0 693.4,182.0 693.5,182.0 693.7,182.0 693.8,182.0 694.0,182.0 694.2,182.0 694.3,182.0 694.5,182.0 694.7,182.0 694.8,182.0 695.0,182.0 695.2,182.0 695.3,182.0 695.5,182.0 695.6,182.0 695.8,182.0 696.0,182.0 696.1,182.0 696.3,182.0 696.5,182.0 696.6,182.0 696.8,182.0 697.0,182.0 697.1,182.0 697.3,182.0 697.4,182.0 697.6,182.0 697.8,182.0 697.9,182.0 698.1,182.0 698.3,182.0 698.4,182.0 698.6,182.0 698.8,182.0 698.9,182.0 699.1,182.0 699.2,182.0 699.4,182.0 699.6,182.0 699.7,182.0 699.9,182.0 700.1,182.0 700.2,182.0 700.4,182.0 700.6,182.0 700.7,182.0 700.9,182.0 701.0,182.0 701.2,182.0 701.4,182.0 701.5,182.0 701.7,182.0 701.9,182.0 702.0,182.0 702.2,182.0 702.4,182.0 702.5,182.0 702.7,182.0 702.8,182.0 703.0,182.0 703.2,182.0 703.3,182.0 703.5,182.0 703.7,182.0 703.8,182.0 704.0,182.0 704.2,182.0 704.3,182.0 704.5,182.0 704.6,182.0 704.8,182.0 705.0,182.0 705.1,182.0 705.3,182.0 705.5,182.0 705.6,182.0 705.8,182.0 706.0,182.0 706.1,182.0 706.3,182.0 706.4,182.0 706.6,182.0 706.8,182.0 706.9,182.0 707.1,182.0 707.3,182.0 707.4,182.0 707.6,182.0 707.8,182.0 707.9,182.0 708.1,182.0 708.2,182.0 708.4,182.0 708.6,182.0 708.7,182.0 708.9,182.0 709.1,182.0 709.2,182.0 709.4,182.0 709.6,182.0 709.7,182.0 709.9,182.0 710.0,182.0 710.2,182.0 710.4,182.0 710.5,182.0 710.7,182.0 710.9,182.0 711.0,182.0 711.2,182.0 711.4,182.0 711.5,182.0 711.7,182.0 711.8,182.0 712.0,182.0 712.2,182.0 712.3,182.0 712.5,182.0 712.7,182.0 712.8,182.0 713.0,182.0 713.2,182.0 713.3,182.0 713.5,182.0 713.6,182.0 713.8,182.0 714.0,182.0 714.1,182.0 714.3,182.0 714.5,182.0 714.6,182.0 714.8,182.0 715.0,182.0 715.1,182.0 715.3,182.0 715.4,182.0 715.6,182.0 715.8,182.0 715.9,182.0 716.1,182.0 716.3,182.0 716.4,182.0 716.6,182.0 716.8,182.0 716.9,182.0 717.1,182.0 717.2,182.0 717.4,182.0 717.6,182.0 717.7,182.0 717.9,182.0 718.1,182.0 718.2,182.0 718.4,182.0 718.6,182.0 718.7,182.0 718.9,182.0 719.0,182.0 719.2,182.0 719.4,182.0 719.5,182.0 719.7,182.0 719.9,182.0 720.0,182.0 720.2,182.0 720.4,182.0 720.5,182.0 720.7,182.0 720.8,182.0 721.0,182.0 721.2,182.0 721.3,182.0 721.5,182.0 721.7,182.0 721.8,182.0 722.0,182.0 722.2,182.0 722.3,182.0 722.5,182.0 722.6,182.0 722.8,182.0 723.0,182.0 723.1,182.0 723.3,182.0 723.5,182.0 723.6,182.0 723.8,182.0 724.0,182.0 724.1,182.0 724.3,182.0 724.4,182.0 724.6,182.0 724.8,182.0 724.9,182.0 725.1,182.0 725.3,182.0 725.4,182.0 725.6,182.0 725.8,182.0 725.9,182.0 726.1,182.0 726.2,182.0 726.4,182.0 726.6,182.0 726.7,182.0 726.9,182.0 727.1,182.0 727.2,182.0 727.4,182.0 727.6,182.0 727.7,182.0 727.9,182.0 728.0,182.0 728.2,182.0 728.4,182.0 728.5,182.0 728.7,182.0 728.9,182.0 729.0,182.0 729.2,182.0 729.4,182.0 729.5,182.0 729.7,182.0 729.8,182.0 730.0,182.0 730.2,182.0 730.3,182.0 730.5,182.0 730.7,182.0 730.8,182.0 731.0,182.0 731.2,182.0 731.3,182.0 731.5,182.0 731.6,182.0 731.8,182.0 732.0,182.0 732.1,182.0 732.3,182.0 732.5,182.0 732.6,182.0 732.8,182.0 733.0,182.0 733.1,182.0 733.3,182.0 733.4,182.0 733.6,182.0 733.8,182.0 733.9,182.0 734.1,182.0 734.3,182.0 734.4,182.0 734.6,182.0 734.8,182.0 734.9,182.0 735.1,182.0 735.2,182.0 735.4,182.0 735.6,182.0 735.7,182.0 735.9,182.0 736.1,182.0 736.2,182.0 736.4,182.0 736.6,182.0 736.7,182.0 736.9,182.0 737.0,182.0 737.2,182.0 737.4,182.0 737.5,182.0 737.7,182.0 737.9,182.0 738.0,182.0 738.2,182.0 738.4,182.0 738.5,182.0 738.7,182.0 738.8,182.0 739.0,182.0 739.2,182.0 739.3,182.0 739.5,182.0 739.7,182.0 739.8,182.0 740.0,182.0 740.2,182.0 740.3,182.0 740.5,182.0 740.6,182.0 740.8,182.0 741.0,182.0 741.1,182.0 741.3,182.0 741.5,182.0 741.6,182.0 741.8,182.0 742.0,182.0 742.1,182.0 742.3,182.0 742.4,182.0 742.6,182.0 742.8,182.0 742.9,182.0 743.1,182.0 743.3,182.0 743.4,182.0 743.6,182.0 743.8,182.0 743.9,182.0 744.1,182.0 744.3,182.0 744.4,182.0 744.6,182.0 744.7,182.0 744.9,182.0 745.1,182.0 745.2,182.0 745.4,182.0 745.6,182.0 745.7,182.0 745.9,182.0 746.1,182.0 746.2,182.0 746.4,182.0 746.5,182.0 746.7,182.0 746.9,182.0 747.0,182.0 747.2,182.0 747.4,182.0 747.5,182.0 747.7,182.0 747.9,182.0 748.0,182.0 748.2,182.0 748.3,182.0 748.5,182.0 748.7,182.0 748.8,182.0 749.0,182.0 749.2,182.0 749.3,182.0 749.5,182.0 749.7,182.0 749.8,182.0 750.0,182.0 750.1,182.0 750.3,182.0 750.5,182.0 750.6,182.0 750.8,182.0 751.0,182.0 751.1,182.0 751.3,182.0 751.5,182.0 751.6,182.0 751.8,182.0 751.9,182.0 752.1,182.0 752.3,182.0 752.4,182.0 752.6,182.0 752.8,182.0 752.9,182.0 753.1,182.0 753.3,182.0 753.4,182.0 753.6,182.0 753.7,182.0 753.9,182.0 754.1,182.0 754.2,182.0 754.4,182.0 754.6,182.0 754.7,182.0 754.9,182.0 755.1,182.0 755.2,182.0 755.4,182.0 755.5,182.0 755.7,182.0 755.9,182.0 756.0,182.0 756.2,182.0 756.4,182.0 756.5,182.0 756.7,182.0 756.9,182.0 757.0,182.0 757.2,182.0 757.3,182.0 757.5,182.0 757.7,182.0 757.8,182.0 758.0,182.0 758.2,182.0 758.3,182.0 758.5,182.0 758.7,182.0 758.8,182.0 759.0,182.0 759.1,182.0 759.3,182.0 759.5,182.0 759.6,182.0 759.8,182.0 760.0,182.0 760.1,182.0 760.3,182.0 760.5,182.0 760.6,182.0 760.8,182.0 760.9,182.0 761.1,182.0 761.3,182.0 761.4,182.0 761.6,182.0 761.8,182.0 761.9,182.0 762.1,182.0 762.3,182.0 762.4,182.0 762.6,182.0 762.7,182.0 762.9,182.0 763.1,182.0 763.2,182.0 763.4,182.0 763.6,182.0 763.7,182.0 763.9,182.0 764.1,182.0 764.2,182.0 764.4,182.0 764.5,182.0 764.7,182.0 764.9,182.0 765.0,182.0 765.2,182.0 765.4,182.0 765.5,182.0 765.7,182.0 765.9,182.0 766.0,182.0 766.2,182.0 766.3,182.0 766.5,182.0 766.7,182.0 766.8,182.0 767.0,182.0 767.2,182.0 767.3,182.0 767.5,182.0 767.7,182.0 767.8,182.0 768.0,182.0 768.1,182.0 768.3,182.0 768.5,182.0 768.6,182.0 768.8,182.0 769.0,182.0 769.1,182.0 769.3,182.0 769.5,182.0 769.6,182.0 769.8,182.0 769.9,182.0 770.1,182.0 770.3,182.0 770.4,182.0 770.6,182.0 770.8,182.0 770.9,182.0 771.1,182.0 771.3,182.0 771.4,182.0 771.6,182.0 771.7,182.0 771.9,182.0 772.1,182.0 772.2,182.0 772.4,182.0 772.6,182.0 772.7,182.0 772.9,182.0 773.1,182.0 773.2,182.0 773.4,182.0 773.5,182.0 773.7,182.0 773.9,182.0 774.0,182.0 774.2,182.0 774.4,182.0 774.5,182.0 774.7,182.0 774.9,182.0 775.0,182.0 775.2,182.0 775.3,182.0 775.5,182.0 775.7,182.0 775.8,182.0 776.0,182.0 776.2,182.0 776.3,182.0 776.5,182.0 776.7,182.0 776.8,182.0 777.0,182.0 777.1,182.0 777.3,182.0 777.5,182.0 777.6,182.0 777.8,182.0 778.0,182.0 778.1,182.0 778.3,182.0 778.5,182.0 778.6,182.0 778.8,182.0 778.9,182.0 779.1,182.0 779.3,182.0 779.4,182.0 779.6,182.0 779.8,182.0 779.9,182.0 780.1,182.0 780.3,182.0 780.4,182.0 780.6,182.0 780.7,182.0 780.9,182.0 781.1,182.0 781.2,182.0 781.4,182.0 781.6,182.0 781.7,182.0 781.9,182.0 782.1,182.0 782.2,182.0 782.4,182.0 782.5,182.0 782.7,182.0 782.9,182.0 783.0,182.0 783.2,182.0 783.4,182.0 783.5,182.0 783.7,182.0 783.9,182.0 784.0,182.0 784.2,182.0 784.3,182.0 784.5,182.0 784.7,182.0 784.8,182.0 785.0,182.0" fill="none" stroke="#4a90d9" stroke-width="1.5" stroke-linejoin="round"/>
  <text x="209.5" y="214" text-anchor="middle" font-size="11" fill="#6b7280">n / N</text>
  <text x="617.5" y="214" text-anchor="middle" font-size="11" fill="#6b7280">Normalized frequency (× Fₛ)</text>
</svg>
