<svg xmlns="http://www.w3.org/2000/svg" viewBox="0 0 560 210" width="560" height="210" style="font-family:system-ui,-apple-system,sans-serif">
  <rect width="560" height="210" fill="#fafafa" rx="6"/>
  <text x="280" y="18" text-anchor="middle" font-size="12" font-weight="600" fill="#374151">flatTop</text>
  <line x1="52" y1="166.0" x2="257" y2="166.0" stroke="#e5e7eb" stroke-width="0.5"/>
  <text x="48" y="169.0" text-anchor="end" font-size="7.5" fill="#6b7280">0</text>
  <line x1="52" y1="138.4" x2="257" y2="138.4" stroke="#e5e7eb" stroke-width="0.5"/>
  <text x="48" y="141.4" text-anchor="end" font-size="7.5" fill="#6b7280">1</text>
  <line x1="52" y1="110.8" x2="257" y2="110.8" stroke="#e5e7eb" stroke-width="0.5"/>
  <text x="48" y="113.8" text-anchor="end" font-size="7.5" fill="#6b7280">2</text>
  <line x1="52" y1="83.2" x2="257" y2="83.2" stroke="#e5e7eb" stroke-width="0.5"/>
  <text x="48" y="86.2" text-anchor="end" font-size="7.5" fill="#6b7280">3</text>
  <line x1="52" y1="55.6" x2="257" y2="55.6" stroke="#e5e7eb" stroke-width="0.5"/>
  <text x="48" y="58.6" text-anchor="end" font-size="7.5" fill="#6b7280">4</text>
  <line x1="52" y1="28.0" x2="257" y2="28.0" stroke="#e5e7eb" stroke-width="0.5"/>
  <text x="48" y="31.0" text-anchor="end" font-size="7.5" fill="#6b7280">5</text>
  <line x1="52.0" y1="28" x2="52.0" y2="166" stroke="#e5e7eb" stroke-width="0.5"/>
  <text x="52.0" y="178" text-anchor="middle" font-size="7.5" fill="#6b7280">0</text>
  <line x1="154.5" y1="28" x2="154.5" y2="166" stroke="#e5e7eb" stroke-width="0.5"/>
  <text x="154.5" y="178" text-anchor="middle" font-size="7.5" fill="#6b7280">0.5</text>
  <line x1="257.0" y1="28" x2="257.0" y2="166" stroke="#e5e7eb" stroke-width="0.5"/>
  <text x="257.0" y="178" text-anchor="middle" font-size="7.5" fill="#6b7280">1</text>
  <line x1="52" y1="28" x2="52" y2="166" stroke="#d1d5db" stroke-width="0.75"/>
  <line x1="52" y1="166" x2="257" y2="166" stroke="#d1d5db" stroke-width="0.75"/>
  <path d="M52.0,166.0 52.0,166.0 52.8,166.0 53.6,166.0 54.4,166.0 55.2,166.0 56.0,166.0 56.8,166.0 57.6,166.0 58.4,166.0 59.2,166.0 60.0,166.0 60.8,166.0 61.6,166.0 62.5,166.0 63.3,166.0 64.1,166.0 64.9,166.0 65.7,166.0 66.5,166.0 67.3,166.0 68.1,166.0 68.9,166.0 69.7,166.0 70.5,166.0 71.3,166.0 72.1,166.0 72.9,166.0 73.7,166.0 74.5,166.0 75.3,166.0 76.1,166.0 76.9,166.0 77.7,166.0 78.5,166.0 79.3,166.0 80.1,166.0 80.9,166.0 81.7,166.0 82.5,166.0 83.4,166.0 84.2,166.0 85.0,166.0 85.8,166.0 86.6,166.0 87.4,166.0 88.2,166.0 89.0,166.0 89.8,166.0 90.6,166.0 91.4,166.0 92.2,166.0 93.0,166.0 93.8,166.0 94.6,166.0 95.4,166.0 96.2,166.0 97.0,166.0 97.8,166.0 98.6,166.0 99.4,166.0 100.2,166.0 101.0,166.0 101.8,166.0 102.6,166.0 103.5,166.0 104.3,166.0 105.1,166.0 105.9,166.0 106.7,166.0 107.5,166.0 108.3,166.0 109.1,166.0 109.9,166.0 110.7,164.6 111.5,163.2 112.3,161.7 113.1,160.0 113.9,158.3 114.7,156.4 115.5,154.5 116.3,152.4 117.1,150.3 117.9,148.0 118.7,145.7 119.5,143.2 120.3,140.7 121.1,138.0 121.9,135.3 122.7,132.5 123.5,129.6 124.4,126.7 125.2,123.7 126.0,120.6 126.8,117.5 127.6,114.3 128.4,111.1 129.2,107.9 130.0,104.6 130.8,101.3 131.6,98.0 132.4,94.8 133.2,91.5 134.0,88.2 134.8,85.0 135.6,81.8 136.4,78.7 137.2,75.6 138.0,72.6 138.8,69.7 139.6,66.8 140.4,64.0 141.2,61.4 142.0,58.8 142.8,56.4 143.6,54.1 144.5,51.9 145.3,49.8 146.1,47.9 146.9,46.2 147.7,44.6 148.5,43.2 149.3,41.9 150.1,40.8 150.9,39.9 151.7,39.2 152.5,38.6 153.3,38.3 154.1,38.1 154.9,38.1 155.7,38.3 156.5,38.6 157.3,39.2 158.1,39.9 158.9,40.8 159.7,41.9 160.5,43.2 161.3,44.6 162.1,46.2 162.9,47.9 163.7,49.8 164.5,51.9 165.4,54.1 166.2,56.4 167.0,58.8 167.8,61.4 168.6,64.0 169.4,66.8 170.2,69.7 171.0,72.6 171.8,75.6 172.6,78.7 173.4,81.8 174.2,85.0 175.0,88.2 175.8,91.5 176.6,94.8 177.4,98.0 178.2,101.3 179.0,104.6 179.8,107.9 180.6,111.1 181.4,114.3 182.2,117.5 183.0,120.6 183.8,123.7 184.6,126.7 185.5,129.6 186.3,132.5 187.1,135.3 187.9,138.0 188.7,140.7 189.5,143.2 190.3,145.7 191.1,148.0 191.9,150.3 192.7,152.4 193.5,154.5 194.3,156.4 195.1,158.3 195.9,160.0 196.7,161.7 197.5,163.2 198.3,164.6 199.1,166.0 199.9,166.0 200.7,166.0 201.5,166.0 202.3,166.0 203.1,166.0 203.9,166.0 204.7,166.0 205.5,166.0 206.4,166.0 207.2,166.0 208.0,166.0 208.8,166.0 209.6,166.0 210.4,166.0 211.2,166.0 212.0,166.0 212.8,166.0 213.6,166.0 214.4,166.0 215.2,166.0 216.0,166.0 216.8,166.0 217.6,166.0 218.4,166.0 219.2,166.0 220.0,166.0 220.8,166.0 221.6,166.0 222.4,166.0 223.2,166.0 224.0,166.0 224.8,166.0 225.6,166.0 226.5,166.0 227.3,166.0 228.1,166.0 228.9,166.0 229.7,166.0 230.5,166.0 231.3,166.0 232.1,166.0 232.9,166.0 233.7,166.0 234.5,166.0 235.3,166.0 236.1,166.0 236.9,166.0 237.7,166.0 238.5,166.0 239.3,166.0 240.1,166.0 240.9,166.0 241.7,166.0 242.5,166.0 243.3,166.0 244.1,166.0 244.9,166.0 245.7,166.0 246.5,166.0 247.4,166.0 248.2,166.0 249.0,166.0 249.8,166.0 250.6,166.0 251.4,166.0 252.2,166.0 253.0,166.0 253.8,166.0 254.6,166.0 255.4,166.0 256.2,166.0 257.0,166.0 L257.0,166.0 Z" fill="#4a90d9" fill-opacity="0.06"/>
  <polyline points="52.0,166.0 52.8,166.0 53.6,166.0 54.4,166.0 55.2,166.0 56.0,166.0 56.8,166.0 57.6,166.0 58.4,166.0 59.2,166.0 60.0,166.0 60.8,166.0 61.6,166.0 62.5,166.0 63.3,166.0 64.1,166.0 64.9,166.0 65.7,166.0 66.5,166.0 67.3,166.0 68.1,166.0 68.9,166.0 69.7,166.0 70.5,166.0 71.3,166.0 72.1,166.0 72.9,166.0 73.7,166.0 74.5,166.0 75.3,166.0 76.1,166.0 76.9,166.0 77.7,166.0 78.5,166.0 79.3,166.0 80.1,166.0 80.9,166.0 81.7,166.0 82.5,166.0 83.4,166.0 84.2,166.0 85.0,166.0 85.8,166.0 86.6,166.0 87.4,166.0 88.2,166.0 89.0,166.0 89.8,166.0 90.6,166.0 91.4,166.0 92.2,166.0 93.0,166.0 93.8,166.0 94.6,166.0 95.4,166.0 96.2,166.0 97.0,166.0 97.8,166.0 98.6,166.0 99.4,166.0 100.2,166.0 101.0,166.0 101.8,166.0 102.6,166.0 103.5,166.0 104.3,166.0 105.1,166.0 105.9,166.0 106.7,166.0 107.5,166.0 108.3,166.0 109.1,166.0 109.9,166.0 110.7,164.6 111.5,163.2 112.3,161.7 113.1,160.0 113.9,158.3 114.7,156.4 115.5,154.5 116.3,152.4 117.1,150.3 117.9,148.0 118.7,145.7 119.5,143.2 120.3,140.7 121.1,138.0 121.9,135.3 122.7,132.5 123.5,129.6 124.4,126.7 125.2,123.7 126.0,120.6 126.8,117.5 127.6,114.3 128.4,111.1 129.2,107.9 130.0,104.6 130.8,101.3 131.6,98.0 132.4,94.8 133.2,91.5 134.0,88.2 134.8,85.0 135.6,81.8 136.4,78.7 137.2,75.6 138.0,72.6 138.8,69.7 139.6,66.8 140.4,64.0 141.2,61.4 142.0,58.8 142.8,56.4 143.6,54.1 144.5,51.9 145.3,49.8 146.1,47.9 146.9,46.2 147.7,44.6 148.5,43.2 149.3,41.9 150.1,40.8 150.9,39.9 151.7,39.2 152.5,38.6 153.3,38.3 154.1,38.1 154.9,38.1 155.7,38.3 156.5,38.6 157.3,39.2 158.1,39.9 158.9,40.8 159.7,41.9 160.5,43.2 161.3,44.6 162.1,46.2 162.9,47.9 163.7,49.8 164.5,51.9 165.4,54.1 166.2,56.4 167.0,58.8 167.8,61.4 168.6,64.0 169.4,66.8 170.2,69.7 171.0,72.6 171.8,75.6 172.6,78.7 173.4,81.8 174.2,85.0 175.0,88.2 175.8,91.5 176.6,94.8 177.4,98.0 178.2,101.3 179.0,104.6 179.8,107.9 180.6,111.1 181.4,114.3 182.2,117.5 183.0,120.6 183.8,123.7 184.6,126.7 185.5,129.6 186.3,132.5 187.1,135.3 187.9,138.0 188.7,140.7 189.5,143.2 190.3,145.7 191.1,148.0 191.9,150.3 192.7,152.4 193.5,154.5 194.3,156.4 195.1,158.3 195.9,160.0 196.7,161.7 197.5,163.2 198.3,164.6 199.1,166.0 199.9,166.0 200.7,166.0 201.5,166.0 202.3,166.0 203.1,166.0 203.9,166.0 204.7,166.0 205.5,166.0 206.4,166.0 207.2,166.0 208.0,166.0 208.8,166.0 209.6,166.0 210.4,166.0 211.2,166.0 212.0,166.0 212.8,166.0 213.6,166.0 214.4,166.0 215.2,166.0 216.0,166.0 216.8,166.0 217.6,166.0 218.4,166.0 219.2,166.0 220.0,166.0 220.8,166.0 221.6,166.0 222.4,166.0 223.2,166.0 224.0,166.0 224.8,166.0 225.6,166.0 226.5,166.0 227.3,166.0 228.1,166.0 228.9,166.0 229.7,166.0 230.5,166.0 231.3,166.0 232.1,166.0 232.9,166.0 233.7,166.0 234.5,166.0 235.3,166.0 236.1,166.0 236.9,166.0 237.7,166.0 238.5,166.0 239.3,166.0 240.1,166.0 240.9,166.0 241.7,166.0 242.5,166.0 243.3,166.0 244.1,166.0 244.9,166.0 245.7,166.0 246.5,166.0 247.4,166.0 248.2,166.0 249.0,166.0 249.8,166.0 250.6,166.0 251.4,166.0 252.2,166.0 253.0,166.0 253.8,166.0 254.6,166.0 255.4,166.0 256.2,166.0 257.0,166.0" fill="none" stroke="#4a90d9" stroke-width="1.2" stroke-linejoin="round"/>
  <line x1="322" y1="28.0" x2="527" y2="28.0" stroke="#e5e7eb" stroke-width="0.5"/>
  <text x="318" y="31.0" text-anchor="end" font-size="7.5" fill="#6b7280">0</text>
  <line x1="322" y1="74.0" x2="527" y2="74.0" stroke="#e5e7eb" stroke-width="0.5"/>
  <text x="318" y="77.0" text-anchor="end" font-size="7.5" fill="#6b7280">-40</text>
  <line x1="322" y1="120.0" x2="527" y2="120.0" stroke="#e5e7eb" stroke-width="0.5"/>
  <text x="318" y="123.0" text-anchor="end" font-size="7.5" fill="#6b7280">-80</text>
  <line x1="322" y1="166.0" x2="527" y2="166.0" stroke="#e5e7eb" stroke-width="0.5"/>
  <text x="318" y="169.0" text-anchor="end" font-size="7.5" fill="#6b7280">-120</text>
  <line x1="322.0" y1="28" x2="322.0" y2="166" stroke="#e5e7eb" stroke-width="0.5"/>
  <text x="322.0" y="178" text-anchor="middle" font-size="7.5" fill="#6b7280">0</text>
  <line x1="363.0" y1="28" x2="363.0" y2="166" stroke="#e5e7eb" stroke-width="0.5"/>
  <text x="363.0" y="178" text-anchor="middle" font-size="7.5" fill="#6b7280">0.1</text>
  <line x1="404.0" y1="28" x2="404.0" y2="166" stroke="#e5e7eb" stroke-width="0.5"/>
  <text x="404.0" y="178" text-anchor="middle" font-size="7.5" fill="#6b7280">0.2</text>
  <line x1="445.0" y1="28" x2="445.0" y2="166" stroke="#e5e7eb" stroke-width="0.5"/>
  <text x="445.0" y="178" text-anchor="middle" font-size="7.5" fill="#6b7280">0.3</text>
  <line x1="486.0" y1="28" x2="486.0" y2="166" stroke="#e5e7eb" stroke-width="0.5"/>
  <text x="486.0" y="178" text-anchor="middle" font-size="7.5" fill="#6b7280">0.4</text>
  <line x1="527.0" y1="28" x2="527.0" y2="166" stroke="#e5e7eb" stroke-width="0.5"/>
  <text x="527.0" y="178" text-anchor="middle" font-size="7.5" fill="#6b7280">0.5</text>
  <line x1="322" y1="28" x2="322" y2="166" stroke="#d1d5db" stroke-width="0.75"/>
  <line x1="322" y1="166" x2="527" y2="166" stroke="#d1d5db" stroke-width="0.75"/>
  <polyline points="322.0,28.0 322.1,28.0 322.2,28.0 322.3,28.0 322.4,28.0 322.5,28.0 322.6,28.0 322.7,28.0 322.8,28.0 322.9,28.0 323.0,28.1 323.1,28.1 323.2,28.1 323.3,28.2 323.4,28.2 323.5,28.3 323.6,28.4 323.7,28.4 323.8,28.6 323.9,28.7 324.0,28.8 324.1,29.0 324.2,29.2 324.3,29.4 324.4,29.6 324.5,29.8 324.6,30.1 324.7,30.4 324.8,30.7 324.9,31.1 325.0,31.5 325.1,31.9 325.2,32.3 325.3,32.8 325.4,33.3 325.5,33.8 325.6,34.4 325.7,35.0 325.8,35.6 325.9,36.3 326.0,37.0 326.1,37.8 326.2,38.5 326.3,39.4 326.4,40.2 326.5,41.2 326.6,42.1 326.7,43.1 326.8,44.2 326.9,45.3 327.0,46.4 327.1,47.6 327.2,48.9 327.3,50.2 327.4,51.6 327.5,53.1 327.6,54.6 327.7,56.2 327.8,57.9 327.9,59.7 328.0,61.5 328.1,63.5 328.2,65.5 328.3,67.7 328.4,70.0 328.5,72.5 328.6,75.1 328.7,78.0 328.8,81.0 328.9,84.4 329.0,88.0 329.1,92.2 329.2,96.9 329.3,102.6 329.4,109.8 329.5,121.1 329.6,138.4 329.7,124.8 329.8,124.0 329.9,127.6 330.0,141.0 330.1,132.9 330.2,124.2 330.3,120.1 330.4,117.8 330.5,116.6 330.6,116.1 330.7,116.2 330.8,116.8 330.9,117.9 331.0,119.4 331.1,121.5 331.2,124.1 331.3,127.5 331.4,132.1 331.5,139.0 331.6,153.6 331.7,150.6 331.8,143.5 331.9,141.7 332.0,142.3 332.1,145.3 332.2,152.5 332.3,166.0 332.4,148.4 332.5,142.7 332.6,139.8 332.7,138.4 332.8,138.0 332.9,138.7 333.0,140.7 333.1,144.8 333.2,155.8 333.3,152.7 333.4,142.1 333.5,137.0 333.6,133.7 333.7,131.4 333.8,129.8 333.9,128.8 334.0,128.2 334.1,128.0 334.2,128.3 334.3,129.0 334.4,130.2 334.5,132.1 334.6,135.0 334.7,139.8 334.8,150.5 334.9,150.6 335.0,139.7 335.1,134.8 335.2,131.9 335.3,129.9 335.4,128.6 335.5,127.8 335.6,127.4 335.7,127.5 335.8,127.9 335.9,128.7 336.0,130.1 336.1,132.1 336.2,135.0 336.3,139.8 336.4,149.9 336.5,152.6 336.6,140.9 336.7,135.9 336.8,132.9 336.9,131.0 337.0,129.7 337.1,129.0 337.2,128.7 337.3,128.7 337.4,129.2 337.5,130.0 337.6,131.4 337.7,133.4 337.8,136.3 337.9,140.9 338.0,150.4 338.1,155.7 338.2,142.9 338.3,137.8 338.4,134.8 338.5,132.8 338.6,131.5 338.7,130.8 338.8,130.4 338.9,130.5 339.0,130.9 339.1,131.8 339.2,133.1 339.3,135.1 339.4,137.9 339.5,142.4 339.6,151.3 339.7,159.4 339.8,145.2 339.9,139.9 340.0,136.8 340.1,134.8 340.2,133.5 340.3,132.7 340.4,132.4 340.5,132.4 340.6,132.8 340.7,133.6 340.8,135.0 340.9,136.9 341.0,139.7 341.1,144.0 341.2,152.4 341.3,163.6 341.4,147.7 341.5,142.1 341.6,138.9 341.7,136.9 341.8,135.5 341.9,134.7 342.0,134.3 342.1,134.3 342.2,134.7 342.3,135.5 342.4,136.8 342.5,138.7 342.6,141.4 342.7,145.6 342.8,153.5 342.9,166.0 343.0,150.1 343.1,144.3 343.2,141.0 343.3,138.9 343.4,137.5 343.5,136.6 343.6,136.2 343.7,136.2 343.8,136.6 343.9,137.4 344.0,138.6 344.1,140.4 344.2,143.1 344.3,147.1 344.4,154.7 344.5,166.0 344.6,152.5 344.7,146.4 344.8,143.0 344.9,140.8 345.0,139.4 345.1,138.5 345.2,138.1 345.3,138.0 345.4,138.4 345.5,139.1 345.6,140.3 345.7,142.1 345.8,144.7 345.9,148.6 346.0,155.8 346.1,166.0 346.2,154.8 346.3,148.5 346.4,145.0 346.5,142.7 346.6,141.3 346.7,140.3 346.8,139.9 346.9,139.8 347.0,140.1 347.1,140.8 347.2,142.0 347.3,143.7 347.4,146.2 347.5,150.0 347.6,156.9 347.7,166.0 347.8,157.1 347.9,150.5 348.0,146.9 348.1,144.6 348.2,143.0 348.3,142.1 348.4,141.6 348.5,141.5 348.6,141.8 348.7,142.4 348.8,143.6 348.9,145.2 349.0,147.7 349.1,151.4 349.2,157.9 349.3,166.0 349.4,159.4 349.5,152.4 349.6,148.7 349.7,146.3 349.8,144.7 349.9,143.7 350.0,143.2 350.1,143.1 350.2,143.3 350.3,144.0 350.4,145.1 350.5,146.7 350.6,149.1 350.7,152.7 350.8,158.9 350.9,166.0 351.0,161.7 351.1,154.3 351.2,150.4 351.3,148.0 351.4,146.4 351.5,145.3 351.6,144.8 351.7,144.6 351.8,144.8 351.9,145.5 352.0,146.5 352.1,148.1 352.2,150.4 352.3,153.9 352.4,159.9 352.5,166.0 352.6,163.9 352.7,156.1 352.8,152.1 352.9,149.6 353.0,147.9 353.1,146.9 353.2,146.3 353.3,146.1 353.4,146.3 353.5,146.9 353.6,147.9 353.7,149.5 353.8,151.7 353.9,155.1 354.0,160.8 354.1,166.0 354.2,166.0 354.3,157.9 354.4,153.8 354.5,151.2 354.6,149.5 354.7,148.4 354.8,147.7 354.9,147.5 355.0,147.7 355.1,148.2 355.2,149.2 355.3,150.7 355.4,152.9 355.5,156.3 355.6,161.7 355.7,166.0 355.8,166.0 355.9,159.6 356.0,155.3 356.1,152.7 356.3,150.9 356.4,149.8 356.5,149.1 356.6,148.9 356.7,149.0 356.8,149.5 356.9,150.5 357.0,152.0 357.1,154.1 357.2,157.3 357.3,162.6 357.4,166.0 357.5,166.0 357.6,161.3 357.7,156.9 357.8,154.1 357.9,152.3 358.0,151.1 358.1,150.4 358.2,150.2 358.3,150.3 358.4,150.8 358.5,151.7 358.6,153.1 358.7,155.2 358.8,158.4 358.9,163.5 359.0,166.0 359.1,166.0 359.2,163.0 359.3,158.3 359.4,155.5 359.5,153.7 359.6,152.4 359.7,151.7 359.8,151.4 359.9,151.5 360.0,152.0 360.1,152.9 360.2,154.3 360.3,156.3 360.4,159.4 360.5,164.3 360.6,166.0 360.7,166.0 360.8,164.6 360.9,159.8 361.0,156.9 361.1,155.0 361.2,153.7 361.3,153.0 361.4,152.6 361.5,152.7 361.6,153.1 361.7,154.0 361.8,155.4 361.9,157.4 362.0,160.3 362.1,165.0 362.2,166.0 362.3,166.0 362.4,166.0 362.5,161.2 362.6,158.2 362.7,156.2 362.8,154.9 362.9,154.2 363.0,153.8 363.1,153.8 363.2,154.3 363.3,155.1 363.4,156.4 363.5,158.4 363.6,161.2 363.7,165.8 363.8,166.0 363.9,166.0 364.0,166.0 364.1,162.5 364.2,159.5 364.3,157.5 364.4,156.1 364.5,155.3 364.6,154.9 364.7,154.9 364.8,155.3 364.9,156.1 365.0,157.4 365.1,159.3 365.2,162.1 365.3,166.0 365.4,166.0 365.5,166.0 365.6,166.0 365.7,163.9 365.8,160.7 365.9,158.6 366.0,157.3 366.1,156.4 366.2,156.0 366.3,156.0 366.4,156.4 366.5,157.1 366.6,158.4 366.7,160.2 366.8,163.0 366.9,166.0 367.0,166.0 367.1,166.0 367.2,166.0 367.3,165.2 367.4,161.9 367.5,159.8 367.6,158.4 367.7,157.5 367.8,157.1 367.9,157.0 368.0,157.4 368.1,158.1 368.2,159.3 368.3,161.1 368.4,163.8 368.5,166.0 368.6,166.0 368.7,166.0 368.8,166.0 368.9,166.0 369.0,163.1 369.1,160.9 369.2,159.5 369.3,158.6 369.4,158.1 369.5,158.0 369.6,158.3 369.7,159.1 369.8,160.2 369.9,162.0 370.0,164.6 370.1,166.0 370.2,166.0 370.3,166.0 370.4,166.0 370.5,166.0 370.6,164.3 370.7,162.0 370.8,160.5 370.9,159.6 371.0,159.1 371.1,159.0 371.2,159.3 371.3,160.0 371.4,161.1 371.5,162.8 371.6,165.4 371.7,166.0 371.8,166.0 371.9,166.0 372.0,166.0 372.1,166.0 372.2,165.4 372.3,163.1 372.4,161.6 372.5,160.6 372.6,160.1 372.7,159.9 372.8,160.2 372.9,160.9 373.0,162.0 373.1,163.7 373.2,166.0 373.3,166.0 373.4,166.0 373.5,166.0 373.6,166.0 373.7,166.0 373.8,166.0 373.9,164.1 374.0,162.6 374.1,161.6 374.2,161.0 374.3,160.9 374.4,161.1 374.5,161.7 374.6,162.8 374.7,164.4 374.8,166.0 374.9,166.0 375.0,166.0 375.1,166.0 375.2,166.0 375.3,166.0 375.4,166.0 375.5,165.2 375.6,163.6 375.7,162.5 375.8,161.9 375.9,161.8 376.0,162.0 376.1,162.6 376.2,163.6 376.3,165.2 376.4,166.0 376.5,166.0 376.6,166.0 376.7,166.0 376.8,166.0 376.9,166.0 377.0,166.0 377.1,166.0 377.2,164.5 377.3,163.4 377.4,162.8 377.5,162.6 377.6,162.8 377.7,163.4 377.8,164.4 377.9,166.0 378.0,166.0 378.1,166.0 378.2,166.0 378.3,166.0 378.4,166.0 378.5,166.0 378.6,166.0 378.7,166.0 378.8,165.4 378.9,164.3 379.0,163.7 379.1,163.5 379.2,163.6 379.3,164.2 379.4,165.2 379.5,166.0 379.6,166.0 379.7,166.0 379.8,166.0 379.9,166.0 380.0,166.0 380.1,166.0 380.2,166.0 380.3,166.0 380.4,166.0 380.5,165.2 380.6,164.5 380.7,164.3 380.8,164.4 380.9,164.9 381.0,165.9 381.1,166.0 381.2,166.0 381.3,166.0 381.4,166.0 381.5,166.0 381.6,166.0 381.7,166.0 381.8,166.0 381.9,166.0 382.0,166.0 382.1,166.0 382.2,165.4 382.3,165.1 382.4,165.2 382.5,165.7 382.6,166.0 382.7,166.0 382.8,166.0 382.9,166.0 383.0,166.0 383.1,166.0 383.2,166.0 383.3,166.0 383.4,166.0 383.5,166.0 383.6,166.0 383.7,166.0 383.8,166.0 383.9,165.9 384.0,166.0 384.1,166.0 384.2,166.0 384.3,166.0 384.4,166.0 384.5,166.0 384.6,166.0 384.7,166.0 384.8,166.0 384.9,166.0 385.0,166.0 385.1,166.0 385.2,166.0 385.3,166.0 385.4,166.0 385.5,166.0 385.6,166.0 385.7,166.0 385.8,166.0 385.9,166.0 386.0,166.0 386.1,166.0 386.2,166.0 386.3,166.0 386.4,166.0 386.5,166.0 386.6,166.0 386.7,166.0 386.8,166.0 386.9,166.0 387.0,166.0 387.1,166.0 387.2,166.0 387.3,166.0 387.4,166.0 387.5,166.0 387.6,166.0 387.7,166.0 387.8,166.0 387.9,166.0 388.0,166.0 388.1,166.0 388.2,166.0 388.3,166.0 388.4,166.0 388.5,166.0 388.6,166.0 388.7,166.0 388.8,166.0 388.9,166.0 389.0,166.0 389.1,166.0 389.2,166.0 389.3,166.0 389.4,166.0 389.5,166.0 389.6,166.0 389.7,166.0 389.8,166.0 389.9,166.0 390.0,166.0 390.1,166.0 390.2,166.0 390.3,166.0 390.4,166.0 390.5,166.0 390.6,166.0 390.7,166.0 390.8,166.0 390.9,166.0 391.0,166.0 391.1,166.0 391.2,166.0 391.3,166.0 391.4,166.0 391.5,166.0 391.6,166.0 391.7,166.0 391.8,166.0 391.9,166.0 392.0,166.0 392.1,166.0 392.2,166.0 392.3,166.0 392.4,166.0 392.5,166.0 392.6,166.0 392.7,166.0 392.8,166.0 392.9,166.0 393.0,166.0 393.1,166.0 393.2,166.0 393.3,166.0 393.4,166.0 393.5,166.0 393.6,166.0 393.7,166.0 393.8,166.0 393.9,166.0 394.0,166.0 394.1,166.0 394.2,166.0 394.3,166.0 394.4,166.0 394.5,166.0 394.6,166.0 394.7,166.0 394.8,166.0 394.9,166.0 395.0,166.0 395.1,166.0 395.2,166.0 395.3,166.0 395.4,166.0 395.5,166.0 395.6,166.0 395.7,166.0 395.8,166.0 395.9,166.0 396.0,166.0 396.1,166.0 396.2,166.0 396.3,166.0 396.4,166.0 396.5,166.0 396.6,166.0 396.7,166.0 396.8,166.0 396.9,166.0 397.0,166.0 397.1,166.0 397.2,166.0 397.3,166.0 397.4,166.0 397.5,166.0 397.6,166.0 397.7,166.0 397.8,166.0 397.9,166.0 398.0,166.0 398.1,166.0 398.2,166.0 398.3,166.0 398.4,166.0 398.5,166.0 398.6,166.0 398.7,166.0 398.8,166.0 398.9,166.0 399.0,166.0 399.1,166.0 399.2,166.0 399.3,166.0 399.4,166.0 399.5,166.0 399.6,166.0 399.7,166.0 399.8,166.0 399.9,166.0 400.0,166.0 400.1,166.0 400.2,166.0 400.3,166.0 400.4,166.0 400.5,166.0 400.6,166.0 400.7,166.0 400.8,166.0 400.9,166.0 401.0,166.0 401.1,166.0 401.2,166.0 401.3,166.0 401.4,166.0 401.5,166.0 401.6,166.0 401.7,166.0 401.8,166.0 401.9,166.0 402.0,166.0 402.1,166.0 402.2,166.0 402.3,166.0 402.4,166.0 402.5,166.0 402.6,166.0 402.7,166.0 402.8,166.0 402.9,166.0 403.0,166.0 403.1,166.0 403.2,166.0 403.3,166.0 403.4,166.0 403.5,166.0 403.6,166.0 403.7,166.0 403.8,166.0 403.9,166.0 404.0,166.0 404.1,166.0 404.2,166.0 404.3,166.0 404.4,166.0 404.5,166.0 404.6,166.0 404.7,166.0 404.8,166.0 404.9,166.0 405.0,166.0 405.1,166.0 405.2,166.0 405.3,166.0 405.4,166.0 405.5,166.0 405.6,166.0 405.7,166.0 405.8,166.0 405.9,166.0 406.0,166.0 406.1,166.0 406.2,166.0 406.3,166.0 406.4,166.0 406.5,166.0 406.6,166.0 406.7,166.0 406.8,166.0 406.9,166.0 407.0,166.0 407.1,166.0 407.2,166.0 407.3,166.0 407.4,166.0 407.5,166.0 407.6,166.0 407.7,166.0 407.8,166.0 407.9,166.0 408.0,166.0 408.1,166.0 408.2,166.0 408.3,166.0 408.4,166.0 408.5,166.0 408.6,166.0 408.7,166.0 408.8,166.0 408.9,166.0 409.0,166.0 409.1,166.0 409.2,166.0 409.3,166.0 409.4,166.0 409.5,166.0 409.6,166.0 409.7,166.0 409.8,166.0 409.9,166.0 410.0,166.0 410.1,166.0 410.2,166.0 410.3,166.0 410.4,166.0 410.5,166.0 410.6,166.0 410.7,166.0 410.8,166.0 410.9,166.0 411.0,166.0 411.1,166.0 411.2,166.0 411.3,166.0 411.4,166.0 411.5,166.0 411.6,166.0 411.7,166.0 411.8,166.0 411.9,166.0 412.0,166.0 412.1,166.0 412.2,166.0 412.3,166.0 412.4,166.0 412.5,166.0 412.6,166.0 412.7,166.0 412.8,166.0 412.9,166.0 413.0,166.0 413.1,166.0 413.2,166.0 413.3,166.0 413.4,166.0 413.5,166.0 413.6,166.0 413.7,166.0 413.8,166.0 413.9,166.0 414.0,166.0 414.1,166.0 414.2,166.0 414.3,166.0 414.4,166.0 414.5,166.0 414.6,166.0 414.7,166.0 414.8,166.0 414.9,166.0 415.0,166.0 415.1,166.0 415.2,166.0 415.3,166.0 415.4,166.0 415.5,166.0 415.6,166.0 415.7,166.0 415.8,166.0 415.9,166.0 416.0,166.0 416.1,166.0 416.2,166.0 416.3,166.0 416.4,166.0 416.5,166.0 416.6,166.0 416.7,166.0 416.8,166.0 416.9,166.0 417.0,166.0 417.1,166.0 417.2,166.0 417.3,166.0 417.4,166.0 417.5,166.0 417.6,166.0 417.7,166.0 417.8,166.0 417.9,166.0 418.0,166.0 418.1,166.0 418.2,166.0 418.3,166.0 418.4,166.0 418.5,166.0 418.6,166.0 418.7,166.0 418.8,166.0 418.9,166.0 419.0,166.0 419.1,166.0 419.2,166.0 419.3,166.0 419.4,166.0 419.5,166.0 419.6,166.0 419.7,166.0 419.8,166.0 419.9,166.0 420.0,166.0 420.1,166.0 420.2,166.0 420.3,166.0 420.4,166.0 420.5,166.0 420.6,166.0 420.7,166.0 420.8,166.0 420.9,166.0 421.0,166.0 421.1,166.0 421.2,166.0 421.3,166.0 421.4,166.0 421.5,166.0 421.6,166.0 421.7,166.0 421.8,166.0 421.9,166.0 422.0,166.0 422.1,166.0 422.2,166.0 422.3,166.0 422.4,166.0 422.5,166.0 422.6,166.0 422.7,166.0 422.8,166.0 422.9,166.0 423.0,166.0 423.1,166.0 423.2,166.0 423.3,166.0 423.4,166.0 423.5,166.0 423.6,166.0 423.7,166.0 423.8,166.0 423.9,166.0 424.0,166.0 424.1,166.0 424.2,166.0 424.3,166.0 424.4,166.0 424.6,166.0 424.7,166.0 424.8,166.0 424.9,166.0 425.0,166.0 425.1,166.0 425.2,166.0 425.3,166.0 425.4,166.0 425.5,166.0 425.6,166.0 425.7,166.0 425.8,166.0 425.9,166.0 426.0,166.0 426.1,166.0 426.2,166.0 426.3,166.0 426.4,166.0 426.5,166.0 426.6,166.0 426.7,166.0 426.8,166.0 426.9,166.0 427.0,166.0 427.1,166.0 427.2,166.0 427.3,166.0 427.4,166.0 427.5,166.0 427.6,166.0 427.7,166.0 427.8,166.0 427.9,166.0 428.0,166.0 428.1,166.0 428.2,166.0 428.3,166.0 428.4,166.0 428.5,166.0 428.6,166.0 428.7,166.0 428.8,166.0 428.9,166.0 429.0,166.0 429.1,166.0 429.2,166.0 429.3,166.0 429.4,166.0 429.5,166.0 429.6,166.0 429.7,166.0 429.8,166.0 429.9,166.0 430.0,166.0 430.1,166.0 430.2,166.0 430.3,166.0 430.4,166.0 430.5,166.0 430.6,166.0 430.7,166.0 430.8,166.0 430.9,166.0 431.0,166.0 431.1,166.0 431.2,166.0 431.3,166.0 431.4,166.0 431.5,166.0 431.6,166.0 431.7,166.0 431.8,166.0 431.9,166.0 432.0,166.0 432.1,166.0 432.2,166.0 432.3,166.0 432.4,166.0 432.5,166.0 432.6,166.0 432.7,166.0 432.8,166.0 432.9,166.0 433.0,166.0 433.1,166.0 433.2,166.0 433.3,166.0 433.4,166.0 433.5,166.0 433.6,166.0 433.7,166.0 433.8,166.0 433.9,166.0 434.0,166.0 434.1,166.0 434.2,166.0 434.3,166.0 434.4,166.0 434.5,166.0 434.6,166.0 434.7,166.0 434.8,166.0 434.9,166.0 435.0,166.0 435.1,166.0 435.2,166.0 435.3,166.0 435.4,166.0 435.5,166.0 435.6,166.0 435.7,166.0 435.8,166.0 435.9,166.0 436.0,166.0 436.1,166.0 436.2,166.0 436.3,166.0 436.4,166.0 436.5,166.0 436.6,166.0 436.7,166.0 436.8,166.0 436.9,166.0 437.0,166.0 437.1,166.0 437.2,166.0 437.3,166.0 437.4,166.0 437.5,166.0 437.6,166.0 437.7,166.0 437.8,166.0 437.9,166.0 438.0,166.0 438.1,166.0 438.2,166.0 438.3,166.0 438.4,166.0 438.5,166.0 438.6,166.0 438.7,166.0 438.8,166.0 438.9,166.0 439.0,166.0 439.1,166.0 439.2,166.0 439.3,166.0 439.4,166.0 439.5,166.0 439.6,166.0 439.7,166.0 439.8,166.0 439.9,166.0 440.0,166.0 440.1,166.0 440.2,166.0 440.3,166.0 440.4,166.0 440.5,166.0 440.6,166.0 440.7,166.0 440.8,166.0 440.9,166.0 441.0,166.0 441.1,166.0 441.2,166.0 441.3,166.0 441.4,166.0 441.5,166.0 441.6,166.0 441.7,166.0 441.8,166.0 441.9,166.0 442.0,166.0 442.1,166.0 442.2,166.0 442.3,166.0 442.4,166.0 442.5,166.0 442.6,166.0 442.7,166.0 442.8,166.0 442.9,166.0 443.0,166.0 443.1,166.0 443.2,166.0 443.3,166.0 443.4,166.0 443.5,166.0 443.6,166.0 443.7,166.0 443.8,166.0 443.9,166.0 444.0,166.0 444.1,166.0 444.2,166.0 444.3,166.0 444.4,166.0 444.5,166.0 444.6,166.0 444.7,166.0 444.8,166.0 444.9,166.0 445.0,166.0 445.1,166.0 445.2,166.0 445.3,166.0 445.4,166.0 445.5,166.0 445.6,166.0 445.7,166.0 445.8,166.0 445.9,166.0 446.0,166.0 446.1,166.0 446.2,166.0 446.3,166.0 446.4,166.0 446.5,166.0 446.6,166.0 446.7,166.0 446.8,166.0 446.9,166.0 447.0,166.0 447.1,166.0 447.2,166.0 447.3,166.0 447.4,166.0 447.5,166.0 447.6,166.0 447.7,166.0 447.8,166.0 447.9,166.0 448.0,166.0 448.1,166.0 448.2,166.0 448.3,166.0 448.4,166.0 448.5,166.0 448.6,166.0 448.7,166.0 448.8,166.0 448.9,166.0 449.0,166.0 449.1,166.0 449.2,166.0 449.3,166.0 449.4,166.0 449.5,166.0 449.6,166.0 449.7,166.0 449.8,166.0 449.9,166.0 450.0,166.0 450.1,166.0 450.2,166.0 450.3,166.0 450.4,166.0 450.5,166.0 450.6,166.0 450.7,166.0 450.8,166.0 450.9,166.0 451.0,166.0 451.1,166.0 451.2,166.0 451.3,166.0 451.4,166.0 451.5,166.0 451.6,166.0 451.7,166.0 451.8,166.0 451.9,166.0 452.0,166.0 452.1,166.0 452.2,166.0 452.3,166.0 452.4,166.0 452.5,166.0 452.6,166.0 452.7,166.0 452.8,166.0 452.9,166.0 453.0,166.0 453.1,166.0 453.2,166.0 453.3,166.0 453.4,166.0 453.5,166.0 453.6,166.0 453.7,166.0 453.8,166.0 453.9,166.0 454.0,166.0 454.1,166.0 454.2,166.0 454.3,166.0 454.4,166.0 454.5,166.0 454.6,166.0 454.7,166.0 454.8,166.0 454.9,166.0 455.0,166.0 455.1,166.0 455.2,166.0 455.3,166.0 455.4,166.0 455.5,166.0 455.6,166.0 455.7,166.0 455.8,166.0 455.9,166.0 456.0,166.0 456.1,166.0 456.2,166.0 456.3,166.0 456.4,166.0 456.5,166.0 456.6,166.0 456.7,166.0 456.8,166.0 456.9,166.0 457.0,166.0 457.1,166.0 457.2,166.0 457.3,166.0 457.4,166.0 457.5,166.0 457.6,166.0 457.7,166.0 457.8,166.0 457.9,166.0 458.0,166.0 458.1,166.0 458.2,166.0 458.3,166.0 458.4,166.0 458.5,166.0 458.6,166.0 458.7,166.0 458.8,166.0 458.9,166.0 459.0,166.0 459.1,166.0 459.2,166.0 459.3,166.0 459.4,166.0 459.5,166.0 459.6,166.0 459.7,166.0 459.8,166.0 459.9,166.0 460.0,166.0 460.1,166.0 460.2,166.0 460.3,166.0 460.4,166.0 460.5,166.0 460.6,166.0 460.7,166.0 460.8,166.0 460.9,166.0 461.0,166.0 461.1,166.0 461.2,166.0 461.3,166.0 461.4,166.0 461.5,166.0 461.6,166.0 461.7,166.0 461.8,166.0 461.9,166.0 462.0,166.0 462.1,166.0 462.2,166.0 462.3,166.0 462.4,166.0 462.5,166.0 462.6,166.0 462.7,166.0 462.8,166.0 462.9,166.0 463.0,166.0 463.1,166.0 463.2,166.0 463.3,166.0 463.4,166.0 463.5,166.0 463.6,166.0 463.7,166.0 463.8,166.0 463.9,166.0 464.0,166.0 464.1,166.0 464.2,166.0 464.3,166.0 464.4,166.0 464.5,166.0 464.6,166.0 464.7,166.0 464.8,166.0 464.9,166.0 465.0,166.0 465.1,166.0 465.2,166.0 465.3,166.0 465.4,166.0 465.5,166.0 465.6,166.0 465.7,166.0 465.8,166.0 465.9,166.0 466.0,166.0 466.1,166.0 466.2,166.0 466.3,166.0 466.4,166.0 466.5,166.0 466.6,166.0 466.7,166.0 466.8,166.0 466.9,166.0 467.0,166.0 467.1,166.0 467.2,166.0 467.3,166.0 467.4,166.0 467.5,166.0 467.6,166.0 467.7,166.0 467.8,166.0 467.9,166.0 468.0,166.0 468.1,166.0 468.2,166.0 468.3,166.0 468.4,166.0 468.5,166.0 468.6,166.0 468.7,166.0 468.8,166.0 468.9,166.0 469.0,166.0 469.1,166.0 469.2,166.0 469.3,166.0 469.4,166.0 469.5,166.0 469.6,166.0 469.7,166.0 469.8,166.0 469.9,166.0 470.0,166.0 470.1,166.0 470.2,166.0 470.3,166.0 470.4,166.0 470.5,166.0 470.6,166.0 470.7,166.0 470.8,166.0 470.9,166.0 471.0,166.0 471.1,166.0 471.2,166.0 471.3,166.0 471.4,166.0 471.5,166.0 471.6,166.0 471.7,166.0 471.8,166.0 471.9,166.0 472.0,166.0 472.1,166.0 472.2,166.0 472.3,166.0 472.4,166.0 472.5,166.0 472.6,166.0 472.7,166.0 472.8,166.0 472.9,166.0 473.0,166.0 473.1,166.0 473.2,166.0 473.3,166.0 473.4,166.0 473.5,166.0 473.6,166.0 473.7,166.0 473.8,166.0 473.9,166.0 474.0,166.0 474.1,166.0 474.2,166.0 474.3,166.0 474.4,166.0 474.5,166.0 474.6,166.0 474.7,166.0 474.8,166.0 474.9,166.0 475.0,166.0 475.1,166.0 475.2,166.0 475.3,166.0 475.4,166.0 475.5,166.0 475.6,166.0 475.7,166.0 475.8,166.0 475.9,166.0 476.0,166.0 476.1,166.0 476.2,166.0 476.3,166.0 476.4,166.0 476.5,166.0 476.6,166.0 476.7,166.0 476.8,166.0 476.9,166.0 477.0,166.0 477.1,166.0 477.2,166.0 477.3,166.0 477.4,166.0 477.5,166.0 477.6,166.0 477.7,166.0 477.8,166.0 477.9,166.0 478.0,166.0 478.1,166.0 478.2,166.0 478.3,166.0 478.4,166.0 478.5,166.0 478.6,166.0 478.7,166.0 478.8,166.0 478.9,166.0 479.0,166.0 479.1,166.0 479.2,166.0 479.3,166.0 479.4,166.0 479.5,166.0 479.6,166.0 479.7,166.0 479.8,166.0 479.9,166.0 480.0,166.0 480.1,166.0 480.2,166.0 480.3,166.0 480.4,166.0 480.5,166.0 480.6,166.0 480.7,166.0 480.8,166.0 480.9,166.0 481.0,166.0 481.1,166.0 481.2,166.0 481.3,166.0 481.4,166.0 481.5,166.0 481.6,166.0 481.7,166.0 481.8,166.0 481.9,166.0 482.0,166.0 482.1,166.0 482.2,166.0 482.3,166.0 482.4,166.0 482.5,166.0 482.6,166.0 482.7,166.0 482.8,166.0 482.9,166.0 483.0,166.0 483.1,166.0 483.2,166.0 483.3,166.0 483.4,166.0 483.5,166.0 483.6,166.0 483.7,166.0 483.8,166.0 483.9,166.0 484.0,166.0 484.1,166.0 484.2,166.0 484.3,166.0 484.4,166.0 484.5,166.0 484.6,166.0 484.7,166.0 484.8,166.0 484.9,166.0 485.0,166.0 485.1,166.0 485.2,166.0 485.3,166.0 485.4,166.0 485.5,166.0 485.6,166.0 485.7,166.0 485.8,166.0 485.9,166.0 486.0,166.0 486.1,166.0 486.2,166.0 486.3,166.0 486.4,166.0 486.5,166.0 486.6,166.0 486.7,166.0 486.8,166.0 486.9,166.0 487.0,166.0 487.1,166.0 487.2,166.0 487.3,166.0 487.4,166.0 487.5,166.0 487.6,166.0 487.7,166.0 487.8,166.0 487.9,166.0 488.0,166.0 488.1,166.0 488.2,166.0 488.3,166.0 488.4,166.0 488.5,166.0 488.6,166.0 488.7,166.0 488.8,166.0 488.9,166.0 489.0,166.0 489.1,166.0 489.2,166.0 489.3,166.0 489.4,166.0 489.5,166.0 489.6,166.0 489.7,166.0 489.8,166.0 489.9,166.0 490.0,166.0 490.1,166.0 490.2,166.0 490.3,166.0 490.4,166.0 490.5,166.0 490.6,166.0 490.7,166.0 490.8,166.0 490.9,166.0 491.0,166.0 491.1,166.0 491.2,166.0 491.3,166.0 491.4,166.0 491.5,166.0 491.6,166.0 491.7,166.0 491.8,166.0 491.9,166.0 492.0,166.0 492.1,166.0 492.2,166.0 492.3,166.0 492.4,166.0 492.5,166.0 492.6,166.0 492.7,166.0 492.9,166.0 493.0,166.0 493.1,166.0 493.2,166.0 493.3,166.0 493.4,166.0 493.5,166.0 493.6,166.0 493.7,166.0 493.8,166.0 493.9,166.0 494.0,166.0 494.1,166.0 494.2,166.0 494.3,166.0 494.4,166.0 494.5,166.0 494.6,166.0 494.7,166.0 494.8,166.0 494.9,166.0 495.0,166.0 495.1,166.0 495.2,166.0 495.3,166.0 495.4,166.0 495.5,166.0 495.6,166.0 495.7,166.0 495.8,166.0 495.9,166.0 496.0,166.0 496.1,166.0 496.2,166.0 496.3,166.0 496.4,166.0 496.5,166.0 496.6,166.0 496.7,166.0 496.8,166.0 496.9,166.0 497.0,166.0 497.1,166.0 497.2,166.0 497.3,166.0 497.4,166.0 497.5,166.0 497.6,166.0 497.7,166.0 497.8,166.0 497.9,166.0 498.0,166.0 498.1,166.0 498.2,166.0 498.3,166.0 498.4,166.0 498.5,166.0 498.6,166.0 498.7,166.0 498.8,166.0 498.9,166.0 499.0,166.0 499.1,166.0 499.2,166.0 499.3,166.0 499.4,166.0 499.5,166.0 499.6,166.0 499.7,166.0 499.8,166.0 499.9,166.0 500.0,166.0 500.1,166.0 500.2,166.0 500.3,166.0 500.4,166.0 500.5,166.0 500.6,166.0 500.7,166.0 500.8,166.0 500.9,166.0 501.0,166.0 501.1,166.0 501.2,166.0 501.3,166.0 501.4,166.0 501.5,166.0 501.6,166.0 501.7,166.0 501.8,166.0 501.9,166.0 502.0,166.0 502.1,166.0 502.2,166.0 502.3,166.0 502.4,166.0 502.5,166.0 502.6,166.0 502.7,166.0 502.8,166.0 502.9,166.0 503.0,166.0 503.1,166.0 503.2,166.0 503.3,166.0 503.4,166.0 503.5,166.0 503.6,166.0 503.7,166.0 503.8,166.0 503.9,166.0 504.0,166.0 504.1,166.0 504.2,166.0 504.3,166.0 504.4,166.0 504.5,166.0 504.6,166.0 504.7,166.0 504.8,166.0 504.9,166.0 505.0,166.0 505.1,166.0 505.2,166.0 505.3,166.0 505.4,166.0 505.5,166.0 505.6,166.0 505.7,166.0 505.8,166.0 505.9,166.0 506.0,166.0 506.1,166.0 506.2,166.0 506.3,166.0 506.4,166.0 506.5,166.0 506.6,166.0 506.7,166.0 506.8,166.0 506.9,166.0 507.0,166.0 507.1,166.0 507.2,166.0 507.3,166.0 507.4,166.0 507.5,166.0 507.6,166.0 507.7,166.0 507.8,166.0 507.9,166.0 508.0,166.0 508.1,166.0 508.2,166.0 508.3,166.0 508.4,166.0 508.5,166.0 508.6,166.0 508.7,166.0 508.8,166.0 508.9,166.0 509.0,166.0 509.1,166.0 509.2,166.0 509.3,166.0 509.4,166.0 509.5,166.0 509.6,166.0 509.7,166.0 509.8,166.0 509.9,166.0 510.0,166.0 510.1,166.0 510.2,166.0 510.3,166.0 510.4,166.0 510.5,166.0 510.6,166.0 510.7,166.0 510.8,166.0 510.9,166.0 511.0,166.0 511.1,166.0 511.2,166.0 511.3,166.0 511.4,166.0 511.5,166.0 511.6,166.0 511.7,166.0 511.8,166.0 511.9,166.0 512.0,166.0 512.1,166.0 512.2,166.0 512.3,166.0 512.4,166.0 512.5,166.0 512.6,166.0 512.7,166.0 512.8,166.0 512.9,166.0 513.0,166.0 513.1,166.0 513.2,166.0 513.3,166.0 513.4,166.0 513.5,166.0 513.6,166.0 513.7,166.0 513.8,166.0 513.9,166.0 514.0,166.0 514.1,166.0 514.2,166.0 514.3,166.0 514.4,166.0 514.5,166.0 514.6,166.0 514.7,166.0 514.8,166.0 514.9,166.0 515.0,166.0 515.1,166.0 515.2,166.0 515.3,166.0 515.4,166.0 515.5,166.0 515.6,166.0 515.7,166.0 515.8,166.0 515.9,166.0 516.0,166.0 516.1,166.0 516.2,166.0 516.3,166.0 516.4,166.0 516.5,166.0 516.6,166.0 516.7,166.0 516.8,166.0 516.9,166.0 517.0,166.0 517.1,166.0 517.2,166.0 517.3,166.0 517.4,166.0 517.5,166.0 517.6,166.0 517.7,166.0 517.8,166.0 517.9,166.0 518.0,166.0 518.1,166.0 518.2,166.0 518.3,166.0 518.4,166.0 518.5,166.0 518.6,166.0 518.7,166.0 518.8,166.0 518.9,166.0 519.0,166.0 519.1,166.0 519.2,166.0 519.3,166.0 519.4,166.0 519.5,166.0 519.6,166.0 519.7,166.0 519.8,166.0 519.9,166.0 520.0,166.0 520.1,166.0 520.2,166.0 520.3,166.0 520.4,166.0 520.5,166.0 520.6,166.0 520.7,166.0 520.8,166.0 520.9,166.0 521.0,166.0 521.1,166.0 521.2,166.0 521.3,166.0 521.4,166.0 521.5,166.0 521.6,166.0 521.7,166.0 521.8,166.0 521.9,166.0 522.0,166.0 522.1,166.0 522.2,166.0 522.3,166.0 522.4,166.0 522.5,166.0 522.6,166.0 522.7,166.0 522.8,166.0 522.9,166.0 523.0,166.0 523.1,166.0 523.2,166.0 523.3,166.0 523.4,166.0 523.5,166.0 523.6,166.0 523.7,166.0 523.8,166.0 523.9,166.0 524.0,166.0 524.1,166.0 524.2,166.0 524.3,166.0 524.4,166.0 524.5,166.0 524.6,166.0 524.7,166.0 524.8,166.0 524.9,166.0 525.0,166.0 525.1,166.0 525.2,166.0 525.3,166.0 525.4,166.0 525.5,166.0 525.6,166.0 525.7,166.0 525.8,166.0 525.9,166.0 526.0,166.0 526.1,166.0 526.2,166.0 526.3,166.0 526.4,166.0 526.5,166.0 526.6,166.0 526.7,166.0 526.8,166.0 526.9,166.0 527.0,166.0" fill="none" stroke="#4a90d9" stroke-width="1.2" stroke-linejoin="round"/>
  <text x="154.5" y="190" text-anchor="middle" font-size="8" fill="#6b7280">n / N</text>
  <text x="424.5" y="190" text-anchor="middle" font-size="8" fill="#6b7280">Normalized frequency (× Fₛ)</text>
</svg>
