<svg xmlns="http://www.w3.org/2000/svg" viewBox="0 0 560 190" width="560" height="190" style="font-family:system-ui,-apple-system,sans-serif">
  <rect width="560" height="190" fill="none"/>
  <line x1="52" y1="152.0" x2="257" y2="152.0" stroke="#e5e7eb" stroke-width="0.5"/>
  <text x="48" y="155.0" text-anchor="end" font-size="7.5" fill="#6b7280">0</text>
  <line x1="52" y1="82.0" x2="257" y2="82.0" stroke="#e5e7eb" stroke-width="0.5"/>
  <text x="48" y="85.0" text-anchor="end" font-size="7.5" fill="#6b7280">0.5</text>
  <line x1="52" y1="12.0" x2="257" y2="12.0" stroke="#e5e7eb" stroke-width="0.5"/>
  <text x="48" y="15.0" text-anchor="end" font-size="7.5" fill="#6b7280">1</text>
  <line x1="52.0" y1="12" x2="52.0" y2="152" stroke="#e5e7eb" stroke-width="0.5"/>
  <text x="52.0" y="164" text-anchor="middle" font-size="7.5" fill="#6b7280">0</text>
  <line x1="154.5" y1="12" x2="154.5" y2="152" stroke="#e5e7eb" stroke-width="0.5"/>
  <text x="154.5" y="164" text-anchor="middle" font-size="7.5" fill="#6b7280">0.5</text>
  <line x1="257.0" y1="12" x2="257.0" y2="152" stroke="#e5e7eb" stroke-width="0.5"/>
  <text x="257.0" y="164" text-anchor="middle" font-size="7.5" fill="#6b7280">1</text>
  <line x1="52" y1="12" x2="52" y2="152" stroke="#d1d5db" stroke-width="0.75"/>
  <line x1="52" y1="152" x2="257" y2="152" stroke="#d1d5db" stroke-width="0.75"/>
  <path d="M52.0,152.0 52.0,145.8 52.8,145.5 53.6,145.2 54.4,144.9 55.2,144.5 56.0,144.2 56.8,143.8 57.6,143.4 58.4,143.0 59.2,142.6 60.0,142.1 60.8,141.7 61.6,141.2 62.5,140.7 63.3,140.2 64.1,139.7 64.9,139.2 65.7,138.6 66.5,138.0 67.3,137.4 68.1,136.8 68.9,136.2 69.7,135.5 70.5,134.8 71.3,134.1 72.1,133.4 72.9,132.7 73.7,131.9 74.5,131.1 75.3,130.3 76.1,129.5 76.9,128.6 77.7,127.7 78.5,126.8 79.3,125.9 80.1,125.0 80.9,124.0 81.7,123.0 82.5,122.0 83.4,120.9 84.2,119.9 85.0,118.8 85.8,117.7 86.6,116.5 87.4,115.4 88.2,114.2 89.0,113.0 89.8,111.7 90.6,110.5 91.4,109.2 92.2,107.9 93.0,106.5 93.8,105.2 94.6,103.8 95.4,102.4 96.2,101.0 97.0,99.6 97.8,98.2 98.6,96.7 99.4,95.2 100.2,93.7 101.0,92.2 101.8,90.6 102.6,89.1 103.5,87.5 104.3,85.9 105.1,84.3 105.9,82.7 106.7,81.1 107.5,79.5 108.3,77.9 109.1,76.2 109.9,74.6 110.7,72.9 111.5,71.2 112.3,69.6 113.1,67.9 113.9,66.3 114.7,64.6 115.5,62.9 116.3,61.3 117.1,59.6 117.9,58.0 118.7,56.3 119.5,54.7 120.3,53.1 121.1,51.5 121.9,49.9 122.7,48.3 123.5,46.7 124.4,45.2 125.2,43.6 126.0,42.1 126.8,40.6 127.6,39.2 128.4,37.7 129.2,36.3 130.0,34.9 130.8,33.6 131.6,32.2 132.4,30.9 133.2,29.7 134.0,28.5 134.8,27.3 135.6,26.1 136.4,25.0 137.2,23.9 138.0,22.9 138.8,21.9 139.6,20.9 140.4,20.0 141.2,19.1 142.0,18.3 142.8,17.5 143.6,16.8 144.5,16.1 145.3,15.5 146.1,14.9 146.9,14.4 147.7,13.9 148.5,13.5 149.3,13.1 150.1,12.8 150.9,12.5 151.7,12.3 152.5,12.2 153.3,12.1 154.1,12.0 154.9,12.0 155.7,12.1 156.5,12.2 157.3,12.3 158.1,12.5 158.9,12.8 159.7,13.1 160.5,13.5 161.3,13.9 162.1,14.4 162.9,14.9 163.7,15.5 164.5,16.1 165.4,16.8 166.2,17.5 167.0,18.3 167.8,19.1 168.6,20.0 169.4,20.9 170.2,21.9 171.0,22.9 171.8,23.9 172.6,25.0 173.4,26.1 174.2,27.3 175.0,28.5 175.8,29.7 176.6,30.9 177.4,32.2 178.2,33.6 179.0,34.9 179.8,36.3 180.6,37.7 181.4,39.2 182.2,40.6 183.0,42.1 183.8,43.6 184.6,45.2 185.5,46.7 186.3,48.3 187.1,49.9 187.9,51.5 188.7,53.1 189.5,54.7 190.3,56.3 191.1,58.0 191.9,59.6 192.7,61.3 193.5,62.9 194.3,64.6 195.1,66.3 195.9,67.9 196.7,69.6 197.5,71.2 198.3,72.9 199.1,74.6 199.9,76.2 200.7,77.9 201.5,79.5 202.3,81.1 203.1,82.7 203.9,84.3 204.7,85.9 205.5,87.5 206.4,89.1 207.2,90.6 208.0,92.2 208.8,93.7 209.6,95.2 210.4,96.7 211.2,98.2 212.0,99.6 212.8,101.0 213.6,102.4 214.4,103.8 215.2,105.2 216.0,106.5 216.8,107.9 217.6,109.2 218.4,110.5 219.2,111.7 220.0,113.0 220.8,114.2 221.6,115.4 222.4,116.5 223.2,117.7 224.0,118.8 224.8,119.9 225.6,120.9 226.5,122.0 227.3,123.0 228.1,124.0 228.9,125.0 229.7,125.9 230.5,126.8 231.3,127.7 232.1,128.6 232.9,129.5 233.7,130.3 234.5,131.1 235.3,131.9 236.1,132.7 236.9,133.4 237.7,134.1 238.5,134.8 239.3,135.5 240.1,136.2 240.9,136.8 241.7,137.4 242.5,138.0 243.3,138.6 244.1,139.2 244.9,139.7 245.7,140.2 246.5,140.7 247.4,141.2 248.2,141.7 249.0,142.1 249.8,142.6 250.6,143.0 251.4,143.4 252.2,143.8 253.0,144.2 253.8,144.5 254.6,144.9 255.4,145.2 256.2,145.5 257.0,145.8 L257.0,152.0 Z" fill="#4a90d9" fill-opacity="0.06"/>
  <polyline points="52.0,145.8 52.8,145.5 53.6,145.2 54.4,144.9 55.2,144.5 56.0,144.2 56.8,143.8 57.6,143.4 58.4,143.0 59.2,142.6 60.0,142.1 60.8,141.7 61.6,141.2 62.5,140.7 63.3,140.2 64.1,139.7 64.9,139.2 65.7,138.6 66.5,138.0 67.3,137.4 68.1,136.8 68.9,136.2 69.7,135.5 70.5,134.8 71.3,134.1 72.1,133.4 72.9,132.7 73.7,131.9 74.5,131.1 75.3,130.3 76.1,129.5 76.9,128.6 77.7,127.7 78.5,126.8 79.3,125.9 80.1,125.0 80.9,124.0 81.7,123.0 82.5,122.0 83.4,120.9 84.2,119.9 85.0,118.8 85.8,117.7 86.6,116.5 87.4,115.4 88.2,114.2 89.0,113.0 89.8,111.7 90.6,110.5 91.4,109.2 92.2,107.9 93.0,106.5 93.8,105.2 94.6,103.8 95.4,102.4 96.2,101.0 97.0,99.6 97.8,98.2 98.6,96.7 99.4,95.2 100.2,93.7 101.0,92.2 101.8,90.6 102.6,89.1 103.5,87.5 104.3,85.9 105.1,84.3 105.9,82.7 106.7,81.1 107.5,79.5 108.3,77.9 109.1,76.2 109.9,74.6 110.7,72.9 111.5,71.2 112.3,69.6 113.1,67.9 113.9,66.3 114.7,64.6 115.5,62.9 116.3,61.3 117.1,59.6 117.9,58.0 118.7,56.3 119.5,54.7 120.3,53.1 121.1,51.5 121.9,49.9 122.7,48.3 123.5,46.7 124.4,45.2 125.2,43.6 126.0,42.1 126.8,40.6 127.6,39.2 128.4,37.7 129.2,36.3 130.0,34.9 130.8,33.6 131.6,32.2 132.4,30.9 133.2,29.7 134.0,28.5 134.8,27.3 135.6,26.1 136.4,25.0 137.2,23.9 138.0,22.9 138.8,21.9 139.6,20.9 140.4,20.0 141.2,19.1 142.0,18.3 142.8,17.5 143.6,16.8 144.5,16.1 145.3,15.5 146.1,14.9 146.9,14.4 147.7,13.9 148.5,13.5 149.3,13.1 150.1,12.8 150.9,12.5 151.7,12.3 152.5,12.2 153.3,12.1 154.1,12.0 154.9,12.0 155.7,12.1 156.5,12.2 157.3,12.3 158.1,12.5 158.9,12.8 159.7,13.1 160.5,13.5 161.3,13.9 162.1,14.4 162.9,14.9 163.7,15.5 164.5,16.1 165.4,16.8 166.2,17.5 167.0,18.3 167.8,19.1 168.6,20.0 169.4,20.9 170.2,21.9 171.0,22.9 171.8,23.9 172.6,25.0 173.4,26.1 174.2,27.3 175.0,28.5 175.8,29.7 176.6,30.9 177.4,32.2 178.2,33.6 179.0,34.9 179.8,36.3 180.6,37.7 181.4,39.2 182.2,40.6 183.0,42.1 183.8,43.6 184.6,45.2 185.5,46.7 186.3,48.3 187.1,49.9 187.9,51.5 188.7,53.1 189.5,54.7 190.3,56.3 191.1,58.0 191.9,59.6 192.7,61.3 193.5,62.9 194.3,64.6 195.1,66.3 195.9,67.9 196.7,69.6 197.5,71.2 198.3,72.9 199.1,74.6 199.9,76.2 200.7,77.9 201.5,79.5 202.3,81.1 203.1,82.7 203.9,84.3 204.7,85.9 205.5,87.5 206.4,89.1 207.2,90.6 208.0,92.2 208.8,93.7 209.6,95.2 210.4,96.7 211.2,98.2 212.0,99.6 212.8,101.0 213.6,102.4 214.4,103.8 215.2,105.2 216.0,106.5 216.8,107.9 217.6,109.2 218.4,110.5 219.2,111.7 220.0,113.0 220.8,114.2 221.6,115.4 222.4,116.5 223.2,117.7 224.0,118.8 224.8,119.9 225.6,120.9 226.5,122.0 227.3,123.0 228.1,124.0 228.9,125.0 229.7,125.9 230.5,126.8 231.3,127.7 232.1,128.6 232.9,129.5 233.7,130.3 234.5,131.1 235.3,131.9 236.1,132.7 236.9,133.4 237.7,134.1 238.5,134.8 239.3,135.5 240.1,136.2 240.9,136.8 241.7,137.4 242.5,138.0 243.3,138.6 244.1,139.2 244.9,139.7 245.7,140.2 246.5,140.7 247.4,141.2 248.2,141.7 249.0,142.1 249.8,142.6 250.6,143.0 251.4,143.4 252.2,143.8 253.0,144.2 253.8,144.5 254.6,144.9 255.4,145.2 256.2,145.5 257.0,145.8" fill="none" stroke="#4a90d9" stroke-width="1.2" stroke-linejoin="round"/>
  <line x1="322" y1="12.0" x2="527" y2="12.0" stroke="#e5e7eb" stroke-width="0.5"/>
  <text x="318" y="15.0" text-anchor="end" font-size="7.5" fill="#6b7280">0</text>
  <line x1="322" y1="58.7" x2="527" y2="58.7" stroke="#e5e7eb" stroke-width="0.5"/>
  <text x="318" y="61.7" text-anchor="end" font-size="7.5" fill="#6b7280">-40</text>
  <line x1="322" y1="105.3" x2="527" y2="105.3" stroke="#e5e7eb" stroke-width="0.5"/>
  <text x="318" y="108.3" text-anchor="end" font-size="7.5" fill="#6b7280">-80</text>
  <line x1="322" y1="152.0" x2="527" y2="152.0" stroke="#e5e7eb" stroke-width="0.5"/>
  <text x="318" y="155.0" text-anchor="end" font-size="7.5" fill="#6b7280">-120</text>
  <line x1="322.0" y1="12" x2="322.0" y2="152" stroke="#e5e7eb" stroke-width="0.5"/>
  <text x="322.0" y="164" text-anchor="middle" font-size="7.5" fill="#6b7280">0</text>
  <line x1="363.0" y1="12" x2="363.0" y2="152" stroke="#e5e7eb" stroke-width="0.5"/>
  <text x="363.0" y="164" text-anchor="middle" font-size="7.5" fill="#6b7280">0.1</text>
  <line x1="404.0" y1="12" x2="404.0" y2="152" stroke="#e5e7eb" stroke-width="0.5"/>
  <text x="404.0" y="164" text-anchor="middle" font-size="7.5" fill="#6b7280">0.2</text>
  <line x1="445.0" y1="12" x2="445.0" y2="152" stroke="#e5e7eb" stroke-width="0.5"/>
  <text x="445.0" y="164" text-anchor="middle" font-size="7.5" fill="#6b7280">0.3</text>
  <line x1="486.0" y1="12" x2="486.0" y2="152" stroke="#e5e7eb" stroke-width="0.5"/>
  <text x="486.0" y="164" text-anchor="middle" font-size="7.5" fill="#6b7280">0.4</text>
  <line x1="527.0" y1="12" x2="527.0" y2="152" stroke="#e5e7eb" stroke-width="0.5"/>
  <text x="527.0" y="164" text-anchor="middle" font-size="7.5" fill="#6b7280">0.5</text>
  <line x1="322" y1="12" x2="322" y2="152" stroke="#d1d5db" stroke-width="0.75"/>
  <line x1="322" y1="152" x2="527" y2="152" stroke="#d1d5db" stroke-width="0.75"/>
  <polyline points="322.0,12.0 322.1,12.0 322.2,12.1 322.3,12.3 322.4,12.5 322.5,12.7 322.6,13.0 322.7,13.4 322.8,13.8 322.9,14.3 323.0,14.9 323.1,15.5 323.2,16.2 323.3,16.9 323.4,17.7 323.5,18.6 323.6,19.6 323.7,20.6 323.8,21.7 323.9,22.9 324.0,24.2 324.1,25.5 324.2,26.9 324.3,28.5 324.4,30.1 324.5,31.8 324.6,33.6 324.7,35.4 324.8,37.4 324.9,39.4 325.0,41.4 325.1,43.5 325.2,45.5 325.3,47.4 325.4,49.2 325.5,50.8 325.6,52.1 325.7,53.2 325.8,54.1 325.9,54.7 326.0,55.3 326.1,55.8 326.2,56.3 326.3,57.0 326.4,57.8 326.5,58.9 326.6,60.3 326.7,62.2 326.8,64.7 326.9,68.3 327.0,74.2 327.1,89.6 327.2,80.7 327.3,72.2 327.4,68.1 327.5,65.7 327.6,64.1 327.7,63.2 327.8,62.7 327.9,62.8 328.0,63.2 328.1,64.1 328.2,65.6 328.3,67.7 328.4,71.0 328.5,76.2 328.6,88.6 328.7,85.4 328.8,75.6 328.9,71.0 329.0,68.2 329.1,66.5 329.2,65.4 329.3,64.7 329.4,64.6 329.5,64.8 329.6,65.5 329.7,66.7 329.8,68.4 329.9,71.0 330.0,74.9 330.1,81.9 330.2,119.6 330.3,81.7 330.4,75.1 330.5,71.5 330.6,69.2 330.7,67.7 330.8,66.8 330.9,66.3 331.0,66.3 331.1,66.7 331.2,67.5 331.3,68.8 331.4,70.8 331.5,73.7 331.6,78.3 331.7,87.5 331.8,94.5 331.9,80.7 332.0,75.4 332.1,72.3 332.2,70.2 332.3,68.9 332.4,68.1 332.5,67.8 332.6,67.9 332.7,68.4 332.8,69.3 332.9,70.7 333.0,72.9 333.1,76.0 333.2,81.2 333.3,93.3 333.4,90.7 333.5,80.6 333.6,76.0 333.7,73.1 333.8,71.3 333.9,70.1 334.0,69.4 334.1,69.1 334.2,69.3 334.3,69.8 334.4,70.8 334.5,72.4 334.6,74.6 334.7,78.0 334.8,83.8 334.9,99.9 335.0,89.2 335.1,80.8 335.2,76.6 335.3,74.0 335.4,72.2 335.5,71.1 335.6,70.5 335.7,70.3 335.8,70.5 335.9,71.1 336.0,72.2 336.1,73.8 336.2,76.2 336.3,79.8 336.4,86.1 336.5,108.8 336.6,88.7 336.7,81.2 336.8,77.3 336.9,74.8 337.0,73.2 337.1,72.1 337.2,71.5 337.3,71.4 337.4,71.6 337.5,72.3 337.6,73.4 337.7,75.1 337.8,77.6 337.9,81.4 338.0,88.2 338.1,136.4 338.2,88.5 338.3,81.7 338.4,78.0 338.5,75.6 338.6,74.0 338.7,73.0 338.8,72.5 338.9,72.3 339.0,72.6 339.1,73.3 339.2,74.5 339.3,76.2 339.4,78.8 339.5,82.8 339.6,90.1 339.7,114.5 339.8,88.6 339.9,82.2 340.0,78.6 340.1,76.3 340.2,74.8 340.3,73.8 340.4,73.3 340.5,73.2 340.6,73.5 340.7,74.3 340.8,75.5 340.9,77.2 341.0,79.9 341.1,84.0 341.2,91.9 341.3,108.7 341.4,88.7 341.5,82.7 341.6,79.3 341.7,77.0 341.8,75.5 341.9,74.6 342.0,74.1 342.1,74.1 342.2,74.4 342.3,75.1 342.4,76.4 342.5,78.2 342.6,80.9 342.7,85.2 342.8,93.5 342.9,106.0 343.0,89.0 343.1,83.2 343.2,79.9 343.3,77.7 343.4,76.2 343.5,75.3 343.6,74.9 343.7,74.8 343.8,75.2 343.9,75.9 344.0,77.2 344.1,79.1 344.2,81.8 344.3,86.2 344.4,95.0 344.5,104.5 344.6,89.3 344.7,83.7 344.8,80.4 344.9,78.3 345.0,76.9 345.1,76.0 345.2,75.6 345.3,75.5 345.4,75.9 345.5,76.7 345.6,78.0 345.7,79.9 345.8,82.7 345.9,87.2 346.0,96.3 346.1,103.6 346.2,89.6 346.3,84.2 346.4,81.0 346.5,78.9 346.6,77.5 346.7,76.6 346.8,76.2 346.9,76.2 347.0,76.6 347.1,77.4 347.2,78.7 347.3,80.6 347.4,83.5 347.5,88.1 347.6,97.6 347.7,103.0 347.8,89.9 347.9,84.6 348.0,81.5 348.1,79.4 348.2,78.1 348.3,77.2 348.4,76.8 348.5,76.8 348.6,77.2 348.7,78.0 348.8,79.3 348.9,81.3 349.0,84.2 349.1,88.9 349.2,98.9 349.3,102.6 349.4,90.2 349.5,85.1 349.6,82.0 349.7,80.0 349.8,78.6 349.9,77.8 350.0,77.4 350.1,77.4 350.2,77.8 350.3,78.6 350.4,80.0 350.5,82.0 350.6,84.9 350.7,89.7 350.8,100.0 350.9,102.4 351.0,90.6 351.1,85.5 351.2,82.5 351.3,80.5 351.4,79.1 351.5,78.3 351.6,77.9 351.7,78.0 351.8,78.4 351.9,79.2 352.0,80.6 352.1,82.6 352.2,85.6 352.3,90.5 352.4,101.1 352.5,102.2 352.6,90.9 352.7,85.9 352.8,82.9 352.9,80.9 353.0,79.6 353.1,78.8 353.2,78.4 353.3,78.5 353.4,78.9 353.5,79.8 353.6,81.1 353.7,83.2 353.8,86.2 353.9,91.1 354.0,102.2 354.1,102.2 354.2,91.2 354.3,86.3 354.4,83.4 354.5,81.4 354.6,80.1 354.7,79.3 354.8,78.9 354.9,79.0 355.0,79.4 355.1,80.3 355.2,81.7 355.3,83.7 355.4,86.8 355.5,91.8 355.6,103.2 355.7,102.2 355.8,91.5 355.9,86.7 356.0,83.8 356.1,81.8 356.3,80.5 356.4,79.8 356.5,79.4 356.6,79.4 356.7,79.9 356.8,80.8 356.9,82.2 357.0,84.2 357.1,87.3 357.2,92.4 357.3,104.1 357.4,102.2 357.5,91.9 357.6,87.1 357.7,84.2 357.8,82.2 357.9,81.0 358.0,80.2 358.1,79.8 358.2,79.9 358.3,80.3 358.4,81.2 358.5,82.6 358.6,84.7 358.7,87.8 358.8,93.0 358.9,105.0 359.0,102.3 359.1,92.2 359.2,87.5 359.3,84.6 359.4,82.6 359.5,81.4 359.6,80.6 359.7,80.3 359.8,80.3 359.9,80.8 360.0,81.7 360.1,83.1 360.2,85.2 360.3,88.3 360.4,93.5 360.5,105.9 360.6,102.4 360.7,92.5 360.8,87.8 360.9,84.9 361.0,83.0 361.1,81.8 361.2,81.0 361.3,80.7 361.4,80.7 361.5,81.2 361.6,82.1 361.7,83.5 361.8,85.6 361.9,88.8 362.0,94.1 362.1,106.7 362.2,102.5 362.3,92.7 362.4,88.1 362.5,85.3 362.6,83.4 362.7,82.1 362.8,81.4 362.9,81.1 363.0,81.1 363.1,81.6 363.2,82.5 363.3,83.9 363.4,86.1 363.5,89.3 363.6,94.6 363.7,107.6 363.8,102.6 363.9,93.0 364.0,88.5 364.1,85.6 364.2,83.7 364.3,82.5 364.4,81.8 364.5,81.4 364.6,81.5 364.7,82.0 364.8,82.9 364.9,84.3 365.0,86.5 365.1,89.7 365.2,95.0 365.3,108.3 365.4,102.7 365.5,93.3 365.6,88.8 365.7,86.0 365.8,84.1 365.9,82.9 366.0,82.1 366.1,81.8 366.2,81.9 366.3,82.3 366.4,83.3 366.5,84.7 366.6,86.9 366.7,90.1 366.8,95.5 366.9,109.1 367.0,102.8 367.1,93.6 367.2,89.1 367.3,86.3 367.4,84.4 367.5,83.2 367.6,82.4 367.7,82.1 367.8,82.2 367.9,82.7 368.0,83.6 368.1,85.1 368.2,87.2 368.3,90.5 368.4,95.9 368.5,109.8 368.6,103.0 368.7,93.8 368.8,89.4 368.9,86.6 369.0,84.7 369.1,83.5 369.2,82.8 369.3,82.5 369.4,82.6 369.5,83.0 369.6,84.0 369.7,85.4 369.8,87.6 369.9,90.9 370.0,96.3 370.1,110.5 370.2,103.1 370.3,94.1 370.4,89.7 370.5,86.9 370.6,85.0 370.7,83.8 370.8,83.1 370.9,82.8 371.0,82.9 371.1,83.4 371.2,84.3 371.3,85.8 371.4,87.9 371.5,91.2 371.6,96.7 371.7,111.2 371.8,103.3 371.9,94.3 372.0,89.9 372.1,87.2 372.2,85.3 372.3,84.1 372.4,83.4 372.5,83.1 372.6,83.2 372.7,83.7 372.8,84.6 372.9,86.1 373.0,88.3 373.1,91.6 373.2,97.1 373.3,111.8 373.4,103.4 373.5,94.6 373.6,90.2 373.7,87.4 373.8,85.6 373.9,84.4 374.0,83.7 374.1,83.4 374.2,83.5 374.3,84.0 374.4,84.9 374.5,86.4 374.6,88.6 374.7,91.9 374.8,97.5 374.9,112.5 375.0,103.6 375.1,94.8 375.2,90.5 375.3,87.7 375.4,85.9 375.5,84.7 375.6,84.0 375.7,83.7 375.8,83.8 375.9,84.3 376.0,85.2 376.1,86.7 376.2,88.9 376.3,92.2 376.4,97.9 376.5,113.1 376.6,103.7 376.7,95.0 376.8,90.7 376.9,88.0 377.0,86.2 377.1,85.0 377.2,84.3 377.3,84.0 377.4,84.1 377.5,84.6 377.6,85.5 377.7,87.0 377.8,89.2 377.9,92.6 378.0,98.2 378.1,113.7 378.2,103.9 378.3,95.3 378.4,90.9 378.5,88.2 378.6,86.4 378.7,85.2 378.8,84.5 378.9,84.2 379.0,84.3 379.1,84.8 379.2,85.8 379.3,87.3 379.4,89.5 379.5,92.9 379.6,98.5 379.7,114.3 379.8,104.0 379.9,95.5 380.0,91.2 380.1,88.5 380.2,86.7 380.3,85.5 380.4,84.8 380.5,84.5 380.6,84.6 380.7,85.1 380.8,86.1 380.9,87.6 381.0,89.8 381.1,93.2 381.2,98.9 381.3,114.9 381.4,104.2 381.5,95.7 381.6,91.4 381.7,88.7 381.8,86.9 381.9,85.7 382.0,85.0 382.1,84.7 382.2,84.9 382.3,85.4 382.4,86.3 382.5,87.8 382.6,90.1 382.7,93.4 382.8,99.2 382.9,115.4 383.0,104.3 383.1,95.9 383.2,91.6 383.3,88.9 383.4,87.2 383.5,86.0 383.6,85.3 383.7,85.0 383.8,85.1 383.9,85.6 384.0,86.6 384.1,88.1 384.2,90.3 384.3,93.7 384.4,99.5 384.5,116.0 384.6,104.4 384.7,96.1 384.8,91.9 384.9,89.2 385.0,87.4 385.1,86.2 385.2,85.5 385.3,85.2 385.4,85.3 385.5,85.9 385.6,86.8 385.7,88.3 385.8,90.6 385.9,94.0 386.0,99.8 386.1,116.5 386.2,104.6 386.3,96.3 386.4,92.1 386.5,89.4 386.6,87.6 386.7,86.4 386.8,85.7 386.9,85.5 387.0,85.6 387.1,86.1 387.2,87.1 387.3,88.6 387.4,90.8 387.5,94.2 387.6,100.1 387.7,117.1 387.8,104.7 387.9,96.5 388.0,92.3 388.1,89.6 388.2,87.8 388.3,86.7 388.4,86.0 388.5,85.7 388.6,85.8 388.7,86.3 388.8,87.3 388.9,88.8 389.0,91.1 389.1,94.5 389.2,100.3 389.3,117.6 389.4,104.9 389.5,96.7 389.6,92.5 389.7,89.8 389.8,88.0 389.9,86.9 390.0,86.2 390.1,85.9 390.2,86.0 390.3,86.6 390.4,87.5 390.5,89.1 390.6,91.3 390.7,94.7 390.8,100.6 390.9,118.1 391.0,105.0 391.1,96.9 391.2,92.7 391.3,90.0 391.4,88.2 391.5,87.1 391.6,86.4 391.7,86.1 391.8,86.2 391.9,86.8 392.0,87.8 392.1,89.3 392.2,91.5 392.3,95.0 392.4,100.9 392.5,118.6 392.6,105.1 392.7,97.0 392.8,92.9 392.9,90.2 393.0,88.4 393.1,87.3 393.2,86.6 393.3,86.3 393.4,86.5 393.5,87.0 393.6,88.0 393.7,89.5 393.8,91.8 393.9,95.2 394.0,101.1 394.1,119.1 394.2,105.3 394.3,97.2 394.4,93.0 394.5,90.4 394.6,88.6 394.7,87.5 394.8,86.8 394.9,86.5 395.0,86.7 395.1,87.2 395.2,88.2 395.3,89.7 395.4,92.0 395.5,95.4 395.6,101.4 395.7,119.5 395.8,105.4 395.9,97.4 396.0,93.2 396.1,90.6 396.2,88.8 396.3,87.7 396.4,87.0 396.5,86.7 396.6,86.9 396.7,87.4 396.8,88.4 396.9,89.9 397.0,92.2 397.1,95.6 397.2,101.6 397.3,120.0 397.4,105.5 397.5,97.5 397.6,93.4 397.7,90.8 397.8,89.0 397.9,87.9 398.0,87.2 398.1,86.9 398.2,87.0 398.3,87.6 398.4,88.6 398.5,90.1 398.6,92.4 398.7,95.9 398.8,101.8 398.9,120.5 399.0,105.7 399.1,97.7 399.2,93.6 399.3,90.9 399.4,89.2 399.5,88.0 399.6,87.4 399.7,87.1 399.8,87.2 399.9,87.8 400.0,88.8 400.1,90.3 400.2,92.6 400.3,96.1 400.4,102.1 400.5,120.9 400.6,105.8 400.7,97.9 400.8,93.7 400.9,91.1 401.0,89.4 401.1,88.2 401.2,87.5 401.3,87.3 401.4,87.4 401.5,88.0 401.6,88.9 401.7,90.5 401.8,92.8 401.9,96.3 402.0,102.3 402.1,121.4 402.2,105.9 402.3,98.0 402.4,93.9 402.5,91.3 402.6,89.5 402.7,88.4 402.8,87.7 402.9,87.5 403.0,87.6 403.1,88.1 403.2,89.1 403.3,90.7 403.4,93.0 403.5,96.5 403.6,102.5 403.7,121.8 403.8,106.0 403.9,98.2 404.0,94.1 404.1,91.4 404.2,89.7 404.3,88.6 404.4,87.9 404.5,87.6 404.6,87.8 404.7,88.3 404.8,89.3 404.9,90.8 405.0,93.1 405.1,96.6 405.2,102.7 405.3,122.2 405.4,106.1 405.5,98.3 405.6,94.2 405.7,91.6 405.8,89.9 405.9,88.7 406.0,88.0 406.1,87.8 406.2,87.9 406.3,88.5 406.4,89.5 406.5,91.0 406.6,93.3 406.7,96.8 406.8,102.9 406.9,122.6 407.0,106.2 407.1,98.5 407.2,94.4 407.3,91.8 407.4,90.0 407.5,88.9 407.6,88.2 407.7,88.0 407.8,88.1 407.9,88.6 408.0,89.6 408.1,91.2 408.2,93.5 408.3,97.0 408.4,103.1 408.5,123.1 408.6,106.4 408.7,98.6 408.8,94.5 408.9,91.9 409.0,90.2 409.1,89.0 409.2,88.4 409.3,88.1 409.4,88.3 409.5,88.8 409.6,89.8 409.7,91.4 409.8,93.7 409.9,97.2 410.0,103.3 410.1,123.5 410.2,106.5 410.3,98.7 410.4,94.7 410.5,92.1 410.6,90.3 410.7,89.2 410.8,88.5 410.9,88.3 411.0,88.4 411.1,89.0 411.2,90.0 411.3,91.5 411.4,93.8 411.5,97.4 411.6,103.5 411.7,123.9 411.8,106.6 411.9,98.9 412.0,94.8 412.1,92.2 412.2,90.5 412.3,89.3 412.4,88.7 412.5,88.4 412.6,88.6 412.7,89.1 412.8,90.1 412.9,91.7 413.0,94.0 413.1,97.5 413.2,103.7 413.3,124.3 413.4,106.7 413.5,99.0 413.6,94.9 413.7,92.3 413.8,90.6 413.9,89.5 414.0,88.8 414.1,88.6 414.2,88.7 414.3,89.3 414.4,90.3 414.5,91.8 414.6,94.1 414.7,97.7 414.8,103.8 414.9,124.7 415.0,106.8 415.1,99.1 415.2,95.1 415.3,92.5 415.4,90.8 415.5,89.6 415.6,89.0 415.7,88.7 415.8,88.9 415.9,89.4 416.0,90.4 416.1,92.0 416.2,94.3 416.3,97.8 416.4,104.0 416.5,125.1 416.6,106.9 416.7,99.2 416.8,95.2 416.9,92.6 417.0,90.9 417.1,89.8 417.2,89.1 417.3,88.9 417.4,89.0 417.5,89.6 417.6,90.6 417.7,92.1 417.8,94.4 417.9,98.0 418.0,104.2 418.1,125.5 418.2,107.0 418.3,99.4 418.4,95.3 418.5,92.7 418.6,91.0 418.7,89.9 418.8,89.2 418.9,89.0 419.0,89.1 419.1,89.7 419.2,90.7 419.3,92.3 419.4,94.6 419.5,98.1 419.6,104.3 419.7,125.9 419.8,107.1 419.9,99.5 420.0,95.4 420.1,92.9 420.2,91.1 420.3,90.0 420.4,89.4 420.5,89.1 420.6,89.3 420.7,89.8 420.8,90.8 420.9,92.4 421.0,94.7 421.1,98.3 421.2,104.5 421.3,126.2 421.4,107.2 421.5,99.6 421.6,95.6 421.7,93.0 421.8,91.3 421.9,90.1 422.0,89.5 422.1,89.3 422.2,89.4 422.3,90.0 422.4,91.0 422.5,92.5 422.6,94.9 422.7,98.4 422.8,104.7 422.9,126.6 423.0,107.3 423.1,99.7 423.2,95.7 423.3,93.1 423.4,91.4 423.5,90.3 423.6,89.6 423.7,89.4 423.8,89.5 423.9,90.1 424.0,91.1 424.1,92.7 424.2,95.0 424.3,98.6 424.4,104.8 424.6,127.0 424.7,107.3 424.8,99.8 424.9,95.8 425.0,93.2 425.1,91.5 425.2,90.4 425.3,89.7 425.4,89.5 425.5,89.7 425.6,90.2 425.7,91.2 425.8,92.8 425.9,95.1 426.0,98.7 426.1,105.0 426.2,127.4 426.3,107.4 426.4,99.9 426.5,95.9 426.6,93.4 426.7,91.6 426.8,90.5 426.9,89.9 427.0,89.6 427.1,89.8 427.2,90.3 427.3,91.4 427.4,92.9 427.5,95.3 427.6,98.8 427.7,105.1 427.8,127.7 427.9,107.5 428.0,100.0 428.1,96.0 428.2,93.5 428.3,91.8 428.4,90.6 428.5,90.0 428.6,89.7 428.7,89.9 428.8,90.5 428.9,91.5 429.0,93.1 429.1,95.4 429.2,99.0 429.3,105.3 429.4,128.1 429.5,107.6 429.6,100.1 429.7,96.1 429.8,93.6 429.9,91.9 430.0,90.7 430.1,90.1 430.2,89.9 430.3,90.0 430.4,90.6 430.5,91.6 430.6,93.2 430.7,95.5 430.8,99.1 430.9,105.4 431.0,128.5 431.1,107.7 431.2,100.2 431.3,96.2 431.4,93.7 431.5,92.0 431.6,90.9 431.7,90.2 431.8,90.0 431.9,90.1 432.0,90.7 432.1,91.7 432.2,93.3 432.3,95.6 432.4,99.2 432.5,105.5 432.6,128.8 432.7,107.8 432.8,100.3 432.9,96.3 433.0,93.8 433.1,92.1 433.2,91.0 433.3,90.3 433.4,90.1 433.5,90.2 433.6,90.8 433.7,91.8 433.8,93.4 433.9,95.8 434.0,99.3 434.1,105.7 434.2,129.2 434.3,107.8 434.4,100.4 434.5,96.4 434.6,93.9 434.7,92.2 434.8,91.1 434.9,90.4 435.0,90.2 435.1,90.4 435.2,90.9 435.3,91.9 435.4,93.5 435.5,95.9 435.6,99.5 435.7,105.8 435.8,129.5 435.9,107.9 436.0,100.5 436.1,96.5 436.2,94.0 436.3,92.3 436.4,91.2 436.5,90.5 436.6,90.3 436.7,90.5 436.8,91.0 436.9,92.0 437.0,93.6 437.1,96.0 437.2,99.6 437.3,105.9 437.4,129.9 437.5,108.0 437.6,100.6 437.7,96.6 437.8,94.1 437.9,92.4 438.0,91.3 438.1,90.6 438.2,90.4 438.3,90.6 438.4,91.1 438.5,92.2 438.6,93.7 438.7,96.1 438.8,99.7 438.9,106.0 439.0,130.2 439.1,108.1 439.2,100.7 439.3,96.7 439.4,94.2 439.5,92.5 439.6,91.4 439.7,90.7 439.8,90.5 439.9,90.7 440.0,91.2 440.1,92.3 440.2,93.8 440.3,96.2 440.4,99.8 440.5,106.2 440.6,130.6 440.7,108.1 440.8,100.8 440.9,96.8 441.0,94.3 441.1,92.6 441.2,91.5 441.3,90.8 441.4,90.6 441.5,90.8 441.6,91.3 441.7,92.4 441.8,93.9 441.9,96.3 442.0,99.9 442.1,106.3 442.2,131.0 442.3,108.2 442.4,100.9 442.5,96.9 442.6,94.4 442.7,92.7 442.8,91.6 442.9,90.9 443.0,90.7 443.1,90.9 443.2,91.4 443.3,92.5 443.4,94.0 443.5,96.4 443.6,100.0 443.7,106.4 443.8,131.3 443.9,108.3 444.0,100.9 444.1,97.0 444.2,94.5 444.3,92.8 444.4,91.6 444.5,91.0 444.6,90.8 444.7,90.9 444.8,91.5 444.9,92.5 445.0,94.1 445.1,96.5 445.2,100.1 445.3,106.5 445.4,131.7 445.5,108.3 445.6,101.0 445.7,97.1 445.8,94.5 445.9,92.8 446.0,91.7 446.1,91.1 446.2,90.9 446.3,91.0 446.4,91.6 446.5,92.6 446.6,94.2 446.7,96.6 446.8,100.2 446.9,106.6 447.0,132.0 447.1,108.4 447.2,101.1 447.3,97.2 447.4,94.6 447.5,92.9 447.6,91.8 447.7,91.2 447.8,91.0 447.9,91.1 448.0,91.7 448.1,92.7 448.2,94.3 448.3,96.7 448.4,100.3 448.5,106.7 448.6,132.4 448.7,108.5 448.8,101.2 448.9,97.2 449.0,94.7 449.1,93.0 449.2,91.9 449.3,91.3 449.4,91.0 449.5,91.2 449.6,91.8 449.7,92.8 449.8,94.4 449.9,96.8 450.0,100.4 450.1,106.8 450.2,132.7 450.3,108.5 450.4,101.2 450.5,97.3 450.6,94.8 450.7,93.1 450.8,92.0 450.9,91.3 451.0,91.1 451.1,91.3 451.2,91.9 451.3,92.9 451.4,94.5 451.5,96.9 451.6,100.5 451.7,106.9 451.8,133.1 451.9,108.6 452.0,101.3 452.1,97.4 452.2,94.9 452.3,93.2 452.4,92.1 452.5,91.4 452.6,91.2 452.7,91.4 452.8,92.0 452.9,93.0 453.0,94.6 453.1,97.0 453.2,100.6 453.3,107.0 453.4,133.4 453.5,108.6 453.6,101.4 453.7,97.5 453.8,94.9 453.9,93.2 454.0,92.1 454.1,91.5 454.2,91.3 454.3,91.5 454.4,92.0 454.5,93.1 454.6,94.7 454.7,97.0 454.8,100.7 454.9,107.1 455.0,133.8 455.1,108.7 455.2,101.4 455.3,97.5 455.4,95.0 455.5,93.3 455.6,92.2 455.7,91.6 455.8,91.4 455.9,91.5 456.0,92.1 456.1,93.1 456.2,94.7 456.3,97.1 456.4,100.8 456.5,107.2 456.6,134.1 456.7,108.7 456.8,101.5 456.9,97.6 457.0,95.1 457.1,93.4 457.2,92.3 457.3,91.7 457.4,91.4 457.5,91.6 457.6,92.2 457.7,93.2 457.8,94.8 457.9,97.2 458.0,100.8 458.1,107.3 458.2,134.5 458.3,108.8 458.4,101.6 458.5,97.7 458.6,95.1 458.7,93.5 458.8,92.4 458.9,91.7 459.0,91.5 459.1,91.7 459.2,92.3 459.3,93.3 459.4,94.9 459.5,97.3 459.6,100.9 459.7,107.4 459.8,134.8 459.9,108.8 460.0,101.6 460.1,97.7 460.2,95.2 460.3,93.5 460.4,92.4 460.5,91.8 460.6,91.6 460.7,91.8 460.8,92.3 460.9,93.4 461.0,95.0 461.1,97.4 461.2,101.0 461.3,107.5 461.4,135.2 461.5,108.9 461.6,101.7 461.7,97.8 461.8,95.3 461.9,93.6 462.0,92.5 462.1,91.9 462.2,91.6 462.3,91.8 462.4,92.4 462.5,93.4 462.6,95.0 462.7,97.4 462.8,101.1 462.9,107.6 463.0,135.6 463.1,108.9 463.2,101.7 463.3,97.8 463.4,95.3 463.5,93.7 463.6,92.6 463.7,91.9 463.8,91.7 463.9,91.9 464.0,92.5 464.1,93.5 464.2,95.1 464.3,97.5 464.4,101.2 464.5,107.7 464.6,135.9 464.7,109.0 464.8,101.8 464.9,97.9 465.0,95.4 465.1,93.7 465.2,92.6 465.3,92.0 465.4,91.8 465.5,92.0 465.6,92.5 465.7,93.6 465.8,95.2 465.9,97.6 466.0,101.2 466.1,107.8 466.2,136.3 466.3,109.0 466.4,101.9 466.5,98.0 466.6,95.5 466.7,93.8 466.8,92.7 466.9,92.1 467.0,91.8 467.1,92.0 467.2,92.6 467.3,93.6 467.4,95.2 467.5,97.6 467.6,101.3 467.7,107.8 467.8,136.7 467.9,109.1 468.0,101.9 468.1,98.0 468.2,95.5 468.3,93.8 468.4,92.7 468.5,92.1 468.6,91.9 468.7,92.1 468.8,92.7 468.9,93.7 469.0,95.3 469.1,97.7 469.2,101.4 469.3,107.9 469.4,137.1 469.5,109.1 469.6,102.0 469.7,98.1 469.8,95.6 469.9,93.9 470.0,92.8 470.1,92.2 470.2,92.0 470.3,92.1 470.4,92.7 470.5,93.8 470.6,95.4 470.7,97.8 470.8,101.4 470.9,108.0 471.0,137.4 471.1,109.1 471.2,102.0 471.3,98.1 471.4,95.6 471.5,94.0 471.6,92.9 471.7,92.2 471.8,92.0 471.9,92.2 472.0,92.8 472.1,93.8 472.2,95.4 472.3,97.8 472.4,101.5 472.5,108.1 472.6,137.8 472.7,109.2 472.8,102.1 472.9,98.2 473.0,95.7 473.1,94.0 473.2,92.9 473.3,92.3 473.4,92.1 473.5,92.2 473.6,92.8 473.7,93.9 473.8,95.5 473.9,97.9 474.0,101.6 474.1,108.1 474.2,138.2 474.3,109.2 474.4,102.1 474.5,98.2 474.6,95.7 474.7,94.1 474.8,93.0 474.9,92.3 475.0,92.1 475.1,92.3 475.2,92.9 475.3,93.9 475.4,95.5 475.5,97.9 475.6,101.6 475.7,108.2 475.8,138.6 475.9,109.2 476.0,102.1 476.1,98.3 476.2,95.8 476.3,94.1 476.4,93.0 476.5,92.4 476.6,92.2 476.7,92.4 476.8,92.9 476.9,94.0 477.0,95.6 477.1,98.0 477.2,101.7 477.3,108.3 477.4,139.0 477.5,109.3 477.6,102.2 477.7,98.3 477.8,95.8 477.9,94.2 478.0,93.1 478.1,92.4 478.2,92.2 478.3,92.4 478.4,93.0 478.5,94.0 478.6,95.7 478.7,98.1 478.8,101.7 478.9,108.3 479.0,139.4 479.1,109.3 479.2,102.2 479.3,98.4 479.4,95.9 479.5,94.2 479.6,93.1 479.7,92.5 479.8,92.3 479.9,92.5 480.0,93.0 480.1,94.1 480.2,95.7 480.3,98.1 480.4,101.8 480.5,108.4 480.6,139.9 480.7,109.3 480.8,102.3 480.9,98.4 481.0,95.9 481.1,94.2 481.2,93.2 481.3,92.5 481.4,92.3 481.5,92.5 481.6,93.1 481.7,94.1 481.8,95.8 481.9,98.2 482.0,101.9 482.1,108.5 482.2,140.3 482.3,109.4 482.4,102.3 482.5,98.4 482.6,96.0 482.7,94.3 482.8,93.2 482.9,92.6 483.0,92.4 483.1,92.5 483.2,93.1 483.3,94.2 483.4,95.8 483.5,98.2 483.6,101.9 483.7,108.5 483.8,140.7 483.9,109.4 484.0,102.3 484.1,98.5 484.2,96.0 484.3,94.3 484.4,93.2 484.5,92.6 484.6,92.4 484.7,92.6 484.8,93.2 484.9,94.2 485.0,95.8 485.1,98.3 485.2,102.0 485.3,108.6 485.4,141.2 485.5,109.4 485.6,102.4 485.7,98.5 485.8,96.0 485.9,94.4 486.0,93.3 486.1,92.7 486.2,92.4 486.3,92.6 486.4,93.2 486.5,94.3 486.6,95.9 486.7,98.3 486.8,102.0 486.9,108.6 487.0,141.7 487.1,109.4 487.2,102.4 487.3,98.5 487.4,96.1 487.5,94.4 487.6,93.3 487.7,92.7 487.8,92.5 487.9,92.7 488.0,93.3 488.1,94.3 488.2,95.9 488.3,98.3 488.4,102.1 488.5,108.7 488.6,142.1 488.7,109.5 488.8,102.4 488.9,98.6 489.0,96.1 489.1,94.4 489.2,93.4 489.3,92.7 489.4,92.5 489.5,92.7 489.6,93.3 489.7,94.4 489.8,96.0 489.9,98.4 490.0,102.1 490.1,108.7 490.2,142.6 490.3,109.5 490.4,102.5 490.5,98.6 490.6,96.1 490.7,94.5 490.8,93.4 490.9,92.8 491.0,92.6 491.1,92.7 491.2,93.3 491.3,94.4 491.4,96.0 491.5,98.4 491.6,102.1 491.7,108.8 491.8,143.1 491.9,109.5 492.0,102.5 492.1,98.6 492.2,96.2 492.3,94.5 492.4,93.4 492.5,92.8 492.6,92.6 492.7,92.8 492.9,93.4 493.0,94.4 493.1,96.0 493.2,98.5 493.3,102.2 493.4,108.8 493.5,143.7 493.6,109.5 493.7,102.5 493.8,98.7 493.9,96.2 494.0,94.5 494.1,93.5 494.2,92.8 494.3,92.6 494.4,92.8 494.5,93.4 494.6,94.5 494.7,96.1 494.8,98.5 494.9,102.2 495.0,108.9 495.1,144.2 495.2,109.5 495.3,102.5 495.4,98.7 495.5,96.2 495.6,94.6 495.7,93.5 495.8,92.9 495.9,92.7 496.0,92.8 496.1,93.4 496.2,94.5 496.3,96.1 496.4,98.5 496.5,102.3 496.6,108.9 496.7,144.8 496.8,109.5 496.9,102.6 497.0,98.7 497.1,96.3 497.2,94.6 497.3,93.5 497.4,92.9 497.5,92.7 497.6,92.9 497.7,93.5 497.8,94.5 497.9,96.2 498.0,98.6 498.1,102.3 498.2,109.0 498.3,145.4 498.4,109.5 498.5,102.6 498.6,98.7 498.7,96.3 498.8,94.6 498.9,93.5 499.0,92.9 499.1,92.7 499.2,92.9 499.3,93.5 499.4,94.6 499.5,96.2 499.6,98.6 499.7,102.3 499.8,109.0 499.9,146.0 500.0,109.6 500.1,102.6 500.2,98.8 500.3,96.3 500.4,94.6 500.5,93.6 500.6,92.9 500.7,92.7 500.8,92.9 500.9,93.5 501.0,94.6 501.1,96.2 501.2,98.6 501.3,102.4 501.4,109.1 501.5,146.7 501.6,109.6 501.7,102.6 501.8,98.8 501.9,96.3 502.0,94.7 502.1,93.6 502.2,93.0 502.3,92.8 502.4,93.0 502.5,93.6 502.6,94.6 502.7,96.2 502.8,98.7 502.9,102.4 503.0,109.1 503.1,147.4 503.2,109.6 503.3,102.6 503.4,98.8 503.5,96.3 503.6,94.7 503.7,93.6 503.8,93.0 503.9,92.8 504.0,93.0 504.1,93.6 504.2,94.6 504.3,96.3 504.4,98.7 504.5,102.4 504.6,109.1 504.7,148.1 504.8,109.6 504.9,102.6 505.0,98.8 505.1,96.4 505.2,94.7 505.3,93.6 505.4,93.0 505.5,92.8 505.6,93.0 505.7,93.6 505.8,94.7 505.9,96.3 506.0,98.7 506.1,102.5 506.2,109.2 506.3,148.9 506.4,109.6 506.5,102.7 506.6,98.8 506.7,96.4 506.8,94.7 506.9,93.6 507.0,93.0 507.1,92.8 507.2,93.0 507.3,93.6 507.4,94.7 507.5,96.3 507.6,98.7 507.7,102.5 507.8,109.2 507.9,149.7 508.0,109.6 508.1,102.7 508.2,98.9 508.3,96.4 508.4,94.7 508.5,93.7 508.6,93.1 508.7,92.8 508.8,93.0 508.9,93.6 509.0,94.7 509.1,96.3 509.2,98.8 509.3,102.5 509.4,109.2 509.5,150.6 509.6,109.6 509.7,102.7 509.8,98.9 509.9,96.4 510.0,94.8 510.1,93.7 510.2,93.1 510.3,92.9 510.4,93.1 510.5,93.7 510.6,94.7 510.7,96.4 510.8,98.8 510.9,102.5 511.0,109.3 511.1,151.6 511.2,109.6 511.3,102.7 511.4,98.9 511.5,96.4 511.6,94.8 511.7,93.7 511.8,93.1 511.9,92.9 512.0,93.1 512.1,93.7 512.2,94.7 512.3,96.4 512.4,98.8 512.5,102.6 512.6,109.3 512.7,152.0 512.8,109.6 512.9,102.7 513.0,98.9 513.1,96.4 513.2,94.8 513.3,93.7 513.4,93.1 513.5,92.9 513.6,93.1 513.7,93.7 513.8,94.8 513.9,96.4 514.0,98.8 514.1,102.6 514.2,109.3 514.3,152.0 514.4,109.6 514.5,102.7 514.6,98.9 514.7,96.4 514.8,94.8 514.9,93.7 515.0,93.1 515.1,92.9 515.2,93.1 515.3,93.7 515.4,94.8 515.5,96.4 515.6,98.8 515.7,102.6 515.8,109.4 515.9,152.0 516.0,109.6 516.1,102.7 516.2,98.9 516.3,96.4 516.4,94.8 516.5,93.7 516.6,93.1 516.7,92.9 516.8,93.1 516.9,93.7 517.0,94.8 517.1,96.4 517.2,98.8 517.3,102.6 517.4,109.4 517.5,152.0 517.6,109.6 517.7,102.7 517.8,98.9 517.9,96.5 518.0,94.8 518.1,93.7 518.2,93.1 518.3,92.9 518.4,93.1 518.5,93.7 518.6,94.8 518.7,96.4 518.8,98.9 518.9,102.6 519.0,109.4 519.1,152.0 519.2,109.6 519.3,102.7 519.4,98.9 519.5,96.5 519.6,94.8 519.7,93.7 519.8,93.1 519.9,92.9 520.0,93.1 520.1,93.7 520.2,94.8 520.3,96.4 520.4,98.9 520.5,102.6 520.6,109.4 520.7,152.0 520.8,109.6 520.9,102.7 521.0,98.9 521.1,96.5 521.2,94.8 521.3,93.7 521.4,93.1 521.5,92.9 521.6,93.1 521.7,93.7 521.8,94.8 521.9,96.4 522.0,98.9 522.1,102.7 522.2,109.5 522.3,152.0 522.4,109.6 522.5,102.7 522.6,98.9 522.7,96.5 522.8,94.8 522.9,93.8 523.0,93.1 523.1,92.9 523.2,93.1 523.3,93.7 523.4,94.8 523.5,96.5 523.6,98.9 523.7,102.7 523.8,109.5 523.9,152.0 524.0,109.5 524.1,102.7 524.2,98.9 524.3,96.5 524.4,94.8 524.5,93.8 524.6,93.1 524.7,92.9 524.8,93.1 524.9,93.8 525.0,94.8 525.1,96.5 525.2,98.9 525.3,102.7 525.4,109.5 525.5,152.0 525.6,109.5 525.7,102.7 525.8,98.9 525.9,96.5 526.0,94.8 526.1,93.8 526.2,93.1 526.3,93.0 526.4,93.1 526.5,93.8 526.6,94.8 526.7,96.5 526.8,98.9 526.9,102.7 527.0,109.5" fill="none" stroke="#4a90d9" stroke-width="1.2" stroke-linejoin="round"/>
  <text x="154.5" y="176" text-anchor="middle" font-size="8" fill="#6b7280">n / N</text>
  <text x="424.5" y="176" text-anchor="middle" font-size="8" fill="#6b7280">Normalized frequency (× Fₛ)</text>
</svg>
