<svg xmlns="http://www.w3.org/2000/svg" viewBox="0 0 560 210" width="560" height="210" style="font-family:system-ui,-apple-system,sans-serif">
  <rect width="560" height="210" fill="#fafafa" rx="6"/>
  <text x="280" y="18" text-anchor="middle" font-size="12" font-weight="600" fill="#374151">gaussian</text>
  <line x1="52" y1="166.0" x2="257" y2="166.0" stroke="#e5e7eb" stroke-width="0.5"/>
  <text x="48" y="169.0" text-anchor="end" font-size="7.5" fill="#6b7280">0</text>
  <line x1="52" y1="97.0" x2="257" y2="97.0" stroke="#e5e7eb" stroke-width="0.5"/>
  <text x="48" y="100.0" text-anchor="end" font-size="7.5" fill="#6b7280">0.5</text>
  <line x1="52" y1="28.0" x2="257" y2="28.0" stroke="#e5e7eb" stroke-width="0.5"/>
  <text x="48" y="31.0" text-anchor="end" font-size="7.5" fill="#6b7280">1</text>
  <line x1="52.0" y1="28" x2="52.0" y2="166" stroke="#e5e7eb" stroke-width="0.5"/>
  <text x="52.0" y="178" text-anchor="middle" font-size="7.5" fill="#6b7280">0</text>
  <line x1="154.5" y1="28" x2="154.5" y2="166" stroke="#e5e7eb" stroke-width="0.5"/>
  <text x="154.5" y="178" text-anchor="middle" font-size="7.5" fill="#6b7280">0.5</text>
  <line x1="257.0" y1="28" x2="257.0" y2="166" stroke="#e5e7eb" stroke-width="0.5"/>
  <text x="257.0" y="178" text-anchor="middle" font-size="7.5" fill="#6b7280">1</text>
  <line x1="52" y1="28" x2="52" y2="166" stroke="#d1d5db" stroke-width="0.75"/>
  <line x1="52" y1="166" x2="257" y2="166" stroke="#d1d5db" stroke-width="0.75"/>
  <path d="M52.0,166.0 52.0,159.9 52.8,159.6 53.6,159.3 54.4,159.0 55.2,158.6 56.0,158.3 56.8,157.9 57.6,157.5 58.4,157.1 59.2,156.7 60.0,156.3 60.8,155.8 61.6,155.4 62.5,154.9 63.3,154.4 64.1,153.9 64.9,153.4 65.7,152.8 66.5,152.2 67.3,151.6 68.1,151.0 68.9,150.4 69.7,149.8 70.5,149.1 71.3,148.4 72.1,147.7 72.9,147.0 73.7,146.2 74.5,145.4 75.3,144.6 76.1,143.8 76.9,143.0 77.7,142.1 78.5,141.2 79.3,140.3 80.1,139.4 80.9,138.4 81.7,137.4 82.5,136.4 83.4,135.4 84.2,134.3 85.0,133.2 85.8,132.1 86.6,131.0 87.4,129.9 88.2,128.7 89.0,127.5 89.8,126.3 90.6,125.1 91.4,123.8 92.2,122.5 93.0,121.2 93.8,119.9 94.6,118.5 95.4,117.1 96.2,115.8 97.0,114.3 97.8,112.9 98.6,111.5 99.4,110.0 100.2,108.5 101.0,107.0 101.8,105.5 102.6,104.0 103.5,102.4 104.3,100.9 105.1,99.3 105.9,97.7 106.7,96.1 107.5,94.5 108.3,92.9 109.1,91.3 109.9,89.7 110.7,88.0 111.5,86.4 112.3,84.8 113.1,83.1 113.9,81.5 114.7,79.8 115.5,78.2 116.3,76.6 117.1,74.9 117.9,73.3 118.7,71.7 119.5,70.1 120.3,68.5 121.1,66.9 121.9,65.3 122.7,63.8 123.5,62.2 124.4,60.7 125.2,59.2 126.0,57.7 126.8,56.2 127.6,54.8 128.4,53.4 129.2,52.0 130.0,50.6 130.8,49.3 131.6,47.9 132.4,46.7 133.2,45.4 134.0,44.2 134.8,43.0 135.6,41.9 136.4,40.8 137.2,39.7 138.0,38.7 138.8,37.7 139.6,36.8 140.4,35.9 141.2,35.0 142.0,34.2 142.8,33.5 143.6,32.8 144.5,32.1 145.3,31.5 146.1,30.9 146.9,30.4 147.7,29.9 148.5,29.5 149.3,29.1 150.1,28.8 150.9,28.5 151.7,28.3 152.5,28.2 153.3,28.1 154.1,28.0 154.9,28.0 155.7,28.1 156.5,28.2 157.3,28.3 158.1,28.5 158.9,28.8 159.7,29.1 160.5,29.5 161.3,29.9 162.1,30.4 162.9,30.9 163.7,31.5 164.5,32.1 165.4,32.8 166.2,33.5 167.0,34.2 167.8,35.0 168.6,35.9 169.4,36.8 170.2,37.7 171.0,38.7 171.8,39.7 172.6,40.8 173.4,41.9 174.2,43.0 175.0,44.2 175.8,45.4 176.6,46.7 177.4,47.9 178.2,49.3 179.0,50.6 179.8,52.0 180.6,53.4 181.4,54.8 182.2,56.2 183.0,57.7 183.8,59.2 184.6,60.7 185.5,62.2 186.3,63.8 187.1,65.3 187.9,66.9 188.7,68.5 189.5,70.1 190.3,71.7 191.1,73.3 191.9,74.9 192.7,76.6 193.5,78.2 194.3,79.8 195.1,81.5 195.9,83.1 196.7,84.8 197.5,86.4 198.3,88.0 199.1,89.7 199.9,91.3 200.7,92.9 201.5,94.5 202.3,96.1 203.1,97.7 203.9,99.3 204.7,100.9 205.5,102.4 206.4,104.0 207.2,105.5 208.0,107.0 208.8,108.5 209.6,110.0 210.4,111.5 211.2,112.9 212.0,114.3 212.8,115.8 213.6,117.1 214.4,118.5 215.2,119.9 216.0,121.2 216.8,122.5 217.6,123.8 218.4,125.1 219.2,126.3 220.0,127.5 220.8,128.7 221.6,129.9 222.4,131.0 223.2,132.1 224.0,133.2 224.8,134.3 225.6,135.4 226.5,136.4 227.3,137.4 228.1,138.4 228.9,139.4 229.7,140.3 230.5,141.2 231.3,142.1 232.1,143.0 232.9,143.8 233.7,144.6 234.5,145.4 235.3,146.2 236.1,147.0 236.9,147.7 237.7,148.4 238.5,149.1 239.3,149.8 240.1,150.4 240.9,151.0 241.7,151.6 242.5,152.2 243.3,152.8 244.1,153.4 244.9,153.9 245.7,154.4 246.5,154.9 247.4,155.4 248.2,155.8 249.0,156.3 249.8,156.7 250.6,157.1 251.4,157.5 252.2,157.9 253.0,158.3 253.8,158.6 254.6,159.0 255.4,159.3 256.2,159.6 257.0,159.9 L257.0,166.0 Z" fill="#4a90d9" fill-opacity="0.06"/>
  <polyline points="52.0,159.9 52.8,159.6 53.6,159.3 54.4,159.0 55.2,158.6 56.0,158.3 56.8,157.9 57.6,157.5 58.4,157.1 59.2,156.7 60.0,156.3 60.8,155.8 61.6,155.4 62.5,154.9 63.3,154.4 64.1,153.9 64.9,153.4 65.7,152.8 66.5,152.2 67.3,151.6 68.1,151.0 68.9,150.4 69.7,149.8 70.5,149.1 71.3,148.4 72.1,147.7 72.9,147.0 73.7,146.2 74.5,145.4 75.3,144.6 76.1,143.8 76.9,143.0 77.7,142.1 78.5,141.2 79.3,140.3 80.1,139.4 80.9,138.4 81.7,137.4 82.5,136.4 83.4,135.4 84.2,134.3 85.0,133.2 85.8,132.1 86.6,131.0 87.4,129.9 88.2,128.7 89.0,127.5 89.8,126.3 90.6,125.1 91.4,123.8 92.2,122.5 93.0,121.2 93.8,119.9 94.6,118.5 95.4,117.1 96.2,115.8 97.0,114.3 97.8,112.9 98.6,111.5 99.4,110.0 100.2,108.5 101.0,107.0 101.8,105.5 102.6,104.0 103.5,102.4 104.3,100.9 105.1,99.3 105.9,97.7 106.7,96.1 107.5,94.5 108.3,92.9 109.1,91.3 109.9,89.7 110.7,88.0 111.5,86.4 112.3,84.8 113.1,83.1 113.9,81.5 114.7,79.8 115.5,78.2 116.3,76.6 117.1,74.9 117.9,73.3 118.7,71.7 119.5,70.1 120.3,68.5 121.1,66.9 121.9,65.3 122.7,63.8 123.5,62.2 124.4,60.7 125.2,59.2 126.0,57.7 126.8,56.2 127.6,54.8 128.4,53.4 129.2,52.0 130.0,50.6 130.8,49.3 131.6,47.9 132.4,46.7 133.2,45.4 134.0,44.2 134.8,43.0 135.6,41.9 136.4,40.8 137.2,39.7 138.0,38.7 138.8,37.7 139.6,36.8 140.4,35.9 141.2,35.0 142.0,34.2 142.8,33.5 143.6,32.8 144.5,32.1 145.3,31.5 146.1,30.9 146.9,30.4 147.7,29.9 148.5,29.5 149.3,29.1 150.1,28.8 150.9,28.5 151.7,28.3 152.5,28.2 153.3,28.1 154.1,28.0 154.9,28.0 155.7,28.1 156.5,28.2 157.3,28.3 158.1,28.5 158.9,28.8 159.7,29.1 160.5,29.5 161.3,29.9 162.1,30.4 162.9,30.9 163.7,31.5 164.5,32.1 165.4,32.8 166.2,33.5 167.0,34.2 167.8,35.0 168.6,35.9 169.4,36.8 170.2,37.7 171.0,38.7 171.8,39.7 172.6,40.8 173.4,41.9 174.2,43.0 175.0,44.2 175.8,45.4 176.6,46.7 177.4,47.9 178.2,49.3 179.0,50.6 179.8,52.0 180.6,53.4 181.4,54.8 182.2,56.2 183.0,57.7 183.8,59.2 184.6,60.7 185.5,62.2 186.3,63.8 187.1,65.3 187.9,66.9 188.7,68.5 189.5,70.1 190.3,71.7 191.1,73.3 191.9,74.9 192.7,76.6 193.5,78.2 194.3,79.8 195.1,81.5 195.9,83.1 196.7,84.8 197.5,86.4 198.3,88.0 199.1,89.7 199.9,91.3 200.7,92.9 201.5,94.5 202.3,96.1 203.1,97.7 203.9,99.3 204.7,100.9 205.5,102.4 206.4,104.0 207.2,105.5 208.0,107.0 208.8,108.5 209.6,110.0 210.4,111.5 211.2,112.9 212.0,114.3 212.8,115.8 213.6,117.1 214.4,118.5 215.2,119.9 216.0,121.2 216.8,122.5 217.6,123.8 218.4,125.1 219.2,126.3 220.0,127.5 220.8,128.7 221.6,129.9 222.4,131.0 223.2,132.1 224.0,133.2 224.8,134.3 225.6,135.4 226.5,136.4 227.3,137.4 228.1,138.4 228.9,139.4 229.7,140.3 230.5,141.2 231.3,142.1 232.1,143.0 232.9,143.8 233.7,144.6 234.5,145.4 235.3,146.2 236.1,147.0 236.9,147.7 237.7,148.4 238.5,149.1 239.3,149.8 240.1,150.4 240.9,151.0 241.7,151.6 242.5,152.2 243.3,152.8 244.1,153.4 244.9,153.9 245.7,154.4 246.5,154.9 247.4,155.4 248.2,155.8 249.0,156.3 249.8,156.7 250.6,157.1 251.4,157.5 252.2,157.9 253.0,158.3 253.8,158.6 254.6,159.0 255.4,159.3 256.2,159.6 257.0,159.9" fill="none" stroke="#4a90d9" stroke-width="1.2" stroke-linejoin="round"/>
  <line x1="322" y1="28.0" x2="527" y2="28.0" stroke="#e5e7eb" stroke-width="0.5"/>
  <text x="318" y="31.0" text-anchor="end" font-size="7.5" fill="#6b7280">0</text>
  <line x1="322" y1="74.0" x2="527" y2="74.0" stroke="#e5e7eb" stroke-width="0.5"/>
  <text x="318" y="77.0" text-anchor="end" font-size="7.5" fill="#6b7280">-40</text>
  <line x1="322" y1="120.0" x2="527" y2="120.0" stroke="#e5e7eb" stroke-width="0.5"/>
  <text x="318" y="123.0" text-anchor="end" font-size="7.5" fill="#6b7280">-80</text>
  <line x1="322" y1="166.0" x2="527" y2="166.0" stroke="#e5e7eb" stroke-width="0.5"/>
  <text x="318" y="169.0" text-anchor="end" font-size="7.5" fill="#6b7280">-120</text>
  <line x1="322.0" y1="28" x2="322.0" y2="166" stroke="#e5e7eb" stroke-width="0.5"/>
  <text x="322.0" y="178" text-anchor="middle" font-size="7.5" fill="#6b7280">0</text>
  <line x1="363.0" y1="28" x2="363.0" y2="166" stroke="#e5e7eb" stroke-width="0.5"/>
  <text x="363.0" y="178" text-anchor="middle" font-size="7.5" fill="#6b7280">0.1</text>
  <line x1="404.0" y1="28" x2="404.0" y2="166" stroke="#e5e7eb" stroke-width="0.5"/>
  <text x="404.0" y="178" text-anchor="middle" font-size="7.5" fill="#6b7280">0.2</text>
  <line x1="445.0" y1="28" x2="445.0" y2="166" stroke="#e5e7eb" stroke-width="0.5"/>
  <text x="445.0" y="178" text-anchor="middle" font-size="7.5" fill="#6b7280">0.3</text>
  <line x1="486.0" y1="28" x2="486.0" y2="166" stroke="#e5e7eb" stroke-width="0.5"/>
  <text x="486.0" y="178" text-anchor="middle" font-size="7.5" fill="#6b7280">0.4</text>
  <line x1="527.0" y1="28" x2="527.0" y2="166" stroke="#e5e7eb" stroke-width="0.5"/>
  <text x="527.0" y="178" text-anchor="middle" font-size="7.5" fill="#6b7280">0.5</text>
  <line x1="322" y1="28" x2="322" y2="166" stroke="#d1d5db" stroke-width="0.75"/>
  <line x1="322" y1="166" x2="527" y2="166" stroke="#d1d5db" stroke-width="0.75"/>
  <polyline points="322.0,28.0 322.1,28.0 322.2,28.1 322.3,28.3 322.4,28.4 322.5,28.7 322.6,29.0 322.7,29.4 322.8,29.8 322.9,30.3 323.0,30.8 323.1,31.4 323.2,32.1 323.3,32.9 323.4,33.7 323.5,34.5 323.6,35.5 323.7,36.5 323.8,37.6 323.9,38.7 324.0,40.0 324.1,41.3 324.2,42.7 324.3,44.2 324.4,45.8 324.5,47.5 324.6,49.2 324.7,51.1 324.8,53.0 324.9,55.0 325.0,57.0 325.1,59.0 325.2,61.0 325.3,62.9 325.4,64.7 325.5,66.2 325.6,67.5 325.7,68.6 325.8,69.5 325.9,70.1 326.0,70.7 326.1,71.2 326.2,71.7 326.3,72.3 326.4,73.2 326.5,74.2 326.6,75.6 326.7,77.5 326.8,80.0 326.9,83.5 327.0,89.3 327.1,104.5 327.2,95.7 327.3,87.4 327.4,83.3 327.5,80.9 327.6,79.3 327.7,78.4 327.8,78.0 327.9,78.0 328.0,78.5 328.1,79.4 328.2,80.8 328.3,83.0 328.4,86.1 328.5,91.3 328.6,103.5 328.7,100.4 328.8,90.6 328.9,86.2 329.0,83.4 329.1,81.7 329.2,80.6 329.3,80.0 329.4,79.8 329.5,80.1 329.6,80.7 329.7,81.9 329.8,83.6 329.9,86.1 330.0,90.0 330.1,96.9 330.2,134.1 330.3,96.7 330.4,90.2 330.5,86.6 330.6,84.4 330.7,82.9 330.8,82.0 330.9,81.6 331.0,81.5 331.1,81.9 331.2,82.7 331.3,84.0 331.4,86.0 331.5,88.8 331.6,93.3 331.7,102.4 331.8,109.3 331.9,95.7 332.0,90.5 332.1,87.4 332.2,85.4 332.3,84.1 332.4,83.3 332.5,83.0 332.6,83.1 332.7,83.6 332.8,84.5 332.9,85.9 333.0,88.0 333.1,91.1 333.2,96.2 333.3,108.1 333.4,105.5 333.5,95.6 333.6,91.0 333.7,88.3 333.8,86.4 333.9,85.2 334.0,84.6 334.1,84.3 334.2,84.4 334.3,85.0 334.4,86.0 334.5,87.5 334.6,89.7 334.7,93.1 334.8,98.8 334.9,114.6 335.0,104.1 335.1,95.9 335.2,91.7 335.3,89.1 335.4,87.4 335.5,86.3 335.6,85.7 335.7,85.5 335.8,85.7 335.9,86.3 336.0,87.3 336.1,88.9 336.2,91.3 336.3,94.8 336.4,101.1 336.5,123.4 336.6,103.6 336.7,96.2 336.8,92.4 336.9,89.9 337.0,88.3 337.1,87.2 337.2,86.7 337.3,86.5 337.4,86.8 337.5,87.4 337.6,88.5 337.7,90.2 337.8,92.6 337.9,96.4 338.0,103.1 338.1,150.6 338.2,103.4 338.3,96.7 338.4,93.0 338.5,90.7 338.6,89.1 338.7,88.1 338.8,87.6 338.9,87.5 339.0,87.8 339.1,88.4 339.2,89.6 339.3,91.3 339.4,93.8 339.5,97.8 339.6,105.0 339.7,129.0 339.8,103.5 339.9,97.2 340.0,93.7 340.1,91.4 340.2,89.9 340.3,89.0 340.4,88.5 340.5,88.4 340.6,88.7 340.7,89.4 340.8,90.5 340.9,92.3 341.0,94.9 341.1,99.0 341.2,106.7 341.3,123.3 341.4,103.6 341.5,97.7 341.6,94.3 341.7,92.1 341.8,90.6 341.9,89.7 342.0,89.2 342.1,89.2 342.2,89.5 342.3,90.2 342.4,91.4 342.5,93.2 342.6,95.9 342.7,100.1 342.8,108.3 342.9,120.7 343.0,103.9 343.1,98.2 343.2,94.9 343.3,92.7 343.4,91.3 343.5,90.4 343.6,90.0 343.7,89.9 343.8,90.3 343.9,91.0 344.0,92.3 344.1,94.1 344.2,96.8 344.3,101.2 344.4,109.8 344.5,119.2 344.6,104.2 344.7,98.7 344.8,95.5 344.9,93.4 345.0,92.0 345.1,91.1 345.2,90.7 345.3,90.6 345.4,91.0 345.5,91.8 345.6,93.0 345.7,94.9 345.8,97.7 345.9,102.1 346.0,111.1 346.1,118.3 346.2,104.5 346.3,99.2 346.4,96.0 346.5,93.9 346.6,92.6 346.7,91.7 346.8,91.3 346.9,91.3 347.0,91.6 347.1,92.4 347.2,93.7 347.3,95.6 347.4,98.5 347.5,103.0 347.6,112.4 347.7,117.7 347.8,104.8 347.9,99.6 348.0,96.5 348.1,94.5 348.2,93.1 348.3,92.3 348.4,91.9 348.5,91.9 348.6,92.3 348.7,93.1 348.8,94.4 348.9,96.3 349.0,99.2 349.1,103.8 349.2,113.6 349.3,117.3 349.4,105.1 349.5,100.1 349.6,97.0 349.7,95.0 349.8,93.7 349.9,92.8 350.0,92.5 350.1,92.5 350.2,92.9 350.3,93.7 350.4,95.0 350.5,97.0 350.6,99.9 350.7,104.6 350.8,114.8 350.9,117.1 351.0,105.4 351.1,100.5 351.2,97.5 351.3,95.5 351.4,94.2 351.5,93.4 351.6,93.0 351.7,93.0 351.8,93.4 351.9,94.3 352.0,95.6 352.1,97.6 352.2,100.5 352.3,105.3 352.4,115.9 352.5,117.0 352.6,105.8 352.7,100.9 352.8,97.9 352.9,96.0 353.0,94.7 353.1,93.9 353.2,93.5 353.3,93.5 353.4,93.9 353.5,94.8 353.6,96.1 353.7,98.1 353.8,101.1 353.9,106.0 354.0,116.9 354.1,116.9 354.2,106.1 354.3,101.3 354.4,98.3 354.5,96.4 354.6,95.1 354.7,94.3 354.8,94.0 354.9,94.0 355.0,94.4 355.1,95.3 355.2,96.7 355.3,98.7 355.4,101.7 355.5,106.6 355.6,117.9 355.7,116.9 355.8,106.4 355.9,101.7 356.0,98.8 356.1,96.8 356.3,95.6 356.4,94.8 356.5,94.4 356.6,94.5 356.7,94.9 356.8,95.8 356.9,97.1 357.0,99.2 357.1,102.2 357.2,107.2 357.3,118.8 357.4,116.9 357.5,106.7 357.6,102.0 357.7,99.2 357.8,97.2 357.9,96.0 358.0,95.2 358.1,94.9 358.2,94.9 358.3,95.4 358.4,96.2 358.5,97.6 358.6,99.7 358.7,102.8 358.8,107.8 358.9,119.7 359.0,117.0 359.1,107.0 359.2,102.4 359.3,99.5 359.4,97.6 359.5,96.4 359.6,95.6 359.7,95.3 359.8,95.3 359.9,95.8 360.0,96.7 360.1,98.1 360.2,100.1 360.3,103.2 360.4,108.4 360.5,120.6 360.6,117.1 360.7,107.3 360.8,102.7 360.9,99.9 361.0,98.0 361.1,96.8 361.2,96.0 361.3,95.7 361.4,95.8 361.5,96.2 361.6,97.1 361.7,98.5 361.8,100.6 361.9,103.7 362.0,108.9 362.1,121.4 362.2,117.2 362.3,107.6 362.4,103.1 362.5,100.2 362.6,98.4 362.7,97.1 362.8,96.4 362.9,96.1 363.0,96.1 363.1,96.6 363.2,97.5 363.3,98.9 363.4,101.0 363.5,104.1 363.6,109.4 363.7,122.2 363.8,117.3 363.9,107.9 364.0,103.4 364.1,100.6 364.2,98.7 364.3,97.5 364.4,96.8 364.5,96.4 364.6,96.5 364.7,97.0 364.8,97.9 364.9,99.3 365.0,101.4 365.1,104.6 365.2,109.8 365.3,123.0 365.4,117.4 365.5,108.1 365.6,103.7 365.7,100.9 365.8,99.1 365.9,97.8 366.0,97.1 366.1,96.8 366.2,96.9 366.3,97.3 366.4,98.2 366.5,99.7 366.6,101.8 366.7,105.0 366.8,110.3 366.9,123.7 367.0,117.5 367.1,108.4 367.2,104.0 367.3,101.2 367.4,99.4 367.5,98.2 367.6,97.4 367.7,97.1 367.8,97.2 367.9,97.7 368.0,98.6 368.1,100.0 368.2,102.2 368.3,105.4 368.4,110.7 368.5,124.4 368.6,117.7 368.7,108.7 368.8,104.3 368.9,101.5 369.0,99.7 369.1,98.5 369.2,97.8 369.3,97.5 369.4,97.5 369.5,98.0 369.6,98.9 369.7,100.4 369.8,102.5 369.9,105.7 370.0,111.1 370.1,125.1 370.2,117.8 370.3,108.9 370.4,104.5 370.5,101.8 370.6,100.0 370.7,98.8 370.8,98.1 370.9,97.8 371.0,97.9 371.1,98.4 371.2,99.3 371.3,100.7 371.4,102.9 371.5,106.1 371.6,111.5 371.7,125.8 371.8,118.0 371.9,109.2 372.0,104.8 372.1,102.1 372.2,100.3 372.3,99.1 372.4,98.4 372.5,98.1 372.6,98.2 372.7,98.7 372.8,99.6 372.9,101.0 373.0,103.2 373.1,106.4 373.2,111.9 373.3,126.4 373.4,118.1 373.5,109.4 373.6,105.1 373.7,102.4 373.8,100.6 373.9,99.4 374.0,98.7 374.1,98.4 374.2,98.5 374.3,99.0 374.4,99.9 374.5,101.3 374.6,103.5 374.7,106.8 374.8,112.3 374.9,127.1 375.0,118.3 375.1,109.6 375.2,105.3 375.3,102.6 375.4,100.8 375.5,99.7 375.6,98.9 375.7,98.7 375.8,98.8 375.9,99.3 376.0,100.2 376.1,101.6 376.2,103.8 376.3,107.1 376.4,112.6 376.5,127.7 376.6,118.4 376.7,109.9 376.8,105.6 376.9,102.9 377.0,101.1 377.1,99.9 377.2,99.2 377.3,98.9 377.4,99.0 377.5,99.5 377.6,100.5 377.7,101.9 377.8,104.1 377.9,107.4 378.0,113.0 378.1,128.3 378.2,118.5 378.3,110.1 378.4,105.8 378.5,103.1 378.6,101.4 378.7,100.2 378.8,99.5 378.9,99.2 379.0,99.3 379.1,99.8 379.2,100.7 379.3,102.2 379.4,104.4 379.5,107.7 379.6,113.3 379.7,128.8 379.8,118.7 379.9,110.3 380.0,106.1 380.1,103.4 380.2,101.6 380.3,100.4 380.4,99.7 380.5,99.5 380.6,99.6 380.7,100.1 380.8,101.0 380.9,102.5 381.0,104.7 381.1,108.0 381.2,113.6 381.3,129.4 381.4,118.8 381.5,110.5 381.6,106.3 381.7,103.6 381.8,101.8 381.9,100.7 382.0,100.0 382.1,99.7 382.2,99.8 382.3,100.3 382.4,101.3 382.5,102.8 382.6,104.9 382.7,108.3 382.8,113.9 382.9,130.0 383.0,119.0 383.1,110.7 383.2,106.5 383.3,103.8 383.4,102.1 383.5,100.9 383.6,100.2 383.7,100.0 383.8,100.1 383.9,100.6 384.0,101.5 384.1,103.0 384.2,105.2 384.3,108.5 384.4,114.2 384.5,130.5 384.6,119.1 384.7,110.9 384.8,106.7 384.9,104.1 385.0,102.3 385.1,101.1 385.2,100.5 385.3,100.2 385.4,100.3 385.5,100.8 385.6,101.8 385.7,103.3 385.8,105.5 385.9,108.8 386.0,114.5 386.1,131.0 386.2,119.3 386.3,111.1 386.4,106.9 386.5,104.3 386.6,102.5 386.7,101.4 386.8,100.7 386.9,100.4 387.0,100.5 387.1,101.0 387.2,102.0 387.3,103.5 387.4,105.7 387.5,109.1 387.6,114.8 387.7,131.6 387.8,119.4 387.9,111.3 388.0,107.1 388.1,104.5 388.2,102.7 388.3,101.6 388.4,100.9 388.5,100.6 388.6,100.8 388.7,101.3 388.8,102.2 388.9,103.7 389.0,105.9 389.1,109.3 389.2,115.1 389.3,132.1 389.4,119.5 389.5,111.5 389.6,107.3 389.7,104.7 389.8,102.9 389.9,101.8 390.0,101.1 390.1,100.9 390.2,101.0 390.3,101.5 390.4,102.5 390.5,103.9 390.6,106.2 390.7,109.6 390.8,115.3 390.9,132.6 391.0,119.7 391.1,111.6 391.2,107.5 391.3,104.9 391.4,103.1 391.5,102.0 391.6,101.3 391.7,101.1 391.8,101.2 391.9,101.7 392.0,102.7 392.1,104.2 392.2,106.4 392.3,109.8 392.4,115.6 392.5,133.1 392.6,119.8 392.7,111.8 392.8,107.7 392.9,105.1 393.0,103.3 393.1,102.2 393.2,101.5 393.3,101.3 393.4,101.4 393.5,101.9 393.6,102.9 393.7,104.4 393.8,106.6 393.9,110.0 394.0,115.8 394.1,133.5 394.2,119.9 394.3,112.0 394.4,107.9 394.5,105.3 394.6,103.5 394.7,102.4 394.8,101.7 394.9,101.5 395.0,101.6 395.1,102.1 395.2,103.1 395.3,104.6 395.4,106.8 395.5,110.2 395.6,116.1 395.7,134.0 395.8,120.1 395.9,112.2 396.0,108.1 396.1,105.5 396.2,103.7 396.3,102.6 396.4,101.9 396.5,101.7 396.6,101.8 396.7,102.3 396.8,103.3 396.9,104.8 397.0,107.0 397.1,110.4 397.2,116.3 397.3,134.5 397.4,120.2 397.5,112.3 397.6,108.2 397.7,105.6 397.8,103.9 397.9,102.8 398.0,102.1 398.1,101.8 398.2,102.0 398.3,102.5 398.4,103.5 398.5,105.0 398.6,107.2 398.7,110.7 398.8,116.5 398.9,134.9 399.0,120.3 399.1,112.5 399.2,108.4 399.3,105.8 399.4,104.1 399.5,102.9 399.6,102.3 399.7,102.0 399.8,102.2 399.9,102.7 400.0,103.7 400.1,105.2 400.2,107.4 400.3,110.9 400.4,116.8 400.5,135.4 400.6,120.4 400.7,112.6 400.8,108.6 400.9,106.0 401.0,104.3 401.1,103.1 401.2,102.5 401.3,102.2 401.4,102.3 401.5,102.9 401.6,103.8 401.7,105.4 401.8,107.6 401.9,111.1 402.0,117.0 402.1,135.8 402.2,120.6 402.3,112.8 402.4,108.7 402.5,106.1 402.6,104.4 402.7,103.3 402.8,102.6 402.9,102.4 403.0,102.5 403.1,103.0 403.2,104.0 403.3,105.5 403.4,107.8 403.5,111.2 403.6,117.2 403.7,136.2 403.8,120.7 403.9,112.9 404.0,108.9 404.1,106.3 404.2,104.6 404.3,103.5 404.4,102.8 404.5,102.5 404.6,102.7 404.7,103.2 404.8,104.2 404.9,105.7 405.0,108.0 405.1,111.4 405.2,117.4 405.3,136.6 405.4,120.8 405.5,113.1 405.6,109.0 405.7,106.5 405.8,104.7 405.9,103.6 406.0,103.0 406.1,102.7 406.2,102.9 406.3,103.4 406.4,104.4 406.5,105.9 406.6,108.2 406.7,111.6 406.8,117.6 406.9,137.1 407.0,120.9 407.1,113.2 407.2,109.2 407.3,106.6 407.4,104.9 407.5,103.8 407.6,103.1 407.7,102.9 407.8,103.0 407.9,103.6 408.0,104.5 408.1,106.1 408.2,108.3 408.3,111.8 408.4,117.8 408.5,137.5 408.6,121.0 408.7,113.4 408.8,109.3 408.9,106.8 409.0,105.1 409.1,103.9 409.2,103.3 409.3,103.0 409.4,103.2 409.5,103.7 409.6,104.7 409.7,106.2 409.8,108.5 409.9,112.0 410.0,118.0 410.1,137.9 410.2,121.1 410.3,113.5 410.4,109.5 410.5,106.9 410.6,105.2 410.7,104.1 410.8,103.4 410.9,103.2 411.0,103.3 411.1,103.9 411.2,104.9 411.3,106.4 411.4,108.7 411.5,112.1 411.6,118.2 411.7,138.3 411.8,121.2 411.9,113.6 412.0,109.6 412.1,107.1 412.2,105.3 412.3,104.2 412.4,103.6 412.5,103.3 412.6,103.5 412.7,104.0 412.8,105.0 412.9,106.5 413.0,108.8 413.1,112.3 413.2,118.3 413.3,138.7 413.4,121.3 413.5,113.7 413.6,109.7 413.7,107.2 413.8,105.5 413.9,104.4 414.0,103.7 414.1,103.5 414.2,103.6 414.3,104.2 414.4,105.2 414.5,106.7 414.6,109.0 414.7,112.5 414.8,118.5 414.9,139.1 415.0,121.4 415.1,113.9 415.2,109.9 415.3,107.3 415.4,105.6 415.5,104.5 415.6,103.9 415.7,103.6 415.8,103.8 415.9,104.3 416.0,105.3 416.1,106.8 416.2,109.1 416.3,112.6 416.4,118.7 416.5,139.5 416.6,121.5 416.7,114.0 416.8,110.0 416.9,107.5 417.0,105.8 417.1,104.6 417.2,104.0 417.3,103.8 417.4,103.9 417.5,104.5 417.6,105.4 417.7,107.0 417.8,109.3 417.9,112.8 418.0,118.9 418.1,139.8 418.2,121.6 418.3,114.1 418.4,110.1 418.5,107.6 418.6,105.9 418.7,104.8 418.8,104.1 418.9,103.9 419.0,104.0 419.1,104.6 419.2,105.6 419.3,107.1 419.4,109.4 419.5,112.9 419.6,119.0 419.7,140.2 419.8,121.7 419.9,114.2 420.0,110.3 420.1,107.7 420.2,106.0 420.3,104.9 420.4,104.3 420.5,104.0 420.6,104.2 420.7,104.7 420.8,105.7 420.9,107.3 421.0,109.6 421.1,113.1 421.2,119.2 421.3,140.6 421.4,121.8 421.5,114.3 421.6,110.4 421.7,107.8 421.8,106.1 421.9,105.0 422.0,104.4 422.1,104.2 422.2,104.3 422.3,104.9 422.4,105.8 422.5,107.4 422.6,109.7 422.7,113.2 422.8,119.3 422.9,141.0 423.0,121.9 423.1,114.4 423.2,110.5 423.3,108.0 423.4,106.3 423.5,105.2 423.6,104.5 423.7,104.3 423.8,104.4 423.9,105.0 424.0,106.0 424.1,107.5 424.2,109.8 424.3,113.3 424.4,119.5 424.6,141.3 424.7,122.0 424.8,114.6 424.9,110.6 425.0,108.1 425.1,106.4 425.2,105.3 425.3,104.6 425.4,104.4 425.5,104.6 425.6,105.1 425.7,106.1 425.8,107.7 425.9,110.0 426.0,113.5 426.1,119.6 426.2,141.7 426.3,122.1 426.4,114.7 426.5,110.7 426.6,108.2 426.7,106.5 426.8,105.4 426.9,104.8 427.0,104.5 427.1,104.7 427.2,105.2 427.3,106.2 427.4,107.8 427.5,110.1 427.6,113.6 427.7,119.8 427.8,142.1 427.9,122.2 428.0,114.8 428.1,110.8 428.2,108.3 428.3,106.6 428.4,105.5 428.5,104.9 428.6,104.6 428.7,104.8 428.8,105.3 428.9,106.3 429.0,107.9 429.1,110.2 429.2,113.7 429.3,119.9 429.4,142.4 429.5,122.2 429.6,114.9 429.7,110.9 429.8,108.4 429.9,106.7 430.0,105.6 430.1,105.0 430.2,104.7 430.3,104.9 430.4,105.5 430.5,106.5 430.6,108.0 430.7,110.3 430.8,113.9 430.9,120.1 431.0,142.8 431.1,122.3 431.2,115.0 431.3,111.0 431.4,108.5 431.5,106.8 431.6,105.7 431.7,105.1 431.8,104.9 431.9,105.0 432.0,105.6 432.1,106.6 432.2,108.1 432.3,110.4 432.4,114.0 432.5,120.2 432.6,143.1 432.7,122.4 432.8,115.1 432.9,111.1 433.0,108.6 433.1,106.9 433.2,105.8 433.3,105.2 433.4,105.0 433.5,105.1 433.6,105.7 433.7,106.7 433.8,108.2 433.9,110.6 434.0,114.1 434.1,120.3 434.2,143.5 434.3,122.5 434.4,115.2 434.5,111.2 434.6,108.7 434.7,107.0 434.8,105.9 434.9,105.3 435.0,105.1 435.1,105.2 435.2,105.8 435.3,106.8 435.4,108.4 435.5,110.7 435.6,114.2 435.7,120.5 435.8,143.9 435.9,122.6 436.0,115.2 436.1,111.3 436.2,108.8 436.3,107.1 436.4,106.0 436.5,105.4 436.6,105.2 436.7,105.3 436.8,105.9 436.9,106.9 437.0,108.5 437.1,110.8 437.2,114.3 437.3,120.6 437.4,144.2 437.5,122.6 437.6,115.3 437.7,111.4 437.8,108.9 437.9,107.2 438.0,106.1 438.1,105.5 438.2,105.3 438.3,105.4 438.4,106.0 438.5,107.0 438.6,108.6 438.7,110.9 438.8,114.4 438.9,120.7 439.0,144.6 439.1,122.7 439.2,115.4 439.3,111.5 439.4,109.0 439.5,107.3 439.6,106.2 439.7,105.6 439.8,105.4 439.9,105.5 440.0,106.1 440.1,107.1 440.2,108.7 440.3,111.0 440.4,114.6 440.5,120.8 440.6,144.9 440.7,122.8 440.8,115.5 440.9,111.6 441.0,109.1 441.1,107.4 441.2,106.3 441.3,105.7 441.4,105.5 441.5,105.6 441.6,106.2 441.7,107.2 441.8,108.8 441.9,111.1 442.0,114.7 442.1,120.9 442.2,145.3 442.3,122.8 442.4,115.6 442.5,111.7 442.6,109.2 442.7,107.5 442.8,106.4 442.9,105.8 443.0,105.6 443.1,105.7 443.2,106.3 443.3,107.3 443.4,108.9 443.5,111.2 443.6,114.8 443.7,121.0 443.8,145.6 443.9,122.9 444.0,115.7 444.1,111.8 444.2,109.3 444.3,107.6 444.4,106.5 444.5,105.9 444.6,105.7 444.7,105.8 444.8,106.4 444.9,107.4 445.0,109.0 445.1,111.3 445.2,114.9 445.3,121.2 445.4,145.9 445.5,123.0 445.6,115.7 445.7,111.9 445.8,109.4 445.9,107.7 446.0,106.6 446.1,106.0 446.2,105.7 446.3,105.9 446.4,106.5 446.5,107.5 446.6,109.1 446.7,111.4 446.8,115.0 446.9,121.3 447.0,146.3 447.1,123.0 447.2,115.8 447.3,111.9 447.4,109.4 447.5,107.8 447.6,106.7 447.7,106.1 447.8,105.8 447.9,106.0 448.0,106.6 448.1,107.6 448.2,109.1 448.3,111.5 448.4,115.1 448.5,121.4 448.6,146.6 448.7,123.1 448.8,115.9 448.9,112.0 449.0,109.5 449.1,107.9 449.2,106.8 449.3,106.1 449.4,105.9 449.5,106.1 449.6,106.6 449.7,107.7 449.8,109.2 449.9,111.6 450.0,115.1 450.1,121.5 450.2,147.0 450.3,123.1 450.4,116.0 450.5,112.1 450.6,109.6 450.7,107.9 450.8,106.8 450.9,106.2 451.0,106.0 451.1,106.2 451.2,106.7 451.3,107.7 451.4,109.3 451.5,111.7 451.6,115.2 451.7,121.6 451.8,147.3 451.9,123.2 452.0,116.0 452.1,112.2 452.2,109.7 452.3,108.0 452.4,106.9 452.5,106.3 452.6,106.1 452.7,106.2 452.8,106.8 452.9,107.8 453.0,109.4 453.1,111.7 453.2,115.3 453.3,121.7 453.4,147.7 453.5,123.3 453.6,116.1 453.7,112.2 453.8,109.7 453.9,108.1 454.0,107.0 454.1,106.4 454.2,106.2 454.3,106.3 454.4,106.9 454.5,107.9 454.6,109.5 454.7,111.8 454.8,115.4 454.9,121.8 455.0,148.0 455.1,123.3 455.2,116.2 455.3,112.3 455.4,109.8 455.5,108.2 455.6,107.1 455.7,106.4 455.8,106.2 455.9,106.4 456.0,107.0 456.1,108.0 456.2,109.6 456.3,111.9 456.4,115.5 456.5,121.9 456.6,148.4 456.7,123.4 456.8,116.2 456.9,112.4 457.0,109.9 457.1,108.2 457.2,107.1 457.3,106.5 457.4,106.3 457.5,106.5 457.6,107.0 457.7,108.1 457.8,109.6 457.9,112.0 458.0,115.6 458.1,122.0 458.2,148.7 458.3,123.4 458.4,116.3 458.5,112.4 458.6,110.0 458.7,108.3 458.8,107.2 458.9,106.6 459.0,106.4 459.1,106.5 459.2,107.1 459.3,108.1 459.4,109.7 459.5,112.1 459.6,115.7 459.7,122.0 459.8,149.1 459.9,123.5 460.0,116.4 460.1,112.5 460.2,110.0 460.3,108.4 460.4,107.3 460.5,106.7 460.6,106.4 460.7,106.6 460.8,107.2 460.9,108.2 461.0,109.8 461.1,112.1 461.2,115.7 461.3,122.1 461.4,149.4 461.5,123.5 461.6,116.4 461.7,112.6 461.8,110.1 461.9,108.4 462.0,107.3 462.1,106.7 462.2,106.5 462.3,106.7 462.4,107.3 462.5,108.3 462.6,109.9 462.7,112.2 462.8,115.8 462.9,122.2 463.0,149.8 463.1,123.6 463.2,116.5 463.3,112.6 463.4,110.2 463.5,108.5 463.6,107.4 463.7,106.8 463.8,106.6 463.9,106.7 464.0,107.3 464.1,108.3 464.2,109.9 464.3,112.3 464.4,115.9 464.5,122.3 464.6,150.2 464.7,123.6 464.8,116.5 464.9,112.7 465.0,110.2 465.1,108.6 465.2,107.5 465.3,106.9 465.4,106.6 465.5,106.8 465.6,107.4 465.7,108.4 465.8,110.0 465.9,112.3 466.0,116.0 466.1,122.4 466.2,150.5 466.3,123.6 466.4,116.6 466.5,112.7 466.6,110.3 466.7,108.6 466.8,107.5 466.9,106.9 467.0,106.7 467.1,106.9 467.2,107.4 467.3,108.5 467.4,110.1 467.5,112.4 467.6,116.0 467.7,122.5 467.8,150.9 467.9,123.7 468.0,116.6 468.1,112.8 468.2,110.3 468.3,108.7 468.4,107.6 468.5,107.0 468.6,106.8 468.7,106.9 468.8,107.5 468.9,108.5 469.0,110.1 469.1,112.5 469.2,116.1 469.3,122.5 469.4,151.3 469.5,123.7 469.6,116.7 469.7,112.8 469.8,110.4 469.9,108.7 470.0,107.6 470.1,107.0 470.2,106.8 470.3,107.0 470.4,107.6 470.5,108.6 470.6,110.2 470.7,112.5 470.8,116.2 470.9,122.6 471.0,151.6 471.1,123.8 471.2,116.7 471.3,112.9 471.4,110.4 471.5,108.8 471.6,107.7 471.7,107.1 471.8,106.9 471.9,107.0 472.0,107.6 472.1,108.7 472.2,110.2 472.3,112.6 472.4,116.2 472.5,122.7 472.6,152.0 472.7,123.8 472.8,116.8 472.9,112.9 473.0,110.5 473.1,108.8 473.2,107.8 473.3,107.1 473.4,106.9 473.5,107.1 473.6,107.7 473.7,108.7 473.8,110.3 473.9,112.7 474.0,116.3 474.1,122.8 474.2,152.4 474.3,123.8 474.4,116.8 474.5,113.0 474.6,110.5 474.7,108.9 474.8,107.8 474.9,107.2 475.0,107.0 475.1,107.2 475.2,107.7 475.3,108.8 475.4,110.4 475.5,112.7 475.6,116.3 475.7,122.8 475.8,152.8 475.9,123.9 476.0,116.9 476.1,113.0 476.2,110.6 476.3,108.9 476.4,107.9 476.5,107.2 476.6,107.0 476.7,107.2 476.8,107.8 476.9,108.8 477.0,110.4 477.1,112.8 477.2,116.4 477.3,122.9 477.4,153.2 477.5,123.9 477.6,116.9 477.7,113.1 477.8,110.6 477.9,109.0 478.0,107.9 478.1,107.3 478.2,107.1 478.3,107.3 478.4,107.8 478.5,108.9 478.6,110.5 478.7,112.8 478.8,116.5 478.9,123.0 479.0,153.6 479.1,123.9 479.2,116.9 479.3,113.1 479.4,110.7 479.5,109.0 479.6,107.9 479.7,107.3 479.8,107.1 479.9,107.3 480.0,107.9 480.1,108.9 480.2,110.5 480.3,112.9 480.4,116.5 480.5,123.0 480.6,154.0 480.7,123.9 480.8,117.0 480.9,113.2 481.0,110.7 481.1,109.1 481.2,108.0 481.3,107.4 481.4,107.2 481.5,107.4 481.6,107.9 481.7,109.0 481.8,110.6 481.9,112.9 482.0,116.6 482.1,123.1 482.2,154.5 482.3,124.0 482.4,117.0 482.5,113.2 482.6,110.8 482.7,109.1 482.8,108.0 482.9,107.4 483.0,107.2 483.1,107.4 483.2,108.0 483.3,109.0 483.4,110.6 483.5,113.0 483.6,116.6 483.7,123.1 483.8,154.9 483.9,124.0 484.0,117.0 484.1,113.2 484.2,110.8 484.3,109.1 484.4,108.1 484.5,107.5 484.6,107.3 484.7,107.4 484.8,108.0 484.9,109.1 485.0,110.6 485.1,113.0 485.2,116.7 485.3,123.2 485.4,155.3 485.5,124.0 485.6,117.1 485.7,113.3 485.8,110.8 485.9,109.2 486.0,108.1 486.1,107.5 486.2,107.3 486.3,107.5 486.4,108.1 486.5,109.1 486.6,110.7 486.7,113.1 486.8,116.7 486.9,123.3 487.0,155.8 487.1,124.0 487.2,117.1 487.3,113.3 487.4,110.9 487.5,109.2 487.6,108.2 487.7,107.5 487.8,107.3 487.9,107.5 488.0,108.1 488.1,109.1 488.2,110.7 488.3,113.1 488.4,116.8 488.5,123.3 488.6,156.3 488.7,124.1 488.8,117.1 488.9,113.3 489.0,110.9 489.1,109.3 489.2,108.2 489.3,107.6 489.4,107.4 489.5,107.6 489.6,108.1 489.7,109.2 489.8,110.8 489.9,113.1 490.0,116.8 490.1,123.4 490.2,156.8 490.3,124.1 490.4,117.2 490.5,113.4 490.6,110.9 490.7,109.3 490.8,108.2 490.9,107.6 491.0,107.4 491.1,107.6 491.2,108.2 491.3,109.2 491.4,110.8 491.5,113.2 491.6,116.9 491.7,123.4 491.8,157.3 491.9,124.1 492.0,117.2 492.1,113.4 492.2,111.0 492.3,109.3 492.4,108.3 492.5,107.6 492.6,107.4 492.7,107.6 492.9,108.2 493.0,109.2 493.1,110.8 493.2,113.2 493.3,116.9 493.4,123.5 493.5,157.8 493.6,124.1 493.7,117.2 493.8,113.4 493.9,111.0 494.0,109.4 494.1,108.3 494.2,107.7 494.3,107.5 494.4,107.7 494.5,108.2 494.6,109.3 494.7,110.9 494.8,113.3 494.9,116.9 495.0,123.5 495.1,158.3 495.2,124.1 495.3,117.2 495.4,113.5 495.5,111.0 495.6,109.4 495.7,108.3 495.8,107.7 495.9,107.5 496.0,107.7 496.1,108.3 496.2,109.3 496.3,110.9 496.4,113.3 496.5,117.0 496.6,123.6 496.7,158.9 496.8,124.1 496.9,117.3 497.0,113.5 497.1,111.0 497.2,109.4 497.3,108.3 497.4,107.7 497.5,107.5 497.6,107.7 497.7,108.3 497.8,109.3 497.9,110.9 498.0,113.3 498.1,117.0 498.2,123.6 498.3,159.5 498.4,124.2 498.5,117.3 498.6,113.5 498.7,111.1 498.8,109.4 498.9,108.4 499.0,107.8 499.1,107.6 499.2,107.7 499.3,108.3 499.4,109.4 499.5,111.0 499.6,113.4 499.7,117.0 499.8,123.6 499.9,160.1 500.0,124.2 500.1,117.3 500.2,113.5 500.3,111.1 500.4,109.5 500.5,108.4 500.6,107.8 500.7,107.6 500.8,107.8 500.9,108.4 501.0,109.4 501.1,111.0 501.2,113.4 501.3,117.1 501.4,123.7 501.5,160.7 501.6,124.2 501.7,117.3 501.8,113.5 501.9,111.1 502.0,109.5 502.1,108.4 502.2,107.8 502.3,107.6 502.4,107.8 502.5,108.4 502.6,109.4 502.7,111.0 502.8,113.4 502.9,117.1 503.0,123.7 503.1,161.4 503.2,124.2 503.3,117.3 503.4,113.6 503.5,111.1 503.6,109.5 503.7,108.4 503.8,107.8 503.9,107.6 504.0,107.8 504.1,108.4 504.2,109.5 504.3,111.1 504.4,113.4 504.5,117.1 504.6,123.8 504.7,162.1 504.8,124.2 504.9,117.3 505.0,113.6 505.1,111.2 505.2,109.5 505.3,108.5 505.4,107.9 505.5,107.7 505.6,107.8 505.7,108.4 505.8,109.5 505.9,111.1 506.0,113.5 506.1,117.2 506.2,123.8 506.3,162.9 506.4,124.2 506.5,117.4 506.6,113.6 506.7,111.2 506.8,109.5 506.9,108.5 507.0,107.9 507.1,107.7 507.2,107.9 507.3,108.5 507.4,109.5 507.5,111.1 507.6,113.5 507.7,117.2 507.8,123.8 507.9,163.8 508.0,124.2 508.1,117.4 508.2,113.6 508.3,111.2 508.4,109.6 508.5,108.5 508.6,107.9 508.7,107.7 508.8,107.9 508.9,108.5 509.0,109.5 509.1,111.1 509.2,113.5 509.3,117.2 509.4,123.9 509.5,164.7 509.6,124.2 509.7,117.4 509.8,113.6 509.9,111.2 510.0,109.6 510.1,108.5 510.2,107.9 510.3,107.7 510.4,107.9 510.5,108.5 510.6,109.5 510.7,111.1 510.8,113.5 510.9,117.2 511.0,123.9 511.1,165.6 511.2,124.2 511.3,117.4 511.4,113.6 511.5,111.2 511.6,109.6 511.7,108.5 511.8,107.9 511.9,107.7 512.0,107.9 512.1,108.5 512.2,109.6 512.3,111.2 512.4,113.6 512.5,117.3 512.6,123.9 512.7,166.0 512.8,124.2 512.9,117.4 513.0,113.6 513.1,111.2 513.2,109.6 513.3,108.5 513.4,107.9 513.5,107.7 513.6,107.9 513.7,108.5 513.8,109.6 513.9,111.2 514.0,113.6 514.1,117.3 514.2,123.9 514.3,166.0 514.4,124.2 514.5,117.4 514.6,113.7 514.7,111.2 514.8,109.6 514.9,108.6 515.0,107.9 515.1,107.8 515.2,107.9 515.3,108.5 515.4,109.6 515.5,111.2 515.6,113.6 515.7,117.3 515.8,124.0 515.9,166.0 516.0,124.2 516.1,117.4 516.2,113.7 516.3,111.2 516.4,109.6 516.5,108.6 516.6,108.0 516.7,107.8 516.8,108.0 516.9,108.5 517.0,109.6 517.1,111.2 517.2,113.6 517.3,117.3 517.4,124.0 517.5,166.0 517.6,124.2 517.7,117.4 517.8,113.7 517.9,111.2 518.0,109.6 518.1,108.6 518.2,108.0 518.3,107.8 518.4,108.0 518.5,108.6 518.6,109.6 518.7,111.2 518.8,113.6 518.9,117.3 519.0,124.0 519.1,166.0 519.2,124.2 519.3,117.4 519.4,113.7 519.5,111.3 519.6,109.6 519.7,108.6 519.8,108.0 519.9,107.8 520.0,108.0 520.1,108.6 520.2,109.6 520.3,111.2 520.4,113.6 520.5,117.3 520.6,124.0 520.7,166.0 520.8,124.2 520.9,117.4 521.0,113.7 521.1,111.3 521.2,109.6 521.3,108.6 521.4,108.0 521.5,107.8 521.6,108.0 521.7,108.6 521.8,109.6 521.9,111.2 522.0,113.6 522.1,117.4 522.2,124.1 522.3,166.0 522.4,124.2 522.5,117.4 522.6,113.7 522.7,111.3 522.8,109.6 522.9,108.6 523.0,108.0 523.1,107.8 523.2,108.0 523.3,108.6 523.4,109.6 523.5,111.2 523.6,113.7 523.7,117.4 523.8,124.1 523.9,166.0 524.0,124.1 524.1,117.4 524.2,113.7 524.3,111.3 524.4,109.6 524.5,108.6 524.6,108.0 524.7,107.8 524.8,108.0 524.9,108.6 525.0,109.6 525.1,111.3 525.2,113.7 525.3,117.4 525.4,124.1 525.5,166.0 525.6,124.1 525.7,117.4 525.8,113.7 525.9,111.3 526.0,109.6 526.1,108.6 526.2,108.0 526.3,107.8 526.4,108.0 526.5,108.6 526.6,109.6 526.7,111.3 526.8,113.7 526.9,117.4 527.0,124.1" fill="none" stroke="#4a90d9" stroke-width="1.2" stroke-linejoin="round"/>
  <text x="154.5" y="190" text-anchor="middle" font-size="8" fill="#6b7280">n / N</text>
  <text x="424.5" y="190" text-anchor="middle" font-size="8" fill="#6b7280">Normalized frequency (× Fₛ)</text>
</svg>
