<svg xmlns="http://www.w3.org/2000/svg" viewBox="0 0 800 230" style="font-family:system-ui,-apple-system,sans-serif">
  <line x1="42" y1="182.0" x2="377" y2="182.0" stroke="#e5e7eb" stroke-width="0.7"/>
  <text x="37" y="186.0" text-anchor="end" font-size="10" fill="#6b7280">0</text>
  <line x1="42" y1="95.0" x2="377" y2="95.0" stroke="#e5e7eb" stroke-width="0.7"/>
  <text x="37" y="99.0" text-anchor="end" font-size="10" fill="#6b7280">0.5</text>
  <line x1="42" y1="8.0" x2="377" y2="8.0" stroke="#e5e7eb" stroke-width="0.7"/>
  <text x="37" y="12.0" text-anchor="end" font-size="10" fill="#6b7280">1</text>
  <line x1="42.0" y1="8" x2="42.0" y2="182" stroke="#e5e7eb" stroke-width="0.7"/>
  <text x="42.0" y="198" text-anchor="middle" font-size="10" fill="#6b7280">0</text>
  <line x1="209.5" y1="8" x2="209.5" y2="182" stroke="#e5e7eb" stroke-width="0.7"/>
  <text x="209.5" y="198" text-anchor="middle" font-size="10" fill="#6b7280">0.5</text>
  <line x1="377.0" y1="8" x2="377.0" y2="182" stroke="#e5e7eb" stroke-width="0.7"/>
  <text x="377.0" y="198" text-anchor="middle" font-size="10" fill="#6b7280">1</text>
  <line x1="42" y1="8" x2="42" y2="182" stroke="#d1d5db" stroke-width="1"/>
  <line x1="42" y1="182" x2="377" y2="182" stroke="#d1d5db" stroke-width="1"/>
  <path d="M42.0,182.0 42.0,174.4 43.3,174.0 44.6,173.6 45.9,173.2 47.3,172.7 48.6,172.3 49.9,171.8 51.2,171.3 52.5,170.8 53.8,170.3 55.1,169.8 56.5,169.2 57.8,168.6 59.1,168.0 60.4,167.4 61.7,166.7 63.0,166.1 64.3,165.4 65.6,164.6 67.0,163.9 68.3,163.1 69.6,162.3 70.9,161.5 72.2,160.7 73.5,159.8 74.8,158.9 76.2,158.0 77.5,157.0 78.8,156.1 80.1,155.1 81.4,154.0 82.7,153.0 84.0,151.9 85.4,150.7 86.7,149.6 88.0,148.4 89.3,147.2 90.6,146.0 91.9,144.7 93.2,143.4 94.5,142.1 95.9,140.7 97.2,139.3 98.5,137.9 99.8,136.5 101.1,135.0 102.4,133.5 103.7,131.9 105.1,130.4 106.4,128.8 107.7,127.2 109.0,125.5 110.3,123.8 111.6,122.1 112.9,120.4 114.3,118.7 115.6,116.9 116.9,115.1 118.2,113.2 119.5,111.4 120.8,109.5 122.1,107.6 123.5,105.7 124.8,103.8 126.1,101.8 127.4,99.9 128.7,97.9 130.0,95.9 131.3,93.9 132.6,91.9 134.0,89.8 135.3,87.8 136.6,85.8 137.9,83.7 139.2,81.6 140.5,79.6 141.8,77.5 143.2,75.4 144.5,73.4 145.8,71.3 147.1,69.2 148.4,67.2 149.7,65.1 151.0,63.1 152.4,61.1 153.7,59.0 155.0,57.0 156.3,55.1 157.6,53.1 158.9,51.1 160.2,49.2 161.5,47.3 162.9,45.4 164.2,43.6 165.5,41.8 166.8,40.0 168.1,38.2 169.4,36.5 170.7,34.8 172.1,33.2 173.4,31.5 174.7,30.0 176.0,28.4 177.3,27.0 178.6,25.5 179.9,24.1 181.3,22.8 182.6,21.5 183.9,20.3 185.2,19.1 186.5,17.9 187.8,16.9 189.1,15.9 190.5,14.9 191.8,14.0 193.1,13.1 194.4,12.4 195.7,11.6 197.0,11.0 198.3,10.4 199.6,9.9 201.0,9.4 202.3,9.0 203.6,8.7 204.9,8.4 206.2,8.2 207.5,8.1 208.8,8.0 210.2,8.0 211.5,8.1 212.8,8.2 214.1,8.4 215.4,8.7 216.7,9.0 218.0,9.4 219.4,9.9 220.7,10.4 222.0,11.0 223.3,11.6 224.6,12.4 225.9,13.1 227.2,14.0 228.5,14.9 229.9,15.9 231.2,16.9 232.5,17.9 233.8,19.1 235.1,20.3 236.4,21.5 237.7,22.8 239.1,24.1 240.4,25.5 241.7,27.0 243.0,28.4 244.3,30.0 245.6,31.5 246.9,33.2 248.3,34.8 249.6,36.5 250.9,38.2 252.2,40.0 253.5,41.8 254.8,43.6 256.1,45.4 257.5,47.3 258.8,49.2 260.1,51.1 261.4,53.1 262.7,55.1 264.0,57.0 265.3,59.0 266.6,61.1 268.0,63.1 269.3,65.1 270.6,67.2 271.9,69.2 273.2,71.3 274.5,73.4 275.8,75.4 277.2,77.5 278.5,79.6 279.8,81.6 281.1,83.7 282.4,85.8 283.7,87.8 285.0,89.8 286.4,91.9 287.7,93.9 289.0,95.9 290.3,97.9 291.6,99.9 292.9,101.8 294.2,103.8 295.5,105.7 296.9,107.6 298.2,109.5 299.5,111.4 300.8,113.2 302.1,115.1 303.4,116.9 304.7,118.7 306.1,120.4 307.4,122.1 308.7,123.8 310.0,125.5 311.3,127.2 312.6,128.8 313.9,130.4 315.3,131.9 316.6,133.5 317.9,135.0 319.2,136.5 320.5,137.9 321.8,139.3 323.1,140.7 324.5,142.1 325.8,143.4 327.1,144.7 328.4,146.0 329.7,147.2 331.0,148.4 332.3,149.6 333.6,150.7 335.0,151.9 336.3,153.0 337.6,154.0 338.9,155.1 340.2,156.1 341.5,157.0 342.8,158.0 344.2,158.9 345.5,159.8 346.8,160.7 348.1,161.5 349.4,162.3 350.7,163.1 352.0,163.9 353.4,164.6 354.7,165.4 356.0,166.1 357.3,166.7 358.6,167.4 359.9,168.0 361.2,168.6 362.5,169.2 363.9,169.8 365.2,170.3 366.5,170.8 367.8,171.3 369.1,171.8 370.4,172.3 371.7,172.7 373.1,173.2 374.4,173.6 375.7,174.0 377.0,174.4 L377.0,182.0 Z" fill="#4a90d9" fill-opacity="0.06"/>
  <polyline points="42.0,174.4 43.3,174.0 44.6,173.6 45.9,173.2 47.3,172.7 48.6,172.3 49.9,171.8 51.2,171.3 52.5,170.8 53.8,170.3 55.1,169.8 56.5,169.2 57.8,168.6 59.1,168.0 60.4,167.4 61.7,166.7 63.0,166.1 64.3,165.4 65.6,164.6 67.0,163.9 68.3,163.1 69.6,162.3 70.9,161.5 72.2,160.7 73.5,159.8 74.8,158.9 76.2,158.0 77.5,157.0 78.8,156.1 80.1,155.1 81.4,154.0 82.7,153.0 84.0,151.9 85.4,150.7 86.7,149.6 88.0,148.4 89.3,147.2 90.6,146.0 91.9,144.7 93.2,143.4 94.5,142.1 95.9,140.7 97.2,139.3 98.5,137.9 99.8,136.5 101.1,135.0 102.4,133.5 103.7,131.9 105.1,130.4 106.4,128.8 107.7,127.2 109.0,125.5 110.3,123.8 111.6,122.1 112.9,120.4 114.3,118.7 115.6,116.9 116.9,115.1 118.2,113.2 119.5,111.4 120.8,109.5 122.1,107.6 123.5,105.7 124.8,103.8 126.1,101.8 127.4,99.9 128.7,97.9 130.0,95.9 131.3,93.9 132.6,91.9 134.0,89.8 135.3,87.8 136.6,85.8 137.9,83.7 139.2,81.6 140.5,79.6 141.8,77.5 143.2,75.4 144.5,73.4 145.8,71.3 147.1,69.2 148.4,67.2 149.7,65.1 151.0,63.1 152.4,61.1 153.7,59.0 155.0,57.0 156.3,55.1 157.6,53.1 158.9,51.1 160.2,49.2 161.5,47.3 162.9,45.4 164.2,43.6 165.5,41.8 166.8,40.0 168.1,38.2 169.4,36.5 170.7,34.8 172.1,33.2 173.4,31.5 174.7,30.0 176.0,28.4 177.3,27.0 178.6,25.5 179.9,24.1 181.3,22.8 182.6,21.5 183.9,20.3 185.2,19.1 186.5,17.9 187.8,16.9 189.1,15.9 190.5,14.9 191.8,14.0 193.1,13.1 194.4,12.4 195.7,11.6 197.0,11.0 198.3,10.4 199.6,9.9 201.0,9.4 202.3,9.0 203.6,8.7 204.9,8.4 206.2,8.2 207.5,8.1 208.8,8.0 210.2,8.0 211.5,8.1 212.8,8.2 214.1,8.4 215.4,8.7 216.7,9.0 218.0,9.4 219.4,9.9 220.7,10.4 222.0,11.0 223.3,11.6 224.6,12.4 225.9,13.1 227.2,14.0 228.5,14.9 229.9,15.9 231.2,16.9 232.5,17.9 233.8,19.1 235.1,20.3 236.4,21.5 237.7,22.8 239.1,24.1 240.4,25.5 241.7,27.0 243.0,28.4 244.3,30.0 245.6,31.5 246.9,33.2 248.3,34.8 249.6,36.5 250.9,38.2 252.2,40.0 253.5,41.8 254.8,43.6 256.1,45.4 257.5,47.3 258.8,49.2 260.1,51.1 261.4,53.1 262.7,55.1 264.0,57.0 265.3,59.0 266.6,61.1 268.0,63.1 269.3,65.1 270.6,67.2 271.9,69.2 273.2,71.3 274.5,73.4 275.8,75.4 277.2,77.5 278.5,79.6 279.8,81.6 281.1,83.7 282.4,85.8 283.7,87.8 285.0,89.8 286.4,91.9 287.7,93.9 289.0,95.9 290.3,97.9 291.6,99.9 292.9,101.8 294.2,103.8 295.5,105.7 296.9,107.6 298.2,109.5 299.5,111.4 300.8,113.2 302.1,115.1 303.4,116.9 304.7,118.7 306.1,120.4 307.4,122.1 308.7,123.8 310.0,125.5 311.3,127.2 312.6,128.8 313.9,130.4 315.3,131.9 316.6,133.5 317.9,135.0 319.2,136.5 320.5,137.9 321.8,139.3 323.1,140.7 324.5,142.1 325.8,143.4 327.1,144.7 328.4,146.0 329.7,147.2 331.0,148.4 332.3,149.6 333.6,150.7 335.0,151.9 336.3,153.0 337.6,154.0 338.9,155.1 340.2,156.1 341.5,157.0 342.8,158.0 344.2,158.9 345.5,159.8 346.8,160.7 348.1,161.5 349.4,162.3 350.7,163.1 352.0,163.9 353.4,164.6 354.7,165.4 356.0,166.1 357.3,166.7 358.6,167.4 359.9,168.0 361.2,168.6 362.5,169.2 363.9,169.8 365.2,170.3 366.5,170.8 367.8,171.3 369.1,171.8 370.4,172.3 371.7,172.7 373.1,173.2 374.4,173.6 375.7,174.0 377.0,174.4" fill="none" stroke="#4a90d9" stroke-width="1.5" stroke-linejoin="round"/>
  <line x1="450" y1="8.0" x2="785" y2="8.0" stroke="#e5e7eb" stroke-width="0.7"/>
  <text x="445" y="12.0" text-anchor="end" font-size="10" fill="#6b7280">0</text>
  <line x1="450" y1="66.0" x2="785" y2="66.0" stroke="#e5e7eb" stroke-width="0.7"/>
  <text x="445" y="70.0" text-anchor="end" font-size="10" fill="#6b7280">-40</text>
  <line x1="450" y1="124.0" x2="785" y2="124.0" stroke="#e5e7eb" stroke-width="0.7"/>
  <text x="445" y="128.0" text-anchor="end" font-size="10" fill="#6b7280">-80</text>
  <line x1="450" y1="182.0" x2="785" y2="182.0" stroke="#e5e7eb" stroke-width="0.7"/>
  <text x="445" y="186.0" text-anchor="end" font-size="10" fill="#6b7280">-120</text>
  <line x1="450.0" y1="8" x2="450.0" y2="182" stroke="#e5e7eb" stroke-width="0.7"/>
  <text x="450.0" y="198" text-anchor="middle" font-size="10" fill="#6b7280">0</text>
  <line x1="517.0" y1="8" x2="517.0" y2="182" stroke="#e5e7eb" stroke-width="0.7"/>
  <text x="517.0" y="198" text-anchor="middle" font-size="10" fill="#6b7280">0.1</text>
  <line x1="584.0" y1="8" x2="584.0" y2="182" stroke="#e5e7eb" stroke-width="0.7"/>
  <text x="584.0" y="198" text-anchor="middle" font-size="10" fill="#6b7280">0.2</text>
  <line x1="651.0" y1="8" x2="651.0" y2="182" stroke="#e5e7eb" stroke-width="0.7"/>
  <text x="651.0" y="198" text-anchor="middle" font-size="10" fill="#6b7280">0.3</text>
  <line x1="718.0" y1="8" x2="718.0" y2="182" stroke="#e5e7eb" stroke-width="0.7"/>
  <text x="718.0" y="198" text-anchor="middle" font-size="10" fill="#6b7280">0.4</text>
  <line x1="785.0" y1="8" x2="785.0" y2="182" stroke="#e5e7eb" stroke-width="0.7"/>
  <text x="785.0" y="198" text-anchor="middle" font-size="10" fill="#6b7280">0.5</text>
  <line x1="450" y1="8" x2="450" y2="182" stroke="#d1d5db" stroke-width="1"/>
  <line x1="450" y1="182" x2="785" y2="182" stroke="#d1d5db" stroke-width="1"/>
  <polyline points="450.0,8.0 450.2,8.0 450.3,8.1 450.5,8.3 450.7,8.6 450.8,8.9 451.0,9.3 451.1,9.7 451.3,10.3 451.5,10.9 451.6,11.6 451.8,12.3 452.0,13.2 452.1,14.1 452.3,15.1 452.5,16.2 452.6,17.4 452.8,18.7 452.9,20.1 453.1,21.6 453.3,23.1 453.4,24.8 453.6,26.6 453.8,28.5 453.9,30.5 454.1,32.6 454.3,34.8 454.4,37.1 454.6,39.5 454.7,42.0 454.9,44.5 455.1,47.1 455.2,49.6 455.4,52.0 455.6,54.2 455.7,56.2 455.9,57.9 456.1,59.2 456.2,60.3 456.4,61.1 456.5,61.8 456.7,62.4 456.9,63.1 457.0,63.9 457.2,64.9 457.4,66.3 457.5,68.0 457.7,70.4 457.9,73.5 458.0,78.0 458.2,85.3 458.3,104.4 458.5,93.4 458.7,82.9 458.8,77.8 459.0,74.7 459.2,72.7 459.3,71.6 459.5,71.1 459.7,71.1 459.8,71.7 460.0,72.8 460.1,74.6 460.3,77.3 460.5,81.3 460.6,87.8 460.8,103.2 461.0,99.3 461.1,87.0 461.3,81.3 461.5,77.9 461.6,75.7 461.8,74.3 461.9,73.6 462.1,73.3 462.3,73.7 462.4,74.5 462.6,75.9 462.8,78.1 462.9,81.3 463.1,86.1 463.3,94.9 463.4,141.7 463.6,94.6 463.7,86.4 463.9,81.9 464.1,79.1 464.2,77.2 464.4,76.1 464.6,75.5 464.7,75.5 464.9,76.0 465.1,77.0 465.2,78.6 465.4,81.1 465.5,84.7 465.7,90.4 465.9,101.9 466.0,110.5 466.2,93.4 466.4,86.8 466.5,82.9 466.7,80.4 466.9,78.7 467.0,77.8 467.2,77.4 467.3,77.5 467.5,78.0 467.7,79.2 467.8,81.0 468.0,83.6 468.2,87.6 468.3,94.0 468.5,109.0 468.7,105.8 468.8,93.3 469.0,87.5 469.1,84.0 469.3,81.7 469.5,80.2 469.6,79.3 469.8,79.0 470.0,79.2 470.1,79.9 470.3,81.1 470.5,83.0 470.6,85.8 470.8,90.1 470.9,97.3 471.1,117.2 471.3,104.0 471.4,93.6 471.6,88.3 471.8,85.0 471.9,82.9 472.1,81.5 472.3,80.7 472.4,80.5 472.6,80.7 472.7,81.5 472.9,82.8 473.1,84.8 473.2,87.8 473.4,92.3 473.6,100.1 473.7,128.3 473.9,103.3 474.1,94.0 474.2,89.2 474.4,86.1 474.5,84.0 474.7,82.7 474.9,82.0 475.0,81.8 475.2,82.1 475.4,82.9 475.5,84.3 475.7,86.4 475.9,89.5 476.0,94.2 476.2,102.7 476.3,162.6 476.5,103.1 476.7,94.6 476.8,90.0 477.0,87.0 477.2,85.1 477.3,83.8 477.5,83.2 477.7,83.0 477.8,83.3 478.0,84.2 478.1,85.6 478.3,87.8 478.5,91.0 478.6,96.0 478.8,105.1 479.0,135.4 479.1,103.2 479.3,95.3 479.5,90.8 479.6,88.0 479.8,86.1 479.9,84.9 480.1,84.2 480.3,84.1 480.4,84.5 480.6,85.4 480.8,86.9 480.9,89.1 481.1,92.4 481.3,97.5 481.4,107.3 481.6,128.2 481.7,103.4 481.9,95.9 482.1,91.6 482.2,88.8 482.4,87.0 482.6,85.8 482.7,85.2 482.9,85.1 483.1,85.5 483.2,86.5 483.4,88.0 483.5,90.3 483.7,93.7 483.9,99.0 484.0,109.2 484.2,124.9 484.4,103.7 484.5,96.5 484.7,92.3 484.9,89.6 485.0,87.8 485.2,86.7 485.3,86.1 485.5,86.1 485.7,86.5 485.8,87.5 486.0,89.0 486.2,91.4 486.3,94.8 486.5,100.3 486.7,111.1 486.8,123.0 487.0,104.0 487.1,97.1 487.3,93.1 487.5,90.4 487.6,88.6 487.8,87.5 488.0,87.0 488.1,87.0 488.3,87.4 488.5,88.4 488.6,90.0 488.8,92.3 488.9,95.9 489.1,101.5 489.3,112.8 489.4,121.8 489.6,104.4 489.8,97.7 489.9,93.7 490.1,91.1 490.3,89.4 490.4,88.3 490.6,87.8 490.7,87.8 490.9,88.3 491.1,89.3 491.2,90.9 491.4,93.3 491.6,96.9 491.7,102.6 491.9,114.5 492.1,121.1 492.2,104.8 492.4,98.3 492.6,94.4 492.7,91.8 492.9,90.1 493.0,89.1 493.2,88.6 493.4,88.6 493.5,89.0 493.7,90.1 493.9,91.7 494.0,94.1 494.2,97.8 494.4,103.6 494.5,116.0 494.7,120.6 494.8,105.2 495.0,98.8 495.2,95.0 495.3,92.5 495.5,90.8 495.7,89.8 495.8,89.3 496.0,89.3 496.2,89.8 496.3,90.8 496.5,92.5 496.6,95.0 496.8,98.6 497.0,104.6 497.1,117.4 497.3,120.3 497.5,105.7 497.6,99.4 497.8,95.6 498.0,93.1 498.1,91.4 498.3,90.4 498.4,89.9 498.6,90.0 498.8,90.5 498.9,91.5 499.1,93.2 499.3,95.7 499.4,99.5 499.6,105.5 499.8,118.8 499.9,120.2 500.1,106.1 500.2,99.9 500.4,96.2 500.6,93.7 500.7,92.0 500.9,91.0 501.1,90.6 501.2,90.6 501.4,91.1 501.6,92.2 501.7,93.9 501.9,96.4 502.0,100.2 502.2,106.4 502.4,120.1 502.5,120.1 502.7,106.5 502.9,100.4 503.0,96.7 503.2,94.3 503.4,92.6 503.5,91.6 503.7,91.2 503.8,91.2 504.0,91.8 504.2,92.9 504.3,94.6 504.5,97.1 504.7,100.9 504.8,107.2 505.0,121.3 505.2,120.1 505.3,106.9 505.5,100.9 505.6,97.2 505.8,94.8 506.0,93.2 506.1,92.2 506.3,91.8 506.5,91.8 506.6,92.4 506.8,93.5 507.0,95.2 507.1,97.8 507.3,101.6 507.4,107.9 507.6,122.5 507.8,120.1 507.9,107.2 508.1,101.3 508.3,97.7 508.4,95.3 508.6,93.7 508.8,92.8 508.9,92.3 509.1,92.4 509.2,92.9 509.4,94.0 509.6,95.8 509.7,98.4 509.9,102.3 510.1,108.6 510.2,123.6 510.4,120.2 510.6,107.6 510.7,101.8 510.9,98.2 511.0,95.8 511.2,94.2 511.4,93.3 511.5,92.8 511.7,92.9 511.9,93.5 512.0,94.6 512.2,96.3 512.4,99.0 512.5,102.9 512.7,109.3 512.8,124.7 513.0,120.3 513.2,108.0 513.3,102.2 513.5,98.6 513.7,96.3 513.8,94.7 514.0,93.8 514.2,93.4 514.3,93.4 514.5,94.0 514.6,95.1 514.8,96.9 515.0,99.5 515.1,103.5 515.3,110.0 515.5,125.8 515.6,120.4 515.8,108.4 516.0,102.6 516.1,99.1 516.3,96.7 516.4,95.2 516.6,94.2 516.8,93.8 516.9,93.9 517.1,94.5 517.3,95.6 517.4,97.4 517.6,100.0 517.8,104.0 517.9,110.6 518.1,126.8 518.2,120.6 518.4,108.7 518.6,103.0 518.7,99.5 518.9,97.2 519.1,95.6 519.2,94.7 519.4,94.3 519.6,94.4 519.7,95.0 519.9,96.1 520.0,97.9 520.2,100.5 520.4,104.5 520.5,111.2 520.7,127.7 520.9,120.7 521.0,109.1 521.2,103.4 521.4,99.9 521.5,97.6 521.7,96.1 521.8,95.1 522.0,94.7 522.2,94.8 522.3,95.4 522.5,96.6 522.7,98.4 522.8,101.0 523.0,105.1 523.2,111.8 523.3,128.7 523.5,120.9 523.6,109.4 523.8,103.8 524.0,100.3 524.1,98.0 524.3,96.5 524.5,95.6 524.6,95.2 524.8,95.3 525.0,95.9 525.1,97.0 525.3,98.8 525.4,101.5 525.6,105.5 525.8,112.3 525.9,129.6 526.1,121.1 526.3,109.7 526.4,104.2 526.6,100.7 526.8,98.4 526.9,96.9 527.1,96.0 527.2,95.6 527.4,95.7 527.6,96.3 527.7,97.5 527.9,99.3 528.1,102.0 528.2,106.0 528.4,112.8 528.6,130.4 528.7,121.3 528.9,110.0 529.0,104.5 529.2,101.1 529.4,98.8 529.5,97.3 529.7,96.4 529.9,96.0 530.0,96.1 530.2,96.7 530.4,97.9 530.5,99.7 530.7,102.4 530.8,106.5 531.0,113.3 531.2,131.3 531.3,121.4 531.5,110.3 531.7,104.9 531.8,101.4 532.0,99.1 532.2,97.6 532.3,96.7 532.5,96.4 532.6,96.5 532.8,97.1 533.0,98.3 533.1,100.1 533.3,102.8 533.5,106.9 533.6,113.8 533.8,132.1 534.0,121.6 534.1,110.6 534.3,105.2 534.4,101.8 534.6,99.5 534.8,98.0 534.9,97.1 535.1,96.7 535.3,96.9 535.4,97.5 535.6,98.6 535.8,100.5 535.9,103.2 536.1,107.3 536.2,114.3 536.4,132.9 536.6,121.8 536.7,110.9 536.9,105.5 537.1,102.1 537.2,99.8 537.4,98.3 537.6,97.5 537.7,97.1 537.9,97.2 538.0,97.8 538.2,99.0 538.4,100.9 538.5,103.6 538.7,107.7 538.9,114.7 539.0,133.7 539.2,122.0 539.4,111.2 539.5,105.8 539.7,102.4 539.8,100.2 540.0,98.7 540.2,97.8 540.3,97.4 540.5,97.6 540.7,98.2 540.8,99.4 541.0,101.2 541.2,104.0 541.3,108.1 541.5,115.2 541.6,134.4 541.8,122.2 542.0,111.5 542.1,106.1 542.3,102.7 542.5,100.5 542.6,99.0 542.8,98.1 543.0,97.8 543.1,97.9 543.3,98.5 543.4,99.7 543.6,101.6 543.8,104.3 543.9,108.5 544.1,115.6 544.3,135.2 544.4,122.4 544.6,111.8 544.8,106.4 544.9,103.1 545.1,100.8 545.2,99.3 545.4,98.5 545.6,98.1 545.7,98.2 545.9,98.9 546.1,100.1 546.2,101.9 546.4,104.7 546.6,108.9 546.7,116.0 546.9,135.9 547.0,122.5 547.2,112.0 547.4,106.7 547.5,103.3 547.7,101.1 547.9,99.6 548.0,98.8 548.2,98.4 548.4,98.6 548.5,99.2 548.7,100.4 548.8,102.3 549.0,105.0 549.2,109.2 549.3,116.4 549.5,136.6 549.7,122.7 549.8,112.3 550.0,107.0 550.2,103.6 550.3,101.4 550.5,99.9 550.6,99.1 550.8,98.7 551.0,98.9 551.1,99.5 551.3,100.7 551.5,102.6 551.6,105.3 551.8,109.6 552.0,116.7 552.1,137.3 552.3,122.9 552.4,112.5 552.6,107.2 552.8,103.9 552.9,101.7 553.1,100.2 553.3,99.4 553.4,99.0 553.6,99.2 553.8,99.8 553.9,101.0 554.1,102.9 554.2,105.7 554.4,109.9 554.6,117.1 554.7,137.9 554.9,123.1 555.1,112.8 555.2,107.5 555.4,104.2 555.6,102.0 555.7,100.5 555.9,99.6 556.0,99.3 556.2,99.5 556.4,100.1 556.5,101.3 556.7,103.2 556.9,106.0 557.0,110.2 557.2,117.5 557.4,138.6 557.5,123.2 557.7,113.0 557.8,107.8 558.0,104.5 558.2,102.2 558.3,100.8 558.5,99.9 558.7,99.6 558.8,99.7 559.0,100.4 559.2,101.6 559.3,103.5 559.5,106.3 559.6,110.5 559.8,117.8 560.0,139.2 560.1,123.4 560.3,113.2 560.5,108.0 560.6,104.7 560.8,102.5 561.0,101.0 561.1,100.2 561.3,99.9 561.4,100.0 561.6,100.7 561.8,101.9 561.9,103.8 562.1,106.6 562.3,110.8 562.4,118.1 562.6,139.8 562.8,123.6 562.9,113.5 563.1,108.3 563.2,105.0 563.4,102.8 563.6,101.3 563.7,100.5 563.9,100.1 564.1,100.3 564.2,100.9 564.4,102.1 564.6,104.0 564.7,106.8 564.9,111.1 565.0,118.4 565.2,140.5 565.4,123.8 565.5,113.7 565.7,108.5 565.9,105.2 566.0,103.0 566.2,101.6 566.4,100.7 566.5,100.4 566.7,100.5 566.8,101.2 567.0,102.4 567.2,104.3 567.3,107.1 567.5,111.4 567.7,118.8 567.8,141.1 568.0,123.9 568.2,113.9 568.3,108.7 568.5,105.4 568.6,103.2 568.8,101.8 569.0,101.0 569.1,100.6 569.3,100.8 569.5,101.5 569.6,102.7 569.8,104.6 570.0,107.4 570.1,111.7 570.3,119.1 570.4,141.6 570.6,124.1 570.8,114.1 570.9,108.9 571.1,105.7 571.3,103.5 571.4,102.0 571.6,101.2 571.8,100.9 571.9,101.0 572.1,101.7 572.2,102.9 572.4,104.8 572.6,107.6 572.7,112.0 572.9,119.4 573.1,142.2 573.2,124.2 573.4,114.3 573.6,109.2 573.7,105.9 573.9,103.7 574.0,102.3 574.2,101.4 574.4,101.1 574.5,101.3 574.7,101.9 574.9,103.2 575.0,105.1 575.2,107.9 575.4,112.2 575.5,119.6 575.7,142.8 575.9,124.4 576.0,114.5 576.2,109.4 576.3,106.1 576.5,103.9 576.7,102.5 576.8,101.7 577.0,101.3 577.2,101.5 577.3,102.2 577.5,103.4 577.7,105.3 577.8,108.1 578.0,112.5 578.1,119.9 578.3,143.4 578.5,124.5 578.6,114.7 578.8,109.6 579.0,106.3 579.1,104.1 579.3,102.7 579.5,101.9 579.6,101.6 579.8,101.7 579.9,102.4 580.1,103.6 580.3,105.5 580.4,108.4 580.6,112.7 580.8,120.2 580.9,143.9 581.1,124.7 581.3,114.9 581.4,109.8 581.6,106.5 581.7,104.4 581.9,102.9 582.1,102.1 582.2,101.8 582.4,102.0 582.6,102.6 582.7,103.9 582.9,105.8 583.1,108.6 583.2,113.0 583.4,120.5 583.5,144.5 583.7,124.8 583.9,115.1 584.0,110.0 584.2,106.7 584.4,104.6 584.5,103.1 584.7,102.3 584.9,102.0 585.0,102.2 585.2,102.8 585.3,104.1 585.5,106.0 585.7,108.8 585.8,113.2 586.0,120.7 586.2,145.0 586.3,125.0 586.5,115.3 586.7,110.2 586.8,106.9 587.0,104.8 587.1,103.3 587.3,102.5 587.5,102.2 587.6,102.4 587.8,103.1 588.0,104.3 588.1,106.2 588.3,109.1 588.5,113.4 588.6,121.0 588.8,145.5 588.9,125.1 589.1,115.4 589.3,110.4 589.4,107.1 589.6,105.0 589.8,103.5 589.9,102.7 590.1,102.4 590.3,102.6 590.4,103.3 590.6,104.5 590.7,106.4 590.9,109.3 591.1,113.6 591.2,121.2 591.4,146.0 591.6,125.3 591.7,115.6 591.9,110.5 592.1,107.3 592.2,105.2 592.4,103.7 592.5,102.9 592.7,102.6 592.9,102.8 593.0,103.5 593.2,104.7 593.4,106.6 593.5,109.5 593.7,113.9 593.9,121.5 594.0,146.5 594.2,125.4 594.3,115.8 594.5,110.7 594.7,107.5 594.8,105.3 595.0,103.9 595.2,103.1 595.3,102.8 595.5,103.0 595.7,103.7 595.8,104.9 596.0,106.8 596.1,109.7 596.3,114.1 596.5,121.7 596.6,147.1 596.8,125.5 597.0,116.0 597.1,110.9 597.3,107.7 597.5,105.5 597.6,104.1 597.8,103.3 597.9,103.0 598.1,103.2 598.3,103.8 598.4,105.1 598.6,107.0 598.8,109.9 598.9,114.3 599.1,121.9 599.3,147.6 599.4,125.7 599.6,116.1 599.7,111.1 599.9,107.9 600.1,105.7 600.2,104.3 600.4,103.5 600.6,103.2 600.7,103.3 600.9,104.0 601.1,105.3 601.2,107.2 601.4,110.1 601.5,114.5 601.7,122.1 601.9,148.1 602.0,125.8 602.2,116.3 602.4,111.2 602.5,108.0 602.7,105.9 602.9,104.5 603.0,103.6 603.2,103.3 603.3,103.5 603.5,104.2 603.7,105.5 603.8,107.4 604.0,110.3 604.2,114.7 604.3,122.4 604.5,148.5 604.7,125.9 604.8,116.4 605.0,111.4 605.1,108.2 605.3,106.0 605.5,104.6 605.6,103.8 605.8,103.5 606.0,103.7 606.1,104.4 606.3,105.6 606.5,107.6 606.6,110.5 606.8,114.9 606.9,122.6 607.1,149.0 607.3,126.0 607.4,116.6 607.6,111.6 607.8,108.4 607.9,106.2 608.1,104.8 608.3,104.0 608.4,103.7 608.6,103.9 608.7,104.6 608.9,105.8 609.1,107.8 609.2,110.7 609.4,115.1 609.6,122.8 609.7,149.5 609.9,126.2 610.1,116.7 610.2,111.7 610.4,108.5 610.5,106.4 610.7,105.0 610.9,104.2 611.0,103.9 611.2,104.0 611.4,104.7 611.5,106.0 611.7,107.9 611.9,110.8 612.0,115.2 612.2,123.0 612.3,150.0 612.5,126.3 612.7,116.9 612.8,111.9 613.0,108.7 613.2,106.5 613.3,105.1 613.5,104.3 613.7,104.0 613.8,104.2 614.0,104.9 614.1,106.2 614.3,108.1 614.5,111.0 614.6,115.4 614.8,123.2 615.0,150.4 615.1,126.4 615.3,117.0 615.5,112.0 615.6,108.8 615.8,106.7 615.9,105.3 616.1,104.5 616.3,104.2 616.4,104.4 616.6,105.1 616.8,106.3 616.9,108.3 617.1,111.2 617.3,115.6 617.4,123.4 617.6,150.9 617.7,126.5 617.9,117.1 618.1,112.2 618.2,109.0 618.4,106.8 618.6,105.4 618.7,104.6 618.9,104.3 619.1,104.5 619.2,105.2 619.4,106.5 619.5,108.4 619.7,111.3 619.9,115.8 620.0,123.5 620.2,151.4 620.4,126.6 620.5,117.3 620.7,112.3 620.9,109.1 621.0,107.0 621.2,105.6 621.3,104.8 621.5,104.5 621.7,104.7 621.8,105.4 622.0,106.6 622.2,108.6 622.3,111.5 622.5,115.9 622.7,123.7 622.8,151.8 623.0,126.7 623.1,117.4 623.3,112.4 623.5,109.3 623.6,107.1 623.8,105.7 624.0,104.9 624.1,104.6 624.3,104.8 624.5,105.5 624.6,106.8 624.8,108.7 624.9,111.6 625.1,116.1 625.3,123.9 625.4,152.3 625.6,126.8 625.8,117.5 625.9,112.6 626.1,109.4 626.3,107.3 626.4,105.9 626.6,105.1 626.7,104.8 626.9,105.0 627.1,105.7 627.2,106.9 627.4,108.9 627.6,111.8 627.7,116.3 627.9,124.1 628.1,152.7 628.2,126.9 628.4,117.6 628.5,112.7 628.7,109.5 628.9,107.4 629.0,106.0 629.2,105.2 629.4,104.9 629.5,105.1 629.7,105.8 629.9,107.1 630.0,109.0 630.2,111.9 630.3,116.4 630.5,124.2 630.7,153.2 630.8,127.0 631.0,117.8 631.2,112.8 631.3,109.7 631.5,107.5 631.7,106.1 631.8,105.3 632.0,105.0 632.1,105.2 632.3,105.9 632.5,107.2 632.6,109.2 632.8,112.1 633.0,116.6 633.1,124.4 633.3,153.6 633.5,127.1 633.6,117.9 633.8,112.9 633.9,109.8 634.1,107.7 634.3,106.3 634.4,105.5 634.6,105.2 634.8,105.4 634.9,106.1 635.1,107.4 635.3,109.3 635.4,112.2 635.6,116.7 635.7,124.6 635.9,154.1 636.1,127.2 636.2,118.0 636.4,113.1 636.6,109.9 636.7,107.8 636.9,106.4 637.1,105.6 637.2,105.3 637.4,105.5 637.5,106.2 637.7,107.5 637.9,109.5 638.0,112.4 638.2,116.9 638.4,124.7 638.5,154.5 638.7,127.3 638.9,118.1 639.0,113.2 639.2,110.0 639.3,107.9 639.5,106.5 639.7,105.7 639.8,105.4 640.0,105.6 640.2,106.3 640.3,107.6 640.5,109.6 640.7,112.5 640.8,117.0 641.0,124.9 641.1,155.0 641.3,127.4 641.5,118.2 641.6,113.3 641.8,110.1 642.0,108.0 642.1,106.6 642.3,105.8 642.5,105.6 642.6,105.8 642.8,106.5 642.9,107.7 643.1,109.7 643.3,112.6 643.4,117.1 643.6,125.0 643.8,155.4 643.9,127.5 644.1,118.3 644.3,113.4 644.4,110.3 644.6,108.1 644.7,106.8 644.9,106.0 645.1,105.7 645.2,105.9 645.4,106.6 645.6,107.9 645.7,109.8 645.9,112.8 646.1,117.3 646.2,125.2 646.4,155.8 646.5,127.6 646.7,118.4 646.9,113.5 647.0,110.4 647.2,108.3 647.4,106.9 647.5,106.1 647.7,105.8 647.9,106.0 648.0,106.7 648.2,108.0 648.3,110.0 648.5,112.9 648.7,117.4 648.8,125.3 649.0,156.3 649.2,127.7 649.3,118.5 649.5,113.6 649.7,110.5 649.8,108.4 650.0,107.0 650.1,106.2 650.3,105.9 650.5,106.1 650.6,106.8 650.8,108.1 651.0,110.1 651.1,113.0 651.3,117.5 651.5,125.5 651.6,156.7 651.8,127.7 651.9,118.6 652.1,113.7 652.3,110.6 652.4,108.5 652.6,107.1 652.8,106.3 652.9,106.0 653.1,106.2 653.3,106.9 653.4,108.2 653.6,110.2 653.7,113.1 653.9,117.6 654.1,125.6 654.2,157.2 654.4,127.8 654.6,118.7 654.7,113.8 654.9,110.7 655.1,108.6 655.2,107.2 655.4,106.4 655.5,106.1 655.7,106.3 655.9,107.1 656.0,108.3 656.2,110.3 656.4,113.3 656.5,117.8 656.7,125.7 656.9,157.6 657.0,127.9 657.2,118.8 657.3,113.9 657.5,110.8 657.7,108.7 657.8,107.3 658.0,106.5 658.2,106.2 658.3,106.4 658.5,107.2 658.7,108.4 658.8,110.4 659.0,113.4 659.1,117.9 659.3,125.9 659.5,158.0 659.6,128.0 659.8,118.9 660.0,114.0 660.1,110.9 660.3,108.8 660.5,107.4 660.6,106.6 660.8,106.3 661.0,106.6 661.1,107.3 661.3,108.5 661.4,110.5 661.6,113.5 661.8,118.0 661.9,126.0 662.1,158.5 662.3,128.0 662.4,119.0 662.6,114.1 662.8,111.0 662.9,108.9 663.1,107.5 663.2,106.7 663.4,106.4 663.6,106.7 663.7,107.4 663.9,108.7 664.1,110.6 664.2,113.6 664.4,118.1 664.6,126.1 664.7,158.9 664.9,128.1 665.0,119.1 665.2,114.2 665.4,111.1 665.5,109.0 665.7,107.6 665.9,106.8 666.0,106.5 666.2,106.8 666.4,107.5 666.5,108.8 666.7,110.7 666.8,113.7 667.0,118.2 667.2,126.2 667.3,159.3 667.5,128.2 667.7,119.2 667.8,114.3 668.0,111.2 668.2,109.1 668.3,107.7 668.5,106.9 668.6,106.6 668.8,106.8 669.0,107.6 669.1,108.9 669.3,110.8 669.5,113.8 669.6,118.3 669.8,126.4 670.0,159.8 670.1,128.2 670.3,119.2 670.4,114.4 670.6,111.3 670.8,109.2 670.9,107.8 671.1,107.0 671.3,106.7 671.4,106.9 671.6,107.7 671.8,108.9 671.9,110.9 672.1,113.9 672.2,118.4 672.4,126.5 672.6,160.2 672.7,128.3 672.9,119.3 673.1,114.5 673.2,111.3 673.4,109.2 673.6,107.9 673.7,107.1 673.9,106.8 674.0,107.0 674.2,107.8 674.4,109.0 674.5,111.0 674.7,114.0 674.9,118.5 675.0,126.6 675.2,160.7 675.4,128.4 675.5,119.4 675.7,114.5 675.8,111.4 676.0,109.3 676.2,108.0 676.3,107.2 676.5,106.9 676.7,107.1 676.8,107.8 677.0,109.1 677.2,111.1 677.3,114.1 677.5,118.6 677.6,126.7 677.8,161.1 678.0,128.4 678.1,119.5 678.3,114.6 678.5,111.5 678.6,109.4 678.8,108.0 679.0,107.3 679.1,107.0 679.3,107.2 679.4,107.9 679.6,109.2 679.8,111.2 679.9,114.2 680.1,118.7 680.3,126.8 680.4,161.6 680.6,128.5 680.8,119.5 680.9,114.7 681.1,111.6 681.2,109.5 681.4,108.1 681.6,107.3 681.7,107.1 681.9,107.3 682.1,108.0 682.2,109.3 682.4,111.3 682.6,114.3 682.7,118.8 682.9,126.9 683.0,162.0 683.2,128.5 683.4,119.6 683.5,114.8 683.7,111.7 683.9,109.6 684.0,108.2 684.2,107.4 684.4,107.2 684.5,107.4 684.7,108.1 684.8,109.4 685.0,111.4 685.2,114.3 685.3,118.9 685.5,127.0 685.7,162.5 685.8,128.6 686.0,119.7 686.2,114.8 686.3,111.7 686.5,109.6 686.6,108.3 686.8,107.5 687.0,107.2 687.1,107.4 687.3,108.2 687.5,109.5 687.6,111.5 687.8,114.4 688.0,119.0 688.1,127.1 688.3,163.0 688.4,128.6 688.6,119.7 688.8,114.9 688.9,111.8 689.1,109.7 689.3,108.4 689.4,107.6 689.6,107.3 689.8,107.5 689.9,108.2 690.1,109.5 690.2,111.5 690.4,114.5 690.6,119.1 690.7,127.2 690.9,163.4 691.1,128.7 691.2,119.8 691.4,115.0 691.6,111.9 691.7,109.8 691.9,108.4 692.0,107.6 692.2,107.4 692.4,107.6 692.5,108.3 692.7,109.6 692.9,111.6 693.0,114.6 693.2,119.2 693.4,127.3 693.5,163.9 693.7,128.7 693.8,119.9 694.0,115.0 694.2,111.9 694.3,109.9 694.5,108.5 694.7,107.7 694.8,107.4 695.0,107.7 695.2,108.4 695.3,109.7 695.5,111.7 695.6,114.7 695.8,119.2 696.0,127.4 696.1,164.4 696.3,128.8 696.5,119.9 696.6,115.1 696.8,112.0 697.0,109.9 697.1,108.6 697.3,107.8 697.4,107.5 697.6,107.7 697.8,108.5 697.9,109.8 698.1,111.8 698.3,114.7 698.4,119.3 698.6,127.5 698.8,164.9 698.9,128.8 699.1,120.0 699.2,115.2 699.4,112.1 699.6,110.0 699.7,108.6 699.9,107.8 700.1,107.6 700.2,107.8 700.4,108.5 700.6,109.8 700.7,111.8 700.9,114.8 701.0,119.4 701.2,127.6 701.4,165.4 701.5,128.9 701.7,120.0 701.9,115.2 702.0,112.1 702.2,110.0 702.4,108.7 702.5,107.9 702.7,107.6 702.8,107.9 703.0,108.6 703.2,109.9 703.3,111.9 703.5,114.9 703.7,119.5 703.8,127.6 704.0,165.9 704.2,128.9 704.3,120.1 704.5,115.3 704.6,112.2 704.8,110.1 705.0,108.7 705.1,108.0 705.3,107.7 705.5,107.9 705.6,108.7 705.8,110.0 706.0,112.0 706.1,115.0 706.3,119.5 706.4,127.7 706.6,166.4 706.8,128.9 706.9,120.1 707.1,115.3 707.3,112.2 707.4,110.2 707.6,108.8 707.8,108.0 707.9,107.8 708.1,108.0 708.2,108.7 708.4,110.0 708.6,112.0 708.7,115.0 708.9,119.6 709.1,127.8 709.2,166.9 709.4,129.0 709.6,120.2 709.7,115.4 709.9,112.3 710.0,110.2 710.2,108.9 710.4,108.1 710.5,107.8 710.7,108.1 710.9,108.8 711.0,110.1 711.2,112.1 711.4,115.1 711.5,119.7 711.7,127.9 711.8,167.5 712.0,129.0 712.2,120.2 712.3,115.4 712.5,112.3 712.7,110.3 712.8,108.9 713.0,108.1 713.2,107.9 713.3,108.1 713.5,108.8 713.6,110.1 713.8,112.2 714.0,115.1 714.1,119.7 714.3,128.0 714.5,168.0 714.6,129.0 714.8,120.3 715.0,115.5 715.1,112.4 715.3,110.3 715.4,109.0 715.6,108.2 715.8,107.9 715.9,108.2 716.1,108.9 716.3,110.2 716.4,112.2 716.6,115.2 716.8,119.8 716.9,128.0 717.1,168.6 717.2,129.1 717.4,120.3 717.6,115.5 717.7,112.4 717.9,110.4 718.1,109.0 718.2,108.2 718.4,108.0 718.6,108.2 718.7,108.9 718.9,110.3 719.0,112.3 719.2,115.3 719.4,119.9 719.5,128.1 719.7,169.1 719.9,129.1 720.0,120.4 720.2,115.6 720.4,112.5 720.5,110.4 720.7,109.1 720.8,108.3 721.0,108.0 721.2,108.3 721.3,109.0 721.5,110.3 721.7,112.3 721.8,115.3 722.0,119.9 722.2,128.2 722.3,169.7 722.5,129.1 722.6,120.4 722.8,115.6 723.0,112.5 723.1,110.5 723.3,109.1 723.5,108.3 723.6,108.1 723.8,108.3 724.0,109.0 724.1,110.4 724.3,112.4 724.4,115.4 724.6,120.0 724.8,128.2 724.9,170.4 725.1,129.1 725.3,120.4 725.4,115.6 725.6,112.6 725.8,110.5 725.9,109.2 726.1,108.4 726.2,108.1 726.4,108.4 726.6,109.1 726.7,110.4 726.9,112.4 727.1,115.4 727.2,120.0 727.4,128.3 727.6,171.0 727.7,129.2 727.9,120.5 728.0,115.7 728.2,112.6 728.4,110.5 728.5,109.2 728.7,108.4 728.9,108.2 729.0,108.4 729.2,109.1 729.4,110.4 729.5,112.5 729.7,115.5 729.8,120.1 730.0,128.4 730.2,171.6 730.3,129.2 730.5,120.5 730.7,115.7 730.8,112.6 731.0,110.6 731.2,109.2 731.3,108.5 731.5,108.2 731.6,108.4 731.8,109.2 732.0,110.5 732.1,112.5 732.3,115.5 732.5,120.1 732.6,128.4 732.8,172.3 733.0,129.2 733.1,120.5 733.3,115.8 733.4,112.7 733.6,110.6 733.8,109.3 733.9,108.5 734.1,108.2 734.3,108.5 734.4,109.2 734.6,110.5 734.8,112.5 734.9,115.6 735.1,120.2 735.2,128.5 735.4,173.0 735.6,129.2 735.7,120.5 735.9,115.8 736.1,112.7 736.2,110.6 736.4,109.3 736.6,108.5 736.7,108.3 736.9,108.5 737.0,109.3 737.2,110.6 737.4,112.6 737.5,115.6 737.7,120.2 737.9,128.5 738.0,173.8 738.2,129.2 738.4,120.6 738.5,115.8 738.7,112.7 738.8,110.7 739.0,109.3 739.2,108.6 739.3,108.3 739.5,108.6 739.7,109.3 739.8,110.6 740.0,112.6 740.2,115.6 740.3,120.3 740.5,128.6 740.6,174.5 740.8,129.3 741.0,120.6 741.1,115.8 741.3,112.8 741.5,110.7 741.6,109.4 741.8,108.6 742.0,108.4 742.1,108.6 742.3,109.3 742.4,110.6 742.6,112.7 742.8,115.7 742.9,120.3 743.1,128.6 743.3,175.4 743.4,129.3 743.6,120.6 743.8,115.9 743.9,112.8 744.1,110.7 744.3,109.4 744.4,108.6 744.6,108.4 744.7,108.6 744.9,109.4 745.1,110.7 745.2,112.7 745.4,115.7 745.6,120.4 745.7,128.7 745.9,176.2 746.1,129.3 746.2,120.6 746.4,115.9 746.5,112.8 746.7,110.8 746.9,109.4 747.0,108.7 747.2,108.4 747.4,108.6 747.5,109.4 747.7,110.7 747.9,112.7 748.0,115.7 748.2,120.4 748.3,128.7 748.5,177.1 748.7,129.3 748.8,120.7 749.0,115.9 749.2,112.8 749.3,110.8 749.5,109.5 749.7,108.7 749.8,108.4 750.0,108.7 750.1,109.4 750.3,110.7 750.5,112.8 750.6,115.8 750.8,120.4 751.0,128.8 751.1,178.1 751.3,129.3 751.5,120.7 751.6,115.9 751.8,112.9 751.9,110.8 752.1,109.5 752.3,108.7 752.4,108.5 752.6,108.7 752.8,109.4 752.9,110.8 753.1,112.8 753.3,115.8 753.4,120.5 753.6,128.8 753.7,179.2 753.9,129.3 754.1,120.7 754.2,115.9 754.4,112.9 754.6,110.8 754.7,109.5 754.9,108.7 755.1,108.5 755.2,108.7 755.4,109.5 755.5,110.8 755.7,112.8 755.9,115.8 756.0,120.5 756.2,128.9 756.4,180.3 756.5,129.3 756.7,120.7 756.9,116.0 757.0,112.9 757.2,110.9 757.3,109.5 757.5,108.8 757.7,108.5 757.8,108.7 758.0,109.5 758.2,110.8 758.3,112.8 758.5,115.9 758.7,120.5 758.8,128.9 759.0,181.5 759.1,129.3 759.3,120.7 759.5,116.0 759.6,112.9 759.8,110.9 760.0,109.5 760.1,108.8 760.3,108.5 760.5,108.8 760.6,109.5 760.8,110.8 760.9,112.9 761.1,115.9 761.3,120.5 761.4,128.9 761.6,182.0 761.8,129.3 761.9,120.7 762.1,116.0 762.3,112.9 762.4,110.9 762.6,109.6 762.7,108.8 762.9,108.5 763.1,108.8 763.2,109.5 763.4,110.8 763.6,112.9 763.7,115.9 763.9,120.6 764.1,129.0 764.2,182.0 764.4,129.3 764.5,120.7 764.7,116.0 764.9,112.9 765.0,110.9 765.2,109.6 765.4,108.8 765.5,108.6 765.7,108.8 765.9,109.5 766.0,110.9 766.2,112.9 766.3,115.9 766.5,120.6 766.7,129.0 766.8,182.0 767.0,129.3 767.2,120.7 767.3,116.0 767.5,113.0 767.7,110.9 767.8,109.6 768.0,108.8 768.1,108.6 768.3,108.8 768.5,109.6 768.6,110.9 768.8,112.9 769.0,115.9 769.1,120.6 769.3,129.0 769.5,182.0 769.6,129.3 769.8,120.7 769.9,116.0 770.1,113.0 770.3,110.9 770.4,109.6 770.6,108.8 770.8,108.6 770.9,108.8 771.1,109.6 771.3,110.9 771.4,112.9 771.6,116.0 771.7,120.6 771.9,129.1 772.1,182.0 772.2,129.3 772.4,120.7 772.6,116.0 772.7,113.0 772.9,110.9 773.1,109.6 773.2,108.8 773.4,108.6 773.5,108.8 773.7,109.6 773.9,110.9 774.0,112.9 774.2,116.0 774.4,120.7 774.5,129.1 774.7,182.0 774.9,129.3 775.0,120.7 775.2,116.0 775.3,113.0 775.5,110.9 775.7,109.6 775.8,108.8 776.0,108.6 776.2,108.8 776.3,109.6 776.5,110.9 776.7,113.0 776.8,116.0 777.0,120.7 777.1,129.1 777.3,182.0 777.5,129.2 777.6,120.7 777.8,116.0 778.0,113.0 778.1,110.9 778.3,109.6 778.5,108.9 778.6,108.6 778.8,108.8 778.9,109.6 779.1,110.9 779.3,113.0 779.4,116.0 779.6,120.7 779.8,129.2 779.9,182.0 780.1,129.2 780.3,120.7 780.4,116.0 780.6,113.0 780.7,110.9 780.9,109.6 781.1,108.9 781.2,108.6 781.4,108.9 781.6,109.6 781.7,110.9 781.9,113.0 782.1,116.0 782.2,120.7 782.4,129.2 782.5,182.0 782.7,129.2 782.9,120.7 783.0,116.0 783.2,113.0 783.4,110.9 783.5,109.6 783.7,108.9 783.9,108.6 784.0,108.9 784.2,109.6 784.3,110.9 784.5,113.0 784.7,116.0 784.8,120.7 785.0,129.2" fill="none" stroke="#4a90d9" stroke-width="1.5" stroke-linejoin="round"/>
  <text x="209.5" y="214" text-anchor="middle" font-size="11" fill="#6b7280">n / N</text>
  <text x="617.5" y="214" text-anchor="middle" font-size="11" fill="#6b7280">Normalized frequency (× Fₛ)</text>
</svg>
