<svg xmlns="http://www.w3.org/2000/svg" viewBox="0 0 800 230" style="font-family:system-ui,-apple-system,sans-serif">
  <line x1="42" y1="182.0" x2="377" y2="182.0" stroke="#e5e7eb" stroke-width="0.7"/>
  <text x="37" y="186.0" text-anchor="end" font-size="10" fill="#6b7280">0</text>
  <line x1="42" y1="95.0" x2="377" y2="95.0" stroke="#e5e7eb" stroke-width="0.7"/>
  <text x="37" y="99.0" text-anchor="end" font-size="10" fill="#6b7280">0.5</text>
  <line x1="42" y1="8.0" x2="377" y2="8.0" stroke="#e5e7eb" stroke-width="0.7"/>
  <text x="37" y="12.0" text-anchor="end" font-size="10" fill="#6b7280">1</text>
  <line x1="42.0" y1="8" x2="42.0" y2="182" stroke="#e5e7eb" stroke-width="0.7"/>
  <text x="42.0" y="198" text-anchor="middle" font-size="10" fill="#6b7280">0</text>
  <line x1="209.5" y1="8" x2="209.5" y2="182" stroke="#e5e7eb" stroke-width="0.7"/>
  <text x="209.5" y="198" text-anchor="middle" font-size="10" fill="#6b7280">0.5</text>
  <line x1="377.0" y1="8" x2="377.0" y2="182" stroke="#e5e7eb" stroke-width="0.7"/>
  <text x="377.0" y="198" text-anchor="middle" font-size="10" fill="#6b7280">1</text>
  <line x1="42" y1="8" x2="42" y2="182" stroke="#d1d5db" stroke-width="1"/>
  <line x1="42" y1="182" x2="377" y2="182" stroke="#d1d5db" stroke-width="1"/>
  <path d="M42.0,182.0 42.0,168.1 43.3,168.1 44.6,168.0 45.9,167.9 47.3,167.7 48.6,167.5 49.9,167.2 51.2,166.9 52.5,166.5 53.8,166.1 55.1,165.7 56.5,165.2 57.8,164.6 59.1,164.0 60.4,163.4 61.7,162.7 63.0,161.9 64.3,161.2 65.6,160.3 67.0,159.5 68.3,158.6 69.6,157.6 70.9,156.6 72.2,155.6 73.5,154.5 74.8,153.4 76.2,152.2 77.5,151.0 78.8,149.8 80.1,148.5 81.4,147.2 82.7,145.8 84.0,144.5 85.4,143.0 86.7,141.6 88.0,140.1 89.3,138.6 90.6,137.1 91.9,135.5 93.2,133.9 94.5,132.3 95.9,130.6 97.2,128.9 98.5,127.2 99.8,125.5 101.1,123.7 102.4,121.9 103.7,120.1 105.1,118.3 106.4,116.5 107.7,114.6 109.0,112.8 110.3,110.9 111.6,109.0 112.9,107.1 114.3,105.2 115.6,103.2 116.9,101.3 118.2,99.3 119.5,97.4 120.8,95.4 122.1,93.5 123.5,91.5 124.8,89.5 126.1,87.5 127.4,85.6 128.7,83.6 130.0,81.6 131.3,79.7 132.6,77.7 134.0,75.8 135.3,73.8 136.6,71.9 137.9,70.0 139.2,68.0 140.5,66.1 141.8,64.2 143.2,62.4 144.5,60.5 145.8,58.7 147.1,56.8 148.4,55.0 149.7,53.2 151.0,51.5 152.4,49.7 153.7,48.0 155.0,46.3 156.3,44.7 157.6,43.0 158.9,41.4 160.2,39.8 161.5,38.2 162.9,36.7 164.2,35.2 165.5,33.8 166.8,32.3 168.1,30.9 169.4,29.6 170.7,28.2 172.1,26.9 173.4,25.7 174.7,24.5 176.0,23.3 177.3,22.1 178.6,21.0 179.9,20.0 181.3,19.0 182.6,18.0 183.9,17.1 185.2,16.2 186.5,15.3 187.8,14.5 189.1,13.8 190.5,13.1 191.8,12.4 193.1,11.8 194.4,11.2 195.7,10.7 197.0,10.2 198.3,9.7 199.6,9.4 201.0,9.0 202.3,8.7 203.6,8.5 204.9,8.3 206.2,8.2 207.5,8.1 208.8,8.0 210.2,8.0 211.5,8.1 212.8,8.2 214.1,8.3 215.4,8.5 216.7,8.7 218.0,9.0 219.4,9.4 220.7,9.7 222.0,10.2 223.3,10.7 224.6,11.2 225.9,11.8 227.2,12.4 228.5,13.1 229.9,13.8 231.2,14.5 232.5,15.3 233.8,16.2 235.1,17.1 236.4,18.0 237.7,19.0 239.1,20.0 240.4,21.0 241.7,22.1 243.0,23.3 244.3,24.5 245.6,25.7 246.9,26.9 248.3,28.2 249.6,29.6 250.9,30.9 252.2,32.3 253.5,33.8 254.8,35.2 256.1,36.7 257.5,38.2 258.8,39.8 260.1,41.4 261.4,43.0 262.7,44.7 264.0,46.3 265.3,48.0 266.6,49.7 268.0,51.5 269.3,53.2 270.6,55.0 271.9,56.8 273.2,58.7 274.5,60.5 275.8,62.4 277.2,64.2 278.5,66.1 279.8,68.0 281.1,70.0 282.4,71.9 283.7,73.8 285.0,75.8 286.4,77.7 287.7,79.7 289.0,81.6 290.3,83.6 291.6,85.6 292.9,87.5 294.2,89.5 295.5,91.5 296.9,93.5 298.2,95.4 299.5,97.4 300.8,99.3 302.1,101.3 303.4,103.2 304.7,105.2 306.1,107.1 307.4,109.0 308.7,110.9 310.0,112.8 311.3,114.6 312.6,116.5 313.9,118.3 315.3,120.1 316.6,121.9 317.9,123.7 319.2,125.5 320.5,127.2 321.8,128.9 323.1,130.6 324.5,132.3 325.8,133.9 327.1,135.5 328.4,137.1 329.7,138.6 331.0,140.1 332.3,141.6 333.6,143.0 335.0,144.5 336.3,145.8 337.6,147.2 338.9,148.5 340.2,149.8 341.5,151.0 342.8,152.2 344.2,153.4 345.5,154.5 346.8,155.6 348.1,156.6 349.4,157.6 350.7,158.6 352.0,159.5 353.4,160.3 354.7,161.2 356.0,161.9 357.3,162.7 358.6,163.4 359.9,164.0 361.2,164.6 362.5,165.2 363.9,165.7 365.2,166.1 366.5,166.5 367.8,166.9 369.1,167.2 370.4,167.5 371.7,167.7 373.1,167.9 374.4,168.0 375.7,168.1 377.0,168.1 L377.0,182.0 Z" fill="#4a90d9" fill-opacity="0.06"/>
  <polyline points="42.0,168.1 43.3,168.1 44.6,168.0 45.9,167.9 47.3,167.7 48.6,167.5 49.9,167.2 51.2,166.9 52.5,166.5 53.8,166.1 55.1,165.7 56.5,165.2 57.8,164.6 59.1,164.0 60.4,163.4 61.7,162.7 63.0,161.9 64.3,161.2 65.6,160.3 67.0,159.5 68.3,158.6 69.6,157.6 70.9,156.6 72.2,155.6 73.5,154.5 74.8,153.4 76.2,152.2 77.5,151.0 78.8,149.8 80.1,148.5 81.4,147.2 82.7,145.8 84.0,144.5 85.4,143.0 86.7,141.6 88.0,140.1 89.3,138.6 90.6,137.1 91.9,135.5 93.2,133.9 94.5,132.3 95.9,130.6 97.2,128.9 98.5,127.2 99.8,125.5 101.1,123.7 102.4,121.9 103.7,120.1 105.1,118.3 106.4,116.5 107.7,114.6 109.0,112.8 110.3,110.9 111.6,109.0 112.9,107.1 114.3,105.2 115.6,103.2 116.9,101.3 118.2,99.3 119.5,97.4 120.8,95.4 122.1,93.5 123.5,91.5 124.8,89.5 126.1,87.5 127.4,85.6 128.7,83.6 130.0,81.6 131.3,79.7 132.6,77.7 134.0,75.8 135.3,73.8 136.6,71.9 137.9,70.0 139.2,68.0 140.5,66.1 141.8,64.2 143.2,62.4 144.5,60.5 145.8,58.7 147.1,56.8 148.4,55.0 149.7,53.2 151.0,51.5 152.4,49.7 153.7,48.0 155.0,46.3 156.3,44.7 157.6,43.0 158.9,41.4 160.2,39.8 161.5,38.2 162.9,36.7 164.2,35.2 165.5,33.8 166.8,32.3 168.1,30.9 169.4,29.6 170.7,28.2 172.1,26.9 173.4,25.7 174.7,24.5 176.0,23.3 177.3,22.1 178.6,21.0 179.9,20.0 181.3,19.0 182.6,18.0 183.9,17.1 185.2,16.2 186.5,15.3 187.8,14.5 189.1,13.8 190.5,13.1 191.8,12.4 193.1,11.8 194.4,11.2 195.7,10.7 197.0,10.2 198.3,9.7 199.6,9.4 201.0,9.0 202.3,8.7 203.6,8.5 204.9,8.3 206.2,8.2 207.5,8.1 208.8,8.0 210.2,8.0 211.5,8.1 212.8,8.2 214.1,8.3 215.4,8.5 216.7,8.7 218.0,9.0 219.4,9.4 220.7,9.7 222.0,10.2 223.3,10.7 224.6,11.2 225.9,11.8 227.2,12.4 228.5,13.1 229.9,13.8 231.2,14.5 232.5,15.3 233.8,16.2 235.1,17.1 236.4,18.0 237.7,19.0 239.1,20.0 240.4,21.0 241.7,22.1 243.0,23.3 244.3,24.5 245.6,25.7 246.9,26.9 248.3,28.2 249.6,29.6 250.9,30.9 252.2,32.3 253.5,33.8 254.8,35.2 256.1,36.7 257.5,38.2 258.8,39.8 260.1,41.4 261.4,43.0 262.7,44.7 264.0,46.3 265.3,48.0 266.6,49.7 268.0,51.5 269.3,53.2 270.6,55.0 271.9,56.8 273.2,58.7 274.5,60.5 275.8,62.4 277.2,64.2 278.5,66.1 279.8,68.0 281.1,70.0 282.4,71.9 283.7,73.8 285.0,75.8 286.4,77.7 287.7,79.7 289.0,81.6 290.3,83.6 291.6,85.6 292.9,87.5 294.2,89.5 295.5,91.5 296.9,93.5 298.2,95.4 299.5,97.4 300.8,99.3 302.1,101.3 303.4,103.2 304.7,105.2 306.1,107.1 307.4,109.0 308.7,110.9 310.0,112.8 311.3,114.6 312.6,116.5 313.9,118.3 315.3,120.1 316.6,121.9 317.9,123.7 319.2,125.5 320.5,127.2 321.8,128.9 323.1,130.6 324.5,132.3 325.8,133.9 327.1,135.5 328.4,137.1 329.7,138.6 331.0,140.1 332.3,141.6 333.6,143.0 335.0,144.5 336.3,145.8 337.6,147.2 338.9,148.5 340.2,149.8 341.5,151.0 342.8,152.2 344.2,153.4 345.5,154.5 346.8,155.6 348.1,156.6 349.4,157.6 350.7,158.6 352.0,159.5 353.4,160.3 354.7,161.2 356.0,161.9 357.3,162.7 358.6,163.4 359.9,164.0 361.2,164.6 362.5,165.2 363.9,165.7 365.2,166.1 366.5,166.5 367.8,166.9 369.1,167.2 370.4,167.5 371.7,167.7 373.1,167.9 374.4,168.0 375.7,168.1 377.0,168.1" fill="none" stroke="#4a90d9" stroke-width="1.5" stroke-linejoin="round"/>
  <line x1="450" y1="8.0" x2="785" y2="8.0" stroke="#e5e7eb" stroke-width="0.7"/>
  <text x="445" y="12.0" text-anchor="end" font-size="10" fill="#6b7280">0</text>
  <line x1="450" y1="66.0" x2="785" y2="66.0" stroke="#e5e7eb" stroke-width="0.7"/>
  <text x="445" y="70.0" text-anchor="end" font-size="10" fill="#6b7280">-40</text>
  <line x1="450" y1="124.0" x2="785" y2="124.0" stroke="#e5e7eb" stroke-width="0.7"/>
  <text x="445" y="128.0" text-anchor="end" font-size="10" fill="#6b7280">-80</text>
  <line x1="450" y1="182.0" x2="785" y2="182.0" stroke="#e5e7eb" stroke-width="0.7"/>
  <text x="445" y="186.0" text-anchor="end" font-size="10" fill="#6b7280">-120</text>
  <line x1="450.0" y1="8" x2="450.0" y2="182" stroke="#e5e7eb" stroke-width="0.7"/>
  <text x="450.0" y="198" text-anchor="middle" font-size="10" fill="#6b7280">0</text>
  <line x1="517.0" y1="8" x2="517.0" y2="182" stroke="#e5e7eb" stroke-width="0.7"/>
  <text x="517.0" y="198" text-anchor="middle" font-size="10" fill="#6b7280">0.1</text>
  <line x1="584.0" y1="8" x2="584.0" y2="182" stroke="#e5e7eb" stroke-width="0.7"/>
  <text x="584.0" y="198" text-anchor="middle" font-size="10" fill="#6b7280">0.2</text>
  <line x1="651.0" y1="8" x2="651.0" y2="182" stroke="#e5e7eb" stroke-width="0.7"/>
  <text x="651.0" y="198" text-anchor="middle" font-size="10" fill="#6b7280">0.3</text>
  <line x1="718.0" y1="8" x2="718.0" y2="182" stroke="#e5e7eb" stroke-width="0.7"/>
  <text x="718.0" y="198" text-anchor="middle" font-size="10" fill="#6b7280">0.4</text>
  <line x1="785.0" y1="8" x2="785.0" y2="182" stroke="#e5e7eb" stroke-width="0.7"/>
  <text x="785.0" y="198" text-anchor="middle" font-size="10" fill="#6b7280">0.5</text>
  <line x1="450" y1="8" x2="450" y2="182" stroke="#d1d5db" stroke-width="1"/>
  <line x1="450" y1="182" x2="785" y2="182" stroke="#d1d5db" stroke-width="1"/>
  <polyline points="450.0,8.0 450.2,8.0 450.3,8.2 450.5,8.4 450.7,8.6 450.8,9.0 451.0,9.4 451.1,9.9 451.3,10.5 451.5,11.2 451.6,12.0 451.8,12.9 452.0,13.8 452.1,14.9 452.3,16.0 452.5,17.3 452.6,18.7 452.8,20.2 452.9,21.8 453.1,23.6 453.3,25.5 453.4,27.6 453.6,29.9 453.8,32.4 453.9,35.2 454.1,38.2 454.3,41.6 454.4,45.5 454.6,49.9 454.7,55.2 454.9,61.9 455.1,71.4 455.2,93.5 455.4,83.5 455.6,75.6 455.7,73.1 455.9,72.9 456.1,74.1 456.2,76.5 456.4,80.4 456.5,86.4 456.7,96.7 456.9,135.4 457.0,99.5 457.2,94.3 457.4,93.8 457.5,97.1 457.7,109.3 457.9,105.9 458.0,91.5 458.2,84.4 458.3,79.8 458.5,76.6 458.7,74.3 458.8,72.7 459.0,71.8 459.2,71.3 459.3,71.4 459.5,72.0 459.7,73.3 459.8,75.3 460.0,78.4 460.1,83.4 460.3,92.9 460.5,113.8 460.6,88.8 460.8,81.2 461.0,76.8 461.1,73.9 461.3,72.0 461.5,70.7 461.6,70.0 461.8,69.9 461.9,70.2 462.1,71.0 462.3,72.5 462.4,74.6 462.6,77.8 462.8,82.8 462.9,92.0 463.1,119.7 463.3,89.6 463.4,81.8 463.6,77.4 463.7,74.5 463.9,72.6 464.1,71.4 464.2,70.8 464.4,70.7 464.6,71.0 464.7,71.9 464.9,73.3 465.1,75.5 465.2,78.7 465.4,83.7 465.5,92.7 465.7,124.5 465.9,91.0 466.0,83.1 466.2,78.6 466.4,75.8 466.5,73.9 466.7,72.7 466.9,72.0 467.0,71.9 467.2,72.2 467.3,73.1 467.5,74.6 467.7,76.7 467.8,79.9 468.0,84.8 468.2,93.8 468.3,128.5 468.5,92.5 468.7,84.4 468.8,80.0 469.0,77.1 469.1,75.2 469.3,74.0 469.5,73.3 469.6,73.2 469.8,73.5 470.0,74.4 470.1,75.8 470.3,78.0 470.5,81.2 470.6,86.1 470.8,95.0 470.9,131.9 471.1,93.9 471.3,85.8 471.4,81.3 471.6,78.4 471.8,76.4 471.9,75.2 472.1,74.6 472.3,74.4 472.4,74.8 472.6,75.6 472.7,77.0 472.9,79.2 473.1,82.4 473.2,87.2 473.4,96.1 473.6,134.9 473.7,95.1 473.9,87.0 474.1,82.5 474.2,79.6 474.4,77.6 474.5,76.4 474.7,75.7 474.9,75.6 475.0,75.9 475.2,76.8 475.4,78.2 475.5,80.3 475.7,83.5 475.9,88.3 476.0,97.2 476.2,137.6 476.3,96.3 476.5,88.2 476.7,83.6 476.8,80.7 477.0,78.7 477.2,77.5 477.3,76.8 477.5,76.7 477.7,77.0 477.8,77.8 478.0,79.3 478.1,81.4 478.3,84.5 478.5,89.4 478.6,98.2 478.8,140.1 479.0,97.4 479.1,89.2 479.3,84.7 479.5,81.7 479.6,79.8 479.8,78.5 479.9,77.9 480.1,77.7 480.3,78.0 480.4,78.9 480.6,80.3 480.8,82.4 480.9,85.5 481.1,90.4 481.3,99.1 481.4,142.3 481.6,98.4 481.7,90.2 481.9,85.7 482.1,82.7 482.2,80.8 482.4,79.5 482.6,78.8 482.7,78.7 482.9,79.0 483.1,79.8 483.2,81.2 483.4,83.3 483.5,86.5 483.7,91.3 483.9,100.0 484.0,144.3 484.2,99.4 484.4,91.2 484.5,86.6 484.7,83.6 484.9,81.7 485.0,80.4 485.2,79.7 485.3,79.5 485.5,79.9 485.7,80.7 485.8,82.1 486.0,84.2 486.2,87.3 486.3,92.1 486.5,100.8 486.7,146.2 486.8,100.3 487.0,92.0 487.1,87.4 487.3,84.5 487.5,82.5 487.6,81.3 487.8,80.6 488.0,80.4 488.1,80.7 488.3,81.5 488.5,82.9 488.6,85.0 488.8,88.1 488.9,92.9 489.1,101.6 489.3,147.9 489.4,101.1 489.6,92.8 489.8,88.2 489.9,85.3 490.1,83.3 490.3,82.0 490.4,81.4 490.6,81.2 490.7,81.5 490.9,82.3 491.1,83.7 491.2,85.8 491.4,88.9 491.6,93.7 491.7,102.4 491.9,149.6 492.1,101.9 492.2,93.6 492.4,89.0 492.6,86.0 492.7,84.1 492.9,82.8 493.0,82.1 493.2,81.9 493.4,82.2 493.5,83.0 493.7,84.4 493.9,86.5 494.0,89.6 494.2,94.4 494.4,103.1 494.5,151.1 494.7,102.6 494.8,94.3 495.0,89.7 495.2,86.8 495.3,84.8 495.5,83.5 495.7,82.8 495.8,82.6 496.0,82.9 496.2,83.7 496.3,85.1 496.5,87.2 496.6,90.3 496.8,95.1 497.0,103.7 497.1,152.6 497.3,103.3 497.5,95.0 497.6,90.4 497.8,87.4 498.0,85.4 498.1,84.2 498.3,83.5 498.4,83.3 498.6,83.6 498.8,84.4 498.9,85.8 499.1,87.8 499.3,90.9 499.4,95.7 499.6,104.4 499.8,154.0 499.9,104.0 500.1,95.7 500.2,91.0 500.4,88.1 500.6,86.1 500.7,84.8 500.9,84.1 501.1,83.9 501.2,84.2 501.4,85.0 501.6,86.4 501.7,88.5 501.9,91.6 502.0,96.3 502.2,105.0 502.4,155.3 502.5,104.6 502.7,96.3 502.9,91.7 503.0,88.7 503.2,86.7 503.4,85.4 503.5,84.7 503.7,84.5 503.8,84.8 504.0,85.6 504.2,87.0 504.3,89.1 504.5,92.1 504.7,96.9 504.8,105.6 505.0,156.5 505.2,105.2 505.3,96.9 505.5,92.2 505.6,89.3 505.8,87.3 506.0,86.0 506.1,85.3 506.3,85.1 506.5,85.4 506.6,86.2 506.8,87.5 507.0,89.6 507.1,92.7 507.3,97.5 507.4,106.1 507.6,157.7 507.8,105.8 507.9,97.4 508.1,92.8 508.3,89.8 508.4,87.8 508.6,86.5 508.8,85.8 508.9,85.6 509.1,85.9 509.2,86.7 509.4,88.1 509.6,90.2 509.7,93.2 509.9,98.0 510.1,106.6 510.2,158.8 510.4,106.3 510.6,98.0 510.7,93.3 510.9,90.3 511.0,88.3 511.2,87.1 511.4,86.3 511.5,86.1 511.7,86.4 511.9,87.2 512.0,88.6 512.2,90.7 512.4,93.8 512.5,98.5 512.7,107.1 512.8,159.9 513.0,106.8 513.2,98.5 513.3,93.8 513.5,90.8 513.7,88.8 513.8,87.6 514.0,86.8 514.2,86.6 514.3,86.9 514.5,87.7 514.6,89.1 514.8,91.2 515.0,94.2 515.1,99.0 515.3,107.6 515.5,161.0 515.6,107.3 515.8,99.0 516.0,94.3 516.1,91.3 516.3,89.3 516.4,88.0 516.6,87.3 516.8,87.1 516.9,87.4 517.1,88.2 517.3,89.5 517.4,91.6 517.6,94.7 517.8,99.5 517.9,108.1 518.1,162.0 518.2,107.8 518.4,99.4 518.6,94.8 518.7,91.8 518.9,89.8 519.1,88.5 519.2,87.8 519.4,87.6 519.6,87.9 519.7,88.6 519.9,90.0 520.0,92.1 520.2,95.2 520.4,99.9 520.5,108.5 520.7,163.0 520.9,108.2 521.0,99.9 521.2,95.2 521.4,92.2 521.5,90.2 521.7,88.9 521.8,88.2 522.0,88.0 522.2,88.3 522.3,89.1 522.5,90.4 522.7,92.5 522.8,95.6 523.0,100.3 523.2,108.9 523.3,163.9 523.5,108.7 523.6,100.3 523.8,95.7 524.0,92.7 524.1,90.7 524.3,89.4 524.5,88.7 524.6,88.4 524.8,88.7 525.0,89.5 525.1,90.9 525.3,92.9 525.4,96.0 525.6,100.8 525.8,109.4 525.9,164.8 526.1,109.1 526.3,100.7 526.4,96.1 526.6,93.1 526.8,91.1 526.9,89.8 527.1,89.1 527.2,88.9 527.4,89.1 527.6,89.9 527.7,91.3 527.9,93.3 528.1,96.4 528.2,101.2 528.4,109.8 528.6,165.7 528.7,109.5 528.9,101.1 529.0,96.5 529.2,93.5 529.4,91.5 529.5,90.2 529.7,89.5 529.9,89.2 530.0,89.5 530.2,90.3 530.4,91.7 530.5,93.7 530.7,96.8 530.8,101.6 531.0,110.1 531.2,166.5 531.3,109.9 531.5,101.5 531.7,96.9 531.8,93.9 532.0,91.9 532.2,90.6 532.3,89.8 532.5,89.6 532.6,89.9 532.8,90.7 533.0,92.0 533.1,94.1 533.3,97.2 533.5,101.9 533.6,110.5 533.8,167.4 534.0,110.3 534.1,101.9 534.3,97.2 534.4,94.2 534.6,92.2 534.8,90.9 534.9,90.2 535.1,90.0 535.3,90.3 535.4,91.0 535.6,92.4 535.8,94.5 535.9,97.6 536.1,102.3 536.2,110.9 536.4,168.1 536.6,110.7 536.7,102.3 536.9,97.6 537.1,94.6 537.2,92.6 537.4,91.3 537.6,90.6 537.7,90.4 537.9,90.6 538.0,91.4 538.2,92.8 538.4,94.8 538.5,97.9 538.7,102.6 538.9,111.2 539.0,168.9 539.2,111.0 539.4,102.6 539.5,98.0 539.7,95.0 539.8,92.9 540.0,91.6 540.2,90.9 540.3,90.7 540.5,91.0 540.7,91.7 540.8,93.1 541.0,95.2 541.2,98.2 541.3,103.0 541.5,111.6 541.6,169.7 541.8,111.3 542.0,102.9 542.1,98.3 542.3,95.3 542.5,93.3 542.6,92.0 542.8,91.3 543.0,91.0 543.1,91.3 543.3,92.1 543.4,93.4 543.6,95.5 543.8,98.6 543.9,103.3 544.1,111.9 544.3,170.4 544.4,111.7 544.6,103.3 544.8,98.6 544.9,95.6 545.1,93.6 545.2,92.3 545.4,91.6 545.6,91.4 545.7,91.6 545.9,92.4 546.1,93.8 546.2,95.8 546.4,98.9 546.6,103.6 546.7,112.2 546.9,171.1 547.0,112.0 547.2,103.6 547.4,98.9 547.5,95.9 547.7,93.9 547.9,92.6 548.0,91.9 548.2,91.7 548.4,91.9 548.5,92.7 548.7,94.1 548.8,96.1 549.0,99.2 549.2,103.9 549.3,112.5 549.5,171.8 549.7,112.3 549.8,103.9 550.0,99.2 550.2,96.2 550.3,94.2 550.5,92.9 550.6,92.2 550.8,92.0 551.0,92.2 551.1,93.0 551.3,94.4 551.5,96.4 551.6,99.5 551.8,104.2 552.0,112.8 552.1,172.5 552.3,112.6 552.4,104.2 552.6,99.5 552.8,96.5 552.9,94.5 553.1,93.2 553.3,92.5 553.4,92.3 553.6,92.5 553.8,93.3 553.9,94.7 554.1,96.7 554.2,99.8 554.4,104.5 554.6,113.1 554.7,173.2 554.9,112.9 555.1,104.5 555.2,99.8 555.4,96.8 555.6,94.8 555.7,93.5 555.9,92.8 556.0,92.6 556.2,92.8 556.4,93.6 556.5,94.9 556.7,97.0 556.9,100.1 557.0,104.8 557.2,113.4 557.4,173.8 557.5,113.2 557.7,104.8 557.8,100.1 558.0,97.1 558.2,95.1 558.3,93.8 558.5,93.1 558.7,92.8 558.8,93.1 559.0,93.9 559.2,95.2 559.3,97.3 559.5,100.4 559.6,105.1 559.8,113.6 560.0,174.5 560.1,113.5 560.3,105.1 560.5,100.4 560.6,97.4 560.8,95.4 561.0,94.1 561.1,93.3 561.3,93.1 561.4,93.4 561.6,94.1 561.8,95.5 561.9,97.6 562.1,100.6 562.3,105.3 562.4,113.9 562.6,175.1 562.8,113.7 562.9,105.3 563.1,100.7 563.2,97.6 563.4,95.6 563.6,94.3 563.7,93.6 563.9,93.4 564.1,93.6 564.2,94.4 564.4,95.8 564.6,97.8 564.7,100.9 564.9,105.6 565.0,114.2 565.2,175.7 565.4,114.0 565.5,105.6 565.7,100.9 565.9,97.9 566.0,95.9 566.2,94.6 566.4,93.9 566.5,93.6 566.7,93.9 566.8,94.7 567.0,96.0 567.2,98.1 567.3,101.1 567.5,105.9 567.7,114.4 567.8,176.3 568.0,114.3 568.2,105.8 568.3,101.2 568.5,98.2 568.6,96.1 568.8,94.8 569.0,94.1 569.1,93.9 569.3,94.1 569.5,94.9 569.6,96.3 569.8,98.3 570.0,101.4 570.1,106.1 570.3,114.7 570.4,176.9 570.6,114.5 570.8,106.1 570.9,101.4 571.1,98.4 571.3,96.4 571.4,95.1 571.6,94.3 571.8,94.1 571.9,94.4 572.1,95.2 572.2,96.5 572.4,98.6 572.6,101.6 572.7,106.3 572.9,114.9 573.1,177.5 573.2,114.7 573.4,106.3 573.6,101.7 573.7,98.6 573.9,96.6 574.0,95.3 574.2,94.6 574.4,94.4 574.5,94.6 574.7,95.4 574.9,96.7 575.0,98.8 575.2,101.9 575.4,106.6 575.5,115.1 575.7,178.1 575.9,115.0 576.0,106.6 576.2,101.9 576.3,98.9 576.5,96.9 576.7,95.5 576.8,94.8 577.0,94.6 577.2,94.8 577.3,95.6 577.5,97.0 577.7,99.0 577.8,102.1 578.0,106.8 578.1,115.3 578.3,178.6 578.5,115.2 578.6,106.8 578.8,102.1 579.0,99.1 579.1,97.1 579.3,95.8 579.5,95.0 579.6,94.8 579.8,95.1 579.9,95.8 580.1,97.2 580.3,99.2 580.4,102.3 580.6,107.0 580.8,115.6 580.9,179.2 581.1,115.4 581.3,107.0 581.4,102.3 581.6,99.3 581.7,97.3 581.9,96.0 582.1,95.3 582.2,95.0 582.4,95.3 582.6,96.1 582.7,97.4 582.9,99.5 583.1,102.5 583.2,107.2 583.4,115.8 583.5,179.7 583.7,115.7 583.9,107.2 584.0,102.6 584.2,99.5 584.4,97.5 584.5,96.2 584.7,95.5 584.9,95.2 585.0,95.5 585.2,96.3 585.3,97.6 585.5,99.7 585.7,102.7 585.8,107.5 586.0,116.0 586.2,180.3 586.3,115.9 586.5,107.4 586.7,102.8 586.8,99.7 587.0,97.7 587.1,96.4 587.3,95.7 587.5,95.4 587.6,95.7 587.8,96.5 588.0,97.8 588.1,99.9 588.3,102.9 588.5,107.7 588.6,116.2 588.8,180.8 588.9,116.1 589.1,107.6 589.3,103.0 589.4,99.9 589.6,97.9 589.8,96.6 589.9,95.9 590.1,95.6 590.3,95.9 590.4,96.7 590.6,98.0 590.7,100.1 590.9,103.1 591.1,107.9 591.2,116.4 591.4,181.3 591.6,116.3 591.7,107.8 591.9,103.2 592.1,100.1 592.2,98.1 592.4,96.8 592.5,96.1 592.7,95.8 592.9,96.1 593.0,96.9 593.2,98.2 593.4,100.3 593.5,103.3 593.7,108.0 593.9,116.6 594.0,181.8 594.2,116.5 594.3,108.0 594.5,103.4 594.7,100.3 594.8,98.3 595.0,97.0 595.2,96.3 595.3,96.0 595.5,96.3 595.7,97.1 595.8,98.4 596.0,100.5 596.1,103.5 596.3,108.2 596.5,116.8 596.6,182.0 596.8,116.7 597.0,108.2 597.1,103.5 597.3,100.5 597.5,98.5 597.6,97.2 597.8,96.5 597.9,96.2 598.1,96.5 598.3,97.3 598.4,98.6 598.6,100.6 598.8,103.7 598.9,108.4 599.1,117.0 599.3,182.0 599.4,116.8 599.6,108.4 599.7,103.7 599.9,100.7 600.1,98.7 600.2,97.4 600.4,96.6 600.6,96.4 600.7,96.7 600.9,97.4 601.1,98.8 601.2,100.8 601.4,103.9 601.5,108.6 601.7,117.1 601.9,182.0 602.0,117.0 602.2,108.6 602.4,103.9 602.5,100.9 602.7,98.9 602.9,97.6 603.0,96.8 603.2,96.6 603.3,96.8 603.5,97.6 603.7,99.0 603.8,101.0 604.0,104.1 604.2,108.8 604.3,117.3 604.5,182.0 604.7,117.2 604.8,108.8 605.0,104.1 605.1,101.1 605.3,99.0 605.5,97.7 605.6,97.0 605.8,96.8 606.0,97.0 606.1,97.8 606.3,99.1 606.5,101.2 606.6,104.2 606.8,109.0 606.9,117.5 607.1,182.0 607.3,117.4 607.4,108.9 607.6,104.3 607.8,101.2 607.9,99.2 608.1,97.9 608.3,97.2 608.4,96.9 608.6,97.2 608.7,98.0 608.9,99.3 609.1,101.3 609.2,104.4 609.4,109.1 609.6,117.6 609.7,182.0 609.9,117.5 610.1,109.1 610.2,104.4 610.4,101.4 610.5,99.4 610.7,98.1 610.9,97.3 611.0,97.1 611.2,97.4 611.4,98.1 611.5,99.5 611.7,101.5 611.9,104.6 612.0,109.3 612.2,117.8 612.3,182.0 612.5,117.7 612.7,109.3 612.8,104.6 613.0,101.6 613.2,99.5 613.3,98.2 613.5,97.5 613.7,97.3 613.8,97.5 614.0,98.3 614.1,99.6 614.3,101.7 614.5,104.7 614.6,109.4 614.8,118.0 615.0,182.0 615.1,117.9 615.3,109.4 615.5,104.8 615.6,101.7 615.8,99.7 615.9,98.4 616.1,97.6 616.3,97.4 616.4,97.7 616.6,98.4 616.8,99.8 616.9,101.8 617.1,104.9 617.3,109.6 617.4,118.1 617.6,182.0 617.7,118.0 617.9,109.6 618.1,104.9 618.2,101.9 618.4,99.9 618.6,98.5 618.7,97.8 618.9,97.6 619.1,97.8 619.2,98.6 619.4,99.9 619.5,102.0 619.7,105.0 619.9,109.7 620.0,118.3 620.2,182.0 620.4,118.2 620.5,109.7 620.7,105.1 620.9,102.0 621.0,100.0 621.2,98.7 621.3,98.0 621.5,97.7 621.7,98.0 621.8,98.7 622.0,100.1 622.2,102.1 622.3,105.2 622.5,109.9 622.7,118.4 622.8,182.0 623.0,118.3 623.1,109.9 623.3,105.2 623.5,102.2 623.6,100.2 623.8,98.8 624.0,98.1 624.1,97.9 624.3,98.1 624.5,98.9 624.6,100.2 624.8,102.3 624.9,105.3 625.1,110.0 625.3,118.6 625.4,182.0 625.6,118.5 625.8,110.0 625.9,105.4 626.1,102.3 626.3,100.3 626.4,99.0 626.6,98.2 626.7,98.0 626.9,98.3 627.1,99.0 627.2,100.4 627.4,102.4 627.6,105.5 627.7,110.2 627.9,118.7 628.1,182.0 628.2,118.6 628.4,110.2 628.5,105.5 628.7,102.5 628.9,100.4 629.0,99.1 629.2,98.4 629.4,98.1 629.5,98.4 629.7,99.2 629.9,100.5 630.0,102.6 630.2,105.6 630.3,110.3 630.5,118.8 630.7,182.0 630.8,118.8 631.0,110.3 631.2,105.6 631.3,102.6 631.5,100.6 631.7,99.3 631.8,98.5 632.0,98.3 632.1,98.5 632.3,99.3 632.5,100.6 632.6,102.7 632.8,105.7 633.0,110.5 633.1,119.0 633.3,182.0 633.5,118.9 633.6,110.4 633.8,105.8 633.9,102.7 634.1,100.7 634.3,99.4 634.4,98.7 634.6,98.4 634.8,98.7 634.9,99.4 635.1,100.8 635.3,102.8 635.4,105.9 635.6,110.6 635.7,119.1 635.9,182.0 636.1,119.0 636.2,110.6 636.4,105.9 636.6,102.9 636.7,100.8 636.9,99.5 637.1,98.8 637.2,98.5 637.4,98.8 637.5,99.6 637.7,100.9 637.9,103.0 638.0,106.0 638.2,110.7 638.4,119.2 638.5,182.0 638.7,119.2 638.9,110.7 639.0,106.0 639.2,103.0 639.3,101.0 639.5,99.7 639.7,98.9 639.8,98.7 640.0,98.9 640.2,99.7 640.3,101.0 640.5,103.1 640.7,106.1 640.8,110.8 641.0,119.4 641.1,182.0 641.3,119.3 641.5,110.8 641.6,106.1 641.8,103.1 642.0,101.1 642.1,99.8 642.3,99.0 642.5,98.8 642.6,99.1 642.8,99.8 642.9,101.2 643.1,103.2 643.3,106.3 643.4,111.0 643.6,119.5 643.8,182.0 643.9,119.4 644.1,111.0 644.3,106.3 644.4,103.2 644.6,101.2 644.7,99.9 644.9,99.2 645.1,98.9 645.2,99.2 645.4,99.9 645.6,101.3 645.7,103.3 645.9,106.4 646.1,111.1 646.2,119.6 646.4,182.0 646.5,119.5 646.7,111.1 646.9,106.4 647.0,103.4 647.2,101.3 647.4,100.0 647.5,99.3 647.7,99.0 647.9,99.3 648.0,100.1 648.2,101.4 648.3,103.4 648.5,106.5 648.7,111.2 648.8,119.7 649.0,182.0 649.2,119.6 649.3,111.2 649.5,106.5 649.7,103.5 649.8,101.4 650.0,100.1 650.1,99.4 650.3,99.1 650.5,99.4 650.6,100.2 650.8,101.5 651.0,103.6 651.1,106.6 651.3,111.3 651.5,119.8 651.6,182.0 651.8,119.8 651.9,111.3 652.1,106.6 652.3,103.6 652.4,101.6 652.6,100.2 652.8,99.5 652.9,99.3 653.1,99.5 653.3,100.3 653.4,101.6 653.6,103.7 653.7,106.7 653.9,111.4 654.1,119.9 654.2,182.0 654.4,119.9 654.6,111.4 654.7,106.7 654.9,103.7 655.1,101.7 655.2,100.4 655.4,99.6 655.5,99.4 655.7,99.6 655.9,100.4 656.0,101.7 656.2,103.8 656.4,106.8 656.5,111.5 656.7,120.0 656.9,182.0 657.0,120.0 657.2,111.5 657.3,106.8 657.5,103.8 657.7,101.8 657.8,100.5 658.0,99.7 658.2,99.5 658.3,99.7 658.5,100.5 658.7,101.8 658.8,103.9 659.0,106.9 659.1,111.6 659.3,120.1 659.5,182.0 659.6,120.1 659.8,111.6 660.0,106.9 660.1,103.9 660.3,101.9 660.5,100.6 660.6,99.8 660.8,99.6 661.0,99.8 661.1,100.6 661.3,101.9 661.4,104.0 661.6,107.0 661.8,111.7 661.9,120.2 662.1,182.0 662.3,120.2 662.4,111.7 662.6,107.0 662.8,104.0 662.9,102.0 663.1,100.7 663.2,99.9 663.4,99.7 663.6,99.9 663.7,100.7 663.9,102.0 664.1,104.1 664.2,107.1 664.4,111.8 664.6,120.3 664.7,182.0 664.9,120.3 665.0,111.8 665.2,107.1 665.4,104.1 665.5,102.1 665.7,100.8 665.9,100.0 666.0,99.8 666.2,100.0 666.4,100.8 666.5,102.1 666.7,104.2 666.8,107.2 667.0,111.9 667.2,120.4 667.3,182.0 667.5,120.4 667.7,111.9 667.8,107.2 668.0,104.2 668.2,102.2 668.3,100.9 668.5,100.1 668.6,99.9 668.8,100.1 669.0,100.9 669.1,102.2 669.3,104.3 669.5,107.3 669.6,112.0 669.8,120.5 670.0,182.0 670.1,120.5 670.3,112.0 670.4,107.3 670.6,104.3 670.8,102.3 670.9,100.9 671.1,100.2 671.3,100.0 671.4,100.2 671.6,101.0 671.8,102.3 671.9,104.4 672.1,107.4 672.2,112.1 672.4,120.6 672.6,182.0 672.7,120.6 672.9,112.1 673.1,107.4 673.2,104.4 673.4,102.4 673.6,101.0 673.7,100.3 673.9,100.1 674.0,100.3 674.2,101.1 674.4,102.4 674.5,104.4 674.7,107.5 674.9,112.2 675.0,120.7 675.2,182.0 675.4,120.7 675.5,112.2 675.7,107.5 675.8,104.5 676.0,102.4 676.2,101.1 676.3,100.4 676.5,100.1 676.7,100.4 676.8,101.2 677.0,102.5 677.2,104.5 677.3,107.6 677.5,112.3 677.6,120.8 677.8,182.0 678.0,120.7 678.1,112.3 678.3,107.6 678.5,104.6 678.6,102.5 678.8,101.2 679.0,100.5 679.1,100.2 679.3,100.5 679.4,101.2 679.6,102.6 679.8,104.6 679.9,107.7 680.1,112.4 680.3,120.9 680.4,182.0 680.6,120.8 680.8,112.4 680.9,107.7 681.1,104.6 681.2,102.6 681.4,101.3 681.6,100.5 681.7,100.3 681.9,100.6 682.1,101.3 682.2,102.7 682.4,104.7 682.6,107.7 682.7,112.5 682.9,121.0 683.0,182.0 683.2,120.9 683.4,112.4 683.5,107.8 683.7,104.7 683.9,102.7 684.0,101.4 684.2,100.6 684.4,100.4 684.5,100.6 684.7,101.4 684.8,102.7 685.0,104.8 685.2,107.8 685.3,112.5 685.5,121.0 685.7,182.0 685.8,121.0 686.0,112.5 686.2,107.8 686.3,104.8 686.5,102.8 686.6,101.5 686.8,100.7 687.0,100.5 687.1,100.7 687.3,101.5 687.5,102.8 687.6,104.9 687.8,107.9 688.0,112.6 688.1,121.1 688.3,182.0 688.4,121.1 688.6,112.6 688.8,107.9 688.9,104.9 689.1,102.8 689.3,101.5 689.4,100.8 689.6,100.5 689.8,100.8 689.9,101.5 690.1,102.9 690.2,104.9 690.4,108.0 690.6,112.7 690.7,121.2 690.9,182.0 691.1,121.1 691.2,112.7 691.4,108.0 691.6,105.0 691.7,102.9 691.9,101.6 692.0,100.9 692.2,100.6 692.4,100.9 692.5,101.6 692.7,103.0 692.9,105.0 693.0,108.0 693.2,112.8 693.4,121.3 693.5,182.0 693.7,121.2 693.8,112.7 694.0,108.1 694.2,105.0 694.3,103.0 694.5,101.7 694.7,100.9 694.8,100.7 695.0,100.9 695.2,101.7 695.3,103.0 695.5,105.1 695.6,108.1 695.8,112.8 696.0,121.3 696.1,182.0 696.3,121.3 696.5,112.8 696.6,108.1 696.8,105.1 697.0,103.1 697.1,101.7 697.3,101.0 697.4,100.8 697.6,101.0 697.8,101.8 697.9,103.1 698.1,105.1 698.3,108.2 698.4,112.9 698.6,121.4 698.8,182.0 698.9,121.4 699.1,112.9 699.2,108.2 699.4,105.2 699.6,103.1 699.7,101.8 699.9,101.1 700.1,100.8 700.2,101.1 700.4,101.8 700.6,103.2 700.7,105.2 700.9,108.2 701.0,113.0 701.2,121.5 701.4,182.0 701.5,121.4 701.7,112.9 701.9,108.3 702.0,105.2 702.2,103.2 702.4,101.9 702.5,101.1 702.7,100.9 702.8,101.1 703.0,101.9 703.2,103.2 703.3,105.3 703.5,108.3 703.7,113.0 703.8,121.5 704.0,182.0 704.2,121.5 704.3,113.0 704.5,108.3 704.6,105.3 704.8,103.3 705.0,101.9 705.1,101.2 705.3,100.9 705.5,101.2 705.6,102.0 705.8,103.3 706.0,105.3 706.1,108.4 706.3,113.1 706.4,121.6 706.6,182.0 706.8,121.5 706.9,113.1 707.1,108.4 707.3,105.4 707.4,103.3 707.6,102.0 707.8,101.2 707.9,101.0 708.1,101.3 708.2,102.0 708.4,103.3 708.6,105.4 708.7,108.4 708.9,113.1 709.1,121.6 709.2,182.0 709.4,121.6 709.6,113.1 709.7,108.4 709.9,105.4 710.0,103.4 710.2,102.1 710.4,101.3 710.5,101.1 710.7,101.3 710.9,102.1 711.0,103.4 711.2,105.4 711.4,108.5 711.5,113.2 711.7,121.7 711.8,182.0 712.0,121.7 712.2,113.2 712.3,108.5 712.5,105.5 712.7,103.4 712.8,102.1 713.0,101.4 713.2,101.1 713.3,101.4 713.5,102.1 713.6,103.5 713.8,105.5 714.0,108.5 714.1,113.2 714.3,121.7 714.5,182.0 714.6,121.7 714.8,113.2 715.0,108.6 715.1,105.5 715.3,103.5 715.4,102.2 715.6,101.4 715.8,101.2 715.9,101.4 716.1,102.2 716.3,103.5 716.4,105.6 716.6,108.6 716.8,113.3 716.9,121.8 717.1,182.0 717.2,121.8 717.4,113.3 717.6,108.6 717.7,105.6 717.9,103.5 718.1,102.2 718.2,101.5 718.4,101.2 718.6,101.5 718.7,102.2 718.9,103.6 719.0,105.6 719.2,108.6 719.4,113.3 719.5,121.8 719.7,182.0 719.9,121.8 720.0,113.3 720.2,108.7 720.4,105.6 720.5,103.6 720.7,102.3 720.8,101.5 721.0,101.3 721.2,101.5 721.3,102.3 721.5,103.6 721.7,105.7 721.8,108.7 722.0,113.4 722.2,121.9 722.3,182.0 722.5,121.9 722.6,113.4 722.8,108.7 723.0,105.7 723.1,103.6 723.3,102.3 723.5,101.6 723.6,101.3 723.8,101.6 724.0,102.3 724.1,103.7 724.3,105.7 724.4,108.7 724.6,113.4 724.8,121.9 724.9,182.0 725.1,121.9 725.3,113.4 725.4,108.7 725.6,105.7 725.8,103.7 725.9,102.4 726.1,101.6 726.2,101.4 726.4,101.6 726.6,102.4 726.7,103.7 726.9,105.7 727.1,108.8 727.2,113.5 727.4,122.0 727.6,182.0 727.7,122.0 727.9,113.5 728.0,108.8 728.2,105.8 728.4,103.7 728.5,102.4 728.7,101.6 728.9,101.4 729.0,101.7 729.2,102.4 729.4,103.7 729.5,105.8 729.7,108.8 729.8,113.5 730.0,122.0 730.2,182.0 730.3,122.0 730.5,113.5 730.7,108.8 730.8,105.8 731.0,103.8 731.2,102.4 731.3,101.7 731.5,101.4 731.6,101.7 731.8,102.4 732.0,103.8 732.1,105.8 732.3,108.9 732.5,113.6 732.6,122.1 732.8,182.0 733.0,122.0 733.1,113.6 733.3,108.9 733.4,105.8 733.6,103.8 733.8,102.5 733.9,101.7 734.1,101.5 734.3,101.7 734.4,102.5 734.6,103.8 734.8,105.9 734.9,108.9 735.1,113.6 735.2,122.1 735.4,182.0 735.6,122.1 735.7,113.6 735.9,108.9 736.1,105.9 736.2,103.8 736.4,102.5 736.6,101.8 736.7,101.5 736.9,101.8 737.0,102.5 737.2,103.9 737.4,105.9 737.5,108.9 737.7,113.6 737.9,122.1 738.0,182.0 738.2,122.1 738.4,113.6 738.5,108.9 738.7,105.9 738.8,103.9 739.0,102.5 739.2,101.8 739.3,101.6 739.5,101.8 739.7,102.6 739.8,103.9 740.0,105.9 740.2,109.0 740.3,113.7 740.5,122.2 740.6,182.0 740.8,122.1 741.0,113.7 741.1,109.0 741.3,105.9 741.5,103.9 741.6,102.6 741.8,101.8 742.0,101.6 742.1,101.8 742.3,102.6 742.4,103.9 742.6,106.0 742.8,109.0 742.9,113.7 743.1,122.2 743.3,182.0 743.4,122.2 743.6,113.7 743.8,109.0 743.9,106.0 744.1,103.9 744.3,102.6 744.4,101.9 744.6,101.6 744.7,101.9 744.9,102.6 745.1,103.9 745.2,106.0 745.4,109.0 745.6,113.7 745.7,122.2 745.9,182.0 746.1,122.2 746.2,113.7 746.4,109.0 746.5,106.0 746.7,104.0 746.9,102.6 747.0,101.9 747.2,101.6 747.4,101.9 747.5,102.6 747.7,104.0 747.9,106.0 748.0,109.1 748.2,113.8 748.3,122.3 748.5,182.0 748.7,122.2 748.8,113.8 749.0,109.1 749.2,106.0 749.3,104.0 749.5,102.7 749.7,101.9 749.8,101.7 750.0,101.9 750.1,102.7 750.3,104.0 750.5,106.0 750.6,109.1 750.8,113.8 751.0,122.3 751.1,182.0 751.3,122.3 751.5,113.8 751.6,109.1 751.8,106.1 751.9,104.0 752.1,102.7 752.3,101.9 752.4,101.7 752.6,101.9 752.8,102.7 752.9,104.0 753.1,106.1 753.3,109.1 753.4,113.8 753.6,122.3 753.7,182.0 753.9,122.3 754.1,113.8 754.2,109.1 754.4,106.1 754.6,104.0 754.7,102.7 754.9,102.0 755.1,101.7 755.2,102.0 755.4,102.7 755.5,104.1 755.7,106.1 755.9,109.1 756.0,113.8 756.2,122.3 756.4,182.0 756.5,122.3 756.7,113.8 756.9,109.1 757.0,106.1 757.2,104.1 757.3,102.7 757.5,102.0 757.7,101.7 757.8,102.0 758.0,102.7 758.2,104.1 758.3,106.1 758.5,109.2 758.7,113.9 758.8,122.3 759.0,182.0 759.1,122.3 759.3,113.8 759.5,109.2 759.6,106.1 759.8,104.1 760.0,102.8 760.1,102.0 760.3,101.8 760.5,102.0 760.6,102.8 760.8,104.1 760.9,106.1 761.1,109.2 761.3,113.9 761.4,122.4 761.6,182.0 761.8,122.3 761.9,113.9 762.1,109.2 762.3,106.1 762.4,104.1 762.6,102.8 762.7,102.0 762.9,101.8 763.1,102.0 763.2,102.8 763.4,104.1 763.6,106.1 763.7,109.2 763.9,113.9 764.1,122.4 764.2,182.0 764.4,122.4 764.5,113.9 764.7,109.2 764.9,106.2 765.0,104.1 765.2,102.8 765.4,102.0 765.5,101.8 765.7,102.0 765.9,102.8 766.0,104.1 766.2,106.2 766.3,109.2 766.5,113.9 766.7,122.4 766.8,182.0 767.0,122.4 767.2,113.9 767.3,109.2 767.5,106.2 767.7,104.1 767.8,102.8 768.0,102.1 768.1,101.8 768.3,102.1 768.5,102.8 768.6,104.1 768.8,106.2 769.0,109.2 769.1,113.9 769.3,122.4 769.5,182.0 769.6,122.4 769.8,113.9 769.9,109.2 770.1,106.2 770.3,104.1 770.4,102.8 770.6,102.1 770.8,101.8 770.9,102.1 771.1,102.8 771.3,104.1 771.4,106.2 771.6,109.2 771.7,113.9 771.9,122.4 772.1,182.0 772.2,122.4 772.4,113.9 772.6,109.2 772.7,106.2 772.9,104.2 773.1,102.8 773.2,102.1 773.4,101.8 773.5,102.1 773.7,102.8 773.9,104.2 774.0,106.2 774.2,109.2 774.4,113.9 774.5,122.4 774.7,182.0 774.9,122.4 775.0,113.9 775.2,109.2 775.3,106.2 775.5,104.2 775.7,102.8 775.8,102.1 776.0,101.8 776.2,102.1 776.3,102.8 776.5,104.2 776.7,106.2 776.8,109.2 777.0,113.9 777.1,122.4 777.3,182.0 777.5,122.4 777.6,113.9 777.8,109.2 778.0,106.2 778.1,104.2 778.3,102.8 778.5,102.1 778.6,101.8 778.8,102.1 778.9,102.8 779.1,104.2 779.3,106.2 779.4,109.2 779.6,113.9 779.8,122.4 779.9,182.0 780.1,122.4 780.3,113.9 780.4,109.2 780.6,106.2 780.7,104.2 780.9,102.8 781.1,102.1 781.2,101.8 781.4,102.1 781.6,102.8 781.7,104.2 781.9,106.2 782.1,109.2 782.2,113.9 782.4,122.4 782.5,182.0 782.7,122.4 782.9,113.9 783.0,109.2 783.2,106.2 783.4,104.2 783.5,102.8 783.7,102.1 783.9,101.8 784.0,102.1 784.2,102.8 784.3,104.2 784.5,106.2 784.7,109.2 784.8,113.9 785.0,122.4" fill="none" stroke="#4a90d9" stroke-width="1.5" stroke-linejoin="round"/>
  <text x="209.5" y="214" text-anchor="middle" font-size="11" fill="#6b7280">n / N</text>
  <text x="617.5" y="214" text-anchor="middle" font-size="11" fill="#6b7280">Normalized frequency (× Fₛ)</text>
</svg>
