<svg xmlns="http://www.w3.org/2000/svg" viewBox="0 0 560 190" width="560" height="190" style="font-family:system-ui,-apple-system,sans-serif">
  <rect width="560" height="190" fill="none"/>
  <line x1="52" y1="152.0" x2="257" y2="152.0" stroke="#e5e7eb" stroke-width="0.5"/>
  <text x="48" y="155.0" text-anchor="end" font-size="7.5" fill="#6b7280">0</text>
  <line x1="52" y1="82.0" x2="257" y2="82.0" stroke="#e5e7eb" stroke-width="0.5"/>
  <text x="48" y="85.0" text-anchor="end" font-size="7.5" fill="#6b7280">0.5</text>
  <line x1="52" y1="12.0" x2="257" y2="12.0" stroke="#e5e7eb" stroke-width="0.5"/>
  <text x="48" y="15.0" text-anchor="end" font-size="7.5" fill="#6b7280">1</text>
  <line x1="52.0" y1="12" x2="52.0" y2="152" stroke="#e5e7eb" stroke-width="0.5"/>
  <text x="52.0" y="164" text-anchor="middle" font-size="7.5" fill="#6b7280">0</text>
  <line x1="154.5" y1="12" x2="154.5" y2="152" stroke="#e5e7eb" stroke-width="0.5"/>
  <text x="154.5" y="164" text-anchor="middle" font-size="7.5" fill="#6b7280">0.5</text>
  <line x1="257.0" y1="12" x2="257.0" y2="152" stroke="#e5e7eb" stroke-width="0.5"/>
  <text x="257.0" y="164" text-anchor="middle" font-size="7.5" fill="#6b7280">1</text>
  <line x1="52" y1="12" x2="52" y2="152" stroke="#d1d5db" stroke-width="0.75"/>
  <line x1="52" y1="152" x2="257" y2="152" stroke="#d1d5db" stroke-width="0.75"/>
  <path d="M52.0,152.0 52.0,140.8 52.8,140.8 53.6,140.7 54.4,140.6 55.2,140.5 56.0,140.3 56.8,140.1 57.6,139.8 58.4,139.6 59.2,139.2 60.0,138.9 60.8,138.4 61.6,138.0 62.5,137.5 63.3,137.0 64.1,136.5 64.9,135.9 65.7,135.2 66.5,134.6 67.3,133.9 68.1,133.1 68.9,132.4 69.7,131.6 70.5,130.7 71.3,129.9 72.1,129.0 72.9,128.0 73.7,127.1 74.5,126.1 75.3,125.0 76.1,124.0 76.9,122.9 77.7,121.8 78.5,120.7 79.3,119.5 80.1,118.3 80.9,117.1 81.7,115.8 82.5,114.6 83.4,113.3 84.2,112.0 85.0,110.6 85.8,109.3 86.6,107.9 87.4,106.5 88.2,105.1 89.0,103.7 89.8,102.2 90.6,100.8 91.4,99.3 92.2,97.8 93.0,96.3 93.8,94.8 94.6,93.3 95.4,91.7 96.2,90.2 97.0,88.6 97.8,87.1 98.6,85.5 99.4,83.9 100.2,82.3 101.0,80.8 101.8,79.2 102.6,77.6 103.5,76.0 104.3,74.4 105.1,72.8 105.9,71.2 106.7,69.7 107.5,68.1 108.3,66.5 109.1,65.0 109.9,63.4 110.7,61.8 111.5,60.3 112.3,58.8 113.1,57.3 113.9,55.7 114.7,54.2 115.5,52.8 116.3,51.3 117.1,49.8 117.9,48.4 118.7,47.0 119.5,45.6 120.3,44.2 121.1,42.8 121.9,41.5 122.7,40.2 123.5,38.9 124.4,37.6 125.2,36.3 126.0,35.1 126.8,33.9 127.6,32.7 128.4,31.6 129.2,30.4 130.0,29.3 130.8,28.3 131.6,27.2 132.4,26.2 133.2,25.2 134.0,24.3 134.8,23.4 135.6,22.5 136.4,21.6 137.2,20.8 138.0,20.0 138.8,19.3 139.6,18.6 140.4,17.9 141.2,17.2 142.0,16.6 142.8,16.1 143.6,15.5 144.5,15.0 145.3,14.6 146.1,14.1 146.9,13.8 147.7,13.4 148.5,13.1 149.3,12.8 150.1,12.6 150.9,12.4 151.7,12.2 152.5,12.1 153.3,12.0 154.1,12.0 154.9,12.0 155.7,12.0 156.5,12.1 157.3,12.2 158.1,12.4 158.9,12.6 159.7,12.8 160.5,13.1 161.3,13.4 162.1,13.8 162.9,14.1 163.7,14.6 164.5,15.0 165.4,15.5 166.2,16.1 167.0,16.6 167.8,17.2 168.6,17.9 169.4,18.6 170.2,19.3 171.0,20.0 171.8,20.8 172.6,21.6 173.4,22.5 174.2,23.4 175.0,24.3 175.8,25.2 176.6,26.2 177.4,27.2 178.2,28.3 179.0,29.3 179.8,30.4 180.6,31.6 181.4,32.7 182.2,33.9 183.0,35.1 183.8,36.3 184.6,37.6 185.5,38.9 186.3,40.2 187.1,41.5 187.9,42.8 188.7,44.2 189.5,45.6 190.3,47.0 191.1,48.4 191.9,49.8 192.7,51.3 193.5,52.8 194.3,54.2 195.1,55.7 195.9,57.3 196.7,58.8 197.5,60.3 198.3,61.8 199.1,63.4 199.9,65.0 200.7,66.5 201.5,68.1 202.3,69.7 203.1,71.2 203.9,72.8 204.7,74.4 205.5,76.0 206.4,77.6 207.2,79.2 208.0,80.8 208.8,82.3 209.6,83.9 210.4,85.5 211.2,87.1 212.0,88.6 212.8,90.2 213.6,91.7 214.4,93.3 215.2,94.8 216.0,96.3 216.8,97.8 217.6,99.3 218.4,100.8 219.2,102.2 220.0,103.7 220.8,105.1 221.6,106.5 222.4,107.9 223.2,109.3 224.0,110.6 224.8,112.0 225.6,113.3 226.5,114.6 227.3,115.8 228.1,117.1 228.9,118.3 229.7,119.5 230.5,120.7 231.3,121.8 232.1,122.9 232.9,124.0 233.7,125.0 234.5,126.1 235.3,127.1 236.1,128.0 236.9,129.0 237.7,129.9 238.5,130.7 239.3,131.6 240.1,132.4 240.9,133.1 241.7,133.9 242.5,134.6 243.3,135.2 244.1,135.9 244.9,136.5 245.7,137.0 246.5,137.5 247.4,138.0 248.2,138.4 249.0,138.9 249.8,139.2 250.6,139.6 251.4,139.8 252.2,140.1 253.0,140.3 253.8,140.5 254.6,140.6 255.4,140.7 256.2,140.8 257.0,140.8 L257.0,152.0 Z" fill="#4a90d9" fill-opacity="0.06"/>
  <polyline points="52.0,140.8 52.8,140.8 53.6,140.7 54.4,140.6 55.2,140.5 56.0,140.3 56.8,140.1 57.6,139.8 58.4,139.6 59.2,139.2 60.0,138.9 60.8,138.4 61.6,138.0 62.5,137.5 63.3,137.0 64.1,136.5 64.9,135.9 65.7,135.2 66.5,134.6 67.3,133.9 68.1,133.1 68.9,132.4 69.7,131.6 70.5,130.7 71.3,129.9 72.1,129.0 72.9,128.0 73.7,127.1 74.5,126.1 75.3,125.0 76.1,124.0 76.9,122.9 77.7,121.8 78.5,120.7 79.3,119.5 80.1,118.3 80.9,117.1 81.7,115.8 82.5,114.6 83.4,113.3 84.2,112.0 85.0,110.6 85.8,109.3 86.6,107.9 87.4,106.5 88.2,105.1 89.0,103.7 89.8,102.2 90.6,100.8 91.4,99.3 92.2,97.8 93.0,96.3 93.8,94.8 94.6,93.3 95.4,91.7 96.2,90.2 97.0,88.6 97.8,87.1 98.6,85.5 99.4,83.9 100.2,82.3 101.0,80.8 101.8,79.2 102.6,77.6 103.5,76.0 104.3,74.4 105.1,72.8 105.9,71.2 106.7,69.7 107.5,68.1 108.3,66.5 109.1,65.0 109.9,63.4 110.7,61.8 111.5,60.3 112.3,58.8 113.1,57.3 113.9,55.7 114.7,54.2 115.5,52.8 116.3,51.3 117.1,49.8 117.9,48.4 118.7,47.0 119.5,45.6 120.3,44.2 121.1,42.8 121.9,41.5 122.7,40.2 123.5,38.9 124.4,37.6 125.2,36.3 126.0,35.1 126.8,33.9 127.6,32.7 128.4,31.6 129.2,30.4 130.0,29.3 130.8,28.3 131.6,27.2 132.4,26.2 133.2,25.2 134.0,24.3 134.8,23.4 135.6,22.5 136.4,21.6 137.2,20.8 138.0,20.0 138.8,19.3 139.6,18.6 140.4,17.9 141.2,17.2 142.0,16.6 142.8,16.1 143.6,15.5 144.5,15.0 145.3,14.6 146.1,14.1 146.9,13.8 147.7,13.4 148.5,13.1 149.3,12.8 150.1,12.6 150.9,12.4 151.7,12.2 152.5,12.1 153.3,12.0 154.1,12.0 154.9,12.0 155.7,12.0 156.5,12.1 157.3,12.2 158.1,12.4 158.9,12.6 159.7,12.8 160.5,13.1 161.3,13.4 162.1,13.8 162.9,14.1 163.7,14.6 164.5,15.0 165.4,15.5 166.2,16.1 167.0,16.6 167.8,17.2 168.6,17.9 169.4,18.6 170.2,19.3 171.0,20.0 171.8,20.8 172.6,21.6 173.4,22.5 174.2,23.4 175.0,24.3 175.8,25.2 176.6,26.2 177.4,27.2 178.2,28.3 179.0,29.3 179.8,30.4 180.6,31.6 181.4,32.7 182.2,33.9 183.0,35.1 183.8,36.3 184.6,37.6 185.5,38.9 186.3,40.2 187.1,41.5 187.9,42.8 188.7,44.2 189.5,45.6 190.3,47.0 191.1,48.4 191.9,49.8 192.7,51.3 193.5,52.8 194.3,54.2 195.1,55.7 195.9,57.3 196.7,58.8 197.5,60.3 198.3,61.8 199.1,63.4 199.9,65.0 200.7,66.5 201.5,68.1 202.3,69.7 203.1,71.2 203.9,72.8 204.7,74.4 205.5,76.0 206.4,77.6 207.2,79.2 208.0,80.8 208.8,82.3 209.6,83.9 210.4,85.5 211.2,87.1 212.0,88.6 212.8,90.2 213.6,91.7 214.4,93.3 215.2,94.8 216.0,96.3 216.8,97.8 217.6,99.3 218.4,100.8 219.2,102.2 220.0,103.7 220.8,105.1 221.6,106.5 222.4,107.9 223.2,109.3 224.0,110.6 224.8,112.0 225.6,113.3 226.5,114.6 227.3,115.8 228.1,117.1 228.9,118.3 229.7,119.5 230.5,120.7 231.3,121.8 232.1,122.9 232.9,124.0 233.7,125.0 234.5,126.1 235.3,127.1 236.1,128.0 236.9,129.0 237.7,129.9 238.5,130.7 239.3,131.6 240.1,132.4 240.9,133.1 241.7,133.9 242.5,134.6 243.3,135.2 244.1,135.9 244.9,136.5 245.7,137.0 246.5,137.5 247.4,138.0 248.2,138.4 249.0,138.9 249.8,139.2 250.6,139.6 251.4,139.8 252.2,140.1 253.0,140.3 253.8,140.5 254.6,140.6 255.4,140.7 256.2,140.8 257.0,140.8" fill="none" stroke="#4a90d9" stroke-width="1.2" stroke-linejoin="round"/>
  <line x1="322" y1="12.0" x2="527" y2="12.0" stroke="#e5e7eb" stroke-width="0.5"/>
  <text x="318" y="15.0" text-anchor="end" font-size="7.5" fill="#6b7280">0</text>
  <line x1="322" y1="58.7" x2="527" y2="58.7" stroke="#e5e7eb" stroke-width="0.5"/>
  <text x="318" y="61.7" text-anchor="end" font-size="7.5" fill="#6b7280">-40</text>
  <line x1="322" y1="105.3" x2="527" y2="105.3" stroke="#e5e7eb" stroke-width="0.5"/>
  <text x="318" y="108.3" text-anchor="end" font-size="7.5" fill="#6b7280">-80</text>
  <line x1="322" y1="152.0" x2="527" y2="152.0" stroke="#e5e7eb" stroke-width="0.5"/>
  <text x="318" y="155.0" text-anchor="end" font-size="7.5" fill="#6b7280">-120</text>
  <line x1="322.0" y1="12" x2="322.0" y2="152" stroke="#e5e7eb" stroke-width="0.5"/>
  <text x="322.0" y="164" text-anchor="middle" font-size="7.5" fill="#6b7280">0</text>
  <line x1="363.0" y1="12" x2="363.0" y2="152" stroke="#e5e7eb" stroke-width="0.5"/>
  <text x="363.0" y="164" text-anchor="middle" font-size="7.5" fill="#6b7280">0.1</text>
  <line x1="404.0" y1="12" x2="404.0" y2="152" stroke="#e5e7eb" stroke-width="0.5"/>
  <text x="404.0" y="164" text-anchor="middle" font-size="7.5" fill="#6b7280">0.2</text>
  <line x1="445.0" y1="12" x2="445.0" y2="152" stroke="#e5e7eb" stroke-width="0.5"/>
  <text x="445.0" y="164" text-anchor="middle" font-size="7.5" fill="#6b7280">0.3</text>
  <line x1="486.0" y1="12" x2="486.0" y2="152" stroke="#e5e7eb" stroke-width="0.5"/>
  <text x="486.0" y="164" text-anchor="middle" font-size="7.5" fill="#6b7280">0.4</text>
  <line x1="527.0" y1="12" x2="527.0" y2="152" stroke="#e5e7eb" stroke-width="0.5"/>
  <text x="527.0" y="164" text-anchor="middle" font-size="7.5" fill="#6b7280">0.5</text>
  <line x1="322" y1="12" x2="322" y2="152" stroke="#d1d5db" stroke-width="0.75"/>
  <line x1="322" y1="152" x2="527" y2="152" stroke="#d1d5db" stroke-width="0.75"/>
  <polyline points="322.0,12.0 322.1,12.0 322.2,12.1 322.3,12.3 322.4,12.5 322.5,12.8 322.6,13.1 322.7,13.6 322.8,14.0 322.9,14.6 323.0,15.2 323.1,15.9 323.2,16.7 323.3,17.5 323.4,18.5 323.5,19.5 323.6,20.6 323.7,21.8 323.8,23.1 323.9,24.6 324.0,26.1 324.1,27.8 324.2,29.6 324.3,31.7 324.4,33.9 324.5,36.3 324.6,39.0 324.7,42.1 324.8,45.7 324.9,50.0 325.0,55.3 325.1,63.1 325.2,80.8 325.3,72.7 325.4,66.4 325.5,64.4 325.6,64.2 325.7,65.2 325.8,67.2 325.9,70.3 326.0,75.1 326.1,83.3 326.2,114.5 326.3,85.6 326.4,81.5 326.5,81.0 326.6,83.7 326.7,93.5 326.8,90.8 326.9,79.2 327.0,73.5 327.1,69.8 327.2,67.2 327.3,65.4 327.4,64.1 327.5,63.3 327.6,62.9 327.7,63.0 327.8,63.5 327.9,64.5 328.0,66.1 328.1,68.6 328.2,72.6 328.3,80.3 328.4,97.1 328.5,77.0 328.6,70.9 328.7,67.3 328.8,65.0 328.9,63.5 329.0,62.5 329.1,61.9 329.2,61.8 329.3,62.0 329.4,62.7 329.5,63.9 329.6,65.6 329.7,68.2 329.8,72.2 329.9,79.6 330.0,101.9 330.1,77.7 330.2,71.4 330.3,67.8 330.4,65.5 330.5,64.0 330.6,63.0 330.7,62.5 330.8,62.4 330.9,62.7 331.0,63.4 331.1,64.6 331.2,66.3 331.3,68.9 331.4,72.9 331.5,80.2 331.6,105.7 331.7,78.8 331.8,72.4 331.9,68.8 332.0,66.5 332.1,65.0 332.2,64.0 332.3,63.5 332.4,63.4 332.5,63.7 332.6,64.4 332.7,65.6 332.8,67.3 332.9,69.9 333.0,73.8 333.1,81.0 333.2,108.9 333.3,80.0 333.4,73.5 333.5,69.9 333.6,67.6 333.7,66.0 333.8,65.1 333.9,64.5 334.0,64.4 334.1,64.7 334.2,65.4 334.3,66.6 334.4,68.3 334.5,70.9 334.6,74.8 334.7,82.0 334.8,111.7 334.9,81.1 335.0,74.6 335.1,70.9 335.2,68.6 335.3,67.1 335.4,66.1 335.5,65.6 335.6,65.4 335.7,65.7 335.8,66.4 335.9,67.6 336.0,69.3 336.1,71.8 336.2,75.7 336.3,82.9 336.4,114.1 336.5,82.1 336.6,75.6 336.7,71.9 336.8,69.6 336.9,68.0 337.0,67.0 337.1,66.5 337.2,66.4 337.3,66.7 337.4,67.3 337.5,68.5 337.6,70.2 337.7,72.7 337.8,76.6 337.9,83.7 338.0,116.3 338.1,83.1 338.2,76.5 338.3,72.8 338.4,70.5 338.5,68.9 338.6,67.9 338.7,67.4 338.8,67.3 338.9,67.5 339.0,68.2 339.1,69.3 339.2,71.1 339.3,73.6 339.4,77.5 339.5,84.5 339.6,118.2 339.7,84.0 339.8,77.4 339.9,73.7 340.0,71.3 340.1,69.8 340.2,68.8 340.3,68.2 340.4,68.1 340.5,68.3 340.6,69.0 340.7,70.1 340.8,71.9 340.9,74.4 341.0,78.3 341.1,85.3 341.2,120.0 341.3,84.8 341.4,78.2 341.5,74.5 341.6,72.1 341.7,70.5 341.8,69.5 341.9,69.0 342.0,68.9 342.1,69.1 342.2,69.8 342.3,70.9 342.4,72.6 342.5,75.1 342.6,79.0 342.7,86.0 342.8,121.7 342.9,85.5 343.0,78.9 343.1,75.2 343.2,72.8 343.3,71.3 343.4,70.3 343.5,69.7 343.6,69.6 343.7,69.8 343.8,70.5 343.9,71.6 344.0,73.3 344.1,75.8 344.2,79.7 344.3,86.7 344.4,123.2 344.5,86.3 344.6,79.6 344.7,75.9 344.8,73.5 344.9,72.0 345.0,70.9 345.1,70.4 345.2,70.2 345.3,70.5 345.4,71.1 345.5,72.3 345.6,74.0 345.7,76.5 345.8,80.3 345.9,87.3 346.0,124.6 346.1,86.9 346.2,80.3 346.3,76.6 346.4,74.2 346.5,72.6 346.6,71.6 346.7,71.0 346.8,70.9 346.9,71.1 347.0,71.8 347.1,72.9 347.2,74.6 347.3,77.1 347.4,80.9 347.5,87.9 347.6,125.9 347.7,87.5 347.8,80.9 347.9,77.2 348.0,74.8 348.1,73.2 348.2,72.2 348.3,71.6 348.4,71.5 348.5,71.7 348.6,72.4 348.7,73.5 348.8,75.2 348.9,77.7 349.0,81.5 349.1,88.5 349.2,127.2 349.3,88.1 349.4,81.5 349.5,77.8 349.6,75.4 349.7,73.8 349.8,72.7 349.9,72.2 350.0,72.0 350.1,72.3 350.2,72.9 350.3,74.0 350.4,75.7 350.5,78.2 350.6,82.1 350.7,89.0 350.8,128.3 350.9,88.7 351.0,82.0 351.1,78.3 351.2,75.9 351.3,74.3 351.4,73.3 351.5,72.7 351.6,72.6 351.7,72.8 351.8,73.4 351.9,74.6 352.0,76.2 352.1,78.7 352.2,82.6 352.3,89.5 352.4,129.4 352.5,89.2 352.6,82.5 352.7,78.8 352.8,76.4 352.9,74.8 353.0,73.8 353.1,73.2 353.2,73.1 353.3,73.3 353.4,73.9 353.5,75.1 353.6,76.7 353.7,79.2 353.8,83.1 353.9,90.0 354.0,130.5 354.1,89.7 354.2,83.0 354.3,79.3 354.4,76.9 354.5,75.3 354.6,74.3 354.7,73.7 354.8,73.6 354.9,73.8 355.0,74.4 355.1,75.5 355.2,77.2 355.3,79.7 355.4,83.5 355.5,90.5 355.6,131.5 355.7,90.2 355.8,83.5 355.9,79.8 356.0,77.4 356.1,75.8 356.3,74.7 356.4,74.2 356.5,74.0 356.6,74.2 356.7,74.9 356.8,76.0 356.9,77.7 357.0,80.2 357.1,84.0 357.2,90.9 357.3,132.5 357.4,90.7 357.5,83.9 357.6,80.2 357.7,77.8 357.8,76.2 357.9,75.2 358.0,74.6 358.1,74.4 358.2,74.7 358.3,75.3 358.4,76.4 358.5,78.1 358.6,80.6 358.7,84.4 358.8,91.4 358.9,133.4 359.0,91.1 359.1,84.4 359.2,80.7 359.3,78.2 359.4,76.6 359.5,75.6 359.6,75.0 359.7,74.9 359.8,75.1 359.9,75.7 360.0,76.8 360.1,78.5 360.2,81.0 360.3,84.8 360.4,91.8 360.5,134.2 360.6,91.5 360.7,84.8 360.8,81.1 360.9,78.7 361.0,77.0 361.1,76.0 361.2,75.4 361.3,75.3 361.4,75.5 361.5,76.1 361.6,77.2 361.7,78.9 361.8,81.4 361.9,85.2 362.0,92.1 362.1,135.1 362.2,91.9 362.3,85.2 362.4,81.5 362.5,79.0 362.6,77.4 362.7,76.4 362.8,75.8 362.9,75.7 363.0,75.9 363.1,76.5 363.2,77.6 363.3,79.3 363.4,81.8 363.5,85.6 363.6,92.5 363.7,135.9 363.8,92.3 363.9,85.6 364.0,81.8 364.1,79.4 364.2,77.8 364.3,76.8 364.4,76.2 364.5,76.0 364.6,76.2 364.7,76.9 364.8,78.0 364.9,79.7 365.0,82.1 365.1,86.0 365.2,92.9 365.3,136.7 365.4,92.7 365.5,85.9 365.6,82.2 365.7,79.8 365.8,78.2 365.9,77.1 366.0,76.6 366.1,76.4 366.2,76.6 366.3,77.2 366.4,78.3 366.5,80.0 366.6,82.5 366.7,86.3 366.8,93.2 366.9,137.4 367.0,93.0 367.1,86.3 367.2,82.5 367.3,80.1 367.4,78.5 367.5,77.5 367.6,76.9 367.7,76.7 367.8,76.9 367.9,77.6 368.0,78.7 368.1,80.3 368.2,82.8 368.3,86.6 368.4,93.6 368.5,138.2 368.6,93.4 368.7,86.6 368.8,82.9 368.9,80.5 369.0,78.8 369.1,77.8 369.2,77.2 369.3,77.1 369.4,77.3 369.5,77.9 369.6,79.0 369.7,80.7 369.8,83.1 369.9,87.0 370.0,93.9 370.1,138.9 370.2,93.7 370.3,86.9 370.4,83.2 370.5,80.8 370.6,79.2 370.7,78.1 370.8,77.5 370.9,77.4 371.0,77.6 371.1,78.2 371.2,79.3 371.3,81.0 371.4,83.5 371.5,87.3 371.6,94.2 371.7,139.6 371.8,94.0 371.9,87.2 372.0,83.5 372.1,81.1 372.2,79.5 372.3,78.4 372.4,77.9 372.5,77.7 372.6,77.9 372.7,78.5 372.8,79.6 372.9,81.3 373.0,83.8 373.1,87.6 373.2,94.5 373.3,140.2 373.4,94.3 373.5,87.5 373.6,83.8 373.7,81.4 373.8,79.8 373.9,78.7 374.0,78.1 374.1,78.0 374.2,78.2 374.3,78.8 374.4,79.9 374.5,81.6 374.6,84.1 374.7,87.9 374.8,94.8 374.9,140.9 375.0,94.6 375.1,87.8 375.2,84.1 375.3,81.7 375.4,80.1 375.5,79.0 375.6,78.4 375.7,78.3 375.8,78.5 375.9,79.1 376.0,80.2 376.1,81.9 376.2,84.3 376.3,88.1 376.4,95.0 376.5,141.5 376.6,94.9 376.7,88.1 376.8,84.4 376.9,82.0 377.0,80.3 377.1,79.3 377.2,78.7 377.3,78.5 377.4,78.8 377.5,79.4 377.6,80.5 377.7,82.1 377.8,84.6 377.9,88.4 378.0,95.3 378.1,142.1 378.2,95.2 378.3,88.4 378.4,84.7 378.5,82.2 378.6,80.6 378.7,79.6 378.8,79.0 378.9,78.8 379.0,79.0 379.1,79.7 379.2,80.7 379.3,82.4 379.4,84.9 379.5,88.7 379.6,95.6 379.7,142.7 379.8,95.4 379.9,88.7 380.0,84.9 380.1,82.5 380.2,80.9 380.3,79.8 380.4,79.2 380.5,79.1 380.6,79.3 380.7,79.9 380.8,81.0 380.9,82.7 381.0,85.1 381.1,88.9 381.2,95.8 381.3,143.3 381.4,95.7 381.5,88.9 381.6,85.2 381.7,82.8 381.8,81.1 381.9,80.1 382.0,79.5 382.1,79.3 382.2,79.5 382.3,80.2 382.4,81.2 382.5,82.9 382.6,85.4 382.7,89.2 382.8,96.1 382.9,143.8 383.0,95.9 383.1,89.2 383.2,85.4 383.3,83.0 383.4,81.4 383.5,80.3 383.6,79.7 383.7,79.6 383.8,79.8 383.9,80.4 384.0,81.5 384.1,83.2 384.2,85.6 384.3,89.4 384.4,96.3 384.5,144.4 384.6,96.2 384.7,89.4 384.8,85.7 384.9,83.2 385.0,81.6 385.1,80.6 385.2,80.0 385.3,79.8 385.4,80.0 385.5,80.6 385.6,81.7 385.7,83.4 385.8,85.9 385.9,89.7 386.0,96.5 386.1,144.9 386.2,96.4 386.3,89.6 386.4,85.9 386.5,83.5 386.6,81.9 386.7,80.8 386.8,80.2 386.9,80.0 387.0,80.2 387.1,80.9 387.2,82.0 387.3,83.6 387.4,86.1 387.5,89.9 387.6,96.8 387.7,145.4 387.8,96.6 387.9,89.9 388.0,86.1 388.1,83.7 388.2,82.1 388.3,81.0 388.4,80.4 388.5,80.3 388.6,80.5 388.7,81.1 388.8,82.2 388.9,83.8 389.0,86.3 389.1,90.1 389.2,97.0 389.3,146.0 389.4,96.9 389.5,90.1 389.6,86.3 389.7,83.9 389.8,82.3 389.9,81.2 390.0,80.7 390.1,80.5 390.2,80.7 390.3,81.3 390.4,82.4 390.5,84.1 390.6,86.5 390.7,90.3 390.8,97.2 390.9,146.5 391.0,97.1 391.1,90.3 391.2,86.6 391.3,84.1 391.4,82.5 391.5,81.5 391.6,80.9 391.7,80.7 391.8,80.9 391.9,81.5 392.0,82.6 392.1,84.3 392.2,86.7 392.3,90.5 392.4,97.4 392.5,147.0 392.6,97.3 392.7,90.5 392.8,86.8 392.9,84.3 393.0,82.7 393.1,81.7 393.2,81.1 393.3,80.9 393.4,81.1 393.5,81.7 393.6,82.8 393.7,84.5 393.8,86.9 393.9,90.7 394.0,97.6 394.1,147.4 394.2,97.5 394.3,90.7 394.4,87.0 394.5,84.5 394.6,82.9 394.7,81.9 394.8,81.3 394.9,81.1 395.0,81.3 395.1,81.9 395.2,83.0 395.3,84.7 395.4,87.1 395.5,90.9 395.6,97.8 395.7,147.9 395.8,97.7 395.9,90.9 396.0,87.2 396.1,84.7 396.2,83.1 396.3,82.1 396.4,81.5 396.5,81.3 396.6,81.5 396.7,82.1 396.8,83.2 396.9,84.9 397.0,87.3 397.1,91.1 397.2,98.0 397.3,148.4 397.4,97.9 397.5,91.1 397.6,87.4 397.7,84.9 397.8,83.3 397.9,82.3 398.0,81.7 398.1,81.5 398.2,81.7 398.3,82.3 398.4,83.4 398.5,85.1 398.6,87.5 398.7,91.3 398.8,98.2 398.9,148.8 399.0,98.1 399.1,91.3 399.2,87.5 399.3,85.1 399.4,83.5 399.5,82.4 399.6,81.8 399.7,81.7 399.8,81.9 399.9,82.5 400.0,83.6 400.1,85.2 400.2,87.7 400.3,91.5 400.4,98.4 400.5,149.3 400.6,98.3 400.7,91.5 400.8,87.7 400.9,85.3 401.0,83.7 401.1,82.6 401.2,82.0 401.3,81.8 401.4,82.1 401.5,82.7 401.6,83.8 401.7,85.4 401.8,87.9 401.9,91.7 402.0,98.5 402.1,149.7 402.2,98.4 402.3,91.7 402.4,87.9 402.5,85.5 402.6,83.8 402.7,82.8 402.8,82.2 402.9,82.0 403.0,82.2 403.1,82.8 403.2,83.9 403.3,85.6 403.4,88.0 403.5,91.8 403.6,98.7 403.7,150.2 403.8,98.6 403.9,91.8 404.0,88.1 404.1,85.6 404.2,84.0 404.3,83.0 404.4,82.4 404.5,82.2 404.6,82.4 404.7,83.0 404.8,84.1 404.9,85.8 405.0,88.2 405.1,92.0 405.2,98.9 405.3,150.6 405.4,98.8 405.5,92.0 405.6,88.2 405.7,85.8 405.8,84.2 405.9,83.1 406.0,82.5 406.1,82.4 406.2,82.6 406.3,83.2 406.4,84.3 406.5,85.9 406.6,88.4 406.7,92.2 406.8,99.1 406.9,151.0 407.0,99.0 407.1,92.2 407.2,88.4 407.3,86.0 407.4,84.4 407.5,83.3 407.6,82.7 407.7,82.5 407.8,82.7 407.9,83.3 408.0,84.4 408.1,86.1 408.2,88.5 408.3,92.3 408.4,99.2 408.5,151.4 408.6,99.1 408.7,92.3 408.8,88.6 408.9,86.1 409.0,84.5 409.1,83.5 409.2,82.9 409.3,82.7 409.4,82.9 409.5,83.5 409.6,84.6 409.7,86.2 409.8,88.7 409.9,92.5 410.0,99.4 410.1,151.9 410.2,99.3 410.3,92.5 410.4,88.7 410.5,86.3 410.6,84.7 410.7,83.6 410.8,83.0 410.9,82.8 411.0,83.0 411.1,83.7 411.2,84.7 411.3,86.4 411.4,88.9 411.5,92.7 411.6,99.5 411.7,152.0 411.8,99.4 411.9,92.6 412.0,88.9 412.1,86.4 412.2,84.8 412.3,83.8 412.4,83.2 412.5,83.0 412.6,83.2 412.7,83.8 412.8,84.9 412.9,86.5 413.0,89.0 413.1,92.8 413.2,99.7 413.3,152.0 413.4,99.6 413.5,92.8 413.6,89.0 413.7,86.6 413.8,85.0 413.9,83.9 414.0,83.3 414.1,83.1 414.2,83.3 414.3,84.0 414.4,85.0 414.5,86.7 414.6,89.1 414.7,92.9 414.8,99.8 414.9,152.0 415.0,99.7 415.1,92.9 415.2,89.2 415.3,86.7 415.4,85.1 415.5,84.1 415.6,83.5 415.7,83.3 415.8,83.5 415.9,84.1 416.0,85.2 416.1,86.8 416.2,89.3 416.3,93.1 416.4,99.9 416.5,152.0 416.6,99.9 416.7,93.1 416.8,89.3 416.9,86.9 417.0,85.3 417.1,84.2 417.2,83.6 417.3,83.4 417.4,83.6 417.5,84.2 417.6,85.3 417.7,87.0 417.8,89.4 417.9,93.2 418.0,100.1 418.1,152.0 418.2,100.0 418.3,93.2 418.4,89.5 418.5,87.0 418.6,85.4 418.7,84.3 418.8,83.7 418.9,83.6 419.0,83.8 419.1,84.4 419.2,85.5 419.3,87.1 419.4,89.6 419.5,93.4 419.6,100.2 419.7,152.0 419.8,100.1 419.9,93.3 420.0,89.6 420.1,87.2 420.2,85.5 420.3,84.5 420.4,83.9 420.5,83.7 420.6,83.9 420.7,84.5 420.8,85.6 420.9,87.2 421.0,89.7 421.1,93.5 421.2,100.4 421.3,152.0 421.4,100.3 421.5,93.5 421.6,89.7 421.7,87.3 421.8,85.7 421.9,84.6 422.0,84.0 422.1,83.8 422.2,84.0 422.3,84.6 422.4,85.7 422.5,87.4 422.6,89.8 422.7,93.6 422.8,100.5 422.9,152.0 423.0,100.4 423.1,93.6 423.2,89.8 423.3,87.4 423.4,85.8 423.5,84.7 423.6,84.1 423.7,83.9 423.8,84.1 423.9,84.8 424.0,85.8 424.1,87.5 424.2,90.0 424.3,93.7 424.4,100.6 424.6,152.0 424.7,100.5 424.8,93.7 424.9,90.0 425.0,87.5 425.1,85.9 425.2,84.9 425.3,84.3 425.4,84.1 425.5,84.3 425.6,84.9 425.7,86.0 425.8,87.6 425.9,90.1 426.0,93.9 426.1,100.7 426.2,152.0 426.3,100.7 426.4,93.9 426.5,90.1 426.6,87.7 426.7,86.0 426.8,85.0 426.9,84.4 427.0,84.2 427.1,84.4 427.2,85.0 427.3,86.1 427.4,87.7 427.5,90.2 427.6,94.0 427.7,100.8 427.8,152.0 427.9,100.8 428.0,94.0 428.1,90.2 428.2,87.8 428.3,86.1 428.4,85.1 428.5,84.5 428.6,84.3 428.7,84.5 428.8,85.1 428.9,86.2 429.0,87.9 429.1,90.3 429.2,94.1 429.3,101.0 429.4,152.0 429.5,100.9 429.6,94.1 429.7,90.3 429.8,87.9 429.9,86.3 430.0,85.2 430.1,84.6 430.2,84.4 430.3,84.6 430.4,85.2 430.5,86.3 430.6,88.0 430.7,90.4 430.8,94.2 430.9,101.1 431.0,152.0 431.1,101.0 431.2,94.2 431.3,90.4 431.4,88.0 431.5,86.4 431.6,85.3 431.7,84.7 431.8,84.5 431.9,84.7 432.0,85.4 432.1,86.4 432.2,88.1 432.3,90.5 432.4,94.3 432.5,101.2 432.6,152.0 432.7,101.1 432.8,94.3 432.9,90.6 433.0,88.1 433.1,86.5 433.2,85.4 433.3,84.8 433.4,84.6 433.5,84.8 433.6,85.5 433.7,86.5 433.8,88.2 433.9,90.6 434.0,94.4 434.1,101.3 434.2,152.0 434.3,101.2 434.4,94.4 434.5,90.7 434.6,88.2 434.7,86.6 434.8,85.5 434.9,84.9 435.0,84.8 435.1,85.0 435.2,85.6 435.3,86.6 435.4,88.3 435.5,90.8 435.6,94.5 435.7,101.4 435.8,152.0 435.9,101.3 436.0,94.5 436.1,90.8 436.2,88.3 436.3,86.7 436.4,85.6 436.5,85.0 436.6,84.9 436.7,85.1 436.8,85.7 436.9,86.7 437.0,88.4 437.1,90.9 437.2,94.6 437.3,101.5 437.4,152.0 437.5,101.4 437.6,94.6 437.7,90.9 437.8,88.4 437.9,86.8 438.0,85.7 438.1,85.1 438.2,85.0 438.3,85.2 438.4,85.8 438.5,86.9 438.6,88.5 438.7,91.0 438.8,94.7 438.9,101.6 439.0,152.0 439.1,101.5 439.2,94.7 439.3,91.0 439.4,88.5 439.5,86.9 439.6,85.8 439.7,85.2 439.8,85.1 439.9,85.3 440.0,85.9 440.1,86.9 440.2,88.6 440.3,91.1 440.4,94.8 440.5,101.7 440.6,152.0 440.7,101.6 440.8,94.8 440.9,91.1 441.0,88.6 441.1,87.0 441.2,85.9 441.3,85.3 441.4,85.2 441.5,85.4 441.6,86.0 441.7,87.0 441.8,88.7 441.9,91.1 442.0,94.9 442.1,101.8 442.2,152.0 442.3,101.7 442.4,94.9 442.5,91.2 442.6,88.7 442.7,87.1 442.8,86.0 442.9,85.4 443.0,85.2 443.1,85.5 443.2,86.1 443.3,87.1 443.4,88.8 443.5,91.2 443.6,95.0 443.7,101.9 443.8,152.0 443.9,101.8 444.0,95.0 444.1,91.3 444.2,88.8 444.3,87.2 444.4,86.1 444.5,85.5 444.6,85.3 444.7,85.5 444.8,86.2 444.9,87.2 445.0,88.9 445.1,91.3 445.2,95.1 445.3,102.0 445.4,152.0 445.5,101.9 445.6,95.1 445.7,91.3 445.8,88.9 445.9,87.3 446.0,86.2 446.1,85.6 446.2,85.4 446.3,85.6 446.4,86.2 446.5,87.3 446.6,89.0 446.7,91.4 446.8,95.2 446.9,102.1 447.0,152.0 447.1,102.0 447.2,95.2 447.3,91.4 447.4,89.0 447.5,87.4 447.6,86.3 447.7,85.7 447.8,85.5 447.9,85.7 448.0,86.3 448.1,87.4 448.2,89.1 448.3,91.5 448.4,95.3 448.5,102.1 448.6,152.0 448.7,102.1 448.8,95.3 448.9,91.5 449.0,89.1 449.1,87.5 449.2,86.4 449.3,85.8 449.4,85.6 449.5,85.8 449.6,86.4 449.7,87.5 449.8,89.1 449.9,91.6 450.0,95.4 450.1,102.2 450.2,152.0 450.3,102.2 450.4,95.4 450.5,91.6 450.6,89.2 450.7,87.5 450.8,86.5 450.9,85.9 451.0,85.7 451.1,85.9 451.2,86.5 451.3,87.6 451.4,89.2 451.5,91.7 451.6,95.5 451.7,102.3 451.8,152.0 451.9,102.3 452.0,95.5 452.1,91.7 452.2,89.3 452.3,87.6 452.4,86.6 452.5,86.0 452.6,85.8 452.7,86.0 452.8,86.6 452.9,87.7 453.0,89.3 453.1,91.8 453.2,95.5 453.3,102.4 453.4,152.0 453.5,102.3 453.6,95.5 453.7,91.8 453.8,89.3 453.9,87.7 454.0,86.6 454.1,86.0 454.2,85.8 454.3,86.0 454.4,86.7 454.5,87.7 454.6,89.4 454.7,91.8 454.8,95.6 454.9,102.5 455.0,152.0 455.1,102.4 455.2,95.6 455.3,91.8 455.4,89.4 455.5,87.8 455.6,86.7 455.7,86.1 455.8,85.9 455.9,86.1 456.0,86.7 456.1,87.8 456.2,89.5 456.3,91.9 456.4,95.7 456.5,102.5 456.6,152.0 456.7,102.5 456.8,95.7 456.9,91.9 457.0,89.5 457.1,87.8 457.2,86.8 457.3,86.2 457.4,86.0 457.5,86.2 457.6,86.8 457.7,87.9 457.8,89.5 457.9,92.0 458.0,95.8 458.1,102.6 458.2,152.0 458.3,102.6 458.4,95.8 458.5,92.0 458.6,89.6 458.7,87.9 458.8,86.9 458.9,86.3 459.0,86.1 459.1,86.3 459.2,86.9 459.3,88.0 459.4,89.6 459.5,92.1 459.6,95.8 459.7,102.7 459.8,152.0 459.9,102.6 460.0,95.8 460.1,92.1 460.2,89.6 460.3,88.0 460.4,86.9 460.5,86.3 460.6,86.1 460.7,86.3 460.8,86.9 460.9,88.0 461.0,89.7 461.1,92.1 461.2,95.9 461.3,102.8 461.4,152.0 461.5,102.7 461.6,95.9 461.7,92.1 461.8,89.7 461.9,88.1 462.0,87.0 462.1,86.4 462.2,86.2 462.3,86.4 462.4,87.0 462.5,88.1 462.6,89.7 462.7,92.2 462.8,96.0 462.9,102.8 463.0,152.0 463.1,102.8 463.2,96.0 463.3,92.2 463.4,89.8 463.5,88.1 463.6,87.1 463.7,86.5 463.8,86.3 463.9,86.5 464.0,87.1 464.1,88.2 464.2,89.8 464.3,92.3 464.4,96.0 464.5,102.9 464.6,152.0 464.7,102.8 464.8,96.0 464.9,92.3 465.0,89.8 465.1,88.2 465.2,87.1 465.3,86.5 465.4,86.3 465.5,86.5 465.6,87.1 465.7,88.2 465.8,89.9 465.9,92.3 466.0,96.1 466.1,102.9 466.2,152.0 466.3,102.9 466.4,96.1 466.5,92.3 466.6,89.9 466.7,88.3 466.8,87.2 466.9,86.6 467.0,86.4 467.1,86.6 467.2,87.2 467.3,88.3 467.4,89.9 467.5,92.4 467.6,96.2 467.7,103.0 467.8,152.0 467.9,103.0 468.0,96.2 468.1,92.4 468.2,90.0 468.3,88.3 468.4,87.3 468.5,86.7 468.6,86.5 468.7,86.7 468.8,87.3 468.9,88.3 469.0,90.0 469.1,92.4 469.2,96.2 469.3,103.1 469.4,152.0 469.5,103.0 469.6,96.2 469.7,92.4 469.8,90.0 469.9,88.4 470.0,87.3 470.1,86.7 470.2,86.5 470.3,86.7 470.4,87.3 470.5,88.4 470.6,90.0 470.7,92.5 470.8,96.3 470.9,103.1 471.0,152.0 471.1,103.1 471.2,96.3 471.3,92.5 471.4,90.1 471.5,88.4 471.6,87.4 471.7,86.8 471.8,86.6 471.9,86.8 472.0,87.4 472.1,88.5 472.2,90.1 472.3,92.6 472.4,96.3 472.5,103.2 472.6,152.0 472.7,103.1 472.8,96.3 472.9,92.6 473.0,90.1 473.1,88.5 473.2,87.4 473.3,86.8 473.4,86.6 473.5,86.8 473.6,87.4 473.7,88.5 473.8,90.2 473.9,92.6 474.0,96.4 474.1,103.2 474.2,152.0 474.3,103.2 474.4,96.4 474.5,92.6 474.6,90.2 474.7,88.5 474.8,87.5 474.9,86.9 475.0,86.7 475.1,86.9 475.2,87.5 475.3,88.6 475.4,90.2 475.5,92.7 475.6,96.4 475.7,103.3 475.8,152.0 475.9,103.3 476.0,96.4 476.1,92.7 476.2,90.2 476.3,88.6 476.4,87.5 476.5,86.9 476.6,86.7 476.7,86.9 476.8,87.5 476.9,88.6 477.0,90.3 477.1,92.7 477.2,96.5 477.3,103.3 477.4,152.0 477.5,103.3 477.6,96.5 477.7,92.7 477.8,90.3 477.9,88.6 478.0,87.6 478.1,87.0 478.2,86.8 478.3,87.0 478.4,87.6 478.5,88.7 478.6,90.3 478.7,92.8 478.8,96.5 478.9,103.4 479.0,152.0 479.1,103.4 479.2,96.5 479.3,92.8 479.4,90.3 479.5,88.7 479.6,87.6 479.7,87.0 479.8,86.8 479.9,87.0 480.0,87.6 480.1,88.7 480.2,90.4 480.3,92.8 480.4,96.6 480.5,103.4 480.6,152.0 480.7,103.4 480.8,96.6 480.9,92.8 481.0,90.4 481.1,88.7 481.2,87.7 481.3,87.1 481.4,86.9 481.5,87.1 481.6,87.7 481.7,88.8 481.8,90.4 481.9,92.9 482.0,96.6 482.1,103.5 482.2,152.0 482.3,103.4 482.4,96.6 482.5,92.9 482.6,90.4 482.7,88.8 482.8,87.7 482.9,87.1 483.0,86.9 483.1,87.1 483.2,87.7 483.3,88.8 483.4,90.4 483.5,92.9 483.6,96.7 483.7,103.5 483.8,152.0 483.9,103.5 484.0,96.7 484.1,92.9 484.2,90.5 484.3,88.8 484.4,87.8 484.5,87.2 484.6,87.0 484.7,87.2 484.8,87.8 484.9,88.8 485.0,90.5 485.1,92.9 485.2,96.7 485.3,103.6 485.4,152.0 485.5,103.5 485.6,96.7 485.7,92.9 485.8,90.5 485.9,88.9 486.0,87.8 486.1,87.2 486.2,87.0 486.3,87.2 486.4,87.8 486.5,88.9 486.6,90.5 486.7,93.0 486.8,96.8 486.9,103.6 487.0,152.0 487.1,103.6 487.2,96.8 487.3,93.0 487.4,90.5 487.5,88.9 487.6,87.8 487.7,87.2 487.8,87.0 487.9,87.2 488.0,87.9 488.1,88.9 488.2,90.6 488.3,93.0 488.4,96.8 488.5,103.6 488.6,152.0 488.7,103.6 488.8,96.8 488.9,93.0 489.0,90.6 489.1,88.9 489.2,87.9 489.3,87.3 489.4,87.1 489.5,87.3 489.6,87.9 489.7,89.0 489.8,90.6 489.9,93.1 490.0,96.8 490.1,103.7 490.2,152.0 490.3,103.7 490.4,96.8 490.5,93.1 490.6,90.6 490.7,89.0 490.8,87.9 490.9,87.3 491.0,87.1 491.1,87.3 491.2,87.9 491.3,89.0 491.4,90.6 491.5,93.1 491.6,96.9 491.7,103.7 491.8,152.0 491.9,103.7 492.0,96.9 492.1,93.1 492.2,90.7 492.3,89.0 492.4,87.9 492.5,87.3 492.6,87.2 492.7,87.4 492.9,88.0 493.0,89.0 493.1,90.7 493.2,93.1 493.3,96.9 493.4,103.7 493.5,152.0 493.6,103.7 493.7,96.9 493.8,93.1 493.9,90.7 494.0,89.0 494.1,88.0 494.2,87.4 494.3,87.2 494.4,87.4 494.5,88.0 494.6,89.1 494.7,90.7 494.8,93.2 494.9,96.9 495.0,103.8 495.1,152.0 495.2,103.8 495.3,96.9 495.4,93.2 495.5,90.7 495.6,89.1 495.7,88.0 495.8,87.4 495.9,87.2 496.0,87.4 496.1,88.0 496.2,89.1 496.3,90.7 496.4,93.2 496.5,97.0 496.6,103.8 496.7,152.0 496.8,103.8 496.9,97.0 497.0,93.2 497.1,90.7 497.2,89.1 497.3,88.0 497.4,87.4 497.5,87.2 497.6,87.4 497.7,88.1 497.8,89.1 497.9,90.8 498.0,93.2 498.1,97.0 498.2,103.8 498.3,152.0 498.4,103.8 498.5,97.0 498.6,93.2 498.7,90.8 498.8,89.1 498.9,88.1 499.0,87.5 499.1,87.3 499.2,87.5 499.3,88.1 499.4,89.2 499.5,90.8 499.6,93.2 499.7,97.0 499.8,103.9 499.9,152.0 500.0,103.8 500.1,97.0 500.2,93.2 500.3,90.8 500.4,89.2 500.5,88.1 500.6,87.5 500.7,87.3 500.8,87.5 500.9,88.1 501.0,89.2 501.1,90.8 501.2,93.3 501.3,97.0 501.4,103.9 501.5,152.0 501.6,103.9 501.7,97.0 501.8,93.3 501.9,90.8 502.0,89.2 502.1,88.1 502.2,87.5 502.3,87.3 502.4,87.5 502.5,88.1 502.6,89.2 502.7,90.8 502.8,93.3 502.9,97.1 503.0,103.9 503.1,152.0 503.2,103.9 503.3,97.1 503.4,93.3 503.5,90.9 503.6,89.2 503.7,88.1 503.8,87.5 503.9,87.3 504.0,87.5 504.1,88.2 504.2,89.2 504.3,90.9 504.4,93.3 504.5,97.1 504.6,103.9 504.7,152.0 504.8,103.9 504.9,97.1 505.0,93.3 505.1,90.9 505.2,89.2 505.3,88.2 505.4,87.6 505.5,87.4 505.6,87.6 505.7,88.2 505.8,89.2 505.9,90.9 506.0,93.3 506.1,97.1 506.2,103.9 506.3,152.0 506.4,103.9 506.5,97.1 506.6,93.3 506.7,90.9 506.8,89.3 506.9,88.2 507.0,87.6 507.1,87.4 507.2,87.6 507.3,88.2 507.4,89.3 507.5,90.9 507.6,93.4 507.7,97.1 507.8,104.0 507.9,152.0 508.0,104.0 508.1,97.1 508.2,93.4 508.3,90.9 508.4,89.3 508.5,88.2 508.6,87.6 508.7,87.4 508.8,87.6 508.9,88.2 509.0,89.3 509.1,90.9 509.2,93.4 509.3,97.2 509.4,104.0 509.5,152.0 509.6,104.0 509.7,97.1 509.8,93.4 509.9,90.9 510.0,89.3 510.1,88.2 510.2,87.6 510.3,87.4 510.4,87.6 510.5,88.2 510.6,89.3 510.7,90.9 510.8,93.4 510.9,97.2 511.0,104.0 511.1,152.0 511.2,104.0 511.3,97.2 511.4,93.4 511.5,90.9 511.6,89.3 511.7,88.2 511.8,87.6 511.9,87.4 512.0,87.6 512.1,88.2 512.2,89.3 512.3,91.0 512.4,93.4 512.5,97.2 512.6,104.0 512.7,152.0 512.8,104.0 512.9,97.2 513.0,93.4 513.1,91.0 513.2,89.3 513.3,88.3 513.4,87.6 513.5,87.5 513.6,87.7 513.7,88.3 513.8,89.3 513.9,91.0 514.0,93.4 514.1,97.2 514.2,104.0 514.3,152.0 514.4,104.0 514.5,97.2 514.6,93.4 514.7,91.0 514.8,89.3 514.9,88.3 515.0,87.7 515.1,87.5 515.2,87.7 515.3,88.3 515.4,89.3 515.5,91.0 515.6,93.4 515.7,97.2 515.8,104.0 515.9,152.0 516.0,104.0 516.1,97.2 516.2,93.4 516.3,91.0 516.4,89.3 516.5,88.3 516.6,87.7 516.7,87.5 516.8,87.7 516.9,88.3 517.0,89.3 517.1,91.0 517.2,93.4 517.3,97.2 517.4,104.0 517.5,152.0 517.6,104.0 517.7,97.2 517.8,93.4 517.9,91.0 518.0,89.4 518.1,88.3 518.2,87.7 518.3,87.5 518.4,87.7 518.5,88.3 518.6,89.4 518.7,91.0 518.8,93.4 518.9,97.2 519.0,104.1 519.1,152.0 519.2,104.0 519.3,97.2 519.4,93.4 519.5,91.0 519.6,89.4 519.7,88.3 519.8,87.7 519.9,87.5 520.0,87.7 520.1,88.3 520.2,89.4 520.3,91.0 520.4,93.5 520.5,97.2 520.6,104.1 520.7,152.0 520.8,104.1 520.9,97.2 521.0,93.5 521.1,91.0 521.2,89.4 521.3,88.3 521.4,87.7 521.5,87.5 521.6,87.7 521.7,88.3 521.8,89.4 521.9,91.0 522.0,93.5 522.1,97.2 522.2,104.1 522.3,152.0 522.4,104.1 522.5,97.2 522.6,93.5 522.7,91.0 522.8,89.4 522.9,88.3 523.0,87.7 523.1,87.5 523.2,87.7 523.3,88.3 523.4,89.4 523.5,91.0 523.6,93.5 523.7,97.2 523.8,104.1 523.9,152.0 524.0,104.1 524.1,97.2 524.2,93.5 524.3,91.0 524.4,89.4 524.5,88.3 524.6,87.7 524.7,87.5 524.8,87.7 524.9,88.3 525.0,89.4 525.1,91.0 525.2,93.5 525.3,97.2 525.4,104.1 525.5,152.0 525.6,104.1 525.7,97.2 525.8,93.5 525.9,91.0 526.0,89.4 526.1,88.3 526.2,87.7 526.3,87.5 526.4,87.7 526.5,88.3 526.6,89.4 526.7,91.0 526.8,93.5 526.9,97.2 527.0,104.1" fill="none" stroke="#4a90d9" stroke-width="1.2" stroke-linejoin="round"/>
  <text x="154.5" y="176" text-anchor="middle" font-size="8" fill="#6b7280">n / N</text>
  <text x="424.5" y="176" text-anchor="middle" font-size="8" fill="#6b7280">Normalized frequency (× Fₛ)</text>
</svg>
