<svg xmlns="http://www.w3.org/2000/svg" viewBox="0 0 560 210" width="560" height="210" style="font-family:system-ui,-apple-system,sans-serif">
  <rect width="560" height="210" fill="#fafafa" rx="6"/>
  <text x="280" y="18" text-anchor="middle" font-size="12" font-weight="600" fill="#374151">hamming</text>
  <line x1="52" y1="166.0" x2="257" y2="166.0" stroke="#e5e7eb" stroke-width="0.5"/>
  <text x="48" y="169.0" text-anchor="end" font-size="7.5" fill="#6b7280">0</text>
  <line x1="52" y1="97.0" x2="257" y2="97.0" stroke="#e5e7eb" stroke-width="0.5"/>
  <text x="48" y="100.0" text-anchor="end" font-size="7.5" fill="#6b7280">0.5</text>
  <line x1="52" y1="28.0" x2="257" y2="28.0" stroke="#e5e7eb" stroke-width="0.5"/>
  <text x="48" y="31.0" text-anchor="end" font-size="7.5" fill="#6b7280">1</text>
  <line x1="52.0" y1="28" x2="52.0" y2="166" stroke="#e5e7eb" stroke-width="0.5"/>
  <text x="52.0" y="178" text-anchor="middle" font-size="7.5" fill="#6b7280">0</text>
  <line x1="154.5" y1="28" x2="154.5" y2="166" stroke="#e5e7eb" stroke-width="0.5"/>
  <text x="154.5" y="178" text-anchor="middle" font-size="7.5" fill="#6b7280">0.5</text>
  <line x1="257.0" y1="28" x2="257.0" y2="166" stroke="#e5e7eb" stroke-width="0.5"/>
  <text x="257.0" y="178" text-anchor="middle" font-size="7.5" fill="#6b7280">1</text>
  <line x1="52" y1="28" x2="52" y2="166" stroke="#d1d5db" stroke-width="0.75"/>
  <line x1="52" y1="166" x2="257" y2="166" stroke="#d1d5db" stroke-width="0.75"/>
  <path d="M52.0,166.0 52.0,155.0 52.8,154.9 53.6,154.9 54.4,154.8 55.2,154.7 56.0,154.5 56.8,154.3 57.6,154.0 58.4,153.7 59.2,153.4 60.0,153.0 60.8,152.6 61.6,152.2 62.5,151.7 63.3,151.2 64.1,150.7 64.9,150.1 65.7,149.5 66.5,148.8 67.3,148.1 68.1,147.4 68.9,146.6 69.7,145.9 70.5,145.0 71.3,144.2 72.1,143.3 72.9,142.4 73.7,141.4 74.5,140.4 75.3,139.4 76.1,138.4 76.9,137.3 77.7,136.2 78.5,135.1 79.3,134.0 80.1,132.8 80.9,131.6 81.7,130.4 82.5,129.1 83.4,127.8 84.2,126.5 85.0,125.2 85.8,123.9 86.6,122.5 87.4,121.2 88.2,119.8 89.0,118.4 89.8,116.9 90.6,115.5 91.4,114.0 92.2,112.6 93.0,111.1 93.8,109.6 94.6,108.1 95.4,106.6 96.2,105.1 97.0,103.5 97.8,102.0 98.6,100.4 99.4,98.9 100.2,97.3 101.0,95.8 101.8,94.2 102.6,92.7 103.5,91.1 104.3,89.5 105.1,88.0 105.9,86.4 106.7,84.8 107.5,83.3 108.3,81.7 109.1,80.2 109.9,78.7 110.7,77.1 111.5,75.6 112.3,74.1 113.1,72.6 113.9,71.1 114.7,69.6 115.5,68.2 116.3,66.7 117.1,65.3 117.9,63.9 118.7,62.5 119.5,61.1 120.3,59.7 121.1,58.4 121.9,57.1 122.7,55.8 123.5,54.5 124.4,53.2 125.2,52.0 126.0,50.8 126.8,49.6 127.6,48.4 128.4,47.3 129.2,46.2 130.0,45.1 130.8,44.0 131.6,43.0 132.4,42.0 133.2,41.1 134.0,40.1 134.8,39.2 135.6,38.3 136.4,37.5 137.2,36.7 138.0,35.9 138.8,35.2 139.6,34.5 140.4,33.8 141.2,33.2 142.0,32.6 142.8,32.0 143.6,31.5 144.5,31.0 145.3,30.5 146.1,30.1 146.9,29.7 147.7,29.4 148.5,29.1 149.3,28.8 150.1,28.6 150.9,28.4 151.7,28.2 152.5,28.1 153.3,28.0 154.1,28.0 154.9,28.0 155.7,28.0 156.5,28.1 157.3,28.2 158.1,28.4 158.9,28.6 159.7,28.8 160.5,29.1 161.3,29.4 162.1,29.7 162.9,30.1 163.7,30.5 164.5,31.0 165.4,31.5 166.2,32.0 167.0,32.6 167.8,33.2 168.6,33.8 169.4,34.5 170.2,35.2 171.0,35.9 171.8,36.7 172.6,37.5 173.4,38.3 174.2,39.2 175.0,40.1 175.8,41.1 176.6,42.0 177.4,43.0 178.2,44.0 179.0,45.1 179.8,46.2 180.6,47.3 181.4,48.4 182.2,49.6 183.0,50.8 183.8,52.0 184.6,53.2 185.5,54.5 186.3,55.8 187.1,57.1 187.9,58.4 188.7,59.7 189.5,61.1 190.3,62.5 191.1,63.9 191.9,65.3 192.7,66.7 193.5,68.2 194.3,69.6 195.1,71.1 195.9,72.6 196.7,74.1 197.5,75.6 198.3,77.1 199.1,78.7 199.9,80.2 200.7,81.7 201.5,83.3 202.3,84.8 203.1,86.4 203.9,88.0 204.7,89.5 205.5,91.1 206.4,92.7 207.2,94.2 208.0,95.8 208.8,97.3 209.6,98.9 210.4,100.4 211.2,102.0 212.0,103.5 212.8,105.1 213.6,106.6 214.4,108.1 215.2,109.6 216.0,111.1 216.8,112.6 217.6,114.0 218.4,115.5 219.2,116.9 220.0,118.4 220.8,119.8 221.6,121.2 222.4,122.5 223.2,123.9 224.0,125.2 224.8,126.5 225.6,127.8 226.5,129.1 227.3,130.4 228.1,131.6 228.9,132.8 229.7,134.0 230.5,135.1 231.3,136.2 232.1,137.3 232.9,138.4 233.7,139.4 234.5,140.4 235.3,141.4 236.1,142.4 236.9,143.3 237.7,144.2 238.5,145.0 239.3,145.9 240.1,146.6 240.9,147.4 241.7,148.1 242.5,148.8 243.3,149.5 244.1,150.1 244.9,150.7 245.7,151.2 246.5,151.7 247.4,152.2 248.2,152.6 249.0,153.0 249.8,153.4 250.6,153.7 251.4,154.0 252.2,154.3 253.0,154.5 253.8,154.7 254.6,154.8 255.4,154.9 256.2,154.9 257.0,155.0 L257.0,166.0 Z" fill="#4a90d9" fill-opacity="0.06"/>
  <polyline points="52.0,155.0 52.8,154.9 53.6,154.9 54.4,154.8 55.2,154.7 56.0,154.5 56.8,154.3 57.6,154.0 58.4,153.7 59.2,153.4 60.0,153.0 60.8,152.6 61.6,152.2 62.5,151.7 63.3,151.2 64.1,150.7 64.9,150.1 65.7,149.5 66.5,148.8 67.3,148.1 68.1,147.4 68.9,146.6 69.7,145.9 70.5,145.0 71.3,144.2 72.1,143.3 72.9,142.4 73.7,141.4 74.5,140.4 75.3,139.4 76.1,138.4 76.9,137.3 77.7,136.2 78.5,135.1 79.3,134.0 80.1,132.8 80.9,131.6 81.7,130.4 82.5,129.1 83.4,127.8 84.2,126.5 85.0,125.2 85.8,123.9 86.6,122.5 87.4,121.2 88.2,119.8 89.0,118.4 89.8,116.9 90.6,115.5 91.4,114.0 92.2,112.6 93.0,111.1 93.8,109.6 94.6,108.1 95.4,106.6 96.2,105.1 97.0,103.5 97.8,102.0 98.6,100.4 99.4,98.9 100.2,97.3 101.0,95.8 101.8,94.2 102.6,92.7 103.5,91.1 104.3,89.5 105.1,88.0 105.9,86.4 106.7,84.8 107.5,83.3 108.3,81.7 109.1,80.2 109.9,78.7 110.7,77.1 111.5,75.6 112.3,74.1 113.1,72.6 113.9,71.1 114.7,69.6 115.5,68.2 116.3,66.7 117.1,65.3 117.9,63.9 118.7,62.5 119.5,61.1 120.3,59.7 121.1,58.4 121.9,57.1 122.7,55.8 123.5,54.5 124.4,53.2 125.2,52.0 126.0,50.8 126.8,49.6 127.6,48.4 128.4,47.3 129.2,46.2 130.0,45.1 130.8,44.0 131.6,43.0 132.4,42.0 133.2,41.1 134.0,40.1 134.8,39.2 135.6,38.3 136.4,37.5 137.2,36.7 138.0,35.9 138.8,35.2 139.6,34.5 140.4,33.8 141.2,33.2 142.0,32.6 142.8,32.0 143.6,31.5 144.5,31.0 145.3,30.5 146.1,30.1 146.9,29.7 147.7,29.4 148.5,29.1 149.3,28.8 150.1,28.6 150.9,28.4 151.7,28.2 152.5,28.1 153.3,28.0 154.1,28.0 154.9,28.0 155.7,28.0 156.5,28.1 157.3,28.2 158.1,28.4 158.9,28.6 159.7,28.8 160.5,29.1 161.3,29.4 162.1,29.7 162.9,30.1 163.7,30.5 164.5,31.0 165.4,31.5 166.2,32.0 167.0,32.6 167.8,33.2 168.6,33.8 169.4,34.5 170.2,35.2 171.0,35.9 171.8,36.7 172.6,37.5 173.4,38.3 174.2,39.2 175.0,40.1 175.8,41.1 176.6,42.0 177.4,43.0 178.2,44.0 179.0,45.1 179.8,46.2 180.6,47.3 181.4,48.4 182.2,49.6 183.0,50.8 183.8,52.0 184.6,53.2 185.5,54.5 186.3,55.8 187.1,57.1 187.9,58.4 188.7,59.7 189.5,61.1 190.3,62.5 191.1,63.9 191.9,65.3 192.7,66.7 193.5,68.2 194.3,69.6 195.1,71.1 195.9,72.6 196.7,74.1 197.5,75.6 198.3,77.1 199.1,78.7 199.9,80.2 200.7,81.7 201.5,83.3 202.3,84.8 203.1,86.4 203.9,88.0 204.7,89.5 205.5,91.1 206.4,92.7 207.2,94.2 208.0,95.8 208.8,97.3 209.6,98.9 210.4,100.4 211.2,102.0 212.0,103.5 212.8,105.1 213.6,106.6 214.4,108.1 215.2,109.6 216.0,111.1 216.8,112.6 217.6,114.0 218.4,115.5 219.2,116.9 220.0,118.4 220.8,119.8 221.6,121.2 222.4,122.5 223.2,123.9 224.0,125.2 224.8,126.5 225.6,127.8 226.5,129.1 227.3,130.4 228.1,131.6 228.9,132.8 229.7,134.0 230.5,135.1 231.3,136.2 232.1,137.3 232.9,138.4 233.7,139.4 234.5,140.4 235.3,141.4 236.1,142.4 236.9,143.3 237.7,144.2 238.5,145.0 239.3,145.9 240.1,146.6 240.9,147.4 241.7,148.1 242.5,148.8 243.3,149.5 244.1,150.1 244.9,150.7 245.7,151.2 246.5,151.7 247.4,152.2 248.2,152.6 249.0,153.0 249.8,153.4 250.6,153.7 251.4,154.0 252.2,154.3 253.0,154.5 253.8,154.7 254.6,154.8 255.4,154.9 256.2,154.9 257.0,155.0" fill="none" stroke="#4a90d9" stroke-width="1.2" stroke-linejoin="round"/>
  <line x1="322" y1="28.0" x2="527" y2="28.0" stroke="#e5e7eb" stroke-width="0.5"/>
  <text x="318" y="31.0" text-anchor="end" font-size="7.5" fill="#6b7280">0</text>
  <line x1="322" y1="74.0" x2="527" y2="74.0" stroke="#e5e7eb" stroke-width="0.5"/>
  <text x="318" y="77.0" text-anchor="end" font-size="7.5" fill="#6b7280">-40</text>
  <line x1="322" y1="120.0" x2="527" y2="120.0" stroke="#e5e7eb" stroke-width="0.5"/>
  <text x="318" y="123.0" text-anchor="end" font-size="7.5" fill="#6b7280">-80</text>
  <line x1="322" y1="166.0" x2="527" y2="166.0" stroke="#e5e7eb" stroke-width="0.5"/>
  <text x="318" y="169.0" text-anchor="end" font-size="7.5" fill="#6b7280">-120</text>
  <line x1="322.0" y1="28" x2="322.0" y2="166" stroke="#e5e7eb" stroke-width="0.5"/>
  <text x="322.0" y="178" text-anchor="middle" font-size="7.5" fill="#6b7280">0</text>
  <line x1="363.0" y1="28" x2="363.0" y2="166" stroke="#e5e7eb" stroke-width="0.5"/>
  <text x="363.0" y="178" text-anchor="middle" font-size="7.5" fill="#6b7280">0.1</text>
  <line x1="404.0" y1="28" x2="404.0" y2="166" stroke="#e5e7eb" stroke-width="0.5"/>
  <text x="404.0" y="178" text-anchor="middle" font-size="7.5" fill="#6b7280">0.2</text>
  <line x1="445.0" y1="28" x2="445.0" y2="166" stroke="#e5e7eb" stroke-width="0.5"/>
  <text x="445.0" y="178" text-anchor="middle" font-size="7.5" fill="#6b7280">0.3</text>
  <line x1="486.0" y1="28" x2="486.0" y2="166" stroke="#e5e7eb" stroke-width="0.5"/>
  <text x="486.0" y="178" text-anchor="middle" font-size="7.5" fill="#6b7280">0.4</text>
  <line x1="527.0" y1="28" x2="527.0" y2="166" stroke="#e5e7eb" stroke-width="0.5"/>
  <text x="527.0" y="178" text-anchor="middle" font-size="7.5" fill="#6b7280">0.5</text>
  <line x1="322" y1="28" x2="322" y2="166" stroke="#d1d5db" stroke-width="0.75"/>
  <line x1="322" y1="166" x2="527" y2="166" stroke="#d1d5db" stroke-width="0.75"/>
  <polyline points="322.0,28.0 322.1,28.0 322.2,28.1 322.3,28.3 322.4,28.5 322.5,28.8 322.6,29.1 322.7,29.5 322.8,30.0 322.9,30.5 323.0,31.2 323.1,31.8 323.2,32.6 323.3,33.4 323.4,34.4 323.5,35.4 323.6,36.5 323.7,37.7 323.8,39.0 323.9,40.4 324.0,41.9 324.1,43.6 324.2,45.4 324.3,47.4 324.4,49.6 324.5,52.0 324.6,54.7 324.7,57.7 324.8,61.2 324.9,65.4 325.0,70.7 325.1,78.3 325.2,95.8 325.3,87.9 325.4,81.6 325.5,79.7 325.6,79.5 325.7,80.4 325.8,82.4 325.9,85.4 326.0,90.2 326.1,98.3 326.2,129.0 326.3,100.6 326.4,96.5 326.5,96.0 326.6,98.7 326.7,108.3 326.8,105.6 326.9,94.2 327.0,88.6 327.1,85.0 327.2,82.4 327.3,80.6 327.4,79.3 327.5,78.6 327.6,78.2 327.7,78.3 327.8,78.8 327.9,79.8 328.0,81.4 328.1,83.8 328.2,87.8 328.3,95.3 328.4,111.9 328.5,92.1 328.6,86.0 328.7,82.5 328.8,80.3 328.9,78.7 329.0,77.7 329.1,77.2 329.2,77.1 329.3,77.3 329.4,78.0 329.5,79.1 329.6,80.8 329.7,83.4 329.8,87.3 329.9,94.6 330.0,116.6 330.1,92.8 330.2,86.5 330.3,83.0 330.4,80.8 330.5,79.3 330.6,78.3 330.7,77.8 330.8,77.7 330.9,78.0 331.0,78.7 331.1,79.8 331.2,81.5 331.3,84.1 331.4,88.0 331.5,95.2 331.6,120.4 331.7,93.9 331.8,87.5 331.9,84.0 332.0,81.7 332.1,80.2 332.2,79.3 332.3,78.8 332.4,78.7 332.5,79.0 332.6,79.6 332.7,80.8 332.8,82.5 332.9,85.0 333.0,88.9 333.1,96.1 333.2,123.6 333.3,95.0 333.4,88.6 333.5,85.1 333.6,82.8 333.7,81.3 333.8,80.3 333.9,79.8 334.0,79.7 334.1,80.0 334.2,80.6 334.3,81.8 334.4,83.5 334.5,86.0 334.6,89.9 334.7,97.0 334.8,126.3 334.9,96.1 335.0,89.7 335.1,86.1 335.2,83.8 335.3,82.3 335.4,81.3 335.5,80.8 335.6,80.7 335.7,80.9 335.8,81.6 335.9,82.8 336.0,84.5 336.1,87.0 336.2,90.8 336.3,97.9 336.4,128.7 336.5,97.1 336.6,90.7 336.7,87.1 336.8,84.8 336.9,83.2 337.0,82.2 337.1,81.7 337.2,81.6 337.3,81.9 337.4,82.5 337.5,83.7 337.6,85.4 337.7,87.9 337.8,91.7 337.9,98.7 338.0,130.8 338.1,98.1 338.2,91.6 338.3,88.0 338.4,85.7 338.5,84.1 338.6,83.1 338.7,82.6 338.8,82.5 338.9,82.7 339.0,83.4 339.1,84.5 339.2,86.2 339.3,88.7 339.4,92.5 339.5,99.5 339.6,132.7 339.7,98.9 339.8,92.4 339.9,88.8 340.0,86.5 340.1,84.9 340.2,83.9 340.3,83.4 340.4,83.3 340.5,83.5 340.6,84.2 340.7,85.3 340.8,87.0 340.9,89.5 341.0,93.3 341.1,100.3 341.2,134.5 341.3,99.7 341.4,93.2 341.5,89.6 341.6,87.3 341.7,85.7 341.8,84.7 341.9,84.2 342.0,84.0 342.1,84.3 342.2,84.9 342.3,86.1 342.4,87.7 342.5,90.2 342.6,94.0 342.7,101.0 342.8,136.1 342.9,100.5 343.0,93.9 343.1,90.3 343.2,88.0 343.3,86.4 343.4,85.4 343.5,84.9 343.6,84.7 343.7,85.0 343.8,85.6 343.9,86.8 344.0,88.4 344.1,90.9 344.2,94.7 344.3,101.6 344.4,137.6 344.5,101.2 344.6,94.6 344.7,91.0 344.8,88.7 344.9,87.1 345.0,86.1 345.1,85.6 345.2,85.4 345.3,85.7 345.4,86.3 345.5,87.4 345.6,89.1 345.7,91.6 345.8,95.4 345.9,102.3 346.0,139.0 346.1,101.8 346.2,95.3 346.3,91.6 346.4,89.3 346.5,87.7 346.6,86.7 346.7,86.2 346.8,86.0 346.9,86.3 347.0,86.9 347.1,88.0 347.2,89.7 347.3,92.2 347.4,96.0 347.5,102.8 347.6,140.3 347.7,102.5 347.8,95.9 347.9,92.2 348.0,89.9 348.1,88.3 348.2,87.3 348.3,86.8 348.4,86.6 348.5,86.9 348.6,87.5 348.7,88.6 348.8,90.3 348.9,92.7 349.0,96.5 349.1,103.4 349.2,141.5 349.3,103.1 349.4,96.5 349.5,92.8 349.6,90.5 349.7,88.9 349.8,87.9 349.9,87.3 350.0,87.2 350.1,87.4 350.2,88.0 350.3,89.1 350.4,90.8 350.5,93.3 350.6,97.1 350.7,103.9 350.8,142.7 350.9,103.6 351.0,97.0 351.1,93.4 351.2,91.0 351.3,89.4 351.4,88.4 351.5,87.9 351.6,87.7 351.7,87.9 351.8,88.6 351.9,89.7 352.0,91.3 352.1,93.8 352.2,97.6 352.3,104.4 352.4,143.8 352.5,104.1 352.6,97.5 352.7,93.9 352.8,91.5 352.9,89.9 353.0,88.9 353.1,88.4 353.2,88.2 353.3,88.4 353.4,89.1 353.5,90.2 353.6,91.8 353.7,94.3 353.8,98.1 353.9,104.9 354.0,144.8 354.1,104.6 354.2,98.0 354.3,94.3 354.4,92.0 354.5,90.4 354.6,89.4 354.7,88.8 354.8,88.7 354.9,88.9 355.0,89.5 355.1,90.6 355.2,92.3 355.3,94.7 355.4,98.5 355.5,105.4 355.6,145.8 355.7,105.1 355.8,98.5 355.9,94.8 356.0,92.4 356.1,90.9 356.3,89.8 356.4,89.3 356.5,89.1 356.6,89.4 356.7,90.0 356.8,91.1 356.9,92.7 357.0,95.2 357.1,99.0 357.2,105.8 357.3,146.7 357.4,105.5 357.5,98.9 357.6,95.2 357.7,92.9 357.8,91.3 357.9,90.3 358.0,89.7 358.1,89.6 358.2,89.8 358.3,90.4 358.4,91.5 358.5,93.2 358.6,95.6 358.7,99.4 358.8,106.2 358.9,147.6 359.0,106.0 359.1,99.3 359.2,95.7 359.3,93.3 359.4,91.7 359.5,90.7 359.6,90.1 359.7,90.0 359.8,90.2 359.9,90.8 360.0,91.9 360.1,93.6 360.2,96.0 360.3,99.8 360.4,106.6 360.5,148.5 360.6,106.4 360.7,99.7 360.8,96.1 360.9,93.7 361.0,92.1 361.1,91.1 361.2,90.5 361.3,90.4 361.4,90.6 361.5,91.2 361.6,92.3 361.7,94.0 361.8,96.4 361.9,100.2 362.0,107.0 362.1,149.3 362.2,106.8 362.3,100.1 362.4,96.5 362.5,94.1 362.6,92.5 362.7,91.5 362.8,90.9 362.9,90.7 363.0,91.0 363.1,91.6 363.2,92.7 363.3,94.3 363.4,96.8 363.5,100.5 363.6,107.4 363.7,150.1 363.8,107.1 363.9,100.5 364.0,96.8 364.1,94.5 364.2,92.9 364.3,91.8 364.4,91.3 364.5,91.1 364.6,91.3 364.7,92.0 364.8,93.0 364.9,94.7 365.0,97.1 365.1,100.9 365.2,107.7 365.3,150.9 365.4,107.5 365.5,100.9 365.6,97.2 365.7,94.8 365.8,93.2 365.9,92.2 366.0,91.6 366.1,91.5 366.2,91.7 366.3,92.3 366.4,93.4 366.5,95.0 366.6,97.5 366.7,101.2 366.8,108.1 366.9,151.6 367.0,107.9 367.1,101.2 367.2,97.5 367.3,95.2 367.4,93.6 367.5,92.5 367.6,92.0 367.7,91.8 367.8,92.0 367.9,92.6 368.0,93.7 368.1,95.4 368.2,97.8 368.3,101.6 368.4,108.4 368.5,152.4 368.6,108.2 368.7,101.5 368.8,97.9 368.9,95.5 369.0,93.9 369.1,92.9 369.2,92.3 369.3,92.1 369.4,92.3 369.5,93.0 369.6,94.0 369.7,95.7 369.8,98.1 369.9,101.9 370.0,108.7 370.1,153.1 370.2,108.5 370.3,101.9 370.4,98.2 370.5,95.8 370.6,94.2 370.7,93.2 370.8,92.6 370.9,92.4 371.0,92.7 371.1,93.3 371.2,94.4 371.3,96.0 371.4,98.4 371.5,102.2 371.6,109.0 371.7,153.7 371.8,108.8 371.9,102.2 372.0,98.5 372.1,96.1 372.2,94.5 372.3,93.5 372.4,92.9 372.5,92.7 372.6,93.0 372.7,93.6 372.8,94.7 372.9,96.3 373.0,98.7 373.1,102.5 373.2,109.3 373.3,154.4 373.4,109.1 373.5,102.5 373.6,98.8 373.7,96.4 373.8,94.8 373.9,93.8 374.0,93.2 374.1,93.0 374.2,93.2 374.3,93.9 374.4,94.9 374.5,96.6 374.6,99.0 374.7,102.8 374.8,109.6 374.9,155.0 375.0,109.4 375.1,102.8 375.2,99.1 375.3,96.7 375.4,95.1 375.5,94.1 375.6,93.5 375.7,93.3 375.8,93.5 375.9,94.1 376.0,95.2 376.1,96.9 376.2,99.3 376.3,103.1 376.4,109.9 376.5,155.6 376.6,109.7 376.7,103.0 376.8,99.3 376.9,97.0 377.0,95.4 377.1,94.3 377.2,93.8 377.3,93.6 377.4,93.8 377.5,94.4 377.6,95.5 377.7,97.1 377.8,99.6 377.9,103.3 378.0,110.1 378.1,156.2 378.2,110.0 378.3,103.3 378.4,99.6 378.5,97.2 378.6,95.6 378.7,94.6 378.8,94.0 378.9,93.9 379.0,94.1 379.1,94.7 379.2,95.8 379.3,97.4 379.4,99.8 379.5,103.6 379.6,110.4 379.7,156.8 379.8,110.2 379.9,103.6 380.0,99.9 380.1,97.5 380.2,95.9 380.3,94.9 380.4,94.3 380.5,94.1 380.6,94.3 380.7,94.9 380.8,96.0 380.9,97.7 381.0,100.1 381.1,103.8 381.2,110.6 381.3,157.4 381.4,110.5 381.5,103.8 381.6,100.1 381.7,97.7 381.8,96.1 381.9,95.1 382.0,94.5 382.1,94.4 382.2,94.6 382.3,95.2 382.4,96.3 382.5,97.9 382.6,100.3 382.7,104.1 382.8,110.9 382.9,157.9 383.0,110.7 383.1,104.1 383.2,100.4 383.3,98.0 383.4,96.4 383.5,95.4 383.6,94.8 383.7,94.6 383.8,94.8 383.9,95.4 384.0,96.5 384.1,98.1 384.2,100.6 384.3,104.3 384.4,111.1 384.5,158.5 384.6,111.0 384.7,104.3 384.8,100.6 384.9,98.2 385.0,96.6 385.1,95.6 385.2,95.0 385.3,94.8 385.4,95.0 385.5,95.7 385.6,96.7 385.7,98.4 385.8,100.8 385.9,104.6 386.0,111.3 386.1,159.0 386.2,111.2 386.3,104.5 386.4,100.8 386.5,98.5 386.6,96.9 386.7,95.8 386.8,95.2 386.9,95.1 387.0,95.3 387.1,95.9 387.2,97.0 387.3,98.6 387.4,101.0 387.5,104.8 387.6,111.6 387.7,159.5 387.8,111.4 387.9,104.8 388.0,101.1 388.1,98.7 388.2,97.1 388.3,96.0 388.4,95.5 388.5,95.3 388.6,95.5 388.7,96.1 388.8,97.2 388.9,98.8 389.0,101.2 389.1,105.0 389.2,111.8 389.3,160.0 389.4,111.7 389.5,105.0 389.6,101.3 389.7,98.9 389.8,97.3 389.9,96.3 390.0,95.7 390.1,95.5 390.2,95.7 390.3,96.3 390.4,97.4 390.5,99.0 390.6,101.5 390.7,105.2 390.8,112.0 390.9,160.5 391.0,111.9 391.1,105.2 391.2,101.5 391.3,99.1 391.4,97.5 391.5,96.5 391.6,95.9 391.7,95.7 391.8,95.9 391.9,96.5 392.0,97.6 392.1,99.2 392.2,101.7 392.3,105.4 392.4,112.2 392.5,161.0 392.6,112.1 392.7,105.4 392.8,101.7 392.9,99.3 393.0,97.7 393.1,96.7 393.2,96.1 393.3,95.9 393.4,96.1 393.5,96.7 393.6,97.8 393.7,99.4 393.8,101.9 393.9,105.6 394.0,112.4 394.1,161.5 394.2,112.3 394.3,105.6 394.4,101.9 394.5,99.5 394.6,97.9 394.7,96.9 394.8,96.3 394.9,96.1 395.0,96.3 395.1,96.9 395.2,98.0 395.3,99.6 395.4,102.1 395.5,105.8 395.6,112.6 395.7,162.0 395.8,112.5 395.9,105.8 396.0,102.1 396.1,99.7 396.2,98.1 396.3,97.1 396.4,96.5 396.5,96.3 396.6,96.5 396.7,97.1 396.8,98.2 396.9,99.8 397.0,102.2 397.1,106.0 397.2,112.8 397.3,162.4 397.4,112.7 397.5,106.0 397.6,102.3 397.7,99.9 397.8,98.3 397.9,97.2 398.0,96.7 398.1,96.5 398.2,96.7 398.3,97.3 398.4,98.4 398.5,100.0 398.6,102.4 398.7,106.2 398.8,113.0 398.9,162.9 399.0,112.8 399.1,106.2 399.2,102.5 399.3,100.1 399.4,98.5 399.5,97.4 399.6,96.8 399.7,96.7 399.8,96.9 399.9,97.5 400.0,98.6 400.1,100.2 400.2,102.6 400.3,106.4 400.4,113.1 400.5,163.3 400.6,113.0 400.7,106.3 400.8,102.6 400.9,100.3 401.0,98.6 401.1,97.6 401.2,97.0 401.3,96.8 401.4,97.1 401.5,97.7 401.6,98.7 401.7,100.4 401.8,102.8 401.9,106.5 402.0,113.3 402.1,163.8 402.2,113.2 402.3,106.5 402.4,102.8 402.5,100.4 402.6,98.8 402.7,97.8 402.8,97.2 402.9,97.0 403.0,97.2 403.1,97.8 403.2,98.9 403.3,100.5 403.4,103.0 403.5,106.7 403.6,113.5 403.7,164.2 403.8,113.4 403.9,106.7 404.0,103.0 404.1,100.6 404.2,99.0 404.3,98.0 404.4,97.4 404.5,97.2 404.6,97.4 404.7,98.0 404.8,99.1 404.9,100.7 405.0,103.1 405.1,106.9 405.2,113.6 405.3,164.6 405.4,113.5 405.5,106.9 405.6,103.2 405.7,100.8 405.8,99.2 405.9,98.1 406.0,97.5 406.1,97.4 406.2,97.6 406.3,98.2 406.4,99.2 406.5,100.9 406.6,103.3 406.7,107.0 406.8,113.8 406.9,165.0 407.0,113.7 407.1,107.0 407.2,103.3 407.3,100.9 407.4,99.3 407.5,98.3 407.6,97.7 407.7,97.5 407.8,97.7 407.9,98.3 408.0,99.4 408.1,101.0 408.2,103.5 408.3,107.2 408.4,114.0 408.5,165.5 408.6,113.9 408.7,107.2 408.8,103.5 408.9,101.1 409.0,99.5 409.1,98.4 409.2,97.9 409.3,97.7 409.4,97.9 409.5,98.5 409.6,99.5 409.7,101.2 409.8,103.6 409.9,107.3 410.0,114.1 410.1,165.9 410.2,114.0 410.3,107.3 410.4,103.6 410.5,101.2 410.6,99.6 410.7,98.6 410.8,98.0 410.9,97.8 411.0,98.0 411.1,98.6 411.2,99.7 411.3,101.3 411.4,103.8 411.5,107.5 411.6,114.3 411.7,166.0 411.8,114.2 411.9,107.5 412.0,103.8 412.1,101.4 412.2,99.8 412.3,98.7 412.4,98.2 412.5,98.0 412.6,98.2 412.7,98.8 412.8,99.8 412.9,101.5 413.0,103.9 413.1,107.6 413.2,114.4 413.3,166.0 413.4,114.3 413.5,107.6 413.6,103.9 413.7,101.5 413.8,99.9 413.9,98.9 414.0,98.3 414.1,98.1 414.2,98.3 414.3,98.9 414.4,100.0 414.5,101.6 414.6,104.0 414.7,107.8 414.8,114.6 414.9,166.0 415.0,114.5 415.1,107.8 415.2,104.1 415.3,101.7 415.4,100.1 415.5,99.0 415.6,98.4 415.7,98.3 415.8,98.5 415.9,99.1 416.0,100.1 416.1,101.8 416.2,104.2 416.3,107.9 416.4,114.7 416.5,166.0 416.6,114.6 416.7,107.9 416.8,104.2 416.9,101.8 417.0,100.2 417.1,99.2 417.2,98.6 417.3,98.4 417.4,98.6 417.5,99.2 417.6,100.3 417.7,101.9 417.8,104.3 417.9,108.1 418.0,114.8 418.1,166.0 418.2,114.7 418.3,108.1 418.4,104.3 418.5,101.9 418.6,100.3 418.7,99.3 418.8,98.7 418.9,98.5 419.0,98.7 419.1,99.3 419.2,100.4 419.3,102.0 419.4,104.5 419.5,108.2 419.6,115.0 419.7,166.0 419.8,114.9 419.9,108.2 420.0,104.5 420.1,102.1 420.2,100.5 420.3,99.4 420.4,98.8 420.5,98.7 420.6,98.9 420.7,99.5 420.8,100.5 420.9,102.2 421.0,104.6 421.1,108.3 421.2,115.1 421.3,166.0 421.4,115.0 421.5,108.3 421.6,104.6 421.7,102.2 421.8,100.6 421.9,99.6 422.0,99.0 422.1,98.8 422.2,99.0 422.3,99.6 422.4,100.7 422.5,102.3 422.6,104.7 422.7,108.5 422.8,115.2 422.9,166.0 423.0,115.1 423.1,108.4 423.2,104.7 423.3,102.3 423.4,100.7 423.5,99.7 423.6,99.1 423.7,98.9 423.8,99.1 423.9,99.7 424.0,100.8 424.1,102.4 424.2,104.8 424.3,108.6 424.4,115.3 424.6,166.0 424.7,115.3 424.8,108.6 424.9,104.9 425.0,102.5 425.1,100.9 425.2,99.8 425.3,99.2 425.4,99.0 425.5,99.2 425.6,99.8 425.7,100.9 425.8,102.5 425.9,105.0 426.0,108.7 426.1,115.5 426.2,166.0 426.3,115.4 426.4,108.7 426.5,105.0 426.6,102.6 426.7,101.0 426.8,99.9 426.9,99.3 427.0,99.2 427.1,99.4 427.2,100.0 427.3,101.0 427.4,102.7 427.5,105.1 427.6,108.8 427.7,115.6 427.8,166.0 427.9,115.5 428.0,108.8 428.1,105.1 428.2,102.7 428.3,101.1 428.4,100.0 428.5,99.5 428.6,99.3 428.7,99.5 428.8,100.1 428.9,101.1 429.0,102.8 429.1,105.2 429.2,108.9 429.3,115.7 429.4,166.0 429.5,115.6 429.6,108.9 429.7,105.2 429.8,102.8 429.9,101.2 430.0,100.2 430.1,99.6 430.2,99.4 430.3,99.6 430.4,100.2 430.5,101.3 430.6,102.9 430.7,105.3 430.8,109.0 430.9,115.8 431.0,166.0 431.1,115.7 431.2,109.0 431.3,105.3 431.4,102.9 431.5,101.3 431.6,100.3 431.7,99.7 431.8,99.5 431.9,99.7 432.0,100.3 432.1,101.4 432.2,103.0 432.3,105.4 432.4,109.2 432.5,115.9 432.6,166.0 432.7,115.8 432.8,109.1 432.9,105.4 433.0,103.0 433.1,101.4 433.2,100.4 433.3,99.8 433.4,99.6 433.5,99.8 433.6,100.4 433.7,101.5 433.8,103.1 433.9,105.5 434.0,109.3 434.1,116.0 434.2,166.0 434.3,116.0 434.4,109.2 434.5,105.5 434.6,103.1 434.7,101.5 434.8,100.5 434.9,99.9 435.0,99.7 435.1,99.9 435.2,100.5 435.3,101.6 435.4,103.2 435.5,105.6 435.6,109.4 435.7,116.1 435.8,166.0 435.9,116.1 436.0,109.4 436.1,105.6 436.2,103.2 436.3,101.6 436.4,100.6 436.5,100.0 436.6,99.8 436.7,100.0 436.8,100.6 436.9,101.7 437.0,103.3 437.1,105.7 437.2,109.5 437.3,116.2 437.4,166.0 437.5,116.2 437.6,109.5 437.7,105.7 437.8,103.3 437.9,101.7 438.0,100.7 438.1,100.1 438.2,99.9 438.3,100.1 438.4,100.7 438.5,101.8 438.6,103.4 438.7,105.8 438.8,109.6 438.9,116.3 439.0,166.0 439.1,116.3 439.2,109.6 439.3,105.8 439.4,103.4 439.5,101.8 439.6,100.8 439.7,100.2 439.8,100.0 439.9,100.2 440.0,100.8 440.1,101.9 440.2,103.5 440.3,105.9 440.4,109.7 440.5,116.4 440.6,166.0 440.7,116.4 440.8,109.7 440.9,105.9 441.0,103.5 441.1,101.9 441.2,100.9 441.3,100.3 441.4,100.1 441.5,100.3 441.6,100.9 441.7,102.0 441.8,103.6 441.9,106.0 442.0,109.8 442.1,116.5 442.2,166.0 442.3,116.5 442.4,109.7 442.5,106.0 442.6,103.6 442.7,102.0 442.8,101.0 442.9,100.4 443.0,100.2 443.1,100.4 443.2,101.0 443.3,102.1 443.4,103.7 443.5,106.1 443.6,109.8 443.7,116.6 443.8,166.0 443.9,116.5 444.0,109.8 444.1,106.1 444.2,103.7 444.3,102.1 444.4,101.1 444.5,100.5 444.6,100.3 444.7,100.5 444.8,101.1 444.9,102.2 445.0,103.8 445.1,106.2 445.2,109.9 445.3,116.7 445.4,166.0 445.5,116.6 445.6,109.9 445.7,106.2 445.8,103.8 445.9,102.2 446.0,101.2 446.1,100.6 446.2,100.4 446.3,100.6 446.4,101.2 446.5,102.2 446.6,103.9 446.7,106.3 446.8,110.0 446.9,116.8 447.0,166.0 447.1,116.7 447.2,110.0 447.3,106.3 447.4,103.9 447.5,102.3 447.6,101.2 447.7,100.7 447.8,100.5 447.9,100.7 448.0,101.3 448.1,102.3 448.2,104.0 448.3,106.4 448.4,110.1 448.5,116.9 448.6,166.0 448.7,116.8 448.8,110.1 448.9,106.4 449.0,104.0 449.1,102.4 449.2,101.3 449.3,100.7 449.4,100.5 449.5,100.7 449.6,101.4 449.7,102.4 449.8,104.0 449.9,106.5 450.0,110.2 450.1,116.9 450.2,166.0 450.3,116.9 450.4,110.2 450.5,106.5 450.6,104.1 450.7,102.5 450.8,101.4 450.9,100.8 451.0,100.6 451.1,100.8 451.2,101.4 451.3,102.5 451.4,104.1 451.5,106.5 451.6,110.3 451.7,117.0 451.8,166.0 451.9,117.0 452.0,110.3 452.1,106.5 452.2,104.1 452.3,102.5 452.4,101.5 452.5,100.9 452.6,100.7 452.7,100.9 452.8,101.5 452.9,102.6 453.0,104.2 453.1,106.6 453.2,110.3 453.3,117.1 453.4,166.0 453.5,117.1 453.6,110.3 453.7,106.6 453.8,104.2 453.9,102.6 454.0,101.6 454.1,101.0 454.2,100.8 454.3,101.0 454.4,101.6 454.5,102.6 454.6,104.3 454.7,106.7 454.8,110.4 454.9,117.2 455.0,166.0 455.1,117.1 455.2,110.4 455.3,106.7 455.4,104.3 455.5,102.7 455.6,101.6 455.7,101.1 455.8,100.9 455.9,101.1 456.0,101.7 456.1,102.7 456.2,104.3 456.3,106.8 456.4,110.5 456.5,117.2 456.6,166.0 456.7,117.2 456.8,110.5 456.9,106.8 457.0,104.4 457.1,102.8 457.2,101.7 457.3,101.1 457.4,100.9 457.5,101.1 457.6,101.7 457.7,102.8 457.8,104.4 457.9,106.8 458.0,110.6 458.1,117.3 458.2,166.0 458.3,117.3 458.4,110.6 458.5,106.8 458.6,104.4 458.7,102.8 458.8,101.8 458.9,101.2 459.0,101.0 459.1,101.2 459.2,101.8 459.3,102.9 459.4,104.5 459.5,106.9 459.6,110.6 459.7,117.4 459.8,166.0 459.9,117.3 460.0,110.6 460.1,106.9 460.2,104.5 460.3,102.9 460.4,101.9 460.5,101.3 460.6,101.1 460.7,101.3 460.8,101.9 460.9,102.9 461.0,104.6 461.1,107.0 461.2,110.7 461.3,117.5 461.4,166.0 461.5,117.4 461.6,110.7 461.7,107.0 461.8,104.6 461.9,103.0 462.0,101.9 462.1,101.3 462.2,101.1 462.3,101.3 462.4,101.9 462.5,103.0 462.6,104.6 462.7,107.0 462.8,110.8 462.9,117.5 463.0,166.0 463.1,117.5 463.2,110.8 463.3,107.1 463.4,104.7 463.5,103.0 463.6,102.0 463.7,101.4 463.8,101.2 463.9,101.4 464.0,102.0 464.1,103.1 464.2,104.7 464.3,107.1 464.4,110.8 464.5,117.6 464.6,166.0 464.7,117.5 464.8,110.8 464.9,107.1 465.0,104.7 465.1,103.1 465.2,102.1 465.3,101.5 465.4,101.3 465.5,101.5 465.6,102.1 465.7,103.1 465.8,104.8 465.9,107.2 466.0,110.9 466.1,117.6 466.2,166.0 466.3,117.6 466.4,110.9 466.5,107.2 466.6,104.8 466.7,103.2 466.8,102.1 466.9,101.5 467.0,101.3 467.1,101.5 467.2,102.1 467.3,103.2 467.4,104.8 467.5,107.2 467.6,111.0 467.7,117.7 467.8,166.0 467.9,117.7 468.0,111.0 468.1,107.2 468.2,104.8 468.3,103.2 468.4,102.2 468.5,101.6 468.6,101.4 468.7,101.6 468.8,102.2 468.9,103.3 469.0,104.9 469.1,107.3 469.2,111.0 469.3,117.8 469.4,166.0 469.5,117.7 469.6,111.0 469.7,107.3 469.8,104.9 469.9,103.3 470.0,102.2 470.1,101.6 470.2,101.5 470.3,101.7 470.4,102.3 470.5,103.3 470.6,104.9 470.7,107.3 470.8,111.1 470.9,117.8 471.0,166.0 471.1,117.8 471.2,111.1 471.3,107.4 471.4,105.0 471.5,103.3 471.6,102.3 471.7,101.7 471.8,101.5 471.9,101.7 472.0,102.3 472.1,103.4 472.2,105.0 472.3,107.4 472.4,111.1 472.5,117.9 472.6,166.0 472.7,117.8 472.8,111.1 472.9,107.4 473.0,105.0 473.1,103.4 473.2,102.3 473.3,101.8 473.4,101.6 473.5,101.8 473.6,102.4 473.7,103.4 473.8,105.0 473.9,107.5 474.0,111.2 474.1,117.9 474.2,166.0 474.3,117.9 474.4,111.2 474.5,107.5 474.6,105.1 474.7,103.4 474.8,102.4 474.9,101.8 475.0,101.6 475.1,101.8 475.2,102.4 475.3,103.5 475.4,105.1 475.5,107.5 475.6,111.2 475.7,118.0 475.8,166.0 475.9,118.0 476.0,111.2 476.1,107.5 476.2,105.1 476.3,103.5 476.4,102.4 476.5,101.9 476.6,101.7 476.7,101.9 476.8,102.5 476.9,103.5 477.0,105.1 477.1,107.6 477.2,111.3 477.3,118.0 477.4,166.0 477.5,118.0 477.6,111.3 477.7,107.6 477.8,105.2 477.9,103.5 478.0,102.5 478.1,101.9 478.2,101.7 478.3,101.9 478.4,102.5 478.5,103.6 478.6,105.2 478.7,107.6 478.8,111.3 478.9,118.1 479.0,166.0 479.1,118.0 479.2,111.3 479.3,107.6 479.4,105.2 479.5,103.6 479.6,102.5 479.7,102.0 479.8,101.8 479.9,102.0 480.0,102.6 480.1,103.6 480.2,105.2 480.3,107.7 480.4,111.4 480.5,118.1 480.6,166.0 480.7,118.1 480.8,111.4 480.9,107.7 481.0,105.3 481.1,103.6 481.2,102.6 481.3,102.0 481.4,101.8 481.5,102.0 481.6,102.6 481.7,103.7 481.8,105.3 481.9,107.7 482.0,111.4 482.1,118.2 482.2,166.0 482.3,118.1 482.4,111.4 482.5,107.7 482.6,105.3 482.7,103.7 482.8,102.6 482.9,102.0 483.0,101.9 483.1,102.0 483.2,102.6 483.3,103.7 483.4,105.3 483.5,107.7 483.6,111.5 483.7,118.2 483.8,166.0 483.9,118.2 484.0,111.5 484.1,107.7 484.2,105.3 484.3,103.7 484.4,102.7 484.5,102.1 484.6,101.9 484.7,102.1 484.8,102.7 484.9,103.7 485.0,105.4 485.1,107.8 485.2,111.5 485.3,118.3 485.4,166.0 485.5,118.2 485.6,111.5 485.7,107.8 485.8,105.4 485.9,103.8 486.0,102.7 486.1,102.1 486.2,101.9 486.3,102.1 486.4,102.7 486.5,103.8 486.6,105.4 486.7,107.8 486.8,111.5 486.9,118.3 487.0,166.0 487.1,118.3 487.2,111.5 487.3,107.8 487.4,105.4 487.5,103.8 487.6,102.8 487.7,102.2 487.8,102.0 487.9,102.2 488.0,102.8 488.1,103.8 488.2,105.4 488.3,107.9 488.4,111.6 488.5,118.3 488.6,166.0 488.7,118.3 488.8,111.6 488.9,107.9 489.0,105.5 489.1,103.8 489.2,102.8 489.3,102.2 489.4,102.0 489.5,102.2 489.6,102.8 489.7,103.9 489.8,105.5 489.9,107.9 490.0,111.6 490.1,118.4 490.2,166.0 490.3,118.3 490.4,111.6 490.5,107.9 490.6,105.5 490.7,103.9 490.8,102.8 490.9,102.2 491.0,102.0 491.1,102.2 491.2,102.8 491.3,103.9 491.4,105.5 491.5,107.9 491.6,111.7 491.7,118.4 491.8,166.0 491.9,118.4 492.0,111.7 492.1,107.9 492.2,105.5 492.3,103.9 492.4,102.9 492.5,102.3 492.6,102.1 492.7,102.3 492.9,102.9 493.0,103.9 493.1,105.6 493.2,108.0 493.3,111.7 493.4,118.4 493.5,166.0 493.6,118.4 493.7,111.7 493.8,108.0 493.9,105.6 494.0,103.9 494.1,102.9 494.2,102.3 494.3,102.1 494.4,102.3 494.5,102.9 494.6,104.0 494.7,105.6 494.8,108.0 494.9,111.7 495.0,118.5 495.1,166.0 495.2,118.4 495.3,111.7 495.4,108.0 495.5,105.6 495.6,104.0 495.7,102.9 495.8,102.3 495.9,102.1 496.0,102.3 496.1,102.9 496.2,104.0 496.3,105.6 496.4,108.0 496.5,111.8 496.6,118.5 496.7,166.0 496.8,118.5 496.9,111.8 497.0,108.0 497.1,105.6 497.2,104.0 497.3,103.0 497.4,102.4 497.5,102.2 497.6,102.4 497.7,103.0 497.8,104.0 497.9,105.6 498.0,108.1 498.1,111.8 498.2,118.5 498.3,166.0 498.4,118.5 498.5,111.8 498.6,108.1 498.7,105.7 498.8,104.0 498.9,103.0 499.0,102.4 499.1,102.2 499.2,102.4 499.3,103.0 499.4,104.0 499.5,105.7 499.6,108.1 499.7,111.8 499.8,118.5 499.9,166.0 500.0,118.5 500.1,111.8 500.2,108.1 500.3,105.7 500.4,104.1 500.5,103.0 500.6,102.4 500.7,102.2 500.8,102.4 500.9,103.0 501.0,104.1 501.1,105.7 501.2,108.1 501.3,111.8 501.4,118.6 501.5,166.0 501.6,118.6 501.7,111.8 501.8,108.1 501.9,105.7 502.0,104.1 502.1,103.0 502.2,102.4 502.3,102.2 502.4,102.4 502.5,103.0 502.6,104.1 502.7,105.7 502.8,108.1 502.9,111.9 503.0,118.6 503.1,166.0 503.2,118.6 503.3,111.9 503.4,108.1 503.5,105.7 503.6,104.1 503.7,103.1 503.8,102.5 503.9,102.3 504.0,102.5 504.1,103.1 504.2,104.1 504.3,105.7 504.4,108.2 504.5,111.9 504.6,118.6 504.7,166.0 504.8,118.6 504.9,111.9 505.0,108.2 505.1,105.7 505.2,104.1 505.3,103.1 505.4,102.5 505.5,102.3 505.6,102.5 505.7,103.1 505.8,104.1 505.9,105.8 506.0,108.2 506.1,111.9 506.2,118.6 506.3,166.0 506.4,118.6 506.5,111.9 506.6,108.2 506.7,105.8 506.8,104.2 506.9,103.1 507.0,102.5 507.1,102.3 507.2,102.5 507.3,103.1 507.4,104.2 507.5,105.8 507.6,108.2 507.7,111.9 507.8,118.7 507.9,166.0 508.0,118.6 508.1,111.9 508.2,108.2 508.3,105.8 508.4,104.2 508.5,103.1 508.6,102.5 508.7,102.3 508.8,102.5 508.9,103.1 509.0,104.2 509.1,105.8 509.2,108.2 509.3,111.9 509.4,118.7 509.5,166.0 509.6,118.7 509.7,111.9 509.8,108.2 509.9,105.8 510.0,104.2 510.1,103.1 510.2,102.5 510.3,102.3 510.4,102.5 510.5,103.1 510.6,104.2 510.7,105.8 510.8,108.2 510.9,112.0 511.0,118.7 511.1,166.0 511.2,118.7 511.3,111.9 511.4,108.2 511.5,105.8 511.6,104.2 511.7,103.2 511.8,102.6 511.9,102.4 512.0,102.6 512.1,103.2 512.2,104.2 512.3,105.8 512.4,108.2 512.5,112.0 512.6,118.7 512.7,166.0 512.8,118.7 512.9,112.0 513.0,108.2 513.1,105.8 513.2,104.2 513.3,103.2 513.4,102.6 513.5,102.4 513.6,102.6 513.7,103.2 513.8,104.2 513.9,105.8 514.0,108.3 514.1,112.0 514.2,118.7 514.3,166.0 514.4,118.7 514.5,112.0 514.6,108.3 514.7,105.8 514.8,104.2 514.9,103.2 515.0,102.6 515.1,102.4 515.2,102.6 515.3,103.2 515.4,104.2 515.5,105.9 515.6,108.3 515.7,112.0 515.8,118.7 515.9,166.0 516.0,118.7 516.1,112.0 516.2,108.3 516.3,105.9 516.4,104.2 516.5,103.2 516.6,102.6 516.7,102.4 516.8,102.6 516.9,103.2 517.0,104.2 517.1,105.9 517.2,108.3 517.3,112.0 517.4,118.7 517.5,166.0 517.6,118.7 517.7,112.0 517.8,108.3 517.9,105.9 518.0,104.2 518.1,103.2 518.2,102.6 518.3,102.4 518.4,102.6 518.5,103.2 518.6,104.3 518.7,105.9 518.8,108.3 518.9,112.0 519.0,118.7 519.1,166.0 519.2,118.7 519.3,112.0 519.4,108.3 519.5,105.9 519.6,104.3 519.7,103.2 519.8,102.6 519.9,102.4 520.0,102.6 520.1,103.2 520.2,104.3 520.3,105.9 520.4,108.3 520.5,112.0 520.6,118.7 520.7,166.0 520.8,118.7 520.9,112.0 521.0,108.3 521.1,105.9 521.2,104.3 521.3,103.2 521.4,102.6 521.5,102.4 521.6,102.6 521.7,103.2 521.8,104.3 521.9,105.9 522.0,108.3 522.1,112.0 522.2,118.7 522.3,166.0 522.4,118.7 522.5,112.0 522.6,108.3 522.7,105.9 522.8,104.3 522.9,103.2 523.0,102.6 523.1,102.4 523.2,102.6 523.3,103.2 523.4,104.3 523.5,105.9 523.6,108.3 523.7,112.0 523.8,118.8 523.9,166.0 524.0,118.8 524.1,112.0 524.2,108.3 524.3,105.9 524.4,104.3 524.5,103.2 524.6,102.6 524.7,102.4 524.8,102.6 524.9,103.2 525.0,104.3 525.1,105.9 525.2,108.3 525.3,112.0 525.4,118.8 525.5,166.0 525.6,118.8 525.7,112.0 525.8,108.3 525.9,105.9 526.0,104.3 526.1,103.2 526.2,102.6 526.3,102.4 526.4,102.6 526.5,103.2 526.6,104.3 526.7,105.9 526.8,108.3 526.9,112.0 527.0,118.8" fill="none" stroke="#4a90d9" stroke-width="1.2" stroke-linejoin="round"/>
  <text x="154.5" y="190" text-anchor="middle" font-size="8" fill="#6b7280">n / N</text>
  <text x="424.5" y="190" text-anchor="middle" font-size="8" fill="#6b7280">Normalized frequency (× Fₛ)</text>
</svg>
