<svg xmlns="http://www.w3.org/2000/svg" viewBox="0 0 560 190" width="560" height="190" style="font-family:system-ui,-apple-system,sans-serif">
  <rect width="560" height="190" fill="none"/>
  <line x1="52" y1="152.0" x2="257" y2="152.0" stroke="#e5e7eb" stroke-width="0.5"/>
  <text x="48" y="155.0" text-anchor="end" font-size="7.5" fill="#6b7280">0</text>
  <line x1="52" y1="82.0" x2="257" y2="82.0" stroke="#e5e7eb" stroke-width="0.5"/>
  <text x="48" y="85.0" text-anchor="end" font-size="7.5" fill="#6b7280">0.5</text>
  <line x1="52" y1="12.0" x2="257" y2="12.0" stroke="#e5e7eb" stroke-width="0.5"/>
  <text x="48" y="15.0" text-anchor="end" font-size="7.5" fill="#6b7280">1</text>
  <line x1="52.0" y1="12" x2="52.0" y2="152" stroke="#e5e7eb" stroke-width="0.5"/>
  <text x="52.0" y="164" text-anchor="middle" font-size="7.5" fill="#6b7280">0</text>
  <line x1="154.5" y1="12" x2="154.5" y2="152" stroke="#e5e7eb" stroke-width="0.5"/>
  <text x="154.5" y="164" text-anchor="middle" font-size="7.5" fill="#6b7280">0.5</text>
  <line x1="257.0" y1="12" x2="257.0" y2="152" stroke="#e5e7eb" stroke-width="0.5"/>
  <text x="257.0" y="164" text-anchor="middle" font-size="7.5" fill="#6b7280">1</text>
  <line x1="52" y1="12" x2="52" y2="152" stroke="#d1d5db" stroke-width="0.75"/>
  <line x1="52" y1="152" x2="257" y2="152" stroke="#d1d5db" stroke-width="0.75"/>
  <path d="M52.0,152.0 52.0,152.0 52.8,152.0 53.6,151.9 54.4,151.8 55.2,151.7 56.0,151.5 56.8,151.2 57.6,151.0 58.4,150.6 59.2,150.3 60.0,149.9 60.8,149.4 61.6,149.0 62.5,148.4 63.3,147.9 64.1,147.3 64.9,146.6 65.7,145.9 66.5,145.2 67.3,144.5 68.1,143.7 68.9,142.8 69.7,142.0 70.5,141.1 71.3,140.1 72.1,139.1 72.9,138.1 73.7,137.1 74.5,136.0 75.3,134.9 76.1,133.7 76.9,132.6 77.7,131.3 78.5,130.1 79.3,128.8 80.1,127.5 80.9,126.2 81.7,124.9 82.5,123.5 83.4,122.1 84.2,120.7 85.0,119.2 85.8,117.7 86.6,116.3 87.4,114.7 88.2,113.2 89.0,111.6 89.8,110.1 90.6,108.5 91.4,106.9 92.2,105.3 93.0,103.6 93.8,102.0 94.6,100.3 95.4,98.7 96.2,97.0 97.0,95.3 97.8,93.6 98.6,91.9 99.4,90.2 100.2,88.5 101.0,86.7 101.8,85.0 102.6,83.3 103.5,81.6 104.3,79.8 105.1,78.1 105.9,76.4 106.7,74.7 107.5,73.0 108.3,71.3 109.1,69.6 109.9,67.9 110.7,66.2 111.5,64.5 112.3,62.8 113.1,61.2 113.9,59.6 114.7,57.9 115.5,56.3 116.3,54.7 117.1,53.1 117.9,51.6 118.7,50.0 119.5,48.5 120.3,47.0 121.1,45.5 121.9,44.1 122.7,42.6 123.5,41.2 124.4,39.8 125.2,38.5 126.0,37.1 126.8,35.8 127.6,34.5 128.4,33.3 129.2,32.0 130.0,30.9 130.8,29.7 131.6,28.6 132.4,27.5 133.2,26.4 134.0,25.4 134.8,24.4 135.6,23.4 136.4,22.5 137.2,21.6 138.0,20.7 138.8,19.9 139.6,19.1 140.4,18.4 141.2,17.7 142.0,17.0 142.8,16.4 143.6,15.8 144.5,15.3 145.3,14.8 146.1,14.3 146.9,13.9 147.7,13.5 148.5,13.2 149.3,12.9 150.1,12.6 150.9,12.4 151.7,12.3 152.5,12.1 153.3,12.0 154.1,12.0 154.9,12.0 155.7,12.0 156.5,12.1 157.3,12.3 158.1,12.4 158.9,12.6 159.7,12.9 160.5,13.2 161.3,13.5 162.1,13.9 162.9,14.3 163.7,14.8 164.5,15.3 165.4,15.8 166.2,16.4 167.0,17.0 167.8,17.7 168.6,18.4 169.4,19.1 170.2,19.9 171.0,20.7 171.8,21.6 172.6,22.5 173.4,23.4 174.2,24.4 175.0,25.4 175.8,26.4 176.6,27.5 177.4,28.6 178.2,29.7 179.0,30.9 179.8,32.0 180.6,33.3 181.4,34.5 182.2,35.8 183.0,37.1 183.8,38.5 184.6,39.8 185.5,41.2 186.3,42.6 187.1,44.1 187.9,45.5 188.7,47.0 189.5,48.5 190.3,50.0 191.1,51.6 191.9,53.1 192.7,54.7 193.5,56.3 194.3,57.9 195.1,59.6 195.9,61.2 196.7,62.8 197.5,64.5 198.3,66.2 199.1,67.9 199.9,69.6 200.7,71.3 201.5,73.0 202.3,74.7 203.1,76.4 203.9,78.1 204.7,79.8 205.5,81.6 206.4,83.3 207.2,85.0 208.0,86.7 208.8,88.5 209.6,90.2 210.4,91.9 211.2,93.6 212.0,95.3 212.8,97.0 213.6,98.7 214.4,100.3 215.2,102.0 216.0,103.6 216.8,105.3 217.6,106.9 218.4,108.5 219.2,110.1 220.0,111.6 220.8,113.2 221.6,114.7 222.4,116.3 223.2,117.7 224.0,119.2 224.8,120.7 225.6,122.1 226.5,123.5 227.3,124.9 228.1,126.2 228.9,127.5 229.7,128.8 230.5,130.1 231.3,131.3 232.1,132.6 232.9,133.7 233.7,134.9 234.5,136.0 235.3,137.1 236.1,138.1 236.9,139.1 237.7,140.1 238.5,141.1 239.3,142.0 240.1,142.8 240.9,143.7 241.7,144.5 242.5,145.2 243.3,145.9 244.1,146.6 244.9,147.3 245.7,147.9 246.5,148.4 247.4,149.0 248.2,149.4 249.0,149.9 249.8,150.3 250.6,150.6 251.4,151.0 252.2,151.2 253.0,151.5 253.8,151.7 254.6,151.8 255.4,151.9 256.2,152.0 257.0,152.0 L257.0,152.0 Z" fill="#4a90d9" fill-opacity="0.06"/>
  <polyline points="52.0,152.0 52.8,152.0 53.6,151.9 54.4,151.8 55.2,151.7 56.0,151.5 56.8,151.2 57.6,151.0 58.4,150.6 59.2,150.3 60.0,149.9 60.8,149.4 61.6,149.0 62.5,148.4 63.3,147.9 64.1,147.3 64.9,146.6 65.7,145.9 66.5,145.2 67.3,144.5 68.1,143.7 68.9,142.8 69.7,142.0 70.5,141.1 71.3,140.1 72.1,139.1 72.9,138.1 73.7,137.1 74.5,136.0 75.3,134.9 76.1,133.7 76.9,132.6 77.7,131.3 78.5,130.1 79.3,128.8 80.1,127.5 80.9,126.2 81.7,124.9 82.5,123.5 83.4,122.1 84.2,120.7 85.0,119.2 85.8,117.7 86.6,116.3 87.4,114.7 88.2,113.2 89.0,111.6 89.8,110.1 90.6,108.5 91.4,106.9 92.2,105.3 93.0,103.6 93.8,102.0 94.6,100.3 95.4,98.7 96.2,97.0 97.0,95.3 97.8,93.6 98.6,91.9 99.4,90.2 100.2,88.5 101.0,86.7 101.8,85.0 102.6,83.3 103.5,81.6 104.3,79.8 105.1,78.1 105.9,76.4 106.7,74.7 107.5,73.0 108.3,71.3 109.1,69.6 109.9,67.9 110.7,66.2 111.5,64.5 112.3,62.8 113.1,61.2 113.9,59.6 114.7,57.9 115.5,56.3 116.3,54.7 117.1,53.1 117.9,51.6 118.7,50.0 119.5,48.5 120.3,47.0 121.1,45.5 121.9,44.1 122.7,42.6 123.5,41.2 124.4,39.8 125.2,38.5 126.0,37.1 126.8,35.8 127.6,34.5 128.4,33.3 129.2,32.0 130.0,30.9 130.8,29.7 131.6,28.6 132.4,27.5 133.2,26.4 134.0,25.4 134.8,24.4 135.6,23.4 136.4,22.5 137.2,21.6 138.0,20.7 138.8,19.9 139.6,19.1 140.4,18.4 141.2,17.7 142.0,17.0 142.8,16.4 143.6,15.8 144.5,15.3 145.3,14.8 146.1,14.3 146.9,13.9 147.7,13.5 148.5,13.2 149.3,12.9 150.1,12.6 150.9,12.4 151.7,12.3 152.5,12.1 153.3,12.0 154.1,12.0 154.9,12.0 155.7,12.0 156.5,12.1 157.3,12.3 158.1,12.4 158.9,12.6 159.7,12.9 160.5,13.2 161.3,13.5 162.1,13.9 162.9,14.3 163.7,14.8 164.5,15.3 165.4,15.8 166.2,16.4 167.0,17.0 167.8,17.7 168.6,18.4 169.4,19.1 170.2,19.9 171.0,20.7 171.8,21.6 172.6,22.5 173.4,23.4 174.2,24.4 175.0,25.4 175.8,26.4 176.6,27.5 177.4,28.6 178.2,29.7 179.0,30.9 179.8,32.0 180.6,33.3 181.4,34.5 182.2,35.8 183.0,37.1 183.8,38.5 184.6,39.8 185.5,41.2 186.3,42.6 187.1,44.1 187.9,45.5 188.7,47.0 189.5,48.5 190.3,50.0 191.1,51.6 191.9,53.1 192.7,54.7 193.5,56.3 194.3,57.9 195.1,59.6 195.9,61.2 196.7,62.8 197.5,64.5 198.3,66.2 199.1,67.9 199.9,69.6 200.7,71.3 201.5,73.0 202.3,74.7 203.1,76.4 203.9,78.1 204.7,79.8 205.5,81.6 206.4,83.3 207.2,85.0 208.0,86.7 208.8,88.5 209.6,90.2 210.4,91.9 211.2,93.6 212.0,95.3 212.8,97.0 213.6,98.7 214.4,100.3 215.2,102.0 216.0,103.6 216.8,105.3 217.6,106.9 218.4,108.5 219.2,110.1 220.0,111.6 220.8,113.2 221.6,114.7 222.4,116.3 223.2,117.7 224.0,119.2 224.8,120.7 225.6,122.1 226.5,123.5 227.3,124.9 228.1,126.2 228.9,127.5 229.7,128.8 230.5,130.1 231.3,131.3 232.1,132.6 232.9,133.7 233.7,134.9 234.5,136.0 235.3,137.1 236.1,138.1 236.9,139.1 237.7,140.1 238.5,141.1 239.3,142.0 240.1,142.8 240.9,143.7 241.7,144.5 242.5,145.2 243.3,145.9 244.1,146.6 244.9,147.3 245.7,147.9 246.5,148.4 247.4,149.0 248.2,149.4 249.0,149.9 249.8,150.3 250.6,150.6 251.4,151.0 252.2,151.2 253.0,151.5 253.8,151.7 254.6,151.8 255.4,151.9 256.2,152.0 257.0,152.0" fill="none" stroke="#4a90d9" stroke-width="1.2" stroke-linejoin="round"/>
  <line x1="322" y1="12.0" x2="527" y2="12.0" stroke="#e5e7eb" stroke-width="0.5"/>
  <text x="318" y="15.0" text-anchor="end" font-size="7.5" fill="#6b7280">0</text>
  <line x1="322" y1="58.7" x2="527" y2="58.7" stroke="#e5e7eb" stroke-width="0.5"/>
  <text x="318" y="61.7" text-anchor="end" font-size="7.5" fill="#6b7280">-40</text>
  <line x1="322" y1="105.3" x2="527" y2="105.3" stroke="#e5e7eb" stroke-width="0.5"/>
  <text x="318" y="108.3" text-anchor="end" font-size="7.5" fill="#6b7280">-80</text>
  <line x1="322" y1="152.0" x2="527" y2="152.0" stroke="#e5e7eb" stroke-width="0.5"/>
  <text x="318" y="155.0" text-anchor="end" font-size="7.5" fill="#6b7280">-120</text>
  <line x1="322.0" y1="12" x2="322.0" y2="152" stroke="#e5e7eb" stroke-width="0.5"/>
  <text x="322.0" y="164" text-anchor="middle" font-size="7.5" fill="#6b7280">0</text>
  <line x1="363.0" y1="12" x2="363.0" y2="152" stroke="#e5e7eb" stroke-width="0.5"/>
  <text x="363.0" y="164" text-anchor="middle" font-size="7.5" fill="#6b7280">0.1</text>
  <line x1="404.0" y1="12" x2="404.0" y2="152" stroke="#e5e7eb" stroke-width="0.5"/>
  <text x="404.0" y="164" text-anchor="middle" font-size="7.5" fill="#6b7280">0.2</text>
  <line x1="445.0" y1="12" x2="445.0" y2="152" stroke="#e5e7eb" stroke-width="0.5"/>
  <text x="445.0" y="164" text-anchor="middle" font-size="7.5" fill="#6b7280">0.3</text>
  <line x1="486.0" y1="12" x2="486.0" y2="152" stroke="#e5e7eb" stroke-width="0.5"/>
  <text x="486.0" y="164" text-anchor="middle" font-size="7.5" fill="#6b7280">0.4</text>
  <line x1="527.0" y1="12" x2="527.0" y2="152" stroke="#e5e7eb" stroke-width="0.5"/>
  <text x="527.0" y="164" text-anchor="middle" font-size="7.5" fill="#6b7280">0.5</text>
  <line x1="322" y1="12" x2="322" y2="152" stroke="#d1d5db" stroke-width="0.75"/>
  <line x1="322" y1="152" x2="527" y2="152" stroke="#d1d5db" stroke-width="0.75"/>
  <polyline points="322.0,12.0 322.1,12.0 322.2,12.1 322.3,12.2 322.4,12.4 322.5,12.6 322.6,12.9 322.7,13.3 322.8,13.6 322.9,14.1 323.0,14.6 323.1,15.2 323.2,15.8 323.3,16.5 323.4,17.2 323.5,18.1 323.6,19.0 323.7,19.9 323.8,21.0 323.9,22.2 324.0,23.4 324.1,24.8 324.2,26.3 324.3,28.0 324.4,29.8 324.5,31.8 324.6,34.1 324.7,36.7 324.8,39.7 324.9,43.5 325.0,48.4 325.1,55.8 325.2,79.2 325.3,60.7 325.4,54.2 325.5,51.3 325.6,49.7 325.7,48.9 325.8,48.7 325.9,48.9 326.0,49.6 326.1,50.5 326.2,51.9 326.3,53.7 326.4,56.0 326.5,59.0 326.6,63.2 326.7,69.9 326.8,89.1 326.9,75.0 327.0,67.7 327.1,64.2 327.2,62.2 327.3,61.1 327.4,60.5 327.5,60.4 327.6,60.7 327.7,61.4 327.8,62.5 327.9,64.0 328.0,66.0 328.1,68.7 328.2,72.6 328.3,78.8 328.4,95.5 328.5,85.0 328.6,77.0 328.7,73.2 328.8,71.0 328.9,69.6 329.0,68.8 329.1,68.6 329.2,68.7 329.3,69.2 329.4,70.1 329.5,71.5 329.6,73.3 329.7,75.9 329.8,79.6 329.9,85.5 330.0,100.3 330.1,92.8 330.2,84.2 330.3,80.1 330.4,77.7 330.5,76.2 330.6,75.4 330.7,75.0 330.8,75.0 330.9,75.4 331.0,76.2 331.1,77.4 331.2,79.2 331.3,81.6 331.4,85.1 331.5,90.8 331.6,104.1 331.7,99.3 331.8,90.1 331.9,85.8 332.0,83.3 332.1,81.7 332.2,80.7 332.3,80.2 332.4,80.2 332.5,80.5 332.6,81.2 332.7,82.4 332.8,84.0 332.9,86.4 333.0,89.8 333.1,95.1 333.2,107.3 333.3,105.1 333.4,95.2 333.5,90.7 333.6,88.0 333.7,86.3 333.8,85.3 333.9,84.7 334.0,84.6 334.1,84.9 334.2,85.5 334.3,86.6 334.4,88.2 334.5,90.4 334.6,93.7 334.7,98.9 334.8,110.1 334.9,110.4 335.0,99.6 335.1,94.9 335.2,92.1 335.3,90.4 335.4,89.2 335.5,88.6 335.6,88.5 335.7,88.7 335.8,89.3 335.9,90.3 336.0,91.8 336.1,94.0 336.2,97.1 336.3,102.1 336.4,112.5 336.5,115.3 336.6,103.6 336.7,98.7 336.8,95.8 336.9,93.9 337.0,92.8 337.1,92.1 337.2,91.9 337.3,92.0 337.4,92.6 337.5,93.6 337.6,95.0 337.7,97.1 337.8,100.2 337.9,105.0 338.0,114.7 338.1,120.1 338.2,107.2 338.3,102.1 338.4,99.1 338.5,97.2 338.6,95.9 338.7,95.2 338.8,95.0 338.9,95.1 339.0,95.6 339.1,96.5 339.2,97.9 339.3,100.0 339.4,102.9 339.5,107.5 339.6,116.6 339.7,124.9 339.8,110.6 339.9,105.2 340.0,102.1 340.1,100.1 340.2,98.8 340.3,98.1 340.4,97.8 340.5,97.8 340.6,98.3 340.7,99.2 340.8,100.6 340.9,102.5 341.0,105.4 341.1,109.8 341.2,118.4 341.3,129.8 341.4,113.7 341.5,108.1 341.6,104.9 341.7,102.8 341.8,101.5 341.9,100.7 342.0,100.3 342.1,100.4 342.2,100.8 342.3,101.6 342.4,103.0 342.5,104.9 342.6,107.7 342.7,112.0 342.8,120.0 342.9,135.2 343.0,116.6 343.1,110.8 343.2,107.4 343.3,105.3 343.4,103.9 343.5,103.1 343.6,102.7 343.7,102.7 343.8,103.1 343.9,103.9 344.0,105.2 344.1,107.0 344.2,109.7 344.3,113.9 344.4,121.6 344.5,141.7 344.6,119.4 344.7,113.3 344.8,109.8 344.9,107.6 345.0,106.2 345.1,105.3 345.2,104.9 345.3,104.9 345.4,105.2 345.5,106.0 345.6,107.2 345.7,109.0 345.8,111.7 345.9,115.7 346.0,123.0 346.1,151.1 346.2,122.0 346.3,115.6 346.4,112.1 346.5,109.8 346.6,108.3 346.7,107.4 346.8,106.9 346.9,106.9 347.0,107.2 347.1,107.9 347.2,109.1 347.3,110.9 347.4,113.5 347.5,117.4 347.6,124.3 347.7,152.0 347.8,124.6 347.9,117.9 348.0,114.2 348.1,111.9 348.2,110.3 348.3,109.4 348.4,108.9 348.5,108.8 348.6,109.1 348.7,109.8 348.8,110.9 348.9,112.7 349.0,115.1 349.1,118.9 349.2,125.5 349.3,152.0 349.4,127.1 349.5,120.0 349.6,116.2 349.7,113.8 349.8,112.2 349.9,111.2 350.0,110.7 350.1,110.6 350.2,110.8 350.3,111.5 350.4,112.6 350.5,114.3 350.6,116.7 350.7,120.4 350.8,126.7 350.9,148.7 351.0,129.5 351.1,122.1 351.2,118.1 351.3,115.7 351.4,114.0 351.5,113.0 351.6,112.4 351.7,112.3 351.8,112.5 351.9,113.1 352.0,114.2 352.1,115.8 352.2,118.2 352.3,121.8 352.4,127.8 352.5,146.3 352.6,131.9 352.7,124.0 352.8,120.0 352.9,117.4 353.0,115.7 353.1,114.7 353.2,114.1 353.3,113.9 353.4,114.1 353.5,114.7 353.6,115.7 353.7,117.3 353.8,119.6 353.9,123.1 354.0,128.9 354.1,145.0 354.2,134.3 354.3,125.9 354.4,121.7 354.5,119.1 354.6,117.4 354.7,116.2 354.8,115.6 354.9,115.4 355.0,115.6 355.1,116.1 355.2,117.2 355.3,118.7 355.4,120.9 355.5,124.3 355.6,129.9 355.7,144.3 355.8,136.6 355.9,127.7 356.0,123.4 356.1,120.7 356.3,118.9 356.4,117.8 356.5,117.1 356.6,116.8 356.7,117.0 356.8,117.5 356.9,118.5 357.0,120.0 357.1,122.2 357.2,125.5 357.3,130.8 357.4,143.9 357.5,139.0 357.6,129.5 357.7,125.0 357.8,122.2 357.9,120.4 358.0,119.2 358.1,118.5 358.2,118.2 358.3,118.4 358.4,118.9 358.5,119.8 358.6,121.3 358.7,123.4 358.8,126.6 358.9,131.7 359.0,143.7 359.1,141.4 359.2,131.2 359.3,126.6 359.4,123.7 359.5,121.8 359.6,120.6 359.7,119.9 359.8,119.6 359.9,119.7 360.0,120.1 360.1,121.1 360.2,122.5 360.3,124.6 360.4,127.6 360.5,132.6 360.6,143.6 360.7,143.9 360.8,132.9 360.9,128.1 361.0,125.1 361.1,123.2 361.2,121.9 361.3,121.2 361.4,120.8 361.5,120.9 361.6,121.4 361.7,122.2 361.8,123.6 361.9,125.7 362.0,128.7 362.1,133.5 362.2,143.7 362.3,146.5 362.4,134.6 362.5,129.5 362.6,126.5 362.7,124.5 362.8,123.2 362.9,122.4 363.0,122.1 363.1,122.1 363.2,122.5 363.3,123.4 363.4,124.7 363.5,126.7 363.6,129.6 363.7,134.3 363.8,143.8 363.9,149.3 364.0,136.2 364.1,131.0 364.2,127.9 364.3,125.8 364.4,124.5 364.5,123.6 364.6,123.3 364.7,123.3 364.8,123.7 364.9,124.5 365.0,125.8 365.1,127.7 365.2,130.6 365.3,135.1 365.4,144.0 365.5,152.0 365.6,137.8 365.7,132.4 365.8,129.2 365.9,127.1 366.0,125.7 366.1,124.8 366.2,124.4 366.3,124.4 366.4,124.8 366.5,125.5 366.6,126.8 366.7,128.7 366.8,131.5 366.9,135.8 367.0,144.2 367.1,152.0 367.2,139.4 367.3,133.7 367.4,130.4 367.5,128.3 367.6,126.8 367.7,126.0 367.8,125.5 367.9,125.5 368.0,125.8 368.1,126.6 368.2,127.8 368.3,129.6 368.4,132.3 368.5,136.5 368.6,144.5 368.7,152.0 368.8,141.0 368.9,135.1 369.0,131.6 369.1,129.4 369.2,128.0 369.3,127.0 369.4,126.6 369.5,126.5 369.6,126.8 369.7,127.5 369.8,128.7 369.9,130.5 370.0,133.2 370.1,137.2 370.2,144.8 370.3,152.0 370.4,142.6 370.5,136.4 370.6,132.8 370.7,130.6 370.8,129.1 370.9,128.1 371.0,127.6 371.1,127.5 371.2,127.8 371.3,128.5 371.4,129.7 371.5,131.4 371.6,134.0 371.7,137.9 371.8,145.1 371.9,152.0 372.0,144.1 372.1,137.6 372.2,134.0 372.3,131.7 372.4,130.1 372.5,129.1 372.6,128.6 372.7,128.5 372.8,128.8 372.9,129.4 373.0,130.6 373.1,132.3 373.2,134.8 373.3,138.6 373.4,145.4 373.5,152.0 373.6,145.7 373.7,138.9 373.8,135.2 373.9,132.8 374.0,131.2 374.1,130.1 374.2,129.6 374.3,129.4 374.4,129.7 374.5,130.3 374.6,131.4 374.7,133.1 374.8,135.5 374.9,139.2 375.0,145.8 375.1,152.0 375.2,147.3 375.3,140.1 375.4,136.3 375.5,133.8 375.6,132.2 375.7,131.1 375.8,130.5 375.9,130.4 376.0,130.6 376.1,131.2 376.2,132.3 376.3,133.9 376.4,136.2 376.5,139.9 376.6,146.1 376.7,152.0 376.8,148.9 376.9,141.4 377.0,137.4 377.1,134.8 377.2,133.2 377.3,132.1 377.4,131.5 377.5,131.3 377.6,131.4 377.7,132.0 377.8,133.1 377.9,134.6 378.0,137.0 378.1,140.5 378.2,146.5 378.3,152.0 378.4,150.5 378.5,142.6 378.6,138.5 378.7,135.9 378.8,134.1 378.9,133.0 379.0,132.4 379.1,132.1 379.2,132.3 379.3,132.9 379.4,133.9 379.5,135.4 379.6,137.6 379.7,141.1 379.8,146.8 379.9,152.0 380.0,152.0 380.1,143.8 380.2,139.5 380.3,136.8 380.4,135.1 380.5,133.9 380.6,133.2 380.7,133.0 380.8,133.1 380.9,133.6 381.0,134.6 381.1,136.1 381.2,138.3 381.3,141.6 381.4,147.2 381.5,152.0 381.6,152.0 381.7,145.0 381.8,140.6 381.9,137.8 382.0,136.0 382.1,134.8 382.2,134.1 382.3,133.8 382.4,133.9 382.5,134.4 382.6,135.4 382.7,136.8 382.8,139.0 382.9,142.2 383.0,147.5 383.1,152.0 383.2,152.0 383.3,146.1 383.4,141.6 383.5,138.8 383.6,136.9 383.7,135.7 383.8,134.9 383.9,134.6 384.0,134.7 384.1,135.2 384.2,136.1 384.3,137.5 384.4,139.6 384.5,142.7 384.6,147.9 384.7,152.0 384.8,152.0 384.9,147.3 385.0,142.6 385.1,139.7 385.2,137.8 385.3,136.5 385.4,135.8 385.5,135.4 385.6,135.5 385.7,135.9 385.8,136.8 385.9,138.2 386.0,140.2 386.1,143.3 386.2,148.2 386.3,152.0 386.4,152.0 386.5,148.5 386.6,143.6 386.7,140.6 386.8,138.6 386.9,137.3 387.0,136.6 387.1,136.2 387.2,136.2 387.3,136.6 387.4,137.5 387.5,138.8 387.6,140.8 387.7,143.8 387.8,148.6 387.9,152.0 388.0,152.0 388.1,149.7 388.2,144.6 388.3,141.5 388.4,139.5 388.5,138.2 388.6,137.3 388.7,137.0 388.8,137.0 388.9,137.4 389.0,138.2 389.1,139.5 389.2,141.4 389.3,144.3 389.4,148.9 389.5,152.0 389.6,152.0 389.7,150.8 389.8,145.6 389.9,142.4 390.0,140.3 390.1,139.0 390.2,138.1 390.3,137.7 390.4,137.7 390.5,138.0 390.6,138.8 390.7,140.1 390.8,142.0 390.9,144.8 391.0,149.3 391.1,152.0 391.2,152.0 391.3,152.0 391.4,146.5 391.5,143.3 391.6,141.2 391.7,139.7 391.8,138.9 391.9,138.4 392.0,138.4 392.1,138.7 392.2,139.5 392.3,140.7 392.4,142.6 392.5,145.3 392.6,149.6 392.7,152.0 392.8,152.0 392.9,152.0 393.0,147.5 393.1,144.2 393.2,142.0 393.3,140.5 393.4,139.6 393.5,139.1 393.6,139.1 393.7,139.4 393.8,140.1 393.9,141.3 394.0,143.1 394.1,145.8 394.2,150.0 394.3,152.0 394.4,152.0 394.5,152.0 394.6,148.4 394.7,145.0 394.8,142.8 394.9,141.3 395.0,140.3 395.1,139.8 395.2,139.7 395.3,140.0 395.4,140.7 395.5,141.9 395.6,143.7 395.7,146.3 395.8,150.3 395.9,152.0 396.0,152.0 396.1,152.0 396.2,149.4 396.3,145.9 396.4,143.6 396.5,142.0 396.6,141.0 396.7,140.5 396.8,140.4 396.9,140.7 397.0,141.3 397.1,142.5 397.2,144.2 397.3,146.8 397.4,150.7 397.5,152.0 397.6,152.0 397.7,152.0 397.8,150.3 397.9,146.7 398.0,144.3 398.1,142.8 398.2,141.8 398.3,141.2 398.4,141.1 398.5,141.3 398.6,141.9 398.7,143.1 398.8,144.7 398.9,147.2 399.0,151.0 399.1,152.0 399.2,152.0 399.3,152.0 399.4,151.3 399.5,147.5 399.6,145.1 399.7,143.5 399.8,142.4 399.9,141.9 400.0,141.7 400.1,141.9 400.2,142.5 400.3,143.6 400.4,145.2 400.5,147.7 400.6,151.4 400.7,152.0 400.8,152.0 400.9,152.0 401.0,152.0 401.1,148.3 401.2,145.9 401.3,144.2 401.4,143.1 401.5,142.5 401.6,142.3 401.7,142.5 401.8,143.1 401.9,144.2 402.0,145.8 402.1,148.1 402.2,151.7 402.3,152.0 402.4,152.0 402.5,152.0 402.6,152.0 402.7,149.2 402.8,146.6 402.9,144.9 403.0,143.8 403.1,143.2 403.2,142.9 403.3,143.1 403.4,143.7 403.5,144.7 403.6,146.2 403.7,148.5 403.8,152.0 403.9,152.0 404.0,152.0 404.1,152.0 404.2,152.0 404.3,150.0 404.4,147.3 404.5,145.6 404.6,144.5 404.7,143.8 404.8,143.6 404.9,143.7 405.0,144.2 405.1,145.2 405.2,146.7 405.3,149.0 405.4,152.0 405.5,152.0 405.6,152.0 405.7,152.0 405.8,152.0 405.9,150.8 406.0,148.1 406.1,146.3 406.2,145.1 406.3,144.4 406.4,144.1 406.5,144.3 406.6,144.8 406.7,145.7 406.8,147.2 406.9,149.4 407.0,152.0 407.1,152.0 407.2,152.0 407.3,152.0 407.4,152.0 407.5,151.6 407.6,148.8 407.7,147.0 407.8,145.8 407.9,145.0 408.0,144.7 408.1,144.8 408.2,145.3 408.3,146.2 408.4,147.7 408.5,149.8 408.6,152.0 408.7,152.0 408.8,152.0 408.9,152.0 409.0,152.0 409.1,152.0 409.2,149.5 409.3,147.6 409.4,146.4 409.5,145.6 409.6,145.3 409.7,145.4 409.8,145.9 409.9,146.7 410.0,148.2 410.1,150.2 410.2,152.0 410.3,152.0 410.4,152.0 410.5,152.0 410.6,152.0 410.7,152.0 410.8,150.2 410.9,148.3 411.0,147.0 411.1,146.3 411.2,145.9 411.3,145.9 411.4,146.4 411.5,147.2 411.6,148.6 411.7,150.6 411.8,152.0 411.9,152.0 412.0,152.0 412.1,152.0 412.2,152.0 412.3,152.0 412.4,150.9 412.5,149.0 412.6,147.7 412.7,146.8 412.8,146.5 412.9,146.5 413.0,146.9 413.1,147.7 413.2,149.1 413.3,151.0 413.4,152.0 413.5,152.0 413.6,152.0 413.7,152.0 413.8,152.0 413.9,152.0 414.0,151.7 414.1,149.6 414.2,148.3 414.3,147.4 414.4,147.0 414.5,147.0 414.6,147.4 414.7,148.2 414.8,149.5 414.9,151.4 415.0,152.0 415.1,152.0 415.2,152.0 415.3,152.0 415.4,152.0 415.5,152.0 415.6,152.0 415.7,150.3 415.8,148.9 415.9,148.0 416.0,147.6 416.1,147.5 416.2,147.9 416.3,148.7 416.4,149.9 416.5,151.8 416.6,152.0 416.7,152.0 416.8,152.0 416.9,152.0 417.0,152.0 417.1,152.0 417.2,152.0 417.3,150.9 417.4,149.5 417.5,148.6 417.6,148.1 417.7,148.1 417.8,148.4 417.9,149.2 418.0,150.4 418.1,152.0 418.2,152.0 418.3,152.0 418.4,152.0 418.5,152.0 418.6,152.0 418.7,152.0 418.8,152.0 418.9,151.5 419.0,150.1 419.1,149.2 419.2,148.7 419.3,148.6 419.4,148.9 419.5,149.6 419.6,150.8 419.7,152.0 419.8,152.0 419.9,152.0 420.0,152.0 420.1,152.0 420.2,152.0 420.3,152.0 420.4,152.0 420.5,152.0 420.6,150.7 420.7,149.7 420.8,149.2 420.9,149.1 421.0,149.4 421.1,150.1 421.2,151.2 421.3,152.0 421.4,152.0 421.5,152.0 421.6,152.0 421.7,152.0 421.8,152.0 421.9,152.0 422.0,152.0 422.1,152.0 422.2,151.3 422.3,150.3 422.4,149.7 422.5,149.6 422.6,149.9 422.7,150.5 422.8,151.7 422.9,152.0 423.0,152.0 423.1,152.0 423.2,152.0 423.3,152.0 423.4,152.0 423.5,152.0 423.6,152.0 423.7,152.0 423.8,151.8 423.9,150.8 424.0,150.3 424.1,150.1 424.2,150.3 424.3,151.0 424.4,152.0 424.6,152.0 424.7,152.0 424.8,152.0 424.9,152.0 425.0,152.0 425.1,152.0 425.2,152.0 425.3,152.0 425.4,152.0 425.5,152.0 425.6,151.4 425.7,150.8 425.8,150.6 425.9,150.8 426.0,151.4 426.1,152.0 426.2,152.0 426.3,152.0 426.4,152.0 426.5,152.0 426.6,152.0 426.7,152.0 426.8,152.0 426.9,152.0 427.0,152.0 427.1,152.0 427.2,151.9 427.3,151.3 427.4,151.1 427.5,151.3 427.6,151.9 427.7,152.0 427.8,152.0 427.9,152.0 428.0,152.0 428.1,152.0 428.2,152.0 428.3,152.0 428.4,152.0 428.5,152.0 428.6,152.0 428.7,152.0 428.8,152.0 428.9,151.8 429.0,151.6 429.1,151.7 429.2,152.0 429.3,152.0 429.4,152.0 429.5,152.0 429.6,152.0 429.7,152.0 429.8,152.0 429.9,152.0 430.0,152.0 430.1,152.0 430.2,152.0 430.3,152.0 430.4,152.0 430.5,152.0 430.6,152.0 430.7,152.0 430.8,152.0 430.9,152.0 431.0,152.0 431.1,152.0 431.2,152.0 431.3,152.0 431.4,152.0 431.5,152.0 431.6,152.0 431.7,152.0 431.8,152.0 431.9,152.0 432.0,152.0 432.1,152.0 432.2,152.0 432.3,152.0 432.4,152.0 432.5,152.0 432.6,152.0 432.7,152.0 432.8,152.0 432.9,152.0 433.0,152.0 433.1,152.0 433.2,152.0 433.3,152.0 433.4,152.0 433.5,152.0 433.6,152.0 433.7,152.0 433.8,152.0 433.9,152.0 434.0,152.0 434.1,152.0 434.2,152.0 434.3,152.0 434.4,152.0 434.5,152.0 434.6,152.0 434.7,152.0 434.8,152.0 434.9,152.0 435.0,152.0 435.1,152.0 435.2,152.0 435.3,152.0 435.4,152.0 435.5,152.0 435.6,152.0 435.7,152.0 435.8,152.0 435.9,152.0 436.0,152.0 436.1,152.0 436.2,152.0 436.3,152.0 436.4,152.0 436.5,152.0 436.6,152.0 436.7,152.0 436.8,152.0 436.9,152.0 437.0,152.0 437.1,152.0 437.2,152.0 437.3,152.0 437.4,152.0 437.5,152.0 437.6,152.0 437.7,152.0 437.8,152.0 437.9,152.0 438.0,152.0 438.1,152.0 438.2,152.0 438.3,152.0 438.4,152.0 438.5,152.0 438.6,152.0 438.7,152.0 438.8,152.0 438.9,152.0 439.0,152.0 439.1,152.0 439.2,152.0 439.3,152.0 439.4,152.0 439.5,152.0 439.6,152.0 439.7,152.0 439.8,152.0 439.9,152.0 440.0,152.0 440.1,152.0 440.2,152.0 440.3,152.0 440.4,152.0 440.5,152.0 440.6,152.0 440.7,152.0 440.8,152.0 440.9,152.0 441.0,152.0 441.1,152.0 441.2,152.0 441.3,152.0 441.4,152.0 441.5,152.0 441.6,152.0 441.7,152.0 441.8,152.0 441.9,152.0 442.0,152.0 442.1,152.0 442.2,152.0 442.3,152.0 442.4,152.0 442.5,152.0 442.6,152.0 442.7,152.0 442.8,152.0 442.9,152.0 443.0,152.0 443.1,152.0 443.2,152.0 443.3,152.0 443.4,152.0 443.5,152.0 443.6,152.0 443.7,152.0 443.8,152.0 443.9,152.0 444.0,152.0 444.1,152.0 444.2,152.0 444.3,152.0 444.4,152.0 444.5,152.0 444.6,152.0 444.7,152.0 444.8,152.0 444.9,152.0 445.0,152.0 445.1,152.0 445.2,152.0 445.3,152.0 445.4,152.0 445.5,152.0 445.6,152.0 445.7,152.0 445.8,152.0 445.9,152.0 446.0,152.0 446.1,152.0 446.2,152.0 446.3,152.0 446.4,152.0 446.5,152.0 446.6,152.0 446.7,152.0 446.8,152.0 446.9,152.0 447.0,152.0 447.1,152.0 447.2,152.0 447.3,152.0 447.4,152.0 447.5,152.0 447.6,152.0 447.7,152.0 447.8,152.0 447.9,152.0 448.0,152.0 448.1,152.0 448.2,152.0 448.3,152.0 448.4,152.0 448.5,152.0 448.6,152.0 448.7,152.0 448.8,152.0 448.9,152.0 449.0,152.0 449.1,152.0 449.2,152.0 449.3,152.0 449.4,152.0 449.5,152.0 449.6,152.0 449.7,152.0 449.8,152.0 449.9,152.0 450.0,152.0 450.1,152.0 450.2,152.0 450.3,152.0 450.4,152.0 450.5,152.0 450.6,152.0 450.7,152.0 450.8,152.0 450.9,152.0 451.0,152.0 451.1,152.0 451.2,152.0 451.3,152.0 451.4,152.0 451.5,152.0 451.6,152.0 451.7,152.0 451.8,152.0 451.9,152.0 452.0,152.0 452.1,152.0 452.2,152.0 452.3,152.0 452.4,152.0 452.5,152.0 452.6,152.0 452.7,152.0 452.8,152.0 452.9,152.0 453.0,152.0 453.1,152.0 453.2,152.0 453.3,152.0 453.4,152.0 453.5,152.0 453.6,152.0 453.7,152.0 453.8,152.0 453.9,152.0 454.0,152.0 454.1,152.0 454.2,152.0 454.3,152.0 454.4,152.0 454.5,152.0 454.6,152.0 454.7,152.0 454.8,152.0 454.9,152.0 455.0,152.0 455.1,152.0 455.2,152.0 455.3,152.0 455.4,152.0 455.5,152.0 455.6,152.0 455.7,152.0 455.8,152.0 455.9,152.0 456.0,152.0 456.1,152.0 456.2,152.0 456.3,152.0 456.4,152.0 456.5,152.0 456.6,152.0 456.7,152.0 456.8,152.0 456.9,152.0 457.0,152.0 457.1,152.0 457.2,152.0 457.3,152.0 457.4,152.0 457.5,152.0 457.6,152.0 457.7,152.0 457.8,152.0 457.9,152.0 458.0,152.0 458.1,152.0 458.2,152.0 458.3,152.0 458.4,152.0 458.5,152.0 458.6,152.0 458.7,152.0 458.8,152.0 458.9,152.0 459.0,152.0 459.1,152.0 459.2,152.0 459.3,152.0 459.4,152.0 459.5,152.0 459.6,152.0 459.7,152.0 459.8,152.0 459.9,152.0 460.0,152.0 460.1,152.0 460.2,152.0 460.3,152.0 460.4,152.0 460.5,152.0 460.6,152.0 460.7,152.0 460.8,152.0 460.9,152.0 461.0,152.0 461.1,152.0 461.2,152.0 461.3,152.0 461.4,152.0 461.5,152.0 461.6,152.0 461.7,152.0 461.8,152.0 461.9,152.0 462.0,152.0 462.1,152.0 462.2,152.0 462.3,152.0 462.4,152.0 462.5,152.0 462.6,152.0 462.7,152.0 462.8,152.0 462.9,152.0 463.0,152.0 463.1,152.0 463.2,152.0 463.3,152.0 463.4,152.0 463.5,152.0 463.6,152.0 463.7,152.0 463.8,152.0 463.9,152.0 464.0,152.0 464.1,152.0 464.2,152.0 464.3,152.0 464.4,152.0 464.5,152.0 464.6,152.0 464.7,152.0 464.8,152.0 464.9,152.0 465.0,152.0 465.1,152.0 465.2,152.0 465.3,152.0 465.4,152.0 465.5,152.0 465.6,152.0 465.7,152.0 465.8,152.0 465.9,152.0 466.0,152.0 466.1,152.0 466.2,152.0 466.3,152.0 466.4,152.0 466.5,152.0 466.6,152.0 466.7,152.0 466.8,152.0 466.9,152.0 467.0,152.0 467.1,152.0 467.2,152.0 467.3,152.0 467.4,152.0 467.5,152.0 467.6,152.0 467.7,152.0 467.8,152.0 467.9,152.0 468.0,152.0 468.1,152.0 468.2,152.0 468.3,152.0 468.4,152.0 468.5,152.0 468.6,152.0 468.7,152.0 468.8,152.0 468.9,152.0 469.0,152.0 469.1,152.0 469.2,152.0 469.3,152.0 469.4,152.0 469.5,152.0 469.6,152.0 469.7,152.0 469.8,152.0 469.9,152.0 470.0,152.0 470.1,152.0 470.2,152.0 470.3,152.0 470.4,152.0 470.5,152.0 470.6,152.0 470.7,152.0 470.8,152.0 470.9,152.0 471.0,152.0 471.1,152.0 471.2,152.0 471.3,152.0 471.4,152.0 471.5,152.0 471.6,152.0 471.7,152.0 471.8,152.0 471.9,152.0 472.0,152.0 472.1,152.0 472.2,152.0 472.3,152.0 472.4,152.0 472.5,152.0 472.6,152.0 472.7,152.0 472.8,152.0 472.9,152.0 473.0,152.0 473.1,152.0 473.2,152.0 473.3,152.0 473.4,152.0 473.5,152.0 473.6,152.0 473.7,152.0 473.8,152.0 473.9,152.0 474.0,152.0 474.1,152.0 474.2,152.0 474.3,152.0 474.4,152.0 474.5,152.0 474.6,152.0 474.7,152.0 474.8,152.0 474.9,152.0 475.0,152.0 475.1,152.0 475.2,152.0 475.3,152.0 475.4,152.0 475.5,152.0 475.6,152.0 475.7,152.0 475.8,152.0 475.9,152.0 476.0,152.0 476.1,152.0 476.2,152.0 476.3,152.0 476.4,152.0 476.5,152.0 476.6,152.0 476.7,152.0 476.8,152.0 476.9,152.0 477.0,152.0 477.1,152.0 477.2,152.0 477.3,152.0 477.4,152.0 477.5,152.0 477.6,152.0 477.7,152.0 477.8,152.0 477.9,152.0 478.0,152.0 478.1,152.0 478.2,152.0 478.3,152.0 478.4,152.0 478.5,152.0 478.6,152.0 478.7,152.0 478.8,152.0 478.9,152.0 479.0,152.0 479.1,152.0 479.2,152.0 479.3,152.0 479.4,152.0 479.5,152.0 479.6,152.0 479.7,152.0 479.8,152.0 479.9,152.0 480.0,152.0 480.1,152.0 480.2,152.0 480.3,152.0 480.4,152.0 480.5,152.0 480.6,152.0 480.7,152.0 480.8,152.0 480.9,152.0 481.0,152.0 481.1,152.0 481.2,152.0 481.3,152.0 481.4,152.0 481.5,152.0 481.6,152.0 481.7,152.0 481.8,152.0 481.9,152.0 482.0,152.0 482.1,152.0 482.2,152.0 482.3,152.0 482.4,152.0 482.5,152.0 482.6,152.0 482.7,152.0 482.8,152.0 482.9,152.0 483.0,152.0 483.1,152.0 483.2,152.0 483.3,152.0 483.4,152.0 483.5,152.0 483.6,152.0 483.7,152.0 483.8,152.0 483.9,152.0 484.0,152.0 484.1,152.0 484.2,152.0 484.3,152.0 484.4,152.0 484.5,152.0 484.6,152.0 484.7,152.0 484.8,152.0 484.9,152.0 485.0,152.0 485.1,152.0 485.2,152.0 485.3,152.0 485.4,152.0 485.5,152.0 485.6,152.0 485.7,152.0 485.8,152.0 485.9,152.0 486.0,152.0 486.1,152.0 486.2,152.0 486.3,152.0 486.4,152.0 486.5,152.0 486.6,152.0 486.7,152.0 486.8,152.0 486.9,152.0 487.0,152.0 487.1,152.0 487.2,152.0 487.3,152.0 487.4,152.0 487.5,152.0 487.6,152.0 487.7,152.0 487.8,152.0 487.9,152.0 488.0,152.0 488.1,152.0 488.2,152.0 488.3,152.0 488.4,152.0 488.5,152.0 488.6,152.0 488.7,152.0 488.8,152.0 488.9,152.0 489.0,152.0 489.1,152.0 489.2,152.0 489.3,152.0 489.4,152.0 489.5,152.0 489.6,152.0 489.7,152.0 489.8,152.0 489.9,152.0 490.0,152.0 490.1,152.0 490.2,152.0 490.3,152.0 490.4,152.0 490.5,152.0 490.6,152.0 490.7,152.0 490.8,152.0 490.9,152.0 491.0,152.0 491.1,152.0 491.2,152.0 491.3,152.0 491.4,152.0 491.5,152.0 491.6,152.0 491.7,152.0 491.8,152.0 491.9,152.0 492.0,152.0 492.1,152.0 492.2,152.0 492.3,152.0 492.4,152.0 492.5,152.0 492.6,152.0 492.7,152.0 492.9,152.0 493.0,152.0 493.1,152.0 493.2,152.0 493.3,152.0 493.4,152.0 493.5,152.0 493.6,152.0 493.7,152.0 493.8,152.0 493.9,152.0 494.0,152.0 494.1,152.0 494.2,152.0 494.3,152.0 494.4,152.0 494.5,152.0 494.6,152.0 494.7,152.0 494.8,152.0 494.9,152.0 495.0,152.0 495.1,152.0 495.2,152.0 495.3,152.0 495.4,152.0 495.5,152.0 495.6,152.0 495.7,152.0 495.8,152.0 495.9,152.0 496.0,152.0 496.1,152.0 496.2,152.0 496.3,152.0 496.4,152.0 496.5,152.0 496.6,152.0 496.7,152.0 496.8,152.0 496.9,152.0 497.0,152.0 497.1,152.0 497.2,152.0 497.3,152.0 497.4,152.0 497.5,152.0 497.6,152.0 497.7,152.0 497.8,152.0 497.9,152.0 498.0,152.0 498.1,152.0 498.2,152.0 498.3,152.0 498.4,152.0 498.5,152.0 498.6,152.0 498.7,152.0 498.8,152.0 498.9,152.0 499.0,152.0 499.1,152.0 499.2,152.0 499.3,152.0 499.4,152.0 499.5,152.0 499.6,152.0 499.7,152.0 499.8,152.0 499.9,152.0 500.0,152.0 500.1,152.0 500.2,152.0 500.3,152.0 500.4,152.0 500.5,152.0 500.6,152.0 500.7,152.0 500.8,152.0 500.9,152.0 501.0,152.0 501.1,152.0 501.2,152.0 501.3,152.0 501.4,152.0 501.5,152.0 501.6,152.0 501.7,152.0 501.8,152.0 501.9,152.0 502.0,152.0 502.1,152.0 502.2,152.0 502.3,152.0 502.4,152.0 502.5,152.0 502.6,152.0 502.7,152.0 502.8,152.0 502.9,152.0 503.0,152.0 503.1,152.0 503.2,152.0 503.3,152.0 503.4,152.0 503.5,152.0 503.6,152.0 503.7,152.0 503.8,152.0 503.9,152.0 504.0,152.0 504.1,152.0 504.2,152.0 504.3,152.0 504.4,152.0 504.5,152.0 504.6,152.0 504.7,152.0 504.8,152.0 504.9,152.0 505.0,152.0 505.1,152.0 505.2,152.0 505.3,152.0 505.4,152.0 505.5,152.0 505.6,152.0 505.7,152.0 505.8,152.0 505.9,152.0 506.0,152.0 506.1,152.0 506.2,152.0 506.3,152.0 506.4,152.0 506.5,152.0 506.6,152.0 506.7,152.0 506.8,152.0 506.9,152.0 507.0,152.0 507.1,152.0 507.2,152.0 507.3,152.0 507.4,152.0 507.5,152.0 507.6,152.0 507.7,152.0 507.8,152.0 507.9,152.0 508.0,152.0 508.1,152.0 508.2,152.0 508.3,152.0 508.4,152.0 508.5,152.0 508.6,152.0 508.7,152.0 508.8,152.0 508.9,152.0 509.0,152.0 509.1,152.0 509.2,152.0 509.3,152.0 509.4,152.0 509.5,152.0 509.6,152.0 509.7,152.0 509.8,152.0 509.9,152.0 510.0,152.0 510.1,152.0 510.2,152.0 510.3,152.0 510.4,152.0 510.5,152.0 510.6,152.0 510.7,152.0 510.8,152.0 510.9,152.0 511.0,152.0 511.1,152.0 511.2,152.0 511.3,152.0 511.4,152.0 511.5,152.0 511.6,152.0 511.7,152.0 511.8,152.0 511.9,152.0 512.0,152.0 512.1,152.0 512.2,152.0 512.3,152.0 512.4,152.0 512.5,152.0 512.6,152.0 512.7,152.0 512.8,152.0 512.9,152.0 513.0,152.0 513.1,152.0 513.2,152.0 513.3,152.0 513.4,152.0 513.5,152.0 513.6,152.0 513.7,152.0 513.8,152.0 513.9,152.0 514.0,152.0 514.1,152.0 514.2,152.0 514.3,152.0 514.4,152.0 514.5,152.0 514.6,152.0 514.7,152.0 514.8,152.0 514.9,152.0 515.0,152.0 515.1,152.0 515.2,152.0 515.3,152.0 515.4,152.0 515.5,152.0 515.6,152.0 515.7,152.0 515.8,152.0 515.9,152.0 516.0,152.0 516.1,152.0 516.2,152.0 516.3,152.0 516.4,152.0 516.5,152.0 516.6,152.0 516.7,152.0 516.8,152.0 516.9,152.0 517.0,152.0 517.1,152.0 517.2,152.0 517.3,152.0 517.4,152.0 517.5,152.0 517.6,152.0 517.7,152.0 517.8,152.0 517.9,152.0 518.0,152.0 518.1,152.0 518.2,152.0 518.3,152.0 518.4,152.0 518.5,152.0 518.6,152.0 518.7,152.0 518.8,152.0 518.9,152.0 519.0,152.0 519.1,152.0 519.2,152.0 519.3,152.0 519.4,152.0 519.5,152.0 519.6,152.0 519.7,152.0 519.8,152.0 519.9,152.0 520.0,152.0 520.1,152.0 520.2,152.0 520.3,152.0 520.4,152.0 520.5,152.0 520.6,152.0 520.7,152.0 520.8,152.0 520.9,152.0 521.0,152.0 521.1,152.0 521.2,152.0 521.3,152.0 521.4,152.0 521.5,152.0 521.6,152.0 521.7,152.0 521.8,152.0 521.9,152.0 522.0,152.0 522.1,152.0 522.2,152.0 522.3,152.0 522.4,152.0 522.5,152.0 522.6,152.0 522.7,152.0 522.8,152.0 522.9,152.0 523.0,152.0 523.1,152.0 523.2,152.0 523.3,152.0 523.4,152.0 523.5,152.0 523.6,152.0 523.7,152.0 523.8,152.0 523.9,152.0 524.0,152.0 524.1,152.0 524.2,152.0 524.3,152.0 524.4,152.0 524.5,152.0 524.6,152.0 524.7,152.0 524.8,152.0 524.9,152.0 525.0,152.0 525.1,152.0 525.2,152.0 525.3,152.0 525.4,152.0 525.5,152.0 525.6,152.0 525.7,152.0 525.8,152.0 525.9,152.0 526.0,152.0 526.1,152.0 526.2,152.0 526.3,152.0 526.4,152.0 526.5,152.0 526.6,152.0 526.7,152.0 526.8,152.0 526.9,152.0 527.0,152.0" fill="none" stroke="#4a90d9" stroke-width="1.2" stroke-linejoin="round"/>
  <text x="154.5" y="176" text-anchor="middle" font-size="8" fill="#6b7280">n / N</text>
  <text x="424.5" y="176" text-anchor="middle" font-size="8" fill="#6b7280">Normalized frequency (× Fₛ)</text>
</svg>
