<svg xmlns="http://www.w3.org/2000/svg" viewBox="0 0 800 230" style="font-family:system-ui,-apple-system,sans-serif">
  <line x1="42" y1="182.0" x2="377" y2="182.0" stroke="#e5e7eb" stroke-width="0.7"/>
  <text x="37" y="186.0" text-anchor="end" font-size="10" fill="#6b7280">0</text>
  <line x1="42" y1="95.0" x2="377" y2="95.0" stroke="#e5e7eb" stroke-width="0.7"/>
  <text x="37" y="99.0" text-anchor="end" font-size="10" fill="#6b7280">0.5</text>
  <line x1="42" y1="8.0" x2="377" y2="8.0" stroke="#e5e7eb" stroke-width="0.7"/>
  <text x="37" y="12.0" text-anchor="end" font-size="10" fill="#6b7280">1</text>
  <line x1="42.0" y1="8" x2="42.0" y2="182" stroke="#e5e7eb" stroke-width="0.7"/>
  <text x="42.0" y="198" text-anchor="middle" font-size="10" fill="#6b7280">0</text>
  <line x1="209.5" y1="8" x2="209.5" y2="182" stroke="#e5e7eb" stroke-width="0.7"/>
  <text x="209.5" y="198" text-anchor="middle" font-size="10" fill="#6b7280">0.5</text>
  <line x1="377.0" y1="8" x2="377.0" y2="182" stroke="#e5e7eb" stroke-width="0.7"/>
  <text x="377.0" y="198" text-anchor="middle" font-size="10" fill="#6b7280">1</text>
  <line x1="42" y1="8" x2="42" y2="182" stroke="#d1d5db" stroke-width="1"/>
  <line x1="42" y1="182" x2="377" y2="182" stroke="#d1d5db" stroke-width="1"/>
  <path d="M42.0,182.0 42.0,182.0 43.3,182.0 44.6,181.9 45.9,181.8 47.3,181.6 48.6,181.3 49.9,181.1 51.2,180.7 52.5,180.3 53.8,179.9 55.1,179.4 56.5,178.8 57.8,178.2 59.1,177.6 60.4,176.9 61.7,176.1 63.0,175.3 64.3,174.5 65.6,173.6 67.0,172.6 68.3,171.6 69.6,170.6 70.9,169.5 72.2,168.4 73.5,167.2 74.8,166.0 76.2,164.7 77.5,163.4 78.8,162.1 80.1,160.7 81.4,159.3 82.7,157.8 84.0,156.3 85.4,154.8 86.7,153.2 88.0,151.6 89.3,150.0 90.6,148.3 91.9,146.6 93.2,144.8 94.5,143.1 95.9,141.3 97.2,139.4 98.5,137.6 99.8,135.7 101.1,133.8 102.4,131.8 103.7,129.9 105.1,127.9 106.4,125.9 107.7,123.9 109.0,121.9 110.3,119.8 111.6,117.8 112.9,115.7 114.3,113.6 115.6,111.5 116.9,109.4 118.2,107.3 119.5,105.2 120.8,103.0 122.1,100.9 123.5,98.8 124.8,96.6 126.1,94.5 127.4,92.3 128.7,90.2 130.0,88.0 131.3,85.9 132.6,83.8 134.0,81.7 135.3,79.5 136.6,77.4 137.9,75.3 139.2,73.3 140.5,71.2 141.8,69.1 143.2,67.1 144.5,65.1 145.8,63.1 147.1,61.1 148.4,59.1 149.7,57.2 151.0,55.3 152.4,53.4 153.7,51.5 155.0,49.7 156.3,47.8 157.6,46.1 158.9,44.3 160.2,42.6 161.5,40.9 162.9,39.2 164.2,37.6 165.5,36.0 166.8,34.4 168.1,32.9 169.4,31.4 170.7,30.0 172.1,28.6 173.4,27.2 174.7,25.9 176.0,24.6 177.3,23.4 178.6,22.2 179.9,21.0 181.3,19.9 182.6,18.9 183.9,17.9 185.2,16.9 186.5,16.0 187.8,15.1 189.1,14.3 190.5,13.5 191.8,12.8 193.1,12.1 194.4,11.5 195.7,10.9 197.0,10.4 198.3,9.9 199.6,9.5 201.0,9.1 202.3,8.8 203.6,8.5 204.9,8.3 206.2,8.2 207.5,8.1 208.8,8.0 210.2,8.0 211.5,8.1 212.8,8.2 214.1,8.3 215.4,8.5 216.7,8.8 218.0,9.1 219.4,9.5 220.7,9.9 222.0,10.4 223.3,10.9 224.6,11.5 225.9,12.1 227.2,12.8 228.5,13.5 229.9,14.3 231.2,15.1 232.5,16.0 233.8,16.9 235.1,17.9 236.4,18.9 237.7,19.9 239.1,21.0 240.4,22.2 241.7,23.4 243.0,24.6 244.3,25.9 245.6,27.2 246.9,28.6 248.3,30.0 249.6,31.4 250.9,32.9 252.2,34.4 253.5,36.0 254.8,37.6 256.1,39.2 257.5,40.9 258.8,42.6 260.1,44.3 261.4,46.1 262.7,47.8 264.0,49.7 265.3,51.5 266.6,53.4 268.0,55.3 269.3,57.2 270.6,59.1 271.9,61.1 273.2,63.1 274.5,65.1 275.8,67.1 277.2,69.1 278.5,71.2 279.8,73.3 281.1,75.3 282.4,77.4 283.7,79.5 285.0,81.7 286.4,83.8 287.7,85.9 289.0,88.0 290.3,90.2 291.6,92.3 292.9,94.5 294.2,96.6 295.5,98.8 296.9,100.9 298.2,103.0 299.5,105.2 300.8,107.3 302.1,109.4 303.4,111.5 304.7,113.6 306.1,115.7 307.4,117.8 308.7,119.8 310.0,121.9 311.3,123.9 312.6,125.9 313.9,127.9 315.3,129.9 316.6,131.8 317.9,133.8 319.2,135.7 320.5,137.6 321.8,139.4 323.1,141.3 324.5,143.1 325.8,144.8 327.1,146.6 328.4,148.3 329.7,150.0 331.0,151.6 332.3,153.2 333.6,154.8 335.0,156.3 336.3,157.8 337.6,159.3 338.9,160.7 340.2,162.1 341.5,163.4 342.8,164.7 344.2,166.0 345.5,167.2 346.8,168.4 348.1,169.5 349.4,170.6 350.7,171.6 352.0,172.6 353.4,173.6 354.7,174.5 356.0,175.3 357.3,176.1 358.6,176.9 359.9,177.6 361.2,178.2 362.5,178.8 363.9,179.4 365.2,179.9 366.5,180.3 367.8,180.7 369.1,181.1 370.4,181.3 371.7,181.6 373.1,181.8 374.4,181.9 375.7,182.0 377.0,182.0 L377.0,182.0 Z" fill="#4a90d9" fill-opacity="0.06"/>
  <polyline points="42.0,182.0 43.3,182.0 44.6,181.9 45.9,181.8 47.3,181.6 48.6,181.3 49.9,181.1 51.2,180.7 52.5,180.3 53.8,179.9 55.1,179.4 56.5,178.8 57.8,178.2 59.1,177.6 60.4,176.9 61.7,176.1 63.0,175.3 64.3,174.5 65.6,173.6 67.0,172.6 68.3,171.6 69.6,170.6 70.9,169.5 72.2,168.4 73.5,167.2 74.8,166.0 76.2,164.7 77.5,163.4 78.8,162.1 80.1,160.7 81.4,159.3 82.7,157.8 84.0,156.3 85.4,154.8 86.7,153.2 88.0,151.6 89.3,150.0 90.6,148.3 91.9,146.6 93.2,144.8 94.5,143.1 95.9,141.3 97.2,139.4 98.5,137.6 99.8,135.7 101.1,133.8 102.4,131.8 103.7,129.9 105.1,127.9 106.4,125.9 107.7,123.9 109.0,121.9 110.3,119.8 111.6,117.8 112.9,115.7 114.3,113.6 115.6,111.5 116.9,109.4 118.2,107.3 119.5,105.2 120.8,103.0 122.1,100.9 123.5,98.8 124.8,96.6 126.1,94.5 127.4,92.3 128.7,90.2 130.0,88.0 131.3,85.9 132.6,83.8 134.0,81.7 135.3,79.5 136.6,77.4 137.9,75.3 139.2,73.3 140.5,71.2 141.8,69.1 143.2,67.1 144.5,65.1 145.8,63.1 147.1,61.1 148.4,59.1 149.7,57.2 151.0,55.3 152.4,53.4 153.7,51.5 155.0,49.7 156.3,47.8 157.6,46.1 158.9,44.3 160.2,42.6 161.5,40.9 162.9,39.2 164.2,37.6 165.5,36.0 166.8,34.4 168.1,32.9 169.4,31.4 170.7,30.0 172.1,28.6 173.4,27.2 174.7,25.9 176.0,24.6 177.3,23.4 178.6,22.2 179.9,21.0 181.3,19.9 182.6,18.9 183.9,17.9 185.2,16.9 186.5,16.0 187.8,15.1 189.1,14.3 190.5,13.5 191.8,12.8 193.1,12.1 194.4,11.5 195.7,10.9 197.0,10.4 198.3,9.9 199.6,9.5 201.0,9.1 202.3,8.8 203.6,8.5 204.9,8.3 206.2,8.2 207.5,8.1 208.8,8.0 210.2,8.0 211.5,8.1 212.8,8.2 214.1,8.3 215.4,8.5 216.7,8.8 218.0,9.1 219.4,9.5 220.7,9.9 222.0,10.4 223.3,10.9 224.6,11.5 225.9,12.1 227.2,12.8 228.5,13.5 229.9,14.3 231.2,15.1 232.5,16.0 233.8,16.9 235.1,17.9 236.4,18.9 237.7,19.9 239.1,21.0 240.4,22.2 241.7,23.4 243.0,24.6 244.3,25.9 245.6,27.2 246.9,28.6 248.3,30.0 249.6,31.4 250.9,32.9 252.2,34.4 253.5,36.0 254.8,37.6 256.1,39.2 257.5,40.9 258.8,42.6 260.1,44.3 261.4,46.1 262.7,47.8 264.0,49.7 265.3,51.5 266.6,53.4 268.0,55.3 269.3,57.2 270.6,59.1 271.9,61.1 273.2,63.1 274.5,65.1 275.8,67.1 277.2,69.1 278.5,71.2 279.8,73.3 281.1,75.3 282.4,77.4 283.7,79.5 285.0,81.7 286.4,83.8 287.7,85.9 289.0,88.0 290.3,90.2 291.6,92.3 292.9,94.5 294.2,96.6 295.5,98.8 296.9,100.9 298.2,103.0 299.5,105.2 300.8,107.3 302.1,109.4 303.4,111.5 304.7,113.6 306.1,115.7 307.4,117.8 308.7,119.8 310.0,121.9 311.3,123.9 312.6,125.9 313.9,127.9 315.3,129.9 316.6,131.8 317.9,133.8 319.2,135.7 320.5,137.6 321.8,139.4 323.1,141.3 324.5,143.1 325.8,144.8 327.1,146.6 328.4,148.3 329.7,150.0 331.0,151.6 332.3,153.2 333.6,154.8 335.0,156.3 336.3,157.8 337.6,159.3 338.9,160.7 340.2,162.1 341.5,163.4 342.8,164.7 344.2,166.0 345.5,167.2 346.8,168.4 348.1,169.5 349.4,170.6 350.7,171.6 352.0,172.6 353.4,173.6 354.7,174.5 356.0,175.3 357.3,176.1 358.6,176.9 359.9,177.6 361.2,178.2 362.5,178.8 363.9,179.4 365.2,179.9 366.5,180.3 367.8,180.7 369.1,181.1 370.4,181.3 371.7,181.6 373.1,181.8 374.4,181.9 375.7,182.0 377.0,182.0" fill="none" stroke="#4a90d9" stroke-width="1.5" stroke-linejoin="round"/>
  <line x1="450" y1="8.0" x2="785" y2="8.0" stroke="#e5e7eb" stroke-width="0.7"/>
  <text x="445" y="12.0" text-anchor="end" font-size="10" fill="#6b7280">0</text>
  <line x1="450" y1="66.0" x2="785" y2="66.0" stroke="#e5e7eb" stroke-width="0.7"/>
  <text x="445" y="70.0" text-anchor="end" font-size="10" fill="#6b7280">-40</text>
  <line x1="450" y1="124.0" x2="785" y2="124.0" stroke="#e5e7eb" stroke-width="0.7"/>
  <text x="445" y="128.0" text-anchor="end" font-size="10" fill="#6b7280">-80</text>
  <line x1="450" y1="182.0" x2="785" y2="182.0" stroke="#e5e7eb" stroke-width="0.7"/>
  <text x="445" y="186.0" text-anchor="end" font-size="10" fill="#6b7280">-120</text>
  <line x1="450.0" y1="8" x2="450.0" y2="182" stroke="#e5e7eb" stroke-width="0.7"/>
  <text x="450.0" y="198" text-anchor="middle" font-size="10" fill="#6b7280">0</text>
  <line x1="517.0" y1="8" x2="517.0" y2="182" stroke="#e5e7eb" stroke-width="0.7"/>
  <text x="517.0" y="198" text-anchor="middle" font-size="10" fill="#6b7280">0.1</text>
  <line x1="584.0" y1="8" x2="584.0" y2="182" stroke="#e5e7eb" stroke-width="0.7"/>
  <text x="584.0" y="198" text-anchor="middle" font-size="10" fill="#6b7280">0.2</text>
  <line x1="651.0" y1="8" x2="651.0" y2="182" stroke="#e5e7eb" stroke-width="0.7"/>
  <text x="651.0" y="198" text-anchor="middle" font-size="10" fill="#6b7280">0.3</text>
  <line x1="718.0" y1="8" x2="718.0" y2="182" stroke="#e5e7eb" stroke-width="0.7"/>
  <text x="718.0" y="198" text-anchor="middle" font-size="10" fill="#6b7280">0.4</text>
  <line x1="785.0" y1="8" x2="785.0" y2="182" stroke="#e5e7eb" stroke-width="0.7"/>
  <text x="785.0" y="198" text-anchor="middle" font-size="10" fill="#6b7280">0.5</text>
  <line x1="450" y1="8" x2="450" y2="182" stroke="#d1d5db" stroke-width="1"/>
  <line x1="450" y1="182" x2="785" y2="182" stroke="#d1d5db" stroke-width="1"/>
  <polyline points="450.0,8.0 450.2,8.0 450.3,8.1 450.5,8.3 450.7,8.5 450.8,8.8 451.0,9.1 451.1,9.6 451.3,10.0 451.5,10.6 451.6,11.2 451.8,11.9 452.0,12.7 452.1,13.6 452.3,14.5 452.5,15.5 452.6,16.7 452.8,17.9 452.9,19.2 453.1,20.6 453.3,22.2 453.4,23.9 453.6,25.8 453.8,27.8 453.9,30.1 454.1,32.6 454.3,35.5 454.4,38.7 454.6,42.5 454.7,47.1 454.9,53.2 455.1,62.5 455.2,91.5 455.4,68.5 455.6,60.5 455.7,56.8 455.9,54.8 456.1,53.9 456.2,53.6 456.4,53.9 456.5,54.7 456.7,55.9 456.9,57.6 457.0,59.8 457.2,62.6 457.4,66.4 457.5,71.6 457.7,79.9 457.9,103.9 458.0,86.4 458.2,77.3 458.3,72.9 458.5,70.4 458.7,69.0 458.8,68.3 459.0,68.2 459.2,68.5 459.3,69.4 459.5,70.7 459.7,72.6 459.8,75.1 460.0,78.5 460.1,83.3 460.3,91.1 460.5,111.8 460.6,98.7 460.8,88.8 461.0,84.1 461.1,81.3 461.3,79.6 461.5,78.7 461.6,78.3 461.8,78.5 461.9,79.1 462.1,80.3 462.3,81.9 462.4,84.2 462.6,87.4 462.8,92.0 462.9,99.3 463.1,117.7 463.3,108.4 463.4,97.7 463.6,92.7 463.7,89.7 463.9,87.8 464.1,86.7 464.2,86.3 464.4,86.3 464.6,86.8 464.7,87.8 464.9,89.3 465.1,91.5 465.2,94.5 465.4,98.9 465.5,105.9 465.7,122.5 465.9,116.5 466.0,105.1 466.2,99.8 466.4,96.6 466.5,94.6 466.7,93.4 466.9,92.8 467.0,92.7 467.2,93.1 467.3,94.0 467.5,95.5 467.7,97.5 467.8,100.4 468.0,104.6 468.2,111.3 468.3,126.5 468.5,123.7 468.7,111.3 468.8,105.8 469.0,102.5 469.1,100.4 469.3,99.1 469.5,98.4 469.6,98.2 469.8,98.6 470.0,99.4 470.1,100.7 470.3,102.7 470.5,105.5 470.6,109.5 470.8,115.9 470.9,129.9 471.1,130.3 471.3,116.9 471.4,111.0 471.6,107.6 471.8,105.4 471.9,104.0 472.1,103.2 472.3,103.0 472.4,103.3 472.6,104.0 472.7,105.3 472.9,107.2 473.1,109.9 473.2,113.8 473.4,120.0 473.6,132.9 473.7,136.4 473.9,121.8 474.1,115.7 474.2,112.1 474.4,109.8 474.5,108.4 474.7,107.6 474.9,107.3 475.0,107.5 475.2,108.2 475.4,109.4 475.5,111.2 475.7,113.8 475.9,117.6 476.0,123.5 476.2,135.6 476.3,142.4 476.5,126.3 476.7,120.0 476.8,116.2 477.0,113.9 477.2,112.3 477.3,111.4 477.5,111.1 477.7,111.3 477.8,111.9 478.0,113.0 478.1,114.8 478.3,117.3 478.5,121.0 478.6,126.7 478.8,138.0 479.0,148.3 479.1,130.5 479.3,123.8 479.5,120.0 479.6,117.5 479.8,115.9 479.9,115.0 480.1,114.6 480.3,114.7 480.4,115.3 480.6,116.4 480.8,118.1 480.9,120.5 481.1,124.1 481.3,129.6 481.4,140.2 481.6,154.4 481.7,134.4 481.9,127.4 482.1,123.4 482.2,120.9 482.4,119.2 482.6,118.2 482.7,117.8 482.9,117.8 483.1,118.4 483.2,119.4 483.4,121.0 483.5,123.4 483.7,126.9 483.9,132.2 484.0,142.3 484.2,161.1 484.4,138.0 484.5,130.7 484.7,126.6 484.9,124.0 485.0,122.2 485.2,121.2 485.3,120.7 485.5,120.7 485.7,121.2 485.8,122.2 486.0,123.8 486.2,126.1 486.3,129.5 486.5,134.6 486.7,144.2 486.8,169.2 487.0,141.5 487.1,133.9 487.3,129.6 487.5,126.9 487.6,125.1 487.8,124.0 488.0,123.4 488.1,123.4 488.3,123.9 488.5,124.8 488.6,126.4 488.8,128.6 488.9,131.9 489.1,136.9 489.3,145.9 489.4,180.9 489.6,144.8 489.8,136.8 489.9,132.4 490.1,129.6 490.3,127.7 490.4,126.6 490.6,126.0 490.7,125.9 490.9,126.3 491.1,127.2 491.2,128.7 491.4,130.9 491.6,134.1 491.7,139.0 491.9,147.6 492.1,182.0 492.2,148.0 492.4,139.6 492.6,135.0 492.7,132.1 492.9,130.2 493.0,129.0 493.2,128.4 493.4,128.3 493.5,128.7 493.7,129.5 493.9,131.0 494.0,133.1 494.2,136.2 494.4,140.9 494.5,149.1 494.7,182.0 494.8,151.0 495.0,142.2 495.2,137.5 495.3,134.5 495.5,132.6 495.7,131.3 495.8,130.7 496.0,130.5 496.2,130.8 496.3,131.7 496.5,133.1 496.6,135.1 496.8,138.2 497.0,142.7 497.1,150.6 497.3,177.9 497.5,154.1 497.6,144.8 497.8,139.9 498.0,136.8 498.1,134.8 498.3,133.5 498.4,132.8 498.6,132.6 498.8,132.9 498.9,133.7 499.1,135.0 499.3,137.1 499.4,140.0 499.6,144.4 499.8,151.9 499.9,174.9 500.1,157.0 500.2,147.2 500.4,142.2 500.6,139.0 500.7,136.9 500.9,135.6 501.1,134.8 501.2,134.6 501.4,134.9 501.6,135.6 501.7,136.9 501.9,138.9 502.0,141.7 502.2,146.0 502.4,153.2 502.5,173.3 502.7,160.0 502.9,149.6 503.0,144.3 503.2,141.1 503.4,138.9 503.5,137.6 503.7,136.8 503.8,136.5 504.0,136.7 504.2,137.4 504.3,138.7 504.5,140.6 504.7,143.4 504.8,147.6 505.0,154.5 505.2,172.4 505.3,162.9 505.5,151.8 505.6,146.4 505.8,143.1 506.0,140.9 506.1,139.4 506.3,138.6 506.5,138.3 506.6,138.5 506.8,139.2 507.0,140.4 507.1,142.2 507.3,145.0 507.4,149.0 507.6,155.7 507.8,171.9 507.9,165.9 508.1,154.0 508.3,148.4 508.4,145.0 508.6,142.7 508.8,141.2 508.9,140.4 509.1,140.0 509.2,140.2 509.4,140.8 509.6,142.0 509.7,143.8 509.9,146.5 510.1,150.4 510.2,156.8 510.4,171.6 510.6,168.9 510.7,156.2 510.9,150.4 511.0,146.8 511.2,144.5 511.4,143.0 511.5,142.1 511.7,141.7 511.9,141.8 512.0,142.4 512.2,143.5 512.4,145.3 512.5,147.9 512.7,151.7 512.8,157.9 513.0,171.6 513.2,172.0 513.3,158.3 513.5,152.3 513.7,148.6 513.8,146.2 514.0,144.6 514.2,143.7 514.3,143.3 514.5,143.4 514.6,143.9 514.8,145.0 515.0,146.7 515.1,149.3 515.3,153.0 515.5,159.0 515.6,171.7 515.8,175.2 516.0,160.4 516.1,154.1 516.3,150.3 516.4,147.9 516.6,146.2 516.8,145.3 516.9,144.8 517.1,144.9 517.3,145.4 517.4,146.4 517.6,148.1 517.8,150.6 517.9,154.2 518.1,160.0 518.2,171.8 518.4,178.7 518.6,162.4 518.7,155.9 518.9,152.0 519.1,149.5 519.2,147.8 519.4,146.8 519.6,146.3 519.7,146.3 519.9,146.8 520.0,147.8 520.2,149.4 520.4,151.8 520.5,155.4 520.7,160.9 520.9,172.1 521.0,182.0 521.2,164.4 521.4,157.6 521.5,153.6 521.7,151.0 521.8,149.3 522.0,148.2 522.2,147.7 522.3,147.7 522.5,148.1 522.7,149.1 522.8,150.7 523.0,153.0 523.2,156.5 523.3,161.9 523.5,172.4 523.6,182.0 523.8,166.4 524.0,159.3 524.1,155.2 524.3,152.5 524.5,150.7 524.6,149.6 524.8,149.1 525.0,149.0 525.1,149.4 525.3,150.4 525.4,151.9 525.6,154.2 525.8,157.6 525.9,162.8 526.1,172.7 526.3,182.0 526.4,168.3 526.6,160.9 526.8,156.7 526.9,154.0 527.1,152.1 527.2,151.0 527.4,150.4 527.6,150.3 527.7,150.7 527.9,151.6 528.1,153.1 528.2,155.3 528.4,158.6 528.6,163.7 528.7,173.1 528.9,182.0 529.0,170.3 529.2,162.6 529.4,158.2 529.5,155.4 529.7,153.5 529.9,152.3 530.0,151.7 530.2,151.6 530.4,151.9 530.5,152.8 530.7,154.2 530.8,156.4 531.0,159.6 531.2,164.5 531.3,173.4 531.5,182.0 531.7,172.2 531.8,164.1 532.0,159.6 532.2,156.7 532.3,154.8 532.5,153.6 532.6,152.9 532.8,152.8 533.0,153.1 533.1,153.9 533.3,155.3 533.5,157.5 533.6,160.6 533.8,165.3 534.0,173.8 534.1,182.0 534.3,174.2 534.4,165.7 534.6,161.1 534.8,158.1 534.9,156.1 535.1,154.8 535.3,154.1 535.4,154.0 535.6,154.3 535.8,155.1 535.9,156.4 536.1,158.5 536.2,161.5 536.4,166.1 536.6,174.2 536.7,182.0 536.9,176.1 537.1,167.3 537.2,162.5 537.4,159.4 537.6,157.4 537.7,156.1 537.9,155.3 538.0,155.1 538.2,155.4 538.4,156.1 538.5,157.5 538.7,159.5 538.9,162.4 539.0,166.9 539.2,174.7 539.4,182.0 539.5,178.1 539.7,168.8 539.8,163.8 540.0,160.7 540.2,158.6 540.3,157.2 540.5,156.5 540.7,156.2 540.8,156.5 541.0,157.2 541.2,158.5 541.3,160.4 541.5,163.3 541.6,167.7 541.8,175.1 542.0,182.0 542.1,180.2 542.3,170.3 542.5,165.2 542.6,161.9 542.8,159.8 543.0,158.4 543.1,157.6 543.3,157.3 543.4,157.5 543.6,158.2 543.8,159.4 543.9,161.4 544.1,164.2 544.3,168.4 544.4,175.5 544.6,182.0 544.8,182.0 544.9,171.8 545.1,166.5 545.2,163.2 545.4,161.0 545.6,159.5 545.7,158.7 545.9,158.4 546.1,158.5 546.2,159.2 546.4,160.4 546.6,162.3 546.7,165.0 546.9,169.1 547.0,176.0 547.2,182.0 547.4,182.0 547.5,173.2 547.7,167.8 547.9,164.4 548.0,162.1 548.2,160.6 548.4,159.8 548.5,159.4 548.7,159.5 548.8,160.2 549.0,161.3 549.2,163.1 549.3,165.8 549.5,169.8 549.7,176.4 549.8,182.0 550.0,182.0 550.2,174.7 550.3,169.1 550.5,165.5 550.6,163.2 550.8,161.7 551.0,160.8 551.1,160.4 551.3,160.5 551.5,161.1 551.6,162.2 551.8,164.0 552.0,166.6 552.1,170.5 552.3,176.9 552.4,182.0 552.6,182.0 552.8,176.2 552.9,170.3 553.1,166.7 553.3,164.3 553.4,162.8 553.6,161.8 553.8,161.4 553.9,161.5 554.1,162.0 554.2,163.1 554.4,164.8 554.6,167.4 554.7,171.2 554.9,177.3 555.1,182.0 555.2,182.0 555.4,177.6 555.6,171.6 555.7,167.9 555.9,165.4 556.0,163.8 556.2,162.8 556.4,162.4 556.5,162.4 556.7,162.9 556.9,164.0 557.0,165.6 557.2,168.1 557.4,171.8 557.5,177.7 557.7,182.0 557.8,182.0 558.0,179.1 558.2,172.8 558.3,169.0 558.5,166.5 558.7,164.8 558.8,163.8 559.0,163.3 559.2,163.3 559.3,163.8 559.5,164.8 559.6,166.4 559.8,168.9 560.0,172.5 560.1,178.2 560.3,182.0 560.5,182.0 560.6,180.6 560.8,174.0 561.0,170.1 561.1,167.5 561.3,165.8 561.4,164.7 561.6,164.2 561.8,164.2 561.9,164.7 562.1,165.6 562.3,167.2 562.4,169.6 562.6,173.1 562.8,178.6 562.9,182.0 563.1,182.0 563.2,182.0 563.4,175.2 563.6,171.2 563.7,168.5 563.9,166.8 564.1,165.7 564.2,165.1 564.4,165.1 564.6,165.5 564.7,166.4 564.9,168.0 565.0,170.3 565.2,173.7 565.4,179.1 565.5,182.0 565.7,182.0 565.9,182.0 566.0,176.4 566.2,172.2 566.4,169.5 566.5,167.7 566.7,166.6 566.8,166.0 567.0,165.9 567.2,166.3 567.3,167.2 567.5,168.7 567.7,171.0 567.8,174.3 568.0,179.5 568.2,182.0 568.3,182.0 568.5,182.0 568.6,177.6 568.8,173.3 569.0,170.5 569.1,168.7 569.3,167.5 569.5,166.9 569.6,166.8 569.8,167.1 570.0,168.0 570.1,169.5 570.3,171.7 570.4,174.9 570.6,179.9 570.8,182.0 570.9,182.0 571.1,182.0 571.3,178.8 571.4,174.4 571.6,171.5 571.8,169.6 571.9,168.4 572.1,167.7 572.2,167.6 572.4,167.9 572.6,168.8 572.7,170.2 572.9,172.3 573.1,175.5 573.2,180.3 573.4,182.0 573.6,182.0 573.7,182.0 573.9,179.9 574.0,175.4 574.2,172.5 574.4,170.5 574.5,169.3 574.7,168.6 574.9,168.4 575.0,168.7 575.2,169.5 575.4,170.9 575.5,173.0 575.7,176.0 575.9,180.8 576.0,182.0 576.2,182.0 576.3,182.0 576.5,181.1 576.7,176.4 576.8,173.4 577.0,171.4 577.2,170.1 577.3,169.4 577.5,169.2 577.7,169.5 577.8,170.2 578.0,171.6 578.1,173.6 578.3,176.6 578.5,181.2 578.6,182.0 578.8,182.0 579.0,182.0 579.1,182.0 579.3,177.5 579.5,174.4 579.6,172.3 579.8,171.0 579.9,170.2 580.1,170.0 580.3,170.2 580.4,171.0 580.6,172.2 580.8,174.2 580.9,177.2 581.1,181.6 581.3,182.0 581.4,182.0 581.6,182.0 581.7,182.0 581.9,178.5 582.1,175.3 582.2,173.2 582.4,171.8 582.6,171.0 582.7,170.7 582.9,170.9 583.1,171.7 583.2,172.9 583.4,174.9 583.5,177.7 583.7,182.0 583.9,182.0 584.0,182.0 584.2,182.0 584.4,182.0 584.5,179.5 584.7,176.2 584.9,174.0 585.0,172.6 585.2,171.8 585.3,171.5 585.5,171.7 585.7,172.3 585.8,173.6 586.0,175.5 586.2,178.2 586.3,182.0 586.5,182.0 586.7,182.0 586.8,182.0 587.0,182.0 587.1,180.5 587.3,177.1 587.5,174.9 587.6,173.4 587.8,172.6 588.0,172.2 588.1,172.4 588.3,173.0 588.5,174.2 588.6,176.1 588.8,178.8 588.9,182.0 589.1,182.0 589.3,182.0 589.4,182.0 589.6,182.0 589.8,181.5 589.9,178.0 590.1,175.7 590.3,174.2 590.4,173.4 590.6,173.0 590.7,173.1 590.9,173.7 591.1,174.8 591.2,176.6 591.4,179.3 591.6,182.0 591.7,182.0 591.9,182.0 592.1,182.0 592.2,182.0 592.4,182.0 592.5,178.9 592.7,176.6 592.9,175.0 593.0,174.1 593.2,173.7 593.4,173.8 593.5,174.4 593.7,175.5 593.9,177.2 594.0,179.8 594.2,182.0 594.3,182.0 594.5,182.0 594.7,182.0 594.8,182.0 595.0,182.0 595.2,179.8 595.3,177.4 595.5,175.8 595.7,174.9 595.8,174.4 596.0,174.5 596.1,175.0 596.3,176.1 596.5,177.8 596.6,180.3 596.8,182.0 597.0,182.0 597.1,182.0 597.3,182.0 597.5,182.0 597.6,182.0 597.8,180.7 597.9,178.2 598.1,176.6 598.3,175.6 598.4,175.1 598.6,175.1 598.8,175.7 598.9,176.7 599.1,178.3 599.3,180.8 599.4,182.0 599.6,182.0 599.7,182.0 599.9,182.0 600.1,182.0 600.2,182.0 600.4,181.6 600.6,179.0 600.7,177.4 600.9,176.3 601.1,175.8 601.2,175.8 601.4,176.3 601.5,177.3 601.7,178.9 601.9,181.3 602.0,182.0 602.2,182.0 602.4,182.0 602.5,182.0 602.7,182.0 602.9,182.0 603.0,182.0 603.2,179.8 603.3,178.1 603.5,177.0 603.7,176.5 603.8,176.5 604.0,176.9 604.2,177.9 604.3,179.4 604.5,181.8 604.7,182.0 604.8,182.0 605.0,182.0 605.1,182.0 605.3,182.0 605.5,182.0 605.6,182.0 605.8,180.6 606.0,178.9 606.1,177.8 606.3,177.2 606.5,177.1 606.6,177.5 606.8,178.5 606.9,180.0 607.1,182.0 607.3,182.0 607.4,182.0 607.6,182.0 607.8,182.0 607.9,182.0 608.1,182.0 608.3,182.0 608.4,181.4 608.6,179.6 608.7,178.5 608.9,177.9 609.1,177.8 609.2,178.1 609.4,179.0 609.6,180.5 609.7,182.0 609.9,182.0 610.1,182.0 610.2,182.0 610.4,182.0 610.5,182.0 610.7,182.0 610.9,182.0 611.0,182.0 611.2,180.4 611.4,179.2 611.5,178.5 611.7,178.4 611.9,178.7 612.0,179.6 612.2,181.1 612.3,182.0 612.5,182.0 612.7,182.0 612.8,182.0 613.0,182.0 613.2,182.0 613.3,182.0 613.5,182.0 613.7,182.0 613.8,181.1 614.0,179.9 614.1,179.2 614.3,179.0 614.5,179.3 614.6,180.2 614.8,181.6 615.0,182.0 615.1,182.0 615.3,182.0 615.5,182.0 615.6,182.0 615.8,182.0 615.9,182.0 616.1,182.0 616.3,182.0 616.4,181.8 616.6,180.5 616.8,179.8 616.9,179.6 617.1,179.9 617.3,180.7 617.4,182.0 617.6,182.0 617.7,182.0 617.9,182.0 618.1,182.0 618.2,182.0 618.4,182.0 618.6,182.0 618.7,182.0 618.9,182.0 619.1,182.0 619.2,181.2 619.4,180.5 619.5,180.3 619.7,180.5 619.9,181.3 620.0,182.0 620.2,182.0 620.4,182.0 620.5,182.0 620.7,182.0 620.9,182.0 621.0,182.0 621.2,182.0 621.3,182.0 621.5,182.0 621.7,182.0 621.8,181.9 622.0,181.1 622.2,180.9 622.3,181.1 622.5,181.8 622.7,182.0 622.8,182.0 623.0,182.0 623.1,182.0 623.3,182.0 623.5,182.0 623.6,182.0 623.8,182.0 624.0,182.0 624.1,182.0 624.3,182.0 624.5,182.0 624.6,181.8 624.8,181.5 624.9,181.7 625.1,182.0 625.3,182.0 625.4,182.0 625.6,182.0 625.8,182.0 625.9,182.0 626.1,182.0 626.3,182.0 626.4,182.0 626.6,182.0 626.7,182.0 626.9,182.0 627.1,182.0 627.2,182.0 627.4,182.0 627.6,182.0 627.7,182.0 627.9,182.0 628.1,182.0 628.2,182.0 628.4,182.0 628.5,182.0 628.7,182.0 628.9,182.0 629.0,182.0 629.2,182.0 629.4,182.0 629.5,182.0 629.7,182.0 629.9,182.0 630.0,182.0 630.2,182.0 630.3,182.0 630.5,182.0 630.7,182.0 630.8,182.0 631.0,182.0 631.2,182.0 631.3,182.0 631.5,182.0 631.7,182.0 631.8,182.0 632.0,182.0 632.1,182.0 632.3,182.0 632.5,182.0 632.6,182.0 632.8,182.0 633.0,182.0 633.1,182.0 633.3,182.0 633.5,182.0 633.6,182.0 633.8,182.0 633.9,182.0 634.1,182.0 634.3,182.0 634.4,182.0 634.6,182.0 634.8,182.0 634.9,182.0 635.1,182.0 635.3,182.0 635.4,182.0 635.6,182.0 635.7,182.0 635.9,182.0 636.1,182.0 636.2,182.0 636.4,182.0 636.6,182.0 636.7,182.0 636.9,182.0 637.1,182.0 637.2,182.0 637.4,182.0 637.5,182.0 637.7,182.0 637.9,182.0 638.0,182.0 638.2,182.0 638.4,182.0 638.5,182.0 638.7,182.0 638.9,182.0 639.0,182.0 639.2,182.0 639.3,182.0 639.5,182.0 639.7,182.0 639.8,182.0 640.0,182.0 640.2,182.0 640.3,182.0 640.5,182.0 640.7,182.0 640.8,182.0 641.0,182.0 641.1,182.0 641.3,182.0 641.5,182.0 641.6,182.0 641.8,182.0 642.0,182.0 642.1,182.0 642.3,182.0 642.5,182.0 642.6,182.0 642.8,182.0 642.9,182.0 643.1,182.0 643.3,182.0 643.4,182.0 643.6,182.0 643.8,182.0 643.9,182.0 644.1,182.0 644.3,182.0 644.4,182.0 644.6,182.0 644.7,182.0 644.9,182.0 645.1,182.0 645.2,182.0 645.4,182.0 645.6,182.0 645.7,182.0 645.9,182.0 646.1,182.0 646.2,182.0 646.4,182.0 646.5,182.0 646.7,182.0 646.9,182.0 647.0,182.0 647.2,182.0 647.4,182.0 647.5,182.0 647.7,182.0 647.9,182.0 648.0,182.0 648.2,182.0 648.3,182.0 648.5,182.0 648.7,182.0 648.8,182.0 649.0,182.0 649.2,182.0 649.3,182.0 649.5,182.0 649.7,182.0 649.8,182.0 650.0,182.0 650.1,182.0 650.3,182.0 650.5,182.0 650.6,182.0 650.8,182.0 651.0,182.0 651.1,182.0 651.3,182.0 651.5,182.0 651.6,182.0 651.8,182.0 651.9,182.0 652.1,182.0 652.3,182.0 652.4,182.0 652.6,182.0 652.8,182.0 652.9,182.0 653.1,182.0 653.3,182.0 653.4,182.0 653.6,182.0 653.7,182.0 653.9,182.0 654.1,182.0 654.2,182.0 654.4,182.0 654.6,182.0 654.7,182.0 654.9,182.0 655.1,182.0 655.2,182.0 655.4,182.0 655.5,182.0 655.7,182.0 655.9,182.0 656.0,182.0 656.2,182.0 656.4,182.0 656.5,182.0 656.7,182.0 656.9,182.0 657.0,182.0 657.2,182.0 657.3,182.0 657.5,182.0 657.7,182.0 657.8,182.0 658.0,182.0 658.2,182.0 658.3,182.0 658.5,182.0 658.7,182.0 658.8,182.0 659.0,182.0 659.1,182.0 659.3,182.0 659.5,182.0 659.6,182.0 659.8,182.0 660.0,182.0 660.1,182.0 660.3,182.0 660.5,182.0 660.6,182.0 660.8,182.0 661.0,182.0 661.1,182.0 661.3,182.0 661.4,182.0 661.6,182.0 661.8,182.0 661.9,182.0 662.1,182.0 662.3,182.0 662.4,182.0 662.6,182.0 662.8,182.0 662.9,182.0 663.1,182.0 663.2,182.0 663.4,182.0 663.6,182.0 663.7,182.0 663.9,182.0 664.1,182.0 664.2,182.0 664.4,182.0 664.6,182.0 664.7,182.0 664.9,182.0 665.0,182.0 665.2,182.0 665.4,182.0 665.5,182.0 665.7,182.0 665.9,182.0 666.0,182.0 666.2,182.0 666.4,182.0 666.5,182.0 666.7,182.0 666.8,182.0 667.0,182.0 667.2,182.0 667.3,182.0 667.5,182.0 667.7,182.0 667.8,182.0 668.0,182.0 668.2,182.0 668.3,182.0 668.5,182.0 668.6,182.0 668.8,182.0 669.0,182.0 669.1,182.0 669.3,182.0 669.5,182.0 669.6,182.0 669.8,182.0 670.0,182.0 670.1,182.0 670.3,182.0 670.4,182.0 670.6,182.0 670.8,182.0 670.9,182.0 671.1,182.0 671.3,182.0 671.4,182.0 671.6,182.0 671.8,182.0 671.9,182.0 672.1,182.0 672.2,182.0 672.4,182.0 672.6,182.0 672.7,182.0 672.9,182.0 673.1,182.0 673.2,182.0 673.4,182.0 673.6,182.0 673.7,182.0 673.9,182.0 674.0,182.0 674.2,182.0 674.4,182.0 674.5,182.0 674.7,182.0 674.9,182.0 675.0,182.0 675.2,182.0 675.4,182.0 675.5,182.0 675.7,182.0 675.8,182.0 676.0,182.0 676.2,182.0 676.3,182.0 676.5,182.0 676.7,182.0 676.8,182.0 677.0,182.0 677.2,182.0 677.3,182.0 677.5,182.0 677.6,182.0 677.8,182.0 678.0,182.0 678.1,182.0 678.3,182.0 678.5,182.0 678.6,182.0 678.8,182.0 679.0,182.0 679.1,182.0 679.3,182.0 679.4,182.0 679.6,182.0 679.8,182.0 679.9,182.0 680.1,182.0 680.3,182.0 680.4,182.0 680.6,182.0 680.8,182.0 680.9,182.0 681.1,182.0 681.2,182.0 681.4,182.0 681.6,182.0 681.7,182.0 681.9,182.0 682.1,182.0 682.2,182.0 682.4,182.0 682.6,182.0 682.7,182.0 682.9,182.0 683.0,182.0 683.2,182.0 683.4,182.0 683.5,182.0 683.7,182.0 683.9,182.0 684.0,182.0 684.2,182.0 684.4,182.0 684.5,182.0 684.7,182.0 684.8,182.0 685.0,182.0 685.2,182.0 685.3,182.0 685.5,182.0 685.7,182.0 685.8,182.0 686.0,182.0 686.2,182.0 686.3,182.0 686.5,182.0 686.6,182.0 686.8,182.0 687.0,182.0 687.1,182.0 687.3,182.0 687.5,182.0 687.6,182.0 687.8,182.0 688.0,182.0 688.1,182.0 688.3,182.0 688.4,182.0 688.6,182.0 688.8,182.0 688.9,182.0 689.1,182.0 689.3,182.0 689.4,182.0 689.6,182.0 689.8,182.0 689.9,182.0 690.1,182.0 690.2,182.0 690.4,182.0 690.6,182.0 690.7,182.0 690.9,182.0 691.1,182.0 691.2,182.0 691.4,182.0 691.6,182.0 691.7,182.0 691.9,182.0 692.0,182.0 692.2,182.0 692.4,182.0 692.5,182.0 692.7,182.0 692.9,182.0 693.0,182.0 693.2,182.0 693.4,182.0 693.5,182.0 693.7,182.0 693.8,182.0 694.0,182.0 694.2,182.0 694.3,182.0 694.5,182.0 694.7,182.0 694.8,182.0 695.0,182.0 695.2,182.0 695.3,182.0 695.5,182.0 695.6,182.0 695.8,182.0 696.0,182.0 696.1,182.0 696.3,182.0 696.5,182.0 696.6,182.0 696.8,182.0 697.0,182.0 697.1,182.0 697.3,182.0 697.4,182.0 697.6,182.0 697.8,182.0 697.9,182.0 698.1,182.0 698.3,182.0 698.4,182.0 698.6,182.0 698.8,182.0 698.9,182.0 699.1,182.0 699.2,182.0 699.4,182.0 699.6,182.0 699.7,182.0 699.9,182.0 700.1,182.0 700.2,182.0 700.4,182.0 700.6,182.0 700.7,182.0 700.9,182.0 701.0,182.0 701.2,182.0 701.4,182.0 701.5,182.0 701.7,182.0 701.9,182.0 702.0,182.0 702.2,182.0 702.4,182.0 702.5,182.0 702.7,182.0 702.8,182.0 703.0,182.0 703.2,182.0 703.3,182.0 703.5,182.0 703.7,182.0 703.8,182.0 704.0,182.0 704.2,182.0 704.3,182.0 704.5,182.0 704.6,182.0 704.8,182.0 705.0,182.0 705.1,182.0 705.3,182.0 705.5,182.0 705.6,182.0 705.8,182.0 706.0,182.0 706.1,182.0 706.3,182.0 706.4,182.0 706.6,182.0 706.8,182.0 706.9,182.0 707.1,182.0 707.3,182.0 707.4,182.0 707.6,182.0 707.8,182.0 707.9,182.0 708.1,182.0 708.2,182.0 708.4,182.0 708.6,182.0 708.7,182.0 708.9,182.0 709.1,182.0 709.2,182.0 709.4,182.0 709.6,182.0 709.7,182.0 709.9,182.0 710.0,182.0 710.2,182.0 710.4,182.0 710.5,182.0 710.7,182.0 710.9,182.0 711.0,182.0 711.2,182.0 711.4,182.0 711.5,182.0 711.7,182.0 711.8,182.0 712.0,182.0 712.2,182.0 712.3,182.0 712.5,182.0 712.7,182.0 712.8,182.0 713.0,182.0 713.2,182.0 713.3,182.0 713.5,182.0 713.6,182.0 713.8,182.0 714.0,182.0 714.1,182.0 714.3,182.0 714.5,182.0 714.6,182.0 714.8,182.0 715.0,182.0 715.1,182.0 715.3,182.0 715.4,182.0 715.6,182.0 715.8,182.0 715.9,182.0 716.1,182.0 716.3,182.0 716.4,182.0 716.6,182.0 716.8,182.0 716.9,182.0 717.1,182.0 717.2,182.0 717.4,182.0 717.6,182.0 717.7,182.0 717.9,182.0 718.1,182.0 718.2,182.0 718.4,182.0 718.6,182.0 718.7,182.0 718.9,182.0 719.0,182.0 719.2,182.0 719.4,182.0 719.5,182.0 719.7,182.0 719.9,182.0 720.0,182.0 720.2,182.0 720.4,182.0 720.5,182.0 720.7,182.0 720.8,182.0 721.0,182.0 721.2,182.0 721.3,182.0 721.5,182.0 721.7,182.0 721.8,182.0 722.0,182.0 722.2,182.0 722.3,182.0 722.5,182.0 722.6,182.0 722.8,182.0 723.0,182.0 723.1,182.0 723.3,182.0 723.5,182.0 723.6,182.0 723.8,182.0 724.0,182.0 724.1,182.0 724.3,182.0 724.4,182.0 724.6,182.0 724.8,182.0 724.9,182.0 725.1,182.0 725.3,182.0 725.4,182.0 725.6,182.0 725.8,182.0 725.9,182.0 726.1,182.0 726.2,182.0 726.4,182.0 726.6,182.0 726.7,182.0 726.9,182.0 727.1,182.0 727.2,182.0 727.4,182.0 727.6,182.0 727.7,182.0 727.9,182.0 728.0,182.0 728.2,182.0 728.4,182.0 728.5,182.0 728.7,182.0 728.9,182.0 729.0,182.0 729.2,182.0 729.4,182.0 729.5,182.0 729.7,182.0 729.8,182.0 730.0,182.0 730.2,182.0 730.3,182.0 730.5,182.0 730.7,182.0 730.8,182.0 731.0,182.0 731.2,182.0 731.3,182.0 731.5,182.0 731.6,182.0 731.8,182.0 732.0,182.0 732.1,182.0 732.3,182.0 732.5,182.0 732.6,182.0 732.8,182.0 733.0,182.0 733.1,182.0 733.3,182.0 733.4,182.0 733.6,182.0 733.8,182.0 733.9,182.0 734.1,182.0 734.3,182.0 734.4,182.0 734.6,182.0 734.8,182.0 734.9,182.0 735.1,182.0 735.2,182.0 735.4,182.0 735.6,182.0 735.7,182.0 735.9,182.0 736.1,182.0 736.2,182.0 736.4,182.0 736.6,182.0 736.7,182.0 736.9,182.0 737.0,182.0 737.2,182.0 737.4,182.0 737.5,182.0 737.7,182.0 737.9,182.0 738.0,182.0 738.2,182.0 738.4,182.0 738.5,182.0 738.7,182.0 738.8,182.0 739.0,182.0 739.2,182.0 739.3,182.0 739.5,182.0 739.7,182.0 739.8,182.0 740.0,182.0 740.2,182.0 740.3,182.0 740.5,182.0 740.6,182.0 740.8,182.0 741.0,182.0 741.1,182.0 741.3,182.0 741.5,182.0 741.6,182.0 741.8,182.0 742.0,182.0 742.1,182.0 742.3,182.0 742.4,182.0 742.6,182.0 742.8,182.0 742.9,182.0 743.1,182.0 743.3,182.0 743.4,182.0 743.6,182.0 743.8,182.0 743.9,182.0 744.1,182.0 744.3,182.0 744.4,182.0 744.6,182.0 744.7,182.0 744.9,182.0 745.1,182.0 745.2,182.0 745.4,182.0 745.6,182.0 745.7,182.0 745.9,182.0 746.1,182.0 746.2,182.0 746.4,182.0 746.5,182.0 746.7,182.0 746.9,182.0 747.0,182.0 747.2,182.0 747.4,182.0 747.5,182.0 747.7,182.0 747.9,182.0 748.0,182.0 748.2,182.0 748.3,182.0 748.5,182.0 748.7,182.0 748.8,182.0 749.0,182.0 749.2,182.0 749.3,182.0 749.5,182.0 749.7,182.0 749.8,182.0 750.0,182.0 750.1,182.0 750.3,182.0 750.5,182.0 750.6,182.0 750.8,182.0 751.0,182.0 751.1,182.0 751.3,182.0 751.5,182.0 751.6,182.0 751.8,182.0 751.9,182.0 752.1,182.0 752.3,182.0 752.4,182.0 752.6,182.0 752.8,182.0 752.9,182.0 753.1,182.0 753.3,182.0 753.4,182.0 753.6,182.0 753.7,182.0 753.9,182.0 754.1,182.0 754.2,182.0 754.4,182.0 754.6,182.0 754.7,182.0 754.9,182.0 755.1,182.0 755.2,182.0 755.4,182.0 755.5,182.0 755.7,182.0 755.9,182.0 756.0,182.0 756.2,182.0 756.4,182.0 756.5,182.0 756.7,182.0 756.9,182.0 757.0,182.0 757.2,182.0 757.3,182.0 757.5,182.0 757.7,182.0 757.8,182.0 758.0,182.0 758.2,182.0 758.3,182.0 758.5,182.0 758.7,182.0 758.8,182.0 759.0,182.0 759.1,182.0 759.3,182.0 759.5,182.0 759.6,182.0 759.8,182.0 760.0,182.0 760.1,182.0 760.3,182.0 760.5,182.0 760.6,182.0 760.8,182.0 760.9,182.0 761.1,182.0 761.3,182.0 761.4,182.0 761.6,182.0 761.8,182.0 761.9,182.0 762.1,182.0 762.3,182.0 762.4,182.0 762.6,182.0 762.7,182.0 762.9,182.0 763.1,182.0 763.2,182.0 763.4,182.0 763.6,182.0 763.7,182.0 763.9,182.0 764.1,182.0 764.2,182.0 764.4,182.0 764.5,182.0 764.7,182.0 764.9,182.0 765.0,182.0 765.2,182.0 765.4,182.0 765.5,182.0 765.7,182.0 765.9,182.0 766.0,182.0 766.2,182.0 766.3,182.0 766.5,182.0 766.7,182.0 766.8,182.0 767.0,182.0 767.2,182.0 767.3,182.0 767.5,182.0 767.7,182.0 767.8,182.0 768.0,182.0 768.1,182.0 768.3,182.0 768.5,182.0 768.6,182.0 768.8,182.0 769.0,182.0 769.1,182.0 769.3,182.0 769.5,182.0 769.6,182.0 769.8,182.0 769.9,182.0 770.1,182.0 770.3,182.0 770.4,182.0 770.6,182.0 770.8,182.0 770.9,182.0 771.1,182.0 771.3,182.0 771.4,182.0 771.6,182.0 771.7,182.0 771.9,182.0 772.1,182.0 772.2,182.0 772.4,182.0 772.6,182.0 772.7,182.0 772.9,182.0 773.1,182.0 773.2,182.0 773.4,182.0 773.5,182.0 773.7,182.0 773.9,182.0 774.0,182.0 774.2,182.0 774.4,182.0 774.5,182.0 774.7,182.0 774.9,182.0 775.0,182.0 775.2,182.0 775.3,182.0 775.5,182.0 775.7,182.0 775.8,182.0 776.0,182.0 776.2,182.0 776.3,182.0 776.5,182.0 776.7,182.0 776.8,182.0 777.0,182.0 777.1,182.0 777.3,182.0 777.5,182.0 777.6,182.0 777.8,182.0 778.0,182.0 778.1,182.0 778.3,182.0 778.5,182.0 778.6,182.0 778.8,182.0 778.9,182.0 779.1,182.0 779.3,182.0 779.4,182.0 779.6,182.0 779.8,182.0 779.9,182.0 780.1,182.0 780.3,182.0 780.4,182.0 780.6,182.0 780.7,182.0 780.9,182.0 781.1,182.0 781.2,182.0 781.4,182.0 781.6,182.0 781.7,182.0 781.9,182.0 782.1,182.0 782.2,182.0 782.4,182.0 782.5,182.0 782.7,182.0 782.9,182.0 783.0,182.0 783.2,182.0 783.4,182.0 783.5,182.0 783.7,182.0 783.9,182.0 784.0,182.0 784.2,182.0 784.3,182.0 784.5,182.0 784.7,182.0 784.8,182.0 785.0,182.0" fill="none" stroke="#4a90d9" stroke-width="1.5" stroke-linejoin="round"/>
  <text x="209.5" y="214" text-anchor="middle" font-size="11" fill="#6b7280">n / N</text>
  <text x="617.5" y="214" text-anchor="middle" font-size="11" fill="#6b7280">Normalized frequency (× Fₛ)</text>
</svg>
