<svg xmlns="http://www.w3.org/2000/svg" viewBox="0 0 800 230" style="font-family:system-ui,-apple-system,sans-serif">
  <line x1="42" y1="182.0" x2="377" y2="182.0" stroke="#e5e7eb" stroke-width="0.7"/>
  <text x="37" y="186.0" text-anchor="end" font-size="10" fill="#6b7280">0</text>
  <line x1="42" y1="95.0" x2="377" y2="95.0" stroke="#e5e7eb" stroke-width="0.7"/>
  <text x="37" y="99.0" text-anchor="end" font-size="10" fill="#6b7280">0.5</text>
  <line x1="42" y1="8.0" x2="377" y2="8.0" stroke="#e5e7eb" stroke-width="0.7"/>
  <text x="37" y="12.0" text-anchor="end" font-size="10" fill="#6b7280">1</text>
  <line x1="42.0" y1="8" x2="42.0" y2="182" stroke="#e5e7eb" stroke-width="0.7"/>
  <text x="42.0" y="198" text-anchor="middle" font-size="10" fill="#6b7280">0</text>
  <line x1="209.5" y1="8" x2="209.5" y2="182" stroke="#e5e7eb" stroke-width="0.7"/>
  <text x="209.5" y="198" text-anchor="middle" font-size="10" fill="#6b7280">0.5</text>
  <line x1="377.0" y1="8" x2="377.0" y2="182" stroke="#e5e7eb" stroke-width="0.7"/>
  <text x="377.0" y="198" text-anchor="middle" font-size="10" fill="#6b7280">1</text>
  <line x1="42" y1="8" x2="42" y2="182" stroke="#d1d5db" stroke-width="1"/>
  <line x1="42" y1="182" x2="377" y2="182" stroke="#d1d5db" stroke-width="1"/>
  <path d="M42.0,182.0 42.0,182.0 43.3,182.0 44.6,182.0 45.9,182.0 47.3,181.9 48.6,181.9 49.9,181.9 51.2,181.8 52.5,181.7 53.8,181.7 55.1,181.6 56.5,181.5 57.8,181.4 59.1,181.3 60.4,181.1 61.7,181.0 63.0,180.8 64.3,180.7 65.6,180.5 67.0,180.3 68.3,180.1 69.6,179.9 70.9,179.6 72.2,179.4 73.5,179.1 74.8,178.8 76.2,178.5 77.5,178.2 78.8,177.8 80.1,177.5 81.4,177.1 82.7,176.7 84.0,176.3 85.4,175.8 86.7,175.4 88.0,174.9 89.3,174.4 90.6,173.8 91.9,173.3 93.2,172.7 94.5,172.1 95.9,171.5 97.2,170.9 98.5,170.2 99.8,169.5 101.1,168.8 102.4,168.0 103.7,167.3 105.1,166.5 106.4,165.6 107.7,164.8 109.0,163.9 110.3,163.0 111.6,162.0 112.9,161.1 114.3,160.1 115.6,159.0 116.9,158.0 118.2,156.9 119.5,155.8 120.8,154.6 122.1,153.4 123.5,152.2 124.8,151.0 126.1,149.7 127.4,148.4 128.7,147.0 130.0,145.6 131.3,144.2 132.6,142.8 134.0,141.3 135.3,139.8 136.6,138.2 137.9,136.6 139.2,135.0 140.5,133.4 141.8,131.7 143.2,130.0 144.5,128.2 145.8,126.4 147.1,124.6 148.4,122.8 149.7,120.9 151.0,118.9 152.4,117.0 153.7,115.0 155.0,113.0 156.3,110.9 157.6,108.8 158.9,106.7 160.2,104.6 161.5,102.4 162.9,100.2 164.2,97.9 165.5,95.7 166.8,93.4 168.1,91.0 169.4,88.7 170.7,86.3 172.1,83.9 173.4,81.5 174.7,79.0 176.0,76.5 177.3,74.0 178.6,71.5 179.9,68.9 181.3,66.3 182.6,63.7 183.9,61.1 185.2,58.5 186.5,55.8 187.8,53.2 189.1,50.5 190.5,47.8 191.8,45.1 193.1,42.3 194.4,39.6 195.7,36.9 197.0,34.1 198.3,31.4 199.6,28.6 201.0,25.9 202.3,23.1 203.6,20.4 204.9,17.6 206.2,14.9 207.5,12.1 208.8,9.4 210.2,9.4 211.5,12.1 212.8,14.9 214.1,17.6 215.4,20.4 216.7,23.1 218.0,25.9 219.4,28.6 220.7,31.4 222.0,34.1 223.3,36.9 224.6,39.6 225.9,42.3 227.2,45.1 228.5,47.8 229.9,50.5 231.2,53.2 232.5,55.8 233.8,58.5 235.1,61.1 236.4,63.7 237.7,66.3 239.1,68.9 240.4,71.5 241.7,74.0 243.0,76.5 244.3,79.0 245.6,81.5 246.9,83.9 248.3,86.3 249.6,88.7 250.9,91.0 252.2,93.4 253.5,95.7 254.8,97.9 256.1,100.2 257.5,102.4 258.8,104.6 260.1,106.7 261.4,108.8 262.7,110.9 264.0,113.0 265.3,115.0 266.6,117.0 268.0,118.9 269.3,120.9 270.6,122.8 271.9,124.6 273.2,126.4 274.5,128.2 275.8,130.0 277.2,131.7 278.5,133.4 279.8,135.0 281.1,136.6 282.4,138.2 283.7,139.8 285.0,141.3 286.4,142.8 287.7,144.2 289.0,145.6 290.3,147.0 291.6,148.4 292.9,149.7 294.2,151.0 295.5,152.2 296.9,153.4 298.2,154.6 299.5,155.8 300.8,156.9 302.1,158.0 303.4,159.0 304.7,160.1 306.1,161.1 307.4,162.0 308.7,163.0 310.0,163.9 311.3,164.8 312.6,165.6 313.9,166.5 315.3,167.3 316.6,168.0 317.9,168.8 319.2,169.5 320.5,170.2 321.8,170.9 323.1,171.5 324.5,172.1 325.8,172.7 327.1,173.3 328.4,173.8 329.7,174.4 331.0,174.9 332.3,175.4 333.6,175.8 335.0,176.3 336.3,176.7 337.6,177.1 338.9,177.5 340.2,177.8 341.5,178.2 342.8,178.5 344.2,178.8 345.5,179.1 346.8,179.4 348.1,179.6 349.4,179.9 350.7,180.1 352.0,180.3 353.4,180.5 354.7,180.7 356.0,180.8 357.3,181.0 358.6,181.1 359.9,181.3 361.2,181.4 362.5,181.5 363.9,181.6 365.2,181.7 366.5,181.7 367.8,181.8 369.1,181.9 370.4,181.9 371.7,181.9 373.1,182.0 374.4,182.0 375.7,182.0 377.0,182.0 L377.0,182.0 Z" fill="#4a90d9" fill-opacity="0.06"/>
  <polyline points="42.0,182.0 43.3,182.0 44.6,182.0 45.9,182.0 47.3,181.9 48.6,181.9 49.9,181.9 51.2,181.8 52.5,181.7 53.8,181.7 55.1,181.6 56.5,181.5 57.8,181.4 59.1,181.3 60.4,181.1 61.7,181.0 63.0,180.8 64.3,180.7 65.6,180.5 67.0,180.3 68.3,180.1 69.6,179.9 70.9,179.6 72.2,179.4 73.5,179.1 74.8,178.8 76.2,178.5 77.5,178.2 78.8,177.8 80.1,177.5 81.4,177.1 82.7,176.7 84.0,176.3 85.4,175.8 86.7,175.4 88.0,174.9 89.3,174.4 90.6,173.8 91.9,173.3 93.2,172.7 94.5,172.1 95.9,171.5 97.2,170.9 98.5,170.2 99.8,169.5 101.1,168.8 102.4,168.0 103.7,167.3 105.1,166.5 106.4,165.6 107.7,164.8 109.0,163.9 110.3,163.0 111.6,162.0 112.9,161.1 114.3,160.1 115.6,159.0 116.9,158.0 118.2,156.9 119.5,155.8 120.8,154.6 122.1,153.4 123.5,152.2 124.8,151.0 126.1,149.7 127.4,148.4 128.7,147.0 130.0,145.6 131.3,144.2 132.6,142.8 134.0,141.3 135.3,139.8 136.6,138.2 137.9,136.6 139.2,135.0 140.5,133.4 141.8,131.7 143.2,130.0 144.5,128.2 145.8,126.4 147.1,124.6 148.4,122.8 149.7,120.9 151.0,118.9 152.4,117.0 153.7,115.0 155.0,113.0 156.3,110.9 157.6,108.8 158.9,106.7 160.2,104.6 161.5,102.4 162.9,100.2 164.2,97.9 165.5,95.7 166.8,93.4 168.1,91.0 169.4,88.7 170.7,86.3 172.1,83.9 173.4,81.5 174.7,79.0 176.0,76.5 177.3,74.0 178.6,71.5 179.9,68.9 181.3,66.3 182.6,63.7 183.9,61.1 185.2,58.5 186.5,55.8 187.8,53.2 189.1,50.5 190.5,47.8 191.8,45.1 193.1,42.3 194.4,39.6 195.7,36.9 197.0,34.1 198.3,31.4 199.6,28.6 201.0,25.9 202.3,23.1 203.6,20.4 204.9,17.6 206.2,14.9 207.5,12.1 208.8,9.4 210.2,9.4 211.5,12.1 212.8,14.9 214.1,17.6 215.4,20.4 216.7,23.1 218.0,25.9 219.4,28.6 220.7,31.4 222.0,34.1 223.3,36.9 224.6,39.6 225.9,42.3 227.2,45.1 228.5,47.8 229.9,50.5 231.2,53.2 232.5,55.8 233.8,58.5 235.1,61.1 236.4,63.7 237.7,66.3 239.1,68.9 240.4,71.5 241.7,74.0 243.0,76.5 244.3,79.0 245.6,81.5 246.9,83.9 248.3,86.3 249.6,88.7 250.9,91.0 252.2,93.4 253.5,95.7 254.8,97.9 256.1,100.2 257.5,102.4 258.8,104.6 260.1,106.7 261.4,108.8 262.7,110.9 264.0,113.0 265.3,115.0 266.6,117.0 268.0,118.9 269.3,120.9 270.6,122.8 271.9,124.6 273.2,126.4 274.5,128.2 275.8,130.0 277.2,131.7 278.5,133.4 279.8,135.0 281.1,136.6 282.4,138.2 283.7,139.8 285.0,141.3 286.4,142.8 287.7,144.2 289.0,145.6 290.3,147.0 291.6,148.4 292.9,149.7 294.2,151.0 295.5,152.2 296.9,153.4 298.2,154.6 299.5,155.8 300.8,156.9 302.1,158.0 303.4,159.0 304.7,160.1 306.1,161.1 307.4,162.0 308.7,163.0 310.0,163.9 311.3,164.8 312.6,165.6 313.9,166.5 315.3,167.3 316.6,168.0 317.9,168.8 319.2,169.5 320.5,170.2 321.8,170.9 323.1,171.5 324.5,172.1 325.8,172.7 327.1,173.3 328.4,173.8 329.7,174.4 331.0,174.9 332.3,175.4 333.6,175.8 335.0,176.3 336.3,176.7 337.6,177.1 338.9,177.5 340.2,177.8 341.5,178.2 342.8,178.5 344.2,178.8 345.5,179.1 346.8,179.4 348.1,179.6 349.4,179.9 350.7,180.1 352.0,180.3 353.4,180.5 354.7,180.7 356.0,180.8 357.3,181.0 358.6,181.1 359.9,181.3 361.2,181.4 362.5,181.5 363.9,181.6 365.2,181.7 366.5,181.7 367.8,181.8 369.1,181.9 370.4,181.9 371.7,181.9 373.1,182.0 374.4,182.0 375.7,182.0 377.0,182.0" fill="none" stroke="#4a90d9" stroke-width="1.5" stroke-linejoin="round"/>
  <line x1="450" y1="8.0" x2="785" y2="8.0" stroke="#e5e7eb" stroke-width="0.7"/>
  <text x="445" y="12.0" text-anchor="end" font-size="10" fill="#6b7280">0</text>
  <line x1="450" y1="66.0" x2="785" y2="66.0" stroke="#e5e7eb" stroke-width="0.7"/>
  <text x="445" y="70.0" text-anchor="end" font-size="10" fill="#6b7280">-40</text>
  <line x1="450" y1="124.0" x2="785" y2="124.0" stroke="#e5e7eb" stroke-width="0.7"/>
  <text x="445" y="128.0" text-anchor="end" font-size="10" fill="#6b7280">-80</text>
  <line x1="450" y1="182.0" x2="785" y2="182.0" stroke="#e5e7eb" stroke-width="0.7"/>
  <text x="445" y="186.0" text-anchor="end" font-size="10" fill="#6b7280">-120</text>
  <line x1="450.0" y1="8" x2="450.0" y2="182" stroke="#e5e7eb" stroke-width="0.7"/>
  <text x="450.0" y="198" text-anchor="middle" font-size="10" fill="#6b7280">0</text>
  <line x1="517.0" y1="8" x2="517.0" y2="182" stroke="#e5e7eb" stroke-width="0.7"/>
  <text x="517.0" y="198" text-anchor="middle" font-size="10" fill="#6b7280">0.1</text>
  <line x1="584.0" y1="8" x2="584.0" y2="182" stroke="#e5e7eb" stroke-width="0.7"/>
  <text x="584.0" y="198" text-anchor="middle" font-size="10" fill="#6b7280">0.2</text>
  <line x1="651.0" y1="8" x2="651.0" y2="182" stroke="#e5e7eb" stroke-width="0.7"/>
  <text x="651.0" y="198" text-anchor="middle" font-size="10" fill="#6b7280">0.3</text>
  <line x1="718.0" y1="8" x2="718.0" y2="182" stroke="#e5e7eb" stroke-width="0.7"/>
  <text x="718.0" y="198" text-anchor="middle" font-size="10" fill="#6b7280">0.4</text>
  <line x1="785.0" y1="8" x2="785.0" y2="182" stroke="#e5e7eb" stroke-width="0.7"/>
  <text x="785.0" y="198" text-anchor="middle" font-size="10" fill="#6b7280">0.5</text>
  <line x1="450" y1="8" x2="450" y2="182" stroke="#d1d5db" stroke-width="1"/>
  <line x1="450" y1="182" x2="785" y2="182" stroke="#d1d5db" stroke-width="1"/>
  <polyline points="450.0,8.0 450.2,8.0 450.3,8.1 450.5,8.2 450.7,8.3 450.8,8.5 451.0,8.7 451.1,9.0 451.3,9.3 451.5,9.6 451.6,10.0 451.8,10.4 452.0,10.8 452.1,11.3 452.3,11.8 452.5,12.4 452.6,13.0 452.8,13.6 452.9,14.3 453.1,15.0 453.3,15.8 453.4,16.5 453.6,17.3 453.8,18.2 453.9,19.0 454.1,19.9 454.3,20.9 454.4,21.8 454.6,22.8 454.7,23.7 454.9,24.7 455.1,25.7 455.2,26.7 455.4,27.7 455.6,28.6 455.7,29.6 455.9,30.6 456.1,31.5 456.2,32.4 456.4,33.2 456.5,34.0 456.7,34.8 456.9,35.6 457.0,36.3 457.2,36.9 457.4,37.5 457.5,38.1 457.7,38.7 457.9,39.2 458.0,39.7 458.2,40.2 458.3,40.7 458.5,41.1 458.7,41.6 458.8,42.0 459.0,42.5 459.2,42.9 459.3,43.4 459.5,43.8 459.7,44.3 459.8,44.7 460.0,45.2 460.1,45.7 460.3,46.2 460.5,46.7 460.6,47.1 460.8,47.6 461.0,48.1 461.1,48.5 461.3,49.0 461.5,49.4 461.6,49.8 461.8,50.2 461.9,50.6 462.1,51.0 462.3,51.3 462.4,51.7 462.6,52.0 462.8,52.3 462.9,52.6 463.1,52.9 463.3,53.1 463.4,53.4 463.6,53.7 463.7,53.9 463.9,54.2 464.1,54.5 464.2,54.8 464.4,55.0 464.6,55.3 464.7,55.6 464.9,55.9 465.1,56.2 465.2,56.5 465.4,56.8 465.5,57.1 465.7,57.4 465.9,57.7 466.0,58.1 466.2,58.4 466.4,58.7 466.5,59.0 466.7,59.2 466.9,59.5 467.0,59.8 467.2,60.0 467.3,60.3 467.5,60.5 467.7,60.7 467.8,61.0 468.0,61.2 468.2,61.4 468.3,61.6 468.5,61.8 468.7,62.0 468.8,62.1 469.0,62.3 469.1,62.5 469.3,62.7 469.5,62.9 469.6,63.1 469.8,63.3 470.0,63.5 470.1,63.8 470.3,64.0 470.5,64.2 470.6,64.4 470.8,64.7 470.9,64.9 471.1,65.1 471.3,65.3 471.4,65.6 471.6,65.8 471.8,66.0 471.9,66.2 472.1,66.4 472.3,66.6 472.4,66.8 472.6,67.0 472.7,67.2 472.9,67.4 473.1,67.5 473.2,67.7 473.4,67.9 473.6,68.0 473.7,68.2 473.9,68.3 474.1,68.4 474.2,68.6 474.4,68.7 474.5,68.9 474.7,69.1 474.9,69.2 475.0,69.4 475.2,69.5 475.4,69.7 475.5,69.9 475.7,70.1 475.9,70.2 476.0,70.4 476.2,70.6 476.3,70.8 476.5,71.0 476.7,71.2 476.8,71.3 477.0,71.5 477.2,71.7 477.3,71.9 477.5,72.0 477.7,72.2 477.8,72.3 478.0,72.5 478.1,72.6 478.3,72.7 478.5,72.9 478.6,73.0 478.8,73.1 479.0,73.2 479.1,73.4 479.3,73.5 479.5,73.6 479.6,73.7 479.8,73.8 479.9,74.0 480.1,74.1 480.3,74.2 480.4,74.4 480.6,74.5 480.8,74.7 480.9,74.8 481.1,75.0 481.3,75.1 481.4,75.3 481.6,75.4 481.7,75.6 481.9,75.7 482.1,75.9 482.2,76.0 482.4,76.2 482.6,76.3 482.7,76.4 482.9,76.6 483.1,76.7 483.2,76.8 483.4,76.9 483.5,77.1 483.7,77.2 483.9,77.3 484.0,77.4 484.2,77.5 484.4,77.6 484.5,77.7 484.7,77.8 484.9,77.9 485.0,78.0 485.2,78.1 485.3,78.2 485.5,78.3 485.7,78.4 485.8,78.6 486.0,78.7 486.2,78.8 486.3,78.9 486.5,79.1 486.7,79.2 486.8,79.3 487.0,79.5 487.1,79.6 487.3,79.7 487.5,79.8 487.6,80.0 487.8,80.1 488.0,80.2 488.1,80.3 488.3,80.4 488.5,80.5 488.6,80.6 488.8,80.7 488.9,80.8 489.1,80.9 489.3,81.0 489.4,81.1 489.6,81.2 489.8,81.3 489.9,81.4 490.1,81.5 490.3,81.5 490.4,81.6 490.6,81.7 490.7,81.8 490.9,81.9 491.1,82.0 491.2,82.1 491.4,82.3 491.6,82.4 491.7,82.5 491.9,82.6 492.1,82.7 492.2,82.8 492.4,82.9 492.6,83.1 492.7,83.2 492.9,83.3 493.0,83.4 493.2,83.5 493.4,83.6 493.5,83.7 493.7,83.8 493.9,83.9 494.0,84.0 494.2,84.0 494.4,84.1 494.5,84.2 494.7,84.3 494.8,84.4 495.0,84.4 495.2,84.5 495.3,84.6 495.5,84.7 495.7,84.8 495.8,84.8 496.0,84.9 496.2,85.0 496.3,85.1 496.5,85.2 496.6,85.3 496.8,85.4 497.0,85.5 497.1,85.6 497.3,85.7 497.5,85.8 497.6,85.9 497.8,86.0 498.0,86.1 498.1,86.2 498.3,86.3 498.4,86.4 498.6,86.5 498.8,86.6 498.9,86.7 499.1,86.7 499.3,86.8 499.4,86.9 499.6,87.0 499.8,87.0 499.9,87.1 500.1,87.2 500.2,87.2 500.4,87.3 500.6,87.4 500.7,87.5 500.9,87.5 501.1,87.6 501.2,87.7 501.4,87.8 501.6,87.8 501.7,87.9 501.9,88.0 502.0,88.1 502.2,88.2 502.4,88.3 502.5,88.4 502.7,88.5 502.9,88.6 503.0,88.7 503.2,88.7 503.4,88.8 503.5,88.9 503.7,89.0 503.8,89.1 504.0,89.2 504.2,89.2 504.3,89.3 504.5,89.4 504.7,89.5 504.8,89.5 505.0,89.6 505.2,89.6 505.3,89.7 505.5,89.8 505.6,89.8 505.8,89.9 506.0,90.0 506.1,90.0 506.3,90.1 506.5,90.2 506.6,90.2 506.8,90.3 507.0,90.4 507.1,90.5 507.3,90.6 507.4,90.6 507.6,90.7 507.8,90.8 507.9,90.9 508.1,91.0 508.3,91.1 508.4,91.1 508.6,91.2 508.8,91.3 508.9,91.4 509.1,91.5 509.2,91.5 509.4,91.6 509.6,91.7 509.7,91.7 509.9,91.8 510.1,91.8 510.2,91.9 510.4,92.0 510.6,92.0 510.7,92.1 510.9,92.1 511.0,92.2 511.2,92.3 511.4,92.3 511.5,92.4 511.7,92.4 511.9,92.5 512.0,92.6 512.2,92.7 512.4,92.7 512.5,92.8 512.7,92.9 512.8,93.0 513.0,93.0 513.2,93.1 513.3,93.2 513.5,93.3 513.7,93.3 513.8,93.4 514.0,93.5 514.2,93.6 514.3,93.6 514.5,93.7 514.6,93.8 514.8,93.8 515.0,93.9 515.1,93.9 515.3,94.0 515.5,94.0 515.6,94.1 515.8,94.2 516.0,94.2 516.1,94.3 516.3,94.3 516.4,94.4 516.6,94.4 516.8,94.5 516.9,94.5 517.1,94.6 517.3,94.7 517.4,94.7 517.6,94.8 517.8,94.9 517.9,94.9 518.1,95.0 518.2,95.1 518.4,95.2 518.6,95.2 518.7,95.3 518.9,95.4 519.1,95.4 519.2,95.5 519.4,95.6 519.6,95.6 519.7,95.7 519.9,95.8 520.0,95.8 520.2,95.9 520.4,95.9 520.5,96.0 520.7,96.0 520.9,96.1 521.0,96.1 521.2,96.2 521.4,96.2 521.5,96.3 521.7,96.3 521.8,96.4 522.0,96.4 522.2,96.5 522.3,96.5 522.5,96.6 522.7,96.7 522.8,96.7 523.0,96.8 523.2,96.9 523.3,96.9 523.5,97.0 523.6,97.1 523.8,97.1 524.0,97.2 524.1,97.2 524.3,97.3 524.5,97.4 524.6,97.4 524.8,97.5 525.0,97.6 525.1,97.6 525.3,97.7 525.4,97.7 525.6,97.8 525.8,97.8 525.9,97.9 526.1,97.9 526.3,98.0 526.4,98.0 526.6,98.0 526.8,98.1 526.9,98.1 527.1,98.2 527.2,98.2 527.4,98.3 527.6,98.3 527.7,98.4 527.9,98.5 528.1,98.5 528.2,98.6 528.4,98.6 528.6,98.7 528.7,98.8 528.9,98.8 529.0,98.9 529.2,98.9 529.4,99.0 529.5,99.1 529.7,99.1 529.9,99.2 530.0,99.2 530.2,99.3 530.4,99.3 530.5,99.4 530.7,99.4 530.8,99.5 531.0,99.5 531.2,99.6 531.3,99.6 531.5,99.7 531.7,99.7 531.8,99.8 532.0,99.8 532.2,99.8 532.3,99.9 532.5,99.9 532.6,100.0 532.8,100.0 533.0,100.1 533.1,100.1 533.3,100.2 533.5,100.3 533.6,100.3 533.8,100.4 534.0,100.4 534.1,100.5 534.3,100.5 534.4,100.6 534.6,100.7 534.8,100.7 534.9,100.8 535.1,100.8 535.3,100.9 535.4,100.9 535.6,101.0 535.8,101.0 535.9,101.1 536.1,101.1 536.2,101.2 536.4,101.2 536.6,101.3 536.7,101.3 536.9,101.3 537.1,101.4 537.2,101.4 537.4,101.5 537.6,101.5 537.7,101.5 537.9,101.6 538.0,101.6 538.2,101.7 538.4,101.7 538.5,101.8 538.7,101.8 538.9,101.9 539.0,101.9 539.2,102.0 539.4,102.1 539.5,102.1 539.7,102.2 539.8,102.2 540.0,102.3 540.2,102.3 540.3,102.4 540.5,102.4 540.7,102.5 540.8,102.5 541.0,102.6 541.2,102.6 541.3,102.7 541.5,102.7 541.6,102.7 541.8,102.8 542.0,102.8 542.1,102.9 542.3,102.9 542.5,102.9 542.6,103.0 542.8,103.0 543.0,103.1 543.1,103.1 543.3,103.1 543.4,103.2 543.6,103.2 543.8,103.3 543.9,103.3 544.1,103.4 544.3,103.4 544.4,103.5 544.6,103.5 544.8,103.6 544.9,103.7 545.1,103.7 545.2,103.8 545.4,103.8 545.6,103.9 545.7,103.9 545.9,103.9 546.1,104.0 546.2,104.0 546.4,104.1 546.6,104.1 546.7,104.2 546.9,104.2 547.0,104.2 547.2,104.3 547.4,104.3 547.5,104.3 547.7,104.4 547.9,104.4 548.0,104.5 548.2,104.5 548.4,104.5 548.5,104.6 548.7,104.6 548.8,104.7 549.0,104.7 549.2,104.8 549.3,104.8 549.5,104.9 549.7,104.9 549.8,105.0 550.0,105.0 550.2,105.1 550.3,105.1 550.5,105.2 550.6,105.2 550.8,105.3 551.0,105.3 551.1,105.3 551.3,105.4 551.5,105.4 551.6,105.5 551.8,105.5 552.0,105.5 552.1,105.6 552.3,105.6 552.4,105.7 552.6,105.7 552.8,105.7 552.9,105.8 553.1,105.8 553.3,105.8 553.4,105.9 553.6,105.9 553.8,105.9 553.9,106.0 554.1,106.0 554.2,106.1 554.4,106.1 554.6,106.2 554.7,106.2 554.9,106.3 555.1,106.3 555.2,106.4 555.4,106.4 555.6,106.5 555.7,106.5 555.9,106.5 556.0,106.6 556.2,106.6 556.4,106.7 556.5,106.7 556.7,106.8 556.9,106.8 557.0,106.8 557.2,106.9 557.4,106.9 557.5,106.9 557.7,107.0 557.8,107.0 558.0,107.0 558.2,107.1 558.3,107.1 558.5,107.1 558.7,107.2 558.8,107.2 559.0,107.3 559.2,107.3 559.3,107.3 559.5,107.4 559.6,107.4 559.8,107.5 560.0,107.5 560.1,107.6 560.3,107.6 560.5,107.6 560.6,107.7 560.8,107.7 561.0,107.8 561.1,107.8 561.3,107.9 561.4,107.9 561.6,108.0 561.8,108.0 561.9,108.0 562.1,108.1 562.3,108.1 562.4,108.1 562.6,108.2 562.8,108.2 562.9,108.2 563.1,108.3 563.2,108.3 563.4,108.3 563.6,108.4 563.7,108.4 563.9,108.4 564.1,108.5 564.2,108.5 564.4,108.5 564.6,108.6 564.7,108.6 564.9,108.7 565.0,108.7 565.2,108.8 565.4,108.8 565.5,108.8 565.7,108.9 565.9,108.9 566.0,109.0 566.2,109.0 566.4,109.1 566.5,109.1 566.7,109.1 566.8,109.2 567.0,109.2 567.2,109.3 567.3,109.3 567.5,109.3 567.7,109.4 567.8,109.4 568.0,109.4 568.2,109.5 568.3,109.5 568.5,109.5 568.6,109.5 568.8,109.6 569.0,109.6 569.1,109.6 569.3,109.7 569.5,109.7 569.6,109.7 569.8,109.8 570.0,109.8 570.1,109.9 570.3,109.9 570.4,109.9 570.6,110.0 570.8,110.0 570.9,110.1 571.1,110.1 571.3,110.2 571.4,110.2 571.6,110.2 571.8,110.3 571.9,110.3 572.1,110.4 572.2,110.4 572.4,110.4 572.6,110.5 572.7,110.5 572.9,110.5 573.1,110.6 573.2,110.6 573.4,110.6 573.6,110.7 573.7,110.7 573.9,110.7 574.0,110.7 574.2,110.8 574.4,110.8 574.5,110.8 574.7,110.9 574.9,110.9 575.0,110.9 575.2,111.0 575.4,111.0 575.5,111.1 575.7,111.1 575.9,111.1 576.0,111.2 576.2,111.2 576.3,111.3 576.5,111.3 576.7,111.3 576.8,111.4 577.0,111.4 577.2,111.5 577.3,111.5 577.5,111.5 577.7,111.6 577.8,111.6 578.0,111.6 578.1,111.7 578.3,111.7 578.5,111.7 578.6,111.8 578.8,111.8 579.0,111.8 579.1,111.8 579.3,111.9 579.5,111.9 579.6,111.9 579.8,112.0 579.9,112.0 580.1,112.0 580.3,112.1 580.4,112.1 580.6,112.1 580.8,112.2 580.9,112.2 581.1,112.3 581.3,112.3 581.4,112.3 581.6,112.4 581.7,112.4 581.9,112.4 582.1,112.5 582.2,112.5 582.4,112.6 582.6,112.6 582.7,112.6 582.9,112.7 583.1,112.7 583.2,112.7 583.4,112.8 583.5,112.8 583.7,112.8 583.9,112.8 584.0,112.9 584.2,112.9 584.4,112.9 584.5,113.0 584.7,113.0 584.9,113.0 585.0,113.1 585.2,113.1 585.3,113.1 585.5,113.1 585.7,113.2 585.8,113.2 586.0,113.3 586.2,113.3 586.3,113.3 586.5,113.4 586.7,113.4 586.8,113.4 587.0,113.5 587.1,113.5 587.3,113.6 587.5,113.6 587.6,113.6 587.8,113.7 588.0,113.7 588.1,113.7 588.3,113.8 588.5,113.8 588.6,113.8 588.8,113.9 588.9,113.9 589.1,113.9 589.3,113.9 589.4,114.0 589.6,114.0 589.8,114.0 589.9,114.0 590.1,114.1 590.3,114.1 590.4,114.1 590.6,114.2 590.7,114.2 590.9,114.2 591.1,114.3 591.2,114.3 591.4,114.3 591.6,114.4 591.7,114.4 591.9,114.5 592.1,114.5 592.2,114.5 592.4,114.6 592.5,114.6 592.7,114.6 592.9,114.7 593.0,114.7 593.2,114.7 593.4,114.8 593.5,114.8 593.7,114.8 593.9,114.9 594.0,114.9 594.2,114.9 594.3,114.9 594.5,115.0 594.7,115.0 594.8,115.0 595.0,115.0 595.2,115.1 595.3,115.1 595.5,115.1 595.7,115.2 595.8,115.2 596.0,115.2 596.1,115.3 596.3,115.3 596.5,115.3 596.6,115.4 596.8,115.4 597.0,115.4 597.1,115.5 597.3,115.5 597.5,115.5 597.6,115.6 597.8,115.6 597.9,115.6 598.1,115.7 598.3,115.7 598.4,115.7 598.6,115.8 598.8,115.8 598.9,115.8 599.1,115.9 599.3,115.9 599.4,115.9 599.6,115.9 599.7,116.0 599.9,116.0 600.1,116.0 600.2,116.1 600.4,116.1 600.6,116.1 600.7,116.1 600.9,116.2 601.1,116.2 601.2,116.2 601.4,116.3 601.5,116.3 601.7,116.3 601.9,116.4 602.0,116.4 602.2,116.4 602.4,116.5 602.5,116.5 602.7,116.5 602.9,116.6 603.0,116.6 603.2,116.6 603.3,116.7 603.5,116.7 603.7,116.7 603.8,116.8 604.0,116.8 604.2,116.8 604.3,116.9 604.5,116.9 604.7,116.9 604.8,116.9 605.0,117.0 605.1,117.0 605.3,117.0 605.5,117.0 605.6,117.1 605.8,117.1 606.0,117.1 606.1,117.1 606.3,117.2 606.5,117.2 606.6,117.2 606.8,117.3 606.9,117.3 607.1,117.3 607.3,117.4 607.4,117.4 607.6,117.4 607.8,117.5 607.9,117.5 608.1,117.5 608.3,117.6 608.4,117.6 608.6,117.6 608.7,117.7 608.9,117.7 609.1,117.7 609.2,117.8 609.4,117.8 609.6,117.8 609.7,117.8 609.9,117.9 610.1,117.9 610.2,117.9 610.4,117.9 610.5,118.0 610.7,118.0 610.9,118.0 611.0,118.0 611.2,118.1 611.4,118.1 611.5,118.1 611.7,118.2 611.9,118.2 612.0,118.2 612.2,118.2 612.3,118.3 612.5,118.3 612.7,118.3 612.8,118.4 613.0,118.4 613.2,118.4 613.3,118.5 613.5,118.5 613.7,118.6 613.8,118.6 614.0,118.6 614.1,118.6 614.3,118.7 614.5,118.7 614.6,118.7 614.8,118.8 615.0,118.8 615.1,118.8 615.3,118.8 615.5,118.9 615.6,118.9 615.8,118.9 615.9,118.9 616.1,119.0 616.3,119.0 616.4,119.0 616.6,119.0 616.8,119.1 616.9,119.1 617.1,119.1 617.3,119.2 617.4,119.2 617.6,119.2 617.7,119.2 617.9,119.3 618.1,119.3 618.2,119.3 618.4,119.4 618.6,119.4 618.7,119.4 618.9,119.5 619.1,119.5 619.2,119.5 619.4,119.6 619.5,119.6 619.7,119.6 619.9,119.7 620.0,119.7 620.2,119.7 620.4,119.7 620.5,119.8 620.7,119.8 620.9,119.8 621.0,119.8 621.2,119.9 621.3,119.9 621.5,119.9 621.7,119.9 621.8,120.0 622.0,120.0 622.2,120.0 622.3,120.0 622.5,120.1 622.7,120.1 622.8,120.1 623.0,120.2 623.1,120.2 623.3,120.2 623.5,120.3 623.6,120.3 623.8,120.3 624.0,120.4 624.1,120.4 624.3,120.4 624.5,120.5 624.6,120.5 624.8,120.5 624.9,120.5 625.1,120.6 625.3,120.6 625.4,120.6 625.6,120.7 625.8,120.7 625.9,120.7 626.1,120.7 626.3,120.7 626.4,120.8 626.6,120.8 626.7,120.8 626.9,120.8 627.1,120.9 627.2,120.9 627.4,120.9 627.6,121.0 627.7,121.0 627.9,121.0 628.1,121.0 628.2,121.1 628.4,121.1 628.5,121.1 628.7,121.2 628.9,121.2 629.0,121.2 629.2,121.3 629.4,121.3 629.5,121.3 629.7,121.4 629.9,121.4 630.0,121.4 630.2,121.4 630.3,121.5 630.5,121.5 630.7,121.5 630.8,121.6 631.0,121.6 631.2,121.6 631.3,121.6 631.5,121.6 631.7,121.7 631.8,121.7 632.0,121.7 632.1,121.7 632.3,121.8 632.5,121.8 632.6,121.8 632.8,121.9 633.0,121.9 633.1,121.9 633.3,121.9 633.5,122.0 633.6,122.0 633.8,122.0 633.9,122.1 634.1,122.1 634.3,122.1 634.4,122.2 634.6,122.2 634.8,122.2 634.9,122.3 635.1,122.3 635.3,122.3 635.4,122.3 635.6,122.4 635.7,122.4 635.9,122.4 636.1,122.4 636.2,122.5 636.4,122.5 636.6,122.5 636.7,122.5 636.9,122.6 637.1,122.6 637.2,122.6 637.4,122.6 637.5,122.7 637.7,122.7 637.9,122.7 638.0,122.7 638.2,122.8 638.4,122.8 638.5,122.8 638.7,122.9 638.9,122.9 639.0,122.9 639.2,123.0 639.3,123.0 639.5,123.0 639.7,123.0 639.8,123.1 640.0,123.1 640.2,123.1 640.3,123.2 640.5,123.2 640.7,123.2 640.8,123.3 641.0,123.3 641.1,123.3 641.3,123.3 641.5,123.4 641.6,123.4 641.8,123.4 642.0,123.4 642.1,123.4 642.3,123.5 642.5,123.5 642.6,123.5 642.8,123.5 642.9,123.6 643.1,123.6 643.3,123.6 643.4,123.7 643.6,123.7 643.8,123.7 643.9,123.7 644.1,123.8 644.3,123.8 644.4,123.8 644.6,123.9 644.7,123.9 644.9,123.9 645.1,124.0 645.2,124.0 645.4,124.0 645.6,124.0 645.7,124.1 645.9,124.1 646.1,124.1 646.2,124.2 646.4,124.2 646.5,124.2 646.7,124.2 646.9,124.3 647.0,124.3 647.2,124.3 647.4,124.3 647.5,124.3 647.7,124.4 647.9,124.4 648.0,124.4 648.2,124.4 648.3,124.5 648.5,124.5 648.7,124.5 648.8,124.6 649.0,124.6 649.2,124.6 649.3,124.6 649.5,124.7 649.7,124.7 649.8,124.7 650.0,124.8 650.1,124.8 650.3,124.8 650.5,124.9 650.6,124.9 650.8,124.9 651.0,125.0 651.1,125.0 651.3,125.0 651.5,125.0 651.6,125.1 651.8,125.1 651.9,125.1 652.1,125.1 652.3,125.2 652.4,125.2 652.6,125.2 652.8,125.2 652.9,125.2 653.1,125.3 653.3,125.3 653.4,125.3 653.6,125.3 653.7,125.4 653.9,125.4 654.1,125.4 654.2,125.5 654.4,125.5 654.6,125.5 654.7,125.6 654.9,125.6 655.1,125.6 655.2,125.6 655.4,125.7 655.5,125.7 655.7,125.7 655.9,125.8 656.0,125.8 656.2,125.8 656.4,125.9 656.5,125.9 656.7,125.9 656.9,125.9 657.0,126.0 657.2,126.0 657.3,126.0 657.5,126.0 657.7,126.1 657.8,126.1 658.0,126.1 658.2,126.1 658.3,126.1 658.5,126.2 658.7,126.2 658.8,126.2 659.0,126.3 659.1,126.3 659.3,126.3 659.5,126.3 659.6,126.4 659.8,126.4 660.0,126.4 660.1,126.5 660.3,126.5 660.5,126.5 660.6,126.6 660.8,126.6 661.0,126.6 661.1,126.6 661.3,126.7 661.4,126.7 661.6,126.7 661.8,126.8 661.9,126.8 662.1,126.8 662.3,126.8 662.4,126.9 662.6,126.9 662.8,126.9 662.9,126.9 663.1,127.0 663.2,127.0 663.4,127.0 663.6,127.0 663.7,127.1 663.9,127.1 664.1,127.1 664.2,127.1 664.4,127.2 664.6,127.2 664.7,127.2 664.9,127.2 665.0,127.3 665.2,127.3 665.4,127.3 665.5,127.4 665.7,127.4 665.9,127.4 666.0,127.5 666.2,127.5 666.4,127.5 666.5,127.6 666.7,127.6 666.8,127.6 667.0,127.6 667.2,127.7 667.3,127.7 667.5,127.7 667.7,127.7 667.8,127.8 668.0,127.8 668.2,127.8 668.3,127.8 668.5,127.9 668.6,127.9 668.8,127.9 669.0,127.9 669.1,128.0 669.3,128.0 669.5,128.0 669.6,128.0 669.8,128.1 670.0,128.1 670.1,128.1 670.3,128.2 670.4,128.2 670.6,128.2 670.8,128.3 670.9,128.3 671.1,128.3 671.3,128.3 671.4,128.4 671.6,128.4 671.8,128.4 671.9,128.5 672.1,128.5 672.2,128.5 672.4,128.5 672.6,128.6 672.7,128.6 672.9,128.6 673.1,128.7 673.2,128.7 673.4,128.7 673.6,128.7 673.7,128.7 673.9,128.8 674.0,128.8 674.2,128.8 674.4,128.8 674.5,128.9 674.7,128.9 674.9,128.9 675.0,129.0 675.2,129.0 675.4,129.0 675.5,129.0 675.7,129.1 675.8,129.1 676.0,129.1 676.2,129.2 676.3,129.2 676.5,129.2 676.7,129.3 676.8,129.3 677.0,129.3 677.2,129.4 677.3,129.4 677.5,129.4 677.6,129.4 677.8,129.5 678.0,129.5 678.1,129.5 678.3,129.5 678.5,129.6 678.6,129.6 678.8,129.6 679.0,129.6 679.1,129.7 679.3,129.7 679.4,129.7 679.6,129.7 679.8,129.8 679.9,129.8 680.1,129.8 680.3,129.9 680.4,129.9 680.6,129.9 680.8,130.0 680.9,130.0 681.1,130.0 681.2,130.0 681.4,130.1 681.6,130.1 681.7,130.1 681.9,130.2 682.1,130.2 682.2,130.2 682.4,130.3 682.6,130.3 682.7,130.3 682.9,130.4 683.0,130.4 683.2,130.4 683.4,130.4 683.5,130.5 683.7,130.5 683.9,130.5 684.0,130.5 684.2,130.6 684.4,130.6 684.5,130.6 684.7,130.6 684.8,130.7 685.0,130.7 685.2,130.7 685.3,130.7 685.5,130.8 685.7,130.8 685.8,130.8 686.0,130.9 686.2,130.9 686.3,130.9 686.5,131.0 686.6,131.0 686.8,131.0 687.0,131.1 687.1,131.1 687.3,131.1 687.5,131.2 687.6,131.2 687.8,131.2 688.0,131.2 688.1,131.3 688.3,131.3 688.4,131.3 688.6,131.4 688.8,131.4 688.9,131.4 689.1,131.4 689.3,131.5 689.4,131.5 689.6,131.5 689.8,131.5 689.9,131.6 690.1,131.6 690.2,131.6 690.4,131.7 690.6,131.7 690.7,131.7 690.9,131.7 691.1,131.8 691.2,131.8 691.4,131.8 691.6,131.9 691.7,131.9 691.9,131.9 692.0,132.0 692.2,132.0 692.4,132.0 692.5,132.1 692.7,132.1 692.9,132.1 693.0,132.2 693.2,132.2 693.4,132.2 693.5,132.3 693.7,132.3 693.8,132.3 694.0,132.3 694.2,132.4 694.3,132.4 694.5,132.4 694.7,132.4 694.8,132.5 695.0,132.5 695.2,132.5 695.3,132.6 695.5,132.6 695.6,132.6 695.8,132.6 696.0,132.7 696.1,132.7 696.3,132.7 696.5,132.8 696.6,132.8 696.8,132.8 697.0,132.9 697.1,132.9 697.3,132.9 697.4,133.0 697.6,133.0 697.8,133.0 697.9,133.1 698.1,133.1 698.3,133.1 698.4,133.2 698.6,133.2 698.8,133.2 698.9,133.3 699.1,133.3 699.2,133.3 699.4,133.3 699.6,133.4 699.7,133.4 699.9,133.4 700.1,133.4 700.2,133.5 700.4,133.5 700.6,133.5 700.7,133.6 700.9,133.6 701.0,133.6 701.2,133.7 701.4,133.7 701.5,133.7 701.7,133.8 701.9,133.8 702.0,133.8 702.2,133.9 702.4,133.9 702.5,133.9 702.7,134.0 702.8,134.0 703.0,134.0 703.2,134.1 703.3,134.1 703.5,134.1 703.7,134.2 703.8,134.2 704.0,134.2 704.2,134.3 704.3,134.3 704.5,134.3 704.6,134.3 704.8,134.4 705.0,134.4 705.1,134.4 705.3,134.5 705.5,134.5 705.6,134.5 705.8,134.5 706.0,134.6 706.1,134.6 706.3,134.6 706.4,134.7 706.6,134.7 706.8,134.7 706.9,134.8 707.1,134.8 707.3,134.8 707.4,134.9 707.6,134.9 707.8,135.0 707.9,135.0 708.1,135.0 708.2,135.1 708.4,135.1 708.6,135.1 708.7,135.2 708.9,135.2 709.1,135.2 709.2,135.3 709.4,135.3 709.6,135.3 709.7,135.4 709.9,135.4 710.0,135.4 710.2,135.5 710.4,135.5 710.5,135.5 710.7,135.5 710.9,135.6 711.0,135.6 711.2,135.6 711.4,135.7 711.5,135.7 711.7,135.7 711.8,135.8 712.0,135.8 712.2,135.8 712.3,135.9 712.5,135.9 712.7,136.0 712.8,136.0 713.0,136.0 713.2,136.1 713.3,136.1 713.5,136.1 713.6,136.2 713.8,136.2 714.0,136.2 714.1,136.3 714.3,136.3 714.5,136.4 714.6,136.4 714.8,136.4 715.0,136.5 715.1,136.5 715.3,136.5 715.4,136.5 715.6,136.6 715.8,136.6 715.9,136.6 716.1,136.7 716.3,136.7 716.4,136.7 716.6,136.8 716.8,136.8 716.9,136.8 717.1,136.9 717.2,136.9 717.4,137.0 717.6,137.0 717.7,137.0 717.9,137.1 718.1,137.1 718.2,137.2 718.4,137.2 718.6,137.2 718.7,137.3 718.9,137.3 719.0,137.3 719.2,137.4 719.4,137.4 719.5,137.5 719.7,137.5 719.9,137.5 720.0,137.6 720.2,137.6 720.4,137.6 720.5,137.7 720.7,137.7 720.8,137.7 721.0,137.8 721.2,137.8 721.3,137.8 721.5,137.9 721.7,137.9 721.8,137.9 722.0,138.0 722.2,138.0 722.3,138.1 722.5,138.1 722.6,138.1 722.8,138.2 723.0,138.2 723.1,138.3 723.3,138.3 723.5,138.3 723.6,138.4 723.8,138.4 724.0,138.5 724.1,138.5 724.3,138.5 724.4,138.6 724.6,138.6 724.8,138.7 724.9,138.7 725.1,138.7 725.3,138.8 725.4,138.8 725.6,138.8 725.8,138.9 725.9,138.9 726.1,139.0 726.2,139.0 726.4,139.0 726.6,139.1 726.7,139.1 726.9,139.1 727.1,139.2 727.2,139.2 727.4,139.3 727.6,139.3 727.7,139.3 727.9,139.4 728.0,139.4 728.2,139.5 728.4,139.5 728.5,139.6 728.7,139.6 728.9,139.6 729.0,139.7 729.2,139.7 729.4,139.8 729.5,139.8 729.7,139.9 729.8,139.9 730.0,139.9 730.2,140.0 730.3,140.0 730.5,140.1 730.7,140.1 730.8,140.1 731.0,140.2 731.2,140.2 731.3,140.3 731.5,140.3 731.6,140.3 731.8,140.4 732.0,140.4 732.1,140.5 732.3,140.5 732.5,140.5 732.6,140.6 732.8,140.6 733.0,140.7 733.1,140.7 733.3,140.8 733.4,140.8 733.6,140.9 733.8,140.9 733.9,141.0 734.1,141.0 734.3,141.1 734.4,141.1 734.6,141.1 734.8,141.2 734.9,141.2 735.1,141.3 735.2,141.3 735.4,141.4 735.6,141.4 735.7,141.5 735.9,141.5 736.1,141.6 736.2,141.6 736.4,141.6 736.6,141.7 736.7,141.7 736.9,141.8 737.0,141.8 737.2,141.9 737.4,141.9 737.5,141.9 737.7,142.0 737.9,142.0 738.0,142.1 738.2,142.1 738.4,142.2 738.5,142.2 738.7,142.3 738.8,142.3 739.0,142.4 739.2,142.4 739.3,142.5 739.5,142.5 739.7,142.6 739.8,142.6 740.0,142.7 740.2,142.7 740.3,142.8 740.5,142.8 740.6,142.9 740.8,142.9 741.0,143.0 741.1,143.0 741.3,143.1 741.5,143.1 741.6,143.2 741.8,143.2 742.0,143.3 742.1,143.3 742.3,143.4 742.4,143.4 742.6,143.5 742.8,143.5 742.9,143.6 743.1,143.6 743.3,143.7 743.4,143.7 743.6,143.8 743.8,143.8 743.9,143.9 744.1,144.0 744.3,144.0 744.4,144.1 744.6,144.1 744.7,144.2 744.9,144.2 745.1,144.3 745.2,144.4 745.4,144.4 745.6,144.5 745.7,144.5 745.9,144.6 746.1,144.6 746.2,144.7 746.4,144.7 746.5,144.8 746.7,144.8 746.9,144.9 747.0,145.0 747.2,145.0 747.4,145.1 747.5,145.1 747.7,145.2 747.9,145.2 748.0,145.3 748.2,145.3 748.3,145.4 748.5,145.5 748.7,145.5 748.8,145.6 749.0,145.6 749.2,145.7 749.3,145.8 749.5,145.8 749.7,145.9 749.8,146.0 750.0,146.0 750.1,146.1 750.3,146.1 750.5,146.2 750.6,146.3 750.8,146.3 751.0,146.4 751.1,146.5 751.3,146.5 751.5,146.6 751.6,146.7 751.8,146.7 751.9,146.8 752.1,146.8 752.3,146.9 752.4,147.0 752.6,147.0 752.8,147.1 752.9,147.2 753.1,147.2 753.3,147.3 753.4,147.3 753.6,147.4 753.7,147.5 753.9,147.5 754.1,147.6 754.2,147.7 754.4,147.8 754.6,147.8 754.7,147.9 754.9,148.0 755.1,148.1 755.2,148.1 755.4,148.2 755.5,148.3 755.7,148.4 755.9,148.4 756.0,148.5 756.2,148.6 756.4,148.6 756.5,148.7 756.7,148.8 756.9,148.9 757.0,148.9 757.2,149.0 757.3,149.1 757.5,149.2 757.7,149.2 757.8,149.3 758.0,149.4 758.2,149.5 758.3,149.5 758.5,149.6 758.7,149.7 758.8,149.8 759.0,149.8 759.1,149.9 759.3,150.0 759.5,150.1 759.6,150.2 759.8,150.3 760.0,150.4 760.1,150.4 760.3,150.5 760.5,150.6 760.6,150.7 760.8,150.8 760.9,150.9 761.1,151.0 761.3,151.1 761.4,151.1 761.6,151.2 761.8,151.3 761.9,151.4 762.1,151.5 762.3,151.6 762.4,151.7 762.6,151.8 762.7,151.9 762.9,152.0 763.1,152.0 763.2,152.1 763.4,152.2 763.6,152.3 763.7,152.4 763.9,152.5 764.1,152.6 764.2,152.7 764.4,152.8 764.5,152.9 764.7,153.0 764.9,153.1 765.0,153.2 765.2,153.3 765.4,153.4 765.5,153.6 765.7,153.7 765.9,153.8 766.0,153.9 766.2,154.0 766.3,154.1 766.5,154.2 766.7,154.3 766.8,154.5 767.0,154.6 767.2,154.7 767.3,154.8 767.5,154.9 767.7,155.0 767.8,155.1 768.0,155.3 768.1,155.4 768.3,155.5 768.5,155.6 768.6,155.7 768.8,155.9 769.0,156.0 769.1,156.1 769.3,156.3 769.5,156.4 769.6,156.5 769.8,156.7 769.9,156.8 770.1,156.9 770.3,157.1 770.4,157.2 770.6,157.4 770.8,157.5 770.9,157.7 771.1,157.8 771.3,158.0 771.4,158.1 771.6,158.3 771.7,158.4 771.9,158.6 772.1,158.7 772.2,158.9 772.4,159.0 772.6,159.2 772.7,159.4 772.9,159.5 773.1,159.7 773.2,159.9 773.4,160.0 773.5,160.2 773.7,160.4 773.9,160.6 774.0,160.8 774.2,160.9 774.4,161.1 774.5,161.3 774.7,161.5 774.9,161.7 775.0,161.9 775.2,162.1 775.3,162.3 775.5,162.6 775.7,162.8 775.8,163.0 776.0,163.2 776.2,163.5 776.3,163.7 776.5,163.9 776.7,164.2 776.8,164.4 777.0,164.7 777.1,164.9 777.3,165.2 777.5,165.5 777.6,165.7 777.8,166.0 778.0,166.3 778.1,166.6 778.3,166.9 778.5,167.2 778.6,167.5 778.8,167.8 778.9,168.1 779.1,168.4 779.3,168.8 779.4,169.1 779.6,169.5 779.8,169.9 779.9,170.3 780.1,170.7 780.3,171.1 780.4,171.5 780.6,172.0 780.7,172.4 780.9,172.9 781.1,173.4 781.2,173.9 781.4,174.4 781.6,175.0 781.7,175.6 781.9,176.2 782.1,176.9 782.2,177.5 782.4,178.3 782.5,179.0 782.7,179.9 782.9,180.7 783.0,181.7 783.2,182.0 783.4,182.0 783.5,182.0 783.7,182.0 783.9,182.0 784.0,182.0 784.2,182.0 784.3,182.0 784.5,182.0 784.7,182.0 784.8,182.0 785.0,182.0" fill="none" stroke="#4a90d9" stroke-width="1.5" stroke-linejoin="round"/>
  <text x="209.5" y="214" text-anchor="middle" font-size="11" fill="#6b7280">n / N</text>
  <text x="617.5" y="214" text-anchor="middle" font-size="11" fill="#6b7280">Normalized frequency (× Fₛ)</text>
</svg>
