<svg xmlns="http://www.w3.org/2000/svg" viewBox="0 0 560 190" width="560" height="190" style="font-family:system-ui,-apple-system,sans-serif">
  <rect width="560" height="190" fill="#fafafa" rx="6"/>
  <line x1="52" y1="152.0" x2="257" y2="152.0" stroke="#e5e7eb" stroke-width="0.5"/>
  <text x="48" y="155.0" text-anchor="end" font-size="7.5" fill="#6b7280">0</text>
  <line x1="52" y1="82.0" x2="257" y2="82.0" stroke="#e5e7eb" stroke-width="0.5"/>
  <text x="48" y="85.0" text-anchor="end" font-size="7.5" fill="#6b7280">0.5</text>
  <line x1="52" y1="12.0" x2="257" y2="12.0" stroke="#e5e7eb" stroke-width="0.5"/>
  <text x="48" y="15.0" text-anchor="end" font-size="7.5" fill="#6b7280">1</text>
  <line x1="52.0" y1="12" x2="52.0" y2="152" stroke="#e5e7eb" stroke-width="0.5"/>
  <text x="52.0" y="164" text-anchor="middle" font-size="7.5" fill="#6b7280">0</text>
  <line x1="154.5" y1="12" x2="154.5" y2="152" stroke="#e5e7eb" stroke-width="0.5"/>
  <text x="154.5" y="164" text-anchor="middle" font-size="7.5" fill="#6b7280">0.5</text>
  <line x1="257.0" y1="12" x2="257.0" y2="152" stroke="#e5e7eb" stroke-width="0.5"/>
  <text x="257.0" y="164" text-anchor="middle" font-size="7.5" fill="#6b7280">1</text>
  <line x1="52" y1="12" x2="52" y2="152" stroke="#d1d5db" stroke-width="0.75"/>
  <line x1="52" y1="152" x2="257" y2="152" stroke="#d1d5db" stroke-width="0.75"/>
  <path d="M52.0,152.0 52.0,152.0 52.8,152.0 53.6,152.0 54.4,152.0 55.2,152.0 56.0,151.9 56.8,151.9 57.6,151.8 58.4,151.8 59.2,151.7 60.0,151.7 60.8,151.6 61.6,151.5 62.5,151.4 63.3,151.3 64.1,151.2 64.9,151.1 65.7,150.9 66.5,150.8 67.3,150.6 68.1,150.5 68.9,150.3 69.7,150.1 70.5,149.9 71.3,149.7 72.1,149.4 72.9,149.2 73.7,148.9 74.5,148.6 75.3,148.3 76.1,148.0 76.9,147.7 77.7,147.4 78.5,147.0 79.3,146.7 80.1,146.3 80.9,145.9 81.7,145.4 82.5,145.0 83.4,144.5 84.2,144.1 85.0,143.6 85.8,143.0 86.6,142.5 87.4,141.9 88.2,141.4 89.0,140.8 89.8,140.1 90.6,139.5 91.4,138.8 92.2,138.1 93.0,137.4 93.8,136.7 94.6,135.9 95.4,135.2 96.2,134.4 97.0,133.5 97.8,132.7 98.6,131.8 99.4,130.9 100.2,130.0 101.0,129.0 101.8,128.0 102.6,127.0 103.5,126.0 104.3,124.9 105.1,123.8 105.9,122.7 106.7,121.6 107.5,120.4 108.3,119.2 109.1,118.0 109.9,116.8 110.7,115.5 111.5,114.2 112.3,112.9 113.1,111.5 113.9,110.1 114.7,108.7 115.5,107.3 116.3,105.8 117.1,104.3 117.9,102.8 118.7,101.3 119.5,99.7 120.3,98.1 121.1,96.5 121.9,94.8 122.7,93.1 123.5,91.4 124.4,89.7 125.2,87.9 126.0,86.2 126.8,84.4 127.6,82.5 128.4,80.7 129.2,78.8 130.0,76.9 130.8,75.0 131.6,73.1 132.4,71.1 133.2,69.1 134.0,67.1 134.8,65.1 135.6,63.1 136.4,61.0 137.2,58.9 138.0,56.8 138.8,54.7 139.6,52.6 140.4,50.5 141.2,48.3 142.0,46.2 142.8,44.0 143.6,41.8 144.5,39.6 145.3,37.4 146.1,35.2 146.9,33.0 147.7,30.8 148.5,28.6 149.3,26.4 150.1,24.2 150.9,21.9 151.7,19.7 152.5,17.5 153.3,15.3 154.1,13.1 154.9,13.1 155.7,15.3 156.5,17.5 157.3,19.7 158.1,21.9 158.9,24.2 159.7,26.4 160.5,28.6 161.3,30.8 162.1,33.0 162.9,35.2 163.7,37.4 164.5,39.6 165.4,41.8 166.2,44.0 167.0,46.2 167.8,48.3 168.6,50.5 169.4,52.6 170.2,54.7 171.0,56.8 171.8,58.9 172.6,61.0 173.4,63.1 174.2,65.1 175.0,67.1 175.8,69.1 176.6,71.1 177.4,73.1 178.2,75.0 179.0,76.9 179.8,78.8 180.6,80.7 181.4,82.5 182.2,84.4 183.0,86.2 183.8,87.9 184.6,89.7 185.5,91.4 186.3,93.1 187.1,94.8 187.9,96.5 188.7,98.1 189.5,99.7 190.3,101.3 191.1,102.8 191.9,104.3 192.7,105.8 193.5,107.3 194.3,108.7 195.1,110.1 195.9,111.5 196.7,112.9 197.5,114.2 198.3,115.5 199.1,116.8 199.9,118.0 200.7,119.2 201.5,120.4 202.3,121.6 203.1,122.7 203.9,123.8 204.7,124.9 205.5,126.0 206.4,127.0 207.2,128.0 208.0,129.0 208.8,130.0 209.6,130.9 210.4,131.8 211.2,132.7 212.0,133.5 212.8,134.4 213.6,135.2 214.4,135.9 215.2,136.7 216.0,137.4 216.8,138.1 217.6,138.8 218.4,139.5 219.2,140.1 220.0,140.8 220.8,141.4 221.6,141.9 222.4,142.5 223.2,143.0 224.0,143.6 224.8,144.1 225.6,144.5 226.5,145.0 227.3,145.4 228.1,145.9 228.9,146.3 229.7,146.7 230.5,147.0 231.3,147.4 232.1,147.7 232.9,148.0 233.7,148.3 234.5,148.6 235.3,148.9 236.1,149.2 236.9,149.4 237.7,149.7 238.5,149.9 239.3,150.1 240.1,150.3 240.9,150.5 241.7,150.6 242.5,150.8 243.3,150.9 244.1,151.1 244.9,151.2 245.7,151.3 246.5,151.4 247.4,151.5 248.2,151.6 249.0,151.7 249.8,151.7 250.6,151.8 251.4,151.8 252.2,151.9 253.0,151.9 253.8,152.0 254.6,152.0 255.4,152.0 256.2,152.0 257.0,152.0 L257.0,152.0 Z" fill="#4a90d9" fill-opacity="0.06"/>
  <polyline points="52.0,152.0 52.8,152.0 53.6,152.0 54.4,152.0 55.2,152.0 56.0,151.9 56.8,151.9 57.6,151.8 58.4,151.8 59.2,151.7 60.0,151.7 60.8,151.6 61.6,151.5 62.5,151.4 63.3,151.3 64.1,151.2 64.9,151.1 65.7,150.9 66.5,150.8 67.3,150.6 68.1,150.5 68.9,150.3 69.7,150.1 70.5,149.9 71.3,149.7 72.1,149.4 72.9,149.2 73.7,148.9 74.5,148.6 75.3,148.3 76.1,148.0 76.9,147.7 77.7,147.4 78.5,147.0 79.3,146.7 80.1,146.3 80.9,145.9 81.7,145.4 82.5,145.0 83.4,144.5 84.2,144.1 85.0,143.6 85.8,143.0 86.6,142.5 87.4,141.9 88.2,141.4 89.0,140.8 89.8,140.1 90.6,139.5 91.4,138.8 92.2,138.1 93.0,137.4 93.8,136.7 94.6,135.9 95.4,135.2 96.2,134.4 97.0,133.5 97.8,132.7 98.6,131.8 99.4,130.9 100.2,130.0 101.0,129.0 101.8,128.0 102.6,127.0 103.5,126.0 104.3,124.9 105.1,123.8 105.9,122.7 106.7,121.6 107.5,120.4 108.3,119.2 109.1,118.0 109.9,116.8 110.7,115.5 111.5,114.2 112.3,112.9 113.1,111.5 113.9,110.1 114.7,108.7 115.5,107.3 116.3,105.8 117.1,104.3 117.9,102.8 118.7,101.3 119.5,99.7 120.3,98.1 121.1,96.5 121.9,94.8 122.7,93.1 123.5,91.4 124.4,89.7 125.2,87.9 126.0,86.2 126.8,84.4 127.6,82.5 128.4,80.7 129.2,78.8 130.0,76.9 130.8,75.0 131.6,73.1 132.4,71.1 133.2,69.1 134.0,67.1 134.8,65.1 135.6,63.1 136.4,61.0 137.2,58.9 138.0,56.8 138.8,54.7 139.6,52.6 140.4,50.5 141.2,48.3 142.0,46.2 142.8,44.0 143.6,41.8 144.5,39.6 145.3,37.4 146.1,35.2 146.9,33.0 147.7,30.8 148.5,28.6 149.3,26.4 150.1,24.2 150.9,21.9 151.7,19.7 152.5,17.5 153.3,15.3 154.1,13.1 154.9,13.1 155.7,15.3 156.5,17.5 157.3,19.7 158.1,21.9 158.9,24.2 159.7,26.4 160.5,28.6 161.3,30.8 162.1,33.0 162.9,35.2 163.7,37.4 164.5,39.6 165.4,41.8 166.2,44.0 167.0,46.2 167.8,48.3 168.6,50.5 169.4,52.6 170.2,54.7 171.0,56.8 171.8,58.9 172.6,61.0 173.4,63.1 174.2,65.1 175.0,67.1 175.8,69.1 176.6,71.1 177.4,73.1 178.2,75.0 179.0,76.9 179.8,78.8 180.6,80.7 181.4,82.5 182.2,84.4 183.0,86.2 183.8,87.9 184.6,89.7 185.5,91.4 186.3,93.1 187.1,94.8 187.9,96.5 188.7,98.1 189.5,99.7 190.3,101.3 191.1,102.8 191.9,104.3 192.7,105.8 193.5,107.3 194.3,108.7 195.1,110.1 195.9,111.5 196.7,112.9 197.5,114.2 198.3,115.5 199.1,116.8 199.9,118.0 200.7,119.2 201.5,120.4 202.3,121.6 203.1,122.7 203.9,123.8 204.7,124.9 205.5,126.0 206.4,127.0 207.2,128.0 208.0,129.0 208.8,130.0 209.6,130.9 210.4,131.8 211.2,132.7 212.0,133.5 212.8,134.4 213.6,135.2 214.4,135.9 215.2,136.7 216.0,137.4 216.8,138.1 217.6,138.8 218.4,139.5 219.2,140.1 220.0,140.8 220.8,141.4 221.6,141.9 222.4,142.5 223.2,143.0 224.0,143.6 224.8,144.1 225.6,144.5 226.5,145.0 227.3,145.4 228.1,145.9 228.9,146.3 229.7,146.7 230.5,147.0 231.3,147.4 232.1,147.7 232.9,148.0 233.7,148.3 234.5,148.6 235.3,148.9 236.1,149.2 236.9,149.4 237.7,149.7 238.5,149.9 239.3,150.1 240.1,150.3 240.9,150.5 241.7,150.6 242.5,150.8 243.3,150.9 244.1,151.1 244.9,151.2 245.7,151.3 246.5,151.4 247.4,151.5 248.2,151.6 249.0,151.7 249.8,151.7 250.6,151.8 251.4,151.8 252.2,151.9 253.0,151.9 253.8,152.0 254.6,152.0 255.4,152.0 256.2,152.0 257.0,152.0" fill="none" stroke="#4a90d9" stroke-width="1.2" stroke-linejoin="round"/>
  <line x1="322" y1="12.0" x2="527" y2="12.0" stroke="#e5e7eb" stroke-width="0.5"/>
  <text x="318" y="15.0" text-anchor="end" font-size="7.5" fill="#6b7280">0</text>
  <line x1="322" y1="58.7" x2="527" y2="58.7" stroke="#e5e7eb" stroke-width="0.5"/>
  <text x="318" y="61.7" text-anchor="end" font-size="7.5" fill="#6b7280">-40</text>
  <line x1="322" y1="105.3" x2="527" y2="105.3" stroke="#e5e7eb" stroke-width="0.5"/>
  <text x="318" y="108.3" text-anchor="end" font-size="7.5" fill="#6b7280">-80</text>
  <line x1="322" y1="152.0" x2="527" y2="152.0" stroke="#e5e7eb" stroke-width="0.5"/>
  <text x="318" y="155.0" text-anchor="end" font-size="7.5" fill="#6b7280">-120</text>
  <line x1="322.0" y1="12" x2="322.0" y2="152" stroke="#e5e7eb" stroke-width="0.5"/>
  <text x="322.0" y="164" text-anchor="middle" font-size="7.5" fill="#6b7280">0</text>
  <line x1="363.0" y1="12" x2="363.0" y2="152" stroke="#e5e7eb" stroke-width="0.5"/>
  <text x="363.0" y="164" text-anchor="middle" font-size="7.5" fill="#6b7280">0.1</text>
  <line x1="404.0" y1="12" x2="404.0" y2="152" stroke="#e5e7eb" stroke-width="0.5"/>
  <text x="404.0" y="164" text-anchor="middle" font-size="7.5" fill="#6b7280">0.2</text>
  <line x1="445.0" y1="12" x2="445.0" y2="152" stroke="#e5e7eb" stroke-width="0.5"/>
  <text x="445.0" y="164" text-anchor="middle" font-size="7.5" fill="#6b7280">0.3</text>
  <line x1="486.0" y1="12" x2="486.0" y2="152" stroke="#e5e7eb" stroke-width="0.5"/>
  <text x="486.0" y="164" text-anchor="middle" font-size="7.5" fill="#6b7280">0.4</text>
  <line x1="527.0" y1="12" x2="527.0" y2="152" stroke="#e5e7eb" stroke-width="0.5"/>
  <text x="527.0" y="164" text-anchor="middle" font-size="7.5" fill="#6b7280">0.5</text>
  <line x1="322" y1="12" x2="322" y2="152" stroke="#d1d5db" stroke-width="0.75"/>
  <line x1="322" y1="152" x2="527" y2="152" stroke="#d1d5db" stroke-width="0.75"/>
  <polyline points="322.0,12.0 322.1,12.0 322.2,12.1 322.3,12.1 322.4,12.3 322.5,12.4 322.6,12.6 322.7,12.8 322.8,13.0 322.9,13.3 323.0,13.6 323.1,13.9 323.2,14.3 323.3,14.7 323.4,15.1 323.5,15.5 323.6,16.0 323.7,16.5 323.8,17.1 323.9,17.6 324.0,18.2 324.1,18.9 324.2,19.5 324.3,20.2 324.4,20.9 324.5,21.6 324.6,22.3 324.7,23.1 324.8,23.9 324.9,24.7 325.0,25.4 325.1,26.2 325.2,27.0 325.3,27.8 325.4,28.6 325.5,29.4 325.6,30.1 325.7,30.9 325.8,31.6 325.9,32.3 326.0,33.0 326.1,33.6 326.2,34.2 326.3,34.7 326.4,35.3 326.5,35.8 326.6,36.2 326.7,36.7 326.8,37.1 326.9,37.5 327.0,37.9 327.1,38.3 327.2,38.6 327.3,39.0 327.4,39.4 327.5,39.7 327.6,40.1 327.7,40.4 327.8,40.8 327.9,41.2 328.0,41.6 328.1,41.9 328.2,42.3 328.3,42.7 328.4,43.1 328.5,43.5 328.6,43.9 328.7,44.2 328.8,44.6 328.9,45.0 329.0,45.3 329.1,45.7 329.2,46.0 329.3,46.3 329.4,46.6 329.5,46.9 329.6,47.1 329.7,47.4 329.8,47.6 329.9,47.9 330.0,48.1 330.1,48.3 330.2,48.5 330.3,48.8 330.4,49.0 330.5,49.2 330.6,49.4 330.7,49.6 330.8,49.8 330.9,50.1 331.0,50.3 331.1,50.5 331.2,50.8 331.3,51.0 331.4,51.3 331.5,51.5 331.6,51.8 331.7,52.0 331.8,52.3 331.9,52.5 332.0,52.8 332.1,53.0 332.2,53.2 332.3,53.4 332.4,53.7 332.5,53.9 332.6,54.1 332.7,54.3 332.8,54.4 332.9,54.6 333.0,54.8 333.1,54.9 333.2,55.1 333.3,55.3 333.4,55.4 333.5,55.6 333.6,55.7 333.7,55.9 333.8,56.0 333.9,56.2 334.0,56.3 334.1,56.5 334.2,56.7 334.3,56.9 334.4,57.0 334.5,57.2 334.6,57.4 334.7,57.6 334.8,57.8 334.9,58.0 335.0,58.1 335.1,58.3 335.2,58.5 335.3,58.7 335.4,58.9 335.5,59.0 335.6,59.2 335.7,59.3 335.8,59.5 335.9,59.6 336.0,59.8 336.1,59.9 336.2,60.0 336.3,60.2 336.4,60.3 336.5,60.4 336.6,60.5 336.7,60.6 336.8,60.8 336.9,60.9 337.0,61.0 337.1,61.1 337.2,61.2 337.3,61.4 337.4,61.5 337.5,61.7 337.6,61.8 337.7,61.9 337.8,62.1 337.9,62.2 338.0,62.4 338.1,62.5 338.2,62.7 338.3,62.8 338.4,63.0 338.5,63.1 338.6,63.2 338.7,63.4 338.8,63.5 338.9,63.6 339.0,63.8 339.1,63.9 339.2,64.0 339.3,64.1 339.4,64.2 339.5,64.3 339.6,64.4 339.7,64.5 339.8,64.6 339.9,64.7 340.0,64.8 340.1,64.9 340.2,65.0 340.3,65.1 340.4,65.2 340.5,65.3 340.6,65.4 340.7,65.5 340.8,65.6 340.9,65.8 341.0,65.9 341.1,66.0 341.2,66.1 341.3,66.2 341.4,66.4 341.5,66.5 341.6,66.6 341.7,66.7 341.8,66.8 341.9,67.0 342.0,67.1 342.1,67.2 342.2,67.3 342.3,67.4 342.4,67.5 342.5,67.6 342.6,67.6 342.7,67.7 342.8,67.8 342.9,67.9 343.0,68.0 343.1,68.1 343.2,68.1 343.3,68.2 343.4,68.3 343.5,68.4 343.6,68.5 343.7,68.6 343.8,68.7 343.9,68.8 344.0,68.9 344.1,69.0 344.2,69.1 344.3,69.2 344.4,69.3 344.5,69.4 344.6,69.5 344.7,69.6 344.8,69.7 344.9,69.8 345.0,69.9 345.1,70.0 345.2,70.1 345.3,70.2 345.4,70.3 345.5,70.4 345.6,70.4 345.7,70.5 345.8,70.6 345.9,70.7 346.0,70.7 346.1,70.8 346.2,70.9 346.3,71.0 346.4,71.0 346.5,71.1 346.6,71.2 346.7,71.2 346.8,71.3 346.9,71.4 347.0,71.5 347.1,71.6 347.2,71.7 347.3,71.7 347.4,71.8 347.5,71.9 347.6,72.0 347.7,72.1 347.8,72.2 347.9,72.3 348.0,72.4 348.1,72.5 348.2,72.6 348.3,72.7 348.4,72.7 348.5,72.8 348.6,72.9 348.7,73.0 348.8,73.0 348.9,73.1 349.0,73.2 349.1,73.2 349.2,73.3 349.3,73.4 349.4,73.4 349.5,73.5 349.6,73.6 349.7,73.6 349.8,73.7 349.9,73.8 350.0,73.8 350.1,73.9 350.2,74.0 350.3,74.0 350.4,74.1 350.5,74.2 350.6,74.3 350.7,74.4 350.8,74.4 350.9,74.5 351.0,74.6 351.1,74.7 351.2,74.8 351.3,74.8 351.4,74.9 351.5,75.0 351.6,75.1 351.7,75.1 351.8,75.2 351.9,75.3 352.0,75.3 352.1,75.4 352.2,75.5 352.3,75.5 352.4,75.6 352.5,75.6 352.6,75.7 352.7,75.8 352.8,75.8 352.9,75.9 353.0,75.9 353.1,76.0 353.2,76.0 353.3,76.1 353.4,76.2 353.5,76.2 353.6,76.3 353.7,76.4 353.8,76.5 353.9,76.5 354.0,76.6 354.1,76.7 354.2,76.8 354.3,76.8 354.4,76.9 354.5,77.0 354.6,77.0 354.7,77.1 354.8,77.2 354.9,77.2 355.0,77.3 355.1,77.4 355.2,77.4 355.3,77.5 355.4,77.5 355.5,77.6 355.6,77.6 355.7,77.7 355.8,77.7 355.9,77.8 356.0,77.8 356.1,77.9 356.3,77.9 356.4,78.0 356.5,78.1 356.6,78.1 356.7,78.2 356.8,78.2 356.9,78.3 357.0,78.4 357.1,78.4 357.2,78.5 357.3,78.6 357.4,78.6 357.5,78.7 357.6,78.8 357.7,78.8 357.8,78.9 357.9,79.0 358.0,79.0 358.1,79.1 358.2,79.1 358.3,79.2 358.4,79.3 358.5,79.3 358.6,79.4 358.7,79.4 358.8,79.5 358.9,79.5 359.0,79.6 359.1,79.6 359.2,79.7 359.3,79.7 359.4,79.7 359.5,79.8 359.6,79.8 359.7,79.9 359.8,79.9 359.9,80.0 360.0,80.1 360.1,80.1 360.2,80.2 360.3,80.2 360.4,80.3 360.5,80.4 360.6,80.4 360.7,80.5 360.8,80.5 360.9,80.6 361.0,80.7 361.1,80.7 361.2,80.8 361.3,80.8 361.4,80.9 361.5,80.9 361.6,81.0 361.7,81.0 361.8,81.1 361.9,81.1 362.0,81.2 362.1,81.2 362.2,81.3 362.3,81.3 362.4,81.4 362.5,81.4 362.6,81.4 362.7,81.5 362.8,81.5 362.9,81.6 363.0,81.6 363.1,81.7 363.2,81.7 363.3,81.8 363.4,81.8 363.5,81.9 363.6,82.0 363.7,82.0 363.8,82.1 363.9,82.1 364.0,82.2 364.1,82.2 364.2,82.3 364.3,82.3 364.4,82.4 364.5,82.5 364.6,82.5 364.7,82.6 364.8,82.6 364.9,82.7 365.0,82.7 365.1,82.7 365.2,82.8 365.3,82.8 365.4,82.9 365.5,82.9 365.6,82.9 365.7,83.0 365.8,83.0 365.9,83.1 366.0,83.1 366.1,83.1 366.2,83.2 366.3,83.2 366.4,83.3 366.5,83.3 366.6,83.4 366.7,83.4 366.8,83.5 366.9,83.5 367.0,83.6 367.1,83.7 367.2,83.7 367.3,83.8 367.4,83.8 367.5,83.9 367.6,83.9 367.7,84.0 367.8,84.0 367.9,84.1 368.0,84.1 368.1,84.1 368.2,84.2 368.3,84.2 368.4,84.3 368.5,84.3 368.6,84.3 368.7,84.4 368.8,84.4 368.9,84.5 369.0,84.5 369.1,84.5 369.2,84.6 369.3,84.6 369.4,84.7 369.5,84.7 369.6,84.7 369.7,84.8 369.8,84.8 369.9,84.9 370.0,84.9 370.1,85.0 370.2,85.0 370.3,85.1 370.4,85.1 370.5,85.2 370.6,85.2 370.7,85.3 370.8,85.3 370.9,85.4 371.0,85.4 371.1,85.5 371.2,85.5 371.3,85.5 371.4,85.6 371.5,85.6 371.6,85.7 371.7,85.7 371.8,85.7 371.9,85.8 372.0,85.8 372.1,85.8 372.2,85.9 372.3,85.9 372.4,85.9 372.5,86.0 372.6,86.0 372.7,86.1 372.8,86.1 372.9,86.1 373.0,86.2 373.1,86.2 373.2,86.3 373.3,86.3 373.4,86.4 373.5,86.4 373.6,86.5 373.7,86.5 373.8,86.6 373.9,86.6 374.0,86.6 374.1,86.7 374.2,86.7 374.3,86.8 374.4,86.8 374.5,86.9 374.6,86.9 374.7,86.9 374.8,87.0 374.9,87.0 375.0,87.0 375.1,87.1 375.2,87.1 375.3,87.1 375.4,87.2 375.5,87.2 375.6,87.2 375.7,87.3 375.8,87.3 375.9,87.3 376.0,87.4 376.1,87.4 376.2,87.5 376.3,87.5 376.4,87.5 376.5,87.6 376.6,87.6 376.7,87.7 376.8,87.7 376.9,87.8 377.0,87.8 377.1,87.9 377.2,87.9 377.3,87.9 377.4,88.0 377.5,88.0 377.6,88.1 377.7,88.1 377.8,88.1 377.9,88.2 378.0,88.2 378.1,88.2 378.2,88.3 378.3,88.3 378.4,88.3 378.5,88.4 378.6,88.4 378.7,88.4 378.8,88.5 378.9,88.5 379.0,88.5 379.1,88.6 379.2,88.6 379.3,88.6 379.4,88.7 379.5,88.7 379.6,88.8 379.7,88.8 379.8,88.8 379.9,88.9 380.0,88.9 380.1,89.0 380.2,89.0 380.3,89.0 380.4,89.1 380.5,89.1 380.6,89.2 380.7,89.2 380.8,89.2 380.9,89.3 381.0,89.3 381.1,89.3 381.2,89.4 381.3,89.4 381.4,89.4 381.5,89.5 381.6,89.5 381.7,89.5 381.8,89.5 381.9,89.6 382.0,89.6 382.1,89.6 382.2,89.7 382.3,89.7 382.4,89.7 382.5,89.8 382.6,89.8 382.7,89.9 382.8,89.9 382.9,89.9 383.0,90.0 383.1,90.0 383.2,90.1 383.3,90.1 383.4,90.1 383.5,90.2 383.6,90.2 383.7,90.3 383.8,90.3 383.9,90.3 384.0,90.4 384.1,90.4 384.2,90.4 384.3,90.5 384.4,90.5 384.5,90.5 384.6,90.5 384.7,90.6 384.8,90.6 384.9,90.6 385.0,90.7 385.1,90.7 385.2,90.7 385.3,90.7 385.4,90.8 385.5,90.8 385.6,90.8 385.7,90.9 385.8,90.9 385.9,90.9 386.0,91.0 386.1,91.0 386.2,91.1 386.3,91.1 386.4,91.1 386.5,91.2 386.6,91.2 386.7,91.3 386.8,91.3 386.9,91.3 387.0,91.4 387.1,91.4 387.2,91.4 387.3,91.5 387.4,91.5 387.5,91.5 387.6,91.6 387.7,91.6 387.8,91.6 387.9,91.6 388.0,91.7 388.1,91.7 388.2,91.7 388.3,91.7 388.4,91.8 388.5,91.8 388.6,91.8 388.7,91.9 388.8,91.9 388.9,91.9 389.0,92.0 389.1,92.0 389.2,92.0 389.3,92.1 389.4,92.1 389.5,92.1 389.6,92.2 389.7,92.2 389.8,92.2 389.9,92.3 390.0,92.3 390.1,92.4 390.2,92.4 390.3,92.4 390.4,92.5 390.5,92.5 390.6,92.5 390.7,92.5 390.8,92.6 390.9,92.6 391.0,92.6 391.1,92.7 391.2,92.7 391.3,92.7 391.4,92.7 391.5,92.8 391.6,92.8 391.7,92.8 391.8,92.8 391.9,92.9 392.0,92.9 392.1,92.9 392.2,93.0 392.3,93.0 392.4,93.0 392.5,93.1 392.6,93.1 392.7,93.1 392.8,93.2 392.9,93.2 393.0,93.2 393.1,93.3 393.2,93.3 393.3,93.3 393.4,93.4 393.5,93.4 393.6,93.4 393.7,93.5 393.8,93.5 393.9,93.5 394.0,93.6 394.1,93.6 394.2,93.6 394.3,93.6 394.4,93.7 394.5,93.7 394.6,93.7 394.7,93.7 394.8,93.8 394.9,93.8 395.0,93.8 395.1,93.8 395.2,93.9 395.3,93.9 395.4,93.9 395.5,94.0 395.6,94.0 395.7,94.0 395.8,94.1 395.9,94.1 396.0,94.1 396.1,94.2 396.2,94.2 396.3,94.2 396.4,94.3 396.5,94.3 396.6,94.3 396.7,94.4 396.8,94.4 396.9,94.4 397.0,94.4 397.1,94.5 397.2,94.5 397.3,94.5 397.4,94.5 397.5,94.6 397.6,94.6 397.7,94.6 397.8,94.6 397.9,94.7 398.0,94.7 398.1,94.7 398.2,94.7 398.3,94.8 398.4,94.8 398.5,94.8 398.6,94.9 398.7,94.9 398.8,94.9 398.9,95.0 399.0,95.0 399.1,95.0 399.2,95.1 399.3,95.1 399.4,95.1 399.5,95.1 399.6,95.2 399.7,95.2 399.8,95.2 399.9,95.3 400.0,95.3 400.1,95.3 400.2,95.4 400.3,95.4 400.4,95.4 400.5,95.4 400.6,95.5 400.7,95.5 400.8,95.5 400.9,95.5 401.0,95.6 401.1,95.6 401.2,95.6 401.3,95.6 401.4,95.6 401.5,95.7 401.6,95.7 401.7,95.7 401.8,95.8 401.9,95.8 402.0,95.8 402.1,95.8 402.2,95.9 402.3,95.9 402.4,95.9 402.5,96.0 402.6,96.0 402.7,96.0 402.8,96.1 402.9,96.1 403.0,96.1 403.1,96.2 403.2,96.2 403.3,96.2 403.4,96.2 403.5,96.3 403.6,96.3 403.7,96.3 403.8,96.3 403.9,96.4 404.0,96.4 404.1,96.4 404.2,96.4 404.3,96.5 404.4,96.5 404.5,96.5 404.6,96.5 404.7,96.5 404.8,96.6 404.9,96.6 405.0,96.6 405.1,96.7 405.2,96.7 405.3,96.7 405.4,96.7 405.5,96.8 405.6,96.8 405.7,96.8 405.8,96.9 405.9,96.9 406.0,96.9 406.1,97.0 406.2,97.0 406.3,97.0 406.4,97.0 406.5,97.1 406.6,97.1 406.7,97.1 406.8,97.1 406.9,97.2 407.0,97.2 407.1,97.2 407.2,97.2 407.3,97.3 407.4,97.3 407.5,97.3 407.6,97.3 407.7,97.3 407.8,97.4 407.9,97.4 408.0,97.4 408.1,97.4 408.2,97.5 408.3,97.5 408.4,97.5 408.5,97.6 408.6,97.6 408.7,97.6 408.8,97.6 408.9,97.7 409.0,97.7 409.1,97.7 409.2,97.8 409.3,97.8 409.4,97.8 409.5,97.9 409.6,97.9 409.7,97.9 409.8,97.9 409.9,98.0 410.0,98.0 410.1,98.0 410.2,98.0 410.3,98.0 410.4,98.1 410.5,98.1 410.6,98.1 410.7,98.1 410.8,98.2 410.9,98.2 411.0,98.2 411.1,98.2 411.2,98.2 411.3,98.3 411.4,98.3 411.5,98.3 411.6,98.4 411.7,98.4 411.8,98.4 411.9,98.4 412.0,98.5 412.1,98.5 412.2,98.5 412.3,98.6 412.4,98.6 412.5,98.6 412.6,98.6 412.7,98.7 412.8,98.7 412.9,98.7 413.0,98.7 413.1,98.8 413.2,98.8 413.3,98.8 413.4,98.8 413.5,98.9 413.6,98.9 413.7,98.9 413.8,98.9 413.9,98.9 414.0,99.0 414.1,99.0 414.2,99.0 414.3,99.0 414.4,99.1 414.5,99.1 414.6,99.1 414.7,99.1 414.8,99.2 414.9,99.2 415.0,99.2 415.1,99.2 415.2,99.3 415.3,99.3 415.4,99.3 415.5,99.4 415.6,99.4 415.7,99.4 415.8,99.4 415.9,99.5 416.0,99.5 416.1,99.5 416.2,99.5 416.3,99.6 416.4,99.6 416.5,99.6 416.6,99.6 416.7,99.6 416.8,99.7 416.9,99.7 417.0,99.7 417.1,99.7 417.2,99.7 417.3,99.8 417.4,99.8 417.5,99.8 417.6,99.8 417.7,99.9 417.8,99.9 417.9,99.9 418.0,99.9 418.1,100.0 418.2,100.0 418.3,100.0 418.4,100.0 418.5,100.1 418.6,100.1 418.7,100.1 418.8,100.2 418.9,100.2 419.0,100.2 419.1,100.2 419.2,100.3 419.3,100.3 419.4,100.3 419.5,100.3 419.6,100.4 419.7,100.4 419.8,100.4 419.9,100.4 420.0,100.4 420.1,100.5 420.2,100.5 420.3,100.5 420.4,100.5 420.5,100.5 420.6,100.6 420.7,100.6 420.8,100.6 420.9,100.6 421.0,100.7 421.1,100.7 421.2,100.7 421.3,100.7 421.4,100.8 421.5,100.8 421.6,100.8 421.7,100.8 421.8,100.9 421.9,100.9 422.0,100.9 422.1,100.9 422.2,101.0 422.3,101.0 422.4,101.0 422.5,101.0 422.6,101.1 422.7,101.1 422.8,101.1 422.9,101.1 423.0,101.2 423.1,101.2 423.2,101.2 423.3,101.2 423.4,101.2 423.5,101.3 423.6,101.3 423.7,101.3 423.8,101.3 423.9,101.3 424.0,101.4 424.1,101.4 424.2,101.4 424.3,101.4 424.4,101.5 424.6,101.5 424.7,101.5 424.8,101.5 424.9,101.6 425.0,101.6 425.1,101.6 425.2,101.6 425.3,101.7 425.4,101.7 425.5,101.7 425.6,101.7 425.7,101.8 425.8,101.8 425.9,101.8 426.0,101.8 426.1,101.9 426.2,101.9 426.3,101.9 426.4,101.9 426.5,101.9 426.6,102.0 426.7,102.0 426.8,102.0 426.9,102.0 427.0,102.0 427.1,102.1 427.2,102.1 427.3,102.1 427.4,102.1 427.5,102.2 427.6,102.2 427.7,102.2 427.8,102.2 427.9,102.3 428.0,102.3 428.1,102.3 428.2,102.3 428.3,102.4 428.4,102.4 428.5,102.4 428.6,102.4 428.7,102.5 428.8,102.5 428.9,102.5 429.0,102.5 429.1,102.6 429.2,102.6 429.3,102.6 429.4,102.6 429.5,102.6 429.6,102.7 429.7,102.7 429.8,102.7 429.9,102.7 430.0,102.7 430.1,102.8 430.2,102.8 430.3,102.8 430.4,102.8 430.5,102.8 430.6,102.9 430.7,102.9 430.8,102.9 430.9,102.9 431.0,103.0 431.1,103.0 431.2,103.0 431.3,103.0 431.4,103.1 431.5,103.1 431.6,103.1 431.7,103.1 431.8,103.2 431.9,103.2 432.0,103.2 432.1,103.2 432.2,103.3 432.3,103.3 432.4,103.3 432.5,103.3 432.6,103.3 432.7,103.4 432.8,103.4 432.9,103.4 433.0,103.4 433.1,103.4 433.2,103.5 433.3,103.5 433.4,103.5 433.5,103.5 433.6,103.5 433.7,103.6 433.8,103.6 433.9,103.6 434.0,103.6 434.1,103.7 434.2,103.7 434.3,103.7 434.4,103.7 434.5,103.8 434.6,103.8 434.7,103.8 434.8,103.8 434.9,103.9 435.0,103.9 435.1,103.9 435.2,103.9 435.3,104.0 435.4,104.0 435.5,104.0 435.6,104.0 435.7,104.0 435.8,104.1 435.9,104.1 436.0,104.1 436.1,104.1 436.2,104.1 436.3,104.2 436.4,104.2 436.5,104.2 436.6,104.2 436.7,104.2 436.8,104.3 436.9,104.3 437.0,104.3 437.1,104.3 437.2,104.3 437.3,104.4 437.4,104.4 437.5,104.4 437.6,104.4 437.7,104.5 437.8,104.5 437.9,104.5 438.0,104.5 438.1,104.6 438.2,104.6 438.3,104.6 438.4,104.6 438.5,104.7 438.6,104.7 438.7,104.7 438.8,104.7 438.9,104.8 439.0,104.8 439.1,104.8 439.2,104.8 439.3,104.8 439.4,104.9 439.5,104.9 439.6,104.9 439.7,104.9 439.8,104.9 439.9,104.9 440.0,105.0 440.1,105.0 440.2,105.0 440.3,105.0 440.4,105.1 440.5,105.1 440.6,105.1 440.7,105.1 440.8,105.1 440.9,105.2 441.0,105.2 441.1,105.2 441.2,105.3 441.3,105.3 441.4,105.3 441.5,105.3 441.6,105.3 441.7,105.4 441.8,105.4 441.9,105.4 442.0,105.4 442.1,105.5 442.2,105.5 442.3,105.5 442.4,105.5 442.5,105.5 442.6,105.6 442.7,105.6 442.8,105.6 442.9,105.6 443.0,105.6 443.1,105.7 443.2,105.7 443.3,105.7 443.4,105.7 443.5,105.7 443.6,105.8 443.7,105.8 443.8,105.8 443.9,105.8 444.0,105.9 444.1,105.9 444.2,105.9 444.3,105.9 444.4,106.0 444.5,106.0 444.6,106.0 444.7,106.0 444.8,106.1 444.9,106.1 445.0,106.1 445.1,106.1 445.2,106.1 445.3,106.2 445.4,106.2 445.5,106.2 445.6,106.2 445.7,106.2 445.8,106.3 445.9,106.3 446.0,106.3 446.1,106.3 446.2,106.3 446.3,106.4 446.4,106.4 446.5,106.4 446.6,106.4 446.7,106.4 446.8,106.5 446.9,106.5 447.0,106.5 447.1,106.5 447.2,106.6 447.3,106.6 447.4,106.6 447.5,106.6 447.6,106.7 447.7,106.7 447.8,106.7 447.9,106.7 448.0,106.8 448.1,106.8 448.2,106.8 448.3,106.8 448.4,106.8 448.5,106.9 448.6,106.9 448.7,106.9 448.8,106.9 448.9,106.9 449.0,107.0 449.1,107.0 449.2,107.0 449.3,107.0 449.4,107.0 449.5,107.1 449.6,107.1 449.7,107.1 449.8,107.1 449.9,107.1 450.0,107.2 450.1,107.2 450.2,107.2 450.3,107.2 450.4,107.3 450.5,107.3 450.6,107.3 450.7,107.3 450.8,107.4 450.9,107.4 451.0,107.4 451.1,107.4 451.2,107.5 451.3,107.5 451.4,107.5 451.5,107.5 451.6,107.6 451.7,107.6 451.8,107.6 451.9,107.6 452.0,107.6 452.1,107.7 452.2,107.7 452.3,107.7 452.4,107.7 452.5,107.7 452.6,107.7 452.7,107.8 452.8,107.8 452.9,107.8 453.0,107.8 453.1,107.9 453.2,107.9 453.3,107.9 453.4,107.9 453.5,107.9 453.6,108.0 453.7,108.0 453.8,108.0 453.9,108.0 454.0,108.1 454.1,108.1 454.2,108.1 454.3,108.1 454.4,108.2 454.5,108.2 454.6,108.2 454.7,108.2 454.8,108.3 454.9,108.3 455.0,108.3 455.1,108.3 455.2,108.3 455.3,108.4 455.4,108.4 455.5,108.4 455.6,108.4 455.7,108.4 455.8,108.5 455.9,108.5 456.0,108.5 456.1,108.5 456.2,108.5 456.3,108.6 456.4,108.6 456.5,108.6 456.6,108.6 456.7,108.7 456.8,108.7 456.9,108.7 457.0,108.7 457.1,108.8 457.2,108.8 457.3,108.8 457.4,108.8 457.5,108.9 457.6,108.9 457.7,108.9 457.8,108.9 457.9,108.9 458.0,109.0 458.1,109.0 458.2,109.0 458.3,109.0 458.4,109.1 458.5,109.1 458.6,109.1 458.7,109.1 458.8,109.1 458.9,109.2 459.0,109.2 459.1,109.2 459.2,109.2 459.3,109.2 459.4,109.3 459.5,109.3 459.6,109.3 459.7,109.3 459.8,109.3 459.9,109.4 460.0,109.4 460.1,109.4 460.2,109.4 460.3,109.5 460.4,109.5 460.5,109.5 460.6,109.5 460.7,109.6 460.8,109.6 460.9,109.6 461.0,109.6 461.1,109.7 461.2,109.7 461.3,109.7 461.4,109.7 461.5,109.8 461.6,109.8 461.7,109.8 461.8,109.8 461.9,109.8 462.0,109.9 462.1,109.9 462.2,109.9 462.3,109.9 462.4,109.9 462.5,110.0 462.6,110.0 462.7,110.0 462.8,110.0 462.9,110.0 463.0,110.1 463.1,110.1 463.2,110.1 463.3,110.1 463.4,110.2 463.5,110.2 463.6,110.2 463.7,110.3 463.8,110.3 463.9,110.3 464.0,110.3 464.1,110.4 464.2,110.4 464.3,110.4 464.4,110.4 464.5,110.4 464.6,110.5 464.7,110.5 464.8,110.5 464.9,110.5 465.0,110.6 465.1,110.6 465.2,110.6 465.3,110.6 465.4,110.6 465.5,110.7 465.6,110.7 465.7,110.7 465.8,110.7 465.9,110.7 466.0,110.8 466.1,110.8 466.2,110.8 466.3,110.8 466.4,110.9 466.5,110.9 466.6,110.9 466.7,110.9 466.8,111.0 466.9,111.0 467.0,111.0 467.1,111.0 467.2,111.1 467.3,111.1 467.4,111.1 467.5,111.1 467.6,111.2 467.7,111.2 467.8,111.2 467.9,111.2 468.0,111.3 468.1,111.3 468.2,111.3 468.3,111.3 468.4,111.3 468.5,111.4 468.6,111.4 468.7,111.4 468.8,111.4 468.9,111.4 469.0,111.5 469.1,111.5 469.2,111.5 469.3,111.5 469.4,111.6 469.5,111.6 469.6,111.6 469.7,111.6 469.8,111.7 469.9,111.7 470.0,111.7 470.1,111.7 470.2,111.8 470.3,111.8 470.4,111.8 470.5,111.9 470.6,111.9 470.7,111.9 470.8,111.9 470.9,111.9 471.0,112.0 471.1,112.0 471.2,112.0 471.3,112.0 471.4,112.1 471.5,112.1 471.6,112.1 471.7,112.1 471.8,112.1 471.9,112.2 472.0,112.2 472.1,112.2 472.2,112.2 472.3,112.3 472.4,112.3 472.5,112.3 472.6,112.3 472.7,112.4 472.8,112.4 472.9,112.4 473.0,112.4 473.1,112.5 473.2,112.5 473.3,112.5 473.4,112.5 473.5,112.6 473.6,112.6 473.7,112.6 473.8,112.7 473.9,112.7 474.0,112.7 474.1,112.7 474.2,112.8 474.3,112.8 474.4,112.8 474.5,112.8 474.6,112.8 474.7,112.9 474.8,112.9 474.9,112.9 475.0,112.9 475.1,113.0 475.2,113.0 475.3,113.0 475.4,113.0 475.5,113.1 475.6,113.1 475.7,113.1 475.8,113.1 475.9,113.2 476.0,113.2 476.1,113.2 476.2,113.2 476.3,113.3 476.4,113.3 476.5,113.3 476.6,113.3 476.7,113.4 476.8,113.4 476.9,113.4 477.0,113.5 477.1,113.5 477.2,113.5 477.3,113.5 477.4,113.6 477.5,113.6 477.6,113.6 477.7,113.6 477.8,113.7 477.9,113.7 478.0,113.7 478.1,113.7 478.2,113.7 478.3,113.8 478.4,113.8 478.5,113.8 478.6,113.8 478.7,113.9 478.8,113.9 478.9,113.9 479.0,113.9 479.1,114.0 479.2,114.0 479.3,114.0 479.4,114.1 479.5,114.1 479.6,114.1 479.7,114.1 479.8,114.2 479.9,114.2 480.0,114.2 480.1,114.3 480.2,114.3 480.3,114.3 480.4,114.3 480.5,114.4 480.6,114.4 480.7,114.4 480.8,114.4 480.9,114.5 481.0,114.5 481.1,114.5 481.2,114.5 481.3,114.6 481.4,114.6 481.5,114.6 481.6,114.6 481.7,114.7 481.8,114.7 481.9,114.7 482.0,114.7 482.1,114.8 482.2,114.8 482.3,114.8 482.4,114.9 482.5,114.9 482.6,114.9 482.7,114.9 482.8,115.0 482.9,115.0 483.0,115.0 483.1,115.1 483.2,115.1 483.3,115.1 483.4,115.2 483.5,115.2 483.6,115.2 483.7,115.2 483.8,115.3 483.9,115.3 484.0,115.3 484.1,115.4 484.2,115.4 484.3,115.4 484.4,115.4 484.5,115.5 484.6,115.5 484.7,115.5 484.8,115.5 484.9,115.6 485.0,115.6 485.1,115.6 485.2,115.6 485.3,115.7 485.4,115.7 485.5,115.7 485.6,115.8 485.7,115.8 485.8,115.8 485.9,115.9 486.0,115.9 486.1,115.9 486.2,115.9 486.3,116.0 486.4,116.0 486.5,116.0 486.6,116.1 486.7,116.1 486.8,116.1 486.9,116.2 487.0,116.2 487.1,116.2 487.2,116.2 487.3,116.3 487.4,116.3 487.5,116.3 487.6,116.4 487.7,116.4 487.8,116.4 487.9,116.4 488.0,116.5 488.1,116.5 488.2,116.5 488.3,116.6 488.4,116.6 488.5,116.6 488.6,116.6 488.7,116.7 488.8,116.7 488.9,116.7 489.0,116.8 489.1,116.8 489.2,116.8 489.3,116.9 489.4,116.9 489.5,116.9 489.6,117.0 489.7,117.0 489.8,117.0 489.9,117.1 490.0,117.1 490.1,117.1 490.2,117.2 490.3,117.2 490.4,117.2 490.5,117.3 490.6,117.3 490.7,117.3 490.8,117.3 490.9,117.4 491.0,117.4 491.1,117.4 491.2,117.5 491.3,117.5 491.4,117.5 491.5,117.5 491.6,117.6 491.7,117.6 491.8,117.6 491.9,117.7 492.0,117.7 492.1,117.7 492.2,117.8 492.3,117.8 492.4,117.8 492.5,117.9 492.6,117.9 492.7,118.0 492.9,118.0 493.0,118.0 493.1,118.1 493.2,118.1 493.3,118.1 493.4,118.2 493.5,118.2 493.6,118.2 493.7,118.3 493.8,118.3 493.9,118.3 494.0,118.4 494.1,118.4 494.2,118.4 494.3,118.5 494.4,118.5 494.5,118.5 494.6,118.5 494.7,118.6 494.8,118.6 494.9,118.6 495.0,118.7 495.1,118.7 495.2,118.8 495.3,118.8 495.4,118.8 495.5,118.9 495.6,118.9 495.7,118.9 495.8,119.0 495.9,119.0 496.0,119.1 496.1,119.1 496.2,119.1 496.3,119.2 496.4,119.2 496.5,119.2 496.6,119.3 496.7,119.3 496.8,119.4 496.9,119.4 497.0,119.4 497.1,119.5 497.2,119.5 497.3,119.5 497.4,119.6 497.5,119.6 497.6,119.6 497.7,119.7 497.8,119.7 497.9,119.7 498.0,119.8 498.1,119.8 498.2,119.8 498.3,119.9 498.4,119.9 498.5,120.0 498.6,120.0 498.7,120.0 498.8,120.1 498.9,120.1 499.0,120.2 499.1,120.2 499.2,120.3 499.3,120.3 499.4,120.3 499.5,120.4 499.6,120.4 499.7,120.5 499.8,120.5 499.9,120.5 500.0,120.6 500.1,120.6 500.2,120.7 500.3,120.7 500.4,120.7 500.5,120.8 500.6,120.8 500.7,120.8 500.8,120.9 500.9,120.9 501.0,121.0 501.1,121.0 501.2,121.0 501.3,121.1 501.4,121.1 501.5,121.2 501.6,121.2 501.7,121.3 501.8,121.3 501.9,121.3 502.0,121.4 502.1,121.4 502.2,121.5 502.3,121.5 502.4,121.6 502.5,121.6 502.6,121.7 502.7,121.7 502.8,121.8 502.9,121.8 503.0,121.8 503.1,121.9 503.2,121.9 503.3,122.0 503.4,122.0 503.5,122.1 503.6,122.1 503.7,122.1 503.8,122.2 503.9,122.2 504.0,122.3 504.1,122.3 504.2,122.4 504.3,122.4 504.4,122.5 504.5,122.5 504.6,122.5 504.7,122.6 504.8,122.6 504.9,122.7 505.0,122.7 505.1,122.8 505.2,122.8 505.3,122.9 505.4,122.9 505.5,123.0 505.6,123.1 505.7,123.1 505.8,123.2 505.9,123.2 506.0,123.3 506.1,123.3 506.2,123.4 506.3,123.4 506.4,123.5 506.5,123.5 506.6,123.6 506.7,123.6 506.8,123.7 506.9,123.7 507.0,123.8 507.1,123.8 507.2,123.9 507.3,123.9 507.4,124.0 507.5,124.0 507.6,124.1 507.7,124.1 507.8,124.2 507.9,124.2 508.0,124.3 508.1,124.3 508.2,124.4 508.3,124.5 508.4,124.5 508.5,124.6 508.6,124.6 508.7,124.7 508.8,124.7 508.9,124.8 509.0,124.9 509.1,124.9 509.2,125.0 509.3,125.0 509.4,125.1 509.5,125.2 509.6,125.2 509.7,125.3 509.8,125.3 509.9,125.4 510.0,125.5 510.1,125.5 510.2,125.6 510.3,125.6 510.4,125.7 510.5,125.8 510.6,125.8 510.7,125.9 510.8,125.9 510.9,126.0 511.0,126.1 511.1,126.1 511.2,126.2 511.3,126.3 511.4,126.3 511.5,126.4 511.6,126.5 511.7,126.5 511.8,126.6 511.9,126.7 512.0,126.7 512.1,126.8 512.2,126.9 512.3,127.0 512.4,127.0 512.5,127.1 512.6,127.2 512.7,127.2 512.8,127.3 512.9,127.4 513.0,127.5 513.1,127.5 513.2,127.6 513.3,127.7 513.4,127.8 513.5,127.8 513.6,127.9 513.7,128.0 513.8,128.0 513.9,128.1 514.0,128.2 514.1,128.3 514.2,128.4 514.3,128.4 514.4,128.5 514.5,128.6 514.6,128.7 514.7,128.8 514.8,128.9 514.9,128.9 515.0,129.0 515.1,129.1 515.2,129.2 515.3,129.3 515.4,129.4 515.5,129.5 515.6,129.6 515.7,129.7 515.8,129.7 515.9,129.8 516.0,129.9 516.1,130.0 516.2,130.1 516.3,130.2 516.4,130.3 516.5,130.4 516.6,130.5 516.7,130.6 516.8,130.7 516.9,130.8 517.0,130.9 517.1,131.0 517.2,131.1 517.3,131.2 517.4,131.3 517.5,131.4 517.6,131.5 517.7,131.6 517.8,131.7 517.9,131.8 518.0,131.9 518.1,132.1 518.2,132.2 518.3,132.3 518.4,132.4 518.5,132.5 518.6,132.7 518.7,132.8 518.8,132.9 518.9,133.0 519.0,133.1 519.1,133.3 519.2,133.4 519.3,133.5 519.4,133.7 519.5,133.8 519.6,133.9 519.7,134.1 519.8,134.2 519.9,134.3 520.0,134.5 520.1,134.6 520.2,134.8 520.3,134.9 520.4,135.1 520.5,135.2 520.6,135.4 520.7,135.5 520.8,135.7 520.9,135.8 521.0,136.0 521.1,136.2 521.2,136.4 521.3,136.5 521.4,136.7 521.5,136.9 521.6,137.1 521.7,137.3 521.8,137.5 521.9,137.7 522.0,137.9 522.1,138.1 522.2,138.3 522.3,138.5 522.4,138.7 522.5,138.9 522.6,139.1 522.7,139.4 522.8,139.6 522.9,139.8 523.0,140.1 523.1,140.3 523.2,140.6 523.3,140.8 523.4,141.1 523.5,141.4 523.6,141.7 523.7,141.9 523.8,142.3 523.9,142.6 524.0,142.9 524.1,143.2 524.2,143.6 524.3,143.9 524.4,144.3 524.5,144.7 524.6,145.1 524.7,145.5 524.8,145.9 524.9,146.4 525.0,146.8 525.1,147.3 525.2,147.9 525.3,148.4 525.4,149.0 525.5,149.6 525.6,150.3 525.7,151.0 525.8,151.7 525.9,152.0 526.0,152.0 526.1,152.0 526.2,152.0 526.3,152.0 526.4,152.0 526.5,152.0 526.6,152.0 526.7,152.0 526.8,152.0 526.9,152.0 527.0,152.0" fill="none" stroke="#4a90d9" stroke-width="1.2" stroke-linejoin="round"/>
  <text x="154.5" y="176" text-anchor="middle" font-size="8" fill="#6b7280">n / N</text>
  <text x="424.5" y="176" text-anchor="middle" font-size="8" fill="#6b7280">Normalized frequency (× Fₛ)</text>
</svg>
