<svg xmlns="http://www.w3.org/2000/svg" viewBox="0 0 560 210" width="560" height="210" style="font-family:system-ui,-apple-system,sans-serif">
  <rect width="560" height="210" fill="#fafafa" rx="6"/>
  <text x="280" y="18" text-anchor="middle" font-size="12" font-weight="600" fill="#374151">hannPoisson</text>
  <line x1="52" y1="166.0" x2="257" y2="166.0" stroke="#e5e7eb" stroke-width="0.5"/>
  <text x="48" y="169.0" text-anchor="end" font-size="7.5" fill="#6b7280">0</text>
  <line x1="52" y1="97.0" x2="257" y2="97.0" stroke="#e5e7eb" stroke-width="0.5"/>
  <text x="48" y="100.0" text-anchor="end" font-size="7.5" fill="#6b7280">0.5</text>
  <line x1="52" y1="28.0" x2="257" y2="28.0" stroke="#e5e7eb" stroke-width="0.5"/>
  <text x="48" y="31.0" text-anchor="end" font-size="7.5" fill="#6b7280">1</text>
  <line x1="52.0" y1="28" x2="52.0" y2="166" stroke="#e5e7eb" stroke-width="0.5"/>
  <text x="52.0" y="178" text-anchor="middle" font-size="7.5" fill="#6b7280">0</text>
  <line x1="154.5" y1="28" x2="154.5" y2="166" stroke="#e5e7eb" stroke-width="0.5"/>
  <text x="154.5" y="178" text-anchor="middle" font-size="7.5" fill="#6b7280">0.5</text>
  <line x1="257.0" y1="28" x2="257.0" y2="166" stroke="#e5e7eb" stroke-width="0.5"/>
  <text x="257.0" y="178" text-anchor="middle" font-size="7.5" fill="#6b7280">1</text>
  <line x1="52" y1="28" x2="52" y2="166" stroke="#d1d5db" stroke-width="0.75"/>
  <line x1="52" y1="166" x2="257" y2="166" stroke="#d1d5db" stroke-width="0.75"/>
  <path d="M52.0,166.0 52.0,166.0 52.8,166.0 53.6,166.0 54.4,166.0 55.2,166.0 56.0,165.9 56.8,165.9 57.6,165.8 58.4,165.8 59.2,165.7 60.0,165.7 60.8,165.6 61.6,165.5 62.5,165.4 63.3,165.3 64.1,165.2 64.9,165.1 65.7,164.9 66.5,164.8 67.3,164.6 68.1,164.5 68.9,164.3 69.7,164.1 70.5,163.9 71.3,163.7 72.1,163.5 72.9,163.2 73.7,163.0 74.5,162.7 75.3,162.4 76.1,162.1 76.9,161.8 77.7,161.4 78.5,161.1 79.3,160.7 80.1,160.4 80.9,160.0 81.7,159.5 82.5,159.1 83.4,158.6 84.2,158.2 85.0,157.7 85.8,157.2 86.6,156.6 87.4,156.1 88.2,155.5 89.0,154.9 89.8,154.3 90.6,153.7 91.4,153.0 92.2,152.3 93.0,151.6 93.8,150.9 94.6,150.2 95.4,149.4 96.2,148.6 97.0,147.8 97.8,146.9 98.6,146.1 99.4,145.2 100.2,144.3 101.0,143.3 101.8,142.4 102.6,141.4 103.5,140.4 104.3,139.3 105.1,138.2 105.9,137.2 106.7,136.0 107.5,134.9 108.3,133.7 109.1,132.5 109.9,131.3 110.7,130.0 111.5,128.7 112.3,127.4 113.1,126.1 113.9,124.7 114.7,123.3 115.5,121.9 116.3,120.5 117.1,119.0 117.9,117.5 118.7,116.0 119.5,114.4 120.3,112.9 121.1,111.3 121.9,109.6 122.7,108.0 123.5,106.3 124.4,104.6 125.2,102.9 126.0,101.1 126.8,99.3 127.6,97.5 128.4,95.7 129.2,93.9 130.0,92.0 130.8,90.1 131.6,88.2 132.4,86.3 133.2,84.3 134.0,82.3 134.8,80.3 135.6,78.3 136.4,76.3 137.2,74.3 138.0,72.2 138.8,70.1 139.6,68.0 140.4,65.9 141.2,63.8 142.0,61.7 142.8,59.5 143.6,57.4 144.5,55.2 145.3,53.1 146.1,50.9 146.9,48.7 147.7,46.5 148.5,44.4 149.3,42.2 150.1,40.0 150.9,37.8 151.7,35.6 152.5,33.4 153.3,31.3 154.1,29.1 154.9,29.1 155.7,31.3 156.5,33.4 157.3,35.6 158.1,37.8 158.9,40.0 159.7,42.2 160.5,44.4 161.3,46.5 162.1,48.7 162.9,50.9 163.7,53.1 164.5,55.2 165.4,57.4 166.2,59.5 167.0,61.7 167.8,63.8 168.6,65.9 169.4,68.0 170.2,70.1 171.0,72.2 171.8,74.3 172.6,76.3 173.4,78.3 174.2,80.3 175.0,82.3 175.8,84.3 176.6,86.3 177.4,88.2 178.2,90.1 179.0,92.0 179.8,93.9 180.6,95.7 181.4,97.5 182.2,99.3 183.0,101.1 183.8,102.9 184.6,104.6 185.5,106.3 186.3,108.0 187.1,109.6 187.9,111.3 188.7,112.9 189.5,114.4 190.3,116.0 191.1,117.5 191.9,119.0 192.7,120.5 193.5,121.9 194.3,123.3 195.1,124.7 195.9,126.1 196.7,127.4 197.5,128.7 198.3,130.0 199.1,131.3 199.9,132.5 200.7,133.7 201.5,134.9 202.3,136.0 203.1,137.2 203.9,138.2 204.7,139.3 205.5,140.4 206.4,141.4 207.2,142.4 208.0,143.3 208.8,144.3 209.6,145.2 210.4,146.1 211.2,146.9 212.0,147.8 212.8,148.6 213.6,149.4 214.4,150.2 215.2,150.9 216.0,151.6 216.8,152.3 217.6,153.0 218.4,153.7 219.2,154.3 220.0,154.9 220.8,155.5 221.6,156.1 222.4,156.6 223.2,157.2 224.0,157.7 224.8,158.2 225.6,158.6 226.5,159.1 227.3,159.5 228.1,160.0 228.9,160.4 229.7,160.7 230.5,161.1 231.3,161.4 232.1,161.8 232.9,162.1 233.7,162.4 234.5,162.7 235.3,163.0 236.1,163.2 236.9,163.5 237.7,163.7 238.5,163.9 239.3,164.1 240.1,164.3 240.9,164.5 241.7,164.6 242.5,164.8 243.3,164.9 244.1,165.1 244.9,165.2 245.7,165.3 246.5,165.4 247.4,165.5 248.2,165.6 249.0,165.7 249.8,165.7 250.6,165.8 251.4,165.8 252.2,165.9 253.0,165.9 253.8,166.0 254.6,166.0 255.4,166.0 256.2,166.0 257.0,166.0 L257.0,166.0 Z" fill="#4a90d9" fill-opacity="0.06"/>
  <polyline points="52.0,166.0 52.8,166.0 53.6,166.0 54.4,166.0 55.2,166.0 56.0,165.9 56.8,165.9 57.6,165.8 58.4,165.8 59.2,165.7 60.0,165.7 60.8,165.6 61.6,165.5 62.5,165.4 63.3,165.3 64.1,165.2 64.9,165.1 65.7,164.9 66.5,164.8 67.3,164.6 68.1,164.5 68.9,164.3 69.7,164.1 70.5,163.9 71.3,163.7 72.1,163.5 72.9,163.2 73.7,163.0 74.5,162.7 75.3,162.4 76.1,162.1 76.9,161.8 77.7,161.4 78.5,161.1 79.3,160.7 80.1,160.4 80.9,160.0 81.7,159.5 82.5,159.1 83.4,158.6 84.2,158.2 85.0,157.7 85.8,157.2 86.6,156.6 87.4,156.1 88.2,155.5 89.0,154.9 89.8,154.3 90.6,153.7 91.4,153.0 92.2,152.3 93.0,151.6 93.8,150.9 94.6,150.2 95.4,149.4 96.2,148.6 97.0,147.8 97.8,146.9 98.6,146.1 99.4,145.2 100.2,144.3 101.0,143.3 101.8,142.4 102.6,141.4 103.5,140.4 104.3,139.3 105.1,138.2 105.9,137.2 106.7,136.0 107.5,134.9 108.3,133.7 109.1,132.5 109.9,131.3 110.7,130.0 111.5,128.7 112.3,127.4 113.1,126.1 113.9,124.7 114.7,123.3 115.5,121.9 116.3,120.5 117.1,119.0 117.9,117.5 118.7,116.0 119.5,114.4 120.3,112.9 121.1,111.3 121.9,109.6 122.7,108.0 123.5,106.3 124.4,104.6 125.2,102.9 126.0,101.1 126.8,99.3 127.6,97.5 128.4,95.7 129.2,93.9 130.0,92.0 130.8,90.1 131.6,88.2 132.4,86.3 133.2,84.3 134.0,82.3 134.8,80.3 135.6,78.3 136.4,76.3 137.2,74.3 138.0,72.2 138.8,70.1 139.6,68.0 140.4,65.9 141.2,63.8 142.0,61.7 142.8,59.5 143.6,57.4 144.5,55.2 145.3,53.1 146.1,50.9 146.9,48.7 147.7,46.5 148.5,44.4 149.3,42.2 150.1,40.0 150.9,37.8 151.7,35.6 152.5,33.4 153.3,31.3 154.1,29.1 154.9,29.1 155.7,31.3 156.5,33.4 157.3,35.6 158.1,37.8 158.9,40.0 159.7,42.2 160.5,44.4 161.3,46.5 162.1,48.7 162.9,50.9 163.7,53.1 164.5,55.2 165.4,57.4 166.2,59.5 167.0,61.7 167.8,63.8 168.6,65.9 169.4,68.0 170.2,70.1 171.0,72.2 171.8,74.3 172.6,76.3 173.4,78.3 174.2,80.3 175.0,82.3 175.8,84.3 176.6,86.3 177.4,88.2 178.2,90.1 179.0,92.0 179.8,93.9 180.6,95.7 181.4,97.5 182.2,99.3 183.0,101.1 183.8,102.9 184.6,104.6 185.5,106.3 186.3,108.0 187.1,109.6 187.9,111.3 188.7,112.9 189.5,114.4 190.3,116.0 191.1,117.5 191.9,119.0 192.7,120.5 193.5,121.9 194.3,123.3 195.1,124.7 195.9,126.1 196.7,127.4 197.5,128.7 198.3,130.0 199.1,131.3 199.9,132.5 200.7,133.7 201.5,134.9 202.3,136.0 203.1,137.2 203.9,138.2 204.7,139.3 205.5,140.4 206.4,141.4 207.2,142.4 208.0,143.3 208.8,144.3 209.6,145.2 210.4,146.1 211.2,146.9 212.0,147.8 212.8,148.6 213.6,149.4 214.4,150.2 215.2,150.9 216.0,151.6 216.8,152.3 217.6,153.0 218.4,153.7 219.2,154.3 220.0,154.9 220.8,155.5 221.6,156.1 222.4,156.6 223.2,157.2 224.0,157.7 224.8,158.2 225.6,158.6 226.5,159.1 227.3,159.5 228.1,160.0 228.9,160.4 229.7,160.7 230.5,161.1 231.3,161.4 232.1,161.8 232.9,162.1 233.7,162.4 234.5,162.7 235.3,163.0 236.1,163.2 236.9,163.5 237.7,163.7 238.5,163.9 239.3,164.1 240.1,164.3 240.9,164.5 241.7,164.6 242.5,164.8 243.3,164.9 244.1,165.1 244.9,165.2 245.7,165.3 246.5,165.4 247.4,165.5 248.2,165.6 249.0,165.7 249.8,165.7 250.6,165.8 251.4,165.8 252.2,165.9 253.0,165.9 253.8,166.0 254.6,166.0 255.4,166.0 256.2,166.0 257.0,166.0" fill="none" stroke="#4a90d9" stroke-width="1.2" stroke-linejoin="round"/>
  <line x1="322" y1="28.0" x2="527" y2="28.0" stroke="#e5e7eb" stroke-width="0.5"/>
  <text x="318" y="31.0" text-anchor="end" font-size="7.5" fill="#6b7280">0</text>
  <line x1="322" y1="74.0" x2="527" y2="74.0" stroke="#e5e7eb" stroke-width="0.5"/>
  <text x="318" y="77.0" text-anchor="end" font-size="7.5" fill="#6b7280">-40</text>
  <line x1="322" y1="120.0" x2="527" y2="120.0" stroke="#e5e7eb" stroke-width="0.5"/>
  <text x="318" y="123.0" text-anchor="end" font-size="7.5" fill="#6b7280">-80</text>
  <line x1="322" y1="166.0" x2="527" y2="166.0" stroke="#e5e7eb" stroke-width="0.5"/>
  <text x="318" y="169.0" text-anchor="end" font-size="7.5" fill="#6b7280">-120</text>
  <line x1="322.0" y1="28" x2="322.0" y2="166" stroke="#e5e7eb" stroke-width="0.5"/>
  <text x="322.0" y="178" text-anchor="middle" font-size="7.5" fill="#6b7280">0</text>
  <line x1="363.0" y1="28" x2="363.0" y2="166" stroke="#e5e7eb" stroke-width="0.5"/>
  <text x="363.0" y="178" text-anchor="middle" font-size="7.5" fill="#6b7280">0.1</text>
  <line x1="404.0" y1="28" x2="404.0" y2="166" stroke="#e5e7eb" stroke-width="0.5"/>
  <text x="404.0" y="178" text-anchor="middle" font-size="7.5" fill="#6b7280">0.2</text>
  <line x1="445.0" y1="28" x2="445.0" y2="166" stroke="#e5e7eb" stroke-width="0.5"/>
  <text x="445.0" y="178" text-anchor="middle" font-size="7.5" fill="#6b7280">0.3</text>
  <line x1="486.0" y1="28" x2="486.0" y2="166" stroke="#e5e7eb" stroke-width="0.5"/>
  <text x="486.0" y="178" text-anchor="middle" font-size="7.5" fill="#6b7280">0.4</text>
  <line x1="527.0" y1="28" x2="527.0" y2="166" stroke="#e5e7eb" stroke-width="0.5"/>
  <text x="527.0" y="178" text-anchor="middle" font-size="7.5" fill="#6b7280">0.5</text>
  <line x1="322" y1="28" x2="322" y2="166" stroke="#d1d5db" stroke-width="0.75"/>
  <line x1="322" y1="166" x2="527" y2="166" stroke="#d1d5db" stroke-width="0.75"/>
  <polyline points="322.0,28.0 322.1,28.0 322.2,28.1 322.3,28.1 322.4,28.2 322.5,28.4 322.6,28.6 322.7,28.8 322.8,29.0 322.9,29.3 323.0,29.6 323.1,29.9 323.2,30.2 323.3,30.6 323.4,31.0 323.5,31.5 323.6,32.0 323.7,32.5 323.8,33.0 323.9,33.6 324.0,34.1 324.1,34.8 324.2,35.4 324.3,36.1 324.4,36.8 324.5,37.5 324.6,38.2 324.7,38.9 324.8,39.7 324.9,40.5 325.0,41.3 325.1,42.0 325.2,42.8 325.3,43.6 325.4,44.4 325.5,45.1 325.6,45.9 325.7,46.6 325.8,47.3 325.9,48.0 326.0,48.7 326.1,49.3 326.2,49.9 326.3,50.4 326.4,50.9 326.5,51.4 326.6,51.9 326.7,52.3 326.8,52.7 326.9,53.1 327.0,53.5 327.1,53.9 327.2,54.3 327.3,54.6 327.4,55.0 327.5,55.3 327.6,55.7 327.7,56.0 327.8,56.4 327.9,56.8 328.0,57.1 328.1,57.5 328.2,57.9 328.3,58.3 328.4,58.7 328.5,59.0 328.6,59.4 328.7,59.8 328.8,60.1 328.9,60.5 329.0,60.8 329.1,61.2 329.2,61.5 329.3,61.8 329.4,62.1 329.5,62.4 329.6,62.6 329.7,62.9 329.8,63.1 329.9,63.4 330.0,63.6 330.1,63.8 330.2,64.0 330.3,64.2 330.4,64.4 330.5,64.7 330.6,64.9 330.7,65.1 330.8,65.3 330.9,65.5 331.0,65.8 331.1,66.0 331.2,66.2 331.3,66.5 331.4,66.7 331.5,67.0 331.6,67.2 331.7,67.5 331.8,67.7 331.9,67.9 332.0,68.2 332.1,68.4 332.2,68.6 332.3,68.9 332.4,69.1 332.5,69.3 332.6,69.5 332.7,69.7 332.8,69.8 332.9,70.0 333.0,70.2 333.1,70.3 333.2,70.5 333.3,70.6 333.4,70.8 333.5,70.9 333.6,71.1 333.7,71.2 333.8,71.4 333.9,71.6 334.0,71.7 334.1,71.9 334.2,72.0 334.3,72.2 334.4,72.4 334.5,72.6 334.6,72.8 334.7,72.9 334.8,73.1 334.9,73.3 335.0,73.5 335.1,73.7 335.2,73.8 335.3,74.0 335.4,74.2 335.5,74.4 335.6,74.5 335.7,74.7 335.8,74.8 335.9,75.0 336.0,75.1 336.1,75.2 336.2,75.3 336.3,75.5 336.4,75.6 336.5,75.7 336.6,75.8 336.7,75.9 336.8,76.1 336.9,76.2 337.0,76.3 337.1,76.4 337.2,76.5 337.3,76.7 337.4,76.8 337.5,76.9 337.6,77.1 337.7,77.2 337.8,77.4 337.9,77.5 338.0,77.7 338.1,77.8 338.2,77.9 338.3,78.1 338.4,78.2 338.5,78.4 338.6,78.5 338.7,78.6 338.8,78.8 338.9,78.9 339.0,79.0 339.1,79.1 339.2,79.2 339.3,79.3 339.4,79.5 339.5,79.5 339.6,79.6 339.7,79.7 339.8,79.8 339.9,79.9 340.0,80.0 340.1,80.1 340.2,80.2 340.3,80.3 340.4,80.4 340.5,80.5 340.6,80.6 340.7,80.8 340.8,80.9 340.9,81.0 341.0,81.1 341.1,81.2 341.2,81.3 341.3,81.5 341.4,81.6 341.5,81.7 341.6,81.8 341.7,82.0 341.8,82.1 341.9,82.2 342.0,82.3 342.1,82.4 342.2,82.5 342.3,82.6 342.4,82.7 342.5,82.8 342.6,82.9 342.7,82.9 342.8,83.0 342.9,83.1 343.0,83.2 343.1,83.3 343.2,83.3 343.3,83.4 343.4,83.5 343.5,83.6 343.6,83.7 343.7,83.8 343.8,83.9 343.9,84.0 344.0,84.1 344.1,84.2 344.2,84.3 344.3,84.4 344.4,84.5 344.5,84.6 344.6,84.7 344.7,84.8 344.8,84.9 344.9,85.0 345.0,85.1 345.1,85.2 345.2,85.3 345.3,85.4 345.4,85.4 345.5,85.5 345.6,85.6 345.7,85.7 345.8,85.8 345.9,85.8 346.0,85.9 346.1,86.0 346.2,86.0 346.3,86.1 346.4,86.2 346.5,86.3 346.6,86.3 346.7,86.4 346.8,86.5 346.9,86.6 347.0,86.6 347.1,86.7 347.2,86.8 347.3,86.9 347.4,87.0 347.5,87.1 347.6,87.2 347.7,87.3 347.8,87.3 347.9,87.4 348.0,87.5 348.1,87.6 348.2,87.7 348.3,87.8 348.4,87.9 348.5,87.9 348.6,88.0 348.7,88.1 348.8,88.2 348.9,88.2 349.0,88.3 349.1,88.4 349.2,88.4 349.3,88.5 349.4,88.6 349.5,88.6 349.6,88.7 349.7,88.7 349.8,88.8 349.9,88.9 350.0,88.9 350.1,89.0 350.2,89.1 350.3,89.2 350.4,89.2 350.5,89.3 350.6,89.4 350.7,89.5 350.8,89.5 350.9,89.6 351.0,89.7 351.1,89.8 351.2,89.9 351.3,89.9 351.4,90.0 351.5,90.1 351.6,90.2 351.7,90.2 351.8,90.3 351.9,90.4 352.0,90.4 352.1,90.5 352.2,90.6 352.3,90.6 352.4,90.7 352.5,90.7 352.6,90.8 352.7,90.8 352.8,90.9 352.9,91.0 353.0,91.0 353.1,91.1 353.2,91.1 353.3,91.2 353.4,91.3 353.5,91.3 353.6,91.4 353.7,91.5 353.8,91.5 353.9,91.6 354.0,91.7 354.1,91.8 354.2,91.8 354.3,91.9 354.4,92.0 354.5,92.0 354.6,92.1 354.7,92.2 354.8,92.2 354.9,92.3 355.0,92.4 355.1,92.4 355.2,92.5 355.3,92.5 355.4,92.6 355.5,92.7 355.6,92.7 355.7,92.8 355.8,92.8 355.9,92.9 356.0,92.9 356.1,93.0 356.3,93.0 356.4,93.1 356.5,93.1 356.6,93.2 356.7,93.2 356.8,93.3 356.9,93.4 357.0,93.4 357.1,93.5 357.2,93.5 357.3,93.6 357.4,93.7 357.5,93.7 357.6,93.8 357.7,93.9 357.8,93.9 357.9,94.0 358.0,94.1 358.1,94.1 358.2,94.2 358.3,94.2 358.4,94.3 358.5,94.4 358.6,94.4 358.7,94.5 358.8,94.5 358.9,94.5 359.0,94.6 359.1,94.6 359.2,94.7 359.3,94.7 359.4,94.8 359.5,94.8 359.6,94.9 359.7,94.9 359.8,95.0 359.9,95.0 360.0,95.1 360.1,95.1 360.2,95.2 360.3,95.3 360.4,95.3 360.5,95.4 360.6,95.4 360.7,95.5 360.8,95.6 360.9,95.6 361.0,95.7 361.1,95.7 361.2,95.8 361.3,95.9 361.4,95.9 361.5,96.0 361.6,96.0 361.7,96.1 361.8,96.1 361.9,96.2 362.0,96.2 362.1,96.2 362.2,96.3 362.3,96.3 362.4,96.4 362.5,96.4 362.6,96.5 362.7,96.5 362.8,96.5 362.9,96.6 363.0,96.6 363.1,96.7 363.2,96.7 363.3,96.8 363.4,96.8 363.5,96.9 363.6,97.0 363.7,97.0 363.8,97.1 363.9,97.1 364.0,97.2 364.1,97.2 364.2,97.3 364.3,97.3 364.4,97.4 364.5,97.5 364.6,97.5 364.7,97.5 364.8,97.6 364.9,97.6 365.0,97.7 365.1,97.7 365.2,97.8 365.3,97.8 365.4,97.8 365.5,97.9 365.6,97.9 365.7,98.0 365.8,98.0 365.9,98.0 366.0,98.1 366.1,98.1 366.2,98.2 366.3,98.2 366.4,98.3 366.5,98.3 366.6,98.4 366.7,98.4 366.8,98.5 366.9,98.5 367.0,98.6 367.1,98.6 367.2,98.7 367.3,98.7 367.4,98.8 367.5,98.8 367.6,98.9 367.7,98.9 367.8,99.0 367.9,99.0 368.0,99.1 368.1,99.1 368.2,99.2 368.3,99.2 368.4,99.2 368.5,99.3 368.6,99.3 368.7,99.3 368.8,99.4 368.9,99.4 369.0,99.5 369.1,99.5 369.2,99.5 369.3,99.6 369.4,99.6 369.5,99.7 369.6,99.7 369.7,99.7 369.8,99.8 369.9,99.8 370.0,99.9 370.1,99.9 370.2,100.0 370.3,100.0 370.4,100.1 370.5,100.1 370.6,100.2 370.7,100.2 370.8,100.3 370.9,100.3 371.0,100.4 371.1,100.4 371.2,100.4 371.3,100.5 371.4,100.5 371.5,100.6 371.6,100.6 371.7,100.6 371.8,100.7 371.9,100.7 372.0,100.7 372.1,100.8 372.2,100.8 372.3,100.8 372.4,100.9 372.5,100.9 372.6,101.0 372.7,101.0 372.8,101.0 372.9,101.1 373.0,101.1 373.1,101.2 373.2,101.2 373.3,101.3 373.4,101.3 373.5,101.4 373.6,101.4 373.7,101.4 373.8,101.5 373.9,101.5 374.0,101.6 374.1,101.6 374.2,101.7 374.3,101.7 374.4,101.7 374.5,101.8 374.6,101.8 374.7,101.9 374.8,101.9 374.9,101.9 375.0,102.0 375.1,102.0 375.2,102.0 375.3,102.1 375.4,102.1 375.5,102.1 375.6,102.2 375.7,102.2 375.8,102.2 375.9,102.3 376.0,102.3 376.1,102.3 376.2,102.4 376.3,102.4 376.4,102.5 376.5,102.5 376.6,102.6 376.7,102.6 376.8,102.6 376.9,102.7 377.0,102.7 377.1,102.8 377.2,102.8 377.3,102.9 377.4,102.9 377.5,102.9 377.6,103.0 377.7,103.0 377.8,103.0 377.9,103.1 378.0,103.1 378.1,103.1 378.2,103.2 378.3,103.2 378.4,103.2 378.5,103.3 378.6,103.3 378.7,103.3 378.8,103.4 378.9,103.4 379.0,103.4 379.1,103.5 379.2,103.5 379.3,103.5 379.4,103.6 379.5,103.6 379.6,103.7 379.7,103.7 379.8,103.7 379.9,103.8 380.0,103.8 380.1,103.9 380.2,103.9 380.3,103.9 380.4,104.0 380.5,104.0 380.6,104.1 380.7,104.1 380.8,104.1 380.9,104.2 381.0,104.2 381.1,104.2 381.2,104.3 381.3,104.3 381.4,104.3 381.5,104.4 381.6,104.4 381.7,104.4 381.8,104.4 381.9,104.5 382.0,104.5 382.1,104.5 382.2,104.6 382.3,104.6 382.4,104.6 382.5,104.7 382.6,104.7 382.7,104.7 382.8,104.8 382.9,104.8 383.0,104.9 383.1,104.9 383.2,104.9 383.3,105.0 383.4,105.0 383.5,105.1 383.6,105.1 383.7,105.1 383.8,105.2 383.9,105.2 384.0,105.2 384.1,105.3 384.2,105.3 384.3,105.3 384.4,105.4 384.5,105.4 384.6,105.4 384.7,105.4 384.8,105.5 384.9,105.5 385.0,105.5 385.1,105.6 385.2,105.6 385.3,105.6 385.4,105.7 385.5,105.7 385.6,105.7 385.7,105.7 385.8,105.8 385.9,105.8 386.0,105.9 386.1,105.9 386.2,105.9 386.3,106.0 386.4,106.0 386.5,106.0 386.6,106.1 386.7,106.1 386.8,106.2 386.9,106.2 387.0,106.2 387.1,106.3 387.2,106.3 387.3,106.3 387.4,106.4 387.5,106.4 387.6,106.4 387.7,106.4 387.8,106.5 387.9,106.5 388.0,106.5 388.1,106.5 388.2,106.6 388.3,106.6 388.4,106.6 388.5,106.7 388.6,106.7 388.7,106.7 388.8,106.8 388.9,106.8 389.0,106.8 389.1,106.9 389.2,106.9 389.3,106.9 389.4,107.0 389.5,107.0 389.6,107.0 389.7,107.1 389.8,107.1 389.9,107.1 390.0,107.2 390.1,107.2 390.2,107.2 390.3,107.3 390.4,107.3 390.5,107.3 390.6,107.4 390.7,107.4 390.8,107.4 390.9,107.4 391.0,107.5 391.1,107.5 391.2,107.5 391.3,107.5 391.4,107.6 391.5,107.6 391.6,107.6 391.7,107.7 391.8,107.7 391.9,107.7 392.0,107.7 392.1,107.8 392.2,107.8 392.3,107.8 392.4,107.9 392.5,107.9 392.6,107.9 392.7,108.0 392.8,108.0 392.9,108.0 393.0,108.1 393.1,108.1 393.2,108.1 393.3,108.2 393.4,108.2 393.5,108.2 393.6,108.3 393.7,108.3 393.8,108.3 393.9,108.4 394.0,108.4 394.1,108.4 394.2,108.4 394.3,108.5 394.4,108.5 394.5,108.5 394.6,108.5 394.7,108.6 394.8,108.6 394.9,108.6 395.0,108.6 395.1,108.7 395.2,108.7 395.3,108.7 395.4,108.8 395.5,108.8 395.6,108.8 395.7,108.9 395.8,108.9 395.9,108.9 396.0,109.0 396.1,109.0 396.2,109.0 396.3,109.1 396.4,109.1 396.5,109.1 396.6,109.1 396.7,109.2 396.8,109.2 396.9,109.2 397.0,109.3 397.1,109.3 397.2,109.3 397.3,109.3 397.4,109.4 397.5,109.4 397.6,109.4 397.7,109.4 397.8,109.5 397.9,109.5 398.0,109.5 398.1,109.5 398.2,109.6 398.3,109.6 398.4,109.6 398.5,109.6 398.6,109.7 398.7,109.7 398.8,109.7 398.9,109.8 399.0,109.8 399.1,109.8 399.2,109.9 399.3,109.9 399.4,109.9 399.5,110.0 399.6,110.0 399.7,110.0 399.8,110.1 399.9,110.1 400.0,110.1 400.1,110.1 400.2,110.2 400.3,110.2 400.4,110.2 400.5,110.2 400.6,110.3 400.7,110.3 400.8,110.3 400.9,110.3 401.0,110.4 401.1,110.4 401.2,110.4 401.3,110.4 401.4,110.5 401.5,110.5 401.6,110.5 401.7,110.5 401.8,110.6 401.9,110.6 402.0,110.6 402.1,110.7 402.2,110.7 402.3,110.7 402.4,110.7 402.5,110.8 402.6,110.8 402.7,110.8 402.8,110.9 402.9,110.9 403.0,110.9 403.1,111.0 403.2,111.0 403.3,111.0 403.4,111.0 403.5,111.1 403.6,111.1 403.7,111.1 403.8,111.1 403.9,111.2 404.0,111.2 404.1,111.2 404.2,111.2 404.3,111.2 404.4,111.3 404.5,111.3 404.6,111.3 404.7,111.3 404.8,111.4 404.9,111.4 405.0,111.4 405.1,111.4 405.2,111.5 405.3,111.5 405.4,111.5 405.5,111.6 405.6,111.6 405.7,111.6 405.8,111.7 405.9,111.7 406.0,111.7 406.1,111.7 406.2,111.8 406.3,111.8 406.4,111.8 406.5,111.9 406.6,111.9 406.7,111.9 406.8,111.9 406.9,112.0 407.0,112.0 407.1,112.0 407.2,112.0 407.3,112.0 407.4,112.1 407.5,112.1 407.6,112.1 407.7,112.1 407.8,112.2 407.9,112.2 408.0,112.2 408.1,112.2 408.2,112.3 408.3,112.3 408.4,112.3 408.5,112.3 408.6,112.4 408.7,112.4 408.8,112.4 408.9,112.5 409.0,112.5 409.1,112.5 409.2,112.5 409.3,112.6 409.4,112.6 409.5,112.6 409.6,112.7 409.7,112.7 409.8,112.7 409.9,112.7 410.0,112.8 410.1,112.8 410.2,112.8 410.3,112.8 410.4,112.8 410.5,112.9 410.6,112.9 410.7,112.9 410.8,112.9 410.9,112.9 411.0,113.0 411.1,113.0 411.2,113.0 411.3,113.0 411.4,113.1 411.5,113.1 411.6,113.1 411.7,113.1 411.8,113.2 411.9,113.2 412.0,113.2 412.1,113.3 412.2,113.3 412.3,113.3 412.4,113.3 412.5,113.4 412.6,113.4 412.7,113.4 412.8,113.5 412.9,113.5 413.0,113.5 413.1,113.5 413.2,113.5 413.3,113.6 413.4,113.6 413.5,113.6 413.6,113.6 413.7,113.7 413.8,113.7 413.9,113.7 414.0,113.7 414.1,113.7 414.2,113.8 414.3,113.8 414.4,113.8 414.5,113.8 414.6,113.9 414.7,113.9 414.8,113.9 414.9,113.9 415.0,114.0 415.1,114.0 415.2,114.0 415.3,114.0 415.4,114.1 415.5,114.1 415.6,114.1 415.7,114.2 415.8,114.2 415.9,114.2 416.0,114.2 416.1,114.3 416.2,114.3 416.3,114.3 416.4,114.3 416.5,114.4 416.6,114.4 416.7,114.4 416.8,114.4 416.9,114.4 417.0,114.5 417.1,114.5 417.2,114.5 417.3,114.5 417.4,114.5 417.5,114.6 417.6,114.6 417.7,114.6 417.8,114.6 417.9,114.7 418.0,114.7 418.1,114.7 418.2,114.7 418.3,114.8 418.4,114.8 418.5,114.8 418.6,114.8 418.7,114.9 418.8,114.9 418.9,114.9 419.0,115.0 419.1,115.0 419.2,115.0 419.3,115.0 419.4,115.0 419.5,115.1 419.6,115.1 419.7,115.1 419.8,115.1 419.9,115.2 420.0,115.2 420.1,115.2 420.2,115.2 420.3,115.2 420.4,115.3 420.5,115.3 420.6,115.3 420.7,115.3 420.8,115.3 420.9,115.4 421.0,115.4 421.1,115.4 421.2,115.4 421.3,115.5 421.4,115.5 421.5,115.5 421.6,115.5 421.7,115.6 421.8,115.6 421.9,115.6 422.0,115.7 422.1,115.7 422.2,115.7 422.3,115.7 422.4,115.8 422.5,115.8 422.6,115.8 422.7,115.8 422.8,115.8 422.9,115.9 423.0,115.9 423.1,115.9 423.2,115.9 423.3,115.9 423.4,116.0 423.5,116.0 423.6,116.0 423.7,116.0 423.8,116.0 423.9,116.1 424.0,116.1 424.1,116.1 424.2,116.1 424.3,116.2 424.4,116.2 424.6,116.2 424.7,116.2 424.8,116.3 424.9,116.3 425.0,116.3 425.1,116.3 425.2,116.4 425.3,116.4 425.4,116.4 425.5,116.4 425.6,116.5 425.7,116.5 425.8,116.5 425.9,116.5 426.0,116.6 426.1,116.6 426.2,116.6 426.3,116.6 426.4,116.6 426.5,116.7 426.6,116.7 426.7,116.7 426.8,116.7 426.9,116.7 427.0,116.8 427.1,116.8 427.2,116.8 427.3,116.8 427.4,116.8 427.5,116.9 427.6,116.9 427.7,116.9 427.8,116.9 427.9,117.0 428.0,117.0 428.1,117.0 428.2,117.0 428.3,117.1 428.4,117.1 428.5,117.1 428.6,117.1 428.7,117.2 428.8,117.2 428.9,117.2 429.0,117.2 429.1,117.3 429.2,117.3 429.3,117.3 429.4,117.3 429.5,117.3 429.6,117.4 429.7,117.4 429.8,117.4 429.9,117.4 430.0,117.4 430.1,117.5 430.2,117.5 430.3,117.5 430.4,117.5 430.5,117.5 430.6,117.6 430.7,117.6 430.8,117.6 430.9,117.6 431.0,117.7 431.1,117.7 431.2,117.7 431.3,117.7 431.4,117.8 431.5,117.8 431.6,117.8 431.7,117.8 431.8,117.9 431.9,117.9 432.0,117.9 432.1,117.9 432.2,118.0 432.3,118.0 432.4,118.0 432.5,118.0 432.6,118.0 432.7,118.1 432.8,118.1 432.9,118.1 433.0,118.1 433.1,118.1 433.2,118.2 433.3,118.2 433.4,118.2 433.5,118.2 433.6,118.2 433.7,118.3 433.8,118.3 433.9,118.3 434.0,118.3 434.1,118.3 434.2,118.4 434.3,118.4 434.4,118.4 434.5,118.4 434.6,118.5 434.7,118.5 434.8,118.5 434.9,118.5 435.0,118.6 435.1,118.6 435.2,118.6 435.3,118.6 435.4,118.7 435.5,118.7 435.6,118.7 435.7,118.7 435.8,118.7 435.9,118.8 436.0,118.8 436.1,118.8 436.2,118.8 436.3,118.8 436.4,118.9 436.5,118.9 436.6,118.9 436.7,118.9 436.8,118.9 436.9,119.0 437.0,119.0 437.1,119.0 437.2,119.0 437.3,119.0 437.4,119.1 437.5,119.1 437.6,119.1 437.7,119.1 437.8,119.2 437.9,119.2 438.0,119.2 438.1,119.2 438.2,119.3 438.3,119.3 438.4,119.3 438.5,119.3 438.6,119.4 438.7,119.4 438.8,119.4 438.9,119.4 439.0,119.4 439.1,119.5 439.2,119.5 439.3,119.5 439.4,119.5 439.5,119.5 439.6,119.6 439.7,119.6 439.8,119.6 439.9,119.6 440.0,119.6 440.1,119.7 440.2,119.7 440.3,119.7 440.4,119.7 440.5,119.7 440.6,119.8 440.7,119.8 440.8,119.8 440.9,119.8 441.0,119.9 441.1,119.9 441.2,119.9 441.3,119.9 441.4,120.0 441.5,120.0 441.6,120.0 441.7,120.0 441.8,120.1 441.9,120.1 442.0,120.1 442.1,120.1 442.2,120.1 442.3,120.2 442.4,120.2 442.5,120.2 442.6,120.2 442.7,120.2 442.8,120.3 442.9,120.3 443.0,120.3 443.1,120.3 443.2,120.3 443.3,120.4 443.4,120.4 443.5,120.4 443.6,120.4 443.7,120.4 443.8,120.5 443.9,120.5 444.0,120.5 444.1,120.5 444.2,120.6 444.3,120.6 444.4,120.6 444.5,120.6 444.6,120.7 444.7,120.7 444.8,120.7 444.9,120.7 445.0,120.8 445.1,120.8 445.2,120.8 445.3,120.8 445.4,120.8 445.5,120.9 445.6,120.9 445.7,120.9 445.8,120.9 445.9,120.9 446.0,121.0 446.1,121.0 446.2,121.0 446.3,121.0 446.4,121.0 446.5,121.0 446.6,121.1 446.7,121.1 446.8,121.1 446.9,121.1 447.0,121.2 447.1,121.2 447.2,121.2 447.3,121.2 447.4,121.3 447.5,121.3 447.6,121.3 447.7,121.3 447.8,121.4 447.9,121.4 448.0,121.4 448.1,121.4 448.2,121.4 448.3,121.5 448.4,121.5 448.5,121.5 448.6,121.5 448.7,121.6 448.8,121.6 448.9,121.6 449.0,121.6 449.1,121.6 449.2,121.6 449.3,121.7 449.4,121.7 449.5,121.7 449.6,121.7 449.7,121.7 449.8,121.8 449.9,121.8 450.0,121.8 450.1,121.8 450.2,121.9 450.3,121.9 450.4,121.9 450.5,121.9 450.6,121.9 450.7,122.0 450.8,122.0 450.9,122.0 451.0,122.0 451.1,122.1 451.2,122.1 451.3,122.1 451.4,122.1 451.5,122.2 451.6,122.2 451.7,122.2 451.8,122.2 451.9,122.2 452.0,122.3 452.1,122.3 452.2,122.3 452.3,122.3 452.4,122.3 452.5,122.4 452.6,122.4 452.7,122.4 452.8,122.4 452.9,122.4 453.0,122.5 453.1,122.5 453.2,122.5 453.3,122.5 453.4,122.5 453.5,122.6 453.6,122.6 453.7,122.6 453.8,122.6 453.9,122.7 454.0,122.7 454.1,122.7 454.2,122.7 454.3,122.8 454.4,122.8 454.5,122.8 454.6,122.8 454.7,122.9 454.8,122.9 454.9,122.9 455.0,122.9 455.1,122.9 455.2,123.0 455.3,123.0 455.4,123.0 455.5,123.0 455.6,123.0 455.7,123.1 455.8,123.1 455.9,123.1 456.0,123.1 456.1,123.1 456.2,123.2 456.3,123.2 456.4,123.2 456.5,123.2 456.6,123.2 456.7,123.3 456.8,123.3 456.9,123.3 457.0,123.3 457.1,123.4 457.2,123.4 457.3,123.4 457.4,123.4 457.5,123.5 457.6,123.5 457.7,123.5 457.8,123.5 457.9,123.6 458.0,123.6 458.1,123.6 458.2,123.6 458.3,123.6 458.4,123.7 458.5,123.7 458.6,123.7 458.7,123.7 458.8,123.7 458.9,123.8 459.0,123.8 459.1,123.8 459.2,123.8 459.3,123.8 459.4,123.9 459.5,123.9 459.6,123.9 459.7,123.9 459.8,124.0 459.9,124.0 460.0,124.0 460.1,124.0 460.2,124.1 460.3,124.1 460.4,124.1 460.5,124.1 460.6,124.2 460.7,124.2 460.8,124.2 460.9,124.2 461.0,124.3 461.1,124.3 461.2,124.3 461.3,124.3 461.4,124.3 461.5,124.4 461.6,124.4 461.7,124.4 461.8,124.4 461.9,124.4 462.0,124.5 462.1,124.5 462.2,124.5 462.3,124.5 462.4,124.5 462.5,124.6 462.6,124.6 462.7,124.6 462.8,124.6 462.9,124.6 463.0,124.7 463.1,124.7 463.2,124.7 463.3,124.7 463.4,124.8 463.5,124.8 463.6,124.8 463.7,124.8 463.8,124.9 463.9,124.9 464.0,124.9 464.1,124.9 464.2,125.0 464.3,125.0 464.4,125.0 464.5,125.0 464.6,125.1 464.7,125.1 464.8,125.1 464.9,125.1 465.0,125.1 465.1,125.2 465.2,125.2 465.3,125.2 465.4,125.2 465.5,125.2 465.6,125.3 465.7,125.3 465.8,125.3 465.9,125.3 466.0,125.4 466.1,125.4 466.2,125.4 466.3,125.4 466.4,125.4 466.5,125.5 466.6,125.5 466.7,125.5 466.8,125.6 466.9,125.6 467.0,125.6 467.1,125.6 467.2,125.7 467.3,125.7 467.4,125.7 467.5,125.7 467.6,125.7 467.7,125.8 467.8,125.8 467.9,125.8 468.0,125.8 468.1,125.9 468.2,125.9 468.3,125.9 468.4,125.9 468.5,125.9 468.6,126.0 468.7,126.0 468.8,126.0 468.9,126.0 469.0,126.0 469.1,126.1 469.2,126.1 469.3,126.1 469.4,126.1 469.5,126.2 469.6,126.2 469.7,126.2 469.8,126.2 469.9,126.3 470.0,126.3 470.1,126.3 470.2,126.3 470.3,126.4 470.4,126.4 470.5,126.4 470.6,126.4 470.7,126.5 470.8,126.5 470.9,126.5 471.0,126.5 471.1,126.6 471.2,126.6 471.3,126.6 471.4,126.6 471.5,126.7 471.6,126.7 471.7,126.7 471.8,126.7 471.9,126.7 472.0,126.8 472.1,126.8 472.2,126.8 472.3,126.8 472.4,126.9 472.5,126.9 472.6,126.9 472.7,126.9 472.8,127.0 472.9,127.0 473.0,127.0 473.1,127.0 473.2,127.1 473.3,127.1 473.4,127.1 473.5,127.1 473.6,127.2 473.7,127.2 473.8,127.2 473.9,127.2 474.0,127.3 474.1,127.3 474.2,127.3 474.3,127.3 474.4,127.4 474.5,127.4 474.6,127.4 474.7,127.4 474.8,127.4 474.9,127.5 475.0,127.5 475.1,127.5 475.2,127.5 475.3,127.6 475.4,127.6 475.5,127.6 475.6,127.6 475.7,127.7 475.8,127.7 475.9,127.7 476.0,127.7 476.1,127.8 476.2,127.8 476.3,127.8 476.4,127.8 476.5,127.9 476.6,127.9 476.7,127.9 476.8,128.0 476.9,128.0 477.0,128.0 477.1,128.0 477.2,128.1 477.3,128.1 477.4,128.1 477.5,128.1 477.6,128.2 477.7,128.2 477.8,128.2 477.9,128.2 478.0,128.2 478.1,128.3 478.2,128.3 478.3,128.3 478.4,128.3 478.5,128.4 478.6,128.4 478.7,128.4 478.8,128.4 478.9,128.5 479.0,128.5 479.1,128.5 479.2,128.5 479.3,128.6 479.4,128.6 479.5,128.6 479.6,128.7 479.7,128.7 479.8,128.7 479.9,128.7 480.0,128.8 480.1,128.8 480.2,128.8 480.3,128.9 480.4,128.9 480.5,128.9 480.6,128.9 480.7,129.0 480.8,129.0 480.9,129.0 481.0,129.0 481.1,129.1 481.2,129.1 481.3,129.1 481.4,129.1 481.5,129.2 481.6,129.2 481.7,129.2 481.8,129.2 481.9,129.3 482.0,129.3 482.1,129.3 482.2,129.3 482.3,129.4 482.4,129.4 482.5,129.4 482.6,129.4 482.7,129.5 482.8,129.5 482.9,129.5 483.0,129.6 483.1,129.6 483.2,129.6 483.3,129.7 483.4,129.7 483.5,129.7 483.6,129.7 483.7,129.8 483.8,129.8 483.9,129.8 484.0,129.8 484.1,129.9 484.2,129.9 484.3,129.9 484.4,130.0 484.5,130.0 484.6,130.0 484.7,130.0 484.8,130.1 484.9,130.1 485.0,130.1 485.1,130.1 485.2,130.2 485.3,130.2 485.4,130.2 485.5,130.2 485.6,130.3 485.7,130.3 485.8,130.3 485.9,130.4 486.0,130.4 486.1,130.4 486.2,130.5 486.3,130.5 486.4,130.5 486.5,130.6 486.6,130.6 486.7,130.6 486.8,130.6 486.9,130.7 487.0,130.7 487.1,130.7 487.2,130.8 487.3,130.8 487.4,130.8 487.5,130.8 487.6,130.9 487.7,130.9 487.8,130.9 487.9,130.9 488.0,131.0 488.1,131.0 488.2,131.0 488.3,131.1 488.4,131.1 488.5,131.1 488.6,131.1 488.7,131.2 488.8,131.2 488.9,131.2 489.0,131.3 489.1,131.3 489.2,131.3 489.3,131.4 489.4,131.4 489.5,131.4 489.6,131.5 489.7,131.5 489.8,131.5 489.9,131.6 490.0,131.6 490.1,131.6 490.2,131.7 490.3,131.7 490.4,131.7 490.5,131.7 490.6,131.8 490.7,131.8 490.8,131.8 490.9,131.9 491.0,131.9 491.1,131.9 491.2,131.9 491.3,132.0 491.4,132.0 491.5,132.0 491.6,132.1 491.7,132.1 491.8,132.1 491.9,132.2 492.0,132.2 492.1,132.2 492.2,132.3 492.3,132.3 492.4,132.3 492.5,132.4 492.6,132.4 492.7,132.4 492.9,132.5 493.0,132.5 493.1,132.5 493.2,132.6 493.3,132.6 493.4,132.6 493.5,132.7 493.6,132.7 493.7,132.7 493.8,132.8 493.9,132.8 494.0,132.8 494.1,132.9 494.2,132.9 494.3,132.9 494.4,133.0 494.5,133.0 494.6,133.0 494.7,133.1 494.8,133.1 494.9,133.1 495.0,133.2 495.1,133.2 495.2,133.2 495.3,133.3 495.4,133.3 495.5,133.3 495.6,133.4 495.7,133.4 495.8,133.5 495.9,133.5 496.0,133.5 496.1,133.6 496.2,133.6 496.3,133.6 496.4,133.7 496.5,133.7 496.6,133.7 496.7,133.8 496.8,133.8 496.9,133.9 497.0,133.9 497.1,133.9 497.2,134.0 497.3,134.0 497.4,134.0 497.5,134.1 497.6,134.1 497.7,134.1 497.8,134.2 497.9,134.2 498.0,134.2 498.1,134.3 498.2,134.3 498.3,134.3 498.4,134.4 498.5,134.4 498.6,134.5 498.7,134.5 498.8,134.5 498.9,134.6 499.0,134.6 499.1,134.7 499.2,134.7 499.3,134.7 499.4,134.8 499.5,134.8 499.6,134.9 499.7,134.9 499.8,134.9 499.9,135.0 500.0,135.0 500.1,135.1 500.2,135.1 500.3,135.1 500.4,135.2 500.5,135.2 500.6,135.3 500.7,135.3 500.8,135.3 500.9,135.4 501.0,135.4 501.1,135.4 501.2,135.5 501.3,135.5 501.4,135.6 501.5,135.6 501.6,135.6 501.7,135.7 501.8,135.7 501.9,135.8 502.0,135.8 502.1,135.9 502.2,135.9 502.3,136.0 502.4,136.0 502.5,136.1 502.6,136.1 502.7,136.1 502.8,136.2 502.9,136.2 503.0,136.3 503.1,136.3 503.2,136.4 503.3,136.4 503.4,136.4 503.5,136.5 503.6,136.5 503.7,136.6 503.8,136.6 503.9,136.7 504.0,136.7 504.1,136.7 504.2,136.8 504.3,136.8 504.4,136.9 504.5,136.9 504.6,137.0 504.7,137.0 504.8,137.1 504.9,137.1 505.0,137.2 505.1,137.2 505.2,137.3 505.3,137.3 505.4,137.4 505.5,137.4 505.6,137.5 505.7,137.5 505.8,137.6 505.9,137.6 506.0,137.7 506.1,137.7 506.2,137.8 506.3,137.8 506.4,137.9 506.5,137.9 506.6,138.0 506.7,138.0 506.8,138.1 506.9,138.1 507.0,138.2 507.1,138.2 507.2,138.3 507.3,138.3 507.4,138.4 507.5,138.4 507.6,138.5 507.7,138.5 507.8,138.6 507.9,138.6 508.0,138.7 508.1,138.7 508.2,138.8 508.3,138.8 508.4,138.9 508.5,139.0 508.6,139.0 508.7,139.1 508.8,139.1 508.9,139.2 509.0,139.3 509.1,139.3 509.2,139.4 509.3,139.4 509.4,139.5 509.5,139.5 509.6,139.6 509.7,139.7 509.8,139.7 509.9,139.8 510.0,139.8 510.1,139.9 510.2,140.0 510.3,140.0 510.4,140.1 510.5,140.1 510.6,140.2 510.7,140.2 510.8,140.3 510.9,140.4 511.0,140.4 511.1,140.5 511.2,140.6 511.3,140.6 511.4,140.7 511.5,140.8 511.6,140.8 511.7,140.9 511.8,141.0 511.9,141.0 512.0,141.1 512.1,141.2 512.2,141.2 512.3,141.3 512.4,141.4 512.5,141.5 512.6,141.5 512.7,141.6 512.8,141.7 512.9,141.7 513.0,141.8 513.1,141.9 513.2,142.0 513.3,142.0 513.4,142.1 513.5,142.2 513.6,142.2 513.7,142.3 513.8,142.4 513.9,142.5 514.0,142.5 514.1,142.6 514.2,142.7 514.3,142.8 514.4,142.9 514.5,142.9 514.6,143.0 514.7,143.1 514.8,143.2 514.9,143.3 515.0,143.4 515.1,143.4 515.2,143.5 515.3,143.6 515.4,143.7 515.5,143.8 515.6,143.9 515.7,144.0 515.8,144.1 515.9,144.2 516.0,144.2 516.1,144.3 516.2,144.4 516.3,144.5 516.4,144.6 516.5,144.7 516.6,144.8 516.7,144.9 516.8,145.0 516.9,145.1 517.0,145.2 517.1,145.3 517.2,145.4 517.3,145.5 517.4,145.6 517.5,145.7 517.6,145.8 517.7,145.9 517.8,146.0 517.9,146.1 518.0,146.2 518.1,146.3 518.2,146.5 518.3,146.6 518.4,146.7 518.5,146.8 518.6,146.9 518.7,147.0 518.8,147.2 518.9,147.3 519.0,147.4 519.1,147.5 519.2,147.7 519.3,147.8 519.4,147.9 519.5,148.1 519.6,148.2 519.7,148.3 519.8,148.5 519.9,148.6 520.0,148.7 520.1,148.9 520.2,149.0 520.3,149.2 520.4,149.3 520.5,149.5 520.6,149.6 520.7,149.8 520.8,149.9 520.9,150.1 521.0,150.2 521.1,150.4 521.2,150.6 521.3,150.8 521.4,150.9 521.5,151.1 521.6,151.3 521.7,151.5 521.8,151.7 521.9,151.9 522.0,152.1 522.1,152.3 522.2,152.5 522.3,152.7 522.4,152.9 522.5,153.1 522.6,153.3 522.7,153.5 522.8,153.8 522.9,154.0 523.0,154.2 523.1,154.5 523.2,154.7 523.3,155.0 523.4,155.3 523.5,155.5 523.6,155.8 523.7,156.1 523.8,156.4 523.9,156.7 524.0,157.0 524.1,157.3 524.2,157.7 524.3,158.0 524.4,158.4 524.5,158.8 524.6,159.2 524.7,159.6 524.8,160.0 524.9,160.5 525.0,160.9 525.1,161.4 525.2,161.9 525.3,162.5 525.4,163.0 525.5,163.7 525.6,164.3 525.7,165.0 525.8,165.7 525.9,166.0 526.0,166.0 526.1,166.0 526.2,166.0 526.3,166.0 526.4,166.0 526.5,166.0 526.6,166.0 526.7,166.0 526.8,166.0 526.9,166.0 527.0,166.0" fill="none" stroke="#4a90d9" stroke-width="1.2" stroke-linejoin="round"/>
  <text x="154.5" y="190" text-anchor="middle" font-size="8" fill="#6b7280">n / N</text>
  <text x="424.5" y="190" text-anchor="middle" font-size="8" fill="#6b7280">Normalized frequency (× Fₛ)</text>
</svg>
