<svg xmlns="http://www.w3.org/2000/svg" viewBox="0 0 800 230" style="font-family:system-ui,-apple-system,sans-serif">
  <line x1="42" y1="182.0" x2="377" y2="182.0" stroke="#e5e7eb" stroke-width="0.7"/>
  <text x="37" y="186.0" text-anchor="end" font-size="10" fill="#6b7280">0</text>
  <line x1="42" y1="95.0" x2="377" y2="95.0" stroke="#e5e7eb" stroke-width="0.7"/>
  <text x="37" y="99.0" text-anchor="end" font-size="10" fill="#6b7280">0.5</text>
  <line x1="42" y1="8.0" x2="377" y2="8.0" stroke="#e5e7eb" stroke-width="0.7"/>
  <text x="37" y="12.0" text-anchor="end" font-size="10" fill="#6b7280">1</text>
  <line x1="42.0" y1="8" x2="42.0" y2="182" stroke="#e5e7eb" stroke-width="0.7"/>
  <text x="42.0" y="198" text-anchor="middle" font-size="10" fill="#6b7280">0</text>
  <line x1="209.5" y1="8" x2="209.5" y2="182" stroke="#e5e7eb" stroke-width="0.7"/>
  <text x="209.5" y="198" text-anchor="middle" font-size="10" fill="#6b7280">0.5</text>
  <line x1="377.0" y1="8" x2="377.0" y2="182" stroke="#e5e7eb" stroke-width="0.7"/>
  <text x="377.0" y="198" text-anchor="middle" font-size="10" fill="#6b7280">1</text>
  <line x1="42" y1="8" x2="42" y2="182" stroke="#d1d5db" stroke-width="1"/>
  <line x1="42" y1="182" x2="377" y2="182" stroke="#d1d5db" stroke-width="1"/>
  <path d="M42.0,182.0 42.0,181.1 43.3,180.6 44.6,180.0 45.9,179.4 47.3,178.8 48.6,178.1 49.9,177.4 51.2,176.6 52.5,175.8 53.8,174.9 55.1,173.9 56.5,172.9 57.8,171.8 59.1,170.7 60.4,169.5 61.7,168.3 63.0,166.9 64.3,165.6 65.6,164.1 67.0,162.6 68.3,161.1 69.6,159.4 70.9,157.8 72.2,156.0 73.5,154.2 74.8,152.3 76.2,150.4 77.5,148.5 78.8,146.4 80.1,144.4 81.4,142.2 82.7,140.1 84.0,137.8 85.4,135.6 86.7,133.3 88.0,130.9 89.3,128.5 90.6,126.1 91.9,123.6 93.2,121.2 94.5,118.6 95.9,116.1 97.2,113.6 98.5,111.0 99.8,108.4 101.1,105.8 102.4,103.2 103.7,100.5 105.1,97.9 106.4,95.3 107.7,92.7 109.0,90.0 110.3,87.4 111.6,84.8 112.9,82.2 114.3,79.7 115.6,77.1 116.9,74.6 118.2,72.1 119.5,69.6 120.8,67.2 122.1,64.8 123.5,62.4 124.8,60.1 126.1,57.8 127.4,55.6 128.7,53.4 130.0,51.2 131.3,49.1 132.6,47.1 134.0,45.1 135.3,43.2 136.6,41.3 137.9,39.4 139.2,37.7 140.5,35.9 141.8,34.3 143.2,32.7 144.5,31.2 145.8,29.7 147.1,28.3 148.4,26.9 149.7,25.6 151.0,24.3 152.4,23.2 153.7,22.0 155.0,21.0 156.3,19.9 157.6,19.0 158.9,18.1 160.2,17.2 161.5,16.4 162.9,15.7 164.2,15.0 165.5,14.3 166.8,13.7 168.1,13.1 169.4,12.6 170.7,12.1 172.1,11.7 173.4,11.3 174.7,10.9 176.0,10.5 177.3,10.2 178.6,10.0 179.9,9.7 181.3,9.5 182.6,9.3 183.9,9.1 185.2,8.9 186.5,8.8 187.8,8.7 189.1,8.5 190.5,8.4 191.8,8.4 193.1,8.3 194.4,8.2 195.7,8.2 197.0,8.1 198.3,8.1 199.6,8.1 201.0,8.1 202.3,8.0 203.6,8.0 204.9,8.0 206.2,8.0 207.5,8.0 208.8,8.0 210.2,8.0 211.5,8.0 212.8,8.0 214.1,8.0 215.4,8.0 216.7,8.0 218.0,8.1 219.4,8.1 220.7,8.1 222.0,8.1 223.3,8.2 224.6,8.2 225.9,8.3 227.2,8.4 228.5,8.4 229.9,8.5 231.2,8.7 232.5,8.8 233.8,8.9 235.1,9.1 236.4,9.3 237.7,9.5 239.1,9.7 240.4,10.0 241.7,10.2 243.0,10.5 244.3,10.9 245.6,11.3 246.9,11.7 248.3,12.1 249.6,12.6 250.9,13.1 252.2,13.7 253.5,14.3 254.8,15.0 256.1,15.7 257.5,16.4 258.8,17.2 260.1,18.1 261.4,19.0 262.7,19.9 264.0,21.0 265.3,22.0 266.6,23.2 268.0,24.3 269.3,25.6 270.6,26.9 271.9,28.3 273.2,29.7 274.5,31.2 275.8,32.7 277.2,34.3 278.5,35.9 279.8,37.7 281.1,39.4 282.4,41.3 283.7,43.2 285.0,45.1 286.4,47.1 287.7,49.1 289.0,51.2 290.3,53.4 291.6,55.6 292.9,57.8 294.2,60.1 295.5,62.4 296.9,64.8 298.2,67.2 299.5,69.6 300.8,72.1 302.1,74.6 303.4,77.1 304.7,79.7 306.1,82.2 307.4,84.8 308.7,87.4 310.0,90.0 311.3,92.7 312.6,95.3 313.9,97.9 315.3,100.5 316.6,103.2 317.9,105.8 319.2,108.4 320.5,111.0 321.8,113.6 323.1,116.1 324.5,118.6 325.8,121.2 327.1,123.6 328.4,126.1 329.7,128.5 331.0,130.9 332.3,133.3 333.6,135.6 335.0,137.8 336.3,140.1 337.6,142.2 338.9,144.4 340.2,146.4 341.5,148.5 342.8,150.4 344.2,152.3 345.5,154.2 346.8,156.0 348.1,157.8 349.4,159.4 350.7,161.1 352.0,162.6 353.4,164.1 354.7,165.6 356.0,166.9 357.3,168.3 358.6,169.5 359.9,170.7 361.2,171.8 362.5,172.9 363.9,173.9 365.2,174.9 366.5,175.8 367.8,176.6 369.1,177.4 370.4,178.1 371.7,178.8 373.1,179.4 374.4,180.0 375.7,180.6 377.0,181.1 L377.0,182.0 Z" fill="#4a90d9" fill-opacity="0.06"/>
  <polyline points="42.0,181.1 43.3,180.6 44.6,180.0 45.9,179.4 47.3,178.8 48.6,178.1 49.9,177.4 51.2,176.6 52.5,175.8 53.8,174.9 55.1,173.9 56.5,172.9 57.8,171.8 59.1,170.7 60.4,169.5 61.7,168.3 63.0,166.9 64.3,165.6 65.6,164.1 67.0,162.6 68.3,161.1 69.6,159.4 70.9,157.8 72.2,156.0 73.5,154.2 74.8,152.3 76.2,150.4 77.5,148.5 78.8,146.4 80.1,144.4 81.4,142.2 82.7,140.1 84.0,137.8 85.4,135.6 86.7,133.3 88.0,130.9 89.3,128.5 90.6,126.1 91.9,123.6 93.2,121.2 94.5,118.6 95.9,116.1 97.2,113.6 98.5,111.0 99.8,108.4 101.1,105.8 102.4,103.2 103.7,100.5 105.1,97.9 106.4,95.3 107.7,92.7 109.0,90.0 110.3,87.4 111.6,84.8 112.9,82.2 114.3,79.7 115.6,77.1 116.9,74.6 118.2,72.1 119.5,69.6 120.8,67.2 122.1,64.8 123.5,62.4 124.8,60.1 126.1,57.8 127.4,55.6 128.7,53.4 130.0,51.2 131.3,49.1 132.6,47.1 134.0,45.1 135.3,43.2 136.6,41.3 137.9,39.4 139.2,37.7 140.5,35.9 141.8,34.3 143.2,32.7 144.5,31.2 145.8,29.7 147.1,28.3 148.4,26.9 149.7,25.6 151.0,24.3 152.4,23.2 153.7,22.0 155.0,21.0 156.3,19.9 157.6,19.0 158.9,18.1 160.2,17.2 161.5,16.4 162.9,15.7 164.2,15.0 165.5,14.3 166.8,13.7 168.1,13.1 169.4,12.6 170.7,12.1 172.1,11.7 173.4,11.3 174.7,10.9 176.0,10.5 177.3,10.2 178.6,10.0 179.9,9.7 181.3,9.5 182.6,9.3 183.9,9.1 185.2,8.9 186.5,8.8 187.8,8.7 189.1,8.5 190.5,8.4 191.8,8.4 193.1,8.3 194.4,8.2 195.7,8.2 197.0,8.1 198.3,8.1 199.6,8.1 201.0,8.1 202.3,8.0 203.6,8.0 204.9,8.0 206.2,8.0 207.5,8.0 208.8,8.0 210.2,8.0 211.5,8.0 212.8,8.0 214.1,8.0 215.4,8.0 216.7,8.0 218.0,8.1 219.4,8.1 220.7,8.1 222.0,8.1 223.3,8.2 224.6,8.2 225.9,8.3 227.2,8.4 228.5,8.4 229.9,8.5 231.2,8.7 232.5,8.8 233.8,8.9 235.1,9.1 236.4,9.3 237.7,9.5 239.1,9.7 240.4,10.0 241.7,10.2 243.0,10.5 244.3,10.9 245.6,11.3 246.9,11.7 248.3,12.1 249.6,12.6 250.9,13.1 252.2,13.7 253.5,14.3 254.8,15.0 256.1,15.7 257.5,16.4 258.8,17.2 260.1,18.1 261.4,19.0 262.7,19.9 264.0,21.0 265.3,22.0 266.6,23.2 268.0,24.3 269.3,25.6 270.6,26.9 271.9,28.3 273.2,29.7 274.5,31.2 275.8,32.7 277.2,34.3 278.5,35.9 279.8,37.7 281.1,39.4 282.4,41.3 283.7,43.2 285.0,45.1 286.4,47.1 287.7,49.1 289.0,51.2 290.3,53.4 291.6,55.6 292.9,57.8 294.2,60.1 295.5,62.4 296.9,64.8 298.2,67.2 299.5,69.6 300.8,72.1 302.1,74.6 303.4,77.1 304.7,79.7 306.1,82.2 307.4,84.8 308.7,87.4 310.0,90.0 311.3,92.7 312.6,95.3 313.9,97.9 315.3,100.5 316.6,103.2 317.9,105.8 319.2,108.4 320.5,111.0 321.8,113.6 323.1,116.1 324.5,118.6 325.8,121.2 327.1,123.6 328.4,126.1 329.7,128.5 331.0,130.9 332.3,133.3 333.6,135.6 335.0,137.8 336.3,140.1 337.6,142.2 338.9,144.4 340.2,146.4 341.5,148.5 342.8,150.4 344.2,152.3 345.5,154.2 346.8,156.0 348.1,157.8 349.4,159.4 350.7,161.1 352.0,162.6 353.4,164.1 354.7,165.6 356.0,166.9 357.3,168.3 358.6,169.5 359.9,170.7 361.2,171.8 362.5,172.9 363.9,173.9 365.2,174.9 366.5,175.8 367.8,176.6 369.1,177.4 370.4,178.1 371.7,178.8 373.1,179.4 374.4,180.0 375.7,180.6 377.0,181.1" fill="none" stroke="#4a90d9" stroke-width="1.5" stroke-linejoin="round"/>
  <line x1="450" y1="8.0" x2="785" y2="8.0" stroke="#e5e7eb" stroke-width="0.7"/>
  <text x="445" y="12.0" text-anchor="end" font-size="10" fill="#6b7280">0</text>
  <line x1="450" y1="66.0" x2="785" y2="66.0" stroke="#e5e7eb" stroke-width="0.7"/>
  <text x="445" y="70.0" text-anchor="end" font-size="10" fill="#6b7280">-40</text>
  <line x1="450" y1="124.0" x2="785" y2="124.0" stroke="#e5e7eb" stroke-width="0.7"/>
  <text x="445" y="128.0" text-anchor="end" font-size="10" fill="#6b7280">-80</text>
  <line x1="450" y1="182.0" x2="785" y2="182.0" stroke="#e5e7eb" stroke-width="0.7"/>
  <text x="445" y="186.0" text-anchor="end" font-size="10" fill="#6b7280">-120</text>
  <line x1="450.0" y1="8" x2="450.0" y2="182" stroke="#e5e7eb" stroke-width="0.7"/>
  <text x="450.0" y="198" text-anchor="middle" font-size="10" fill="#6b7280">0</text>
  <line x1="517.0" y1="8" x2="517.0" y2="182" stroke="#e5e7eb" stroke-width="0.7"/>
  <text x="517.0" y="198" text-anchor="middle" font-size="10" fill="#6b7280">0.1</text>
  <line x1="584.0" y1="8" x2="584.0" y2="182" stroke="#e5e7eb" stroke-width="0.7"/>
  <text x="584.0" y="198" text-anchor="middle" font-size="10" fill="#6b7280">0.2</text>
  <line x1="651.0" y1="8" x2="651.0" y2="182" stroke="#e5e7eb" stroke-width="0.7"/>
  <text x="651.0" y="198" text-anchor="middle" font-size="10" fill="#6b7280">0.3</text>
  <line x1="718.0" y1="8" x2="718.0" y2="182" stroke="#e5e7eb" stroke-width="0.7"/>
  <text x="718.0" y="198" text-anchor="middle" font-size="10" fill="#6b7280">0.4</text>
  <line x1="785.0" y1="8" x2="785.0" y2="182" stroke="#e5e7eb" stroke-width="0.7"/>
  <text x="785.0" y="198" text-anchor="middle" font-size="10" fill="#6b7280">0.5</text>
  <line x1="450" y1="8" x2="450" y2="182" stroke="#d1d5db" stroke-width="1"/>
  <line x1="450" y1="182" x2="785" y2="182" stroke="#d1d5db" stroke-width="1"/>
  <polyline points="450.0,8.0 450.2,8.0 450.3,8.2 450.5,8.3 450.7,8.6 450.8,9.0 451.0,9.4 451.1,9.9 451.3,10.5 451.5,11.2 451.6,12.0 451.8,12.9 452.0,13.9 452.1,15.0 452.3,16.3 452.5,17.6 452.6,19.2 452.8,20.9 452.9,22.8 453.1,25.0 453.3,27.4 453.4,30.3 453.6,33.7 453.8,38.0 453.9,43.7 454.1,52.6 454.3,82.7 454.4,57.3 454.6,48.9 454.7,44.7 454.9,42.1 455.1,40.5 455.2,39.6 455.4,39.0 455.6,38.9 455.7,39.0 455.9,39.5 456.1,40.1 456.2,41.0 456.4,42.2 456.5,43.5 456.7,45.2 456.9,47.1 457.0,49.3 457.2,51.8 457.4,54.8 457.5,58.4 457.7,62.9 457.9,68.7 458.0,77.5 458.2,99.9 458.3,86.6 458.5,77.8 458.7,74.1 458.8,72.3 459.0,71.7 459.2,72.0 459.3,72.9 459.5,74.6 459.7,77.0 459.8,80.5 460.0,85.5 460.1,93.7 460.3,118.7 460.5,99.5 460.6,90.6 460.8,86.4 461.0,84.1 461.1,82.9 461.3,82.6 461.5,83.0 461.6,84.1 461.8,85.9 461.9,88.7 462.1,92.9 462.3,99.9 462.4,116.9 462.6,109.7 462.8,98.5 462.9,93.3 463.1,90.2 463.3,88.3 463.4,87.3 463.6,86.9 463.7,87.1 463.9,87.8 464.1,89.1 464.2,91.2 464.4,94.1 464.6,98.5 464.7,105.7 464.9,124.2 465.1,114.1 465.2,103.5 465.4,98.4 465.5,95.3 465.7,93.5 465.9,92.4 466.0,92.0 466.2,92.2 466.4,92.9 466.5,94.2 466.7,96.3 466.9,99.3 467.0,103.8 467.2,111.5 467.3,136.0 467.5,116.2 467.7,106.8 467.8,102.0 468.0,99.0 468.2,97.1 468.3,96.1 468.5,95.6 468.7,95.7 468.8,96.3 469.0,97.5 469.1,99.4 469.3,102.2 469.5,106.3 469.6,113.1 469.8,130.0 470.0,122.8 470.1,111.4 470.3,106.0 470.5,102.7 470.6,100.6 470.8,99.3 470.9,98.6 471.1,98.5 471.3,99.0 471.4,99.9 471.6,101.5 471.8,103.9 471.9,107.3 472.1,112.7 472.3,123.1 472.4,138.9 472.6,117.8 472.7,110.8 472.9,106.8 473.1,104.2 473.2,102.6 473.4,101.7 473.6,101.3 473.7,101.5 473.9,102.2 474.1,103.5 474.2,105.5 474.4,108.4 474.5,112.8 474.7,120.3 474.9,143.5 475.0,125.4 475.2,115.6 475.4,110.6 475.5,107.5 475.7,105.5 475.9,104.2 476.0,103.6 476.2,103.5 476.3,103.9 476.5,104.8 476.7,106.4 476.8,108.7 477.0,112.1 477.2,117.4 477.3,127.6 477.5,144.8 477.7,122.7 477.8,115.5 478.0,111.4 478.1,108.8 478.3,107.1 478.5,106.1 478.6,105.7 478.8,105.8 479.0,106.4 479.1,107.5 479.3,109.3 479.5,112.0 479.6,116.1 479.8,122.8 479.9,139.2 480.1,132.8 480.3,121.1 480.4,115.5 480.6,112.1 480.8,109.9 480.9,108.4 481.1,107.7 481.3,107.4 481.4,107.7 481.6,108.4 481.7,109.8 481.9,111.9 482.1,114.9 482.2,119.5 482.4,127.7 482.6,162.7 482.7,129.6 482.9,120.8 483.1,116.0 483.2,113.1 483.4,111.1 483.5,109.9 483.7,109.3 483.9,109.2 484.0,109.6 484.2,110.5 484.4,112.0 484.5,114.4 484.7,117.8 484.9,123.2 485.0,133.7 485.2,147.7 485.3,127.6 485.5,120.6 485.7,116.5 485.8,113.9 486.0,112.2 486.2,111.1 486.3,110.7 486.5,110.7 486.7,111.2 486.8,112.3 487.0,114.0 487.1,116.6 487.3,120.4 487.5,126.6 487.6,140.4 487.8,140.4 488.0,126.9 488.1,120.9 488.3,117.2 488.5,114.8 488.6,113.3 488.8,112.4 488.9,112.1 489.1,112.2 489.3,112.9 489.4,114.1 489.6,116.0 489.8,118.8 489.9,123.0 490.1,130.2 490.3,150.3 490.4,136.8 490.6,126.4 490.7,121.2 490.9,117.9 491.1,115.7 491.2,114.4 491.4,113.6 491.6,113.3 491.7,113.6 491.9,114.4 492.1,115.7 492.2,117.8 492.4,120.8 492.6,125.5 492.7,133.9 492.9,176.5 493.0,134.9 493.2,126.3 493.4,121.6 493.5,118.6 493.7,116.6 493.9,115.4 494.0,114.7 494.2,114.5 494.4,114.9 494.5,115.8 494.7,117.3 494.8,119.5 495.0,122.8 495.2,127.9 495.3,137.6 495.5,158.7 495.7,133.8 495.8,126.3 496.0,122.1 496.2,119.3 496.3,117.5 496.5,116.3 496.6,115.8 496.8,115.7 497.0,116.2 497.1,117.1 497.3,118.7 497.5,121.1 497.6,124.7 497.8,130.4 498.0,142.0 498.1,149.8 498.3,133.0 498.4,126.4 498.6,122.5 498.8,119.9 498.9,118.3 499.1,117.2 499.3,116.8 499.4,116.8 499.6,117.3 499.8,118.4 499.9,120.1 500.1,122.7 500.2,126.5 500.4,132.7 500.6,146.6 500.7,146.2 500.9,132.7 501.1,126.7 501.2,123.0 501.4,120.6 501.6,119.1 501.7,118.1 501.9,117.7 502.0,117.9 502.2,118.5 502.4,119.6 502.5,121.5 502.7,124.2 502.9,128.3 503.0,135.2 503.2,153.0 503.4,143.5 503.5,132.4 503.7,126.9 503.8,123.5 504.0,121.3 504.2,119.8 504.3,118.9 504.5,118.6 504.7,118.8 504.8,119.5 505.0,120.8 505.2,122.7 505.3,125.6 505.5,129.9 505.6,137.4 505.8,160.6 506.0,142.2 506.1,132.4 506.3,127.3 506.5,124.1 506.6,121.9 506.8,120.6 507.0,119.8 507.1,119.6 507.3,119.8 507.4,120.6 507.6,121.9 507.8,124.0 507.9,127.0 508.1,131.7 508.3,140.0 508.4,182.0 508.6,140.9 508.8,132.2 508.9,127.5 509.1,124.5 509.2,122.5 509.4,121.2 509.6,120.5 509.7,120.3 509.9,120.7 510.1,121.5 510.2,122.9 510.4,125.1 510.6,128.2 510.7,133.2 510.9,142.3 511.0,172.7 511.2,140.3 511.4,132.4 511.5,128.0 511.7,125.1 511.9,123.2 512.0,122.0 512.2,121.3 512.4,121.2 512.5,121.6 512.7,122.5 512.8,124.0 513.0,126.2 513.2,129.6 513.3,134.9 513.5,145.2 513.7,160.7 513.8,139.6 514.0,132.4 514.2,128.2 514.3,125.5 514.5,123.7 514.6,122.6 514.8,122.0 515.0,121.9 515.1,122.4 515.3,123.3 515.5,124.9 515.6,127.2 515.8,130.8 516.0,136.3 516.1,147.6 516.3,157.0 516.4,139.4 516.6,132.6 516.8,128.7 516.9,126.0 517.1,124.3 517.3,123.2 517.4,122.7 517.6,122.7 517.8,123.2 517.9,124.2 518.1,125.9 518.2,128.4 518.4,132.1 518.6,138.1 518.7,151.0 518.9,153.4 519.1,138.9 519.2,132.7 519.4,128.9 519.6,126.4 519.7,124.8 519.9,123.8 520.0,123.3 520.2,123.4 520.4,123.9 520.5,125.0 520.7,126.7 520.9,129.3 521.0,133.1 521.2,139.4 521.4,153.8 521.5,151.9 521.7,138.9 521.8,133.0 522.0,129.4 522.2,127.0 522.3,125.4 522.5,124.4 522.7,124.0 522.8,124.1 523.0,124.7 523.2,125.9 523.3,127.7 523.5,130.3 523.6,134.4 523.8,141.2 524.0,158.4 524.1,150.0 524.3,138.6 524.5,133.1 524.6,129.6 524.8,127.3 525.0,125.8 525.1,125.0 525.3,124.6 525.4,124.7 525.6,125.4 525.8,126.6 525.9,128.4 526.1,131.2 526.3,135.4 526.4,142.5 526.6,162.1 526.8,149.3 526.9,138.7 527.1,133.4 527.2,130.1 527.4,127.8 527.6,126.4 527.7,125.6 527.9,125.3 528.1,125.4 528.2,126.1 528.4,127.4 528.6,129.3 528.7,132.2 528.9,136.6 529.0,144.3 529.2,170.0 529.4,148.1 529.5,138.5 529.7,133.5 529.9,130.3 530.0,128.2 530.2,126.8 530.4,126.0 530.5,125.8 530.7,126.0 530.8,126.7 531.0,128.0 531.2,130.0 531.3,133.0 531.5,137.6 531.7,145.6 531.8,178.1 532.0,147.7 532.2,138.7 532.3,133.8 532.5,130.7 532.6,128.7 532.8,127.4 533.0,126.6 533.1,126.4 533.3,126.7 533.5,127.4 533.6,128.8 533.8,130.9 534.0,134.0 534.1,138.8 534.3,147.5 534.4,182.0 534.6,146.8 534.8,138.6 534.9,134.0 535.1,131.0 535.3,129.0 535.4,127.8 535.6,127.1 535.8,126.9 535.9,127.2 536.1,128.0 536.2,129.4 536.4,131.6 536.6,134.7 536.7,139.7 536.9,148.8 537.1,178.3 537.2,146.7 537.4,138.8 537.6,134.3 537.7,131.4 537.9,129.5 538.0,128.3 538.2,127.6 538.4,127.5 538.5,127.8 538.7,128.7 538.9,130.1 539.0,132.4 539.2,135.7 539.4,140.8 539.5,150.8 539.7,169.1 539.8,146.1 540.0,138.7 540.2,134.4 540.3,131.7 540.5,129.8 540.7,128.6 540.8,128.0 541.0,127.9 541.2,128.3 541.3,129.2 541.5,130.7 541.6,133.0 541.8,136.4 542.0,141.7 542.1,152.2 542.3,166.4 542.5,146.0 542.6,138.9 542.8,134.8 543.0,132.0 543.1,130.2 543.3,129.1 543.4,128.5 543.6,128.5 543.8,128.9 543.9,129.8 544.1,131.4 544.3,133.8 544.4,137.3 544.6,142.9 544.8,154.4 544.9,162.6 545.1,145.6 545.2,138.9 545.4,134.9 545.6,132.3 545.7,130.5 545.9,129.4 546.1,128.9 546.2,128.9 546.4,129.3 546.6,130.3 546.7,131.9 546.9,134.3 547.0,137.9 547.2,143.7 547.4,155.8 547.5,161.4 547.7,145.6 547.9,139.1 548.0,135.2 548.2,132.6 548.4,131.0 548.5,129.9 548.7,129.4 548.8,129.4 549.0,129.9 549.2,130.9 549.3,132.6 549.5,135.1 549.7,138.8 549.8,144.9 550.0,158.3 550.2,159.1 550.3,145.2 550.5,139.1 550.6,135.3 550.8,132.9 551.0,131.2 551.1,130.2 551.3,129.8 551.5,129.8 551.6,130.3 551.8,131.4 552.0,133.1 552.1,135.6 552.3,139.5 552.4,145.7 552.6,159.9 552.8,158.4 552.9,145.3 553.1,139.3 553.3,135.7 553.4,133.2 553.6,131.6 553.8,130.7 553.9,130.2 554.1,130.3 554.2,130.9 554.4,132.0 554.6,133.7 554.7,136.3 554.9,140.3 555.1,146.9 555.2,163.0 555.4,156.9 555.6,145.0 555.7,139.3 555.9,135.8 556.0,133.4 556.2,131.9 556.4,131.0 556.5,130.6 556.7,130.7 556.9,131.3 557.0,132.4 557.2,134.2 557.4,136.9 557.5,140.9 557.7,147.7 557.8,164.9 558.0,156.5 558.2,145.1 558.3,139.5 558.5,136.1 558.7,133.8 558.8,132.3 559.0,131.4 559.2,131.0 559.3,131.1 559.5,131.8 559.6,132.9 559.8,134.8 560.0,137.6 560.1,141.8 560.3,148.9 560.5,168.9 560.6,155.4 560.8,144.9 561.0,139.6 561.1,136.2 561.3,134.0 561.4,132.5 561.6,131.7 561.8,131.3 561.9,131.5 562.1,132.1 562.3,133.4 562.4,135.3 562.6,138.1 562.8,142.3 562.9,149.7 563.1,171.5 563.2,155.1 563.4,145.0 563.6,139.8 563.7,136.5 563.9,134.3 564.1,132.9 564.2,132.1 564.4,131.7 564.6,131.9 564.7,132.6 564.9,133.9 565.0,135.8 565.2,138.7 565.4,143.2 565.5,150.9 565.7,177.9 565.9,154.2 566.0,144.8 566.2,139.8 566.4,136.6 566.5,134.5 566.7,133.1 566.8,132.3 567.0,132.1 567.2,132.3 567.3,133.0 567.5,134.3 567.7,136.3 567.8,139.2 568.0,143.7 568.2,151.7 568.3,182.0 568.5,154.0 568.6,144.9 568.8,140.0 569.0,136.9 569.1,134.8 569.3,133.5 569.5,132.7 569.6,132.5 569.8,132.7 570.0,133.4 570.1,134.8 570.3,136.8 570.4,139.8 570.6,144.5 570.8,152.9 570.9,182.0 571.1,153.4 571.3,144.8 571.4,140.1 571.6,137.0 571.8,135.0 571.9,133.7 572.1,133.0 572.2,132.7 572.4,133.0 572.6,133.8 572.7,135.1 572.9,137.2 573.1,140.3 573.2,145.1 573.4,153.7 573.6,182.0 573.7,153.2 573.9,144.9 574.0,140.3 574.2,137.3 574.4,135.3 574.5,134.0 574.7,133.3 574.9,133.1 575.0,133.4 575.2,134.2 575.4,135.6 575.5,137.8 575.7,140.9 575.9,145.9 576.0,155.0 576.2,182.0 576.3,152.7 576.5,144.8 576.7,140.3 576.8,137.4 577.0,135.5 577.2,134.2 577.3,133.6 577.5,133.4 577.7,133.7 577.8,134.6 578.0,136.0 578.1,138.1 578.3,141.4 578.5,146.4 578.6,155.8 578.8,179.8 579.0,152.6 579.1,144.9 579.3,140.5 579.5,137.7 579.6,135.8 579.8,134.6 579.9,133.9 580.1,133.8 580.3,134.1 580.4,135.0 580.6,136.4 580.8,138.7 580.9,142.0 581.1,147.2 581.3,157.2 581.4,174.5 581.6,152.2 581.7,144.8 581.9,140.6 582.1,137.8 582.2,135.9 582.4,134.8 582.6,134.1 582.7,134.0 582.9,134.4 583.1,135.3 583.2,136.8 583.4,139.0 583.5,142.4 583.7,147.7 583.9,158.0 584.0,172.9 584.2,152.1 584.4,145.0 584.5,140.8 584.7,138.0 584.9,136.2 585.0,135.1 585.2,134.5 585.3,134.4 585.5,134.8 585.7,135.7 585.8,137.2 586.0,139.5 586.2,143.0 586.3,148.5 586.5,159.5 586.7,169.9 586.8,151.7 587.0,144.9 587.1,140.8 587.3,138.2 587.5,136.4 587.6,135.3 587.8,134.7 588.0,134.6 588.1,135.0 588.3,136.0 588.5,137.6 588.6,139.9 588.8,143.4 588.9,149.0 589.1,160.4 589.3,169.0 589.4,151.7 589.6,145.0 589.8,141.0 589.9,138.4 590.1,136.6 590.3,135.5 590.4,135.0 590.6,135.0 590.7,135.4 590.9,136.4 591.1,138.0 591.2,140.4 591.4,144.0 591.6,149.8 591.7,162.0 591.9,167.0 592.1,151.4 592.2,145.0 592.4,141.1 592.5,138.5 592.7,136.8 592.9,135.7 593.0,135.2 593.2,135.2 593.4,135.7 593.5,136.7 593.7,138.3 593.9,140.7 594.0,144.4 594.2,150.3 594.3,162.9 594.5,166.3 594.7,151.4 594.8,145.1 595.0,141.3 595.2,138.7 595.3,137.0 595.5,136.0 595.7,135.5 595.8,135.5 596.0,136.0 596.1,137.0 596.3,138.7 596.5,141.2 596.6,145.0 596.8,151.1 597.0,164.7 597.1,164.8 597.3,151.1 597.5,145.0 597.6,141.3 597.8,138.8 597.9,137.2 598.1,136.2 598.3,135.7 598.4,135.7 598.6,136.3 598.8,137.3 598.9,139.0 599.1,141.5 599.3,145.3 599.4,151.6 599.6,165.8 599.7,164.3 599.9,151.2 600.1,145.2 600.2,141.5 600.4,139.0 600.6,137.4 600.7,136.4 600.9,136.0 601.1,136.0 601.2,136.6 601.4,137.7 601.5,139.4 601.7,142.0 601.9,145.9 602.0,152.4 602.2,167.8 602.4,163.2 602.5,150.9 602.7,145.1 602.9,141.5 603.0,139.2 603.2,137.6 603.3,136.6 603.5,136.2 603.7,136.3 603.8,136.8 604.0,137.9 604.2,139.7 604.3,142.3 604.5,146.3 604.7,152.8 604.8,169.0 605.0,162.8 605.1,150.9 605.3,145.2 605.5,141.7 605.6,139.4 605.8,137.8 606.0,136.9 606.1,136.5 606.3,136.5 606.5,137.1 606.6,138.3 606.8,140.1 606.9,142.8 607.1,146.8 607.3,153.6 607.4,171.4 607.6,161.9 607.8,150.7 607.9,145.2 608.1,141.8 608.3,139.5 608.4,137.9 608.6,137.0 608.7,136.6 608.9,136.8 609.1,137.4 609.2,138.5 609.4,140.4 609.6,143.1 609.7,147.2 609.9,154.1 610.1,172.8 610.2,161.6 610.4,150.7 610.5,145.3 610.7,141.9 610.9,139.6 611.0,138.2 611.2,137.3 611.4,136.9 611.5,137.0 611.7,137.7 611.9,138.9 612.0,140.7 612.2,143.5 612.3,147.7 612.5,154.9 612.7,175.9 612.8,160.8 613.0,150.5 613.2,145.3 613.3,142.0 613.5,139.7 613.7,138.3 613.8,137.4 614.0,137.1 614.1,137.2 614.3,137.9 614.5,139.1 614.6,141.0 614.8,143.8 615.0,148.1 615.1,155.4 615.3,177.7 615.5,160.6 615.6,150.6 615.8,145.4 615.9,142.1 616.1,139.9 616.3,138.5 616.4,137.6 616.6,137.3 616.8,137.5 616.9,138.2 617.1,139.4 617.3,141.4 617.4,144.2 617.6,148.6 617.7,156.3 617.9,182.0 618.1,159.9 618.2,150.4 618.4,145.4 618.6,142.2 618.7,140.0 618.9,138.6 619.1,137.8 619.2,137.5 619.4,137.7 619.5,138.4 619.7,139.7 619.9,141.6 620.0,144.5 620.2,149.0 620.4,156.8 620.5,182.0 620.7,159.8 620.9,150.4 621.0,145.5 621.2,142.3 621.3,140.2 621.5,138.8 621.7,138.0 621.8,137.7 622.0,138.0 622.2,138.7 622.3,140.0 622.5,142.0 622.7,144.9 622.8,149.5 623.0,157.6 623.1,182.0 623.3,159.2 623.5,150.3 623.6,145.5 623.8,142.4 624.0,140.3 624.1,138.9 624.3,138.2 624.5,137.9 624.6,138.1 624.8,138.9 624.9,140.2 625.1,142.2 625.3,145.2 625.4,149.8 625.6,158.1 625.8,182.0 625.9,159.0 626.1,150.3 626.3,145.6 626.4,142.5 626.6,140.4 626.7,139.1 626.9,138.4 627.1,138.1 627.2,138.4 627.4,139.1 627.6,140.5 627.7,142.5 627.9,145.6 628.1,150.4 628.2,159.0 628.4,182.0 628.5,158.5 628.7,150.2 628.9,145.5 629.0,142.5 629.2,140.5 629.4,139.2 629.5,138.5 629.7,138.3 629.9,138.6 630.0,139.3 630.2,140.7 630.3,142.8 630.5,145.9 630.7,150.7 630.8,159.5 631.0,182.0 631.2,158.4 631.3,150.2 631.5,145.6 631.7,142.7 631.8,140.7 632.0,139.4 632.1,138.7 632.3,138.5 632.5,138.8 632.6,139.6 632.8,141.0 633.0,143.1 633.1,146.3 633.3,151.2 633.5,160.4 633.6,182.0 633.8,158.0 633.9,150.1 634.1,145.6 634.3,142.7 634.4,140.8 634.6,139.5 634.8,138.8 634.9,138.6 635.1,139.0 635.3,139.8 635.4,141.2 635.6,143.4 635.7,146.6 635.9,151.6 636.1,160.9 636.2,182.0 636.4,157.9 636.6,150.1 636.7,145.7 636.9,142.8 637.1,140.9 637.2,139.7 637.4,139.0 637.5,138.9 637.7,139.2 637.9,140.0 638.0,141.5 638.2,143.7 638.4,146.9 638.5,152.1 638.7,161.9 638.9,181.3 639.0,157.5 639.2,150.0 639.3,145.7 639.5,142.9 639.7,141.0 639.8,139.8 640.0,139.1 640.2,139.0 640.3,139.3 640.5,140.2 640.7,141.7 640.8,143.9 641.0,147.2 641.1,152.4 641.3,162.4 641.5,179.8 641.6,157.4 641.8,150.0 642.0,145.8 642.1,143.0 642.3,141.1 642.5,139.9 642.6,139.3 642.8,139.2 642.9,139.6 643.1,140.5 643.3,142.0 643.4,144.2 643.6,147.6 643.8,152.9 643.9,163.4 644.1,177.1 644.3,157.0 644.4,149.9 644.6,145.8 644.7,143.0 644.9,141.2 645.1,140.0 645.2,139.4 645.4,139.3 645.6,139.7 645.7,140.6 645.9,142.1 646.1,144.4 646.2,147.8 646.4,153.2 646.5,164.0 646.7,176.1 646.9,157.0 647.0,150.0 647.2,145.9 647.4,143.2 647.5,141.3 647.7,140.2 647.9,139.6 648.0,139.5 648.2,139.9 648.3,140.9 648.5,142.4 648.7,144.7 648.8,148.2 649.0,153.8 649.2,165.0 649.3,174.2 649.5,156.6 649.7,149.9 649.8,145.8 650.0,143.2 650.1,141.4 650.3,140.3 650.5,139.7 650.6,139.7 650.8,140.1 651.0,141.0 651.1,142.6 651.3,144.9 651.5,148.5 651.6,154.1 651.8,165.7 651.9,173.4 652.1,156.6 652.3,149.9 652.4,145.9 652.6,143.3 652.8,141.5 652.9,140.4 653.1,139.9 653.3,139.8 653.4,140.3 653.6,141.3 653.7,142.8 653.9,145.2 654.1,148.8 654.2,154.6 654.4,166.8 654.6,171.9 654.7,156.3 654.9,149.8 655.1,145.9 655.2,143.3 655.4,141.6 655.5,140.5 655.7,140.0 655.9,140.0 656.0,140.4 656.2,141.4 656.4,143.0 656.5,145.4 656.7,149.1 656.9,154.9 657.0,167.5 657.2,171.3 657.3,156.2 657.5,149.8 657.7,146.0 657.8,143.4 658.0,141.7 658.2,140.7 658.3,140.2 658.5,140.1 658.7,140.6 658.8,141.6 659.0,143.3 659.1,145.7 659.3,149.4 659.5,155.5 659.6,168.7 659.8,170.1 660.0,155.9 660.1,149.7 660.3,146.0 660.5,143.5 660.6,141.8 660.8,140.8 661.0,140.3 661.1,140.3 661.3,140.8 661.4,141.8 661.6,143.4 661.8,145.9 661.9,149.7 662.1,155.8 662.3,169.4 662.4,169.6 662.6,155.9 662.8,149.8 662.9,146.0 663.1,143.5 663.2,141.9 663.4,140.9 663.6,140.4 663.7,140.4 663.9,140.9 664.1,142.0 664.2,143.7 664.4,146.2 664.6,150.0 664.7,156.3 664.9,170.7 665.0,168.6 665.2,155.6 665.4,149.7 665.5,146.0 665.7,143.6 665.9,142.0 666.0,141.0 666.2,140.5 666.4,140.5 666.5,141.1 666.7,142.1 666.8,143.9 667.0,146.4 667.2,150.3 667.3,156.6 667.5,171.6 667.7,168.2 667.8,155.6 668.0,149.7 668.2,146.1 668.3,143.7 668.5,142.1 668.6,141.1 668.8,140.6 669.0,140.7 669.1,141.3 669.3,142.3 669.5,144.1 669.6,146.7 669.8,150.6 670.0,157.2 670.1,173.1 670.3,167.3 670.4,155.3 670.6,149.6 670.8,146.1 670.9,143.7 671.1,142.1 671.3,141.2 671.4,140.7 671.6,140.8 671.8,141.4 671.9,142.5 672.1,144.3 672.2,146.9 672.4,150.9 672.6,157.5 672.7,174.0 672.9,167.0 673.1,155.3 673.2,149.6 673.4,146.1 673.6,143.8 673.7,142.2 673.9,141.3 674.0,140.9 674.2,141.0 674.4,141.5 674.5,142.7 674.7,144.5 674.9,147.2 675.0,151.2 675.2,158.0 675.4,175.8 675.5,166.2 675.7,155.1 675.8,149.6 676.0,146.1 676.2,143.8 676.3,142.3 676.5,141.4 676.7,141.0 676.8,141.1 677.0,141.7 677.2,142.8 677.3,144.6 677.5,147.3 677.6,151.4 677.8,158.4 678.0,176.9 678.1,165.9 678.3,155.0 678.5,149.6 678.6,146.2 678.8,143.9 679.0,142.4 679.1,141.5 679.3,141.1 679.4,141.2 679.6,141.8 679.8,143.0 679.9,144.9 680.1,147.6 680.3,151.8 680.4,158.9 680.6,179.0 680.8,165.3 680.9,154.8 681.1,149.5 681.2,146.1 681.4,143.9 681.6,142.4 681.7,141.5 681.9,141.2 682.1,141.3 682.2,141.9 682.4,143.1 682.6,145.0 682.7,147.8 682.9,152.0 683.0,159.3 683.2,180.5 683.4,165.0 683.5,154.8 683.7,149.5 683.9,146.2 684.0,144.0 684.2,142.5 684.4,141.6 684.5,141.3 684.7,141.5 684.8,142.1 685.0,143.3 685.2,145.2 685.3,148.0 685.5,152.4 685.7,159.8 685.8,182.0 686.0,164.4 686.2,154.6 686.3,149.4 686.5,146.2 686.6,144.0 686.8,142.5 687.0,141.7 687.1,141.4 687.3,141.5 687.5,142.2 687.6,143.5 687.8,145.4 688.0,148.2 688.1,152.6 688.3,160.2 688.4,182.0 688.6,164.1 688.8,154.5 688.9,149.4 689.1,146.2 689.3,144.0 689.4,142.6 689.6,141.8 689.8,141.5 689.9,141.7 690.1,142.4 690.2,143.6 690.4,145.6 690.6,148.5 690.7,152.9 690.9,160.7 691.1,182.0 691.2,163.6 691.4,154.3 691.6,149.4 691.7,146.2 691.9,144.1 692.0,142.7 692.2,141.9 692.4,141.6 692.5,141.8 692.7,142.5 692.9,143.8 693.0,145.7 693.2,148.7 693.4,153.2 693.5,161.1 693.7,182.0 693.8,163.4 694.0,154.3 694.2,149.4 694.3,146.2 694.5,144.1 694.7,142.7 694.8,142.0 695.0,141.7 695.2,141.9 695.3,142.6 695.5,143.9 695.6,145.9 695.8,148.9 696.0,153.5 696.1,161.7 696.3,182.0 696.5,162.9 696.6,154.1 696.8,149.3 697.0,146.2 697.1,144.1 697.3,142.8 697.4,142.0 697.6,141.8 697.8,142.0 697.9,142.7 698.1,144.0 698.3,146.1 698.4,149.1 698.6,153.7 698.8,162.0 698.9,182.0 699.1,162.7 699.2,154.0 699.4,149.3 699.6,146.2 699.7,144.2 699.9,142.9 700.1,142.1 700.2,141.9 700.4,142.1 700.6,142.9 700.7,144.2 700.9,146.3 701.0,149.3 701.2,154.0 701.4,162.6 701.5,182.0 701.7,162.3 701.9,153.9 702.0,149.2 702.2,146.2 702.4,144.2 702.5,142.9 702.7,142.2 702.8,141.9 703.0,142.2 703.2,143.0 703.3,144.3 703.5,146.4 703.7,149.5 703.8,154.3 704.0,163.0 704.2,182.0 704.3,162.1 704.5,153.8 704.6,149.2 704.8,146.2 705.0,144.2 705.1,143.0 705.3,142.2 705.5,142.0 705.6,142.3 705.8,143.1 706.0,144.5 706.1,146.6 706.3,149.7 706.4,154.6 706.6,163.6 706.8,182.0 706.9,161.7 707.1,153.7 707.3,149.2 707.4,146.2 707.6,144.3 707.8,143.0 707.9,142.3 708.1,142.1 708.2,142.4 708.4,143.2 708.6,144.6 708.7,146.7 708.9,149.9 709.1,154.8 709.2,164.1 709.4,182.0 709.6,161.5 709.7,153.6 709.9,149.2 710.0,146.2 710.2,144.3 710.4,143.0 710.5,142.4 710.7,142.2 710.9,142.5 711.0,143.3 711.2,144.7 711.4,146.9 711.5,150.1 711.7,155.2 711.8,164.7 712.0,182.0 712.2,161.1 712.3,153.5 712.5,149.1 712.7,146.2 712.8,144.3 713.0,143.1 713.2,142.4 713.3,142.2 713.5,142.6 713.6,143.4 713.8,144.8 714.0,147.0 714.1,150.3 714.3,155.4 714.5,165.1 714.6,182.0 714.8,160.9 715.0,153.4 715.1,149.1 715.3,146.2 715.4,144.3 715.6,143.1 715.8,142.5 715.9,142.3 716.1,142.7 716.3,143.5 716.4,145.0 716.6,147.2 716.8,150.5 716.9,155.7 717.1,165.8 717.2,182.0 717.4,160.6 717.6,153.3 717.7,149.0 717.9,146.2 718.1,144.3 718.2,143.2 718.4,142.5 718.6,142.4 718.7,142.7 718.9,143.6 719.0,145.1 719.2,147.3 719.4,150.7 719.5,156.0 719.7,166.2 719.9,181.3 720.0,160.4 720.2,153.2 720.4,149.0 720.5,146.2 720.7,144.4 720.8,143.2 721.0,142.6 721.2,142.5 721.3,142.8 721.5,143.7 721.7,145.2 721.8,147.5 722.0,150.9 722.2,156.3 722.3,166.9 722.5,179.5 722.6,160.1 722.8,153.1 723.0,148.9 723.1,146.2 723.3,144.4 723.5,143.2 723.6,142.6 723.8,142.5 724.0,142.9 724.1,143.8 724.3,145.3 724.4,147.6 724.6,151.1 724.8,156.5 724.9,167.4 725.1,178.4 725.3,159.9 725.4,153.0 725.6,148.9 725.8,146.2 725.9,144.4 726.1,143.3 726.2,142.7 726.4,142.6 726.6,143.0 726.7,143.9 726.9,145.5 727.1,147.8 727.2,151.3 727.4,156.8 727.6,168.2 727.7,177.0 727.9,159.6 728.0,152.9 728.2,148.8 728.4,146.2 728.5,144.4 728.7,143.3 728.9,142.7 729.0,142.6 729.2,143.1 729.4,144.0 729.5,145.6 729.7,147.9 729.8,151.4 730.0,157.1 730.2,168.7 730.3,176.1 730.5,159.4 730.7,152.8 730.8,148.8 731.0,146.2 731.2,144.4 731.3,143.3 731.5,142.8 731.6,142.7 731.8,143.1 732.0,144.1 732.1,145.7 732.3,148.1 732.5,151.7 732.6,157.4 732.8,169.5 733.0,175.0 733.1,159.2 733.3,152.7 733.4,148.7 733.6,146.2 733.8,144.4 733.9,143.3 734.1,142.8 734.3,142.8 734.4,143.2 734.6,144.2 734.8,145.8 734.9,148.2 735.1,151.8 735.2,157.7 735.4,170.1 735.6,174.2 735.7,159.0 735.9,152.6 736.1,148.7 736.2,146.2 736.4,144.4 736.6,143.4 736.7,142.8 736.9,142.8 737.0,143.3 737.2,144.3 737.4,145.9 737.5,148.4 737.7,152.0 737.9,158.0 738.0,170.9 738.2,173.2 738.4,158.7 738.5,152.5 738.7,148.6 738.8,146.1 739.0,144.4 739.2,143.4 739.3,142.9 739.5,142.9 739.7,143.3 739.8,144.4 740.0,146.0 740.2,148.5 740.3,152.2 740.5,158.2 740.6,171.6 740.8,172.5 741.0,158.5 741.1,152.4 741.3,148.6 741.5,146.1 741.6,144.4 741.8,143.4 742.0,142.9 742.1,142.9 742.3,143.4 742.4,144.5 742.6,146.1 742.8,148.6 742.9,152.4 743.1,158.6 743.3,172.5 743.4,171.7 743.6,158.3 743.8,152.3 743.9,148.5 744.1,146.1 744.3,144.4 744.4,143.4 744.6,142.9 744.7,143.0 744.9,143.5 745.1,144.5 745.2,146.2 745.4,148.7 745.6,152.6 745.7,158.8 745.9,173.3 746.1,171.1 746.2,158.1 746.4,152.2 746.5,148.5 746.7,146.1 746.9,144.4 747.0,143.4 747.2,143.0 747.4,143.0 747.5,143.5 747.7,144.6 747.9,146.3 748.0,148.9 748.2,152.8 748.3,159.2 748.5,174.3 748.7,170.4 748.8,157.9 749.0,152.1 749.2,148.4 749.3,146.0 749.5,144.4 749.7,143.5 749.8,143.0 750.0,143.1 750.1,143.6 750.3,144.7 750.5,146.4 750.6,149.0 750.8,152.9 751.0,159.4 751.1,175.2 751.3,169.8 751.5,157.7 751.6,152.0 751.8,148.4 751.9,146.0 752.1,144.4 752.3,143.5 752.4,143.0 752.6,143.1 752.8,143.7 752.9,144.8 753.1,146.5 753.3,149.2 753.4,153.1 753.6,159.8 753.7,176.3 753.9,169.2 754.1,157.5 754.2,151.9 754.4,148.3 754.6,146.0 754.7,144.4 754.9,143.5 755.1,143.1 755.2,143.1 755.4,143.7 755.5,144.8 755.7,146.6 755.9,149.3 756.0,153.3 756.2,160.0 756.4,177.3 756.5,168.7 756.7,157.3 756.9,151.8 757.0,148.3 757.2,146.0 757.3,144.4 757.5,143.5 757.7,143.1 757.8,143.2 758.0,143.8 758.2,144.9 758.3,146.7 758.5,149.4 758.7,153.5 758.8,160.4 759.0,178.7 759.1,168.1 759.3,157.1 759.5,151.6 759.6,148.2 759.8,145.9 760.0,144.4 760.1,143.5 760.3,143.1 760.5,143.2 760.6,143.8 760.8,145.0 760.9,146.8 761.1,149.5 761.3,153.7 761.4,160.7 761.6,179.9 761.8,167.6 761.9,156.9 762.1,151.6 762.3,148.2 762.4,145.9 762.6,144.4 762.7,143.5 762.9,143.1 763.1,143.2 763.2,143.9 763.4,145.0 763.6,146.9 763.7,149.6 763.9,153.8 764.1,161.0 764.2,181.5 764.4,167.1 764.5,156.7 764.7,151.4 764.9,148.1 765.0,145.8 765.2,144.4 765.4,143.5 765.5,143.1 765.7,143.3 765.9,143.9 766.0,145.1 766.2,147.0 766.3,149.8 766.5,154.0 766.7,161.3 766.8,182.0 767.0,166.7 767.2,156.6 767.3,151.3 767.5,148.0 767.7,145.8 767.8,144.4 768.0,143.5 768.1,143.2 768.3,143.3 768.5,144.0 768.6,145.2 768.8,147.1 769.0,149.9 769.1,154.2 769.3,161.7 769.5,182.0 769.6,166.2 769.8,156.4 769.9,151.2 770.1,148.0 770.3,145.8 770.4,144.3 770.6,143.5 770.8,143.2 770.9,143.3 771.1,144.0 771.3,145.2 771.4,147.1 771.6,150.0 771.7,154.4 771.9,162.0 772.1,182.0 772.2,165.8 772.4,156.2 772.6,151.1 772.7,147.9 772.9,145.7 773.1,144.3 773.2,143.5 773.4,143.2 773.5,143.4 773.7,144.0 773.9,145.3 774.0,147.2 774.2,150.1 774.4,154.6 774.5,162.3 774.7,182.0 774.9,165.3 775.0,156.0 775.2,151.0 775.3,147.8 775.5,145.7 775.7,144.3 775.8,143.5 776.0,143.2 776.2,143.4 776.3,144.1 776.5,145.3 776.7,147.3 776.8,150.2 777.0,154.7 777.1,162.7 777.3,182.0 777.5,164.9 777.6,155.8 777.8,150.9 778.0,147.8 778.1,145.6 778.3,144.3 778.5,143.5 778.6,143.2 778.8,143.4 778.9,144.1 779.1,145.4 779.3,147.4 779.4,150.4 779.6,154.9 779.8,163.0 779.9,182.0 780.1,164.5 780.3,155.6 780.4,150.8 780.6,147.7 780.7,145.6 780.9,144.2 781.1,143.5 781.2,143.2 781.4,143.4 781.6,144.1 781.7,145.5 781.9,147.5 782.1,150.5 782.2,155.1 782.4,163.4 782.5,182.0 782.7,164.1 782.9,155.5 783.0,150.7 783.2,147.6 783.4,145.6 783.5,144.2 783.7,143.4 783.9,143.2 784.0,143.4 784.2,144.2 784.3,145.5 784.5,147.5 784.7,150.6 784.8,155.3 785.0,163.8" fill="none" stroke="#4a90d9" stroke-width="1.5" stroke-linejoin="round"/>
  <text x="209.5" y="214" text-anchor="middle" font-size="11" fill="#6b7280">n / N</text>
  <text x="617.5" y="214" text-anchor="middle" font-size="11" fill="#6b7280">Normalized frequency (× Fₛ)</text>
</svg>
