<svg xmlns="http://www.w3.org/2000/svg" viewBox="0 0 560 210" width="560" height="210" style="font-family:system-ui,-apple-system,sans-serif">
  <rect width="560" height="210" fill="#fafafa" rx="6"/>
  <text x="280" y="18" text-anchor="middle" font-size="12" font-weight="600" fill="#374151">kaiserBesselDerived</text>
  <line x1="52" y1="166.0" x2="257" y2="166.0" stroke="#e5e7eb" stroke-width="0.5"/>
  <text x="48" y="169.0" text-anchor="end" font-size="7.5" fill="#6b7280">0</text>
  <line x1="52" y1="97.0" x2="257" y2="97.0" stroke="#e5e7eb" stroke-width="0.5"/>
  <text x="48" y="100.0" text-anchor="end" font-size="7.5" fill="#6b7280">0.5</text>
  <line x1="52" y1="28.0" x2="257" y2="28.0" stroke="#e5e7eb" stroke-width="0.5"/>
  <text x="48" y="31.0" text-anchor="end" font-size="7.5" fill="#6b7280">1</text>
  <line x1="52.0" y1="28" x2="52.0" y2="166" stroke="#e5e7eb" stroke-width="0.5"/>
  <text x="52.0" y="178" text-anchor="middle" font-size="7.5" fill="#6b7280">0</text>
  <line x1="154.5" y1="28" x2="154.5" y2="166" stroke="#e5e7eb" stroke-width="0.5"/>
  <text x="154.5" y="178" text-anchor="middle" font-size="7.5" fill="#6b7280">0.5</text>
  <line x1="257.0" y1="28" x2="257.0" y2="166" stroke="#e5e7eb" stroke-width="0.5"/>
  <text x="257.0" y="178" text-anchor="middle" font-size="7.5" fill="#6b7280">1</text>
  <line x1="52" y1="28" x2="52" y2="166" stroke="#d1d5db" stroke-width="0.75"/>
  <line x1="52" y1="166" x2="257" y2="166" stroke="#d1d5db" stroke-width="0.75"/>
  <path d="M52.0,166.0 52.0,165.3 52.8,164.9 53.6,164.4 54.4,164.0 55.2,163.5 56.0,162.9 56.8,162.4 57.6,161.7 58.4,161.1 59.2,160.4 60.0,159.6 60.8,158.8 61.6,157.9 62.5,157.0 63.3,156.1 64.1,155.1 64.9,154.1 65.7,153.0 66.5,151.8 67.3,150.6 68.1,149.4 68.9,148.1 69.7,146.8 70.5,145.4 71.3,144.0 72.1,142.5 72.9,141.0 73.7,139.4 74.5,137.8 75.3,136.1 76.1,134.5 76.9,132.7 77.7,131.0 78.5,129.2 79.3,127.3 80.1,125.5 80.9,123.6 81.7,121.7 82.5,119.7 83.4,117.7 84.2,115.8 85.0,113.7 85.8,111.7 86.6,109.7 87.4,107.6 88.2,105.5 89.0,103.5 89.8,101.4 90.6,99.3 91.4,97.2 92.2,95.1 93.0,93.1 93.8,91.0 94.6,88.9 95.4,86.9 96.2,84.8 97.0,82.8 97.8,80.8 98.6,78.8 99.4,76.9 100.2,75.0 101.0,73.0 101.8,71.2 102.6,69.3 103.5,67.5 104.3,65.7 105.1,64.0 105.9,62.3 106.7,60.6 107.5,59.0 108.3,57.4 109.1,55.9 109.9,54.4 110.7,52.9 111.5,51.5 112.3,50.2 113.1,48.9 113.9,47.6 114.7,46.4 115.5,45.2 116.3,44.1 117.1,43.0 117.9,41.9 118.7,41.0 119.5,40.0 120.3,39.1 121.1,38.3 121.9,37.5 122.7,36.7 123.5,36.0 124.4,35.3 125.2,34.7 126.0,34.1 126.8,33.5 127.6,33.0 128.4,32.5 129.2,32.1 130.0,31.7 130.8,31.3 131.6,30.9 132.4,30.6 133.2,30.3 134.0,30.0 134.8,29.8 135.6,29.5 136.4,29.3 137.2,29.2 138.0,29.0 138.8,28.9 139.6,28.7 140.4,28.6 141.2,28.5 142.0,28.4 142.8,28.4 143.6,28.3 144.5,28.2 145.3,28.2 146.1,28.1 146.9,28.1 147.7,28.1 148.5,28.1 149.3,28.0 150.1,28.0 150.9,28.0 151.7,28.0 152.5,28.0 153.3,28.0 154.1,28.0 154.9,28.0 155.7,28.0 156.5,28.0 157.3,28.0 158.1,28.0 158.9,28.0 159.7,28.0 160.5,28.1 161.3,28.1 162.1,28.1 162.9,28.1 163.7,28.2 164.5,28.2 165.4,28.3 166.2,28.4 167.0,28.4 167.8,28.5 168.6,28.6 169.4,28.7 170.2,28.9 171.0,29.0 171.8,29.2 172.6,29.3 173.4,29.5 174.2,29.8 175.0,30.0 175.8,30.3 176.6,30.6 177.4,30.9 178.2,31.3 179.0,31.7 179.8,32.1 180.6,32.5 181.4,33.0 182.2,33.5 183.0,34.1 183.8,34.7 184.6,35.3 185.5,36.0 186.3,36.7 187.1,37.5 187.9,38.3 188.7,39.1 189.5,40.0 190.3,41.0 191.1,41.9 191.9,43.0 192.7,44.1 193.5,45.2 194.3,46.4 195.1,47.6 195.9,48.9 196.7,50.2 197.5,51.5 198.3,52.9 199.1,54.4 199.9,55.9 200.7,57.4 201.5,59.0 202.3,60.6 203.1,62.3 203.9,64.0 204.7,65.7 205.5,67.5 206.4,69.3 207.2,71.2 208.0,73.0 208.8,75.0 209.6,76.9 210.4,78.8 211.2,80.8 212.0,82.8 212.8,84.8 213.6,86.9 214.4,88.9 215.2,91.0 216.0,93.1 216.8,95.1 217.6,97.2 218.4,99.3 219.2,101.4 220.0,103.5 220.8,105.5 221.6,107.6 222.4,109.7 223.2,111.7 224.0,113.7 224.8,115.8 225.6,117.7 226.5,119.7 227.3,121.7 228.1,123.6 228.9,125.5 229.7,127.3 230.5,129.2 231.3,131.0 232.1,132.7 232.9,134.5 233.7,136.1 234.5,137.8 235.3,139.4 236.1,141.0 236.9,142.5 237.7,144.0 238.5,145.4 239.3,146.8 240.1,148.1 240.9,149.4 241.7,150.6 242.5,151.8 243.3,153.0 244.1,154.1 244.9,155.1 245.7,156.1 246.5,157.0 247.4,157.9 248.2,158.8 249.0,159.6 249.8,160.4 250.6,161.1 251.4,161.7 252.2,162.4 253.0,162.9 253.8,163.5 254.6,164.0 255.4,164.4 256.2,164.9 257.0,165.3 L257.0,166.0 Z" fill="#4a90d9" fill-opacity="0.06"/>
  <polyline points="52.0,165.3 52.8,164.9 53.6,164.4 54.4,164.0 55.2,163.5 56.0,162.9 56.8,162.4 57.6,161.7 58.4,161.1 59.2,160.4 60.0,159.6 60.8,158.8 61.6,157.9 62.5,157.0 63.3,156.1 64.1,155.1 64.9,154.1 65.7,153.0 66.5,151.8 67.3,150.6 68.1,149.4 68.9,148.1 69.7,146.8 70.5,145.4 71.3,144.0 72.1,142.5 72.9,141.0 73.7,139.4 74.5,137.8 75.3,136.1 76.1,134.5 76.9,132.7 77.7,131.0 78.5,129.2 79.3,127.3 80.1,125.5 80.9,123.6 81.7,121.7 82.5,119.7 83.4,117.7 84.2,115.8 85.0,113.7 85.8,111.7 86.6,109.7 87.4,107.6 88.2,105.5 89.0,103.5 89.8,101.4 90.6,99.3 91.4,97.2 92.2,95.1 93.0,93.1 93.8,91.0 94.6,88.9 95.4,86.9 96.2,84.8 97.0,82.8 97.8,80.8 98.6,78.8 99.4,76.9 100.2,75.0 101.0,73.0 101.8,71.2 102.6,69.3 103.5,67.5 104.3,65.7 105.1,64.0 105.9,62.3 106.7,60.6 107.5,59.0 108.3,57.4 109.1,55.9 109.9,54.4 110.7,52.9 111.5,51.5 112.3,50.2 113.1,48.9 113.9,47.6 114.7,46.4 115.5,45.2 116.3,44.1 117.1,43.0 117.9,41.9 118.7,41.0 119.5,40.0 120.3,39.1 121.1,38.3 121.9,37.5 122.7,36.7 123.5,36.0 124.4,35.3 125.2,34.7 126.0,34.1 126.8,33.5 127.6,33.0 128.4,32.5 129.2,32.1 130.0,31.7 130.8,31.3 131.6,30.9 132.4,30.6 133.2,30.3 134.0,30.0 134.8,29.8 135.6,29.5 136.4,29.3 137.2,29.2 138.0,29.0 138.8,28.9 139.6,28.7 140.4,28.6 141.2,28.5 142.0,28.4 142.8,28.4 143.6,28.3 144.5,28.2 145.3,28.2 146.1,28.1 146.9,28.1 147.7,28.1 148.5,28.1 149.3,28.0 150.1,28.0 150.9,28.0 151.7,28.0 152.5,28.0 153.3,28.0 154.1,28.0 154.9,28.0 155.7,28.0 156.5,28.0 157.3,28.0 158.1,28.0 158.9,28.0 159.7,28.0 160.5,28.1 161.3,28.1 162.1,28.1 162.9,28.1 163.7,28.2 164.5,28.2 165.4,28.3 166.2,28.4 167.0,28.4 167.8,28.5 168.6,28.6 169.4,28.7 170.2,28.9 171.0,29.0 171.8,29.2 172.6,29.3 173.4,29.5 174.2,29.8 175.0,30.0 175.8,30.3 176.6,30.6 177.4,30.9 178.2,31.3 179.0,31.7 179.8,32.1 180.6,32.5 181.4,33.0 182.2,33.5 183.0,34.1 183.8,34.7 184.6,35.3 185.5,36.0 186.3,36.7 187.1,37.5 187.9,38.3 188.7,39.1 189.5,40.0 190.3,41.0 191.1,41.9 191.9,43.0 192.7,44.1 193.5,45.2 194.3,46.4 195.1,47.6 195.9,48.9 196.7,50.2 197.5,51.5 198.3,52.9 199.1,54.4 199.9,55.9 200.7,57.4 201.5,59.0 202.3,60.6 203.1,62.3 203.9,64.0 204.7,65.7 205.5,67.5 206.4,69.3 207.2,71.2 208.0,73.0 208.8,75.0 209.6,76.9 210.4,78.8 211.2,80.8 212.0,82.8 212.8,84.8 213.6,86.9 214.4,88.9 215.2,91.0 216.0,93.1 216.8,95.1 217.6,97.2 218.4,99.3 219.2,101.4 220.0,103.5 220.8,105.5 221.6,107.6 222.4,109.7 223.2,111.7 224.0,113.7 224.8,115.8 225.6,117.7 226.5,119.7 227.3,121.7 228.1,123.6 228.9,125.5 229.7,127.3 230.5,129.2 231.3,131.0 232.1,132.7 232.9,134.5 233.7,136.1 234.5,137.8 235.3,139.4 236.1,141.0 236.9,142.5 237.7,144.0 238.5,145.4 239.3,146.8 240.1,148.1 240.9,149.4 241.7,150.6 242.5,151.8 243.3,153.0 244.1,154.1 244.9,155.1 245.7,156.1 246.5,157.0 247.4,157.9 248.2,158.8 249.0,159.6 249.8,160.4 250.6,161.1 251.4,161.7 252.2,162.4 253.0,162.9 253.8,163.5 254.6,164.0 255.4,164.4 256.2,164.9 257.0,165.3" fill="none" stroke="#4a90d9" stroke-width="1.2" stroke-linejoin="round"/>
  <line x1="322" y1="28.0" x2="527" y2="28.0" stroke="#e5e7eb" stroke-width="0.5"/>
  <text x="318" y="31.0" text-anchor="end" font-size="7.5" fill="#6b7280">0</text>
  <line x1="322" y1="74.0" x2="527" y2="74.0" stroke="#e5e7eb" stroke-width="0.5"/>
  <text x="318" y="77.0" text-anchor="end" font-size="7.5" fill="#6b7280">-40</text>
  <line x1="322" y1="120.0" x2="527" y2="120.0" stroke="#e5e7eb" stroke-width="0.5"/>
  <text x="318" y="123.0" text-anchor="end" font-size="7.5" fill="#6b7280">-80</text>
  <line x1="322" y1="166.0" x2="527" y2="166.0" stroke="#e5e7eb" stroke-width="0.5"/>
  <text x="318" y="169.0" text-anchor="end" font-size="7.5" fill="#6b7280">-120</text>
  <line x1="322.0" y1="28" x2="322.0" y2="166" stroke="#e5e7eb" stroke-width="0.5"/>
  <text x="322.0" y="178" text-anchor="middle" font-size="7.5" fill="#6b7280">0</text>
  <line x1="363.0" y1="28" x2="363.0" y2="166" stroke="#e5e7eb" stroke-width="0.5"/>
  <text x="363.0" y="178" text-anchor="middle" font-size="7.5" fill="#6b7280">0.1</text>
  <line x1="404.0" y1="28" x2="404.0" y2="166" stroke="#e5e7eb" stroke-width="0.5"/>
  <text x="404.0" y="178" text-anchor="middle" font-size="7.5" fill="#6b7280">0.2</text>
  <line x1="445.0" y1="28" x2="445.0" y2="166" stroke="#e5e7eb" stroke-width="0.5"/>
  <text x="445.0" y="178" text-anchor="middle" font-size="7.5" fill="#6b7280">0.3</text>
  <line x1="486.0" y1="28" x2="486.0" y2="166" stroke="#e5e7eb" stroke-width="0.5"/>
  <text x="486.0" y="178" text-anchor="middle" font-size="7.5" fill="#6b7280">0.4</text>
  <line x1="527.0" y1="28" x2="527.0" y2="166" stroke="#e5e7eb" stroke-width="0.5"/>
  <text x="527.0" y="178" text-anchor="middle" font-size="7.5" fill="#6b7280">0.5</text>
  <line x1="322" y1="28" x2="322" y2="166" stroke="#d1d5db" stroke-width="0.75"/>
  <line x1="322" y1="166" x2="527" y2="166" stroke="#d1d5db" stroke-width="0.75"/>
  <polyline points="322.0,28.0 322.1,28.0 322.2,28.1 322.3,28.3 322.4,28.5 322.5,28.8 322.6,29.1 322.7,29.5 322.8,30.0 322.9,30.6 323.0,31.2 323.1,31.9 323.2,32.7 323.3,33.6 323.4,34.5 323.5,35.6 323.6,36.9 323.7,38.2 323.8,39.7 323.9,41.5 324.0,43.4 324.1,45.7 324.2,48.4 324.3,51.8 324.4,56.3 324.5,63.4 324.6,87.2 324.7,67.1 324.8,60.4 324.9,57.1 325.0,55.1 325.1,53.8 325.2,53.0 325.3,52.6 325.4,52.5 325.5,52.6 325.6,52.9 325.7,53.5 325.8,54.2 325.9,55.1 326.0,56.2 326.1,57.5 326.2,59.0 326.3,60.7 326.4,62.8 326.5,65.1 326.6,68.0 326.7,71.5 326.8,76.2 326.9,83.1 327.0,100.9 327.1,90.3 327.2,83.4 327.3,80.4 327.4,79.0 327.5,78.5 327.6,78.7 327.7,79.5 327.8,80.8 327.9,82.7 328.0,85.5 328.1,89.4 328.2,96.0 328.3,115.8 328.4,100.6 328.5,93.5 328.6,90.2 328.7,88.3 328.8,87.4 328.9,87.2 329.0,87.5 329.1,88.4 329.2,89.8 329.3,92.0 329.4,95.4 329.5,100.9 329.6,114.4 329.7,108.7 329.8,99.8 329.9,95.6 330.0,93.2 330.1,91.7 330.2,90.9 330.3,90.6 330.4,90.7 330.5,91.3 330.6,92.4 330.7,94.0 330.8,96.3 330.9,99.8 331.0,105.4 331.1,120.2 331.2,112.2 331.3,103.7 331.4,99.7 331.5,97.3 331.6,95.8 331.7,94.9 331.8,94.6 331.9,94.8 332.0,95.3 332.1,96.4 332.2,98.0 332.3,100.4 332.4,104.0 332.5,110.1 332.6,129.6 332.7,113.8 332.8,106.3 332.9,102.5 333.0,100.2 333.1,98.7 333.2,97.8 333.3,97.5 333.4,97.5 333.5,98.0 333.6,99.0 333.7,100.5 333.8,102.7 333.9,106.0 334.0,111.4 334.1,124.8 334.2,119.0 334.3,110.0 334.4,105.7 334.5,103.1 334.6,101.4 334.7,100.4 334.8,99.9 334.9,99.8 335.0,100.1 335.1,100.9 335.2,102.2 335.3,104.0 335.4,106.8 335.5,111.1 335.6,119.3 335.7,131.8 335.8,115.1 335.9,109.5 336.0,106.3 336.1,104.3 336.2,103.0 336.3,102.3 336.4,102.0 336.5,102.1 336.6,102.7 336.7,103.7 336.8,105.3 336.9,107.6 337.0,111.1 337.1,117.1 337.2,135.5 337.3,121.1 337.4,113.4 337.5,109.4 337.6,106.9 337.7,105.3 337.8,104.3 337.9,103.8 338.0,103.7 338.1,104.1 338.2,104.8 338.3,106.0 338.4,107.9 338.5,110.6 338.6,114.8 338.7,122.9 338.8,136.5 338.9,119.0 339.0,113.3 339.1,110.0 339.2,108.0 339.3,106.6 339.4,105.8 339.5,105.5 339.6,105.5 339.7,106.0 339.8,106.9 339.9,108.4 340.0,110.5 340.1,113.7 340.2,119.0 340.3,132.0 340.4,126.9 340.5,117.7 340.6,113.3 340.7,110.6 340.8,108.8 340.9,107.7 341.0,107.0 341.1,106.8 341.2,107.0 341.3,107.7 341.4,108.7 341.5,110.4 341.6,112.8 341.7,116.5 341.8,122.9 341.9,150.7 342.0,124.4 342.1,117.4 342.2,113.7 342.3,111.3 342.4,109.8 342.5,108.8 342.6,108.3 342.7,108.2 342.8,108.5 342.9,109.3 343.0,110.5 343.1,112.4 343.2,115.1 343.3,119.4 343.4,127.7 343.5,138.8 343.6,122.9 343.7,117.3 343.8,114.1 343.9,112.0 344.0,110.6 344.1,109.8 344.2,109.4 344.3,109.5 344.4,109.9 344.5,110.7 344.6,112.1 344.7,114.1 344.8,117.2 344.9,122.1 345.0,133.0 345.1,133.0 345.2,122.3 345.3,117.5 345.4,114.6 345.5,112.7 345.6,111.5 345.7,110.8 345.8,110.5 345.9,110.6 346.0,111.2 346.1,112.1 346.2,113.6 346.3,115.9 346.4,119.2 346.5,124.9 346.6,140.8 346.7,130.2 346.8,121.9 346.9,117.8 347.0,115.2 347.1,113.4 347.2,112.3 347.3,111.7 347.4,111.5 347.5,111.7 347.6,112.4 347.7,113.4 347.8,115.1 347.9,117.5 348.0,121.2 348.1,127.8 348.2,161.6 348.3,128.6 348.4,121.8 348.5,118.1 348.6,115.7 348.7,114.1 348.8,113.1 348.9,112.6 349.0,112.5 349.1,112.8 349.2,113.5 349.3,114.7 349.4,116.4 349.5,119.0 349.6,123.1 349.7,130.8 349.8,147.5 349.9,127.8 350.0,121.8 350.1,118.5 350.2,116.3 350.3,114.8 350.4,113.9 350.5,113.5 350.6,113.4 350.7,113.8 350.8,114.6 350.9,115.8 351.0,117.7 351.1,120.6 351.2,125.1 351.3,134.3 351.4,140.4 351.5,127.2 351.6,121.9 351.7,118.8 351.8,116.8 351.9,115.4 352.0,114.6 352.1,114.3 352.2,114.3 352.3,114.7 352.4,115.6 352.5,116.9 352.6,118.9 352.7,122.0 352.8,126.9 352.9,137.9 353.0,137.6 353.1,126.9 353.2,122.1 353.3,119.2 353.4,117.3 353.5,116.1 353.6,115.4 353.7,115.0 353.8,115.1 353.9,115.6 354.0,116.5 354.1,118.0 354.2,120.2 354.3,123.4 354.4,128.8 354.5,143.0 354.6,135.4 354.7,126.6 354.8,122.3 354.9,119.6 355.0,117.8 355.1,116.7 355.2,116.0 355.3,115.7 355.4,115.9 355.5,116.4 355.6,117.4 355.7,119.0 355.8,121.2 355.9,124.7 356.0,130.6 356.1,149.0 356.3,134.4 356.4,126.6 356.5,122.6 356.6,120.1 356.7,118.4 356.8,117.3 356.9,116.7 357.0,116.5 357.1,116.7 357.2,117.3 357.3,118.3 357.4,120.0 357.5,122.4 357.6,126.1 357.7,132.7 357.8,166.0 357.9,133.4 358.0,126.5 358.1,122.8 358.2,120.4 358.3,118.8 358.4,117.8 358.5,117.2 358.6,117.1 358.7,117.4 358.8,118.0 358.9,119.1 359.0,120.8 359.1,123.4 359.2,127.3 359.3,134.5 359.4,158.6 359.5,133.0 359.6,126.7 359.7,123.1 359.8,120.9 359.9,119.3 360.0,118.4 360.1,117.9 360.2,117.8 360.3,118.1 360.4,118.8 360.5,120.0 360.6,121.8 360.7,124.5 360.8,128.7 360.9,136.8 361.0,149.1 361.1,132.3 361.2,126.7 361.3,123.3 361.4,121.2 361.5,119.8 361.6,118.9 361.7,118.4 361.8,118.4 361.9,118.7 362.0,119.5 362.1,120.7 362.2,122.6 362.3,125.4 362.4,129.8 362.5,138.7 362.6,146.2 362.7,132.2 362.8,126.9 362.9,123.7 363.0,121.6 363.1,120.2 363.2,119.4 363.3,119.0 363.4,119.0 363.5,119.4 363.6,120.2 363.7,121.5 363.8,123.5 363.9,126.4 364.0,131.1 364.1,141.4 364.2,143.3 364.3,131.8 364.4,126.9 364.5,123.9 364.6,121.9 364.7,120.6 364.8,119.8 364.9,119.5 365.0,119.5 365.1,119.9 365.2,120.8 365.3,122.2 365.4,124.2 365.5,127.2 365.6,132.2 365.7,143.6 365.8,142.1 365.9,131.8 366.0,127.1 366.1,124.3 366.2,122.4 366.3,121.1 366.4,120.4 366.5,120.0 366.6,120.1 366.7,120.6 366.8,121.5 366.9,122.9 367.0,125.0 367.1,128.2 367.2,133.6 367.3,147.3 367.4,140.6 367.5,131.6 367.6,127.2 367.7,124.5 367.8,122.7 367.9,121.5 368.0,120.8 368.1,120.5 368.2,120.6 368.3,121.1 368.4,122.0 368.5,123.5 368.6,125.7 368.7,129.0 368.8,134.7 368.9,150.2 369.0,140.0 369.1,131.7 369.2,127.5 369.3,124.8 369.4,123.1 369.5,121.9 369.6,121.2 369.7,121.0 369.8,121.1 369.9,121.7 370.0,122.7 370.1,124.2 370.2,126.5 370.3,130.0 370.4,136.1 370.5,156.5 370.6,139.1 370.7,131.5 370.8,127.5 370.9,125.0 371.0,123.3 371.1,122.2 371.2,121.6 371.3,121.4 371.4,121.6 371.5,122.2 371.6,123.2 371.7,124.8 371.8,127.1 371.9,130.8 372.0,137.1 372.1,162.9 372.2,138.8 372.3,131.6 372.4,127.8 372.5,125.4 372.6,123.7 372.7,122.7 372.8,122.1 372.9,121.9 373.0,122.1 373.1,122.7 373.2,123.8 373.3,125.5 373.4,127.9 373.5,131.7 373.6,138.6 373.7,166.0 373.8,138.1 373.9,131.6 374.0,127.9 374.1,125.6 374.2,124.0 374.3,123.0 374.4,122.4 374.5,122.3 374.6,122.5 374.7,123.2 374.8,124.3 374.9,126.0 375.0,128.5 375.1,132.4 375.2,139.7 375.3,163.1 375.4,138.0 375.5,131.7 375.6,128.2 375.7,125.9 375.8,124.3 375.9,123.4 376.0,122.9 376.1,122.7 376.2,123.0 376.3,123.7 376.4,124.9 376.5,126.6 376.6,129.3 376.7,133.4 376.8,141.2 376.9,155.7 377.0,137.5 377.1,131.7 377.2,128.3 377.3,126.1 377.4,124.6 377.5,123.7 377.6,123.2 377.7,123.1 377.8,123.4 377.9,124.1 378.0,125.3 378.1,127.1 378.2,129.8 378.3,134.0 378.4,142.3 378.5,153.6 378.6,137.5 378.7,131.8 378.8,128.5 378.9,126.4 379.0,124.9 379.1,124.0 379.2,123.6 379.3,123.5 379.4,123.9 379.5,124.6 379.6,125.9 379.7,127.7 379.8,130.5 379.9,135.0 380.0,144.1 380.1,150.6 380.2,137.1 380.3,131.8 380.4,128.6 380.5,126.6 380.6,125.2 380.7,124.3 380.8,123.9 380.9,123.9 381.0,124.2 381.1,125.0 381.2,126.3 381.3,128.2 381.4,131.1 381.5,135.6 381.6,145.2 381.7,149.6 381.8,137.1 381.9,132.0 382.0,128.9 382.1,126.9 382.2,125.5 382.3,124.7 382.4,124.3 382.5,124.3 382.6,124.7 382.7,125.5 382.8,126.8 382.9,128.8 383.0,131.8 383.1,136.6 383.2,147.2 383.3,147.9 383.4,136.8 383.5,132.0 383.6,129.0 383.7,127.0 383.8,125.7 383.9,124.9 384.0,124.6 384.1,124.6 384.2,125.0 384.3,125.9 384.4,127.2 384.5,129.2 384.6,132.3 384.7,137.2 384.8,148.5 384.9,147.3 385.0,136.9 385.1,132.1 385.2,129.2 385.3,127.3 385.4,126.1 385.5,125.3 385.6,124.9 385.7,125.0 385.8,125.4 385.9,126.3 386.0,127.7 386.1,129.8 386.2,132.9 386.3,138.1 386.4,150.9 386.5,146.1 386.6,136.7 386.7,132.1 386.8,129.4 386.9,127.5 387.0,126.3 387.1,125.5 387.2,125.2 387.3,125.3 387.4,125.8 387.5,126.7 387.6,128.1 387.7,130.2 387.8,133.4 387.9,138.8 388.0,152.4 388.1,145.7 388.2,136.7 388.3,132.3 388.4,129.6 388.5,127.8 388.6,126.6 388.7,125.9 388.8,125.6 388.9,125.7 389.0,126.2 389.1,127.1 389.2,128.6 389.3,130.8 389.4,134.1 389.5,139.7 389.6,155.6 389.7,144.9 389.8,136.6 389.9,132.3 390.0,129.7 390.1,127.9 390.2,126.8 390.3,126.1 390.4,125.8 390.5,125.9 390.6,126.5 390.7,127.4 390.8,128.9 390.9,131.2 391.0,134.5 391.1,140.3 391.2,157.7 391.3,144.6 391.4,136.6 391.5,132.5 391.6,129.9 391.7,128.2 391.8,127.1 391.9,126.4 392.0,126.1 392.1,126.3 392.2,126.8 392.3,127.8 392.4,129.4 392.5,131.7 392.6,135.2 392.7,141.3 392.8,162.7 392.9,144.0 393.0,136.5 393.1,132.5 393.2,130.0 393.3,128.3 393.4,127.2 393.5,126.6 393.6,126.4 393.7,126.6 393.8,127.1 393.9,128.1 394.0,129.7 394.1,132.1 394.2,135.6 394.3,141.9 394.4,166.0 394.5,143.8 394.6,136.6 394.7,132.7 394.8,130.2 394.9,128.6 395.0,127.5 395.1,126.9 395.2,126.7 395.3,126.9 395.4,127.5 395.5,128.5 395.6,130.2 395.7,132.6 395.8,136.3 395.9,142.9 396.0,166.0 396.1,143.3 396.2,136.5 396.3,132.8 396.4,130.3 396.5,128.7 396.6,127.7 396.7,127.1 396.8,126.9 396.9,127.1 397.0,127.8 397.1,128.8 397.2,130.5 397.3,132.9 397.4,136.7 397.5,143.6 397.6,166.0 397.7,143.2 397.8,136.6 397.9,132.9 398.0,130.6 398.1,129.0 398.2,128.0 398.3,127.4 398.4,127.2 398.5,127.5 398.6,128.1 398.7,129.2 398.8,130.9 398.9,133.4 399.0,137.3 399.1,144.6 399.2,166.0 399.3,142.8 399.4,136.5 399.5,133.0 399.6,130.7 399.7,129.1 399.8,128.1 399.9,127.6 400.0,127.5 400.1,127.7 400.2,128.4 400.3,129.5 400.4,131.2 400.5,133.8 400.6,137.8 400.7,145.2 400.8,164.2 400.9,142.7 401.0,136.6 401.1,133.1 401.2,130.9 401.3,129.3 401.4,128.4 401.5,127.9 401.6,127.7 401.7,128.0 401.8,128.7 401.9,129.9 402.0,131.6 402.1,134.3 402.2,138.4 402.3,146.3 402.4,160.1 402.5,142.3 402.6,136.5 402.7,133.2 402.8,130.9 402.9,129.5 403.0,128.5 403.1,128.0 403.2,128.0 403.3,128.2 403.4,129.0 403.5,130.1 403.6,131.9 403.7,134.6 403.8,138.8 403.9,147.0 404.0,158.8 404.1,142.3 404.2,136.6 404.3,133.3 404.4,131.1 404.5,129.7 404.6,128.8 404.7,128.3 404.8,128.2 404.9,128.5 405.0,129.3 405.1,130.5 405.2,132.3 405.3,135.1 405.4,139.4 405.5,148.2 405.6,156.4 405.7,142.0 405.8,136.6 405.9,133.4 406.0,131.2 406.1,129.8 406.2,128.9 406.3,128.5 406.4,128.4 406.5,128.8 406.6,129.5 406.7,130.7 406.8,132.6 406.9,135.4 407.0,139.8 407.1,148.9 407.2,155.7 407.3,142.0 407.4,136.7 407.5,133.5 407.6,131.4 407.7,130.0 407.8,129.2 407.9,128.7 408.0,128.7 408.1,129.0 408.2,129.8 408.3,131.1 408.4,133.0 408.5,135.9 408.6,140.4 408.7,150.1 408.8,154.1 408.9,141.7 409.0,136.6 409.1,133.5 409.2,131.5 409.3,130.1 409.4,129.3 409.5,128.9 409.6,128.9 409.7,129.2 409.8,130.0 409.9,131.3 410.0,133.3 410.1,136.2 410.2,140.8 410.3,150.9 410.4,153.6 410.5,141.7 410.6,136.7 410.7,133.7 410.8,131.7 410.9,130.3 411.0,129.5 411.1,129.1 411.2,129.1 411.3,129.5 411.4,130.3 411.5,131.7 411.6,133.6 411.7,136.6 411.8,141.5 411.9,152.3 412.0,152.4 412.1,141.5 412.2,136.7 412.3,133.7 412.4,131.8 412.5,130.5 412.6,129.7 412.7,129.3 412.8,129.3 412.9,129.7 413.0,130.6 413.1,131.9 413.2,133.9 413.3,136.9 413.4,141.9 413.5,153.1 413.6,152.0 413.7,141.5 413.8,136.8 413.9,133.9 414.0,131.9 414.1,130.7 414.2,129.9 414.3,129.5 414.4,129.5 414.5,130.0 414.6,130.8 414.7,132.2 414.8,134.3 414.9,137.4 415.0,142.5 415.1,154.7 415.2,151.1 415.3,141.3 415.4,136.7 415.5,133.9 415.6,132.0 415.7,130.8 415.8,130.0 415.9,129.7 416.0,129.7 416.1,130.2 416.2,131.0 416.3,132.4 416.4,134.5 416.5,137.7 416.6,142.9 416.7,155.7 416.8,150.8 416.9,141.4 417.0,136.8 417.1,134.0 417.2,132.2 417.3,130.9 417.4,130.2 417.5,129.9 417.6,130.0 417.7,130.4 417.8,131.3 417.9,132.8 418.0,134.9 418.1,138.1 418.2,143.5 418.3,157.6 418.4,150.0 418.5,141.2 418.6,136.8 418.7,134.1 418.8,132.3 418.9,131.1 419.0,130.3 419.1,130.0 419.2,130.1 419.3,130.6 419.4,131.5 419.5,133.0 419.6,135.1 419.7,138.4 419.8,143.9 419.9,158.7 420.0,149.8 420.1,141.2 420.2,136.9 420.3,134.2 420.4,132.4 420.5,131.2 420.6,130.5 420.7,130.2 420.8,130.3 420.9,130.8 421.0,131.8 421.1,133.3 421.2,135.5 421.3,138.8 421.4,144.5 421.5,161.2 421.6,149.2 421.7,141.1 421.8,136.9 421.9,134.2 422.0,132.5 422.1,131.3 422.2,130.6 422.3,130.4 422.4,130.5 422.5,131.0 422.6,132.0 422.7,133.5 422.8,135.7 422.9,139.1 423.0,144.9 423.1,162.6 423.2,149.0 423.3,141.1 423.4,137.0 423.5,134.4 423.6,132.6 423.7,131.5 423.8,130.8 423.9,130.6 424.0,130.7 424.1,131.2 424.2,132.2 424.3,133.8 424.4,136.0 424.6,139.5 424.7,145.6 424.8,166.0 424.9,148.5 425.0,140.9 425.1,137.0 425.2,134.4 425.3,132.7 425.4,131.6 425.5,130.9 425.6,130.7 425.7,130.9 425.8,131.4 425.9,132.4 426.0,134.0 426.1,136.3 426.2,139.8 426.3,146.0 426.4,166.0 426.5,148.4 426.6,141.0 426.7,137.0 426.8,134.5 426.9,132.8 427.0,131.7 427.1,131.1 427.2,130.9 427.3,131.1 427.4,131.6 427.5,132.7 427.6,134.2 427.7,136.6 427.8,140.2 427.9,146.6 428.0,166.0 428.1,147.9 428.2,140.8 428.3,137.0 428.4,134.6 428.5,132.9 428.6,131.8 428.7,131.2 428.8,131.0 428.9,131.2 429.0,131.8 429.1,132.8 429.2,134.4 429.3,136.8 429.4,140.5 429.5,147.0 429.6,166.0 429.7,147.8 429.8,140.9 429.9,137.1 430.0,134.7 430.1,133.0 430.2,132.0 430.3,131.4 430.4,131.2 430.5,131.4 430.6,132.0 430.7,133.1 430.8,134.7 430.9,137.1 431.0,140.9 431.1,147.7 431.2,166.0 431.3,147.4 431.4,140.8 431.5,137.1 431.6,134.7 431.7,133.1 431.8,132.1 431.9,131.5 432.0,131.3 432.1,131.5 432.2,132.2 432.3,133.2 432.4,134.9 432.5,137.4 432.6,141.2 432.7,148.1 432.8,166.0 432.9,147.3 433.0,140.8 433.1,137.2 433.2,134.8 433.3,133.2 433.4,132.2 433.5,131.7 433.6,131.5 433.7,131.7 433.8,132.4 433.9,133.5 434.0,135.2 434.1,137.7 434.2,141.6 434.3,148.9 434.4,166.0 434.5,146.9 434.6,140.7 434.7,137.1 434.8,134.8 434.9,133.3 435.0,132.3 435.1,131.8 435.2,131.6 435.3,131.9 435.4,132.5 435.5,133.6 435.6,135.3 435.7,137.9 435.8,141.9 435.9,149.3 436.0,166.0 436.1,146.9 436.2,140.7 436.3,137.2 436.4,134.9 436.5,133.4 436.6,132.4 436.7,131.9 436.8,131.8 436.9,132.0 437.0,132.7 437.1,133.9 437.2,135.6 437.3,138.2 437.4,142.3 437.5,150.0 437.6,165.5 437.7,146.6 437.8,140.6 437.9,137.2 438.0,135.0 438.1,133.5 438.2,132.5 438.3,132.0 438.4,131.9 438.5,132.2 438.6,132.9 438.7,134.0 438.8,135.8 438.9,138.4 439.0,142.5 439.1,150.5 439.2,164.2 439.3,146.5 439.4,140.7 439.5,137.3 439.6,135.1 439.7,133.6 439.8,132.6 439.9,132.2 440.0,132.1 440.1,132.3 440.2,133.1 440.3,134.2 440.4,136.0 440.5,138.7 440.6,142.9 440.7,151.3 440.8,162.1 440.9,146.2 441.0,140.6 441.1,137.3 441.2,135.1 441.3,133.6 441.4,132.7 441.5,132.2 441.6,132.2 441.7,132.5 441.8,133.2 441.9,134.4 442.0,136.2 442.1,138.9 442.2,143.2 442.3,151.7 442.4,161.3 442.5,146.1 442.6,140.6 442.7,137.3 442.8,135.2 442.9,133.8 443.0,132.8 443.1,132.4 443.2,132.3 443.3,132.6 443.4,133.4 443.5,134.6 443.6,136.4 443.7,139.2 443.8,143.6 443.9,152.5 444.0,159.8 444.1,145.9 444.2,140.5 444.3,137.3 444.4,135.2 444.5,133.8 444.6,132.9 444.7,132.5 444.8,132.4 444.9,132.8 445.0,133.5 445.1,134.7 445.2,136.6 445.3,139.4 445.4,143.9 445.5,153.0 445.6,159.2 445.7,145.8 445.8,140.5 445.9,137.4 446.0,135.3 446.1,133.9 446.2,133.0 446.3,132.6 446.4,132.6 446.5,132.9 446.6,133.7 446.7,134.9 446.8,136.8 446.9,139.7 447.0,144.3 447.1,153.9 447.2,158.0 447.3,145.6 447.4,140.5 447.5,137.4 447.6,135.3 447.7,134.0 447.8,133.1 447.9,132.7 448.0,132.7 448.1,133.0 448.2,133.8 448.3,135.1 448.4,137.0 448.5,139.9 448.6,144.5 448.7,154.5 448.8,157.5 448.9,145.5 449.0,140.5 449.1,137.4 449.2,135.4 449.3,134.1 449.4,133.2 449.5,132.8 449.6,132.8 449.7,133.2 449.8,134.0 449.9,135.3 450.0,137.2 450.1,140.2 450.2,144.9 450.3,155.4 450.4,156.6 450.5,145.3 450.6,140.4 450.7,137.4 450.8,135.4 450.9,134.1 451.0,133.3 451.1,132.9 451.2,132.9 451.3,133.3 451.4,134.1 451.5,135.4 451.6,137.4 451.7,140.4 451.8,145.2 451.9,156.0 452.0,156.2 452.1,145.3 452.2,140.4 452.3,137.5 452.4,135.5 452.5,134.2 452.6,133.4 452.7,133.0 452.8,133.0 452.9,133.4 453.0,134.3 453.1,135.6 453.2,137.6 453.3,140.6 453.4,145.6 453.5,157.1 453.6,155.4 453.7,145.1 453.8,140.4 453.9,137.5 454.0,135.5 454.1,134.2 454.2,133.5 454.3,133.1 454.4,133.1 454.5,133.5 454.6,134.4 454.7,135.7 454.8,137.8 454.9,140.8 455.0,145.9 455.1,157.7 455.2,155.0 455.3,145.0 455.4,140.4 455.5,137.5 455.6,135.6 455.7,134.3 455.8,133.6 455.9,133.2 456.0,133.2 456.1,133.7 456.2,134.5 456.3,135.9 456.4,138.0 456.5,141.1 456.6,146.3 456.7,158.9 456.8,154.4 456.9,144.9 457.0,140.3 457.1,137.5 457.2,135.6 457.3,134.4 457.4,133.6 457.5,133.3 457.6,133.3 457.7,133.8 457.8,134.7 457.9,136.1 458.0,138.2 458.1,141.3 458.2,146.6 458.3,159.7 458.4,154.1 458.5,144.8 458.6,140.3 458.7,137.5 458.8,135.7 458.9,134.5 459.0,133.7 459.1,133.4 459.2,133.5 459.3,133.9 459.4,134.8 459.5,136.2 459.6,138.4 459.7,141.6 459.8,147.0 459.9,161.1 460.0,153.5 460.1,144.6 460.2,140.3 460.3,137.5 460.4,135.7 460.5,134.5 460.6,133.8 460.7,133.5 460.8,133.5 460.9,134.0 461.0,134.9 461.1,136.4 461.2,138.5 461.3,141.8 461.4,147.3 461.5,162.0 461.6,153.2 461.7,144.6 461.8,140.3 461.9,137.6 462.0,135.8 462.1,134.6 462.2,133.9 462.3,133.6 462.4,133.7 462.5,134.1 462.6,135.1 462.7,136.5 462.8,138.7 462.9,142.0 463.0,147.7 463.1,163.7 463.2,152.7 463.3,144.4 463.4,140.2 463.5,137.6 463.6,135.8 463.7,134.6 463.8,133.9 463.9,133.6 464.0,133.7 464.1,134.2 464.2,135.2 464.3,136.7 464.4,138.9 464.5,142.2 464.6,148.0 464.7,164.8 464.8,152.5 464.9,144.4 465.0,140.2 465.1,137.6 465.2,135.8 465.3,134.7 465.4,134.0 465.5,133.7 465.6,133.8 465.7,134.4 465.8,135.3 465.9,136.8 466.0,139.1 466.1,142.5 466.2,148.4 466.3,166.0 466.4,152.1 466.5,144.2 466.6,140.2 466.7,137.6 466.8,135.8 466.9,134.7 467.0,134.0 467.1,133.8 467.2,133.9 467.3,134.4 467.4,135.4 467.5,136.9 467.6,139.2 467.7,142.7 467.8,148.7 467.9,166.0 468.0,151.8 468.1,144.2 468.2,140.2 468.3,137.6 468.4,135.9 468.5,134.8 468.6,134.1 468.7,133.9 468.8,134.0 468.9,134.6 469.0,135.6 469.1,137.1 469.2,139.4 469.3,142.9 469.4,149.1 469.5,166.0 469.6,151.4 469.7,144.1 469.8,140.1 469.9,137.6 470.0,135.9 470.1,134.8 470.2,134.2 470.3,133.9 470.4,134.1 470.5,134.7 470.6,135.7 470.7,137.2 470.8,139.6 470.9,143.1 471.0,149.4 471.1,166.0 471.2,151.2 471.3,144.0 471.4,140.1 471.5,137.6 471.6,136.0 471.7,134.9 471.8,134.2 471.9,134.0 472.0,134.2 472.1,134.8 472.2,135.8 472.3,137.4 472.4,139.7 472.5,143.4 472.6,149.9 472.7,166.0 472.8,150.9 472.9,143.9 473.0,140.1 473.1,137.6 473.2,136.0 473.3,134.9 473.4,134.3 473.5,134.1 473.6,134.3 473.7,134.9 473.8,135.9 473.9,137.5 474.0,139.9 474.1,143.6 474.2,150.2 474.3,166.0 474.4,150.7 474.5,143.8 474.6,140.1 474.7,137.6 474.8,136.0 474.9,135.0 475.0,134.4 475.1,134.2 475.2,134.4 475.3,135.0 475.4,136.0 475.5,137.7 475.6,140.1 475.7,143.8 475.8,150.6 475.9,166.0 476.0,150.4 476.1,143.7 476.2,140.0 476.3,137.6 476.4,136.0 476.5,135.0 476.6,134.4 476.7,134.2 476.8,134.4 476.9,135.0 477.0,136.1 477.1,137.8 477.2,140.2 477.3,144.0 477.4,151.0 477.5,166.0 477.6,150.2 477.7,143.7 477.8,140.0 477.9,137.6 478.0,136.1 478.1,135.0 478.2,134.5 478.3,134.3 478.4,134.5 478.5,135.1 478.6,136.2 478.7,137.9 478.8,140.4 478.9,144.3 479.0,151.4 479.1,166.0 479.2,149.9 479.3,143.5 479.4,140.0 479.5,137.6 479.6,136.1 479.7,135.1 479.8,134.5 479.9,134.3 480.0,134.6 480.1,135.2 480.2,136.3 480.3,138.0 480.4,140.5 480.5,144.5 480.6,151.8 480.7,166.0 480.8,149.7 480.9,143.5 481.0,139.9 481.1,137.6 481.2,136.1 481.3,135.1 481.4,134.6 481.5,134.4 481.6,134.7 481.7,135.3 481.8,136.4 481.9,138.2 482.0,140.7 482.1,144.7 482.2,152.3 482.3,166.0 482.4,149.4 482.5,143.4 482.6,139.9 482.7,137.6 482.8,136.1 482.9,135.1 483.0,134.6 483.1,134.5 483.2,134.7 483.3,135.4 483.4,136.5 483.5,138.3 483.6,140.8 483.7,144.9 483.8,152.6 483.9,166.0 484.0,149.3 484.1,143.3 484.2,139.9 484.3,137.6 484.4,136.1 484.5,135.2 484.6,134.7 484.7,134.5 484.8,134.8 484.9,135.5 485.0,136.6 485.1,138.4 485.2,141.0 485.3,145.2 485.4,153.1 485.5,166.0 485.6,149.0 485.7,143.2 485.8,139.8 485.9,137.6 486.0,136.1 486.1,135.2 486.2,134.7 486.3,134.6 486.4,134.9 486.5,135.6 486.6,136.7 486.7,138.5 486.8,141.2 486.9,145.3 487.0,153.5 487.1,165.5 487.2,148.9 487.3,143.2 487.4,139.8 487.5,137.6 487.6,136.2 487.7,135.2 487.8,134.7 487.9,134.6 488.0,134.9 488.1,135.7 488.2,136.8 488.3,138.6 488.4,141.3 488.5,145.6 488.6,154.0 488.7,164.0 488.8,148.6 488.9,143.0 489.0,139.8 489.1,137.6 489.2,136.2 489.3,135.2 489.4,134.8 489.5,134.7 489.6,135.0 489.7,135.7 489.8,136.9 489.9,138.7 490.0,141.5 490.1,145.8 490.2,154.5 490.3,163.2 490.4,148.5 490.5,143.0 490.6,139.7 490.7,137.6 490.8,136.2 490.9,135.3 491.0,134.8 491.1,134.7 491.2,135.1 491.3,135.8 491.4,137.0 491.5,138.9 491.6,141.6 491.7,146.0 491.8,155.0 491.9,162.0 492.0,148.2 492.1,142.9 492.2,139.7 492.3,137.6 492.4,136.2 492.5,135.3 492.6,134.8 492.7,134.8 492.9,135.1 493.0,135.9 493.1,137.1 493.2,139.0 493.3,141.8 493.4,146.2 493.5,155.5 493.6,161.3 493.7,148.1 493.8,142.8 493.9,139.7 494.0,137.6 494.1,136.2 494.2,135.3 494.3,134.9 494.4,134.8 494.5,135.2 494.6,136.0 494.7,137.2 494.8,139.1 494.9,141.9 495.0,146.5 495.1,156.1 495.2,160.4 495.3,147.9 495.4,142.7 495.5,139.6 495.6,137.6 495.7,136.2 495.8,135.3 495.9,134.9 496.0,134.9 496.1,135.2 496.2,136.0 496.3,137.3 496.4,139.2 496.5,142.1 496.6,146.7 496.7,156.6 496.8,159.8 496.9,147.7 497.0,142.7 497.1,139.6 497.2,137.6 497.3,136.2 497.4,135.4 497.5,134.9 497.6,134.9 497.7,135.3 497.8,136.1 497.9,137.4 498.0,139.3 498.1,142.2 498.2,146.9 498.3,157.2 498.4,159.0 498.5,147.5 498.6,142.6 498.7,139.5 498.8,137.5 498.9,136.2 499.0,135.4 499.1,135.0 499.2,135.0 499.3,135.3 499.4,136.1 499.5,137.5 499.6,139.4 499.7,142.4 499.8,147.2 499.9,157.8 500.0,158.5 500.1,147.4 500.2,142.5 500.3,139.5 500.4,137.5 500.5,136.2 500.6,135.4 500.7,135.0 500.8,135.0 500.9,135.4 501.0,136.2 501.1,137.5 501.2,139.5 501.3,142.5 501.4,147.4 501.5,158.5 501.6,157.8 501.7,147.2 501.8,142.4 501.9,139.5 502.0,137.5 502.1,136.2 502.2,135.4 502.3,135.0 502.4,135.0 502.5,135.4 502.6,136.3 502.7,137.6 502.8,139.6 502.9,142.7 503.0,147.6 503.1,159.1 503.2,157.4 503.3,147.1 503.4,142.3 503.5,139.4 503.6,137.5 503.7,136.2 503.8,135.4 503.9,135.1 504.0,135.1 504.1,135.5 504.2,136.3 504.3,137.7 504.4,139.7 504.5,142.8 504.6,147.9 504.7,159.9 504.8,156.8 504.9,146.9 505.0,142.3 505.1,139.4 505.2,137.5 505.3,136.2 505.4,135.4 505.5,135.1 505.6,135.1 505.7,135.5 505.8,136.4 505.9,137.8 506.0,139.8 506.1,142.9 506.2,148.1 506.3,160.6 506.4,156.3 506.5,146.7 506.6,142.2 506.7,139.3 506.8,137.5 506.9,136.2 507.0,135.4 507.1,135.1 507.2,135.1 507.3,135.6 507.4,136.5 507.5,137.9 507.6,139.9 507.7,143.1 507.8,148.4 507.9,161.5 508.0,155.8 508.1,146.6 508.2,142.1 508.3,139.3 508.4,137.4 508.5,136.2 508.6,135.4 508.7,135.1 508.8,135.2 508.9,135.6 509.0,136.5 509.1,137.9 509.2,140.0 509.3,143.2 509.4,148.6 509.5,162.3 509.6,155.4 509.7,146.4 509.8,142.0 509.9,139.3 510.0,137.4 510.1,136.2 510.2,135.5 510.3,135.1 510.4,135.2 510.5,135.7 510.6,136.6 510.7,138.0 510.8,140.1 510.9,143.4 511.0,148.8 511.1,163.4 511.2,155.0 511.3,146.3 511.4,141.9 511.5,139.2 511.6,137.4 511.7,136.2 511.8,135.5 511.9,135.1 512.0,135.2 512.1,135.7 512.2,136.6 512.3,138.1 512.4,140.2 512.5,143.5 512.6,149.1 512.7,164.4 512.8,154.6 512.9,146.1 513.0,141.9 513.1,139.2 513.2,137.4 513.3,136.2 513.4,135.5 513.5,135.2 513.6,135.3 513.7,135.8 513.8,136.7 513.9,138.2 514.0,140.3 514.1,143.7 514.2,149.3 514.3,165.6 514.4,154.2 514.5,146.0 514.6,141.8 514.7,139.1 514.8,137.3 514.9,136.2 515.0,135.5 515.1,135.2 515.2,135.3 515.3,135.8 515.4,136.7 515.5,138.2 515.6,140.4 515.7,143.8 515.8,149.6 515.9,166.0 516.0,153.8 516.1,145.8 516.2,141.7 516.3,139.1 516.4,137.3 516.5,136.1 516.6,135.5 516.7,135.2 516.8,135.3 516.9,135.8 517.0,136.8 517.1,138.3 517.2,140.5 517.3,143.9 517.4,149.9 517.5,166.0 517.6,153.5 517.7,145.7 517.8,141.6 517.9,139.0 518.0,137.3 518.1,136.1 518.2,135.5 518.3,135.2 518.4,135.3 518.5,135.9 518.6,136.8 518.7,138.4 518.8,140.6 518.9,144.1 519.0,150.1 519.1,166.0 519.2,153.1 519.3,145.5 519.4,141.5 519.5,139.0 519.6,137.2 519.7,136.1 519.8,135.5 519.9,135.2 520.0,135.4 520.1,135.9 520.2,136.9 520.3,138.4 520.4,140.7 520.5,144.2 520.6,150.4 520.7,166.0 520.8,152.8 520.9,145.4 521.0,141.4 521.1,138.9 521.2,137.2 521.3,136.1 521.4,135.4 521.5,135.2 521.6,135.4 521.7,135.9 521.8,136.9 521.9,138.5 522.0,140.8 522.1,144.4 522.2,150.7 522.3,166.0 522.4,152.5 522.5,145.2 522.6,141.3 522.7,138.8 522.8,137.2 522.9,136.1 523.0,135.4 523.1,135.2 523.2,135.4 523.3,136.0 523.4,137.0 523.5,138.5 523.6,140.9 523.7,144.5 523.8,151.0 523.9,166.0 524.0,152.1 524.1,145.1 524.2,141.3 524.3,138.8 524.4,137.1 524.5,136.1 524.6,135.4 524.7,135.2 524.8,135.4 524.9,136.0 525.0,137.0 525.1,138.6 525.2,141.0 525.3,144.7 525.4,151.2 525.5,166.0 525.6,151.8 525.7,144.9 525.8,141.2 525.9,138.7 526.0,137.1 526.1,136.0 526.2,135.4 526.3,135.2 526.4,135.4 526.5,136.0 526.6,137.1 526.7,138.7 526.8,141.1 526.9,144.8 527.0,151.5" fill="none" stroke="#4a90d9" stroke-width="1.2" stroke-linejoin="round"/>
  <text x="154.5" y="190" text-anchor="middle" font-size="8" fill="#6b7280">n / N</text>
  <text x="424.5" y="190" text-anchor="middle" font-size="8" fill="#6b7280">Normalized frequency (× Fₛ)</text>
</svg>
