<svg xmlns="http://www.w3.org/2000/svg" viewBox="0 0 560 190" width="560" height="190" style="font-family:system-ui,-apple-system,sans-serif">
  <rect width="560" height="190" fill="none"/>
  <line x1="52" y1="152.0" x2="257" y2="152.0" stroke="#e5e7eb" stroke-width="0.5"/>
  <text x="48" y="155.0" text-anchor="end" font-size="7.5" fill="#6b7280">0</text>
  <line x1="52" y1="82.0" x2="257" y2="82.0" stroke="#e5e7eb" stroke-width="0.5"/>
  <text x="48" y="85.0" text-anchor="end" font-size="7.5" fill="#6b7280">0.5</text>
  <line x1="52" y1="12.0" x2="257" y2="12.0" stroke="#e5e7eb" stroke-width="0.5"/>
  <text x="48" y="15.0" text-anchor="end" font-size="7.5" fill="#6b7280">1</text>
  <line x1="52.0" y1="12" x2="52.0" y2="152" stroke="#e5e7eb" stroke-width="0.5"/>
  <text x="52.0" y="164" text-anchor="middle" font-size="7.5" fill="#6b7280">0</text>
  <line x1="154.5" y1="12" x2="154.5" y2="152" stroke="#e5e7eb" stroke-width="0.5"/>
  <text x="154.5" y="164" text-anchor="middle" font-size="7.5" fill="#6b7280">0.5</text>
  <line x1="257.0" y1="12" x2="257.0" y2="152" stroke="#e5e7eb" stroke-width="0.5"/>
  <text x="257.0" y="164" text-anchor="middle" font-size="7.5" fill="#6b7280">1</text>
  <line x1="52" y1="12" x2="52" y2="152" stroke="#d1d5db" stroke-width="0.75"/>
  <line x1="52" y1="152" x2="257" y2="152" stroke="#d1d5db" stroke-width="0.75"/>
  <path d="M52.0,152.0 52.0,151.3 52.8,150.9 53.6,150.4 54.4,149.9 55.2,149.4 56.0,148.9 56.8,148.3 57.6,147.7 58.4,147.0 59.2,146.3 60.0,145.5 60.8,144.7 61.6,143.8 62.5,142.9 63.3,142.0 64.1,140.9 64.9,139.9 65.7,138.8 66.5,137.6 67.3,136.4 68.1,135.1 68.9,133.8 69.7,132.5 70.5,131.1 71.3,129.6 72.1,128.1 72.9,126.6 73.7,125.0 74.5,123.4 75.3,121.7 76.1,120.0 76.9,118.3 77.7,116.5 78.5,114.6 79.3,112.8 80.1,110.9 80.9,109.0 81.7,107.0 82.5,105.0 83.4,103.0 84.2,101.0 85.0,99.0 85.8,96.9 86.6,94.9 87.4,92.8 88.2,90.7 89.0,88.6 89.8,86.5 90.6,84.3 91.4,82.2 92.2,80.1 93.0,78.0 93.8,75.9 94.6,73.8 95.4,71.7 96.2,69.7 97.0,67.6 97.8,65.6 98.6,63.6 99.4,61.6 100.2,59.6 101.0,57.7 101.8,55.8 102.6,53.9 103.5,52.1 104.3,50.3 105.1,48.5 105.9,46.8 106.7,45.1 107.5,43.5 108.3,41.9 109.1,40.3 109.9,38.8 110.7,37.3 111.5,35.9 112.3,34.5 113.1,33.2 113.9,31.9 114.7,30.6 115.5,29.4 116.3,28.3 117.1,27.2 117.9,26.1 118.7,25.1 119.5,24.2 120.3,23.3 121.1,22.4 121.9,21.6 122.7,20.8 123.5,20.1 124.4,19.4 125.2,18.8 126.0,18.2 126.8,17.6 127.6,17.1 128.4,16.6 129.2,16.1 130.0,15.7 130.8,15.3 131.6,15.0 132.4,14.6 133.2,14.3 134.0,14.0 134.8,13.8 135.6,13.6 136.4,13.4 137.2,13.2 138.0,13.0 138.8,12.9 139.6,12.7 140.4,12.6 141.2,12.5 142.0,12.4 142.8,12.4 143.6,12.3 144.5,12.2 145.3,12.2 146.1,12.2 146.9,12.1 147.7,12.1 148.5,12.1 149.3,12.0 150.1,12.0 150.9,12.0 151.7,12.0 152.5,12.0 153.3,12.0 154.1,12.0 154.9,12.0 155.7,12.0 156.5,12.0 157.3,12.0 158.1,12.0 158.9,12.0 159.7,12.0 160.5,12.1 161.3,12.1 162.1,12.1 162.9,12.2 163.7,12.2 164.5,12.2 165.4,12.3 166.2,12.4 167.0,12.4 167.8,12.5 168.6,12.6 169.4,12.7 170.2,12.9 171.0,13.0 171.8,13.2 172.6,13.4 173.4,13.6 174.2,13.8 175.0,14.0 175.8,14.3 176.6,14.6 177.4,15.0 178.2,15.3 179.0,15.7 179.8,16.1 180.6,16.6 181.4,17.1 182.2,17.6 183.0,18.2 183.8,18.8 184.6,19.4 185.5,20.1 186.3,20.8 187.1,21.6 187.9,22.4 188.7,23.3 189.5,24.2 190.3,25.1 191.1,26.1 191.9,27.2 192.7,28.3 193.5,29.4 194.3,30.6 195.1,31.9 195.9,33.2 196.7,34.5 197.5,35.9 198.3,37.3 199.1,38.8 199.9,40.3 200.7,41.9 201.5,43.5 202.3,45.1 203.1,46.8 203.9,48.5 204.7,50.3 205.5,52.1 206.4,53.9 207.2,55.8 208.0,57.7 208.8,59.6 209.6,61.6 210.4,63.6 211.2,65.6 212.0,67.6 212.8,69.7 213.6,71.7 214.4,73.8 215.2,75.9 216.0,78.0 216.8,80.1 217.6,82.2 218.4,84.3 219.2,86.5 220.0,88.6 220.8,90.7 221.6,92.8 222.4,94.9 223.2,96.9 224.0,99.0 224.8,101.0 225.6,103.0 226.5,105.0 227.3,107.0 228.1,109.0 228.9,110.9 229.7,112.8 230.5,114.6 231.3,116.5 232.1,118.3 232.9,120.0 233.7,121.7 234.5,123.4 235.3,125.0 236.1,126.6 236.9,128.1 237.7,129.6 238.5,131.1 239.3,132.5 240.1,133.8 240.9,135.1 241.7,136.4 242.5,137.6 243.3,138.8 244.1,139.9 244.9,140.9 245.7,142.0 246.5,142.9 247.4,143.8 248.2,144.7 249.0,145.5 249.8,146.3 250.6,147.0 251.4,147.7 252.2,148.3 253.0,148.9 253.8,149.4 254.6,149.9 255.4,150.4 256.2,150.9 257.0,151.3 L257.0,152.0 Z" fill="#4a90d9" fill-opacity="0.06"/>
  <polyline points="52.0,151.3 52.8,150.9 53.6,150.4 54.4,149.9 55.2,149.4 56.0,148.9 56.8,148.3 57.6,147.7 58.4,147.0 59.2,146.3 60.0,145.5 60.8,144.7 61.6,143.8 62.5,142.9 63.3,142.0 64.1,140.9 64.9,139.9 65.7,138.8 66.5,137.6 67.3,136.4 68.1,135.1 68.9,133.8 69.7,132.5 70.5,131.1 71.3,129.6 72.1,128.1 72.9,126.6 73.7,125.0 74.5,123.4 75.3,121.7 76.1,120.0 76.9,118.3 77.7,116.5 78.5,114.6 79.3,112.8 80.1,110.9 80.9,109.0 81.7,107.0 82.5,105.0 83.4,103.0 84.2,101.0 85.0,99.0 85.8,96.9 86.6,94.9 87.4,92.8 88.2,90.7 89.0,88.6 89.8,86.5 90.6,84.3 91.4,82.2 92.2,80.1 93.0,78.0 93.8,75.9 94.6,73.8 95.4,71.7 96.2,69.7 97.0,67.6 97.8,65.6 98.6,63.6 99.4,61.6 100.2,59.6 101.0,57.7 101.8,55.8 102.6,53.9 103.5,52.1 104.3,50.3 105.1,48.5 105.9,46.8 106.7,45.1 107.5,43.5 108.3,41.9 109.1,40.3 109.9,38.8 110.7,37.3 111.5,35.9 112.3,34.5 113.1,33.2 113.9,31.9 114.7,30.6 115.5,29.4 116.3,28.3 117.1,27.2 117.9,26.1 118.7,25.1 119.5,24.2 120.3,23.3 121.1,22.4 121.9,21.6 122.7,20.8 123.5,20.1 124.4,19.4 125.2,18.8 126.0,18.2 126.8,17.6 127.6,17.1 128.4,16.6 129.2,16.1 130.0,15.7 130.8,15.3 131.6,15.0 132.4,14.6 133.2,14.3 134.0,14.0 134.8,13.8 135.6,13.6 136.4,13.4 137.2,13.2 138.0,13.0 138.8,12.9 139.6,12.7 140.4,12.6 141.2,12.5 142.0,12.4 142.8,12.4 143.6,12.3 144.5,12.2 145.3,12.2 146.1,12.2 146.9,12.1 147.7,12.1 148.5,12.1 149.3,12.0 150.1,12.0 150.9,12.0 151.7,12.0 152.5,12.0 153.3,12.0 154.1,12.0 154.9,12.0 155.7,12.0 156.5,12.0 157.3,12.0 158.1,12.0 158.9,12.0 159.7,12.0 160.5,12.1 161.3,12.1 162.1,12.1 162.9,12.2 163.7,12.2 164.5,12.2 165.4,12.3 166.2,12.4 167.0,12.4 167.8,12.5 168.6,12.6 169.4,12.7 170.2,12.9 171.0,13.0 171.8,13.2 172.6,13.4 173.4,13.6 174.2,13.8 175.0,14.0 175.8,14.3 176.6,14.6 177.4,15.0 178.2,15.3 179.0,15.7 179.8,16.1 180.6,16.6 181.4,17.1 182.2,17.6 183.0,18.2 183.8,18.8 184.6,19.4 185.5,20.1 186.3,20.8 187.1,21.6 187.9,22.4 188.7,23.3 189.5,24.2 190.3,25.1 191.1,26.1 191.9,27.2 192.7,28.3 193.5,29.4 194.3,30.6 195.1,31.9 195.9,33.2 196.7,34.5 197.5,35.9 198.3,37.3 199.1,38.8 199.9,40.3 200.7,41.9 201.5,43.5 202.3,45.1 203.1,46.8 203.9,48.5 204.7,50.3 205.5,52.1 206.4,53.9 207.2,55.8 208.0,57.7 208.8,59.6 209.6,61.6 210.4,63.6 211.2,65.6 212.0,67.6 212.8,69.7 213.6,71.7 214.4,73.8 215.2,75.9 216.0,78.0 216.8,80.1 217.6,82.2 218.4,84.3 219.2,86.5 220.0,88.6 220.8,90.7 221.6,92.8 222.4,94.9 223.2,96.9 224.0,99.0 224.8,101.0 225.6,103.0 226.5,105.0 227.3,107.0 228.1,109.0 228.9,110.9 229.7,112.8 230.5,114.6 231.3,116.5 232.1,118.3 232.9,120.0 233.7,121.7 234.5,123.4 235.3,125.0 236.1,126.6 236.9,128.1 237.7,129.6 238.5,131.1 239.3,132.5 240.1,133.8 240.9,135.1 241.7,136.4 242.5,137.6 243.3,138.8 244.1,139.9 244.9,140.9 245.7,142.0 246.5,142.9 247.4,143.8 248.2,144.7 249.0,145.5 249.8,146.3 250.6,147.0 251.4,147.7 252.2,148.3 253.0,148.9 253.8,149.4 254.6,149.9 255.4,150.4 256.2,150.9 257.0,151.3" fill="none" stroke="#4a90d9" stroke-width="1.2" stroke-linejoin="round"/>
  <line x1="322" y1="12.0" x2="527" y2="12.0" stroke="#e5e7eb" stroke-width="0.5"/>
  <text x="318" y="15.0" text-anchor="end" font-size="7.5" fill="#6b7280">0</text>
  <line x1="322" y1="58.7" x2="527" y2="58.7" stroke="#e5e7eb" stroke-width="0.5"/>
  <text x="318" y="61.7" text-anchor="end" font-size="7.5" fill="#6b7280">-40</text>
  <line x1="322" y1="105.3" x2="527" y2="105.3" stroke="#e5e7eb" stroke-width="0.5"/>
  <text x="318" y="108.3" text-anchor="end" font-size="7.5" fill="#6b7280">-80</text>
  <line x1="322" y1="152.0" x2="527" y2="152.0" stroke="#e5e7eb" stroke-width="0.5"/>
  <text x="318" y="155.0" text-anchor="end" font-size="7.5" fill="#6b7280">-120</text>
  <line x1="322.0" y1="12" x2="322.0" y2="152" stroke="#e5e7eb" stroke-width="0.5"/>
  <text x="322.0" y="164" text-anchor="middle" font-size="7.5" fill="#6b7280">0</text>
  <line x1="363.0" y1="12" x2="363.0" y2="152" stroke="#e5e7eb" stroke-width="0.5"/>
  <text x="363.0" y="164" text-anchor="middle" font-size="7.5" fill="#6b7280">0.1</text>
  <line x1="404.0" y1="12" x2="404.0" y2="152" stroke="#e5e7eb" stroke-width="0.5"/>
  <text x="404.0" y="164" text-anchor="middle" font-size="7.5" fill="#6b7280">0.2</text>
  <line x1="445.0" y1="12" x2="445.0" y2="152" stroke="#e5e7eb" stroke-width="0.5"/>
  <text x="445.0" y="164" text-anchor="middle" font-size="7.5" fill="#6b7280">0.3</text>
  <line x1="486.0" y1="12" x2="486.0" y2="152" stroke="#e5e7eb" stroke-width="0.5"/>
  <text x="486.0" y="164" text-anchor="middle" font-size="7.5" fill="#6b7280">0.4</text>
  <line x1="527.0" y1="12" x2="527.0" y2="152" stroke="#e5e7eb" stroke-width="0.5"/>
  <text x="527.0" y="164" text-anchor="middle" font-size="7.5" fill="#6b7280">0.5</text>
  <line x1="322" y1="12" x2="322" y2="152" stroke="#d1d5db" stroke-width="0.75"/>
  <line x1="322" y1="152" x2="527" y2="152" stroke="#d1d5db" stroke-width="0.75"/>
  <polyline points="322.0,12.0 322.1,12.0 322.2,12.1 322.3,12.3 322.4,12.5 322.5,12.8 322.6,13.1 322.7,13.5 322.8,14.0 322.9,14.6 323.0,15.2 323.1,15.9 323.2,16.8 323.3,17.6 323.4,18.6 323.5,19.8 323.6,21.0 323.7,22.4 323.8,23.9 323.9,25.6 324.0,27.6 324.1,29.9 324.2,32.7 324.3,36.1 324.4,40.7 324.5,47.9 324.6,72.1 324.7,51.7 324.8,44.9 324.9,41.5 325.0,39.5 325.1,38.2 325.2,37.4 325.3,37.0 325.4,36.9 325.5,37.0 325.6,37.3 325.7,37.8 325.8,38.6 325.9,39.5 326.0,40.6 326.1,41.9 326.2,43.4 326.3,45.2 326.4,47.3 326.5,49.7 326.6,52.6 326.7,56.2 326.8,60.9 326.9,67.9 327.0,85.9 327.1,75.2 327.2,68.2 327.3,65.2 327.4,63.8 327.5,63.3 327.6,63.5 327.7,64.2 327.8,65.6 327.9,67.5 328.0,70.3 328.1,74.3 328.2,80.9 328.3,101.0 328.4,85.6 328.5,78.5 328.6,75.1 328.7,73.2 328.8,72.3 328.9,72.0 329.0,72.4 329.1,73.2 329.2,74.7 329.3,77.0 329.4,80.3 329.5,85.9 329.6,99.6 329.7,93.9 329.8,84.8 329.9,80.6 330.0,78.2 330.1,76.6 330.2,75.8 330.3,75.5 330.4,75.6 330.5,76.2 330.6,77.3 330.7,78.9 330.8,81.3 330.9,84.8 331.0,90.6 331.1,105.5 331.2,97.4 331.3,88.8 331.4,84.7 331.5,82.3 331.6,80.8 331.7,79.9 331.8,79.6 331.9,79.7 332.0,80.3 332.1,81.4 332.2,83.0 332.3,85.4 332.4,89.1 332.5,95.3 332.6,115.0 332.7,99.1 332.8,91.5 332.9,87.6 333.0,85.2 333.1,83.7 333.2,82.8 333.3,82.5 333.4,82.5 333.5,83.0 333.6,84.0 333.7,85.5 333.8,87.8 333.9,91.1 334.0,96.6 334.1,110.2 334.2,104.3 334.3,95.2 334.4,90.8 334.5,88.2 334.6,86.5 334.7,85.5 334.8,84.9 334.9,84.8 335.0,85.2 335.1,86.0 335.2,87.2 335.3,89.1 335.4,91.9 335.5,96.3 335.6,104.6 335.7,117.3 335.8,100.4 335.9,94.7 336.0,91.5 336.1,89.4 336.2,88.1 336.3,87.4 336.4,87.1 336.5,87.2 336.6,87.8 336.7,88.8 336.8,90.4 336.9,92.8 337.0,96.3 337.1,102.4 337.2,121.0 337.3,106.4 337.4,98.6 337.5,94.6 337.6,92.1 337.7,90.4 337.8,89.4 337.9,88.9 338.0,88.8 338.1,89.2 338.2,89.9 338.3,91.2 338.4,93.0 338.5,95.8 338.6,100.1 338.7,108.2 338.8,122.1 338.9,104.3 339.0,98.5 339.1,95.2 339.2,93.1 339.3,91.7 339.4,90.9 339.5,90.6 339.6,90.7 339.7,91.1 339.8,92.1 339.9,93.5 340.0,95.7 340.1,99.0 340.2,104.3 340.3,117.5 340.4,112.4 340.5,103.0 340.6,98.5 340.7,95.7 340.8,94.0 340.9,92.8 341.0,92.2 341.1,92.0 341.2,92.2 341.3,92.8 341.4,93.9 341.5,95.6 341.6,98.0 341.7,101.7 341.8,108.3 341.9,136.5 342.0,109.8 342.1,102.7 342.2,98.9 342.3,96.5 342.4,95.0 342.5,94.0 342.6,93.5 342.7,93.4 342.8,93.7 342.9,94.5 343.0,95.7 343.1,97.6 343.2,100.3 343.3,104.7 343.4,113.2 343.5,124.4 343.6,108.3 343.7,102.6 343.8,99.3 343.9,97.2 344.0,95.8 344.1,95.0 344.2,94.6 344.3,94.6 344.4,95.1 344.5,95.9 344.6,97.3 344.7,99.4 344.8,102.5 344.9,107.4 345.0,118.6 345.1,118.5 345.2,107.6 345.3,102.8 345.4,99.9 345.5,98.0 345.6,96.7 345.7,96.0 345.8,95.7 345.9,95.8 346.0,96.4 346.1,97.4 346.2,98.9 346.3,101.1 346.4,104.6 346.5,110.3 346.6,126.5 346.7,115.7 346.8,107.3 346.9,103.1 347.0,100.4 347.1,98.7 347.2,97.6 347.3,96.9 347.4,96.8 347.5,97.0 347.6,97.6 347.7,98.7 347.8,100.3 347.9,102.8 348.0,106.6 348.1,113.3 348.2,147.5 348.3,114.1 348.4,107.1 348.5,103.4 348.6,101.0 348.7,99.4 348.8,98.4 348.9,97.8 349.0,97.7 349.1,98.0 349.2,98.7 349.3,99.9 349.4,101.7 349.5,104.4 349.6,108.5 349.7,116.3 349.8,133.2 349.9,113.2 350.0,107.2 350.1,103.8 350.2,101.5 350.3,100.1 350.4,99.2 350.5,98.7 350.6,98.7 350.7,99.0 350.8,99.8 350.9,101.1 351.0,103.0 351.1,105.9 351.2,110.5 351.3,119.8 351.4,126.1 351.5,112.6 351.6,107.3 351.7,104.1 351.8,102.1 351.9,100.7 352.0,99.9 352.1,99.5 352.2,99.5 352.3,100.0 352.4,100.8 352.5,102.2 352.6,104.2 352.7,107.3 352.8,112.3 352.9,123.5 353.0,123.2 353.1,112.3 353.2,107.5 353.3,104.6 353.4,102.6 353.5,101.4 353.6,100.6 353.7,100.3 353.8,100.4 353.9,100.9 354.0,101.8 354.1,103.3 354.2,105.5 354.3,108.8 354.4,114.3 354.5,128.7 354.6,121.0 354.7,112.1 354.8,107.7 354.9,104.9 355.0,103.1 355.1,101.9 355.2,101.3 355.3,101.0 355.4,101.2 355.5,101.7 355.6,102.7 355.7,104.3 355.8,106.6 355.9,110.1 356.0,116.1 356.1,134.8 356.3,120.0 356.4,112.1 356.5,108.0 356.6,105.4 356.7,103.7 356.8,102.6 356.9,102.0 357.0,101.8 357.1,102.0 357.2,102.6 357.3,103.6 357.4,105.3 357.5,107.7 357.6,111.5 357.7,118.2 357.8,152.0 357.9,118.9 358.0,112.0 358.1,108.2 358.2,105.7 358.3,104.1 358.4,103.1 358.5,102.5 358.6,102.4 358.7,102.6 358.8,103.3 358.9,104.5 359.0,106.2 359.1,108.7 359.2,112.7 359.3,120.0 359.4,144.5 359.5,118.5 359.6,112.1 359.7,108.5 359.8,106.2 359.9,104.7 360.0,103.7 360.1,103.2 360.2,103.1 360.3,103.4 360.4,104.1 360.5,105.3 360.6,107.1 360.7,109.8 360.8,114.1 360.9,122.4 361.0,134.9 361.1,117.9 361.2,112.1 361.3,108.7 361.4,106.5 361.5,105.1 361.6,104.2 361.7,103.7 361.8,103.7 361.9,104.0 362.0,104.8 362.1,106.0 362.2,107.9 362.3,110.8 362.4,115.3 362.5,124.3 362.6,131.9 362.7,117.7 362.8,112.3 362.9,109.1 363.0,107.0 363.1,105.6 363.2,104.7 363.3,104.3 363.4,104.3 363.5,104.7 363.6,105.5 363.7,106.9 363.8,108.8 363.9,111.8 364.0,116.6 364.1,127.1 364.2,129.0 364.3,117.3 364.4,112.3 364.5,109.3 364.6,107.3 364.7,106.0 364.8,105.2 364.9,104.8 365.0,104.8 365.1,105.3 365.2,106.1 365.3,107.5 365.4,109.6 365.5,112.7 365.6,117.7 365.7,129.3 365.8,127.8 365.9,117.3 366.0,112.6 366.1,109.7 366.2,107.7 366.3,106.5 366.4,105.7 366.5,105.4 366.6,105.4 366.7,105.9 366.8,106.8 366.9,108.3 367.0,110.4 367.1,113.7 367.2,119.1 367.3,133.0 367.4,126.2 367.5,117.1 367.6,112.6 367.7,109.9 367.8,108.0 367.9,106.8 368.0,106.1 368.1,105.8 368.2,105.9 368.3,106.4 368.4,107.4 368.5,108.9 368.6,111.1 368.7,114.5 368.8,120.2 368.9,136.0 369.0,125.7 369.1,117.2 369.2,112.9 369.3,110.2 369.4,108.4 369.5,107.3 369.6,106.6 369.7,106.3 369.8,106.5 369.9,107.0 370.0,108.1 370.1,109.6 370.2,111.9 370.3,115.5 370.4,121.6 370.5,142.3 370.6,124.7 370.7,117.0 370.8,113.0 370.9,110.4 371.0,108.7 371.1,107.6 371.2,107.0 371.3,106.8 371.4,106.9 371.5,107.5 371.6,108.6 371.7,110.2 371.8,112.6 371.9,116.2 372.0,122.7 372.1,148.8 372.2,124.4 372.3,117.2 372.4,113.3 372.5,110.8 372.6,109.1 372.7,108.0 372.8,107.4 372.9,107.3 373.0,107.5 373.1,108.1 373.2,109.2 373.3,110.9 373.4,113.4 373.5,117.2 373.6,124.2 373.7,152.0 373.8,123.7 373.9,117.1 374.0,113.4 374.1,111.0 374.2,109.4 374.3,108.4 374.4,107.8 374.5,107.6 374.6,107.9 374.7,108.6 374.8,109.7 374.9,111.4 375.0,114.0 375.1,117.9 375.2,125.3 375.3,149.1 375.4,123.6 375.5,117.2 375.6,113.6 375.7,111.3 375.8,109.7 375.9,108.8 376.0,108.2 376.1,108.1 376.2,108.4 376.3,109.1 376.4,110.3 376.5,112.1 376.6,114.7 376.7,118.9 376.8,126.9 376.9,141.6 377.0,123.1 377.1,117.2 377.2,113.7 377.3,111.5 377.4,110.0 377.5,109.1 377.6,108.6 377.7,108.5 377.8,108.8 377.9,109.5 378.0,110.7 378.1,112.6 378.2,115.3 378.3,119.6 378.4,128.0 378.5,139.4 378.6,123.0 378.7,117.3 378.8,114.0 378.9,111.8 379.0,110.4 379.1,109.4 379.2,109.0 379.3,108.9 379.4,109.3 379.5,110.0 379.6,111.3 379.7,113.2 379.8,116.0 379.9,120.5 380.0,129.8 380.1,136.4 380.2,122.7 380.3,117.3 380.4,114.1 380.5,112.0 380.6,110.6 380.7,109.7 380.8,109.3 380.9,109.3 381.0,109.6 381.1,110.4 381.2,111.7 381.3,113.7 381.4,116.5 381.5,121.2 381.6,130.9 381.7,135.4 381.8,122.7 381.9,117.5 382.0,114.4 382.1,112.3 382.2,110.9 382.3,110.1 382.4,109.7 382.5,109.7 382.6,110.1 382.7,110.9 382.8,112.2 382.9,114.2 383.0,117.3 383.1,122.1 383.2,133.0 383.3,133.6 383.4,122.4 383.5,117.5 383.6,114.5 383.7,112.5 383.8,111.2 383.9,110.3 384.0,110.0 384.1,110.0 384.2,110.4 384.3,111.3 384.4,112.6 384.5,114.7 384.6,117.8 384.7,122.8 384.8,134.3 384.9,133.0 385.0,122.5 385.1,117.7 385.2,114.7 385.3,112.8 385.4,111.5 385.5,110.7 385.6,110.3 385.7,110.4 385.8,110.8 385.9,111.7 386.0,113.2 386.1,115.3 386.2,118.5 386.3,123.7 386.4,136.7 386.5,131.8 386.6,122.2 386.7,117.7 386.8,114.8 386.9,112.9 387.0,111.7 387.1,110.9 387.2,110.6 387.3,110.7 387.4,111.2 387.5,112.1 387.6,113.5 387.7,115.7 387.8,118.9 387.9,124.4 388.0,138.2 388.1,131.5 388.2,122.3 388.3,117.8 388.4,115.1 388.5,113.2 388.6,112.0 388.7,111.3 388.8,111.0 388.9,111.1 389.0,111.6 389.1,112.5 389.2,114.0 389.3,116.2 389.4,119.6 389.5,125.3 389.6,141.5 389.7,130.6 389.8,122.1 389.9,117.9 390.0,115.2 390.1,113.4 390.2,112.2 390.3,111.5 390.4,111.2 390.5,111.4 390.6,111.9 390.7,112.9 390.8,114.4 390.9,116.6 391.0,120.1 391.1,126.0 391.2,143.5 391.3,130.3 391.4,122.2 391.5,118.0 391.6,115.4 391.7,113.6 391.8,112.5 391.9,111.8 392.0,111.6 392.1,111.7 392.2,112.3 392.3,113.3 392.4,114.9 392.5,117.2 392.6,120.7 392.7,127.0 392.8,148.7 392.9,129.6 393.0,122.1 393.1,118.1 393.2,115.5 393.3,113.8 393.4,112.7 393.5,112.0 393.6,111.8 393.7,112.0 393.8,112.6 393.9,113.6 394.0,115.2 394.1,117.6 394.2,121.2 394.3,127.6 394.4,152.0 394.5,129.5 394.6,122.2 394.7,118.2 394.8,115.7 394.9,114.0 395.0,113.0 395.1,112.3 395.2,112.1 395.3,112.3 395.4,112.9 395.5,114.0 395.6,115.6 395.7,118.1 395.8,121.8 395.9,128.6 396.0,152.0 396.1,129.0 396.2,122.1 396.3,118.3 396.4,115.8 396.5,114.2 396.6,113.1 396.7,112.5 396.8,112.4 396.9,112.6 397.0,113.2 397.1,114.3 397.2,116.0 397.3,118.5 397.4,122.3 397.5,129.2 397.6,152.0 397.7,128.9 397.8,122.2 397.9,118.4 398.0,116.0 398.1,114.4 398.2,113.4 398.3,112.8 398.4,112.7 398.5,112.9 398.6,113.6 398.7,114.7 398.8,116.4 398.9,119.0 399.0,122.9 399.1,130.3 399.2,152.0 399.3,128.4 399.4,122.1 399.5,118.5 399.6,116.1 399.7,114.6 399.8,113.6 399.9,113.0 400.0,112.9 400.1,113.2 400.2,113.8 400.3,115.0 400.4,116.7 400.5,119.3 400.6,123.4 400.7,130.9 400.8,150.2 400.9,128.4 401.0,122.2 401.1,118.6 401.2,116.3 401.3,114.8 401.4,113.8 401.5,113.3 401.6,113.2 401.7,113.5 401.8,114.2 401.9,115.3 402.0,117.1 402.1,119.8 402.2,124.0 402.3,132.1 402.4,146.0 402.5,128.0 402.6,122.1 402.7,118.7 402.8,116.4 402.9,114.9 403.0,114.0 403.1,113.5 403.2,113.4 403.3,113.7 403.4,114.4 403.5,115.6 403.6,117.4 403.7,120.1 403.8,124.4 403.9,132.7 404.0,144.7 404.1,128.0 404.2,122.2 404.3,118.8 404.4,116.6 404.5,115.2 404.6,114.2 404.7,113.8 404.8,113.7 404.9,114.0 405.0,114.7 405.1,116.0 405.2,117.8 405.3,120.6 405.4,125.0 405.5,133.9 405.6,142.3 405.7,127.7 405.8,122.1 405.9,118.9 406.0,116.7 406.1,115.3 406.2,114.4 406.3,113.9 406.4,113.9 406.5,114.2 406.6,115.0 406.7,116.2 406.8,118.1 406.9,120.9 407.0,125.4 407.1,134.6 407.2,141.5 407.3,127.7 407.4,122.2 407.5,119.0 407.6,116.9 407.7,115.5 407.8,114.6 407.9,114.2 408.0,114.1 408.1,114.5 408.2,115.3 408.3,116.6 408.4,118.5 408.5,121.4 408.6,126.1 408.7,135.9 408.8,139.9 408.9,127.4 409.0,122.2 409.1,119.1 409.2,117.0 409.3,115.6 409.4,114.8 409.5,114.4 409.6,114.3 409.7,114.7 409.8,115.5 409.9,116.8 410.0,118.8 410.1,121.7 410.2,126.5 410.3,136.7 410.4,139.4 410.5,127.4 410.6,122.3 410.7,119.2 410.8,117.2 410.9,115.8 411.0,115.0 411.1,114.6 411.2,114.6 411.3,115.0 411.4,115.8 411.5,117.2 411.6,119.2 411.7,122.2 411.8,127.1 411.9,138.1 412.0,138.2 412.1,127.2 412.2,122.3 412.3,119.3 412.4,117.3 412.5,115.9 412.6,115.1 412.7,114.8 412.8,114.8 412.9,115.2 413.0,116.0 413.1,117.4 413.2,119.4 413.3,122.5 413.4,127.5 413.5,138.9 413.6,137.8 413.7,127.2 413.8,122.4 413.9,119.4 414.0,117.4 414.1,116.1 414.2,115.3 414.3,115.0 414.4,115.0 414.5,115.5 414.6,116.3 414.7,117.7 414.8,119.8 414.9,123.0 415.0,128.1 415.1,140.6 415.2,136.9 415.3,127.0 415.4,122.3 415.5,119.4 415.6,117.5 415.7,116.3 415.8,115.5 415.9,115.1 416.0,115.2 416.1,115.6 416.2,116.5 416.3,118.0 416.4,120.1 416.5,123.3 416.6,128.5 416.7,141.5 416.8,136.6 416.9,127.0 417.0,122.4 417.1,119.6 417.2,117.7 417.3,116.4 417.4,115.7 417.5,115.4 417.6,115.4 417.7,115.9 417.8,116.8 417.9,118.3 418.0,120.4 418.1,123.7 418.2,129.2 418.3,143.5 418.4,135.8 418.5,126.8 418.6,122.4 418.7,119.6 418.8,117.8 418.9,116.5 419.0,115.8 419.1,115.5 419.2,115.6 419.3,116.1 419.4,117.0 419.5,118.5 419.6,120.7 419.7,124.0 419.8,129.6 419.9,144.6 420.0,135.6 420.1,126.8 420.2,122.5 420.3,119.8 420.4,117.9 420.5,116.7 420.6,116.0 420.7,115.7 420.8,115.8 420.9,116.3 421.0,117.3 421.1,118.8 421.2,121.0 421.3,124.4 421.4,130.2 421.5,147.1 421.6,135.0 421.7,126.7 421.8,122.5 421.9,119.8 422.0,118.0 422.1,116.8 422.2,116.1 422.3,115.9 422.4,116.0 422.5,116.5 422.6,117.5 422.7,119.0 422.8,121.3 422.9,124.7 423.0,130.6 423.1,148.5 423.2,134.8 423.3,126.7 423.4,122.6 423.5,119.9 423.6,118.1 423.7,117.0 423.8,116.3 423.9,116.1 424.0,116.2 424.1,116.7 424.2,117.7 424.3,119.3 424.4,121.6 424.6,125.1 424.7,131.3 424.8,152.0 424.9,134.2 425.0,126.6 425.1,122.5 425.2,119.9 425.3,118.2 425.4,117.1 425.5,116.4 425.6,116.2 425.7,116.3 425.8,116.9 425.9,117.9 426.0,119.5 426.1,121.8 426.2,125.4 426.3,131.7 426.4,152.0 426.5,134.1 426.6,126.6 426.7,122.6 426.8,120.1 426.9,118.4 427.0,117.2 427.1,116.6 427.2,116.4 427.3,116.6 427.4,117.1 427.5,118.2 427.6,119.8 427.7,122.2 427.8,125.8 427.9,132.4 428.0,152.0 428.1,133.6 428.2,126.5 428.3,122.6 428.4,120.1 428.5,118.4 428.6,117.3 428.7,116.7 428.8,116.5 428.9,116.7 429.0,117.3 429.1,118.4 429.2,120.0 429.3,122.4 429.4,126.1 429.5,132.8 429.6,152.0 429.7,133.5 429.8,126.5 429.9,122.7 430.0,120.2 430.1,118.6 430.2,117.5 430.3,116.9 430.4,116.7 430.5,116.9 430.6,117.5 430.7,118.6 430.8,120.3 430.9,122.7 431.0,126.5 431.1,133.5 431.2,152.0 431.3,133.1 431.4,126.4 431.5,122.7 431.6,120.2 431.7,118.6 431.8,117.6 431.9,117.0 432.0,116.8 432.1,117.0 432.2,117.7 432.3,118.8 432.4,120.4 432.5,122.9 432.6,126.8 432.7,133.9 432.8,152.0 432.9,133.0 433.0,126.4 433.1,122.7 433.2,120.4 433.3,118.8 433.4,117.7 433.5,117.2 433.6,117.0 433.7,117.2 433.8,117.9 433.9,119.0 434.0,120.7 434.1,123.3 434.2,127.2 434.3,134.6 434.4,152.0 434.5,132.7 434.6,126.3 434.7,122.7 434.8,120.4 434.9,118.8 435.0,117.8 435.1,117.3 435.2,117.1 435.3,117.4 435.4,118.0 435.5,119.2 435.6,120.9 435.7,123.5 435.8,127.5 435.9,135.0 436.0,152.0 436.1,132.6 436.2,126.4 436.3,122.8 436.4,120.5 436.5,118.9 436.6,118.0 436.7,117.4 436.8,117.3 436.9,117.6 437.0,118.2 437.1,119.4 437.2,121.2 437.3,123.8 437.4,127.9 437.5,135.8 437.6,151.5 437.7,132.3 437.8,126.3 437.9,122.8 438.0,120.5 438.1,119.0 438.2,118.0 438.3,117.5 438.4,117.4 438.5,117.7 438.6,118.4 438.7,119.6 438.8,121.3 438.9,124.0 439.0,128.2 439.1,136.2 439.2,150.2 439.3,132.2 439.4,126.3 439.5,122.9 439.6,120.6 439.7,119.1 439.8,118.2 439.9,117.7 440.0,117.6 440.1,117.9 440.2,118.6 440.3,119.8 440.4,121.6 440.5,124.3 440.6,128.6 440.7,137.0 440.8,148.1 440.9,131.9 441.0,126.2 441.1,122.8 441.2,120.6 441.3,119.2 441.4,118.2 441.5,117.8 441.6,117.7 441.7,118.0 441.8,118.7 441.9,119.9 442.0,121.8 442.1,124.5 442.2,128.9 442.3,137.5 442.4,147.2 442.5,131.8 442.6,126.2 442.7,122.9 442.8,120.7 442.9,119.3 443.0,118.4 443.1,117.9 443.2,117.8 443.3,118.2 443.4,118.9 443.5,120.1 443.6,122.0 443.7,124.8 443.8,129.3 443.9,138.4 444.0,145.7 444.1,131.6 444.2,126.1 444.3,122.9 444.4,120.8 444.5,119.3 444.6,118.4 444.7,118.0 444.8,117.9 444.9,118.3 445.0,119.0 445.1,120.3 445.2,122.2 445.3,125.0 445.4,129.5 445.5,138.9 445.6,145.1 445.7,131.5 445.8,126.2 445.9,123.0 446.0,120.9 446.1,119.4 446.2,118.6 446.3,118.1 446.4,118.1 446.5,118.4 446.6,119.2 446.7,120.5 446.8,122.4 446.9,125.3 447.0,130.0 447.1,139.8 447.2,143.9 447.3,131.3 447.4,126.1 447.5,123.0 447.6,120.9 447.7,119.5 447.8,118.6 447.9,118.2 448.0,118.2 448.1,118.5 448.2,119.3 448.3,120.6 448.4,122.6 448.5,125.5 448.6,130.2 448.7,140.3 448.8,143.4 448.9,131.2 449.0,126.1 449.1,123.0 449.2,121.0 449.3,119.6 449.4,118.7 449.5,118.3 449.6,118.3 449.7,118.7 449.8,119.5 449.9,120.8 450.0,122.8 450.1,125.8 450.2,130.6 450.3,141.3 450.4,142.4 450.5,131.0 450.6,126.0 450.7,123.0 450.8,121.0 450.9,119.6 451.0,118.8 451.1,118.4 451.2,118.4 451.3,118.8 451.4,119.6 451.5,121.0 451.6,123.0 451.7,126.0 451.8,130.9 451.9,141.9 452.0,142.0 452.1,131.0 452.2,126.1 452.3,123.1 452.4,121.1 452.5,119.7 452.6,118.9 452.7,118.5 452.8,118.5 452.9,119.0 453.0,119.8 453.1,121.2 453.2,123.2 453.3,126.3 453.4,131.3 453.5,142.9 453.6,141.2 453.7,130.8 453.8,126.0 453.9,123.0 454.0,121.1 454.1,119.8 454.2,119.0 454.3,118.6 454.4,118.6 454.5,119.1 454.6,119.9 454.7,121.3 454.8,123.4 454.9,126.5 455.0,131.6 455.1,143.6 455.2,140.9 455.3,130.7 455.4,126.0 455.5,123.1 455.6,121.2 455.7,119.9 455.8,119.1 455.9,118.7 456.0,118.8 456.1,119.2 456.2,120.1 456.3,121.5 456.4,123.6 456.5,126.8 456.6,132.0 456.7,144.8 456.8,140.2 456.9,130.5 457.0,125.9 457.1,123.1 457.2,121.2 457.3,119.9 457.4,119.1 457.5,118.8 457.6,118.9 457.7,119.3 457.8,120.2 457.9,121.6 458.0,123.7 458.1,126.9 458.2,132.3 458.3,145.6 458.4,139.9 458.5,130.5 458.6,126.0 458.7,123.1 458.8,121.2 458.9,120.0 459.0,119.2 459.1,118.9 459.2,119.0 459.3,119.5 459.4,120.4 459.5,121.8 459.6,124.0 459.7,127.2 459.8,132.7 459.9,147.0 460.0,139.3 460.1,130.3 460.2,125.9 460.3,123.1 460.4,121.3 460.5,120.0 460.6,119.3 460.7,119.0 460.8,119.1 460.9,119.5 461.0,120.5 461.1,121.9 461.2,124.1 461.3,127.4 461.4,133.0 461.5,147.9 461.6,139.1 461.7,130.3 461.8,125.9 461.9,123.2 462.0,121.3 462.1,120.1 462.2,119.4 462.3,119.1 462.4,119.2 462.5,119.7 462.6,120.6 462.7,122.1 462.8,124.3 462.9,127.7 463.0,133.4 463.1,149.6 463.2,138.5 463.3,130.1 463.4,125.8 463.5,123.1 463.6,121.3 463.7,120.1 463.8,119.4 463.9,119.2 464.0,119.3 464.1,119.8 464.2,120.7 464.3,122.2 464.4,124.5 464.5,127.9 464.6,133.7 464.7,150.8 464.8,138.3 464.9,130.1 465.0,125.9 465.1,123.2 465.2,121.4 465.3,120.2 465.4,119.5 465.5,119.3 465.6,119.4 465.7,119.9 465.8,120.9 465.9,122.4 466.0,124.7 466.1,128.1 466.2,134.1 466.3,152.0 466.4,137.9 466.5,129.9 466.6,125.8 466.7,123.2 466.8,121.4 466.9,120.3 467.0,119.6 467.1,119.3 467.2,119.5 467.3,120.0 467.4,121.0 467.5,122.5 467.6,124.8 467.7,128.3 467.8,134.4 467.9,152.0 468.0,137.6 468.1,129.9 468.2,125.8 468.3,123.2 468.4,121.5 468.5,120.3 468.6,119.7 468.7,119.4 468.8,119.6 468.9,120.1 469.0,121.1 469.1,122.7 469.2,125.0 469.3,128.6 469.4,134.9 469.5,152.0 469.6,137.2 469.7,129.7 469.8,125.7 469.9,123.2 470.0,121.5 470.1,120.4 470.2,119.7 470.3,119.5 470.4,119.6 470.5,120.2 470.6,121.2 470.7,122.8 470.8,125.2 470.9,128.8 471.0,135.2 471.1,152.0 471.2,137.0 471.3,129.7 471.4,125.7 471.5,123.2 471.6,121.5 471.7,120.4 471.8,119.8 471.9,119.6 472.0,119.7 472.1,120.3 472.2,121.4 472.3,123.0 472.4,125.4 472.5,129.1 472.6,135.6 472.7,152.0 472.8,136.7 472.9,129.6 473.0,125.7 473.1,123.2 473.2,121.5 473.3,120.4 473.4,119.8 473.5,119.6 473.6,119.8 473.7,120.4 473.8,121.5 473.9,123.1 474.0,125.5 474.1,129.2 474.2,135.9 474.3,152.0 474.4,136.5 474.5,129.5 474.6,125.7 474.7,123.2 474.8,121.6 474.9,120.5 475.0,119.9 475.1,119.7 475.2,119.9 475.3,120.5 475.4,121.6 475.5,123.2 475.6,125.7 475.7,129.5 475.8,136.4 475.9,152.0 476.0,136.1 476.1,129.4 476.2,125.6 476.3,123.2 476.4,121.6 476.5,120.5 476.6,119.9 476.7,119.8 476.8,120.0 476.9,120.6 477.0,121.7 477.1,123.4 477.2,125.8 477.3,129.7 477.4,136.7 477.5,152.0 477.6,136.0 477.7,129.3 477.8,125.6 477.9,123.2 478.0,121.6 478.1,120.6 478.2,120.0 478.3,119.8 478.4,120.1 478.5,120.7 478.6,121.8 478.7,123.5 478.8,126.0 478.9,130.0 479.0,137.2 479.1,152.0 479.2,135.6 479.3,129.2 479.4,125.6 479.5,123.2 479.6,121.6 479.7,120.6 479.8,120.0 479.9,119.9 480.0,120.1 480.1,120.8 480.2,121.9 480.3,123.6 480.4,126.2 480.5,130.1 480.6,137.6 480.7,152.0 480.8,135.5 480.9,129.2 481.0,125.6 481.1,123.2 481.2,121.7 481.3,120.7 481.4,120.1 481.5,120.0 481.6,120.2 481.7,120.9 481.8,122.0 481.9,123.8 482.0,126.3 482.1,130.4 482.2,138.1 482.3,152.0 482.4,135.2 482.5,129.0 482.6,125.5 482.7,123.2 482.8,121.7 482.9,120.7 483.0,120.1 483.1,120.0 483.2,120.3 483.3,121.0 483.4,122.1 483.5,123.9 483.6,126.5 483.7,130.6 483.8,138.4 483.9,152.0 484.0,135.0 484.1,129.0 484.2,125.5 484.3,123.2 484.4,121.7 484.5,120.7 484.6,120.2 484.7,120.1 484.8,120.4 484.9,121.0 485.0,122.2 485.1,124.0 485.2,126.7 485.3,130.9 485.4,138.9 485.5,152.0 485.6,134.8 485.7,128.9 485.8,125.5 485.9,123.2 486.0,121.7 486.1,120.7 486.2,120.2 486.3,120.1 486.4,120.4 486.5,121.1 486.6,122.3 486.7,124.1 486.8,126.8 486.9,131.0 487.0,139.3 487.1,151.4 487.2,134.6 487.3,128.8 487.4,125.4 487.5,123.2 487.6,121.7 487.7,120.8 487.8,120.3 487.9,120.2 488.0,120.5 488.1,121.2 488.2,122.4 488.3,124.2 488.4,127.0 488.5,131.3 488.6,139.9 488.7,150.0 488.8,134.4 488.9,128.7 489.0,125.4 489.1,123.2 489.2,121.7 489.3,120.8 489.4,120.3 489.5,120.2 489.6,120.5 489.7,121.3 489.8,122.5 489.9,124.3 490.0,127.1 490.1,131.5 490.2,140.3 490.3,149.1 490.4,134.2 490.5,128.7 490.6,125.4 490.7,123.2 490.8,121.8 490.9,120.8 491.0,120.4 491.1,120.3 491.2,120.6 491.3,121.4 491.4,122.6 491.5,124.5 491.6,127.3 491.7,131.8 491.8,140.9 491.9,148.0 492.0,134.0 492.1,128.6 492.2,125.3 492.3,123.2 492.4,121.8 492.5,120.9 492.6,120.4 492.7,120.3 492.9,120.7 493.0,121.4 493.1,122.7 493.2,124.6 493.3,127.4 493.4,132.0 493.5,141.3 493.6,147.2 493.7,133.8 493.8,128.5 493.9,125.3 494.0,123.2 494.1,121.8 494.2,120.9 494.3,120.4 494.4,120.4 494.5,120.7 494.6,121.5 494.7,122.8 494.8,124.7 494.9,127.6 495.0,132.2 495.1,141.9 495.2,146.3 495.3,133.6 495.4,128.4 495.5,125.2 495.6,123.2 495.7,121.8 495.8,120.9 495.9,120.5 496.0,120.4 496.1,120.8 496.2,121.6 496.3,122.9 496.4,124.8 496.5,127.7 496.6,132.4 496.7,142.4 496.8,145.7 496.9,133.5 497.0,128.3 497.1,125.2 497.2,123.2 497.3,121.8 497.4,120.9 497.5,120.5 497.6,120.5 497.7,120.9 497.8,121.7 497.9,123.0 498.0,124.9 498.1,127.9 498.2,132.7 498.3,143.1 498.4,144.9 498.5,133.3 498.6,128.2 498.7,125.2 498.8,123.1 498.9,121.8 499.0,120.9 499.1,120.5 499.2,120.5 499.3,120.9 499.4,121.7 499.5,123.0 499.6,125.0 499.7,128.0 499.8,132.9 499.9,143.6 500.0,144.4 500.1,133.1 500.2,128.2 500.3,125.1 500.4,123.1 500.5,121.8 500.6,121.0 500.7,120.6 500.8,120.6 500.9,121.0 501.0,121.8 501.1,123.1 501.2,125.2 501.3,128.2 501.4,133.1 501.5,144.4 501.6,143.7 501.7,132.9 501.8,128.1 501.9,125.1 502.0,123.1 502.1,121.8 502.2,121.0 502.3,120.6 502.4,120.6 502.5,121.0 502.6,121.8 502.7,123.2 502.8,125.2 502.9,128.3 503.0,133.4 503.1,145.0 503.2,143.2 503.3,132.8 503.4,128.0 503.5,125.1 503.6,123.1 503.7,121.8 503.8,121.0 503.9,120.6 504.0,120.6 504.1,121.1 504.2,121.9 504.3,123.3 504.4,125.4 504.5,128.5 504.6,133.6 504.7,145.8 504.8,142.7 504.9,132.6 505.0,127.9 505.1,125.0 505.2,123.1 505.3,121.8 505.4,121.0 505.5,120.6 505.6,120.7 505.7,121.1 505.8,122.0 505.9,123.4 506.0,125.5 506.1,128.6 506.2,133.8 506.3,146.5 506.4,142.2 506.5,132.5 506.6,127.8 506.7,125.0 506.8,123.0 506.9,121.8 507.0,121.0 507.1,120.7 507.2,120.7 507.3,121.2 507.4,122.0 507.5,123.5 507.6,125.6 507.7,128.8 507.8,134.1 507.9,147.4 508.0,141.7 508.1,132.3 508.2,127.7 508.3,124.9 508.4,123.0 508.5,121.8 508.6,121.0 508.7,120.7 508.8,120.7 508.9,121.2 509.0,122.1 509.1,123.5 509.2,125.7 509.3,128.9 509.4,134.3 509.5,148.2 509.6,141.3 509.7,132.1 509.8,127.7 509.9,124.9 510.0,123.0 510.1,121.8 510.2,121.0 510.3,120.7 510.4,120.8 510.5,121.2 510.6,122.2 510.7,123.6 510.8,125.8 510.9,129.1 511.0,134.6 511.1,149.3 511.2,140.8 511.3,132.0 511.4,127.6 511.5,124.8 511.6,123.0 511.7,121.7 511.8,121.0 511.9,120.7 512.0,120.8 512.1,121.3 512.2,122.2 512.3,123.7 512.4,125.9 512.5,129.2 512.6,134.8 512.7,150.3 512.8,140.4 512.9,131.8 513.0,127.5 513.1,124.8 513.2,122.9 513.3,121.7 513.4,121.0 513.5,120.7 513.6,120.8 513.7,121.3 513.8,122.3 513.9,123.8 514.0,126.0 514.1,129.3 514.2,135.1 514.3,151.6 514.4,140.0 514.5,131.7 514.6,127.4 514.7,124.7 514.8,122.9 514.9,121.7 515.0,121.0 515.1,120.7 515.2,120.8 515.3,121.4 515.4,122.3 515.5,123.8 515.6,126.1 515.7,129.5 515.8,135.4 515.9,152.0 516.0,139.7 516.1,131.5 516.2,127.3 516.3,124.7 516.4,122.9 516.5,121.7 516.6,121.0 516.7,120.7 516.8,120.9 516.9,121.4 517.0,122.4 517.1,123.9 517.2,126.2 517.3,129.6 517.4,135.6 517.5,152.0 517.6,139.3 517.7,131.4 517.8,127.2 517.9,124.6 518.0,122.9 518.1,121.7 518.2,121.0 518.3,120.8 518.4,120.9 518.5,121.4 518.6,122.4 518.7,124.0 518.8,126.3 518.9,129.8 519.0,135.9 519.1,152.0 519.2,138.9 519.3,131.2 519.4,127.2 519.5,124.6 519.6,122.8 519.7,121.7 519.8,121.0 519.9,120.8 520.0,120.9 520.1,121.5 520.2,122.5 520.3,124.0 520.4,126.4 520.5,129.9 520.6,136.2 520.7,152.0 520.8,138.6 520.9,131.1 521.0,127.1 521.1,124.5 521.2,122.8 521.3,121.7 521.4,121.0 521.5,120.8 521.6,120.9 521.7,121.5 521.8,122.5 521.9,124.1 522.0,126.4 522.1,130.1 522.2,136.4 522.3,152.0 522.4,138.3 522.5,130.9 522.6,127.0 522.7,124.5 522.8,122.8 522.9,121.6 523.0,121.0 523.1,120.8 523.2,120.9 523.3,121.5 523.4,122.6 523.5,124.2 523.6,126.5 523.7,130.2 523.8,136.7 523.9,152.0 524.0,137.9 524.1,130.8 524.2,126.9 524.3,124.4 524.4,122.7 524.5,121.6 524.6,121.0 524.7,120.8 524.8,121.0 524.9,121.5 525.0,122.6 525.1,124.2 525.2,126.6 525.3,130.3 525.4,137.0 525.5,152.0 525.6,137.6 525.7,130.6 525.8,126.8 525.9,124.3 526.0,122.7 526.1,121.6 526.2,121.0 526.3,120.8 526.4,121.0 526.5,121.6 526.6,122.6 526.7,124.3 526.8,126.7 526.9,130.5 527.0,137.3" fill="none" stroke="#4a90d9" stroke-width="1.2" stroke-linejoin="round"/>
  <text x="154.5" y="176" text-anchor="middle" font-size="8" fill="#6b7280">n / N</text>
  <text x="424.5" y="176" text-anchor="middle" font-size="8" fill="#6b7280">Normalized frequency (× Fₛ)</text>
</svg>
