<svg xmlns="http://www.w3.org/2000/svg" viewBox="0 0 800 230" style="font-family:system-ui,-apple-system,sans-serif">
  <line x1="42" y1="182.0" x2="377" y2="182.0" stroke="#e5e7eb" stroke-width="0.7"/>
  <text x="37" y="186.0" text-anchor="end" font-size="10" fill="#6b7280">0</text>
  <line x1="42" y1="95.0" x2="377" y2="95.0" stroke="#e5e7eb" stroke-width="0.7"/>
  <text x="37" y="99.0" text-anchor="end" font-size="10" fill="#6b7280">0.5</text>
  <line x1="42" y1="8.0" x2="377" y2="8.0" stroke="#e5e7eb" stroke-width="0.7"/>
  <text x="37" y="12.0" text-anchor="end" font-size="10" fill="#6b7280">1</text>
  <line x1="42.0" y1="8" x2="42.0" y2="182" stroke="#e5e7eb" stroke-width="0.7"/>
  <text x="42.0" y="198" text-anchor="middle" font-size="10" fill="#6b7280">0</text>
  <line x1="209.5" y1="8" x2="209.5" y2="182" stroke="#e5e7eb" stroke-width="0.7"/>
  <text x="209.5" y="198" text-anchor="middle" font-size="10" fill="#6b7280">0.5</text>
  <line x1="377.0" y1="8" x2="377.0" y2="182" stroke="#e5e7eb" stroke-width="0.7"/>
  <text x="377.0" y="198" text-anchor="middle" font-size="10" fill="#6b7280">1</text>
  <line x1="42" y1="8" x2="42" y2="182" stroke="#d1d5db" stroke-width="1"/>
  <line x1="42" y1="182" x2="377" y2="182" stroke="#d1d5db" stroke-width="1"/>
  <path d="M42.0,182.0 42.0,181.8 43.3,181.7 44.6,181.6 45.9,181.5 47.3,181.4 48.6,181.3 49.9,181.2 51.2,181.0 52.5,180.9 53.8,180.7 55.1,180.5 56.5,180.3 57.8,180.1 59.1,179.8 60.4,179.6 61.7,179.3 63.0,179.0 64.3,178.6 65.6,178.3 67.0,177.9 68.3,177.5 69.6,177.0 70.9,176.6 72.2,176.1 73.5,175.6 74.8,175.0 76.2,174.4 77.5,173.8 78.8,173.1 80.1,172.4 81.4,171.7 82.7,171.0 84.0,170.2 85.4,169.3 86.7,168.4 88.0,167.5 89.3,166.6 90.6,165.6 91.9,164.5 93.2,163.4 94.5,162.3 95.9,161.1 97.2,159.9 98.5,158.7 99.8,157.4 101.1,156.0 102.4,154.6 103.7,153.2 105.1,151.7 106.4,150.2 107.7,148.6 109.0,147.0 110.3,145.4 111.6,143.7 112.9,141.9 114.3,140.1 115.6,138.3 116.9,136.4 118.2,134.5 119.5,132.6 120.8,130.6 122.1,128.5 123.5,126.5 124.8,124.4 126.1,122.2 127.4,120.1 128.7,117.9 130.0,115.6 131.3,113.4 132.6,111.1 134.0,108.8 135.3,106.4 136.6,104.1 137.9,101.7 139.2,99.3 140.5,96.9 141.8,94.4 143.2,92.0 144.5,89.5 145.8,87.1 147.1,84.6 148.4,82.2 149.7,79.7 151.0,77.2 152.4,74.8 153.7,72.3 155.0,69.9 156.3,67.4 157.6,65.0 158.9,62.6 160.2,60.2 161.5,57.9 162.9,55.6 164.2,53.2 165.5,51.0 166.8,48.7 168.1,46.5 169.4,44.4 170.7,42.2 172.1,40.2 173.4,38.1 174.7,36.1 176.0,34.2 177.3,32.3 178.6,30.5 179.9,28.7 181.3,27.0 182.6,25.4 183.9,23.8 185.2,22.3 186.5,20.8 187.8,19.4 189.1,18.1 190.5,16.9 191.8,15.7 193.1,14.6 194.4,13.6 195.7,12.7 197.0,11.9 198.3,11.1 199.6,10.4 201.0,9.8 202.3,9.3 203.6,8.9 204.9,8.5 206.2,8.3 207.5,8.1 208.8,8.0 210.2,8.0 211.5,8.1 212.8,8.3 214.1,8.5 215.4,8.9 216.7,9.3 218.0,9.8 219.4,10.4 220.7,11.1 222.0,11.9 223.3,12.7 224.6,13.6 225.9,14.6 227.2,15.7 228.5,16.9 229.9,18.1 231.2,19.4 232.5,20.8 233.8,22.3 235.1,23.8 236.4,25.4 237.7,27.0 239.1,28.7 240.4,30.5 241.7,32.3 243.0,34.2 244.3,36.1 245.6,38.1 246.9,40.2 248.3,42.2 249.6,44.4 250.9,46.5 252.2,48.7 253.5,51.0 254.8,53.2 256.1,55.6 257.5,57.9 258.8,60.2 260.1,62.6 261.4,65.0 262.7,67.4 264.0,69.9 265.3,72.3 266.6,74.8 268.0,77.2 269.3,79.7 270.6,82.2 271.9,84.6 273.2,87.1 274.5,89.5 275.8,92.0 277.2,94.4 278.5,96.9 279.8,99.3 281.1,101.7 282.4,104.1 283.7,106.4 285.0,108.8 286.4,111.1 287.7,113.4 289.0,115.6 290.3,117.9 291.6,120.1 292.9,122.2 294.2,124.4 295.5,126.5 296.9,128.5 298.2,130.6 299.5,132.6 300.8,134.5 302.1,136.4 303.4,138.3 304.7,140.1 306.1,141.9 307.4,143.7 308.7,145.4 310.0,147.0 311.3,148.6 312.6,150.2 313.9,151.7 315.3,153.2 316.6,154.6 317.9,156.0 319.2,157.4 320.5,158.7 321.8,159.9 323.1,161.1 324.5,162.3 325.8,163.4 327.1,164.5 328.4,165.6 329.7,166.6 331.0,167.5 332.3,168.4 333.6,169.3 335.0,170.2 336.3,171.0 337.6,171.7 338.9,172.4 340.2,173.1 341.5,173.8 342.8,174.4 344.2,175.0 345.5,175.6 346.8,176.1 348.1,176.6 349.4,177.0 350.7,177.5 352.0,177.9 353.4,178.3 354.7,178.6 356.0,179.0 357.3,179.3 358.6,179.6 359.9,179.8 361.2,180.1 362.5,180.3 363.9,180.5 365.2,180.7 366.5,180.9 367.8,181.0 369.1,181.2 370.4,181.3 371.7,181.4 373.1,181.5 374.4,181.6 375.7,181.7 377.0,181.8 L377.0,182.0 Z" fill="#4a90d9" fill-opacity="0.06"/>
  <polyline points="42.0,181.8 43.3,181.7 44.6,181.6 45.9,181.5 47.3,181.4 48.6,181.3 49.9,181.2 51.2,181.0 52.5,180.9 53.8,180.7 55.1,180.5 56.5,180.3 57.8,180.1 59.1,179.8 60.4,179.6 61.7,179.3 63.0,179.0 64.3,178.6 65.6,178.3 67.0,177.9 68.3,177.5 69.6,177.0 70.9,176.6 72.2,176.1 73.5,175.6 74.8,175.0 76.2,174.4 77.5,173.8 78.8,173.1 80.1,172.4 81.4,171.7 82.7,171.0 84.0,170.2 85.4,169.3 86.7,168.4 88.0,167.5 89.3,166.6 90.6,165.6 91.9,164.5 93.2,163.4 94.5,162.3 95.9,161.1 97.2,159.9 98.5,158.7 99.8,157.4 101.1,156.0 102.4,154.6 103.7,153.2 105.1,151.7 106.4,150.2 107.7,148.6 109.0,147.0 110.3,145.4 111.6,143.7 112.9,141.9 114.3,140.1 115.6,138.3 116.9,136.4 118.2,134.5 119.5,132.6 120.8,130.6 122.1,128.5 123.5,126.5 124.8,124.4 126.1,122.2 127.4,120.1 128.7,117.9 130.0,115.6 131.3,113.4 132.6,111.1 134.0,108.8 135.3,106.4 136.6,104.1 137.9,101.7 139.2,99.3 140.5,96.9 141.8,94.4 143.2,92.0 144.5,89.5 145.8,87.1 147.1,84.6 148.4,82.2 149.7,79.7 151.0,77.2 152.4,74.8 153.7,72.3 155.0,69.9 156.3,67.4 157.6,65.0 158.9,62.6 160.2,60.2 161.5,57.9 162.9,55.6 164.2,53.2 165.5,51.0 166.8,48.7 168.1,46.5 169.4,44.4 170.7,42.2 172.1,40.2 173.4,38.1 174.7,36.1 176.0,34.2 177.3,32.3 178.6,30.5 179.9,28.7 181.3,27.0 182.6,25.4 183.9,23.8 185.2,22.3 186.5,20.8 187.8,19.4 189.1,18.1 190.5,16.9 191.8,15.7 193.1,14.6 194.4,13.6 195.7,12.7 197.0,11.9 198.3,11.1 199.6,10.4 201.0,9.8 202.3,9.3 203.6,8.9 204.9,8.5 206.2,8.3 207.5,8.1 208.8,8.0 210.2,8.0 211.5,8.1 212.8,8.3 214.1,8.5 215.4,8.9 216.7,9.3 218.0,9.8 219.4,10.4 220.7,11.1 222.0,11.9 223.3,12.7 224.6,13.6 225.9,14.6 227.2,15.7 228.5,16.9 229.9,18.1 231.2,19.4 232.5,20.8 233.8,22.3 235.1,23.8 236.4,25.4 237.7,27.0 239.1,28.7 240.4,30.5 241.7,32.3 243.0,34.2 244.3,36.1 245.6,38.1 246.9,40.2 248.3,42.2 249.6,44.4 250.9,46.5 252.2,48.7 253.5,51.0 254.8,53.2 256.1,55.6 257.5,57.9 258.8,60.2 260.1,62.6 261.4,65.0 262.7,67.4 264.0,69.9 265.3,72.3 266.6,74.8 268.0,77.2 269.3,79.7 270.6,82.2 271.9,84.6 273.2,87.1 274.5,89.5 275.8,92.0 277.2,94.4 278.5,96.9 279.8,99.3 281.1,101.7 282.4,104.1 283.7,106.4 285.0,108.8 286.4,111.1 287.7,113.4 289.0,115.6 290.3,117.9 291.6,120.1 292.9,122.2 294.2,124.4 295.5,126.5 296.9,128.5 298.2,130.6 299.5,132.6 300.8,134.5 302.1,136.4 303.4,138.3 304.7,140.1 306.1,141.9 307.4,143.7 308.7,145.4 310.0,147.0 311.3,148.6 312.6,150.2 313.9,151.7 315.3,153.2 316.6,154.6 317.9,156.0 319.2,157.4 320.5,158.7 321.8,159.9 323.1,161.1 324.5,162.3 325.8,163.4 327.1,164.5 328.4,165.6 329.7,166.6 331.0,167.5 332.3,168.4 333.6,169.3 335.0,170.2 336.3,171.0 337.6,171.7 338.9,172.4 340.2,173.1 341.5,173.8 342.8,174.4 344.2,175.0 345.5,175.6 346.8,176.1 348.1,176.6 349.4,177.0 350.7,177.5 352.0,177.9 353.4,178.3 354.7,178.6 356.0,179.0 357.3,179.3 358.6,179.6 359.9,179.8 361.2,180.1 362.5,180.3 363.9,180.5 365.2,180.7 366.5,180.9 367.8,181.0 369.1,181.2 370.4,181.3 371.7,181.4 373.1,181.5 374.4,181.6 375.7,181.7 377.0,181.8" fill="none" stroke="#4a90d9" stroke-width="1.5" stroke-linejoin="round"/>
  <line x1="450" y1="8.0" x2="785" y2="8.0" stroke="#e5e7eb" stroke-width="0.7"/>
  <text x="445" y="12.0" text-anchor="end" font-size="10" fill="#6b7280">0</text>
  <line x1="450" y1="66.0" x2="785" y2="66.0" stroke="#e5e7eb" stroke-width="0.7"/>
  <text x="445" y="70.0" text-anchor="end" font-size="10" fill="#6b7280">-40</text>
  <line x1="450" y1="124.0" x2="785" y2="124.0" stroke="#e5e7eb" stroke-width="0.7"/>
  <text x="445" y="128.0" text-anchor="end" font-size="10" fill="#6b7280">-80</text>
  <line x1="450" y1="182.0" x2="785" y2="182.0" stroke="#e5e7eb" stroke-width="0.7"/>
  <text x="445" y="186.0" text-anchor="end" font-size="10" fill="#6b7280">-120</text>
  <line x1="450.0" y1="8" x2="450.0" y2="182" stroke="#e5e7eb" stroke-width="0.7"/>
  <text x="450.0" y="198" text-anchor="middle" font-size="10" fill="#6b7280">0</text>
  <line x1="517.0" y1="8" x2="517.0" y2="182" stroke="#e5e7eb" stroke-width="0.7"/>
  <text x="517.0" y="198" text-anchor="middle" font-size="10" fill="#6b7280">0.1</text>
  <line x1="584.0" y1="8" x2="584.0" y2="182" stroke="#e5e7eb" stroke-width="0.7"/>
  <text x="584.0" y="198" text-anchor="middle" font-size="10" fill="#6b7280">0.2</text>
  <line x1="651.0" y1="8" x2="651.0" y2="182" stroke="#e5e7eb" stroke-width="0.7"/>
  <text x="651.0" y="198" text-anchor="middle" font-size="10" fill="#6b7280">0.3</text>
  <line x1="718.0" y1="8" x2="718.0" y2="182" stroke="#e5e7eb" stroke-width="0.7"/>
  <text x="718.0" y="198" text-anchor="middle" font-size="10" fill="#6b7280">0.4</text>
  <line x1="785.0" y1="8" x2="785.0" y2="182" stroke="#e5e7eb" stroke-width="0.7"/>
  <text x="785.0" y="198" text-anchor="middle" font-size="10" fill="#6b7280">0.5</text>
  <line x1="450" y1="8" x2="450" y2="182" stroke="#d1d5db" stroke-width="1"/>
  <line x1="450" y1="182" x2="785" y2="182" stroke="#d1d5db" stroke-width="1"/>
  <polyline points="450.0,8.0 450.2,8.0 450.3,8.1 450.5,8.2 450.7,8.4 450.8,8.6 451.0,8.9 451.1,9.2 451.3,9.6 451.5,10.0 451.6,10.5 451.8,11.0 452.0,11.6 452.1,12.3 452.3,13.0 452.5,13.7 452.6,14.5 452.8,15.4 452.9,16.3 453.1,17.3 453.3,18.4 453.4,19.5 453.6,20.7 453.8,22.0 453.9,23.3 454.1,24.8 454.3,26.3 454.4,27.8 454.6,29.5 454.7,31.3 454.9,33.2 455.1,35.2 455.2,37.3 455.4,39.5 455.6,41.9 455.7,44.4 455.9,47.1 456.1,50.0 456.2,53.2 456.4,56.6 456.5,60.3 456.7,64.4 456.9,69.0 457.0,74.3 457.2,80.7 457.4,89.0 457.5,102.2 457.7,122.4 457.9,103.7 458.0,100.0 458.2,99.7 458.3,101.4 458.5,105.1 458.7,111.6 458.8,126.3 459.0,126.1 459.2,113.9 459.3,109.1 459.5,106.9 459.7,106.2 459.8,106.5 460.0,107.9 460.1,110.4 460.3,114.4 460.5,121.2 460.6,138.1 460.8,131.6 461.0,120.4 461.1,115.4 461.3,112.7 461.5,111.3 461.6,110.7 461.8,111.0 461.9,112.1 462.1,114.0 462.3,117.0 462.4,121.7 462.6,130.2 462.8,172.1 462.9,131.7 463.1,123.3 463.3,119.0 463.4,116.5 463.6,115.0 463.7,114.3 463.9,114.4 464.1,115.1 464.2,116.5 464.4,118.7 464.6,122.2 464.7,127.7 464.9,138.5 465.1,151.2 465.2,132.1 465.4,125.4 465.5,121.6 465.7,119.2 465.9,117.8 466.0,117.2 466.2,117.2 466.4,117.8 466.5,119.0 466.7,121.0 466.9,124.0 467.0,128.7 467.2,137.0 467.3,176.6 467.5,138.5 467.7,129.9 467.8,125.4 468.0,122.6 468.2,120.8 468.3,119.8 468.5,119.4 468.7,119.7 468.8,120.5 469.0,121.9 469.1,124.2 469.3,127.6 469.5,132.9 469.6,143.4 469.8,158.4 470.0,137.7 470.1,130.7 470.3,126.7 470.5,124.2 470.6,122.6 470.8,121.7 470.9,121.4 471.1,121.7 471.3,122.5 471.4,124.0 471.6,126.3 471.8,129.7 471.9,135.0 472.1,145.4 472.3,160.4 472.4,139.7 472.6,132.7 472.7,128.6 472.9,126.1 473.1,124.4 473.2,123.5 473.4,123.1 473.6,123.3 473.7,124.1 473.9,125.4 474.1,127.5 474.2,130.6 474.4,135.5 474.5,144.3 474.7,182.0 474.9,143.6 475.0,135.4 475.2,131.0 475.4,128.1 475.5,126.3 475.7,125.2 475.9,124.7 476.0,124.7 476.2,125.3 476.3,126.4 476.5,128.2 476.7,131.0 476.8,135.1 477.0,142.0 477.2,160.3 477.3,150.0 477.5,139.1 477.7,133.7 477.8,130.4 478.0,128.3 478.1,126.9 478.3,126.2 478.5,126.0 478.6,126.3 478.8,127.2 479.0,128.7 479.1,131.0 479.3,134.4 479.5,139.7 479.6,150.2 479.8,164.4 479.9,144.2 480.1,137.1 480.3,133.0 480.4,130.4 480.6,128.7 480.8,127.7 480.9,127.2 481.1,127.3 481.3,127.9 481.4,129.0 481.6,130.9 481.7,133.6 481.9,137.7 482.1,144.7 482.2,163.4 482.4,152.3 482.6,141.5 482.7,136.2 482.9,132.8 483.1,130.7 483.2,129.3 483.4,128.5 483.5,128.3 483.7,128.5 483.9,129.4 484.0,130.8 484.2,132.9 484.4,136.1 484.5,141.1 484.7,150.4 484.9,177.3 485.0,147.9 485.2,140.1 485.3,135.7 485.5,132.9 485.7,131.1 485.8,129.9 486.0,129.4 486.2,129.3 486.3,129.8 486.5,130.8 486.7,132.4 486.8,134.9 487.0,138.6 487.1,144.6 487.3,157.5 487.5,160.1 487.6,145.6 487.8,139.4 488.0,135.6 488.1,133.2 488.3,131.6 488.5,130.6 488.6,130.2 488.8,130.3 488.9,130.9 489.1,132.1 489.3,134.0 489.4,136.8 489.6,141.0 489.8,148.2 489.9,168.4 490.1,154.6 490.3,144.2 490.4,139.0 490.6,135.7 490.7,133.5 490.9,132.1 491.1,131.3 491.2,131.1 491.4,131.3 491.6,132.1 491.7,133.4 491.9,135.5 492.1,138.6 492.2,143.4 492.4,152.0 492.6,182.0 492.7,151.7 492.9,143.4 493.0,138.8 493.2,135.8 493.4,133.9 493.5,132.7 493.7,132.0 493.9,131.9 494.0,132.2 494.2,133.1 494.4,134.6 494.5,136.9 494.7,140.3 494.8,145.7 495.0,156.2 495.2,170.1 495.3,149.9 495.5,142.9 495.7,138.8 495.8,136.1 496.0,134.3 496.2,133.2 496.3,132.7 496.5,132.7 496.6,133.1 496.8,134.2 497.0,135.8 497.1,138.3 497.3,142.0 497.5,148.0 497.6,161.1 497.8,163.1 498.0,148.8 498.1,142.6 498.3,138.8 498.4,136.4 498.6,134.8 498.8,133.8 498.9,133.3 499.1,133.4 499.3,134.0 499.4,135.1 499.6,136.9 499.8,139.6 499.9,143.6 500.1,150.3 500.2,167.2 500.4,159.5 500.6,148.0 500.7,142.4 500.9,139.0 501.1,136.7 501.2,135.2 501.4,134.3 501.6,134.0 501.7,134.1 501.9,134.8 502.0,136.0 502.2,138.0 502.4,140.8 502.5,145.2 502.7,152.7 502.9,176.3 503.0,157.3 503.2,147.5 503.4,142.4 503.5,139.2 503.7,137.0 503.8,135.7 504.0,134.9 504.2,134.6 504.3,134.8 504.5,135.6 504.7,136.9 504.8,139.0 505.0,142.0 505.2,146.7 505.3,155.0 505.5,182.0 505.6,155.7 505.8,147.1 506.0,142.4 506.1,139.4 506.3,137.4 506.5,136.1 506.6,135.4 506.8,135.2 507.0,135.5 507.1,136.3 507.3,137.8 507.4,139.9 507.6,143.1 507.8,148.1 507.9,157.5 508.1,182.0 508.3,154.6 508.4,146.9 508.6,142.5 508.8,139.6 508.9,137.7 509.1,136.5 509.2,135.9 509.4,135.8 509.6,136.2 509.7,137.1 509.9,138.6 510.1,140.8 510.2,144.2 510.4,149.6 510.6,160.1 510.7,174.0 510.9,153.8 511.0,146.7 511.2,142.6 511.4,139.9 511.5,138.1 511.7,137.0 511.9,136.4 512.0,136.4 512.2,136.8 512.4,137.8 512.5,139.3 512.7,141.7 512.8,145.3 513.0,151.0 513.2,162.8 513.3,169.6 513.5,153.2 513.7,146.7 513.8,142.8 514.0,140.2 514.2,138.5 514.3,137.4 514.5,136.9 514.6,136.9 514.8,137.4 515.0,138.4 515.1,140.1 515.3,142.6 515.5,146.3 515.6,152.4 515.8,165.7 516.0,166.8 516.1,152.8 516.3,146.7 516.4,142.9 516.6,140.4 516.8,138.8 516.9,137.8 517.1,137.4 517.3,137.4 517.4,138.0 517.6,139.0 517.8,140.8 517.9,143.4 518.1,147.3 518.2,153.7 518.4,168.9 518.6,164.9 518.7,152.5 518.9,146.7 519.1,143.1 519.2,140.7 519.4,139.2 519.6,138.2 519.7,137.8 519.9,137.9 520.0,138.5 520.2,139.7 520.4,141.5 520.5,144.2 520.7,148.2 520.9,155.0 521.0,172.6 521.2,163.5 521.4,152.2 521.5,146.7 521.7,143.3 521.8,141.0 522.0,139.5 522.2,138.6 522.3,138.3 522.5,138.4 522.7,139.0 522.8,140.2 523.0,142.1 523.2,144.9 523.3,149.1 523.5,156.3 523.6,177.1 523.8,162.4 524.0,152.1 524.1,146.8 524.3,143.5 524.5,141.3 524.6,139.9 524.8,139.0 525.0,138.7 525.1,138.9 525.3,139.6 525.4,140.8 525.6,142.7 525.8,145.6 525.9,150.0 526.1,157.6 526.3,182.0 526.4,161.5 526.6,151.9 526.8,146.9 526.9,143.7 527.1,141.6 527.2,140.2 527.4,139.4 527.6,139.1 527.7,139.3 527.9,140.1 528.1,141.4 528.2,143.4 528.4,146.3 528.6,150.9 528.7,158.9 528.9,182.0 529.0,160.8 529.2,151.9 529.4,147.0 529.5,143.9 529.7,141.9 529.9,140.5 530.0,139.8 530.2,139.5 530.4,139.8 530.5,140.5 530.7,141.9 530.8,143.9 531.0,147.0 531.2,151.7 531.3,160.2 531.5,182.0 531.7,160.3 531.8,151.8 532.0,147.1 532.2,144.1 532.3,142.1 532.5,140.8 532.6,140.1 532.8,139.9 533.0,140.2 533.1,141.0 533.3,142.4 533.5,144.5 533.6,147.6 533.8,152.5 534.0,161.5 534.1,182.0 534.3,159.9 534.4,151.8 534.6,147.3 534.8,144.4 534.9,142.4 535.1,141.1 535.3,140.5 535.4,140.3 535.6,140.6 535.8,141.4 535.9,142.9 536.1,145.0 536.2,148.3 536.4,153.3 536.6,162.7 536.7,182.0 536.9,159.5 537.1,151.8 537.2,147.4 537.4,144.6 537.6,142.7 537.7,141.5 537.9,140.8 538.0,140.7 538.2,141.0 538.4,141.9 538.5,143.3 538.7,145.6 538.9,148.9 539.0,154.1 539.2,164.0 539.4,182.0 539.5,159.2 539.7,151.8 539.8,147.6 540.0,144.8 540.2,142.9 540.3,141.8 540.5,141.1 540.7,141.0 540.8,141.4 541.0,142.3 541.2,143.8 541.3,146.1 541.5,149.5 541.6,154.8 541.8,165.3 542.0,179.1 542.1,159.0 542.3,151.9 542.5,147.7 542.6,145.0 542.8,143.2 543.0,142.0 543.1,141.5 543.3,141.4 543.4,141.8 543.6,142.7 543.8,144.2 543.9,146.6 544.1,150.0 544.3,155.5 544.4,166.6 544.6,176.9 544.8,158.8 544.9,151.9 545.1,147.9 545.2,145.2 545.4,143.4 545.6,142.3 545.7,141.8 545.9,141.7 546.1,142.1 546.2,143.1 546.4,144.7 546.6,147.0 546.7,150.6 546.9,156.2 547.0,167.9 547.2,175.2 547.4,158.6 547.5,152.0 547.7,148.0 547.9,145.4 548.0,143.7 548.2,142.6 548.4,142.1 548.5,142.0 548.7,142.5 548.8,143.5 549.0,145.1 549.2,147.5 549.3,151.1 549.5,156.9 549.7,169.2 549.8,173.9 550.0,158.5 550.2,152.1 550.3,148.2 550.5,145.6 550.6,143.9 550.8,142.9 551.0,142.4 551.1,142.4 551.3,142.8 551.5,143.8 551.6,145.5 551.8,147.9 552.0,151.6 552.1,157.6 552.3,170.6 552.4,172.9 552.6,158.4 552.8,152.1 552.9,148.4 553.1,145.8 553.3,144.2 553.4,143.1 553.6,142.7 553.8,142.7 553.9,143.2 554.1,144.2 554.2,145.9 554.4,148.4 554.6,152.1 554.7,158.3 554.9,172.0 555.1,172.0 555.2,158.3 555.4,152.2 555.6,148.5 555.7,146.0 555.9,144.4 556.0,143.4 556.2,142.9 556.4,143.0 556.5,143.5 556.7,144.6 556.9,146.3 557.0,148.8 557.2,152.6 557.4,158.9 557.5,173.4 557.7,171.2 557.8,158.3 558.0,152.3 558.2,148.7 558.3,146.2 558.5,144.6 558.7,143.7 558.8,143.2 559.0,143.3 559.2,143.8 559.3,144.9 559.5,146.6 559.6,149.2 559.8,153.1 560.0,159.5 560.1,174.8 560.3,170.6 560.5,158.2 560.6,152.4 560.8,148.8 561.0,146.4 561.1,144.9 561.3,143.9 561.4,143.5 561.6,143.5 561.8,144.1 561.9,145.2 562.1,147.0 562.3,149.6 562.4,153.6 562.6,160.2 562.8,176.4 562.9,170.0 563.1,158.2 563.2,152.5 563.4,149.0 563.6,146.6 563.7,145.1 563.9,144.1 564.1,143.7 564.2,143.8 564.4,144.4 564.6,145.5 564.7,147.3 564.9,150.0 565.0,154.0 565.2,160.8 565.4,178.0 565.5,169.6 565.7,158.2 565.9,152.6 566.0,149.1 566.2,146.8 566.4,145.3 566.5,144.4 566.7,144.0 566.8,144.1 567.0,144.7 567.2,145.9 567.3,147.7 567.5,150.4 567.7,154.5 567.8,161.4 568.0,179.7 568.2,169.1 568.3,158.2 568.5,152.7 568.6,149.3 568.8,147.0 569.0,145.5 569.1,144.6 569.3,144.2 569.5,144.4 569.6,145.0 569.8,146.2 570.0,148.0 570.1,150.7 570.3,154.9 570.4,162.0 570.6,181.5 570.8,168.8 570.9,158.2 571.1,152.8 571.3,149.4 571.4,147.2 571.6,145.7 571.8,144.8 571.9,144.5 572.1,144.6 572.2,145.3 572.4,146.5 572.6,148.3 572.7,151.1 572.9,155.3 573.1,162.5 573.2,182.0 573.4,168.5 573.6,158.2 573.7,152.9 573.9,149.6 574.0,147.4 574.2,145.9 574.4,145.1 574.5,144.7 574.7,144.9 574.9,145.5 575.0,146.7 575.2,148.6 575.4,151.4 575.5,155.7 575.7,163.1 575.9,182.0 576.0,168.2 576.2,158.2 576.3,153.0 576.5,149.7 576.7,147.5 576.8,146.1 577.0,145.3 577.2,144.9 577.3,145.1 577.5,145.8 577.7,147.0 577.8,148.9 578.0,151.8 578.1,156.1 578.3,163.7 578.5,182.0 578.6,167.9 578.8,158.2 579.0,153.1 579.1,149.9 579.3,147.7 579.5,146.3 579.6,145.5 579.8,145.2 579.9,145.4 580.1,146.0 580.3,147.3 580.4,149.2 580.6,152.1 580.8,156.5 580.9,164.2 581.1,182.0 581.3,167.7 581.4,158.2 581.6,153.2 581.7,150.0 581.9,147.9 582.1,146.5 582.2,145.7 582.4,145.4 582.6,145.6 582.7,146.3 582.9,147.6 583.1,149.5 583.2,152.4 583.4,156.9 583.5,164.7 583.7,182.0 583.9,167.5 584.0,158.3 584.2,153.3 584.4,150.2 584.5,148.1 584.7,146.7 584.9,145.9 585.0,145.6 585.2,145.8 585.3,146.5 585.5,147.8 585.7,149.8 585.8,152.7 586.0,157.3 586.2,165.3 586.3,182.0 586.5,167.3 586.7,158.3 586.8,153.4 587.0,150.3 587.1,148.2 587.3,146.9 587.5,146.1 587.6,145.8 587.8,146.0 588.0,146.8 588.1,148.1 588.3,150.1 588.5,153.1 588.6,157.6 588.8,165.8 588.9,182.0 589.1,167.2 589.3,158.3 589.4,153.5 589.6,150.4 589.8,148.4 589.9,147.0 590.1,146.3 590.3,146.0 590.4,146.2 590.6,147.0 590.7,148.3 590.9,150.3 591.1,153.4 591.2,158.0 591.4,166.3 591.6,182.0 591.7,167.0 591.9,158.4 592.1,153.6 592.2,150.6 592.4,148.5 592.5,147.2 592.7,146.5 592.9,146.2 593.0,146.5 593.2,147.2 593.4,148.6 593.5,150.6 593.7,153.6 593.9,158.3 594.0,166.8 594.2,182.0 594.3,166.9 594.5,158.4 594.7,153.7 594.8,150.7 595.0,148.7 595.2,147.4 595.3,146.6 595.5,146.4 595.7,146.7 595.8,147.4 596.0,148.8 596.1,150.9 596.3,153.9 596.5,158.7 596.6,167.3 596.8,182.0 597.0,166.8 597.1,158.5 597.3,153.8 597.5,150.8 597.6,148.8 597.8,147.5 597.9,146.8 598.1,146.6 598.3,146.9 598.4,147.7 598.6,149.0 598.8,151.1 598.9,154.2 599.1,159.0 599.3,167.8 599.4,182.0 599.6,166.7 599.7,158.5 599.9,153.9 600.1,151.0 600.2,149.0 600.4,147.7 600.6,147.0 600.7,146.8 600.9,147.1 601.1,147.9 601.2,149.2 601.4,151.3 601.5,154.5 601.7,159.4 601.9,168.3 602.0,182.0 602.2,166.6 602.4,158.6 602.5,154.0 602.7,151.1 602.9,149.1 603.0,147.9 603.2,147.2 603.3,147.0 603.5,147.3 603.7,148.1 603.8,149.5 604.0,151.6 604.2,154.7 604.3,159.7 604.5,168.8 604.7,182.0 604.8,166.5 605.0,158.6 605.1,154.1 605.3,151.2 605.5,149.3 605.6,148.0 605.8,147.3 606.0,147.1 606.1,147.4 606.3,148.3 606.5,149.7 606.6,151.8 606.8,155.0 606.9,160.0 607.1,169.3 607.3,182.0 607.4,166.5 607.6,158.7 607.8,154.2 607.9,151.3 608.1,149.4 608.3,148.2 608.4,147.5 608.6,147.3 608.7,147.6 608.9,148.5 609.1,149.9 609.2,152.0 609.4,155.3 609.6,160.3 609.7,169.8 609.9,182.0 610.1,166.4 610.2,158.7 610.4,154.3 610.5,151.5 610.7,149.5 610.9,148.3 611.0,147.6 611.2,147.5 611.4,147.8 611.5,148.6 611.7,150.1 611.9,152.3 612.0,155.5 612.2,160.6 612.3,170.2 612.5,182.0 612.7,166.3 612.8,158.8 613.0,154.4 613.2,151.6 613.3,149.7 613.5,148.5 613.7,147.8 613.8,147.6 614.0,148.0 614.1,148.8 614.3,150.3 614.5,152.5 614.6,155.8 614.8,160.9 615.0,170.7 615.1,182.0 615.3,166.3 615.5,158.8 615.6,154.5 615.8,151.7 615.9,149.8 616.1,148.6 616.3,147.9 616.4,147.8 616.6,148.2 616.8,149.0 616.9,150.5 617.1,152.7 617.3,156.0 617.4,161.2 617.6,171.2 617.7,182.0 617.9,166.2 618.1,158.9 618.2,154.6 618.4,151.8 618.6,149.9 618.7,148.7 618.9,148.1 619.1,148.0 619.2,148.3 619.4,149.2 619.5,150.7 619.7,152.9 619.9,156.2 620.0,161.5 620.2,171.6 620.4,182.0 620.5,166.2 620.7,158.9 620.9,154.7 621.0,151.9 621.2,150.0 621.3,148.9 621.5,148.2 621.7,148.1 621.8,148.5 622.0,149.4 622.2,150.9 622.3,153.1 622.5,156.5 622.7,161.7 622.8,172.1 623.0,182.0 623.1,166.1 623.3,159.0 623.5,154.8 623.6,152.0 623.8,150.2 624.0,149.0 624.1,148.4 624.3,148.3 624.5,148.6 624.6,149.5 624.8,151.0 624.9,153.3 625.1,156.7 625.3,162.0 625.4,172.5 625.6,182.0 625.8,166.1 625.9,159.0 626.1,154.8 626.3,152.1 626.4,150.3 626.6,149.1 626.7,148.5 626.9,148.4 627.1,148.8 627.2,149.7 627.4,151.2 627.6,153.5 627.7,156.9 627.9,162.3 628.1,173.0 628.2,182.0 628.4,166.1 628.5,159.1 628.7,154.9 628.9,152.2 629.0,150.4 629.2,149.2 629.4,148.7 629.5,148.6 629.7,148.9 629.9,149.9 630.0,151.4 630.2,153.7 630.3,157.1 630.5,162.6 630.7,173.4 630.8,182.0 631.0,166.0 631.2,159.1 631.3,155.0 631.5,152.3 631.7,150.5 631.8,149.4 632.0,148.8 632.1,148.7 632.3,149.1 632.5,150.0 632.6,151.6 632.8,153.9 633.0,157.3 633.1,162.8 633.3,173.9 633.5,182.0 633.6,166.0 633.8,159.1 633.9,155.1 634.1,152.4 634.3,150.6 634.4,149.5 634.6,148.9 634.8,148.8 634.9,149.2 635.1,150.2 635.3,151.7 635.4,154.0 635.6,157.5 635.7,163.1 635.9,174.3 636.1,182.0 636.2,166.0 636.4,159.2 636.6,155.2 636.7,152.5 636.9,150.7 637.1,149.6 637.2,149.0 637.4,149.0 637.5,149.4 637.7,150.3 637.9,151.9 638.0,154.2 638.2,157.7 638.4,163.3 638.5,174.8 638.7,182.0 638.9,165.9 639.0,159.2 639.2,155.2 639.3,152.6 639.5,150.8 639.7,149.7 639.8,149.2 640.0,149.1 640.2,149.5 640.3,150.5 640.5,152.0 640.7,154.4 640.8,157.9 641.0,163.6 641.1,175.2 641.3,182.0 641.5,165.9 641.6,159.3 641.8,155.3 642.0,152.7 642.1,150.9 642.3,149.8 642.5,149.3 642.6,149.2 642.8,149.7 642.9,150.6 643.1,152.2 643.3,154.6 643.4,158.1 643.6,163.8 643.8,175.6 643.9,182.0 644.1,165.9 644.3,159.3 644.4,155.4 644.6,152.8 644.7,151.0 644.9,149.9 645.1,149.4 645.2,149.3 645.4,149.8 645.6,150.8 645.7,152.3 645.9,154.7 646.1,158.3 646.2,164.0 646.4,176.1 646.5,181.8 646.7,165.9 646.9,159.4 647.0,155.5 647.2,152.9 647.4,151.1 647.5,150.0 647.7,149.5 647.9,149.5 648.0,149.9 648.2,150.9 648.3,152.5 648.5,154.9 648.7,158.5 648.8,164.3 649.0,176.5 649.2,181.4 649.3,165.9 649.5,159.4 649.7,155.5 649.8,152.9 650.0,151.2 650.1,150.1 650.3,149.6 650.5,149.6 650.6,150.0 650.8,151.0 651.0,152.6 651.1,155.1 651.3,158.7 651.5,164.5 651.6,177.0 651.8,181.0 651.9,165.8 652.1,159.4 652.3,155.6 652.4,153.0 652.6,151.3 652.8,150.2 652.9,149.7 653.1,149.7 653.3,150.2 653.4,151.2 653.6,152.8 653.7,155.2 653.9,158.8 654.1,164.7 654.2,177.4 654.4,180.7 654.6,165.8 654.7,159.5 654.9,155.6 655.1,153.1 655.2,151.4 655.4,150.3 655.5,149.8 655.7,149.8 655.9,150.3 656.0,151.3 656.2,152.9 656.4,155.4 656.5,159.0 656.7,165.0 656.9,177.8 657.0,180.4 657.2,165.8 657.3,159.5 657.5,155.7 657.7,153.2 657.8,151.5 658.0,150.4 658.2,149.9 658.3,149.9 658.5,150.4 658.7,151.4 658.8,153.0 659.0,155.5 659.1,159.2 659.3,165.2 659.5,178.3 659.6,180.1 659.8,165.8 660.0,159.6 660.1,155.8 660.3,153.3 660.5,151.6 660.6,150.5 660.8,150.0 661.0,150.0 661.1,150.5 661.3,151.5 661.4,153.2 661.6,155.7 661.8,159.4 661.9,165.4 662.1,178.7 662.3,179.8 662.4,165.8 662.6,159.6 662.8,155.8 662.9,153.3 663.1,151.7 663.2,150.6 663.4,150.1 663.6,150.1 663.7,150.6 663.9,151.6 664.1,153.3 664.2,155.8 664.4,159.5 664.6,165.6 664.7,179.1 664.9,179.6 665.0,165.8 665.2,159.6 665.4,155.9 665.5,153.4 665.7,151.7 665.9,150.7 666.0,150.2 666.2,150.2 666.4,150.7 666.5,151.8 666.7,153.4 666.8,155.9 667.0,159.7 667.2,165.8 667.3,179.6 667.5,179.3 667.7,165.7 667.8,159.7 668.0,155.9 668.2,153.5 668.3,151.8 668.5,150.8 668.6,150.3 668.8,150.3 669.0,150.8 669.1,151.9 669.3,153.6 669.5,156.1 669.6,159.8 669.8,166.0 670.0,180.0 670.1,179.1 670.3,165.7 670.4,159.7 670.6,156.0 670.8,153.5 670.9,151.9 671.1,150.9 671.3,150.4 671.4,150.4 671.6,150.9 671.8,152.0 671.9,153.7 672.1,156.2 672.2,160.0 672.4,166.2 672.6,180.5 672.7,178.9 672.9,165.7 673.1,159.7 673.2,156.0 673.4,153.6 673.6,152.0 673.7,151.0 673.9,150.5 674.0,150.5 674.2,151.0 674.4,152.1 674.5,153.8 674.7,156.3 674.9,160.1 675.0,166.4 675.2,180.9 675.4,178.7 675.5,165.7 675.7,159.8 675.8,156.1 676.0,153.7 676.2,152.0 676.3,151.0 676.5,150.6 676.7,150.6 676.8,151.1 677.0,152.2 677.2,153.9 677.3,156.5 677.5,160.3 677.6,166.6 677.8,181.4 678.0,178.4 678.1,165.7 678.3,159.8 678.5,156.1 678.6,153.7 678.8,152.1 679.0,151.1 679.1,150.7 679.3,150.7 679.4,151.2 679.6,152.3 679.8,154.0 679.9,156.6 680.1,160.4 680.3,166.8 680.4,181.8 680.6,178.2 680.8,165.7 680.9,159.8 681.1,156.2 681.2,153.8 681.4,152.2 681.6,151.2 681.7,150.7 681.9,150.8 682.1,151.3 682.2,152.4 682.4,154.1 682.6,156.7 682.7,160.6 682.9,167.0 683.0,182.0 683.2,178.1 683.4,165.7 683.5,159.8 683.7,156.2 683.9,153.8 684.0,152.2 684.2,151.3 684.4,150.8 684.5,150.9 684.7,151.4 684.8,152.5 685.0,154.2 685.2,156.8 685.3,160.7 685.5,167.2 685.7,182.0 685.8,177.9 686.0,165.6 686.2,159.9 686.3,156.3 686.5,153.9 686.6,152.3 686.8,151.3 687.0,150.9 687.1,150.9 687.3,151.5 687.5,152.6 687.6,154.3 687.8,156.9 688.0,160.9 688.1,167.4 688.3,182.0 688.4,177.7 688.6,165.6 688.8,159.9 688.9,156.3 689.1,153.9 689.3,152.4 689.4,151.4 689.6,151.0 689.8,151.0 689.9,151.6 690.1,152.7 690.2,154.4 690.4,157.0 690.6,161.0 690.7,167.6 690.9,182.0 691.1,177.5 691.2,165.6 691.4,159.9 691.6,156.4 691.7,154.0 691.9,152.4 692.0,151.5 692.2,151.0 692.4,151.1 692.5,151.7 692.7,152.8 692.9,154.5 693.0,157.2 693.2,161.1 693.4,167.7 693.5,182.0 693.7,177.3 693.8,165.6 694.0,159.9 694.2,156.4 694.3,154.0 694.5,152.5 694.7,151.5 694.8,151.1 695.0,151.2 695.2,151.7 695.3,152.9 695.5,154.6 695.6,157.3 695.8,161.3 696.0,167.9 696.1,182.0 696.3,177.2 696.5,165.6 696.6,159.9 696.8,156.4 697.0,154.1 697.1,152.5 697.3,151.6 697.4,151.2 697.6,151.3 697.8,151.8 697.9,152.9 698.1,154.7 698.3,157.4 698.4,161.4 698.6,168.1 698.8,182.0 698.9,177.0 699.1,165.6 699.2,160.0 699.4,156.5 699.6,154.1 699.7,152.6 699.9,151.6 700.1,151.2 700.2,151.3 700.4,151.9 700.6,153.0 700.7,154.8 700.9,157.5 701.0,161.5 701.2,168.3 701.4,182.0 701.5,176.9 701.7,165.5 701.9,160.0 702.0,156.5 702.2,154.2 702.4,152.6 702.5,151.7 702.7,151.3 702.8,151.4 703.0,152.0 703.2,153.1 703.3,154.9 703.5,157.6 703.7,161.6 703.8,168.4 704.0,182.0 704.2,176.7 704.3,165.5 704.5,160.0 704.6,156.5 704.8,154.2 705.0,152.7 705.1,151.8 705.3,151.4 705.5,151.5 705.6,152.0 705.8,153.2 706.0,155.0 706.1,157.7 706.3,161.7 706.4,168.6 706.6,182.0 706.8,176.6 706.9,165.5 707.1,160.0 707.3,156.6 707.4,154.3 707.6,152.7 707.8,151.8 707.9,151.4 708.1,151.5 708.2,152.1 708.4,153.3 708.6,155.1 708.7,157.8 708.9,161.9 709.1,168.8 709.2,182.0 709.4,176.4 709.6,165.5 709.7,160.0 709.9,156.6 710.0,154.3 710.2,152.8 710.4,151.9 710.5,151.5 710.7,151.6 710.9,152.2 711.0,153.3 711.2,155.2 711.4,157.9 711.5,162.0 711.7,168.9 711.8,182.0 712.0,176.3 712.2,165.4 712.3,160.0 712.5,156.6 712.7,154.3 712.8,152.8 713.0,151.9 713.2,151.5 713.3,151.6 713.5,152.2 713.6,153.4 713.8,155.2 714.0,158.0 714.1,162.1 714.3,169.1 714.5,182.0 714.6,176.2 714.8,165.4 715.0,160.0 715.1,156.6 715.3,154.4 715.4,152.9 715.6,152.0 715.8,151.6 715.9,151.7 716.1,152.3 716.3,153.5 716.4,155.3 716.6,158.0 716.8,162.2 716.9,169.2 717.1,182.0 717.2,176.0 717.4,165.4 717.6,160.0 717.7,156.7 717.9,154.4 718.1,152.9 718.2,152.0 718.4,151.6 718.6,151.8 718.7,152.4 718.9,153.5 719.0,155.4 719.2,158.1 719.4,162.3 719.5,169.4 719.7,182.0 719.9,175.9 720.0,165.4 720.2,160.0 720.4,156.7 720.5,154.4 720.7,152.9 720.8,152.0 721.0,151.7 721.2,151.8 721.3,152.4 721.5,153.6 721.7,155.5 721.8,158.2 722.0,162.4 722.2,169.6 722.3,182.0 722.5,175.7 722.6,165.3 722.8,160.0 723.0,156.7 723.1,154.4 723.3,153.0 723.5,152.1 723.6,151.7 723.8,151.9 724.0,152.5 724.1,153.7 724.3,155.5 724.4,158.3 724.6,162.5 724.8,169.7 724.9,182.0 725.1,175.6 725.3,165.3 725.4,160.0 725.6,156.7 725.8,154.5 725.9,153.0 726.1,152.1 726.2,151.8 726.4,151.9 726.6,152.5 726.7,153.7 726.9,155.6 727.1,158.4 727.2,162.6 727.4,169.9 727.6,182.0 727.7,175.5 727.9,165.3 728.0,160.0 728.2,156.7 728.4,154.5 728.5,153.0 728.7,152.2 728.9,151.8 729.0,152.0 729.2,152.6 729.4,153.8 729.5,155.7 729.7,158.5 729.8,162.7 730.0,170.0 730.2,182.0 730.3,175.4 730.5,165.3 730.7,160.0 730.8,156.7 731.0,154.5 731.2,153.1 731.3,152.2 731.5,151.9 731.6,152.0 731.8,152.6 732.0,153.8 732.1,155.7 732.3,158.5 732.5,162.8 732.6,170.2 732.8,182.0 733.0,175.2 733.1,165.2 733.3,160.0 733.4,156.7 733.6,154.5 733.8,153.1 733.9,152.2 734.1,151.9 734.3,152.0 734.4,152.7 734.6,153.9 734.8,155.8 734.9,158.6 735.1,162.9 735.2,170.3 735.4,182.0 735.6,175.1 735.7,165.2 735.9,160.0 736.1,156.8 736.2,154.6 736.4,153.1 736.6,152.3 736.7,151.9 736.9,152.1 737.0,152.7 737.2,154.0 737.4,155.9 737.5,158.7 737.7,163.0 737.9,170.4 738.0,182.0 738.2,175.0 738.4,165.2 738.5,160.0 738.7,156.8 738.8,154.6 739.0,153.1 739.2,152.3 739.3,152.0 739.5,152.1 739.7,152.8 739.8,154.0 740.0,155.9 740.2,158.7 740.3,163.1 740.5,170.6 740.6,182.0 740.8,174.9 741.0,165.1 741.1,160.0 741.3,156.8 741.5,154.6 741.6,153.2 741.8,152.3 742.0,152.0 742.1,152.2 742.3,152.8 742.4,154.1 742.6,156.0 742.8,158.8 742.9,163.2 743.1,170.7 743.3,182.0 743.4,174.7 743.6,165.1 743.8,160.0 743.9,156.8 744.1,154.6 744.3,153.2 744.4,152.3 744.6,152.0 744.7,152.2 744.9,152.9 745.1,154.1 745.2,156.0 745.4,158.9 745.6,163.3 745.7,170.9 745.9,182.0 746.1,174.6 746.2,165.1 746.4,160.0 746.5,156.8 746.7,154.6 746.9,153.2 747.0,152.4 747.2,152.0 747.4,152.2 747.5,152.9 747.7,154.1 747.9,156.1 748.0,158.9 748.2,163.3 748.3,171.0 748.5,182.0 748.7,174.5 748.8,165.0 749.0,160.0 749.2,156.8 749.3,154.6 749.5,153.2 749.7,152.4 749.8,152.1 750.0,152.3 750.1,152.9 750.3,154.2 750.5,156.1 750.6,159.0 750.8,163.4 751.0,171.1 751.1,182.0 751.3,174.4 751.5,165.0 751.6,160.0 751.8,156.8 751.9,154.6 752.1,153.2 752.3,152.4 752.4,152.1 752.6,152.3 752.8,153.0 752.9,154.2 753.1,156.2 753.3,159.1 753.4,163.5 753.6,171.3 753.7,182.0 753.9,174.3 754.1,164.9 754.2,160.0 754.4,156.8 754.6,154.6 754.7,153.2 754.9,152.4 755.1,152.1 755.2,152.3 755.4,153.0 755.5,154.3 755.7,156.2 755.9,159.1 756.0,163.6 756.2,171.4 756.4,182.0 756.5,174.1 756.7,164.9 756.9,159.9 757.0,156.8 757.2,154.6 757.3,153.2 757.5,152.4 757.7,152.1 757.8,152.3 758.0,153.0 758.2,154.3 758.3,156.3 758.5,159.2 758.7,163.7 758.8,171.5 759.0,182.0 759.1,174.0 759.3,164.8 759.5,159.9 759.6,156.8 759.8,154.6 760.0,153.3 760.1,152.5 760.3,152.2 760.5,152.4 760.6,153.1 760.8,154.3 760.9,156.3 761.1,159.2 761.3,163.7 761.4,171.7 761.6,182.0 761.8,173.9 761.9,164.8 762.1,159.9 762.3,156.8 762.4,154.6 762.6,153.3 762.7,152.5 762.9,152.2 763.1,152.4 763.2,153.1 763.4,154.4 763.6,156.3 763.7,159.3 763.9,163.8 764.1,171.8 764.2,182.0 764.4,173.8 764.5,164.8 764.7,159.9 764.9,156.7 765.0,154.6 765.2,153.3 765.4,152.5 765.5,152.2 765.7,152.4 765.9,153.1 766.0,154.4 766.2,156.4 766.3,159.3 766.5,163.9 766.7,171.9 766.8,182.0 767.0,173.7 767.2,164.7 767.3,159.9 767.5,156.7 767.7,154.6 767.8,153.3 768.0,152.5 768.1,152.2 768.3,152.4 768.5,153.1 768.6,154.4 768.8,156.4 769.0,159.4 769.1,164.0 769.3,172.1 769.5,182.0 769.6,173.5 769.8,164.7 769.9,159.8 770.1,156.7 770.3,154.6 770.4,153.3 770.6,152.5 770.8,152.2 770.9,152.4 771.1,153.2 771.3,154.5 771.4,156.5 771.6,159.4 771.7,164.0 771.9,172.2 772.1,182.0 772.2,173.4 772.4,164.6 772.6,159.8 772.7,156.7 772.9,154.6 773.1,153.3 773.2,152.5 773.4,152.2 773.5,152.4 773.7,153.2 773.9,154.5 774.0,156.5 774.2,159.5 774.4,164.1 774.5,172.3 774.7,182.0 774.9,173.3 775.0,164.6 775.2,159.8 775.3,156.7 775.5,154.6 775.7,153.3 775.8,152.5 776.0,152.2 776.2,152.5 776.3,153.2 776.5,154.5 776.7,156.5 776.8,159.5 777.0,164.1 777.1,172.4 777.3,182.0 777.5,173.2 777.6,164.5 777.8,159.7 778.0,156.7 778.1,154.6 778.3,153.3 778.5,152.5 778.6,152.2 778.8,152.5 778.9,153.2 779.1,154.5 779.3,156.5 779.4,159.6 779.6,164.2 779.8,172.6 779.9,182.0 780.1,173.1 780.3,164.4 780.4,159.7 780.6,156.6 780.7,154.6 780.9,153.3 781.1,152.5 781.2,152.2 781.4,152.5 781.6,153.2 781.7,154.5 781.9,156.6 782.1,159.6 782.2,164.3 782.4,172.7 782.5,182.0 782.7,172.9 782.9,164.4 783.0,159.7 783.2,156.6 783.4,154.6 783.5,153.2 783.7,152.5 783.9,152.2 784.0,152.5 784.2,153.2 784.3,154.6 784.5,156.6 784.7,159.6 784.8,164.3 785.0,172.8" fill="none" stroke="#4a90d9" stroke-width="1.5" stroke-linejoin="round"/>
  <text x="209.5" y="214" text-anchor="middle" font-size="11" fill="#6b7280">n / N</text>
  <text x="617.5" y="214" text-anchor="middle" font-size="11" fill="#6b7280">Normalized frequency (× Fₛ)</text>
</svg>
