<svg xmlns="http://www.w3.org/2000/svg" viewBox="0 0 560 190" width="560" height="190" style="font-family:system-ui,-apple-system,sans-serif">
  <rect width="560" height="190" fill="#fafafa" rx="6"/>
  <line x1="52" y1="152.0" x2="257" y2="152.0" stroke="#e5e7eb" stroke-width="0.5"/>
  <text x="48" y="155.0" text-anchor="end" font-size="7.5" fill="#6b7280">0</text>
  <line x1="52" y1="82.0" x2="257" y2="82.0" stroke="#e5e7eb" stroke-width="0.5"/>
  <text x="48" y="85.0" text-anchor="end" font-size="7.5" fill="#6b7280">0.5</text>
  <line x1="52" y1="12.0" x2="257" y2="12.0" stroke="#e5e7eb" stroke-width="0.5"/>
  <text x="48" y="15.0" text-anchor="end" font-size="7.5" fill="#6b7280">1</text>
  <line x1="52.0" y1="12" x2="52.0" y2="152" stroke="#e5e7eb" stroke-width="0.5"/>
  <text x="52.0" y="164" text-anchor="middle" font-size="7.5" fill="#6b7280">0</text>
  <line x1="154.5" y1="12" x2="154.5" y2="152" stroke="#e5e7eb" stroke-width="0.5"/>
  <text x="154.5" y="164" text-anchor="middle" font-size="7.5" fill="#6b7280">0.5</text>
  <line x1="257.0" y1="12" x2="257.0" y2="152" stroke="#e5e7eb" stroke-width="0.5"/>
  <text x="257.0" y="164" text-anchor="middle" font-size="7.5" fill="#6b7280">1</text>
  <line x1="52" y1="12" x2="52" y2="152" stroke="#d1d5db" stroke-width="0.75"/>
  <line x1="52" y1="152" x2="257" y2="152" stroke="#d1d5db" stroke-width="0.75"/>
  <path d="M52.0,152.0 52.0,151.8 52.8,151.8 53.6,151.7 54.4,151.6 55.2,151.5 56.0,151.4 56.8,151.3 57.6,151.2 58.4,151.1 59.2,151.0 60.0,150.8 60.8,150.6 61.6,150.4 62.5,150.2 63.3,150.0 64.1,149.8 64.9,149.6 65.7,149.3 66.5,149.0 67.3,148.7 68.1,148.4 68.9,148.0 69.7,147.6 70.5,147.2 71.3,146.8 72.1,146.4 72.9,145.9 73.7,145.4 74.5,144.9 75.3,144.3 76.1,143.7 76.9,143.1 77.7,142.5 78.5,141.8 79.3,141.1 80.1,140.4 80.9,139.6 81.7,138.8 82.5,137.9 83.4,137.1 84.2,136.2 85.0,135.2 85.8,134.2 86.6,133.2 87.4,132.2 88.2,131.1 89.0,130.0 89.8,128.8 90.6,127.6 91.4,126.4 92.2,125.2 93.0,123.9 93.8,122.5 94.6,121.1 95.4,119.7 96.2,118.3 97.0,116.8 97.8,115.3 98.6,113.8 99.4,112.2 100.2,110.6 101.0,109.0 101.8,107.3 102.6,105.6 103.5,103.9 104.3,102.2 105.1,100.4 105.9,98.6 106.7,96.8 107.5,94.9 108.3,93.1 109.1,91.2 109.9,89.3 110.7,87.4 111.5,85.4 112.3,83.5 113.1,81.5 113.9,79.6 114.7,77.6 115.5,75.6 116.3,73.6 117.1,71.7 117.9,69.7 118.7,67.7 119.5,65.7 120.3,63.7 121.1,61.8 121.9,59.8 122.7,57.9 123.5,55.9 124.4,54.0 125.2,52.1 126.0,50.3 126.8,48.4 127.6,46.6 128.4,44.8 129.2,43.0 130.0,41.3 130.8,39.6 131.6,37.9 132.4,36.2 133.2,34.6 134.0,33.1 134.8,31.6 135.6,30.1 136.4,28.7 137.2,27.3 138.0,26.0 138.8,24.7 139.6,23.5 140.4,22.3 141.2,21.2 142.0,20.1 142.8,19.2 143.6,18.2 144.5,17.3 145.3,16.5 146.1,15.8 146.9,15.1 147.7,14.5 148.5,13.9 149.3,13.5 150.1,13.0 150.9,12.7 151.7,12.4 152.5,12.2 153.3,12.1 154.1,12.0 154.9,12.0 155.7,12.1 156.5,12.2 157.3,12.4 158.1,12.7 158.9,13.0 159.7,13.5 160.5,13.9 161.3,14.5 162.1,15.1 162.9,15.8 163.7,16.5 164.5,17.3 165.4,18.2 166.2,19.2 167.0,20.1 167.8,21.2 168.6,22.3 169.4,23.5 170.2,24.7 171.0,26.0 171.8,27.3 172.6,28.7 173.4,30.1 174.2,31.6 175.0,33.1 175.8,34.6 176.6,36.2 177.4,37.9 178.2,39.6 179.0,41.3 179.8,43.0 180.6,44.8 181.4,46.6 182.2,48.4 183.0,50.3 183.8,52.1 184.6,54.0 185.5,55.9 186.3,57.9 187.1,59.8 187.9,61.8 188.7,63.7 189.5,65.7 190.3,67.7 191.1,69.7 191.9,71.7 192.7,73.6 193.5,75.6 194.3,77.6 195.1,79.6 195.9,81.5 196.7,83.5 197.5,85.4 198.3,87.4 199.1,89.3 199.9,91.2 200.7,93.1 201.5,94.9 202.3,96.8 203.1,98.6 203.9,100.4 204.7,102.2 205.5,103.9 206.4,105.6 207.2,107.3 208.0,109.0 208.8,110.6 209.6,112.2 210.4,113.8 211.2,115.3 212.0,116.8 212.8,118.3 213.6,119.7 214.4,121.1 215.2,122.5 216.0,123.9 216.8,125.2 217.6,126.4 218.4,127.6 219.2,128.8 220.0,130.0 220.8,131.1 221.6,132.2 222.4,133.2 223.2,134.2 224.0,135.2 224.8,136.2 225.6,137.1 226.5,137.9 227.3,138.8 228.1,139.6 228.9,140.4 229.7,141.1 230.5,141.8 231.3,142.5 232.1,143.1 232.9,143.7 233.7,144.3 234.5,144.9 235.3,145.4 236.1,145.9 236.9,146.4 237.7,146.8 238.5,147.2 239.3,147.6 240.1,148.0 240.9,148.4 241.7,148.7 242.5,149.0 243.3,149.3 244.1,149.6 244.9,149.8 245.7,150.0 246.5,150.2 247.4,150.4 248.2,150.6 249.0,150.8 249.8,151.0 250.6,151.1 251.4,151.2 252.2,151.3 253.0,151.4 253.8,151.5 254.6,151.6 255.4,151.7 256.2,151.8 257.0,151.8 L257.0,152.0 Z" fill="#4a90d9" fill-opacity="0.06"/>
  <polyline points="52.0,151.8 52.8,151.8 53.6,151.7 54.4,151.6 55.2,151.5 56.0,151.4 56.8,151.3 57.6,151.2 58.4,151.1 59.2,151.0 60.0,150.8 60.8,150.6 61.6,150.4 62.5,150.2 63.3,150.0 64.1,149.8 64.9,149.6 65.7,149.3 66.5,149.0 67.3,148.7 68.1,148.4 68.9,148.0 69.7,147.6 70.5,147.2 71.3,146.8 72.1,146.4 72.9,145.9 73.7,145.4 74.5,144.9 75.3,144.3 76.1,143.7 76.9,143.1 77.7,142.5 78.5,141.8 79.3,141.1 80.1,140.4 80.9,139.6 81.7,138.8 82.5,137.9 83.4,137.1 84.2,136.2 85.0,135.2 85.8,134.2 86.6,133.2 87.4,132.2 88.2,131.1 89.0,130.0 89.8,128.8 90.6,127.6 91.4,126.4 92.2,125.2 93.0,123.9 93.8,122.5 94.6,121.1 95.4,119.7 96.2,118.3 97.0,116.8 97.8,115.3 98.6,113.8 99.4,112.2 100.2,110.6 101.0,109.0 101.8,107.3 102.6,105.6 103.5,103.9 104.3,102.2 105.1,100.4 105.9,98.6 106.7,96.8 107.5,94.9 108.3,93.1 109.1,91.2 109.9,89.3 110.7,87.4 111.5,85.4 112.3,83.5 113.1,81.5 113.9,79.6 114.7,77.6 115.5,75.6 116.3,73.6 117.1,71.7 117.9,69.7 118.7,67.7 119.5,65.7 120.3,63.7 121.1,61.8 121.9,59.8 122.7,57.9 123.5,55.9 124.4,54.0 125.2,52.1 126.0,50.3 126.8,48.4 127.6,46.6 128.4,44.8 129.2,43.0 130.0,41.3 130.8,39.6 131.6,37.9 132.4,36.2 133.2,34.6 134.0,33.1 134.8,31.6 135.6,30.1 136.4,28.7 137.2,27.3 138.0,26.0 138.8,24.7 139.6,23.5 140.4,22.3 141.2,21.2 142.0,20.1 142.8,19.2 143.6,18.2 144.5,17.3 145.3,16.5 146.1,15.8 146.9,15.1 147.7,14.5 148.5,13.9 149.3,13.5 150.1,13.0 150.9,12.7 151.7,12.4 152.5,12.2 153.3,12.1 154.1,12.0 154.9,12.0 155.7,12.1 156.5,12.2 157.3,12.4 158.1,12.7 158.9,13.0 159.7,13.5 160.5,13.9 161.3,14.5 162.1,15.1 162.9,15.8 163.7,16.5 164.5,17.3 165.4,18.2 166.2,19.2 167.0,20.1 167.8,21.2 168.6,22.3 169.4,23.5 170.2,24.7 171.0,26.0 171.8,27.3 172.6,28.7 173.4,30.1 174.2,31.6 175.0,33.1 175.8,34.6 176.6,36.2 177.4,37.9 178.2,39.6 179.0,41.3 179.8,43.0 180.6,44.8 181.4,46.6 182.2,48.4 183.0,50.3 183.8,52.1 184.6,54.0 185.5,55.9 186.3,57.9 187.1,59.8 187.9,61.8 188.7,63.7 189.5,65.7 190.3,67.7 191.1,69.7 191.9,71.7 192.7,73.6 193.5,75.6 194.3,77.6 195.1,79.6 195.9,81.5 196.7,83.5 197.5,85.4 198.3,87.4 199.1,89.3 199.9,91.2 200.7,93.1 201.5,94.9 202.3,96.8 203.1,98.6 203.9,100.4 204.7,102.2 205.5,103.9 206.4,105.6 207.2,107.3 208.0,109.0 208.8,110.6 209.6,112.2 210.4,113.8 211.2,115.3 212.0,116.8 212.8,118.3 213.6,119.7 214.4,121.1 215.2,122.5 216.0,123.9 216.8,125.2 217.6,126.4 218.4,127.6 219.2,128.8 220.0,130.0 220.8,131.1 221.6,132.2 222.4,133.2 223.2,134.2 224.0,135.2 224.8,136.2 225.6,137.1 226.5,137.9 227.3,138.8 228.1,139.6 228.9,140.4 229.7,141.1 230.5,141.8 231.3,142.5 232.1,143.1 232.9,143.7 233.7,144.3 234.5,144.9 235.3,145.4 236.1,145.9 236.9,146.4 237.7,146.8 238.5,147.2 239.3,147.6 240.1,148.0 240.9,148.4 241.7,148.7 242.5,149.0 243.3,149.3 244.1,149.6 244.9,149.8 245.7,150.0 246.5,150.2 247.4,150.4 248.2,150.6 249.0,150.8 249.8,151.0 250.6,151.1 251.4,151.2 252.2,151.3 253.0,151.4 253.8,151.5 254.6,151.6 255.4,151.7 256.2,151.8 257.0,151.8" fill="none" stroke="#4a90d9" stroke-width="1.2" stroke-linejoin="round"/>
  <line x1="322" y1="12.0" x2="527" y2="12.0" stroke="#e5e7eb" stroke-width="0.5"/>
  <text x="318" y="15.0" text-anchor="end" font-size="7.5" fill="#6b7280">0</text>
  <line x1="322" y1="58.7" x2="527" y2="58.7" stroke="#e5e7eb" stroke-width="0.5"/>
  <text x="318" y="61.7" text-anchor="end" font-size="7.5" fill="#6b7280">-40</text>
  <line x1="322" y1="105.3" x2="527" y2="105.3" stroke="#e5e7eb" stroke-width="0.5"/>
  <text x="318" y="108.3" text-anchor="end" font-size="7.5" fill="#6b7280">-80</text>
  <line x1="322" y1="152.0" x2="527" y2="152.0" stroke="#e5e7eb" stroke-width="0.5"/>
  <text x="318" y="155.0" text-anchor="end" font-size="7.5" fill="#6b7280">-120</text>
  <line x1="322.0" y1="12" x2="322.0" y2="152" stroke="#e5e7eb" stroke-width="0.5"/>
  <text x="322.0" y="164" text-anchor="middle" font-size="7.5" fill="#6b7280">0</text>
  <line x1="363.0" y1="12" x2="363.0" y2="152" stroke="#e5e7eb" stroke-width="0.5"/>
  <text x="363.0" y="164" text-anchor="middle" font-size="7.5" fill="#6b7280">0.1</text>
  <line x1="404.0" y1="12" x2="404.0" y2="152" stroke="#e5e7eb" stroke-width="0.5"/>
  <text x="404.0" y="164" text-anchor="middle" font-size="7.5" fill="#6b7280">0.2</text>
  <line x1="445.0" y1="12" x2="445.0" y2="152" stroke="#e5e7eb" stroke-width="0.5"/>
  <text x="445.0" y="164" text-anchor="middle" font-size="7.5" fill="#6b7280">0.3</text>
  <line x1="486.0" y1="12" x2="486.0" y2="152" stroke="#e5e7eb" stroke-width="0.5"/>
  <text x="486.0" y="164" text-anchor="middle" font-size="7.5" fill="#6b7280">0.4</text>
  <line x1="527.0" y1="12" x2="527.0" y2="152" stroke="#e5e7eb" stroke-width="0.5"/>
  <text x="527.0" y="164" text-anchor="middle" font-size="7.5" fill="#6b7280">0.5</text>
  <line x1="322" y1="12" x2="322" y2="152" stroke="#d1d5db" stroke-width="0.75"/>
  <line x1="322" y1="152" x2="527" y2="152" stroke="#d1d5db" stroke-width="0.75"/>
  <polyline points="322.0,12.0 322.1,12.0 322.2,12.1 322.3,12.2 322.4,12.3 322.5,12.5 322.6,12.7 322.7,13.0 322.8,13.3 322.9,13.6 323.0,14.0 323.1,14.4 323.2,14.9 323.3,15.4 323.4,16.0 323.5,16.6 323.6,17.3 323.7,18.0 323.8,18.7 323.9,19.5 324.0,20.4 324.1,21.3 324.2,22.2 324.3,23.3 324.4,24.3 324.5,25.5 324.6,26.7 324.7,28.0 324.8,29.3 324.9,30.7 325.0,32.3 325.1,33.9 325.2,35.6 325.3,37.4 325.4,39.3 325.5,41.3 325.6,43.5 325.7,45.8 325.8,48.3 325.9,51.1 326.0,54.1 326.1,57.4 326.2,61.1 326.3,65.4 326.4,70.5 326.5,77.2 326.6,87.8 326.7,104.0 326.8,89.0 326.9,86.0 327.0,85.8 327.1,87.2 327.2,90.1 327.3,95.4 327.4,107.2 327.5,107.1 327.6,97.2 327.7,93.4 327.8,91.6 327.9,91.0 328.0,91.3 328.1,92.4 328.2,94.4 328.3,97.6 328.4,103.1 328.5,116.7 328.6,111.4 328.7,102.5 328.8,98.5 328.9,96.2 329.0,95.1 329.1,94.7 329.2,94.9 329.3,95.7 329.4,97.3 329.5,99.7 329.6,103.5 329.7,110.3 329.8,144.0 329.9,111.5 330.0,104.8 330.1,101.3 330.2,99.3 330.3,98.1 330.4,97.6 330.5,97.6 330.6,98.2 330.7,99.3 330.8,101.1 330.9,103.9 331.0,108.3 331.1,117.0 331.2,127.2 331.3,111.8 331.4,106.4 331.5,103.4 331.6,101.5 331.7,100.4 331.8,99.9 331.9,99.8 332.0,100.3 332.1,101.3 332.2,102.9 332.3,105.3 332.4,109.1 332.5,115.8 332.6,147.6 332.7,117.0 332.8,110.1 332.9,106.4 333.0,104.2 333.1,102.8 333.2,102.0 333.3,101.7 333.4,101.8 333.5,102.5 333.6,103.7 333.7,105.5 333.8,108.2 333.9,112.5 334.0,120.9 334.1,133.0 334.2,116.4 334.3,110.7 334.4,107.5 334.5,105.5 334.6,104.2 334.7,103.5 334.8,103.3 334.9,103.5 335.0,104.1 335.1,105.3 335.2,107.2 335.3,109.9 335.4,114.2 335.5,122.6 335.6,134.6 335.7,118.0 335.8,112.3 335.9,109.1 336.0,107.0 336.1,105.7 336.2,104.9 336.3,104.6 336.4,104.8 336.5,105.4 336.6,106.5 336.7,108.2 336.8,110.7 336.9,114.6 337.0,121.7 337.1,152.0 337.2,121.1 337.3,114.5 337.4,110.9 337.5,108.7 337.6,107.2 337.7,106.3 337.8,105.9 337.9,105.9 338.0,106.4 338.1,107.3 338.2,108.7 338.3,110.9 338.4,114.3 338.5,119.8 338.6,134.6 338.7,126.3 338.8,117.5 338.9,113.2 339.0,110.5 339.1,108.8 339.2,107.7 339.3,107.1 339.4,106.9 339.5,107.2 339.6,107.9 339.7,109.1 339.8,110.9 339.9,113.7 340.0,118.0 340.1,126.4 340.2,137.9 340.3,121.6 340.4,115.9 340.5,112.6 340.6,110.5 340.7,109.1 340.8,108.3 340.9,107.9 341.0,108.0 341.1,108.4 341.2,109.4 341.3,110.8 341.4,113.1 341.5,116.4 341.6,122.0 341.7,137.0 341.8,128.1 341.9,119.4 342.0,115.1 342.1,112.5 342.2,110.7 342.3,109.6 342.4,109.0 342.5,108.8 342.6,109.0 342.7,109.6 342.8,110.8 342.9,112.5 343.0,115.1 343.1,119.1 343.2,126.6 343.3,148.2 343.4,124.6 343.5,118.3 343.6,114.8 343.7,112.5 343.8,111.0 343.9,110.1 344.0,109.6 344.1,109.6 344.2,110.0 344.3,110.8 344.4,112.1 344.5,114.1 344.6,117.1 344.7,121.9 344.8,132.3 344.9,134.4 345.0,122.7 345.1,117.7 345.2,114.7 345.3,112.7 345.4,111.4 345.5,110.7 345.6,110.3 345.7,110.4 345.8,110.9 345.9,111.9 346.0,113.4 346.1,115.6 346.2,119.0 346.3,124.8 346.4,141.0 346.5,130.0 346.6,121.6 346.7,117.4 346.8,114.7 346.9,113.0 347.0,111.9 347.1,111.2 347.2,111.0 347.3,111.2 347.4,111.8 347.5,112.9 347.6,114.6 347.7,117.1 347.8,120.9 347.9,127.8 348.0,152.0 348.1,127.6 348.2,120.9 348.3,117.2 348.4,114.9 348.5,113.3 348.6,112.3 348.7,111.8 348.8,111.7 348.9,112.0 349.0,112.7 349.1,113.9 349.2,115.7 349.3,118.5 349.4,122.8 349.5,131.2 349.6,142.4 349.7,126.2 349.8,120.5 349.9,117.2 350.0,115.1 350.1,113.6 350.2,112.7 350.3,112.3 350.4,112.3 350.5,112.7 350.6,113.5 350.7,114.8 350.8,116.8 350.9,119.8 351.0,124.6 351.1,135.2 351.2,136.8 351.3,125.3 351.4,120.3 351.5,117.3 351.6,115.3 351.7,114.0 351.8,113.2 351.9,112.9 352.0,112.9 352.1,113.4 352.2,114.3 352.3,115.7 352.4,117.9 352.5,121.1 352.6,126.5 352.7,140.1 352.8,133.9 352.9,124.6 353.0,120.2 353.1,117.4 353.2,115.5 353.3,114.3 353.4,113.6 353.5,113.4 353.6,113.5 353.7,114.0 353.8,115.0 353.9,116.6 354.0,118.9 354.1,122.4 354.2,128.4 354.3,147.4 354.4,132.1 354.5,124.2 354.6,120.1 354.7,117.5 354.8,115.8 354.9,114.7 355.0,114.1 355.1,113.9 355.2,114.1 355.3,114.7 355.4,115.7 355.5,117.4 355.6,119.8 355.7,123.6 355.8,130.3 355.9,152.0 356.0,130.9 356.1,123.9 356.3,120.1 356.4,117.7 356.5,116.1 356.6,115.1 356.7,114.5 356.8,114.4 356.9,114.6 357.0,115.3 357.1,116.4 357.2,118.2 357.3,120.7 357.4,124.8 357.5,132.3 357.6,152.0 357.7,130.0 357.8,123.7 357.9,120.2 358.0,117.9 358.1,116.4 358.2,115.4 358.3,114.9 358.4,114.8 358.5,115.1 358.6,115.8 358.7,117.1 358.8,118.9 358.9,121.6 359.0,125.9 359.1,134.3 359.2,145.6 359.3,129.3 359.4,123.6 359.5,120.3 359.6,118.1 359.7,116.7 359.8,115.8 359.9,115.3 360.0,115.3 360.1,115.6 360.2,116.4 360.3,117.7 360.4,119.6 360.5,122.5 360.6,127.0 360.7,136.5 360.8,142.0 360.9,128.9 361.0,123.6 361.1,120.4 361.2,118.3 361.3,117.0 361.4,116.1 361.5,115.7 361.6,115.7 361.7,116.1 361.8,116.9 361.9,118.3 362.0,120.3 362.1,123.3 362.2,128.1 362.3,138.9 362.4,139.8 362.5,128.5 362.6,123.6 362.7,120.6 362.8,118.6 362.9,117.3 363.0,116.5 363.1,116.1 363.2,116.1 363.3,116.6 363.4,117.4 363.5,118.8 363.6,120.9 363.7,124.1 363.8,129.2 363.9,141.5 364.0,138.2 364.1,128.2 364.2,123.6 364.3,120.7 364.4,118.8 364.5,117.5 364.6,116.8 364.7,116.5 364.8,116.5 364.9,117.0 365.0,117.9 365.1,119.4 365.2,121.5 365.3,124.8 365.4,130.3 365.5,144.5 365.6,137.1 365.7,128.1 365.8,123.6 365.9,120.9 366.0,119.0 366.1,117.8 366.2,117.1 366.3,116.8 366.4,116.9 366.5,117.4 366.6,118.4 366.7,119.9 366.8,122.2 366.9,125.6 367.0,131.4 367.1,148.1 367.2,136.2 367.3,127.9 367.4,123.7 367.5,121.0 367.6,119.2 367.7,118.1 367.8,117.4 367.9,117.2 368.0,117.3 368.1,117.9 368.2,118.9 368.3,120.4 368.4,122.7 368.5,126.3 368.6,132.4 368.7,152.0 368.8,135.5 368.9,127.8 369.0,123.8 369.1,121.2 369.2,119.5 369.3,118.4 369.4,117.7 369.5,117.5 369.6,117.7 369.7,118.3 369.8,119.3 369.9,120.9 370.0,123.3 370.1,127.0 370.2,133.4 370.3,152.0 370.4,135.0 370.5,127.8 370.6,123.9 370.7,121.4 370.8,119.7 370.9,118.6 371.0,118.0 371.1,117.8 371.2,118.0 371.3,118.6 371.4,119.7 371.5,121.4 371.6,123.8 371.7,127.6 371.8,134.5 371.9,152.0 372.0,134.5 372.1,127.7 372.2,124.0 372.3,121.5 372.4,119.9 372.5,118.9 372.6,118.3 372.7,118.1 372.8,118.4 372.9,119.0 373.0,120.1 373.1,121.8 373.2,124.4 373.3,128.3 373.4,135.5 373.5,152.0 373.6,134.2 373.7,127.7 373.8,124.1 373.9,121.7 374.0,120.1 374.1,119.1 374.2,118.6 374.3,118.4 374.4,118.7 374.5,119.4 374.6,120.5 374.7,122.3 374.8,124.9 374.9,128.9 375.0,136.5 375.1,152.0 375.2,133.9 375.3,127.7 375.4,124.2 375.5,121.9 375.6,120.4 375.7,119.4 375.8,118.9 375.9,118.7 376.0,119.0 376.1,119.7 376.2,120.9 376.3,122.7 376.4,125.3 376.5,129.5 376.6,137.5 376.7,152.0 376.8,133.7 376.9,127.7 377.0,124.3 377.1,122.1 377.2,120.6 377.3,119.6 377.4,119.1 377.5,119.0 377.6,119.3 377.7,120.1 377.8,121.3 377.9,123.1 378.0,125.8 378.1,130.1 378.2,138.6 378.3,149.6 378.4,133.5 378.5,127.8 378.6,124.4 378.7,122.2 378.8,120.8 378.9,119.9 379.0,119.4 379.1,119.3 379.2,119.6 379.3,120.4 379.4,121.6 379.5,123.5 379.6,126.3 379.7,130.7 379.8,139.6 379.9,147.9 380.0,133.3 380.1,127.8 380.2,124.5 380.3,122.4 380.4,121.0 380.5,120.1 380.6,119.6 380.7,119.6 380.8,119.9 380.9,120.7 381.0,122.0 381.1,123.9 381.2,126.7 381.3,131.3 381.4,140.6 381.5,146.6 381.6,133.2 381.7,127.9 381.8,124.7 381.9,122.6 382.0,121.2 382.1,120.3 382.2,119.9 382.3,119.8 382.4,120.2 382.5,121.0 382.6,122.3 382.7,124.2 382.8,127.1 382.9,131.8 383.0,141.7 383.1,145.5 383.2,133.1 383.3,127.9 383.4,124.8 383.5,122.7 383.6,121.4 383.7,120.5 383.8,120.1 383.9,120.1 384.0,120.5 384.1,121.3 384.2,122.6 384.3,124.6 384.4,127.6 384.5,132.4 384.6,142.8 384.7,144.6 384.8,133.0 384.9,128.0 385.0,124.9 385.1,122.9 385.2,121.6 385.3,120.7 385.4,120.3 385.5,120.3 385.6,120.8 385.7,121.6 385.8,122.9 385.9,125.0 386.0,128.0 386.1,132.9 386.2,143.9 386.3,143.9 386.4,132.9 386.5,128.0 386.6,125.1 386.7,123.1 386.8,121.8 386.9,120.9 387.0,120.6 387.1,120.6 387.2,121.0 387.3,121.9 387.4,123.2 387.5,125.3 387.6,128.4 387.7,133.4 387.8,145.1 387.9,143.3 388.0,132.9 388.1,128.1 388.2,125.2 388.3,123.2 388.4,121.9 388.5,121.1 388.6,120.8 388.7,120.8 388.8,121.3 388.9,122.1 389.0,123.5 389.1,125.6 389.2,128.8 389.3,133.9 389.4,146.2 389.5,142.8 389.6,132.9 389.7,128.2 389.8,125.3 389.9,123.4 390.0,122.1 390.1,121.3 390.2,121.0 390.3,121.1 390.4,121.5 390.5,122.4 390.6,123.8 390.7,125.9 390.8,129.1 390.9,134.4 391.0,147.5 391.1,142.4 391.2,132.8 391.3,128.3 391.4,125.4 391.5,123.5 391.6,122.3 391.7,121.5 391.8,121.2 391.9,121.3 392.0,121.8 392.1,122.7 392.2,124.1 392.3,126.3 392.4,129.5 392.5,134.9 392.6,148.8 392.7,142.0 392.8,132.8 392.9,128.4 393.0,125.6 393.1,123.7 393.2,122.5 393.3,121.7 393.4,121.4 393.5,121.5 393.6,122.0 393.7,122.9 393.8,124.4 393.9,126.6 394.0,129.8 394.1,135.4 394.2,150.1 394.3,141.7 394.4,132.8 394.5,128.4 394.6,125.7 394.7,123.8 394.8,122.6 394.9,121.9 395.0,121.6 395.1,121.7 395.2,122.2 395.3,123.2 395.4,124.6 395.5,126.8 395.6,130.2 395.7,135.9 395.8,151.6 395.9,141.4 396.0,132.8 396.1,128.5 396.2,125.8 396.3,124.0 396.4,122.8 396.5,122.1 396.6,121.8 396.7,121.9 396.8,122.4 396.9,123.4 397.0,124.9 397.1,127.1 397.2,130.5 397.3,136.3 397.4,152.0 397.5,141.1 397.6,132.8 397.7,128.6 397.8,125.9 397.9,124.1 398.0,123.0 398.1,122.3 398.2,122.0 398.3,122.1 398.4,122.7 398.5,123.6 398.6,125.2 398.7,127.4 398.8,130.9 398.9,136.8 399.0,152.0 399.1,140.9 399.2,132.8 399.3,128.7 399.4,126.0 399.5,124.3 399.6,123.1 399.7,122.4 399.8,122.2 399.9,122.3 400.0,122.9 400.1,123.9 400.2,125.4 400.3,127.7 400.4,131.2 400.5,137.2 400.6,152.0 400.7,140.7 400.8,132.9 400.9,128.8 401.0,126.2 401.1,124.4 401.2,123.3 401.3,122.6 401.4,122.4 401.5,122.5 401.6,123.1 401.7,124.1 401.8,125.6 401.9,128.0 402.0,131.5 402.1,137.7 402.2,152.0 402.3,140.5 402.4,132.9 402.5,128.8 402.6,126.3 402.7,124.6 402.8,123.4 402.9,122.8 403.0,122.5 403.1,122.7 403.2,123.3 403.3,124.3 403.4,125.9 403.5,128.2 403.6,131.8 403.7,138.1 403.8,152.0 403.9,140.3 404.0,132.9 404.1,128.9 404.2,126.4 404.3,124.7 404.4,123.6 404.5,122.9 404.6,122.7 404.7,122.9 404.8,123.5 404.9,124.5 405.0,126.1 405.1,128.5 405.2,132.1 405.3,138.5 405.4,152.0 405.5,140.2 405.6,132.9 405.7,129.0 405.8,126.5 405.9,124.8 406.0,123.7 406.1,123.1 406.2,122.9 406.3,123.1 406.4,123.7 406.5,124.7 406.6,126.3 406.7,128.7 406.8,132.4 406.9,139.0 407.0,152.0 407.1,140.1 407.2,133.0 407.3,129.1 407.4,126.6 407.5,124.9 407.6,123.9 407.7,123.2 407.8,123.0 407.9,123.2 408.0,123.8 408.1,124.9 408.2,126.5 408.3,129.0 408.4,132.7 408.5,139.4 408.6,152.0 408.7,140.0 408.8,133.0 408.9,129.2 409.0,126.7 409.1,125.1 409.2,124.0 409.3,123.4 409.4,123.2 409.5,123.4 409.6,124.0 409.7,125.1 409.8,126.7 409.9,129.2 410.0,133.0 410.1,139.8 410.2,152.0 410.3,139.9 410.4,133.0 410.5,129.3 410.6,126.8 410.7,125.2 410.8,124.1 410.9,123.5 411.0,123.4 411.1,123.6 411.2,124.2 411.3,125.3 411.4,126.9 411.5,129.4 411.6,133.2 411.7,140.2 411.8,152.0 411.9,139.8 412.0,133.1 412.1,129.3 412.2,126.9 412.3,125.3 412.4,124.3 412.5,123.7 412.6,123.5 412.7,123.7 412.8,124.4 412.9,125.5 413.0,127.1 413.1,129.6 413.2,133.5 413.3,140.6 413.4,152.0 413.5,139.7 413.6,133.1 413.7,129.4 413.8,127.0 413.9,125.4 414.0,124.4 414.1,123.8 414.2,123.7 414.3,123.9 414.4,124.5 414.5,125.6 414.6,127.3 414.7,129.9 414.8,133.8 414.9,141.0 415.0,152.0 415.1,139.6 415.2,133.1 415.3,129.5 415.4,127.1 415.5,125.5 415.6,124.5 415.7,124.0 415.8,123.8 415.9,124.0 416.0,124.7 416.1,125.8 416.2,127.5 416.3,130.1 416.4,134.0 416.5,141.4 416.6,152.0 416.7,139.6 416.8,133.2 416.9,129.6 417.0,127.2 417.1,125.7 417.2,124.7 417.3,124.1 417.4,123.9 417.5,124.2 417.6,124.9 417.7,126.0 417.8,127.7 417.9,130.3 418.0,134.3 418.1,141.8 418.2,152.0 418.3,139.5 418.4,133.2 418.5,129.7 418.6,127.3 418.7,125.8 418.8,124.8 418.9,124.2 419.0,124.1 419.1,124.3 419.2,125.0 419.3,126.2 419.4,127.9 419.5,130.5 419.6,134.5 419.7,142.2 419.8,152.0 419.9,139.4 420.0,133.3 420.1,129.7 420.2,127.4 420.3,125.9 420.4,124.9 420.5,124.4 420.6,124.2 420.7,124.5 420.8,125.2 420.9,126.3 421.0,128.1 421.1,130.7 421.2,134.8 421.3,142.5 421.4,152.0 421.5,139.4 421.6,133.3 421.7,129.8 421.8,127.5 421.9,126.0 422.0,125.0 422.1,124.5 422.2,124.4 422.3,124.6 422.4,125.3 422.5,126.5 422.6,128.2 422.7,130.9 422.8,135.0 422.9,142.9 423.0,152.0 423.1,139.3 423.2,133.3 423.3,129.9 423.4,127.6 423.5,126.1 423.6,125.1 423.7,124.6 423.8,124.5 423.9,124.8 424.0,125.5 424.1,126.6 424.2,128.4 424.3,131.1 424.4,135.2 424.6,143.3 424.7,152.0 424.8,139.3 424.9,133.4 425.0,129.9 425.1,127.7 425.2,126.2 425.3,125.2 425.4,124.7 425.5,124.6 425.6,124.9 425.7,125.6 425.8,126.8 425.9,128.6 426.0,131.3 426.1,135.5 426.2,143.7 426.3,152.0 426.4,139.3 426.5,133.4 426.6,130.0 426.7,127.8 426.8,126.3 426.9,125.3 427.0,124.8 427.1,124.7 427.2,125.0 427.3,125.7 427.4,126.9 427.5,128.7 427.6,131.4 427.7,135.7 427.8,144.0 427.9,152.0 428.0,139.2 428.1,133.5 428.2,130.1 428.3,127.9 428.4,126.4 428.5,125.4 428.6,124.9 428.7,124.9 428.8,125.2 428.9,125.9 429.0,127.1 429.1,128.9 429.2,131.6 429.3,135.9 429.4,144.4 429.5,152.0 429.6,139.2 429.7,133.5 429.8,130.2 429.9,128.0 430.0,126.5 430.1,125.5 430.2,125.1 430.3,125.0 430.4,125.3 430.5,126.0 430.6,127.2 430.7,129.1 430.8,131.8 430.9,136.1 431.0,144.7 431.1,152.0 431.2,139.2 431.3,133.5 431.4,130.2 431.5,128.0 431.6,126.6 431.7,125.6 431.8,125.2 431.9,125.1 432.0,125.4 432.1,126.1 432.2,127.4 432.3,129.2 432.4,132.0 432.5,136.4 432.6,145.1 432.7,152.0 432.8,139.1 432.9,133.6 433.0,130.3 433.1,128.1 433.2,126.7 433.3,125.7 433.4,125.3 433.5,125.2 433.6,125.5 433.7,126.3 433.8,127.5 433.9,129.4 434.0,132.1 434.1,136.6 434.2,145.5 434.3,152.0 434.4,139.1 434.5,133.6 434.6,130.3 434.7,128.2 434.8,126.8 434.9,125.8 435.0,125.4 435.1,125.3 435.2,125.6 435.3,126.4 435.4,127.6 435.5,129.5 435.6,132.3 435.7,136.8 435.8,145.8 435.9,152.0 436.0,139.1 436.1,133.6 436.2,130.4 436.3,128.3 436.4,126.8 436.5,125.9 436.6,125.5 436.7,125.4 436.8,125.8 436.9,126.5 437.0,127.8 437.1,129.7 437.2,132.5 437.3,137.0 437.4,146.2 437.5,152.0 437.6,139.1 437.7,133.7 437.8,130.5 437.9,128.3 438.0,126.9 438.1,126.0 438.2,125.6 438.3,125.5 438.4,125.9 438.5,126.6 438.6,127.9 438.7,129.8 438.8,132.6 438.9,137.2 439.0,146.5 439.1,152.0 439.2,139.1 439.3,133.7 439.4,130.5 439.5,128.4 439.6,127.0 439.7,126.1 439.8,125.7 439.9,125.6 440.0,126.0 440.1,126.7 440.2,128.0 440.3,129.9 440.4,132.8 440.5,137.4 440.6,146.9 440.7,152.0 440.8,139.0 440.9,133.8 441.0,130.6 441.1,128.5 441.2,127.1 441.3,126.2 441.4,125.8 441.5,125.7 441.6,126.1 441.7,126.9 441.8,128.1 441.9,130.1 442.0,132.9 442.1,137.6 442.2,147.2 442.3,151.8 442.4,139.0 442.5,133.8 442.6,130.6 442.7,128.6 442.8,127.2 442.9,126.3 443.0,125.9 443.1,125.8 443.2,126.2 443.3,127.0 443.4,128.3 443.5,130.2 443.6,133.1 443.7,137.7 443.8,147.6 443.9,151.5 444.0,139.0 444.1,133.8 444.2,130.7 444.3,128.6 444.4,127.2 444.5,126.4 444.6,125.9 444.7,125.9 444.8,126.3 444.9,127.1 445.0,128.4 445.1,130.3 445.2,133.2 445.3,137.9 445.4,147.9 445.5,151.2 445.6,139.0 445.7,133.9 445.8,130.7 445.9,128.7 446.0,127.3 446.1,126.5 446.2,126.0 446.3,126.0 446.4,126.4 446.5,127.2 446.6,128.5 446.7,130.4 446.8,133.4 446.9,138.1 447.0,148.3 447.1,151.0 447.2,139.0 447.3,133.9 447.4,130.8 447.5,128.7 447.6,127.4 447.7,126.5 447.8,126.1 447.9,126.1 448.0,126.5 448.1,127.3 448.2,128.6 448.3,130.6 448.4,133.5 448.5,138.3 448.6,148.6 448.7,150.7 448.8,139.0 448.9,133.9 449.0,130.8 449.1,128.8 449.2,127.5 449.3,126.6 449.4,126.2 449.5,126.2 449.6,126.6 449.7,127.4 449.8,128.7 449.9,130.7 450.0,133.6 450.1,138.5 450.2,149.0 450.3,150.5 450.4,139.0 450.5,133.9 450.6,130.9 450.7,128.9 450.8,127.5 450.9,126.7 451.0,126.3 451.1,126.3 451.2,126.7 451.3,127.5 451.4,128.8 451.5,130.8 451.6,133.8 451.7,138.6 451.8,149.3 451.9,150.3 452.0,138.9 452.1,134.0 452.2,130.9 452.3,128.9 452.4,127.6 452.5,126.8 452.6,126.4 452.7,126.4 452.8,126.8 452.9,127.6 453.0,128.9 453.1,130.9 453.2,133.9 453.3,138.8 453.4,149.7 453.5,150.1 453.6,138.9 453.7,134.0 453.8,131.0 453.9,129.0 454.0,127.7 454.1,126.8 454.2,126.4 454.3,126.4 454.4,126.8 454.5,127.7 454.6,129.0 454.7,131.0 454.8,134.0 454.9,139.0 455.0,150.1 455.1,149.9 455.2,138.9 455.3,134.0 455.4,131.0 455.5,129.0 455.6,127.7 455.7,126.9 455.8,126.5 455.9,126.5 456.0,126.9 456.1,127.8 456.2,129.1 456.3,131.1 456.4,134.2 456.5,139.1 456.6,150.4 456.7,149.7 456.8,138.9 456.9,134.1 457.0,131.1 457.1,129.1 457.2,127.8 457.3,127.0 457.4,126.6 457.5,126.6 457.6,127.0 457.7,127.9 457.8,129.2 457.9,131.2 458.0,134.3 458.1,139.3 458.2,150.8 458.3,149.5 458.4,138.9 458.5,134.1 458.6,131.1 458.7,129.1 458.8,127.8 458.9,127.0 459.0,126.7 459.1,126.7 459.2,127.1 459.3,127.9 459.4,129.3 459.5,131.3 459.6,134.4 459.7,139.5 459.8,151.1 459.9,149.3 460.0,138.9 460.1,134.1 460.2,131.2 460.3,129.2 460.4,127.9 460.5,127.1 460.6,126.7 460.7,126.7 460.8,127.2 460.9,128.0 461.0,129.4 461.1,131.4 461.2,134.5 461.3,139.6 461.4,151.5 461.5,149.1 461.6,138.9 461.7,134.1 461.8,131.2 461.9,129.2 462.0,127.9 462.1,127.2 462.2,126.8 462.3,126.8 462.4,127.2 462.5,128.1 462.6,129.5 462.7,131.5 462.8,134.7 462.9,139.8 463.0,151.9 463.1,149.0 463.2,138.9 463.3,134.1 463.4,131.2 463.5,129.3 463.6,128.0 463.7,127.2 463.8,126.8 463.9,126.9 464.0,127.3 464.1,128.2 464.2,129.6 464.3,131.6 464.4,134.8 464.5,139.9 464.6,152.0 464.7,148.8 464.8,138.9 464.9,134.2 465.0,131.3 465.1,129.3 465.2,128.1 465.3,127.3 465.4,126.9 465.5,127.0 465.6,127.4 465.7,128.3 465.8,129.7 465.9,131.7 466.0,134.9 466.1,140.1 466.2,152.0 466.3,148.7 466.4,138.8 466.5,134.2 466.6,131.3 466.7,129.4 466.8,128.1 466.9,127.3 467.0,127.0 467.1,127.0 467.2,127.5 467.3,128.3 467.4,129.7 467.5,131.8 467.6,135.0 467.7,140.2 467.8,152.0 467.9,148.5 468.0,138.8 468.1,134.2 468.2,131.3 468.3,129.4 468.4,128.2 468.5,127.4 468.6,127.0 468.7,127.1 468.8,127.5 468.9,128.4 469.0,129.8 469.1,131.9 469.2,135.1 469.3,140.4 469.4,152.0 469.5,148.4 469.6,138.8 469.7,134.2 469.8,131.4 469.9,129.5 470.0,128.2 470.1,127.4 470.2,127.1 470.3,127.1 470.4,127.6 470.5,128.5 470.6,129.9 470.7,132.0 470.8,135.2 470.9,140.5 471.0,152.0 471.1,148.3 471.2,138.8 471.3,134.2 471.4,131.4 471.5,129.5 471.6,128.2 471.7,127.5 471.8,127.1 471.9,127.2 472.0,127.7 472.1,128.6 472.2,130.0 472.3,132.1 472.4,135.3 472.5,140.7 472.6,152.0 472.7,148.1 472.8,138.8 472.9,134.3 473.0,131.4 473.1,129.5 473.2,128.3 473.3,127.5 473.4,127.2 473.5,127.3 473.6,127.7 473.7,128.6 473.8,130.1 473.9,132.2 474.0,135.4 474.1,140.8 474.2,152.0 474.3,148.0 474.4,138.8 474.5,134.3 474.6,131.5 474.7,129.6 474.8,128.3 474.9,127.6 475.0,127.3 475.1,127.3 475.2,127.8 475.3,128.7 475.4,130.1 475.5,132.3 475.6,135.5 475.7,140.9 475.8,152.0 475.9,147.9 476.0,138.8 476.1,134.3 476.2,131.5 476.3,129.6 476.4,128.4 476.5,127.6 476.6,127.3 476.7,127.4 476.8,127.8 476.9,128.8 477.0,130.2 477.1,132.4 477.2,135.6 477.3,141.1 477.4,152.0 477.5,147.8 477.6,138.7 477.7,134.3 477.8,131.5 477.9,129.6 478.0,128.4 478.1,127.7 478.2,127.3 478.3,127.4 478.4,127.9 478.5,128.8 478.6,130.3 478.7,132.4 478.8,135.7 478.9,141.2 479.0,152.0 479.1,147.6 479.2,138.7 479.3,134.3 479.4,131.5 479.5,129.7 479.6,128.4 479.7,127.7 479.8,127.4 479.9,127.5 480.0,128.0 480.1,128.9 480.2,130.3 480.3,132.5 480.4,135.8 480.5,141.3 480.6,152.0 480.7,147.5 480.8,138.7 480.9,134.3 481.0,131.5 481.1,129.7 481.2,128.5 481.3,127.8 481.4,127.4 481.5,127.5 481.6,128.0 481.7,128.9 481.8,130.4 481.9,132.6 482.0,135.9 482.1,141.5 482.2,152.0 482.3,147.4 482.4,138.7 482.5,134.3 482.6,131.6 482.7,129.7 482.8,128.5 482.9,127.8 483.0,127.5 483.1,127.6 483.2,128.1 483.3,129.0 483.4,130.5 483.5,132.7 483.6,136.0 483.7,141.6 483.8,152.0 483.9,147.3 484.0,138.7 484.1,134.3 484.2,131.6 484.3,129.8 484.4,128.6 484.5,127.8 484.6,127.5 484.7,127.6 484.8,128.1 484.9,129.1 485.0,130.5 485.1,132.7 485.2,136.1 485.3,141.7 485.4,152.0 485.5,147.2 485.6,138.6 485.7,134.3 485.8,131.6 485.9,129.8 486.0,128.6 486.1,127.9 486.2,127.6 486.3,127.7 486.4,128.2 486.5,129.1 486.6,130.6 486.7,132.8 486.8,136.2 486.9,141.9 487.0,152.0 487.1,147.1 487.2,138.6 487.3,134.3 487.4,131.6 487.5,129.8 487.6,128.6 487.7,127.9 487.8,127.6 487.9,127.7 488.0,128.2 488.1,129.2 488.2,130.6 488.3,132.9 488.4,136.2 488.5,142.0 488.6,152.0 488.7,147.0 488.8,138.6 488.9,134.3 489.0,131.6 489.1,129.8 489.2,128.6 489.3,127.9 489.4,127.6 489.5,127.7 489.6,128.3 489.7,129.2 489.8,130.7 489.9,132.9 490.0,136.3 490.1,142.1 490.2,152.0 490.3,146.9 490.4,138.6 490.5,134.3 490.6,131.6 490.7,129.9 490.8,128.7 490.9,128.0 491.0,127.7 491.1,127.8 491.2,128.3 491.3,129.3 491.4,130.8 491.5,133.0 491.6,136.4 491.7,142.2 491.8,152.0 491.9,146.8 492.0,138.6 492.1,134.3 492.2,131.7 492.3,129.9 492.4,128.7 492.5,128.0 492.6,127.7 492.7,127.8 492.9,128.3 493.0,129.3 493.1,130.8 493.2,133.1 493.3,136.5 493.4,142.4 493.5,152.0 493.6,146.7 493.7,138.5 493.8,134.3 493.9,131.7 494.0,129.9 494.1,128.7 494.2,128.0 494.3,127.7 494.4,127.9 494.5,128.4 494.6,129.3 494.7,130.9 494.8,133.1 494.9,136.6 495.0,142.5 495.1,152.0 495.2,146.6 495.3,138.5 495.4,134.3 495.5,131.7 495.6,129.9 495.7,128.7 495.8,128.0 495.9,127.8 496.0,127.9 496.1,128.4 496.2,129.4 496.3,130.9 496.4,133.2 496.5,136.6 496.6,142.6 496.7,152.0 496.8,146.5 496.9,138.5 497.0,134.3 497.1,131.7 497.2,129.9 497.3,128.8 497.4,128.1 497.5,127.8 497.6,127.9 497.7,128.5 497.8,129.4 497.9,131.0 498.0,133.2 498.1,136.7 498.2,142.7 498.3,152.0 498.4,146.4 498.5,138.5 498.6,134.3 498.7,131.7 498.8,129.9 498.9,128.8 499.0,128.1 499.1,127.8 499.2,128.0 499.3,128.5 499.4,129.5 499.5,131.0 499.6,133.3 499.7,136.8 499.8,142.8 499.9,152.0 500.0,146.3 500.1,138.4 500.2,134.3 500.3,131.7 500.4,129.9 500.5,128.8 500.6,128.1 500.7,127.9 500.8,128.0 500.9,128.5 501.0,129.5 501.1,131.1 501.2,133.3 501.3,136.9 501.4,142.9 501.5,152.0 501.6,146.2 501.7,138.4 501.8,134.3 501.9,131.7 502.0,130.0 502.1,128.8 502.2,128.1 502.3,127.9 502.4,128.0 502.5,128.6 502.6,129.6 502.7,131.1 502.8,133.4 502.9,136.9 503.0,143.0 503.1,152.0 503.2,146.1 503.3,138.4 503.4,134.3 503.5,131.7 503.6,130.0 503.7,128.8 503.8,128.2 503.9,127.9 504.0,128.0 504.1,128.6 504.2,129.6 504.3,131.1 504.4,133.5 504.5,137.0 504.6,143.2 504.7,152.0 504.8,146.0 504.9,138.3 505.0,134.3 505.1,131.7 505.2,130.0 505.3,128.8 505.4,128.2 505.5,127.9 505.6,128.1 505.7,128.6 505.8,129.6 505.9,131.2 506.0,133.5 506.1,137.1 506.2,143.3 506.3,152.0 506.4,145.9 506.5,138.3 506.6,134.3 506.7,131.7 506.8,130.0 506.9,128.8 507.0,128.2 507.1,127.9 507.2,128.1 507.3,128.6 507.4,129.7 507.5,131.2 507.6,133.5 507.7,137.1 507.8,143.4 507.9,152.0 508.0,145.8 508.1,138.3 508.2,134.3 508.3,131.7 508.4,130.0 508.5,128.9 508.6,128.2 508.7,128.0 508.8,128.1 508.9,128.7 509.0,129.7 509.1,131.3 509.2,133.6 509.3,137.2 509.4,143.5 509.5,152.0 509.6,145.7 509.7,138.2 509.8,134.3 509.9,131.7 510.0,130.0 510.1,128.9 510.2,128.2 510.3,128.0 510.4,128.1 510.5,128.7 510.6,129.7 510.7,131.3 510.8,133.6 510.9,137.2 511.0,143.6 511.1,152.0 511.2,145.6 511.3,138.2 511.4,134.2 511.5,131.7 511.6,130.0 511.7,128.9 511.8,128.2 511.9,128.0 512.0,128.2 512.1,128.7 512.2,129.7 512.3,131.3 512.4,133.7 512.5,137.3 512.6,143.7 512.7,152.0 512.8,145.5 512.9,138.2 513.0,134.2 513.1,131.7 513.2,130.0 513.3,128.9 513.4,128.2 513.5,128.0 513.6,128.2 513.7,128.7 513.8,129.8 513.9,131.4 514.0,133.7 514.1,137.4 514.2,143.8 514.3,152.0 514.4,145.4 514.5,138.1 514.6,134.2 514.7,131.7 514.8,130.0 514.9,128.9 515.0,128.2 515.1,128.0 515.2,128.2 515.3,128.8 515.4,129.8 515.5,131.4 515.6,133.8 515.7,137.4 515.8,143.9 515.9,152.0 516.0,145.3 516.1,138.1 516.2,134.2 516.3,131.7 516.4,130.0 516.5,128.9 516.6,128.2 516.7,128.0 516.8,128.2 516.9,128.8 517.0,129.8 517.1,131.4 517.2,133.8 517.3,137.5 517.4,144.0 517.5,152.0 517.6,145.2 517.7,138.0 517.8,134.2 517.9,131.7 518.0,130.0 518.1,128.9 518.2,128.3 518.3,128.0 518.4,128.2 518.5,128.8 518.6,129.8 518.7,131.4 518.8,133.8 518.9,137.5 519.0,144.1 519.1,152.0 519.2,145.1 519.3,138.0 519.4,134.1 519.5,131.6 519.6,130.0 519.7,128.9 519.8,128.3 519.9,128.0 520.0,128.2 520.1,128.8 520.2,129.9 520.3,131.5 520.4,133.9 520.5,137.6 520.6,144.2 520.7,152.0 520.8,145.0 520.9,138.0 521.0,134.1 521.1,131.6 521.2,130.0 521.3,128.9 521.4,128.3 521.5,128.0 521.6,128.2 521.7,128.8 521.8,129.9 521.9,131.5 522.0,133.9 522.1,137.6 522.2,144.3 522.3,152.0 522.4,144.9 522.5,137.9 522.6,134.1 522.7,131.6 522.8,130.0 522.9,128.9 523.0,128.3 523.1,128.1 523.2,128.2 523.3,128.8 523.4,129.9 523.5,131.5 523.6,133.9 523.7,137.7 523.8,144.4 523.9,152.0 524.0,144.8 524.1,137.9 524.2,134.1 524.3,131.6 524.4,129.9 524.5,128.9 524.6,128.3 524.7,128.1 524.8,128.2 524.9,128.8 525.0,129.9 525.1,131.5 525.2,134.0 525.3,137.7 525.4,144.5 525.5,152.0 525.6,144.7 525.7,137.8 525.8,134.0 525.9,131.6 526.0,129.9 526.1,128.9 526.2,128.3 526.3,128.1 526.4,128.3 526.5,128.9 526.6,129.9 526.7,131.6 526.8,134.0 526.9,137.8 527.0,144.6" fill="none" stroke="#4a90d9" stroke-width="1.2" stroke-linejoin="round"/>
  <text x="154.5" y="176" text-anchor="middle" font-size="8" fill="#6b7280">n / N</text>
  <text x="424.5" y="176" text-anchor="middle" font-size="8" fill="#6b7280">Normalized frequency (× Fₛ)</text>
</svg>
