<svg xmlns="http://www.w3.org/2000/svg" viewBox="0 0 560 210" width="560" height="210" style="font-family:system-ui,-apple-system,sans-serif">
  <rect width="560" height="210" fill="#fafafa" rx="6"/>
  <text x="280" y="18" text-anchor="middle" font-size="12" font-weight="600" fill="#374151">kaiser</text>
  <line x1="52" y1="166.0" x2="257" y2="166.0" stroke="#e5e7eb" stroke-width="0.5"/>
  <text x="48" y="169.0" text-anchor="end" font-size="7.5" fill="#6b7280">0</text>
  <line x1="52" y1="97.0" x2="257" y2="97.0" stroke="#e5e7eb" stroke-width="0.5"/>
  <text x="48" y="100.0" text-anchor="end" font-size="7.5" fill="#6b7280">0.5</text>
  <line x1="52" y1="28.0" x2="257" y2="28.0" stroke="#e5e7eb" stroke-width="0.5"/>
  <text x="48" y="31.0" text-anchor="end" font-size="7.5" fill="#6b7280">1</text>
  <line x1="52.0" y1="28" x2="52.0" y2="166" stroke="#e5e7eb" stroke-width="0.5"/>
  <text x="52.0" y="178" text-anchor="middle" font-size="7.5" fill="#6b7280">0</text>
  <line x1="154.5" y1="28" x2="154.5" y2="166" stroke="#e5e7eb" stroke-width="0.5"/>
  <text x="154.5" y="178" text-anchor="middle" font-size="7.5" fill="#6b7280">0.5</text>
  <line x1="257.0" y1="28" x2="257.0" y2="166" stroke="#e5e7eb" stroke-width="0.5"/>
  <text x="257.0" y="178" text-anchor="middle" font-size="7.5" fill="#6b7280">1</text>
  <line x1="52" y1="28" x2="52" y2="166" stroke="#d1d5db" stroke-width="0.75"/>
  <line x1="52" y1="166" x2="257" y2="166" stroke="#d1d5db" stroke-width="0.75"/>
  <path d="M52.0,166.0 52.0,165.8 52.8,165.8 53.6,165.7 54.4,165.6 55.2,165.5 56.0,165.4 56.8,165.3 57.6,165.2 58.4,165.1 59.2,165.0 60.0,164.8 60.8,164.6 61.6,164.5 62.5,164.3 63.3,164.1 64.1,163.8 64.9,163.6 65.7,163.3 66.5,163.0 67.3,162.7 68.1,162.4 68.9,162.1 69.7,161.7 70.5,161.3 71.3,160.9 72.1,160.4 72.9,160.0 73.7,159.5 74.5,159.0 75.3,158.4 76.1,157.8 76.9,157.2 77.7,156.6 78.5,155.9 79.3,155.2 80.1,154.5 80.9,153.8 81.7,153.0 82.5,152.1 83.4,151.3 84.2,150.4 85.0,149.5 85.8,148.5 86.6,147.5 87.4,146.5 88.2,145.4 89.0,144.3 89.8,143.2 90.6,142.0 91.4,140.8 92.2,139.5 93.0,138.3 93.8,136.9 94.6,135.6 95.4,134.2 96.2,132.8 97.0,131.3 97.8,129.9 98.6,128.3 99.4,126.8 100.2,125.2 101.0,123.6 101.8,122.0 102.6,120.3 103.5,118.6 104.3,116.9 105.1,115.1 105.9,113.4 106.7,111.6 107.5,109.8 108.3,107.9 109.1,106.1 109.9,104.2 110.7,102.3 111.5,100.4 112.3,98.5 113.1,96.6 113.9,94.6 114.7,92.7 115.5,90.7 116.3,88.8 117.1,86.8 117.9,84.9 118.7,82.9 119.5,80.9 120.3,79.0 121.1,77.1 121.9,75.1 122.7,73.2 123.5,71.3 124.4,69.4 125.2,67.6 126.0,65.7 126.8,63.9 127.6,62.1 128.4,60.3 129.2,58.6 130.0,56.8 130.8,55.2 131.6,53.5 132.4,51.9 133.2,50.3 134.0,48.8 134.8,47.3 135.6,45.8 136.4,44.4 137.2,43.1 138.0,41.8 138.8,40.5 139.6,39.3 140.4,38.2 141.2,37.1 142.0,36.0 142.8,35.0 143.6,34.1 144.5,33.3 145.3,32.5 146.1,31.7 146.9,31.1 147.7,30.5 148.5,29.9 149.3,29.4 150.1,29.0 150.9,28.7 151.7,28.4 152.5,28.2 153.3,28.1 154.1,28.0 154.9,28.0 155.7,28.1 156.5,28.2 157.3,28.4 158.1,28.7 158.9,29.0 159.7,29.4 160.5,29.9 161.3,30.5 162.1,31.1 162.9,31.7 163.7,32.5 164.5,33.3 165.4,34.1 166.2,35.0 167.0,36.0 167.8,37.1 168.6,38.2 169.4,39.3 170.2,40.5 171.0,41.8 171.8,43.1 172.6,44.4 173.4,45.8 174.2,47.3 175.0,48.8 175.8,50.3 176.6,51.9 177.4,53.5 178.2,55.2 179.0,56.8 179.8,58.6 180.6,60.3 181.4,62.1 182.2,63.9 183.0,65.7 183.8,67.6 184.6,69.4 185.5,71.3 186.3,73.2 187.1,75.1 187.9,77.1 188.7,79.0 189.5,80.9 190.3,82.9 191.1,84.9 191.9,86.8 192.7,88.8 193.5,90.7 194.3,92.7 195.1,94.6 195.9,96.6 196.7,98.5 197.5,100.4 198.3,102.3 199.1,104.2 199.9,106.1 200.7,107.9 201.5,109.8 202.3,111.6 203.1,113.4 203.9,115.1 204.7,116.9 205.5,118.6 206.4,120.3 207.2,122.0 208.0,123.6 208.8,125.2 209.6,126.8 210.4,128.3 211.2,129.9 212.0,131.3 212.8,132.8 213.6,134.2 214.4,135.6 215.2,136.9 216.0,138.3 216.8,139.5 217.6,140.8 218.4,142.0 219.2,143.2 220.0,144.3 220.8,145.4 221.6,146.5 222.4,147.5 223.2,148.5 224.0,149.5 224.8,150.4 225.6,151.3 226.5,152.1 227.3,153.0 228.1,153.8 228.9,154.5 229.7,155.2 230.5,155.9 231.3,156.6 232.1,157.2 232.9,157.8 233.7,158.4 234.5,159.0 235.3,159.5 236.1,160.0 236.9,160.4 237.7,160.9 238.5,161.3 239.3,161.7 240.1,162.1 240.9,162.4 241.7,162.7 242.5,163.0 243.3,163.3 244.1,163.6 244.9,163.8 245.7,164.1 246.5,164.3 247.4,164.5 248.2,164.6 249.0,164.8 249.8,165.0 250.6,165.1 251.4,165.2 252.2,165.3 253.0,165.4 253.8,165.5 254.6,165.6 255.4,165.7 256.2,165.8 257.0,165.8 L257.0,166.0 Z" fill="#4a90d9" fill-opacity="0.06"/>
  <polyline points="52.0,165.8 52.8,165.8 53.6,165.7 54.4,165.6 55.2,165.5 56.0,165.4 56.8,165.3 57.6,165.2 58.4,165.1 59.2,165.0 60.0,164.8 60.8,164.6 61.6,164.5 62.5,164.3 63.3,164.1 64.1,163.8 64.9,163.6 65.7,163.3 66.5,163.0 67.3,162.7 68.1,162.4 68.9,162.1 69.7,161.7 70.5,161.3 71.3,160.9 72.1,160.4 72.9,160.0 73.7,159.5 74.5,159.0 75.3,158.4 76.1,157.8 76.9,157.2 77.7,156.6 78.5,155.9 79.3,155.2 80.1,154.5 80.9,153.8 81.7,153.0 82.5,152.1 83.4,151.3 84.2,150.4 85.0,149.5 85.8,148.5 86.6,147.5 87.4,146.5 88.2,145.4 89.0,144.3 89.8,143.2 90.6,142.0 91.4,140.8 92.2,139.5 93.0,138.3 93.8,136.9 94.6,135.6 95.4,134.2 96.2,132.8 97.0,131.3 97.8,129.9 98.6,128.3 99.4,126.8 100.2,125.2 101.0,123.6 101.8,122.0 102.6,120.3 103.5,118.6 104.3,116.9 105.1,115.1 105.9,113.4 106.7,111.6 107.5,109.8 108.3,107.9 109.1,106.1 109.9,104.2 110.7,102.3 111.5,100.4 112.3,98.5 113.1,96.6 113.9,94.6 114.7,92.7 115.5,90.7 116.3,88.8 117.1,86.8 117.9,84.9 118.7,82.9 119.5,80.9 120.3,79.0 121.1,77.1 121.9,75.1 122.7,73.2 123.5,71.3 124.4,69.4 125.2,67.6 126.0,65.7 126.8,63.9 127.6,62.1 128.4,60.3 129.2,58.6 130.0,56.8 130.8,55.2 131.6,53.5 132.4,51.9 133.2,50.3 134.0,48.8 134.8,47.3 135.6,45.8 136.4,44.4 137.2,43.1 138.0,41.8 138.8,40.5 139.6,39.3 140.4,38.2 141.2,37.1 142.0,36.0 142.8,35.0 143.6,34.1 144.5,33.3 145.3,32.5 146.1,31.7 146.9,31.1 147.7,30.5 148.5,29.9 149.3,29.4 150.1,29.0 150.9,28.7 151.7,28.4 152.5,28.2 153.3,28.1 154.1,28.0 154.9,28.0 155.7,28.1 156.5,28.2 157.3,28.4 158.1,28.7 158.9,29.0 159.7,29.4 160.5,29.9 161.3,30.5 162.1,31.1 162.9,31.7 163.7,32.5 164.5,33.3 165.4,34.1 166.2,35.0 167.0,36.0 167.8,37.1 168.6,38.2 169.4,39.3 170.2,40.5 171.0,41.8 171.8,43.1 172.6,44.4 173.4,45.8 174.2,47.3 175.0,48.8 175.8,50.3 176.6,51.9 177.4,53.5 178.2,55.2 179.0,56.8 179.8,58.6 180.6,60.3 181.4,62.1 182.2,63.9 183.0,65.7 183.8,67.6 184.6,69.4 185.5,71.3 186.3,73.2 187.1,75.1 187.9,77.1 188.7,79.0 189.5,80.9 190.3,82.9 191.1,84.9 191.9,86.8 192.7,88.8 193.5,90.7 194.3,92.7 195.1,94.6 195.9,96.6 196.7,98.5 197.5,100.4 198.3,102.3 199.1,104.2 199.9,106.1 200.7,107.9 201.5,109.8 202.3,111.6 203.1,113.4 203.9,115.1 204.7,116.9 205.5,118.6 206.4,120.3 207.2,122.0 208.0,123.6 208.8,125.2 209.6,126.8 210.4,128.3 211.2,129.9 212.0,131.3 212.8,132.8 213.6,134.2 214.4,135.6 215.2,136.9 216.0,138.3 216.8,139.5 217.6,140.8 218.4,142.0 219.2,143.2 220.0,144.3 220.8,145.4 221.6,146.5 222.4,147.5 223.2,148.5 224.0,149.5 224.8,150.4 225.6,151.3 226.5,152.1 227.3,153.0 228.1,153.8 228.9,154.5 229.7,155.2 230.5,155.9 231.3,156.6 232.1,157.2 232.9,157.8 233.7,158.4 234.5,159.0 235.3,159.5 236.1,160.0 236.9,160.4 237.7,160.9 238.5,161.3 239.3,161.7 240.1,162.1 240.9,162.4 241.7,162.7 242.5,163.0 243.3,163.3 244.1,163.6 244.9,163.8 245.7,164.1 246.5,164.3 247.4,164.5 248.2,164.6 249.0,164.8 249.8,165.0 250.6,165.1 251.4,165.2 252.2,165.3 253.0,165.4 253.8,165.5 254.6,165.6 255.4,165.7 256.2,165.8 257.0,165.8" fill="none" stroke="#4a90d9" stroke-width="1.2" stroke-linejoin="round"/>
  <line x1="322" y1="28.0" x2="527" y2="28.0" stroke="#e5e7eb" stroke-width="0.5"/>
  <text x="318" y="31.0" text-anchor="end" font-size="7.5" fill="#6b7280">0</text>
  <line x1="322" y1="74.0" x2="527" y2="74.0" stroke="#e5e7eb" stroke-width="0.5"/>
  <text x="318" y="77.0" text-anchor="end" font-size="7.5" fill="#6b7280">-40</text>
  <line x1="322" y1="120.0" x2="527" y2="120.0" stroke="#e5e7eb" stroke-width="0.5"/>
  <text x="318" y="123.0" text-anchor="end" font-size="7.5" fill="#6b7280">-80</text>
  <line x1="322" y1="166.0" x2="527" y2="166.0" stroke="#e5e7eb" stroke-width="0.5"/>
  <text x="318" y="169.0" text-anchor="end" font-size="7.5" fill="#6b7280">-120</text>
  <line x1="322.0" y1="28" x2="322.0" y2="166" stroke="#e5e7eb" stroke-width="0.5"/>
  <text x="322.0" y="178" text-anchor="middle" font-size="7.5" fill="#6b7280">0</text>
  <line x1="363.0" y1="28" x2="363.0" y2="166" stroke="#e5e7eb" stroke-width="0.5"/>
  <text x="363.0" y="178" text-anchor="middle" font-size="7.5" fill="#6b7280">0.1</text>
  <line x1="404.0" y1="28" x2="404.0" y2="166" stroke="#e5e7eb" stroke-width="0.5"/>
  <text x="404.0" y="178" text-anchor="middle" font-size="7.5" fill="#6b7280">0.2</text>
  <line x1="445.0" y1="28" x2="445.0" y2="166" stroke="#e5e7eb" stroke-width="0.5"/>
  <text x="445.0" y="178" text-anchor="middle" font-size="7.5" fill="#6b7280">0.3</text>
  <line x1="486.0" y1="28" x2="486.0" y2="166" stroke="#e5e7eb" stroke-width="0.5"/>
  <text x="486.0" y="178" text-anchor="middle" font-size="7.5" fill="#6b7280">0.4</text>
  <line x1="527.0" y1="28" x2="527.0" y2="166" stroke="#e5e7eb" stroke-width="0.5"/>
  <text x="527.0" y="178" text-anchor="middle" font-size="7.5" fill="#6b7280">0.5</text>
  <line x1="322" y1="28" x2="322" y2="166" stroke="#d1d5db" stroke-width="0.75"/>
  <line x1="322" y1="166" x2="527" y2="166" stroke="#d1d5db" stroke-width="0.75"/>
  <polyline points="322.0,28.0 322.1,28.0 322.2,28.1 322.3,28.2 322.4,28.3 322.5,28.5 322.6,28.7 322.7,29.0 322.8,29.3 322.9,29.6 323.0,30.0 323.1,30.4 323.2,30.9 323.3,31.4 323.4,31.9 323.5,32.5 323.6,33.2 323.7,33.9 323.8,34.6 323.9,35.4 324.0,36.2 324.1,37.1 324.2,38.1 324.3,39.1 324.4,40.2 324.5,41.3 324.6,42.5 324.7,43.7 324.8,45.1 324.9,46.5 325.0,48.0 325.1,49.5 325.2,51.2 325.3,53.0 325.4,54.9 325.5,56.9 325.6,59.0 325.7,61.3 325.8,63.8 325.9,66.5 326.0,69.5 326.1,72.7 326.2,76.4 326.3,80.6 326.4,85.7 326.5,92.3 326.6,102.7 326.7,118.7 326.8,103.9 326.9,100.9 327.0,100.7 327.1,102.1 327.2,105.0 327.3,110.2 327.4,121.8 327.5,121.7 327.6,112.0 327.7,108.2 327.8,106.4 327.9,105.8 328.0,106.1 328.1,107.2 328.2,109.2 328.3,112.4 328.4,117.8 328.5,131.2 328.6,126.0 328.7,117.2 328.8,113.2 328.9,111.0 329.0,109.9 329.1,109.5 329.2,109.7 329.3,110.5 329.4,112.1 329.5,114.4 329.6,118.2 329.7,124.9 329.8,158.1 329.9,126.1 330.0,119.5 330.1,116.0 330.2,114.0 330.3,112.9 330.4,112.3 330.5,112.4 330.6,112.9 330.7,114.0 330.8,115.8 330.9,118.6 331.0,122.9 331.1,131.5 331.2,141.6 331.3,126.4 331.4,121.1 331.5,118.1 331.6,116.2 331.7,115.1 331.8,114.6 331.9,114.6 332.0,115.1 332.1,116.0 332.2,117.6 332.3,120.0 332.4,123.7 332.5,130.3 332.6,161.7 332.7,131.5 332.8,124.7 332.9,121.1 333.0,118.9 333.1,117.5 333.2,116.7 333.3,116.4 333.4,116.6 333.5,117.2 333.6,118.4 333.7,120.2 333.8,122.8 333.9,127.1 334.0,135.4 334.1,147.3 334.2,130.9 334.3,125.3 334.4,122.2 334.5,120.2 334.6,118.9 334.7,118.2 334.8,118.0 334.9,118.2 335.0,118.8 335.1,120.0 335.2,121.8 335.3,124.5 335.4,128.7 335.5,137.0 335.6,148.9 335.7,132.5 335.8,126.9 335.9,123.7 336.0,121.6 336.1,120.3 336.2,119.6 336.3,119.3 336.4,119.5 336.5,120.1 336.6,121.1 336.7,122.8 336.8,125.3 336.9,129.1 337.0,136.1 337.1,166.0 337.2,135.5 337.3,129.1 337.4,125.5 337.5,123.3 337.6,121.8 337.7,120.9 337.8,120.5 337.9,120.6 338.0,121.0 338.1,121.9 338.2,123.4 338.3,125.5 338.4,128.8 338.5,134.3 338.6,148.8 338.7,140.6 338.8,132.0 338.9,127.7 339.0,125.1 339.1,123.4 339.2,122.3 339.3,121.7 339.4,121.6 339.5,121.8 339.6,122.5 339.7,123.7 339.8,125.5 339.9,128.2 340.0,132.5 340.1,140.8 340.2,152.1 340.3,136.0 340.4,130.4 340.5,127.2 340.6,125.1 340.7,123.7 340.8,122.9 340.9,122.5 341.0,122.6 341.1,123.1 341.2,124.0 341.3,125.4 341.4,127.6 341.5,130.9 341.6,136.4 341.7,151.3 341.8,142.5 341.9,133.9 342.0,129.7 342.1,127.0 342.2,125.3 342.3,124.2 342.4,123.6 342.5,123.4 342.6,123.6 342.7,124.2 342.8,125.4 342.9,127.1 343.0,129.6 343.1,133.6 343.2,140.9 343.3,162.3 343.4,139.0 343.5,132.8 343.6,129.3 343.7,127.1 343.8,125.6 343.9,124.7 344.0,124.3 344.1,124.2 344.2,124.6 344.3,125.4 344.4,126.7 344.5,128.6 344.6,131.6 344.7,136.3 344.8,146.6 344.9,148.6 345.0,137.1 345.1,132.2 345.2,129.2 345.3,127.3 345.4,126.0 345.5,125.2 345.6,124.9 345.7,125.0 345.8,125.5 345.9,126.5 346.0,127.9 346.1,130.1 346.2,133.5 346.3,139.2 346.4,155.2 346.5,144.3 346.6,136.0 346.7,131.9 346.8,129.3 346.9,127.5 347.0,126.4 347.1,125.8 347.2,125.6 347.3,125.8 347.4,126.4 347.5,127.5 347.6,129.1 347.7,131.6 347.8,135.4 347.9,142.2 348.0,166.0 348.1,142.0 348.2,135.4 348.3,131.7 348.4,129.4 348.5,127.8 348.6,126.9 348.7,126.3 348.8,126.2 348.9,126.5 349.0,127.2 349.1,128.4 349.2,130.3 349.3,132.9 349.4,137.2 349.5,145.5 349.6,156.5 349.7,140.6 349.8,135.0 349.9,131.7 350.0,129.6 350.1,128.2 350.2,127.3 350.3,126.9 350.4,126.9 350.5,127.2 350.6,128.1 350.7,129.4 350.8,131.3 350.9,134.3 351.0,139.0 351.1,149.4 351.2,151.0 351.3,139.7 351.4,134.7 351.5,131.8 351.6,129.8 351.7,128.5 351.8,127.8 351.9,127.4 352.0,127.5 352.1,127.9 352.2,128.8 352.3,130.2 352.4,132.4 352.5,135.5 352.6,140.9 352.7,154.3 352.8,148.2 352.9,139.0 353.0,134.6 353.1,131.9 353.2,130.1 353.3,128.9 353.4,128.2 353.5,127.9 353.6,128.0 353.7,128.6 353.8,129.6 353.9,131.1 354.0,133.3 354.1,136.8 354.2,142.7 354.3,161.5 354.4,146.4 354.5,138.6 354.6,134.6 354.7,132.0 354.8,130.3 354.9,129.2 355.0,128.6 355.1,128.4 355.2,128.6 355.3,129.2 355.4,130.3 355.5,131.9 355.6,134.3 355.7,138.0 355.8,144.6 355.9,166.0 356.0,145.2 356.1,138.3 356.3,134.6 356.4,132.2 356.5,130.6 356.6,129.6 356.7,129.0 356.8,128.9 356.9,129.1 357.0,129.8 357.1,130.9 357.2,132.6 357.3,135.2 357.4,139.2 357.5,146.6 357.6,166.0 357.7,144.3 357.8,138.2 357.9,134.7 358.0,132.4 358.1,130.9 358.2,129.9 358.3,129.4 358.4,129.4 358.5,129.6 358.6,130.4 358.7,131.6 358.8,133.4 358.9,136.0 359.0,140.3 359.1,148.6 359.2,159.7 359.3,143.7 359.4,138.0 359.5,134.8 359.6,132.6 359.7,131.2 359.8,130.3 359.9,129.8 360.0,129.8 360.1,130.1 360.2,130.9 360.3,132.2 360.4,134.1 360.5,136.9 360.6,141.4 360.7,150.7 360.8,156.2 360.9,143.2 361.0,138.0 361.1,134.9 361.2,132.8 361.3,131.5 361.4,130.6 361.5,130.2 361.6,130.2 361.7,130.6 361.8,131.4 361.9,132.8 362.0,134.7 362.1,137.7 362.2,142.5 362.3,153.1 362.4,154.0 362.5,142.8 362.6,138.0 362.7,135.0 362.8,133.0 362.9,131.8 363.0,131.0 363.1,130.6 363.2,130.6 363.3,131.1 363.4,131.9 363.5,133.3 363.6,135.4 363.7,138.5 363.8,143.6 363.9,155.6 364.0,152.4 364.1,142.6 364.2,138.0 364.3,135.2 364.4,133.3 364.5,132.0 364.6,131.3 364.7,131.0 364.8,131.0 364.9,131.5 365.0,132.4 365.1,133.9 365.2,136.0 365.3,139.2 365.4,144.6 365.5,158.6 365.6,151.3 365.7,142.4 365.8,138.0 365.9,135.3 366.0,133.5 366.1,132.3 366.2,131.6 366.3,131.3 366.4,131.4 366.5,131.9 366.6,132.9 366.7,134.4 366.8,136.6 366.9,139.9 367.0,145.6 367.1,162.1 367.2,150.4 367.3,142.3 367.4,138.1 367.5,135.5 367.6,133.7 367.7,132.6 367.8,131.9 367.9,131.7 368.0,131.8 368.1,132.3 368.2,133.3 368.3,134.9 368.4,137.1 368.5,140.6 368.6,146.7 368.7,166.0 368.8,149.8 368.9,142.2 369.0,138.2 369.1,135.6 369.2,133.9 369.3,132.8 369.4,132.2 369.5,132.0 369.6,132.2 369.7,132.7 369.8,133.8 369.9,135.3 370.0,137.7 370.1,141.3 370.2,147.7 370.3,166.0 370.4,149.2 370.5,142.1 370.6,138.3 370.7,135.8 370.8,134.2 370.9,133.1 371.0,132.5 371.1,132.3 371.2,132.5 371.3,133.1 371.4,134.2 371.5,135.8 371.6,138.2 371.7,142.0 371.8,148.7 371.9,166.0 372.0,148.8 372.1,142.1 372.2,138.4 372.3,136.0 372.4,134.4 372.5,133.4 372.6,132.8 372.7,132.6 372.8,132.8 372.9,133.5 373.0,134.6 373.1,136.3 373.2,138.7 373.3,142.6 373.4,149.7 373.5,166.0 373.6,148.4 373.7,142.1 373.8,138.5 373.9,136.1 374.0,134.6 374.1,133.6 374.2,133.1 374.3,132.9 374.4,133.2 374.5,133.8 374.6,135.0 374.7,136.7 374.8,139.2 374.9,143.2 375.0,150.7 375.1,166.0 375.2,148.2 375.3,142.1 375.4,138.6 375.5,136.3 375.6,134.8 375.7,133.8 375.8,133.3 375.9,133.2 376.0,133.5 376.1,134.2 376.2,135.3 376.3,137.1 376.4,139.7 376.5,143.8 376.6,151.7 376.7,166.0 376.8,147.9 376.9,142.1 377.0,138.7 377.1,136.5 377.2,135.0 377.3,134.1 377.4,133.6 377.5,133.5 377.6,133.8 377.7,134.5 377.8,135.7 377.9,137.5 378.0,140.2 378.1,144.4 378.2,152.8 378.3,163.7 378.4,147.7 378.5,142.1 378.6,138.8 378.7,136.7 378.8,135.2 378.9,134.3 379.0,133.8 379.1,133.8 379.2,134.1 379.3,134.8 379.4,136.1 379.5,137.9 379.6,140.6 379.7,145.0 379.8,153.8 379.9,162.0 380.0,147.6 380.1,142.1 380.2,138.9 380.3,136.8 380.4,135.4 380.5,134.5 380.6,134.1 380.7,134.0 380.8,134.4 380.9,135.1 381.0,136.4 381.1,138.3 381.2,141.1 381.3,145.6 381.4,154.8 381.5,160.6 381.6,147.5 381.7,142.2 381.8,139.1 381.9,137.0 382.0,135.6 382.1,134.8 382.2,134.3 382.3,134.3 382.4,134.7 382.5,135.4 382.6,136.7 382.7,138.6 382.8,141.5 382.9,146.1 383.0,155.9 383.1,159.6 383.2,147.4 383.3,142.3 383.4,139.2 383.5,137.2 383.6,135.8 383.7,135.0 383.8,134.6 383.9,134.6 384.0,134.9 384.1,135.7 384.2,137.0 384.3,139.0 384.4,141.9 384.5,146.6 384.6,156.9 384.7,158.8 384.8,147.3 384.9,142.3 385.0,139.3 385.1,137.3 385.2,136.0 385.3,135.2 385.4,134.8 385.5,134.8 385.6,135.2 385.7,136.0 385.8,137.4 385.9,139.3 386.0,142.3 386.1,147.2 386.2,158.0 386.3,158.0 386.4,147.2 386.5,142.4 386.6,139.4 386.7,137.5 386.8,136.2 386.9,135.4 387.0,135.0 387.1,135.0 387.2,135.5 387.3,136.3 387.4,137.7 387.5,139.7 387.6,142.7 387.7,147.7 387.8,159.2 387.9,157.4 388.0,147.2 388.1,142.5 388.2,139.6 388.3,137.6 388.4,136.4 388.5,135.6 388.6,135.2 388.7,135.3 388.8,135.7 388.9,136.6 389.0,137.9 389.1,140.0 389.2,143.1 389.3,148.2 389.4,160.3 389.5,156.9 389.6,147.1 389.7,142.5 389.8,139.7 389.9,137.8 390.0,136.5 390.1,135.8 390.2,135.4 390.3,135.5 390.4,135.9 390.5,136.8 390.6,138.2 390.7,140.3 390.8,143.5 390.9,148.7 391.0,161.5 391.1,156.5 391.2,147.1 391.3,142.6 391.4,139.8 391.5,137.9 391.6,136.7 391.7,136.0 391.8,135.7 391.9,135.7 392.0,136.2 392.1,137.1 392.2,138.5 392.3,140.6 392.4,143.8 392.5,149.2 392.6,162.8 392.7,156.1 392.8,147.1 392.9,142.7 393.0,139.9 393.1,138.1 393.2,136.9 393.3,136.2 393.4,135.9 393.5,135.9 393.6,136.4 393.7,137.3 393.8,138.8 393.9,140.9 394.0,144.2 394.1,149.6 394.2,164.1 394.3,155.8 394.4,147.1 394.5,142.8 394.6,140.1 394.7,138.2 394.8,137.1 394.9,136.3 395.0,136.1 395.1,136.1 395.2,136.6 395.3,137.6 395.4,139.0 395.5,141.2 395.6,144.5 395.7,150.1 395.8,165.6 395.9,155.5 396.0,147.1 396.1,142.9 396.2,140.2 396.3,138.4 396.4,137.2 396.5,136.5 396.6,136.2 396.7,136.4 396.8,136.9 396.9,137.8 397.0,139.3 397.1,141.5 397.2,144.8 397.3,150.6 397.4,166.0 397.5,155.3 397.6,147.1 397.7,142.9 397.8,140.3 397.9,138.5 398.0,137.4 398.1,136.7 398.2,136.4 398.3,136.6 398.4,137.1 398.5,138.0 398.6,139.5 398.7,141.8 398.8,145.2 398.9,151.0 399.0,166.0 399.1,155.0 399.2,147.1 399.3,143.0 399.4,140.4 399.5,138.7 399.6,137.5 399.7,136.9 399.8,136.6 399.9,136.7 400.0,137.3 400.1,138.3 400.2,139.8 400.3,142.0 400.4,145.5 400.5,151.4 400.6,166.0 400.7,154.8 400.8,147.1 400.9,143.1 401.0,140.5 401.1,138.8 401.2,137.7 401.3,137.0 401.4,136.8 401.5,136.9 401.6,137.5 401.7,138.5 401.8,140.0 401.9,142.3 402.0,145.8 402.1,151.9 402.2,166.0 402.3,154.7 402.4,147.2 402.5,143.2 402.6,140.6 402.7,138.9 402.8,137.8 402.9,137.2 403.0,137.0 403.1,137.1 403.2,137.7 403.3,138.7 403.4,140.2 403.5,142.6 403.6,146.1 403.7,152.3 403.8,166.0 403.9,154.5 404.0,147.2 404.1,143.3 404.2,140.8 404.3,139.1 404.4,138.0 404.5,137.4 404.6,137.1 404.7,137.3 404.8,137.9 404.9,138.9 405.0,140.5 405.1,142.8 405.2,146.4 405.3,152.7 405.4,166.0 405.5,154.4 405.6,147.2 405.7,143.3 405.8,140.9 405.9,139.2 406.0,138.1 406.1,137.5 406.2,137.3 406.3,137.5 406.4,138.1 406.5,139.1 406.6,140.7 406.7,143.0 406.8,146.7 406.9,153.1 407.0,166.0 407.1,154.3 407.2,147.2 407.3,143.4 407.4,141.0 407.5,139.3 407.6,138.3 407.7,137.7 407.8,137.5 407.9,137.6 408.0,138.2 408.1,139.3 408.2,140.9 408.3,143.3 408.4,147.0 408.5,153.6 408.6,166.0 408.7,154.1 408.8,147.3 408.9,143.5 409.0,141.1 409.1,139.5 409.2,138.4 409.3,137.8 409.4,137.6 409.5,137.8 409.6,138.4 409.7,139.5 409.8,141.1 409.9,143.5 410.0,147.2 410.1,154.0 410.2,166.0 410.3,154.0 410.4,147.3 410.5,143.6 410.6,141.2 410.7,139.6 410.8,138.5 410.9,138.0 411.0,137.8 411.1,138.0 411.2,138.6 411.3,139.7 411.4,141.3 411.5,143.7 411.6,147.5 411.7,154.4 411.8,166.0 411.9,153.9 412.0,147.3 412.1,143.7 412.2,141.3 412.3,139.7 412.4,138.7 412.5,138.1 412.6,137.9 412.7,138.1 412.8,138.8 412.9,139.8 413.0,141.5 413.1,144.0 413.2,147.8 413.3,154.8 413.4,166.0 413.5,153.9 413.6,147.4 413.7,143.7 413.8,141.4 413.9,139.8 414.0,138.8 414.1,138.2 414.2,138.1 414.3,138.3 414.4,138.9 414.5,140.0 414.6,141.7 414.7,144.2 414.8,148.0 414.9,155.1 415.0,166.0 415.1,153.8 415.2,147.4 415.3,143.8 415.4,141.5 415.5,139.9 415.6,138.9 415.7,138.4 415.8,138.2 415.9,138.4 416.0,139.1 416.1,140.2 416.2,141.9 416.3,144.4 416.4,148.3 416.5,155.5 416.6,166.0 416.7,153.7 416.8,147.5 416.9,143.9 417.0,141.6 417.1,140.0 417.2,139.0 417.3,138.5 417.4,138.4 417.5,138.6 417.6,139.2 417.7,140.4 417.8,142.1 417.9,144.6 418.0,148.5 418.1,155.9 418.2,166.0 418.3,153.7 418.4,147.5 418.5,144.0 418.6,141.7 418.7,140.1 418.8,139.2 418.9,138.6 419.0,138.5 419.1,138.7 419.2,139.4 419.3,140.5 419.4,142.2 419.5,144.8 419.6,148.8 419.7,156.3 419.8,166.0 419.9,153.6 420.0,147.5 420.1,144.0 420.2,141.8 420.3,140.3 420.4,139.3 420.5,138.7 420.6,138.6 420.7,138.9 420.8,139.5 420.9,140.7 421.0,142.4 421.1,145.0 421.2,149.0 421.3,156.7 421.4,166.0 421.5,153.6 421.6,147.6 421.7,144.1 421.8,141.9 421.9,140.4 422.0,139.4 422.1,138.9 422.2,138.8 422.3,139.0 422.4,139.7 422.5,140.8 422.6,142.6 422.7,145.2 422.8,149.3 422.9,157.0 423.0,166.0 423.1,153.5 423.2,147.6 423.3,144.2 423.4,142.0 423.5,140.5 423.6,139.5 423.7,139.0 423.8,138.9 423.9,139.2 424.0,139.8 424.1,141.0 424.2,142.8 424.3,145.4 424.4,149.5 424.6,157.4 424.7,166.0 424.8,153.5 424.9,147.6 425.0,144.3 425.1,142.0 425.2,140.6 425.3,139.6 425.4,139.1 425.5,139.0 425.6,139.3 425.7,140.0 425.8,141.1 425.9,142.9 426.0,145.6 426.1,149.7 426.2,157.8 426.3,166.0 426.4,153.4 426.5,147.7 426.6,144.3 426.7,142.1 426.8,140.7 426.9,139.7 427.0,139.2 427.1,139.1 427.2,139.4 427.3,140.1 427.4,141.3 427.5,143.1 427.6,145.7 427.7,149.9 427.8,158.1 427.9,166.0 428.0,153.4 428.1,147.7 428.2,144.4 428.3,142.2 428.4,140.8 428.5,139.8 428.6,139.3 428.7,139.2 428.8,139.5 428.9,140.3 429.0,141.4 429.1,143.2 429.2,145.9 429.3,150.2 429.4,158.5 429.5,166.0 429.6,153.4 429.7,147.8 429.8,144.5 429.9,142.3 430.0,140.8 430.1,139.9 430.2,139.4 430.3,139.4 430.4,139.7 430.5,140.4 430.6,141.6 430.7,143.4 430.8,146.1 430.9,150.4 431.0,158.9 431.1,166.0 431.2,153.4 431.3,147.8 431.4,144.5 431.5,142.4 431.6,140.9 431.7,140.0 431.8,139.6 431.9,139.5 432.0,139.8 432.1,140.5 432.2,141.7 432.3,143.5 432.4,146.3 432.5,150.6 432.6,159.2 432.7,166.0 432.8,153.3 432.9,147.8 433.0,144.6 433.1,142.5 433.2,141.0 433.3,140.1 433.4,139.7 433.5,139.6 433.6,139.9 433.7,140.6 433.8,141.9 433.9,143.7 434.0,146.4 434.1,150.8 434.2,159.6 434.3,166.0 434.4,153.3 434.5,147.9 434.6,144.7 434.7,142.5 434.8,141.1 434.9,140.2 435.0,139.8 435.1,139.7 435.2,140.0 435.3,140.8 435.4,142.0 435.5,143.8 435.6,146.6 435.7,151.0 435.8,159.9 435.9,166.0 436.0,153.3 436.1,147.9 436.2,144.7 436.3,142.6 436.4,141.2 436.5,140.3 436.6,139.9 436.7,139.8 436.8,140.1 436.9,140.9 437.0,142.1 437.1,144.0 437.2,146.7 437.3,151.2 437.4,160.3 437.5,166.0 437.6,153.3 437.7,147.9 437.8,144.8 437.9,142.7 438.0,141.3 438.1,140.4 438.2,140.0 438.3,139.9 438.4,140.2 438.5,141.0 438.6,142.2 438.7,144.1 438.8,146.9 438.9,151.4 439.0,160.6 439.1,166.0 439.2,153.2 439.3,148.0 439.4,144.8 439.5,142.8 439.6,141.4 439.7,140.5 439.8,140.0 439.9,140.0 440.0,140.3 440.1,141.1 440.2,142.4 440.3,144.2 440.4,147.1 440.5,151.6 440.6,161.0 440.7,166.0 440.8,153.2 440.9,148.0 441.0,144.9 441.1,142.8 441.2,141.4 441.3,140.6 441.4,140.1 441.5,140.1 441.6,140.4 441.7,141.2 441.8,142.5 441.9,144.4 442.0,147.2 442.1,151.8 442.2,161.3 442.3,165.8 442.4,153.2 442.5,148.1 442.6,144.9 442.7,142.9 442.8,141.5 442.9,140.7 443.0,140.2 443.1,140.2 443.2,140.6 443.3,141.3 443.4,142.6 443.5,144.5 443.6,147.4 443.7,151.9 443.8,161.7 443.9,165.5 444.0,153.2 444.1,148.1 444.2,145.0 444.3,143.0 444.4,141.6 444.5,140.7 444.6,140.3 444.7,140.3 444.8,140.7 444.9,141.4 445.0,142.7 445.1,144.6 445.2,147.5 445.3,152.1 445.4,162.0 445.5,165.2 445.6,153.2 445.7,148.1 445.8,145.0 445.9,143.0 446.0,141.7 446.1,140.8 446.2,140.4 446.3,140.4 446.4,140.7 446.5,141.5 446.6,142.8 446.7,144.7 446.8,147.6 446.9,152.3 447.0,162.3 447.1,165.0 447.2,153.2 447.3,148.1 447.4,145.1 447.5,143.1 447.6,141.7 447.7,140.9 447.8,140.5 447.9,140.5 448.0,140.8 448.1,141.6 448.2,142.9 448.3,144.9 448.4,147.8 448.5,152.5 448.6,162.7 448.7,164.7 448.8,153.2 448.9,148.2 449.0,145.2 449.1,143.1 449.2,141.8 449.3,141.0 449.4,140.6 449.5,140.6 449.6,140.9 449.7,141.7 449.8,143.0 449.9,145.0 450.0,147.9 450.1,152.7 450.2,163.0 450.3,164.5 450.4,153.1 450.5,148.2 450.6,145.2 450.7,143.2 450.8,141.9 450.9,141.0 451.0,140.6 451.1,140.6 451.2,141.0 451.3,141.8 451.4,143.1 451.5,145.1 451.6,148.0 451.7,152.8 451.8,163.4 451.9,164.3 452.0,153.1 452.1,148.2 452.2,145.2 452.3,143.3 452.4,141.9 452.5,141.1 452.6,140.7 452.7,140.7 452.8,141.1 452.9,141.9 453.0,143.2 453.1,145.2 453.2,148.2 453.3,153.0 453.4,163.7 453.5,164.1 453.6,153.1 453.7,148.3 453.8,145.3 453.9,143.3 454.0,142.0 454.1,141.2 454.2,140.8 454.3,140.8 454.4,141.2 454.5,142.0 454.6,143.3 454.7,145.3 454.8,148.3 454.9,153.2 455.0,164.1 455.1,163.9 455.2,153.1 455.3,148.3 455.4,145.3 455.5,143.4 455.6,142.1 455.7,141.3 455.8,140.9 455.9,140.9 456.0,141.3 456.1,142.1 456.2,143.4 456.3,145.4 456.4,148.4 456.5,153.3 456.6,164.4 456.7,163.7 456.8,153.1 456.9,148.3 457.0,145.4 457.1,143.4 457.2,142.1 457.3,141.3 457.4,140.9 457.5,141.0 457.6,141.4 457.7,142.2 457.8,143.5 457.9,145.5 458.0,148.5 458.1,153.5 458.2,164.8 458.3,163.5 458.4,153.1 458.5,148.3 458.6,145.4 458.7,143.5 458.8,142.2 458.9,141.4 459.0,141.0 459.1,141.0 459.2,141.4 459.3,142.3 459.4,143.6 459.5,145.6 459.6,148.7 459.7,153.6 459.8,165.1 459.9,163.3 460.0,153.1 460.1,148.4 460.2,145.5 460.3,143.5 460.4,142.2 460.5,141.4 460.6,141.1 460.7,141.1 460.8,141.5 460.9,142.4 461.0,143.7 461.1,145.7 461.2,148.8 461.3,153.8 461.4,165.5 461.5,163.2 461.6,153.1 461.7,148.4 461.8,145.5 461.9,143.6 462.0,142.3 462.1,141.5 462.2,141.1 462.3,141.2 462.4,141.6 462.5,142.4 462.6,143.8 462.7,145.8 462.8,148.9 462.9,154.0 463.0,165.9 463.1,163.0 463.2,153.1 463.3,148.4 463.4,145.5 463.5,143.6 463.6,142.3 463.7,141.6 463.8,141.2 463.9,141.2 464.0,141.7 464.1,142.5 464.2,143.9 464.3,145.9 464.4,149.0 464.5,154.1 464.6,166.0 464.7,162.9 464.8,153.0 464.9,148.4 465.0,145.6 465.1,143.7 465.2,142.4 465.3,141.6 465.4,141.3 465.5,141.3 465.6,141.7 465.7,142.6 465.8,144.0 465.9,146.0 466.0,149.1 466.1,154.3 466.2,166.0 466.3,162.7 466.4,153.0 466.5,148.4 466.6,145.6 466.7,143.7 466.8,142.4 466.9,141.7 467.0,141.3 467.1,141.4 467.2,141.8 467.3,142.7 467.4,144.1 467.5,146.1 467.6,149.2 467.7,154.4 467.8,166.0 467.9,162.6 468.0,153.0 468.1,148.5 468.2,145.6 468.3,143.7 468.4,142.5 468.5,141.7 468.6,141.4 468.7,141.4 468.8,141.9 468.9,142.8 469.0,144.1 469.1,146.2 469.2,149.3 469.3,154.5 469.4,166.0 469.5,162.4 469.6,153.0 469.7,148.5 469.8,145.7 469.9,143.8 470.0,142.5 470.1,141.8 470.2,141.4 470.3,141.5 470.4,141.9 470.5,142.8 470.6,144.2 470.7,146.3 470.8,149.4 470.9,154.7 471.0,166.0 471.1,162.3 471.2,153.0 471.3,148.5 471.4,145.7 471.5,143.8 471.6,142.6 471.7,141.8 471.8,141.5 471.9,141.6 472.0,142.0 472.1,142.9 472.2,144.3 472.3,146.4 472.4,149.5 472.5,154.8 472.6,166.0 472.7,162.2 472.8,153.0 472.9,148.5 473.0,145.7 473.1,143.9 473.2,142.6 473.3,141.9 473.4,141.6 473.5,141.6 473.6,142.1 473.7,143.0 473.8,144.4 473.9,146.5 474.0,149.6 474.1,155.0 474.2,166.0 474.3,162.1 474.4,153.0 474.5,148.5 474.6,145.7 474.7,143.9 474.8,142.7 474.9,141.9 475.0,141.6 475.1,141.7 475.2,142.1 475.3,143.0 475.4,144.4 475.5,146.6 475.6,149.7 475.7,155.1 475.8,166.0 475.9,161.9 476.0,152.9 476.1,148.5 476.2,145.8 476.3,143.9 476.4,142.7 476.5,142.0 476.6,141.7 476.7,141.7 476.8,142.2 476.9,143.1 477.0,144.5 477.1,146.6 477.2,149.8 477.3,155.2 477.4,166.0 477.5,161.8 477.6,152.9 477.7,148.5 477.8,145.8 477.9,144.0 478.0,142.7 478.1,142.0 478.2,141.7 478.3,141.8 478.4,142.2 478.5,143.1 478.6,144.6 478.7,146.7 478.8,149.9 478.9,155.4 479.0,166.0 479.1,161.7 479.2,152.9 479.3,148.6 479.4,145.8 479.5,144.0 479.6,142.8 479.7,142.1 479.8,141.7 479.9,141.8 480.0,142.3 480.1,143.2 480.2,144.6 480.3,146.8 480.4,150.0 480.5,155.5 480.6,166.0 480.7,161.6 480.8,152.9 480.9,148.6 481.0,145.8 481.1,144.0 481.2,142.8 481.3,142.1 481.4,141.8 481.5,141.9 481.6,142.4 481.7,143.3 481.8,144.7 481.9,146.9 482.0,150.1 482.1,155.6 482.2,166.0 482.3,161.5 482.4,152.9 482.5,148.6 482.6,145.9 482.7,144.0 482.8,142.9 482.9,142.1 483.0,141.8 483.1,141.9 483.2,142.4 483.3,143.3 483.4,144.8 483.5,146.9 483.6,150.2 483.7,155.8 483.8,166.0 483.9,161.4 484.0,152.9 484.1,148.6 484.2,145.9 484.3,144.1 484.4,142.9 484.5,142.2 484.6,141.9 484.7,142.0 484.8,142.5 484.9,143.4 485.0,144.8 485.1,147.0 485.2,150.3 485.3,155.9 485.4,166.0 485.5,161.3 485.6,152.8 485.7,148.6 485.8,145.9 485.9,144.1 486.0,142.9 486.1,142.2 486.2,141.9 486.3,142.0 486.4,142.5 486.5,143.4 486.6,144.9 486.7,147.1 486.8,150.4 486.9,156.0 487.0,166.0 487.1,161.1 487.2,152.8 487.3,148.6 487.4,145.9 487.5,144.1 487.6,142.9 487.7,142.2 487.8,142.0 487.9,142.1 488.0,142.5 488.1,143.5 488.2,145.0 488.3,147.1 488.4,150.5 488.5,156.1 488.6,166.0 488.7,161.0 488.8,152.8 488.9,148.6 489.0,145.9 489.1,144.1 489.2,143.0 489.3,142.3 489.4,142.0 489.5,142.1 489.6,142.6 489.7,143.5 489.8,145.0 489.9,147.2 490.0,150.5 490.1,156.3 490.2,166.0 490.3,160.9 490.4,152.8 490.5,148.6 490.6,145.9 490.7,144.2 490.8,143.0 490.9,142.3 491.0,142.0 491.1,142.1 491.2,142.6 491.3,143.6 491.4,145.1 491.5,147.3 491.6,150.6 491.7,156.4 491.8,166.0 491.9,160.8 492.0,152.7 492.1,148.6 492.2,146.0 492.3,144.2 492.4,143.0 492.5,142.3 492.6,142.1 492.7,142.2 492.9,142.7 493.0,143.6 493.1,145.1 493.2,147.3 493.3,150.7 493.4,156.5 493.5,166.0 493.6,160.7 493.7,152.7 493.8,148.6 493.9,146.0 494.0,144.2 494.1,143.0 494.2,142.4 494.3,142.1 494.4,142.2 494.5,142.7 494.6,143.7 494.7,145.2 494.8,147.4 494.9,150.8 495.0,156.6 495.1,166.0 495.2,160.6 495.3,152.7 495.4,148.6 495.5,146.0 495.6,144.2 495.7,143.1 495.8,142.4 495.9,142.1 496.0,142.2 496.1,142.8 496.2,143.7 496.3,145.2 496.4,147.4 496.5,150.9 496.6,156.7 496.7,166.0 496.8,160.5 496.9,152.7 497.0,148.6 497.1,146.0 497.2,144.2 497.3,143.1 497.4,142.4 497.5,142.1 497.6,142.3 497.7,142.8 497.8,143.8 497.9,145.3 498.0,147.5 498.1,150.9 498.2,156.8 498.3,166.0 498.4,160.4 498.5,152.6 498.6,148.6 498.7,146.0 498.8,144.2 498.9,143.1 499.0,142.4 499.1,142.2 499.2,142.3 499.3,142.8 499.4,143.8 499.5,145.3 499.6,147.6 499.7,151.0 499.8,157.0 499.9,166.0 500.0,160.3 500.1,152.6 500.2,148.6 500.3,146.0 500.4,144.3 500.5,143.1 500.6,142.5 500.7,142.2 500.8,142.3 500.9,142.9 501.0,143.8 501.1,145.4 501.2,147.6 501.3,151.1 501.4,157.1 501.5,166.0 501.6,160.2 501.7,152.6 501.8,148.6 501.9,146.0 502.0,144.3 502.1,143.1 502.2,142.5 502.3,142.2 502.4,142.4 502.5,142.9 502.6,143.9 502.7,145.4 502.8,147.7 502.9,151.1 503.0,157.2 503.1,166.0 503.2,160.1 503.3,152.6 503.4,148.6 503.5,146.0 503.6,144.3 503.7,143.2 503.8,142.5 503.9,142.2 504.0,142.4 504.1,142.9 504.2,143.9 504.3,145.4 504.4,147.7 504.5,151.2 504.6,157.3 504.7,166.0 504.8,160.1 504.9,152.5 505.0,148.5 505.1,146.0 505.2,144.3 505.3,143.2 505.4,142.5 505.5,142.3 505.6,142.4 505.7,143.0 505.8,143.9 505.9,145.5 506.0,147.8 506.1,151.3 506.2,157.4 506.3,166.0 506.4,160.0 506.5,152.5 506.6,148.5 506.7,146.0 506.8,144.3 506.9,143.2 507.0,142.5 507.1,142.3 507.2,142.4 507.3,143.0 507.4,144.0 507.5,145.5 507.6,147.8 507.7,151.3 507.8,157.5 507.9,166.0 508.0,159.9 508.1,152.5 508.2,148.5 508.3,146.0 508.4,144.3 508.5,143.2 508.6,142.5 508.7,142.3 508.8,142.5 508.9,143.0 509.0,144.0 509.1,145.6 509.2,147.9 509.3,151.4 509.4,157.6 509.5,166.0 509.6,159.8 509.7,152.4 509.8,148.5 509.9,146.0 510.0,144.3 510.1,143.2 510.2,142.6 510.3,142.3 510.4,142.5 510.5,143.0 510.6,144.0 510.7,145.6 510.8,147.9 510.9,151.5 511.0,157.7 511.1,166.0 511.2,159.7 511.3,152.4 511.4,148.5 511.5,146.0 511.6,144.3 511.7,143.2 511.8,142.6 511.9,142.3 512.0,142.5 512.1,143.1 512.2,144.1 512.3,145.6 512.4,147.9 512.5,151.5 512.6,157.8 512.7,166.0 512.8,159.6 512.9,152.4 513.0,148.5 513.1,146.0 513.2,144.3 513.3,143.2 513.4,142.6 513.5,142.3 513.6,142.5 513.7,143.1 513.8,144.1 513.9,145.7 514.0,148.0 514.1,151.6 514.2,157.9 514.3,166.0 514.4,159.5 514.5,152.3 514.6,148.5 514.7,146.0 514.8,144.3 514.9,143.2 515.0,142.6 515.1,142.4 515.2,142.5 515.3,143.1 515.4,144.1 515.5,145.7 515.6,148.0 515.7,151.6 515.8,158.0 515.9,166.0 516.0,159.4 516.1,152.3 516.2,148.4 516.3,146.0 516.4,144.3 516.5,143.2 516.6,142.6 516.7,142.4 516.8,142.5 516.9,143.1 517.0,144.1 517.1,145.7 517.2,148.1 517.3,151.7 517.4,158.1 517.5,166.0 517.6,159.3 517.7,152.2 517.8,148.4 517.9,145.9 518.0,144.3 518.1,143.2 518.2,142.6 518.3,142.4 518.4,142.6 518.5,143.1 518.6,144.2 518.7,145.7 518.8,148.1 518.9,151.7 519.0,158.2 519.1,166.0 519.2,159.2 519.3,152.2 519.4,148.4 519.5,145.9 519.6,144.3 519.7,143.2 519.8,142.6 519.9,142.4 520.0,142.6 520.1,143.1 520.2,144.2 520.3,145.8 520.4,148.1 520.5,151.8 520.6,158.3 520.7,166.0 520.8,159.1 520.9,152.2 521.0,148.4 521.1,145.9 521.2,144.3 521.3,143.2 521.4,142.6 521.5,142.4 521.6,142.6 521.7,143.2 521.8,144.2 521.9,145.8 522.0,148.2 522.1,151.8 522.2,158.4 522.3,166.0 522.4,159.0 522.5,152.1 522.6,148.3 522.7,145.9 522.8,144.3 522.9,143.2 523.0,142.6 523.1,142.4 523.2,142.6 523.3,143.2 523.4,144.2 523.5,145.8 523.6,148.2 523.7,151.9 523.8,158.5 523.9,166.0 524.0,158.9 524.1,152.1 524.2,148.3 524.3,145.9 524.4,144.3 524.5,143.2 524.6,142.6 524.7,142.4 524.8,142.6 524.9,143.2 525.0,144.2 525.1,145.8 525.2,148.2 525.3,151.9 525.4,158.6 525.5,166.0 525.6,158.8 525.7,152.0 525.8,148.3 525.9,145.9 526.0,144.3 526.1,143.2 526.2,142.6 526.3,142.4 526.4,142.6 526.5,143.2 526.6,144.2 526.7,145.9 526.8,148.3 526.9,152.0 527.0,158.7" fill="none" stroke="#4a90d9" stroke-width="1.2" stroke-linejoin="round"/>
  <text x="154.5" y="190" text-anchor="middle" font-size="8" fill="#6b7280">n / N</text>
  <text x="424.5" y="190" text-anchor="middle" font-size="8" fill="#6b7280">Normalized frequency (× Fₛ)</text>
</svg>
