<svg xmlns="http://www.w3.org/2000/svg" viewBox="0 0 800 230" style="font-family:system-ui,-apple-system,sans-serif">
  <line x1="42" y1="182.0" x2="377" y2="182.0" stroke="#e5e7eb" stroke-width="0.7"/>
  <text x="37" y="186.0" text-anchor="end" font-size="10" fill="#6b7280">0</text>
  <line x1="42" y1="95.0" x2="377" y2="95.0" stroke="#e5e7eb" stroke-width="0.7"/>
  <text x="37" y="99.0" text-anchor="end" font-size="10" fill="#6b7280">0.5</text>
  <line x1="42" y1="8.0" x2="377" y2="8.0" stroke="#e5e7eb" stroke-width="0.7"/>
  <text x="37" y="12.0" text-anchor="end" font-size="10" fill="#6b7280">1</text>
  <line x1="42.0" y1="8" x2="42.0" y2="182" stroke="#e5e7eb" stroke-width="0.7"/>
  <text x="42.0" y="198" text-anchor="middle" font-size="10" fill="#6b7280">0</text>
  <line x1="209.5" y1="8" x2="209.5" y2="182" stroke="#e5e7eb" stroke-width="0.7"/>
  <text x="209.5" y="198" text-anchor="middle" font-size="10" fill="#6b7280">0.5</text>
  <line x1="377.0" y1="8" x2="377.0" y2="182" stroke="#e5e7eb" stroke-width="0.7"/>
  <text x="377.0" y="198" text-anchor="middle" font-size="10" fill="#6b7280">1</text>
  <line x1="42" y1="8" x2="42" y2="182" stroke="#d1d5db" stroke-width="1"/>
  <line x1="42" y1="182" x2="377" y2="182" stroke="#d1d5db" stroke-width="1"/>
  <path d="M42.0,182.0 42.0,182.0 43.3,180.6 44.6,179.2 45.9,177.8 47.3,176.4 48.6,174.9 49.9,173.4 51.2,171.9 52.5,170.4 53.8,168.9 55.1,167.3 56.5,165.8 57.8,164.2 59.1,162.6 60.4,161.0 61.7,159.3 63.0,157.7 64.3,156.0 65.6,154.3 67.0,152.6 68.3,150.9 69.6,149.2 70.9,147.5 72.2,145.7 73.5,144.0 74.8,142.2 76.2,140.4 77.5,138.6 78.8,136.8 80.1,135.0 81.4,133.2 82.7,131.4 84.0,129.6 85.4,127.7 86.7,125.9 88.0,124.0 89.3,122.2 90.6,120.3 91.9,118.5 93.2,116.6 94.5,114.7 95.9,112.9 97.2,111.0 98.5,109.1 99.8,107.2 101.1,105.4 102.4,103.5 103.7,101.6 105.1,99.8 106.4,97.9 107.7,96.1 109.0,94.2 110.3,92.4 111.6,90.5 112.9,88.7 114.3,86.9 115.6,85.0 116.9,83.2 118.2,81.4 119.5,79.6 120.8,77.8 122.1,76.1 123.5,74.3 124.8,72.5 126.1,70.8 127.4,69.1 128.7,67.4 130.0,65.7 131.3,64.0 132.6,62.3 134.0,60.6 135.3,59.0 136.6,57.4 137.9,55.8 139.2,54.2 140.5,52.6 141.8,51.1 143.2,49.6 144.5,48.0 145.8,46.6 147.1,45.1 148.4,43.6 149.7,42.2 151.0,40.8 152.4,39.5 153.7,38.1 155.0,36.8 156.3,35.5 157.6,34.2 158.9,32.9 160.2,31.7 161.5,30.5 162.9,29.4 164.2,28.2 165.5,27.1 166.8,26.0 168.1,25.0 169.4,23.9 170.7,22.9 172.1,22.0 173.4,21.0 174.7,20.1 176.0,19.2 177.3,18.4 178.6,17.6 179.9,16.8 181.3,16.0 182.6,15.3 183.9,14.6 185.2,14.0 186.5,13.3 187.8,12.8 189.1,12.2 190.5,11.7 191.8,11.2 193.1,10.7 194.4,10.3 195.7,9.9 197.0,9.6 198.3,9.3 199.6,9.0 201.0,8.7 202.3,8.5 203.6,8.4 204.9,8.2 206.2,8.1 207.5,8.0 208.8,8.0 210.2,8.0 211.5,8.0 212.8,8.1 214.1,8.2 215.4,8.4 216.7,8.5 218.0,8.7 219.4,9.0 220.7,9.3 222.0,9.6 223.3,9.9 224.6,10.3 225.9,10.7 227.2,11.2 228.5,11.7 229.9,12.2 231.2,12.8 232.5,13.3 233.8,14.0 235.1,14.6 236.4,15.3 237.7,16.0 239.1,16.8 240.4,17.6 241.7,18.4 243.0,19.2 244.3,20.1 245.6,21.0 246.9,22.0 248.3,22.9 249.6,23.9 250.9,25.0 252.2,26.0 253.5,27.1 254.8,28.2 256.1,29.4 257.5,30.5 258.8,31.7 260.1,32.9 261.4,34.2 262.7,35.5 264.0,36.8 265.3,38.1 266.6,39.5 268.0,40.8 269.3,42.2 270.6,43.6 271.9,45.1 273.2,46.6 274.5,48.0 275.8,49.6 277.2,51.1 278.5,52.6 279.8,54.2 281.1,55.8 282.4,57.4 283.7,59.0 285.0,60.6 286.4,62.3 287.7,64.0 289.0,65.7 290.3,67.4 291.6,69.1 292.9,70.8 294.2,72.5 295.5,74.3 296.9,76.1 298.2,77.8 299.5,79.6 300.8,81.4 302.1,83.2 303.4,85.0 304.7,86.9 306.1,88.7 307.4,90.5 308.7,92.4 310.0,94.2 311.3,96.1 312.6,97.9 313.9,99.8 315.3,101.6 316.6,103.5 317.9,105.4 319.2,107.2 320.5,109.1 321.8,111.0 323.1,112.9 324.5,114.7 325.8,116.6 327.1,118.5 328.4,120.3 329.7,122.2 331.0,124.0 332.3,125.9 333.6,127.7 335.0,129.6 336.3,131.4 337.6,133.2 338.9,135.0 340.2,136.8 341.5,138.6 342.8,140.4 344.2,142.2 345.5,144.0 346.8,145.7 348.1,147.5 349.4,149.2 350.7,150.9 352.0,152.6 353.4,154.3 354.7,156.0 356.0,157.7 357.3,159.3 358.6,161.0 359.9,162.6 361.2,164.2 362.5,165.8 363.9,167.3 365.2,168.9 366.5,170.4 367.8,171.9 369.1,173.4 370.4,174.9 371.7,176.4 373.1,177.8 374.4,179.2 375.7,180.6 377.0,182.0 L377.0,182.0 Z" fill="#4a90d9" fill-opacity="0.06"/>
  <polyline points="42.0,182.0 43.3,180.6 44.6,179.2 45.9,177.8 47.3,176.4 48.6,174.9 49.9,173.4 51.2,171.9 52.5,170.4 53.8,168.9 55.1,167.3 56.5,165.8 57.8,164.2 59.1,162.6 60.4,161.0 61.7,159.3 63.0,157.7 64.3,156.0 65.6,154.3 67.0,152.6 68.3,150.9 69.6,149.2 70.9,147.5 72.2,145.7 73.5,144.0 74.8,142.2 76.2,140.4 77.5,138.6 78.8,136.8 80.1,135.0 81.4,133.2 82.7,131.4 84.0,129.6 85.4,127.7 86.7,125.9 88.0,124.0 89.3,122.2 90.6,120.3 91.9,118.5 93.2,116.6 94.5,114.7 95.9,112.9 97.2,111.0 98.5,109.1 99.8,107.2 101.1,105.4 102.4,103.5 103.7,101.6 105.1,99.8 106.4,97.9 107.7,96.1 109.0,94.2 110.3,92.4 111.6,90.5 112.9,88.7 114.3,86.9 115.6,85.0 116.9,83.2 118.2,81.4 119.5,79.6 120.8,77.8 122.1,76.1 123.5,74.3 124.8,72.5 126.1,70.8 127.4,69.1 128.7,67.4 130.0,65.7 131.3,64.0 132.6,62.3 134.0,60.6 135.3,59.0 136.6,57.4 137.9,55.8 139.2,54.2 140.5,52.6 141.8,51.1 143.2,49.6 144.5,48.0 145.8,46.6 147.1,45.1 148.4,43.6 149.7,42.2 151.0,40.8 152.4,39.5 153.7,38.1 155.0,36.8 156.3,35.5 157.6,34.2 158.9,32.9 160.2,31.7 161.5,30.5 162.9,29.4 164.2,28.2 165.5,27.1 166.8,26.0 168.1,25.0 169.4,23.9 170.7,22.9 172.1,22.0 173.4,21.0 174.7,20.1 176.0,19.2 177.3,18.4 178.6,17.6 179.9,16.8 181.3,16.0 182.6,15.3 183.9,14.6 185.2,14.0 186.5,13.3 187.8,12.8 189.1,12.2 190.5,11.7 191.8,11.2 193.1,10.7 194.4,10.3 195.7,9.9 197.0,9.6 198.3,9.3 199.6,9.0 201.0,8.7 202.3,8.5 203.6,8.4 204.9,8.2 206.2,8.1 207.5,8.0 208.8,8.0 210.2,8.0 211.5,8.0 212.8,8.1 214.1,8.2 215.4,8.4 216.7,8.5 218.0,8.7 219.4,9.0 220.7,9.3 222.0,9.6 223.3,9.9 224.6,10.3 225.9,10.7 227.2,11.2 228.5,11.7 229.9,12.2 231.2,12.8 232.5,13.3 233.8,14.0 235.1,14.6 236.4,15.3 237.7,16.0 239.1,16.8 240.4,17.6 241.7,18.4 243.0,19.2 244.3,20.1 245.6,21.0 246.9,22.0 248.3,22.9 249.6,23.9 250.9,25.0 252.2,26.0 253.5,27.1 254.8,28.2 256.1,29.4 257.5,30.5 258.8,31.7 260.1,32.9 261.4,34.2 262.7,35.5 264.0,36.8 265.3,38.1 266.6,39.5 268.0,40.8 269.3,42.2 270.6,43.6 271.9,45.1 273.2,46.6 274.5,48.0 275.8,49.6 277.2,51.1 278.5,52.6 279.8,54.2 281.1,55.8 282.4,57.4 283.7,59.0 285.0,60.6 286.4,62.3 287.7,64.0 289.0,65.7 290.3,67.4 291.6,69.1 292.9,70.8 294.2,72.5 295.5,74.3 296.9,76.1 298.2,77.8 299.5,79.6 300.8,81.4 302.1,83.2 303.4,85.0 304.7,86.9 306.1,88.7 307.4,90.5 308.7,92.4 310.0,94.2 311.3,96.1 312.6,97.9 313.9,99.8 315.3,101.6 316.6,103.5 317.9,105.4 319.2,107.2 320.5,109.1 321.8,111.0 323.1,112.9 324.5,114.7 325.8,116.6 327.1,118.5 328.4,120.3 329.7,122.2 331.0,124.0 332.3,125.9 333.6,127.7 335.0,129.6 336.3,131.4 337.6,133.2 338.9,135.0 340.2,136.8 341.5,138.6 342.8,140.4 344.2,142.2 345.5,144.0 346.8,145.7 348.1,147.5 349.4,149.2 350.7,150.9 352.0,152.6 353.4,154.3 354.7,156.0 356.0,157.7 357.3,159.3 358.6,161.0 359.9,162.6 361.2,164.2 362.5,165.8 363.9,167.3 365.2,168.9 366.5,170.4 367.8,171.9 369.1,173.4 370.4,174.9 371.7,176.4 373.1,177.8 374.4,179.2 375.7,180.6 377.0,182.0" fill="none" stroke="#4a90d9" stroke-width="1.5" stroke-linejoin="round"/>
  <line x1="450" y1="8.0" x2="785" y2="8.0" stroke="#e5e7eb" stroke-width="0.7"/>
  <text x="445" y="12.0" text-anchor="end" font-size="10" fill="#6b7280">0</text>
  <line x1="450" y1="66.0" x2="785" y2="66.0" stroke="#e5e7eb" stroke-width="0.7"/>
  <text x="445" y="70.0" text-anchor="end" font-size="10" fill="#6b7280">-40</text>
  <line x1="450" y1="124.0" x2="785" y2="124.0" stroke="#e5e7eb" stroke-width="0.7"/>
  <text x="445" y="128.0" text-anchor="end" font-size="10" fill="#6b7280">-80</text>
  <line x1="450" y1="182.0" x2="785" y2="182.0" stroke="#e5e7eb" stroke-width="0.7"/>
  <text x="445" y="186.0" text-anchor="end" font-size="10" fill="#6b7280">-120</text>
  <line x1="450.0" y1="8" x2="450.0" y2="182" stroke="#e5e7eb" stroke-width="0.7"/>
  <text x="450.0" y="198" text-anchor="middle" font-size="10" fill="#6b7280">0</text>
  <line x1="517.0" y1="8" x2="517.0" y2="182" stroke="#e5e7eb" stroke-width="0.7"/>
  <text x="517.0" y="198" text-anchor="middle" font-size="10" fill="#6b7280">0.1</text>
  <line x1="584.0" y1="8" x2="584.0" y2="182" stroke="#e5e7eb" stroke-width="0.7"/>
  <text x="584.0" y="198" text-anchor="middle" font-size="10" fill="#6b7280">0.2</text>
  <line x1="651.0" y1="8" x2="651.0" y2="182" stroke="#e5e7eb" stroke-width="0.7"/>
  <text x="651.0" y="198" text-anchor="middle" font-size="10" fill="#6b7280">0.3</text>
  <line x1="718.0" y1="8" x2="718.0" y2="182" stroke="#e5e7eb" stroke-width="0.7"/>
  <text x="718.0" y="198" text-anchor="middle" font-size="10" fill="#6b7280">0.4</text>
  <line x1="785.0" y1="8" x2="785.0" y2="182" stroke="#e5e7eb" stroke-width="0.7"/>
  <text x="785.0" y="198" text-anchor="middle" font-size="10" fill="#6b7280">0.5</text>
  <line x1="450" y1="8" x2="450" y2="182" stroke="#d1d5db" stroke-width="1"/>
  <line x1="450" y1="182" x2="785" y2="182" stroke="#d1d5db" stroke-width="1"/>
  <polyline points="450.0,8.0 450.2,8.0 450.3,8.2 450.5,8.4 450.7,8.7 450.8,9.0 451.0,9.5 451.1,10.1 451.3,10.7 451.5,11.5 451.6,12.3 451.8,13.3 452.0,14.3 452.1,15.5 452.3,16.9 452.5,18.3 452.6,20.0 452.8,21.8 452.9,23.8 453.1,26.1 453.3,28.7 453.4,31.7 453.6,35.2 453.8,39.5 453.9,45.1 454.1,53.4 454.3,72.5 454.4,64.3 454.6,54.4 454.7,50.1 454.9,47.8 455.1,46.7 455.2,46.3 455.4,46.5 455.6,47.2 455.7,48.5 455.9,50.2 456.1,52.6 456.2,55.9 456.4,60.4 456.5,67.3 456.7,82.2 456.9,81.4 457.0,68.9 457.2,63.5 457.4,60.5 457.5,58.7 457.7,57.7 457.9,57.3 458.0,57.4 458.2,58.1 458.3,59.3 458.5,61.0 458.7,63.4 458.8,66.7 459.0,71.6 459.2,79.6 459.3,105.4 459.5,84.4 459.7,75.3 459.8,70.7 460.0,67.9 460.1,66.2 460.3,65.2 460.5,64.8 460.6,64.9 460.8,65.5 461.0,66.6 461.1,68.3 461.3,70.7 461.5,74.1 461.6,79.2 461.8,88.0 461.9,151.0 462.1,88.9 462.3,80.7 462.4,76.3 462.6,73.6 462.8,71.9 462.9,70.9 463.1,70.5 463.3,70.6 463.4,71.2 463.6,72.3 463.7,74.0 463.9,76.3 464.1,79.8 464.2,84.9 464.4,94.1 464.6,128.3 464.7,93.1 464.9,85.3 465.1,81.0 465.2,78.4 465.4,76.6 465.5,75.6 465.7,75.2 465.9,75.2 466.0,75.8 466.2,76.9 466.4,78.5 466.5,80.9 466.7,84.3 466.9,89.4 467.0,98.8 467.2,127.8 467.3,97.0 467.5,89.3 467.7,85.0 467.8,82.4 468.0,80.6 468.2,79.6 468.3,79.1 468.5,79.1 468.7,79.7 468.8,80.7 469.0,82.3 469.1,84.6 469.3,88.0 469.5,93.1 469.6,102.5 469.8,130.9 470.0,100.5 470.1,92.8 470.3,88.6 470.5,85.8 470.6,84.1 470.8,83.0 470.9,82.5 471.1,82.5 471.3,83.0 471.4,84.0 471.6,85.6 471.8,87.9 471.9,91.2 472.1,96.3 472.3,105.5 472.4,135.6 472.6,103.8 472.7,96.0 472.9,91.7 473.1,88.9 473.2,87.1 473.4,86.0 473.6,85.5 473.7,85.5 473.9,85.9 474.1,86.9 474.2,88.4 474.4,90.7 474.5,94.0 474.7,99.0 474.9,108.1 475.0,142.2 475.2,106.8 475.4,98.9 475.5,94.5 475.7,91.7 475.9,89.9 476.0,88.7 476.2,88.2 476.3,88.1 476.5,88.5 476.7,89.5 476.8,91.0 477.0,93.2 477.2,96.4 477.3,101.3 477.5,110.2 477.7,152.9 477.8,109.7 478.0,101.5 478.1,97.1 478.3,94.2 478.5,92.3 478.6,91.2 478.8,90.6 479.0,90.5 479.1,90.9 479.3,91.8 479.5,93.2 479.6,95.4 479.8,98.6 479.9,103.4 480.1,112.0 480.3,182.0 480.4,112.4 480.6,104.0 480.8,99.4 480.9,96.5 481.1,94.6 481.3,93.4 481.4,92.8 481.6,92.7 481.7,93.0 481.9,93.9 482.1,95.3 482.2,97.5 482.4,100.6 482.6,105.3 482.7,113.6 482.9,153.9 483.1,115.0 483.2,106.3 483.4,101.6 483.5,98.7 483.7,96.7 483.9,95.5 484.0,94.8 484.2,94.7 484.4,95.0 484.5,95.8 484.7,97.2 484.9,99.3 485.0,102.4 485.2,107.0 485.3,115.1 485.5,147.0 485.7,117.5 485.8,108.5 486.0,103.7 486.2,100.7 486.3,98.7 486.5,97.4 486.7,96.7 486.8,96.5 487.0,96.8 487.1,97.6 487.3,99.0 487.5,101.0 487.6,104.0 487.8,108.5 488.0,116.4 488.1,143.4 488.3,119.9 488.5,110.5 488.6,105.6 488.8,102.5 488.9,100.5 489.1,99.2 489.3,98.4 489.4,98.2 489.6,98.5 489.8,99.3 489.9,100.6 490.1,102.6 490.3,105.5 490.4,109.9 490.6,117.5 490.7,141.2 490.9,122.2 491.1,112.5 491.2,107.5 491.4,104.3 491.6,102.2 491.7,100.8 491.9,100.1 492.1,99.8 492.2,100.1 492.4,100.8 492.6,102.1 492.7,104.1 492.9,106.9 493.0,111.2 493.2,118.6 493.4,139.7 493.5,124.6 493.7,114.4 493.9,109.2 494.0,106.0 494.2,103.8 494.4,102.4 494.5,101.6 494.7,101.3 494.8,101.6 495.0,102.3 495.2,103.5 495.3,105.4 495.5,108.2 495.7,112.4 495.8,119.5 496.0,138.6 496.2,126.9 496.3,116.2 496.5,110.9 496.6,107.5 496.8,105.3 497.0,103.9 497.1,103.1 497.3,102.8 497.5,102.9 497.6,103.6 497.8,104.8 498.0,106.7 498.1,109.5 498.3,113.6 498.4,120.4 498.6,137.8 498.8,129.2 498.9,117.9 499.1,112.4 499.3,109.0 499.4,106.8 499.6,105.3 499.8,104.5 499.9,104.1 500.1,104.3 500.2,104.9 500.4,106.1 500.6,107.9 500.7,110.6 500.9,114.6 501.1,121.2 501.2,137.2 501.4,131.5 501.6,119.6 501.7,114.0 501.9,110.5 502.0,108.2 502.2,106.7 502.4,105.8 502.5,105.4 502.7,105.5 502.9,106.1 503.0,107.3 503.2,109.0 503.4,111.7 503.5,115.6 503.7,122.0 503.8,136.8 504.0,133.9 504.2,121.3 504.3,115.4 504.5,111.8 504.7,109.5 504.8,107.9 505.0,107.0 505.2,106.6 505.3,106.7 505.5,107.3 505.6,108.4 505.8,110.1 506.0,112.7 506.1,116.5 506.3,122.7 506.5,136.5 506.6,136.4 506.8,122.9 507.0,116.8 507.1,113.2 507.3,110.7 507.4,109.2 507.6,108.2 507.8,107.8 507.9,107.8 508.1,108.4 508.3,109.4 508.4,111.1 508.6,113.6 508.8,117.4 508.9,123.4 509.1,136.3 509.2,139.0 509.4,124.4 509.6,118.2 509.7,114.4 509.9,112.0 510.1,110.3 510.2,109.3 510.4,108.9 510.6,108.9 510.7,109.4 510.9,110.4 511.0,112.1 511.2,114.6 511.4,118.2 511.5,124.0 511.7,136.1 511.9,141.8 512.0,126.0 512.2,119.5 512.4,115.7 512.5,113.1 512.7,111.4 512.8,110.4 513.0,109.9 513.2,109.9 513.3,110.4 513.5,111.4 513.7,113.0 513.8,115.4 514.0,119.0 514.2,124.6 514.3,136.0 514.5,144.8 514.6,127.5 514.8,120.8 515.0,116.9 515.1,114.3 515.3,112.5 515.5,111.5 515.6,110.9 515.8,110.9 516.0,111.3 516.1,112.3 516.3,113.9 516.4,116.2 516.6,119.7 516.8,125.2 516.9,136.0 517.1,148.1 517.3,129.0 517.4,122.1 517.6,118.0 517.8,115.3 517.9,113.6 518.1,112.5 518.2,111.9 518.4,111.8 518.6,112.3 518.7,113.2 518.9,114.7 519.1,117.0 519.2,120.4 519.4,125.7 519.6,135.9 519.7,152.0 519.9,130.5 520.0,123.3 520.2,119.1 520.4,116.4 520.5,114.6 520.7,113.4 520.9,112.8 521.0,112.7 521.2,113.1 521.4,114.0 521.5,115.5 521.7,117.8 521.8,121.1 522.0,126.2 522.2,135.9 522.3,156.8 522.5,132.0 522.7,124.5 522.8,120.2 523.0,117.4 523.2,115.6 523.3,114.4 523.5,113.7 523.6,113.6 523.8,114.0 524.0,114.9 524.1,116.3 524.3,118.5 524.5,121.7 524.6,126.7 524.8,136.0 525.0,163.3 525.1,133.5 525.3,125.7 525.4,121.3 525.6,118.4 525.8,116.5 525.9,115.3 526.1,114.6 526.3,114.5 526.4,114.8 526.6,115.6 526.8,117.0 526.9,119.2 527.1,122.3 527.2,127.2 527.4,136.0 527.6,174.9 527.7,135.0 527.9,126.9 528.1,122.3 528.2,119.4 528.4,117.4 528.6,116.1 528.7,115.5 528.9,115.3 529.0,115.6 529.2,116.4 529.4,117.8 529.5,119.8 529.7,122.9 529.9,127.6 530.0,136.1 530.2,182.0 530.4,136.5 530.5,128.0 530.7,123.3 530.8,120.3 531.0,118.3 531.2,117.0 531.3,116.3 531.5,116.1 531.7,116.3 531.8,117.1 532.0,118.4 532.2,120.5 532.3,123.5 532.5,128.0 532.6,136.1 532.8,169.7 533.0,138.1 533.1,129.1 533.3,124.3 533.5,121.2 533.6,119.2 533.8,117.8 534.0,117.1 534.1,116.8 534.3,117.1 534.4,117.8 534.6,119.1 534.8,121.1 534.9,124.0 535.1,128.5 535.3,136.2 535.4,163.1 535.6,139.6 535.8,130.2 535.9,125.3 536.1,122.1 536.2,120.0 536.4,118.6 536.6,117.8 536.7,117.6 536.9,117.8 537.1,118.5 537.2,119.7 537.4,121.7 537.6,124.5 537.7,128.9 537.9,136.3 538.0,159.1 538.2,141.3 538.4,131.4 538.5,126.2 538.7,123.0 538.9,120.8 539.0,119.4 539.2,118.6 539.4,118.3 539.5,118.4 539.7,119.1 539.8,120.3 540.0,122.2 540.2,125.0 540.3,129.2 540.5,136.4 540.7,156.4 540.8,142.9 541.0,132.5 541.2,127.2 541.3,123.8 541.5,121.6 541.6,120.2 541.8,119.3 542.0,119.0 542.1,119.1 542.3,119.7 542.5,120.9 542.6,122.8 542.8,125.5 543.0,129.6 543.1,136.5 543.3,154.4 543.4,144.6 543.6,133.5 543.8,128.1 543.9,124.7 544.1,122.4 544.3,120.9 544.4,120.0 544.6,119.6 544.8,119.7 544.9,120.4 545.1,121.5 545.2,123.3 545.4,126.0 545.6,130.0 545.7,136.6 545.9,152.9 546.1,146.4 546.2,134.6 546.4,129.0 546.6,125.5 546.7,123.1 546.9,121.6 547.0,120.7 547.2,120.3 547.4,120.4 547.5,120.9 547.7,122.1 547.9,123.8 548.0,126.4 548.2,130.3 548.4,136.7 548.5,151.6 548.7,148.3 548.8,135.7 549.0,129.9 549.2,126.3 549.3,123.9 549.5,122.3 549.7,121.3 549.8,120.9 550.0,121.0 550.2,121.5 550.3,122.6 550.5,124.3 550.6,126.8 550.8,130.6 551.0,136.8 551.1,150.6 551.3,150.3 551.5,136.8 551.6,130.8 551.8,127.1 552.0,124.6 552.1,123.0 552.3,122.0 552.4,121.5 552.6,121.6 552.8,122.1 552.9,123.1 553.1,124.8 553.3,127.3 553.4,131.0 553.6,136.9 553.8,149.8 553.9,152.5 554.1,137.9 554.2,131.6 554.4,127.8 554.6,125.3 554.7,123.7 554.9,122.6 555.1,122.1 555.2,122.1 555.4,122.6 555.6,123.6 555.7,125.2 555.9,127.7 556.0,131.3 556.2,137.0 556.4,149.0 556.5,154.9 556.7,139.0 556.9,132.5 557.0,128.6 557.2,126.0 557.4,124.3 557.5,123.2 557.7,122.7 557.8,122.7 558.0,123.1 558.2,124.1 558.3,125.7 558.5,128.0 558.7,131.6 558.8,137.1 559.0,148.4 559.2,157.7 559.3,140.1 559.5,133.4 559.6,129.4 559.8,126.7 560.0,125.0 560.1,123.8 560.3,123.3 560.5,123.2 560.6,123.6 560.8,124.6 561.0,126.1 561.1,128.4 561.3,131.9 561.4,137.2 561.6,147.9 561.8,160.8 561.9,141.2 562.1,134.2 562.3,130.1 562.4,127.4 562.6,125.6 562.8,124.4 562.9,123.8 563.1,123.7 563.2,124.1 563.4,125.0 563.6,126.5 563.7,128.8 563.9,132.1 564.1,137.4 564.2,147.4 564.4,164.6 564.6,142.4 564.7,135.1 564.9,130.8 565.0,128.0 565.2,126.2 565.4,125.0 565.5,124.4 565.7,124.3 565.9,124.6 566.0,125.5 566.2,127.0 566.4,129.1 566.5,132.4 566.7,137.5 566.8,147.0 567.0,169.6 567.2,143.5 567.3,135.9 567.5,131.5 567.7,128.7 567.8,126.8 568.0,125.6 568.2,124.9 568.3,124.8 568.5,125.1 568.6,125.9 568.8,127.3 569.0,129.5 569.1,132.7 569.3,137.6 569.5,146.7 569.6,177.2 569.8,144.7 570.0,136.7 570.1,132.3 570.3,129.3 570.4,127.4 570.6,126.1 570.8,125.4 570.9,125.3 571.1,125.6 571.3,126.4 571.4,127.7 571.6,129.8 571.8,132.9 571.9,137.7 572.1,146.4 572.2,182.0 572.4,145.9 572.6,137.6 572.7,133.0 572.9,130.0 573.1,128.0 573.2,126.7 573.4,126.0 573.6,125.7 573.7,126.0 573.9,126.8 574.0,128.1 574.2,130.2 574.4,133.2 574.5,137.8 574.7,146.1 574.9,182.0 575.0,147.1 575.2,138.4 575.4,133.7 575.5,130.6 575.7,128.5 575.9,127.2 576.0,126.5 576.2,126.2 576.3,126.4 576.5,127.2 576.7,128.5 576.8,130.5 577.0,133.4 577.2,137.9 577.3,145.8 577.5,175.7 577.7,148.4 577.8,139.3 578.0,134.3 578.1,131.2 578.3,129.1 578.5,127.7 578.6,126.9 578.8,126.7 579.0,126.9 579.1,127.6 579.3,128.8 579.5,130.8 579.6,133.7 579.8,138.0 579.9,145.6 580.1,170.3 580.3,149.8 580.4,140.1 580.6,135.0 580.8,131.8 580.9,129.7 581.1,128.2 581.3,127.4 581.4,127.1 581.6,127.3 581.7,128.0 581.9,129.2 582.1,131.1 582.2,133.9 582.4,138.1 582.6,145.4 582.7,166.7 582.9,151.1 583.1,140.9 583.2,135.7 583.4,132.4 583.5,130.2 583.7,128.7 583.9,127.9 584.0,127.5 584.2,127.7 584.4,128.3 584.5,129.5 584.7,131.4 584.9,134.1 585.0,138.2 585.2,145.2 585.3,164.1 585.5,152.6 585.7,141.8 585.8,136.4 586.0,133.0 586.2,130.7 586.3,129.2 586.5,128.3 586.7,128.0 586.8,128.1 587.0,128.7 587.1,129.8 587.3,131.7 587.5,134.3 587.6,138.4 587.8,145.1 588.0,162.0 588.1,154.1 588.3,142.6 588.5,137.1 588.6,133.6 588.8,131.3 588.9,129.7 589.1,128.8 589.3,128.4 589.4,128.5 589.6,129.1 589.8,130.2 589.9,131.9 590.1,134.5 590.3,138.5 590.4,144.9 590.6,160.4 590.7,155.8 590.9,143.5 591.1,137.7 591.2,134.2 591.4,131.8 591.6,130.2 591.7,129.2 591.9,128.8 592.1,128.9 592.2,129.4 592.4,130.5 592.5,132.2 592.7,134.7 592.9,138.6 593.0,144.8 593.2,159.0 593.4,157.6 593.5,144.4 593.7,138.4 593.9,134.7 594.0,132.3 594.2,130.7 594.3,129.7 594.5,129.2 594.7,129.2 594.8,129.7 595.0,130.8 595.2,132.5 595.3,134.9 595.5,138.7 595.7,144.7 595.8,157.9 596.0,159.5 596.1,145.3 596.3,139.1 596.5,135.3 596.6,132.8 596.8,131.1 597.0,130.1 597.1,129.6 597.3,129.6 597.5,130.1 597.6,131.1 597.8,132.7 597.9,135.1 598.1,138.8 598.3,144.6 598.4,156.9 598.6,161.6 598.8,146.2 598.9,139.7 599.1,135.9 599.3,133.3 599.4,131.6 599.6,130.5 599.7,130.0 599.9,130.0 600.1,130.4 600.2,131.4 600.4,133.0 600.6,135.3 600.7,138.9 600.9,144.5 601.1,156.0 601.2,164.1 601.4,147.1 601.5,140.4 601.7,136.4 601.9,133.8 602.0,132.0 602.2,130.9 602.4,130.4 602.5,130.3 602.7,130.7 602.9,131.7 603.0,133.2 603.2,135.5 603.3,139.0 603.5,144.4 603.7,155.2 603.8,166.9 604.0,148.0 604.2,141.1 604.3,137.0 604.5,134.3 604.7,132.5 604.8,131.3 605.0,130.7 605.1,130.6 605.3,131.0 605.5,131.9 605.6,133.4 605.8,135.7 606.0,139.1 606.1,144.3 606.3,154.5 606.5,170.3 606.6,149.0 606.8,141.7 606.9,137.5 607.1,134.8 607.3,132.9 607.4,131.7 607.6,131.1 607.8,131.0 607.9,131.3 608.1,132.2 608.3,133.7 608.4,135.9 608.6,139.1 608.7,144.3 608.9,153.9 609.1,174.7 609.2,150.0 609.4,142.4 609.6,138.1 609.7,135.2 609.9,133.3 610.1,132.1 610.2,131.5 610.4,131.3 610.5,131.6 610.7,132.5 610.9,133.9 611.0,136.0 611.2,139.2 611.4,144.2 611.5,153.4 611.7,181.2 611.9,151.0 612.0,143.1 612.2,138.6 612.3,135.7 612.5,133.8 612.7,132.5 612.8,131.8 613.0,131.6 613.2,131.9 613.3,132.7 613.5,134.1 613.7,136.2 613.8,139.3 614.0,144.1 614.1,152.9 614.3,182.0 614.5,152.0 614.6,143.8 614.8,139.2 615.0,136.2 615.1,134.2 615.3,132.9 615.5,132.2 615.6,132.0 615.8,132.2 615.9,133.0 616.1,134.3 616.3,136.4 616.4,139.4 616.6,144.1 616.8,152.4 616.9,182.0 617.1,153.1 617.3,144.4 617.4,139.7 617.6,136.7 617.7,134.6 617.9,133.3 618.1,132.5 618.2,132.3 618.4,132.5 618.6,133.2 618.7,134.5 618.9,136.5 619.1,139.5 619.2,144.0 619.4,152.0 619.5,182.0 619.7,154.2 619.9,145.1 620.0,140.2 620.2,137.1 620.4,135.0 620.5,133.6 620.7,132.9 620.9,132.6 621.0,132.8 621.2,133.5 621.3,134.7 621.5,136.7 621.7,139.6 621.8,144.0 622.0,151.6 622.2,177.3 622.3,155.4 622.5,145.8 622.7,140.8 622.8,137.6 623.0,135.4 623.1,134.0 623.3,133.2 623.5,132.9 623.6,133.0 623.8,133.7 624.0,134.9 624.1,136.8 624.3,139.7 624.5,143.9 624.6,151.3 624.8,173.2 624.9,156.6 625.1,146.5 625.3,141.3 625.4,138.0 625.6,135.8 625.8,134.4 625.9,133.5 626.1,133.2 626.3,133.3 626.4,134.0 626.6,135.1 626.7,137.0 626.9,139.7 627.1,143.9 627.2,150.9 627.4,170.3 627.6,157.9 627.7,147.2 627.9,141.9 628.1,138.5 628.2,136.2 628.4,134.7 628.5,133.8 628.7,133.5 628.9,133.6 629.0,134.2 629.2,135.3 629.4,137.1 629.5,139.8 629.7,143.9 629.9,150.6 630.0,168.0 630.2,159.3 630.3,148.0 630.5,142.4 630.7,138.9 630.8,136.6 631.0,135.1 631.2,134.2 631.3,133.7 631.5,133.8 631.7,134.4 631.8,135.5 632.0,137.3 632.1,139.9 632.3,143.8 632.5,150.3 632.6,166.1 632.8,160.8 633.0,148.7 633.1,142.9 633.3,139.4 633.5,137.0 633.6,135.4 633.8,134.5 633.9,134.0 634.1,134.1 634.3,134.6 634.4,135.7 634.6,137.4 634.8,140.0 634.9,143.8 635.1,150.1 635.3,164.5 635.4,162.4 635.6,149.4 635.7,143.5 635.9,139.8 636.1,137.4 636.2,135.8 636.4,134.8 636.6,134.3 636.7,134.3 636.9,134.8 637.1,135.9 637.2,137.5 637.4,140.0 637.5,143.8 637.7,149.8 637.9,163.2 638.0,164.2 638.2,150.2 638.4,144.0 638.5,140.3 638.7,137.8 638.9,136.1 639.0,135.1 639.2,134.6 639.3,134.6 639.5,135.0 639.7,136.1 639.8,137.7 640.0,140.1 640.2,143.7 640.3,149.6 640.5,162.0 640.7,166.2 640.8,151.0 641.0,144.6 641.1,140.7 641.3,138.1 641.5,136.4 641.6,135.4 641.8,134.8 642.0,134.8 642.1,135.2 642.3,136.2 642.5,137.8 642.6,140.2 642.8,143.7 642.9,149.4 643.1,161.0 643.3,168.4 643.4,151.8 643.6,145.1 643.8,141.1 643.9,138.5 644.1,136.8 644.3,135.7 644.4,135.1 644.6,135.0 644.7,135.5 644.9,136.4 645.1,137.9 645.2,140.2 645.4,143.7 645.6,149.2 645.7,160.1 645.9,171.1 646.1,152.6 646.2,145.7 646.4,141.6 646.5,138.9 646.7,137.1 646.9,136.0 647.0,135.4 647.2,135.3 647.4,135.6 647.5,136.5 647.7,138.0 647.9,140.3 648.0,143.7 648.2,149.0 648.3,159.3 648.5,174.3 648.7,153.4 648.8,146.2 649.0,142.0 649.2,139.3 649.3,137.4 649.5,136.2 649.7,135.6 649.8,135.5 650.0,135.8 650.1,136.7 650.3,138.2 650.5,140.4 650.6,143.6 650.8,148.8 651.0,158.5 651.1,178.4 651.3,154.3 651.5,146.8 651.6,142.5 651.8,139.6 651.9,137.7 652.1,136.5 652.3,135.9 652.4,135.7 652.6,136.0 652.8,136.9 652.9,138.3 653.1,140.4 653.3,143.6 653.4,148.6 653.6,157.9 653.7,182.0 653.9,155.2 654.1,147.3 654.2,142.9 654.4,140.0 654.6,138.1 654.7,136.8 654.9,136.1 655.1,135.9 655.2,136.2 655.4,137.0 655.5,138.4 655.7,140.5 655.9,143.6 656.0,148.4 656.2,157.2 656.4,182.0 656.5,156.1 656.7,147.9 656.9,143.3 657.0,140.4 657.2,138.4 657.3,137.1 657.5,136.4 657.7,136.1 657.8,136.4 658.0,137.2 658.2,138.5 658.3,140.5 658.5,143.6 658.7,148.3 658.8,156.7 659.0,182.0 659.1,157.1 659.3,148.5 659.5,143.8 659.6,140.7 659.8,138.7 660.0,137.3 660.1,136.6 660.3,136.3 660.5,136.6 660.6,137.3 660.8,138.6 661.0,140.6 661.1,143.6 661.3,148.1 661.4,156.1 661.6,182.0 661.8,158.1 661.9,149.1 662.1,144.2 662.3,141.1 662.4,139.0 662.6,137.6 662.8,136.8 662.9,136.5 663.1,136.7 663.2,137.4 663.4,138.7 663.6,140.7 663.7,143.5 663.9,148.0 664.1,155.6 664.2,182.0 664.4,159.2 664.6,149.7 664.7,144.7 664.9,141.4 665.0,139.3 665.2,137.9 665.4,137.1 665.5,136.7 665.7,136.9 665.9,137.6 666.0,138.8 666.2,140.7 666.4,143.5 666.5,147.8 666.7,155.2 666.8,177.6 667.0,160.3 667.2,150.3 667.3,145.1 667.5,141.8 667.7,139.6 667.8,138.1 668.0,137.3 668.2,136.9 668.3,137.1 668.5,137.7 668.6,138.9 668.8,140.8 669.0,143.5 669.1,147.7 669.3,154.7 669.5,174.4 669.6,161.5 669.8,150.9 670.0,145.5 670.1,142.2 670.3,139.9 670.4,138.4 670.6,137.5 670.8,137.1 670.9,137.2 671.1,137.9 671.3,139.0 671.4,140.8 671.6,143.5 671.8,147.5 671.9,154.3 672.1,171.9 672.2,162.8 672.4,151.5 672.6,146.0 672.7,142.5 672.9,140.2 673.1,138.7 673.2,137.7 673.4,137.3 673.6,137.4 673.7,138.0 673.9,139.1 674.0,140.9 674.2,143.5 674.4,147.4 674.5,154.0 674.7,169.9 674.9,164.2 675.0,152.1 675.2,146.4 675.4,142.9 675.5,140.5 675.7,138.9 675.8,138.0 676.0,137.5 676.2,137.6 676.3,138.1 676.5,139.2 676.7,140.9 676.8,143.5 677.0,147.3 677.2,153.6 677.3,168.2 677.5,165.7 677.6,152.8 677.8,146.9 678.0,143.2 678.1,140.8 678.3,139.2 678.5,138.2 678.6,137.7 678.8,137.7 679.0,138.2 679.1,139.3 679.3,140.9 679.4,143.4 679.6,147.2 679.8,153.2 679.9,166.7 680.1,167.3 680.3,153.5 680.4,147.3 680.6,143.6 680.8,141.1 680.9,139.4 681.1,138.4 681.2,137.9 681.4,137.9 681.6,138.3 681.7,139.4 681.9,141.0 682.1,143.4 682.2,147.1 682.4,152.9 682.6,165.5 682.7,169.2 682.9,154.2 683.0,147.8 683.2,143.9 683.4,141.4 683.5,139.7 683.7,138.6 683.9,138.1 684.0,138.0 684.2,138.5 684.4,139.4 684.5,141.0 684.7,143.4 684.8,146.9 685.0,152.6 685.2,164.3 685.3,171.3 685.5,154.9 685.7,148.2 685.8,144.3 686.0,141.7 686.2,139.9 686.3,138.8 686.5,138.2 686.6,138.2 686.8,138.6 687.0,139.5 687.1,141.1 687.3,143.4 687.5,146.8 687.6,152.3 687.8,163.3 688.0,173.9 688.1,155.6 688.3,148.7 688.4,144.6 688.6,141.9 688.8,140.1 688.9,139.0 689.1,138.4 689.3,138.3 689.4,138.7 689.6,139.6 689.8,141.1 689.9,143.4 690.1,146.7 690.2,152.0 690.4,162.4 690.6,176.9 690.7,156.3 690.9,149.2 691.1,145.0 691.2,142.2 691.4,140.4 691.6,139.2 691.7,138.6 691.9,138.4 692.0,138.8 692.2,139.7 692.4,141.1 692.5,143.3 692.7,146.6 692.9,151.7 693.0,161.6 693.2,180.8 693.4,157.1 693.5,149.7 693.7,145.3 693.8,142.5 694.0,140.6 694.2,139.4 694.3,138.7 694.5,138.6 694.7,138.9 694.8,139.7 695.0,141.2 695.2,143.3 695.3,146.5 695.5,151.5 695.6,160.8 695.8,182.0 696.0,157.9 696.1,150.1 696.3,145.7 696.5,142.8 696.6,140.9 696.8,139.6 697.0,138.9 697.1,138.7 697.3,139.0 697.4,139.8 697.6,141.2 697.8,143.3 697.9,146.4 698.1,151.2 698.3,160.1 698.4,182.0 698.6,158.8 698.8,150.6 698.9,146.1 699.1,143.1 699.2,141.1 699.4,139.8 699.6,139.1 699.7,138.8 699.9,139.1 700.1,139.9 700.2,141.2 700.4,143.3 700.6,146.3 700.7,151.0 700.9,159.4 701.0,182.0 701.2,159.7 701.4,151.1 701.5,146.4 701.7,143.4 701.9,141.3 702.0,140.0 702.2,139.2 702.4,139.0 702.5,139.2 702.7,139.9 702.8,141.2 703.0,143.2 703.2,146.2 703.3,150.8 703.5,158.8 703.7,182.0 703.8,160.6 704.0,151.6 704.2,146.8 704.3,143.7 704.5,141.6 704.6,140.2 704.8,139.4 705.0,139.1 705.1,139.3 705.3,140.0 705.5,141.3 705.6,143.2 705.8,146.1 706.0,150.5 706.1,158.2 706.3,182.0 706.4,161.6 706.6,152.1 706.8,147.1 706.9,143.9 707.1,141.8 707.3,140.4 707.4,139.5 707.6,139.2 707.8,139.4 707.9,140.1 708.1,141.3 708.2,143.2 708.4,146.0 708.6,150.3 708.7,157.7 708.9,180.4 709.1,162.6 709.2,152.7 709.4,147.5 709.6,144.2 709.7,142.0 709.9,140.6 710.0,139.7 710.2,139.3 710.4,139.5 710.5,140.1 710.7,141.3 710.9,143.2 711.0,145.9 711.2,150.1 711.4,157.2 711.5,177.0 711.7,163.7 711.8,153.2 712.0,147.9 712.2,144.5 712.3,142.2 712.5,140.7 712.7,139.8 712.8,139.5 713.0,139.6 713.2,140.2 713.3,141.3 713.5,143.1 713.6,145.8 713.8,149.9 714.0,156.7 714.1,174.4 714.3,164.9 714.5,153.8 714.6,148.2 714.8,144.8 715.0,142.5 715.1,140.9 715.3,140.0 715.4,139.6 715.6,139.7 715.8,140.2 715.9,141.3 716.1,143.1 716.3,145.7 716.4,149.7 716.6,156.2 716.8,172.3 716.9,166.3 717.1,154.3 717.2,148.6 717.4,145.1 717.6,142.7 717.7,141.1 717.9,140.1 718.1,139.7 718.2,139.7 718.4,140.3 718.6,141.4 718.7,143.1 718.9,145.6 719.0,149.5 719.2,155.8 719.4,170.5 719.5,167.7 719.7,154.9 719.9,149.0 720.0,145.3 720.2,142.9 720.4,141.3 720.5,140.3 720.7,139.8 720.8,139.8 721.0,140.3 721.2,141.4 721.3,143.0 721.5,145.5 721.7,149.3 721.8,155.4 722.0,168.9 722.2,169.3 722.3,155.5 722.5,149.4 722.6,145.6 722.8,143.1 723.0,141.5 723.1,140.4 723.3,139.9 723.5,139.9 723.6,140.4 723.8,141.4 724.0,143.0 724.1,145.4 724.3,149.1 724.4,155.0 724.6,167.6 724.8,171.1 724.9,156.1 725.1,149.8 725.3,145.9 725.4,143.3 725.6,141.6 725.8,140.6 725.9,140.0 726.1,140.0 726.2,140.4 726.4,141.4 726.6,143.0 726.7,145.4 726.9,148.9 727.1,154.6 727.2,166.4 727.4,173.1 727.6,156.7 727.7,150.1 727.9,146.2 728.0,143.6 728.2,141.8 728.4,140.7 728.5,140.1 728.7,140.1 728.9,140.5 729.0,141.4 729.2,142.9 729.4,145.3 729.5,148.7 729.7,154.2 729.8,165.3 730.0,175.5 730.2,157.4 730.3,150.5 730.5,146.5 730.7,143.8 730.8,142.0 731.0,140.8 731.2,140.2 731.3,140.1 731.5,140.5 731.6,141.4 731.8,142.9 732.0,145.2 732.1,148.5 732.3,153.9 732.5,164.3 732.6,178.4 732.8,158.1 733.0,150.9 733.1,146.7 733.3,144.0 733.4,142.1 733.6,141.0 733.8,140.3 733.9,140.2 734.1,140.6 734.3,141.4 734.4,142.9 734.6,145.1 734.8,148.4 734.9,153.5 735.1,163.4 735.2,182.0 735.4,158.8 735.6,151.3 735.7,147.0 735.9,144.2 736.1,142.3 736.2,141.1 736.4,140.4 736.6,140.3 736.7,140.6 736.9,141.4 737.0,142.8 737.2,145.0 737.4,148.2 737.5,153.2 737.7,162.5 737.9,182.0 738.0,159.5 738.2,151.8 738.4,147.3 738.5,144.4 738.7,142.5 738.8,141.2 739.0,140.5 739.2,140.3 739.3,140.6 739.5,141.4 739.7,142.8 739.8,144.9 740.0,148.0 740.2,152.9 740.3,161.7 740.5,182.0 740.6,160.3 740.8,152.2 741.0,147.6 741.1,144.6 741.3,142.6 741.5,141.4 741.6,140.6 741.8,140.4 742.0,140.7 742.1,141.4 742.3,142.8 742.4,144.8 742.6,147.8 742.8,152.5 742.9,161.0 743.1,182.0 743.3,161.1 743.4,152.6 743.6,147.9 743.8,144.9 743.9,142.8 744.1,141.5 744.3,140.7 744.4,140.5 744.6,140.7 744.7,141.4 744.9,142.7 745.1,144.7 745.2,147.7 745.4,152.2 745.6,160.3 745.7,182.0 745.9,162.0 746.1,153.0 746.2,148.2 746.4,145.1 746.5,143.0 746.7,141.6 746.9,140.8 747.0,140.5 747.2,140.7 747.4,141.4 747.5,142.7 747.7,144.6 747.9,147.5 748.0,151.9 748.2,159.7 748.3,182.0 748.5,162.9 748.7,153.5 748.8,148.5 749.0,145.3 749.2,143.1 749.3,141.7 749.5,140.9 749.7,140.6 749.8,140.7 750.0,141.4 750.1,142.6 750.3,144.5 750.5,147.4 750.6,151.7 750.8,159.1 751.0,182.0 751.1,163.9 751.3,154.0 751.5,148.8 751.6,145.5 751.8,143.3 751.9,141.8 752.1,141.0 752.3,140.6 752.4,140.8 752.6,141.4 752.8,142.6 752.9,144.4 753.1,147.2 753.3,151.4 753.4,158.5 753.6,178.5 753.7,164.9 753.9,154.4 754.1,149.1 754.2,145.7 754.4,143.5 754.6,142.0 754.7,141.1 754.9,140.7 755.1,140.8 755.2,141.4 755.4,142.5 755.5,144.3 755.7,147.0 755.9,151.1 756.0,157.9 756.2,175.8 756.4,166.1 756.5,154.9 756.7,149.4 756.9,145.9 757.0,143.6 757.2,142.1 757.3,141.1 757.5,140.7 757.7,140.8 757.8,141.4 758.0,142.5 758.2,144.3 758.3,146.9 758.5,150.8 758.7,157.4 758.8,173.6 759.0,167.3 759.1,155.4 759.3,149.7 759.5,146.2 759.6,143.8 759.8,142.2 760.0,141.2 760.1,140.8 760.3,140.8 760.5,141.4 760.6,142.4 760.8,144.2 760.9,146.7 761.1,150.6 761.3,156.9 761.4,171.7 761.6,168.6 761.8,155.9 761.9,150.0 762.1,146.4 762.3,143.9 762.4,142.3 762.6,141.3 762.7,140.8 762.9,140.9 763.1,141.4 763.2,142.4 763.4,144.1 763.6,146.6 763.7,150.3 763.9,156.4 764.1,170.1 764.2,170.2 764.4,156.4 764.5,150.3 764.7,146.6 764.9,144.1 765.0,142.4 765.2,141.4 765.4,140.9 765.5,140.9 765.7,141.3 765.9,142.3 766.0,144.0 766.2,146.4 766.3,150.0 766.5,155.9 766.7,168.6 766.8,171.9 767.0,157.0 767.2,150.7 767.3,146.8 767.5,144.2 767.7,142.5 767.8,141.5 768.0,140.9 768.1,140.9 768.3,141.3 768.5,142.3 768.6,143.9 768.8,146.2 769.0,149.8 769.1,155.5 769.3,167.3 769.5,173.8 769.6,157.6 769.8,151.0 769.9,147.0 770.1,144.4 770.3,142.6 770.4,141.5 770.6,141.0 770.8,140.9 770.9,141.3 771.1,142.2 771.3,143.8 771.4,146.1 771.6,149.6 771.7,155.1 771.9,166.2 772.1,176.1 772.2,158.2 772.4,151.3 772.6,147.2 772.7,144.6 772.9,142.8 773.1,141.6 773.2,141.0 773.4,140.9 773.5,141.3 773.7,142.2 773.9,143.7 774.0,145.9 774.2,149.3 774.4,154.6 774.5,165.1 774.7,179.0 774.9,158.8 775.0,151.6 775.2,147.5 775.3,144.7 775.5,142.9 775.7,141.7 775.8,141.0 776.0,140.9 776.2,141.3 776.3,142.1 776.5,143.6 776.7,145.8 776.8,149.1 777.0,154.2 777.1,164.1 777.3,182.0 777.5,159.4 777.6,152.0 777.8,147.7 778.0,144.9 778.1,143.0 778.3,141.7 778.5,141.1 778.6,140.9 778.8,141.2 778.9,142.1 779.1,143.5 779.3,145.6 779.4,148.8 779.6,153.8 779.8,163.2 779.9,182.0 780.1,160.1 780.3,152.3 780.4,147.9 780.6,145.0 780.7,143.1 780.9,141.8 781.1,141.1 781.2,140.9 781.4,141.2 781.6,142.0 781.7,143.4 781.9,145.5 782.1,148.6 782.2,153.4 782.4,162.4 782.5,182.0 782.7,160.8 782.9,152.7 783.0,148.1 783.2,145.2 783.4,143.2 783.5,141.9 783.7,141.1 783.9,140.9 784.0,141.2 784.2,141.9 784.3,143.3 784.5,145.3 784.7,148.4 784.8,153.1 785.0,161.6" fill="none" stroke="#4a90d9" stroke-width="1.5" stroke-linejoin="round"/>
  <text x="209.5" y="214" text-anchor="middle" font-size="11" fill="#6b7280">n / N</text>
  <text x="617.5" y="214" text-anchor="middle" font-size="11" fill="#6b7280">Normalized frequency (× Fₛ)</text>
</svg>
