<svg xmlns="http://www.w3.org/2000/svg" viewBox="0 0 560 210" width="560" height="210" style="font-family:system-ui,-apple-system,sans-serif">
  <rect width="560" height="210" fill="#fafafa" rx="6"/>
  <text x="280" y="18" text-anchor="middle" font-size="12" font-weight="600" fill="#374151">lanczos</text>
  <line x1="52" y1="166.0" x2="257" y2="166.0" stroke="#e5e7eb" stroke-width="0.5"/>
  <text x="48" y="169.0" text-anchor="end" font-size="7.5" fill="#6b7280">0</text>
  <line x1="52" y1="97.0" x2="257" y2="97.0" stroke="#e5e7eb" stroke-width="0.5"/>
  <text x="48" y="100.0" text-anchor="end" font-size="7.5" fill="#6b7280">0.5</text>
  <line x1="52" y1="28.0" x2="257" y2="28.0" stroke="#e5e7eb" stroke-width="0.5"/>
  <text x="48" y="31.0" text-anchor="end" font-size="7.5" fill="#6b7280">1</text>
  <line x1="52.0" y1="28" x2="52.0" y2="166" stroke="#e5e7eb" stroke-width="0.5"/>
  <text x="52.0" y="178" text-anchor="middle" font-size="7.5" fill="#6b7280">0</text>
  <line x1="154.5" y1="28" x2="154.5" y2="166" stroke="#e5e7eb" stroke-width="0.5"/>
  <text x="154.5" y="178" text-anchor="middle" font-size="7.5" fill="#6b7280">0.5</text>
  <line x1="257.0" y1="28" x2="257.0" y2="166" stroke="#e5e7eb" stroke-width="0.5"/>
  <text x="257.0" y="178" text-anchor="middle" font-size="7.5" fill="#6b7280">1</text>
  <line x1="52" y1="28" x2="52" y2="166" stroke="#d1d5db" stroke-width="0.75"/>
  <line x1="52" y1="166" x2="257" y2="166" stroke="#d1d5db" stroke-width="0.75"/>
  <path d="M52.0,166.0 52.0,166.0 52.8,164.9 53.6,163.8 54.4,162.7 55.2,161.5 56.0,160.4 56.8,159.2 57.6,158.0 58.4,156.8 59.2,155.6 60.0,154.4 60.8,153.1 61.6,151.9 62.5,150.6 63.3,149.3 64.1,148.0 64.9,146.7 65.7,145.4 66.5,144.1 67.3,142.7 68.1,141.4 68.9,140.0 69.7,138.6 70.5,137.2 71.3,135.8 72.1,134.4 72.9,133.0 73.7,131.6 74.5,130.2 75.3,128.7 76.1,127.3 76.9,125.9 77.7,124.4 78.5,122.9 79.3,121.5 80.1,120.0 80.9,118.6 81.7,117.1 82.5,115.6 83.4,114.1 84.2,112.6 85.0,111.2 85.8,109.7 86.6,108.2 87.4,106.7 88.2,105.2 89.0,103.7 89.8,102.3 90.6,100.8 91.4,99.3 92.2,97.8 93.0,96.4 93.8,94.9 94.6,93.4 95.4,92.0 96.2,90.5 97.0,89.1 97.8,87.7 98.6,86.2 99.4,84.8 100.2,83.4 101.0,82.0 101.8,80.6 102.6,79.2 103.5,77.8 104.3,76.4 105.1,75.1 105.9,73.7 106.7,72.4 107.5,71.1 108.3,69.7 109.1,68.5 109.9,67.2 110.7,65.9 111.5,64.6 112.3,63.4 113.1,62.2 113.9,61.0 114.7,59.8 115.5,58.6 116.3,57.4 117.1,56.3 117.9,55.1 118.7,54.0 119.5,52.9 120.3,51.9 121.1,50.8 121.9,49.8 122.7,48.8 123.5,47.8 124.4,46.8 125.2,45.9 126.0,44.9 126.8,44.0 127.6,43.1 128.4,42.3 129.2,41.4 130.0,40.6 130.8,39.8 131.6,39.1 132.4,38.3 133.2,37.6 134.0,36.9 134.8,36.2 135.6,35.6 136.4,35.0 137.2,34.4 138.0,33.8 138.8,33.2 139.6,32.7 140.4,32.2 141.2,31.8 142.0,31.3 142.8,30.9 143.6,30.5 144.5,30.2 145.3,29.8 146.1,29.5 146.9,29.3 147.7,29.0 148.5,28.8 149.3,28.6 150.1,28.4 150.9,28.3 151.7,28.2 152.5,28.1 153.3,28.0 154.1,28.0 154.9,28.0 155.7,28.0 156.5,28.1 157.3,28.2 158.1,28.3 158.9,28.4 159.7,28.6 160.5,28.8 161.3,29.0 162.1,29.3 162.9,29.5 163.7,29.8 164.5,30.2 165.4,30.5 166.2,30.9 167.0,31.3 167.8,31.8 168.6,32.2 169.4,32.7 170.2,33.2 171.0,33.8 171.8,34.4 172.6,35.0 173.4,35.6 174.2,36.2 175.0,36.9 175.8,37.6 176.6,38.3 177.4,39.1 178.2,39.8 179.0,40.6 179.8,41.4 180.6,42.3 181.4,43.1 182.2,44.0 183.0,44.9 183.8,45.9 184.6,46.8 185.5,47.8 186.3,48.8 187.1,49.8 187.9,50.8 188.7,51.9 189.5,52.9 190.3,54.0 191.1,55.1 191.9,56.3 192.7,57.4 193.5,58.6 194.3,59.8 195.1,61.0 195.9,62.2 196.7,63.4 197.5,64.6 198.3,65.9 199.1,67.2 199.9,68.5 200.7,69.7 201.5,71.1 202.3,72.4 203.1,73.7 203.9,75.1 204.7,76.4 205.5,77.8 206.4,79.2 207.2,80.6 208.0,82.0 208.8,83.4 209.6,84.8 210.4,86.2 211.2,87.7 212.0,89.1 212.8,90.5 213.6,92.0 214.4,93.4 215.2,94.9 216.0,96.4 216.8,97.8 217.6,99.3 218.4,100.8 219.2,102.3 220.0,103.7 220.8,105.2 221.6,106.7 222.4,108.2 223.2,109.7 224.0,111.2 224.8,112.6 225.6,114.1 226.5,115.6 227.3,117.1 228.1,118.6 228.9,120.0 229.7,121.5 230.5,122.9 231.3,124.4 232.1,125.9 232.9,127.3 233.7,128.7 234.5,130.2 235.3,131.6 236.1,133.0 236.9,134.4 237.7,135.8 238.5,137.2 239.3,138.6 240.1,140.0 240.9,141.4 241.7,142.7 242.5,144.1 243.3,145.4 244.1,146.7 244.9,148.0 245.7,149.3 246.5,150.6 247.4,151.9 248.2,153.1 249.0,154.4 249.8,155.6 250.6,156.8 251.4,158.0 252.2,159.2 253.0,160.4 253.8,161.5 254.6,162.7 255.4,163.8 256.2,164.9 257.0,166.0 L257.0,166.0 Z" fill="#4a90d9" fill-opacity="0.06"/>
  <polyline points="52.0,166.0 52.8,164.9 53.6,163.8 54.4,162.7 55.2,161.5 56.0,160.4 56.8,159.2 57.6,158.0 58.4,156.8 59.2,155.6 60.0,154.4 60.8,153.1 61.6,151.9 62.5,150.6 63.3,149.3 64.1,148.0 64.9,146.7 65.7,145.4 66.5,144.1 67.3,142.7 68.1,141.4 68.9,140.0 69.7,138.6 70.5,137.2 71.3,135.8 72.1,134.4 72.9,133.0 73.7,131.6 74.5,130.2 75.3,128.7 76.1,127.3 76.9,125.9 77.7,124.4 78.5,122.9 79.3,121.5 80.1,120.0 80.9,118.6 81.7,117.1 82.5,115.6 83.4,114.1 84.2,112.6 85.0,111.2 85.8,109.7 86.6,108.2 87.4,106.7 88.2,105.2 89.0,103.7 89.8,102.3 90.6,100.8 91.4,99.3 92.2,97.8 93.0,96.4 93.8,94.9 94.6,93.4 95.4,92.0 96.2,90.5 97.0,89.1 97.8,87.7 98.6,86.2 99.4,84.8 100.2,83.4 101.0,82.0 101.8,80.6 102.6,79.2 103.5,77.8 104.3,76.4 105.1,75.1 105.9,73.7 106.7,72.4 107.5,71.1 108.3,69.7 109.1,68.5 109.9,67.2 110.7,65.9 111.5,64.6 112.3,63.4 113.1,62.2 113.9,61.0 114.7,59.8 115.5,58.6 116.3,57.4 117.1,56.3 117.9,55.1 118.7,54.0 119.5,52.9 120.3,51.9 121.1,50.8 121.9,49.8 122.7,48.8 123.5,47.8 124.4,46.8 125.2,45.9 126.0,44.9 126.8,44.0 127.6,43.1 128.4,42.3 129.2,41.4 130.0,40.6 130.8,39.8 131.6,39.1 132.4,38.3 133.2,37.6 134.0,36.9 134.8,36.2 135.6,35.6 136.4,35.0 137.2,34.4 138.0,33.8 138.8,33.2 139.6,32.7 140.4,32.2 141.2,31.8 142.0,31.3 142.8,30.9 143.6,30.5 144.5,30.2 145.3,29.8 146.1,29.5 146.9,29.3 147.7,29.0 148.5,28.8 149.3,28.6 150.1,28.4 150.9,28.3 151.7,28.2 152.5,28.1 153.3,28.0 154.1,28.0 154.9,28.0 155.7,28.0 156.5,28.1 157.3,28.2 158.1,28.3 158.9,28.4 159.7,28.6 160.5,28.8 161.3,29.0 162.1,29.3 162.9,29.5 163.7,29.8 164.5,30.2 165.4,30.5 166.2,30.9 167.0,31.3 167.8,31.8 168.6,32.2 169.4,32.7 170.2,33.2 171.0,33.8 171.8,34.4 172.6,35.0 173.4,35.6 174.2,36.2 175.0,36.9 175.8,37.6 176.6,38.3 177.4,39.1 178.2,39.8 179.0,40.6 179.8,41.4 180.6,42.3 181.4,43.1 182.2,44.0 183.0,44.9 183.8,45.9 184.6,46.8 185.5,47.8 186.3,48.8 187.1,49.8 187.9,50.8 188.7,51.9 189.5,52.9 190.3,54.0 191.1,55.1 191.9,56.3 192.7,57.4 193.5,58.6 194.3,59.8 195.1,61.0 195.9,62.2 196.7,63.4 197.5,64.6 198.3,65.9 199.1,67.2 199.9,68.5 200.7,69.7 201.5,71.1 202.3,72.4 203.1,73.7 203.9,75.1 204.7,76.4 205.5,77.8 206.4,79.2 207.2,80.6 208.0,82.0 208.8,83.4 209.6,84.8 210.4,86.2 211.2,87.7 212.0,89.1 212.8,90.5 213.6,92.0 214.4,93.4 215.2,94.9 216.0,96.4 216.8,97.8 217.6,99.3 218.4,100.8 219.2,102.3 220.0,103.7 220.8,105.2 221.6,106.7 222.4,108.2 223.2,109.7 224.0,111.2 224.8,112.6 225.6,114.1 226.5,115.6 227.3,117.1 228.1,118.6 228.9,120.0 229.7,121.5 230.5,122.9 231.3,124.4 232.1,125.9 232.9,127.3 233.7,128.7 234.5,130.2 235.3,131.6 236.1,133.0 236.9,134.4 237.7,135.8 238.5,137.2 239.3,138.6 240.1,140.0 240.9,141.4 241.7,142.7 242.5,144.1 243.3,145.4 244.1,146.7 244.9,148.0 245.7,149.3 246.5,150.6 247.4,151.9 248.2,153.1 249.0,154.4 249.8,155.6 250.6,156.8 251.4,158.0 252.2,159.2 253.0,160.4 253.8,161.5 254.6,162.7 255.4,163.8 256.2,164.9 257.0,166.0" fill="none" stroke="#4a90d9" stroke-width="1.2" stroke-linejoin="round"/>
  <line x1="322" y1="28.0" x2="527" y2="28.0" stroke="#e5e7eb" stroke-width="0.5"/>
  <text x="318" y="31.0" text-anchor="end" font-size="7.5" fill="#6b7280">0</text>
  <line x1="322" y1="74.0" x2="527" y2="74.0" stroke="#e5e7eb" stroke-width="0.5"/>
  <text x="318" y="77.0" text-anchor="end" font-size="7.5" fill="#6b7280">-40</text>
  <line x1="322" y1="120.0" x2="527" y2="120.0" stroke="#e5e7eb" stroke-width="0.5"/>
  <text x="318" y="123.0" text-anchor="end" font-size="7.5" fill="#6b7280">-80</text>
  <line x1="322" y1="166.0" x2="527" y2="166.0" stroke="#e5e7eb" stroke-width="0.5"/>
  <text x="318" y="169.0" text-anchor="end" font-size="7.5" fill="#6b7280">-120</text>
  <line x1="322.0" y1="28" x2="322.0" y2="166" stroke="#e5e7eb" stroke-width="0.5"/>
  <text x="322.0" y="178" text-anchor="middle" font-size="7.5" fill="#6b7280">0</text>
  <line x1="363.0" y1="28" x2="363.0" y2="166" stroke="#e5e7eb" stroke-width="0.5"/>
  <text x="363.0" y="178" text-anchor="middle" font-size="7.5" fill="#6b7280">0.1</text>
  <line x1="404.0" y1="28" x2="404.0" y2="166" stroke="#e5e7eb" stroke-width="0.5"/>
  <text x="404.0" y="178" text-anchor="middle" font-size="7.5" fill="#6b7280">0.2</text>
  <line x1="445.0" y1="28" x2="445.0" y2="166" stroke="#e5e7eb" stroke-width="0.5"/>
  <text x="445.0" y="178" text-anchor="middle" font-size="7.5" fill="#6b7280">0.3</text>
  <line x1="486.0" y1="28" x2="486.0" y2="166" stroke="#e5e7eb" stroke-width="0.5"/>
  <text x="486.0" y="178" text-anchor="middle" font-size="7.5" fill="#6b7280">0.4</text>
  <line x1="527.0" y1="28" x2="527.0" y2="166" stroke="#e5e7eb" stroke-width="0.5"/>
  <text x="527.0" y="178" text-anchor="middle" font-size="7.5" fill="#6b7280">0.5</text>
  <line x1="322" y1="28" x2="322" y2="166" stroke="#d1d5db" stroke-width="0.75"/>
  <line x1="322" y1="166" x2="527" y2="166" stroke="#d1d5db" stroke-width="0.75"/>
  <polyline points="322.0,28.0 322.1,28.0 322.2,28.1 322.3,28.3 322.4,28.5 322.5,28.8 322.6,29.2 322.7,29.6 322.8,30.2 322.9,30.8 323.0,31.4 323.1,32.2 323.2,33.0 323.3,34.0 323.4,35.0 323.5,36.2 323.6,37.5 323.7,38.9 323.8,40.6 323.9,42.4 324.0,44.4 324.1,46.8 324.2,49.6 324.3,53.0 324.4,57.4 324.5,64.0 324.6,79.2 324.7,72.6 324.8,64.8 324.9,61.4 325.0,59.6 325.1,58.7 325.2,58.4 325.3,58.5 325.4,59.1 325.5,60.1 325.6,61.5 325.7,63.4 325.8,66.0 325.9,69.5 326.0,75.0 326.1,86.8 326.2,86.2 326.3,76.3 326.4,72.0 326.5,69.6 326.6,68.2 326.7,67.4 326.8,67.1 326.9,67.2 327.0,67.7 327.1,68.7 327.2,70.0 327.3,71.9 327.4,74.6 327.5,78.4 327.6,84.8 327.7,105.3 327.8,88.6 327.9,81.4 328.0,77.7 328.1,75.5 328.2,74.1 328.3,73.4 328.4,73.0 328.5,73.1 328.6,73.6 328.7,74.5 328.8,75.9 328.9,77.8 329.0,80.5 329.1,84.5 329.2,91.4 329.3,141.4 329.4,92.1 329.5,85.7 329.6,82.2 329.7,80.1 329.8,78.7 329.9,77.9 330.0,77.6 330.1,77.7 330.2,78.1 330.3,79.0 330.4,80.3 330.5,82.2 330.6,84.9 330.7,89.0 330.8,96.3 330.9,123.4 331.0,95.5 331.1,89.3 331.2,85.9 331.3,83.8 331.4,82.4 331.5,81.6 331.6,81.3 331.7,81.3 331.8,81.8 331.9,82.6 332.0,83.9 332.1,85.8 332.2,88.5 332.3,92.6 332.4,100.0 332.5,123.0 332.6,98.6 332.7,92.5 332.8,89.1 332.9,87.0 333.0,85.6 333.1,84.8 333.2,84.4 333.3,84.4 333.4,84.8 333.5,85.6 333.6,86.9 333.7,88.8 333.8,91.5 333.9,95.5 334.0,103.0 334.1,125.4 334.2,101.4 334.3,95.3 334.4,91.9 334.5,89.7 334.6,88.3 334.7,87.5 334.8,87.1 334.9,87.1 335.0,87.5 335.1,88.3 335.2,89.5 335.3,91.3 335.4,94.0 335.5,98.0 335.6,105.4 335.7,129.2 335.8,104.0 335.9,97.8 336.0,94.4 336.1,92.2 336.2,90.8 336.3,89.9 336.4,89.5 336.5,89.4 336.6,89.8 336.7,90.6 336.8,91.8 336.9,93.6 337.0,96.2 337.1,100.2 337.2,107.4 337.3,134.5 337.4,106.4 337.5,100.1 337.6,96.6 337.7,94.4 337.8,92.9 337.9,92.0 338.0,91.6 338.1,91.5 338.2,91.9 338.3,92.6 338.4,93.8 338.5,95.6 338.6,98.1 338.7,102.0 338.8,109.1 338.9,142.9 339.0,108.6 339.1,102.2 339.2,98.6 339.3,96.4 339.4,94.9 339.5,94.0 339.6,93.5 339.7,93.4 339.8,93.7 339.9,94.4 340.0,95.6 340.1,97.3 340.2,99.9 340.3,103.7 340.4,110.5 340.5,166.0 340.6,110.8 340.7,104.1 340.8,100.5 340.9,98.2 341.0,96.7 341.1,95.7 341.2,95.2 341.3,95.1 341.4,95.4 341.5,96.1 341.6,97.3 341.7,99.0 341.8,101.4 341.9,105.2 342.0,111.8 342.1,143.7 342.2,112.8 342.3,106.0 342.4,102.3 342.5,99.9 342.6,98.4 342.7,97.4 342.8,96.9 342.9,96.7 343.0,97.0 343.1,97.7 343.2,98.8 343.3,100.4 343.4,102.8 343.5,106.5 343.6,112.9 343.7,138.3 343.8,114.8 343.9,107.7 344.0,103.9 344.1,101.5 344.2,99.9 344.3,98.9 344.4,98.3 344.5,98.2 344.6,98.4 344.7,99.1 344.8,100.1 344.9,101.8 345.0,104.1 345.1,107.7 345.2,113.9 345.3,135.4 345.4,116.7 345.5,109.3 345.6,105.4 345.7,103.0 345.8,101.3 345.9,100.3 346.0,99.7 346.1,99.6 346.2,99.8 346.3,100.4 346.4,101.4 346.5,103.0 346.6,105.3 346.7,108.9 346.8,114.8 346.9,133.6 347.0,118.6 347.1,110.9 347.2,106.9 347.3,104.4 347.4,102.7 347.5,101.6 347.6,101.0 347.7,100.8 347.8,101.0 347.9,101.6 348.0,102.6 348.1,104.2 348.2,106.5 348.3,109.9 348.4,115.7 348.5,132.4 348.6,120.4 348.7,112.4 348.8,108.3 348.9,105.7 349.0,104.0 349.1,102.9 349.2,102.3 349.3,102.0 349.4,102.2 349.5,102.8 349.6,103.8 349.7,105.3 349.8,107.5 349.9,110.8 350.0,116.4 350.1,131.6 350.2,122.3 350.3,113.8 350.4,109.6 350.5,106.9 350.6,105.2 350.7,104.1 350.8,103.4 350.9,103.2 351.0,103.3 351.1,103.8 351.2,104.8 351.3,106.3 351.4,108.5 351.5,111.7 351.6,117.1 351.7,130.9 351.8,124.1 351.9,115.2 352.0,110.8 352.1,108.1 352.2,106.3 352.3,105.2 352.4,104.5 352.5,104.2 352.6,104.3 352.7,104.9 352.8,105.8 352.9,107.2 353.0,109.4 353.1,112.6 353.2,117.8 353.3,130.5 353.4,126.0 353.5,116.5 353.6,112.0 353.7,109.3 353.8,107.4 353.9,106.2 354.0,105.5 354.1,105.2 354.2,105.3 354.3,105.8 354.4,106.7 354.5,108.1 354.6,110.2 354.7,113.3 354.8,118.4 354.9,130.2 355.0,127.9 355.1,117.8 355.2,113.2 355.3,110.4 355.4,108.5 355.5,107.3 355.6,106.5 355.7,106.2 355.8,106.3 355.9,106.7 356.0,107.6 356.1,109.0 356.3,111.0 356.4,114.1 356.5,119.0 356.6,129.9 356.7,129.8 356.8,119.1 356.9,114.3 357.0,111.4 357.1,109.5 357.2,108.2 357.3,107.5 357.4,107.1 357.5,107.2 357.6,107.6 357.7,108.4 357.8,109.8 357.9,111.8 358.0,114.7 358.1,119.5 358.2,129.7 358.3,131.9 358.4,120.3 358.5,115.4 358.6,112.4 358.7,110.5 358.8,109.2 358.9,108.4 359.0,108.0 359.1,108.0 359.2,108.4 359.3,109.2 359.4,110.6 359.5,112.5 359.6,115.4 359.7,120.0 359.8,129.6 359.9,134.1 360.0,121.6 360.1,116.5 360.2,113.4 360.3,111.4 360.4,110.0 360.5,109.2 360.6,108.8 360.7,108.8 360.8,109.2 360.9,110.0 361.0,111.3 361.1,113.2 361.2,116.0 361.3,120.5 361.4,129.5 361.5,136.5 361.6,122.8 361.7,117.5 361.8,114.3 361.9,112.3 362.0,110.9 362.1,110.1 362.2,109.6 362.3,109.6 362.4,110.0 362.5,110.7 362.6,112.0 362.7,113.8 362.8,116.6 362.9,120.9 363.0,129.5 363.1,139.1 363.2,124.0 363.3,118.5 363.4,115.2 363.5,113.1 363.6,111.7 363.7,110.9 363.8,110.4 363.9,110.4 364.0,110.7 364.1,111.4 364.2,112.7 364.3,114.5 364.4,117.2 364.5,121.4 364.6,129.5 364.7,142.2 364.8,125.2 364.9,119.5 365.0,116.1 365.1,114.0 365.2,112.5 365.3,111.6 365.4,111.2 365.5,111.1 365.6,111.4 365.7,112.1 365.8,113.3 365.9,115.1 366.0,117.7 366.1,121.8 366.2,129.5 366.3,146.0 366.4,126.4 366.5,120.4 366.6,117.0 366.7,114.8 366.8,113.3 366.9,112.4 367.0,111.9 367.1,111.8 367.2,112.1 367.3,112.7 367.4,113.9 367.5,115.6 367.6,118.2 367.7,122.1 367.8,129.5 367.9,151.2 368.0,127.5 368.1,121.3 368.2,117.8 368.3,115.6 368.4,114.0 368.5,113.1 368.6,112.6 368.7,112.4 368.8,112.7 368.9,113.4 369.0,114.5 369.1,116.2 369.2,118.7 369.3,122.5 369.4,129.5 369.5,160.4 369.6,128.7 369.7,122.3 369.8,118.7 369.9,116.3 370.0,114.8 370.1,113.8 370.2,113.2 370.3,113.1 370.4,113.3 370.5,114.0 370.6,115.0 370.7,116.7 370.8,119.1 370.9,122.9 371.0,129.6 371.1,166.0 371.2,129.9 371.3,123.2 371.4,119.5 371.5,117.1 371.6,115.5 371.7,114.4 371.8,113.9 371.9,113.7 372.0,113.9 372.1,114.5 372.2,115.6 372.3,117.2 372.4,119.6 372.5,123.2 372.6,129.6 372.7,156.2 372.8,131.2 372.9,124.1 373.0,120.2 373.1,117.8 373.2,116.2 373.3,115.1 373.4,114.5 373.5,114.3 373.6,114.5 373.7,115.1 373.8,116.1 373.9,117.7 374.0,120.0 374.1,123.5 374.2,129.7 374.3,151.0 374.4,132.4 374.5,125.0 374.6,121.0 374.7,118.5 374.8,116.8 374.9,115.7 375.0,115.1 375.1,114.9 375.2,115.1 375.3,115.6 375.4,116.6 375.5,118.1 375.6,120.4 375.7,123.9 375.8,129.7 375.9,147.9 376.0,133.7 376.1,125.8 376.2,121.8 376.3,119.2 376.4,117.5 376.5,116.3 376.6,115.7 376.7,115.5 376.8,115.6 376.9,116.1 377.0,117.1 377.1,118.6 377.2,120.8 377.3,124.2 377.4,129.8 377.5,145.7 377.6,135.0 377.7,126.7 377.8,122.5 377.9,119.9 378.0,118.1 378.1,116.9 378.2,116.3 378.3,116.0 378.4,116.1 378.5,116.6 378.6,117.6 378.7,119.0 378.8,121.2 378.9,124.4 379.0,129.9 379.1,144.1 379.2,136.4 379.3,127.6 379.4,123.2 379.5,120.5 379.6,118.7 379.7,117.5 379.8,116.8 379.9,116.5 380.0,116.6 380.1,117.1 380.2,118.0 380.3,119.4 380.4,121.6 380.5,124.7 380.6,130.0 380.7,142.9 380.8,137.8 380.9,128.4 381.0,124.0 381.1,121.2 381.2,119.3 381.3,118.1 381.4,117.4 381.5,117.0 381.6,117.1 381.7,117.6 381.8,118.5 381.9,119.8 382.0,121.9 382.1,125.0 382.2,130.1 382.3,141.9 382.4,139.3 382.5,129.3 382.6,124.7 382.7,121.8 382.8,119.9 382.9,118.7 383.0,117.9 383.1,117.6 383.2,117.6 383.3,118.0 383.4,118.9 383.5,120.2 383.6,122.3 383.7,125.3 383.8,130.2 383.9,141.1 384.0,140.9 384.1,130.2 384.2,125.4 384.3,122.4 384.4,120.5 384.5,119.2 384.6,118.4 384.7,118.0 384.8,118.1 384.9,118.5 385.0,119.3 385.1,120.6 385.2,122.6 385.3,125.5 385.4,130.2 385.5,140.4 385.6,142.6 385.7,131.0 385.8,126.1 385.9,123.0 386.0,121.1 386.1,119.7 386.2,118.9 386.3,118.5 386.4,118.5 386.5,118.9 386.6,119.7 386.7,121.0 386.8,122.9 386.9,125.8 387.0,130.3 387.1,139.9 387.2,144.5 387.3,131.9 387.4,126.7 387.5,123.6 387.6,121.6 387.7,120.2 387.8,119.4 387.9,119.0 388.0,119.0 388.1,119.3 388.2,120.1 388.3,121.3 388.4,123.2 388.5,126.0 388.6,130.4 388.7,139.4 388.8,146.7 388.9,132.8 389.0,127.4 389.1,124.2 389.2,122.2 389.3,120.8 389.4,119.9 389.5,119.4 389.6,119.4 389.7,119.7 389.8,120.5 389.9,121.7 390.0,123.5 390.1,126.2 390.2,130.5 390.3,138.9 390.4,149.2 390.5,133.7 390.6,128.1 390.7,124.8 390.8,122.7 390.9,121.3 391.0,120.3 391.1,119.9 391.2,119.8 391.3,120.1 391.4,120.8 391.5,122.0 391.6,123.8 391.7,126.4 391.8,130.6 391.9,138.6 392.0,152.2 392.1,134.6 392.2,128.8 392.3,125.4 392.4,123.2 392.5,121.7 392.6,120.8 392.7,120.3 392.8,120.2 392.9,120.5 393.0,121.2 393.1,122.3 393.2,124.1 393.3,126.7 393.4,130.7 393.5,138.3 393.6,156.2 393.7,135.5 393.8,129.4 393.9,126.0 394.0,123.7 394.1,122.2 394.2,121.3 394.3,120.7 394.4,120.6 394.5,120.9 394.6,121.5 394.7,122.7 394.8,124.4 394.9,126.9 395.0,130.8 395.1,138.0 395.2,162.2 395.3,136.4 395.4,130.1 395.5,126.5 395.6,124.2 395.7,122.7 395.8,121.7 395.9,121.1 396.0,121.0 396.1,121.2 396.2,121.9 396.3,123.0 396.4,124.6 396.5,127.1 396.6,130.9 396.7,137.7 396.8,166.0 396.9,137.4 397.0,130.8 397.1,127.1 397.2,124.7 397.3,123.1 397.4,122.1 397.5,121.5 397.6,121.4 397.7,121.6 397.8,122.2 397.9,123.3 398.0,124.9 398.1,127.3 398.2,131.0 398.3,137.5 398.4,166.0 398.5,138.4 398.6,131.4 398.7,127.7 398.8,125.2 398.9,123.6 399.0,122.5 399.1,121.9 399.2,121.7 399.3,121.9 399.4,122.5 399.5,123.6 399.6,125.1 399.7,127.5 399.8,131.0 399.9,137.3 400.0,161.0 400.1,139.4 400.2,132.1 400.3,128.2 400.4,125.7 400.5,124.0 400.6,123.0 400.7,122.3 400.8,122.1 400.9,122.3 401.0,122.8 401.1,123.8 401.2,125.4 401.3,127.7 401.4,131.1 401.5,137.1 401.6,156.7 401.7,140.4 401.8,132.8 401.9,128.8 402.0,126.2 402.1,124.5 402.2,123.4 402.3,122.7 402.4,122.5 402.5,122.6 402.6,123.1 402.7,124.1 402.8,125.6 402.9,127.8 403.0,131.2 403.1,137.0 403.2,153.9 403.3,141.5 403.4,133.4 403.5,129.3 403.6,126.7 403.7,124.9 403.8,123.8 403.9,123.1 404.0,122.8 404.1,122.9 404.2,123.4 404.3,124.4 404.4,125.8 404.5,128.0 404.6,131.3 404.7,136.8 404.8,151.8 404.9,142.7 405.0,134.1 405.1,129.8 405.2,127.1 405.3,125.3 405.4,124.2 405.5,123.4 405.6,123.2 405.7,123.2 405.8,123.7 405.9,124.6 406.0,126.1 406.1,128.2 406.2,131.4 406.3,136.7 406.4,150.2 406.5,143.9 406.6,134.8 406.7,130.4 406.8,127.6 406.9,125.8 407.0,124.5 407.1,123.8 407.2,123.5 407.3,123.6 407.4,124.0 407.5,124.9 407.6,126.3 407.7,128.4 407.8,131.5 407.9,136.6 408.0,148.9 408.1,145.2 408.2,135.5 408.3,130.9 408.4,128.1 408.5,126.2 408.6,124.9 408.7,124.2 408.8,123.8 408.9,123.9 409.0,124.3 409.1,125.1 409.2,126.5 409.3,128.5 409.4,131.5 409.5,136.5 409.6,147.8 409.7,146.6 409.8,136.2 409.9,131.4 410.0,128.5 410.1,126.6 410.2,125.3 410.3,124.5 410.4,124.1 410.5,124.2 410.6,124.6 410.7,125.4 410.8,126.7 410.9,128.7 411.0,131.6 411.1,136.4 411.2,146.9 411.3,148.1 411.4,136.9 411.5,132.0 411.6,129.0 411.7,127.0 411.8,125.7 411.9,124.8 412.0,124.4 412.1,124.4 412.2,124.8 412.3,125.6 412.4,126.9 412.5,128.8 412.6,131.7 412.7,136.3 412.8,146.1 412.9,149.8 413.0,137.6 413.1,132.5 413.2,129.4 413.3,127.4 413.4,126.0 413.5,125.2 413.6,124.8 413.7,124.7 413.8,125.1 413.9,125.9 414.0,127.1 414.1,129.0 414.2,131.8 414.3,136.2 414.4,145.4 414.5,151.8 414.6,138.3 414.7,133.0 414.8,129.9 414.9,127.8 415.0,126.4 415.1,125.5 415.2,125.1 415.3,125.0 415.4,125.3 415.5,126.1 415.6,127.3 415.7,129.1 415.8,131.9 415.9,136.2 416.0,144.8 416.1,154.0 416.2,139.0 416.3,133.5 416.4,130.3 416.5,128.2 416.6,126.7 416.7,125.8 416.8,125.4 416.9,125.3 417.0,125.6 417.1,126.3 417.2,127.5 417.3,129.3 417.4,131.9 417.5,136.1 417.6,144.2 417.7,156.7 417.8,139.8 417.9,134.1 418.0,130.7 418.1,128.5 418.2,127.1 418.3,126.1 418.4,125.6 418.5,125.5 418.6,125.8 418.7,126.5 418.8,127.7 418.9,129.4 419.0,132.0 419.1,136.1 419.2,143.7 419.3,160.2 419.4,140.6 419.5,134.6 419.6,131.2 419.7,128.9 419.8,127.4 419.9,126.5 420.0,125.9 420.1,125.8 420.2,126.1 420.3,126.7 420.4,127.8 420.5,129.6 420.6,132.1 420.7,136.0 420.8,143.3 420.9,165.4 421.0,141.4 421.1,135.1 421.2,131.6 421.3,129.3 421.4,127.8 421.5,126.8 421.6,126.2 421.7,126.1 421.8,126.3 421.9,126.9 422.0,128.0 422.1,129.7 422.2,132.2 422.3,136.0 422.4,142.9 422.5,166.0 422.6,142.2 422.7,135.7 422.8,132.0 422.9,129.7 423.0,128.1 423.1,127.1 423.2,126.5 423.3,126.3 423.4,126.5 423.5,127.1 423.6,128.2 423.7,129.8 423.8,132.2 423.9,135.9 424.0,142.5 424.1,166.0 424.2,143.1 424.3,136.2 424.4,132.5 424.6,130.0 424.7,128.4 424.8,127.4 424.9,126.8 425.0,126.6 425.1,126.7 425.2,127.3 425.3,128.4 425.4,129.9 425.5,132.3 425.6,135.9 425.7,142.2 425.8,166.0 425.9,143.9 426.0,136.8 426.1,132.9 426.2,130.4 426.3,128.7 426.4,127.7 426.5,127.0 426.6,126.8 426.7,127.0 426.8,127.5 426.9,128.5 427.0,130.1 427.1,132.4 427.2,135.8 427.3,141.9 427.4,162.3 427.5,144.9 427.6,137.3 427.7,133.3 427.8,130.8 427.9,129.1 428.0,127.9 428.1,127.3 428.2,127.0 428.3,127.2 428.4,127.7 428.5,128.7 428.6,130.2 428.7,132.4 428.8,135.8 428.9,141.6 429.0,159.0 429.1,145.9 429.2,137.9 429.3,133.7 429.4,131.1 429.5,129.4 429.6,128.2 429.7,127.5 429.8,127.3 429.9,127.4 430.0,127.9 430.1,128.8 430.2,130.3 430.3,132.5 430.4,135.8 430.5,141.4 430.6,156.7 430.7,146.9 430.8,138.4 430.9,134.2 431.0,131.5 431.1,129.7 431.2,128.5 431.3,127.8 431.4,127.5 431.5,127.6 431.6,128.1 431.7,129.0 431.8,130.4 431.9,132.5 432.0,135.8 432.1,141.1 432.2,154.9 432.3,148.0 432.4,139.0 432.5,134.6 432.6,131.8 432.7,130.0 432.8,128.8 432.9,128.1 433.0,127.7 433.1,127.8 433.2,128.3 433.3,129.1 433.4,130.5 433.5,132.6 433.6,135.7 433.7,140.9 433.8,153.4 433.9,149.2 434.0,139.6 434.1,135.0 434.2,132.2 434.3,130.3 434.4,129.1 434.5,128.3 434.6,128.0 434.7,128.0 434.8,128.4 434.9,129.3 435.0,130.6 435.1,132.7 435.2,135.7 435.3,140.7 435.4,152.1 435.5,150.5 435.6,140.2 435.7,135.5 435.8,132.6 435.9,130.6 436.0,129.3 436.1,128.5 436.2,128.2 436.3,128.2 436.4,128.6 436.5,129.4 436.6,130.7 436.7,132.7 436.8,135.7 436.9,140.5 437.0,151.1 437.1,151.9 437.2,140.8 437.3,135.9 437.4,132.9 437.5,130.9 437.6,129.6 437.7,128.8 437.8,128.4 437.9,128.4 438.0,128.8 438.1,129.6 438.2,130.8 438.3,132.8 438.4,135.7 438.5,140.3 438.6,150.2 438.7,153.4 438.8,141.4 438.9,136.3 439.0,133.3 439.1,131.2 439.2,129.9 439.3,129.0 439.4,128.6 439.5,128.6 439.6,128.9 439.7,129.7 439.8,130.9 439.9,132.8 440.0,135.6 440.1,140.1 440.2,149.4 440.3,155.2 440.4,142.0 440.5,136.7 440.6,133.6 440.7,131.5 440.8,130.1 440.9,129.3 441.0,128.8 441.1,128.7 441.2,129.1 441.3,129.8 441.4,131.0 441.5,132.9 441.6,135.6 441.7,140.0 441.8,148.6 441.9,157.3 442.0,142.7 442.1,137.2 442.2,133.9 442.3,131.8 442.4,130.4 442.5,129.5 442.6,129.0 442.7,128.9 442.8,129.2 442.9,130.0 443.0,131.1 443.1,132.9 443.2,135.6 443.3,139.8 443.4,148.0 443.5,159.9 443.6,143.3 443.7,137.6 443.8,134.3 443.9,132.1 444.0,130.6 444.1,129.7 444.2,129.2 444.3,129.1 444.4,129.4 444.5,130.1 444.6,131.2 444.7,133.0 444.8,135.6 444.9,139.6 445.0,147.4 445.1,163.1 445.2,144.0 445.3,138.1 445.4,134.6 445.5,132.4 445.6,130.9 445.7,129.9 445.8,129.4 445.9,129.3 446.0,129.5 446.1,130.2 446.2,131.3 446.3,133.0 446.4,135.6 446.5,139.5 446.6,146.9 446.7,166.0 446.8,144.7 446.9,138.5 447.0,135.0 447.1,132.7 447.2,131.1 447.3,130.2 447.4,129.6 447.5,129.5 447.6,129.7 447.7,130.3 447.8,131.4 447.9,133.1 448.0,135.5 448.1,139.4 448.2,146.4 448.3,166.0 448.4,145.5 448.5,139.0 448.6,135.3 448.7,133.0 448.8,131.4 448.9,130.4 449.0,129.8 449.1,129.6 449.2,129.8 449.3,130.4 449.4,131.5 449.5,133.1 449.6,135.5 449.7,139.2 449.8,145.9 449.9,166.0 450.0,146.2 450.1,139.4 450.2,135.7 450.3,133.3 450.4,131.6 450.5,130.6 450.6,130.0 450.7,129.8 450.8,130.0 450.9,130.6 451.0,131.6 451.1,133.2 451.2,135.5 451.3,139.1 451.4,145.5 451.5,166.0 451.6,147.0 451.7,139.9 451.8,136.0 451.9,133.6 452.0,131.9 452.1,130.8 452.2,130.2 452.3,129.9 452.4,130.1 452.5,130.7 452.6,131.7 452.7,133.2 452.8,135.5 452.9,139.0 453.0,145.1 453.1,166.0 453.2,147.9 453.3,140.4 453.4,136.4 453.5,133.8 453.6,132.1 453.7,131.0 453.8,130.4 453.9,130.1 454.0,130.2 454.1,130.8 454.2,131.7 454.3,133.3 454.4,135.5 454.5,138.9 454.6,144.7 454.7,162.5 454.8,148.8 454.9,140.8 455.0,136.7 455.1,134.1 455.2,132.4 455.3,131.2 455.4,130.5 455.5,130.3 455.6,130.4 455.7,130.9 455.8,131.8 455.9,133.3 456.0,135.5 456.1,138.8 456.2,144.4 456.3,160.0 456.4,149.7 456.5,141.3 456.6,137.1 456.7,134.4 456.8,132.6 456.9,131.4 457.0,130.7 457.1,130.4 457.2,130.5 457.3,131.0 457.4,131.9 457.5,133.3 457.6,135.5 457.7,138.7 457.8,144.1 457.9,158.0 458.0,150.7 458.1,141.8 458.2,137.4 458.3,134.7 458.4,132.8 458.5,131.6 458.6,130.9 458.7,130.6 458.8,130.6 458.9,131.1 459.0,132.0 459.1,133.4 459.2,135.4 459.3,138.6 459.4,143.8 459.5,156.4 459.6,151.8 459.7,142.3 459.8,137.8 459.9,135.0 460.0,133.1 460.1,131.8 460.2,131.1 460.3,130.7 460.4,130.8 460.5,131.2 460.6,132.0 460.7,133.4 460.8,135.4 460.9,138.5 461.0,143.5 461.1,155.0 461.2,153.0 461.3,142.8 461.4,138.1 461.5,135.2 461.6,133.3 461.7,132.0 461.8,131.2 461.9,130.9 462.0,130.9 462.1,131.3 462.2,132.1 462.3,133.4 462.4,135.4 462.5,138.4 462.6,143.2 462.7,153.9 462.8,154.4 462.9,143.4 463.0,138.5 463.1,135.5 463.2,133.5 463.3,132.2 463.4,131.4 463.5,131.0 463.6,131.0 463.7,131.4 463.8,132.2 463.9,133.5 464.0,135.4 464.1,138.3 464.2,142.9 464.3,152.9 464.4,155.9 464.5,143.9 464.6,138.9 464.7,135.8 464.8,133.8 464.9,132.4 465.0,131.6 465.1,131.1 465.2,131.1 465.3,131.5 465.4,132.2 465.5,133.5 465.6,135.4 465.7,138.2 465.8,142.7 465.9,152.0 466.0,157.6 466.1,144.5 466.2,139.2 466.3,136.1 466.4,134.0 466.5,132.6 466.6,131.7 466.7,131.3 466.8,131.2 466.9,131.6 467.0,132.3 467.1,133.5 467.2,135.4 467.3,138.1 467.4,142.5 467.5,151.2 467.6,159.5 467.7,145.1 467.8,139.6 467.9,136.4 468.0,134.2 468.1,132.8 468.2,131.9 468.3,131.4 468.4,131.3 468.5,131.7 468.6,132.4 468.7,133.6 468.8,135.3 468.9,138.0 469.0,142.2 469.1,150.5 469.2,162.0 469.3,145.6 469.4,140.0 469.5,136.6 469.6,134.5 469.7,133.0 469.8,132.1 469.9,131.6 470.0,131.5 470.1,131.7 470.2,132.4 470.3,133.6 470.4,135.3 470.5,137.9 470.6,142.0 470.7,149.8 470.8,165.1 470.9,146.3 471.0,140.3 471.1,136.9 471.2,134.7 471.3,133.2 471.4,132.2 471.5,131.7 471.6,131.6 471.7,131.8 471.8,132.5 471.9,133.6 472.0,135.3 472.1,137.8 472.2,141.8 472.3,149.2 472.4,166.0 472.5,146.9 472.6,140.7 472.7,137.2 472.8,134.9 472.9,133.4 473.0,132.4 473.1,131.8 473.2,131.7 473.3,131.9 473.4,132.5 473.5,133.6 473.6,135.3 473.7,137.8 473.8,141.6 473.9,148.6 474.0,166.0 474.1,147.6 474.2,141.1 474.3,137.5 474.4,135.1 474.5,133.6 474.6,132.5 474.7,132.0 474.8,131.8 474.9,132.0 475.0,132.6 475.1,133.7 475.2,135.3 475.3,137.7 475.4,141.4 475.5,148.1 475.6,166.0 475.7,148.3 475.8,141.5 475.9,137.8 476.0,135.4 476.1,133.7 476.2,132.7 476.3,132.1 476.4,131.9 476.5,132.1 476.6,132.6 476.7,133.7 476.8,135.3 476.9,137.6 477.0,141.2 477.1,147.6 477.2,166.0 477.3,149.0 477.4,141.9 477.5,138.1 477.6,135.6 477.7,133.9 477.8,132.8 477.9,132.2 478.0,132.0 478.1,132.1 478.2,132.7 478.3,133.7 478.4,135.2 478.5,137.5 478.6,141.0 478.7,147.2 478.8,166.0 478.9,149.8 479.0,142.3 479.1,138.3 479.2,135.8 479.3,134.1 479.4,133.0 479.5,132.3 479.6,132.1 479.7,132.2 479.8,132.7 479.9,133.7 480.0,135.2 480.1,137.5 480.2,140.9 480.3,146.7 480.4,164.7 480.5,150.6 480.6,142.7 480.7,138.6 480.8,136.0 480.9,134.3 481.0,133.1 481.1,132.4 481.2,132.2 481.3,132.3 481.4,132.8 481.5,133.7 481.6,135.2 481.7,137.4 481.8,140.7 481.9,146.3 482.0,162.1 482.1,151.5 482.2,143.2 482.3,138.9 482.4,136.3 482.5,134.5 482.6,133.3 482.7,132.6 482.8,132.3 482.9,132.4 483.0,132.8 483.1,133.7 483.2,135.2 483.3,137.3 483.4,140.5 483.5,145.9 483.6,160.0 483.7,152.5 483.8,143.6 483.9,139.2 484.0,136.5 484.1,134.6 484.2,133.4 484.3,132.7 484.4,132.4 484.5,132.4 484.6,132.9 484.7,133.8 484.8,135.2 484.9,137.2 485.0,140.4 485.1,145.6 485.2,158.3 485.3,153.5 485.4,144.0 485.5,139.5 485.6,136.7 485.7,134.8 485.8,133.6 485.9,132.8 486.0,132.4 486.1,132.5 486.2,132.9 486.3,133.8 486.4,135.1 486.5,137.2 486.6,140.2 486.7,145.2 486.8,156.9 486.9,154.6 487.0,144.5 487.1,139.8 487.2,136.9 487.3,135.0 487.4,133.7 487.5,132.9 487.6,132.5 487.7,132.6 487.8,133.0 487.9,133.8 488.0,135.1 488.1,137.1 488.2,140.0 488.3,144.9 488.4,155.6 488.5,155.9 488.6,145.0 488.7,140.1 488.8,137.1 488.9,135.2 489.0,133.8 489.1,133.0 489.2,132.6 489.3,132.6 489.4,133.0 489.5,133.8 489.6,135.1 489.7,137.0 489.8,139.9 489.9,144.6 490.0,154.6 490.1,157.3 490.2,145.5 490.3,140.4 490.4,137.4 490.5,135.3 490.6,134.0 490.7,133.1 490.8,132.7 490.9,132.7 491.0,133.0 491.1,133.8 491.2,135.1 491.3,136.9 491.4,139.7 491.5,144.3 491.6,153.6 491.7,158.9 491.8,146.0 491.9,140.7 492.0,137.6 492.1,135.5 492.2,134.1 492.3,133.2 492.4,132.8 492.5,132.7 492.6,133.1 492.7,133.8 492.9,135.0 493.0,136.9 493.1,139.6 493.2,144.0 493.3,152.7 493.4,160.8 493.5,146.5 493.6,141.0 493.7,137.8 493.8,135.7 493.9,134.3 494.0,133.3 494.1,132.9 494.2,132.8 494.3,133.1 494.4,133.8 494.5,135.0 494.6,136.8 494.7,139.5 494.8,143.7 494.9,151.9 495.0,163.2 495.1,147.0 495.2,141.4 495.3,138.0 495.4,135.9 495.5,134.4 495.6,133.5 495.7,133.0 495.8,132.8 495.9,133.1 496.0,133.8 496.1,135.0 496.2,136.7 496.3,139.3 496.4,143.4 496.5,151.2 496.6,166.0 496.7,147.6 496.8,141.7 496.9,138.3 497.0,136.0 497.1,134.5 497.2,133.6 497.3,133.0 497.4,132.9 497.5,133.2 497.6,133.8 497.7,134.9 497.8,136.6 497.9,139.2 498.0,143.1 498.1,150.6 498.2,166.0 498.3,148.2 498.4,142.0 498.5,138.5 498.6,136.2 498.7,134.7 498.8,133.7 498.9,133.1 499.0,133.0 499.1,133.2 499.2,133.8 499.3,134.9 499.4,136.6 499.5,139.0 499.6,142.9 499.7,149.9 499.8,166.0 499.9,148.8 500.0,142.3 500.1,138.7 500.2,136.4 500.3,134.8 500.4,133.8 500.5,133.2 500.6,133.0 500.7,133.2 500.8,133.8 500.9,134.9 501.0,136.5 501.1,138.9 501.2,142.6 501.3,149.4 501.4,166.0 501.5,149.4 501.6,142.7 501.7,139.0 501.8,136.5 501.9,134.9 502.0,133.9 502.1,133.3 502.2,133.1 502.3,133.2 502.4,133.8 502.5,134.8 502.6,136.4 502.7,138.8 502.8,142.4 502.9,148.8 503.0,166.0 503.1,150.1 503.2,143.0 503.3,139.2 503.4,136.7 503.5,135.0 503.6,134.0 503.7,133.3 503.8,133.1 503.9,133.3 504.0,133.8 504.1,134.8 504.2,136.4 504.3,138.7 504.4,142.2 504.5,148.3 504.6,166.0 504.7,150.8 504.8,143.4 504.9,139.4 505.0,136.9 505.1,135.2 505.2,134.1 505.3,133.4 505.4,133.1 505.5,133.3 505.6,133.8 505.7,134.8 505.8,136.3 505.9,138.5 506.0,141.9 506.1,147.8 506.2,166.0 506.3,151.6 506.4,143.8 506.5,139.7 506.6,137.1 506.7,135.3 506.8,134.2 506.9,133.5 507.0,133.2 507.1,133.3 507.2,133.8 507.3,134.7 507.4,136.2 507.5,138.4 507.6,141.7 507.7,147.3 507.8,163.2 507.9,152.5 508.0,144.1 508.1,139.9 508.2,137.2 508.3,135.4 508.4,134.2 508.5,133.5 508.6,133.2 508.7,133.3 508.8,133.8 508.9,134.7 509.0,136.1 509.1,138.3 509.2,141.5 509.3,146.9 509.4,161.1 509.5,153.4 509.6,144.5 509.7,140.1 509.8,137.4 509.9,135.6 510.0,134.3 510.1,133.6 510.2,133.3 510.3,133.3 510.4,133.8 510.5,134.7 510.6,136.1 510.7,138.1 510.8,141.3 510.9,146.5 511.0,159.3 511.1,154.3 511.2,144.9 511.3,140.4 511.4,137.6 511.5,135.7 511.6,134.4 511.7,133.7 511.8,133.3 511.9,133.4 512.0,133.8 512.1,134.6 512.2,136.0 512.3,138.0 512.4,141.1 512.5,146.1 512.6,157.8 512.7,155.4 512.8,145.3 512.9,140.6 513.0,137.7 513.1,135.8 513.2,134.5 513.3,133.7 513.4,133.4 513.5,133.4 513.6,133.8 513.7,134.6 513.8,135.9 513.9,137.9 514.0,140.9 514.1,145.7 514.2,156.5 514.3,156.6 514.4,145.7 514.5,140.9 514.6,137.9 514.7,135.9 514.8,134.6 514.9,133.8 515.0,133.4 515.1,133.4 515.2,133.8 515.3,134.6 515.4,135.8 515.5,137.8 515.6,140.7 515.7,145.3 515.8,155.4 515.9,158.0 516.0,146.2 516.1,141.1 516.2,138.1 516.3,136.1 516.4,134.7 516.5,133.8 516.6,133.4 516.7,133.4 516.8,133.7 516.9,134.5 517.0,135.8 517.1,137.6 517.2,140.5 517.3,145.0 517.4,154.4 517.5,159.5 517.6,146.6 517.7,141.4 517.8,138.3 517.9,136.2 518.0,134.8 518.1,133.9 518.2,133.5 518.3,133.4 518.4,133.7 518.5,134.5 518.6,135.7 518.7,137.5 518.8,140.3 518.9,144.6 519.0,153.4 519.1,161.3 519.2,147.1 519.3,141.7 519.4,138.4 519.5,136.3 519.6,134.9 519.7,134.0 519.8,133.5 519.9,133.4 520.0,133.7 520.1,134.4 520.2,135.6 520.3,137.4 520.4,140.1 520.5,144.3 520.6,152.6 520.7,163.6 520.8,147.6 520.9,141.9 521.0,138.6 521.1,136.4 521.2,135.0 521.3,134.0 521.4,133.5 521.5,133.4 521.6,133.7 521.7,134.4 521.8,135.5 521.9,137.3 522.0,139.9 522.1,144.0 522.2,151.8 522.3,166.0 522.4,148.1 522.5,142.2 522.6,138.8 522.7,136.5 522.8,135.0 522.9,134.1 523.0,133.5 523.1,133.4 523.2,133.7 523.3,134.3 523.4,135.5 523.5,137.2 523.6,139.7 523.7,143.7 523.8,151.1 523.9,166.0 524.0,148.6 524.1,142.5 524.2,139.0 524.3,136.7 524.4,135.1 524.5,134.1 524.6,133.6 524.7,133.4 524.8,133.6 524.9,134.3 525.0,135.4 525.1,137.0 525.2,139.5 525.3,143.4 525.4,150.4 525.5,166.0 525.6,149.2 525.7,142.8 525.8,139.1 525.9,136.8 526.0,135.2 526.1,134.2 526.2,133.6 526.3,133.4 526.4,133.6 526.5,134.2 526.6,135.3 526.7,136.9 526.8,139.3 526.9,143.1 527.0,149.8" fill="none" stroke="#4a90d9" stroke-width="1.2" stroke-linejoin="round"/>
  <text x="154.5" y="190" text-anchor="middle" font-size="8" fill="#6b7280">n / N</text>
  <text x="424.5" y="190" text-anchor="middle" font-size="8" fill="#6b7280">Normalized frequency (× Fₛ)</text>
</svg>
