<svg xmlns="http://www.w3.org/2000/svg" viewBox="0 0 560 190" width="560" height="190" style="font-family:system-ui,-apple-system,sans-serif">
  <rect width="560" height="190" fill="none"/>
  <line x1="52" y1="152.0" x2="257" y2="152.0" stroke="#e5e7eb" stroke-width="0.5"/>
  <text x="48" y="155.0" text-anchor="end" font-size="7.5" fill="#6b7280">0</text>
  <line x1="52" y1="82.0" x2="257" y2="82.0" stroke="#e5e7eb" stroke-width="0.5"/>
  <text x="48" y="85.0" text-anchor="end" font-size="7.5" fill="#6b7280">0.5</text>
  <line x1="52" y1="12.0" x2="257" y2="12.0" stroke="#e5e7eb" stroke-width="0.5"/>
  <text x="48" y="15.0" text-anchor="end" font-size="7.5" fill="#6b7280">1</text>
  <line x1="52.0" y1="12" x2="52.0" y2="152" stroke="#e5e7eb" stroke-width="0.5"/>
  <text x="52.0" y="164" text-anchor="middle" font-size="7.5" fill="#6b7280">0</text>
  <line x1="154.5" y1="12" x2="154.5" y2="152" stroke="#e5e7eb" stroke-width="0.5"/>
  <text x="154.5" y="164" text-anchor="middle" font-size="7.5" fill="#6b7280">0.5</text>
  <line x1="257.0" y1="12" x2="257.0" y2="152" stroke="#e5e7eb" stroke-width="0.5"/>
  <text x="257.0" y="164" text-anchor="middle" font-size="7.5" fill="#6b7280">1</text>
  <line x1="52" y1="12" x2="52" y2="152" stroke="#d1d5db" stroke-width="0.75"/>
  <line x1="52" y1="152" x2="257" y2="152" stroke="#d1d5db" stroke-width="0.75"/>
  <path d="M52.0,152.0 52.0,152.0 52.8,150.9 53.6,149.8 54.4,148.6 55.2,147.5 56.0,146.3 56.8,145.1 57.6,143.9 58.4,142.7 59.2,141.5 60.0,140.2 60.8,138.9 61.6,137.7 62.5,136.4 63.3,135.1 64.1,133.8 64.9,132.4 65.7,131.1 66.5,129.7 67.3,128.4 68.1,127.0 68.9,125.6 69.7,124.2 70.5,122.8 71.3,121.4 72.1,120.0 72.9,118.5 73.7,117.1 74.5,115.7 75.3,114.2 76.1,112.7 76.9,111.3 77.7,109.8 78.5,108.3 79.3,106.8 80.1,105.4 80.9,103.9 81.7,102.4 82.5,100.9 83.4,99.4 84.2,97.9 85.0,96.4 85.8,94.9 86.6,93.4 87.4,91.9 88.2,90.3 89.0,88.8 89.8,87.3 90.6,85.8 91.4,84.3 92.2,82.9 93.0,81.4 93.8,79.9 94.6,78.4 95.4,76.9 96.2,75.4 97.0,74.0 97.8,72.5 98.6,71.1 99.4,69.6 100.2,68.2 101.0,66.8 101.8,65.3 102.6,63.9 103.5,62.5 104.3,61.1 105.1,59.8 105.9,58.4 106.7,57.0 107.5,55.7 108.3,54.4 109.1,53.0 109.9,51.7 110.7,50.4 111.5,49.2 112.3,47.9 113.1,46.7 113.9,45.4 114.7,44.2 115.5,43.0 116.3,41.8 117.1,40.7 117.9,39.5 118.7,38.4 119.5,37.3 120.3,36.2 121.1,35.2 121.9,34.1 122.7,33.1 123.5,32.1 124.4,31.1 125.2,30.1 126.0,29.2 126.8,28.3 127.6,27.4 128.4,26.5 129.2,25.6 130.0,24.8 130.8,24.0 131.6,23.2 132.4,22.5 133.2,21.7 134.0,21.0 134.8,20.3 135.6,19.7 136.4,19.1 137.2,18.5 138.0,17.9 138.8,17.3 139.6,16.8 140.4,16.3 141.2,15.8 142.0,15.4 142.8,15.0 143.6,14.6 144.5,14.2 145.3,13.9 146.1,13.6 146.9,13.3 147.7,13.0 148.5,12.8 149.3,12.6 150.1,12.4 150.9,12.3 151.7,12.2 152.5,12.1 153.3,12.0 154.1,12.0 154.9,12.0 155.7,12.0 156.5,12.1 157.3,12.2 158.1,12.3 158.9,12.4 159.7,12.6 160.5,12.8 161.3,13.0 162.1,13.3 162.9,13.6 163.7,13.9 164.5,14.2 165.4,14.6 166.2,15.0 167.0,15.4 167.8,15.8 168.6,16.3 169.4,16.8 170.2,17.3 171.0,17.9 171.8,18.5 172.6,19.1 173.4,19.7 174.2,20.3 175.0,21.0 175.8,21.7 176.6,22.5 177.4,23.2 178.2,24.0 179.0,24.8 179.8,25.6 180.6,26.5 181.4,27.4 182.2,28.3 183.0,29.2 183.8,30.1 184.6,31.1 185.5,32.1 186.3,33.1 187.1,34.1 187.9,35.2 188.7,36.2 189.5,37.3 190.3,38.4 191.1,39.5 191.9,40.7 192.7,41.8 193.5,43.0 194.3,44.2 195.1,45.4 195.9,46.7 196.7,47.9 197.5,49.2 198.3,50.4 199.1,51.7 199.9,53.0 200.7,54.4 201.5,55.7 202.3,57.0 203.1,58.4 203.9,59.8 204.7,61.1 205.5,62.5 206.4,63.9 207.2,65.3 208.0,66.8 208.8,68.2 209.6,69.6 210.4,71.1 211.2,72.5 212.0,74.0 212.8,75.4 213.6,76.9 214.4,78.4 215.2,79.9 216.0,81.4 216.8,82.9 217.6,84.3 218.4,85.8 219.2,87.3 220.0,88.8 220.8,90.3 221.6,91.9 222.4,93.4 223.2,94.9 224.0,96.4 224.8,97.9 225.6,99.4 226.5,100.9 227.3,102.4 228.1,103.9 228.9,105.4 229.7,106.8 230.5,108.3 231.3,109.8 232.1,111.3 232.9,112.7 233.7,114.2 234.5,115.7 235.3,117.1 236.1,118.5 236.9,120.0 237.7,121.4 238.5,122.8 239.3,124.2 240.1,125.6 240.9,127.0 241.7,128.4 242.5,129.7 243.3,131.1 244.1,132.4 244.9,133.8 245.7,135.1 246.5,136.4 247.4,137.7 248.2,138.9 249.0,140.2 249.8,141.5 250.6,142.7 251.4,143.9 252.2,145.1 253.0,146.3 253.8,147.5 254.6,148.6 255.4,149.8 256.2,150.9 257.0,152.0 L257.0,152.0 Z" fill="#4a90d9" fill-opacity="0.06"/>
  <polyline points="52.0,152.0 52.8,150.9 53.6,149.8 54.4,148.6 55.2,147.5 56.0,146.3 56.8,145.1 57.6,143.9 58.4,142.7 59.2,141.5 60.0,140.2 60.8,138.9 61.6,137.7 62.5,136.4 63.3,135.1 64.1,133.8 64.9,132.4 65.7,131.1 66.5,129.7 67.3,128.4 68.1,127.0 68.9,125.6 69.7,124.2 70.5,122.8 71.3,121.4 72.1,120.0 72.9,118.5 73.7,117.1 74.5,115.7 75.3,114.2 76.1,112.7 76.9,111.3 77.7,109.8 78.5,108.3 79.3,106.8 80.1,105.4 80.9,103.9 81.7,102.4 82.5,100.9 83.4,99.4 84.2,97.9 85.0,96.4 85.8,94.9 86.6,93.4 87.4,91.9 88.2,90.3 89.0,88.8 89.8,87.3 90.6,85.8 91.4,84.3 92.2,82.9 93.0,81.4 93.8,79.9 94.6,78.4 95.4,76.9 96.2,75.4 97.0,74.0 97.8,72.5 98.6,71.1 99.4,69.6 100.2,68.2 101.0,66.8 101.8,65.3 102.6,63.9 103.5,62.5 104.3,61.1 105.1,59.8 105.9,58.4 106.7,57.0 107.5,55.7 108.3,54.4 109.1,53.0 109.9,51.7 110.7,50.4 111.5,49.2 112.3,47.9 113.1,46.7 113.9,45.4 114.7,44.2 115.5,43.0 116.3,41.8 117.1,40.7 117.9,39.5 118.7,38.4 119.5,37.3 120.3,36.2 121.1,35.2 121.9,34.1 122.7,33.1 123.5,32.1 124.4,31.1 125.2,30.1 126.0,29.2 126.8,28.3 127.6,27.4 128.4,26.5 129.2,25.6 130.0,24.8 130.8,24.0 131.6,23.2 132.4,22.5 133.2,21.7 134.0,21.0 134.8,20.3 135.6,19.7 136.4,19.1 137.2,18.5 138.0,17.9 138.8,17.3 139.6,16.8 140.4,16.3 141.2,15.8 142.0,15.4 142.8,15.0 143.6,14.6 144.5,14.2 145.3,13.9 146.1,13.6 146.9,13.3 147.7,13.0 148.5,12.8 149.3,12.6 150.1,12.4 150.9,12.3 151.7,12.2 152.5,12.1 153.3,12.0 154.1,12.0 154.9,12.0 155.7,12.0 156.5,12.1 157.3,12.2 158.1,12.3 158.9,12.4 159.7,12.6 160.5,12.8 161.3,13.0 162.1,13.3 162.9,13.6 163.7,13.9 164.5,14.2 165.4,14.6 166.2,15.0 167.0,15.4 167.8,15.8 168.6,16.3 169.4,16.8 170.2,17.3 171.0,17.9 171.8,18.5 172.6,19.1 173.4,19.7 174.2,20.3 175.0,21.0 175.8,21.7 176.6,22.5 177.4,23.2 178.2,24.0 179.0,24.8 179.8,25.6 180.6,26.5 181.4,27.4 182.2,28.3 183.0,29.2 183.8,30.1 184.6,31.1 185.5,32.1 186.3,33.1 187.1,34.1 187.9,35.2 188.7,36.2 189.5,37.3 190.3,38.4 191.1,39.5 191.9,40.7 192.7,41.8 193.5,43.0 194.3,44.2 195.1,45.4 195.9,46.7 196.7,47.9 197.5,49.2 198.3,50.4 199.1,51.7 199.9,53.0 200.7,54.4 201.5,55.7 202.3,57.0 203.1,58.4 203.9,59.8 204.7,61.1 205.5,62.5 206.4,63.9 207.2,65.3 208.0,66.8 208.8,68.2 209.6,69.6 210.4,71.1 211.2,72.5 212.0,74.0 212.8,75.4 213.6,76.9 214.4,78.4 215.2,79.9 216.0,81.4 216.8,82.9 217.6,84.3 218.4,85.8 219.2,87.3 220.0,88.8 220.8,90.3 221.6,91.9 222.4,93.4 223.2,94.9 224.0,96.4 224.8,97.9 225.6,99.4 226.5,100.9 227.3,102.4 228.1,103.9 228.9,105.4 229.7,106.8 230.5,108.3 231.3,109.8 232.1,111.3 232.9,112.7 233.7,114.2 234.5,115.7 235.3,117.1 236.1,118.5 236.9,120.0 237.7,121.4 238.5,122.8 239.3,124.2 240.1,125.6 240.9,127.0 241.7,128.4 242.5,129.7 243.3,131.1 244.1,132.4 244.9,133.8 245.7,135.1 246.5,136.4 247.4,137.7 248.2,138.9 249.0,140.2 249.8,141.5 250.6,142.7 251.4,143.9 252.2,145.1 253.0,146.3 253.8,147.5 254.6,148.6 255.4,149.8 256.2,150.9 257.0,152.0" fill="none" stroke="#4a90d9" stroke-width="1.2" stroke-linejoin="round"/>
  <line x1="322" y1="12.0" x2="527" y2="12.0" stroke="#e5e7eb" stroke-width="0.5"/>
  <text x="318" y="15.0" text-anchor="end" font-size="7.5" fill="#6b7280">0</text>
  <line x1="322" y1="58.7" x2="527" y2="58.7" stroke="#e5e7eb" stroke-width="0.5"/>
  <text x="318" y="61.7" text-anchor="end" font-size="7.5" fill="#6b7280">-40</text>
  <line x1="322" y1="105.3" x2="527" y2="105.3" stroke="#e5e7eb" stroke-width="0.5"/>
  <text x="318" y="108.3" text-anchor="end" font-size="7.5" fill="#6b7280">-80</text>
  <line x1="322" y1="152.0" x2="527" y2="152.0" stroke="#e5e7eb" stroke-width="0.5"/>
  <text x="318" y="155.0" text-anchor="end" font-size="7.5" fill="#6b7280">-120</text>
  <line x1="322.0" y1="12" x2="322.0" y2="152" stroke="#e5e7eb" stroke-width="0.5"/>
  <text x="322.0" y="164" text-anchor="middle" font-size="7.5" fill="#6b7280">0</text>
  <line x1="363.0" y1="12" x2="363.0" y2="152" stroke="#e5e7eb" stroke-width="0.5"/>
  <text x="363.0" y="164" text-anchor="middle" font-size="7.5" fill="#6b7280">0.1</text>
  <line x1="404.0" y1="12" x2="404.0" y2="152" stroke="#e5e7eb" stroke-width="0.5"/>
  <text x="404.0" y="164" text-anchor="middle" font-size="7.5" fill="#6b7280">0.2</text>
  <line x1="445.0" y1="12" x2="445.0" y2="152" stroke="#e5e7eb" stroke-width="0.5"/>
  <text x="445.0" y="164" text-anchor="middle" font-size="7.5" fill="#6b7280">0.3</text>
  <line x1="486.0" y1="12" x2="486.0" y2="152" stroke="#e5e7eb" stroke-width="0.5"/>
  <text x="486.0" y="164" text-anchor="middle" font-size="7.5" fill="#6b7280">0.4</text>
  <line x1="527.0" y1="12" x2="527.0" y2="152" stroke="#e5e7eb" stroke-width="0.5"/>
  <text x="527.0" y="164" text-anchor="middle" font-size="7.5" fill="#6b7280">0.5</text>
  <line x1="322" y1="12" x2="322" y2="152" stroke="#d1d5db" stroke-width="0.75"/>
  <line x1="322" y1="152" x2="527" y2="152" stroke="#d1d5db" stroke-width="0.75"/>
  <polyline points="322.0,12.0 322.1,12.0 322.2,12.1 322.3,12.3 322.4,12.5 322.5,12.8 322.6,13.2 322.7,13.7 322.8,14.2 322.9,14.8 323.0,15.5 323.1,16.2 323.2,17.1 323.3,18.1 323.4,19.1 323.5,20.3 323.6,21.6 323.7,23.1 323.8,24.7 323.9,26.6 324.0,28.7 324.1,31.1 324.2,33.9 324.3,37.4 324.4,41.9 324.5,48.5 324.6,63.9 324.7,57.3 324.8,49.3 324.9,45.9 325.0,44.0 325.1,43.1 325.2,42.8 325.3,43.0 325.4,43.6 325.5,44.6 325.6,46.0 325.7,47.9 325.8,50.5 325.9,54.2 326.0,59.7 326.1,71.7 326.2,71.0 326.3,61.0 326.4,56.7 326.5,54.2 326.6,52.8 326.7,52.0 326.8,51.7 326.9,51.8 327.0,52.3 327.1,53.2 327.2,54.6 327.3,56.6 327.4,59.2 327.5,63.1 327.6,69.6 327.7,90.4 327.8,73.5 327.9,66.1 328.0,62.4 328.1,60.2 328.2,58.8 328.3,58.0 328.4,57.7 328.5,57.8 328.6,58.3 328.7,59.2 328.8,60.6 328.9,62.5 329.0,65.2 329.1,69.3 329.2,76.4 329.3,127.1 329.4,77.1 329.5,70.5 329.6,67.0 329.7,64.8 329.8,63.4 329.9,62.6 330.0,62.3 330.1,62.4 330.2,62.8 330.3,63.7 330.4,65.1 330.5,67.0 330.6,69.7 330.7,73.9 330.8,81.3 330.9,108.8 331.0,80.5 331.1,74.2 331.2,70.8 331.3,68.6 331.4,67.2 331.5,66.4 331.6,66.1 331.7,66.1 331.8,66.5 331.9,67.4 332.0,68.7 332.1,70.6 332.2,73.4 332.3,77.5 332.4,85.1 332.5,108.4 332.6,83.6 332.7,77.4 332.8,74.0 332.9,71.8 333.0,70.4 333.1,69.6 333.2,69.2 333.3,69.2 333.4,69.7 333.5,70.5 333.6,71.8 333.7,73.7 333.8,76.4 333.9,80.5 334.0,88.0 334.1,110.9 334.2,86.4 334.3,80.3 334.4,76.8 334.5,74.6 334.6,73.2 334.7,72.3 334.8,71.9 334.9,71.9 335.0,72.3 335.1,73.1 335.2,74.4 335.3,76.3 335.4,78.9 335.5,83.0 335.6,90.5 335.7,114.7 335.8,89.1 335.9,82.8 336.0,79.3 336.1,77.1 336.2,75.7 336.3,74.8 336.4,74.3 336.5,74.3 336.6,74.7 336.7,75.5 336.8,76.7 336.9,78.5 337.0,81.2 337.1,85.2 337.2,92.5 337.3,120.0 337.4,91.5 337.5,85.1 337.6,81.6 337.7,79.3 337.8,77.9 337.9,77.0 338.0,76.5 338.1,76.4 338.2,76.8 338.3,77.5 338.4,78.7 338.5,80.5 338.6,83.1 338.7,87.1 338.8,94.2 338.9,128.6 339.0,93.8 339.1,87.3 339.2,83.7 339.3,81.4 339.4,79.9 339.5,78.9 339.6,78.4 339.7,78.4 339.8,78.7 339.9,79.4 340.0,80.6 340.1,82.3 340.2,84.9 340.3,88.8 340.4,95.7 340.5,152.0 340.6,96.0 340.7,89.2 340.8,85.6 340.9,83.2 341.0,81.7 341.1,80.7 341.2,80.2 341.3,80.1 341.4,80.4 341.5,81.1 341.6,82.3 341.7,84.0 341.8,86.5 341.9,90.3 342.0,97.0 342.1,129.4 342.2,98.1 342.3,91.1 342.4,87.3 342.5,85.0 342.6,83.4 342.7,82.4 342.8,81.8 342.9,81.7 343.0,82.0 343.1,82.7 343.2,83.8 343.3,85.5 343.4,87.9 343.5,91.7 343.6,98.2 343.7,123.9 343.8,100.1 343.9,92.9 344.0,89.0 344.1,86.6 344.2,84.9 344.3,83.9 344.4,83.4 344.5,83.2 344.6,83.5 344.7,84.1 344.8,85.2 344.9,86.8 345.0,89.3 345.1,92.9 345.2,99.2 345.3,121.0 345.4,102.0 345.5,94.5 345.6,90.6 345.7,88.1 345.8,86.4 345.9,85.4 346.0,84.8 346.1,84.6 346.2,84.8 346.3,85.4 346.4,86.5 346.5,88.1 346.6,90.5 346.7,94.0 346.8,100.1 346.9,119.2 347.0,103.9 347.1,96.1 347.2,92.0 347.3,89.5 347.4,87.8 347.5,86.7 347.6,86.1 347.7,85.9 347.8,86.1 347.9,86.7 348.0,87.7 348.1,89.3 348.2,91.6 348.3,95.1 348.4,100.9 348.5,117.9 348.6,105.8 348.7,97.6 348.8,93.4 348.9,90.8 349.0,89.1 349.1,88.0 349.2,87.3 349.3,87.1 349.4,87.3 349.5,87.8 349.6,88.8 349.7,90.4 349.8,92.6 349.9,96.0 350.0,101.7 350.1,117.1 350.2,107.6 350.3,99.0 350.4,94.8 350.5,92.1 350.6,90.3 350.7,89.2 350.8,88.5 350.9,88.2 351.0,88.4 351.1,88.9 351.2,89.9 351.3,91.4 351.4,93.6 351.5,96.9 351.6,102.4 351.7,116.4 351.8,109.5 351.9,100.4 352.0,96.0 352.1,93.3 352.2,91.5 352.3,90.3 352.4,89.6 352.5,89.3 352.6,89.5 352.7,90.0 352.8,90.9 352.9,92.4 353.0,94.5 353.1,97.8 353.2,103.1 353.3,116.0 353.4,111.4 353.5,101.8 353.6,97.3 353.7,94.4 353.8,92.6 353.9,91.4 354.0,90.7 354.1,90.4 354.2,90.5 354.3,90.9 354.4,91.9 354.5,93.3 354.6,95.4 354.7,98.6 354.8,103.7 354.9,115.6 355.0,113.3 355.1,103.1 355.2,98.4 355.3,95.6 355.4,93.7 355.5,92.4 355.6,91.7 355.7,91.3 355.8,91.4 355.9,91.9 356.0,92.8 356.1,94.2 356.3,96.2 356.4,99.3 356.5,104.3 356.6,115.4 356.7,115.3 356.8,104.4 356.9,99.6 357.0,96.6 357.1,94.7 357.2,93.4 357.3,92.6 357.4,92.3 357.5,92.3 357.6,92.7 357.7,93.6 357.8,95.0 357.9,97.0 358.0,100.0 358.1,104.8 358.2,115.2 358.3,117.4 358.4,105.7 358.5,100.7 358.6,97.6 358.7,95.6 358.8,94.3 358.9,93.5 359.0,93.2 359.1,93.2 359.2,93.6 359.3,94.4 359.4,95.8 359.5,97.7 359.6,100.7 359.7,105.3 359.8,115.1 359.9,119.6 360.0,106.9 360.1,101.7 360.2,98.6 360.3,96.6 360.4,95.2 360.5,94.4 360.6,94.0 360.7,94.0 360.8,94.4 360.9,95.2 361.0,96.5 361.1,98.4 361.2,101.3 361.3,105.8 361.4,115.0 361.5,122.0 361.6,108.2 361.7,102.8 361.8,99.6 361.9,97.5 362.0,96.1 362.1,95.2 362.2,94.8 362.3,94.8 362.4,95.2 362.5,95.9 362.6,97.2 362.7,99.1 362.8,101.9 362.9,106.3 363.0,115.0 363.1,124.7 363.2,109.4 363.3,103.8 363.4,100.5 363.5,98.4 363.6,96.9 363.7,96.1 363.8,95.6 363.9,95.5 364.0,95.9 364.1,96.6 364.2,97.9 364.3,99.7 364.4,102.4 364.5,106.7 364.6,114.9 364.7,127.8 364.8,110.6 364.9,104.8 365.0,101.4 365.1,99.2 365.2,97.8 365.3,96.8 365.4,96.4 365.5,96.3 365.6,96.6 365.7,97.3 365.8,98.5 365.9,100.3 366.0,103.0 366.1,107.1 366.2,114.9 366.3,131.7 366.4,111.8 366.5,105.7 366.6,102.3 366.7,100.0 366.8,98.5 366.9,97.6 367.0,97.1 367.1,97.0 367.2,97.3 367.3,98.0 367.4,99.1 367.5,100.9 367.6,103.5 367.7,107.5 367.8,115.0 367.9,137.0 368.0,113.0 368.1,106.7 368.2,103.1 368.3,100.8 368.4,99.3 368.5,98.3 368.6,97.8 368.7,97.7 368.8,97.9 368.9,98.6 369.0,99.7 369.1,101.5 369.2,104.0 369.3,107.9 369.4,115.0 369.5,146.3 369.6,114.2 369.7,107.6 369.8,104.0 369.9,101.6 370.0,100.0 370.1,99.0 370.2,98.5 370.3,98.3 370.4,98.6 370.5,99.2 370.6,100.3 370.7,102.0 370.8,104.5 370.9,108.2 371.0,115.0 371.1,152.0 371.2,115.4 371.3,108.6 371.4,104.8 371.5,102.4 371.6,100.7 371.7,99.7 371.8,99.1 371.9,98.9 372.0,99.2 372.1,99.8 372.2,100.9 372.3,102.5 372.4,104.9 372.5,108.6 372.6,115.1 372.7,142.1 372.8,116.7 372.9,109.5 373.0,105.6 373.1,103.1 373.2,101.4 373.3,100.4 373.4,99.8 373.5,99.6 373.6,99.7 373.7,100.3 373.8,101.4 373.9,103.0 374.0,105.3 374.1,108.9 374.2,115.2 374.3,136.8 374.4,117.9 374.5,110.4 374.6,106.4 374.7,103.8 374.8,102.1 374.9,101.0 375.0,100.4 375.1,100.1 375.2,100.3 375.3,100.9 375.4,101.9 375.5,103.5 375.6,105.8 375.7,109.2 375.8,115.2 375.9,133.6 376.0,119.2 376.1,111.2 376.2,107.1 376.3,104.5 376.4,102.8 376.5,101.6 376.6,101.0 376.7,100.7 376.8,100.9 376.9,101.4 377.0,102.4 377.1,103.9 377.2,106.2 377.3,109.5 377.4,115.3 377.5,131.4 377.6,120.5 377.7,112.1 377.8,107.9 377.9,105.2 378.0,103.4 378.1,102.2 378.2,101.5 378.3,101.3 378.4,101.4 378.5,101.9 378.6,102.9 378.7,104.3 378.8,106.5 378.9,109.8 379.0,115.4 379.1,129.8 379.2,121.9 379.3,113.0 379.4,108.6 379.5,105.9 379.6,104.0 379.7,102.8 379.8,102.1 379.9,101.8 380.0,101.9 380.1,102.4 380.2,103.3 380.3,104.8 380.4,106.9 380.5,110.1 380.6,115.5 380.7,128.6 380.8,123.4 380.9,113.9 381.0,109.3 381.1,106.5 381.2,104.6 381.3,103.4 381.4,102.7 381.5,102.3 381.6,102.4 381.7,102.9 381.8,103.8 381.9,105.2 382.0,107.3 382.1,110.4 382.2,115.5 382.3,127.6 382.4,124.9 382.5,114.8 382.6,110.1 382.7,107.2 382.8,105.2 382.9,104.0 383.0,103.2 383.1,102.8 383.2,102.9 383.3,103.3 383.4,104.2 383.5,105.6 383.6,107.6 383.7,110.7 383.8,115.6 383.9,126.8 384.0,126.5 384.1,115.6 384.2,110.8 384.3,107.8 384.4,105.8 384.5,104.5 384.6,103.7 384.7,103.3 384.8,103.4 384.9,103.8 385.0,104.6 385.1,106.0 385.2,108.0 385.3,110.9 385.4,115.7 385.5,126.1 385.6,128.3 385.7,116.5 385.8,111.5 385.9,108.4 386.0,106.4 386.1,105.1 386.2,104.2 386.3,103.8 386.4,103.8 386.5,104.2 386.6,105.0 386.7,106.3 386.8,108.3 386.9,111.2 387.0,115.8 387.1,125.5 387.2,130.2 387.3,117.4 387.4,112.2 387.5,109.0 387.6,107.0 387.7,105.6 387.8,104.7 387.9,104.3 388.0,104.3 388.1,104.6 388.2,105.4 388.3,106.7 388.4,108.6 388.5,111.4 388.6,115.9 388.7,125.0 388.8,132.4 388.9,118.3 389.0,112.9 389.1,109.6 389.2,107.5 389.3,106.1 389.4,105.2 389.5,104.8 389.6,104.7 389.7,105.0 389.8,105.8 389.9,107.0 390.0,108.9 390.1,111.6 390.2,116.0 390.3,124.6 390.4,134.9 390.5,119.2 390.6,113.5 390.7,110.2 390.8,108.1 390.9,106.6 391.0,105.7 391.1,105.2 391.2,105.1 391.3,105.4 391.4,106.2 391.5,107.4 391.6,109.2 391.7,111.9 391.8,116.1 391.9,124.2 392.0,138.0 392.1,120.1 392.2,114.2 392.3,110.8 392.4,108.6 392.5,107.1 392.6,106.2 392.7,105.6 392.8,105.5 392.9,105.8 393.0,106.5 393.1,107.7 393.2,109.5 393.3,112.1 393.4,116.2 393.5,123.9 393.6,142.0 393.7,121.0 393.8,114.9 393.9,111.4 394.0,109.1 394.1,107.6 394.2,106.6 394.3,106.1 394.4,105.9 394.5,106.2 394.6,106.9 394.7,108.0 394.8,109.8 394.9,112.3 395.0,116.3 395.1,123.6 395.2,148.1 395.3,122.0 395.4,115.6 395.5,112.0 395.6,109.6 395.7,108.1 395.8,107.0 395.9,106.5 396.0,106.3 396.1,106.6 396.2,107.2 396.3,108.3 396.4,110.0 396.5,112.5 396.6,116.4 396.7,123.3 396.8,152.0 396.9,123.0 397.0,116.3 397.1,112.5 397.2,110.1 397.3,108.5 397.4,107.5 397.5,106.9 397.6,106.7 397.7,106.9 397.8,107.6 397.9,108.6 398.0,110.3 398.1,112.7 398.2,116.4 398.3,123.1 398.4,152.0 398.5,124.0 398.6,116.9 398.7,113.1 398.8,110.6 398.9,109.0 399.0,107.9 399.1,107.3 399.2,107.1 399.3,107.3 399.4,107.9 399.5,108.9 399.6,110.5 399.7,112.9 399.8,116.5 399.9,122.9 400.0,146.9 400.1,125.0 400.2,117.6 400.3,113.7 400.4,111.1 400.5,109.4 400.6,108.3 400.7,107.7 400.8,107.5 400.9,107.6 401.0,108.2 401.1,109.2 401.2,110.8 401.3,113.1 401.4,116.6 401.5,122.7 401.6,142.6 401.7,126.1 401.8,118.3 401.9,114.2 402.0,111.6 402.1,109.9 402.2,108.7 402.3,108.1 402.4,107.8 402.5,108.0 402.6,108.5 402.7,109.5 402.8,111.0 402.9,113.3 403.0,116.7 403.1,122.6 403.2,139.7 403.3,127.2 403.4,119.0 403.5,114.8 403.6,112.1 403.7,110.3 403.8,109.2 403.9,108.5 404.0,108.2 404.1,108.3 404.2,108.8 404.3,109.8 404.4,111.3 404.5,113.5 404.6,116.8 404.7,122.4 404.8,137.6 404.9,128.3 405.0,119.7 405.1,115.3 405.2,112.6 405.3,110.8 405.4,109.5 405.5,108.8 405.6,108.5 405.7,108.6 405.8,109.1 405.9,110.0 406.0,111.5 406.1,113.6 406.2,116.9 406.3,122.3 406.4,135.9 406.5,129.6 406.6,120.3 406.7,115.8 406.8,113.0 406.9,111.2 407.0,109.9 407.1,109.2 407.2,108.9 407.3,108.9 407.4,109.4 407.5,110.3 407.6,111.7 407.7,113.8 407.8,117.0 407.9,122.2 408.0,134.6 408.1,130.9 408.2,121.0 408.3,116.4 408.4,113.5 408.5,111.6 408.6,110.3 408.7,109.5 408.8,109.2 408.9,109.2 409.0,109.7 409.1,110.6 409.2,111.9 409.3,114.0 409.4,117.0 409.5,122.1 409.6,133.5 409.7,132.3 409.8,121.7 409.9,116.9 410.0,114.0 410.1,112.0 410.2,110.7 410.3,109.9 410.4,109.5 410.5,109.5 410.6,110.0 410.7,110.8 410.8,112.1 410.9,114.1 411.0,117.1 411.1,122.0 411.2,132.6 411.3,133.9 411.4,122.4 411.5,117.5 411.6,114.4 411.7,112.4 411.8,111.1 411.9,110.2 412.0,109.8 412.1,109.8 412.2,110.2 412.3,111.0 412.4,112.3 412.5,114.3 412.6,117.2 412.7,121.9 412.8,131.8 412.9,135.6 413.0,123.2 413.1,118.0 413.2,114.9 413.3,112.8 413.4,111.4 413.5,110.6 413.6,110.2 413.7,110.1 413.8,110.5 413.9,111.3 414.0,112.5 414.1,114.5 414.2,117.3 414.3,121.8 414.4,131.1 414.5,137.6 414.6,123.9 414.7,118.5 414.8,115.3 414.9,113.2 415.0,111.8 415.1,110.9 415.2,110.5 415.3,110.4 415.4,110.7 415.5,111.5 415.6,112.7 415.7,114.6 415.8,117.4 415.9,121.7 416.0,130.5 416.1,139.8 416.2,124.7 416.3,119.1 416.4,115.8 416.5,113.6 416.6,112.2 416.7,111.2 416.8,110.8 416.9,110.7 417.0,111.0 417.1,111.7 417.2,112.9 417.3,114.7 417.4,117.4 417.5,121.7 417.6,129.9 417.7,142.6 417.8,125.4 417.9,119.6 418.0,116.2 418.1,114.0 418.2,112.5 418.3,111.6 418.4,111.1 418.5,111.0 418.6,111.2 418.7,111.9 418.8,113.1 418.9,114.9 419.0,117.5 419.1,121.6 419.2,129.4 419.3,146.2 419.4,126.2 419.5,120.1 419.6,116.7 419.7,114.4 419.8,112.9 419.9,111.9 420.0,111.3 420.1,111.2 420.2,111.5 420.3,112.2 420.4,113.3 420.5,115.0 420.6,117.6 420.7,121.6 420.8,129.0 420.9,151.3 421.0,127.0 421.1,120.7 421.2,117.1 421.3,114.8 421.4,113.2 421.5,112.2 421.6,111.6 421.7,111.5 421.8,111.7 421.9,112.4 422.0,113.5 422.1,115.2 422.2,117.7 422.3,121.5 422.4,128.6 422.5,152.0 422.6,127.9 422.7,121.2 422.8,117.5 422.9,115.1 423.0,113.5 423.1,112.5 423.2,111.9 423.3,111.7 423.4,111.9 423.5,112.6 423.6,113.6 423.7,115.3 423.8,117.7 423.9,121.5 424.0,128.2 424.1,152.0 424.2,128.7 424.3,121.8 424.4,118.0 424.6,115.5 424.7,113.9 424.8,112.8 424.9,112.2 425.0,112.0 425.1,112.2 425.2,112.8 425.3,113.8 425.4,115.4 425.5,117.8 425.6,121.4 425.7,127.9 425.8,152.0 425.9,129.6 426.0,122.3 426.1,118.4 426.2,115.9 426.3,114.2 426.4,113.1 426.5,112.5 426.6,112.2 426.7,112.4 426.8,113.0 426.9,114.0 427.0,115.5 427.1,117.9 427.2,121.4 427.3,127.6 427.4,148.2 427.5,130.6 427.6,122.9 427.7,118.8 427.8,116.3 427.9,114.5 428.0,113.4 428.1,112.7 428.2,112.5 428.3,112.6 428.4,113.2 428.5,114.1 428.6,115.7 428.7,117.9 428.8,121.4 428.9,127.3 429.0,144.9 429.1,131.6 429.2,123.5 429.3,119.3 429.4,116.6 429.5,114.8 429.6,113.7 429.7,113.0 429.8,112.7 429.9,112.8 430.0,113.3 430.1,114.3 430.2,115.8 430.3,118.0 430.4,121.3 430.5,127.0 430.6,142.6 430.7,132.6 430.8,124.0 430.9,119.7 431.0,117.0 431.1,115.2 431.2,114.0 431.3,113.2 431.4,112.9 431.5,113.0 431.6,113.5 431.7,114.5 431.8,115.9 431.9,118.1 432.0,121.3 432.1,126.8 432.2,140.7 432.3,133.7 432.4,124.6 432.5,120.1 432.6,117.3 432.7,115.5 432.8,114.2 432.9,113.5 433.0,113.2 433.1,113.2 433.2,113.7 433.3,114.6 433.4,116.0 433.5,118.1 433.6,121.3 433.7,126.5 433.8,139.2 433.9,134.9 434.0,125.2 434.1,120.6 434.2,117.7 434.3,115.8 434.4,114.5 434.5,113.8 434.6,113.4 434.7,113.4 434.8,113.9 434.9,114.7 435.0,116.1 435.1,118.2 435.2,121.3 435.3,126.3 435.4,137.9 435.5,136.2 435.6,125.8 435.7,121.0 435.8,118.1 435.9,116.1 436.0,114.8 436.1,114.0 436.2,113.6 436.3,113.6 436.4,114.1 436.5,114.9 436.6,116.2 436.7,118.2 436.8,121.2 436.9,126.1 437.0,136.9 437.1,137.7 437.2,126.4 437.3,121.4 437.4,118.4 437.5,116.4 437.6,115.1 437.7,114.2 437.8,113.8 437.9,113.8 438.0,114.2 438.1,115.0 438.2,116.3 438.3,118.3 438.4,121.2 438.5,125.9 438.6,135.9 438.7,139.3 438.8,127.0 438.9,121.9 439.0,118.8 439.1,116.7 439.2,115.3 439.3,114.5 439.4,114.1 439.5,114.0 439.6,114.4 439.7,115.2 439.8,116.4 439.9,118.3 440.0,121.2 440.1,125.7 440.2,135.1 440.3,141.1 440.4,127.7 440.5,122.3 440.6,119.1 440.7,117.0 440.8,115.6 440.9,114.7 441.0,114.3 441.1,114.2 441.2,114.5 441.3,115.3 441.4,116.5 441.5,118.4 441.6,121.2 441.7,125.6 441.8,134.4 441.9,143.2 442.0,128.3 442.1,122.8 442.2,119.5 442.3,117.3 442.4,115.9 442.5,115.0 442.6,114.5 442.7,114.4 442.8,114.7 442.9,115.4 443.0,116.6 443.1,118.5 443.2,121.2 443.3,125.4 443.4,133.7 443.5,145.8 443.6,129.0 443.7,123.2 443.8,119.8 443.9,117.6 444.0,116.1 444.1,115.2 444.2,114.7 444.3,114.6 444.4,114.9 444.5,115.6 444.6,116.7 444.7,118.5 444.8,121.1 444.9,125.3 445.0,133.1 445.1,149.1 445.2,129.7 445.3,123.7 445.4,120.2 445.5,117.9 445.6,116.4 445.7,115.4 445.8,114.9 445.9,114.7 446.0,115.0 446.1,115.7 446.2,116.8 446.3,118.6 446.4,121.1 446.5,125.1 446.6,132.6 446.7,152.0 446.8,130.4 446.9,124.1 447.0,120.5 447.1,118.2 447.2,116.6 447.3,115.6 447.4,115.1 447.5,114.9 447.6,115.2 447.7,115.8 447.8,116.9 447.9,118.6 448.0,121.1 448.1,125.0 448.2,132.1 448.3,152.0 448.4,131.2 448.5,124.6 448.6,120.9 448.7,118.5 448.8,116.9 448.9,115.9 449.0,115.3 449.1,115.1 449.2,115.3 449.3,115.9 449.4,117.0 449.5,118.6 449.6,121.1 449.7,124.9 449.8,131.6 449.9,152.0 450.0,131.9 450.1,125.0 450.2,121.2 450.3,118.8 450.4,117.1 450.5,116.1 450.6,115.5 450.7,115.3 450.8,115.4 450.9,116.0 451.0,117.1 451.1,118.7 451.2,121.1 451.3,124.7 451.4,131.2 451.5,152.0 451.6,132.8 451.7,125.5 451.8,121.6 451.9,119.1 452.0,117.4 452.1,116.3 452.2,115.7 452.3,115.4 452.4,115.6 452.5,116.2 452.6,117.2 452.7,118.7 452.8,121.1 452.9,124.6 453.0,130.8 453.1,152.0 453.2,133.6 453.3,126.0 453.4,122.0 453.5,119.4 453.6,117.6 453.7,116.5 453.8,115.8 453.9,115.6 454.0,115.7 454.1,116.3 454.2,117.2 454.3,118.8 454.4,121.0 454.5,124.5 454.6,130.4 454.7,148.4 454.8,134.5 454.9,126.5 455.0,122.3 455.1,119.7 455.2,117.9 455.3,116.7 455.4,116.0 455.5,115.7 455.6,115.9 455.7,116.4 455.8,117.3 455.9,118.8 456.0,121.0 456.1,124.4 456.2,130.1 456.3,145.9 456.4,135.5 456.5,127.0 456.6,122.7 456.7,119.9 456.8,118.1 456.9,116.9 457.0,116.2 457.1,115.9 457.2,116.0 457.3,116.5 457.4,117.4 457.5,118.9 457.6,121.0 457.7,124.3 457.8,129.7 457.9,143.9 458.0,136.5 458.1,127.5 458.2,123.0 458.3,120.2 458.4,118.4 458.5,117.1 458.6,116.4 458.7,116.1 458.8,116.1 458.9,116.6 459.0,117.5 459.1,118.9 459.2,121.0 459.3,124.2 459.4,129.4 459.5,142.3 459.6,137.6 459.7,128.0 459.8,123.4 459.9,120.5 460.0,118.6 460.1,117.3 460.2,116.6 460.3,116.2 460.4,116.2 460.5,116.7 460.6,117.5 460.7,118.9 460.8,121.0 460.9,124.1 461.0,129.1 461.1,140.9 461.2,138.9 461.3,128.5 461.4,123.7 461.5,120.8 461.6,118.8 461.7,117.5 461.8,116.7 461.9,116.4 462.0,116.4 462.1,116.8 462.2,117.6 462.3,119.0 462.4,121.0 462.5,124.0 462.6,128.9 462.7,139.7 462.8,140.2 462.9,129.0 463.0,124.1 463.1,121.1 463.2,119.1 463.3,117.7 463.4,116.9 463.5,116.5 463.6,116.5 463.7,116.9 463.8,117.7 463.9,119.0 464.0,121.0 464.1,123.9 464.2,128.6 464.3,138.7 464.4,141.7 464.5,129.6 464.6,124.5 464.7,121.4 464.8,119.3 464.9,117.9 465.0,117.1 465.1,116.6 465.2,116.6 465.3,117.0 465.4,117.8 465.5,119.0 465.6,120.9 465.7,123.8 465.8,128.3 465.9,137.8 466.0,143.4 466.1,130.2 466.2,124.8 466.3,121.7 466.4,119.5 466.5,118.1 466.6,117.2 466.7,116.8 466.8,116.7 466.9,117.1 467.0,117.8 467.1,119.1 467.2,120.9 467.3,123.7 467.4,128.1 467.5,137.0 467.6,145.4 467.7,130.7 467.8,125.2 467.9,121.9 468.0,119.8 468.1,118.3 468.2,117.4 468.3,116.9 468.4,116.8 468.5,117.2 468.6,117.9 468.7,119.1 468.8,120.9 468.9,123.6 469.0,127.9 469.1,136.2 469.2,147.9 469.3,131.4 469.4,125.6 469.5,122.2 469.6,120.0 469.7,118.5 469.8,117.6 469.9,117.1 470.0,117.0 470.1,117.2 470.2,117.9 470.3,119.1 470.4,120.9 470.5,123.5 470.6,127.7 470.7,135.6 470.8,151.1 470.9,132.0 471.0,126.0 471.1,122.5 471.2,120.2 471.3,118.7 471.4,117.7 471.5,117.2 471.6,117.1 471.7,117.3 471.8,118.0 471.9,119.1 472.0,120.9 472.1,123.4 472.2,127.4 472.3,134.9 472.4,152.0 472.5,132.6 472.6,126.4 472.7,122.8 472.8,120.5 472.9,118.9 473.0,117.9 473.1,117.3 473.2,117.2 473.3,117.4 473.4,118.1 473.5,119.2 473.6,120.8 473.7,123.4 473.8,127.2 473.9,134.4 474.0,152.0 474.1,133.3 474.2,126.8 474.3,123.1 474.4,120.7 474.5,119.1 474.6,118.0 474.7,117.5 474.8,117.3 474.9,117.5 475.0,118.1 475.1,119.2 475.2,120.8 475.3,123.3 475.4,127.0 475.5,133.8 475.6,152.0 475.7,134.0 475.8,127.2 475.9,123.4 476.0,120.9 476.1,119.3 476.2,118.2 476.3,117.6 476.4,117.4 476.5,117.6 476.6,118.2 476.7,119.2 476.8,120.8 476.9,123.2 477.0,126.9 477.1,133.3 477.2,152.0 477.3,134.8 477.4,127.6 477.5,123.7 477.6,121.1 477.7,119.5 477.8,118.4 477.9,117.7 478.0,117.5 478.1,117.6 478.2,118.2 478.3,119.2 478.4,120.8 478.5,123.1 478.6,126.7 478.7,132.9 478.8,152.0 478.9,135.6 479.0,128.0 479.1,123.9 479.2,121.4 479.3,119.6 479.4,118.5 479.5,117.8 479.6,117.6 479.7,117.7 479.8,118.3 479.9,119.2 480.0,120.8 480.1,123.0 480.2,126.5 480.3,132.4 480.4,150.7 480.5,136.4 480.6,128.4 480.7,124.2 480.8,121.6 480.9,119.8 481.0,118.7 481.1,118.0 481.2,117.7 481.3,117.8 481.4,118.3 481.5,119.3 481.6,120.7 481.7,123.0 481.8,126.3 481.9,132.0 482.0,148.0 482.1,137.3 482.2,128.8 482.3,124.5 482.4,121.8 482.5,120.0 482.6,118.8 482.7,118.1 482.8,117.8 482.9,117.9 483.0,118.4 483.1,119.3 483.2,120.7 483.3,122.9 483.4,126.2 483.5,131.6 483.6,145.9 483.7,138.3 483.8,129.3 483.9,124.8 484.0,122.0 484.1,120.2 484.2,118.9 484.3,118.2 484.4,117.9 484.5,117.9 484.6,118.4 484.7,119.3 484.8,120.7 484.9,122.8 485.0,126.0 485.1,131.3 485.2,144.2 485.3,139.3 485.4,129.7 485.5,125.1 485.6,122.3 485.7,120.4 485.8,119.1 485.9,118.3 486.0,118.0 486.1,118.0 486.2,118.4 486.3,119.3 486.4,120.7 486.5,122.7 486.6,125.8 486.7,130.9 486.8,142.7 486.9,140.5 487.0,130.2 487.1,125.4 487.2,122.5 487.3,120.5 487.4,119.2 487.5,118.4 487.6,118.1 487.7,118.1 487.8,118.5 487.9,119.3 488.0,120.7 488.1,122.7 488.2,125.7 488.3,130.6 488.4,141.5 488.5,141.8 488.6,130.7 488.7,125.7 488.8,122.7 488.9,120.7 489.0,119.4 489.1,118.5 489.2,118.1 489.3,118.1 489.4,118.5 489.5,119.3 489.6,120.6 489.7,122.6 489.8,125.5 489.9,130.3 490.0,140.4 490.1,143.2 490.2,131.2 490.3,126.1 490.4,123.0 490.5,120.9 490.6,119.5 490.7,118.7 490.8,118.2 490.9,118.2 491.0,118.6 491.1,119.3 491.2,120.6 491.3,122.5 491.4,125.4 491.5,129.9 491.6,139.4 491.7,144.8 491.8,131.7 491.9,126.4 492.0,123.2 492.1,121.1 492.2,119.7 492.3,118.8 492.4,118.3 492.5,118.3 492.6,118.6 492.7,119.3 492.9,120.6 493.0,122.4 493.1,125.2 493.2,129.6 493.3,138.5 493.4,146.8 493.5,132.2 493.6,126.7 493.7,123.4 493.8,121.2 493.9,119.8 494.0,118.9 494.1,118.4 494.2,118.3 494.3,118.6 494.4,119.3 494.5,120.5 494.6,122.4 494.7,125.1 494.8,129.4 494.9,137.7 495.0,149.1 495.1,132.7 495.2,127.0 495.3,123.6 495.4,121.4 495.5,119.9 495.6,119.0 495.7,118.5 495.8,118.4 495.9,118.7 496.0,119.3 496.1,120.5 496.2,122.3 496.3,124.9 496.4,129.1 496.5,137.0 496.6,152.0 496.7,133.3 496.8,127.3 496.9,123.9 497.0,121.6 497.1,120.1 497.2,119.1 497.3,118.6 497.4,118.4 497.5,118.7 497.6,119.4 497.7,120.5 497.8,122.2 497.9,124.8 498.0,128.8 498.1,136.3 498.2,152.0 498.3,133.9 498.4,127.7 498.5,124.1 498.6,121.8 498.7,120.2 498.8,119.2 498.9,118.6 499.0,118.5 499.1,118.7 499.2,119.4 499.3,120.5 499.4,122.1 499.5,124.7 499.6,128.6 499.7,135.7 499.8,152.0 499.9,134.5 500.0,128.0 500.1,124.3 500.2,121.9 500.3,120.3 500.4,119.3 500.5,118.7 500.6,118.5 500.7,118.7 500.8,119.4 500.9,120.4 501.0,122.1 501.1,124.5 501.2,128.3 501.3,135.1 501.4,152.0 501.5,135.2 501.6,128.3 501.7,124.6 501.8,122.1 501.9,120.5 502.0,119.4 502.1,118.8 502.2,118.6 502.3,118.8 502.4,119.4 502.5,120.4 502.6,122.0 502.7,124.4 502.8,128.1 502.9,134.6 503.0,152.0 503.1,135.9 503.2,128.7 503.3,124.8 503.4,122.3 503.5,120.6 503.6,119.5 503.7,118.9 503.8,118.6 503.9,118.8 504.0,119.3 504.1,120.4 504.2,121.9 504.3,124.3 504.4,127.8 504.5,134.0 504.6,152.0 504.7,136.6 504.8,129.1 504.9,125.0 505.0,122.5 505.1,120.7 505.2,119.6 505.3,118.9 505.4,118.7 505.5,118.8 505.6,119.3 505.7,120.3 505.8,121.9 505.9,124.1 506.0,127.6 506.1,133.5 506.2,152.0 506.3,137.4 506.4,129.4 506.5,125.3 506.6,122.6 506.7,120.9 506.8,119.7 506.9,119.0 507.0,118.7 507.1,118.8 507.2,119.3 507.3,120.3 507.4,121.8 507.5,124.0 507.6,127.4 507.7,133.1 507.8,149.2 507.9,138.3 508.0,129.8 508.1,125.5 508.2,122.8 508.3,121.0 508.4,119.8 508.5,119.1 508.6,118.8 508.7,118.8 508.8,119.3 508.9,120.3 509.0,121.7 509.1,123.9 509.2,127.1 509.3,132.6 509.4,147.0 509.5,139.2 509.6,130.2 509.7,125.8 509.8,123.0 509.9,121.1 510.0,119.9 510.1,119.1 510.2,118.8 510.3,118.9 510.4,119.3 510.5,120.2 510.6,121.6 510.7,123.7 510.8,126.9 510.9,132.2 511.0,145.2 511.1,140.2 511.2,130.6 511.3,126.0 511.4,123.2 511.5,121.2 511.6,120.0 511.7,119.2 511.8,118.8 511.9,118.9 512.0,119.3 512.1,120.2 512.2,121.6 512.3,123.6 512.4,126.7 512.5,131.8 512.6,143.7 512.7,141.3 512.8,131.0 512.9,126.3 513.0,123.3 513.1,121.4 513.2,120.1 513.3,119.3 513.4,118.9 513.5,118.9 513.6,119.3 513.7,120.1 513.8,121.5 513.9,123.5 514.0,126.5 514.1,131.4 514.2,142.4 514.3,142.5 514.4,131.4 514.5,126.5 514.6,123.5 514.7,121.5 514.8,120.2 514.9,119.3 515.0,118.9 515.1,118.9 515.2,119.3 515.3,120.1 515.4,121.4 515.5,123.4 515.6,126.3 515.7,131.0 515.8,141.2 515.9,143.8 516.0,131.9 516.1,126.8 516.2,123.7 516.3,121.6 516.4,120.2 516.5,119.4 516.6,119.0 516.7,118.9 516.8,119.3 516.9,120.1 517.0,121.3 517.1,123.2 517.2,126.1 517.3,130.7 517.4,140.2 517.5,145.4 517.6,132.3 517.7,127.0 517.8,123.9 517.9,121.7 518.0,120.3 518.1,119.4 518.2,119.0 518.3,118.9 518.4,119.3 518.5,120.0 518.6,121.2 518.7,123.1 518.8,125.9 518.9,130.3 519.0,139.3 519.1,147.3 519.2,132.8 519.3,127.3 519.4,124.0 519.5,121.9 519.6,120.4 519.7,119.5 519.8,119.0 519.9,118.9 520.0,119.2 520.1,120.0 520.2,121.2 520.3,123.0 520.4,125.7 520.5,130.0 520.6,138.4 520.7,149.6 520.8,133.3 520.9,127.6 521.0,124.2 521.1,122.0 521.2,120.5 521.3,119.6 521.4,119.0 521.5,118.9 521.6,119.2 521.7,119.9 521.8,121.1 521.9,122.9 522.0,125.5 522.1,129.7 522.2,137.6 522.3,152.0 522.4,133.8 522.5,127.9 522.6,124.4 522.7,122.1 522.8,120.6 522.9,119.6 523.0,119.1 523.1,118.9 523.2,119.2 523.3,119.9 523.4,121.0 523.5,122.7 523.6,125.3 523.7,129.3 523.8,136.9 523.9,152.0 524.0,134.4 524.1,128.1 524.2,124.6 524.3,122.2 524.4,120.7 524.5,119.7 524.6,119.1 524.7,118.9 524.8,119.2 524.9,119.8 525.0,120.9 525.1,122.6 525.2,125.1 525.3,129.0 525.4,136.2 525.5,152.0 525.6,134.9 525.7,128.4 525.8,124.8 525.9,122.4 526.0,120.8 526.1,119.7 526.2,119.1 526.3,118.9 526.4,119.2 526.5,119.8 526.6,120.8 526.7,122.5 526.8,124.9 526.9,128.7 527.0,135.5" fill="none" stroke="#4a90d9" stroke-width="1.2" stroke-linejoin="round"/>
  <text x="154.5" y="176" text-anchor="middle" font-size="8" fill="#6b7280">n / N</text>
  <text x="424.5" y="176" text-anchor="middle" font-size="8" fill="#6b7280">Normalized frequency (× Fₛ)</text>
</svg>
