<svg xmlns="http://www.w3.org/2000/svg" viewBox="0 0 560 210" width="560" height="210" style="font-family:system-ui,-apple-system,sans-serif">
  <rect width="560" height="210" fill="#fafafa" rx="6"/>
  <text x="280" y="18" text-anchor="middle" font-size="12" font-weight="600" fill="#374151">nuttall</text>
  <line x1="52" y1="166.0" x2="257" y2="166.0" stroke="#e5e7eb" stroke-width="0.5"/>
  <text x="48" y="169.0" text-anchor="end" font-size="7.5" fill="#6b7280">0</text>
  <line x1="52" y1="97.0" x2="257" y2="97.0" stroke="#e5e7eb" stroke-width="0.5"/>
  <text x="48" y="100.0" text-anchor="end" font-size="7.5" fill="#6b7280">0.5</text>
  <line x1="52" y1="28.0" x2="257" y2="28.0" stroke="#e5e7eb" stroke-width="0.5"/>
  <text x="48" y="31.0" text-anchor="end" font-size="7.5" fill="#6b7280">1</text>
  <line x1="52.0" y1="28" x2="52.0" y2="166" stroke="#e5e7eb" stroke-width="0.5"/>
  <text x="52.0" y="178" text-anchor="middle" font-size="7.5" fill="#6b7280">0</text>
  <line x1="154.5" y1="28" x2="154.5" y2="166" stroke="#e5e7eb" stroke-width="0.5"/>
  <text x="154.5" y="178" text-anchor="middle" font-size="7.5" fill="#6b7280">0.5</text>
  <line x1="257.0" y1="28" x2="257.0" y2="166" stroke="#e5e7eb" stroke-width="0.5"/>
  <text x="257.0" y="178" text-anchor="middle" font-size="7.5" fill="#6b7280">1</text>
  <line x1="52" y1="28" x2="52" y2="166" stroke="#d1d5db" stroke-width="0.75"/>
  <line x1="52" y1="166" x2="257" y2="166" stroke="#d1d5db" stroke-width="0.75"/>
  <path d="M52.0,166.0 52.0,166.0 52.8,166.0 53.6,166.0 54.4,166.0 55.2,166.0 56.0,166.0 56.8,166.0 57.6,165.9 58.4,165.9 59.2,165.9 60.0,165.9 60.8,165.9 61.6,165.8 62.5,165.8 63.3,165.7 64.1,165.7 64.9,165.6 65.7,165.6 66.5,165.5 67.3,165.4 68.1,165.3 68.9,165.2 69.7,165.1 70.5,165.0 71.3,164.9 72.1,164.7 72.9,164.5 73.7,164.4 74.5,164.2 75.3,164.0 76.1,163.7 76.9,163.5 77.7,163.2 78.5,162.9 79.3,162.6 80.1,162.2 80.9,161.9 81.7,161.5 82.5,161.0 83.4,160.6 84.2,160.1 85.0,159.6 85.8,159.0 86.6,158.4 87.4,157.8 88.2,157.2 89.0,156.5 89.8,155.7 90.6,155.0 91.4,154.1 92.2,153.3 93.0,152.4 93.8,151.4 94.6,150.4 95.4,149.4 96.2,148.3 97.0,147.2 97.8,146.0 98.6,144.8 99.4,143.5 100.2,142.2 101.0,140.8 101.8,139.4 102.6,137.9 103.5,136.4 104.3,134.9 105.1,133.2 105.9,131.6 106.7,129.9 107.5,128.1 108.3,126.3 109.1,124.5 109.9,122.6 110.7,120.7 111.5,118.7 112.3,116.7 113.1,114.7 113.9,112.6 114.7,110.5 115.5,108.3 116.3,106.2 117.1,104.0 117.9,101.7 118.7,99.5 119.5,97.2 120.3,95.0 121.1,92.7 121.9,90.4 122.7,88.1 123.5,85.8 124.4,83.4 125.2,81.1 126.0,78.8 126.8,76.5 127.6,74.2 128.4,72.0 129.2,69.7 130.0,67.5 130.8,65.3 131.6,63.2 132.4,61.0 133.2,58.9 134.0,56.9 134.8,54.9 135.6,52.9 136.4,51.0 137.2,49.2 138.0,47.4 138.8,45.6 139.6,44.0 140.4,42.4 141.2,40.8 142.0,39.4 142.8,38.0 143.6,36.7 144.5,35.5 145.3,34.4 146.1,33.3 146.9,32.4 147.7,31.5 148.5,30.7 149.3,30.1 150.1,29.5 150.9,29.0 151.7,28.6 152.5,28.3 153.3,28.1 154.1,28.0 154.9,28.0 155.7,28.1 156.5,28.3 157.3,28.6 158.1,29.0 158.9,29.5 159.7,30.1 160.5,30.7 161.3,31.5 162.1,32.4 162.9,33.3 163.7,34.4 164.5,35.5 165.4,36.7 166.2,38.0 167.0,39.4 167.8,40.8 168.6,42.4 169.4,44.0 170.2,45.6 171.0,47.4 171.8,49.2 172.6,51.0 173.4,52.9 174.2,54.9 175.0,56.9 175.8,58.9 176.6,61.0 177.4,63.2 178.2,65.3 179.0,67.5 179.8,69.7 180.6,72.0 181.4,74.2 182.2,76.5 183.0,78.8 183.8,81.1 184.6,83.4 185.5,85.8 186.3,88.1 187.1,90.4 187.9,92.7 188.7,95.0 189.5,97.2 190.3,99.5 191.1,101.7 191.9,104.0 192.7,106.2 193.5,108.3 194.3,110.5 195.1,112.6 195.9,114.7 196.7,116.7 197.5,118.7 198.3,120.7 199.1,122.6 199.9,124.5 200.7,126.3 201.5,128.1 202.3,129.9 203.1,131.6 203.9,133.2 204.7,134.9 205.5,136.4 206.4,137.9 207.2,139.4 208.0,140.8 208.8,142.2 209.6,143.5 210.4,144.8 211.2,146.0 212.0,147.2 212.8,148.3 213.6,149.4 214.4,150.4 215.2,151.4 216.0,152.4 216.8,153.3 217.6,154.1 218.4,155.0 219.2,155.7 220.0,156.5 220.8,157.2 221.6,157.8 222.4,158.4 223.2,159.0 224.0,159.6 224.8,160.1 225.6,160.6 226.5,161.0 227.3,161.5 228.1,161.9 228.9,162.2 229.7,162.6 230.5,162.9 231.3,163.2 232.1,163.5 232.9,163.7 233.7,164.0 234.5,164.2 235.3,164.4 236.1,164.5 236.9,164.7 237.7,164.9 238.5,165.0 239.3,165.1 240.1,165.2 240.9,165.3 241.7,165.4 242.5,165.5 243.3,165.6 244.1,165.6 244.9,165.7 245.7,165.7 246.5,165.8 247.4,165.8 248.2,165.9 249.0,165.9 249.8,165.9 250.6,165.9 251.4,165.9 252.2,166.0 253.0,166.0 253.8,166.0 254.6,166.0 255.4,166.0 256.2,166.0 257.0,166.0 L257.0,166.0 Z" fill="#4a90d9" fill-opacity="0.06"/>
  <polyline points="52.0,166.0 52.8,166.0 53.6,166.0 54.4,166.0 55.2,166.0 56.0,166.0 56.8,166.0 57.6,165.9 58.4,165.9 59.2,165.9 60.0,165.9 60.8,165.9 61.6,165.8 62.5,165.8 63.3,165.7 64.1,165.7 64.9,165.6 65.7,165.6 66.5,165.5 67.3,165.4 68.1,165.3 68.9,165.2 69.7,165.1 70.5,165.0 71.3,164.9 72.1,164.7 72.9,164.5 73.7,164.4 74.5,164.2 75.3,164.0 76.1,163.7 76.9,163.5 77.7,163.2 78.5,162.9 79.3,162.6 80.1,162.2 80.9,161.9 81.7,161.5 82.5,161.0 83.4,160.6 84.2,160.1 85.0,159.6 85.8,159.0 86.6,158.4 87.4,157.8 88.2,157.2 89.0,156.5 89.8,155.7 90.6,155.0 91.4,154.1 92.2,153.3 93.0,152.4 93.8,151.4 94.6,150.4 95.4,149.4 96.2,148.3 97.0,147.2 97.8,146.0 98.6,144.8 99.4,143.5 100.2,142.2 101.0,140.8 101.8,139.4 102.6,137.9 103.5,136.4 104.3,134.9 105.1,133.2 105.9,131.6 106.7,129.9 107.5,128.1 108.3,126.3 109.1,124.5 109.9,122.6 110.7,120.7 111.5,118.7 112.3,116.7 113.1,114.7 113.9,112.6 114.7,110.5 115.5,108.3 116.3,106.2 117.1,104.0 117.9,101.7 118.7,99.5 119.5,97.2 120.3,95.0 121.1,92.7 121.9,90.4 122.7,88.1 123.5,85.8 124.4,83.4 125.2,81.1 126.0,78.8 126.8,76.5 127.6,74.2 128.4,72.0 129.2,69.7 130.0,67.5 130.8,65.3 131.6,63.2 132.4,61.0 133.2,58.9 134.0,56.9 134.8,54.9 135.6,52.9 136.4,51.0 137.2,49.2 138.0,47.4 138.8,45.6 139.6,44.0 140.4,42.4 141.2,40.8 142.0,39.4 142.8,38.0 143.6,36.7 144.5,35.5 145.3,34.4 146.1,33.3 146.9,32.4 147.7,31.5 148.5,30.7 149.3,30.1 150.1,29.5 150.9,29.0 151.7,28.6 152.5,28.3 153.3,28.1 154.1,28.0 154.9,28.0 155.7,28.1 156.5,28.3 157.3,28.6 158.1,29.0 158.9,29.5 159.7,30.1 160.5,30.7 161.3,31.5 162.1,32.4 162.9,33.3 163.7,34.4 164.5,35.5 165.4,36.7 166.2,38.0 167.0,39.4 167.8,40.8 168.6,42.4 169.4,44.0 170.2,45.6 171.0,47.4 171.8,49.2 172.6,51.0 173.4,52.9 174.2,54.9 175.0,56.9 175.8,58.9 176.6,61.0 177.4,63.2 178.2,65.3 179.0,67.5 179.8,69.7 180.6,72.0 181.4,74.2 182.2,76.5 183.0,78.8 183.8,81.1 184.6,83.4 185.5,85.8 186.3,88.1 187.1,90.4 187.9,92.7 188.7,95.0 189.5,97.2 190.3,99.5 191.1,101.7 191.9,104.0 192.7,106.2 193.5,108.3 194.3,110.5 195.1,112.6 195.9,114.7 196.7,116.7 197.5,118.7 198.3,120.7 199.1,122.6 199.9,124.5 200.7,126.3 201.5,128.1 202.3,129.9 203.1,131.6 203.9,133.2 204.7,134.9 205.5,136.4 206.4,137.9 207.2,139.4 208.0,140.8 208.8,142.2 209.6,143.5 210.4,144.8 211.2,146.0 212.0,147.2 212.8,148.3 213.6,149.4 214.4,150.4 215.2,151.4 216.0,152.4 216.8,153.3 217.6,154.1 218.4,155.0 219.2,155.7 220.0,156.5 220.8,157.2 221.6,157.8 222.4,158.4 223.2,159.0 224.0,159.6 224.8,160.1 225.6,160.6 226.5,161.0 227.3,161.5 228.1,161.9 228.9,162.2 229.7,162.6 230.5,162.9 231.3,163.2 232.1,163.5 232.9,163.7 233.7,164.0 234.5,164.2 235.3,164.4 236.1,164.5 236.9,164.7 237.7,164.9 238.5,165.0 239.3,165.1 240.1,165.2 240.9,165.3 241.7,165.4 242.5,165.5 243.3,165.6 244.1,165.6 244.9,165.7 245.7,165.7 246.5,165.8 247.4,165.8 248.2,165.9 249.0,165.9 249.8,165.9 250.6,165.9 251.4,165.9 252.2,166.0 253.0,166.0 253.8,166.0 254.6,166.0 255.4,166.0 256.2,166.0 257.0,166.0" fill="none" stroke="#4a90d9" stroke-width="1.2" stroke-linejoin="round"/>
  <line x1="322" y1="28.0" x2="527" y2="28.0" stroke="#e5e7eb" stroke-width="0.5"/>
  <text x="318" y="31.0" text-anchor="end" font-size="7.5" fill="#6b7280">0</text>
  <line x1="322" y1="74.0" x2="527" y2="74.0" stroke="#e5e7eb" stroke-width="0.5"/>
  <text x="318" y="77.0" text-anchor="end" font-size="7.5" fill="#6b7280">-40</text>
  <line x1="322" y1="120.0" x2="527" y2="120.0" stroke="#e5e7eb" stroke-width="0.5"/>
  <text x="318" y="123.0" text-anchor="end" font-size="7.5" fill="#6b7280">-80</text>
  <line x1="322" y1="166.0" x2="527" y2="166.0" stroke="#e5e7eb" stroke-width="0.5"/>
  <text x="318" y="169.0" text-anchor="end" font-size="7.5" fill="#6b7280">-120</text>
  <line x1="322.0" y1="28" x2="322.0" y2="166" stroke="#e5e7eb" stroke-width="0.5"/>
  <text x="322.0" y="178" text-anchor="middle" font-size="7.5" fill="#6b7280">0</text>
  <line x1="363.0" y1="28" x2="363.0" y2="166" stroke="#e5e7eb" stroke-width="0.5"/>
  <text x="363.0" y="178" text-anchor="middle" font-size="7.5" fill="#6b7280">0.1</text>
  <line x1="404.0" y1="28" x2="404.0" y2="166" stroke="#e5e7eb" stroke-width="0.5"/>
  <text x="404.0" y="178" text-anchor="middle" font-size="7.5" fill="#6b7280">0.2</text>
  <line x1="445.0" y1="28" x2="445.0" y2="166" stroke="#e5e7eb" stroke-width="0.5"/>
  <text x="445.0" y="178" text-anchor="middle" font-size="7.5" fill="#6b7280">0.3</text>
  <line x1="486.0" y1="28" x2="486.0" y2="166" stroke="#e5e7eb" stroke-width="0.5"/>
  <text x="486.0" y="178" text-anchor="middle" font-size="7.5" fill="#6b7280">0.4</text>
  <line x1="527.0" y1="28" x2="527.0" y2="166" stroke="#e5e7eb" stroke-width="0.5"/>
  <text x="527.0" y="178" text-anchor="middle" font-size="7.5" fill="#6b7280">0.5</text>
  <line x1="322" y1="28" x2="322" y2="166" stroke="#d1d5db" stroke-width="0.75"/>
  <line x1="322" y1="166" x2="527" y2="166" stroke="#d1d5db" stroke-width="0.75"/>
  <polyline points="322.0,28.0 322.1,28.0 322.2,28.1 322.3,28.1 322.4,28.2 322.5,28.4 322.6,28.5 322.7,28.7 322.8,28.9 322.9,29.2 323.0,29.5 323.1,29.8 323.2,30.1 323.3,30.5 323.4,30.9 323.5,31.3 323.6,31.7 323.7,32.2 323.8,32.8 323.9,33.3 324.0,33.9 324.1,34.5 324.2,35.2 324.3,35.9 324.4,36.6 324.5,37.4 324.6,38.2 324.7,39.0 324.8,39.9 324.9,40.8 325.0,41.8 325.1,42.8 325.2,43.8 325.3,44.9 325.4,46.0 325.5,47.2 325.6,48.4 325.7,49.7 325.8,51.0 325.9,52.4 326.0,53.9 326.1,55.4 326.2,56.9 326.3,58.6 326.4,60.3 326.5,62.1 326.6,63.9 326.7,65.9 326.8,67.9 326.9,70.0 327.0,72.3 327.1,74.6 327.2,77.1 327.3,79.8 327.4,82.6 327.5,85.5 327.6,88.8 327.7,92.2 327.8,96.0 327.9,100.2 328.0,104.9 328.1,110.3 328.2,117.0 328.3,126.2 328.4,145.8 328.5,139.0 328.6,135.3 328.7,136.8 328.8,142.2 328.9,162.3 329.0,146.0 329.1,139.3 329.2,136.5 329.3,135.4 329.4,135.5 329.5,136.4 329.6,138.2 329.7,141.0 329.8,145.2 329.9,151.8 330.0,166.0 330.1,161.4 330.2,154.8 330.3,153.1 330.4,154.1 330.5,158.0 330.6,166.0 330.7,164.1 330.8,154.6 330.9,150.2 331.0,147.8 331.1,146.5 331.2,146.3 331.3,147.1 331.4,149.1 331.5,153.5 331.6,165.5 331.7,159.9 331.8,149.9 331.9,144.9 332.0,141.7 332.1,139.4 332.2,137.9 332.3,136.9 332.4,136.3 332.5,136.1 332.6,136.4 332.7,137.1 332.8,138.3 332.9,140.2 333.0,143.2 333.1,148.1 333.2,159.8 333.3,157.4 333.4,147.3 333.5,142.6 333.6,139.7 333.7,137.7 333.8,136.5 333.9,135.7 334.0,135.4 334.1,135.4 334.2,135.8 334.3,136.7 334.4,138.1 334.5,140.1 334.6,143.2 334.7,148.1 334.8,159.0 334.9,159.1 335.0,148.4 335.1,143.6 335.2,140.7 335.3,138.8 335.4,137.6 335.5,136.9 335.6,136.6 335.7,136.7 335.8,137.1 335.9,138.0 336.0,139.4 336.1,141.5 336.2,144.5 336.3,149.3 336.4,159.4 336.5,162.1 336.6,150.4 336.7,145.5 336.8,142.6 336.9,140.7 337.0,139.4 337.1,138.7 337.2,138.4 337.3,138.5 337.4,139.0 337.5,139.9 337.6,141.2 337.7,143.2 337.8,146.2 337.9,150.8 338.0,160.3 338.1,165.6 338.2,152.8 338.3,147.7 338.4,144.7 338.5,142.8 338.6,141.5 338.7,140.8 338.8,140.4 338.9,140.5 339.0,141.0 339.1,141.8 339.2,143.2 339.3,145.1 339.4,148.0 339.5,152.5 339.6,161.4 339.7,166.0 339.8,155.3 339.9,150.0 340.0,146.9 340.1,144.9 340.2,143.6 340.3,142.8 340.4,142.5 340.5,142.5 340.6,143.0 340.7,143.8 340.8,145.1 340.9,147.0 341.0,149.8 341.1,154.2 341.2,162.6 341.3,166.0 341.4,157.8 341.5,152.3 341.6,149.1 341.7,147.0 341.8,145.7 341.9,144.9 342.0,144.5 342.1,144.5 342.2,144.9 342.3,145.7 342.4,147.0 342.5,148.9 342.6,151.6 342.7,155.8 342.8,163.7 342.9,166.0 343.0,160.3 343.1,154.5 343.2,151.2 343.3,149.1 343.4,147.7 343.5,146.9 343.6,146.5 343.7,146.4 343.8,146.8 343.9,147.6 344.0,148.8 344.1,150.6 344.2,153.3 344.3,157.4 344.4,164.9 344.5,166.0 344.6,162.7 344.7,156.7 344.8,153.3 344.9,151.1 345.0,149.6 345.1,148.8 345.2,148.3 345.3,148.3 345.4,148.6 345.5,149.4 345.6,150.6 345.7,152.3 345.8,154.9 345.9,158.9 346.0,166.0 346.1,166.0 346.2,165.1 346.3,158.7 346.4,155.2 346.5,153.0 346.6,151.5 346.7,150.6 346.8,150.1 346.9,150.0 347.0,150.3 347.1,151.1 347.2,152.2 347.3,153.9 347.4,156.5 347.5,160.3 347.6,166.0 347.7,166.0 347.8,166.0 347.9,160.7 348.0,157.1 348.1,154.8 348.2,153.3 348.3,152.3 348.4,151.8 348.5,151.7 348.6,152.0 348.7,152.7 348.8,153.8 348.9,155.5 349.0,157.9 349.1,161.6 349.2,166.0 349.3,166.0 349.4,166.0 349.5,162.7 349.6,158.9 349.7,156.6 349.8,155.0 349.9,154.0 350.0,153.5 350.1,153.3 350.2,153.6 350.3,154.2 350.4,155.3 350.5,157.0 350.6,159.3 350.7,162.9 350.8,166.0 350.9,166.0 351.0,166.0 351.1,164.6 351.2,160.7 351.3,158.2 351.4,156.6 351.5,155.6 351.6,155.0 351.7,154.9 351.8,155.1 351.9,155.7 352.0,156.8 352.1,158.4 352.2,160.7 352.3,164.2 352.4,166.0 352.5,166.0 352.6,166.0 352.7,166.0 352.8,162.4 352.9,159.8 353.0,158.2 353.1,157.1 353.2,156.5 353.3,156.3 353.4,156.5 353.5,157.1 353.6,158.1 353.7,159.7 353.8,162.0 353.9,165.4 354.0,166.0 354.1,166.0 354.2,166.0 354.3,166.0 354.4,164.0 354.5,161.4 354.6,159.7 354.7,158.6 354.8,158.0 354.9,157.7 355.0,157.9 355.1,158.5 355.2,159.5 355.3,161.0 355.4,163.2 355.5,166.0 355.6,166.0 355.7,166.0 355.8,166.0 355.9,166.0 356.0,165.6 356.1,162.9 356.3,161.1 356.4,160.0 356.5,159.3 356.6,159.1 356.7,159.2 356.8,159.8 356.9,160.7 357.0,162.2 357.1,164.3 357.2,166.0 357.3,166.0 357.4,166.0 357.5,166.0 357.6,166.0 357.7,166.0 357.8,164.3 357.9,162.5 358.0,161.4 358.1,160.7 358.2,160.4 358.3,160.5 358.4,161.0 358.5,161.9 358.6,163.4 358.7,165.5 358.8,166.0 358.9,166.0 359.0,166.0 359.1,166.0 359.2,166.0 359.3,166.0 359.4,165.7 359.5,163.9 359.6,162.7 359.7,161.9 359.8,161.6 359.9,161.7 360.0,162.2 360.1,163.1 360.2,164.5 360.3,166.0 360.4,166.0 360.5,166.0 360.6,166.0 360.7,166.0 360.8,166.0 360.9,166.0 361.0,166.0 361.1,165.2 361.2,163.9 361.3,163.2 361.4,162.9 361.5,162.9 361.6,163.4 361.7,164.2 361.8,165.6 361.9,166.0 362.0,166.0 362.1,166.0 362.2,166.0 362.3,166.0 362.4,166.0 362.5,166.0 362.6,166.0 362.7,166.0 362.8,165.2 362.9,164.4 363.0,164.0 363.1,164.1 363.2,164.5 363.3,165.3 363.4,166.0 363.5,166.0 363.6,166.0 363.7,166.0 363.8,166.0 363.9,166.0 364.0,166.0 364.1,166.0 364.2,166.0 364.3,166.0 364.4,166.0 364.5,165.5 364.6,165.1 364.7,165.2 364.8,165.5 364.9,166.0 365.0,166.0 365.1,166.0 365.2,166.0 365.3,166.0 365.4,166.0 365.5,166.0 365.6,166.0 365.7,166.0 365.8,166.0 365.9,166.0 366.0,166.0 366.1,166.0 366.2,166.0 366.3,166.0 366.4,166.0 366.5,166.0 366.6,166.0 366.7,166.0 366.8,166.0 366.9,166.0 367.0,166.0 367.1,166.0 367.2,166.0 367.3,166.0 367.4,166.0 367.5,166.0 367.6,166.0 367.7,166.0 367.8,166.0 367.9,166.0 368.0,166.0 368.1,166.0 368.2,166.0 368.3,166.0 368.4,166.0 368.5,166.0 368.6,166.0 368.7,166.0 368.8,166.0 368.9,166.0 369.0,166.0 369.1,166.0 369.2,166.0 369.3,166.0 369.4,166.0 369.5,166.0 369.6,166.0 369.7,166.0 369.8,166.0 369.9,166.0 370.0,166.0 370.1,166.0 370.2,166.0 370.3,166.0 370.4,166.0 370.5,166.0 370.6,166.0 370.7,166.0 370.8,166.0 370.9,166.0 371.0,166.0 371.1,166.0 371.2,166.0 371.3,166.0 371.4,166.0 371.5,166.0 371.6,166.0 371.7,166.0 371.8,166.0 371.9,166.0 372.0,166.0 372.1,166.0 372.2,166.0 372.3,166.0 372.4,166.0 372.5,166.0 372.6,166.0 372.7,166.0 372.8,166.0 372.9,166.0 373.0,166.0 373.1,166.0 373.2,166.0 373.3,166.0 373.4,166.0 373.5,166.0 373.6,166.0 373.7,166.0 373.8,166.0 373.9,166.0 374.0,166.0 374.1,166.0 374.2,166.0 374.3,166.0 374.4,166.0 374.5,166.0 374.6,166.0 374.7,166.0 374.8,166.0 374.9,166.0 375.0,166.0 375.1,166.0 375.2,166.0 375.3,166.0 375.4,166.0 375.5,166.0 375.6,166.0 375.7,166.0 375.8,166.0 375.9,166.0 376.0,166.0 376.1,166.0 376.2,166.0 376.3,166.0 376.4,166.0 376.5,166.0 376.6,166.0 376.7,166.0 376.8,166.0 376.9,166.0 377.0,166.0 377.1,166.0 377.2,166.0 377.3,166.0 377.4,166.0 377.5,166.0 377.6,166.0 377.7,166.0 377.8,166.0 377.9,166.0 378.0,166.0 378.1,166.0 378.2,166.0 378.3,166.0 378.4,166.0 378.5,166.0 378.6,166.0 378.7,166.0 378.8,166.0 378.9,166.0 379.0,166.0 379.1,166.0 379.2,166.0 379.3,166.0 379.4,166.0 379.5,166.0 379.6,166.0 379.7,166.0 379.8,166.0 379.9,166.0 380.0,166.0 380.1,166.0 380.2,166.0 380.3,166.0 380.4,166.0 380.5,166.0 380.6,166.0 380.7,166.0 380.8,166.0 380.9,166.0 381.0,166.0 381.1,166.0 381.2,166.0 381.3,166.0 381.4,166.0 381.5,166.0 381.6,166.0 381.7,166.0 381.8,166.0 381.9,166.0 382.0,166.0 382.1,166.0 382.2,166.0 382.3,166.0 382.4,166.0 382.5,166.0 382.6,166.0 382.7,166.0 382.8,166.0 382.9,166.0 383.0,166.0 383.1,166.0 383.2,166.0 383.3,166.0 383.4,166.0 383.5,166.0 383.6,166.0 383.7,166.0 383.8,166.0 383.9,166.0 384.0,166.0 384.1,166.0 384.2,166.0 384.3,166.0 384.4,166.0 384.5,166.0 384.6,166.0 384.7,166.0 384.8,166.0 384.9,166.0 385.0,166.0 385.1,166.0 385.2,166.0 385.3,166.0 385.4,166.0 385.5,166.0 385.6,166.0 385.7,166.0 385.8,166.0 385.9,166.0 386.0,166.0 386.1,166.0 386.2,166.0 386.3,166.0 386.4,166.0 386.5,166.0 386.6,166.0 386.7,166.0 386.8,166.0 386.9,166.0 387.0,166.0 387.1,166.0 387.2,166.0 387.3,166.0 387.4,166.0 387.5,166.0 387.6,166.0 387.7,166.0 387.8,166.0 387.9,166.0 388.0,166.0 388.1,166.0 388.2,166.0 388.3,166.0 388.4,166.0 388.5,166.0 388.6,166.0 388.7,166.0 388.8,166.0 388.9,166.0 389.0,166.0 389.1,166.0 389.2,166.0 389.3,166.0 389.4,166.0 389.5,166.0 389.6,166.0 389.7,166.0 389.8,166.0 389.9,166.0 390.0,166.0 390.1,166.0 390.2,166.0 390.3,166.0 390.4,166.0 390.5,166.0 390.6,166.0 390.7,166.0 390.8,166.0 390.9,166.0 391.0,166.0 391.1,166.0 391.2,166.0 391.3,166.0 391.4,166.0 391.5,166.0 391.6,166.0 391.7,166.0 391.8,166.0 391.9,166.0 392.0,166.0 392.1,166.0 392.2,166.0 392.3,166.0 392.4,166.0 392.5,166.0 392.6,166.0 392.7,166.0 392.8,166.0 392.9,166.0 393.0,166.0 393.1,166.0 393.2,166.0 393.3,166.0 393.4,166.0 393.5,166.0 393.6,166.0 393.7,166.0 393.8,166.0 393.9,166.0 394.0,166.0 394.1,166.0 394.2,166.0 394.3,166.0 394.4,166.0 394.5,166.0 394.6,166.0 394.7,166.0 394.8,166.0 394.9,166.0 395.0,166.0 395.1,166.0 395.2,166.0 395.3,166.0 395.4,166.0 395.5,166.0 395.6,166.0 395.7,166.0 395.8,166.0 395.9,166.0 396.0,166.0 396.1,166.0 396.2,166.0 396.3,166.0 396.4,166.0 396.5,166.0 396.6,166.0 396.7,166.0 396.8,166.0 396.9,166.0 397.0,166.0 397.1,166.0 397.2,166.0 397.3,166.0 397.4,166.0 397.5,166.0 397.6,166.0 397.7,166.0 397.8,166.0 397.9,166.0 398.0,166.0 398.1,166.0 398.2,166.0 398.3,166.0 398.4,166.0 398.5,166.0 398.6,166.0 398.7,166.0 398.8,166.0 398.9,166.0 399.0,166.0 399.1,166.0 399.2,166.0 399.3,166.0 399.4,166.0 399.5,166.0 399.6,166.0 399.7,166.0 399.8,166.0 399.9,166.0 400.0,166.0 400.1,166.0 400.2,166.0 400.3,166.0 400.4,166.0 400.5,166.0 400.6,166.0 400.7,166.0 400.8,166.0 400.9,166.0 401.0,166.0 401.1,166.0 401.2,166.0 401.3,166.0 401.4,166.0 401.5,166.0 401.6,166.0 401.7,166.0 401.8,166.0 401.9,166.0 402.0,166.0 402.1,166.0 402.2,166.0 402.3,166.0 402.4,166.0 402.5,166.0 402.6,166.0 402.7,166.0 402.8,166.0 402.9,166.0 403.0,166.0 403.1,166.0 403.2,166.0 403.3,166.0 403.4,166.0 403.5,166.0 403.6,166.0 403.7,166.0 403.8,166.0 403.9,166.0 404.0,166.0 404.1,166.0 404.2,166.0 404.3,166.0 404.4,166.0 404.5,166.0 404.6,166.0 404.7,166.0 404.8,166.0 404.9,166.0 405.0,166.0 405.1,166.0 405.2,166.0 405.3,166.0 405.4,166.0 405.5,166.0 405.6,166.0 405.7,166.0 405.8,166.0 405.9,166.0 406.0,166.0 406.1,166.0 406.2,166.0 406.3,166.0 406.4,166.0 406.5,166.0 406.6,166.0 406.7,166.0 406.8,166.0 406.9,166.0 407.0,166.0 407.1,166.0 407.2,166.0 407.3,166.0 407.4,166.0 407.5,166.0 407.6,166.0 407.7,166.0 407.8,166.0 407.9,166.0 408.0,166.0 408.1,166.0 408.2,166.0 408.3,166.0 408.4,166.0 408.5,166.0 408.6,166.0 408.7,166.0 408.8,166.0 408.9,166.0 409.0,166.0 409.1,166.0 409.2,166.0 409.3,166.0 409.4,166.0 409.5,166.0 409.6,166.0 409.7,166.0 409.8,166.0 409.9,166.0 410.0,166.0 410.1,166.0 410.2,166.0 410.3,166.0 410.4,166.0 410.5,166.0 410.6,166.0 410.7,166.0 410.8,166.0 410.9,166.0 411.0,166.0 411.1,166.0 411.2,166.0 411.3,166.0 411.4,166.0 411.5,166.0 411.6,166.0 411.7,166.0 411.8,166.0 411.9,166.0 412.0,166.0 412.1,166.0 412.2,166.0 412.3,166.0 412.4,166.0 412.5,166.0 412.6,166.0 412.7,166.0 412.8,166.0 412.9,166.0 413.0,166.0 413.1,166.0 413.2,166.0 413.3,166.0 413.4,166.0 413.5,166.0 413.6,166.0 413.7,166.0 413.8,166.0 413.9,166.0 414.0,166.0 414.1,166.0 414.2,166.0 414.3,166.0 414.4,166.0 414.5,166.0 414.6,166.0 414.7,166.0 414.8,166.0 414.9,166.0 415.0,166.0 415.1,166.0 415.2,166.0 415.3,166.0 415.4,166.0 415.5,166.0 415.6,166.0 415.7,166.0 415.8,166.0 415.9,166.0 416.0,166.0 416.1,166.0 416.2,166.0 416.3,166.0 416.4,166.0 416.5,166.0 416.6,166.0 416.7,166.0 416.8,166.0 416.9,166.0 417.0,166.0 417.1,166.0 417.2,166.0 417.3,166.0 417.4,166.0 417.5,166.0 417.6,166.0 417.7,166.0 417.8,166.0 417.9,166.0 418.0,166.0 418.1,166.0 418.2,166.0 418.3,166.0 418.4,166.0 418.5,166.0 418.6,166.0 418.7,166.0 418.8,166.0 418.9,166.0 419.0,166.0 419.1,166.0 419.2,166.0 419.3,166.0 419.4,166.0 419.5,166.0 419.6,166.0 419.7,166.0 419.8,166.0 419.9,166.0 420.0,166.0 420.1,166.0 420.2,166.0 420.3,166.0 420.4,166.0 420.5,166.0 420.6,166.0 420.7,166.0 420.8,166.0 420.9,166.0 421.0,166.0 421.1,166.0 421.2,166.0 421.3,166.0 421.4,166.0 421.5,166.0 421.6,166.0 421.7,166.0 421.8,166.0 421.9,166.0 422.0,166.0 422.1,166.0 422.2,166.0 422.3,166.0 422.4,166.0 422.5,166.0 422.6,166.0 422.7,166.0 422.8,166.0 422.9,166.0 423.0,166.0 423.1,166.0 423.2,166.0 423.3,166.0 423.4,166.0 423.5,166.0 423.6,166.0 423.7,166.0 423.8,166.0 423.9,166.0 424.0,166.0 424.1,166.0 424.2,166.0 424.3,166.0 424.4,166.0 424.6,166.0 424.7,166.0 424.8,166.0 424.9,166.0 425.0,166.0 425.1,166.0 425.2,166.0 425.3,166.0 425.4,166.0 425.5,166.0 425.6,166.0 425.7,166.0 425.8,166.0 425.9,166.0 426.0,166.0 426.1,166.0 426.2,166.0 426.3,166.0 426.4,166.0 426.5,166.0 426.6,166.0 426.7,166.0 426.8,166.0 426.9,166.0 427.0,166.0 427.1,166.0 427.2,166.0 427.3,166.0 427.4,166.0 427.5,166.0 427.6,166.0 427.7,166.0 427.8,166.0 427.9,166.0 428.0,166.0 428.1,166.0 428.2,166.0 428.3,166.0 428.4,166.0 428.5,166.0 428.6,166.0 428.7,166.0 428.8,166.0 428.9,166.0 429.0,166.0 429.1,166.0 429.2,166.0 429.3,166.0 429.4,166.0 429.5,166.0 429.6,166.0 429.7,166.0 429.8,166.0 429.9,166.0 430.0,166.0 430.1,166.0 430.2,166.0 430.3,166.0 430.4,166.0 430.5,166.0 430.6,166.0 430.7,166.0 430.8,166.0 430.9,166.0 431.0,166.0 431.1,166.0 431.2,166.0 431.3,166.0 431.4,166.0 431.5,166.0 431.6,166.0 431.7,166.0 431.8,166.0 431.9,166.0 432.0,166.0 432.1,166.0 432.2,166.0 432.3,166.0 432.4,166.0 432.5,166.0 432.6,166.0 432.7,166.0 432.8,166.0 432.9,166.0 433.0,166.0 433.1,166.0 433.2,166.0 433.3,166.0 433.4,166.0 433.5,166.0 433.6,166.0 433.7,166.0 433.8,166.0 433.9,166.0 434.0,166.0 434.1,166.0 434.2,166.0 434.3,166.0 434.4,166.0 434.5,166.0 434.6,166.0 434.7,166.0 434.8,166.0 434.9,166.0 435.0,166.0 435.1,166.0 435.2,166.0 435.3,166.0 435.4,166.0 435.5,166.0 435.6,166.0 435.7,166.0 435.8,166.0 435.9,166.0 436.0,166.0 436.1,166.0 436.2,166.0 436.3,166.0 436.4,166.0 436.5,166.0 436.6,166.0 436.7,166.0 436.8,166.0 436.9,166.0 437.0,166.0 437.1,166.0 437.2,166.0 437.3,166.0 437.4,166.0 437.5,166.0 437.6,166.0 437.7,166.0 437.8,166.0 437.9,166.0 438.0,166.0 438.1,166.0 438.2,166.0 438.3,166.0 438.4,166.0 438.5,166.0 438.6,166.0 438.7,166.0 438.8,166.0 438.9,166.0 439.0,166.0 439.1,166.0 439.2,166.0 439.3,166.0 439.4,166.0 439.5,166.0 439.6,166.0 439.7,166.0 439.8,166.0 439.9,166.0 440.0,166.0 440.1,166.0 440.2,166.0 440.3,166.0 440.4,166.0 440.5,166.0 440.6,166.0 440.7,166.0 440.8,166.0 440.9,166.0 441.0,166.0 441.1,166.0 441.2,166.0 441.3,166.0 441.4,166.0 441.5,166.0 441.6,166.0 441.7,166.0 441.8,166.0 441.9,166.0 442.0,166.0 442.1,166.0 442.2,166.0 442.3,166.0 442.4,166.0 442.5,166.0 442.6,166.0 442.7,166.0 442.8,166.0 442.9,166.0 443.0,166.0 443.1,166.0 443.2,166.0 443.3,166.0 443.4,166.0 443.5,166.0 443.6,166.0 443.7,166.0 443.8,166.0 443.9,166.0 444.0,166.0 444.1,166.0 444.2,166.0 444.3,166.0 444.4,166.0 444.5,166.0 444.6,166.0 444.7,166.0 444.8,166.0 444.9,166.0 445.0,166.0 445.1,166.0 445.2,166.0 445.3,166.0 445.4,166.0 445.5,166.0 445.6,166.0 445.7,166.0 445.8,166.0 445.9,166.0 446.0,166.0 446.1,166.0 446.2,166.0 446.3,166.0 446.4,166.0 446.5,166.0 446.6,166.0 446.7,166.0 446.8,166.0 446.9,166.0 447.0,166.0 447.1,166.0 447.2,166.0 447.3,166.0 447.4,166.0 447.5,166.0 447.6,166.0 447.7,166.0 447.8,166.0 447.9,166.0 448.0,166.0 448.1,166.0 448.2,166.0 448.3,166.0 448.4,166.0 448.5,166.0 448.6,166.0 448.7,166.0 448.8,166.0 448.9,166.0 449.0,166.0 449.1,166.0 449.2,166.0 449.3,166.0 449.4,166.0 449.5,166.0 449.6,166.0 449.7,166.0 449.8,166.0 449.9,166.0 450.0,166.0 450.1,166.0 450.2,166.0 450.3,166.0 450.4,166.0 450.5,166.0 450.6,166.0 450.7,166.0 450.8,166.0 450.9,166.0 451.0,166.0 451.1,166.0 451.2,166.0 451.3,166.0 451.4,166.0 451.5,166.0 451.6,166.0 451.7,166.0 451.8,166.0 451.9,166.0 452.0,166.0 452.1,166.0 452.2,166.0 452.3,166.0 452.4,166.0 452.5,166.0 452.6,166.0 452.7,166.0 452.8,166.0 452.9,166.0 453.0,166.0 453.1,166.0 453.2,166.0 453.3,166.0 453.4,166.0 453.5,166.0 453.6,166.0 453.7,166.0 453.8,166.0 453.9,166.0 454.0,166.0 454.1,166.0 454.2,166.0 454.3,166.0 454.4,166.0 454.5,166.0 454.6,166.0 454.7,166.0 454.8,166.0 454.9,166.0 455.0,166.0 455.1,166.0 455.2,166.0 455.3,166.0 455.4,166.0 455.5,166.0 455.6,166.0 455.7,166.0 455.8,166.0 455.9,166.0 456.0,166.0 456.1,166.0 456.2,166.0 456.3,166.0 456.4,166.0 456.5,166.0 456.6,166.0 456.7,166.0 456.8,166.0 456.9,166.0 457.0,166.0 457.1,166.0 457.2,166.0 457.3,166.0 457.4,166.0 457.5,166.0 457.6,166.0 457.7,166.0 457.8,166.0 457.9,166.0 458.0,166.0 458.1,166.0 458.2,166.0 458.3,166.0 458.4,166.0 458.5,166.0 458.6,166.0 458.7,166.0 458.8,166.0 458.9,166.0 459.0,166.0 459.1,166.0 459.2,166.0 459.3,166.0 459.4,166.0 459.5,166.0 459.6,166.0 459.7,166.0 459.8,166.0 459.9,166.0 460.0,166.0 460.1,166.0 460.2,166.0 460.3,166.0 460.4,166.0 460.5,166.0 460.6,166.0 460.7,166.0 460.8,166.0 460.9,166.0 461.0,166.0 461.1,166.0 461.2,166.0 461.3,166.0 461.4,166.0 461.5,166.0 461.6,166.0 461.7,166.0 461.8,166.0 461.9,166.0 462.0,166.0 462.1,166.0 462.2,166.0 462.3,166.0 462.4,166.0 462.5,166.0 462.6,166.0 462.7,166.0 462.8,166.0 462.9,166.0 463.0,166.0 463.1,166.0 463.2,166.0 463.3,166.0 463.4,166.0 463.5,166.0 463.6,166.0 463.7,166.0 463.8,166.0 463.9,166.0 464.0,166.0 464.1,166.0 464.2,166.0 464.3,166.0 464.4,166.0 464.5,166.0 464.6,166.0 464.7,166.0 464.8,166.0 464.9,166.0 465.0,166.0 465.1,166.0 465.2,166.0 465.3,166.0 465.4,166.0 465.5,166.0 465.6,166.0 465.7,166.0 465.8,166.0 465.9,166.0 466.0,166.0 466.1,166.0 466.2,166.0 466.3,166.0 466.4,166.0 466.5,166.0 466.6,166.0 466.7,166.0 466.8,166.0 466.9,166.0 467.0,166.0 467.1,166.0 467.2,166.0 467.3,166.0 467.4,166.0 467.5,166.0 467.6,166.0 467.7,166.0 467.8,166.0 467.9,166.0 468.0,166.0 468.1,166.0 468.2,166.0 468.3,166.0 468.4,166.0 468.5,166.0 468.6,166.0 468.7,166.0 468.8,166.0 468.9,166.0 469.0,166.0 469.1,166.0 469.2,166.0 469.3,166.0 469.4,166.0 469.5,166.0 469.6,166.0 469.7,166.0 469.8,166.0 469.9,166.0 470.0,166.0 470.1,166.0 470.2,166.0 470.3,166.0 470.4,166.0 470.5,166.0 470.6,166.0 470.7,166.0 470.8,166.0 470.9,166.0 471.0,166.0 471.1,166.0 471.2,166.0 471.3,166.0 471.4,166.0 471.5,166.0 471.6,166.0 471.7,166.0 471.8,166.0 471.9,166.0 472.0,166.0 472.1,166.0 472.2,166.0 472.3,166.0 472.4,166.0 472.5,166.0 472.6,166.0 472.7,166.0 472.8,166.0 472.9,166.0 473.0,166.0 473.1,166.0 473.2,166.0 473.3,166.0 473.4,166.0 473.5,166.0 473.6,166.0 473.7,166.0 473.8,166.0 473.9,166.0 474.0,166.0 474.1,166.0 474.2,166.0 474.3,166.0 474.4,166.0 474.5,166.0 474.6,166.0 474.7,166.0 474.8,166.0 474.9,166.0 475.0,166.0 475.1,166.0 475.2,166.0 475.3,166.0 475.4,166.0 475.5,166.0 475.6,166.0 475.7,166.0 475.8,166.0 475.9,166.0 476.0,166.0 476.1,166.0 476.2,166.0 476.3,166.0 476.4,166.0 476.5,166.0 476.6,166.0 476.7,166.0 476.8,166.0 476.9,166.0 477.0,166.0 477.1,166.0 477.2,166.0 477.3,166.0 477.4,166.0 477.5,166.0 477.6,166.0 477.7,166.0 477.8,166.0 477.9,166.0 478.0,166.0 478.1,166.0 478.2,166.0 478.3,166.0 478.4,166.0 478.5,166.0 478.6,166.0 478.7,166.0 478.8,166.0 478.9,166.0 479.0,166.0 479.1,166.0 479.2,166.0 479.3,166.0 479.4,166.0 479.5,166.0 479.6,166.0 479.7,166.0 479.8,166.0 479.9,166.0 480.0,166.0 480.1,166.0 480.2,166.0 480.3,166.0 480.4,166.0 480.5,166.0 480.6,166.0 480.7,166.0 480.8,166.0 480.9,166.0 481.0,166.0 481.1,166.0 481.2,166.0 481.3,166.0 481.4,166.0 481.5,166.0 481.6,166.0 481.7,166.0 481.8,166.0 481.9,166.0 482.0,166.0 482.1,166.0 482.2,166.0 482.3,166.0 482.4,166.0 482.5,166.0 482.6,166.0 482.7,166.0 482.8,166.0 482.9,166.0 483.0,166.0 483.1,166.0 483.2,166.0 483.3,166.0 483.4,166.0 483.5,166.0 483.6,166.0 483.7,166.0 483.8,166.0 483.9,166.0 484.0,166.0 484.1,166.0 484.2,166.0 484.3,166.0 484.4,166.0 484.5,166.0 484.6,166.0 484.7,166.0 484.8,166.0 484.9,166.0 485.0,166.0 485.1,166.0 485.2,166.0 485.3,166.0 485.4,166.0 485.5,166.0 485.6,166.0 485.7,166.0 485.8,166.0 485.9,166.0 486.0,166.0 486.1,166.0 486.2,166.0 486.3,166.0 486.4,166.0 486.5,166.0 486.6,166.0 486.7,166.0 486.8,166.0 486.9,166.0 487.0,166.0 487.1,166.0 487.2,166.0 487.3,166.0 487.4,166.0 487.5,166.0 487.6,166.0 487.7,166.0 487.8,166.0 487.9,166.0 488.0,166.0 488.1,166.0 488.2,166.0 488.3,166.0 488.4,166.0 488.5,166.0 488.6,166.0 488.7,166.0 488.8,166.0 488.9,166.0 489.0,166.0 489.1,166.0 489.2,166.0 489.3,166.0 489.4,166.0 489.5,166.0 489.6,166.0 489.7,166.0 489.8,166.0 489.9,166.0 490.0,166.0 490.1,166.0 490.2,166.0 490.3,166.0 490.4,166.0 490.5,166.0 490.6,166.0 490.7,166.0 490.8,166.0 490.9,166.0 491.0,166.0 491.1,166.0 491.2,166.0 491.3,166.0 491.4,166.0 491.5,166.0 491.6,166.0 491.7,166.0 491.8,166.0 491.9,166.0 492.0,166.0 492.1,166.0 492.2,166.0 492.3,166.0 492.4,166.0 492.5,166.0 492.6,166.0 492.7,166.0 492.9,166.0 493.0,166.0 493.1,166.0 493.2,166.0 493.3,166.0 493.4,166.0 493.5,166.0 493.6,166.0 493.7,166.0 493.8,166.0 493.9,166.0 494.0,166.0 494.1,166.0 494.2,166.0 494.3,166.0 494.4,166.0 494.5,166.0 494.6,166.0 494.7,166.0 494.8,166.0 494.9,166.0 495.0,166.0 495.1,166.0 495.2,166.0 495.3,166.0 495.4,166.0 495.5,166.0 495.6,166.0 495.7,166.0 495.8,166.0 495.9,166.0 496.0,166.0 496.1,166.0 496.2,166.0 496.3,166.0 496.4,166.0 496.5,166.0 496.6,166.0 496.7,166.0 496.8,166.0 496.9,166.0 497.0,166.0 497.1,166.0 497.2,166.0 497.3,166.0 497.4,166.0 497.5,166.0 497.6,166.0 497.7,166.0 497.8,166.0 497.9,166.0 498.0,166.0 498.1,166.0 498.2,166.0 498.3,166.0 498.4,166.0 498.5,166.0 498.6,166.0 498.7,166.0 498.8,166.0 498.9,166.0 499.0,166.0 499.1,166.0 499.2,166.0 499.3,166.0 499.4,166.0 499.5,166.0 499.6,166.0 499.7,166.0 499.8,166.0 499.9,166.0 500.0,166.0 500.1,166.0 500.2,166.0 500.3,166.0 500.4,166.0 500.5,166.0 500.6,166.0 500.7,166.0 500.8,166.0 500.9,166.0 501.0,166.0 501.1,166.0 501.2,166.0 501.3,166.0 501.4,166.0 501.5,166.0 501.6,166.0 501.7,166.0 501.8,166.0 501.9,166.0 502.0,166.0 502.1,166.0 502.2,166.0 502.3,166.0 502.4,166.0 502.5,166.0 502.6,166.0 502.7,166.0 502.8,166.0 502.9,166.0 503.0,166.0 503.1,166.0 503.2,166.0 503.3,166.0 503.4,166.0 503.5,166.0 503.6,166.0 503.7,166.0 503.8,166.0 503.9,166.0 504.0,166.0 504.1,166.0 504.2,166.0 504.3,166.0 504.4,166.0 504.5,166.0 504.6,166.0 504.7,166.0 504.8,166.0 504.9,166.0 505.0,166.0 505.1,166.0 505.2,166.0 505.3,166.0 505.4,166.0 505.5,166.0 505.6,166.0 505.7,166.0 505.8,166.0 505.9,166.0 506.0,166.0 506.1,166.0 506.2,166.0 506.3,166.0 506.4,166.0 506.5,166.0 506.6,166.0 506.7,166.0 506.8,166.0 506.9,166.0 507.0,166.0 507.1,166.0 507.2,166.0 507.3,166.0 507.4,166.0 507.5,166.0 507.6,166.0 507.7,166.0 507.8,166.0 507.9,166.0 508.0,166.0 508.1,166.0 508.2,166.0 508.3,166.0 508.4,166.0 508.5,166.0 508.6,166.0 508.7,166.0 508.8,166.0 508.9,166.0 509.0,166.0 509.1,166.0 509.2,166.0 509.3,166.0 509.4,166.0 509.5,166.0 509.6,166.0 509.7,166.0 509.8,166.0 509.9,166.0 510.0,166.0 510.1,166.0 510.2,166.0 510.3,166.0 510.4,166.0 510.5,166.0 510.6,166.0 510.7,166.0 510.8,166.0 510.9,166.0 511.0,166.0 511.1,166.0 511.2,166.0 511.3,166.0 511.4,166.0 511.5,166.0 511.6,166.0 511.7,166.0 511.8,166.0 511.9,166.0 512.0,166.0 512.1,166.0 512.2,166.0 512.3,166.0 512.4,166.0 512.5,166.0 512.6,166.0 512.7,166.0 512.8,166.0 512.9,166.0 513.0,166.0 513.1,166.0 513.2,166.0 513.3,166.0 513.4,166.0 513.5,166.0 513.6,166.0 513.7,166.0 513.8,166.0 513.9,166.0 514.0,166.0 514.1,166.0 514.2,166.0 514.3,166.0 514.4,166.0 514.5,166.0 514.6,166.0 514.7,166.0 514.8,166.0 514.9,166.0 515.0,166.0 515.1,166.0 515.2,166.0 515.3,166.0 515.4,166.0 515.5,166.0 515.6,166.0 515.7,166.0 515.8,166.0 515.9,166.0 516.0,166.0 516.1,166.0 516.2,166.0 516.3,166.0 516.4,166.0 516.5,166.0 516.6,166.0 516.7,166.0 516.8,166.0 516.9,166.0 517.0,166.0 517.1,166.0 517.2,166.0 517.3,166.0 517.4,166.0 517.5,166.0 517.6,166.0 517.7,166.0 517.8,166.0 517.9,166.0 518.0,166.0 518.1,166.0 518.2,166.0 518.3,166.0 518.4,166.0 518.5,166.0 518.6,166.0 518.7,166.0 518.8,166.0 518.9,166.0 519.0,166.0 519.1,166.0 519.2,166.0 519.3,166.0 519.4,166.0 519.5,166.0 519.6,166.0 519.7,166.0 519.8,166.0 519.9,166.0 520.0,166.0 520.1,166.0 520.2,166.0 520.3,166.0 520.4,166.0 520.5,166.0 520.6,166.0 520.7,166.0 520.8,166.0 520.9,166.0 521.0,166.0 521.1,166.0 521.2,166.0 521.3,166.0 521.4,166.0 521.5,166.0 521.6,166.0 521.7,166.0 521.8,166.0 521.9,166.0 522.0,166.0 522.1,166.0 522.2,166.0 522.3,166.0 522.4,166.0 522.5,166.0 522.6,166.0 522.7,166.0 522.8,166.0 522.9,166.0 523.0,166.0 523.1,166.0 523.2,166.0 523.3,166.0 523.4,166.0 523.5,166.0 523.6,166.0 523.7,166.0 523.8,166.0 523.9,166.0 524.0,166.0 524.1,166.0 524.2,166.0 524.3,166.0 524.4,166.0 524.5,166.0 524.6,166.0 524.7,166.0 524.8,166.0 524.9,166.0 525.0,166.0 525.1,166.0 525.2,166.0 525.3,166.0 525.4,166.0 525.5,166.0 525.6,166.0 525.7,166.0 525.8,166.0 525.9,166.0 526.0,166.0 526.1,166.0 526.2,166.0 526.3,166.0 526.4,166.0 526.5,166.0 526.6,166.0 526.7,166.0 526.8,166.0 526.9,166.0 527.0,166.0" fill="none" stroke="#4a90d9" stroke-width="1.2" stroke-linejoin="round"/>
  <text x="154.5" y="190" text-anchor="middle" font-size="8" fill="#6b7280">n / N</text>
  <text x="424.5" y="190" text-anchor="middle" font-size="8" fill="#6b7280">Normalized frequency (× Fₛ)</text>
</svg>
