<svg xmlns="http://www.w3.org/2000/svg" viewBox="0 0 800 230" style="font-family:system-ui,-apple-system,sans-serif">
  <line x1="42" y1="182.0" x2="377" y2="182.0" stroke="#e5e7eb" stroke-width="0.7"/>
  <text x="37" y="186.0" text-anchor="end" font-size="10" fill="#6b7280">0</text>
  <line x1="42" y1="95.0" x2="377" y2="95.0" stroke="#e5e7eb" stroke-width="0.7"/>
  <text x="37" y="99.0" text-anchor="end" font-size="10" fill="#6b7280">0.5</text>
  <line x1="42" y1="8.0" x2="377" y2="8.0" stroke="#e5e7eb" stroke-width="0.7"/>
  <text x="37" y="12.0" text-anchor="end" font-size="10" fill="#6b7280">1</text>
  <line x1="42.0" y1="8" x2="42.0" y2="182" stroke="#e5e7eb" stroke-width="0.7"/>
  <text x="42.0" y="198" text-anchor="middle" font-size="10" fill="#6b7280">0</text>
  <line x1="209.5" y1="8" x2="209.5" y2="182" stroke="#e5e7eb" stroke-width="0.7"/>
  <text x="209.5" y="198" text-anchor="middle" font-size="10" fill="#6b7280">0.5</text>
  <line x1="377.0" y1="8" x2="377.0" y2="182" stroke="#e5e7eb" stroke-width="0.7"/>
  <text x="377.0" y="198" text-anchor="middle" font-size="10" fill="#6b7280">1</text>
  <line x1="42" y1="8" x2="42" y2="182" stroke="#d1d5db" stroke-width="1"/>
  <line x1="42" y1="182" x2="377" y2="182" stroke="#d1d5db" stroke-width="1"/>
  <path d="M42.0,182.0 42.0,182.0 43.3,182.0 44.6,182.0 45.9,182.0 47.3,182.0 48.6,182.0 49.9,182.0 51.2,181.9 52.5,181.9 53.8,181.9 55.1,181.9 56.5,181.8 57.8,181.8 59.1,181.7 60.4,181.7 61.7,181.6 63.0,181.5 64.3,181.5 65.6,181.4 67.0,181.3 68.3,181.2 69.6,181.0 70.9,180.9 72.2,180.7 73.5,180.6 74.8,180.4 76.2,180.2 77.5,179.9 78.8,179.7 80.1,179.4 81.4,179.1 82.7,178.8 84.0,178.5 85.4,178.1 86.7,177.7 88.0,177.3 89.3,176.8 90.6,176.3 91.9,175.8 93.2,175.2 94.5,174.6 95.9,173.9 97.2,173.2 98.5,172.5 99.8,171.7 101.1,170.9 102.4,170.0 103.7,169.1 105.1,168.1 106.4,167.1 107.7,166.0 109.0,164.8 110.3,163.6 111.6,162.4 112.9,161.1 114.3,159.7 115.6,158.3 116.9,156.8 118.2,155.3 119.5,153.7 120.8,152.0 122.1,150.3 123.5,148.5 124.8,146.6 126.1,144.7 127.4,142.7 128.7,140.7 130.0,138.6 131.3,136.5 132.6,134.2 134.0,132.0 135.3,129.7 136.6,127.3 137.9,124.9 139.2,122.4 140.5,119.8 141.8,117.3 143.2,114.7 144.5,112.0 145.8,109.3 147.1,106.6 148.4,103.8 149.7,101.0 151.0,98.2 152.4,95.3 153.7,92.4 155.0,89.5 156.3,86.6 157.6,83.7 158.9,80.8 160.2,77.9 161.5,75.0 162.9,72.1 164.2,69.2 165.5,66.3 166.8,63.5 168.1,60.6 169.4,57.8 170.7,55.0 172.1,52.3 173.4,49.6 174.7,47.0 176.0,44.4 177.3,41.9 178.6,39.4 179.9,37.0 181.3,34.7 182.6,32.4 183.9,30.2 185.2,28.1 186.5,26.1 187.8,24.2 189.1,22.4 190.5,20.6 191.8,19.0 193.1,17.5 194.4,16.1 195.7,14.7 197.0,13.5 198.3,12.4 199.6,11.5 201.0,10.6 202.3,9.9 203.6,9.3 204.9,8.8 206.2,8.4 207.5,8.1 208.8,8.0 210.2,8.0 211.5,8.1 212.8,8.4 214.1,8.8 215.4,9.3 216.7,9.9 218.0,10.6 219.4,11.5 220.7,12.4 222.0,13.5 223.3,14.7 224.6,16.1 225.9,17.5 227.2,19.0 228.5,20.6 229.9,22.4 231.2,24.2 232.5,26.1 233.8,28.1 235.1,30.2 236.4,32.4 237.7,34.7 239.1,37.0 240.4,39.4 241.7,41.9 243.0,44.4 244.3,47.0 245.6,49.6 246.9,52.3 248.3,55.0 249.6,57.8 250.9,60.6 252.2,63.5 253.5,66.3 254.8,69.2 256.1,72.1 257.5,75.0 258.8,77.9 260.1,80.8 261.4,83.7 262.7,86.6 264.0,89.5 265.3,92.4 266.6,95.3 268.0,98.2 269.3,101.0 270.6,103.8 271.9,106.6 273.2,109.3 274.5,112.0 275.8,114.7 277.2,117.3 278.5,119.8 279.8,122.4 281.1,124.9 282.4,127.3 283.7,129.7 285.0,132.0 286.4,134.2 287.7,136.5 289.0,138.6 290.3,140.7 291.6,142.7 292.9,144.7 294.2,146.6 295.5,148.5 296.9,150.3 298.2,152.0 299.5,153.7 300.8,155.3 302.1,156.8 303.4,158.3 304.7,159.7 306.1,161.1 307.4,162.4 308.7,163.6 310.0,164.8 311.3,166.0 312.6,167.1 313.9,168.1 315.3,169.1 316.6,170.0 317.9,170.9 319.2,171.7 320.5,172.5 321.8,173.2 323.1,173.9 324.5,174.6 325.8,175.2 327.1,175.8 328.4,176.3 329.7,176.8 331.0,177.3 332.3,177.7 333.6,178.1 335.0,178.5 336.3,178.8 337.6,179.1 338.9,179.4 340.2,179.7 341.5,179.9 342.8,180.2 344.2,180.4 345.5,180.6 346.8,180.7 348.1,180.9 349.4,181.0 350.7,181.2 352.0,181.3 353.4,181.4 354.7,181.5 356.0,181.5 357.3,181.6 358.6,181.7 359.9,181.7 361.2,181.8 362.5,181.8 363.9,181.9 365.2,181.9 366.5,181.9 367.8,181.9 369.1,182.0 370.4,182.0 371.7,182.0 373.1,182.0 374.4,182.0 375.7,182.0 377.0,182.0 L377.0,182.0 Z" fill="#4a90d9" fill-opacity="0.06"/>
  <polyline points="42.0,182.0 43.3,182.0 44.6,182.0 45.9,182.0 47.3,182.0 48.6,182.0 49.9,182.0 51.2,181.9 52.5,181.9 53.8,181.9 55.1,181.9 56.5,181.8 57.8,181.8 59.1,181.7 60.4,181.7 61.7,181.6 63.0,181.5 64.3,181.5 65.6,181.4 67.0,181.3 68.3,181.2 69.6,181.0 70.9,180.9 72.2,180.7 73.5,180.6 74.8,180.4 76.2,180.2 77.5,179.9 78.8,179.7 80.1,179.4 81.4,179.1 82.7,178.8 84.0,178.5 85.4,178.1 86.7,177.7 88.0,177.3 89.3,176.8 90.6,176.3 91.9,175.8 93.2,175.2 94.5,174.6 95.9,173.9 97.2,173.2 98.5,172.5 99.8,171.7 101.1,170.9 102.4,170.0 103.7,169.1 105.1,168.1 106.4,167.1 107.7,166.0 109.0,164.8 110.3,163.6 111.6,162.4 112.9,161.1 114.3,159.7 115.6,158.3 116.9,156.8 118.2,155.3 119.5,153.7 120.8,152.0 122.1,150.3 123.5,148.5 124.8,146.6 126.1,144.7 127.4,142.7 128.7,140.7 130.0,138.6 131.3,136.5 132.6,134.2 134.0,132.0 135.3,129.7 136.6,127.3 137.9,124.9 139.2,122.4 140.5,119.8 141.8,117.3 143.2,114.7 144.5,112.0 145.8,109.3 147.1,106.6 148.4,103.8 149.7,101.0 151.0,98.2 152.4,95.3 153.7,92.4 155.0,89.5 156.3,86.6 157.6,83.7 158.9,80.8 160.2,77.9 161.5,75.0 162.9,72.1 164.2,69.2 165.5,66.3 166.8,63.5 168.1,60.6 169.4,57.8 170.7,55.0 172.1,52.3 173.4,49.6 174.7,47.0 176.0,44.4 177.3,41.9 178.6,39.4 179.9,37.0 181.3,34.7 182.6,32.4 183.9,30.2 185.2,28.1 186.5,26.1 187.8,24.2 189.1,22.4 190.5,20.6 191.8,19.0 193.1,17.5 194.4,16.1 195.7,14.7 197.0,13.5 198.3,12.4 199.6,11.5 201.0,10.6 202.3,9.9 203.6,9.3 204.9,8.8 206.2,8.4 207.5,8.1 208.8,8.0 210.2,8.0 211.5,8.1 212.8,8.4 214.1,8.8 215.4,9.3 216.7,9.9 218.0,10.6 219.4,11.5 220.7,12.4 222.0,13.5 223.3,14.7 224.6,16.1 225.9,17.5 227.2,19.0 228.5,20.6 229.9,22.4 231.2,24.2 232.5,26.1 233.8,28.1 235.1,30.2 236.4,32.4 237.7,34.7 239.1,37.0 240.4,39.4 241.7,41.9 243.0,44.4 244.3,47.0 245.6,49.6 246.9,52.3 248.3,55.0 249.6,57.8 250.9,60.6 252.2,63.5 253.5,66.3 254.8,69.2 256.1,72.1 257.5,75.0 258.8,77.9 260.1,80.8 261.4,83.7 262.7,86.6 264.0,89.5 265.3,92.4 266.6,95.3 268.0,98.2 269.3,101.0 270.6,103.8 271.9,106.6 273.2,109.3 274.5,112.0 275.8,114.7 277.2,117.3 278.5,119.8 279.8,122.4 281.1,124.9 282.4,127.3 283.7,129.7 285.0,132.0 286.4,134.2 287.7,136.5 289.0,138.6 290.3,140.7 291.6,142.7 292.9,144.7 294.2,146.6 295.5,148.5 296.9,150.3 298.2,152.0 299.5,153.7 300.8,155.3 302.1,156.8 303.4,158.3 304.7,159.7 306.1,161.1 307.4,162.4 308.7,163.6 310.0,164.8 311.3,166.0 312.6,167.1 313.9,168.1 315.3,169.1 316.6,170.0 317.9,170.9 319.2,171.7 320.5,172.5 321.8,173.2 323.1,173.9 324.5,174.6 325.8,175.2 327.1,175.8 328.4,176.3 329.7,176.8 331.0,177.3 332.3,177.7 333.6,178.1 335.0,178.5 336.3,178.8 337.6,179.1 338.9,179.4 340.2,179.7 341.5,179.9 342.8,180.2 344.2,180.4 345.5,180.6 346.8,180.7 348.1,180.9 349.4,181.0 350.7,181.2 352.0,181.3 353.4,181.4 354.7,181.5 356.0,181.5 357.3,181.6 358.6,181.7 359.9,181.7 361.2,181.8 362.5,181.8 363.9,181.9 365.2,181.9 366.5,181.9 367.8,181.9 369.1,182.0 370.4,182.0 371.7,182.0 373.1,182.0 374.4,182.0 375.7,182.0 377.0,182.0" fill="none" stroke="#4a90d9" stroke-width="1.5" stroke-linejoin="round"/>
  <line x1="450" y1="8.0" x2="785" y2="8.0" stroke="#e5e7eb" stroke-width="0.7"/>
  <text x="445" y="12.0" text-anchor="end" font-size="10" fill="#6b7280">0</text>
  <line x1="450" y1="66.0" x2="785" y2="66.0" stroke="#e5e7eb" stroke-width="0.7"/>
  <text x="445" y="70.0" text-anchor="end" font-size="10" fill="#6b7280">-40</text>
  <line x1="450" y1="124.0" x2="785" y2="124.0" stroke="#e5e7eb" stroke-width="0.7"/>
  <text x="445" y="128.0" text-anchor="end" font-size="10" fill="#6b7280">-80</text>
  <line x1="450" y1="182.0" x2="785" y2="182.0" stroke="#e5e7eb" stroke-width="0.7"/>
  <text x="445" y="186.0" text-anchor="end" font-size="10" fill="#6b7280">-120</text>
  <line x1="450.0" y1="8" x2="450.0" y2="182" stroke="#e5e7eb" stroke-width="0.7"/>
  <text x="450.0" y="198" text-anchor="middle" font-size="10" fill="#6b7280">0</text>
  <line x1="517.0" y1="8" x2="517.0" y2="182" stroke="#e5e7eb" stroke-width="0.7"/>
  <text x="517.0" y="198" text-anchor="middle" font-size="10" fill="#6b7280">0.1</text>
  <line x1="584.0" y1="8" x2="584.0" y2="182" stroke="#e5e7eb" stroke-width="0.7"/>
  <text x="584.0" y="198" text-anchor="middle" font-size="10" fill="#6b7280">0.2</text>
  <line x1="651.0" y1="8" x2="651.0" y2="182" stroke="#e5e7eb" stroke-width="0.7"/>
  <text x="651.0" y="198" text-anchor="middle" font-size="10" fill="#6b7280">0.3</text>
  <line x1="718.0" y1="8" x2="718.0" y2="182" stroke="#e5e7eb" stroke-width="0.7"/>
  <text x="718.0" y="198" text-anchor="middle" font-size="10" fill="#6b7280">0.4</text>
  <line x1="785.0" y1="8" x2="785.0" y2="182" stroke="#e5e7eb" stroke-width="0.7"/>
  <text x="785.0" y="198" text-anchor="middle" font-size="10" fill="#6b7280">0.5</text>
  <line x1="450" y1="8" x2="450" y2="182" stroke="#d1d5db" stroke-width="1"/>
  <line x1="450" y1="182" x2="785" y2="182" stroke="#d1d5db" stroke-width="1"/>
  <polyline points="450.0,8.0 450.2,8.0 450.3,8.1 450.5,8.2 450.7,8.3 450.8,8.5 451.0,8.7 451.1,8.9 451.3,9.2 451.5,9.5 451.6,9.8 451.8,10.2 452.0,10.6 452.1,11.1 452.3,11.6 452.5,12.1 452.6,12.7 452.8,13.3 452.9,14.0 453.1,14.7 453.3,15.5 453.4,16.2 453.6,17.1 453.8,17.9 453.9,18.9 454.1,19.8 454.3,20.8 454.4,21.9 454.6,23.0 454.7,24.2 454.9,25.4 455.1,26.6 455.2,27.9 455.4,29.3 455.6,30.7 455.7,32.2 455.9,33.8 456.1,35.4 456.2,37.1 456.4,38.8 456.5,40.6 456.7,42.5 456.9,44.5 457.0,46.6 457.2,48.7 457.4,50.9 457.5,53.3 457.7,55.7 457.9,58.3 458.0,61.0 458.2,63.8 458.3,66.8 458.5,69.9 458.7,73.3 458.8,76.8 459.0,80.6 459.2,84.6 459.3,89.0 459.5,93.7 459.7,99.0 459.8,104.9 460.0,111.8 460.1,120.3 460.3,131.8 460.5,156.6 460.6,148.0 460.8,143.4 461.0,145.2 461.1,152.0 461.3,177.3 461.5,156.8 461.6,148.3 461.8,144.8 461.9,143.4 462.1,143.5 462.3,144.7 462.4,147.0 462.6,150.5 462.8,155.8 462.9,164.1 463.1,182.0 463.3,176.2 463.4,167.8 463.6,165.8 463.7,167.0 463.9,171.9 464.1,182.0 464.2,179.6 464.4,167.7 464.6,162.1 464.7,159.0 464.9,157.4 465.1,157.1 465.2,158.1 465.4,160.7 465.5,166.2 465.7,181.4 465.9,174.3 466.0,161.7 466.2,155.4 466.4,151.3 466.5,148.5 466.7,146.6 466.9,145.2 467.0,144.5 467.2,144.3 467.3,144.6 467.5,145.5 467.7,147.1 467.8,149.5 468.0,153.2 468.2,159.5 468.3,174.2 468.5,171.1 468.7,158.4 468.8,152.4 469.0,148.8 469.1,146.4 469.3,144.8 469.5,143.8 469.6,143.4 469.8,143.4 470.0,144.0 470.1,145.1 470.3,146.8 470.5,149.4 470.6,153.2 470.8,159.4 470.9,173.2 471.1,173.4 471.3,159.7 471.4,153.7 471.6,150.1 471.8,147.7 471.9,146.2 472.1,145.3 472.3,144.9 472.4,145.0 472.6,145.6 472.7,146.7 472.9,148.5 473.1,151.1 473.2,154.9 473.4,160.9 473.6,173.7 473.7,177.1 473.9,162.4 474.1,156.2 474.2,152.5 474.4,150.1 474.5,148.5 474.7,147.6 474.9,147.2 475.0,147.3 475.2,147.9 475.4,149.0 475.5,150.8 475.7,153.3 475.9,157.0 476.0,162.8 476.2,174.8 476.3,181.5 476.5,165.4 476.7,159.0 476.8,155.2 477.0,152.7 477.2,151.1 477.3,150.2 477.5,149.8 477.7,149.8 477.8,150.4 478.0,151.5 478.1,153.2 478.3,155.7 478.5,159.3 478.6,165.0 478.8,176.2 479.0,182.0 479.1,168.6 479.3,161.9 479.5,158.0 479.6,155.4 479.8,153.8 479.9,152.8 480.1,152.4 480.3,152.4 480.4,152.9 480.6,154.0 480.8,155.7 480.9,158.1 481.1,161.6 481.3,167.1 481.4,177.7 481.6,182.0 481.7,171.7 481.9,164.7 482.1,160.7 482.2,158.1 482.4,156.4 482.6,155.4 482.7,154.9 482.9,154.9 483.1,155.4 483.2,156.4 483.4,158.0 483.5,160.4 483.7,163.8 483.9,169.1 484.0,179.1 484.2,182.0 484.4,174.8 484.5,167.5 484.7,163.4 484.9,160.7 485.0,158.9 485.2,157.9 485.3,157.4 485.5,157.3 485.7,157.8 485.8,158.8 486.0,160.3 486.2,162.6 486.3,166.0 486.5,171.1 486.7,180.6 486.8,182.0 487.0,177.9 487.1,170.2 487.3,165.9 487.5,163.2 487.6,161.4 487.8,160.3 488.0,159.7 488.1,159.7 488.3,160.1 488.5,161.0 488.6,162.5 488.8,164.8 488.9,168.0 489.1,173.0 489.3,182.0 489.4,182.0 489.6,180.8 489.8,172.8 489.9,168.4 490.1,165.6 490.3,163.7 490.4,162.6 490.6,162.0 490.7,161.9 490.9,162.3 491.1,163.2 491.2,164.6 491.4,166.8 491.6,170.0 491.7,174.8 491.9,182.0 492.1,182.0 492.2,182.0 492.4,175.4 492.6,170.8 492.7,167.9 492.9,166.0 493.0,164.8 493.2,164.1 493.4,164.0 493.5,164.3 493.7,165.2 493.9,166.6 494.0,168.7 494.2,171.8 494.4,176.5 494.5,182.0 494.7,182.0 494.8,182.0 495.0,177.8 495.2,173.1 495.3,170.1 495.5,168.1 495.7,166.9 495.8,166.2 496.0,166.0 496.2,166.3 496.3,167.2 496.5,168.5 496.6,170.6 496.8,173.6 497.0,178.1 497.1,182.0 497.3,182.0 497.5,182.0 497.6,180.2 497.8,175.3 498.0,172.2 498.1,170.2 498.3,168.9 498.4,168.2 498.6,168.0 498.8,168.2 498.9,169.0 499.1,170.3 499.3,172.4 499.4,175.3 499.6,179.7 499.8,182.0 499.9,182.0 500.1,182.0 500.2,182.0 500.4,177.4 500.6,174.2 500.7,172.1 500.9,170.8 501.1,170.0 501.2,169.8 501.4,170.1 501.6,170.8 501.7,172.1 501.9,174.0 502.0,176.9 502.2,181.2 502.4,182.0 502.5,182.0 502.7,182.0 502.9,182.0 503.0,179.5 503.2,176.2 503.4,174.0 503.5,172.6 503.7,171.9 503.8,171.6 504.0,171.8 504.2,172.5 504.3,173.8 504.5,175.7 504.7,178.4 504.8,182.0 505.0,182.0 505.2,182.0 505.3,182.0 505.5,182.0 505.6,181.4 505.8,178.1 506.0,175.9 506.1,174.4 506.3,173.6 506.5,173.3 506.6,173.5 506.8,174.1 507.0,175.3 507.1,177.2 507.3,179.9 507.4,182.0 507.6,182.0 507.8,182.0 507.9,182.0 508.1,182.0 508.3,182.0 508.4,179.9 508.6,177.6 508.8,176.1 508.9,175.3 509.1,174.9 509.2,175.1 509.4,175.7 509.6,176.9 509.7,178.7 509.9,181.3 510.1,182.0 510.2,182.0 510.4,182.0 510.6,182.0 510.7,182.0 510.9,182.0 511.0,181.7 511.2,179.3 511.4,177.8 511.5,176.9 511.7,176.5 511.9,176.6 512.0,177.2 512.2,178.3 512.4,180.1 512.5,182.0 512.7,182.0 512.8,182.0 513.0,182.0 513.2,182.0 513.3,182.0 513.5,182.0 513.7,182.0 513.8,181.0 514.0,179.4 514.2,178.4 514.3,178.0 514.5,178.1 514.6,178.7 514.8,179.8 515.0,181.5 515.1,182.0 515.3,182.0 515.5,182.0 515.6,182.0 515.8,182.0 516.0,182.0 516.1,182.0 516.3,182.0 516.4,182.0 516.6,180.9 516.8,180.0 516.9,179.5 517.1,179.5 517.3,180.1 517.4,181.1 517.6,182.0 517.8,182.0 517.9,182.0 518.1,182.0 518.2,182.0 518.4,182.0 518.6,182.0 518.7,182.0 518.9,182.0 519.1,182.0 519.2,182.0 519.4,181.4 519.6,180.9 519.7,180.9 519.9,181.4 520.0,182.0 520.2,182.0 520.4,182.0 520.5,182.0 520.7,182.0 520.9,182.0 521.0,182.0 521.2,182.0 521.4,182.0 521.5,182.0 521.7,182.0 521.8,182.0 522.0,182.0 522.2,182.0 522.3,182.0 522.5,182.0 522.7,182.0 522.8,182.0 523.0,182.0 523.2,182.0 523.3,182.0 523.5,182.0 523.6,182.0 523.8,182.0 524.0,182.0 524.1,182.0 524.3,182.0 524.5,182.0 524.6,182.0 524.8,182.0 525.0,182.0 525.1,182.0 525.3,182.0 525.4,182.0 525.6,182.0 525.8,182.0 525.9,182.0 526.1,182.0 526.3,182.0 526.4,182.0 526.6,182.0 526.8,182.0 526.9,182.0 527.1,182.0 527.2,182.0 527.4,182.0 527.6,182.0 527.7,182.0 527.9,182.0 528.1,182.0 528.2,182.0 528.4,182.0 528.6,182.0 528.7,182.0 528.9,182.0 529.0,182.0 529.2,182.0 529.4,182.0 529.5,182.0 529.7,182.0 529.9,182.0 530.0,182.0 530.2,182.0 530.4,182.0 530.5,182.0 530.7,182.0 530.8,182.0 531.0,182.0 531.2,182.0 531.3,182.0 531.5,182.0 531.7,182.0 531.8,182.0 532.0,182.0 532.2,182.0 532.3,182.0 532.5,182.0 532.6,182.0 532.8,182.0 533.0,182.0 533.1,182.0 533.3,182.0 533.5,182.0 533.6,182.0 533.8,182.0 534.0,182.0 534.1,182.0 534.3,182.0 534.4,182.0 534.6,182.0 534.8,182.0 534.9,182.0 535.1,182.0 535.3,182.0 535.4,182.0 535.6,182.0 535.8,182.0 535.9,182.0 536.1,182.0 536.2,182.0 536.4,182.0 536.6,182.0 536.7,182.0 536.9,182.0 537.1,182.0 537.2,182.0 537.4,182.0 537.6,182.0 537.7,182.0 537.9,182.0 538.0,182.0 538.2,182.0 538.4,182.0 538.5,182.0 538.7,182.0 538.9,182.0 539.0,182.0 539.2,182.0 539.4,182.0 539.5,182.0 539.7,182.0 539.8,182.0 540.0,182.0 540.2,182.0 540.3,182.0 540.5,182.0 540.7,182.0 540.8,182.0 541.0,182.0 541.2,182.0 541.3,182.0 541.5,182.0 541.6,182.0 541.8,182.0 542.0,182.0 542.1,182.0 542.3,182.0 542.5,182.0 542.6,182.0 542.8,182.0 543.0,182.0 543.1,182.0 543.3,182.0 543.4,182.0 543.6,182.0 543.8,182.0 543.9,182.0 544.1,182.0 544.3,182.0 544.4,182.0 544.6,182.0 544.8,182.0 544.9,182.0 545.1,182.0 545.2,182.0 545.4,182.0 545.6,182.0 545.7,182.0 545.9,182.0 546.1,182.0 546.2,182.0 546.4,182.0 546.6,182.0 546.7,182.0 546.9,182.0 547.0,182.0 547.2,182.0 547.4,182.0 547.5,182.0 547.7,182.0 547.9,182.0 548.0,182.0 548.2,182.0 548.4,182.0 548.5,182.0 548.7,182.0 548.8,182.0 549.0,182.0 549.2,182.0 549.3,182.0 549.5,182.0 549.7,182.0 549.8,182.0 550.0,182.0 550.2,182.0 550.3,182.0 550.5,182.0 550.6,182.0 550.8,182.0 551.0,182.0 551.1,182.0 551.3,182.0 551.5,182.0 551.6,182.0 551.8,182.0 552.0,182.0 552.1,182.0 552.3,182.0 552.4,182.0 552.6,182.0 552.8,182.0 552.9,182.0 553.1,182.0 553.3,182.0 553.4,182.0 553.6,182.0 553.8,182.0 553.9,182.0 554.1,182.0 554.2,182.0 554.4,182.0 554.6,182.0 554.7,182.0 554.9,182.0 555.1,182.0 555.2,182.0 555.4,182.0 555.6,182.0 555.7,182.0 555.9,182.0 556.0,182.0 556.2,182.0 556.4,182.0 556.5,182.0 556.7,182.0 556.9,182.0 557.0,182.0 557.2,182.0 557.4,182.0 557.5,182.0 557.7,182.0 557.8,182.0 558.0,182.0 558.2,182.0 558.3,182.0 558.5,182.0 558.7,182.0 558.8,182.0 559.0,182.0 559.2,182.0 559.3,182.0 559.5,182.0 559.6,182.0 559.8,182.0 560.0,182.0 560.1,182.0 560.3,182.0 560.5,182.0 560.6,182.0 560.8,182.0 561.0,182.0 561.1,182.0 561.3,182.0 561.4,182.0 561.6,182.0 561.8,182.0 561.9,182.0 562.1,182.0 562.3,182.0 562.4,182.0 562.6,182.0 562.8,182.0 562.9,182.0 563.1,182.0 563.2,182.0 563.4,182.0 563.6,182.0 563.7,182.0 563.9,182.0 564.1,182.0 564.2,182.0 564.4,182.0 564.6,182.0 564.7,182.0 564.9,182.0 565.0,182.0 565.2,182.0 565.4,182.0 565.5,182.0 565.7,182.0 565.9,182.0 566.0,182.0 566.2,182.0 566.4,182.0 566.5,182.0 566.7,182.0 566.8,182.0 567.0,182.0 567.2,182.0 567.3,182.0 567.5,182.0 567.7,182.0 567.8,182.0 568.0,182.0 568.2,182.0 568.3,182.0 568.5,182.0 568.6,182.0 568.8,182.0 569.0,182.0 569.1,182.0 569.3,182.0 569.5,182.0 569.6,182.0 569.8,182.0 570.0,182.0 570.1,182.0 570.3,182.0 570.4,182.0 570.6,182.0 570.8,182.0 570.9,182.0 571.1,182.0 571.3,182.0 571.4,182.0 571.6,182.0 571.8,182.0 571.9,182.0 572.1,182.0 572.2,182.0 572.4,182.0 572.6,182.0 572.7,182.0 572.9,182.0 573.1,182.0 573.2,182.0 573.4,182.0 573.6,182.0 573.7,182.0 573.9,182.0 574.0,182.0 574.2,182.0 574.4,182.0 574.5,182.0 574.7,182.0 574.9,182.0 575.0,182.0 575.2,182.0 575.4,182.0 575.5,182.0 575.7,182.0 575.9,182.0 576.0,182.0 576.2,182.0 576.3,182.0 576.5,182.0 576.7,182.0 576.8,182.0 577.0,182.0 577.2,182.0 577.3,182.0 577.5,182.0 577.7,182.0 577.8,182.0 578.0,182.0 578.1,182.0 578.3,182.0 578.5,182.0 578.6,182.0 578.8,182.0 579.0,182.0 579.1,182.0 579.3,182.0 579.5,182.0 579.6,182.0 579.8,182.0 579.9,182.0 580.1,182.0 580.3,182.0 580.4,182.0 580.6,182.0 580.8,182.0 580.9,182.0 581.1,182.0 581.3,182.0 581.4,182.0 581.6,182.0 581.7,182.0 581.9,182.0 582.1,182.0 582.2,182.0 582.4,182.0 582.6,182.0 582.7,182.0 582.9,182.0 583.1,182.0 583.2,182.0 583.4,182.0 583.5,182.0 583.7,182.0 583.9,182.0 584.0,182.0 584.2,182.0 584.4,182.0 584.5,182.0 584.7,182.0 584.9,182.0 585.0,182.0 585.2,182.0 585.3,182.0 585.5,182.0 585.7,182.0 585.8,182.0 586.0,182.0 586.2,182.0 586.3,182.0 586.5,182.0 586.7,182.0 586.8,182.0 587.0,182.0 587.1,182.0 587.3,182.0 587.5,182.0 587.6,182.0 587.8,182.0 588.0,182.0 588.1,182.0 588.3,182.0 588.5,182.0 588.6,182.0 588.8,182.0 588.9,182.0 589.1,182.0 589.3,182.0 589.4,182.0 589.6,182.0 589.8,182.0 589.9,182.0 590.1,182.0 590.3,182.0 590.4,182.0 590.6,182.0 590.7,182.0 590.9,182.0 591.1,182.0 591.2,182.0 591.4,182.0 591.6,182.0 591.7,182.0 591.9,182.0 592.1,182.0 592.2,182.0 592.4,182.0 592.5,182.0 592.7,182.0 592.9,182.0 593.0,182.0 593.2,182.0 593.4,182.0 593.5,182.0 593.7,182.0 593.9,182.0 594.0,182.0 594.2,182.0 594.3,182.0 594.5,182.0 594.7,182.0 594.8,182.0 595.0,182.0 595.2,182.0 595.3,182.0 595.5,182.0 595.7,182.0 595.8,182.0 596.0,182.0 596.1,182.0 596.3,182.0 596.5,182.0 596.6,182.0 596.8,182.0 597.0,182.0 597.1,182.0 597.3,182.0 597.5,182.0 597.6,182.0 597.8,182.0 597.9,182.0 598.1,182.0 598.3,182.0 598.4,182.0 598.6,182.0 598.8,182.0 598.9,182.0 599.1,182.0 599.3,182.0 599.4,182.0 599.6,182.0 599.7,182.0 599.9,182.0 600.1,182.0 600.2,182.0 600.4,182.0 600.6,182.0 600.7,182.0 600.9,182.0 601.1,182.0 601.2,182.0 601.4,182.0 601.5,182.0 601.7,182.0 601.9,182.0 602.0,182.0 602.2,182.0 602.4,182.0 602.5,182.0 602.7,182.0 602.9,182.0 603.0,182.0 603.2,182.0 603.3,182.0 603.5,182.0 603.7,182.0 603.8,182.0 604.0,182.0 604.2,182.0 604.3,182.0 604.5,182.0 604.7,182.0 604.8,182.0 605.0,182.0 605.1,182.0 605.3,182.0 605.5,182.0 605.6,182.0 605.8,182.0 606.0,182.0 606.1,182.0 606.3,182.0 606.5,182.0 606.6,182.0 606.8,182.0 606.9,182.0 607.1,182.0 607.3,182.0 607.4,182.0 607.6,182.0 607.8,182.0 607.9,182.0 608.1,182.0 608.3,182.0 608.4,182.0 608.6,182.0 608.7,182.0 608.9,182.0 609.1,182.0 609.2,182.0 609.4,182.0 609.6,182.0 609.7,182.0 609.9,182.0 610.1,182.0 610.2,182.0 610.4,182.0 610.5,182.0 610.7,182.0 610.9,182.0 611.0,182.0 611.2,182.0 611.4,182.0 611.5,182.0 611.7,182.0 611.9,182.0 612.0,182.0 612.2,182.0 612.3,182.0 612.5,182.0 612.7,182.0 612.8,182.0 613.0,182.0 613.2,182.0 613.3,182.0 613.5,182.0 613.7,182.0 613.8,182.0 614.0,182.0 614.1,182.0 614.3,182.0 614.5,182.0 614.6,182.0 614.8,182.0 615.0,182.0 615.1,182.0 615.3,182.0 615.5,182.0 615.6,182.0 615.8,182.0 615.9,182.0 616.1,182.0 616.3,182.0 616.4,182.0 616.6,182.0 616.8,182.0 616.9,182.0 617.1,182.0 617.3,182.0 617.4,182.0 617.6,182.0 617.7,182.0 617.9,182.0 618.1,182.0 618.2,182.0 618.4,182.0 618.6,182.0 618.7,182.0 618.9,182.0 619.1,182.0 619.2,182.0 619.4,182.0 619.5,182.0 619.7,182.0 619.9,182.0 620.0,182.0 620.2,182.0 620.4,182.0 620.5,182.0 620.7,182.0 620.9,182.0 621.0,182.0 621.2,182.0 621.3,182.0 621.5,182.0 621.7,182.0 621.8,182.0 622.0,182.0 622.2,182.0 622.3,182.0 622.5,182.0 622.7,182.0 622.8,182.0 623.0,182.0 623.1,182.0 623.3,182.0 623.5,182.0 623.6,182.0 623.8,182.0 624.0,182.0 624.1,182.0 624.3,182.0 624.5,182.0 624.6,182.0 624.8,182.0 624.9,182.0 625.1,182.0 625.3,182.0 625.4,182.0 625.6,182.0 625.8,182.0 625.9,182.0 626.1,182.0 626.3,182.0 626.4,182.0 626.6,182.0 626.7,182.0 626.9,182.0 627.1,182.0 627.2,182.0 627.4,182.0 627.6,182.0 627.7,182.0 627.9,182.0 628.1,182.0 628.2,182.0 628.4,182.0 628.5,182.0 628.7,182.0 628.9,182.0 629.0,182.0 629.2,182.0 629.4,182.0 629.5,182.0 629.7,182.0 629.9,182.0 630.0,182.0 630.2,182.0 630.3,182.0 630.5,182.0 630.7,182.0 630.8,182.0 631.0,182.0 631.2,182.0 631.3,182.0 631.5,182.0 631.7,182.0 631.8,182.0 632.0,182.0 632.1,182.0 632.3,182.0 632.5,182.0 632.6,182.0 632.8,182.0 633.0,182.0 633.1,182.0 633.3,182.0 633.5,182.0 633.6,182.0 633.8,182.0 633.9,182.0 634.1,182.0 634.3,182.0 634.4,182.0 634.6,182.0 634.8,182.0 634.9,182.0 635.1,182.0 635.3,182.0 635.4,182.0 635.6,182.0 635.7,182.0 635.9,182.0 636.1,182.0 636.2,182.0 636.4,182.0 636.6,182.0 636.7,182.0 636.9,182.0 637.1,182.0 637.2,182.0 637.4,182.0 637.5,182.0 637.7,182.0 637.9,182.0 638.0,182.0 638.2,182.0 638.4,182.0 638.5,182.0 638.7,182.0 638.9,182.0 639.0,182.0 639.2,182.0 639.3,182.0 639.5,182.0 639.7,182.0 639.8,182.0 640.0,182.0 640.2,182.0 640.3,182.0 640.5,182.0 640.7,182.0 640.8,182.0 641.0,182.0 641.1,182.0 641.3,182.0 641.5,182.0 641.6,182.0 641.8,182.0 642.0,182.0 642.1,182.0 642.3,182.0 642.5,182.0 642.6,182.0 642.8,182.0 642.9,182.0 643.1,182.0 643.3,182.0 643.4,182.0 643.6,182.0 643.8,182.0 643.9,182.0 644.1,182.0 644.3,182.0 644.4,182.0 644.6,182.0 644.7,182.0 644.9,182.0 645.1,182.0 645.2,182.0 645.4,182.0 645.6,182.0 645.7,182.0 645.9,182.0 646.1,182.0 646.2,182.0 646.4,182.0 646.5,182.0 646.7,182.0 646.9,182.0 647.0,182.0 647.2,182.0 647.4,182.0 647.5,182.0 647.7,182.0 647.9,182.0 648.0,182.0 648.2,182.0 648.3,182.0 648.5,182.0 648.7,182.0 648.8,182.0 649.0,182.0 649.2,182.0 649.3,182.0 649.5,182.0 649.7,182.0 649.8,182.0 650.0,182.0 650.1,182.0 650.3,182.0 650.5,182.0 650.6,182.0 650.8,182.0 651.0,182.0 651.1,182.0 651.3,182.0 651.5,182.0 651.6,182.0 651.8,182.0 651.9,182.0 652.1,182.0 652.3,182.0 652.4,182.0 652.6,182.0 652.8,182.0 652.9,182.0 653.1,182.0 653.3,182.0 653.4,182.0 653.6,182.0 653.7,182.0 653.9,182.0 654.1,182.0 654.2,182.0 654.4,182.0 654.6,182.0 654.7,182.0 654.9,182.0 655.1,182.0 655.2,182.0 655.4,182.0 655.5,182.0 655.7,182.0 655.9,182.0 656.0,182.0 656.2,182.0 656.4,182.0 656.5,182.0 656.7,182.0 656.9,182.0 657.0,182.0 657.2,182.0 657.3,182.0 657.5,182.0 657.7,182.0 657.8,182.0 658.0,182.0 658.2,182.0 658.3,182.0 658.5,182.0 658.7,182.0 658.8,182.0 659.0,182.0 659.1,182.0 659.3,182.0 659.5,182.0 659.6,182.0 659.8,182.0 660.0,182.0 660.1,182.0 660.3,182.0 660.5,182.0 660.6,182.0 660.8,182.0 661.0,182.0 661.1,182.0 661.3,182.0 661.4,182.0 661.6,182.0 661.8,182.0 661.9,182.0 662.1,182.0 662.3,182.0 662.4,182.0 662.6,182.0 662.8,182.0 662.9,182.0 663.1,182.0 663.2,182.0 663.4,182.0 663.6,182.0 663.7,182.0 663.9,182.0 664.1,182.0 664.2,182.0 664.4,182.0 664.6,182.0 664.7,182.0 664.9,182.0 665.0,182.0 665.2,182.0 665.4,182.0 665.5,182.0 665.7,182.0 665.9,182.0 666.0,182.0 666.2,182.0 666.4,182.0 666.5,182.0 666.7,182.0 666.8,182.0 667.0,182.0 667.2,182.0 667.3,182.0 667.5,182.0 667.7,182.0 667.8,182.0 668.0,182.0 668.2,182.0 668.3,182.0 668.5,182.0 668.6,182.0 668.8,182.0 669.0,182.0 669.1,182.0 669.3,182.0 669.5,182.0 669.6,182.0 669.8,182.0 670.0,182.0 670.1,182.0 670.3,182.0 670.4,182.0 670.6,182.0 670.8,182.0 670.9,182.0 671.1,182.0 671.3,182.0 671.4,182.0 671.6,182.0 671.8,182.0 671.9,182.0 672.1,182.0 672.2,182.0 672.4,182.0 672.6,182.0 672.7,182.0 672.9,182.0 673.1,182.0 673.2,182.0 673.4,182.0 673.6,182.0 673.7,182.0 673.9,182.0 674.0,182.0 674.2,182.0 674.4,182.0 674.5,182.0 674.7,182.0 674.9,182.0 675.0,182.0 675.2,182.0 675.4,182.0 675.5,182.0 675.7,182.0 675.8,182.0 676.0,182.0 676.2,182.0 676.3,182.0 676.5,182.0 676.7,182.0 676.8,182.0 677.0,182.0 677.2,182.0 677.3,182.0 677.5,182.0 677.6,182.0 677.8,182.0 678.0,182.0 678.1,182.0 678.3,182.0 678.5,182.0 678.6,182.0 678.8,182.0 679.0,182.0 679.1,182.0 679.3,182.0 679.4,182.0 679.6,182.0 679.8,182.0 679.9,182.0 680.1,182.0 680.3,182.0 680.4,182.0 680.6,182.0 680.8,182.0 680.9,182.0 681.1,182.0 681.2,182.0 681.4,182.0 681.6,182.0 681.7,182.0 681.9,182.0 682.1,182.0 682.2,182.0 682.4,182.0 682.6,182.0 682.7,182.0 682.9,182.0 683.0,182.0 683.2,182.0 683.4,182.0 683.5,182.0 683.7,182.0 683.9,182.0 684.0,182.0 684.2,182.0 684.4,182.0 684.5,182.0 684.7,182.0 684.8,182.0 685.0,182.0 685.2,182.0 685.3,182.0 685.5,182.0 685.7,182.0 685.8,182.0 686.0,182.0 686.2,182.0 686.3,182.0 686.5,182.0 686.6,182.0 686.8,182.0 687.0,182.0 687.1,182.0 687.3,182.0 687.5,182.0 687.6,182.0 687.8,182.0 688.0,182.0 688.1,182.0 688.3,182.0 688.4,182.0 688.6,182.0 688.8,182.0 688.9,182.0 689.1,182.0 689.3,182.0 689.4,182.0 689.6,182.0 689.8,182.0 689.9,182.0 690.1,182.0 690.2,182.0 690.4,182.0 690.6,182.0 690.7,182.0 690.9,182.0 691.1,182.0 691.2,182.0 691.4,182.0 691.6,182.0 691.7,182.0 691.9,182.0 692.0,182.0 692.2,182.0 692.4,182.0 692.5,182.0 692.7,182.0 692.9,182.0 693.0,182.0 693.2,182.0 693.4,182.0 693.5,182.0 693.7,182.0 693.8,182.0 694.0,182.0 694.2,182.0 694.3,182.0 694.5,182.0 694.7,182.0 694.8,182.0 695.0,182.0 695.2,182.0 695.3,182.0 695.5,182.0 695.6,182.0 695.8,182.0 696.0,182.0 696.1,182.0 696.3,182.0 696.5,182.0 696.6,182.0 696.8,182.0 697.0,182.0 697.1,182.0 697.3,182.0 697.4,182.0 697.6,182.0 697.8,182.0 697.9,182.0 698.1,182.0 698.3,182.0 698.4,182.0 698.6,182.0 698.8,182.0 698.9,182.0 699.1,182.0 699.2,182.0 699.4,182.0 699.6,182.0 699.7,182.0 699.9,182.0 700.1,182.0 700.2,182.0 700.4,182.0 700.6,182.0 700.7,182.0 700.9,182.0 701.0,182.0 701.2,182.0 701.4,182.0 701.5,182.0 701.7,182.0 701.9,182.0 702.0,182.0 702.2,182.0 702.4,182.0 702.5,182.0 702.7,182.0 702.8,182.0 703.0,182.0 703.2,182.0 703.3,182.0 703.5,182.0 703.7,182.0 703.8,182.0 704.0,182.0 704.2,182.0 704.3,182.0 704.5,182.0 704.6,182.0 704.8,182.0 705.0,182.0 705.1,182.0 705.3,182.0 705.5,182.0 705.6,182.0 705.8,182.0 706.0,182.0 706.1,182.0 706.3,182.0 706.4,182.0 706.6,182.0 706.8,182.0 706.9,182.0 707.1,182.0 707.3,182.0 707.4,182.0 707.6,182.0 707.8,182.0 707.9,182.0 708.1,182.0 708.2,182.0 708.4,182.0 708.6,182.0 708.7,182.0 708.9,182.0 709.1,182.0 709.2,182.0 709.4,182.0 709.6,182.0 709.7,182.0 709.9,182.0 710.0,182.0 710.2,182.0 710.4,182.0 710.5,182.0 710.7,182.0 710.9,182.0 711.0,182.0 711.2,182.0 711.4,182.0 711.5,182.0 711.7,182.0 711.8,182.0 712.0,182.0 712.2,182.0 712.3,182.0 712.5,182.0 712.7,182.0 712.8,182.0 713.0,182.0 713.2,182.0 713.3,182.0 713.5,182.0 713.6,182.0 713.8,182.0 714.0,182.0 714.1,182.0 714.3,182.0 714.5,182.0 714.6,182.0 714.8,182.0 715.0,182.0 715.1,182.0 715.3,182.0 715.4,182.0 715.6,182.0 715.8,182.0 715.9,182.0 716.1,182.0 716.3,182.0 716.4,182.0 716.6,182.0 716.8,182.0 716.9,182.0 717.1,182.0 717.2,182.0 717.4,182.0 717.6,182.0 717.7,182.0 717.9,182.0 718.1,182.0 718.2,182.0 718.4,182.0 718.6,182.0 718.7,182.0 718.9,182.0 719.0,182.0 719.2,182.0 719.4,182.0 719.5,182.0 719.7,182.0 719.9,182.0 720.0,182.0 720.2,182.0 720.4,182.0 720.5,182.0 720.7,182.0 720.8,182.0 721.0,182.0 721.2,182.0 721.3,182.0 721.5,182.0 721.7,182.0 721.8,182.0 722.0,182.0 722.2,182.0 722.3,182.0 722.5,182.0 722.6,182.0 722.8,182.0 723.0,182.0 723.1,182.0 723.3,182.0 723.5,182.0 723.6,182.0 723.8,182.0 724.0,182.0 724.1,182.0 724.3,182.0 724.4,182.0 724.6,182.0 724.8,182.0 724.9,182.0 725.1,182.0 725.3,182.0 725.4,182.0 725.6,182.0 725.8,182.0 725.9,182.0 726.1,182.0 726.2,182.0 726.4,182.0 726.6,182.0 726.7,182.0 726.9,182.0 727.1,182.0 727.2,182.0 727.4,182.0 727.6,182.0 727.7,182.0 727.9,182.0 728.0,182.0 728.2,182.0 728.4,182.0 728.5,182.0 728.7,182.0 728.9,182.0 729.0,182.0 729.2,182.0 729.4,182.0 729.5,182.0 729.7,182.0 729.8,182.0 730.0,182.0 730.2,182.0 730.3,182.0 730.5,182.0 730.7,182.0 730.8,182.0 731.0,182.0 731.2,182.0 731.3,182.0 731.5,182.0 731.6,182.0 731.8,182.0 732.0,182.0 732.1,182.0 732.3,182.0 732.5,182.0 732.6,182.0 732.8,182.0 733.0,182.0 733.1,182.0 733.3,182.0 733.4,182.0 733.6,182.0 733.8,182.0 733.9,182.0 734.1,182.0 734.3,182.0 734.4,182.0 734.6,182.0 734.8,182.0 734.9,182.0 735.1,182.0 735.2,182.0 735.4,182.0 735.6,182.0 735.7,182.0 735.9,182.0 736.1,182.0 736.2,182.0 736.4,182.0 736.6,182.0 736.7,182.0 736.9,182.0 737.0,182.0 737.2,182.0 737.4,182.0 737.5,182.0 737.7,182.0 737.9,182.0 738.0,182.0 738.2,182.0 738.4,182.0 738.5,182.0 738.7,182.0 738.8,182.0 739.0,182.0 739.2,182.0 739.3,182.0 739.5,182.0 739.7,182.0 739.8,182.0 740.0,182.0 740.2,182.0 740.3,182.0 740.5,182.0 740.6,182.0 740.8,182.0 741.0,182.0 741.1,182.0 741.3,182.0 741.5,182.0 741.6,182.0 741.8,182.0 742.0,182.0 742.1,182.0 742.3,182.0 742.4,182.0 742.6,182.0 742.8,182.0 742.9,182.0 743.1,182.0 743.3,182.0 743.4,182.0 743.6,182.0 743.8,182.0 743.9,182.0 744.1,182.0 744.3,182.0 744.4,182.0 744.6,182.0 744.7,182.0 744.9,182.0 745.1,182.0 745.2,182.0 745.4,182.0 745.6,182.0 745.7,182.0 745.9,182.0 746.1,182.0 746.2,182.0 746.4,182.0 746.5,182.0 746.7,182.0 746.9,182.0 747.0,182.0 747.2,182.0 747.4,182.0 747.5,182.0 747.7,182.0 747.9,182.0 748.0,182.0 748.2,182.0 748.3,182.0 748.5,182.0 748.7,182.0 748.8,182.0 749.0,182.0 749.2,182.0 749.3,182.0 749.5,182.0 749.7,182.0 749.8,182.0 750.0,182.0 750.1,182.0 750.3,182.0 750.5,182.0 750.6,182.0 750.8,182.0 751.0,182.0 751.1,182.0 751.3,182.0 751.5,182.0 751.6,182.0 751.8,182.0 751.9,182.0 752.1,182.0 752.3,182.0 752.4,182.0 752.6,182.0 752.8,182.0 752.9,182.0 753.1,182.0 753.3,182.0 753.4,182.0 753.6,182.0 753.7,182.0 753.9,182.0 754.1,182.0 754.2,182.0 754.4,182.0 754.6,182.0 754.7,182.0 754.9,182.0 755.1,182.0 755.2,182.0 755.4,182.0 755.5,182.0 755.7,182.0 755.9,182.0 756.0,182.0 756.2,182.0 756.4,182.0 756.5,182.0 756.7,182.0 756.9,182.0 757.0,182.0 757.2,182.0 757.3,182.0 757.5,182.0 757.7,182.0 757.8,182.0 758.0,182.0 758.2,182.0 758.3,182.0 758.5,182.0 758.7,182.0 758.8,182.0 759.0,182.0 759.1,182.0 759.3,182.0 759.5,182.0 759.6,182.0 759.8,182.0 760.0,182.0 760.1,182.0 760.3,182.0 760.5,182.0 760.6,182.0 760.8,182.0 760.9,182.0 761.1,182.0 761.3,182.0 761.4,182.0 761.6,182.0 761.8,182.0 761.9,182.0 762.1,182.0 762.3,182.0 762.4,182.0 762.6,182.0 762.7,182.0 762.9,182.0 763.1,182.0 763.2,182.0 763.4,182.0 763.6,182.0 763.7,182.0 763.9,182.0 764.1,182.0 764.2,182.0 764.4,182.0 764.5,182.0 764.7,182.0 764.9,182.0 765.0,182.0 765.2,182.0 765.4,182.0 765.5,182.0 765.7,182.0 765.9,182.0 766.0,182.0 766.2,182.0 766.3,182.0 766.5,182.0 766.7,182.0 766.8,182.0 767.0,182.0 767.2,182.0 767.3,182.0 767.5,182.0 767.7,182.0 767.8,182.0 768.0,182.0 768.1,182.0 768.3,182.0 768.5,182.0 768.6,182.0 768.8,182.0 769.0,182.0 769.1,182.0 769.3,182.0 769.5,182.0 769.6,182.0 769.8,182.0 769.9,182.0 770.1,182.0 770.3,182.0 770.4,182.0 770.6,182.0 770.8,182.0 770.9,182.0 771.1,182.0 771.3,182.0 771.4,182.0 771.6,182.0 771.7,182.0 771.9,182.0 772.1,182.0 772.2,182.0 772.4,182.0 772.6,182.0 772.7,182.0 772.9,182.0 773.1,182.0 773.2,182.0 773.4,182.0 773.5,182.0 773.7,182.0 773.9,182.0 774.0,182.0 774.2,182.0 774.4,182.0 774.5,182.0 774.7,182.0 774.9,182.0 775.0,182.0 775.2,182.0 775.3,182.0 775.5,182.0 775.7,182.0 775.8,182.0 776.0,182.0 776.2,182.0 776.3,182.0 776.5,182.0 776.7,182.0 776.8,182.0 777.0,182.0 777.1,182.0 777.3,182.0 777.5,182.0 777.6,182.0 777.8,182.0 778.0,182.0 778.1,182.0 778.3,182.0 778.5,182.0 778.6,182.0 778.8,182.0 778.9,182.0 779.1,182.0 779.3,182.0 779.4,182.0 779.6,182.0 779.8,182.0 779.9,182.0 780.1,182.0 780.3,182.0 780.4,182.0 780.6,182.0 780.7,182.0 780.9,182.0 781.1,182.0 781.2,182.0 781.4,182.0 781.6,182.0 781.7,182.0 781.9,182.0 782.1,182.0 782.2,182.0 782.4,182.0 782.5,182.0 782.7,182.0 782.9,182.0 783.0,182.0 783.2,182.0 783.4,182.0 783.5,182.0 783.7,182.0 783.9,182.0 784.0,182.0 784.2,182.0 784.3,182.0 784.5,182.0 784.7,182.0 784.8,182.0 785.0,182.0" fill="none" stroke="#4a90d9" stroke-width="1.5" stroke-linejoin="round"/>
  <text x="209.5" y="214" text-anchor="middle" font-size="11" fill="#6b7280">n / N</text>
  <text x="617.5" y="214" text-anchor="middle" font-size="11" fill="#6b7280">Normalized frequency (× Fₛ)</text>
</svg>
