<svg xmlns="http://www.w3.org/2000/svg" viewBox="0 0 800 230" style="font-family:system-ui,-apple-system,sans-serif">
  <line x1="42" y1="182.0" x2="377" y2="182.0" stroke="#e5e7eb" stroke-width="0.7"/>
  <text x="37" y="186.0" text-anchor="end" font-size="10" fill="#6b7280">0</text>
  <line x1="42" y1="95.0" x2="377" y2="95.0" stroke="#e5e7eb" stroke-width="0.7"/>
  <text x="37" y="99.0" text-anchor="end" font-size="10" fill="#6b7280">0.5</text>
  <line x1="42" y1="8.0" x2="377" y2="8.0" stroke="#e5e7eb" stroke-width="0.7"/>
  <text x="37" y="12.0" text-anchor="end" font-size="10" fill="#6b7280">1</text>
  <line x1="42.0" y1="8" x2="42.0" y2="182" stroke="#e5e7eb" stroke-width="0.7"/>
  <text x="42.0" y="198" text-anchor="middle" font-size="10" fill="#6b7280">0</text>
  <line x1="209.5" y1="8" x2="209.5" y2="182" stroke="#e5e7eb" stroke-width="0.7"/>
  <text x="209.5" y="198" text-anchor="middle" font-size="10" fill="#6b7280">0.5</text>
  <line x1="377.0" y1="8" x2="377.0" y2="182" stroke="#e5e7eb" stroke-width="0.7"/>
  <text x="377.0" y="198" text-anchor="middle" font-size="10" fill="#6b7280">1</text>
  <line x1="42" y1="8" x2="42" y2="182" stroke="#d1d5db" stroke-width="1"/>
  <line x1="42" y1="182" x2="377" y2="182" stroke="#d1d5db" stroke-width="1"/>
  <path d="M42.0,182.0 42.0,182.0 43.3,182.0 44.6,182.0 45.9,182.0 47.3,182.0 48.6,182.0 49.9,182.0 51.2,181.9 52.5,181.9 53.8,181.9 55.1,181.8 56.5,181.8 57.8,181.7 59.1,181.6 60.4,181.5 61.7,181.4 63.0,181.3 64.3,181.2 65.6,181.0 67.0,180.8 68.3,180.7 69.6,180.4 70.9,180.2 72.2,180.0 73.5,179.7 74.8,179.4 76.2,179.0 77.5,178.7 78.8,178.3 80.1,177.9 81.4,177.5 82.7,177.0 84.0,176.5 85.4,176.0 86.7,175.4 88.0,174.8 89.3,174.2 90.6,173.5 91.9,172.8 93.2,172.0 94.5,171.3 95.9,170.4 97.2,169.6 98.5,168.7 99.8,167.7 101.1,166.7 102.4,165.7 103.7,164.6 105.1,163.4 106.4,162.2 107.7,161.0 109.0,159.7 110.3,158.4 111.6,157.0 112.9,155.6 114.3,154.1 115.6,152.5 116.9,150.9 118.2,149.2 119.5,147.5 120.8,145.7 122.1,143.9 123.5,142.0 124.8,140.0 126.1,138.0 127.4,135.9 128.7,133.7 130.0,131.5 131.3,129.3 132.6,126.9 134.0,124.6 135.3,122.2 136.6,119.7 137.9,117.2 139.2,114.7 140.5,112.1 141.8,109.5 143.2,106.9 144.5,104.3 145.8,101.6 147.1,98.9 148.4,96.2 149.7,93.5 151.0,90.8 152.4,88.1 153.7,85.3 155.0,82.6 156.3,79.9 157.6,77.2 158.9,74.4 160.2,71.7 161.5,69.1 162.9,66.4 164.2,63.8 165.5,61.1 166.8,58.5 168.1,56.0 169.4,53.5 170.7,51.0 172.1,48.5 173.4,46.1 174.7,43.7 176.0,41.4 177.3,39.1 178.6,36.9 179.9,34.8 181.3,32.7 182.6,30.6 183.9,28.7 185.2,26.8 186.5,25.0 187.8,23.2 189.1,21.6 190.5,20.0 191.8,18.5 193.1,17.1 194.4,15.7 195.7,14.5 197.0,13.4 198.3,12.3 199.6,11.4 201.0,10.6 202.3,9.9 203.6,9.3 204.9,8.8 206.2,8.4 207.5,8.1 208.8,8.0 210.2,8.0 211.5,8.1 212.8,8.4 214.1,8.8 215.4,9.3 216.7,9.9 218.0,10.6 219.4,11.4 220.7,12.3 222.0,13.4 223.3,14.5 224.6,15.7 225.9,17.1 227.2,18.5 228.5,20.0 229.9,21.6 231.2,23.2 232.5,25.0 233.8,26.8 235.1,28.7 236.4,30.6 237.7,32.7 239.1,34.8 240.4,36.9 241.7,39.1 243.0,41.4 244.3,43.7 245.6,46.1 246.9,48.5 248.3,51.0 249.6,53.5 250.9,56.0 252.2,58.5 253.5,61.1 254.8,63.8 256.1,66.4 257.5,69.1 258.8,71.7 260.1,74.4 261.4,77.2 262.7,79.9 264.0,82.6 265.3,85.3 266.6,88.1 268.0,90.8 269.3,93.5 270.6,96.2 271.9,98.9 273.2,101.6 274.5,104.3 275.8,106.9 277.2,109.5 278.5,112.1 279.8,114.7 281.1,117.2 282.4,119.7 283.7,122.2 285.0,124.6 286.4,126.9 287.7,129.3 289.0,131.5 290.3,133.7 291.6,135.9 292.9,138.0 294.2,140.0 295.5,142.0 296.9,143.9 298.2,145.7 299.5,147.5 300.8,149.2 302.1,150.9 303.4,152.5 304.7,154.1 306.1,155.6 307.4,157.0 308.7,158.4 310.0,159.7 311.3,161.0 312.6,162.2 313.9,163.4 315.3,164.6 316.6,165.7 317.9,166.7 319.2,167.7 320.5,168.7 321.8,169.6 323.1,170.4 324.5,171.3 325.8,172.0 327.1,172.8 328.4,173.5 329.7,174.2 331.0,174.8 332.3,175.4 333.6,176.0 335.0,176.5 336.3,177.0 337.6,177.5 338.9,177.9 340.2,178.3 341.5,178.7 342.8,179.0 344.2,179.4 345.5,179.7 346.8,180.0 348.1,180.2 349.4,180.4 350.7,180.7 352.0,180.8 353.4,181.0 354.7,181.2 356.0,181.3 357.3,181.4 358.6,181.5 359.9,181.6 361.2,181.7 362.5,181.8 363.9,181.8 365.2,181.9 366.5,181.9 367.8,181.9 369.1,182.0 370.4,182.0 371.7,182.0 373.1,182.0 374.4,182.0 375.7,182.0 377.0,182.0 L377.0,182.0 Z" fill="#4a90d9" fill-opacity="0.06"/>
  <polyline points="42.0,182.0 43.3,182.0 44.6,182.0 45.9,182.0 47.3,182.0 48.6,182.0 49.9,182.0 51.2,181.9 52.5,181.9 53.8,181.9 55.1,181.8 56.5,181.8 57.8,181.7 59.1,181.6 60.4,181.5 61.7,181.4 63.0,181.3 64.3,181.2 65.6,181.0 67.0,180.8 68.3,180.7 69.6,180.4 70.9,180.2 72.2,180.0 73.5,179.7 74.8,179.4 76.2,179.0 77.5,178.7 78.8,178.3 80.1,177.9 81.4,177.5 82.7,177.0 84.0,176.5 85.4,176.0 86.7,175.4 88.0,174.8 89.3,174.2 90.6,173.5 91.9,172.8 93.2,172.0 94.5,171.3 95.9,170.4 97.2,169.6 98.5,168.7 99.8,167.7 101.1,166.7 102.4,165.7 103.7,164.6 105.1,163.4 106.4,162.2 107.7,161.0 109.0,159.7 110.3,158.4 111.6,157.0 112.9,155.6 114.3,154.1 115.6,152.5 116.9,150.9 118.2,149.2 119.5,147.5 120.8,145.7 122.1,143.9 123.5,142.0 124.8,140.0 126.1,138.0 127.4,135.9 128.7,133.7 130.0,131.5 131.3,129.3 132.6,126.9 134.0,124.6 135.3,122.2 136.6,119.7 137.9,117.2 139.2,114.7 140.5,112.1 141.8,109.5 143.2,106.9 144.5,104.3 145.8,101.6 147.1,98.9 148.4,96.2 149.7,93.5 151.0,90.8 152.4,88.1 153.7,85.3 155.0,82.6 156.3,79.9 157.6,77.2 158.9,74.4 160.2,71.7 161.5,69.1 162.9,66.4 164.2,63.8 165.5,61.1 166.8,58.5 168.1,56.0 169.4,53.5 170.7,51.0 172.1,48.5 173.4,46.1 174.7,43.7 176.0,41.4 177.3,39.1 178.6,36.9 179.9,34.8 181.3,32.7 182.6,30.6 183.9,28.7 185.2,26.8 186.5,25.0 187.8,23.2 189.1,21.6 190.5,20.0 191.8,18.5 193.1,17.1 194.4,15.7 195.7,14.5 197.0,13.4 198.3,12.3 199.6,11.4 201.0,10.6 202.3,9.9 203.6,9.3 204.9,8.8 206.2,8.4 207.5,8.1 208.8,8.0 210.2,8.0 211.5,8.1 212.8,8.4 214.1,8.8 215.4,9.3 216.7,9.9 218.0,10.6 219.4,11.4 220.7,12.3 222.0,13.4 223.3,14.5 224.6,15.7 225.9,17.1 227.2,18.5 228.5,20.0 229.9,21.6 231.2,23.2 232.5,25.0 233.8,26.8 235.1,28.7 236.4,30.6 237.7,32.7 239.1,34.8 240.4,36.9 241.7,39.1 243.0,41.4 244.3,43.7 245.6,46.1 246.9,48.5 248.3,51.0 249.6,53.5 250.9,56.0 252.2,58.5 253.5,61.1 254.8,63.8 256.1,66.4 257.5,69.1 258.8,71.7 260.1,74.4 261.4,77.2 262.7,79.9 264.0,82.6 265.3,85.3 266.6,88.1 268.0,90.8 269.3,93.5 270.6,96.2 271.9,98.9 273.2,101.6 274.5,104.3 275.8,106.9 277.2,109.5 278.5,112.1 279.8,114.7 281.1,117.2 282.4,119.7 283.7,122.2 285.0,124.6 286.4,126.9 287.7,129.3 289.0,131.5 290.3,133.7 291.6,135.9 292.9,138.0 294.2,140.0 295.5,142.0 296.9,143.9 298.2,145.7 299.5,147.5 300.8,149.2 302.1,150.9 303.4,152.5 304.7,154.1 306.1,155.6 307.4,157.0 308.7,158.4 310.0,159.7 311.3,161.0 312.6,162.2 313.9,163.4 315.3,164.6 316.6,165.7 317.9,166.7 319.2,167.7 320.5,168.7 321.8,169.6 323.1,170.4 324.5,171.3 325.8,172.0 327.1,172.8 328.4,173.5 329.7,174.2 331.0,174.8 332.3,175.4 333.6,176.0 335.0,176.5 336.3,177.0 337.6,177.5 338.9,177.9 340.2,178.3 341.5,178.7 342.8,179.0 344.2,179.4 345.5,179.7 346.8,180.0 348.1,180.2 349.4,180.4 350.7,180.7 352.0,180.8 353.4,181.0 354.7,181.2 356.0,181.3 357.3,181.4 358.6,181.5 359.9,181.6 361.2,181.7 362.5,181.8 363.9,181.8 365.2,181.9 366.5,181.9 367.8,181.9 369.1,182.0 370.4,182.0 371.7,182.0 373.1,182.0 374.4,182.0 375.7,182.0 377.0,182.0" fill="none" stroke="#4a90d9" stroke-width="1.5" stroke-linejoin="round"/>
  <line x1="450" y1="8.0" x2="785" y2="8.0" stroke="#e5e7eb" stroke-width="0.7"/>
  <text x="445" y="12.0" text-anchor="end" font-size="10" fill="#6b7280">0</text>
  <line x1="450" y1="66.0" x2="785" y2="66.0" stroke="#e5e7eb" stroke-width="0.7"/>
  <text x="445" y="70.0" text-anchor="end" font-size="10" fill="#6b7280">-40</text>
  <line x1="450" y1="124.0" x2="785" y2="124.0" stroke="#e5e7eb" stroke-width="0.7"/>
  <text x="445" y="128.0" text-anchor="end" font-size="10" fill="#6b7280">-80</text>
  <line x1="450" y1="182.0" x2="785" y2="182.0" stroke="#e5e7eb" stroke-width="0.7"/>
  <text x="445" y="186.0" text-anchor="end" font-size="10" fill="#6b7280">-120</text>
  <line x1="450.0" y1="8" x2="450.0" y2="182" stroke="#e5e7eb" stroke-width="0.7"/>
  <text x="450.0" y="198" text-anchor="middle" font-size="10" fill="#6b7280">0</text>
  <line x1="517.0" y1="8" x2="517.0" y2="182" stroke="#e5e7eb" stroke-width="0.7"/>
  <text x="517.0" y="198" text-anchor="middle" font-size="10" fill="#6b7280">0.1</text>
  <line x1="584.0" y1="8" x2="584.0" y2="182" stroke="#e5e7eb" stroke-width="0.7"/>
  <text x="584.0" y="198" text-anchor="middle" font-size="10" fill="#6b7280">0.2</text>
  <line x1="651.0" y1="8" x2="651.0" y2="182" stroke="#e5e7eb" stroke-width="0.7"/>
  <text x="651.0" y="198" text-anchor="middle" font-size="10" fill="#6b7280">0.3</text>
  <line x1="718.0" y1="8" x2="718.0" y2="182" stroke="#e5e7eb" stroke-width="0.7"/>
  <text x="718.0" y="198" text-anchor="middle" font-size="10" fill="#6b7280">0.4</text>
  <line x1="785.0" y1="8" x2="785.0" y2="182" stroke="#e5e7eb" stroke-width="0.7"/>
  <text x="785.0" y="198" text-anchor="middle" font-size="10" fill="#6b7280">0.5</text>
  <line x1="450" y1="8" x2="450" y2="182" stroke="#d1d5db" stroke-width="1"/>
  <line x1="450" y1="182" x2="785" y2="182" stroke="#d1d5db" stroke-width="1"/>
  <polyline points="450.0,8.0 450.2,8.0 450.3,8.1 450.5,8.2 450.7,8.3 450.8,8.5 451.0,8.7 451.1,9.0 451.3,9.3 451.5,9.6 451.6,10.0 451.8,10.5 452.0,10.9 452.1,11.4 452.3,12.0 452.5,12.6 452.6,13.2 452.8,13.9 452.9,14.7 453.1,15.5 453.3,16.3 453.4,17.2 453.6,18.1 453.8,19.1 453.9,20.1 454.1,21.2 454.3,22.4 454.4,23.6 454.6,24.9 454.7,26.2 454.9,27.6 455.1,29.0 455.2,30.6 455.4,32.1 455.6,33.8 455.7,35.6 455.9,37.4 456.1,39.3 456.2,41.3 456.4,43.4 456.5,45.6 456.7,47.9 456.9,50.4 457.0,52.9 457.2,55.6 457.4,58.4 457.5,61.4 457.7,64.6 457.9,68.0 458.0,71.6 458.2,75.4 458.3,79.5 458.5,83.9 458.7,88.6 458.8,93.8 459.0,99.5 459.2,105.8 459.3,112.9 459.5,121.0 459.7,130.4 459.8,141.7 460.0,155.9 460.1,175.1 460.3,182.0 460.5,182.0 460.6,182.0 460.8,182.0 461.0,169.0 461.1,154.3 461.3,143.3 461.5,134.6 461.6,127.5 461.8,121.5 461.9,116.4 462.1,112.0 462.3,108.2 462.4,104.9 462.6,101.9 462.8,99.3 462.9,97.0 463.1,95.0 463.3,93.2 463.4,91.6 463.6,90.2 463.7,89.0 463.9,88.0 464.1,87.1 464.2,86.4 464.4,85.9 464.6,85.4 464.7,85.1 464.9,85.0 465.1,84.9 465.2,85.0 465.4,85.2 465.5,85.5 465.7,85.9 465.9,86.4 466.0,87.1 466.2,87.9 466.4,88.8 466.5,89.8 466.7,90.9 466.9,92.1 467.0,93.5 467.2,95.0 467.3,96.7 467.5,98.5 467.7,100.4 467.8,102.6 468.0,104.9 468.2,107.4 468.3,110.1 468.5,113.0 468.7,116.2 468.8,119.6 469.0,123.4 469.1,127.5 469.3,132.1 469.5,137.2 469.6,142.8 469.8,149.2 470.0,156.6 470.1,165.1 470.3,175.5 470.5,182.0 470.6,182.0 470.8,182.0 470.9,182.0 471.1,182.0 471.3,182.0 471.4,182.0 471.6,182.0 471.8,179.0 471.9,169.5 472.1,161.7 472.3,155.1 472.4,149.5 472.6,144.6 472.7,140.4 472.9,136.6 473.1,133.3 473.2,130.3 473.4,127.6 473.6,125.2 473.7,123.1 473.9,121.2 474.1,119.5 474.2,118.0 474.4,116.7 474.5,115.5 474.7,114.5 474.9,113.7 475.0,113.0 475.2,112.4 475.4,112.0 475.5,111.7 475.7,111.5 475.9,111.4 476.0,111.5 476.2,111.7 476.3,112.0 476.5,112.4 476.7,112.9 476.8,113.6 477.0,114.3 477.2,115.2 477.3,116.3 477.5,117.4 477.7,118.7 477.8,120.2 478.0,121.8 478.1,123.5 478.3,125.4 478.5,127.5 478.6,129.8 478.8,132.3 479.0,135.0 479.1,137.9 479.3,141.1 479.5,144.7 479.6,148.6 479.8,152.9 479.9,157.6 480.1,163.0 480.3,169.0 480.4,176.0 480.6,182.0 480.8,182.0 480.9,182.0 481.1,182.0 481.3,182.0 481.4,182.0 481.6,182.0 481.7,182.0 481.9,182.0 482.1,182.0 482.2,182.0 482.4,182.0 482.6,182.0 482.7,176.2 482.9,170.3 483.1,165.1 483.2,160.6 483.4,156.6 483.5,153.0 483.7,149.8 483.9,147.0 484.0,144.4 484.2,142.1 484.4,140.0 484.5,138.2 484.7,136.5 484.9,135.1 485.0,133.8 485.2,132.6 485.3,131.7 485.5,130.8 485.7,130.1 485.8,129.6 486.0,129.1 486.2,128.8 486.3,128.6 486.5,128.6 486.7,128.6 486.8,128.8 487.0,129.1 487.1,129.5 487.3,130.1 487.5,130.7 487.6,131.5 487.8,132.4 488.0,133.5 488.1,134.6 488.3,136.0 488.5,137.4 488.6,139.1 488.8,140.8 488.9,142.8 489.1,145.0 489.3,147.3 489.4,149.9 489.6,152.7 489.8,155.8 489.9,159.1 490.1,162.9 490.3,167.0 490.4,171.6 490.6,176.7 490.7,182.0 490.9,182.0 491.1,182.0 491.2,182.0 491.4,182.0 491.6,182.0 491.7,182.0 491.9,182.0 492.1,182.0 492.2,182.0 492.4,182.0 492.6,182.0 492.7,182.0 492.9,182.0 493.0,182.0 493.2,182.0 493.4,182.0 493.5,180.3 493.7,175.5 493.9,171.3 494.0,167.6 494.2,164.3 494.4,161.3 494.5,158.6 494.7,156.2 494.8,154.0 495.0,152.0 495.2,150.3 495.3,148.7 495.5,147.3 495.7,146.1 495.8,145.0 496.0,144.1 496.2,143.3 496.3,142.7 496.5,142.1 496.6,141.8 496.8,141.5 497.0,141.3 497.1,141.3 497.3,141.4 497.5,141.6 497.6,142.0 497.8,142.4 498.0,143.0 498.1,143.7 498.3,144.6 498.4,145.5 498.6,146.6 498.8,147.9 498.9,149.2 499.1,150.8 499.3,152.5 499.4,154.4 499.6,156.4 499.8,158.7 499.9,161.1 500.1,163.8 500.2,166.8 500.4,170.1 500.6,173.6 500.7,177.6 500.9,182.0 501.1,182.0 501.2,182.0 501.4,182.0 501.6,182.0 501.7,182.0 501.9,182.0 502.0,182.0 502.2,182.0 502.4,182.0 502.5,182.0 502.7,182.0 502.9,182.0 503.0,182.0 503.2,182.0 503.4,182.0 503.5,182.0 503.7,182.0 503.8,182.0 504.0,182.0 504.2,182.0 504.3,182.0 504.5,179.3 504.7,175.8 504.8,172.7 505.0,169.9 505.2,167.4 505.3,165.1 505.5,163.1 505.6,161.3 505.8,159.6 506.0,158.1 506.1,156.8 506.3,155.7 506.5,154.7 506.6,153.8 506.8,153.1 507.0,152.5 507.1,152.1 507.3,151.8 507.4,151.6 507.6,151.5 507.8,151.5 507.9,151.7 508.1,151.9 508.3,152.3 508.4,152.9 508.6,153.5 508.8,154.3 508.9,155.2 509.1,156.2 509.2,157.4 509.4,158.7 509.6,160.2 509.7,161.8 509.9,163.6 510.1,165.6 510.2,167.7 510.4,170.1 510.6,172.7 510.7,175.6 510.9,178.8 511.0,182.0 511.2,182.0 511.4,182.0 511.5,182.0 511.7,182.0 511.9,182.0 512.0,182.0 512.2,182.0 512.4,182.0 512.5,182.0 512.7,182.0 512.8,182.0 513.0,182.0 513.2,182.0 513.3,182.0 513.5,182.0 513.7,182.0 513.8,182.0 514.0,182.0 514.2,182.0 514.3,182.0 514.5,182.0 514.6,182.0 514.8,182.0 515.0,182.0 515.1,182.0 515.3,182.0 515.5,179.4 515.6,176.8 515.8,174.5 516.0,172.3 516.1,170.4 516.3,168.7 516.4,167.2 516.6,165.8 516.8,164.6 516.9,163.5 517.1,162.6 517.3,161.9 517.4,161.2 517.6,160.7 517.8,160.3 517.9,160.1 518.1,159.9 518.2,159.9 518.4,160.0 518.6,160.2 518.7,160.6 518.9,161.1 519.1,161.7 519.2,162.4 519.4,163.2 519.6,164.2 519.7,165.3 519.9,166.6 520.0,168.0 520.2,169.5 520.4,171.3 520.5,173.2 520.7,175.3 520.9,177.6 521.0,180.1 521.2,182.0 521.4,182.0 521.5,182.0 521.7,182.0 521.8,182.0 522.0,182.0 522.2,182.0 522.3,182.0 522.5,182.0 522.7,182.0 522.8,182.0 523.0,182.0 523.2,182.0 523.3,182.0 523.5,182.0 523.6,182.0 523.8,182.0 524.0,182.0 524.1,182.0 524.3,182.0 524.5,182.0 524.6,182.0 524.8,182.0 525.0,182.0 525.1,182.0 525.3,182.0 525.4,182.0 525.6,182.0 525.8,182.0 525.9,182.0 526.1,182.0 526.3,182.0 526.4,180.3 526.6,178.3 526.8,176.6 526.9,175.0 527.1,173.5 527.2,172.3 527.4,171.2 527.6,170.2 527.7,169.4 527.9,168.7 528.1,168.1 528.2,167.7 528.4,167.4 528.6,167.2 528.7,167.1 528.9,167.2 529.0,167.4 529.2,167.7 529.4,168.1 529.5,168.6 529.7,169.3 529.9,170.1 530.0,171.0 530.2,172.1 530.4,173.3 530.5,174.7 530.7,176.2 530.8,177.8 531.0,179.7 531.2,181.7 531.3,182.0 531.5,182.0 531.7,182.0 531.8,182.0 532.0,182.0 532.2,182.0 532.3,182.0 532.5,182.0 532.6,182.0 532.8,182.0 533.0,182.0 533.1,182.0 533.3,182.0 533.5,182.0 533.6,182.0 533.8,182.0 534.0,182.0 534.1,182.0 534.3,182.0 534.4,182.0 534.6,182.0 534.8,182.0 534.9,182.0 535.1,182.0 535.3,182.0 535.4,182.0 535.6,182.0 535.8,182.0 535.9,182.0 536.1,182.0 536.2,182.0 536.4,182.0 536.6,182.0 536.7,182.0 536.9,182.0 537.1,182.0 537.2,182.0 537.4,181.8 537.6,180.3 537.7,179.0 537.9,177.8 538.0,176.8 538.2,176.0 538.4,175.2 538.5,174.6 538.7,174.1 538.9,173.8 539.0,173.6 539.2,173.5 539.4,173.5 539.5,173.6 539.7,173.9 539.8,174.2 540.0,174.7 540.2,175.4 540.3,176.1 540.5,177.0 540.7,178.0 540.8,179.2 541.0,180.5 541.2,182.0 541.3,182.0 541.5,182.0 541.6,182.0 541.8,182.0 542.0,182.0 542.1,182.0 542.3,182.0 542.5,182.0 542.6,182.0 542.8,182.0 543.0,182.0 543.1,182.0 543.3,182.0 543.4,182.0 543.6,182.0 543.8,182.0 543.9,182.0 544.1,182.0 544.3,182.0 544.4,182.0 544.6,182.0 544.8,182.0 544.9,182.0 545.1,182.0 545.2,182.0 545.4,182.0 545.6,182.0 545.7,182.0 545.9,182.0 546.1,182.0 546.2,182.0 546.4,182.0 546.6,182.0 546.7,182.0 546.9,182.0 547.0,182.0 547.2,182.0 547.4,182.0 547.5,182.0 547.7,182.0 547.9,182.0 548.0,182.0 548.2,182.0 548.4,182.0 548.5,182.0 548.7,181.8 548.8,181.1 549.0,180.4 549.2,179.9 549.3,179.5 549.5,179.2 549.7,179.1 549.8,179.1 550.0,179.2 550.2,179.4 550.3,179.7 550.5,180.2 550.6,180.8 550.8,181.5 551.0,182.0 551.1,182.0 551.3,182.0 551.5,182.0 551.6,182.0 551.8,182.0 552.0,182.0 552.1,182.0 552.3,182.0 552.4,182.0 552.6,182.0 552.8,182.0 552.9,182.0 553.1,182.0 553.3,182.0 553.4,182.0 553.6,182.0 553.8,182.0 553.9,182.0 554.1,182.0 554.2,182.0 554.4,182.0 554.6,182.0 554.7,182.0 554.9,182.0 555.1,182.0 555.2,182.0 555.4,182.0 555.6,182.0 555.7,182.0 555.9,182.0 556.0,182.0 556.2,182.0 556.4,182.0 556.5,182.0 556.7,182.0 556.9,182.0 557.0,182.0 557.2,182.0 557.4,182.0 557.5,182.0 557.7,182.0 557.8,182.0 558.0,182.0 558.2,182.0 558.3,182.0 558.5,182.0 558.7,182.0 558.8,182.0 559.0,182.0 559.2,182.0 559.3,182.0 559.5,182.0 559.6,182.0 559.8,182.0 560.0,182.0 560.1,182.0 560.3,182.0 560.5,182.0 560.6,182.0 560.8,182.0 561.0,182.0 561.1,182.0 561.3,182.0 561.4,182.0 561.6,182.0 561.8,182.0 561.9,182.0 562.1,182.0 562.3,182.0 562.4,182.0 562.6,182.0 562.8,182.0 562.9,182.0 563.1,182.0 563.2,182.0 563.4,182.0 563.6,182.0 563.7,182.0 563.9,182.0 564.1,182.0 564.2,182.0 564.4,182.0 564.6,182.0 564.7,182.0 564.9,182.0 565.0,182.0 565.2,182.0 565.4,182.0 565.5,182.0 565.7,182.0 565.9,182.0 566.0,182.0 566.2,182.0 566.4,182.0 566.5,182.0 566.7,182.0 566.8,182.0 567.0,182.0 567.2,182.0 567.3,182.0 567.5,182.0 567.7,182.0 567.8,182.0 568.0,182.0 568.2,182.0 568.3,182.0 568.5,182.0 568.6,182.0 568.8,182.0 569.0,182.0 569.1,182.0 569.3,182.0 569.5,182.0 569.6,182.0 569.8,182.0 570.0,182.0 570.1,182.0 570.3,182.0 570.4,182.0 570.6,182.0 570.8,182.0 570.9,182.0 571.1,182.0 571.3,182.0 571.4,182.0 571.6,182.0 571.8,182.0 571.9,182.0 572.1,182.0 572.2,182.0 572.4,182.0 572.6,182.0 572.7,182.0 572.9,182.0 573.1,182.0 573.2,182.0 573.4,182.0 573.6,182.0 573.7,182.0 573.9,182.0 574.0,182.0 574.2,182.0 574.4,182.0 574.5,182.0 574.7,182.0 574.9,182.0 575.0,182.0 575.2,182.0 575.4,182.0 575.5,182.0 575.7,182.0 575.9,182.0 576.0,182.0 576.2,182.0 576.3,182.0 576.5,182.0 576.7,182.0 576.8,182.0 577.0,182.0 577.2,182.0 577.3,182.0 577.5,182.0 577.7,182.0 577.8,182.0 578.0,182.0 578.1,182.0 578.3,182.0 578.5,182.0 578.6,182.0 578.8,182.0 579.0,182.0 579.1,182.0 579.3,182.0 579.5,182.0 579.6,182.0 579.8,182.0 579.9,182.0 580.1,182.0 580.3,182.0 580.4,182.0 580.6,182.0 580.8,182.0 580.9,182.0 581.1,182.0 581.3,182.0 581.4,182.0 581.6,182.0 581.7,182.0 581.9,182.0 582.1,182.0 582.2,182.0 582.4,182.0 582.6,182.0 582.7,182.0 582.9,182.0 583.1,182.0 583.2,182.0 583.4,182.0 583.5,182.0 583.7,182.0 583.9,182.0 584.0,182.0 584.2,182.0 584.4,182.0 584.5,182.0 584.7,182.0 584.9,182.0 585.0,182.0 585.2,182.0 585.3,182.0 585.5,182.0 585.7,182.0 585.8,182.0 586.0,182.0 586.2,182.0 586.3,182.0 586.5,182.0 586.7,182.0 586.8,182.0 587.0,182.0 587.1,182.0 587.3,182.0 587.5,182.0 587.6,182.0 587.8,182.0 588.0,182.0 588.1,182.0 588.3,182.0 588.5,182.0 588.6,182.0 588.8,182.0 588.9,182.0 589.1,182.0 589.3,182.0 589.4,182.0 589.6,182.0 589.8,182.0 589.9,182.0 590.1,182.0 590.3,182.0 590.4,182.0 590.6,182.0 590.7,182.0 590.9,182.0 591.1,182.0 591.2,182.0 591.4,182.0 591.6,182.0 591.7,182.0 591.9,182.0 592.1,182.0 592.2,182.0 592.4,182.0 592.5,182.0 592.7,182.0 592.9,182.0 593.0,182.0 593.2,182.0 593.4,182.0 593.5,182.0 593.7,182.0 593.9,182.0 594.0,182.0 594.2,182.0 594.3,182.0 594.5,182.0 594.7,182.0 594.8,182.0 595.0,182.0 595.2,182.0 595.3,182.0 595.5,182.0 595.7,182.0 595.8,182.0 596.0,182.0 596.1,182.0 596.3,182.0 596.5,182.0 596.6,182.0 596.8,182.0 597.0,182.0 597.1,182.0 597.3,182.0 597.5,182.0 597.6,182.0 597.8,182.0 597.9,182.0 598.1,182.0 598.3,182.0 598.4,182.0 598.6,182.0 598.8,182.0 598.9,182.0 599.1,182.0 599.3,182.0 599.4,182.0 599.6,182.0 599.7,182.0 599.9,182.0 600.1,182.0 600.2,182.0 600.4,182.0 600.6,182.0 600.7,182.0 600.9,182.0 601.1,182.0 601.2,182.0 601.4,182.0 601.5,182.0 601.7,182.0 601.9,182.0 602.0,182.0 602.2,182.0 602.4,182.0 602.5,182.0 602.7,182.0 602.9,182.0 603.0,182.0 603.2,182.0 603.3,182.0 603.5,182.0 603.7,182.0 603.8,182.0 604.0,182.0 604.2,182.0 604.3,182.0 604.5,182.0 604.7,182.0 604.8,182.0 605.0,182.0 605.1,182.0 605.3,182.0 605.5,182.0 605.6,182.0 605.8,182.0 606.0,182.0 606.1,182.0 606.3,182.0 606.5,182.0 606.6,182.0 606.8,182.0 606.9,182.0 607.1,182.0 607.3,182.0 607.4,182.0 607.6,182.0 607.8,182.0 607.9,182.0 608.1,182.0 608.3,182.0 608.4,182.0 608.6,182.0 608.7,182.0 608.9,182.0 609.1,182.0 609.2,182.0 609.4,182.0 609.6,182.0 609.7,182.0 609.9,182.0 610.1,182.0 610.2,182.0 610.4,182.0 610.5,182.0 610.7,182.0 610.9,182.0 611.0,182.0 611.2,182.0 611.4,182.0 611.5,182.0 611.7,182.0 611.9,182.0 612.0,182.0 612.2,182.0 612.3,182.0 612.5,182.0 612.7,182.0 612.8,182.0 613.0,182.0 613.2,182.0 613.3,182.0 613.5,182.0 613.7,182.0 613.8,182.0 614.0,182.0 614.1,182.0 614.3,182.0 614.5,182.0 614.6,182.0 614.8,182.0 615.0,182.0 615.1,182.0 615.3,182.0 615.5,182.0 615.6,182.0 615.8,182.0 615.9,182.0 616.1,182.0 616.3,182.0 616.4,182.0 616.6,182.0 616.8,182.0 616.9,182.0 617.1,182.0 617.3,182.0 617.4,182.0 617.6,182.0 617.7,182.0 617.9,182.0 618.1,182.0 618.2,182.0 618.4,182.0 618.6,182.0 618.7,182.0 618.9,182.0 619.1,182.0 619.2,182.0 619.4,182.0 619.5,182.0 619.7,182.0 619.9,182.0 620.0,182.0 620.2,182.0 620.4,182.0 620.5,182.0 620.7,182.0 620.9,182.0 621.0,182.0 621.2,182.0 621.3,182.0 621.5,182.0 621.7,182.0 621.8,182.0 622.0,182.0 622.2,182.0 622.3,182.0 622.5,182.0 622.7,182.0 622.8,182.0 623.0,182.0 623.1,182.0 623.3,182.0 623.5,182.0 623.6,182.0 623.8,182.0 624.0,182.0 624.1,182.0 624.3,182.0 624.5,182.0 624.6,182.0 624.8,182.0 624.9,182.0 625.1,182.0 625.3,182.0 625.4,182.0 625.6,182.0 625.8,182.0 625.9,182.0 626.1,182.0 626.3,182.0 626.4,182.0 626.6,182.0 626.7,182.0 626.9,182.0 627.1,182.0 627.2,182.0 627.4,182.0 627.6,182.0 627.7,182.0 627.9,182.0 628.1,182.0 628.2,182.0 628.4,182.0 628.5,182.0 628.7,182.0 628.9,182.0 629.0,182.0 629.2,182.0 629.4,182.0 629.5,182.0 629.7,182.0 629.9,182.0 630.0,182.0 630.2,182.0 630.3,182.0 630.5,182.0 630.7,182.0 630.8,182.0 631.0,182.0 631.2,182.0 631.3,182.0 631.5,182.0 631.7,182.0 631.8,182.0 632.0,182.0 632.1,182.0 632.3,182.0 632.5,182.0 632.6,182.0 632.8,182.0 633.0,182.0 633.1,182.0 633.3,182.0 633.5,182.0 633.6,182.0 633.8,182.0 633.9,182.0 634.1,182.0 634.3,182.0 634.4,182.0 634.6,182.0 634.8,182.0 634.9,182.0 635.1,182.0 635.3,182.0 635.4,182.0 635.6,182.0 635.7,182.0 635.9,182.0 636.1,182.0 636.2,182.0 636.4,182.0 636.6,182.0 636.7,182.0 636.9,182.0 637.1,182.0 637.2,182.0 637.4,182.0 637.5,182.0 637.7,182.0 637.9,182.0 638.0,182.0 638.2,182.0 638.4,182.0 638.5,182.0 638.7,182.0 638.9,182.0 639.0,182.0 639.2,182.0 639.3,182.0 639.5,182.0 639.7,182.0 639.8,182.0 640.0,182.0 640.2,182.0 640.3,182.0 640.5,182.0 640.7,182.0 640.8,182.0 641.0,182.0 641.1,182.0 641.3,182.0 641.5,182.0 641.6,182.0 641.8,182.0 642.0,182.0 642.1,182.0 642.3,182.0 642.5,182.0 642.6,182.0 642.8,182.0 642.9,182.0 643.1,182.0 643.3,182.0 643.4,182.0 643.6,182.0 643.8,182.0 643.9,182.0 644.1,182.0 644.3,182.0 644.4,182.0 644.6,182.0 644.7,182.0 644.9,182.0 645.1,182.0 645.2,182.0 645.4,182.0 645.6,182.0 645.7,182.0 645.9,182.0 646.1,182.0 646.2,182.0 646.4,182.0 646.5,182.0 646.7,182.0 646.9,182.0 647.0,182.0 647.2,182.0 647.4,182.0 647.5,182.0 647.7,182.0 647.9,182.0 648.0,182.0 648.2,182.0 648.3,182.0 648.5,182.0 648.7,182.0 648.8,182.0 649.0,182.0 649.2,182.0 649.3,182.0 649.5,182.0 649.7,182.0 649.8,182.0 650.0,182.0 650.1,182.0 650.3,182.0 650.5,182.0 650.6,182.0 650.8,182.0 651.0,182.0 651.1,182.0 651.3,182.0 651.5,182.0 651.6,182.0 651.8,182.0 651.9,182.0 652.1,182.0 652.3,182.0 652.4,182.0 652.6,182.0 652.8,182.0 652.9,182.0 653.1,182.0 653.3,182.0 653.4,182.0 653.6,182.0 653.7,182.0 653.9,182.0 654.1,182.0 654.2,182.0 654.4,182.0 654.6,182.0 654.7,182.0 654.9,182.0 655.1,182.0 655.2,182.0 655.4,182.0 655.5,182.0 655.7,182.0 655.9,182.0 656.0,182.0 656.2,182.0 656.4,182.0 656.5,182.0 656.7,182.0 656.9,182.0 657.0,182.0 657.2,182.0 657.3,182.0 657.5,182.0 657.7,182.0 657.8,182.0 658.0,182.0 658.2,182.0 658.3,182.0 658.5,182.0 658.7,182.0 658.8,182.0 659.0,182.0 659.1,182.0 659.3,182.0 659.5,182.0 659.6,182.0 659.8,182.0 660.0,182.0 660.1,182.0 660.3,182.0 660.5,182.0 660.6,182.0 660.8,182.0 661.0,182.0 661.1,182.0 661.3,182.0 661.4,182.0 661.6,182.0 661.8,182.0 661.9,182.0 662.1,182.0 662.3,182.0 662.4,182.0 662.6,182.0 662.8,182.0 662.9,182.0 663.1,182.0 663.2,182.0 663.4,182.0 663.6,182.0 663.7,182.0 663.9,182.0 664.1,182.0 664.2,182.0 664.4,182.0 664.6,182.0 664.7,182.0 664.9,182.0 665.0,182.0 665.2,182.0 665.4,182.0 665.5,182.0 665.7,182.0 665.9,182.0 666.0,182.0 666.2,182.0 666.4,182.0 666.5,182.0 666.7,182.0 666.8,182.0 667.0,182.0 667.2,182.0 667.3,182.0 667.5,182.0 667.7,182.0 667.8,182.0 668.0,182.0 668.2,182.0 668.3,182.0 668.5,182.0 668.6,182.0 668.8,182.0 669.0,182.0 669.1,182.0 669.3,182.0 669.5,182.0 669.6,182.0 669.8,182.0 670.0,182.0 670.1,182.0 670.3,182.0 670.4,182.0 670.6,182.0 670.8,182.0 670.9,182.0 671.1,182.0 671.3,182.0 671.4,182.0 671.6,182.0 671.8,182.0 671.9,182.0 672.1,182.0 672.2,182.0 672.4,182.0 672.6,182.0 672.7,182.0 672.9,182.0 673.1,182.0 673.2,182.0 673.4,182.0 673.6,182.0 673.7,182.0 673.9,182.0 674.0,182.0 674.2,182.0 674.4,182.0 674.5,182.0 674.7,182.0 674.9,182.0 675.0,182.0 675.2,182.0 675.4,182.0 675.5,182.0 675.7,182.0 675.8,182.0 676.0,182.0 676.2,182.0 676.3,182.0 676.5,182.0 676.7,182.0 676.8,182.0 677.0,182.0 677.2,182.0 677.3,182.0 677.5,182.0 677.6,182.0 677.8,182.0 678.0,182.0 678.1,182.0 678.3,182.0 678.5,182.0 678.6,182.0 678.8,182.0 679.0,182.0 679.1,182.0 679.3,182.0 679.4,182.0 679.6,182.0 679.8,182.0 679.9,182.0 680.1,182.0 680.3,182.0 680.4,182.0 680.6,182.0 680.8,182.0 680.9,182.0 681.1,182.0 681.2,182.0 681.4,182.0 681.6,182.0 681.7,182.0 681.9,182.0 682.1,182.0 682.2,182.0 682.4,182.0 682.6,182.0 682.7,182.0 682.9,182.0 683.0,182.0 683.2,182.0 683.4,182.0 683.5,182.0 683.7,182.0 683.9,182.0 684.0,182.0 684.2,182.0 684.4,182.0 684.5,182.0 684.7,182.0 684.8,182.0 685.0,182.0 685.2,182.0 685.3,182.0 685.5,182.0 685.7,182.0 685.8,182.0 686.0,182.0 686.2,182.0 686.3,182.0 686.5,182.0 686.6,182.0 686.8,182.0 687.0,182.0 687.1,182.0 687.3,182.0 687.5,182.0 687.6,182.0 687.8,182.0 688.0,182.0 688.1,182.0 688.3,182.0 688.4,182.0 688.6,182.0 688.8,182.0 688.9,182.0 689.1,182.0 689.3,182.0 689.4,182.0 689.6,182.0 689.8,182.0 689.9,182.0 690.1,182.0 690.2,182.0 690.4,182.0 690.6,182.0 690.7,182.0 690.9,182.0 691.1,182.0 691.2,182.0 691.4,182.0 691.6,182.0 691.7,182.0 691.9,182.0 692.0,182.0 692.2,182.0 692.4,182.0 692.5,182.0 692.7,182.0 692.9,182.0 693.0,182.0 693.2,182.0 693.4,182.0 693.5,182.0 693.7,182.0 693.8,182.0 694.0,182.0 694.2,182.0 694.3,182.0 694.5,182.0 694.7,182.0 694.8,182.0 695.0,182.0 695.2,182.0 695.3,182.0 695.5,182.0 695.6,182.0 695.8,182.0 696.0,182.0 696.1,182.0 696.3,182.0 696.5,182.0 696.6,182.0 696.8,182.0 697.0,182.0 697.1,182.0 697.3,182.0 697.4,182.0 697.6,182.0 697.8,182.0 697.9,182.0 698.1,182.0 698.3,182.0 698.4,182.0 698.6,182.0 698.8,182.0 698.9,182.0 699.1,182.0 699.2,182.0 699.4,182.0 699.6,182.0 699.7,182.0 699.9,182.0 700.1,182.0 700.2,182.0 700.4,182.0 700.6,182.0 700.7,182.0 700.9,182.0 701.0,182.0 701.2,182.0 701.4,182.0 701.5,182.0 701.7,182.0 701.9,182.0 702.0,182.0 702.2,182.0 702.4,182.0 702.5,182.0 702.7,182.0 702.8,182.0 703.0,182.0 703.2,182.0 703.3,182.0 703.5,182.0 703.7,182.0 703.8,182.0 704.0,182.0 704.2,182.0 704.3,182.0 704.5,182.0 704.6,182.0 704.8,182.0 705.0,182.0 705.1,182.0 705.3,182.0 705.5,182.0 705.6,182.0 705.8,182.0 706.0,182.0 706.1,182.0 706.3,182.0 706.4,182.0 706.6,182.0 706.8,182.0 706.9,182.0 707.1,182.0 707.3,182.0 707.4,182.0 707.6,182.0 707.8,182.0 707.9,182.0 708.1,182.0 708.2,182.0 708.4,182.0 708.6,182.0 708.7,182.0 708.9,182.0 709.1,182.0 709.2,182.0 709.4,182.0 709.6,182.0 709.7,182.0 709.9,182.0 710.0,182.0 710.2,182.0 710.4,182.0 710.5,182.0 710.7,182.0 710.9,182.0 711.0,182.0 711.2,182.0 711.4,182.0 711.5,182.0 711.7,182.0 711.8,182.0 712.0,182.0 712.2,182.0 712.3,182.0 712.5,182.0 712.7,182.0 712.8,182.0 713.0,182.0 713.2,182.0 713.3,182.0 713.5,182.0 713.6,182.0 713.8,182.0 714.0,182.0 714.1,182.0 714.3,182.0 714.5,182.0 714.6,182.0 714.8,182.0 715.0,182.0 715.1,182.0 715.3,182.0 715.4,182.0 715.6,182.0 715.8,182.0 715.9,182.0 716.1,182.0 716.3,182.0 716.4,182.0 716.6,182.0 716.8,182.0 716.9,182.0 717.1,182.0 717.2,182.0 717.4,182.0 717.6,182.0 717.7,182.0 717.9,182.0 718.1,182.0 718.2,182.0 718.4,182.0 718.6,182.0 718.7,182.0 718.9,182.0 719.0,182.0 719.2,182.0 719.4,182.0 719.5,182.0 719.7,182.0 719.9,182.0 720.0,182.0 720.2,182.0 720.4,182.0 720.5,182.0 720.7,182.0 720.8,182.0 721.0,182.0 721.2,182.0 721.3,182.0 721.5,182.0 721.7,182.0 721.8,182.0 722.0,182.0 722.2,182.0 722.3,182.0 722.5,182.0 722.6,182.0 722.8,182.0 723.0,182.0 723.1,182.0 723.3,182.0 723.5,182.0 723.6,182.0 723.8,182.0 724.0,182.0 724.1,182.0 724.3,182.0 724.4,182.0 724.6,182.0 724.8,182.0 724.9,182.0 725.1,182.0 725.3,182.0 725.4,182.0 725.6,182.0 725.8,182.0 725.9,182.0 726.1,182.0 726.2,182.0 726.4,182.0 726.6,182.0 726.7,182.0 726.9,182.0 727.1,182.0 727.2,182.0 727.4,182.0 727.6,182.0 727.7,182.0 727.9,182.0 728.0,182.0 728.2,182.0 728.4,182.0 728.5,182.0 728.7,182.0 728.9,182.0 729.0,182.0 729.2,182.0 729.4,182.0 729.5,182.0 729.7,182.0 729.8,182.0 730.0,182.0 730.2,182.0 730.3,182.0 730.5,182.0 730.7,182.0 730.8,182.0 731.0,182.0 731.2,182.0 731.3,182.0 731.5,182.0 731.6,182.0 731.8,182.0 732.0,182.0 732.1,182.0 732.3,182.0 732.5,182.0 732.6,182.0 732.8,182.0 733.0,182.0 733.1,182.0 733.3,182.0 733.4,182.0 733.6,182.0 733.8,182.0 733.9,182.0 734.1,182.0 734.3,182.0 734.4,182.0 734.6,182.0 734.8,182.0 734.9,182.0 735.1,182.0 735.2,182.0 735.4,182.0 735.6,182.0 735.7,182.0 735.9,182.0 736.1,182.0 736.2,182.0 736.4,182.0 736.6,182.0 736.7,182.0 736.9,182.0 737.0,182.0 737.2,182.0 737.4,182.0 737.5,182.0 737.7,182.0 737.9,182.0 738.0,182.0 738.2,182.0 738.4,182.0 738.5,182.0 738.7,182.0 738.8,182.0 739.0,182.0 739.2,182.0 739.3,182.0 739.5,182.0 739.7,182.0 739.8,182.0 740.0,182.0 740.2,182.0 740.3,182.0 740.5,182.0 740.6,182.0 740.8,182.0 741.0,182.0 741.1,182.0 741.3,182.0 741.5,182.0 741.6,182.0 741.8,182.0 742.0,182.0 742.1,182.0 742.3,182.0 742.4,182.0 742.6,182.0 742.8,182.0 742.9,182.0 743.1,182.0 743.3,182.0 743.4,182.0 743.6,182.0 743.8,182.0 743.9,182.0 744.1,182.0 744.3,182.0 744.4,182.0 744.6,182.0 744.7,182.0 744.9,182.0 745.1,182.0 745.2,182.0 745.4,182.0 745.6,182.0 745.7,182.0 745.9,182.0 746.1,182.0 746.2,182.0 746.4,182.0 746.5,182.0 746.7,182.0 746.9,182.0 747.0,182.0 747.2,182.0 747.4,182.0 747.5,182.0 747.7,182.0 747.9,182.0 748.0,182.0 748.2,182.0 748.3,182.0 748.5,182.0 748.7,182.0 748.8,182.0 749.0,182.0 749.2,182.0 749.3,182.0 749.5,182.0 749.7,182.0 749.8,182.0 750.0,182.0 750.1,182.0 750.3,182.0 750.5,182.0 750.6,182.0 750.8,182.0 751.0,182.0 751.1,182.0 751.3,182.0 751.5,182.0 751.6,182.0 751.8,182.0 751.9,182.0 752.1,182.0 752.3,182.0 752.4,182.0 752.6,182.0 752.8,182.0 752.9,182.0 753.1,182.0 753.3,182.0 753.4,182.0 753.6,182.0 753.7,182.0 753.9,182.0 754.1,182.0 754.2,182.0 754.4,182.0 754.6,182.0 754.7,182.0 754.9,182.0 755.1,182.0 755.2,182.0 755.4,182.0 755.5,182.0 755.7,182.0 755.9,182.0 756.0,182.0 756.2,182.0 756.4,182.0 756.5,182.0 756.7,182.0 756.9,182.0 757.0,182.0 757.2,182.0 757.3,182.0 757.5,182.0 757.7,182.0 757.8,182.0 758.0,182.0 758.2,182.0 758.3,182.0 758.5,182.0 758.7,182.0 758.8,182.0 759.0,182.0 759.1,182.0 759.3,182.0 759.5,182.0 759.6,182.0 759.8,182.0 760.0,182.0 760.1,182.0 760.3,182.0 760.5,182.0 760.6,182.0 760.8,182.0 760.9,182.0 761.1,182.0 761.3,182.0 761.4,182.0 761.6,182.0 761.8,182.0 761.9,182.0 762.1,182.0 762.3,182.0 762.4,182.0 762.6,182.0 762.7,182.0 762.9,182.0 763.1,182.0 763.2,182.0 763.4,182.0 763.6,182.0 763.7,182.0 763.9,182.0 764.1,182.0 764.2,182.0 764.4,182.0 764.5,182.0 764.7,182.0 764.9,182.0 765.0,182.0 765.2,182.0 765.4,182.0 765.5,182.0 765.7,182.0 765.9,182.0 766.0,182.0 766.2,182.0 766.3,182.0 766.5,182.0 766.7,182.0 766.8,182.0 767.0,182.0 767.2,182.0 767.3,182.0 767.5,182.0 767.7,182.0 767.8,182.0 768.0,182.0 768.1,182.0 768.3,182.0 768.5,182.0 768.6,182.0 768.8,182.0 769.0,182.0 769.1,182.0 769.3,182.0 769.5,182.0 769.6,182.0 769.8,182.0 769.9,182.0 770.1,182.0 770.3,182.0 770.4,182.0 770.6,182.0 770.8,182.0 770.9,182.0 771.1,182.0 771.3,182.0 771.4,182.0 771.6,182.0 771.7,182.0 771.9,182.0 772.1,182.0 772.2,182.0 772.4,182.0 772.6,182.0 772.7,182.0 772.9,182.0 773.1,182.0 773.2,182.0 773.4,182.0 773.5,182.0 773.7,182.0 773.9,182.0 774.0,182.0 774.2,182.0 774.4,182.0 774.5,182.0 774.7,182.0 774.9,182.0 775.0,182.0 775.2,182.0 775.3,182.0 775.5,182.0 775.7,182.0 775.8,182.0 776.0,182.0 776.2,182.0 776.3,182.0 776.5,182.0 776.7,182.0 776.8,182.0 777.0,182.0 777.1,182.0 777.3,182.0 777.5,182.0 777.6,182.0 777.8,182.0 778.0,182.0 778.1,182.0 778.3,182.0 778.5,182.0 778.6,182.0 778.8,182.0 778.9,182.0 779.1,182.0 779.3,182.0 779.4,182.0 779.6,182.0 779.8,182.0 779.9,182.0 780.1,182.0 780.3,182.0 780.4,182.0 780.6,182.0 780.7,182.0 780.9,182.0 781.1,182.0 781.2,182.0 781.4,182.0 781.6,182.0 781.7,182.0 781.9,182.0 782.1,182.0 782.2,182.0 782.4,182.0 782.5,182.0 782.7,182.0 782.9,182.0 783.0,182.0 783.2,182.0 783.4,182.0 783.5,182.0 783.7,182.0 783.9,182.0 784.0,182.0 784.2,182.0 784.3,182.0 784.5,182.0 784.7,182.0 784.8,182.0 785.0,182.0" fill="none" stroke="#4a90d9" stroke-width="1.5" stroke-linejoin="round"/>
  <text x="209.5" y="214" text-anchor="middle" font-size="11" fill="#6b7280">n / N</text>
  <text x="617.5" y="214" text-anchor="middle" font-size="11" fill="#6b7280">Normalized frequency (× Fₛ)</text>
</svg>
