<svg xmlns="http://www.w3.org/2000/svg" viewBox="0 0 560 210" width="560" height="210" style="font-family:system-ui,-apple-system,sans-serif">
  <rect width="560" height="210" fill="#fafafa" rx="6"/>
  <text x="280" y="18" text-anchor="middle" font-size="12" font-weight="600" fill="#374151">planckTaper</text>
  <line x1="52" y1="166.0" x2="257" y2="166.0" stroke="#e5e7eb" stroke-width="0.5"/>
  <text x="48" y="169.0" text-anchor="end" font-size="7.5" fill="#6b7280">0</text>
  <line x1="52" y1="97.0" x2="257" y2="97.0" stroke="#e5e7eb" stroke-width="0.5"/>
  <text x="48" y="100.0" text-anchor="end" font-size="7.5" fill="#6b7280">0.5</text>
  <line x1="52" y1="28.0" x2="257" y2="28.0" stroke="#e5e7eb" stroke-width="0.5"/>
  <text x="48" y="31.0" text-anchor="end" font-size="7.5" fill="#6b7280">1</text>
  <line x1="52.0" y1="28" x2="52.0" y2="166" stroke="#e5e7eb" stroke-width="0.5"/>
  <text x="52.0" y="178" text-anchor="middle" font-size="7.5" fill="#6b7280">0</text>
  <line x1="154.5" y1="28" x2="154.5" y2="166" stroke="#e5e7eb" stroke-width="0.5"/>
  <text x="154.5" y="178" text-anchor="middle" font-size="7.5" fill="#6b7280">0.5</text>
  <line x1="257.0" y1="28" x2="257.0" y2="166" stroke="#e5e7eb" stroke-width="0.5"/>
  <text x="257.0" y="178" text-anchor="middle" font-size="7.5" fill="#6b7280">1</text>
  <line x1="52" y1="28" x2="52" y2="166" stroke="#d1d5db" stroke-width="0.75"/>
  <line x1="52" y1="166" x2="257" y2="166" stroke="#d1d5db" stroke-width="0.75"/>
  <path d="M52.0,166.0 52.0,166.0 52.8,166.0 53.6,166.0 54.4,165.9 55.2,165.2 56.0,163.1 56.8,159.1 57.6,153.0 58.4,145.2 59.2,136.2 60.0,126.2 60.8,115.8 61.6,105.1 62.5,94.3 63.3,83.5 64.1,72.9 64.9,62.7 65.7,53.2 66.5,44.7 67.3,37.7 68.1,32.6 68.9,29.6 69.7,28.3 70.5,28.0 71.3,28.0 72.1,28.0 72.9,28.0 73.7,28.0 74.5,28.0 75.3,28.0 76.1,28.0 76.9,28.0 77.7,28.0 78.5,28.0 79.3,28.0 80.1,28.0 80.9,28.0 81.7,28.0 82.5,28.0 83.4,28.0 84.2,28.0 85.0,28.0 85.8,28.0 86.6,28.0 87.4,28.0 88.2,28.0 89.0,28.0 89.8,28.0 90.6,28.0 91.4,28.0 92.2,28.0 93.0,28.0 93.8,28.0 94.6,28.0 95.4,28.0 96.2,28.0 97.0,28.0 97.8,28.0 98.6,28.0 99.4,28.0 100.2,28.0 101.0,28.0 101.8,28.0 102.6,28.0 103.5,28.0 104.3,28.0 105.1,28.0 105.9,28.0 106.7,28.0 107.5,28.0 108.3,28.0 109.1,28.0 109.9,28.0 110.7,28.0 111.5,28.0 112.3,28.0 113.1,28.0 113.9,28.0 114.7,28.0 115.5,28.0 116.3,28.0 117.1,28.0 117.9,28.0 118.7,28.0 119.5,28.0 120.3,28.0 121.1,28.0 121.9,28.0 122.7,28.0 123.5,28.0 124.4,28.0 125.2,28.0 126.0,28.0 126.8,28.0 127.6,28.0 128.4,28.0 129.2,28.0 130.0,28.0 130.8,28.0 131.6,28.0 132.4,28.0 133.2,28.0 134.0,28.0 134.8,28.0 135.6,28.0 136.4,28.0 137.2,28.0 138.0,28.0 138.8,28.0 139.6,28.0 140.4,28.0 141.2,28.0 142.0,28.0 142.8,28.0 143.6,28.0 144.5,28.0 145.3,28.0 146.1,28.0 146.9,28.0 147.7,28.0 148.5,28.0 149.3,28.0 150.1,28.0 150.9,28.0 151.7,28.0 152.5,28.0 153.3,28.0 154.1,28.0 154.9,28.0 155.7,28.0 156.5,28.0 157.3,28.0 158.1,28.0 158.9,28.0 159.7,28.0 160.5,28.0 161.3,28.0 162.1,28.0 162.9,28.0 163.7,28.0 164.5,28.0 165.4,28.0 166.2,28.0 167.0,28.0 167.8,28.0 168.6,28.0 169.4,28.0 170.2,28.0 171.0,28.0 171.8,28.0 172.6,28.0 173.4,28.0 174.2,28.0 175.0,28.0 175.8,28.0 176.6,28.0 177.4,28.0 178.2,28.0 179.0,28.0 179.8,28.0 180.6,28.0 181.4,28.0 182.2,28.0 183.0,28.0 183.8,28.0 184.6,28.0 185.5,28.0 186.3,28.0 187.1,28.0 187.9,28.0 188.7,28.0 189.5,28.0 190.3,28.0 191.1,28.0 191.9,28.0 192.7,28.0 193.5,28.0 194.3,28.0 195.1,28.0 195.9,28.0 196.7,28.0 197.5,28.0 198.3,28.0 199.1,28.0 199.9,28.0 200.7,28.0 201.5,28.0 202.3,28.0 203.1,28.0 203.9,28.0 204.7,28.0 205.5,28.0 206.4,28.0 207.2,28.0 208.0,28.0 208.8,28.0 209.6,28.0 210.4,28.0 211.2,28.0 212.0,28.0 212.8,28.0 213.6,28.0 214.4,28.0 215.2,28.0 216.0,28.0 216.8,28.0 217.6,28.0 218.4,28.0 219.2,28.0 220.0,28.0 220.8,28.0 221.6,28.0 222.4,28.0 223.2,28.0 224.0,28.0 224.8,28.0 225.6,28.0 226.5,28.0 227.3,28.0 228.1,28.0 228.9,28.0 229.7,28.0 230.5,28.0 231.3,28.0 232.1,28.0 232.9,28.0 233.7,28.0 234.5,28.0 235.3,28.0 236.1,28.0 236.9,28.0 237.7,28.0 238.5,28.0 239.3,28.3 240.1,29.6 240.9,32.6 241.7,37.7 242.5,44.7 243.3,53.2 244.1,62.7 244.9,72.9 245.7,83.5 246.5,94.3 247.4,105.1 248.2,115.8 249.0,126.2 249.8,136.2 250.6,145.2 251.4,153.0 252.2,159.1 253.0,163.1 253.8,165.2 254.6,165.9 255.4,166.0 256.2,166.0 257.0,166.0 L257.0,166.0 Z" fill="#4a90d9" fill-opacity="0.06"/>
  <polyline points="52.0,166.0 52.8,166.0 53.6,166.0 54.4,165.9 55.2,165.2 56.0,163.1 56.8,159.1 57.6,153.0 58.4,145.2 59.2,136.2 60.0,126.2 60.8,115.8 61.6,105.1 62.5,94.3 63.3,83.5 64.1,72.9 64.9,62.7 65.7,53.2 66.5,44.7 67.3,37.7 68.1,32.6 68.9,29.6 69.7,28.3 70.5,28.0 71.3,28.0 72.1,28.0 72.9,28.0 73.7,28.0 74.5,28.0 75.3,28.0 76.1,28.0 76.9,28.0 77.7,28.0 78.5,28.0 79.3,28.0 80.1,28.0 80.9,28.0 81.7,28.0 82.5,28.0 83.4,28.0 84.2,28.0 85.0,28.0 85.8,28.0 86.6,28.0 87.4,28.0 88.2,28.0 89.0,28.0 89.8,28.0 90.6,28.0 91.4,28.0 92.2,28.0 93.0,28.0 93.8,28.0 94.6,28.0 95.4,28.0 96.2,28.0 97.0,28.0 97.8,28.0 98.6,28.0 99.4,28.0 100.2,28.0 101.0,28.0 101.8,28.0 102.6,28.0 103.5,28.0 104.3,28.0 105.1,28.0 105.9,28.0 106.7,28.0 107.5,28.0 108.3,28.0 109.1,28.0 109.9,28.0 110.7,28.0 111.5,28.0 112.3,28.0 113.1,28.0 113.9,28.0 114.7,28.0 115.5,28.0 116.3,28.0 117.1,28.0 117.9,28.0 118.7,28.0 119.5,28.0 120.3,28.0 121.1,28.0 121.9,28.0 122.7,28.0 123.5,28.0 124.4,28.0 125.2,28.0 126.0,28.0 126.8,28.0 127.6,28.0 128.4,28.0 129.2,28.0 130.0,28.0 130.8,28.0 131.6,28.0 132.4,28.0 133.2,28.0 134.0,28.0 134.8,28.0 135.6,28.0 136.4,28.0 137.2,28.0 138.0,28.0 138.8,28.0 139.6,28.0 140.4,28.0 141.2,28.0 142.0,28.0 142.8,28.0 143.6,28.0 144.5,28.0 145.3,28.0 146.1,28.0 146.9,28.0 147.7,28.0 148.5,28.0 149.3,28.0 150.1,28.0 150.9,28.0 151.7,28.0 152.5,28.0 153.3,28.0 154.1,28.0 154.9,28.0 155.7,28.0 156.5,28.0 157.3,28.0 158.1,28.0 158.9,28.0 159.7,28.0 160.5,28.0 161.3,28.0 162.1,28.0 162.9,28.0 163.7,28.0 164.5,28.0 165.4,28.0 166.2,28.0 167.0,28.0 167.8,28.0 168.6,28.0 169.4,28.0 170.2,28.0 171.0,28.0 171.8,28.0 172.6,28.0 173.4,28.0 174.2,28.0 175.0,28.0 175.8,28.0 176.6,28.0 177.4,28.0 178.2,28.0 179.0,28.0 179.8,28.0 180.6,28.0 181.4,28.0 182.2,28.0 183.0,28.0 183.8,28.0 184.6,28.0 185.5,28.0 186.3,28.0 187.1,28.0 187.9,28.0 188.7,28.0 189.5,28.0 190.3,28.0 191.1,28.0 191.9,28.0 192.7,28.0 193.5,28.0 194.3,28.0 195.1,28.0 195.9,28.0 196.7,28.0 197.5,28.0 198.3,28.0 199.1,28.0 199.9,28.0 200.7,28.0 201.5,28.0 202.3,28.0 203.1,28.0 203.9,28.0 204.7,28.0 205.5,28.0 206.4,28.0 207.2,28.0 208.0,28.0 208.8,28.0 209.6,28.0 210.4,28.0 211.2,28.0 212.0,28.0 212.8,28.0 213.6,28.0 214.4,28.0 215.2,28.0 216.0,28.0 216.8,28.0 217.6,28.0 218.4,28.0 219.2,28.0 220.0,28.0 220.8,28.0 221.6,28.0 222.4,28.0 223.2,28.0 224.0,28.0 224.8,28.0 225.6,28.0 226.5,28.0 227.3,28.0 228.1,28.0 228.9,28.0 229.7,28.0 230.5,28.0 231.3,28.0 232.1,28.0 232.9,28.0 233.7,28.0 234.5,28.0 235.3,28.0 236.1,28.0 236.9,28.0 237.7,28.0 238.5,28.0 239.3,28.3 240.1,29.6 240.9,32.6 241.7,37.7 242.5,44.7 243.3,53.2 244.1,62.7 244.9,72.9 245.7,83.5 246.5,94.3 247.4,105.1 248.2,115.8 249.0,126.2 249.8,136.2 250.6,145.2 251.4,153.0 252.2,159.1 253.0,163.1 253.8,165.2 254.6,165.9 255.4,166.0 256.2,166.0 257.0,166.0" fill="none" stroke="#4a90d9" stroke-width="1.2" stroke-linejoin="round"/>
  <line x1="322" y1="28.0" x2="527" y2="28.0" stroke="#e5e7eb" stroke-width="0.5"/>
  <text x="318" y="31.0" text-anchor="end" font-size="7.5" fill="#6b7280">0</text>
  <line x1="322" y1="74.0" x2="527" y2="74.0" stroke="#e5e7eb" stroke-width="0.5"/>
  <text x="318" y="77.0" text-anchor="end" font-size="7.5" fill="#6b7280">-40</text>
  <line x1="322" y1="120.0" x2="527" y2="120.0" stroke="#e5e7eb" stroke-width="0.5"/>
  <text x="318" y="123.0" text-anchor="end" font-size="7.5" fill="#6b7280">-80</text>
  <line x1="322" y1="166.0" x2="527" y2="166.0" stroke="#e5e7eb" stroke-width="0.5"/>
  <text x="318" y="169.0" text-anchor="end" font-size="7.5" fill="#6b7280">-120</text>
  <line x1="322.0" y1="28" x2="322.0" y2="166" stroke="#e5e7eb" stroke-width="0.5"/>
  <text x="322.0" y="178" text-anchor="middle" font-size="7.5" fill="#6b7280">0</text>
  <line x1="363.0" y1="28" x2="363.0" y2="166" stroke="#e5e7eb" stroke-width="0.5"/>
  <text x="363.0" y="178" text-anchor="middle" font-size="7.5" fill="#6b7280">0.1</text>
  <line x1="404.0" y1="28" x2="404.0" y2="166" stroke="#e5e7eb" stroke-width="0.5"/>
  <text x="404.0" y="178" text-anchor="middle" font-size="7.5" fill="#6b7280">0.2</text>
  <line x1="445.0" y1="28" x2="445.0" y2="166" stroke="#e5e7eb" stroke-width="0.5"/>
  <text x="445.0" y="178" text-anchor="middle" font-size="7.5" fill="#6b7280">0.3</text>
  <line x1="486.0" y1="28" x2="486.0" y2="166" stroke="#e5e7eb" stroke-width="0.5"/>
  <text x="486.0" y="178" text-anchor="middle" font-size="7.5" fill="#6b7280">0.4</text>
  <line x1="527.0" y1="28" x2="527.0" y2="166" stroke="#e5e7eb" stroke-width="0.5"/>
  <text x="527.0" y="178" text-anchor="middle" font-size="7.5" fill="#6b7280">0.5</text>
  <line x1="322" y1="28" x2="322" y2="166" stroke="#d1d5db" stroke-width="0.75"/>
  <line x1="322" y1="166" x2="527" y2="166" stroke="#d1d5db" stroke-width="0.75"/>
  <polyline points="322.0,28.0 322.1,28.1 322.2,28.2 322.3,28.5 322.4,28.8 322.5,29.3 322.6,29.9 322.7,30.7 322.8,31.6 322.9,32.6 323.0,33.8 323.1,35.3 323.2,37.0 323.3,39.1 323.4,41.7 323.5,45.1 323.6,49.8 323.7,58.0 323.8,75.7 323.9,56.1 324.0,50.6 324.1,47.6 324.2,45.7 324.3,44.5 324.4,43.8 324.5,43.4 324.6,43.4 324.7,43.7 324.8,44.3 324.9,45.2 325.0,46.5 325.1,48.2 325.2,50.5 325.3,53.6 325.4,58.3 325.5,67.4 325.6,75.9 325.7,61.8 325.8,56.6 325.9,53.5 326.0,51.6 326.1,50.3 326.2,49.4 326.3,49.0 326.4,48.9 326.5,49.1 326.6,49.6 326.7,50.5 326.8,51.7 326.9,53.3 327.0,55.6 327.1,58.8 327.2,63.8 327.3,74.4 327.4,76.3 327.5,65.0 327.6,60.2 327.7,57.3 327.8,55.4 327.9,54.1 328.0,53.3 328.1,52.8 328.2,52.7 328.3,52.9 328.4,53.4 328.5,54.3 328.6,55.5 328.7,57.2 328.8,59.5 328.9,62.9 329.0,68.3 329.1,81.0 329.2,76.8 329.3,67.3 329.4,62.9 329.5,60.2 329.6,58.3 329.7,57.1 329.8,56.3 329.9,55.9 330.0,55.8 330.1,56.0 330.2,56.5 330.3,57.4 330.4,58.7 330.5,60.4 330.6,62.9 330.7,66.4 330.8,72.3 330.9,88.9 331.0,77.4 331.1,69.3 331.2,65.2 331.3,62.6 331.4,60.9 331.5,59.7 331.6,58.9 331.7,58.5 331.8,58.5 331.9,58.7 332.0,59.3 332.1,60.2 332.2,61.5 332.3,63.4 332.4,65.9 332.5,69.7 332.6,76.2 332.7,101.7 332.8,78.2 332.9,71.1 333.0,67.3 333.1,64.8 333.2,63.2 333.3,62.1 333.4,61.4 333.5,61.0 333.6,61.0 333.7,61.3 333.8,61.9 333.9,62.9 334.0,64.3 334.1,66.2 334.2,68.9 334.3,72.9 334.4,80.2 334.5,106.5 334.6,79.1 334.7,72.8 334.8,69.3 334.9,67.0 335.0,65.4 335.1,64.4 335.2,63.7 335.3,63.5 335.4,63.5 335.5,63.8 335.6,64.5 335.7,65.5 335.8,67.0 335.9,69.0 336.0,71.8 336.1,76.2 336.2,84.4 336.3,97.2 336.4,80.3 336.5,74.6 336.6,71.3 336.7,69.2 336.8,67.7 336.9,66.7 337.0,66.1 337.1,65.9 337.2,66.0 337.3,66.4 337.4,67.1 337.5,68.2 337.6,69.7 337.7,71.8 337.8,74.9 337.9,79.6 338.0,89.1 338.1,94.4 338.2,81.6 338.3,76.5 338.4,73.4 338.5,71.4 338.6,70.0 338.7,69.1 338.8,68.6 338.9,68.4 339.0,68.5 339.1,69.0 339.2,69.7 339.3,70.9 339.4,72.5 339.5,74.8 339.6,78.0 339.7,83.1 339.8,94.5 339.9,93.6 340.0,83.2 340.1,78.5 340.2,75.7 340.3,73.8 340.4,72.5 340.5,71.6 340.6,71.2 340.7,71.1 340.8,71.2 340.9,71.7 341.0,72.6 341.1,73.8 341.2,75.5 341.3,77.9 341.4,81.3 341.5,86.9 341.6,101.1 341.7,93.9 341.8,85.1 341.9,80.8 342.0,78.1 342.1,76.3 342.2,75.1 342.3,74.4 342.4,74.0 342.5,73.9 342.6,74.2 342.7,74.7 342.8,75.6 342.9,76.9 343.0,78.8 343.1,81.3 343.2,85.0 343.3,91.1 343.4,110.5 343.5,94.9 343.6,87.3 343.7,83.4 343.8,80.9 343.9,79.2 344.0,78.1 344.1,77.4 344.2,77.1 344.3,77.1 344.4,77.4 344.5,78.0 344.6,79.0 344.7,80.4 344.8,82.3 344.9,85.0 345.0,89.0 345.1,95.9 345.2,136.6 345.3,96.6 345.4,89.9 345.5,86.3 345.6,84.0 345.7,82.5 345.8,81.5 345.9,80.9 346.0,80.6 346.1,80.7 346.2,81.1 346.3,81.8 346.4,82.9 346.5,84.4 346.6,86.4 346.7,89.3 346.8,93.6 346.9,101.3 347.0,120.1 347.1,99.1 347.2,93.2 347.3,89.9 347.4,87.8 347.5,86.4 347.6,85.5 347.7,85.0 347.8,84.8 347.9,85.0 348.0,85.5 348.1,86.3 348.2,87.5 348.3,89.1 348.4,91.3 348.5,94.4 348.6,99.1 348.7,108.0 348.8,117.4 348.9,102.8 349.0,97.5 349.1,94.5 349.2,92.6 349.3,91.3 349.4,90.6 349.5,90.2 349.6,90.2 349.7,90.5 349.8,91.2 349.9,92.2 350.0,93.5 350.1,95.3 350.2,97.8 350.3,101.2 350.4,106.3 350.5,116.9 350.6,119.7 350.7,108.4 350.8,103.9 350.9,101.2 351.0,99.6 351.1,98.7 351.2,98.2 351.3,98.1 351.4,98.4 351.5,99.0 351.6,100.0 351.7,101.4 351.8,103.1 351.9,105.4 352.0,108.4 352.1,112.5 352.2,118.6 352.3,131.9 352.4,129.3 352.5,120.8 352.6,117.6 352.7,116.3 352.8,116.2 352.9,117.1 353.0,119.1 353.1,122.7 353.2,129.5 353.3,166.0 353.4,129.9 353.5,123.8 353.6,121.0 353.7,119.8 353.8,120.0 353.9,121.6 354.0,125.8 354.1,140.4 354.2,128.7 354.3,119.4 354.4,114.2 354.5,110.7 354.6,108.1 354.7,106.1 354.8,104.6 354.9,103.5 355.0,102.8 355.1,102.4 355.2,102.4 355.3,102.7 355.4,103.5 355.5,104.8 355.6,106.9 355.7,110.2 355.8,116.2 355.9,139.5 356.0,117.6 356.1,110.0 356.3,105.8 356.4,103.0 356.5,100.9 356.6,99.4 356.7,98.4 356.8,97.7 356.9,97.4 357.0,97.3 357.1,97.6 357.2,98.3 357.3,99.4 357.4,101.0 357.5,103.4 357.6,107.1 357.7,114.1 357.8,143.3 357.9,112.8 358.0,106.2 358.1,102.4 358.2,99.8 358.3,98.0 358.4,96.7 358.5,95.8 358.6,95.3 358.7,95.1 358.8,95.2 358.9,95.7 359.0,96.5 359.1,97.7 359.2,99.6 359.3,102.2 359.4,106.3 359.5,114.3 359.6,127.9 359.7,110.1 359.8,104.2 359.9,100.7 360.0,98.3 360.1,96.7 360.2,95.5 360.3,94.8 360.4,94.3 360.5,94.2 360.6,94.5 360.7,95.0 360.8,95.9 360.9,97.3 361.0,99.3 361.1,102.1 361.2,106.6 361.3,115.9 361.4,121.8 361.5,108.5 361.6,103.2 361.7,100.0 361.8,97.8 361.9,96.2 362.0,95.2 362.1,94.5 362.2,94.2 362.3,94.2 362.4,94.5 362.5,95.1 362.6,96.1 362.7,97.6 362.8,99.7 362.9,102.8 363.0,107.8 363.1,118.8 363.2,118.5 363.3,107.7 363.4,102.9 363.5,99.9 363.6,97.8 363.7,96.4 363.8,95.5 363.9,94.9 364.0,94.6 364.1,94.7 364.2,95.1 364.3,95.8 364.4,96.9 364.5,98.5 364.6,100.8 364.7,104.1 364.8,109.5 364.9,123.2 365.0,116.6 365.1,107.6 365.2,103.2 365.3,100.4 365.4,98.5 365.5,97.1 365.6,96.3 365.7,95.8 365.8,95.6 365.9,95.7 366.0,96.2 366.1,97.0 366.2,98.2 366.3,99.9 366.4,102.3 366.5,105.9 366.6,111.9 366.7,130.3 366.8,115.8 366.9,108.0 367.0,103.9 367.1,101.3 367.2,99.5 367.3,98.3 367.4,97.5 367.5,97.1 367.6,97.0 367.7,97.2 367.8,97.7 367.9,98.6 368.0,99.9 368.1,101.7 368.2,104.3 368.3,108.1 368.4,114.8 368.5,148.8 368.6,115.7 368.7,108.9 368.8,105.2 368.9,102.7 369.0,101.1 369.1,100.0 369.2,99.3 369.3,98.9 369.4,98.9 369.5,99.2 369.6,99.8 369.7,100.8 369.8,102.1 369.9,104.1 370.0,106.8 370.1,111.0 370.2,118.5 370.3,138.7 370.4,116.5 370.5,110.4 370.6,106.9 370.7,104.7 370.8,103.1 370.9,102.1 371.0,101.5 371.1,101.2 371.2,101.3 371.3,101.7 371.4,102.4 371.5,103.4 371.6,104.9 371.7,107.0 371.8,109.9 371.9,114.4 372.0,123.1 372.1,133.2 372.2,118.0 372.3,112.5 372.4,109.3 372.5,107.2 372.6,105.8 372.7,104.9 372.8,104.4 372.9,104.2 373.0,104.4 373.1,104.9 373.2,105.6 373.3,106.8 373.4,108.4 373.5,110.7 373.6,113.8 373.7,118.7 373.8,128.9 373.9,132.2 374.0,120.4 374.1,115.5 374.2,112.6 374.3,110.7 374.4,109.4 374.5,108.7 374.6,108.3 374.7,108.2 374.8,108.5 374.9,109.0 375.0,110.0 375.1,111.3 375.2,113.1 375.3,115.5 375.4,118.9 375.5,124.3 375.6,136.6 375.7,133.9 375.8,124.3 375.9,119.9 376.0,117.3 376.1,115.6 376.2,114.6 376.3,114.0 376.4,113.8 376.5,113.9 376.6,114.3 376.7,115.1 376.8,116.2 376.9,117.8 377.0,119.8 377.1,122.5 377.2,126.4 377.3,132.5 377.4,148.4 377.5,139.1 377.6,131.2 377.7,127.5 377.8,125.3 377.9,124.1 378.0,123.5 378.1,123.3 378.2,123.6 378.3,124.3 378.4,125.3 378.5,126.8 378.6,128.7 378.7,131.1 378.8,134.2 378.9,138.3 379.0,143.9 379.1,152.5 379.2,166.0 379.3,162.6 379.4,163.7 379.5,166.0 379.6,152.2 379.7,144.6 379.8,139.7 379.9,136.2 380.0,133.7 380.1,131.9 380.2,130.6 380.3,129.8 380.4,129.6 380.5,129.9 380.6,130.8 380.7,132.6 380.8,135.7 380.9,142.0 381.0,166.0 381.1,140.2 381.2,133.1 381.3,128.9 381.4,125.9 381.5,123.8 381.6,122.2 381.7,121.0 381.8,120.2 381.9,119.8 382.0,119.7 382.1,119.9 382.2,120.5 382.3,121.5 382.4,123.1 382.5,125.5 382.6,129.4 382.7,137.1 382.8,151.6 382.9,132.9 383.0,126.8 383.1,123.1 383.2,120.6 383.3,118.8 383.4,117.5 383.5,116.6 383.6,116.1 383.7,115.9 383.8,116.0 383.9,116.4 384.0,117.2 384.1,118.5 384.2,120.3 384.3,123.1 384.4,127.5 384.5,136.4 384.6,143.0 384.7,129.3 384.8,123.8 384.9,120.5 385.0,118.2 385.1,116.6 385.2,115.4 385.3,114.7 385.4,114.3 385.5,114.2 385.6,114.4 385.7,115.0 385.8,115.9 385.9,117.3 386.0,119.4 386.1,122.4 386.2,127.2 386.3,137.9 386.4,138.3 386.5,127.2 386.6,122.3 386.7,119.2 386.8,117.1 386.9,115.6 387.0,114.6 387.1,114.0 387.2,113.7 387.3,113.7 387.4,114.0 387.5,114.7 387.6,115.7 387.7,117.3 387.8,119.5 387.9,122.7 388.0,128.0 388.1,141.3 388.2,135.4 388.3,126.2 388.4,121.7 388.5,118.8 388.6,116.9 388.7,115.5 388.8,114.6 388.9,114.1 389.0,113.8 389.1,113.9 389.2,114.4 389.3,115.1 389.4,116.3 389.5,117.9 389.6,120.3 389.7,123.8 389.8,129.7 389.9,147.4 390.0,133.9 390.1,126.0 390.2,121.8 390.3,119.2 390.4,117.4 390.5,116.1 390.6,115.3 390.7,114.8 390.8,114.7 390.9,114.9 391.0,115.4 391.1,116.2 391.2,117.5 391.3,119.3 391.4,121.8 391.5,125.6 391.6,132.2 391.7,162.2 391.8,133.4 391.9,126.4 392.0,122.6 392.1,120.1 392.2,118.5 392.3,117.3 392.4,116.6 392.5,116.2 392.6,116.2 392.7,116.4 392.8,117.0 392.9,118.0 393.0,119.3 393.1,121.2 393.2,124.0 393.3,128.0 393.4,135.5 393.5,157.5 393.6,133.7 393.7,127.6 393.8,124.1 393.9,121.8 394.0,120.2 394.1,119.2 394.2,118.6 394.3,118.3 394.4,118.3 394.5,118.7 394.6,119.3 394.7,120.4 394.8,121.9 394.9,123.9 395.0,126.8 395.1,131.3 395.2,139.8 395.3,150.7 395.4,135.0 395.5,129.5 395.6,126.3 395.7,124.2 395.8,122.8 395.9,121.8 396.0,121.3 396.1,121.1 396.2,121.3 396.3,121.7 396.4,122.5 396.5,123.7 396.6,125.3 396.7,127.5 396.8,130.7 396.9,135.5 397.0,145.5 397.1,149.5 397.2,137.4 397.3,132.5 397.4,129.6 397.5,127.7 397.6,126.4 397.7,125.6 397.8,125.2 397.9,125.2 398.0,125.5 398.1,126.1 398.2,127.0 398.3,128.3 398.4,130.1 398.5,132.5 398.6,136.0 398.7,141.4 398.8,153.4 398.9,151.5 399.0,141.7 399.1,137.3 399.2,134.7 399.3,133.1 399.4,132.0 399.5,131.5 399.6,131.3 399.7,131.5 399.8,132.0 399.9,132.9 400.0,134.1 400.1,135.7 400.2,137.9 400.3,140.7 400.4,144.7 400.5,150.9 400.6,166.0 400.7,158.2 400.8,150.4 400.9,146.8 401.0,145.0 401.1,144.1 401.2,143.8 401.3,144.2 401.4,145.0 401.5,146.4 401.6,148.4 401.7,151.2 401.8,154.9 401.9,160.4 402.0,166.0 402.1,166.0 402.2,166.0 402.3,166.0 402.4,166.0 402.5,166.0 402.6,159.9 402.7,154.1 402.8,150.0 402.9,146.9 403.0,144.6 403.1,142.7 403.2,141.4 403.3,140.4 403.4,139.8 403.5,139.6 403.6,139.8 403.7,140.5 403.8,141.7 403.9,143.7 404.0,147.1 404.1,153.5 404.2,166.0 404.3,152.4 404.4,145.3 404.5,141.2 404.6,138.4 404.7,136.4 404.8,134.9 404.9,133.8 405.0,133.1 405.1,132.7 405.2,132.6 405.3,132.9 405.4,133.5 405.5,134.6 405.6,136.3 405.7,138.8 405.8,142.7 405.9,150.2 406.0,166.0 406.1,146.6 406.2,140.4 406.3,136.7 406.4,134.2 406.5,132.5 406.6,131.2 406.7,130.3 406.8,129.8 406.9,129.6 407.0,129.7 407.1,130.2 407.2,131.0 407.3,132.3 407.4,134.2 407.5,136.9 407.6,141.3 407.7,150.1 407.8,157.5 407.9,143.4 408.0,137.9 408.1,134.5 408.2,132.3 408.3,130.6 408.4,129.5 408.5,128.8 408.6,128.4 408.7,128.3 408.8,128.6 408.9,129.1 409.0,130.1 409.1,131.5 409.2,133.5 409.3,136.5 409.4,141.3 409.5,151.8 409.6,152.9 409.7,141.6 409.8,136.6 409.9,133.6 410.0,131.5 410.1,130.0 410.2,129.0 410.3,128.3 410.4,128.0 410.5,128.1 410.6,128.4 410.7,129.1 410.8,130.2 410.9,131.7 411.0,133.9 411.1,137.1 411.2,142.4 411.3,155.4 411.4,150.2 411.5,140.9 411.6,136.3 411.7,133.5 411.8,131.5 411.9,130.2 412.0,129.3 412.1,128.7 412.2,128.5 412.3,128.6 412.4,129.1 412.5,129.8 412.6,131.0 412.7,132.7 412.8,135.0 412.9,138.5 413.0,144.4 413.1,161.4 413.2,149.0 413.3,140.9 413.4,136.8 413.5,134.1 413.6,132.3 413.7,131.1 413.8,130.3 413.9,129.8 414.0,129.7 414.1,129.9 414.2,130.4 414.3,131.3 414.4,132.6 414.5,134.4 414.6,136.9 414.7,140.7 414.8,147.2 414.9,166.0 415.0,148.8 415.1,141.8 415.2,138.0 415.3,135.5 415.4,133.9 415.5,132.7 415.6,132.0 415.7,131.7 415.8,131.7 415.9,132.0 416.0,132.6 416.1,133.6 416.2,134.9 416.3,136.9 416.4,139.6 416.5,143.7 416.6,151.1 416.7,166.0 416.8,149.7 416.9,143.5 417.0,140.1 417.1,137.8 417.2,136.3 417.3,135.3 417.4,134.7 417.5,134.5 417.6,134.6 417.7,135.0 417.8,135.7 417.9,136.8 418.0,138.3 418.1,140.4 418.2,143.4 418.3,147.9 418.4,156.3 418.5,166.0 418.6,152.0 418.7,146.5 418.8,143.4 418.9,141.3 419.0,140.0 419.1,139.1 419.2,138.7 419.3,138.6 419.4,138.8 419.5,139.4 419.6,140.3 419.7,141.5 419.8,143.3 419.9,145.6 420.0,148.9 420.1,153.8 420.2,163.7 420.3,166.0 420.4,156.4 420.5,151.6 420.6,148.8 420.7,147.1 420.8,146.0 420.9,145.5 421.0,145.3 421.1,145.5 421.2,146.0 421.3,146.9 421.4,148.1 421.5,149.8 421.6,151.9 421.7,154.7 421.8,158.6 421.9,164.4 422.0,166.0 422.1,166.0 422.2,166.0 422.3,163.2 422.4,161.5 422.5,161.0 422.6,161.3 422.7,162.4 422.8,164.4 422.9,166.0 423.0,166.0 423.1,166.0 423.2,166.0 423.3,166.0 423.4,166.0 423.5,166.0 423.6,166.0 423.7,166.0 423.8,166.0 423.9,166.0 424.0,166.0 424.1,162.3 424.2,158.5 424.3,155.8 424.4,153.6 424.6,152.0 424.7,150.8 424.8,150.0 424.9,149.5 425.0,149.4 425.1,149.7 425.2,150.4 425.3,151.6 425.4,153.6 425.5,156.7 425.6,162.5 425.7,166.0 425.8,164.7 425.9,156.8 426.0,152.5 426.1,149.5 426.2,147.4 426.3,145.9 426.4,144.8 426.5,144.1 426.6,143.6 426.7,143.6 426.8,143.8 426.9,144.4 427.0,145.5 427.1,147.0 427.2,149.4 427.3,153.0 427.4,159.6 427.5,166.0 427.6,159.3 427.7,152.4 427.8,148.5 427.9,145.8 428.0,144.0 428.1,142.6 428.2,141.7 428.3,141.2 428.4,140.9 428.5,141.0 428.6,141.4 428.7,142.2 428.8,143.4 428.9,145.2 429.0,147.8 429.1,151.8 429.2,159.4 429.3,166.0 429.4,156.1 429.5,150.0 429.6,146.4 429.7,144.0 429.8,142.3 429.9,141.1 430.0,140.4 430.1,139.9 430.2,139.8 430.3,140.0 430.4,140.5 430.5,141.4 430.6,142.8 430.7,144.7 430.8,147.5 430.9,151.9 431.0,160.7 431.1,166.0 431.2,154.4 431.3,148.9 431.4,145.6 431.5,143.4 431.6,141.8 431.7,140.7 431.8,140.1 431.9,139.7 432.0,139.7 432.1,140.0 432.2,140.6 432.3,141.6 432.4,143.1 432.5,145.2 432.6,148.2 432.7,153.0 432.8,163.4 432.9,165.0 433.0,153.6 433.1,148.7 433.2,145.6 433.3,143.6 433.4,142.1 433.5,141.2 433.6,140.6 433.7,140.4 433.8,140.4 433.9,140.8 434.0,141.5 434.1,142.6 434.2,144.2 434.3,146.5 434.4,149.7 434.5,155.0 434.6,166.0 434.7,163.3 434.8,153.8 434.9,149.3 435.0,146.5 435.1,144.6 435.2,143.3 435.3,142.4 435.4,141.9 435.5,141.8 435.6,141.9 435.7,142.4 435.8,143.2 435.9,144.5 436.0,146.2 436.1,148.6 436.2,152.1 436.3,158.0 436.4,166.0 436.5,163.0 436.6,154.9 436.7,150.8 436.8,148.2 436.9,146.4 437.0,145.2 437.1,144.5 437.2,144.1 437.3,144.1 437.4,144.3 437.5,144.9 437.6,145.9 437.7,147.2 437.8,149.1 437.9,151.7 438.0,155.5 438.1,162.0 438.2,166.0 438.3,164.1 438.4,157.1 438.5,153.3 438.6,151.0 438.7,149.4 438.8,148.4 438.9,147.7 439.0,147.5 439.1,147.6 439.2,148.0 439.3,148.7 439.4,149.8 439.5,151.3 439.6,153.3 439.7,156.2 439.8,160.4 439.9,166.0 440.0,166.0 440.1,166.0 440.2,161.0 440.3,157.6 440.4,155.5 440.5,154.2 440.6,153.4 440.7,153.0 440.8,152.9 440.9,153.2 441.0,153.8 441.1,154.8 441.2,156.1 441.3,157.9 441.4,160.3 441.5,163.5 441.6,166.0 441.7,166.0 441.8,166.0 441.9,166.0 442.0,166.0 442.1,166.0 442.2,164.6 442.3,163.8 442.4,163.6 442.5,163.8 442.6,164.5 442.7,165.7 442.8,166.0 442.9,166.0 443.0,166.0 443.1,166.0 443.2,166.0 443.3,166.0 443.4,166.0 443.5,166.0 443.6,166.0 443.7,166.0 443.8,166.0 443.9,166.0 444.0,166.0 444.1,166.0 444.2,166.0 444.3,166.0 444.4,165.1 444.5,164.2 444.6,163.6 444.7,163.4 444.8,163.7 444.9,164.6 445.0,166.0 445.1,166.0 445.2,166.0 445.3,166.0 445.4,166.0 445.5,166.0 445.6,165.7 445.7,162.3 445.8,159.9 445.9,158.2 446.0,156.8 446.1,155.9 446.2,155.3 446.3,155.1 446.4,155.2 446.5,155.6 446.6,156.4 446.7,157.8 446.8,159.8 446.9,162.9 447.0,166.0 447.1,166.0 447.2,166.0 447.3,164.9 447.4,160.3 447.5,157.4 447.6,155.3 447.7,153.8 447.8,152.7 447.9,152.0 448.0,151.6 448.1,151.6 448.2,151.9 448.3,152.5 448.4,153.5 448.5,155.1 448.6,157.3 448.7,160.8 448.8,166.0 448.9,166.0 449.0,166.0 449.1,161.8 449.2,157.7 449.3,154.9 449.4,153.0 449.5,151.7 449.6,150.8 449.7,150.2 449.8,150.0 449.9,150.0 450.0,150.4 450.1,151.2 450.2,152.4 450.3,154.1 450.4,156.6 450.5,160.3 450.6,166.0 450.7,166.0 450.8,166.0 450.9,160.2 451.0,156.4 451.1,153.9 451.2,152.1 451.3,150.9 451.4,150.1 451.5,149.6 451.6,149.5 451.7,149.7 451.8,150.2 451.9,151.0 452.0,152.3 452.1,154.2 452.2,156.8 452.3,160.9 452.4,166.0 452.5,166.0 452.6,165.6 452.7,159.6 452.8,156.0 452.9,153.7 453.0,152.1 453.1,151.0 453.2,150.3 453.3,149.9 453.4,149.9 453.5,150.2 453.6,150.8 453.7,151.7 453.8,153.1 453.9,155.1 454.0,158.0 454.1,162.5 454.2,166.0 454.3,166.0 454.4,165.3 454.5,159.8 454.6,156.6 454.7,154.4 454.8,152.9 454.9,151.9 455.0,151.3 455.1,151.1 455.2,151.1 455.3,151.5 455.4,152.2 455.5,153.3 455.6,154.8 455.7,156.9 455.8,160.0 455.9,164.9 456.0,166.0 456.1,166.0 456.2,165.9 456.3,161.0 456.4,158.0 456.5,156.0 456.6,154.7 456.7,153.8 456.8,153.3 456.9,153.1 457.0,153.3 457.1,153.7 457.2,154.5 457.3,155.7 457.4,157.4 457.5,159.7 457.6,163.0 457.7,166.0 457.8,166.0 457.9,166.0 458.0,166.0 458.1,163.3 458.2,160.5 458.3,158.7 458.4,157.5 458.5,156.7 458.6,156.3 458.7,156.3 458.8,156.6 458.9,157.2 459.0,158.1 459.1,159.4 459.2,161.3 459.3,163.8 459.4,166.0 459.5,166.0 459.6,166.0 459.7,166.0 459.8,166.0 459.9,166.0 460.0,164.7 460.1,163.1 460.2,162.1 460.3,161.5 460.4,161.3 460.5,161.5 460.6,161.9 460.7,162.7 460.8,163.9 460.9,165.4 461.0,166.0 461.1,166.0 461.2,166.0 461.3,166.0 461.4,166.0 461.5,166.0 461.6,166.0 461.7,166.0 461.8,166.0 461.9,166.0 462.0,166.0 462.1,166.0 462.2,166.0 462.3,166.0 462.4,166.0 462.5,166.0 462.6,166.0 462.7,166.0 462.8,166.0 462.9,166.0 463.0,166.0 463.1,166.0 463.2,166.0 463.3,166.0 463.4,166.0 463.5,166.0 463.6,166.0 463.7,166.0 463.8,166.0 463.9,166.0 464.0,166.0 464.1,166.0 464.2,166.0 464.3,166.0 464.4,166.0 464.5,166.0 464.6,166.0 464.7,166.0 464.8,166.0 464.9,166.0 465.0,166.0 465.1,166.0 465.2,166.0 465.3,166.0 465.4,166.0 465.5,166.0 465.6,166.0 465.7,165.5 465.8,164.8 465.9,164.5 466.0,164.5 466.1,164.8 466.2,165.5 466.3,166.0 466.4,166.0 466.5,166.0 466.6,166.0 466.7,166.0 466.8,166.0 466.9,166.0 467.0,166.0 467.1,166.0 467.2,164.7 467.3,163.1 467.4,161.9 467.5,161.2 467.6,160.7 467.7,160.6 467.8,160.8 467.9,161.3 468.0,162.2 468.1,163.6 468.2,165.7 468.3,166.0 468.4,166.0 468.5,166.0 468.6,166.0 468.7,166.0 468.8,166.0 468.9,164.4 469.0,162.3 469.1,160.8 469.2,159.8 469.3,159.1 469.4,158.8 469.5,158.8 469.6,159.1 469.7,159.8 469.8,160.8 469.9,162.4 470.0,164.6 470.1,166.0 470.2,166.0 470.3,166.0 470.4,166.0 470.5,166.0 470.6,165.9 470.7,163.1 470.8,161.2 470.9,159.9 471.0,158.9 471.1,158.4 471.2,158.2 471.3,158.3 471.4,158.7 471.5,159.4 471.6,160.6 471.7,162.3 471.8,164.7 471.9,166.0 472.0,166.0 472.1,166.0 472.2,166.0 472.3,166.0 472.4,165.5 472.5,162.9 472.6,161.1 472.7,159.9 472.8,159.0 472.9,158.6 473.0,158.5 473.1,158.6 473.2,159.1 473.3,160.0 473.4,161.3 473.5,163.1 473.6,165.7 473.7,166.0 473.8,166.0 473.9,166.0 474.0,166.0 474.1,166.0 474.2,165.9 474.3,163.5 474.4,161.9 474.5,160.7 474.6,160.0 474.7,159.6 474.8,159.6 474.9,159.9 475.0,160.5 475.1,161.4 475.2,162.8 475.3,164.7 475.4,166.0 475.5,166.0 475.6,166.0 475.7,166.0 475.8,166.0 475.9,166.0 476.0,166.0 476.1,165.1 476.2,163.5 476.3,162.5 476.4,161.9 476.5,161.6 476.6,161.7 476.7,162.0 476.8,162.7 476.9,163.7 477.0,165.2 477.1,166.0 477.2,166.0 477.3,166.0 477.4,166.0 477.5,166.0 477.6,166.0 477.7,166.0 477.8,166.0 477.9,166.0 478.0,166.0 478.1,165.5 478.2,165.0 478.3,164.8 478.4,164.9 478.5,165.4 478.6,166.0 478.7,166.0 478.8,166.0 478.9,166.0 479.0,166.0 479.1,166.0 479.2,166.0 479.3,166.0 479.4,166.0 479.5,166.0 479.6,166.0 479.7,166.0 479.8,166.0 479.9,166.0 480.0,166.0 480.1,166.0 480.2,166.0 480.3,166.0 480.4,166.0 480.5,166.0 480.6,166.0 480.7,166.0 480.8,166.0 480.9,166.0 481.0,166.0 481.1,166.0 481.2,166.0 481.3,166.0 481.4,166.0 481.5,166.0 481.6,166.0 481.7,166.0 481.8,166.0 481.9,166.0 482.0,166.0 482.1,166.0 482.2,166.0 482.3,166.0 482.4,166.0 482.5,166.0 482.6,166.0 482.7,166.0 482.8,166.0 482.9,166.0 483.0,166.0 483.1,166.0 483.2,166.0 483.3,166.0 483.4,166.0 483.5,166.0 483.6,166.0 483.7,166.0 483.8,166.0 483.9,166.0 484.0,166.0 484.1,166.0 484.2,166.0 484.3,166.0 484.4,166.0 484.5,166.0 484.6,166.0 484.7,166.0 484.8,166.0 484.9,166.0 485.0,166.0 485.1,166.0 485.2,166.0 485.3,166.0 485.4,166.0 485.5,166.0 485.6,166.0 485.7,166.0 485.8,166.0 485.9,166.0 486.0,166.0 486.1,166.0 486.2,166.0 486.3,166.0 486.4,166.0 486.5,166.0 486.6,166.0 486.7,166.0 486.8,166.0 486.9,166.0 487.0,166.0 487.1,166.0 487.2,166.0 487.3,166.0 487.4,166.0 487.5,166.0 487.6,166.0 487.7,166.0 487.8,166.0 487.9,166.0 488.0,166.0 488.1,166.0 488.2,166.0 488.3,166.0 488.4,166.0 488.5,166.0 488.6,166.0 488.7,166.0 488.8,166.0 488.9,166.0 489.0,166.0 489.1,166.0 489.2,166.0 489.3,166.0 489.4,166.0 489.5,166.0 489.6,166.0 489.7,166.0 489.8,166.0 489.9,166.0 490.0,166.0 490.1,166.0 490.2,166.0 490.3,166.0 490.4,166.0 490.5,166.0 490.6,166.0 490.7,166.0 490.8,166.0 490.9,166.0 491.0,166.0 491.1,166.0 491.2,166.0 491.3,166.0 491.4,166.0 491.5,166.0 491.6,166.0 491.7,166.0 491.8,166.0 491.9,166.0 492.0,166.0 492.1,166.0 492.2,166.0 492.3,166.0 492.4,166.0 492.5,166.0 492.6,166.0 492.7,166.0 492.9,166.0 493.0,166.0 493.1,166.0 493.2,166.0 493.3,166.0 493.4,166.0 493.5,166.0 493.6,166.0 493.7,166.0 493.8,166.0 493.9,166.0 494.0,166.0 494.1,166.0 494.2,166.0 494.3,166.0 494.4,166.0 494.5,166.0 494.6,166.0 494.7,166.0 494.8,166.0 494.9,166.0 495.0,166.0 495.1,166.0 495.2,166.0 495.3,166.0 495.4,166.0 495.5,166.0 495.6,166.0 495.7,166.0 495.8,166.0 495.9,166.0 496.0,166.0 496.1,166.0 496.2,166.0 496.3,166.0 496.4,166.0 496.5,166.0 496.6,166.0 496.7,166.0 496.8,166.0 496.9,166.0 497.0,166.0 497.1,166.0 497.2,166.0 497.3,166.0 497.4,166.0 497.5,166.0 497.6,166.0 497.7,166.0 497.8,166.0 497.9,166.0 498.0,166.0 498.1,166.0 498.2,166.0 498.3,166.0 498.4,166.0 498.5,166.0 498.6,166.0 498.7,166.0 498.8,166.0 498.9,166.0 499.0,166.0 499.1,166.0 499.2,166.0 499.3,166.0 499.4,166.0 499.5,166.0 499.6,166.0 499.7,166.0 499.8,166.0 499.9,166.0 500.0,166.0 500.1,166.0 500.2,166.0 500.3,166.0 500.4,166.0 500.5,166.0 500.6,166.0 500.7,166.0 500.8,166.0 500.9,166.0 501.0,166.0 501.1,166.0 501.2,166.0 501.3,166.0 501.4,166.0 501.5,166.0 501.6,166.0 501.7,166.0 501.8,166.0 501.9,166.0 502.0,166.0 502.1,166.0 502.2,166.0 502.3,166.0 502.4,166.0 502.5,166.0 502.6,166.0 502.7,166.0 502.8,166.0 502.9,166.0 503.0,166.0 503.1,166.0 503.2,166.0 503.3,166.0 503.4,166.0 503.5,166.0 503.6,166.0 503.7,166.0 503.8,166.0 503.9,166.0 504.0,166.0 504.1,166.0 504.2,166.0 504.3,166.0 504.4,166.0 504.5,166.0 504.6,166.0 504.7,166.0 504.8,166.0 504.9,166.0 505.0,166.0 505.1,166.0 505.2,166.0 505.3,166.0 505.4,166.0 505.5,166.0 505.6,166.0 505.7,166.0 505.8,166.0 505.9,166.0 506.0,166.0 506.1,166.0 506.2,166.0 506.3,166.0 506.4,166.0 506.5,166.0 506.6,166.0 506.7,166.0 506.8,166.0 506.9,166.0 507.0,166.0 507.1,166.0 507.2,166.0 507.3,166.0 507.4,166.0 507.5,166.0 507.6,166.0 507.7,166.0 507.8,166.0 507.9,166.0 508.0,166.0 508.1,166.0 508.2,166.0 508.3,166.0 508.4,166.0 508.5,166.0 508.6,166.0 508.7,166.0 508.8,166.0 508.9,166.0 509.0,166.0 509.1,166.0 509.2,166.0 509.3,166.0 509.4,166.0 509.5,166.0 509.6,166.0 509.7,166.0 509.8,166.0 509.9,166.0 510.0,166.0 510.1,166.0 510.2,166.0 510.3,166.0 510.4,166.0 510.5,166.0 510.6,166.0 510.7,166.0 510.8,166.0 510.9,166.0 511.0,166.0 511.1,166.0 511.2,166.0 511.3,166.0 511.4,166.0 511.5,166.0 511.6,166.0 511.7,166.0 511.8,166.0 511.9,166.0 512.0,166.0 512.1,166.0 512.2,166.0 512.3,166.0 512.4,166.0 512.5,166.0 512.6,166.0 512.7,166.0 512.8,166.0 512.9,166.0 513.0,166.0 513.1,166.0 513.2,166.0 513.3,166.0 513.4,166.0 513.5,166.0 513.6,166.0 513.7,166.0 513.8,166.0 513.9,166.0 514.0,166.0 514.1,166.0 514.2,166.0 514.3,166.0 514.4,166.0 514.5,166.0 514.6,166.0 514.7,166.0 514.8,166.0 514.9,166.0 515.0,166.0 515.1,166.0 515.2,166.0 515.3,166.0 515.4,166.0 515.5,166.0 515.6,166.0 515.7,166.0 515.8,166.0 515.9,166.0 516.0,166.0 516.1,166.0 516.2,166.0 516.3,166.0 516.4,166.0 516.5,166.0 516.6,166.0 516.7,166.0 516.8,166.0 516.9,166.0 517.0,166.0 517.1,166.0 517.2,166.0 517.3,166.0 517.4,166.0 517.5,166.0 517.6,166.0 517.7,166.0 517.8,166.0 517.9,166.0 518.0,166.0 518.1,166.0 518.2,166.0 518.3,166.0 518.4,166.0 518.5,166.0 518.6,166.0 518.7,166.0 518.8,166.0 518.9,166.0 519.0,166.0 519.1,166.0 519.2,166.0 519.3,166.0 519.4,166.0 519.5,166.0 519.6,166.0 519.7,166.0 519.8,166.0 519.9,166.0 520.0,166.0 520.1,166.0 520.2,166.0 520.3,166.0 520.4,166.0 520.5,166.0 520.6,166.0 520.7,166.0 520.8,166.0 520.9,166.0 521.0,166.0 521.1,166.0 521.2,166.0 521.3,166.0 521.4,166.0 521.5,166.0 521.6,166.0 521.7,166.0 521.8,166.0 521.9,166.0 522.0,166.0 522.1,166.0 522.2,166.0 522.3,166.0 522.4,166.0 522.5,166.0 522.6,166.0 522.7,166.0 522.8,166.0 522.9,166.0 523.0,166.0 523.1,166.0 523.2,166.0 523.3,166.0 523.4,166.0 523.5,166.0 523.6,166.0 523.7,166.0 523.8,166.0 523.9,166.0 524.0,166.0 524.1,166.0 524.2,166.0 524.3,166.0 524.4,166.0 524.5,166.0 524.6,166.0 524.7,166.0 524.8,166.0 524.9,166.0 525.0,166.0 525.1,166.0 525.2,166.0 525.3,166.0 525.4,166.0 525.5,166.0 525.6,166.0 525.7,166.0 525.8,166.0 525.9,166.0 526.0,166.0 526.1,166.0 526.2,166.0 526.3,166.0 526.4,166.0 526.5,166.0 526.6,166.0 526.7,166.0 526.8,166.0 526.9,166.0 527.0,166.0" fill="none" stroke="#4a90d9" stroke-width="1.2" stroke-linejoin="round"/>
  <text x="154.5" y="190" text-anchor="middle" font-size="8" fill="#6b7280">n / N</text>
  <text x="424.5" y="190" text-anchor="middle" font-size="8" fill="#6b7280">Normalized frequency (× Fₛ)</text>
</svg>
