<svg xmlns="http://www.w3.org/2000/svg" viewBox="0 0 560 190" width="560" height="190" style="font-family:system-ui,-apple-system,sans-serif">
  <rect width="560" height="190" fill="#fafafa" rx="6"/>
  <line x1="52" y1="152.0" x2="257" y2="152.0" stroke="#e5e7eb" stroke-width="0.5"/>
  <text x="48" y="155.0" text-anchor="end" font-size="7.5" fill="#6b7280">0</text>
  <line x1="52" y1="82.0" x2="257" y2="82.0" stroke="#e5e7eb" stroke-width="0.5"/>
  <text x="48" y="85.0" text-anchor="end" font-size="7.5" fill="#6b7280">0.5</text>
  <line x1="52" y1="12.0" x2="257" y2="12.0" stroke="#e5e7eb" stroke-width="0.5"/>
  <text x="48" y="15.0" text-anchor="end" font-size="7.5" fill="#6b7280">1</text>
  <line x1="52.0" y1="12" x2="52.0" y2="152" stroke="#e5e7eb" stroke-width="0.5"/>
  <text x="52.0" y="164" text-anchor="middle" font-size="7.5" fill="#6b7280">0</text>
  <line x1="154.5" y1="12" x2="154.5" y2="152" stroke="#e5e7eb" stroke-width="0.5"/>
  <text x="154.5" y="164" text-anchor="middle" font-size="7.5" fill="#6b7280">0.5</text>
  <line x1="257.0" y1="12" x2="257.0" y2="152" stroke="#e5e7eb" stroke-width="0.5"/>
  <text x="257.0" y="164" text-anchor="middle" font-size="7.5" fill="#6b7280">1</text>
  <line x1="52" y1="12" x2="52" y2="152" stroke="#d1d5db" stroke-width="0.75"/>
  <line x1="52" y1="152" x2="257" y2="152" stroke="#d1d5db" stroke-width="0.75"/>
  <path d="M52.0,152.0 52.0,152.0 52.8,152.0 53.6,152.0 54.4,151.9 55.2,151.2 56.0,149.1 56.8,145.0 57.6,138.8 58.4,130.9 59.2,121.7 60.0,111.7 60.8,101.1 61.6,90.2 62.5,79.3 63.3,68.3 64.1,57.6 64.9,47.2 65.7,37.5 66.5,28.9 67.3,21.9 68.1,16.7 68.9,13.6 69.7,12.3 70.5,12.0 71.3,12.0 72.1,12.0 72.9,12.0 73.7,12.0 74.5,12.0 75.3,12.0 76.1,12.0 76.9,12.0 77.7,12.0 78.5,12.0 79.3,12.0 80.1,12.0 80.9,12.0 81.7,12.0 82.5,12.0 83.4,12.0 84.2,12.0 85.0,12.0 85.8,12.0 86.6,12.0 87.4,12.0 88.2,12.0 89.0,12.0 89.8,12.0 90.6,12.0 91.4,12.0 92.2,12.0 93.0,12.0 93.8,12.0 94.6,12.0 95.4,12.0 96.2,12.0 97.0,12.0 97.8,12.0 98.6,12.0 99.4,12.0 100.2,12.0 101.0,12.0 101.8,12.0 102.6,12.0 103.5,12.0 104.3,12.0 105.1,12.0 105.9,12.0 106.7,12.0 107.5,12.0 108.3,12.0 109.1,12.0 109.9,12.0 110.7,12.0 111.5,12.0 112.3,12.0 113.1,12.0 113.9,12.0 114.7,12.0 115.5,12.0 116.3,12.0 117.1,12.0 117.9,12.0 118.7,12.0 119.5,12.0 120.3,12.0 121.1,12.0 121.9,12.0 122.7,12.0 123.5,12.0 124.4,12.0 125.2,12.0 126.0,12.0 126.8,12.0 127.6,12.0 128.4,12.0 129.2,12.0 130.0,12.0 130.8,12.0 131.6,12.0 132.4,12.0 133.2,12.0 134.0,12.0 134.8,12.0 135.6,12.0 136.4,12.0 137.2,12.0 138.0,12.0 138.8,12.0 139.6,12.0 140.4,12.0 141.2,12.0 142.0,12.0 142.8,12.0 143.6,12.0 144.5,12.0 145.3,12.0 146.1,12.0 146.9,12.0 147.7,12.0 148.5,12.0 149.3,12.0 150.1,12.0 150.9,12.0 151.7,12.0 152.5,12.0 153.3,12.0 154.1,12.0 154.9,12.0 155.7,12.0 156.5,12.0 157.3,12.0 158.1,12.0 158.9,12.0 159.7,12.0 160.5,12.0 161.3,12.0 162.1,12.0 162.9,12.0 163.7,12.0 164.5,12.0 165.4,12.0 166.2,12.0 167.0,12.0 167.8,12.0 168.6,12.0 169.4,12.0 170.2,12.0 171.0,12.0 171.8,12.0 172.6,12.0 173.4,12.0 174.2,12.0 175.0,12.0 175.8,12.0 176.6,12.0 177.4,12.0 178.2,12.0 179.0,12.0 179.8,12.0 180.6,12.0 181.4,12.0 182.2,12.0 183.0,12.0 183.8,12.0 184.6,12.0 185.5,12.0 186.3,12.0 187.1,12.0 187.9,12.0 188.7,12.0 189.5,12.0 190.3,12.0 191.1,12.0 191.9,12.0 192.7,12.0 193.5,12.0 194.3,12.0 195.1,12.0 195.9,12.0 196.7,12.0 197.5,12.0 198.3,12.0 199.1,12.0 199.9,12.0 200.7,12.0 201.5,12.0 202.3,12.0 203.1,12.0 203.9,12.0 204.7,12.0 205.5,12.0 206.4,12.0 207.2,12.0 208.0,12.0 208.8,12.0 209.6,12.0 210.4,12.0 211.2,12.0 212.0,12.0 212.8,12.0 213.6,12.0 214.4,12.0 215.2,12.0 216.0,12.0 216.8,12.0 217.6,12.0 218.4,12.0 219.2,12.0 220.0,12.0 220.8,12.0 221.6,12.0 222.4,12.0 223.2,12.0 224.0,12.0 224.8,12.0 225.6,12.0 226.5,12.0 227.3,12.0 228.1,12.0 228.9,12.0 229.7,12.0 230.5,12.0 231.3,12.0 232.1,12.0 232.9,12.0 233.7,12.0 234.5,12.0 235.3,12.0 236.1,12.0 236.9,12.0 237.7,12.0 238.5,12.0 239.3,12.3 240.1,13.6 240.9,16.7 241.7,21.9 242.5,28.9 243.3,37.5 244.1,47.2 244.9,57.6 245.7,68.3 246.5,79.3 247.4,90.2 248.2,101.1 249.0,111.7 249.8,121.7 250.6,130.9 251.4,138.8 252.2,145.0 253.0,149.1 253.8,151.2 254.6,151.9 255.4,152.0 256.2,152.0 257.0,152.0 L257.0,152.0 Z" fill="#4a90d9" fill-opacity="0.06"/>
  <polyline points="52.0,152.0 52.8,152.0 53.6,152.0 54.4,151.9 55.2,151.2 56.0,149.1 56.8,145.0 57.6,138.8 58.4,130.9 59.2,121.7 60.0,111.7 60.8,101.1 61.6,90.2 62.5,79.3 63.3,68.3 64.1,57.6 64.9,47.2 65.7,37.5 66.5,28.9 67.3,21.9 68.1,16.7 68.9,13.6 69.7,12.3 70.5,12.0 71.3,12.0 72.1,12.0 72.9,12.0 73.7,12.0 74.5,12.0 75.3,12.0 76.1,12.0 76.9,12.0 77.7,12.0 78.5,12.0 79.3,12.0 80.1,12.0 80.9,12.0 81.7,12.0 82.5,12.0 83.4,12.0 84.2,12.0 85.0,12.0 85.8,12.0 86.6,12.0 87.4,12.0 88.2,12.0 89.0,12.0 89.8,12.0 90.6,12.0 91.4,12.0 92.2,12.0 93.0,12.0 93.8,12.0 94.6,12.0 95.4,12.0 96.2,12.0 97.0,12.0 97.8,12.0 98.6,12.0 99.4,12.0 100.2,12.0 101.0,12.0 101.8,12.0 102.6,12.0 103.5,12.0 104.3,12.0 105.1,12.0 105.9,12.0 106.7,12.0 107.5,12.0 108.3,12.0 109.1,12.0 109.9,12.0 110.7,12.0 111.5,12.0 112.3,12.0 113.1,12.0 113.9,12.0 114.7,12.0 115.5,12.0 116.3,12.0 117.1,12.0 117.9,12.0 118.7,12.0 119.5,12.0 120.3,12.0 121.1,12.0 121.9,12.0 122.7,12.0 123.5,12.0 124.4,12.0 125.2,12.0 126.0,12.0 126.8,12.0 127.6,12.0 128.4,12.0 129.2,12.0 130.0,12.0 130.8,12.0 131.6,12.0 132.4,12.0 133.2,12.0 134.0,12.0 134.8,12.0 135.6,12.0 136.4,12.0 137.2,12.0 138.0,12.0 138.8,12.0 139.6,12.0 140.4,12.0 141.2,12.0 142.0,12.0 142.8,12.0 143.6,12.0 144.5,12.0 145.3,12.0 146.1,12.0 146.9,12.0 147.7,12.0 148.5,12.0 149.3,12.0 150.1,12.0 150.9,12.0 151.7,12.0 152.5,12.0 153.3,12.0 154.1,12.0 154.9,12.0 155.7,12.0 156.5,12.0 157.3,12.0 158.1,12.0 158.9,12.0 159.7,12.0 160.5,12.0 161.3,12.0 162.1,12.0 162.9,12.0 163.7,12.0 164.5,12.0 165.4,12.0 166.2,12.0 167.0,12.0 167.8,12.0 168.6,12.0 169.4,12.0 170.2,12.0 171.0,12.0 171.8,12.0 172.6,12.0 173.4,12.0 174.2,12.0 175.0,12.0 175.8,12.0 176.6,12.0 177.4,12.0 178.2,12.0 179.0,12.0 179.8,12.0 180.6,12.0 181.4,12.0 182.2,12.0 183.0,12.0 183.8,12.0 184.6,12.0 185.5,12.0 186.3,12.0 187.1,12.0 187.9,12.0 188.7,12.0 189.5,12.0 190.3,12.0 191.1,12.0 191.9,12.0 192.7,12.0 193.5,12.0 194.3,12.0 195.1,12.0 195.9,12.0 196.7,12.0 197.5,12.0 198.3,12.0 199.1,12.0 199.9,12.0 200.7,12.0 201.5,12.0 202.3,12.0 203.1,12.0 203.9,12.0 204.7,12.0 205.5,12.0 206.4,12.0 207.2,12.0 208.0,12.0 208.8,12.0 209.6,12.0 210.4,12.0 211.2,12.0 212.0,12.0 212.8,12.0 213.6,12.0 214.4,12.0 215.2,12.0 216.0,12.0 216.8,12.0 217.6,12.0 218.4,12.0 219.2,12.0 220.0,12.0 220.8,12.0 221.6,12.0 222.4,12.0 223.2,12.0 224.0,12.0 224.8,12.0 225.6,12.0 226.5,12.0 227.3,12.0 228.1,12.0 228.9,12.0 229.7,12.0 230.5,12.0 231.3,12.0 232.1,12.0 232.9,12.0 233.7,12.0 234.5,12.0 235.3,12.0 236.1,12.0 236.9,12.0 237.7,12.0 238.5,12.0 239.3,12.3 240.1,13.6 240.9,16.7 241.7,21.9 242.5,28.9 243.3,37.5 244.1,47.2 244.9,57.6 245.7,68.3 246.5,79.3 247.4,90.2 248.2,101.1 249.0,111.7 249.8,121.7 250.6,130.9 251.4,138.8 252.2,145.0 253.0,149.1 253.8,151.2 254.6,151.9 255.4,152.0 256.2,152.0 257.0,152.0" fill="none" stroke="#4a90d9" stroke-width="1.2" stroke-linejoin="round"/>
  <line x1="322" y1="12.0" x2="527" y2="12.0" stroke="#e5e7eb" stroke-width="0.5"/>
  <text x="318" y="15.0" text-anchor="end" font-size="7.5" fill="#6b7280">0</text>
  <line x1="322" y1="58.7" x2="527" y2="58.7" stroke="#e5e7eb" stroke-width="0.5"/>
  <text x="318" y="61.7" text-anchor="end" font-size="7.5" fill="#6b7280">-40</text>
  <line x1="322" y1="105.3" x2="527" y2="105.3" stroke="#e5e7eb" stroke-width="0.5"/>
  <text x="318" y="108.3" text-anchor="end" font-size="7.5" fill="#6b7280">-80</text>
  <line x1="322" y1="152.0" x2="527" y2="152.0" stroke="#e5e7eb" stroke-width="0.5"/>
  <text x="318" y="155.0" text-anchor="end" font-size="7.5" fill="#6b7280">-120</text>
  <line x1="322.0" y1="12" x2="322.0" y2="152" stroke="#e5e7eb" stroke-width="0.5"/>
  <text x="322.0" y="164" text-anchor="middle" font-size="7.5" fill="#6b7280">0</text>
  <line x1="363.0" y1="12" x2="363.0" y2="152" stroke="#e5e7eb" stroke-width="0.5"/>
  <text x="363.0" y="164" text-anchor="middle" font-size="7.5" fill="#6b7280">0.1</text>
  <line x1="404.0" y1="12" x2="404.0" y2="152" stroke="#e5e7eb" stroke-width="0.5"/>
  <text x="404.0" y="164" text-anchor="middle" font-size="7.5" fill="#6b7280">0.2</text>
  <line x1="445.0" y1="12" x2="445.0" y2="152" stroke="#e5e7eb" stroke-width="0.5"/>
  <text x="445.0" y="164" text-anchor="middle" font-size="7.5" fill="#6b7280">0.3</text>
  <line x1="486.0" y1="12" x2="486.0" y2="152" stroke="#e5e7eb" stroke-width="0.5"/>
  <text x="486.0" y="164" text-anchor="middle" font-size="7.5" fill="#6b7280">0.4</text>
  <line x1="527.0" y1="12" x2="527.0" y2="152" stroke="#e5e7eb" stroke-width="0.5"/>
  <text x="527.0" y="164" text-anchor="middle" font-size="7.5" fill="#6b7280">0.5</text>
  <line x1="322" y1="12" x2="322" y2="152" stroke="#d1d5db" stroke-width="0.75"/>
  <line x1="322" y1="152" x2="527" y2="152" stroke="#d1d5db" stroke-width="0.75"/>
  <polyline points="322.0,12.0 322.1,12.1 322.2,12.2 322.3,12.5 322.4,12.9 322.5,13.3 322.6,14.0 322.7,14.7 322.8,15.6 322.9,16.7 323.0,17.9 323.1,19.4 323.2,21.2 323.3,23.3 323.4,25.9 323.5,29.3 323.6,34.1 323.7,42.5 323.8,60.4 323.9,40.5 324.0,34.9 324.1,31.8 324.2,29.9 324.3,28.7 324.4,28.0 324.5,27.6 324.6,27.6 324.7,28.0 324.8,28.6 324.9,29.5 325.0,30.8 325.1,32.5 325.2,34.8 325.3,38.0 325.4,42.8 325.5,52.0 325.6,60.6 325.7,46.3 325.8,41.0 325.9,37.9 326.0,35.9 326.1,34.6 326.2,33.8 326.3,33.3 326.4,33.2 326.5,33.4 326.6,33.9 326.7,34.8 326.8,36.0 326.9,37.7 327.0,40.0 327.1,43.3 327.2,48.3 327.3,59.0 327.4,61.0 327.5,49.5 327.6,44.7 327.7,41.7 327.8,39.8 327.9,38.5 328.0,37.6 328.1,37.2 328.2,37.1 328.3,37.3 328.4,37.8 328.5,38.6 328.6,39.9 328.7,41.6 328.8,44.0 328.9,47.4 329.0,52.9 329.1,65.8 329.2,61.5 329.3,51.9 329.4,47.4 329.5,44.6 329.6,42.8 329.7,41.5 329.8,40.7 329.9,40.3 330.0,40.2 330.1,40.4 330.2,40.9 330.3,41.8 330.4,43.1 330.5,44.9 330.6,47.4 330.7,51.0 330.8,56.9 330.9,73.8 331.0,62.1 331.1,53.9 331.2,49.7 331.3,47.1 331.4,45.3 331.5,44.1 331.6,43.4 331.7,43.0 331.8,42.9 331.9,43.2 332.0,43.8 332.1,44.7 332.2,46.0 332.3,47.9 332.4,50.5 332.5,54.3 332.6,60.9 332.7,86.8 332.8,62.9 332.9,55.7 333.0,51.9 333.1,49.4 333.2,47.7 333.3,46.6 333.4,45.9 333.5,45.5 333.6,45.5 333.7,45.8 333.8,46.4 333.9,47.4 334.0,48.8 334.1,50.7 334.2,53.5 334.3,57.6 334.4,65.0 334.5,91.7 334.6,63.9 334.7,57.5 334.8,53.9 334.9,51.6 335.0,50.0 335.1,48.9 335.2,48.3 335.3,48.0 335.4,48.0 335.5,48.3 335.6,49.0 335.7,50.0 335.8,51.5 335.9,53.6 336.0,56.5 336.1,60.9 336.2,69.3 336.3,82.2 336.4,65.0 336.5,59.3 336.6,56.0 336.7,53.8 336.8,52.3 336.9,51.3 337.0,50.7 337.1,50.4 337.2,50.5 337.3,50.9 337.4,51.6 337.5,52.7 337.6,54.3 337.7,56.5 337.8,59.5 337.9,64.3 338.0,74.0 338.1,79.4 338.2,66.4 338.3,61.2 338.4,58.1 338.5,56.0 338.6,54.6 338.7,53.7 338.8,53.2 338.9,53.0 339.0,53.1 339.1,53.6 339.2,54.4 339.3,55.5 339.4,57.2 339.5,59.4 339.6,62.7 339.7,67.9 339.8,79.4 339.9,78.6 340.0,68.0 340.1,63.3 340.2,60.4 340.3,58.4 340.4,57.1 340.5,56.3 340.6,55.8 340.7,55.7 340.8,55.9 340.9,56.4 341.0,57.2 341.1,58.5 341.2,60.2 341.3,62.6 341.4,66.1 341.5,71.8 341.6,86.2 341.7,78.8 341.8,69.9 341.9,65.6 342.0,62.9 342.1,61.0 342.2,59.8 342.3,59.0 342.4,58.6 342.5,58.6 342.6,58.8 342.7,59.4 342.8,60.3 342.9,61.7 343.0,63.5 343.1,66.1 343.2,69.8 343.3,76.0 343.4,95.7 343.5,79.8 343.6,72.2 343.7,68.2 343.8,65.6 343.9,63.9 344.0,62.8 344.1,62.1 344.2,61.8 344.3,61.8 344.4,62.1 344.5,62.8 344.6,63.8 344.7,65.2 344.8,67.1 344.9,69.8 345.0,73.9 345.1,80.8 345.2,122.2 345.3,81.6 345.4,74.8 345.5,71.2 345.6,68.8 345.7,67.3 345.8,66.2 345.9,65.6 346.0,65.4 346.1,65.5 346.2,65.9 346.3,66.6 346.4,67.7 346.5,69.2 346.6,71.3 346.7,74.2 346.8,78.5 346.9,86.4 347.0,105.4 347.1,84.2 347.2,78.2 347.3,74.8 347.4,72.6 347.5,71.2 347.6,70.3 347.7,69.8 347.8,69.7 347.9,69.8 348.0,70.3 348.1,71.2 348.2,72.4 348.3,74.0 348.4,76.3 348.5,79.4 348.6,84.1 348.7,93.2 348.8,102.6 348.9,87.9 349.0,82.5 349.1,79.5 349.2,77.5 349.3,76.3 349.4,75.5 349.5,75.1 349.6,75.1 349.7,75.5 349.8,76.1 349.9,77.1 350.0,78.5 350.1,80.3 350.2,82.8 350.3,86.2 350.4,91.4 350.5,102.2 350.6,105.1 350.7,93.6 350.8,89.0 350.9,86.3 351.0,84.6 351.1,83.7 351.2,83.2 351.3,83.1 351.4,83.4 351.5,84.1 351.6,85.1 351.7,86.4 351.8,88.2 351.9,90.5 352.0,93.6 352.1,97.7 352.2,103.9 352.3,117.4 352.4,114.8 352.5,106.2 352.6,102.9 352.7,101.6 352.8,101.5 352.9,102.4 353.0,104.5 353.1,108.1 353.2,115.0 353.3,152.0 353.4,115.4 353.5,109.2 353.6,106.3 353.7,105.1 353.8,105.3 353.9,107.0 354.0,111.3 354.1,126.1 354.2,114.1 354.3,104.7 354.4,99.5 354.5,95.9 354.6,93.2 354.7,91.2 354.8,89.7 354.9,88.6 355.0,87.9 355.1,87.5 355.2,87.5 355.3,87.8 355.4,88.6 355.5,89.9 355.6,92.0 355.7,95.4 355.8,101.4 355.9,125.2 356.0,102.9 356.1,95.2 356.3,90.9 356.4,88.0 356.5,86.0 356.6,84.5 356.7,83.4 356.8,82.7 356.9,82.4 357.0,82.3 357.1,82.6 357.2,83.3 357.3,84.4 357.4,86.1 357.5,88.5 357.6,92.3 357.7,99.3 357.8,128.9 357.9,98.0 358.0,91.3 358.1,87.5 358.2,84.9 358.3,83.0 358.4,81.7 358.5,80.8 358.6,80.3 358.7,80.1 358.8,80.2 358.9,80.7 359.0,81.5 359.1,82.8 359.2,84.6 359.3,87.3 359.4,91.5 359.5,99.5 359.6,113.3 359.7,95.3 359.8,89.3 359.9,85.7 360.0,83.3 360.1,81.7 360.2,80.5 360.3,79.7 360.4,79.3 360.5,79.2 360.6,79.4 360.7,80.0 360.8,80.9 360.9,82.3 361.0,84.3 361.1,87.2 361.2,91.8 361.3,101.1 361.4,107.2 361.5,93.7 361.6,88.3 361.7,85.0 361.8,82.8 361.9,81.2 362.0,80.2 362.1,79.5 362.2,79.1 362.3,79.1 362.4,79.5 362.5,80.1 362.6,81.1 362.7,82.6 362.8,84.8 362.9,87.9 363.0,92.9 363.1,104.1 363.2,103.8 363.3,92.9 363.4,88.0 363.5,84.9 363.6,82.9 363.7,81.4 363.8,80.4 363.9,79.9 364.0,79.6 364.1,79.7 364.2,80.1 364.3,80.8 364.4,81.9 364.5,83.5 364.6,85.8 364.7,89.2 364.8,94.7 364.9,108.6 365.0,101.9 365.1,92.7 365.2,88.2 365.3,85.4 365.4,83.5 365.5,82.1 365.6,81.3 365.7,80.7 365.8,80.6 365.9,80.7 366.0,81.2 366.1,82.0 366.2,83.2 366.3,84.9 366.4,87.4 366.5,91.0 366.6,97.1 366.7,115.8 366.8,101.0 366.9,93.1 367.0,89.0 367.1,86.4 367.2,84.6 367.3,83.3 367.4,82.5 367.5,82.1 367.6,82.0 367.7,82.2 367.8,82.8 367.9,83.7 368.0,85.0 368.1,86.8 368.2,89.4 368.3,93.3 368.4,100.1 368.5,134.5 368.6,101.0 368.7,94.1 368.8,90.3 368.9,87.8 369.0,86.1 369.1,85.0 369.2,84.3 369.3,83.9 369.4,83.9 369.5,84.2 369.6,84.8 369.7,85.8 369.8,87.2 369.9,89.2 370.0,92.0 370.1,96.2 370.2,103.8 370.3,124.3 370.4,101.7 370.5,95.6 370.6,92.1 370.7,89.8 370.8,88.2 370.9,87.2 371.0,86.6 371.1,86.3 371.2,86.4 371.3,86.7 371.4,87.4 371.5,88.5 371.6,90.0 371.7,92.1 371.8,95.1 371.9,99.7 372.0,108.5 372.1,118.7 372.2,103.3 372.3,97.7 372.4,94.5 372.5,92.4 372.6,91.0 372.7,90.1 372.8,89.5 372.9,89.4 373.0,89.5 373.1,90.0 373.2,90.8 373.3,92.0 373.4,93.6 373.5,95.9 373.6,99.1 373.7,104.1 373.8,114.3 373.9,117.7 374.0,105.7 374.1,100.8 374.2,97.8 374.3,95.9 374.4,94.6 374.5,93.8 374.6,93.4 374.7,93.4 374.8,93.6 374.9,94.2 375.0,95.2 375.1,96.5 375.2,98.3 375.3,100.7 375.4,104.2 375.5,109.7 375.6,122.2 375.7,119.5 375.8,109.7 375.9,105.3 376.0,102.6 376.1,100.9 376.2,99.8 376.3,99.2 376.4,99.0 376.5,99.1 376.6,99.6 376.7,100.4 376.8,101.5 376.9,103.1 377.0,105.1 377.1,107.9 377.2,111.8 377.3,118.0 377.4,134.1 377.5,124.7 377.6,116.7 377.7,112.9 377.8,110.7 377.9,109.5 378.0,108.8 378.1,108.7 378.2,109.0 378.3,109.7 378.4,110.7 378.5,112.2 378.6,114.1 378.7,116.6 378.8,119.8 378.9,123.9 379.0,129.5 379.1,138.3 379.2,152.0 379.3,148.6 379.4,149.6 379.5,152.0 379.6,138.0 379.7,130.2 379.8,125.3 379.9,121.8 380.0,119.2 380.1,117.4 380.2,116.1 380.3,115.3 380.4,115.1 380.5,115.4 380.6,116.3 380.7,118.1 380.8,121.3 380.9,127.6 381.0,152.0 381.1,125.8 381.2,118.6 381.3,114.3 381.4,111.4 381.5,109.2 381.6,107.6 381.7,106.4 381.8,105.6 381.9,105.1 382.0,105.0 382.1,105.2 382.2,105.8 382.3,106.8 382.4,108.5 382.5,110.9 382.6,114.9 382.7,122.7 382.8,137.4 382.9,118.5 383.0,112.3 383.1,108.5 383.2,106.0 383.3,104.1 383.4,102.8 383.5,101.9 383.6,101.4 383.7,101.2 383.8,101.3 383.9,101.7 384.0,102.5 384.1,103.8 384.2,105.7 384.3,108.5 384.4,112.9 384.5,122.0 384.6,128.7 384.7,114.8 384.8,109.2 384.9,105.8 385.0,103.5 385.1,101.9 385.2,100.7 385.3,99.9 385.4,99.5 385.5,99.5 385.6,99.7 385.7,100.3 385.8,101.2 385.9,102.6 386.0,104.7 386.1,107.7 386.2,112.6 386.3,123.5 386.4,123.9 386.5,112.7 386.6,107.7 386.7,104.5 386.8,102.4 386.9,100.9 387.0,99.9 387.1,99.2 387.2,98.9 387.3,98.9 387.4,99.2 387.5,99.9 387.6,101.0 387.7,102.6 387.8,104.8 387.9,108.1 388.0,113.5 388.1,126.9 388.2,121.0 388.3,111.6 388.4,107.1 388.5,104.2 388.6,102.2 388.7,100.8 388.8,99.9 388.9,99.3 389.0,99.1 389.1,99.2 389.2,99.6 389.3,100.4 389.4,101.6 389.5,103.2 389.6,105.6 389.7,109.2 389.8,115.2 389.9,133.1 390.0,119.4 390.1,111.4 390.2,107.2 390.3,104.5 390.4,102.7 390.5,101.4 390.6,100.5 390.7,100.1 390.8,100.0 390.9,100.1 391.0,100.6 391.1,101.5 391.2,102.8 391.3,104.6 391.4,107.2 391.5,111.0 391.6,117.7 391.7,148.2 391.8,118.9 391.9,111.8 392.0,108.0 392.1,105.5 392.2,103.8 392.3,102.6 392.4,101.9 392.5,101.5 392.6,101.4 392.7,101.7 392.8,102.3 392.9,103.3 393.0,104.7 393.1,106.6 393.2,109.3 393.3,113.5 393.4,121.0 393.5,143.3 393.6,119.3 393.7,113.0 393.8,109.5 393.9,107.1 394.0,105.6 394.1,104.5 394.2,103.9 394.3,103.6 394.4,103.6 394.5,104.0 394.6,104.7 394.7,105.7 394.8,107.2 394.9,109.3 395.0,112.3 395.1,116.8 395.2,125.4 395.3,136.5 395.4,120.6 395.5,115.0 395.6,111.7 395.7,109.6 395.8,108.1 395.9,107.2 396.0,106.7 396.1,106.5 396.2,106.6 396.3,107.1 396.4,107.9 396.5,109.1 396.6,110.7 396.7,113.0 396.8,116.2 396.9,121.1 397.0,131.2 397.1,135.3 397.2,123.0 397.3,118.0 397.4,115.1 397.5,113.1 397.6,111.8 397.7,111.1 397.8,110.7 397.9,110.6 398.0,110.9 398.1,111.5 398.2,112.4 398.3,113.8 398.4,115.6 398.5,118.1 398.6,121.6 398.7,127.0 398.8,139.3 398.9,137.2 399.0,127.3 399.1,122.9 399.2,120.3 399.3,118.6 399.4,117.6 399.5,117.0 399.6,116.8 399.7,117.0 399.8,117.5 399.9,118.4 400.0,119.6 400.1,121.3 400.2,123.5 400.3,126.3 400.4,130.3 400.5,136.6 400.6,152.0 400.7,144.1 400.8,136.1 400.9,132.6 401.0,130.7 401.1,129.7 401.2,129.5 401.3,129.9 401.4,130.7 401.5,132.1 401.6,134.2 401.7,137.0 401.8,140.8 401.9,146.3 402.0,152.0 402.1,152.0 402.2,152.0 402.3,152.0 402.4,152.0 402.5,152.0 402.6,145.8 402.7,139.9 402.8,135.8 402.9,132.7 403.0,130.3 403.1,128.4 403.2,127.0 403.3,126.0 403.4,125.4 403.5,125.2 403.6,125.4 403.7,126.1 403.8,127.3 403.9,129.4 404.0,132.8 404.1,139.3 404.2,152.0 404.3,138.2 404.4,131.0 404.5,126.9 404.6,124.0 404.7,121.9 404.8,120.4 404.9,119.3 405.0,118.6 405.1,118.2 405.2,118.1 405.3,118.4 405.4,119.1 405.5,120.2 405.6,121.8 405.7,124.4 405.8,128.3 405.9,136.0 406.0,152.0 406.1,132.3 406.2,126.0 406.3,122.3 406.4,119.8 406.5,118.0 406.6,116.7 406.7,115.8 406.8,115.3 406.9,115.1 407.0,115.2 407.1,115.7 407.2,116.5 407.3,117.8 407.4,119.7 407.5,122.5 407.6,126.9 407.7,135.9 407.8,143.4 407.9,129.1 408.0,123.5 408.1,120.1 408.2,117.8 408.3,116.1 408.4,115.0 408.5,114.2 408.6,113.8 408.7,113.8 408.8,114.0 408.9,114.6 409.0,115.6 409.1,117.0 409.2,119.1 409.3,122.1 409.4,127.0 409.5,137.6 409.6,138.7 409.7,127.3 409.8,122.2 409.9,119.1 410.0,117.0 410.1,115.5 410.2,114.4 410.3,113.8 410.4,113.5 410.5,113.5 410.6,113.9 410.7,114.6 410.8,115.6 410.9,117.2 411.0,119.4 411.1,122.7 411.2,128.1 411.3,141.2 411.4,136.0 411.5,126.5 411.6,121.9 411.7,119.0 411.8,117.0 411.9,115.6 412.0,114.7 412.1,114.2 412.2,114.0 412.3,114.1 412.4,114.5 412.5,115.3 412.6,116.5 412.7,118.2 412.8,120.6 412.9,124.1 413.0,130.1 413.1,147.4 413.2,134.7 413.3,126.6 413.4,122.4 413.5,119.7 413.6,117.8 413.7,116.6 413.8,115.8 413.9,115.3 414.0,115.2 414.1,115.4 414.2,115.9 414.3,116.8 414.4,118.1 414.5,119.9 414.6,122.5 414.7,126.3 414.8,133.0 414.9,152.0 415.0,134.6 415.1,127.4 415.2,123.6 415.3,121.1 415.4,119.4 415.5,118.3 415.6,117.5 415.7,117.2 415.8,117.2 415.9,117.5 416.0,118.1 416.1,119.1 416.2,120.5 416.3,122.5 416.4,125.2 416.5,129.4 416.6,136.9 416.7,152.0 416.8,135.5 416.9,129.2 417.0,125.7 417.1,123.4 417.2,121.9 417.3,120.9 417.4,120.3 417.5,120.0 417.6,120.1 417.7,120.5 417.8,121.2 417.9,122.4 418.0,123.9 418.1,126.1 418.2,129.1 418.3,133.6 418.4,142.2 418.5,152.0 418.6,137.8 418.7,132.2 418.8,129.0 418.9,127.0 419.0,125.6 419.1,124.7 419.2,124.3 419.3,124.2 419.4,124.4 419.5,125.0 419.6,125.9 419.7,127.2 419.8,128.9 419.9,131.3 420.0,134.6 420.1,139.6 420.2,149.7 420.3,152.0 420.4,142.3 420.5,137.4 420.6,134.6 420.7,132.8 420.8,131.7 420.9,131.2 421.0,131.0 421.1,131.2 421.2,131.7 421.3,132.6 421.4,133.9 421.5,135.5 421.6,137.7 421.7,140.6 421.8,144.5 421.9,150.4 422.0,152.0 422.1,152.0 422.2,152.0 422.3,149.2 422.4,147.5 422.5,146.9 422.6,147.2 422.7,148.3 422.8,150.4 422.9,152.0 423.0,152.0 423.1,152.0 423.2,152.0 423.3,152.0 423.4,152.0 423.5,152.0 423.6,152.0 423.7,152.0 423.8,152.0 423.9,152.0 424.0,152.0 424.1,148.2 424.2,144.4 424.3,141.6 424.4,139.5 424.6,137.8 424.7,136.6 424.8,135.8 424.9,135.3 425.0,135.2 425.1,135.5 425.2,136.2 425.3,137.4 425.4,139.4 425.5,142.6 425.6,148.4 425.7,152.0 425.8,150.7 425.9,142.7 426.0,138.3 426.1,135.3 426.2,133.2 426.3,131.6 426.4,130.5 426.5,129.7 426.6,129.3 426.7,129.2 426.8,129.5 426.9,130.1 427.0,131.2 427.1,132.7 427.2,135.1 427.3,138.8 427.4,145.5 427.5,152.0 427.6,145.2 427.7,138.2 427.8,134.2 427.9,131.5 428.0,129.6 428.1,128.3 428.2,127.4 428.3,126.8 428.4,126.6 428.5,126.7 428.6,127.1 428.7,127.9 428.8,129.1 428.9,130.9 429.0,133.5 429.1,137.6 429.2,145.3 429.3,152.0 429.4,142.0 429.5,135.8 429.6,132.2 429.7,129.7 429.8,128.0 429.9,126.8 430.0,126.0 430.1,125.5 430.2,125.4 430.3,125.6 430.4,126.2 430.5,127.1 430.6,128.4 430.7,130.4 430.8,133.2 430.9,137.7 431.0,146.6 431.1,152.0 431.2,140.2 431.3,134.6 431.4,131.3 431.5,129.0 431.6,127.5 431.7,126.4 431.8,125.7 431.9,125.3 432.0,125.3 432.1,125.6 432.2,126.3 432.3,127.3 432.4,128.8 432.5,130.9 432.6,133.9 432.7,138.8 432.8,149.4 432.9,151.0 433.0,139.5 433.1,134.4 433.2,131.3 433.3,129.2 433.4,127.8 433.5,126.8 433.6,126.2 433.7,126.0 433.8,126.1 433.9,126.4 434.0,127.2 434.1,128.3 434.2,129.9 434.3,132.2 434.4,135.5 434.5,140.9 434.6,152.0 434.7,149.2 434.8,139.6 434.9,135.1 435.0,132.2 435.1,130.3 435.2,128.9 435.3,128.1 435.4,127.6 435.5,127.4 435.6,127.6 435.7,128.1 435.8,128.9 435.9,130.1 436.0,131.9 436.1,134.3 436.2,137.9 436.3,143.9 436.4,152.0 436.5,148.9 436.6,140.7 436.7,136.6 436.8,133.9 436.9,132.1 437.0,130.9 437.1,130.2 437.2,129.8 437.3,129.8 437.4,130.0 437.5,130.6 437.6,131.6 437.7,132.9 437.8,134.8 437.9,137.5 438.0,141.3 438.1,148.0 438.2,152.0 438.3,150.1 438.4,143.0 438.5,139.2 438.6,136.8 438.7,135.1 438.8,134.1 438.9,133.5 439.0,133.2 439.1,133.3 439.2,133.7 439.3,134.4 439.4,135.5 439.5,137.1 439.6,139.1 439.7,142.0 439.8,146.3 439.9,152.0 440.0,152.0 440.1,152.0 440.2,146.9 440.3,143.5 440.4,141.4 440.5,140.0 440.6,139.2 440.7,138.8 440.8,138.7 440.9,139.0 441.0,139.6 441.1,140.6 441.2,142.0 441.3,143.8 441.4,146.2 441.5,149.5 441.6,152.0 441.7,152.0 441.8,152.0 441.9,152.0 442.0,152.0 442.1,152.0 442.2,150.5 442.3,149.7 442.4,149.5 442.5,149.8 442.6,150.5 442.7,151.7 442.8,152.0 442.9,152.0 443.0,152.0 443.1,152.0 443.2,152.0 443.3,152.0 443.4,152.0 443.5,152.0 443.6,152.0 443.7,152.0 443.8,152.0 443.9,152.0 444.0,152.0 444.1,152.0 444.2,152.0 444.3,152.0 444.4,151.1 444.5,150.1 444.6,149.6 444.7,149.4 444.8,149.7 444.9,150.5 445.0,152.0 445.1,152.0 445.2,152.0 445.3,152.0 445.4,152.0 445.5,152.0 445.6,151.7 445.7,148.3 445.8,145.8 445.9,144.0 446.0,142.7 446.1,141.8 446.2,141.2 446.3,140.9 446.4,141.0 446.5,141.5 446.6,142.3 446.7,143.7 446.8,145.7 446.9,148.8 447.0,152.0 447.1,152.0 447.2,152.0 447.3,150.9 447.4,146.3 447.5,143.2 447.6,141.1 447.7,139.6 447.8,138.5 447.9,137.8 448.0,137.4 448.1,137.4 448.2,137.7 448.3,138.3 448.4,139.4 448.5,140.9 448.6,143.2 448.7,146.7 448.8,152.0 448.9,152.0 449.0,152.0 449.1,147.7 449.2,143.5 449.3,140.8 449.4,138.8 449.5,137.5 449.6,136.5 449.7,136.0 449.8,135.7 449.9,135.8 450.0,136.2 450.1,137.0 450.2,138.2 450.3,139.9 450.4,142.4 450.5,146.2 450.6,152.0 450.7,152.0 450.8,152.0 450.9,146.1 451.0,142.2 451.1,139.7 451.2,137.9 451.3,136.7 451.4,135.8 451.5,135.4 451.6,135.2 451.7,135.4 451.8,135.9 451.9,136.8 452.0,138.1 452.1,140.0 452.2,142.7 452.3,146.9 452.4,152.0 452.5,152.0 452.6,151.6 452.7,145.5 452.8,141.9 452.9,139.5 453.0,137.9 453.1,136.8 453.2,136.1 453.3,135.7 453.4,135.7 453.5,135.9 453.6,136.5 453.7,137.5 453.8,139.0 453.9,141.0 454.0,143.9 454.1,148.4 454.2,152.0 454.3,152.0 454.4,151.2 454.5,145.7 454.6,142.5 454.7,140.3 454.8,138.7 454.9,137.7 455.0,137.1 455.1,136.9 455.2,136.9 455.3,137.3 455.4,138.0 455.5,139.1 455.6,140.6 455.7,142.8 455.8,145.9 455.9,150.9 456.0,152.0 456.1,152.0 456.2,151.9 456.3,146.9 456.4,143.9 456.5,141.9 456.6,140.5 456.7,139.6 456.8,139.1 456.9,138.9 457.0,139.1 457.1,139.5 457.2,140.4 457.3,141.6 457.4,143.3 457.5,145.6 457.6,149.0 457.7,152.0 457.8,152.0 457.9,152.0 458.0,152.0 458.1,149.2 458.2,146.4 458.3,144.6 458.4,143.4 458.5,142.6 458.6,142.2 458.7,142.2 458.8,142.4 458.9,143.0 459.0,144.0 459.1,145.3 459.2,147.2 459.3,149.7 459.4,152.0 459.5,152.0 459.6,152.0 459.7,152.0 459.8,152.0 459.9,152.0 460.0,150.7 460.1,149.1 460.2,148.0 460.3,147.5 460.4,147.3 460.5,147.4 460.6,147.9 460.7,148.7 460.8,149.9 460.9,151.4 461.0,152.0 461.1,152.0 461.2,152.0 461.3,152.0 461.4,152.0 461.5,152.0 461.6,152.0 461.7,152.0 461.8,152.0 461.9,152.0 462.0,152.0 462.1,152.0 462.2,152.0 462.3,152.0 462.4,152.0 462.5,152.0 462.6,152.0 462.7,152.0 462.8,152.0 462.9,152.0 463.0,152.0 463.1,152.0 463.2,152.0 463.3,152.0 463.4,152.0 463.5,152.0 463.6,152.0 463.7,152.0 463.8,152.0 463.9,152.0 464.0,152.0 464.1,152.0 464.2,152.0 464.3,152.0 464.4,152.0 464.5,152.0 464.6,152.0 464.7,152.0 464.8,152.0 464.9,152.0 465.0,152.0 465.1,152.0 465.2,152.0 465.3,152.0 465.4,152.0 465.5,152.0 465.6,152.0 465.7,151.5 465.8,150.8 465.9,150.5 466.0,150.5 466.1,150.8 466.2,151.5 466.3,152.0 466.4,152.0 466.5,152.0 466.6,152.0 466.7,152.0 466.8,152.0 466.9,152.0 467.0,152.0 467.1,152.0 467.2,150.7 467.3,149.1 467.4,147.9 467.5,147.1 467.6,146.6 467.7,146.5 467.8,146.7 467.9,147.2 468.0,148.2 468.1,149.6 468.2,151.7 468.3,152.0 468.4,152.0 468.5,152.0 468.6,152.0 468.7,152.0 468.8,152.0 468.9,150.3 469.0,148.2 469.1,146.7 469.2,145.7 469.3,145.0 469.4,144.7 469.5,144.7 469.6,145.0 469.7,145.7 469.8,146.8 469.9,148.3 470.0,150.6 470.1,152.0 470.2,152.0 470.3,152.0 470.4,152.0 470.5,152.0 470.6,151.9 470.7,149.1 470.8,147.1 470.9,145.8 471.0,144.8 471.1,144.3 471.2,144.1 471.3,144.2 471.4,144.6 471.5,145.3 471.6,146.5 471.7,148.2 471.8,150.7 471.9,152.0 472.0,152.0 472.1,152.0 472.2,152.0 472.3,152.0 472.4,151.5 472.5,148.8 472.6,147.0 472.7,145.8 472.8,144.9 472.9,144.5 473.0,144.3 473.1,144.5 473.2,145.0 473.3,145.9 473.4,147.2 473.5,149.0 473.6,151.6 473.7,152.0 473.8,152.0 473.9,152.0 474.0,152.0 474.1,152.0 474.2,151.9 474.3,149.5 474.4,147.8 474.5,146.6 474.6,145.9 474.7,145.5 474.8,145.5 474.9,145.8 475.0,146.4 475.1,147.3 475.2,148.7 475.3,150.7 475.4,152.0 475.5,152.0 475.6,152.0 475.7,152.0 475.8,152.0 475.9,152.0 476.0,152.0 476.1,151.1 476.2,149.5 476.3,148.5 476.4,147.8 476.5,147.5 476.6,147.6 476.7,148.0 476.8,148.6 476.9,149.7 477.0,151.2 477.1,152.0 477.2,152.0 477.3,152.0 477.4,152.0 477.5,152.0 477.6,152.0 477.7,152.0 477.8,152.0 477.9,152.0 478.0,152.0 478.1,151.5 478.2,150.9 478.3,150.8 478.4,150.9 478.5,151.4 478.6,152.0 478.7,152.0 478.8,152.0 478.9,152.0 479.0,152.0 479.1,152.0 479.2,152.0 479.3,152.0 479.4,152.0 479.5,152.0 479.6,152.0 479.7,152.0 479.8,152.0 479.9,152.0 480.0,152.0 480.1,152.0 480.2,152.0 480.3,152.0 480.4,152.0 480.5,152.0 480.6,152.0 480.7,152.0 480.8,152.0 480.9,152.0 481.0,152.0 481.1,152.0 481.2,152.0 481.3,152.0 481.4,152.0 481.5,152.0 481.6,152.0 481.7,152.0 481.8,152.0 481.9,152.0 482.0,152.0 482.1,152.0 482.2,152.0 482.3,152.0 482.4,152.0 482.5,152.0 482.6,152.0 482.7,152.0 482.8,152.0 482.9,152.0 483.0,152.0 483.1,152.0 483.2,152.0 483.3,152.0 483.4,152.0 483.5,152.0 483.6,152.0 483.7,152.0 483.8,152.0 483.9,152.0 484.0,152.0 484.1,152.0 484.2,152.0 484.3,152.0 484.4,152.0 484.5,152.0 484.6,152.0 484.7,152.0 484.8,152.0 484.9,152.0 485.0,152.0 485.1,152.0 485.2,152.0 485.3,152.0 485.4,152.0 485.5,152.0 485.6,152.0 485.7,152.0 485.8,152.0 485.9,152.0 486.0,152.0 486.1,152.0 486.2,152.0 486.3,152.0 486.4,152.0 486.5,152.0 486.6,152.0 486.7,152.0 486.8,152.0 486.9,152.0 487.0,152.0 487.1,152.0 487.2,152.0 487.3,152.0 487.4,152.0 487.5,152.0 487.6,152.0 487.7,152.0 487.8,152.0 487.9,152.0 488.0,152.0 488.1,152.0 488.2,152.0 488.3,152.0 488.4,152.0 488.5,152.0 488.6,152.0 488.7,152.0 488.8,152.0 488.9,152.0 489.0,152.0 489.1,152.0 489.2,152.0 489.3,152.0 489.4,152.0 489.5,152.0 489.6,152.0 489.7,152.0 489.8,152.0 489.9,152.0 490.0,152.0 490.1,152.0 490.2,152.0 490.3,152.0 490.4,152.0 490.5,152.0 490.6,152.0 490.7,152.0 490.8,152.0 490.9,152.0 491.0,152.0 491.1,152.0 491.2,152.0 491.3,152.0 491.4,152.0 491.5,152.0 491.6,152.0 491.7,152.0 491.8,152.0 491.9,152.0 492.0,152.0 492.1,152.0 492.2,152.0 492.3,152.0 492.4,152.0 492.5,152.0 492.6,152.0 492.7,152.0 492.9,152.0 493.0,152.0 493.1,152.0 493.2,152.0 493.3,152.0 493.4,152.0 493.5,152.0 493.6,152.0 493.7,152.0 493.8,152.0 493.9,152.0 494.0,152.0 494.1,152.0 494.2,152.0 494.3,152.0 494.4,152.0 494.5,152.0 494.6,152.0 494.7,152.0 494.8,152.0 494.9,152.0 495.0,152.0 495.1,152.0 495.2,152.0 495.3,152.0 495.4,152.0 495.5,152.0 495.6,152.0 495.7,152.0 495.8,152.0 495.9,152.0 496.0,152.0 496.1,152.0 496.2,152.0 496.3,152.0 496.4,152.0 496.5,152.0 496.6,152.0 496.7,152.0 496.8,152.0 496.9,152.0 497.0,152.0 497.1,152.0 497.2,152.0 497.3,152.0 497.4,152.0 497.5,152.0 497.6,152.0 497.7,152.0 497.8,152.0 497.9,152.0 498.0,152.0 498.1,152.0 498.2,152.0 498.3,152.0 498.4,152.0 498.5,152.0 498.6,152.0 498.7,152.0 498.8,152.0 498.9,152.0 499.0,152.0 499.1,152.0 499.2,152.0 499.3,152.0 499.4,152.0 499.5,152.0 499.6,152.0 499.7,152.0 499.8,152.0 499.9,152.0 500.0,152.0 500.1,152.0 500.2,152.0 500.3,152.0 500.4,152.0 500.5,152.0 500.6,152.0 500.7,152.0 500.8,152.0 500.9,152.0 501.0,152.0 501.1,152.0 501.2,152.0 501.3,152.0 501.4,152.0 501.5,152.0 501.6,152.0 501.7,152.0 501.8,152.0 501.9,152.0 502.0,152.0 502.1,152.0 502.2,152.0 502.3,152.0 502.4,152.0 502.5,152.0 502.6,152.0 502.7,152.0 502.8,152.0 502.9,152.0 503.0,152.0 503.1,152.0 503.2,152.0 503.3,152.0 503.4,152.0 503.5,152.0 503.6,152.0 503.7,152.0 503.8,152.0 503.9,152.0 504.0,152.0 504.1,152.0 504.2,152.0 504.3,152.0 504.4,152.0 504.5,152.0 504.6,152.0 504.7,152.0 504.8,152.0 504.9,152.0 505.0,152.0 505.1,152.0 505.2,152.0 505.3,152.0 505.4,152.0 505.5,152.0 505.6,152.0 505.7,152.0 505.8,152.0 505.9,152.0 506.0,152.0 506.1,152.0 506.2,152.0 506.3,152.0 506.4,152.0 506.5,152.0 506.6,152.0 506.7,152.0 506.8,152.0 506.9,152.0 507.0,152.0 507.1,152.0 507.2,152.0 507.3,152.0 507.4,152.0 507.5,152.0 507.6,152.0 507.7,152.0 507.8,152.0 507.9,152.0 508.0,152.0 508.1,152.0 508.2,152.0 508.3,152.0 508.4,152.0 508.5,152.0 508.6,152.0 508.7,152.0 508.8,152.0 508.9,152.0 509.0,152.0 509.1,152.0 509.2,152.0 509.3,152.0 509.4,152.0 509.5,152.0 509.6,152.0 509.7,152.0 509.8,152.0 509.9,152.0 510.0,152.0 510.1,152.0 510.2,152.0 510.3,152.0 510.4,152.0 510.5,152.0 510.6,152.0 510.7,152.0 510.8,152.0 510.9,152.0 511.0,152.0 511.1,152.0 511.2,152.0 511.3,152.0 511.4,152.0 511.5,152.0 511.6,152.0 511.7,152.0 511.8,152.0 511.9,152.0 512.0,152.0 512.1,152.0 512.2,152.0 512.3,152.0 512.4,152.0 512.5,152.0 512.6,152.0 512.7,152.0 512.8,152.0 512.9,152.0 513.0,152.0 513.1,152.0 513.2,152.0 513.3,152.0 513.4,152.0 513.5,152.0 513.6,152.0 513.7,152.0 513.8,152.0 513.9,152.0 514.0,152.0 514.1,152.0 514.2,152.0 514.3,152.0 514.4,152.0 514.5,152.0 514.6,152.0 514.7,152.0 514.8,152.0 514.9,152.0 515.0,152.0 515.1,152.0 515.2,152.0 515.3,152.0 515.4,152.0 515.5,152.0 515.6,152.0 515.7,152.0 515.8,152.0 515.9,152.0 516.0,152.0 516.1,152.0 516.2,152.0 516.3,152.0 516.4,152.0 516.5,152.0 516.6,152.0 516.7,152.0 516.8,152.0 516.9,152.0 517.0,152.0 517.1,152.0 517.2,152.0 517.3,152.0 517.4,152.0 517.5,152.0 517.6,152.0 517.7,152.0 517.8,152.0 517.9,152.0 518.0,152.0 518.1,152.0 518.2,152.0 518.3,152.0 518.4,152.0 518.5,152.0 518.6,152.0 518.7,152.0 518.8,152.0 518.9,152.0 519.0,152.0 519.1,152.0 519.2,152.0 519.3,152.0 519.4,152.0 519.5,152.0 519.6,152.0 519.7,152.0 519.8,152.0 519.9,152.0 520.0,152.0 520.1,152.0 520.2,152.0 520.3,152.0 520.4,152.0 520.5,152.0 520.6,152.0 520.7,152.0 520.8,152.0 520.9,152.0 521.0,152.0 521.1,152.0 521.2,152.0 521.3,152.0 521.4,152.0 521.5,152.0 521.6,152.0 521.7,152.0 521.8,152.0 521.9,152.0 522.0,152.0 522.1,152.0 522.2,152.0 522.3,152.0 522.4,152.0 522.5,152.0 522.6,152.0 522.7,152.0 522.8,152.0 522.9,152.0 523.0,152.0 523.1,152.0 523.2,152.0 523.3,152.0 523.4,152.0 523.5,152.0 523.6,152.0 523.7,152.0 523.8,152.0 523.9,152.0 524.0,152.0 524.1,152.0 524.2,152.0 524.3,152.0 524.4,152.0 524.5,152.0 524.6,152.0 524.7,152.0 524.8,152.0 524.9,152.0 525.0,152.0 525.1,152.0 525.2,152.0 525.3,152.0 525.4,152.0 525.5,152.0 525.6,152.0 525.7,152.0 525.8,152.0 525.9,152.0 526.0,152.0 526.1,152.0 526.2,152.0 526.3,152.0 526.4,152.0 526.5,152.0 526.6,152.0 526.7,152.0 526.8,152.0 526.9,152.0 527.0,152.0" fill="none" stroke="#4a90d9" stroke-width="1.2" stroke-linejoin="round"/>
  <text x="154.5" y="176" text-anchor="middle" font-size="8" fill="#6b7280">n / N</text>
  <text x="424.5" y="176" text-anchor="middle" font-size="8" fill="#6b7280">Normalized frequency (× Fₛ)</text>
</svg>
