<svg xmlns="http://www.w3.org/2000/svg" viewBox="0 0 800 230" style="font-family:system-ui,-apple-system,sans-serif">
  <line x1="42" y1="182.0" x2="377" y2="182.0" stroke="#e5e7eb" stroke-width="0.7"/>
  <text x="37" y="186.0" text-anchor="end" font-size="10" fill="#6b7280">0</text>
  <line x1="42" y1="95.0" x2="377" y2="95.0" stroke="#e5e7eb" stroke-width="0.7"/>
  <text x="37" y="99.0" text-anchor="end" font-size="10" fill="#6b7280">0.5</text>
  <line x1="42" y1="8.0" x2="377" y2="8.0" stroke="#e5e7eb" stroke-width="0.7"/>
  <text x="37" y="12.0" text-anchor="end" font-size="10" fill="#6b7280">1</text>
  <line x1="42.0" y1="8" x2="42.0" y2="182" stroke="#e5e7eb" stroke-width="0.7"/>
  <text x="42.0" y="198" text-anchor="middle" font-size="10" fill="#6b7280">0</text>
  <line x1="209.5" y1="8" x2="209.5" y2="182" stroke="#e5e7eb" stroke-width="0.7"/>
  <text x="209.5" y="198" text-anchor="middle" font-size="10" fill="#6b7280">0.5</text>
  <line x1="377.0" y1="8" x2="377.0" y2="182" stroke="#e5e7eb" stroke-width="0.7"/>
  <text x="377.0" y="198" text-anchor="middle" font-size="10" fill="#6b7280">1</text>
  <line x1="42" y1="8" x2="42" y2="182" stroke="#d1d5db" stroke-width="1"/>
  <line x1="42" y1="182" x2="377" y2="182" stroke="#d1d5db" stroke-width="1"/>
  <path d="M42.0,182.0 42.0,182.0 43.3,182.0 44.6,182.0 45.9,181.9 47.3,181.0 48.6,178.4 49.9,173.3 51.2,165.6 52.5,155.8 53.8,144.4 55.1,131.9 56.5,118.7 57.8,105.2 59.1,91.6 60.4,78.0 61.7,64.6 63.0,51.8 64.3,39.7 65.6,29.0 67.0,20.2 68.3,13.8 69.6,10.0 70.9,8.4 72.2,8.0 73.5,8.0 74.8,8.0 76.2,8.0 77.5,8.0 78.8,8.0 80.1,8.0 81.4,8.0 82.7,8.0 84.0,8.0 85.4,8.0 86.7,8.0 88.0,8.0 89.3,8.0 90.6,8.0 91.9,8.0 93.2,8.0 94.5,8.0 95.9,8.0 97.2,8.0 98.5,8.0 99.8,8.0 101.1,8.0 102.4,8.0 103.7,8.0 105.1,8.0 106.4,8.0 107.7,8.0 109.0,8.0 110.3,8.0 111.6,8.0 112.9,8.0 114.3,8.0 115.6,8.0 116.9,8.0 118.2,8.0 119.5,8.0 120.8,8.0 122.1,8.0 123.5,8.0 124.8,8.0 126.1,8.0 127.4,8.0 128.7,8.0 130.0,8.0 131.3,8.0 132.6,8.0 134.0,8.0 135.3,8.0 136.6,8.0 137.9,8.0 139.2,8.0 140.5,8.0 141.8,8.0 143.2,8.0 144.5,8.0 145.8,8.0 147.1,8.0 148.4,8.0 149.7,8.0 151.0,8.0 152.4,8.0 153.7,8.0 155.0,8.0 156.3,8.0 157.6,8.0 158.9,8.0 160.2,8.0 161.5,8.0 162.9,8.0 164.2,8.0 165.5,8.0 166.8,8.0 168.1,8.0 169.4,8.0 170.7,8.0 172.1,8.0 173.4,8.0 174.7,8.0 176.0,8.0 177.3,8.0 178.6,8.0 179.9,8.0 181.3,8.0 182.6,8.0 183.9,8.0 185.2,8.0 186.5,8.0 187.8,8.0 189.1,8.0 190.5,8.0 191.8,8.0 193.1,8.0 194.4,8.0 195.7,8.0 197.0,8.0 198.3,8.0 199.6,8.0 201.0,8.0 202.3,8.0 203.6,8.0 204.9,8.0 206.2,8.0 207.5,8.0 208.8,8.0 210.2,8.0 211.5,8.0 212.8,8.0 214.1,8.0 215.4,8.0 216.7,8.0 218.0,8.0 219.4,8.0 220.7,8.0 222.0,8.0 223.3,8.0 224.6,8.0 225.9,8.0 227.2,8.0 228.5,8.0 229.9,8.0 231.2,8.0 232.5,8.0 233.8,8.0 235.1,8.0 236.4,8.0 237.7,8.0 239.1,8.0 240.4,8.0 241.7,8.0 243.0,8.0 244.3,8.0 245.6,8.0 246.9,8.0 248.3,8.0 249.6,8.0 250.9,8.0 252.2,8.0 253.5,8.0 254.8,8.0 256.1,8.0 257.5,8.0 258.8,8.0 260.1,8.0 261.4,8.0 262.7,8.0 264.0,8.0 265.3,8.0 266.6,8.0 268.0,8.0 269.3,8.0 270.6,8.0 271.9,8.0 273.2,8.0 274.5,8.0 275.8,8.0 277.2,8.0 278.5,8.0 279.8,8.0 281.1,8.0 282.4,8.0 283.7,8.0 285.0,8.0 286.4,8.0 287.7,8.0 289.0,8.0 290.3,8.0 291.6,8.0 292.9,8.0 294.2,8.0 295.5,8.0 296.9,8.0 298.2,8.0 299.5,8.0 300.8,8.0 302.1,8.0 303.4,8.0 304.7,8.0 306.1,8.0 307.4,8.0 308.7,8.0 310.0,8.0 311.3,8.0 312.6,8.0 313.9,8.0 315.3,8.0 316.6,8.0 317.9,8.0 319.2,8.0 320.5,8.0 321.8,8.0 323.1,8.0 324.5,8.0 325.8,8.0 327.1,8.0 328.4,8.0 329.7,8.0 331.0,8.0 332.3,8.0 333.6,8.0 335.0,8.0 336.3,8.0 337.6,8.0 338.9,8.0 340.2,8.0 341.5,8.0 342.8,8.0 344.2,8.0 345.5,8.0 346.8,8.0 348.1,8.4 349.4,10.0 350.7,13.8 352.0,20.2 353.4,29.0 354.7,39.7 356.0,51.8 357.3,64.6 358.6,78.0 359.9,91.6 361.2,105.2 362.5,118.7 363.9,131.9 365.2,144.4 366.5,155.8 367.8,165.6 369.1,173.3 370.4,178.4 371.7,181.0 373.1,181.9 374.4,182.0 375.7,182.0 377.0,182.0 L377.0,182.0 Z" fill="#4a90d9" fill-opacity="0.06"/>
  <polyline points="42.0,182.0 43.3,182.0 44.6,182.0 45.9,181.9 47.3,181.0 48.6,178.4 49.9,173.3 51.2,165.6 52.5,155.8 53.8,144.4 55.1,131.9 56.5,118.7 57.8,105.2 59.1,91.6 60.4,78.0 61.7,64.6 63.0,51.8 64.3,39.7 65.6,29.0 67.0,20.2 68.3,13.8 69.6,10.0 70.9,8.4 72.2,8.0 73.5,8.0 74.8,8.0 76.2,8.0 77.5,8.0 78.8,8.0 80.1,8.0 81.4,8.0 82.7,8.0 84.0,8.0 85.4,8.0 86.7,8.0 88.0,8.0 89.3,8.0 90.6,8.0 91.9,8.0 93.2,8.0 94.5,8.0 95.9,8.0 97.2,8.0 98.5,8.0 99.8,8.0 101.1,8.0 102.4,8.0 103.7,8.0 105.1,8.0 106.4,8.0 107.7,8.0 109.0,8.0 110.3,8.0 111.6,8.0 112.9,8.0 114.3,8.0 115.6,8.0 116.9,8.0 118.2,8.0 119.5,8.0 120.8,8.0 122.1,8.0 123.5,8.0 124.8,8.0 126.1,8.0 127.4,8.0 128.7,8.0 130.0,8.0 131.3,8.0 132.6,8.0 134.0,8.0 135.3,8.0 136.6,8.0 137.9,8.0 139.2,8.0 140.5,8.0 141.8,8.0 143.2,8.0 144.5,8.0 145.8,8.0 147.1,8.0 148.4,8.0 149.7,8.0 151.0,8.0 152.4,8.0 153.7,8.0 155.0,8.0 156.3,8.0 157.6,8.0 158.9,8.0 160.2,8.0 161.5,8.0 162.9,8.0 164.2,8.0 165.5,8.0 166.8,8.0 168.1,8.0 169.4,8.0 170.7,8.0 172.1,8.0 173.4,8.0 174.7,8.0 176.0,8.0 177.3,8.0 178.6,8.0 179.9,8.0 181.3,8.0 182.6,8.0 183.9,8.0 185.2,8.0 186.5,8.0 187.8,8.0 189.1,8.0 190.5,8.0 191.8,8.0 193.1,8.0 194.4,8.0 195.7,8.0 197.0,8.0 198.3,8.0 199.6,8.0 201.0,8.0 202.3,8.0 203.6,8.0 204.9,8.0 206.2,8.0 207.5,8.0 208.8,8.0 210.2,8.0 211.5,8.0 212.8,8.0 214.1,8.0 215.4,8.0 216.7,8.0 218.0,8.0 219.4,8.0 220.7,8.0 222.0,8.0 223.3,8.0 224.6,8.0 225.9,8.0 227.2,8.0 228.5,8.0 229.9,8.0 231.2,8.0 232.5,8.0 233.8,8.0 235.1,8.0 236.4,8.0 237.7,8.0 239.1,8.0 240.4,8.0 241.7,8.0 243.0,8.0 244.3,8.0 245.6,8.0 246.9,8.0 248.3,8.0 249.6,8.0 250.9,8.0 252.2,8.0 253.5,8.0 254.8,8.0 256.1,8.0 257.5,8.0 258.8,8.0 260.1,8.0 261.4,8.0 262.7,8.0 264.0,8.0 265.3,8.0 266.6,8.0 268.0,8.0 269.3,8.0 270.6,8.0 271.9,8.0 273.2,8.0 274.5,8.0 275.8,8.0 277.2,8.0 278.5,8.0 279.8,8.0 281.1,8.0 282.4,8.0 283.7,8.0 285.0,8.0 286.4,8.0 287.7,8.0 289.0,8.0 290.3,8.0 291.6,8.0 292.9,8.0 294.2,8.0 295.5,8.0 296.9,8.0 298.2,8.0 299.5,8.0 300.8,8.0 302.1,8.0 303.4,8.0 304.7,8.0 306.1,8.0 307.4,8.0 308.7,8.0 310.0,8.0 311.3,8.0 312.6,8.0 313.9,8.0 315.3,8.0 316.6,8.0 317.9,8.0 319.2,8.0 320.5,8.0 321.8,8.0 323.1,8.0 324.5,8.0 325.8,8.0 327.1,8.0 328.4,8.0 329.7,8.0 331.0,8.0 332.3,8.0 333.6,8.0 335.0,8.0 336.3,8.0 337.6,8.0 338.9,8.0 340.2,8.0 341.5,8.0 342.8,8.0 344.2,8.0 345.5,8.0 346.8,8.0 348.1,8.4 349.4,10.0 350.7,13.8 352.0,20.2 353.4,29.0 354.7,39.7 356.0,51.8 357.3,64.6 358.6,78.0 359.9,91.6 361.2,105.2 362.5,118.7 363.9,131.9 365.2,144.4 366.5,155.8 367.8,165.6 369.1,173.3 370.4,178.4 371.7,181.0 373.1,181.9 374.4,182.0 375.7,182.0 377.0,182.0" fill="none" stroke="#4a90d9" stroke-width="1.5" stroke-linejoin="round"/>
  <line x1="450" y1="8.0" x2="785" y2="8.0" stroke="#e5e7eb" stroke-width="0.7"/>
  <text x="445" y="12.0" text-anchor="end" font-size="10" fill="#6b7280">0</text>
  <line x1="450" y1="66.0" x2="785" y2="66.0" stroke="#e5e7eb" stroke-width="0.7"/>
  <text x="445" y="70.0" text-anchor="end" font-size="10" fill="#6b7280">-40</text>
  <line x1="450" y1="124.0" x2="785" y2="124.0" stroke="#e5e7eb" stroke-width="0.7"/>
  <text x="445" y="128.0" text-anchor="end" font-size="10" fill="#6b7280">-80</text>
  <line x1="450" y1="182.0" x2="785" y2="182.0" stroke="#e5e7eb" stroke-width="0.7"/>
  <text x="445" y="186.0" text-anchor="end" font-size="10" fill="#6b7280">-120</text>
  <line x1="450.0" y1="8" x2="450.0" y2="182" stroke="#e5e7eb" stroke-width="0.7"/>
  <text x="450.0" y="198" text-anchor="middle" font-size="10" fill="#6b7280">0</text>
  <line x1="517.0" y1="8" x2="517.0" y2="182" stroke="#e5e7eb" stroke-width="0.7"/>
  <text x="517.0" y="198" text-anchor="middle" font-size="10" fill="#6b7280">0.1</text>
  <line x1="584.0" y1="8" x2="584.0" y2="182" stroke="#e5e7eb" stroke-width="0.7"/>
  <text x="584.0" y="198" text-anchor="middle" font-size="10" fill="#6b7280">0.2</text>
  <line x1="651.0" y1="8" x2="651.0" y2="182" stroke="#e5e7eb" stroke-width="0.7"/>
  <text x="651.0" y="198" text-anchor="middle" font-size="10" fill="#6b7280">0.3</text>
  <line x1="718.0" y1="8" x2="718.0" y2="182" stroke="#e5e7eb" stroke-width="0.7"/>
  <text x="718.0" y="198" text-anchor="middle" font-size="10" fill="#6b7280">0.4</text>
  <line x1="785.0" y1="8" x2="785.0" y2="182" stroke="#e5e7eb" stroke-width="0.7"/>
  <text x="785.0" y="198" text-anchor="middle" font-size="10" fill="#6b7280">0.5</text>
  <line x1="450" y1="8" x2="450" y2="182" stroke="#d1d5db" stroke-width="1"/>
  <line x1="450" y1="182" x2="785" y2="182" stroke="#d1d5db" stroke-width="1"/>
  <polyline points="450.0,8.0 450.2,8.1 450.3,8.3 450.5,8.6 450.7,9.1 450.8,9.7 451.0,10.4 451.1,11.4 451.3,12.5 451.5,13.8 451.6,15.4 451.8,17.2 452.0,19.4 452.1,22.0 452.3,25.3 452.5,29.5 452.6,35.5 452.8,45.9 452.9,68.2 453.1,43.5 453.3,36.5 453.4,32.7 453.6,30.3 453.8,28.8 453.9,27.9 454.1,27.4 454.3,27.4 454.4,27.8 454.6,28.6 454.7,29.7 454.9,31.3 455.1,33.5 455.2,36.4 455.4,40.3 455.6,46.3 455.7,57.7 455.9,68.4 456.1,50.6 456.2,44.0 456.4,40.2 456.5,37.7 456.7,36.1 456.9,35.0 457.0,34.5 457.2,34.4 457.4,34.6 457.5,35.3 457.7,36.3 457.9,37.9 458.0,40.0 458.2,42.8 458.3,46.9 458.5,53.2 458.7,66.5 458.8,68.9 459.0,54.7 459.2,48.6 459.3,44.9 459.5,42.5 459.7,40.9 459.8,39.9 460.0,39.3 460.1,39.2 460.3,39.4 460.5,40.0 460.6,41.1 460.8,42.6 461.0,44.8 461.1,47.7 461.3,52.0 461.5,58.8 461.6,74.9 461.8,69.5 461.9,57.6 462.1,52.0 462.3,48.6 462.4,46.2 462.6,44.7 462.8,43.7 462.9,43.1 463.1,43.0 463.3,43.3 463.4,44.0 463.6,45.1 463.7,46.7 463.9,48.9 464.1,52.0 464.2,56.4 464.4,63.9 464.6,84.7 464.7,70.3 464.9,60.1 465.1,54.9 465.2,51.6 465.4,49.4 465.5,47.9 465.7,47.0 465.9,46.5 466.0,46.4 466.2,46.8 466.4,47.5 466.5,48.6 466.7,50.3 466.9,52.6 467.0,55.8 467.2,60.6 467.3,68.8 467.5,101.0 467.7,71.3 467.8,62.3 468.0,57.5 468.2,54.5 468.3,52.4 468.5,51.0 468.7,50.1 468.8,49.7 469.0,49.6 469.1,50.0 469.3,50.8 469.5,52.0 469.6,53.7 469.8,56.2 470.0,59.6 470.1,64.7 470.3,73.8 470.5,107.0 470.6,72.5 470.8,64.5 470.9,60.1 471.1,57.2 471.3,55.2 471.4,53.9 471.6,53.1 471.8,52.7 471.9,52.7 472.1,53.2 472.3,54.0 472.4,55.3 472.6,57.1 472.7,59.7 472.9,63.3 473.1,68.8 473.2,79.2 473.4,95.2 473.6,73.9 473.7,66.8 473.9,62.6 474.1,59.9 474.2,58.0 474.4,56.8 474.5,56.1 474.7,55.8 474.9,55.9 475.0,56.4 475.2,57.3 475.4,58.6 475.5,60.6 475.7,63.3 475.9,67.1 476.0,73.0 476.2,85.0 476.3,91.8 476.5,75.6 476.7,69.2 476.8,65.3 477.0,62.7 477.2,61.0 477.3,59.8 477.5,59.2 477.7,58.9 477.8,59.1 478.0,59.7 478.1,60.6 478.3,62.1 478.5,64.1 478.6,67.0 478.8,71.0 479.0,77.5 479.1,91.8 479.3,90.7 479.5,77.6 479.6,71.7 479.8,68.1 479.9,65.7 480.1,64.1 480.3,63.0 480.4,62.4 480.6,62.3 480.8,62.5 480.9,63.1 481.1,64.2 481.3,65.8 481.4,67.9 481.6,70.9 481.7,75.2 481.9,82.3 482.1,100.2 482.2,91.0 482.4,80.0 482.6,74.6 482.7,71.2 482.9,69.0 483.1,67.4 483.2,66.5 483.4,66.0 483.5,65.9 483.7,66.2 483.9,66.9 484.0,68.1 484.2,69.7 484.4,72.0 484.5,75.2 484.7,79.8 484.9,87.6 485.0,112.0 485.2,92.3 485.3,82.8 485.5,77.8 485.7,74.7 485.8,72.6 486.0,71.2 486.2,70.3 486.3,69.9 486.5,69.9 486.7,70.3 486.8,71.1 487.0,72.3 487.1,74.1 487.3,76.5 487.5,79.9 487.6,84.9 487.8,93.6 488.0,145.0 488.1,94.5 488.3,86.1 488.5,81.5 488.6,78.6 488.8,76.7 488.9,75.4 489.1,74.7 489.3,74.3 489.4,74.4 489.6,74.9 489.8,75.8 489.9,77.2 490.1,79.1 490.3,81.7 490.4,85.3 490.6,90.7 490.7,100.5 490.9,124.1 491.1,97.7 491.2,90.2 491.4,86.1 491.6,83.4 491.7,81.6 491.9,80.5 492.1,79.8 492.2,79.7 492.4,79.9 492.6,80.5 492.7,81.5 492.9,83.0 493.0,85.1 493.2,87.9 493.4,91.8 493.5,97.6 493.7,108.9 493.9,120.7 494.0,102.3 494.2,95.7 494.4,91.9 494.5,89.4 494.7,87.9 494.8,86.9 495.0,86.5 495.2,86.5 495.3,86.9 495.5,87.7 495.7,88.9 495.8,90.6 496.0,92.9 496.2,96.0 496.3,100.2 496.5,106.7 496.6,120.1 496.8,123.7 497.0,109.4 497.1,103.6 497.3,100.3 497.5,98.3 497.6,97.1 497.8,96.5 498.0,96.4 498.1,96.8 498.3,97.6 498.4,98.8 498.6,100.5 498.8,102.7 498.9,105.6 499.1,109.4 499.3,114.5 499.4,122.2 499.6,139.0 499.8,135.8 499.9,125.0 500.1,121.0 500.2,119.3 500.4,119.2 500.6,120.4 500.7,122.9 500.9,127.4 501.1,136.0 501.2,182.0 501.4,136.5 501.6,128.8 501.7,125.3 501.9,123.8 502.0,124.0 502.2,126.0 502.4,131.4 502.5,149.8 502.7,134.9 502.9,123.2 503.0,116.7 503.2,112.2 503.4,108.9 503.5,106.4 503.7,104.6 503.8,103.2 504.0,102.3 504.2,101.8 504.3,101.8 504.5,102.2 504.7,103.2 504.8,104.9 505.0,107.5 505.2,111.6 505.3,119.2 505.5,148.6 505.6,121.0 505.8,111.4 506.0,106.1 506.1,102.5 506.3,99.9 506.5,98.1 506.6,96.8 506.8,95.9 507.0,95.5 507.1,95.4 507.3,95.8 507.4,96.6 507.6,98.0 507.8,100.0 507.9,103.1 508.1,107.8 508.3,116.5 508.4,153.3 508.6,114.9 508.8,106.6 508.9,101.8 509.1,98.5 509.2,96.3 509.4,94.6 509.6,93.5 509.7,92.9 509.9,92.6 510.1,92.8 510.2,93.3 510.4,94.4 510.6,95.9 510.7,98.2 510.9,101.6 511.0,106.8 511.2,116.8 511.4,133.9 511.5,111.5 511.7,104.1 511.9,99.6 512.0,96.7 512.2,94.6 512.4,93.1 512.5,92.2 512.7,91.6 512.8,91.5 513.0,91.8 513.2,92.5 513.3,93.7 513.5,95.4 513.7,97.9 513.8,101.5 514.0,107.2 514.2,118.8 514.3,126.3 514.5,109.5 514.6,102.8 514.8,98.7 515.0,96.0 515.1,94.0 515.3,92.7 515.5,91.9 515.6,91.5 515.8,91.4 516.0,91.8 516.1,92.6 516.3,93.9 516.4,95.8 516.6,98.5 516.8,102.3 516.9,108.6 517.1,122.4 517.3,122.1 517.4,108.5 517.6,102.4 517.8,98.6 517.9,96.1 518.1,94.3 518.2,93.1 518.4,92.3 518.6,92.0 518.7,92.1 518.9,92.6 519.1,93.5 519.2,94.9 519.4,96.9 519.6,99.8 519.7,103.9 519.9,110.8 520.0,128.0 520.2,119.7 520.4,108.3 520.5,102.8 520.7,99.2 520.9,96.8 521.0,95.2 521.2,94.1 521.4,93.4 521.5,93.2 521.7,93.4 521.8,94.0 522.0,95.0 522.2,96.5 522.3,98.7 522.5,101.7 522.7,106.2 522.8,113.7 523.0,137.0 523.2,118.7 523.3,108.8 523.5,103.7 523.6,100.4 523.8,98.2 524.0,96.7 524.1,95.7 524.3,95.1 524.5,95.0 524.6,95.3 524.8,95.9 525.0,97.1 525.1,98.7 525.3,101.0 525.4,104.2 525.6,109.1 525.8,117.5 525.9,160.3 526.1,118.6 526.3,110.0 526.4,105.3 526.6,102.2 526.8,100.1 526.9,98.7 527.1,97.8 527.2,97.4 527.4,97.4 527.6,97.7 527.7,98.5 527.9,99.7 528.1,101.5 528.2,103.9 528.4,107.4 528.6,112.6 528.7,122.1 528.9,147.6 529.0,119.5 529.2,111.9 529.4,107.5 529.5,104.7 529.7,102.7 529.9,101.5 530.0,100.7 530.2,100.4 530.4,100.4 530.5,100.9 530.7,101.8 530.8,103.1 531.0,105.0 531.2,107.6 531.3,111.3 531.5,117.0 531.7,127.9 531.8,140.6 532.0,121.4 532.2,114.6 532.3,110.6 532.5,107.9 532.6,106.2 532.8,105.0 533.0,104.4 533.1,104.1 533.3,104.3 533.5,104.9 533.6,105.9 533.8,107.4 534.0,109.4 534.1,112.2 534.3,116.2 534.4,122.4 534.6,135.2 534.8,139.4 534.9,124.5 535.1,118.4 535.3,114.7 535.4,112.3 535.6,110.7 535.8,109.7 535.9,109.2 536.1,109.1 536.2,109.5 536.4,110.2 536.6,111.3 536.7,113.0 536.9,115.2 537.1,118.3 537.2,122.6 537.4,129.5 537.6,145.0 537.7,141.6 537.9,129.4 538.0,123.9 538.2,120.6 538.4,118.5 538.5,117.2 538.7,116.4 538.9,116.1 539.0,116.3 539.2,116.8 539.4,117.8 539.5,119.2 539.7,121.2 539.8,123.7 540.0,127.2 540.2,132.0 540.3,139.8 540.5,159.7 540.7,148.1 540.8,138.1 541.0,133.4 541.2,130.7 541.3,129.1 541.5,128.4 541.6,128.2 541.8,128.5 542.0,129.4 542.1,130.7 542.3,132.5 542.5,134.9 542.6,138.0 542.8,142.0 543.0,147.1 543.1,154.1 543.3,165.0 543.4,182.0 543.6,177.7 543.8,179.1 543.9,182.0 544.1,164.6 544.3,155.0 544.4,148.8 544.6,144.5 544.8,141.3 544.9,139.0 545.1,137.4 545.2,136.4 545.4,136.1 545.6,136.5 545.7,137.6 545.9,139.8 546.1,143.8 546.2,151.7 546.4,182.0 546.6,149.5 546.7,140.5 546.9,135.2 547.0,131.5 547.2,128.8 547.4,126.8 547.5,125.3 547.7,124.3 547.9,123.7 548.0,123.6 548.2,123.8 548.4,124.6 548.5,125.9 548.7,127.9 548.8,131.0 549.0,135.9 549.2,145.5 549.3,163.9 549.5,140.3 549.7,132.6 549.8,128.0 550.0,124.8 550.2,122.5 550.3,120.9 550.5,119.8 550.6,119.1 550.8,118.8 551.0,118.9 551.1,119.5 551.3,120.5 551.5,122.1 551.6,124.4 551.8,127.9 552.0,133.4 552.1,144.7 552.3,153.1 552.4,135.7 552.6,128.8 552.8,124.6 552.9,121.7 553.1,119.7 553.3,118.2 553.4,117.3 553.6,116.8 553.8,116.7 553.9,117.0 554.1,117.7 554.2,118.9 554.4,120.7 554.6,123.2 554.7,127.0 554.9,133.1 555.1,146.6 555.2,147.0 555.4,133.1 555.6,126.9 555.7,123.0 555.9,120.3 556.0,118.5 556.2,117.2 556.4,116.4 556.5,116.0 556.7,116.0 556.9,116.4 557.0,117.3 557.2,118.6 557.4,120.6 557.5,123.3 557.7,127.4 557.8,134.1 558.0,150.8 558.2,143.5 558.3,131.8 558.5,126.1 558.7,122.5 558.8,120.1 559.0,118.4 559.2,117.2 559.3,116.5 559.5,116.2 559.6,116.4 559.8,116.9 560.0,117.9 560.1,119.3 560.3,121.4 560.5,124.4 560.6,128.8 560.8,136.2 561.0,158.5 561.1,141.5 561.3,131.5 561.4,126.3 561.6,123.0 561.8,120.7 561.9,119.1 562.1,118.1 562.3,117.5 562.4,117.3 562.6,117.5 562.8,118.2 562.9,119.2 563.1,120.8 563.2,123.1 563.4,126.3 563.6,131.0 563.7,139.3 563.9,177.2 564.1,140.9 564.2,132.1 564.4,127.3 564.6,124.2 564.7,122.1 564.9,120.6 565.0,119.7 565.2,119.2 565.4,119.2 565.5,119.5 565.7,120.2 565.9,121.4 566.0,123.2 566.2,125.6 566.4,129.0 566.5,134.1 566.7,143.5 566.8,171.2 567.0,141.3 567.2,133.5 567.3,129.1 567.5,126.2 567.7,124.3 567.8,123.0 568.0,122.2 568.2,121.8 568.3,121.9 568.5,122.3 568.6,123.2 568.8,124.5 569.0,126.4 569.1,128.9 569.3,132.6 569.5,138.2 569.6,149.0 569.8,162.8 570.0,142.9 570.1,136.0 570.3,131.9 570.4,129.3 570.6,127.5 570.8,126.3 570.9,125.7 571.1,125.4 571.3,125.6 571.4,126.2 571.6,127.2 571.8,128.6 571.9,130.7 572.1,133.5 572.2,137.4 572.4,143.6 572.6,156.1 572.7,161.2 572.9,146.0 573.1,139.8 573.2,136.1 573.4,133.7 573.6,132.1 573.7,131.1 573.9,130.6 574.0,130.6 574.2,130.9 574.4,131.6 574.5,132.8 574.7,134.5 574.9,136.7 575.0,139.8 575.2,144.2 575.4,151.0 575.5,166.2 575.7,163.7 575.9,151.3 576.0,145.8 576.2,142.5 576.3,140.5 576.5,139.2 576.7,138.5 576.8,138.3 577.0,138.5 577.2,139.2 577.3,140.2 577.5,141.8 577.7,143.8 577.8,146.5 578.0,150.1 578.1,155.1 578.3,162.9 578.5,182.0 578.6,172.2 578.8,162.3 579.0,157.9 579.1,155.5 579.3,154.3 579.5,154.1 579.6,154.5 579.8,155.6 579.9,157.3 580.1,159.9 580.3,163.3 580.4,168.1 580.6,174.9 580.8,182.0 580.9,182.0 581.1,182.0 581.3,182.0 581.4,182.0 581.6,182.0 581.7,174.3 581.9,167.0 582.1,161.9 582.2,158.0 582.4,155.0 582.6,152.7 582.7,151.0 582.9,149.7 583.1,149.0 583.2,148.7 583.4,149.0 583.5,149.8 583.7,151.4 583.9,153.9 584.0,158.1 584.2,166.2 584.4,182.0 584.5,164.8 584.7,155.9 584.9,150.8 585.0,147.2 585.2,144.6 585.3,142.7 585.5,141.4 585.7,140.5 585.8,140.0 586.0,139.9 586.2,140.3 586.3,141.1 586.5,142.4 586.7,144.5 586.8,147.6 587.0,152.6 587.1,162.1 587.3,182.0 587.5,157.5 587.6,149.7 587.8,145.1 588.0,142.0 588.1,139.7 588.3,138.1 588.5,137.0 588.6,136.4 588.8,136.1 588.9,136.3 589.1,136.9 589.3,137.9 589.4,139.5 589.6,141.9 589.8,145.3 589.9,150.8 590.1,162.0 590.3,171.3 590.4,153.5 590.6,146.5 590.7,142.3 590.9,139.4 591.1,137.4 591.2,136.0 591.4,135.1 591.6,134.6 591.7,134.5 591.9,134.8 592.1,135.5 592.2,136.7 592.4,138.5 592.5,141.1 592.7,144.8 592.9,150.9 593.0,164.1 593.2,165.5 593.4,151.3 593.5,145.0 593.7,141.1 593.9,138.4 594.0,136.6 594.2,135.3 594.3,134.5 594.5,134.1 594.7,134.2 594.8,134.6 595.0,135.5 595.2,136.8 595.3,138.7 595.5,141.5 595.7,145.6 595.8,152.3 596.0,168.6 596.1,162.1 596.3,150.3 596.5,144.6 596.6,141.0 596.8,138.5 597.0,136.8 597.1,135.7 597.3,135.0 597.5,134.7 597.6,134.9 597.8,135.4 597.9,136.4 598.1,137.9 598.3,140.0 598.4,143.0 598.6,147.4 598.8,154.7 598.9,176.3 599.1,160.5 599.3,150.4 599.4,145.1 599.6,141.8 599.7,139.5 599.9,138.0 600.1,137.0 600.2,136.4 600.4,136.2 600.6,136.5 600.7,137.2 600.9,138.3 601.1,139.9 601.2,142.1 601.4,145.3 601.5,150.1 601.7,158.3 601.9,182.0 602.0,160.3 602.2,151.5 602.4,146.7 602.5,143.6 602.7,141.5 602.9,140.1 603.0,139.2 603.2,138.7 603.3,138.7 603.5,139.1 603.7,139.9 603.8,141.1 604.0,142.8 604.2,145.3 604.3,148.7 604.5,153.9 604.7,163.2 604.8,182.0 605.0,161.5 605.1,153.7 605.3,149.3 605.5,146.5 605.6,144.5 605.8,143.3 606.0,142.5 606.1,142.2 606.3,142.4 606.5,142.9 606.6,143.8 606.8,145.2 606.9,147.1 607.1,149.8 607.3,153.5 607.4,159.1 607.6,169.8 607.8,182.0 607.9,164.4 608.1,157.4 608.3,153.5 608.4,150.9 608.6,149.2 608.7,148.1 608.9,147.6 609.1,147.5 609.2,147.8 609.4,148.4 609.6,149.6 609.7,151.2 609.9,153.3 610.1,156.3 610.2,160.4 610.4,166.6 610.5,179.1 610.7,182.0 610.9,169.9 611.0,163.8 611.2,160.3 611.4,158.2 611.5,156.8 611.7,156.1 611.9,155.9 612.0,156.1 612.2,156.8 612.3,157.9 612.5,159.4 612.7,161.5 612.8,164.2 613.0,167.8 613.2,172.7 613.3,180.0 613.5,182.0 613.7,182.0 613.8,182.0 614.0,178.5 614.1,176.4 614.3,175.7 614.5,176.0 614.6,177.5 614.8,180.0 615.0,182.0 615.1,182.0 615.3,182.0 615.5,182.0 615.6,182.0 615.8,182.0 615.9,182.0 616.1,182.0 616.3,182.0 616.4,182.0 616.6,182.0 616.8,182.0 616.9,177.3 617.1,172.6 617.3,169.1 617.4,166.4 617.6,164.4 617.7,162.9 617.9,161.8 618.1,161.2 618.2,161.1 618.4,161.4 618.6,162.3 618.7,163.9 618.9,166.3 619.1,170.3 619.2,177.5 619.4,182.0 619.5,180.4 619.7,170.4 619.9,164.9 620.0,161.2 620.2,158.6 620.4,156.6 620.5,155.2 620.7,154.3 620.9,153.8 621.0,153.7 621.2,154.0 621.3,154.8 621.5,156.1 621.7,158.1 621.8,161.0 622.0,165.6 622.2,174.0 622.3,182.0 622.5,173.5 622.7,164.8 622.8,159.9 623.0,156.6 623.1,154.2 623.3,152.5 623.5,151.4 623.6,150.7 623.8,150.4 624.0,150.5 624.1,151.0 624.3,152.0 624.5,153.5 624.6,155.7 624.8,159.0 624.9,164.1 625.1,173.6 625.3,182.0 625.4,169.6 625.6,161.9 625.8,157.3 625.9,154.3 626.1,152.2 626.3,150.7 626.4,149.7 626.6,149.1 626.7,149.0 626.9,149.2 627.1,149.9 627.2,151.0 627.4,152.7 627.6,155.1 627.7,158.7 627.9,164.2 628.1,175.3 628.2,182.0 628.4,167.4 628.5,160.4 628.7,156.3 628.9,153.5 629.0,151.5 629.2,150.1 629.4,149.3 629.5,148.9 629.7,148.8 629.9,149.2 630.0,150.0 630.2,151.3 630.3,153.1 630.5,155.7 630.7,159.6 630.8,165.6 631.0,178.8 631.2,180.8 631.3,166.4 631.5,160.2 631.7,156.3 631.8,153.7 632.0,151.9 632.1,150.7 632.3,150.0 632.5,149.7 632.6,149.8 632.8,150.2 633.0,151.2 633.1,152.6 633.3,154.6 633.5,157.4 633.6,161.5 633.8,168.2 633.9,182.0 634.1,178.6 634.3,166.6 634.4,160.9 634.6,157.4 634.8,155.0 634.9,153.3 635.1,152.3 635.3,151.6 635.4,151.4 635.6,151.7 635.7,152.3 635.9,153.3 636.1,154.8 636.2,157.0 636.4,160.0 636.6,164.5 636.7,171.9 636.9,182.0 637.1,178.2 637.2,168.0 637.4,162.8 637.5,159.5 637.7,157.3 637.9,155.8 638.0,154.9 638.2,154.4 638.4,154.4 638.5,154.7 638.7,155.4 638.9,156.6 639.0,158.3 639.2,160.7 639.3,163.9 639.5,168.8 639.7,177.0 639.8,182.0 640.0,179.6 640.2,170.8 640.3,166.0 640.5,163.1 640.7,161.1 640.8,159.8 641.0,159.0 641.1,158.7 641.3,158.8 641.5,159.3 641.6,160.2 641.8,161.5 642.0,163.4 642.1,166.0 642.3,169.6 642.5,174.9 642.6,182.0 642.8,182.0 642.9,182.0 643.1,175.7 643.3,171.5 643.4,168.8 643.6,167.1 643.8,166.1 643.9,165.6 644.1,165.5 644.3,165.9 644.4,166.6 644.6,167.9 644.7,169.5 644.9,171.8 645.1,174.8 645.2,178.8 645.4,182.0 645.6,182.0 645.7,182.0 645.9,182.0 646.1,182.0 646.2,182.0 646.4,180.2 646.5,179.2 646.7,178.9 646.9,179.3 647.0,180.1 647.2,181.6 647.4,182.0 647.5,182.0 647.7,182.0 647.9,182.0 648.0,182.0 648.2,182.0 648.3,182.0 648.5,182.0 648.7,182.0 648.8,182.0 649.0,182.0 649.2,182.0 649.3,182.0 649.5,182.0 649.7,182.0 649.8,182.0 650.0,180.9 650.1,179.7 650.3,179.0 650.5,178.8 650.6,179.1 650.8,180.2 651.0,182.0 651.1,182.0 651.3,182.0 651.5,182.0 651.6,182.0 651.8,182.0 651.9,181.6 652.1,177.4 652.3,174.3 652.4,172.1 652.6,170.5 652.8,169.3 652.9,168.6 653.1,168.3 653.3,168.4 653.4,168.9 653.6,169.9 653.7,171.6 653.9,174.2 654.1,178.1 654.2,182.0 654.4,182.0 654.6,182.0 654.7,180.6 654.9,174.9 655.1,171.1 655.2,168.5 655.4,166.6 655.5,165.2 655.7,164.4 655.9,163.9 656.0,163.8 656.2,164.2 656.4,165.0 656.5,166.3 656.7,168.2 656.9,171.1 657.0,175.4 657.2,182.0 657.3,182.0 657.5,182.0 657.7,176.7 657.8,171.5 658.0,168.1 658.2,165.7 658.3,163.9 658.5,162.8 658.7,162.1 658.8,161.8 659.0,161.9 659.1,162.4 659.3,163.3 659.5,164.8 659.6,167.0 659.8,170.1 660.0,174.8 660.1,182.0 660.3,182.0 660.5,182.0 660.6,174.6 660.8,169.9 661.0,166.7 661.1,164.5 661.3,162.9 661.4,161.9 661.6,161.3 661.8,161.2 661.9,161.4 662.1,162.0 662.3,163.1 662.4,164.8 662.6,167.1 662.8,170.5 662.9,175.6 663.1,182.0 663.2,182.0 663.4,181.5 663.6,173.9 663.7,169.5 663.9,166.5 664.1,164.5 664.2,163.1 664.4,162.2 664.6,161.7 664.7,161.7 664.9,162.0 665.0,162.8 665.2,164.0 665.4,165.8 665.5,168.3 665.7,171.9 665.9,177.6 666.0,182.0 666.2,182.0 666.4,181.1 666.5,174.2 666.7,170.1 666.8,167.4 667.0,165.5 667.2,164.3 667.3,163.5 667.5,163.2 667.7,163.2 667.8,163.7 668.0,164.6 668.2,165.9 668.3,167.9 668.5,170.6 668.6,174.5 668.8,180.6 669.0,182.0 669.1,182.0 669.3,181.9 669.5,175.7 669.6,171.9 669.8,169.4 670.0,167.7 670.1,166.6 670.3,165.9 670.4,165.7 670.6,165.9 670.8,166.5 670.9,167.5 671.1,169.0 671.3,171.1 671.4,174.1 671.6,178.2 671.8,182.0 671.9,182.0 672.1,182.0 672.2,182.0 672.4,178.5 672.6,175.1 672.7,172.8 672.9,171.3 673.1,170.3 673.2,169.8 673.4,169.8 673.6,170.1 673.7,170.9 673.9,172.0 674.0,173.7 674.2,176.0 674.4,179.2 674.5,182.0 674.7,182.0 674.9,182.0 675.0,182.0 675.2,182.0 675.4,182.0 675.5,180.4 675.7,178.4 675.8,177.1 676.0,176.4 676.2,176.1 676.3,176.3 676.5,176.9 676.7,177.9 676.8,179.3 677.0,181.3 677.2,182.0 677.3,182.0 677.5,182.0 677.6,182.0 677.8,182.0 678.0,182.0 678.1,182.0 678.3,182.0 678.5,182.0 678.6,182.0 678.8,182.0 679.0,182.0 679.1,182.0 679.3,182.0 679.4,182.0 679.6,182.0 679.8,182.0 679.9,182.0 680.1,182.0 680.3,182.0 680.4,182.0 680.6,182.0 680.8,182.0 680.9,182.0 681.1,182.0 681.2,182.0 681.4,182.0 681.6,182.0 681.7,182.0 681.9,182.0 682.1,182.0 682.2,182.0 682.4,182.0 682.6,182.0 682.7,182.0 682.9,182.0 683.0,182.0 683.2,182.0 683.4,182.0 683.5,182.0 683.7,182.0 683.9,182.0 684.0,182.0 684.2,182.0 684.4,182.0 684.5,182.0 684.7,182.0 684.8,181.4 685.0,180.5 685.2,180.1 685.3,180.1 685.5,180.5 685.7,181.4 685.8,182.0 686.0,182.0 686.2,182.0 686.3,182.0 686.5,182.0 686.6,182.0 686.8,182.0 687.0,182.0 687.1,182.0 687.3,180.4 687.5,178.4 687.6,176.9 687.8,175.9 688.0,175.3 688.1,175.2 688.3,175.4 688.4,176.1 688.6,177.2 688.8,179.0 688.9,181.6 689.1,182.0 689.3,182.0 689.4,182.0 689.6,182.0 689.8,182.0 689.9,182.0 690.1,179.9 690.2,177.3 690.4,175.5 690.6,174.2 690.7,173.3 690.9,172.9 691.1,172.9 691.2,173.3 691.4,174.2 691.6,175.5 691.7,177.4 691.9,180.3 692.0,182.0 692.2,182.0 692.4,182.0 692.5,182.0 692.7,182.0 692.9,181.9 693.0,178.4 693.2,175.9 693.4,174.2 693.5,173.1 693.7,172.4 693.8,172.1 694.0,172.2 694.2,172.8 694.3,173.7 694.5,175.2 694.7,177.3 694.8,180.4 695.0,182.0 695.2,182.0 695.3,182.0 695.5,182.0 695.6,182.0 695.8,181.3 696.0,178.1 696.1,175.8 696.3,174.3 696.5,173.2 696.6,172.7 696.8,172.5 697.0,172.7 697.1,173.4 697.3,174.4 697.4,176.0 697.6,178.3 697.8,181.6 697.9,182.0 698.1,182.0 698.3,182.0 698.4,182.0 698.6,182.0 698.8,181.9 698.9,178.9 699.1,176.8 699.2,175.3 699.4,174.4 699.6,174.0 699.7,173.9 699.9,174.3 700.1,175.0 700.2,176.2 700.4,177.9 700.6,180.4 700.7,182.0 700.9,182.0 701.0,182.0 701.2,182.0 701.4,182.0 701.5,182.0 701.7,182.0 701.9,180.8 702.0,178.9 702.2,177.6 702.4,176.8 702.5,176.5 702.7,176.5 702.8,177.0 703.0,177.8 703.2,179.2 703.3,181.0 703.5,182.0 703.7,182.0 703.8,182.0 704.0,182.0 704.2,182.0 704.3,182.0 704.5,182.0 704.6,182.0 704.8,182.0 705.0,182.0 705.1,181.3 705.3,180.7 705.5,180.5 705.6,180.7 705.8,181.2 706.0,182.0 706.1,182.0 706.3,182.0 706.4,182.0 706.6,182.0 706.8,182.0 706.9,182.0 707.1,182.0 707.3,182.0 707.4,182.0 707.6,182.0 707.8,182.0 707.9,182.0 708.1,182.0 708.2,182.0 708.4,182.0 708.6,182.0 708.7,182.0 708.9,182.0 709.1,182.0 709.2,182.0 709.4,182.0 709.6,182.0 709.7,182.0 709.9,182.0 710.0,182.0 710.2,182.0 710.4,182.0 710.5,182.0 710.7,182.0 710.9,182.0 711.0,182.0 711.2,182.0 711.4,182.0 711.5,182.0 711.7,182.0 711.8,182.0 712.0,182.0 712.2,182.0 712.3,182.0 712.5,182.0 712.7,182.0 712.8,182.0 713.0,182.0 713.2,182.0 713.3,182.0 713.5,182.0 713.6,182.0 713.8,182.0 714.0,182.0 714.1,182.0 714.3,182.0 714.5,182.0 714.6,182.0 714.8,182.0 715.0,182.0 715.1,182.0 715.3,182.0 715.4,182.0 715.6,182.0 715.8,182.0 715.9,182.0 716.1,182.0 716.3,182.0 716.4,182.0 716.6,182.0 716.8,182.0 716.9,182.0 717.1,182.0 717.2,182.0 717.4,182.0 717.6,182.0 717.7,182.0 717.9,182.0 718.1,182.0 718.2,182.0 718.4,182.0 718.6,182.0 718.7,182.0 718.9,182.0 719.0,182.0 719.2,182.0 719.4,182.0 719.5,182.0 719.7,182.0 719.9,182.0 720.0,182.0 720.2,182.0 720.4,182.0 720.5,182.0 720.7,182.0 720.8,182.0 721.0,182.0 721.2,182.0 721.3,182.0 721.5,182.0 721.7,182.0 721.8,182.0 722.0,182.0 722.2,182.0 722.3,182.0 722.5,182.0 722.6,182.0 722.8,182.0 723.0,182.0 723.1,182.0 723.3,182.0 723.5,182.0 723.6,182.0 723.8,182.0 724.0,182.0 724.1,182.0 724.3,182.0 724.4,182.0 724.6,182.0 724.8,182.0 724.9,182.0 725.1,182.0 725.3,182.0 725.4,182.0 725.6,182.0 725.8,182.0 725.9,182.0 726.1,182.0 726.2,182.0 726.4,182.0 726.6,182.0 726.7,182.0 726.9,182.0 727.1,182.0 727.2,182.0 727.4,182.0 727.6,182.0 727.7,182.0 727.9,182.0 728.0,182.0 728.2,182.0 728.4,182.0 728.5,182.0 728.7,182.0 728.9,182.0 729.0,182.0 729.2,182.0 729.4,182.0 729.5,182.0 729.7,182.0 729.8,182.0 730.0,182.0 730.2,182.0 730.3,182.0 730.5,182.0 730.7,182.0 730.8,182.0 731.0,182.0 731.2,182.0 731.3,182.0 731.5,182.0 731.6,182.0 731.8,182.0 732.0,182.0 732.1,182.0 732.3,182.0 732.5,182.0 732.6,182.0 732.8,182.0 733.0,182.0 733.1,182.0 733.3,182.0 733.4,182.0 733.6,182.0 733.8,182.0 733.9,182.0 734.1,182.0 734.3,182.0 734.4,182.0 734.6,182.0 734.8,182.0 734.9,182.0 735.1,182.0 735.2,182.0 735.4,182.0 735.6,182.0 735.7,182.0 735.9,182.0 736.1,182.0 736.2,182.0 736.4,182.0 736.6,182.0 736.7,182.0 736.9,182.0 737.0,182.0 737.2,182.0 737.4,182.0 737.5,182.0 737.7,182.0 737.9,182.0 738.0,182.0 738.2,182.0 738.4,182.0 738.5,182.0 738.7,182.0 738.8,182.0 739.0,182.0 739.2,182.0 739.3,182.0 739.5,182.0 739.7,182.0 739.8,182.0 740.0,182.0 740.2,182.0 740.3,182.0 740.5,182.0 740.6,182.0 740.8,182.0 741.0,182.0 741.1,182.0 741.3,182.0 741.5,182.0 741.6,182.0 741.8,182.0 742.0,182.0 742.1,182.0 742.3,182.0 742.4,182.0 742.6,182.0 742.8,182.0 742.9,182.0 743.1,182.0 743.3,182.0 743.4,182.0 743.6,182.0 743.8,182.0 743.9,182.0 744.1,182.0 744.3,182.0 744.4,182.0 744.6,182.0 744.7,182.0 744.9,182.0 745.1,182.0 745.2,182.0 745.4,182.0 745.6,182.0 745.7,182.0 745.9,182.0 746.1,182.0 746.2,182.0 746.4,182.0 746.5,182.0 746.7,182.0 746.9,182.0 747.0,182.0 747.2,182.0 747.4,182.0 747.5,182.0 747.7,182.0 747.9,182.0 748.0,182.0 748.2,182.0 748.3,182.0 748.5,182.0 748.7,182.0 748.8,182.0 749.0,182.0 749.2,182.0 749.3,182.0 749.5,182.0 749.7,182.0 749.8,182.0 750.0,182.0 750.1,182.0 750.3,182.0 750.5,182.0 750.6,182.0 750.8,182.0 751.0,182.0 751.1,182.0 751.3,182.0 751.5,182.0 751.6,182.0 751.8,182.0 751.9,182.0 752.1,182.0 752.3,182.0 752.4,182.0 752.6,182.0 752.8,182.0 752.9,182.0 753.1,182.0 753.3,182.0 753.4,182.0 753.6,182.0 753.7,182.0 753.9,182.0 754.1,182.0 754.2,182.0 754.4,182.0 754.6,182.0 754.7,182.0 754.9,182.0 755.1,182.0 755.2,182.0 755.4,182.0 755.5,182.0 755.7,182.0 755.9,182.0 756.0,182.0 756.2,182.0 756.4,182.0 756.5,182.0 756.7,182.0 756.9,182.0 757.0,182.0 757.2,182.0 757.3,182.0 757.5,182.0 757.7,182.0 757.8,182.0 758.0,182.0 758.2,182.0 758.3,182.0 758.5,182.0 758.7,182.0 758.8,182.0 759.0,182.0 759.1,182.0 759.3,182.0 759.5,182.0 759.6,182.0 759.8,182.0 760.0,182.0 760.1,182.0 760.3,182.0 760.5,182.0 760.6,182.0 760.8,182.0 760.9,182.0 761.1,182.0 761.3,182.0 761.4,182.0 761.6,182.0 761.8,182.0 761.9,182.0 762.1,182.0 762.3,182.0 762.4,182.0 762.6,182.0 762.7,182.0 762.9,182.0 763.1,182.0 763.2,182.0 763.4,182.0 763.6,182.0 763.7,182.0 763.9,182.0 764.1,182.0 764.2,182.0 764.4,182.0 764.5,182.0 764.7,182.0 764.9,182.0 765.0,182.0 765.2,182.0 765.4,182.0 765.5,182.0 765.7,182.0 765.9,182.0 766.0,182.0 766.2,182.0 766.3,182.0 766.5,182.0 766.7,182.0 766.8,182.0 767.0,182.0 767.2,182.0 767.3,182.0 767.5,182.0 767.7,182.0 767.8,182.0 768.0,182.0 768.1,182.0 768.3,182.0 768.5,182.0 768.6,182.0 768.8,182.0 769.0,182.0 769.1,182.0 769.3,182.0 769.5,182.0 769.6,182.0 769.8,182.0 769.9,182.0 770.1,182.0 770.3,182.0 770.4,182.0 770.6,182.0 770.8,182.0 770.9,182.0 771.1,182.0 771.3,182.0 771.4,182.0 771.6,182.0 771.7,182.0 771.9,182.0 772.1,182.0 772.2,182.0 772.4,182.0 772.6,182.0 772.7,182.0 772.9,182.0 773.1,182.0 773.2,182.0 773.4,182.0 773.5,182.0 773.7,182.0 773.9,182.0 774.0,182.0 774.2,182.0 774.4,182.0 774.5,182.0 774.7,182.0 774.9,182.0 775.0,182.0 775.2,182.0 775.3,182.0 775.5,182.0 775.7,182.0 775.8,182.0 776.0,182.0 776.2,182.0 776.3,182.0 776.5,182.0 776.7,182.0 776.8,182.0 777.0,182.0 777.1,182.0 777.3,182.0 777.5,182.0 777.6,182.0 777.8,182.0 778.0,182.0 778.1,182.0 778.3,182.0 778.5,182.0 778.6,182.0 778.8,182.0 778.9,182.0 779.1,182.0 779.3,182.0 779.4,182.0 779.6,182.0 779.8,182.0 779.9,182.0 780.1,182.0 780.3,182.0 780.4,182.0 780.6,182.0 780.7,182.0 780.9,182.0 781.1,182.0 781.2,182.0 781.4,182.0 781.6,182.0 781.7,182.0 781.9,182.0 782.1,182.0 782.2,182.0 782.4,182.0 782.5,182.0 782.7,182.0 782.9,182.0 783.0,182.0 783.2,182.0 783.4,182.0 783.5,182.0 783.7,182.0 783.9,182.0 784.0,182.0 784.2,182.0 784.3,182.0 784.5,182.0 784.7,182.0 784.8,182.0 785.0,182.0" fill="none" stroke="#4a90d9" stroke-width="1.5" stroke-linejoin="round"/>
  <text x="209.5" y="214" text-anchor="middle" font-size="11" fill="#6b7280">n / N</text>
  <text x="617.5" y="214" text-anchor="middle" font-size="11" fill="#6b7280">Normalized frequency (× Fₛ)</text>
</svg>
