<svg xmlns="http://www.w3.org/2000/svg" viewBox="0 0 560 210" width="560" height="210" style="font-family:system-ui,-apple-system,sans-serif">
  <rect width="560" height="210" fill="#fafafa" rx="6"/>
  <text x="280" y="18" text-anchor="middle" font-size="12" font-weight="600" fill="#374151">powerOfSine</text>
  <line x1="52" y1="166.0" x2="257" y2="166.0" stroke="#e5e7eb" stroke-width="0.5"/>
  <text x="48" y="169.0" text-anchor="end" font-size="7.5" fill="#6b7280">0</text>
  <line x1="52" y1="97.0" x2="257" y2="97.0" stroke="#e5e7eb" stroke-width="0.5"/>
  <text x="48" y="100.0" text-anchor="end" font-size="7.5" fill="#6b7280">0.5</text>
  <line x1="52" y1="28.0" x2="257" y2="28.0" stroke="#e5e7eb" stroke-width="0.5"/>
  <text x="48" y="31.0" text-anchor="end" font-size="7.5" fill="#6b7280">1</text>
  <line x1="52.0" y1="28" x2="52.0" y2="166" stroke="#e5e7eb" stroke-width="0.5"/>
  <text x="52.0" y="178" text-anchor="middle" font-size="7.5" fill="#6b7280">0</text>
  <line x1="154.5" y1="28" x2="154.5" y2="166" stroke="#e5e7eb" stroke-width="0.5"/>
  <text x="154.5" y="178" text-anchor="middle" font-size="7.5" fill="#6b7280">0.5</text>
  <line x1="257.0" y1="28" x2="257.0" y2="166" stroke="#e5e7eb" stroke-width="0.5"/>
  <text x="257.0" y="178" text-anchor="middle" font-size="7.5" fill="#6b7280">1</text>
  <line x1="52" y1="28" x2="52" y2="166" stroke="#d1d5db" stroke-width="0.75"/>
  <line x1="52" y1="166" x2="257" y2="166" stroke="#d1d5db" stroke-width="0.75"/>
  <path d="M52.0,166.0 52.0,166.0 52.8,166.0 53.6,165.9 54.4,165.8 55.2,165.7 56.0,165.5 56.8,165.2 57.6,165.0 58.4,164.7 59.2,164.3 60.0,163.9 60.8,163.5 61.6,163.0 62.5,162.5 63.3,161.9 64.1,161.3 64.9,160.7 65.7,160.0 66.5,159.3 67.3,158.6 68.1,157.8 68.9,157.0 69.7,156.1 70.5,155.2 71.3,154.3 72.1,153.3 72.9,152.3 73.7,151.3 74.5,150.2 75.3,149.1 76.1,148.0 76.9,146.8 77.7,145.6 78.5,144.4 79.3,143.2 80.1,141.9 80.9,140.6 81.7,139.3 82.5,137.9 83.4,136.5 84.2,135.1 85.0,133.7 85.8,132.2 86.6,130.8 87.4,129.3 88.2,127.8 89.0,126.2 89.8,124.7 90.6,123.1 91.4,121.5 92.2,119.9 93.0,118.3 93.8,116.7 94.6,115.1 95.4,113.4 96.2,111.8 97.0,110.1 97.8,108.4 98.6,106.7 99.4,105.1 100.2,103.4 101.0,101.7 101.8,100.0 102.6,98.3 103.5,96.6 104.3,94.9 105.1,93.2 105.9,91.5 106.7,89.8 107.5,88.1 108.3,86.4 109.1,84.7 109.9,83.1 110.7,81.4 111.5,79.8 112.3,78.1 113.1,76.5 113.9,74.9 114.7,73.3 115.5,71.7 116.3,70.1 117.1,68.5 117.9,67.0 118.7,65.5 119.5,64.0 120.3,62.5 121.1,61.0 121.9,59.6 122.7,58.2 123.5,56.8 124.4,55.4 125.2,54.1 126.0,52.8 126.8,51.5 127.6,50.2 128.4,49.0 129.2,47.8 130.0,46.6 130.8,45.4 131.6,44.3 132.4,43.2 133.2,42.2 134.0,41.2 134.8,40.2 135.6,39.2 136.4,38.3 137.2,37.5 138.0,36.6 138.8,35.8 139.6,35.0 140.4,34.3 141.2,33.6 142.0,33.0 142.8,32.4 143.6,31.8 144.5,31.2 145.3,30.8 146.1,30.3 146.9,29.9 147.7,29.5 148.5,29.2 149.3,28.9 150.1,28.6 150.9,28.4 151.7,28.3 152.5,28.1 153.3,28.0 154.1,28.0 154.9,28.0 155.7,28.0 156.5,28.1 157.3,28.3 158.1,28.4 158.9,28.6 159.7,28.9 160.5,29.2 161.3,29.5 162.1,29.9 162.9,30.3 163.7,30.8 164.5,31.2 165.4,31.8 166.2,32.4 167.0,33.0 167.8,33.6 168.6,34.3 169.4,35.0 170.2,35.8 171.0,36.6 171.8,37.5 172.6,38.3 173.4,39.2 174.2,40.2 175.0,41.2 175.8,42.2 176.6,43.2 177.4,44.3 178.2,45.4 179.0,46.6 179.8,47.8 180.6,49.0 181.4,50.2 182.2,51.5 183.0,52.8 183.8,54.1 184.6,55.4 185.5,56.8 186.3,58.2 187.1,59.6 187.9,61.0 188.7,62.5 189.5,64.0 190.3,65.5 191.1,67.0 191.9,68.5 192.7,70.1 193.5,71.7 194.3,73.3 195.1,74.9 195.9,76.5 196.7,78.1 197.5,79.8 198.3,81.4 199.1,83.1 199.9,84.7 200.7,86.4 201.5,88.1 202.3,89.8 203.1,91.5 203.9,93.2 204.7,94.9 205.5,96.6 206.4,98.3 207.2,100.0 208.0,101.7 208.8,103.4 209.6,105.1 210.4,106.7 211.2,108.4 212.0,110.1 212.8,111.8 213.6,113.4 214.4,115.1 215.2,116.7 216.0,118.3 216.8,119.9 217.6,121.5 218.4,123.1 219.2,124.7 220.0,126.2 220.8,127.8 221.6,129.3 222.4,130.8 223.2,132.2 224.0,133.7 224.8,135.1 225.6,136.5 226.5,137.9 227.3,139.3 228.1,140.6 228.9,141.9 229.7,143.2 230.5,144.4 231.3,145.6 232.1,146.8 232.9,148.0 233.7,149.1 234.5,150.2 235.3,151.3 236.1,152.3 236.9,153.3 237.7,154.3 238.5,155.2 239.3,156.1 240.1,157.0 240.9,157.8 241.7,158.6 242.5,159.3 243.3,160.0 244.1,160.7 244.9,161.3 245.7,161.9 246.5,162.5 247.4,163.0 248.2,163.5 249.0,163.9 249.8,164.3 250.6,164.7 251.4,165.0 252.2,165.2 253.0,165.5 253.8,165.7 254.6,165.8 255.4,165.9 256.2,166.0 257.0,166.0 L257.0,166.0 Z" fill="#4a90d9" fill-opacity="0.06"/>
  <polyline points="52.0,166.0 52.8,166.0 53.6,165.9 54.4,165.8 55.2,165.7 56.0,165.5 56.8,165.2 57.6,165.0 58.4,164.7 59.2,164.3 60.0,163.9 60.8,163.5 61.6,163.0 62.5,162.5 63.3,161.9 64.1,161.3 64.9,160.7 65.7,160.0 66.5,159.3 67.3,158.6 68.1,157.8 68.9,157.0 69.7,156.1 70.5,155.2 71.3,154.3 72.1,153.3 72.9,152.3 73.7,151.3 74.5,150.2 75.3,149.1 76.1,148.0 76.9,146.8 77.7,145.6 78.5,144.4 79.3,143.2 80.1,141.9 80.9,140.6 81.7,139.3 82.5,137.9 83.4,136.5 84.2,135.1 85.0,133.7 85.8,132.2 86.6,130.8 87.4,129.3 88.2,127.8 89.0,126.2 89.8,124.7 90.6,123.1 91.4,121.5 92.2,119.9 93.0,118.3 93.8,116.7 94.6,115.1 95.4,113.4 96.2,111.8 97.0,110.1 97.8,108.4 98.6,106.7 99.4,105.1 100.2,103.4 101.0,101.7 101.8,100.0 102.6,98.3 103.5,96.6 104.3,94.9 105.1,93.2 105.9,91.5 106.7,89.8 107.5,88.1 108.3,86.4 109.1,84.7 109.9,83.1 110.7,81.4 111.5,79.8 112.3,78.1 113.1,76.5 113.9,74.9 114.7,73.3 115.5,71.7 116.3,70.1 117.1,68.5 117.9,67.0 118.7,65.5 119.5,64.0 120.3,62.5 121.1,61.0 121.9,59.6 122.7,58.2 123.5,56.8 124.4,55.4 125.2,54.1 126.0,52.8 126.8,51.5 127.6,50.2 128.4,49.0 129.2,47.8 130.0,46.6 130.8,45.4 131.6,44.3 132.4,43.2 133.2,42.2 134.0,41.2 134.8,40.2 135.6,39.2 136.4,38.3 137.2,37.5 138.0,36.6 138.8,35.8 139.6,35.0 140.4,34.3 141.2,33.6 142.0,33.0 142.8,32.4 143.6,31.8 144.5,31.2 145.3,30.8 146.1,30.3 146.9,29.9 147.7,29.5 148.5,29.2 149.3,28.9 150.1,28.6 150.9,28.4 151.7,28.3 152.5,28.1 153.3,28.0 154.1,28.0 154.9,28.0 155.7,28.0 156.5,28.1 157.3,28.3 158.1,28.4 158.9,28.6 159.7,28.9 160.5,29.2 161.3,29.5 162.1,29.9 162.9,30.3 163.7,30.8 164.5,31.2 165.4,31.8 166.2,32.4 167.0,33.0 167.8,33.6 168.6,34.3 169.4,35.0 170.2,35.8 171.0,36.6 171.8,37.5 172.6,38.3 173.4,39.2 174.2,40.2 175.0,41.2 175.8,42.2 176.6,43.2 177.4,44.3 178.2,45.4 179.0,46.6 179.8,47.8 180.6,49.0 181.4,50.2 182.2,51.5 183.0,52.8 183.8,54.1 184.6,55.4 185.5,56.8 186.3,58.2 187.1,59.6 187.9,61.0 188.7,62.5 189.5,64.0 190.3,65.5 191.1,67.0 191.9,68.5 192.7,70.1 193.5,71.7 194.3,73.3 195.1,74.9 195.9,76.5 196.7,78.1 197.5,79.8 198.3,81.4 199.1,83.1 199.9,84.7 200.7,86.4 201.5,88.1 202.3,89.8 203.1,91.5 203.9,93.2 204.7,94.9 205.5,96.6 206.4,98.3 207.2,100.0 208.0,101.7 208.8,103.4 209.6,105.1 210.4,106.7 211.2,108.4 212.0,110.1 212.8,111.8 213.6,113.4 214.4,115.1 215.2,116.7 216.0,118.3 216.8,119.9 217.6,121.5 218.4,123.1 219.2,124.7 220.0,126.2 220.8,127.8 221.6,129.3 222.4,130.8 223.2,132.2 224.0,133.7 224.8,135.1 225.6,136.5 226.5,137.9 227.3,139.3 228.1,140.6 228.9,141.9 229.7,143.2 230.5,144.4 231.3,145.6 232.1,146.8 232.9,148.0 233.7,149.1 234.5,150.2 235.3,151.3 236.1,152.3 236.9,153.3 237.7,154.3 238.5,155.2 239.3,156.1 240.1,157.0 240.9,157.8 241.7,158.6 242.5,159.3 243.3,160.0 244.1,160.7 244.9,161.3 245.7,161.9 246.5,162.5 247.4,163.0 248.2,163.5 249.0,163.9 249.8,164.3 250.6,164.7 251.4,165.0 252.2,165.2 253.0,165.5 253.8,165.7 254.6,165.8 255.4,165.9 256.2,166.0 257.0,166.0" fill="none" stroke="#4a90d9" stroke-width="1.2" stroke-linejoin="round"/>
  <line x1="322" y1="28.0" x2="527" y2="28.0" stroke="#e5e7eb" stroke-width="0.5"/>
  <text x="318" y="31.0" text-anchor="end" font-size="7.5" fill="#6b7280">0</text>
  <line x1="322" y1="74.0" x2="527" y2="74.0" stroke="#e5e7eb" stroke-width="0.5"/>
  <text x="318" y="77.0" text-anchor="end" font-size="7.5" fill="#6b7280">-40</text>
  <line x1="322" y1="120.0" x2="527" y2="120.0" stroke="#e5e7eb" stroke-width="0.5"/>
  <text x="318" y="123.0" text-anchor="end" font-size="7.5" fill="#6b7280">-80</text>
  <line x1="322" y1="166.0" x2="527" y2="166.0" stroke="#e5e7eb" stroke-width="0.5"/>
  <text x="318" y="169.0" text-anchor="end" font-size="7.5" fill="#6b7280">-120</text>
  <line x1="322.0" y1="28" x2="322.0" y2="166" stroke="#e5e7eb" stroke-width="0.5"/>
  <text x="322.0" y="178" text-anchor="middle" font-size="7.5" fill="#6b7280">0</text>
  <line x1="363.0" y1="28" x2="363.0" y2="166" stroke="#e5e7eb" stroke-width="0.5"/>
  <text x="363.0" y="178" text-anchor="middle" font-size="7.5" fill="#6b7280">0.1</text>
  <line x1="404.0" y1="28" x2="404.0" y2="166" stroke="#e5e7eb" stroke-width="0.5"/>
  <text x="404.0" y="178" text-anchor="middle" font-size="7.5" fill="#6b7280">0.2</text>
  <line x1="445.0" y1="28" x2="445.0" y2="166" stroke="#e5e7eb" stroke-width="0.5"/>
  <text x="445.0" y="178" text-anchor="middle" font-size="7.5" fill="#6b7280">0.3</text>
  <line x1="486.0" y1="28" x2="486.0" y2="166" stroke="#e5e7eb" stroke-width="0.5"/>
  <text x="486.0" y="178" text-anchor="middle" font-size="7.5" fill="#6b7280">0.4</text>
  <line x1="527.0" y1="28" x2="527.0" y2="166" stroke="#e5e7eb" stroke-width="0.5"/>
  <text x="527.0" y="178" text-anchor="middle" font-size="7.5" fill="#6b7280">0.5</text>
  <line x1="322" y1="28" x2="322" y2="166" stroke="#d1d5db" stroke-width="0.75"/>
  <line x1="322" y1="166" x2="527" y2="166" stroke="#d1d5db" stroke-width="0.75"/>
  <polyline points="322.0,28.0 322.1,28.0 322.2,28.1 322.3,28.2 322.4,28.4 322.5,28.6 322.6,28.9 322.7,29.2 322.8,29.6 322.9,30.1 323.0,30.6 323.1,31.1 323.2,31.7 323.3,32.4 323.4,33.2 323.5,34.0 323.6,34.9 323.7,35.8 323.8,36.9 323.9,38.0 324.0,39.3 324.1,40.6 324.2,42.1 324.3,43.7 324.4,45.5 324.5,47.5 324.6,49.8 324.7,52.3 324.8,55.4 324.9,59.0 325.0,63.8 325.1,71.2 325.2,94.2 325.3,76.0 325.4,69.6 325.5,66.7 325.6,65.1 325.7,64.4 325.8,64.2 325.9,64.4 326.0,65.0 326.1,66.0 326.2,67.3 326.3,69.1 326.4,71.3 326.5,74.3 326.6,78.4 326.7,85.0 326.8,104.0 326.9,90.1 327.0,82.9 327.1,79.5 327.2,77.5 327.3,76.4 327.4,75.8 327.5,75.7 327.6,76.0 327.7,76.7 327.8,77.7 327.9,79.2 328.0,81.2 328.1,83.9 328.2,87.7 328.3,93.9 328.4,110.3 328.5,99.9 328.6,92.1 328.7,88.3 328.8,86.1 328.9,84.8 329.0,84.0 329.1,83.8 329.2,83.9 329.3,84.4 329.4,85.3 329.5,86.6 329.6,88.5 329.7,91.0 329.8,94.6 329.9,100.4 330.0,115.0 330.1,107.6 330.2,99.2 330.3,95.2 330.4,92.8 330.5,91.3 330.6,90.4 330.7,90.1 330.8,90.1 330.9,90.5 331.0,91.3 331.1,92.5 331.2,94.2 331.3,96.6 331.4,100.1 331.5,105.6 331.6,118.8 331.7,114.1 331.8,105.0 331.9,100.8 332.0,98.3 332.1,96.7 332.2,95.7 332.3,95.3 332.4,95.2 332.5,95.5 332.6,96.2 332.7,97.4 332.8,99.0 332.9,101.3 333.0,104.6 333.1,109.9 333.2,122.0 333.3,119.8 333.4,110.0 333.5,105.6 333.6,102.9 333.7,101.3 333.8,100.2 333.9,99.7 334.0,99.6 334.1,99.8 334.2,100.5 334.3,101.5 334.4,103.1 334.5,105.3 334.6,108.5 334.7,113.6 334.8,124.7 334.9,125.0 335.0,114.3 335.1,109.7 335.2,107.0 335.3,105.2 335.4,104.1 335.5,103.5 335.6,103.4 335.7,103.6 335.8,104.2 335.9,105.2 336.0,106.7 336.1,108.8 336.2,111.9 336.3,116.8 336.4,127.1 336.5,129.9 336.6,118.3 336.7,113.4 336.8,110.6 336.9,108.8 337.0,107.6 337.1,107.0 337.2,106.7 337.3,106.9 337.4,107.4 337.5,108.4 337.6,109.9 337.7,111.9 337.8,114.9 337.9,119.6 338.0,129.2 338.1,134.6 338.2,121.8 338.3,116.8 338.4,113.9 338.5,112.0 338.6,110.7 338.7,110.0 338.8,109.8 338.9,109.9 339.0,110.4 339.1,111.3 339.2,112.7 339.3,114.7 339.4,117.6 339.5,122.2 339.6,131.1 339.7,139.3 339.8,125.1 339.9,119.9 340.0,116.8 340.1,114.9 340.2,113.6 340.3,112.8 340.4,112.5 340.5,112.6 340.6,113.1 340.7,113.9 340.8,115.3 340.9,117.2 341.0,120.1 341.1,124.4 341.2,132.9 341.3,144.1 341.4,128.2 341.5,122.7 341.6,119.5 341.7,117.5 341.8,116.2 341.9,115.4 342.0,115.1 342.1,115.1 342.2,115.5 342.3,116.4 342.4,117.7 342.5,119.6 342.6,122.3 342.7,126.5 342.8,134.5 342.9,149.5 343.0,131.1 343.1,125.4 343.2,122.1 343.3,120.0 343.4,118.6 343.5,117.8 343.6,117.4 343.7,117.4 343.8,117.8 343.9,118.6 344.0,119.8 344.1,121.7 344.2,124.4 344.3,128.4 344.4,136.0 344.5,155.8 344.6,133.9 344.7,127.8 344.8,124.4 344.9,122.3 345.0,120.9 345.1,120.0 345.2,119.6 345.3,119.5 345.4,119.9 345.5,120.6 345.6,121.9 345.7,123.7 345.8,126.3 345.9,130.2 346.0,137.4 346.1,165.1 346.2,136.5 346.3,130.2 346.4,126.7 346.5,124.4 346.6,123.0 346.7,122.1 346.8,121.6 346.9,121.5 347.0,121.9 347.1,122.6 347.2,123.8 347.3,125.5 347.4,128.0 347.5,131.9 347.6,138.7 347.7,166.0 347.8,139.0 347.9,132.4 348.0,128.7 348.1,126.4 348.2,124.9 348.3,124.0 348.4,123.5 348.5,123.4 348.6,123.7 348.7,124.4 348.8,125.5 348.9,127.2 349.0,129.7 349.1,133.4 349.2,139.9 349.3,166.0 349.4,141.4 349.5,134.5 349.6,130.7 349.7,128.4 349.8,126.8 349.9,125.8 350.0,125.3 350.1,125.2 350.2,125.4 350.3,126.1 350.4,127.2 350.5,128.8 350.6,131.2 350.7,134.8 350.8,141.1 350.9,162.7 351.0,143.8 351.1,136.5 351.2,132.6 351.3,130.2 351.4,128.6 351.5,127.5 351.6,127.0 351.7,126.8 351.8,127.1 351.9,127.7 352.0,128.8 352.1,130.4 352.2,132.7 352.3,136.2 352.4,142.2 352.5,160.4 352.6,146.2 352.7,138.4 352.8,134.4 352.9,131.9 353.0,130.2 353.1,129.2 353.2,128.6 353.3,128.4 353.4,128.6 353.5,129.2 353.6,130.2 353.7,131.8 353.8,134.1 353.9,137.5 354.0,143.2 354.1,159.1 354.2,148.5 354.3,140.3 354.4,136.1 354.5,133.6 354.6,131.8 354.7,130.7 354.8,130.1 354.9,129.9 355.0,130.1 355.1,130.7 355.2,131.6 355.3,133.2 355.4,135.4 355.5,138.7 355.6,144.2 355.7,158.4 355.8,150.9 355.9,142.1 356.0,137.8 356.1,135.1 356.3,133.4 356.4,132.2 356.5,131.6 356.6,131.3 356.7,131.5 356.8,132.0 356.9,133.0 357.0,134.5 357.1,136.6 357.2,139.8 357.3,145.1 357.4,158.0 357.5,153.2 357.6,143.8 357.7,139.4 357.8,136.6 357.9,134.8 358.0,133.7 358.1,133.0 358.2,132.7 358.3,132.8 358.4,133.3 358.5,134.3 358.6,135.7 358.7,137.8 358.8,140.9 358.9,146.0 359.0,157.8 359.1,155.6 359.2,145.5 359.3,140.9 359.4,138.1 359.5,136.3 359.6,135.0 359.7,134.3 359.8,134.0 359.9,134.1 360.0,134.6 360.1,135.5 360.2,136.9 360.3,138.9 360.4,142.0 360.5,146.9 360.6,157.7 360.7,158.1 360.8,147.2 360.9,142.4 361.0,139.5 361.1,137.6 361.2,136.4 361.3,135.6 361.4,135.3 361.5,135.4 361.6,135.8 361.7,136.7 361.8,138.0 361.9,140.0 362.0,143.0 362.1,147.7 362.2,157.8 362.3,160.6 362.4,148.8 362.5,143.9 362.6,140.9 362.7,138.9 362.8,137.6 362.9,136.9 363.0,136.5 363.1,136.5 363.2,137.0 363.3,137.8 363.4,139.1 363.5,141.1 363.6,144.0 363.7,148.5 363.8,157.9 363.9,163.4 364.0,150.4 364.1,145.3 364.2,142.2 364.3,140.2 364.4,138.9 364.5,138.1 364.6,137.7 364.7,137.7 364.8,138.1 364.9,138.9 365.0,140.2 365.1,142.1 365.2,144.9 365.3,149.3 365.4,158.1 365.5,166.0 365.6,152.0 365.7,146.6 365.8,143.5 365.9,141.4 366.0,140.1 366.1,139.2 366.2,138.8 366.3,138.8 366.4,139.1 366.5,139.9 366.6,141.2 366.7,143.0 366.8,145.8 366.9,150.0 367.0,158.4 367.1,166.0 367.2,153.6 367.3,148.0 367.4,144.7 367.5,142.6 367.6,141.2 367.7,140.3 367.8,139.9 367.9,139.8 368.0,140.2 368.1,140.9 368.2,142.1 368.3,144.0 368.4,146.6 368.5,150.8 368.6,158.6 368.7,166.0 368.8,155.1 368.9,149.3 369.0,145.9 369.1,143.8 369.2,142.3 369.3,141.4 369.4,140.9 369.5,140.9 369.6,141.2 369.7,141.9 369.8,143.1 369.9,144.8 370.0,147.4 370.1,151.4 370.2,158.9 370.3,166.0 370.4,156.7 370.5,150.6 370.6,147.1 370.7,144.9 370.8,143.4 370.9,142.5 371.0,142.0 371.1,141.9 371.2,142.1 371.3,142.8 371.4,144.0 371.5,145.7 371.6,148.2 371.7,152.1 371.8,159.2 371.9,166.0 372.0,158.2 372.1,151.8 372.2,148.3 372.3,146.0 372.4,144.4 372.5,143.5 372.6,142.9 372.7,142.8 372.8,143.1 372.9,143.7 373.0,144.9 373.1,146.5 373.2,149.0 373.3,152.8 373.4,159.5 373.5,166.0 373.6,159.8 373.7,153.1 373.8,149.4 373.9,147.0 374.0,145.5 374.1,144.5 374.2,143.9 374.3,143.8 374.4,144.0 374.5,144.6 374.6,145.7 374.7,147.3 374.8,149.7 374.9,153.4 375.0,159.9 375.1,166.0 375.2,161.4 375.3,154.3 375.4,150.5 375.5,148.1 375.6,146.5 375.7,145.4 375.8,144.8 375.9,144.7 376.0,144.9 376.1,145.5 376.2,146.5 376.3,148.1 376.4,150.5 376.5,154.0 376.6,160.2 376.7,166.0 376.8,162.9 376.9,155.5 377.0,151.6 377.1,149.1 377.2,147.4 377.3,146.4 377.4,145.8 377.5,145.6 377.6,145.7 377.7,146.3 377.8,147.3 377.9,148.9 378.0,151.2 378.1,154.6 378.2,160.5 378.3,166.0 378.4,164.6 378.5,156.7 378.6,152.6 378.7,150.1 378.8,148.4 378.9,147.3 379.0,146.6 379.1,146.4 379.2,146.6 379.3,147.1 379.4,148.1 379.5,149.6 379.6,151.9 379.7,155.2 379.8,160.9 379.9,166.0 380.0,166.0 380.1,157.9 380.2,153.7 380.3,151.1 380.4,149.3 380.5,148.2 380.6,147.5 380.7,147.3 380.8,147.4 380.9,147.9 381.0,148.9 381.1,150.3 381.2,152.5 381.3,155.8 381.4,161.2 381.5,166.0 381.6,166.0 381.7,159.1 381.8,154.7 381.9,152.0 382.0,150.2 382.1,149.0 382.2,148.4 382.3,148.1 382.4,148.2 382.5,148.7 382.6,149.6 382.7,151.0 382.8,153.2 382.9,156.3 383.0,161.6 383.1,166.0 383.2,166.0 383.3,160.2 383.4,155.7 383.5,153.0 383.6,151.1 383.7,149.9 383.8,149.2 383.9,148.9 384.0,149.0 384.1,149.4 384.2,150.3 384.3,151.7 384.4,153.8 384.5,156.9 384.6,161.9 384.7,166.0 384.8,166.0 384.9,161.4 385.0,156.7 385.1,153.9 385.2,152.0 385.3,150.7 385.4,150.0 385.5,149.7 385.6,149.7 385.7,150.2 385.8,151.0 385.9,152.4 386.0,154.4 386.1,157.4 386.2,162.3 386.3,166.0 386.4,166.0 386.5,162.5 386.6,157.7 386.7,154.8 386.8,152.8 386.9,151.6 387.0,150.8 387.1,150.4 387.2,150.4 387.3,150.9 387.4,151.7 387.5,153.0 387.6,155.0 387.7,157.9 387.8,162.6 387.9,166.0 388.0,166.0 388.1,163.7 388.2,158.7 388.3,155.7 388.4,153.7 388.5,152.4 388.6,151.6 388.7,151.2 388.8,151.2 388.9,151.6 389.0,152.4 389.1,153.7 389.2,155.6 389.3,158.4 389.4,163.0 389.5,166.0 389.6,166.0 389.7,164.9 389.8,159.7 389.9,156.5 390.0,154.5 390.1,153.1 390.2,152.3 390.3,151.9 390.4,151.9 390.5,152.2 390.6,153.0 390.7,154.3 390.8,156.2 390.9,158.9 391.0,163.3 391.1,166.0 391.2,166.0 391.3,166.0 391.4,160.6 391.5,157.4 391.6,155.3 391.7,153.9 391.8,153.1 391.9,152.6 392.0,152.6 392.1,152.9 392.2,153.7 392.3,154.9 392.4,156.7 392.5,159.4 392.6,163.7 392.7,166.0 392.8,166.0 392.9,166.0 393.0,161.6 393.1,158.3 393.2,156.1 393.3,154.7 393.4,153.8 393.5,153.3 393.6,153.2 393.7,153.6 393.8,154.3 393.9,155.5 394.0,157.3 394.1,159.9 394.2,164.0 394.3,166.0 394.4,166.0 394.5,166.0 394.6,162.5 394.7,159.1 394.8,156.9 394.9,155.4 395.0,154.5 395.1,154.0 395.2,153.9 395.3,154.2 395.4,154.9 395.5,156.1 395.6,157.8 395.7,160.4 395.8,164.3 395.9,166.0 396.0,166.0 396.1,166.0 396.2,163.4 396.3,159.9 396.4,157.7 396.5,156.2 396.6,155.2 396.7,154.7 396.8,154.6 396.9,154.8 397.0,155.5 397.1,156.6 397.2,158.3 397.3,160.8 397.4,164.7 397.5,166.0 397.6,166.0 397.7,166.0 397.8,164.4 397.9,160.8 398.0,158.4 398.1,156.9 398.2,155.9 398.3,155.4 398.4,155.2 398.5,155.4 398.6,156.1 398.7,157.2 398.8,158.8 398.9,161.3 399.0,165.0 399.1,166.0 399.2,166.0 399.3,166.0 399.4,165.3 399.5,161.6 399.6,159.2 399.7,157.6 399.8,156.6 399.9,156.0 400.0,155.8 400.1,156.1 400.2,156.7 400.3,157.7 400.4,159.3 400.5,161.7 400.6,165.4 400.7,166.0 400.8,166.0 400.9,166.0 401.0,166.0 401.1,162.4 401.2,159.9 401.3,158.3 401.4,157.3 401.5,156.7 401.6,156.5 401.7,156.7 401.8,157.2 401.9,158.3 402.0,159.8 402.1,162.2 402.2,165.7 402.3,166.0 402.4,166.0 402.5,166.0 402.6,166.0 402.7,163.2 402.8,160.7 402.9,159.0 403.0,157.9 403.1,157.3 403.2,157.1 403.3,157.2 403.4,157.8 403.5,158.8 403.6,160.3 403.7,162.6 403.8,166.0 403.9,166.0 404.0,166.0 404.1,166.0 404.2,166.0 404.3,164.0 404.4,161.4 404.5,159.7 404.6,158.6 404.7,157.9 404.8,157.7 404.9,157.8 405.0,158.3 405.1,159.3 405.2,160.8 405.3,163.0 405.4,166.0 405.5,166.0 405.6,166.0 405.7,166.0 405.8,166.0 405.9,164.8 406.0,162.1 406.1,160.4 406.2,159.2 406.3,158.5 406.4,158.3 406.5,158.4 406.6,158.9 406.7,159.8 406.8,161.3 406.9,163.4 407.0,166.0 407.1,166.0 407.2,166.0 407.3,166.0 407.4,166.0 407.5,165.6 407.6,162.9 407.7,161.0 407.8,159.9 407.9,159.1 408.0,158.8 408.1,158.9 408.2,159.4 408.3,160.3 408.4,161.7 408.5,163.9 408.6,166.0 408.7,166.0 408.8,166.0 408.9,166.0 409.0,166.0 409.1,166.0 409.2,163.6 409.3,161.7 409.4,160.5 409.5,159.7 409.6,159.4 409.7,159.5 409.8,159.9 409.9,160.8 410.0,162.2 410.1,164.3 410.2,166.0 410.3,166.0 410.4,166.0 410.5,166.0 410.6,166.0 410.7,166.0 410.8,164.3 410.9,162.4 411.0,161.1 411.1,160.3 411.2,160.0 411.3,160.0 411.4,160.5 411.5,161.3 411.6,162.7 411.7,164.7 411.8,166.0 411.9,166.0 412.0,166.0 412.1,166.0 412.2,166.0 412.3,166.0 412.4,165.0 412.5,163.0 412.6,161.7 412.7,160.9 412.8,160.5 412.9,160.6 413.0,161.0 413.1,161.8 413.2,163.1 413.3,165.1 413.4,166.0 413.5,166.0 413.6,166.0 413.7,166.0 413.8,166.0 413.9,166.0 414.0,165.7 414.1,163.7 414.2,162.3 414.3,161.5 414.4,161.1 414.5,161.1 414.6,161.5 414.7,162.3 414.8,163.5 414.9,165.4 415.0,166.0 415.1,166.0 415.2,166.0 415.3,166.0 415.4,166.0 415.5,166.0 415.6,166.0 415.7,164.3 415.8,162.9 415.9,162.1 416.0,161.6 416.1,161.6 416.2,162.0 416.3,162.7 416.4,164.0 416.5,165.8 416.6,166.0 416.7,166.0 416.8,166.0 416.9,166.0 417.0,166.0 417.1,166.0 417.2,166.0 417.3,164.9 417.4,163.5 417.5,162.6 417.6,162.2 417.7,162.1 417.8,162.5 417.9,163.2 418.0,164.4 418.1,166.0 418.2,166.0 418.3,166.0 418.4,166.0 418.5,166.0 418.6,166.0 418.7,166.0 418.8,166.0 418.9,165.6 419.0,164.1 419.1,163.2 419.2,162.7 419.3,162.6 419.4,162.9 419.5,163.7 419.6,164.8 419.7,166.0 419.8,166.0 419.9,166.0 420.0,166.0 420.1,166.0 420.2,166.0 420.3,166.0 420.4,166.0 420.5,166.0 420.6,164.7 420.7,163.7 420.8,163.2 420.9,163.1 421.0,163.4 421.1,164.1 421.2,165.2 421.3,166.0 421.4,166.0 421.5,166.0 421.6,166.0 421.7,166.0 421.8,166.0 421.9,166.0 422.0,166.0 422.1,166.0 422.2,165.3 422.3,164.3 422.4,163.8 422.5,163.6 422.6,163.9 422.7,164.5 422.8,165.7 422.9,166.0 423.0,166.0 423.1,166.0 423.2,166.0 423.3,166.0 423.4,166.0 423.5,166.0 423.6,166.0 423.7,166.0 423.8,165.8 423.9,164.8 424.0,164.3 424.1,164.1 424.2,164.4 424.3,165.0 424.4,166.0 424.6,166.0 424.7,166.0 424.8,166.0 424.9,166.0 425.0,166.0 425.1,166.0 425.2,166.0 425.3,166.0 425.4,166.0 425.5,166.0 425.6,165.4 425.7,164.8 425.8,164.6 425.9,164.8 426.0,165.4 426.1,166.0 426.2,166.0 426.3,166.0 426.4,166.0 426.5,166.0 426.6,166.0 426.7,166.0 426.8,166.0 426.9,166.0 427.0,166.0 427.1,166.0 427.2,165.9 427.3,165.3 427.4,165.1 427.5,165.3 427.6,165.9 427.7,166.0 427.8,166.0 427.9,166.0 428.0,166.0 428.1,166.0 428.2,166.0 428.3,166.0 428.4,166.0 428.5,166.0 428.6,166.0 428.7,166.0 428.8,166.0 428.9,165.8 429.0,165.6 429.1,165.7 429.2,166.0 429.3,166.0 429.4,166.0 429.5,166.0 429.6,166.0 429.7,166.0 429.8,166.0 429.9,166.0 430.0,166.0 430.1,166.0 430.2,166.0 430.3,166.0 430.4,166.0 430.5,166.0 430.6,166.0 430.7,166.0 430.8,166.0 430.9,166.0 431.0,166.0 431.1,166.0 431.2,166.0 431.3,166.0 431.4,166.0 431.5,166.0 431.6,166.0 431.7,166.0 431.8,166.0 431.9,166.0 432.0,166.0 432.1,166.0 432.2,166.0 432.3,166.0 432.4,166.0 432.5,166.0 432.6,166.0 432.7,166.0 432.8,166.0 432.9,166.0 433.0,166.0 433.1,166.0 433.2,166.0 433.3,166.0 433.4,166.0 433.5,166.0 433.6,166.0 433.7,166.0 433.8,166.0 433.9,166.0 434.0,166.0 434.1,166.0 434.2,166.0 434.3,166.0 434.4,166.0 434.5,166.0 434.6,166.0 434.7,166.0 434.8,166.0 434.9,166.0 435.0,166.0 435.1,166.0 435.2,166.0 435.3,166.0 435.4,166.0 435.5,166.0 435.6,166.0 435.7,166.0 435.8,166.0 435.9,166.0 436.0,166.0 436.1,166.0 436.2,166.0 436.3,166.0 436.4,166.0 436.5,166.0 436.6,166.0 436.7,166.0 436.8,166.0 436.9,166.0 437.0,166.0 437.1,166.0 437.2,166.0 437.3,166.0 437.4,166.0 437.5,166.0 437.6,166.0 437.7,166.0 437.8,166.0 437.9,166.0 438.0,166.0 438.1,166.0 438.2,166.0 438.3,166.0 438.4,166.0 438.5,166.0 438.6,166.0 438.7,166.0 438.8,166.0 438.9,166.0 439.0,166.0 439.1,166.0 439.2,166.0 439.3,166.0 439.4,166.0 439.5,166.0 439.6,166.0 439.7,166.0 439.8,166.0 439.9,166.0 440.0,166.0 440.1,166.0 440.2,166.0 440.3,166.0 440.4,166.0 440.5,166.0 440.6,166.0 440.7,166.0 440.8,166.0 440.9,166.0 441.0,166.0 441.1,166.0 441.2,166.0 441.3,166.0 441.4,166.0 441.5,166.0 441.6,166.0 441.7,166.0 441.8,166.0 441.9,166.0 442.0,166.0 442.1,166.0 442.2,166.0 442.3,166.0 442.4,166.0 442.5,166.0 442.6,166.0 442.7,166.0 442.8,166.0 442.9,166.0 443.0,166.0 443.1,166.0 443.2,166.0 443.3,166.0 443.4,166.0 443.5,166.0 443.6,166.0 443.7,166.0 443.8,166.0 443.9,166.0 444.0,166.0 444.1,166.0 444.2,166.0 444.3,166.0 444.4,166.0 444.5,166.0 444.6,166.0 444.7,166.0 444.8,166.0 444.9,166.0 445.0,166.0 445.1,166.0 445.2,166.0 445.3,166.0 445.4,166.0 445.5,166.0 445.6,166.0 445.7,166.0 445.8,166.0 445.9,166.0 446.0,166.0 446.1,166.0 446.2,166.0 446.3,166.0 446.4,166.0 446.5,166.0 446.6,166.0 446.7,166.0 446.8,166.0 446.9,166.0 447.0,166.0 447.1,166.0 447.2,166.0 447.3,166.0 447.4,166.0 447.5,166.0 447.6,166.0 447.7,166.0 447.8,166.0 447.9,166.0 448.0,166.0 448.1,166.0 448.2,166.0 448.3,166.0 448.4,166.0 448.5,166.0 448.6,166.0 448.7,166.0 448.8,166.0 448.9,166.0 449.0,166.0 449.1,166.0 449.2,166.0 449.3,166.0 449.4,166.0 449.5,166.0 449.6,166.0 449.7,166.0 449.8,166.0 449.9,166.0 450.0,166.0 450.1,166.0 450.2,166.0 450.3,166.0 450.4,166.0 450.5,166.0 450.6,166.0 450.7,166.0 450.8,166.0 450.9,166.0 451.0,166.0 451.1,166.0 451.2,166.0 451.3,166.0 451.4,166.0 451.5,166.0 451.6,166.0 451.7,166.0 451.8,166.0 451.9,166.0 452.0,166.0 452.1,166.0 452.2,166.0 452.3,166.0 452.4,166.0 452.5,166.0 452.6,166.0 452.7,166.0 452.8,166.0 452.9,166.0 453.0,166.0 453.1,166.0 453.2,166.0 453.3,166.0 453.4,166.0 453.5,166.0 453.6,166.0 453.7,166.0 453.8,166.0 453.9,166.0 454.0,166.0 454.1,166.0 454.2,166.0 454.3,166.0 454.4,166.0 454.5,166.0 454.6,166.0 454.7,166.0 454.8,166.0 454.9,166.0 455.0,166.0 455.1,166.0 455.2,166.0 455.3,166.0 455.4,166.0 455.5,166.0 455.6,166.0 455.7,166.0 455.8,166.0 455.9,166.0 456.0,166.0 456.1,166.0 456.2,166.0 456.3,166.0 456.4,166.0 456.5,166.0 456.6,166.0 456.7,166.0 456.8,166.0 456.9,166.0 457.0,166.0 457.1,166.0 457.2,166.0 457.3,166.0 457.4,166.0 457.5,166.0 457.6,166.0 457.7,166.0 457.8,166.0 457.9,166.0 458.0,166.0 458.1,166.0 458.2,166.0 458.3,166.0 458.4,166.0 458.5,166.0 458.6,166.0 458.7,166.0 458.8,166.0 458.9,166.0 459.0,166.0 459.1,166.0 459.2,166.0 459.3,166.0 459.4,166.0 459.5,166.0 459.6,166.0 459.7,166.0 459.8,166.0 459.9,166.0 460.0,166.0 460.1,166.0 460.2,166.0 460.3,166.0 460.4,166.0 460.5,166.0 460.6,166.0 460.7,166.0 460.8,166.0 460.9,166.0 461.0,166.0 461.1,166.0 461.2,166.0 461.3,166.0 461.4,166.0 461.5,166.0 461.6,166.0 461.7,166.0 461.8,166.0 461.9,166.0 462.0,166.0 462.1,166.0 462.2,166.0 462.3,166.0 462.4,166.0 462.5,166.0 462.6,166.0 462.7,166.0 462.8,166.0 462.9,166.0 463.0,166.0 463.1,166.0 463.2,166.0 463.3,166.0 463.4,166.0 463.5,166.0 463.6,166.0 463.7,166.0 463.8,166.0 463.9,166.0 464.0,166.0 464.1,166.0 464.2,166.0 464.3,166.0 464.4,166.0 464.5,166.0 464.6,166.0 464.7,166.0 464.8,166.0 464.9,166.0 465.0,166.0 465.1,166.0 465.2,166.0 465.3,166.0 465.4,166.0 465.5,166.0 465.6,166.0 465.7,166.0 465.8,166.0 465.9,166.0 466.0,166.0 466.1,166.0 466.2,166.0 466.3,166.0 466.4,166.0 466.5,166.0 466.6,166.0 466.7,166.0 466.8,166.0 466.9,166.0 467.0,166.0 467.1,166.0 467.2,166.0 467.3,166.0 467.4,166.0 467.5,166.0 467.6,166.0 467.7,166.0 467.8,166.0 467.9,166.0 468.0,166.0 468.1,166.0 468.2,166.0 468.3,166.0 468.4,166.0 468.5,166.0 468.6,166.0 468.7,166.0 468.8,166.0 468.9,166.0 469.0,166.0 469.1,166.0 469.2,166.0 469.3,166.0 469.4,166.0 469.5,166.0 469.6,166.0 469.7,166.0 469.8,166.0 469.9,166.0 470.0,166.0 470.1,166.0 470.2,166.0 470.3,166.0 470.4,166.0 470.5,166.0 470.6,166.0 470.7,166.0 470.8,166.0 470.9,166.0 471.0,166.0 471.1,166.0 471.2,166.0 471.3,166.0 471.4,166.0 471.5,166.0 471.6,166.0 471.7,166.0 471.8,166.0 471.9,166.0 472.0,166.0 472.1,166.0 472.2,166.0 472.3,166.0 472.4,166.0 472.5,166.0 472.6,166.0 472.7,166.0 472.8,166.0 472.9,166.0 473.0,166.0 473.1,166.0 473.2,166.0 473.3,166.0 473.4,166.0 473.5,166.0 473.6,166.0 473.7,166.0 473.8,166.0 473.9,166.0 474.0,166.0 474.1,166.0 474.2,166.0 474.3,166.0 474.4,166.0 474.5,166.0 474.6,166.0 474.7,166.0 474.8,166.0 474.9,166.0 475.0,166.0 475.1,166.0 475.2,166.0 475.3,166.0 475.4,166.0 475.5,166.0 475.6,166.0 475.7,166.0 475.8,166.0 475.9,166.0 476.0,166.0 476.1,166.0 476.2,166.0 476.3,166.0 476.4,166.0 476.5,166.0 476.6,166.0 476.7,166.0 476.8,166.0 476.9,166.0 477.0,166.0 477.1,166.0 477.2,166.0 477.3,166.0 477.4,166.0 477.5,166.0 477.6,166.0 477.7,166.0 477.8,166.0 477.9,166.0 478.0,166.0 478.1,166.0 478.2,166.0 478.3,166.0 478.4,166.0 478.5,166.0 478.6,166.0 478.7,166.0 478.8,166.0 478.9,166.0 479.0,166.0 479.1,166.0 479.2,166.0 479.3,166.0 479.4,166.0 479.5,166.0 479.6,166.0 479.7,166.0 479.8,166.0 479.9,166.0 480.0,166.0 480.1,166.0 480.2,166.0 480.3,166.0 480.4,166.0 480.5,166.0 480.6,166.0 480.7,166.0 480.8,166.0 480.9,166.0 481.0,166.0 481.1,166.0 481.2,166.0 481.3,166.0 481.4,166.0 481.5,166.0 481.6,166.0 481.7,166.0 481.8,166.0 481.9,166.0 482.0,166.0 482.1,166.0 482.2,166.0 482.3,166.0 482.4,166.0 482.5,166.0 482.6,166.0 482.7,166.0 482.8,166.0 482.9,166.0 483.0,166.0 483.1,166.0 483.2,166.0 483.3,166.0 483.4,166.0 483.5,166.0 483.6,166.0 483.7,166.0 483.8,166.0 483.9,166.0 484.0,166.0 484.1,166.0 484.2,166.0 484.3,166.0 484.4,166.0 484.5,166.0 484.6,166.0 484.7,166.0 484.8,166.0 484.9,166.0 485.0,166.0 485.1,166.0 485.2,166.0 485.3,166.0 485.4,166.0 485.5,166.0 485.6,166.0 485.7,166.0 485.8,166.0 485.9,166.0 486.0,166.0 486.1,166.0 486.2,166.0 486.3,166.0 486.4,166.0 486.5,166.0 486.6,166.0 486.7,166.0 486.8,166.0 486.9,166.0 487.0,166.0 487.1,166.0 487.2,166.0 487.3,166.0 487.4,166.0 487.5,166.0 487.6,166.0 487.7,166.0 487.8,166.0 487.9,166.0 488.0,166.0 488.1,166.0 488.2,166.0 488.3,166.0 488.4,166.0 488.5,166.0 488.6,166.0 488.7,166.0 488.8,166.0 488.9,166.0 489.0,166.0 489.1,166.0 489.2,166.0 489.3,166.0 489.4,166.0 489.5,166.0 489.6,166.0 489.7,166.0 489.8,166.0 489.9,166.0 490.0,166.0 490.1,166.0 490.2,166.0 490.3,166.0 490.4,166.0 490.5,166.0 490.6,166.0 490.7,166.0 490.8,166.0 490.9,166.0 491.0,166.0 491.1,166.0 491.2,166.0 491.3,166.0 491.4,166.0 491.5,166.0 491.6,166.0 491.7,166.0 491.8,166.0 491.9,166.0 492.0,166.0 492.1,166.0 492.2,166.0 492.3,166.0 492.4,166.0 492.5,166.0 492.6,166.0 492.7,166.0 492.9,166.0 493.0,166.0 493.1,166.0 493.2,166.0 493.3,166.0 493.4,166.0 493.5,166.0 493.6,166.0 493.7,166.0 493.8,166.0 493.9,166.0 494.0,166.0 494.1,166.0 494.2,166.0 494.3,166.0 494.4,166.0 494.5,166.0 494.6,166.0 494.7,166.0 494.8,166.0 494.9,166.0 495.0,166.0 495.1,166.0 495.2,166.0 495.3,166.0 495.4,166.0 495.5,166.0 495.6,166.0 495.7,166.0 495.8,166.0 495.9,166.0 496.0,166.0 496.1,166.0 496.2,166.0 496.3,166.0 496.4,166.0 496.5,166.0 496.6,166.0 496.7,166.0 496.8,166.0 496.9,166.0 497.0,166.0 497.1,166.0 497.2,166.0 497.3,166.0 497.4,166.0 497.5,166.0 497.6,166.0 497.7,166.0 497.8,166.0 497.9,166.0 498.0,166.0 498.1,166.0 498.2,166.0 498.3,166.0 498.4,166.0 498.5,166.0 498.6,166.0 498.7,166.0 498.8,166.0 498.9,166.0 499.0,166.0 499.1,166.0 499.2,166.0 499.3,166.0 499.4,166.0 499.5,166.0 499.6,166.0 499.7,166.0 499.8,166.0 499.9,166.0 500.0,166.0 500.1,166.0 500.2,166.0 500.3,166.0 500.4,166.0 500.5,166.0 500.6,166.0 500.7,166.0 500.8,166.0 500.9,166.0 501.0,166.0 501.1,166.0 501.2,166.0 501.3,166.0 501.4,166.0 501.5,166.0 501.6,166.0 501.7,166.0 501.8,166.0 501.9,166.0 502.0,166.0 502.1,166.0 502.2,166.0 502.3,166.0 502.4,166.0 502.5,166.0 502.6,166.0 502.7,166.0 502.8,166.0 502.9,166.0 503.0,166.0 503.1,166.0 503.2,166.0 503.3,166.0 503.4,166.0 503.5,166.0 503.6,166.0 503.7,166.0 503.8,166.0 503.9,166.0 504.0,166.0 504.1,166.0 504.2,166.0 504.3,166.0 504.4,166.0 504.5,166.0 504.6,166.0 504.7,166.0 504.8,166.0 504.9,166.0 505.0,166.0 505.1,166.0 505.2,166.0 505.3,166.0 505.4,166.0 505.5,166.0 505.6,166.0 505.7,166.0 505.8,166.0 505.9,166.0 506.0,166.0 506.1,166.0 506.2,166.0 506.3,166.0 506.4,166.0 506.5,166.0 506.6,166.0 506.7,166.0 506.8,166.0 506.9,166.0 507.0,166.0 507.1,166.0 507.2,166.0 507.3,166.0 507.4,166.0 507.5,166.0 507.6,166.0 507.7,166.0 507.8,166.0 507.9,166.0 508.0,166.0 508.1,166.0 508.2,166.0 508.3,166.0 508.4,166.0 508.5,166.0 508.6,166.0 508.7,166.0 508.8,166.0 508.9,166.0 509.0,166.0 509.1,166.0 509.2,166.0 509.3,166.0 509.4,166.0 509.5,166.0 509.6,166.0 509.7,166.0 509.8,166.0 509.9,166.0 510.0,166.0 510.1,166.0 510.2,166.0 510.3,166.0 510.4,166.0 510.5,166.0 510.6,166.0 510.7,166.0 510.8,166.0 510.9,166.0 511.0,166.0 511.1,166.0 511.2,166.0 511.3,166.0 511.4,166.0 511.5,166.0 511.6,166.0 511.7,166.0 511.8,166.0 511.9,166.0 512.0,166.0 512.1,166.0 512.2,166.0 512.3,166.0 512.4,166.0 512.5,166.0 512.6,166.0 512.7,166.0 512.8,166.0 512.9,166.0 513.0,166.0 513.1,166.0 513.2,166.0 513.3,166.0 513.4,166.0 513.5,166.0 513.6,166.0 513.7,166.0 513.8,166.0 513.9,166.0 514.0,166.0 514.1,166.0 514.2,166.0 514.3,166.0 514.4,166.0 514.5,166.0 514.6,166.0 514.7,166.0 514.8,166.0 514.9,166.0 515.0,166.0 515.1,166.0 515.2,166.0 515.3,166.0 515.4,166.0 515.5,166.0 515.6,166.0 515.7,166.0 515.8,166.0 515.9,166.0 516.0,166.0 516.1,166.0 516.2,166.0 516.3,166.0 516.4,166.0 516.5,166.0 516.6,166.0 516.7,166.0 516.8,166.0 516.9,166.0 517.0,166.0 517.1,166.0 517.2,166.0 517.3,166.0 517.4,166.0 517.5,166.0 517.6,166.0 517.7,166.0 517.8,166.0 517.9,166.0 518.0,166.0 518.1,166.0 518.2,166.0 518.3,166.0 518.4,166.0 518.5,166.0 518.6,166.0 518.7,166.0 518.8,166.0 518.9,166.0 519.0,166.0 519.1,166.0 519.2,166.0 519.3,166.0 519.4,166.0 519.5,166.0 519.6,166.0 519.7,166.0 519.8,166.0 519.9,166.0 520.0,166.0 520.1,166.0 520.2,166.0 520.3,166.0 520.4,166.0 520.5,166.0 520.6,166.0 520.7,166.0 520.8,166.0 520.9,166.0 521.0,166.0 521.1,166.0 521.2,166.0 521.3,166.0 521.4,166.0 521.5,166.0 521.6,166.0 521.7,166.0 521.8,166.0 521.9,166.0 522.0,166.0 522.1,166.0 522.2,166.0 522.3,166.0 522.4,166.0 522.5,166.0 522.6,166.0 522.7,166.0 522.8,166.0 522.9,166.0 523.0,166.0 523.1,166.0 523.2,166.0 523.3,166.0 523.4,166.0 523.5,166.0 523.6,166.0 523.7,166.0 523.8,166.0 523.9,166.0 524.0,166.0 524.1,166.0 524.2,166.0 524.3,166.0 524.4,166.0 524.5,166.0 524.6,166.0 524.7,166.0 524.8,166.0 524.9,166.0 525.0,166.0 525.1,166.0 525.2,166.0 525.3,166.0 525.4,166.0 525.5,166.0 525.6,166.0 525.7,166.0 525.8,166.0 525.9,166.0 526.0,166.0 526.1,166.0 526.2,166.0 526.3,166.0 526.4,166.0 526.5,166.0 526.6,166.0 526.7,166.0 526.8,166.0 526.9,166.0 527.0,166.0" fill="none" stroke="#4a90d9" stroke-width="1.2" stroke-linejoin="round"/>
  <text x="154.5" y="190" text-anchor="middle" font-size="8" fill="#6b7280">n / N</text>
  <text x="424.5" y="190" text-anchor="middle" font-size="8" fill="#6b7280">Normalized frequency (× Fₛ)</text>
</svg>
