<svg xmlns="http://www.w3.org/2000/svg" viewBox="0 0 560 210" width="560" height="210" style="font-family:system-ui,-apple-system,sans-serif">
  <rect width="560" height="210" fill="#fafafa" rx="6"/>
  <text x="280" y="18" text-anchor="middle" font-size="12" font-weight="600" fill="#374151">rectangular</text>
  <line x1="52" y1="166.0" x2="257" y2="166.0" stroke="#e5e7eb" stroke-width="0.5"/>
  <text x="48" y="169.0" text-anchor="end" font-size="7.5" fill="#6b7280">0</text>
  <line x1="52" y1="97.0" x2="257" y2="97.0" stroke="#e5e7eb" stroke-width="0.5"/>
  <text x="48" y="100.0" text-anchor="end" font-size="7.5" fill="#6b7280">0.5</text>
  <line x1="52" y1="28.0" x2="257" y2="28.0" stroke="#e5e7eb" stroke-width="0.5"/>
  <text x="48" y="31.0" text-anchor="end" font-size="7.5" fill="#6b7280">1</text>
  <line x1="52.0" y1="28" x2="52.0" y2="166" stroke="#e5e7eb" stroke-width="0.5"/>
  <text x="52.0" y="178" text-anchor="middle" font-size="7.5" fill="#6b7280">0</text>
  <line x1="154.5" y1="28" x2="154.5" y2="166" stroke="#e5e7eb" stroke-width="0.5"/>
  <text x="154.5" y="178" text-anchor="middle" font-size="7.5" fill="#6b7280">0.5</text>
  <line x1="257.0" y1="28" x2="257.0" y2="166" stroke="#e5e7eb" stroke-width="0.5"/>
  <text x="257.0" y="178" text-anchor="middle" font-size="7.5" fill="#6b7280">1</text>
  <line x1="52" y1="28" x2="52" y2="166" stroke="#d1d5db" stroke-width="0.75"/>
  <line x1="52" y1="166" x2="257" y2="166" stroke="#d1d5db" stroke-width="0.75"/>
  <path d="M52.0,166.0 52.0,28.0 52.8,28.0 53.6,28.0 54.4,28.0 55.2,28.0 56.0,28.0 56.8,28.0 57.6,28.0 58.4,28.0 59.2,28.0 60.0,28.0 60.8,28.0 61.6,28.0 62.5,28.0 63.3,28.0 64.1,28.0 64.9,28.0 65.7,28.0 66.5,28.0 67.3,28.0 68.1,28.0 68.9,28.0 69.7,28.0 70.5,28.0 71.3,28.0 72.1,28.0 72.9,28.0 73.7,28.0 74.5,28.0 75.3,28.0 76.1,28.0 76.9,28.0 77.7,28.0 78.5,28.0 79.3,28.0 80.1,28.0 80.9,28.0 81.7,28.0 82.5,28.0 83.4,28.0 84.2,28.0 85.0,28.0 85.8,28.0 86.6,28.0 87.4,28.0 88.2,28.0 89.0,28.0 89.8,28.0 90.6,28.0 91.4,28.0 92.2,28.0 93.0,28.0 93.8,28.0 94.6,28.0 95.4,28.0 96.2,28.0 97.0,28.0 97.8,28.0 98.6,28.0 99.4,28.0 100.2,28.0 101.0,28.0 101.8,28.0 102.6,28.0 103.5,28.0 104.3,28.0 105.1,28.0 105.9,28.0 106.7,28.0 107.5,28.0 108.3,28.0 109.1,28.0 109.9,28.0 110.7,28.0 111.5,28.0 112.3,28.0 113.1,28.0 113.9,28.0 114.7,28.0 115.5,28.0 116.3,28.0 117.1,28.0 117.9,28.0 118.7,28.0 119.5,28.0 120.3,28.0 121.1,28.0 121.9,28.0 122.7,28.0 123.5,28.0 124.4,28.0 125.2,28.0 126.0,28.0 126.8,28.0 127.6,28.0 128.4,28.0 129.2,28.0 130.0,28.0 130.8,28.0 131.6,28.0 132.4,28.0 133.2,28.0 134.0,28.0 134.8,28.0 135.6,28.0 136.4,28.0 137.2,28.0 138.0,28.0 138.8,28.0 139.6,28.0 140.4,28.0 141.2,28.0 142.0,28.0 142.8,28.0 143.6,28.0 144.5,28.0 145.3,28.0 146.1,28.0 146.9,28.0 147.7,28.0 148.5,28.0 149.3,28.0 150.1,28.0 150.9,28.0 151.7,28.0 152.5,28.0 153.3,28.0 154.1,28.0 154.9,28.0 155.7,28.0 156.5,28.0 157.3,28.0 158.1,28.0 158.9,28.0 159.7,28.0 160.5,28.0 161.3,28.0 162.1,28.0 162.9,28.0 163.7,28.0 164.5,28.0 165.4,28.0 166.2,28.0 167.0,28.0 167.8,28.0 168.6,28.0 169.4,28.0 170.2,28.0 171.0,28.0 171.8,28.0 172.6,28.0 173.4,28.0 174.2,28.0 175.0,28.0 175.8,28.0 176.6,28.0 177.4,28.0 178.2,28.0 179.0,28.0 179.8,28.0 180.6,28.0 181.4,28.0 182.2,28.0 183.0,28.0 183.8,28.0 184.6,28.0 185.5,28.0 186.3,28.0 187.1,28.0 187.9,28.0 188.7,28.0 189.5,28.0 190.3,28.0 191.1,28.0 191.9,28.0 192.7,28.0 193.5,28.0 194.3,28.0 195.1,28.0 195.9,28.0 196.7,28.0 197.5,28.0 198.3,28.0 199.1,28.0 199.9,28.0 200.7,28.0 201.5,28.0 202.3,28.0 203.1,28.0 203.9,28.0 204.7,28.0 205.5,28.0 206.4,28.0 207.2,28.0 208.0,28.0 208.8,28.0 209.6,28.0 210.4,28.0 211.2,28.0 212.0,28.0 212.8,28.0 213.6,28.0 214.4,28.0 215.2,28.0 216.0,28.0 216.8,28.0 217.6,28.0 218.4,28.0 219.2,28.0 220.0,28.0 220.8,28.0 221.6,28.0 222.4,28.0 223.2,28.0 224.0,28.0 224.8,28.0 225.6,28.0 226.5,28.0 227.3,28.0 228.1,28.0 228.9,28.0 229.7,28.0 230.5,28.0 231.3,28.0 232.1,28.0 232.9,28.0 233.7,28.0 234.5,28.0 235.3,28.0 236.1,28.0 236.9,28.0 237.7,28.0 238.5,28.0 239.3,28.0 240.1,28.0 240.9,28.0 241.7,28.0 242.5,28.0 243.3,28.0 244.1,28.0 244.9,28.0 245.7,28.0 246.5,28.0 247.4,28.0 248.2,28.0 249.0,28.0 249.8,28.0 250.6,28.0 251.4,28.0 252.2,28.0 253.0,28.0 253.8,28.0 254.6,28.0 255.4,28.0 256.2,28.0 257.0,28.0 L257.0,166.0 Z" fill="#4a90d9" fill-opacity="0.06"/>
  <polyline points="52.0,28.0 52.8,28.0 53.6,28.0 54.4,28.0 55.2,28.0 56.0,28.0 56.8,28.0 57.6,28.0 58.4,28.0 59.2,28.0 60.0,28.0 60.8,28.0 61.6,28.0 62.5,28.0 63.3,28.0 64.1,28.0 64.9,28.0 65.7,28.0 66.5,28.0 67.3,28.0 68.1,28.0 68.9,28.0 69.7,28.0 70.5,28.0 71.3,28.0 72.1,28.0 72.9,28.0 73.7,28.0 74.5,28.0 75.3,28.0 76.1,28.0 76.9,28.0 77.7,28.0 78.5,28.0 79.3,28.0 80.1,28.0 80.9,28.0 81.7,28.0 82.5,28.0 83.4,28.0 84.2,28.0 85.0,28.0 85.8,28.0 86.6,28.0 87.4,28.0 88.2,28.0 89.0,28.0 89.8,28.0 90.6,28.0 91.4,28.0 92.2,28.0 93.0,28.0 93.8,28.0 94.6,28.0 95.4,28.0 96.2,28.0 97.0,28.0 97.8,28.0 98.6,28.0 99.4,28.0 100.2,28.0 101.0,28.0 101.8,28.0 102.6,28.0 103.5,28.0 104.3,28.0 105.1,28.0 105.9,28.0 106.7,28.0 107.5,28.0 108.3,28.0 109.1,28.0 109.9,28.0 110.7,28.0 111.5,28.0 112.3,28.0 113.1,28.0 113.9,28.0 114.7,28.0 115.5,28.0 116.3,28.0 117.1,28.0 117.9,28.0 118.7,28.0 119.5,28.0 120.3,28.0 121.1,28.0 121.9,28.0 122.7,28.0 123.5,28.0 124.4,28.0 125.2,28.0 126.0,28.0 126.8,28.0 127.6,28.0 128.4,28.0 129.2,28.0 130.0,28.0 130.8,28.0 131.6,28.0 132.4,28.0 133.2,28.0 134.0,28.0 134.8,28.0 135.6,28.0 136.4,28.0 137.2,28.0 138.0,28.0 138.8,28.0 139.6,28.0 140.4,28.0 141.2,28.0 142.0,28.0 142.8,28.0 143.6,28.0 144.5,28.0 145.3,28.0 146.1,28.0 146.9,28.0 147.7,28.0 148.5,28.0 149.3,28.0 150.1,28.0 150.9,28.0 151.7,28.0 152.5,28.0 153.3,28.0 154.1,28.0 154.9,28.0 155.7,28.0 156.5,28.0 157.3,28.0 158.1,28.0 158.9,28.0 159.7,28.0 160.5,28.0 161.3,28.0 162.1,28.0 162.9,28.0 163.7,28.0 164.5,28.0 165.4,28.0 166.2,28.0 167.0,28.0 167.8,28.0 168.6,28.0 169.4,28.0 170.2,28.0 171.0,28.0 171.8,28.0 172.6,28.0 173.4,28.0 174.2,28.0 175.0,28.0 175.8,28.0 176.6,28.0 177.4,28.0 178.2,28.0 179.0,28.0 179.8,28.0 180.6,28.0 181.4,28.0 182.2,28.0 183.0,28.0 183.8,28.0 184.6,28.0 185.5,28.0 186.3,28.0 187.1,28.0 187.9,28.0 188.7,28.0 189.5,28.0 190.3,28.0 191.1,28.0 191.9,28.0 192.7,28.0 193.5,28.0 194.3,28.0 195.1,28.0 195.9,28.0 196.7,28.0 197.5,28.0 198.3,28.0 199.1,28.0 199.9,28.0 200.7,28.0 201.5,28.0 202.3,28.0 203.1,28.0 203.9,28.0 204.7,28.0 205.5,28.0 206.4,28.0 207.2,28.0 208.0,28.0 208.8,28.0 209.6,28.0 210.4,28.0 211.2,28.0 212.0,28.0 212.8,28.0 213.6,28.0 214.4,28.0 215.2,28.0 216.0,28.0 216.8,28.0 217.6,28.0 218.4,28.0 219.2,28.0 220.0,28.0 220.8,28.0 221.6,28.0 222.4,28.0 223.2,28.0 224.0,28.0 224.8,28.0 225.6,28.0 226.5,28.0 227.3,28.0 228.1,28.0 228.9,28.0 229.7,28.0 230.5,28.0 231.3,28.0 232.1,28.0 232.9,28.0 233.7,28.0 234.5,28.0 235.3,28.0 236.1,28.0 236.9,28.0 237.7,28.0 238.5,28.0 239.3,28.0 240.1,28.0 240.9,28.0 241.7,28.0 242.5,28.0 243.3,28.0 244.1,28.0 244.9,28.0 245.7,28.0 246.5,28.0 247.4,28.0 248.2,28.0 249.0,28.0 249.8,28.0 250.6,28.0 251.4,28.0 252.2,28.0 253.0,28.0 253.8,28.0 254.6,28.0 255.4,28.0 256.2,28.0 257.0,28.0" fill="none" stroke="#4a90d9" stroke-width="1.2" stroke-linejoin="round"/>
  <line x1="322" y1="28.0" x2="527" y2="28.0" stroke="#e5e7eb" stroke-width="0.5"/>
  <text x="318" y="31.0" text-anchor="end" font-size="7.5" fill="#6b7280">0</text>
  <line x1="322" y1="74.0" x2="527" y2="74.0" stroke="#e5e7eb" stroke-width="0.5"/>
  <text x="318" y="77.0" text-anchor="end" font-size="7.5" fill="#6b7280">-40</text>
  <line x1="322" y1="120.0" x2="527" y2="120.0" stroke="#e5e7eb" stroke-width="0.5"/>
  <text x="318" y="123.0" text-anchor="end" font-size="7.5" fill="#6b7280">-80</text>
  <line x1="322" y1="166.0" x2="527" y2="166.0" stroke="#e5e7eb" stroke-width="0.5"/>
  <text x="318" y="169.0" text-anchor="end" font-size="7.5" fill="#6b7280">-120</text>
  <line x1="322.0" y1="28" x2="322.0" y2="166" stroke="#e5e7eb" stroke-width="0.5"/>
  <text x="322.0" y="178" text-anchor="middle" font-size="7.5" fill="#6b7280">0</text>
  <line x1="363.0" y1="28" x2="363.0" y2="166" stroke="#e5e7eb" stroke-width="0.5"/>
  <text x="363.0" y="178" text-anchor="middle" font-size="7.5" fill="#6b7280">0.1</text>
  <line x1="404.0" y1="28" x2="404.0" y2="166" stroke="#e5e7eb" stroke-width="0.5"/>
  <text x="404.0" y="178" text-anchor="middle" font-size="7.5" fill="#6b7280">0.2</text>
  <line x1="445.0" y1="28" x2="445.0" y2="166" stroke="#e5e7eb" stroke-width="0.5"/>
  <text x="445.0" y="178" text-anchor="middle" font-size="7.5" fill="#6b7280">0.3</text>
  <line x1="486.0" y1="28" x2="486.0" y2="166" stroke="#e5e7eb" stroke-width="0.5"/>
  <text x="486.0" y="178" text-anchor="middle" font-size="7.5" fill="#6b7280">0.4</text>
  <line x1="527.0" y1="28" x2="527.0" y2="166" stroke="#e5e7eb" stroke-width="0.5"/>
  <text x="527.0" y="178" text-anchor="middle" font-size="7.5" fill="#6b7280">0.5</text>
  <line x1="322" y1="28" x2="322" y2="166" stroke="#d1d5db" stroke-width="0.75"/>
  <line x1="322" y1="166" x2="527" y2="166" stroke="#d1d5db" stroke-width="0.75"/>
  <polyline points="322.0,28.0 322.1,28.1 322.2,28.3 322.3,28.6 322.4,29.0 322.5,29.7 322.6,30.4 322.7,31.4 322.8,32.5 322.9,33.9 323.0,35.5 323.1,37.5 323.2,40.0 323.3,43.2 323.4,47.7 323.5,55.1 323.6,166.0 323.7,56.4 323.8,50.2 323.9,47.0 324.0,45.1 324.1,44.0 324.2,43.4 324.3,43.3 324.4,43.5 324.5,44.1 324.6,45.1 324.7,46.5 324.8,48.5 324.9,51.2 325.0,55.3 325.1,62.4 325.2,166.0 325.3,63.0 325.4,56.6 325.5,53.1 325.6,51.0 325.7,49.7 325.8,48.9 325.9,48.5 326.0,48.6 326.1,49.0 326.2,49.9 326.3,51.2 326.4,53.0 326.5,55.6 326.6,59.6 326.7,66.5 326.8,166.0 326.9,66.9 327.0,60.4 327.1,56.9 327.2,54.7 327.3,53.2 327.4,52.4 327.5,52.0 327.6,51.9 327.7,52.3 327.8,53.1 327.9,54.3 328.0,56.1 328.1,58.7 328.2,62.6 328.3,69.4 328.4,166.0 328.5,69.8 328.6,63.2 328.7,59.6 328.8,57.3 328.9,55.9 329.0,55.0 329.1,54.5 329.2,54.5 329.3,54.8 329.4,55.5 329.5,56.7 329.6,58.5 329.7,61.0 329.8,64.8 329.9,71.7 330.0,166.0 330.1,72.0 330.2,65.3 330.3,61.7 330.4,59.5 330.5,58.0 330.6,57.0 330.7,56.5 330.8,56.5 330.9,56.8 331.0,57.5 331.1,58.6 331.2,60.4 331.3,62.9 331.4,66.7 331.5,73.5 331.6,166.0 331.7,73.8 331.8,67.1 331.9,63.5 332.0,61.2 332.1,59.7 332.2,58.7 332.3,58.2 332.4,58.1 332.5,58.4 332.6,59.1 332.7,60.2 332.8,62.0 332.9,64.5 333.0,68.3 333.1,75.1 333.2,166.0 333.3,75.3 333.4,68.6 333.5,65.0 333.6,62.7 333.7,61.1 333.8,60.2 333.9,59.7 334.0,59.5 334.1,59.8 334.2,60.5 334.3,61.6 334.4,63.3 334.5,65.8 334.6,69.6 334.7,76.4 334.8,166.0 334.9,76.6 335.0,69.9 335.1,66.3 335.2,64.0 335.3,62.4 335.4,61.4 335.5,60.9 335.6,60.8 335.7,61.1 335.8,61.7 335.9,62.9 336.0,64.5 336.1,67.0 336.2,70.8 336.3,77.6 336.4,166.0 336.5,77.8 336.6,71.1 336.7,67.4 336.8,65.1 336.9,63.5 337.0,62.6 337.1,62.0 337.2,61.9 337.3,62.2 337.4,62.8 337.5,63.9 337.6,65.6 337.7,68.1 337.8,71.9 337.9,78.7 338.0,166.0 338.1,78.8 338.2,72.1 338.3,68.5 338.4,66.1 338.5,64.6 338.6,63.6 338.7,63.0 338.8,62.9 338.9,63.1 339.0,63.8 339.1,64.9 339.2,66.6 339.3,69.1 339.4,72.8 339.5,79.6 339.6,166.0 339.7,79.7 339.8,73.1 339.9,69.4 340.0,67.0 340.1,65.5 340.2,64.5 340.3,63.9 340.4,63.8 340.5,64.0 340.6,64.7 340.7,65.8 340.8,67.5 340.9,69.9 341.0,73.7 341.1,80.5 341.2,166.0 341.3,80.6 341.4,73.9 341.5,70.2 341.6,67.9 341.7,66.3 341.8,65.3 341.9,64.8 342.0,64.6 342.1,64.9 342.2,65.5 342.3,66.6 342.4,68.3 342.5,70.7 342.6,74.5 342.7,81.3 342.8,166.0 342.9,81.4 343.0,74.7 343.1,71.0 343.2,68.7 343.3,67.1 343.4,66.1 343.5,65.5 343.6,65.4 343.7,65.6 343.8,66.3 343.9,67.4 344.0,69.0 344.1,71.5 344.2,75.3 344.3,82.0 344.4,166.0 344.5,82.1 344.6,75.4 344.7,71.7 344.8,69.4 344.9,67.8 345.0,66.8 345.1,66.2 345.2,66.1 345.3,66.3 345.4,67.0 345.5,68.1 345.6,69.7 345.7,72.2 345.8,75.9 345.9,82.7 346.0,166.0 346.1,82.8 346.2,76.1 346.3,72.4 346.4,70.1 346.5,68.5 346.6,67.5 346.7,66.9 346.8,66.8 346.9,67.0 347.0,67.6 347.1,68.7 347.2,70.4 347.3,72.8 347.4,76.6 347.5,83.4 347.6,166.0 347.7,83.4 347.8,76.7 347.9,73.1 348.0,70.7 348.1,69.1 348.2,68.1 348.3,67.5 348.4,67.4 348.5,67.6 348.6,68.2 348.7,69.3 348.8,71.0 348.9,73.4 349.0,77.2 349.1,84.0 349.2,166.0 349.3,84.0 349.4,77.3 349.5,73.6 349.6,71.3 349.7,69.7 349.8,68.7 349.9,68.1 350.0,67.9 350.1,68.2 350.2,68.8 350.3,69.9 350.4,71.5 350.5,74.0 350.6,77.8 350.7,84.5 350.8,166.0 350.9,84.6 351.0,77.9 351.1,74.2 351.2,71.8 351.3,70.2 351.4,69.2 351.5,68.7 351.6,68.5 351.7,68.7 351.8,69.4 351.9,70.4 352.0,72.1 352.1,74.5 352.2,78.3 352.3,85.0 352.4,166.0 352.5,85.1 352.6,78.4 352.7,74.7 352.8,72.3 352.9,70.8 353.0,69.7 353.1,69.2 353.2,69.0 353.3,69.2 353.4,69.9 353.5,70.9 353.6,72.6 353.7,75.0 353.8,78.8 353.9,85.6 354.0,166.0 354.1,85.6 354.2,78.9 354.3,75.2 354.4,72.8 354.5,71.3 354.6,70.2 354.7,69.7 354.8,69.5 354.9,69.7 355.0,70.3 355.1,71.4 355.2,73.1 355.3,75.5 355.4,79.3 355.5,86.0 355.6,166.0 355.7,86.1 355.8,79.4 355.9,75.7 356.0,73.3 356.1,71.7 356.3,70.7 356.4,70.1 356.5,70.0 356.6,70.2 356.7,70.8 356.8,71.9 356.9,73.5 357.0,76.0 357.1,79.7 357.2,86.5 357.3,166.0 357.4,86.5 357.5,79.8 357.6,76.1 357.7,73.8 357.8,72.2 357.9,71.1 358.0,70.6 358.1,70.4 358.2,70.6 358.3,71.3 358.4,72.3 358.5,74.0 358.6,76.4 358.7,80.2 358.8,86.9 358.9,166.0 359.0,87.0 359.1,80.3 359.2,76.6 359.3,74.2 359.4,72.6 359.5,71.6 359.6,71.0 359.7,70.8 359.8,71.0 359.9,71.7 360.0,72.8 360.1,74.4 360.2,76.8 360.3,80.6 360.4,87.3 360.5,166.0 360.6,87.4 360.7,80.7 360.8,77.0 360.9,74.6 361.0,73.0 361.1,72.0 361.2,71.4 361.3,71.2 361.4,71.5 361.5,72.1 361.6,73.2 361.7,74.8 361.8,77.2 361.9,81.0 362.0,87.7 362.1,166.0 362.2,87.8 362.3,81.1 362.4,77.4 362.5,75.0 362.6,73.4 362.7,72.4 362.8,71.8 362.9,71.6 363.0,71.8 363.1,72.5 363.2,73.5 363.3,75.2 363.4,77.6 363.5,81.4 363.6,88.1 363.7,166.0 363.8,88.2 363.9,81.4 364.0,77.7 364.1,75.4 364.2,73.8 364.3,72.7 364.4,72.2 364.5,72.0 364.6,72.2 364.7,72.8 364.8,73.9 364.9,75.5 365.0,78.0 365.1,81.7 365.2,88.5 365.3,166.0 365.4,88.5 365.5,81.8 365.6,78.1 365.7,75.7 365.8,74.1 365.9,73.1 366.0,72.5 366.1,72.3 366.2,72.6 366.3,73.2 366.4,74.3 366.5,75.9 366.6,78.3 366.7,82.1 366.8,88.8 366.9,166.0 367.0,88.9 367.1,82.2 367.2,78.5 367.3,76.1 367.4,74.5 367.5,73.4 367.6,72.9 367.7,72.7 367.8,72.9 367.9,73.5 368.0,74.6 368.1,76.2 368.2,78.7 368.3,82.4 368.4,89.2 368.5,166.0 368.6,89.2 368.7,82.5 368.8,78.8 368.9,76.4 369.0,74.8 369.1,73.8 369.2,73.2 369.3,73.0 369.4,73.2 369.5,73.9 369.6,74.9 369.7,76.6 369.8,79.0 369.9,82.7 370.0,89.5 370.1,166.0 370.2,89.5 370.3,82.8 370.4,79.1 370.5,76.7 370.6,75.1 370.7,74.1 370.8,73.5 370.9,73.3 371.0,73.6 371.1,74.2 371.2,75.2 371.3,76.9 371.4,79.3 371.5,83.0 371.6,89.8 371.7,166.0 371.8,89.8 371.9,83.1 372.0,79.4 372.1,77.0 372.2,75.4 372.3,74.4 372.4,73.8 372.5,73.6 372.6,73.9 372.7,74.5 372.8,75.5 372.9,77.2 373.0,79.6 373.1,83.4 373.2,90.1 373.3,166.0 373.4,90.1 373.5,83.4 373.6,79.7 373.7,77.3 373.8,75.7 373.9,74.7 374.0,74.1 374.1,73.9 374.2,74.2 374.3,74.8 374.4,75.8 374.5,77.5 374.6,79.9 374.7,83.6 374.8,90.4 374.9,166.0 375.0,90.4 375.1,83.7 375.2,80.0 375.3,77.6 375.4,76.0 375.5,75.0 375.6,74.4 375.7,74.2 375.8,74.4 375.9,75.1 376.0,76.1 376.1,77.8 376.2,80.2 376.3,83.9 376.4,90.7 376.5,166.0 376.6,90.7 376.7,84.0 376.8,80.3 376.9,77.9 377.0,76.3 377.1,75.3 377.2,74.7 377.3,74.5 377.4,74.7 377.5,75.3 377.6,76.4 377.7,78.0 377.8,80.5 377.9,84.2 378.0,90.9 378.1,166.0 378.2,91.0 378.3,84.3 378.4,80.6 378.5,78.2 378.6,76.6 378.7,75.5 378.8,74.9 378.9,74.8 379.0,75.0 379.1,75.6 379.2,76.7 379.3,78.3 379.4,80.7 379.5,84.5 379.6,91.2 379.7,166.0 379.8,91.2 379.9,84.5 380.0,80.8 380.1,78.4 380.2,76.8 380.3,75.8 380.4,75.2 380.5,75.0 380.6,75.2 380.7,75.9 380.8,76.9 380.9,78.6 381.0,81.0 381.1,84.7 381.2,91.5 381.3,166.0 381.4,91.5 381.5,84.8 381.6,81.1 381.7,78.7 381.8,77.1 381.9,76.0 382.0,75.5 382.1,75.3 382.2,75.5 382.3,76.1 382.4,77.2 382.5,78.8 382.6,81.2 382.7,85.0 382.8,91.7 382.9,166.0 383.0,91.7 383.1,85.0 383.2,81.3 383.3,78.9 383.4,77.3 383.5,76.3 383.6,75.7 383.7,75.5 383.8,75.7 383.9,76.3 384.0,77.4 384.1,79.0 384.2,81.5 384.3,85.2 384.4,92.0 384.5,166.0 384.6,92.0 384.7,85.3 384.8,81.6 384.9,79.2 385.0,77.6 385.1,76.5 385.2,75.9 385.3,75.8 385.4,76.0 385.5,76.6 385.6,77.6 385.7,79.3 385.8,81.7 385.9,85.4 386.0,92.2 386.1,166.0 386.2,92.2 386.3,85.5 386.4,81.8 386.5,79.4 386.6,77.8 386.7,76.8 386.8,76.2 386.9,76.0 387.0,76.2 387.1,76.8 387.2,77.9 387.3,79.5 387.4,81.9 387.5,85.7 387.6,92.4 387.7,166.0 387.8,92.4 387.9,85.7 388.0,82.0 388.1,79.6 388.2,78.0 388.3,77.0 388.4,76.4 388.5,76.2 388.6,76.4 388.7,77.0 388.8,78.1 388.9,79.7 389.0,82.2 389.1,85.9 389.2,92.6 389.3,166.0 389.4,92.7 389.5,85.9 389.6,82.2 389.7,79.8 389.8,78.2 389.9,77.2 390.0,76.6 390.1,76.4 390.2,76.6 390.3,77.2 390.4,78.3 390.5,79.9 390.6,82.4 390.7,86.1 390.8,92.8 390.9,166.0 391.0,92.9 391.1,86.2 391.2,82.4 391.3,80.1 391.4,78.4 391.5,77.4 391.6,76.8 391.7,76.6 391.8,76.8 391.9,77.5 392.0,78.5 392.1,80.2 392.2,82.6 392.3,86.3 392.4,93.1 392.5,166.0 392.6,93.1 392.7,86.4 392.8,82.7 392.9,80.3 393.0,78.7 393.1,77.6 393.2,77.0 393.3,76.8 393.4,77.1 393.5,77.7 393.6,78.7 393.7,80.4 393.8,82.8 393.9,86.5 394.0,93.3 394.1,166.0 394.2,93.3 394.3,86.6 394.4,82.9 394.5,80.5 394.6,78.9 394.7,77.8 394.8,77.2 394.9,77.0 395.0,77.3 395.1,77.9 395.2,78.9 395.3,80.6 395.4,83.0 395.5,86.7 395.6,93.5 395.7,166.0 395.8,93.5 395.9,86.8 396.0,83.0 396.1,80.7 396.2,79.0 396.3,78.0 396.4,77.4 396.5,77.2 396.6,77.4 396.7,78.1 396.8,79.1 396.9,80.7 397.0,83.2 397.1,86.9 397.2,93.6 397.3,166.0 397.4,93.7 397.5,87.0 397.6,83.2 397.7,80.8 397.8,79.2 397.9,78.2 398.0,77.6 398.1,77.4 398.2,77.6 398.3,78.2 398.4,79.3 398.5,80.9 398.6,83.4 398.7,87.1 398.8,93.8 398.9,166.0 399.0,93.9 399.1,87.1 399.2,83.4 399.3,81.0 399.4,79.4 399.5,78.4 399.6,77.8 399.7,77.6 399.8,77.8 399.9,78.4 400.0,79.5 400.1,81.1 400.2,83.5 400.3,87.3 400.4,94.0 400.5,166.0 400.6,94.0 400.7,87.3 400.8,83.6 400.9,81.2 401.0,79.6 401.1,78.6 401.2,78.0 401.3,77.8 401.4,78.0 401.5,78.6 401.6,79.7 401.7,81.3 401.8,83.7 401.9,87.4 402.0,94.2 402.1,166.0 402.2,94.2 402.3,87.5 402.4,83.8 402.5,81.4 402.6,79.8 402.7,78.7 402.8,78.1 402.9,78.0 403.0,78.2 403.1,78.8 403.2,79.8 403.3,81.5 403.4,83.9 403.5,87.6 403.6,94.4 403.7,166.0 403.8,94.4 403.9,87.7 404.0,84.0 404.1,81.6 404.2,79.9 404.3,78.9 404.4,78.3 404.5,78.1 404.6,78.3 404.7,78.9 404.8,80.0 404.9,81.6 405.0,84.1 405.1,87.8 405.2,94.5 405.3,166.0 405.4,94.6 405.5,87.8 405.6,84.1 405.7,81.7 405.8,80.1 405.9,79.1 406.0,78.5 406.1,78.3 406.2,78.5 406.3,79.1 406.4,80.2 406.5,81.8 406.6,84.2 406.7,88.0 406.8,94.7 406.9,166.0 407.0,94.7 407.1,88.0 407.2,84.3 407.3,81.9 407.4,80.3 407.5,79.2 407.6,78.6 407.7,78.5 407.8,78.7 407.9,79.3 408.0,80.3 408.1,82.0 408.2,84.4 408.3,88.1 408.4,94.9 408.5,166.0 408.6,94.9 408.7,88.2 408.8,84.4 408.9,82.0 409.0,80.4 409.1,79.4 409.2,78.8 409.3,78.6 409.4,78.8 409.5,79.4 409.6,80.5 409.7,82.1 409.8,84.5 409.9,88.3 410.0,95.0 410.1,166.0 410.2,95.0 410.3,88.3 410.4,84.6 410.5,82.2 410.6,80.6 410.7,79.5 410.8,79.0 410.9,78.8 411.0,79.0 411.1,79.6 411.2,80.6 411.3,82.3 411.4,84.7 411.5,88.4 411.6,95.2 411.7,166.0 411.8,95.2 411.9,88.5 412.0,84.7 412.1,82.3 412.2,80.7 412.3,79.7 412.4,79.1 412.5,78.9 412.6,79.1 412.7,79.7 412.8,80.8 412.9,82.4 413.0,84.8 413.1,88.6 413.2,95.3 413.3,166.0 413.4,95.3 413.5,88.6 413.6,84.9 413.7,82.5 413.8,80.9 413.9,79.8 414.0,79.2 414.1,79.1 414.2,79.3 414.3,79.9 414.4,80.9 414.5,82.6 414.6,85.0 414.7,88.7 414.8,95.5 414.9,166.0 415.0,95.5 415.1,88.7 415.2,85.0 415.3,82.6 415.4,81.0 415.5,80.0 415.6,79.4 415.7,79.2 415.8,79.4 415.9,80.0 416.0,81.1 416.1,82.7 416.2,85.1 416.3,88.9 416.4,95.6 416.5,166.0 416.6,95.6 416.7,88.9 416.8,85.2 416.9,82.8 417.0,81.2 417.1,80.1 417.2,79.5 417.3,79.3 417.4,79.5 417.5,80.2 417.6,81.2 417.7,82.8 417.8,85.3 417.9,89.0 418.0,95.7 418.1,166.0 418.2,95.7 418.3,89.0 418.4,85.3 418.5,82.9 418.6,81.3 418.7,80.3 418.8,79.7 418.9,79.5 419.0,79.7 419.1,80.3 419.2,81.3 419.3,83.0 419.4,85.4 419.5,89.1 419.6,95.9 419.7,166.0 419.8,95.9 419.9,89.2 420.0,85.4 420.1,83.0 420.2,81.4 420.3,80.4 420.4,79.8 420.5,79.6 420.6,79.8 420.7,80.4 420.8,81.5 420.9,83.1 421.0,85.5 421.1,89.3 421.2,96.0 421.3,166.0 421.4,96.0 421.5,89.3 421.6,85.6 421.7,83.2 421.8,81.6 421.9,80.5 422.0,79.9 422.1,79.7 422.2,79.9 422.3,80.5 422.4,81.6 422.5,83.2 422.6,85.7 422.7,89.4 422.8,96.1 422.9,166.0 423.0,96.1 423.1,89.4 423.2,85.7 423.3,83.3 423.4,81.7 423.5,80.6 423.6,80.1 423.7,79.9 423.8,80.1 423.9,80.7 424.0,81.7 424.1,83.4 424.2,85.8 424.3,89.5 424.4,96.2 424.6,166.0 424.7,96.3 424.8,89.5 424.9,85.8 425.0,83.4 425.1,81.8 425.2,80.8 425.3,80.2 425.4,80.0 425.5,80.2 425.6,80.8 425.7,81.9 425.8,83.5 425.9,85.9 426.0,89.6 426.1,96.4 426.2,166.0 426.3,96.4 426.4,89.7 426.5,85.9 426.6,83.5 426.7,81.9 426.8,80.9 426.9,80.3 427.0,80.1 427.1,80.3 427.2,80.9 427.3,82.0 427.4,83.6 427.5,86.0 427.6,89.7 427.7,96.5 427.8,166.0 427.9,96.5 428.0,89.8 428.1,86.1 428.2,83.7 428.3,82.0 428.4,81.0 428.5,80.4 428.6,80.2 428.7,80.4 428.8,81.0 428.9,82.1 429.0,83.7 429.1,86.1 429.2,89.9 429.3,96.6 429.4,166.0 429.5,96.6 429.6,89.9 429.7,86.2 429.8,83.8 429.9,82.2 430.0,81.1 430.1,80.5 430.2,80.3 430.3,80.5 430.4,81.1 430.5,82.2 430.6,83.8 430.7,86.2 430.8,90.0 430.9,96.7 431.0,166.0 431.1,96.7 431.2,90.0 431.3,86.3 431.4,83.9 431.5,82.3 431.6,81.2 431.7,80.6 431.8,80.4 431.9,80.7 432.0,81.3 432.1,82.3 432.2,83.9 432.3,86.4 432.4,90.1 432.5,96.8 432.6,166.0 432.7,96.8 432.8,90.1 432.9,86.4 433.0,84.0 433.1,82.4 433.2,81.3 433.3,80.7 433.4,80.6 433.5,80.8 433.6,81.4 433.7,82.4 433.8,84.0 433.9,86.5 434.0,90.2 434.1,96.9 434.2,166.0 434.3,96.9 434.4,90.2 434.5,86.5 434.6,84.1 434.7,82.5 434.8,81.4 434.9,80.9 435.0,80.7 435.1,80.9 435.2,81.5 435.3,82.5 435.4,84.2 435.5,86.6 435.6,90.3 435.7,97.0 435.8,166.0 435.9,97.0 436.0,90.3 436.1,86.6 436.2,84.2 436.3,82.6 436.4,81.5 436.5,81.0 436.6,80.8 436.7,81.0 436.8,81.6 436.9,82.6 437.0,84.3 437.1,86.7 437.2,90.4 437.3,97.1 437.4,166.0 437.5,97.1 437.6,90.4 437.7,86.7 437.8,84.3 437.9,82.7 438.0,81.6 438.1,81.1 438.2,80.9 438.3,81.1 438.4,81.7 438.5,82.7 438.6,84.4 438.7,86.8 438.8,90.5 438.9,97.2 439.0,166.0 439.1,97.2 439.2,90.5 439.3,86.8 439.4,84.4 439.5,82.8 439.6,81.7 439.7,81.2 439.8,81.0 439.9,81.2 440.0,81.8 440.1,82.8 440.2,84.5 440.3,86.9 440.4,90.6 440.5,97.3 440.6,166.0 440.7,97.3 440.8,90.6 440.9,86.9 441.0,84.5 441.1,82.9 441.2,81.8 441.3,81.2 441.4,81.1 441.5,81.3 441.6,81.9 441.7,82.9 441.8,84.5 441.9,87.0 442.0,90.7 442.1,97.4 442.2,166.0 442.3,97.4 442.4,90.7 442.5,87.0 442.6,84.6 442.7,83.0 442.8,81.9 442.9,81.3 443.0,81.2 443.1,81.4 443.2,82.0 443.3,83.0 443.4,84.6 443.5,87.1 443.6,90.8 443.7,97.5 443.8,166.0 443.9,97.5 444.0,90.8 444.1,87.1 444.2,84.7 444.3,83.1 444.4,82.0 444.5,81.4 444.6,81.2 444.7,81.4 444.8,82.0 444.9,83.1 445.0,84.7 445.1,87.1 445.2,90.9 445.3,97.6 445.4,166.0 445.5,97.6 445.6,90.9 445.7,87.2 445.8,84.8 445.9,83.2 446.0,82.1 446.1,81.5 446.2,81.3 446.3,81.5 446.4,82.1 446.5,83.2 446.6,84.8 446.7,87.2 446.8,91.0 446.9,97.7 447.0,166.0 447.1,97.7 447.2,91.0 447.3,87.3 447.4,84.9 447.5,83.2 447.6,82.2 447.7,81.6 447.8,81.4 447.9,81.6 448.0,82.2 448.1,83.3 448.2,84.9 448.3,87.3 448.4,91.0 448.5,97.8 448.6,166.0 448.7,97.8 448.8,91.1 448.9,87.3 449.0,84.9 449.1,83.3 449.2,82.3 449.3,81.7 449.4,81.5 449.5,81.7 449.6,82.3 449.7,83.4 449.8,85.0 449.9,87.4 450.0,91.1 450.1,97.9 450.2,166.0 450.3,97.9 450.4,91.2 450.5,87.4 450.6,85.0 450.7,83.4 450.8,82.4 450.9,81.8 451.0,81.6 451.1,81.8 451.2,82.4 451.3,83.4 451.4,85.1 451.5,87.5 451.6,91.2 451.7,97.9 451.8,166.0 451.9,98.0 452.0,91.2 452.1,87.5 452.2,85.1 452.3,83.5 452.4,82.4 452.5,81.9 452.6,81.7 452.7,81.9 452.8,82.5 452.9,83.5 453.0,85.1 453.1,87.6 453.2,91.3 453.3,98.0 453.4,166.0 453.5,98.0 453.6,91.3 453.7,87.6 453.8,85.2 453.9,83.6 454.0,82.5 454.1,81.9 454.2,81.7 454.3,81.9 454.4,82.5 454.5,83.6 454.6,85.2 454.7,87.6 454.8,91.4 454.9,98.1 455.0,166.0 455.1,98.1 455.2,91.4 455.3,87.7 455.4,85.3 455.5,83.6 455.6,82.6 455.7,82.0 455.8,81.8 455.9,82.0 456.0,82.6 456.1,83.7 456.2,85.3 456.3,87.7 456.4,91.4 456.5,98.2 456.6,166.0 456.7,98.2 456.8,91.5 456.9,87.7 457.0,85.3 457.1,83.7 457.2,82.7 457.3,82.1 457.4,81.9 457.5,82.1 457.6,82.7 457.7,83.8 457.8,85.4 457.9,87.8 458.0,91.5 458.1,98.2 458.2,166.0 458.3,98.3 458.4,91.5 458.5,87.8 458.6,85.4 458.7,83.8 458.8,82.7 458.9,82.2 459.0,82.0 459.1,82.2 459.2,82.8 459.3,83.8 459.4,85.4 459.5,87.9 459.6,91.6 459.7,98.3 459.8,166.0 459.9,98.3 460.0,91.6 460.1,87.9 460.2,85.5 460.3,83.9 460.4,82.8 460.5,82.2 460.6,82.0 460.7,82.2 460.8,82.8 460.9,83.9 461.0,85.5 461.1,87.9 461.2,91.7 461.3,98.4 461.4,166.0 461.5,98.4 461.6,91.7 461.7,88.0 461.8,85.5 461.9,83.9 462.0,82.9 462.1,82.3 462.2,82.1 462.3,82.3 462.4,82.9 462.5,84.0 462.6,85.6 462.7,88.0 462.8,91.7 462.9,98.5 463.0,166.0 463.1,98.5 463.2,91.7 463.3,88.0 463.4,85.6 463.5,84.0 463.6,82.9 463.7,82.4 463.8,82.2 463.9,82.4 464.0,83.0 464.1,84.0 464.2,85.6 464.3,88.1 464.4,91.8 464.5,98.5 464.6,166.0 464.7,98.5 464.8,91.8 464.9,88.1 465.0,85.7 465.1,84.1 465.2,83.0 465.3,82.4 465.4,82.2 465.5,82.4 465.6,83.0 465.7,84.1 465.8,85.7 465.9,88.1 466.0,91.8 466.1,98.6 466.2,166.0 466.3,98.6 466.4,91.9 466.5,88.1 466.6,85.7 466.7,84.1 466.8,83.1 466.9,82.5 467.0,82.3 467.1,82.5 467.2,83.1 467.3,84.1 467.4,85.8 467.5,88.2 467.6,91.9 467.7,98.6 467.8,166.0 467.9,98.7 468.0,91.9 468.1,88.2 468.2,85.8 468.3,84.2 468.4,83.1 468.5,82.5 468.6,82.4 468.7,82.5 468.8,83.2 468.9,84.2 469.0,85.8 469.1,88.2 469.2,92.0 469.3,98.7 469.4,166.0 469.5,98.7 469.6,92.0 469.7,88.3 469.8,85.9 469.9,84.2 470.0,83.2 470.1,82.6 470.2,82.4 470.3,82.6 470.4,83.2 470.5,84.3 470.6,85.9 470.7,88.3 470.8,92.0 470.9,98.8 471.0,166.0 471.1,98.8 471.2,92.0 471.3,88.3 471.4,85.9 471.5,84.3 471.6,83.3 471.7,82.7 471.8,82.5 471.9,82.7 472.0,83.3 472.1,84.3 472.2,85.9 472.3,88.4 472.4,92.1 472.5,98.8 472.6,166.0 472.7,98.8 472.8,92.1 472.9,88.4 473.0,86.0 473.1,84.4 473.2,83.3 473.3,82.7 473.4,82.5 473.5,82.7 473.6,83.3 473.7,84.4 473.8,86.0 473.9,88.4 474.0,92.1 474.1,98.9 474.2,166.0 474.3,98.9 474.4,92.1 474.5,88.4 474.6,86.0 474.7,84.4 474.8,83.4 474.9,82.8 475.0,82.6 475.1,82.8 475.2,83.4 475.3,84.4 475.4,86.0 475.5,88.5 475.6,92.2 475.7,98.9 475.8,166.0 475.9,98.9 476.0,92.2 476.1,88.5 476.2,86.1 476.3,84.5 476.4,83.4 476.5,82.8 476.6,82.6 476.7,82.8 476.8,83.4 476.9,84.5 477.0,86.1 477.1,88.5 477.2,92.2 477.3,99.0 477.4,166.0 477.5,99.0 477.6,92.2 477.7,88.5 477.8,86.1 477.9,84.5 478.0,83.5 478.1,82.9 478.2,82.7 478.3,82.9 478.4,83.5 478.5,84.5 478.6,86.1 478.7,88.6 478.8,92.3 478.9,99.0 479.0,166.0 479.1,99.0 479.2,92.3 479.3,88.6 479.4,86.2 479.5,84.6 479.6,83.5 479.7,82.9 479.8,82.7 479.9,82.9 480.0,83.5 480.1,84.6 480.2,86.2 480.3,88.6 480.4,92.3 480.5,99.1 480.6,166.0 480.7,99.1 480.8,92.3 480.9,88.6 481.0,86.2 481.1,84.6 481.2,83.6 481.3,83.0 481.4,82.8 481.5,83.0 481.6,83.6 481.7,84.6 481.8,86.2 481.9,88.7 482.0,92.4 482.1,99.1 482.2,166.0 482.3,99.1 482.4,92.4 482.5,88.7 482.6,86.3 482.7,84.6 482.8,83.6 482.9,83.0 483.0,82.8 483.1,83.0 483.2,83.6 483.3,84.7 483.4,86.3 483.5,88.7 483.6,92.4 483.7,99.2 483.8,166.0 483.9,99.2 484.0,92.4 484.1,88.7 484.2,86.3 484.3,84.7 484.4,83.6 484.5,83.0 484.6,82.9 484.7,83.0 484.8,83.6 484.9,84.7 485.0,86.3 485.1,88.7 485.2,92.5 485.3,99.2 485.4,166.0 485.5,99.2 485.6,92.5 485.7,88.8 485.8,86.3 485.9,84.7 486.0,83.7 486.1,83.1 486.2,82.9 486.3,83.1 486.4,83.7 486.5,84.7 486.6,86.4 486.7,88.8 486.8,92.5 486.9,99.2 487.0,166.0 487.1,99.2 487.2,92.5 487.3,88.8 487.4,86.4 487.5,84.8 487.6,83.7 487.7,83.1 487.8,82.9 487.9,83.1 488.0,83.7 488.1,84.8 488.2,86.4 488.3,88.8 488.4,92.5 488.5,99.3 488.6,166.0 488.7,99.3 488.8,92.5 488.9,88.8 489.0,86.4 489.1,84.8 489.2,83.8 489.3,83.2 489.4,83.0 489.5,83.2 489.6,83.8 489.7,84.8 489.8,86.4 489.9,88.9 490.0,92.6 490.1,99.3 490.2,166.0 490.3,99.3 490.4,92.6 490.5,88.9 490.6,86.5 490.7,84.8 490.8,83.8 490.9,83.2 491.0,83.0 491.1,83.2 491.2,83.8 491.3,84.9 491.4,86.5 491.5,88.9 491.6,92.6 491.7,99.3 491.8,166.0 491.9,99.3 492.0,92.6 492.1,88.9 492.2,86.5 492.3,84.9 492.4,83.8 492.5,83.2 492.6,83.0 492.7,83.2 492.9,83.8 493.0,84.9 493.1,86.5 493.2,88.9 493.3,92.6 493.4,99.4 493.5,166.0 493.6,99.4 493.7,92.7 493.8,88.9 493.9,86.5 494.0,84.9 494.1,83.9 494.2,83.3 494.3,83.1 494.4,83.3 494.5,83.9 494.6,84.9 494.7,86.5 494.8,89.0 494.9,92.7 495.0,99.4 495.1,166.0 495.2,99.4 495.3,92.7 495.4,89.0 495.5,86.6 495.6,84.9 495.7,83.9 495.8,83.3 495.9,83.1 496.0,83.3 496.1,83.9 496.2,84.9 496.3,86.6 496.4,89.0 496.5,92.7 496.6,99.4 496.7,166.0 496.8,99.4 496.9,92.7 497.0,89.0 497.1,86.6 497.2,85.0 497.3,83.9 497.4,83.3 497.5,83.1 497.6,83.3 497.7,83.9 497.8,85.0 497.9,86.6 498.0,89.0 498.1,92.7 498.2,99.5 498.3,166.0 498.4,99.5 498.5,92.7 498.6,89.0 498.7,86.6 498.8,85.0 498.9,83.9 499.0,83.3 499.1,83.2 499.2,83.4 499.3,84.0 499.4,85.0 499.5,86.6 499.6,89.0 499.7,92.8 499.8,99.5 499.9,166.0 500.0,99.5 500.1,92.8 500.2,89.0 500.3,86.6 500.4,85.0 500.5,84.0 500.6,83.4 500.7,83.2 500.8,83.4 500.9,84.0 501.0,85.0 501.1,86.7 501.2,89.1 501.3,92.8 501.4,99.5 501.5,166.0 501.6,99.5 501.7,92.8 501.8,89.1 501.9,86.7 502.0,85.0 502.1,84.0 502.2,83.4 502.3,83.2 502.4,83.4 502.5,84.0 502.6,85.1 502.7,86.7 502.8,89.1 502.9,92.8 503.0,99.5 503.1,166.0 503.2,99.5 503.3,92.8 503.4,89.1 503.5,86.7 503.6,85.1 503.7,84.0 503.8,83.4 503.9,83.2 504.0,83.4 504.1,84.0 504.2,85.1 504.3,86.7 504.4,89.1 504.5,92.8 504.6,99.6 504.7,166.0 504.8,99.6 504.9,92.8 505.0,89.1 505.1,86.7 505.2,85.1 505.3,84.0 505.4,83.4 505.5,83.3 505.6,83.4 505.7,84.0 505.8,85.1 505.9,86.7 506.0,89.1 506.1,92.9 506.2,99.6 506.3,166.0 506.4,99.6 506.5,92.9 506.6,89.1 506.7,86.7 506.8,85.1 506.9,84.1 507.0,83.5 507.1,83.3 507.2,83.5 507.3,84.1 507.4,85.1 507.5,86.7 507.6,89.1 507.7,92.9 507.8,99.6 507.9,166.0 508.0,99.6 508.1,92.9 508.2,89.2 508.3,86.7 508.4,85.1 508.5,84.1 508.6,83.5 508.7,83.3 508.8,83.5 508.9,84.1 509.0,85.1 509.1,86.8 509.2,89.2 509.3,92.9 509.4,99.6 509.5,166.0 509.6,99.6 509.7,92.9 509.8,89.2 509.9,86.8 510.0,85.1 510.1,84.1 510.2,83.5 510.3,83.3 510.4,83.5 510.5,84.1 510.6,85.2 510.7,86.8 510.8,89.2 510.9,92.9 511.0,99.6 511.1,166.0 511.2,99.6 511.3,92.9 511.4,89.2 511.5,86.8 511.6,85.2 511.7,84.1 511.8,83.5 511.9,83.3 512.0,83.5 512.1,84.1 512.2,85.2 512.3,86.8 512.4,89.2 512.5,92.9 512.6,99.7 512.7,166.0 512.8,99.7 512.9,92.9 513.0,89.2 513.1,86.8 513.2,85.2 513.3,84.1 513.4,83.5 513.5,83.3 513.6,83.5 513.7,84.1 513.8,85.2 513.9,86.8 514.0,89.2 514.1,92.9 514.2,99.7 514.3,166.0 514.4,99.7 514.5,92.9 514.6,89.2 514.7,86.8 514.8,85.2 514.9,84.1 515.0,83.5 515.1,83.3 515.2,83.5 515.3,84.1 515.4,85.2 515.5,86.8 515.6,89.2 515.7,92.9 515.8,99.7 515.9,166.0 516.0,99.7 516.1,92.9 516.2,89.2 516.3,86.8 516.4,85.2 516.5,84.1 516.6,83.6 516.7,83.4 516.8,83.6 516.9,84.1 517.0,85.2 517.1,86.8 517.2,89.2 517.3,93.0 517.4,99.7 517.5,166.0 517.6,99.7 517.7,93.0 517.8,89.2 517.9,86.8 518.0,85.2 518.1,84.2 518.2,83.6 518.3,83.4 518.4,83.6 518.5,84.2 518.6,85.2 518.7,86.8 518.8,89.2 518.9,93.0 519.0,99.7 519.1,166.0 519.2,99.7 519.3,93.0 519.4,89.2 519.5,86.8 519.6,85.2 519.7,84.2 519.8,83.6 519.9,83.4 520.0,83.6 520.1,84.2 520.2,85.2 520.3,86.8 520.4,89.2 520.5,93.0 520.6,99.7 520.7,166.0 520.8,99.7 520.9,93.0 521.0,89.2 521.1,86.8 521.2,85.2 521.3,84.2 521.4,83.6 521.5,83.4 521.6,83.6 521.7,84.2 521.8,85.2 521.9,86.8 522.0,89.3 522.1,93.0 522.2,99.7 522.3,166.0 522.4,99.7 522.5,93.0 522.6,89.3 522.7,86.8 522.8,85.2 522.9,84.2 523.0,83.6 523.1,83.4 523.2,83.6 523.3,84.2 523.4,85.2 523.5,86.8 523.6,89.3 523.7,93.0 523.8,99.7 523.9,166.0 524.0,99.7 524.1,93.0 524.2,89.3 524.3,86.8 524.4,85.2 524.5,84.2 524.6,83.6 524.7,83.4 524.8,83.6 524.9,84.2 525.0,85.2 525.1,86.9 525.2,89.3 525.3,93.0 525.4,99.7 525.5,166.0 525.6,99.7 525.7,93.0 525.8,89.3 525.9,86.9 526.0,85.2 526.1,84.2 526.2,83.6 526.3,83.4 526.4,83.6 526.5,84.2 526.6,85.2 526.7,86.9 526.8,89.3 526.9,93.0 527.0,99.7" fill="none" stroke="#4a90d9" stroke-width="1.2" stroke-linejoin="round"/>
  <text x="154.5" y="190" text-anchor="middle" font-size="8" fill="#6b7280">n / N</text>
  <text x="424.5" y="190" text-anchor="middle" font-size="8" fill="#6b7280">Normalized frequency (× Fₛ)</text>
</svg>
