<svg xmlns="http://www.w3.org/2000/svg" viewBox="0 0 560 190" width="560" height="190" style="font-family:system-ui,-apple-system,sans-serif">
  <rect width="560" height="190" fill="#fafafa" rx="6"/>
  <line x1="52" y1="152.0" x2="257" y2="152.0" stroke="#e5e7eb" stroke-width="0.5"/>
  <text x="48" y="155.0" text-anchor="end" font-size="7.5" fill="#6b7280">0</text>
  <line x1="52" y1="82.0" x2="257" y2="82.0" stroke="#e5e7eb" stroke-width="0.5"/>
  <text x="48" y="85.0" text-anchor="end" font-size="7.5" fill="#6b7280">0.5</text>
  <line x1="52" y1="12.0" x2="257" y2="12.0" stroke="#e5e7eb" stroke-width="0.5"/>
  <text x="48" y="15.0" text-anchor="end" font-size="7.5" fill="#6b7280">1</text>
  <line x1="52.0" y1="12" x2="52.0" y2="152" stroke="#e5e7eb" stroke-width="0.5"/>
  <text x="52.0" y="164" text-anchor="middle" font-size="7.5" fill="#6b7280">0</text>
  <line x1="154.5" y1="12" x2="154.5" y2="152" stroke="#e5e7eb" stroke-width="0.5"/>
  <text x="154.5" y="164" text-anchor="middle" font-size="7.5" fill="#6b7280">0.5</text>
  <line x1="257.0" y1="12" x2="257.0" y2="152" stroke="#e5e7eb" stroke-width="0.5"/>
  <text x="257.0" y="164" text-anchor="middle" font-size="7.5" fill="#6b7280">1</text>
  <line x1="52" y1="12" x2="52" y2="152" stroke="#d1d5db" stroke-width="0.75"/>
  <line x1="52" y1="152" x2="257" y2="152" stroke="#d1d5db" stroke-width="0.75"/>
  <path d="M52.0,152.0 52.0,12.0 52.8,12.0 53.6,12.0 54.4,12.0 55.2,12.0 56.0,12.0 56.8,12.0 57.6,12.0 58.4,12.0 59.2,12.0 60.0,12.0 60.8,12.0 61.6,12.0 62.5,12.0 63.3,12.0 64.1,12.0 64.9,12.0 65.7,12.0 66.5,12.0 67.3,12.0 68.1,12.0 68.9,12.0 69.7,12.0 70.5,12.0 71.3,12.0 72.1,12.0 72.9,12.0 73.7,12.0 74.5,12.0 75.3,12.0 76.1,12.0 76.9,12.0 77.7,12.0 78.5,12.0 79.3,12.0 80.1,12.0 80.9,12.0 81.7,12.0 82.5,12.0 83.4,12.0 84.2,12.0 85.0,12.0 85.8,12.0 86.6,12.0 87.4,12.0 88.2,12.0 89.0,12.0 89.8,12.0 90.6,12.0 91.4,12.0 92.2,12.0 93.0,12.0 93.8,12.0 94.6,12.0 95.4,12.0 96.2,12.0 97.0,12.0 97.8,12.0 98.6,12.0 99.4,12.0 100.2,12.0 101.0,12.0 101.8,12.0 102.6,12.0 103.5,12.0 104.3,12.0 105.1,12.0 105.9,12.0 106.7,12.0 107.5,12.0 108.3,12.0 109.1,12.0 109.9,12.0 110.7,12.0 111.5,12.0 112.3,12.0 113.1,12.0 113.9,12.0 114.7,12.0 115.5,12.0 116.3,12.0 117.1,12.0 117.9,12.0 118.7,12.0 119.5,12.0 120.3,12.0 121.1,12.0 121.9,12.0 122.7,12.0 123.5,12.0 124.4,12.0 125.2,12.0 126.0,12.0 126.8,12.0 127.6,12.0 128.4,12.0 129.2,12.0 130.0,12.0 130.8,12.0 131.6,12.0 132.4,12.0 133.2,12.0 134.0,12.0 134.8,12.0 135.6,12.0 136.4,12.0 137.2,12.0 138.0,12.0 138.8,12.0 139.6,12.0 140.4,12.0 141.2,12.0 142.0,12.0 142.8,12.0 143.6,12.0 144.5,12.0 145.3,12.0 146.1,12.0 146.9,12.0 147.7,12.0 148.5,12.0 149.3,12.0 150.1,12.0 150.9,12.0 151.7,12.0 152.5,12.0 153.3,12.0 154.1,12.0 154.9,12.0 155.7,12.0 156.5,12.0 157.3,12.0 158.1,12.0 158.9,12.0 159.7,12.0 160.5,12.0 161.3,12.0 162.1,12.0 162.9,12.0 163.7,12.0 164.5,12.0 165.4,12.0 166.2,12.0 167.0,12.0 167.8,12.0 168.6,12.0 169.4,12.0 170.2,12.0 171.0,12.0 171.8,12.0 172.6,12.0 173.4,12.0 174.2,12.0 175.0,12.0 175.8,12.0 176.6,12.0 177.4,12.0 178.2,12.0 179.0,12.0 179.8,12.0 180.6,12.0 181.4,12.0 182.2,12.0 183.0,12.0 183.8,12.0 184.6,12.0 185.5,12.0 186.3,12.0 187.1,12.0 187.9,12.0 188.7,12.0 189.5,12.0 190.3,12.0 191.1,12.0 191.9,12.0 192.7,12.0 193.5,12.0 194.3,12.0 195.1,12.0 195.9,12.0 196.7,12.0 197.5,12.0 198.3,12.0 199.1,12.0 199.9,12.0 200.7,12.0 201.5,12.0 202.3,12.0 203.1,12.0 203.9,12.0 204.7,12.0 205.5,12.0 206.4,12.0 207.2,12.0 208.0,12.0 208.8,12.0 209.6,12.0 210.4,12.0 211.2,12.0 212.0,12.0 212.8,12.0 213.6,12.0 214.4,12.0 215.2,12.0 216.0,12.0 216.8,12.0 217.6,12.0 218.4,12.0 219.2,12.0 220.0,12.0 220.8,12.0 221.6,12.0 222.4,12.0 223.2,12.0 224.0,12.0 224.8,12.0 225.6,12.0 226.5,12.0 227.3,12.0 228.1,12.0 228.9,12.0 229.7,12.0 230.5,12.0 231.3,12.0 232.1,12.0 232.9,12.0 233.7,12.0 234.5,12.0 235.3,12.0 236.1,12.0 236.9,12.0 237.7,12.0 238.5,12.0 239.3,12.0 240.1,12.0 240.9,12.0 241.7,12.0 242.5,12.0 243.3,12.0 244.1,12.0 244.9,12.0 245.7,12.0 246.5,12.0 247.4,12.0 248.2,12.0 249.0,12.0 249.8,12.0 250.6,12.0 251.4,12.0 252.2,12.0 253.0,12.0 253.8,12.0 254.6,12.0 255.4,12.0 256.2,12.0 257.0,12.0 L257.0,152.0 Z" fill="#4a90d9" fill-opacity="0.06"/>
  <polyline points="52.0,12.0 52.8,12.0 53.6,12.0 54.4,12.0 55.2,12.0 56.0,12.0 56.8,12.0 57.6,12.0 58.4,12.0 59.2,12.0 60.0,12.0 60.8,12.0 61.6,12.0 62.5,12.0 63.3,12.0 64.1,12.0 64.9,12.0 65.7,12.0 66.5,12.0 67.3,12.0 68.1,12.0 68.9,12.0 69.7,12.0 70.5,12.0 71.3,12.0 72.1,12.0 72.9,12.0 73.7,12.0 74.5,12.0 75.3,12.0 76.1,12.0 76.9,12.0 77.7,12.0 78.5,12.0 79.3,12.0 80.1,12.0 80.9,12.0 81.7,12.0 82.5,12.0 83.4,12.0 84.2,12.0 85.0,12.0 85.8,12.0 86.6,12.0 87.4,12.0 88.2,12.0 89.0,12.0 89.8,12.0 90.6,12.0 91.4,12.0 92.2,12.0 93.0,12.0 93.8,12.0 94.6,12.0 95.4,12.0 96.2,12.0 97.0,12.0 97.8,12.0 98.6,12.0 99.4,12.0 100.2,12.0 101.0,12.0 101.8,12.0 102.6,12.0 103.5,12.0 104.3,12.0 105.1,12.0 105.9,12.0 106.7,12.0 107.5,12.0 108.3,12.0 109.1,12.0 109.9,12.0 110.7,12.0 111.5,12.0 112.3,12.0 113.1,12.0 113.9,12.0 114.7,12.0 115.5,12.0 116.3,12.0 117.1,12.0 117.9,12.0 118.7,12.0 119.5,12.0 120.3,12.0 121.1,12.0 121.9,12.0 122.7,12.0 123.5,12.0 124.4,12.0 125.2,12.0 126.0,12.0 126.8,12.0 127.6,12.0 128.4,12.0 129.2,12.0 130.0,12.0 130.8,12.0 131.6,12.0 132.4,12.0 133.2,12.0 134.0,12.0 134.8,12.0 135.6,12.0 136.4,12.0 137.2,12.0 138.0,12.0 138.8,12.0 139.6,12.0 140.4,12.0 141.2,12.0 142.0,12.0 142.8,12.0 143.6,12.0 144.5,12.0 145.3,12.0 146.1,12.0 146.9,12.0 147.7,12.0 148.5,12.0 149.3,12.0 150.1,12.0 150.9,12.0 151.7,12.0 152.5,12.0 153.3,12.0 154.1,12.0 154.9,12.0 155.7,12.0 156.5,12.0 157.3,12.0 158.1,12.0 158.9,12.0 159.7,12.0 160.5,12.0 161.3,12.0 162.1,12.0 162.9,12.0 163.7,12.0 164.5,12.0 165.4,12.0 166.2,12.0 167.0,12.0 167.8,12.0 168.6,12.0 169.4,12.0 170.2,12.0 171.0,12.0 171.8,12.0 172.6,12.0 173.4,12.0 174.2,12.0 175.0,12.0 175.8,12.0 176.6,12.0 177.4,12.0 178.2,12.0 179.0,12.0 179.8,12.0 180.6,12.0 181.4,12.0 182.2,12.0 183.0,12.0 183.8,12.0 184.6,12.0 185.5,12.0 186.3,12.0 187.1,12.0 187.9,12.0 188.7,12.0 189.5,12.0 190.3,12.0 191.1,12.0 191.9,12.0 192.7,12.0 193.5,12.0 194.3,12.0 195.1,12.0 195.9,12.0 196.7,12.0 197.5,12.0 198.3,12.0 199.1,12.0 199.9,12.0 200.7,12.0 201.5,12.0 202.3,12.0 203.1,12.0 203.9,12.0 204.7,12.0 205.5,12.0 206.4,12.0 207.2,12.0 208.0,12.0 208.8,12.0 209.6,12.0 210.4,12.0 211.2,12.0 212.0,12.0 212.8,12.0 213.6,12.0 214.4,12.0 215.2,12.0 216.0,12.0 216.8,12.0 217.6,12.0 218.4,12.0 219.2,12.0 220.0,12.0 220.8,12.0 221.6,12.0 222.4,12.0 223.2,12.0 224.0,12.0 224.8,12.0 225.6,12.0 226.5,12.0 227.3,12.0 228.1,12.0 228.9,12.0 229.7,12.0 230.5,12.0 231.3,12.0 232.1,12.0 232.9,12.0 233.7,12.0 234.5,12.0 235.3,12.0 236.1,12.0 236.9,12.0 237.7,12.0 238.5,12.0 239.3,12.0 240.1,12.0 240.9,12.0 241.7,12.0 242.5,12.0 243.3,12.0 244.1,12.0 244.9,12.0 245.7,12.0 246.5,12.0 247.4,12.0 248.2,12.0 249.0,12.0 249.8,12.0 250.6,12.0 251.4,12.0 252.2,12.0 253.0,12.0 253.8,12.0 254.6,12.0 255.4,12.0 256.2,12.0 257.0,12.0" fill="none" stroke="#4a90d9" stroke-width="1.2" stroke-linejoin="round"/>
  <line x1="322" y1="12.0" x2="527" y2="12.0" stroke="#e5e7eb" stroke-width="0.5"/>
  <text x="318" y="15.0" text-anchor="end" font-size="7.5" fill="#6b7280">0</text>
  <line x1="322" y1="58.7" x2="527" y2="58.7" stroke="#e5e7eb" stroke-width="0.5"/>
  <text x="318" y="61.7" text-anchor="end" font-size="7.5" fill="#6b7280">-40</text>
  <line x1="322" y1="105.3" x2="527" y2="105.3" stroke="#e5e7eb" stroke-width="0.5"/>
  <text x="318" y="108.3" text-anchor="end" font-size="7.5" fill="#6b7280">-80</text>
  <line x1="322" y1="152.0" x2="527" y2="152.0" stroke="#e5e7eb" stroke-width="0.5"/>
  <text x="318" y="155.0" text-anchor="end" font-size="7.5" fill="#6b7280">-120</text>
  <line x1="322.0" y1="12" x2="322.0" y2="152" stroke="#e5e7eb" stroke-width="0.5"/>
  <text x="322.0" y="164" text-anchor="middle" font-size="7.5" fill="#6b7280">0</text>
  <line x1="363.0" y1="12" x2="363.0" y2="152" stroke="#e5e7eb" stroke-width="0.5"/>
  <text x="363.0" y="164" text-anchor="middle" font-size="7.5" fill="#6b7280">0.1</text>
  <line x1="404.0" y1="12" x2="404.0" y2="152" stroke="#e5e7eb" stroke-width="0.5"/>
  <text x="404.0" y="164" text-anchor="middle" font-size="7.5" fill="#6b7280">0.2</text>
  <line x1="445.0" y1="12" x2="445.0" y2="152" stroke="#e5e7eb" stroke-width="0.5"/>
  <text x="445.0" y="164" text-anchor="middle" font-size="7.5" fill="#6b7280">0.3</text>
  <line x1="486.0" y1="12" x2="486.0" y2="152" stroke="#e5e7eb" stroke-width="0.5"/>
  <text x="486.0" y="164" text-anchor="middle" font-size="7.5" fill="#6b7280">0.4</text>
  <line x1="527.0" y1="12" x2="527.0" y2="152" stroke="#e5e7eb" stroke-width="0.5"/>
  <text x="527.0" y="164" text-anchor="middle" font-size="7.5" fill="#6b7280">0.5</text>
  <line x1="322" y1="12" x2="322" y2="152" stroke="#d1d5db" stroke-width="0.75"/>
  <line x1="322" y1="152" x2="527" y2="152" stroke="#d1d5db" stroke-width="0.75"/>
  <polyline points="322.0,12.0 322.1,12.1 322.2,12.3 322.3,12.6 322.4,13.1 322.5,13.7 322.6,14.5 322.7,15.4 322.8,16.6 322.9,18.0 323.0,19.6 323.1,21.7 323.2,24.2 323.3,27.5 323.4,32.0 323.5,39.5 323.6,152.0 323.7,40.8 323.8,34.5 323.9,31.3 324.0,29.4 324.1,28.2 324.2,27.6 324.3,27.5 324.4,27.7 324.5,28.3 324.6,29.3 324.7,30.8 324.8,32.8 324.9,35.6 325.0,39.7 325.1,46.9 325.2,152.0 325.3,47.5 325.4,41.0 325.5,37.5 325.6,35.3 325.7,34.0 325.8,33.2 325.9,32.8 326.0,32.9 326.1,33.3 326.2,34.2 326.3,35.5 326.4,37.4 326.5,40.0 326.6,44.0 326.7,51.1 326.8,152.0 326.9,51.5 327.0,44.9 327.1,41.3 327.2,39.1 327.3,37.6 327.4,36.7 327.5,36.3 327.6,36.3 327.7,36.7 327.8,37.4 327.9,38.7 328.0,40.5 328.1,43.1 328.2,47.1 328.3,54.0 328.4,152.0 328.5,54.4 328.6,47.7 328.7,44.1 328.8,41.8 328.9,40.3 329.0,39.4 329.1,38.9 329.2,38.8 329.3,39.2 329.4,39.9 329.5,41.1 329.6,42.9 329.7,45.5 329.8,49.4 329.9,56.3 330.0,152.0 330.1,56.6 330.2,49.9 330.3,46.2 330.4,43.9 330.5,42.4 330.6,41.4 330.7,40.9 330.8,40.9 330.9,41.2 331.0,41.9 331.1,43.1 331.2,44.8 331.3,47.4 331.4,51.3 331.5,58.2 331.6,152.0 331.7,58.4 331.8,51.7 331.9,48.0 332.0,45.7 332.1,44.1 332.2,43.2 332.3,42.7 332.4,42.6 332.5,42.9 332.6,43.6 332.7,44.7 332.8,46.5 332.9,49.0 333.0,52.9 333.1,59.8 333.2,152.0 333.3,60.0 333.4,53.2 333.5,49.5 333.6,47.2 333.7,45.6 333.8,44.6 333.9,44.1 334.0,44.0 334.1,44.3 334.2,45.0 334.3,46.1 334.4,47.8 334.5,50.4 334.6,54.2 334.7,61.1 334.8,152.0 334.9,61.3 335.0,54.5 335.1,50.8 335.2,48.5 335.3,46.9 335.4,45.9 335.5,45.4 335.6,45.3 335.7,45.5 335.8,46.2 335.9,47.4 336.0,49.1 336.1,51.6 336.2,55.4 336.3,62.3 336.4,152.0 336.5,62.5 336.6,55.7 336.7,52.0 336.8,49.6 336.9,48.1 337.0,47.1 337.1,46.5 337.2,46.4 337.3,46.7 337.4,47.3 337.5,48.5 337.6,50.2 337.7,52.7 337.8,56.5 337.9,63.4 338.0,152.0 338.1,63.5 338.2,56.8 338.3,53.1 338.4,50.7 338.5,49.1 338.6,48.1 338.7,47.5 338.8,47.4 338.9,47.7 339.0,48.3 339.1,49.4 339.2,51.1 339.3,53.7 339.4,57.5 339.5,64.4 339.6,152.0 339.7,64.5 339.8,57.7 339.9,54.0 340.0,51.6 340.1,50.0 340.2,49.0 340.3,48.5 340.4,48.3 340.5,48.6 340.6,49.2 340.7,50.3 340.8,52.0 340.9,54.5 341.0,58.4 341.1,65.3 341.2,152.0 341.3,65.4 341.4,58.6 341.5,54.9 341.6,52.5 341.7,50.9 341.8,49.9 341.9,49.3 342.0,49.2 342.1,49.4 342.2,50.1 342.3,51.2 342.4,52.9 342.5,55.4 342.6,59.2 342.7,66.1 342.8,152.0 342.9,66.2 343.0,59.4 343.1,55.6 343.2,53.3 343.3,51.7 343.4,50.6 343.5,50.1 343.6,49.9 343.7,50.2 343.8,50.8 343.9,51.9 344.0,53.6 344.1,56.1 344.2,59.9 344.3,66.8 344.4,152.0 344.5,66.9 344.6,60.1 344.7,56.4 344.8,54.0 344.9,52.4 345.0,51.4 345.1,50.8 345.2,50.6 345.3,50.9 345.4,51.5 345.5,52.6 345.6,54.3 345.7,56.8 345.8,60.6 345.9,67.5 346.0,152.0 346.1,67.6 346.2,60.8 346.3,57.1 346.4,54.7 346.5,53.1 346.6,52.0 346.7,51.5 346.8,51.3 346.9,51.6 347.0,52.2 347.1,53.3 347.2,55.0 347.3,57.5 347.4,61.3 347.5,68.2 347.6,152.0 347.7,68.2 347.8,61.4 347.9,57.7 348.0,55.3 348.1,53.7 348.2,52.7 348.3,52.1 348.4,51.9 348.5,52.2 348.6,52.8 348.7,53.9 348.8,55.6 348.9,58.1 349.0,61.9 349.1,68.8 349.2,152.0 349.3,68.8 349.4,62.0 349.5,58.3 349.6,55.9 349.7,54.3 349.8,53.3 349.9,52.7 350.0,52.5 350.1,52.8 350.2,53.4 350.3,54.5 350.4,56.2 350.5,58.7 350.6,62.5 350.7,69.3 350.8,152.0 350.9,69.4 351.0,62.6 351.1,58.9 351.2,56.5 351.3,54.8 351.4,53.8 351.5,53.2 351.6,53.1 351.7,53.3 351.8,53.9 351.9,55.1 352.0,56.7 352.1,59.2 352.2,63.0 352.3,69.9 352.4,152.0 352.5,69.9 352.6,63.1 352.7,59.4 352.8,57.0 352.9,55.4 353.0,54.3 353.1,53.8 353.2,53.6 353.3,53.8 353.4,54.5 353.5,55.6 353.6,57.2 353.7,59.7 353.8,63.5 353.9,70.4 354.0,152.0 354.1,70.4 354.2,63.7 354.3,59.9 354.4,57.5 354.5,55.9 354.6,54.8 354.7,54.3 354.8,54.1 354.9,54.3 355.0,55.0 355.1,56.1 355.2,57.7 355.3,60.2 355.4,64.0 355.5,70.9 355.6,152.0 355.7,70.9 355.8,64.1 355.9,60.4 356.0,58.0 356.1,56.4 356.3,55.3 356.4,54.7 356.5,54.6 356.6,54.8 356.7,55.4 356.8,56.5 356.9,58.2 357.0,60.7 357.1,64.5 357.2,71.3 357.3,152.0 357.4,71.4 357.5,64.6 357.6,60.8 357.7,58.4 357.8,56.8 357.9,55.8 358.0,55.2 358.1,55.0 358.2,55.2 358.3,55.9 358.4,57.0 358.5,58.6 358.6,61.1 358.7,64.9 358.8,71.8 358.9,152.0 359.0,71.8 359.1,65.0 359.2,61.3 359.3,58.9 359.4,57.2 359.5,56.2 359.6,55.6 359.7,55.5 359.8,55.7 359.9,56.3 360.0,57.4 360.1,59.1 360.2,61.5 360.3,65.3 360.4,72.2 360.5,152.0 360.6,72.2 360.7,65.4 360.8,61.7 360.9,59.3 361.0,57.7 361.1,56.6 361.2,56.0 361.3,55.9 361.4,56.1 361.5,56.7 361.6,57.8 361.7,59.5 361.8,61.9 361.9,65.7 362.0,72.6 362.1,152.0 362.2,72.6 362.3,65.8 362.4,62.1 362.5,59.7 362.6,58.1 362.7,57.0 362.8,56.4 362.9,56.3 363.0,56.5 363.1,57.1 363.2,58.2 363.3,59.9 363.4,62.3 363.5,66.1 363.6,73.0 363.7,152.0 363.8,73.0 363.9,66.2 364.0,62.5 364.1,60.0 364.2,58.4 364.3,57.4 364.4,56.8 364.5,56.6 364.6,56.8 364.7,57.5 364.8,58.6 364.9,60.2 365.0,62.7 365.1,66.5 365.2,73.4 365.3,152.0 365.4,73.4 365.5,66.6 365.6,62.8 365.7,60.4 365.8,58.8 365.9,57.7 366.0,57.2 366.1,57.0 366.2,57.2 366.3,57.8 366.4,58.9 366.5,60.6 366.6,63.1 366.7,66.9 366.8,73.7 366.9,152.0 367.0,73.7 367.1,66.9 367.2,63.2 367.3,60.8 367.4,59.1 367.5,58.1 367.6,57.5 367.7,57.3 367.8,57.6 367.9,58.2 368.0,59.3 368.1,60.9 368.2,63.4 368.3,67.2 368.4,74.0 368.5,152.0 368.6,74.1 368.7,67.3 368.8,63.5 368.9,61.1 369.0,59.5 369.1,58.4 369.2,57.8 369.3,57.7 369.4,57.9 369.5,58.5 369.6,59.6 369.7,61.3 369.8,63.7 369.9,67.5 370.0,74.4 370.1,152.0 370.2,74.4 370.3,67.6 370.4,63.9 370.5,61.4 370.6,59.8 370.7,58.8 370.8,58.2 370.9,58.0 371.0,58.2 371.1,58.8 371.2,59.9 371.3,61.6 371.4,64.1 371.5,67.8 371.6,74.7 371.7,152.0 371.8,74.7 371.9,67.9 372.0,64.2 372.1,61.7 372.2,60.1 372.3,59.1 372.4,58.5 372.5,58.3 372.6,58.5 372.7,59.1 372.8,60.2 372.9,61.9 373.0,64.4 373.1,68.2 373.2,75.0 373.3,152.0 373.4,75.0 373.5,68.2 373.6,64.5 373.7,62.0 373.8,60.4 373.9,59.4 374.0,58.8 374.1,58.6 374.2,58.8 374.3,59.4 374.4,60.5 374.5,62.2 374.6,64.7 374.7,68.5 374.8,75.3 374.9,152.0 375.0,75.3 375.1,68.5 375.2,64.8 375.3,62.3 375.4,60.7 375.5,59.7 375.6,59.1 375.7,58.9 375.8,59.1 375.9,59.7 376.0,60.8 376.1,62.5 376.2,64.9 376.3,68.7 376.4,75.6 376.5,152.0 376.6,75.6 376.7,68.8 376.8,65.0 376.9,62.6 377.0,61.0 377.1,59.9 377.2,59.4 377.3,59.2 377.4,59.4 377.5,60.0 377.6,61.1 377.7,62.8 377.8,65.2 377.9,69.0 378.0,75.9 378.1,152.0 378.2,75.9 378.3,69.1 378.4,65.3 378.5,62.9 378.6,61.3 378.7,60.2 378.8,59.6 378.9,59.4 379.0,59.7 379.1,60.3 379.2,61.4 379.3,63.0 379.4,65.5 379.5,69.3 379.6,76.1 379.7,152.0 379.8,76.2 379.9,69.3 380.0,65.6 380.1,63.2 380.2,61.5 380.3,60.5 380.4,59.9 380.5,59.7 380.6,59.9 380.7,60.5 380.8,61.6 380.9,63.3 381.0,65.7 381.1,69.5 381.2,76.4 381.3,152.0 381.4,76.4 381.5,69.6 381.6,65.8 381.7,63.4 381.8,61.8 381.9,60.7 382.0,60.1 382.1,60.0 382.2,60.2 382.3,60.8 382.4,61.9 382.5,63.5 382.6,66.0 382.7,69.8 382.8,76.6 382.9,152.0 383.0,76.7 383.1,69.9 383.2,66.1 383.3,63.7 383.4,62.0 383.5,61.0 383.6,60.4 383.7,60.2 383.8,60.4 383.9,61.0 384.0,62.1 384.1,63.8 384.2,66.2 384.3,70.0 384.4,76.9 384.5,152.0 384.6,76.9 384.7,70.1 384.8,66.3 384.9,63.9 385.0,62.3 385.1,61.2 385.2,60.6 385.3,60.5 385.4,60.7 385.5,61.3 385.6,62.4 385.7,64.0 385.8,66.5 385.9,70.3 386.0,77.1 386.1,152.0 386.2,77.1 386.3,70.3 386.4,66.6 386.5,64.1 386.6,62.5 386.7,61.5 386.8,60.9 386.9,60.7 387.0,60.9 387.1,61.5 387.2,62.6 387.3,64.3 387.4,66.7 387.5,70.5 387.6,77.3 387.7,152.0 387.8,77.4 387.9,70.6 388.0,66.8 388.1,64.4 388.2,62.7 388.3,61.7 388.4,61.1 388.5,60.9 388.6,61.1 388.7,61.7 388.8,62.8 388.9,64.5 389.0,66.9 389.1,70.7 389.2,77.6 389.3,152.0 389.4,77.6 389.5,70.8 389.6,67.0 389.7,64.6 389.8,63.0 389.9,61.9 390.0,61.3 390.1,61.1 390.2,61.3 390.3,62.0 390.4,63.0 390.5,64.7 390.6,67.2 390.7,70.9 390.8,77.8 390.9,152.0 391.0,77.8 391.1,71.0 391.2,67.2 391.3,64.8 391.4,63.2 391.5,62.1 391.6,61.5 391.7,61.3 391.8,61.6 391.9,62.2 392.0,63.3 392.1,64.9 392.2,67.4 392.3,71.2 392.4,78.0 392.5,152.0 392.6,78.0 392.7,71.2 392.8,67.4 392.9,65.0 393.0,63.4 393.1,62.3 393.2,61.7 393.3,61.6 393.4,61.8 393.5,62.4 393.6,63.5 393.7,65.1 393.8,67.6 393.9,71.4 394.0,78.2 394.1,152.0 394.2,78.2 394.3,71.4 394.4,67.6 394.5,65.2 394.6,63.6 394.7,62.5 394.8,61.9 394.9,61.8 395.0,62.0 395.1,62.6 395.2,63.7 395.3,65.3 395.4,67.8 395.5,71.6 395.6,78.4 395.7,152.0 395.8,78.4 395.9,71.6 396.0,67.8 396.1,65.4 396.2,63.8 396.3,62.7 396.4,62.1 396.5,62.0 396.6,62.2 396.7,62.8 396.8,63.9 396.9,65.5 397.0,68.0 397.1,71.8 397.2,78.6 397.3,152.0 397.4,78.6 397.5,71.8 397.6,68.0 397.7,65.6 397.8,64.0 397.9,62.9 398.0,62.3 398.1,62.1 398.2,62.4 398.3,63.0 398.4,64.0 398.5,65.7 398.6,68.2 398.7,71.9 398.8,78.8 398.9,152.0 399.0,78.8 399.1,72.0 399.2,68.2 399.3,65.8 399.4,64.2 399.5,63.1 399.6,62.5 399.7,62.3 399.8,62.5 399.9,63.2 400.0,64.2 400.1,65.9 400.2,68.3 400.3,72.1 400.4,79.0 400.5,152.0 400.6,79.0 400.7,72.2 400.8,68.4 400.9,66.0 401.0,64.3 401.1,63.3 401.2,62.7 401.3,62.5 401.4,62.7 401.5,63.3 401.6,64.4 401.7,66.1 401.8,68.5 401.9,72.3 402.0,79.1 402.1,152.0 402.2,79.2 402.3,72.4 402.4,68.6 402.5,66.2 402.6,64.5 402.7,63.5 402.8,62.9 402.9,62.7 403.0,62.9 403.1,63.5 403.2,64.6 403.3,66.2 403.4,68.7 403.5,72.5 403.6,79.3 403.7,152.0 403.8,79.3 403.9,72.5 404.0,68.8 404.1,66.3 404.2,64.7 404.3,63.6 404.4,63.0 404.5,62.9 404.6,63.1 404.7,63.7 404.8,64.8 404.9,66.4 405.0,68.9 405.1,72.7 405.2,79.5 405.3,152.0 405.4,79.5 405.5,72.7 405.6,68.9 405.7,66.5 405.8,64.9 405.9,63.8 406.0,63.2 406.1,63.0 406.2,63.2 406.3,63.8 406.4,64.9 406.5,66.6 406.6,69.0 406.7,72.8 406.8,79.7 406.9,152.0 407.0,79.7 407.1,72.9 407.2,69.1 407.3,66.7 407.4,65.0 407.5,64.0 407.6,63.4 407.7,63.2 407.8,63.4 407.9,64.0 408.0,65.1 408.1,66.7 408.2,69.2 408.3,73.0 408.4,79.8 408.5,152.0 408.6,79.8 408.7,73.0 408.8,69.3 408.9,66.8 409.0,65.2 409.1,64.1 409.2,63.5 409.3,63.3 409.4,63.6 409.5,64.2 409.6,65.2 409.7,66.9 409.8,69.4 409.9,73.1 410.0,80.0 410.1,152.0 410.2,80.0 410.3,73.2 410.4,69.4 410.5,67.0 410.6,65.3 410.7,64.3 410.8,63.7 410.9,63.5 411.0,63.7 411.1,64.3 411.2,65.4 411.3,67.1 411.4,69.5 411.5,73.3 411.6,80.1 411.7,152.0 411.8,80.2 411.9,73.3 412.0,69.6 412.1,67.1 412.2,65.5 412.3,64.4 412.4,63.8 412.5,63.7 412.6,63.9 412.7,64.5 412.8,65.6 412.9,67.2 413.0,69.7 413.1,73.4 413.2,80.3 413.3,152.0 413.4,80.3 413.5,73.5 413.6,69.7 413.7,67.3 413.8,65.6 413.9,64.6 414.0,64.0 414.1,63.8 414.2,64.0 414.3,64.6 414.4,65.7 414.5,67.4 414.6,69.8 414.7,73.6 414.8,80.4 414.9,152.0 415.0,80.4 415.1,73.6 415.2,69.9 415.3,67.4 415.4,65.8 415.5,64.7 415.6,64.1 415.7,63.9 415.8,64.2 415.9,64.8 416.0,65.8 416.1,67.5 416.2,69.9 416.3,73.7 416.4,80.6 416.5,152.0 416.6,80.6 416.7,73.8 416.8,70.0 416.9,67.6 417.0,65.9 417.1,64.9 417.2,64.3 417.3,64.1 417.4,64.3 417.5,64.9 417.6,66.0 417.7,67.6 417.8,70.1 417.9,73.9 418.0,80.7 418.1,152.0 418.2,80.7 418.3,73.9 418.4,70.1 418.5,67.7 418.6,66.1 418.7,65.0 418.8,64.4 418.9,64.2 419.0,64.4 419.1,65.0 419.2,66.1 419.3,67.8 419.4,70.2 419.5,74.0 419.6,80.8 419.7,152.0 419.8,80.9 419.9,74.0 420.0,70.3 420.1,67.8 420.2,66.2 420.3,65.1 420.4,64.5 420.5,64.4 420.6,64.6 420.7,65.2 420.8,66.3 420.9,67.9 421.0,70.4 421.1,74.1 421.2,81.0 421.3,152.0 421.4,81.0 421.5,74.2 421.6,70.4 421.7,68.0 421.8,66.3 421.9,65.3 422.0,64.7 422.1,64.5 422.2,64.7 422.3,65.3 422.4,66.4 422.5,68.0 422.6,70.5 422.7,74.3 422.8,81.1 422.9,152.0 423.0,81.1 423.1,74.3 423.2,70.5 423.3,68.1 423.4,66.5 423.5,65.4 423.6,64.8 423.7,64.6 423.8,64.8 423.9,65.4 424.0,66.5 424.1,68.2 424.2,70.6 424.3,74.4 424.4,81.2 424.6,152.0 424.7,81.2 424.8,74.4 424.9,70.7 425.0,68.2 425.1,66.6 425.2,65.5 425.3,64.9 425.4,64.7 425.5,64.9 425.6,65.6 425.7,66.6 425.8,68.3 425.9,70.7 426.0,74.5 426.1,81.4 426.2,152.0 426.3,81.4 426.4,74.6 426.5,70.8 426.6,68.3 426.7,66.7 426.8,65.7 426.9,65.1 427.0,64.9 427.1,65.1 427.2,65.7 427.3,66.8 427.4,68.4 427.5,70.9 427.6,74.6 427.7,81.5 427.8,152.0 427.9,81.5 428.0,74.7 428.1,70.9 428.2,68.5 428.3,66.8 428.4,65.8 428.5,65.2 428.6,65.0 428.7,65.2 428.8,65.8 428.9,66.9 429.0,68.5 429.1,71.0 429.2,74.8 429.3,81.6 429.4,152.0 429.5,81.6 429.6,74.8 429.7,71.0 429.8,68.6 429.9,66.9 430.0,65.9 430.1,65.3 430.2,65.1 430.3,65.3 430.4,65.9 430.5,67.0 430.6,68.6 430.7,71.1 430.8,74.9 430.9,81.7 431.0,152.0 431.1,81.7 431.2,74.9 431.3,71.1 431.4,68.7 431.5,67.1 431.6,66.0 431.7,65.4 431.8,65.2 431.9,65.4 432.0,66.0 432.1,67.1 432.2,68.7 432.3,71.2 432.4,75.0 432.5,81.8 432.6,152.0 432.7,81.8 432.8,75.0 432.9,71.2 433.0,68.8 433.1,67.2 433.2,66.1 433.3,65.5 433.4,65.3 433.5,65.5 433.6,66.1 433.7,67.2 433.8,68.9 433.9,71.3 434.0,75.1 434.1,81.9 434.2,152.0 434.3,81.9 434.4,75.1 434.5,71.4 434.6,68.9 434.7,67.3 434.8,66.2 434.9,65.6 435.0,65.4 435.1,65.6 435.2,66.2 435.3,67.3 435.4,69.0 435.5,71.4 435.6,75.2 435.7,82.0 435.8,152.0 435.9,82.0 436.0,75.2 436.1,71.5 436.2,69.0 436.3,67.4 436.4,66.3 436.5,65.7 436.6,65.5 436.7,65.7 436.8,66.3 436.9,67.4 437.0,69.1 437.1,71.5 437.2,75.3 437.3,82.1 437.4,152.0 437.5,82.2 437.6,75.3 437.7,71.6 437.8,69.1 437.9,67.5 438.0,66.4 438.1,65.8 438.2,65.6 438.3,65.8 438.4,66.4 438.5,67.5 438.6,69.2 438.7,71.6 438.8,75.4 438.9,82.2 439.0,152.0 439.1,82.3 439.2,75.4 439.3,71.7 439.4,69.2 439.5,67.6 439.6,66.5 439.7,65.9 439.8,65.7 439.9,65.9 440.0,66.5 440.1,67.6 440.2,69.3 440.3,71.7 440.4,75.5 440.5,82.3 440.6,152.0 440.7,82.3 440.8,75.5 440.9,71.8 441.0,69.3 441.1,67.7 441.2,66.6 441.3,66.0 441.4,65.8 441.5,66.0 441.6,66.6 441.7,67.7 441.8,69.4 441.9,71.8 442.0,75.6 442.1,82.4 442.2,152.0 442.3,82.4 442.4,75.6 442.5,71.9 442.6,69.4 442.7,67.8 442.8,66.7 442.9,66.1 443.0,65.9 443.1,66.1 443.2,66.7 443.3,67.8 443.4,69.5 443.5,71.9 443.6,75.7 443.7,82.5 443.8,152.0 443.9,82.5 444.0,75.7 444.1,71.9 444.2,69.5 444.3,67.9 444.4,66.8 444.5,66.2 444.6,66.0 444.7,66.2 444.8,66.8 444.9,67.9 445.0,69.6 445.1,72.0 445.2,75.8 445.3,82.6 445.4,152.0 445.5,82.6 445.6,75.8 445.7,72.0 445.8,69.6 445.9,68.0 446.0,66.9 446.1,66.3 446.2,66.1 446.3,66.3 446.4,66.9 446.5,68.0 446.6,69.6 446.7,72.1 446.8,75.9 446.9,82.7 447.0,152.0 447.1,82.7 447.2,75.9 447.3,72.1 447.4,69.7 447.5,68.0 447.6,67.0 447.7,66.4 447.8,66.2 447.9,66.4 448.0,67.0 448.1,68.1 448.2,69.7 448.3,72.2 448.4,76.0 448.5,82.8 448.6,152.0 448.7,82.8 448.8,76.0 448.9,72.2 449.0,69.8 449.1,68.1 449.2,67.1 449.3,66.5 449.4,66.3 449.5,66.5 449.6,67.1 449.7,68.2 449.8,69.8 449.9,72.3 450.0,76.0 450.1,82.9 450.2,152.0 450.3,82.9 450.4,76.1 450.5,72.3 450.6,69.9 450.7,68.2 450.8,67.2 450.9,66.6 451.0,66.4 451.1,66.6 451.2,67.2 451.3,68.2 451.4,69.9 451.5,72.3 451.6,76.1 451.7,83.0 451.8,152.0 451.9,83.0 452.0,76.1 452.1,72.4 452.2,69.9 452.3,68.3 452.4,67.2 452.5,66.6 452.6,66.4 452.7,66.6 452.8,67.3 452.9,68.3 453.0,70.0 453.1,72.4 453.2,76.2 453.3,83.0 453.4,152.0 453.5,83.0 453.6,76.2 453.7,72.5 453.8,70.0 453.9,68.4 454.0,67.3 454.1,66.7 454.2,66.5 454.3,66.7 454.4,67.3 454.5,68.4 454.6,70.1 454.7,72.5 454.8,76.3 454.9,83.1 455.0,152.0 455.1,83.1 455.2,76.3 455.3,72.5 455.4,70.1 455.5,68.5 455.6,67.4 455.7,66.8 455.8,66.6 455.9,66.8 456.0,67.4 456.1,68.5 456.2,70.1 456.3,72.6 456.4,76.4 456.5,83.2 456.6,152.0 456.7,83.2 456.8,76.4 456.9,72.6 457.0,70.2 457.1,68.5 457.2,67.5 457.3,66.9 457.4,66.7 457.5,66.9 457.6,67.5 457.7,68.6 457.8,70.2 457.9,72.7 458.0,76.4 458.1,83.3 458.2,152.0 458.3,83.3 458.4,76.5 458.5,72.7 458.6,70.2 458.7,68.6 458.8,67.5 458.9,66.9 459.0,66.7 459.1,66.9 459.2,67.6 459.3,68.6 459.4,70.3 459.5,72.7 459.6,76.5 459.7,83.3 459.8,152.0 459.9,83.3 460.0,76.5 460.1,72.8 460.2,70.3 460.3,68.7 460.4,67.6 460.5,67.0 460.6,66.8 460.7,67.0 460.8,67.6 460.9,68.7 461.0,70.3 461.1,72.8 461.2,76.6 461.3,83.4 461.4,152.0 461.5,83.4 461.6,76.6 461.7,72.8 461.8,70.4 461.9,68.7 462.0,67.7 462.1,67.1 462.2,66.9 462.3,67.1 462.4,67.7 462.5,68.8 462.6,70.4 462.7,72.9 462.8,76.6 462.9,83.5 463.0,152.0 463.1,83.5 463.2,76.7 463.3,72.9 463.4,70.4 463.5,68.8 463.6,67.7 463.7,67.1 463.8,67.0 463.9,67.2 464.0,67.8 464.1,68.8 464.2,70.5 464.3,72.9 464.4,76.7 464.5,83.5 464.6,152.0 464.7,83.5 464.8,76.7 464.9,73.0 465.0,70.5 465.1,68.9 465.2,67.8 465.3,67.2 465.4,67.0 465.5,67.2 465.6,67.8 465.7,68.9 465.8,70.5 465.9,73.0 466.0,76.8 466.1,83.6 466.2,152.0 466.3,83.6 466.4,76.8 466.5,73.0 466.6,70.6 466.7,68.9 466.8,67.9 466.9,67.3 467.0,67.1 467.1,67.3 467.2,67.9 467.3,69.0 467.4,70.6 467.5,73.1 467.6,76.8 467.7,83.7 467.8,152.0 467.9,83.7 468.0,76.9 468.1,73.1 468.2,70.6 468.3,69.0 468.4,67.9 468.5,67.3 468.6,67.1 468.7,67.3 468.8,67.9 468.9,69.0 469.0,70.7 469.1,73.1 469.2,76.9 469.3,83.7 469.4,152.0 469.5,83.7 469.6,76.9 469.7,73.1 469.8,70.7 469.9,69.1 470.0,68.0 470.1,67.4 470.2,67.2 470.3,67.4 470.4,68.0 470.5,69.1 470.6,70.7 470.7,73.2 470.8,77.0 470.9,83.8 471.0,152.0 471.1,83.8 471.2,77.0 471.3,73.2 471.4,70.8 471.5,69.1 471.6,68.1 471.7,67.4 471.8,67.3 471.9,67.5 472.0,68.1 472.1,69.1 472.2,70.8 472.3,73.2 472.4,77.0 472.5,83.8 472.6,152.0 472.7,83.8 472.8,77.0 472.9,73.2 473.0,70.8 473.1,69.2 473.2,68.1 473.3,67.5 473.4,67.3 473.5,67.5 473.6,68.1 473.7,69.2 473.8,70.8 473.9,73.3 474.0,77.1 474.1,83.9 474.2,152.0 474.3,83.9 474.4,77.1 474.5,73.3 474.6,70.9 474.7,69.2 474.8,68.2 474.9,67.6 475.0,67.4 475.1,67.6 475.2,68.2 475.3,69.2 475.4,70.9 475.5,73.3 475.6,77.1 475.7,83.9 475.8,152.0 475.9,84.0 476.0,77.1 476.1,73.4 476.2,70.9 476.3,69.3 476.4,68.2 476.5,67.6 476.6,67.4 476.7,67.6 476.8,68.2 476.9,69.3 477.0,70.9 477.1,73.4 477.2,77.2 477.3,84.0 477.4,152.0 477.5,84.0 477.6,77.2 477.7,73.4 477.8,71.0 477.9,69.3 478.0,68.3 478.1,67.7 478.2,67.5 478.3,67.7 478.4,68.3 478.5,69.3 478.6,71.0 478.7,73.4 478.8,77.2 478.9,84.0 479.0,152.0 479.1,84.1 479.2,77.2 479.3,73.5 479.4,71.0 479.5,69.4 479.6,68.3 479.7,67.7 479.8,67.5 479.9,67.7 480.0,68.3 480.1,69.4 480.2,71.0 480.3,73.5 480.4,77.3 480.5,84.1 480.6,152.0 480.7,84.1 480.8,77.3 480.9,73.5 481.0,71.1 481.1,69.4 481.2,68.4 481.3,67.8 481.4,67.6 481.5,67.8 481.6,68.4 481.7,69.4 481.8,71.1 481.9,73.5 482.0,77.3 482.1,84.1 482.2,152.0 482.3,84.1 482.4,77.3 482.5,73.5 482.6,71.1 482.7,69.5 482.8,68.4 482.9,67.8 483.0,67.6 483.1,67.8 483.2,68.4 483.3,69.5 483.4,71.1 483.5,73.6 483.6,77.4 483.7,84.2 483.8,152.0 483.9,84.2 484.0,77.4 484.1,73.6 484.2,71.1 484.3,69.5 484.4,68.4 484.5,67.8 484.6,67.6 484.7,67.8 484.8,68.5 484.9,69.5 485.0,71.2 485.1,73.6 485.2,77.4 485.3,84.2 485.4,152.0 485.5,84.2 485.6,77.4 485.7,73.6 485.8,71.2 485.9,69.6 486.0,68.5 486.1,67.9 486.2,67.7 486.3,67.9 486.4,68.5 486.5,69.6 486.6,71.2 486.7,73.7 486.8,77.4 486.9,84.3 487.0,152.0 487.1,84.3 487.2,77.4 487.3,73.7 487.4,71.2 487.5,69.6 487.6,68.5 487.7,67.9 487.8,67.7 487.9,67.9 488.0,68.5 488.1,69.6 488.2,71.2 488.3,73.7 488.4,77.5 488.5,84.3 488.6,152.0 488.7,84.3 488.8,77.5 488.9,73.7 489.0,71.3 489.1,69.6 489.2,68.6 489.3,68.0 489.4,67.8 489.5,68.0 489.6,68.6 489.7,69.6 489.8,71.3 489.9,73.7 490.0,77.5 490.1,84.3 490.2,152.0 490.3,84.3 490.4,77.5 490.5,73.7 490.6,71.3 490.7,69.7 490.8,68.6 490.9,68.0 491.0,67.8 491.1,68.0 491.2,68.6 491.3,69.7 491.4,71.3 491.5,73.8 491.6,77.5 491.7,84.4 491.8,152.0 491.9,84.4 492.0,77.6 492.1,73.8 492.2,71.3 492.3,69.7 492.4,68.6 492.5,68.0 492.6,67.8 492.7,68.0 492.9,68.6 493.0,69.7 493.1,71.4 493.2,73.8 493.3,77.6 493.4,84.4 493.5,152.0 493.6,84.4 493.7,77.6 493.8,73.8 493.9,71.4 494.0,69.7 494.1,68.7 494.2,68.1 494.3,67.9 494.4,68.1 494.5,68.7 494.6,69.7 494.7,71.4 494.8,73.8 494.9,77.6 495.0,84.4 495.1,152.0 495.2,84.4 495.3,77.6 495.4,73.8 495.5,71.4 495.6,69.8 495.7,68.7 495.8,68.1 495.9,67.9 496.0,68.1 496.1,68.7 496.2,69.8 496.3,71.4 496.4,73.9 496.5,77.6 496.6,84.5 496.7,152.0 496.8,84.5 496.9,77.7 497.0,73.9 497.1,71.4 497.2,69.8 497.3,68.7 497.4,68.1 497.5,67.9 497.6,68.1 497.7,68.7 497.8,69.8 497.9,71.4 498.0,73.9 498.1,77.7 498.2,84.5 498.3,152.0 498.4,84.5 498.5,77.7 498.6,73.9 498.7,71.5 498.8,69.8 498.9,68.8 499.0,68.2 499.1,68.0 499.2,68.2 499.3,68.8 499.4,69.8 499.5,71.5 499.6,73.9 499.7,77.7 499.8,84.5 499.9,152.0 500.0,84.5 500.1,77.7 500.2,73.9 500.3,71.5 500.4,69.8 500.5,68.8 500.6,68.2 500.7,68.0 500.8,68.2 500.9,68.8 501.0,69.9 501.1,71.5 501.2,73.9 501.3,77.7 501.4,84.6 501.5,152.0 501.6,84.6 501.7,77.7 501.8,74.0 501.9,71.5 502.0,69.9 502.1,68.8 502.2,68.2 502.3,68.0 502.4,68.2 502.5,68.8 502.6,69.9 502.7,71.5 502.8,74.0 502.9,77.8 503.0,84.6 503.1,152.0 503.2,84.6 503.3,77.8 503.4,74.0 503.5,71.5 503.6,69.9 503.7,68.8 503.8,68.2 503.9,68.0 504.0,68.2 504.1,68.8 504.2,69.9 504.3,71.5 504.4,74.0 504.5,77.8 504.6,84.6 504.7,152.0 504.8,84.6 504.9,77.8 505.0,74.0 505.1,71.6 505.2,69.9 505.3,68.9 505.4,68.2 505.5,68.1 505.6,68.3 505.7,68.9 505.8,69.9 505.9,71.6 506.0,74.0 506.1,77.8 506.2,84.6 506.3,152.0 506.4,84.6 506.5,77.8 506.6,74.0 506.7,71.6 506.8,69.9 506.9,68.9 507.0,68.3 507.1,68.1 507.2,68.3 507.3,68.9 507.4,69.9 507.5,71.6 507.6,74.0 507.7,77.8 507.8,84.6 507.9,152.0 508.0,84.6 508.1,77.8 508.2,74.0 508.3,71.6 508.4,70.0 508.5,68.9 508.6,68.3 508.7,68.1 508.8,68.3 508.9,68.9 509.0,70.0 509.1,71.6 509.2,74.1 509.3,77.8 509.4,84.7 509.5,152.0 509.6,84.7 509.7,77.8 509.8,74.1 509.9,71.6 510.0,70.0 510.1,68.9 510.2,68.3 510.3,68.1 510.4,68.3 510.5,68.9 510.6,70.0 510.7,71.6 510.8,74.1 510.9,77.8 511.0,84.7 511.1,152.0 511.2,84.7 511.3,77.9 511.4,74.1 511.5,71.6 511.6,70.0 511.7,68.9 511.8,68.3 511.9,68.1 512.0,68.3 512.1,68.9 512.2,70.0 512.3,71.6 512.4,74.1 512.5,77.9 512.6,84.7 512.7,152.0 512.8,84.7 512.9,77.9 513.0,74.1 513.1,71.6 513.2,70.0 513.3,68.9 513.4,68.3 513.5,68.1 513.6,68.3 513.7,68.9 513.8,70.0 513.9,71.7 514.0,74.1 514.1,77.9 514.2,84.7 514.3,152.0 514.4,84.7 514.5,77.9 514.6,74.1 514.7,71.7 514.8,70.0 514.9,69.0 515.0,68.3 515.1,68.1 515.2,68.3 515.3,69.0 515.4,70.0 515.5,71.7 515.6,74.1 515.7,77.9 515.8,84.7 515.9,152.0 516.0,84.7 516.1,77.9 516.2,74.1 516.3,71.7 516.4,70.0 516.5,69.0 516.6,68.4 516.7,68.2 516.8,68.4 516.9,69.0 517.0,70.0 517.1,71.7 517.2,74.1 517.3,77.9 517.4,84.7 517.5,152.0 517.6,84.7 517.7,77.9 517.8,74.1 517.9,71.7 518.0,70.0 518.1,69.0 518.2,68.4 518.3,68.2 518.4,68.4 518.5,69.0 518.6,70.0 518.7,71.7 518.8,74.1 518.9,77.9 519.0,84.7 519.1,152.0 519.2,84.7 519.3,77.9 519.4,74.1 519.5,71.7 519.6,70.0 519.7,69.0 519.8,68.4 519.9,68.2 520.0,68.4 520.1,69.0 520.2,70.0 520.3,71.7 520.4,74.1 520.5,77.9 520.6,84.7 520.7,152.0 520.8,84.7 520.9,77.9 521.0,74.1 521.1,71.7 521.2,70.1 521.3,69.0 521.4,68.4 521.5,68.2 521.6,68.4 521.7,69.0 521.8,70.1 521.9,71.7 522.0,74.1 522.1,77.9 522.2,84.7 522.3,152.0 522.4,84.7 522.5,77.9 522.6,74.1 522.7,71.7 522.8,70.1 522.9,69.0 523.0,68.4 523.1,68.2 523.2,68.4 523.3,69.0 523.4,70.1 523.5,71.7 523.6,74.1 523.7,77.9 523.8,84.8 523.9,152.0 524.0,84.8 524.1,77.9 524.2,74.1 524.3,71.7 524.4,70.1 524.5,69.0 524.6,68.4 524.7,68.2 524.8,68.4 524.9,69.0 525.0,70.1 525.1,71.7 525.2,74.1 525.3,77.9 525.4,84.8 525.5,152.0 525.6,84.8 525.7,77.9 525.8,74.1 525.9,71.7 526.0,70.1 526.1,69.0 526.2,68.4 526.3,68.2 526.4,68.4 526.5,69.0 526.6,70.1 526.7,71.7 526.8,74.1 526.9,77.9 527.0,84.8" fill="none" stroke="#4a90d9" stroke-width="1.2" stroke-linejoin="round"/>
  <text x="154.5" y="176" text-anchor="middle" font-size="8" fill="#6b7280">n / N</text>
  <text x="424.5" y="176" text-anchor="middle" font-size="8" fill="#6b7280">Normalized frequency (× Fₛ)</text>
</svg>
