<svg xmlns="http://www.w3.org/2000/svg" viewBox="0 0 560 210" width="560" height="210" style="font-family:system-ui,-apple-system,sans-serif">
  <rect width="560" height="210" fill="#fafafa" rx="6"/>
  <text x="280" y="18" text-anchor="middle" font-size="12" font-weight="600" fill="#374151">taylor</text>
  <line x1="52" y1="166.0" x2="257" y2="166.0" stroke="#e5e7eb" stroke-width="0.5"/>
  <text x="48" y="169.0" text-anchor="end" font-size="7.5" fill="#6b7280">0</text>
  <line x1="52" y1="97.0" x2="257" y2="97.0" stroke="#e5e7eb" stroke-width="0.5"/>
  <text x="48" y="100.0" text-anchor="end" font-size="7.5" fill="#6b7280">0.5</text>
  <line x1="52" y1="28.0" x2="257" y2="28.0" stroke="#e5e7eb" stroke-width="0.5"/>
  <text x="48" y="31.0" text-anchor="end" font-size="7.5" fill="#6b7280">1</text>
  <line x1="52.0" y1="28" x2="52.0" y2="166" stroke="#e5e7eb" stroke-width="0.5"/>
  <text x="52.0" y="178" text-anchor="middle" font-size="7.5" fill="#6b7280">0</text>
  <line x1="154.5" y1="28" x2="154.5" y2="166" stroke="#e5e7eb" stroke-width="0.5"/>
  <text x="154.5" y="178" text-anchor="middle" font-size="7.5" fill="#6b7280">0.5</text>
  <line x1="257.0" y1="28" x2="257.0" y2="166" stroke="#e5e7eb" stroke-width="0.5"/>
  <text x="257.0" y="178" text-anchor="middle" font-size="7.5" fill="#6b7280">1</text>
  <line x1="52" y1="28" x2="52" y2="166" stroke="#d1d5db" stroke-width="0.75"/>
  <line x1="52" y1="166" x2="257" y2="166" stroke="#d1d5db" stroke-width="0.75"/>
  <path d="M52.0,166.0 52.0,83.2 52.8,83.2 53.6,83.4 54.4,83.7 55.2,84.0 56.0,84.5 56.8,85.0 57.6,85.6 58.4,86.2 59.2,87.0 60.0,87.8 60.8,88.6 61.6,89.5 62.5,90.5 63.3,91.5 64.1,92.5 64.9,93.6 65.7,94.7 66.5,95.8 67.3,96.9 68.1,98.0 68.9,99.1 69.7,100.2 70.5,101.2 71.3,102.2 72.1,103.2 72.9,104.2 73.7,105.1 74.5,105.9 75.3,106.7 76.1,107.4 76.9,108.0 77.7,108.5 78.5,109.0 79.3,109.3 80.1,109.6 80.9,109.7 81.7,109.7 82.5,109.7 83.4,109.5 84.2,109.2 85.0,108.8 85.8,108.2 86.6,107.6 87.4,106.8 88.2,105.9 89.0,104.9 89.8,103.8 90.6,102.6 91.4,101.3 92.2,99.8 93.0,98.3 93.8,96.7 94.6,94.9 95.4,93.1 96.2,91.2 97.0,89.3 97.8,87.2 98.6,85.1 99.4,83.0 100.2,80.8 101.0,78.6 101.8,76.3 102.6,74.0 103.5,71.7 104.3,69.4 105.1,67.1 105.9,64.8 106.7,62.5 107.5,60.3 108.3,58.1 109.1,55.9 109.9,53.7 110.7,51.6 111.5,49.6 112.3,47.6 113.1,45.7 113.9,43.9 114.7,42.2 115.5,40.6 116.3,39.0 117.1,37.5 117.9,36.2 118.7,34.9 119.5,33.8 120.3,32.7 121.1,31.8 121.9,30.9 122.7,30.2 123.5,29.6 124.4,29.1 125.2,28.7 126.0,28.4 126.8,28.1 127.6,28.0 128.4,28.0 129.2,28.1 130.0,28.2 130.8,28.5 131.6,28.8 132.4,29.1 133.2,29.6 134.0,30.1 134.8,30.6 135.6,31.2 136.4,31.9 137.2,32.5 138.0,33.2 138.8,34.0 139.6,34.7 140.4,35.4 141.2,36.2 142.0,36.9 142.8,37.6 143.6,38.3 144.5,39.0 145.3,39.7 146.1,40.3 146.9,40.9 147.7,41.4 148.5,41.9 149.3,42.3 150.1,42.7 150.9,43.0 151.7,43.3 152.5,43.5 153.3,43.6 154.1,43.7 154.9,43.7 155.7,43.6 156.5,43.5 157.3,43.3 158.1,43.0 158.9,42.7 159.7,42.3 160.5,41.9 161.3,41.4 162.1,40.9 162.9,40.3 163.7,39.7 164.5,39.0 165.4,38.3 166.2,37.6 167.0,36.9 167.8,36.2 168.6,35.4 169.4,34.7 170.2,34.0 171.0,33.2 171.8,32.5 172.6,31.9 173.4,31.2 174.2,30.6 175.0,30.1 175.8,29.6 176.6,29.1 177.4,28.8 178.2,28.5 179.0,28.2 179.8,28.1 180.6,28.0 181.4,28.0 182.2,28.1 183.0,28.4 183.8,28.7 184.6,29.1 185.5,29.6 186.3,30.2 187.1,30.9 187.9,31.8 188.7,32.7 189.5,33.8 190.3,34.9 191.1,36.2 191.9,37.5 192.7,39.0 193.5,40.6 194.3,42.2 195.1,43.9 195.9,45.7 196.7,47.6 197.5,49.6 198.3,51.6 199.1,53.7 199.9,55.9 200.7,58.1 201.5,60.3 202.3,62.5 203.1,64.8 203.9,67.1 204.7,69.4 205.5,71.7 206.4,74.0 207.2,76.3 208.0,78.6 208.8,80.8 209.6,83.0 210.4,85.1 211.2,87.2 212.0,89.3 212.8,91.2 213.6,93.1 214.4,94.9 215.2,96.7 216.0,98.3 216.8,99.8 217.6,101.3 218.4,102.6 219.2,103.8 220.0,104.9 220.8,105.9 221.6,106.8 222.4,107.6 223.2,108.2 224.0,108.8 224.8,109.2 225.6,109.5 226.5,109.7 227.3,109.7 228.1,109.7 228.9,109.6 229.7,109.3 230.5,109.0 231.3,108.5 232.1,108.0 232.9,107.4 233.7,106.7 234.5,105.9 235.3,105.1 236.1,104.2 236.9,103.2 237.7,102.2 238.5,101.2 239.3,100.2 240.1,99.1 240.9,98.0 241.7,96.9 242.5,95.8 243.3,94.7 244.1,93.6 244.9,92.5 245.7,91.5 246.5,90.5 247.4,89.5 248.2,88.6 249.0,87.8 249.8,87.0 250.6,86.2 251.4,85.6 252.2,85.0 253.0,84.5 253.8,84.0 254.6,83.7 255.4,83.4 256.2,83.2 257.0,83.2 L257.0,166.0 Z" fill="#4a90d9" fill-opacity="0.06"/>
  <polyline points="52.0,83.2 52.8,83.2 53.6,83.4 54.4,83.7 55.2,84.0 56.0,84.5 56.8,85.0 57.6,85.6 58.4,86.2 59.2,87.0 60.0,87.8 60.8,88.6 61.6,89.5 62.5,90.5 63.3,91.5 64.1,92.5 64.9,93.6 65.7,94.7 66.5,95.8 67.3,96.9 68.1,98.0 68.9,99.1 69.7,100.2 70.5,101.2 71.3,102.2 72.1,103.2 72.9,104.2 73.7,105.1 74.5,105.9 75.3,106.7 76.1,107.4 76.9,108.0 77.7,108.5 78.5,109.0 79.3,109.3 80.1,109.6 80.9,109.7 81.7,109.7 82.5,109.7 83.4,109.5 84.2,109.2 85.0,108.8 85.8,108.2 86.6,107.6 87.4,106.8 88.2,105.9 89.0,104.9 89.8,103.8 90.6,102.6 91.4,101.3 92.2,99.8 93.0,98.3 93.8,96.7 94.6,94.9 95.4,93.1 96.2,91.2 97.0,89.3 97.8,87.2 98.6,85.1 99.4,83.0 100.2,80.8 101.0,78.6 101.8,76.3 102.6,74.0 103.5,71.7 104.3,69.4 105.1,67.1 105.9,64.8 106.7,62.5 107.5,60.3 108.3,58.1 109.1,55.9 109.9,53.7 110.7,51.6 111.5,49.6 112.3,47.6 113.1,45.7 113.9,43.9 114.7,42.2 115.5,40.6 116.3,39.0 117.1,37.5 117.9,36.2 118.7,34.9 119.5,33.8 120.3,32.7 121.1,31.8 121.9,30.9 122.7,30.2 123.5,29.6 124.4,29.1 125.2,28.7 126.0,28.4 126.8,28.1 127.6,28.0 128.4,28.0 129.2,28.1 130.0,28.2 130.8,28.5 131.6,28.8 132.4,29.1 133.2,29.6 134.0,30.1 134.8,30.6 135.6,31.2 136.4,31.9 137.2,32.5 138.0,33.2 138.8,34.0 139.6,34.7 140.4,35.4 141.2,36.2 142.0,36.9 142.8,37.6 143.6,38.3 144.5,39.0 145.3,39.7 146.1,40.3 146.9,40.9 147.7,41.4 148.5,41.9 149.3,42.3 150.1,42.7 150.9,43.0 151.7,43.3 152.5,43.5 153.3,43.6 154.1,43.7 154.9,43.7 155.7,43.6 156.5,43.5 157.3,43.3 158.1,43.0 158.9,42.7 159.7,42.3 160.5,41.9 161.3,41.4 162.1,40.9 162.9,40.3 163.7,39.7 164.5,39.0 165.4,38.3 166.2,37.6 167.0,36.9 167.8,36.2 168.6,35.4 169.4,34.7 170.2,34.0 171.0,33.2 171.8,32.5 172.6,31.9 173.4,31.2 174.2,30.6 175.0,30.1 175.8,29.6 176.6,29.1 177.4,28.8 178.2,28.5 179.0,28.2 179.8,28.1 180.6,28.0 181.4,28.0 182.2,28.1 183.0,28.4 183.8,28.7 184.6,29.1 185.5,29.6 186.3,30.2 187.1,30.9 187.9,31.8 188.7,32.7 189.5,33.8 190.3,34.9 191.1,36.2 191.9,37.5 192.7,39.0 193.5,40.6 194.3,42.2 195.1,43.9 195.9,45.7 196.7,47.6 197.5,49.6 198.3,51.6 199.1,53.7 199.9,55.9 200.7,58.1 201.5,60.3 202.3,62.5 203.1,64.8 203.9,67.1 204.7,69.4 205.5,71.7 206.4,74.0 207.2,76.3 208.0,78.6 208.8,80.8 209.6,83.0 210.4,85.1 211.2,87.2 212.0,89.3 212.8,91.2 213.6,93.1 214.4,94.9 215.2,96.7 216.0,98.3 216.8,99.8 217.6,101.3 218.4,102.6 219.2,103.8 220.0,104.9 220.8,105.9 221.6,106.8 222.4,107.6 223.2,108.2 224.0,108.8 224.8,109.2 225.6,109.5 226.5,109.7 227.3,109.7 228.1,109.7 228.9,109.6 229.7,109.3 230.5,109.0 231.3,108.5 232.1,108.0 232.9,107.4 233.7,106.7 234.5,105.9 235.3,105.1 236.1,104.2 236.9,103.2 237.7,102.2 238.5,101.2 239.3,100.2 240.1,99.1 240.9,98.0 241.7,96.9 242.5,95.8 243.3,94.7 244.1,93.6 244.9,92.5 245.7,91.5 246.5,90.5 247.4,89.5 248.2,88.6 249.0,87.8 249.8,87.0 250.6,86.2 251.4,85.6 252.2,85.0 253.0,84.5 253.8,84.0 254.6,83.7 255.4,83.4 256.2,83.2 257.0,83.2" fill="none" stroke="#4a90d9" stroke-width="1.2" stroke-linejoin="round"/>
  <line x1="322" y1="28.0" x2="527" y2="28.0" stroke="#e5e7eb" stroke-width="0.5"/>
  <text x="318" y="31.0" text-anchor="end" font-size="7.5" fill="#6b7280">0</text>
  <line x1="322" y1="74.0" x2="527" y2="74.0" stroke="#e5e7eb" stroke-width="0.5"/>
  <text x="318" y="77.0" text-anchor="end" font-size="7.5" fill="#6b7280">-40</text>
  <line x1="322" y1="120.0" x2="527" y2="120.0" stroke="#e5e7eb" stroke-width="0.5"/>
  <text x="318" y="123.0" text-anchor="end" font-size="7.5" fill="#6b7280">-80</text>
  <line x1="322" y1="166.0" x2="527" y2="166.0" stroke="#e5e7eb" stroke-width="0.5"/>
  <text x="318" y="169.0" text-anchor="end" font-size="7.5" fill="#6b7280">-120</text>
  <line x1="322.0" y1="28" x2="322.0" y2="166" stroke="#e5e7eb" stroke-width="0.5"/>
  <text x="322.0" y="178" text-anchor="middle" font-size="7.5" fill="#6b7280">0</text>
  <line x1="363.0" y1="28" x2="363.0" y2="166" stroke="#e5e7eb" stroke-width="0.5"/>
  <text x="363.0" y="178" text-anchor="middle" font-size="7.5" fill="#6b7280">0.1</text>
  <line x1="404.0" y1="28" x2="404.0" y2="166" stroke="#e5e7eb" stroke-width="0.5"/>
  <text x="404.0" y="178" text-anchor="middle" font-size="7.5" fill="#6b7280">0.2</text>
  <line x1="445.0" y1="28" x2="445.0" y2="166" stroke="#e5e7eb" stroke-width="0.5"/>
  <text x="445.0" y="178" text-anchor="middle" font-size="7.5" fill="#6b7280">0.3</text>
  <line x1="486.0" y1="28" x2="486.0" y2="166" stroke="#e5e7eb" stroke-width="0.5"/>
  <text x="486.0" y="178" text-anchor="middle" font-size="7.5" fill="#6b7280">0.4</text>
  <line x1="527.0" y1="28" x2="527.0" y2="166" stroke="#e5e7eb" stroke-width="0.5"/>
  <text x="527.0" y="178" text-anchor="middle" font-size="7.5" fill="#6b7280">0.5</text>
  <line x1="322" y1="28" x2="322" y2="166" stroke="#d1d5db" stroke-width="0.75"/>
  <line x1="322" y1="166" x2="527" y2="166" stroke="#d1d5db" stroke-width="0.75"/>
  <polyline points="322.0,28.0 322.1,28.1 322.2,28.2 322.3,28.5 322.4,28.8 322.5,29.3 322.6,29.9 322.7,30.5 322.8,31.4 322.9,32.3 323.0,33.4 323.1,34.7 323.2,36.1 323.3,37.7 323.4,39.6 323.5,41.8 323.6,44.3 323.7,47.3 323.8,51.1 323.9,56.1 324.0,63.7 324.1,87.5 324.2,69.0 324.3,63.3 324.4,61.1 324.5,60.6 324.6,61.2 324.7,63.1 324.8,66.5 324.9,73.6 325.0,95.0 325.1,71.3 325.2,65.2 325.3,61.8 325.4,59.7 325.5,58.5 325.6,57.9 325.7,58.0 325.8,58.7 325.9,60.2 326.0,62.9 326.1,67.8 326.2,81.8 326.3,72.9 326.4,63.7 326.5,58.9 326.6,55.7 326.7,53.3 326.8,51.6 326.9,50.2 327.0,49.2 327.1,48.6 327.2,48.1 327.3,48.0 327.4,48.0 327.5,48.3 327.6,48.9 327.7,49.7 327.8,50.9 327.9,52.4 328.0,54.5 328.1,57.3 328.2,61.4 328.3,68.5 328.4,166.0 328.5,69.1 328.6,62.7 328.7,59.2 328.8,57.1 328.9,55.7 329.0,54.9 329.1,54.5 329.2,54.6 329.3,55.0 329.4,55.8 329.5,57.0 329.6,58.8 329.7,61.4 329.8,65.3 329.9,72.2 330.0,166.0 330.1,72.5 330.2,66.0 330.3,62.4 330.4,60.2 330.5,58.7 330.6,57.8 330.7,57.3 330.8,57.3 330.9,57.6 331.0,58.3 331.1,59.5 331.2,61.3 331.3,63.8 331.4,67.7 331.5,74.5 331.6,166.0 331.7,74.8 331.8,68.2 331.9,64.6 332.0,62.3 332.1,60.8 332.2,59.8 332.3,59.3 332.4,59.2 332.5,59.5 332.6,60.3 332.7,61.4 332.8,63.1 332.9,65.6 333.0,69.5 333.1,76.3 333.2,166.0 333.3,76.5 333.4,69.9 333.5,66.2 333.6,63.9 333.7,62.4 333.8,61.4 333.9,60.9 334.0,60.8 334.1,61.1 334.2,61.8 334.3,62.9 334.4,64.6 334.5,67.1 334.6,71.0 334.7,77.8 334.8,166.0 334.9,77.9 335.0,71.3 335.1,67.6 335.2,65.3 335.3,63.8 335.4,62.8 335.5,62.3 335.6,62.2 335.7,62.4 335.8,63.1 335.9,64.2 336.0,65.9 336.1,68.4 336.2,72.2 336.3,79.0 336.4,166.0 336.5,79.2 336.6,72.5 336.7,68.9 336.8,66.5 336.9,65.0 337.0,64.0 337.1,63.5 337.2,63.3 337.3,63.6 337.4,64.3 337.5,65.4 337.6,67.1 337.7,69.6 337.8,73.3 337.9,80.1 338.0,166.0 338.1,80.3 338.2,73.6 338.3,69.9 338.4,67.6 338.5,66.0 338.6,65.0 338.7,64.5 338.8,64.4 338.9,64.6 339.0,65.3 339.1,66.4 339.2,68.1 339.3,70.6 339.4,74.3 339.5,81.1 339.6,166.0 339.7,81.2 339.8,74.6 339.9,70.9 340.0,68.6 340.1,67.0 340.2,66.0 340.3,65.5 340.4,65.3 340.5,65.6 340.6,66.2 340.7,67.3 340.8,69.0 340.9,71.5 341.0,75.2 341.1,82.0 341.2,166.0 341.3,82.1 341.4,75.5 341.5,71.8 341.6,69.4 341.7,67.9 341.8,66.9 341.9,66.3 342.0,66.2 342.1,66.4 342.2,67.1 342.3,68.2 342.4,69.8 342.5,72.3 342.6,76.1 342.7,82.8 342.8,166.0 342.9,82.9 343.0,76.3 343.1,72.6 343.2,70.2 343.3,68.6 343.4,67.6 343.5,67.1 343.6,66.9 343.7,67.2 343.8,67.8 343.9,68.9 344.0,70.6 344.1,73.0 344.2,76.8 344.3,83.6 344.4,166.0 344.5,83.7 344.6,77.0 344.7,73.3 344.8,71.0 344.9,69.4 345.0,68.4 345.1,67.8 345.2,67.7 345.3,67.9 345.4,68.5 345.5,69.6 345.6,71.3 345.7,73.8 345.8,77.5 345.9,84.3 346.0,166.0 346.1,84.4 346.2,77.7 346.3,74.0 346.4,71.6 346.5,70.1 346.6,69.0 346.7,68.5 346.8,68.3 346.9,68.6 347.0,69.2 347.1,70.3 347.2,72.0 347.3,74.4 347.4,78.2 347.5,84.9 347.6,166.0 347.7,85.0 347.8,78.3 347.9,74.6 348.0,72.3 348.1,70.7 348.2,69.7 348.3,69.1 348.4,69.0 348.5,69.2 348.6,69.8 348.7,70.9 348.8,72.6 348.9,75.0 349.0,78.8 349.1,85.5 349.2,166.0 349.3,85.6 349.4,78.9 349.5,75.2 349.6,72.9 349.7,71.3 349.8,70.3 349.9,69.7 350.0,69.5 350.1,69.8 350.2,70.4 350.3,71.5 350.4,73.2 350.5,75.6 350.6,79.4 350.7,86.1 350.8,166.0 350.9,86.2 351.0,79.5 351.1,75.8 351.2,73.4 351.3,71.8 351.4,70.8 351.5,70.3 351.6,70.1 351.7,70.3 351.8,71.0 351.9,72.0 352.0,73.7 352.1,76.1 352.2,79.9 352.3,86.7 352.4,166.0 352.5,86.7 352.6,80.0 352.7,76.3 352.8,74.0 352.9,72.4 353.0,71.4 353.1,70.8 353.2,70.6 353.3,70.8 353.4,71.5 353.5,72.6 353.6,74.2 353.7,76.7 353.8,80.4 353.9,87.2 354.0,166.0 354.1,87.2 354.2,80.5 354.3,76.8 354.4,74.5 354.5,72.9 354.6,71.8 354.7,71.3 354.8,71.1 354.9,71.3 355.0,72.0 355.1,73.1 355.2,74.7 355.3,77.1 355.4,80.9 355.5,87.7 355.6,166.0 355.7,87.7 355.8,81.0 355.9,77.3 356.0,74.9 356.1,73.3 356.3,72.3 356.4,71.8 356.5,71.6 356.6,71.8 356.7,72.4 356.8,73.5 356.9,75.2 357.0,77.6 357.1,81.4 357.2,88.1 357.3,166.0 357.4,88.2 357.5,81.5 357.6,77.8 357.7,75.4 357.8,73.8 357.9,72.8 358.0,72.2 358.1,72.0 358.2,72.3 358.3,72.9 358.4,74.0 358.5,75.6 358.6,78.0 358.7,81.8 358.8,88.5 358.9,166.0 359.0,88.6 359.1,81.9 359.2,78.2 359.3,75.8 359.4,74.2 359.5,73.2 359.6,72.6 359.7,72.5 359.8,72.7 359.9,73.3 360.0,74.4 360.1,76.0 360.2,78.5 360.3,82.2 360.4,89.0 360.5,166.0 360.6,89.0 360.7,82.3 360.8,78.6 360.9,76.2 361.0,74.6 361.1,73.6 361.2,73.0 361.3,72.9 361.4,73.1 361.5,73.7 361.6,74.8 361.7,76.4 361.8,78.9 361.9,82.6 362.0,89.4 362.1,166.0 362.2,89.4 362.3,82.7 362.4,79.0 362.5,76.6 362.6,75.0 362.7,74.0 362.8,73.4 362.9,73.3 363.0,73.5 363.1,74.1 363.2,75.2 363.3,76.8 363.4,79.2 363.5,83.0 363.6,89.7 363.7,166.0 363.8,89.8 363.9,83.1 364.0,79.4 364.1,77.0 364.2,75.4 364.3,74.4 364.4,73.8 364.5,73.6 364.6,73.8 364.7,74.5 364.8,75.5 364.9,77.2 365.0,79.6 365.1,83.4 365.2,90.1 365.3,166.0 365.4,90.2 365.5,83.4 365.6,79.7 365.7,77.4 365.8,75.8 365.9,74.7 366.0,74.2 366.1,74.0 366.2,74.2 366.3,74.8 366.4,75.9 366.5,77.5 366.6,80.0 366.7,83.7 366.8,90.5 366.9,166.0 367.0,90.5 367.1,83.8 367.2,80.1 367.3,77.7 367.4,76.1 367.5,75.1 367.6,74.5 367.7,74.3 367.8,74.5 367.9,75.2 368.0,76.2 368.1,77.9 368.2,80.3 368.3,84.1 368.4,90.8 368.5,166.0 368.6,90.8 368.7,84.1 368.8,80.4 368.9,78.0 369.0,76.4 369.1,75.4 369.2,74.8 369.3,74.7 369.4,74.9 369.5,75.5 369.6,76.6 369.7,78.2 369.8,80.6 369.9,84.4 370.0,91.1 370.1,166.0 370.2,91.2 370.3,84.5 370.4,80.8 370.5,78.4 370.6,76.8 370.7,75.7 370.8,75.2 370.9,75.0 371.0,75.2 371.1,75.8 371.2,76.9 371.3,78.5 371.4,81.0 371.5,84.7 371.6,91.4 371.7,166.0 371.8,91.5 371.9,84.8 372.0,81.1 372.1,78.7 372.2,77.1 372.3,76.0 372.4,75.5 372.5,75.3 372.6,75.5 372.7,76.1 372.8,77.2 372.9,78.8 373.0,81.3 373.1,85.0 373.2,91.7 373.3,166.0 373.4,91.8 373.5,85.1 373.6,81.4 373.7,79.0 373.8,77.4 373.9,76.3 374.0,75.8 374.1,75.6 374.2,75.8 374.3,76.4 374.4,77.5 374.5,79.1 374.6,81.5 374.7,85.3 374.8,92.0 374.9,166.0 375.0,92.1 375.1,85.4 375.2,81.7 375.3,79.3 375.4,77.7 375.5,76.6 375.6,76.0 375.7,75.9 375.8,76.1 375.9,76.7 376.0,77.8 376.1,79.4 376.2,81.8 376.3,85.6 376.4,92.3 376.5,166.0 376.6,92.4 376.7,85.6 376.8,81.9 376.9,79.5 377.0,77.9 377.1,76.9 377.2,76.3 377.3,76.2 377.4,76.4 377.5,77.0 377.6,78.0 377.7,79.7 377.8,82.1 377.9,85.8 378.0,92.6 378.1,166.0 378.2,92.6 378.3,85.9 378.4,82.2 378.5,79.8 378.6,78.2 378.7,77.2 378.8,76.6 378.9,76.4 379.0,76.6 379.1,77.2 379.2,78.3 379.3,79.9 379.4,82.4 379.5,86.1 379.6,92.9 379.7,166.0 379.8,92.9 379.9,86.2 380.0,82.5 380.1,80.1 380.2,78.5 380.3,77.4 380.4,76.9 380.5,76.7 380.6,76.9 380.7,77.5 380.8,78.6 380.9,80.2 381.0,82.6 381.1,86.4 381.2,93.1 381.3,166.0 381.4,93.1 381.5,86.4 381.6,82.7 381.7,80.3 381.8,78.7 381.9,77.7 382.0,77.1 382.1,76.9 382.2,77.1 382.3,77.8 382.4,78.8 382.5,80.5 382.6,82.9 382.7,86.6 382.8,93.4 382.9,166.0 383.0,93.4 383.1,86.7 383.2,83.0 383.3,80.6 383.4,79.0 383.5,77.9 383.6,77.4 383.7,77.2 383.8,77.4 383.9,78.0 384.0,79.1 384.1,80.7 384.2,83.1 384.3,86.9 384.4,93.6 384.5,166.0 384.6,93.6 384.7,86.9 384.8,83.2 384.9,80.8 385.0,79.2 385.1,78.2 385.2,77.6 385.3,77.4 385.4,77.6 385.5,78.2 385.6,79.3 385.7,80.9 385.8,83.4 385.9,87.1 386.0,93.8 386.1,166.0 386.2,93.9 386.3,87.2 386.4,83.4 386.5,81.0 386.6,79.4 386.7,78.4 386.8,77.8 386.9,77.6 387.0,77.9 387.1,78.5 387.2,79.5 387.3,81.2 387.4,83.6 387.5,87.3 387.6,94.1 387.7,166.0 387.8,94.1 387.9,87.4 388.0,83.7 388.1,81.3 388.2,79.7 388.3,78.6 388.4,78.0 388.5,77.9 388.6,78.1 388.7,78.7 388.8,79.8 388.9,81.4 389.0,83.8 389.1,87.5 389.2,94.3 389.3,166.0 389.4,94.3 389.5,87.6 389.6,83.9 389.7,81.5 389.8,79.9 389.9,78.8 390.0,78.3 390.1,78.1 390.2,78.3 390.3,78.9 390.4,80.0 390.5,81.6 390.6,84.0 390.7,87.8 390.8,94.5 390.9,166.0 391.0,94.5 391.1,87.8 391.2,84.1 391.3,81.7 391.4,80.1 391.5,79.1 391.6,78.5 391.7,78.3 391.8,78.5 391.9,79.1 392.0,80.2 392.1,81.8 392.2,84.2 392.3,88.0 392.4,94.7 392.5,166.0 392.6,94.7 392.7,88.0 392.8,84.3 392.9,81.9 393.0,80.3 393.1,79.3 393.2,78.7 393.3,78.5 393.4,78.7 393.5,79.3 393.6,80.4 393.7,82.0 393.8,84.4 393.9,88.2 394.0,94.9 394.1,166.0 394.2,94.9 394.3,88.2 394.4,84.5 394.5,82.1 394.6,80.5 394.7,79.5 394.8,78.9 394.9,78.7 395.0,78.9 395.1,79.5 395.2,80.6 395.3,82.2 395.4,84.6 395.5,88.4 395.6,95.1 395.7,166.0 395.8,95.1 395.9,88.4 396.0,84.7 396.1,82.3 396.2,80.7 396.3,79.7 396.4,79.1 396.5,78.9 396.6,79.1 396.7,79.7 396.8,80.8 396.9,82.4 397.0,84.8 397.1,88.6 397.2,95.3 397.3,166.0 397.4,95.3 397.5,88.6 397.6,84.9 397.7,82.5 397.8,80.9 397.9,79.8 398.0,79.3 398.1,79.1 398.2,79.3 398.3,79.9 398.4,81.0 398.5,82.6 398.6,85.0 398.7,88.7 398.8,95.5 398.9,166.0 399.0,95.5 399.1,88.8 399.2,85.1 399.3,82.7 399.4,81.1 399.5,80.0 399.6,79.4 399.7,79.3 399.8,79.5 399.9,80.1 400.0,81.1 400.1,82.8 400.2,85.2 400.3,88.9 400.4,95.7 400.5,166.0 400.6,95.7 400.7,89.0 400.8,85.3 400.9,82.9 401.0,81.3 401.1,80.2 401.2,79.6 401.3,79.4 401.4,79.6 401.5,80.3 401.6,81.3 401.7,82.9 401.8,85.4 401.9,89.1 402.0,95.8 402.1,166.0 402.2,95.9 402.3,89.1 402.4,85.4 402.5,83.0 402.6,81.4 402.7,80.4 402.8,79.8 402.9,79.6 403.0,79.8 403.1,80.4 403.2,81.5 403.3,83.1 403.4,85.5 403.5,89.3 403.6,96.0 403.7,166.0 403.8,96.0 403.9,89.3 404.0,85.6 404.1,83.2 404.2,81.6 404.3,80.6 404.4,80.0 404.5,79.8 404.6,80.0 404.7,80.6 404.8,81.7 404.9,83.3 405.0,85.7 405.1,89.4 405.2,96.2 405.3,166.0 405.4,96.2 405.5,89.5 405.6,85.8 405.7,83.4 405.8,81.8 405.9,80.7 406.0,80.1 406.1,80.0 406.2,80.2 406.3,80.8 406.4,81.8 406.5,83.5 406.6,85.9 406.7,89.6 406.8,96.3 406.9,166.0 407.0,96.4 407.1,89.6 407.2,85.9 407.3,83.5 407.4,81.9 407.5,80.9 407.6,80.3 407.7,80.1 407.8,80.3 407.9,80.9 408.0,82.0 408.1,83.6 408.2,86.0 408.3,89.8 408.4,96.5 408.5,166.0 408.6,96.5 408.7,89.8 408.8,86.1 408.9,83.7 409.0,82.1 409.1,81.0 409.2,80.5 409.3,80.3 409.4,80.5 409.5,81.1 409.6,82.1 409.7,83.8 409.8,86.2 409.9,89.9 410.0,96.7 410.1,166.0 410.2,96.7 410.3,90.0 410.4,86.2 410.5,83.8 410.6,82.2 410.7,81.2 410.8,80.6 410.9,80.4 411.0,80.6 411.1,81.2 411.2,82.3 411.3,83.9 411.4,86.3 411.5,90.1 411.6,96.8 411.7,166.0 411.8,96.8 411.9,90.1 412.0,86.4 412.1,84.0 412.2,82.4 412.3,81.3 412.4,80.8 412.5,80.6 412.6,80.8 412.7,81.4 412.8,82.4 412.9,84.1 413.0,86.5 413.1,90.2 413.2,97.0 413.3,166.0 413.4,97.0 413.5,90.3 413.6,86.5 413.7,84.1 413.8,82.5 413.9,81.5 414.0,80.9 414.1,80.7 414.2,80.9 414.3,81.5 414.4,82.6 414.5,84.2 414.6,86.6 414.7,90.4 414.8,97.1 414.9,166.0 415.0,97.1 415.1,90.4 415.2,86.7 415.3,84.3 415.4,82.7 415.5,81.6 415.6,81.0 415.7,80.9 415.8,81.1 415.9,81.7 416.0,82.7 416.1,84.4 416.2,86.8 416.3,90.5 416.4,97.2 416.5,166.0 416.6,97.3 416.7,90.5 416.8,86.8 416.9,84.4 417.0,82.8 417.1,81.8 417.2,81.2 417.3,81.0 417.4,81.2 417.5,81.8 417.6,82.9 417.7,84.5 417.8,86.9 417.9,90.6 418.0,97.4 418.1,166.0 418.2,97.4 418.3,90.7 418.4,87.0 418.5,84.6 418.6,83.0 418.7,81.9 418.8,81.3 418.9,81.1 419.0,81.3 419.1,81.9 419.2,83.0 419.3,84.6 419.4,87.0 419.5,90.8 419.6,97.5 419.7,166.0 419.8,97.5 419.9,90.8 420.0,87.1 420.1,84.7 420.2,83.1 420.3,82.0 420.4,81.5 420.5,81.3 420.6,81.5 420.7,82.1 420.8,83.1 420.9,84.8 421.0,87.2 421.1,90.9 421.2,97.7 421.3,166.0 421.4,97.7 421.5,90.9 421.6,87.2 421.7,84.8 421.8,83.2 421.9,82.2 422.0,81.6 422.1,81.4 422.2,81.6 422.3,82.2 422.4,83.3 422.5,84.9 422.6,87.3 422.7,91.0 422.8,97.8 422.9,166.0 423.0,97.8 423.1,91.1 423.2,87.4 423.3,85.0 423.4,83.3 423.5,82.3 423.6,81.7 423.7,81.5 423.8,81.7 423.9,82.3 424.0,83.4 424.1,85.0 424.2,87.4 424.3,91.2 424.4,97.9 424.6,166.0 424.7,97.9 424.8,91.2 424.9,87.5 425.0,85.1 425.1,83.5 425.2,82.4 425.3,81.8 425.4,81.6 425.5,81.8 425.6,82.5 425.7,83.5 425.8,85.1 425.9,87.6 426.0,91.3 426.1,98.0 426.2,166.0 426.3,98.0 426.4,91.3 426.5,87.6 426.6,85.2 426.7,83.6 426.8,82.5 426.9,82.0 427.0,81.8 427.1,82.0 427.2,82.6 427.3,83.6 427.4,85.3 427.5,87.7 427.6,91.4 427.7,98.1 427.8,166.0 427.9,98.2 428.0,91.4 428.1,87.7 428.2,85.3 428.3,83.7 428.4,82.7 428.5,82.1 428.6,81.9 428.7,82.1 428.8,82.7 428.9,83.7 429.0,85.4 429.1,87.8 429.2,91.5 429.3,98.3 429.4,166.0 429.5,98.3 429.6,91.5 429.7,87.8 429.8,85.4 429.9,83.8 430.0,82.8 430.1,82.2 430.2,82.0 430.3,82.2 430.4,82.8 430.5,83.9 430.6,85.5 430.7,87.9 430.8,91.6 430.9,98.4 431.0,166.0 431.1,98.4 431.2,91.7 431.3,87.9 431.4,85.5 431.5,83.9 431.6,82.9 431.7,82.3 431.8,82.1 431.9,82.3 432.0,82.9 432.1,84.0 432.2,85.6 432.3,88.0 432.4,91.7 432.5,98.5 432.6,166.0 432.7,98.5 432.8,91.8 432.9,88.1 433.0,85.7 433.1,84.0 433.2,83.0 433.3,82.4 433.4,82.2 433.5,82.4 433.6,83.0 433.7,84.1 433.8,85.7 433.9,88.1 434.0,91.9 434.1,98.6 434.2,166.0 434.3,98.6 434.4,91.9 434.5,88.2 434.6,85.8 434.7,84.1 434.8,83.1 434.9,82.5 435.0,82.3 435.1,82.5 435.2,83.1 435.3,84.2 435.4,85.8 435.5,88.2 435.6,92.0 435.7,98.7 435.8,166.0 435.9,98.7 436.0,92.0 436.1,88.3 436.2,85.9 436.3,84.3 436.4,83.2 436.5,82.6 436.6,82.4 436.7,82.6 436.8,83.2 436.9,84.3 437.0,85.9 437.1,88.3 437.2,92.1 437.3,98.8 437.4,166.0 437.5,98.8 437.6,92.1 437.7,88.4 437.8,86.0 437.9,84.4 438.0,83.3 438.1,82.7 438.2,82.5 438.3,82.7 438.4,83.3 438.5,84.4 438.6,86.0 438.7,88.4 438.8,92.2 438.9,98.9 439.0,166.0 439.1,98.9 439.2,92.2 439.3,88.5 439.4,86.1 439.5,84.4 439.6,83.4 439.7,82.8 439.8,82.6 439.9,82.8 440.0,83.4 440.1,84.5 440.2,86.1 440.3,88.5 440.4,92.3 440.5,99.0 440.6,166.0 440.7,99.0 440.8,92.3 440.9,88.6 441.0,86.2 441.1,84.5 441.2,83.5 441.3,82.9 441.4,82.7 441.5,82.9 441.6,83.5 441.7,84.6 441.8,86.2 441.9,88.6 442.0,92.4 442.1,99.1 442.2,166.0 442.3,99.1 442.4,92.4 442.5,88.7 442.6,86.3 442.7,84.6 442.8,83.6 442.9,83.0 443.0,82.8 443.1,83.0 443.2,83.6 443.3,84.7 443.4,86.3 443.5,88.7 443.6,92.4 443.7,99.2 443.8,166.0 443.9,99.2 444.0,92.5 444.1,88.7 444.2,86.3 444.3,84.7 444.4,83.7 444.5,83.1 444.6,82.9 444.7,83.1 444.8,83.7 444.9,84.8 445.0,86.4 445.1,88.8 445.2,92.5 445.3,99.3 445.4,166.0 445.5,99.3 445.6,92.6 445.7,88.8 445.8,86.4 445.9,84.8 446.0,83.8 446.1,83.2 446.2,83.0 446.3,83.2 446.4,83.8 446.5,84.9 446.6,86.5 446.7,88.9 446.8,92.6 446.9,99.4 447.0,166.0 447.1,99.4 447.2,92.6 447.3,88.9 447.4,86.5 447.5,84.9 447.6,83.9 447.7,83.3 447.8,83.1 447.9,83.3 448.0,83.9 448.1,84.9 448.2,86.6 448.3,89.0 448.4,92.7 448.5,99.4 448.6,166.0 448.7,99.5 448.8,92.7 448.9,89.0 449.0,86.6 449.1,85.0 449.2,83.9 449.3,83.4 449.4,83.2 449.5,83.4 449.6,84.0 449.7,85.0 449.8,86.6 449.9,89.1 450.0,92.8 450.1,99.5 450.2,166.0 450.3,99.5 450.4,92.8 450.5,89.1 450.6,86.7 450.7,85.1 450.8,84.0 450.9,83.4 451.0,83.2 451.1,83.4 451.2,84.0 451.3,85.1 451.4,86.7 451.5,89.1 451.6,92.9 451.7,99.6 451.8,166.0 451.9,99.6 452.0,92.9 452.1,89.2 452.2,86.8 452.3,85.2 452.4,84.1 452.5,83.5 452.6,83.3 452.7,83.5 452.8,84.1 452.9,85.2 453.0,86.8 453.1,89.2 453.2,92.9 453.3,99.7 453.4,166.0 453.5,99.7 453.6,93.0 453.7,89.3 453.8,86.8 453.9,85.2 454.0,84.2 454.1,83.6 454.2,83.4 454.3,83.6 454.4,84.2 454.5,85.3 454.6,86.9 454.7,89.3 454.8,93.0 454.9,99.8 455.0,166.0 455.1,99.8 455.2,93.0 455.3,89.3 455.4,86.9 455.5,85.3 455.6,84.3 455.7,83.7 455.8,83.5 455.9,83.7 456.0,84.3 456.1,85.3 456.2,87.0 456.3,89.4 456.4,93.1 456.5,99.8 456.6,166.0 456.7,99.8 456.8,93.1 456.9,89.4 457.0,87.0 457.1,85.4 457.2,84.3 457.3,83.7 457.4,83.6 457.5,83.8 457.6,84.4 457.7,85.4 457.8,87.0 457.9,89.4 458.0,93.2 458.1,99.9 458.2,166.0 458.3,99.9 458.4,93.2 458.5,89.5 458.6,87.1 458.7,85.5 458.8,84.4 458.9,83.8 459.0,83.6 459.1,83.8 459.2,84.4 459.3,85.5 459.4,87.1 459.5,89.5 459.6,93.2 459.7,100.0 459.8,166.0 459.9,100.0 460.0,93.3 460.1,89.5 460.2,87.1 460.3,85.5 460.4,84.5 460.5,83.9 460.6,83.7 460.7,83.9 460.8,84.5 460.9,85.5 461.0,87.2 461.1,89.6 461.2,93.3 461.3,100.0 461.4,166.0 461.5,100.1 461.6,93.3 461.7,89.6 461.8,87.2 461.9,85.6 462.0,84.5 462.1,84.0 462.2,83.8 462.3,84.0 462.4,84.6 462.5,85.6 462.6,87.2 462.7,89.7 462.8,93.4 462.9,100.1 463.0,166.0 463.1,100.1 463.2,93.4 463.3,89.7 463.4,87.3 463.5,85.7 463.6,84.6 463.7,84.0 463.8,83.8 463.9,84.0 464.0,84.6 464.1,85.7 464.2,87.3 464.3,89.7 464.4,93.4 464.5,100.2 464.6,166.0 464.7,100.2 464.8,93.5 464.9,89.7 465.0,87.3 465.1,85.7 465.2,84.7 465.3,84.1 465.4,83.9 465.5,84.1 465.6,84.7 465.7,85.7 465.8,87.4 465.9,89.8 466.0,93.5 466.1,100.2 466.2,166.0 466.3,100.2 466.4,93.5 466.5,89.8 466.6,87.4 466.7,85.8 466.8,84.7 466.9,84.1 467.0,84.0 467.1,84.1 467.2,84.8 467.3,85.8 467.4,87.4 467.5,89.8 467.6,93.6 467.7,100.3 467.8,166.0 467.9,100.3 468.0,93.6 468.1,89.9 468.2,87.5 468.3,85.8 468.4,84.8 468.5,84.2 468.6,84.0 468.7,84.2 468.8,84.8 468.9,85.9 469.0,87.5 469.1,89.9 469.2,93.6 469.3,100.4 469.4,166.0 469.5,100.4 469.6,93.6 469.7,89.9 469.8,87.5 469.9,85.9 470.0,84.9 470.1,84.3 470.2,84.1 470.3,84.3 470.4,84.9 470.5,85.9 470.6,87.5 470.7,90.0 470.8,93.7 470.9,100.4 471.0,166.0 471.1,100.4 471.2,93.7 471.3,90.0 471.4,87.6 471.5,86.0 471.6,84.9 471.7,84.3 471.8,84.1 471.9,84.3 472.0,84.9 472.1,86.0 472.2,87.6 472.3,90.0 472.4,93.7 472.5,100.5 472.6,166.0 472.7,100.5 472.8,93.8 472.9,90.0 473.0,87.6 473.1,86.0 473.2,85.0 473.3,84.4 473.4,84.2 473.5,84.4 473.6,85.0 473.7,86.0 473.8,87.7 473.9,90.1 474.0,93.8 474.1,100.5 474.2,166.0 474.3,100.5 474.4,93.8 474.5,90.1 474.6,87.7 474.7,86.1 474.8,85.0 474.9,84.4 475.0,84.2 475.1,84.4 475.2,85.0 475.3,86.1 475.4,87.7 475.5,90.1 475.6,93.8 475.7,100.6 475.8,166.0 475.9,100.6 476.0,93.9 476.1,90.1 476.2,87.7 476.3,86.1 476.4,85.1 476.5,84.5 476.6,84.3 476.7,84.5 476.8,85.1 476.9,86.1 477.0,87.8 477.1,90.2 477.2,93.9 477.3,100.6 477.4,166.0 477.5,100.6 477.6,93.9 477.7,90.2 477.8,87.8 477.9,86.2 478.0,85.1 478.1,84.5 478.2,84.3 478.3,84.5 478.4,85.1 478.5,86.2 478.6,87.8 478.7,90.2 478.8,93.9 478.9,100.7 479.0,166.0 479.1,100.7 479.2,94.0 479.3,90.2 479.4,87.8 479.5,86.2 479.6,85.2 479.7,84.6 479.8,84.4 479.9,84.6 480.0,85.2 480.1,86.2 480.2,87.9 480.3,90.3 480.4,94.0 480.5,100.7 480.6,166.0 480.7,100.7 480.8,94.0 480.9,90.3 481.0,87.9 481.1,86.3 481.2,85.2 481.3,84.6 481.4,84.4 481.5,84.6 481.6,85.2 481.7,86.3 481.8,87.9 481.9,90.3 482.0,94.0 482.1,100.8 482.2,166.0 482.3,100.8 482.4,94.0 482.5,90.3 482.6,87.9 482.7,86.3 482.8,85.3 482.9,84.7 483.0,84.5 483.1,84.7 483.2,85.3 483.3,86.3 483.4,87.9 483.5,90.4 483.6,94.1 483.7,100.8 483.8,166.0 483.9,100.8 484.0,94.1 484.1,90.4 484.2,88.0 484.3,86.3 484.4,85.3 484.5,84.7 484.6,84.5 484.7,84.7 484.8,85.3 484.9,86.4 485.0,88.0 485.1,90.4 485.2,94.1 485.3,100.9 485.4,166.0 485.5,100.9 485.6,94.1 485.7,90.4 485.8,88.0 485.9,86.4 486.0,85.3 486.1,84.7 486.2,84.6 486.3,84.7 486.4,85.3 486.5,86.4 486.6,88.0 486.7,90.4 486.8,94.2 486.9,100.9 487.0,166.0 487.1,100.9 487.2,94.2 487.3,90.5 487.4,88.0 487.5,86.4 487.6,85.4 487.7,84.8 487.8,84.6 487.9,84.8 488.0,85.4 488.1,86.4 488.2,88.1 488.3,90.5 488.4,94.2 488.5,100.9 488.6,166.0 488.7,100.9 488.8,94.2 488.9,90.5 489.0,88.1 489.1,86.5 489.2,85.4 489.3,84.8 489.4,84.6 489.5,84.8 489.6,85.4 489.7,86.5 489.8,88.1 489.9,90.5 490.0,94.2 490.1,101.0 490.2,166.0 490.3,101.0 490.4,94.2 490.5,90.5 490.6,88.1 490.7,86.5 490.8,85.5 490.9,84.9 491.0,84.7 491.1,84.9 491.2,85.5 491.3,86.5 491.4,88.1 491.5,90.5 491.6,94.3 491.7,101.0 491.8,166.0 491.9,101.0 492.0,94.3 492.1,90.6 492.2,88.2 492.3,86.5 492.4,85.5 492.5,84.9 492.6,84.7 492.7,84.9 492.9,85.5 493.0,86.5 493.1,88.2 493.2,90.6 493.3,94.3 493.4,101.0 493.5,166.0 493.6,101.0 493.7,94.3 493.8,90.6 493.9,88.2 494.0,86.6 494.1,85.5 494.2,84.9 494.3,84.7 494.4,84.9 494.5,85.5 494.6,86.6 494.7,88.2 494.8,90.6 494.9,94.3 495.0,101.1 495.1,166.0 495.2,101.1 495.3,94.3 495.4,90.6 495.5,88.2 495.6,86.6 495.7,85.5 495.8,85.0 495.9,84.8 496.0,85.0 496.1,85.6 496.2,86.6 496.3,88.2 496.4,90.6 496.5,94.4 496.6,101.1 496.7,166.0 496.8,101.1 496.9,94.4 497.0,90.7 497.1,88.2 497.2,86.6 497.3,85.6 497.4,85.0 497.5,84.8 497.6,85.0 497.7,85.6 497.8,86.6 497.9,88.3 498.0,90.7 498.1,94.4 498.2,101.1 498.3,166.0 498.4,101.1 498.5,94.4 498.6,90.7 498.7,88.3 498.8,86.7 498.9,85.6 499.0,85.0 499.1,84.8 499.2,85.0 499.3,85.6 499.4,86.7 499.5,88.3 499.6,90.7 499.7,94.4 499.8,101.2 499.9,166.0 500.0,101.2 500.1,94.4 500.2,90.7 500.3,88.3 500.4,86.7 500.5,85.6 500.6,85.0 500.7,84.8 500.8,85.0 500.9,85.6 501.0,86.7 501.1,88.3 501.2,90.7 501.3,94.4 501.4,101.2 501.5,166.0 501.6,101.2 501.7,94.5 501.8,90.7 501.9,88.3 502.0,86.7 502.1,85.7 502.2,85.1 502.3,84.9 502.4,85.1 502.5,85.7 502.6,86.7 502.7,88.3 502.8,90.7 502.9,94.5 503.0,101.2 503.1,166.0 503.2,101.2 503.3,94.5 503.4,90.8 503.5,88.3 503.6,86.7 503.7,85.7 503.8,85.1 503.9,84.9 504.0,85.1 504.1,85.7 504.2,86.7 504.3,88.4 504.4,90.8 504.5,94.5 504.6,101.2 504.7,166.0 504.8,101.2 504.9,94.5 505.0,90.8 505.1,88.4 505.2,86.8 505.3,85.7 505.4,85.1 505.5,84.9 505.6,85.1 505.7,85.7 505.8,86.8 505.9,88.4 506.0,90.8 506.1,94.5 506.2,101.2 506.3,166.0 506.4,101.2 506.5,94.5 506.6,90.8 506.7,88.4 506.8,86.8 506.9,85.7 507.0,85.1 507.1,84.9 507.2,85.1 507.3,85.7 507.4,86.8 507.5,88.4 507.6,90.8 507.7,94.5 507.8,101.3 507.9,166.0 508.0,101.3 508.1,94.5 508.2,90.8 508.3,88.4 508.4,86.8 508.5,85.7 508.6,85.1 508.7,85.0 508.8,85.1 508.9,85.7 509.0,86.8 509.1,88.4 509.2,90.8 509.3,94.6 509.4,101.3 509.5,166.0 509.6,101.3 509.7,94.6 509.8,90.8 509.9,88.4 510.0,86.8 510.1,85.8 510.2,85.2 510.3,85.0 510.4,85.2 510.5,85.8 510.6,86.8 510.7,88.4 510.8,90.8 510.9,94.6 511.0,101.3 511.1,166.0 511.2,101.3 511.3,94.6 511.4,90.8 511.5,88.4 511.6,86.8 511.7,85.8 511.8,85.2 511.9,85.0 512.0,85.2 512.1,85.8 512.2,86.8 512.3,88.4 512.4,90.9 512.5,94.6 512.6,101.3 512.7,166.0 512.8,101.3 512.9,94.6 513.0,90.9 513.1,88.5 513.2,86.8 513.3,85.8 513.4,85.2 513.5,85.0 513.6,85.2 513.7,85.8 513.8,86.8 513.9,88.5 514.0,90.9 514.1,94.6 514.2,101.3 514.3,166.0 514.4,101.3 514.5,94.6 514.6,90.9 514.7,88.5 514.8,86.8 514.9,85.8 515.0,85.2 515.1,85.0 515.2,85.2 515.3,85.8 515.4,86.9 515.5,88.5 515.6,90.9 515.7,94.6 515.8,101.3 515.9,166.0 516.0,101.3 516.1,94.6 516.2,90.9 516.3,88.5 516.4,86.9 516.5,85.8 516.6,85.2 516.7,85.0 516.8,85.2 516.9,85.8 517.0,86.9 517.1,88.5 517.2,90.9 517.3,94.6 517.4,101.3 517.5,166.0 517.6,101.3 517.7,94.6 517.8,90.9 517.9,88.5 518.0,86.9 518.1,85.8 518.2,85.2 518.3,85.0 518.4,85.2 518.5,85.8 518.6,86.9 518.7,88.5 518.8,90.9 518.9,94.6 519.0,101.4 519.1,166.0 519.2,101.4 519.3,94.6 519.4,90.9 519.5,88.5 519.6,86.9 519.7,85.8 519.8,85.2 519.9,85.0 520.0,85.2 520.1,85.8 520.2,86.9 520.3,88.5 520.4,90.9 520.5,94.6 520.6,101.4 520.7,166.0 520.8,101.4 520.9,94.6 521.0,90.9 521.1,88.5 521.2,86.9 521.3,85.8 521.4,85.2 521.5,85.0 521.6,85.2 521.7,85.8 521.8,86.9 521.9,88.5 522.0,90.9 522.1,94.6 522.2,101.4 522.3,166.0 522.4,101.4 522.5,94.6 522.6,90.9 522.7,88.5 522.8,86.9 522.9,85.8 523.0,85.2 523.1,85.0 523.2,85.2 523.3,85.8 523.4,86.9 523.5,88.5 523.6,90.9 523.7,94.6 523.8,101.4 523.9,166.0 524.0,101.4 524.1,94.6 524.2,90.9 524.3,88.5 524.4,86.9 524.5,85.8 524.6,85.2 524.7,85.0 524.8,85.2 524.9,85.8 525.0,86.9 525.1,88.5 525.2,90.9 525.3,94.6 525.4,101.4 525.5,166.0 525.6,101.4 525.7,94.6 525.8,90.9 525.9,88.5 526.0,86.9 526.1,85.8 526.2,85.2 526.3,85.0 526.4,85.2 526.5,85.8 526.6,86.9 526.7,88.5 526.8,90.9 526.9,94.6 527.0,101.4" fill="none" stroke="#4a90d9" stroke-width="1.2" stroke-linejoin="round"/>
  <text x="154.5" y="190" text-anchor="middle" font-size="8" fill="#6b7280">n / N</text>
  <text x="424.5" y="190" text-anchor="middle" font-size="8" fill="#6b7280">Normalized frequency (× Fₛ)</text>
</svg>
