<svg xmlns="http://www.w3.org/2000/svg" viewBox="0 0 800 230" style="font-family:system-ui,-apple-system,sans-serif">
  <line x1="42" y1="182.0" x2="377" y2="182.0" stroke="#e5e7eb" stroke-width="0.7"/>
  <text x="37" y="186.0" text-anchor="end" font-size="10" fill="#6b7280">0</text>
  <line x1="42" y1="95.0" x2="377" y2="95.0" stroke="#e5e7eb" stroke-width="0.7"/>
  <text x="37" y="99.0" text-anchor="end" font-size="10" fill="#6b7280">0.5</text>
  <line x1="42" y1="8.0" x2="377" y2="8.0" stroke="#e5e7eb" stroke-width="0.7"/>
  <text x="37" y="12.0" text-anchor="end" font-size="10" fill="#6b7280">1</text>
  <line x1="42.0" y1="8" x2="42.0" y2="182" stroke="#e5e7eb" stroke-width="0.7"/>
  <text x="42.0" y="198" text-anchor="middle" font-size="10" fill="#6b7280">0</text>
  <line x1="209.5" y1="8" x2="209.5" y2="182" stroke="#e5e7eb" stroke-width="0.7"/>
  <text x="209.5" y="198" text-anchor="middle" font-size="10" fill="#6b7280">0.5</text>
  <line x1="377.0" y1="8" x2="377.0" y2="182" stroke="#e5e7eb" stroke-width="0.7"/>
  <text x="377.0" y="198" text-anchor="middle" font-size="10" fill="#6b7280">1</text>
  <line x1="42" y1="8" x2="42" y2="182" stroke="#d1d5db" stroke-width="1"/>
  <line x1="42" y1="182" x2="377" y2="182" stroke="#d1d5db" stroke-width="1"/>
  <path d="M42.0,182.0 42.0,77.5 43.3,77.7 44.6,77.9 45.9,78.2 47.3,78.6 48.6,79.2 49.9,79.8 51.2,80.6 52.5,81.4 53.8,82.3 55.1,83.3 56.5,84.4 57.8,85.6 59.1,86.8 60.4,88.0 61.7,89.3 63.0,90.7 64.3,92.1 65.6,93.4 67.0,94.8 68.3,96.2 69.6,97.6 70.9,99.0 72.2,100.3 73.5,101.6 74.8,102.9 76.2,104.1 77.5,105.2 78.8,106.2 80.1,107.2 81.4,108.1 82.7,108.9 84.0,109.5 85.4,110.1 86.7,110.5 88.0,110.8 89.3,111.0 90.6,111.1 91.9,111.0 93.2,110.7 94.5,110.4 95.9,109.8 97.2,109.2 98.5,108.3 99.8,107.4 101.1,106.3 102.4,105.0 103.7,103.6 105.1,102.1 106.4,100.4 107.7,98.6 109.0,96.6 110.3,94.6 111.6,92.4 112.9,90.1 114.3,87.7 115.6,85.3 116.9,82.7 118.2,80.1 119.5,77.4 120.8,74.6 122.1,71.8 123.5,68.9 124.8,66.0 126.1,63.1 127.4,60.2 128.7,57.3 130.0,54.4 131.3,51.5 132.6,48.7 134.0,45.9 135.3,43.1 136.6,40.4 137.9,37.8 139.2,35.2 140.5,32.8 141.8,30.4 143.2,28.1 144.5,25.9 145.8,23.8 147.1,21.9 148.4,20.0 149.7,18.3 151.0,16.7 152.4,15.3 153.7,14.0 155.0,12.8 156.3,11.7 157.6,10.8 158.9,10.0 160.2,9.4 161.5,8.8 162.9,8.4 164.2,8.2 165.5,8.0 166.8,8.0 168.1,8.1 169.4,8.3 170.7,8.6 172.1,9.0 173.4,9.4 174.7,10.0 176.0,10.6 177.3,11.3 178.6,12.1 179.9,12.9 181.3,13.7 182.6,14.6 183.9,15.5 185.2,16.4 186.5,17.4 187.8,18.3 189.1,19.2 190.5,20.1 191.8,21.0 193.1,21.9 194.4,22.7 195.7,23.5 197.0,24.2 198.3,24.9 199.6,25.5 201.0,26.0 202.3,26.5 203.6,26.9 204.9,27.2 206.2,27.5 207.5,27.7 208.8,27.7 210.2,27.7 211.5,27.7 212.8,27.5 214.1,27.2 215.4,26.9 216.7,26.5 218.0,26.0 219.4,25.5 220.7,24.9 222.0,24.2 223.3,23.5 224.6,22.7 225.9,21.9 227.2,21.0 228.5,20.1 229.9,19.2 231.2,18.3 232.5,17.4 233.8,16.4 235.1,15.5 236.4,14.6 237.7,13.7 239.1,12.9 240.4,12.1 241.7,11.3 243.0,10.6 244.3,10.0 245.6,9.4 246.9,9.0 248.3,8.6 249.6,8.3 250.9,8.1 252.2,8.0 253.5,8.0 254.8,8.2 256.1,8.4 257.5,8.8 258.8,9.4 260.1,10.0 261.4,10.8 262.7,11.7 264.0,12.8 265.3,14.0 266.6,15.3 268.0,16.7 269.3,18.3 270.6,20.0 271.9,21.9 273.2,23.8 274.5,25.9 275.8,28.1 277.2,30.4 278.5,32.8 279.8,35.2 281.1,37.8 282.4,40.4 283.7,43.1 285.0,45.9 286.4,48.7 287.7,51.5 289.0,54.4 290.3,57.3 291.6,60.2 292.9,63.1 294.2,66.0 295.5,68.9 296.9,71.8 298.2,74.6 299.5,77.4 300.8,80.1 302.1,82.7 303.4,85.3 304.7,87.7 306.1,90.1 307.4,92.4 308.7,94.6 310.0,96.6 311.3,98.6 312.6,100.4 313.9,102.1 315.3,103.6 316.6,105.0 317.9,106.3 319.2,107.4 320.5,108.3 321.8,109.2 323.1,109.8 324.5,110.4 325.8,110.7 327.1,111.0 328.4,111.1 329.7,111.0 331.0,110.8 332.3,110.5 333.6,110.1 335.0,109.5 336.3,108.9 337.6,108.1 338.9,107.2 340.2,106.2 341.5,105.2 342.8,104.1 344.2,102.9 345.5,101.6 346.8,100.3 348.1,99.0 349.4,97.6 350.7,96.2 352.0,94.8 353.4,93.4 354.7,92.1 356.0,90.7 357.3,89.3 358.6,88.0 359.9,86.8 361.2,85.6 362.5,84.4 363.9,83.3 365.2,82.3 366.5,81.4 367.8,80.6 369.1,79.8 370.4,79.2 371.7,78.6 373.1,78.2 374.4,77.9 375.7,77.7 377.0,77.5 L377.0,182.0 Z" fill="#4a90d9" fill-opacity="0.06"/>
  <polyline points="42.0,77.5 43.3,77.7 44.6,77.9 45.9,78.2 47.3,78.6 48.6,79.2 49.9,79.8 51.2,80.6 52.5,81.4 53.8,82.3 55.1,83.3 56.5,84.4 57.8,85.6 59.1,86.8 60.4,88.0 61.7,89.3 63.0,90.7 64.3,92.1 65.6,93.4 67.0,94.8 68.3,96.2 69.6,97.6 70.9,99.0 72.2,100.3 73.5,101.6 74.8,102.9 76.2,104.1 77.5,105.2 78.8,106.2 80.1,107.2 81.4,108.1 82.7,108.9 84.0,109.5 85.4,110.1 86.7,110.5 88.0,110.8 89.3,111.0 90.6,111.1 91.9,111.0 93.2,110.7 94.5,110.4 95.9,109.8 97.2,109.2 98.5,108.3 99.8,107.4 101.1,106.3 102.4,105.0 103.7,103.6 105.1,102.1 106.4,100.4 107.7,98.6 109.0,96.6 110.3,94.6 111.6,92.4 112.9,90.1 114.3,87.7 115.6,85.3 116.9,82.7 118.2,80.1 119.5,77.4 120.8,74.6 122.1,71.8 123.5,68.9 124.8,66.0 126.1,63.1 127.4,60.2 128.7,57.3 130.0,54.4 131.3,51.5 132.6,48.7 134.0,45.9 135.3,43.1 136.6,40.4 137.9,37.8 139.2,35.2 140.5,32.8 141.8,30.4 143.2,28.1 144.5,25.9 145.8,23.8 147.1,21.9 148.4,20.0 149.7,18.3 151.0,16.7 152.4,15.3 153.7,14.0 155.0,12.8 156.3,11.7 157.6,10.8 158.9,10.0 160.2,9.4 161.5,8.8 162.9,8.4 164.2,8.2 165.5,8.0 166.8,8.0 168.1,8.1 169.4,8.3 170.7,8.6 172.1,9.0 173.4,9.4 174.7,10.0 176.0,10.6 177.3,11.3 178.6,12.1 179.9,12.9 181.3,13.7 182.6,14.6 183.9,15.5 185.2,16.4 186.5,17.4 187.8,18.3 189.1,19.2 190.5,20.1 191.8,21.0 193.1,21.9 194.4,22.7 195.7,23.5 197.0,24.2 198.3,24.9 199.6,25.5 201.0,26.0 202.3,26.5 203.6,26.9 204.9,27.2 206.2,27.5 207.5,27.7 208.8,27.7 210.2,27.7 211.5,27.7 212.8,27.5 214.1,27.2 215.4,26.9 216.7,26.5 218.0,26.0 219.4,25.5 220.7,24.9 222.0,24.2 223.3,23.5 224.6,22.7 225.9,21.9 227.2,21.0 228.5,20.1 229.9,19.2 231.2,18.3 232.5,17.4 233.8,16.4 235.1,15.5 236.4,14.6 237.7,13.7 239.1,12.9 240.4,12.1 241.7,11.3 243.0,10.6 244.3,10.0 245.6,9.4 246.9,9.0 248.3,8.6 249.6,8.3 250.9,8.1 252.2,8.0 253.5,8.0 254.8,8.2 256.1,8.4 257.5,8.8 258.8,9.4 260.1,10.0 261.4,10.8 262.7,11.7 264.0,12.8 265.3,14.0 266.6,15.3 268.0,16.7 269.3,18.3 270.6,20.0 271.9,21.9 273.2,23.8 274.5,25.9 275.8,28.1 277.2,30.4 278.5,32.8 279.8,35.2 281.1,37.8 282.4,40.4 283.7,43.1 285.0,45.9 286.4,48.7 287.7,51.5 289.0,54.4 290.3,57.3 291.6,60.2 292.9,63.1 294.2,66.0 295.5,68.9 296.9,71.8 298.2,74.6 299.5,77.4 300.8,80.1 302.1,82.7 303.4,85.3 304.7,87.7 306.1,90.1 307.4,92.4 308.7,94.6 310.0,96.6 311.3,98.6 312.6,100.4 313.9,102.1 315.3,103.6 316.6,105.0 317.9,106.3 319.2,107.4 320.5,108.3 321.8,109.2 323.1,109.8 324.5,110.4 325.8,110.7 327.1,111.0 328.4,111.1 329.7,111.0 331.0,110.8 332.3,110.5 333.6,110.1 335.0,109.5 336.3,108.9 337.6,108.1 338.9,107.2 340.2,106.2 341.5,105.2 342.8,104.1 344.2,102.9 345.5,101.6 346.8,100.3 348.1,99.0 349.4,97.6 350.7,96.2 352.0,94.8 353.4,93.4 354.7,92.1 356.0,90.7 357.3,89.3 358.6,88.0 359.9,86.8 361.2,85.6 362.5,84.4 363.9,83.3 365.2,82.3 366.5,81.4 367.8,80.6 369.1,79.8 370.4,79.2 371.7,78.6 373.1,78.2 374.4,77.9 375.7,77.7 377.0,77.5" fill="none" stroke="#4a90d9" stroke-width="1.5" stroke-linejoin="round"/>
  <line x1="450" y1="8.0" x2="785" y2="8.0" stroke="#e5e7eb" stroke-width="0.7"/>
  <text x="445" y="12.0" text-anchor="end" font-size="10" fill="#6b7280">0</text>
  <line x1="450" y1="66.0" x2="785" y2="66.0" stroke="#e5e7eb" stroke-width="0.7"/>
  <text x="445" y="70.0" text-anchor="end" font-size="10" fill="#6b7280">-40</text>
  <line x1="450" y1="124.0" x2="785" y2="124.0" stroke="#e5e7eb" stroke-width="0.7"/>
  <text x="445" y="128.0" text-anchor="end" font-size="10" fill="#6b7280">-80</text>
  <line x1="450" y1="182.0" x2="785" y2="182.0" stroke="#e5e7eb" stroke-width="0.7"/>
  <text x="445" y="186.0" text-anchor="end" font-size="10" fill="#6b7280">-120</text>
  <line x1="450.0" y1="8" x2="450.0" y2="182" stroke="#e5e7eb" stroke-width="0.7"/>
  <text x="450.0" y="198" text-anchor="middle" font-size="10" fill="#6b7280">0</text>
  <line x1="517.0" y1="8" x2="517.0" y2="182" stroke="#e5e7eb" stroke-width="0.7"/>
  <text x="517.0" y="198" text-anchor="middle" font-size="10" fill="#6b7280">0.1</text>
  <line x1="584.0" y1="8" x2="584.0" y2="182" stroke="#e5e7eb" stroke-width="0.7"/>
  <text x="584.0" y="198" text-anchor="middle" font-size="10" fill="#6b7280">0.2</text>
  <line x1="651.0" y1="8" x2="651.0" y2="182" stroke="#e5e7eb" stroke-width="0.7"/>
  <text x="651.0" y="198" text-anchor="middle" font-size="10" fill="#6b7280">0.3</text>
  <line x1="718.0" y1="8" x2="718.0" y2="182" stroke="#e5e7eb" stroke-width="0.7"/>
  <text x="718.0" y="198" text-anchor="middle" font-size="10" fill="#6b7280">0.4</text>
  <line x1="785.0" y1="8" x2="785.0" y2="182" stroke="#e5e7eb" stroke-width="0.7"/>
  <text x="785.0" y="198" text-anchor="middle" font-size="10" fill="#6b7280">0.5</text>
  <line x1="450" y1="8" x2="450" y2="182" stroke="#d1d5db" stroke-width="1"/>
  <line x1="450" y1="182" x2="785" y2="182" stroke="#d1d5db" stroke-width="1"/>
  <polyline points="450.0,8.0 450.2,8.1 450.3,8.3 450.5,8.6 450.7,9.0 450.8,9.6 451.0,10.3 451.1,11.2 451.3,12.2 451.5,13.4 451.6,14.8 451.8,16.4 452.0,18.2 452.1,20.3 452.3,22.6 452.5,25.4 452.6,28.6 452.8,32.4 452.9,37.1 453.1,43.4 453.3,53.0 453.4,83.0 453.6,59.8 453.8,52.5 453.9,49.7 454.1,49.1 454.3,49.9 454.4,52.2 454.6,56.6 454.7,65.5 454.9,92.4 455.1,62.7 455.2,54.9 455.4,50.6 455.6,47.9 455.7,46.4 455.9,45.7 456.1,45.8 456.2,46.7 456.4,48.6 456.5,51.9 456.7,58.2 456.9,75.8 457.0,64.6 457.2,53.0 457.4,47.0 457.5,42.9 457.7,39.9 457.9,37.7 458.0,36.0 458.2,34.8 458.3,33.9 458.5,33.4 458.7,33.2 458.8,33.2 459.0,33.6 459.2,34.3 459.3,35.4 459.5,36.9 459.7,38.8 459.8,41.4 460.0,45.0 460.1,50.2 460.3,59.1 460.5,182.0 460.6,59.9 460.8,51.7 461.0,47.4 461.1,44.7 461.3,43.0 461.5,41.9 461.6,41.5 461.8,41.5 461.9,42.0 462.1,43.0 462.3,44.6 462.4,46.9 462.6,50.1 462.8,55.0 462.9,63.7 463.1,182.0 463.3,64.2 463.4,55.9 463.6,51.4 463.7,48.5 463.9,46.7 464.1,45.6 464.2,45.0 464.4,44.9 464.6,45.3 464.7,46.3 464.9,47.8 465.1,50.0 465.2,53.2 465.4,58.0 465.5,66.7 465.7,182.0 465.9,67.0 466.0,58.6 466.2,54.1 466.4,51.2 466.5,49.3 466.7,48.1 466.9,47.5 467.0,47.4 467.2,47.8 467.3,48.7 467.5,50.1 467.7,52.3 467.8,55.5 468.0,60.3 468.2,68.9 468.3,182.0 468.5,69.1 468.7,60.8 468.8,56.2 469.0,53.3 469.1,51.4 469.3,50.2 469.5,49.5 469.6,49.4 469.8,49.8 470.0,50.6 470.1,52.1 470.3,54.2 470.5,57.4 470.6,62.2 470.8,70.8 470.9,182.0 471.1,71.0 471.3,62.6 471.4,58.0 471.6,55.1 471.8,53.1 471.9,51.9 472.1,51.2 472.3,51.1 472.4,51.4 472.6,52.3 472.7,53.7 472.9,55.8 473.1,59.0 473.2,63.8 473.4,72.3 473.6,182.0 473.7,72.5 473.9,64.1 474.1,59.5 474.2,56.6 474.4,54.6 474.5,53.4 474.7,52.7 474.9,52.6 475.0,52.9 475.2,53.7 475.4,55.1 475.5,57.3 475.7,60.4 475.9,65.2 476.0,73.7 476.2,182.0 476.3,73.9 476.5,65.5 476.7,60.9 476.8,57.9 477.0,56.0 477.2,54.7 477.3,54.0 477.5,53.9 477.7,54.2 477.8,55.0 478.0,56.4 478.1,58.5 478.3,61.7 478.5,66.4 478.6,75.0 478.8,182.0 479.0,75.1 479.1,66.7 479.3,62.1 479.5,59.1 479.6,57.2 479.8,55.9 479.9,55.2 480.1,55.0 480.3,55.4 480.4,56.2 480.6,57.6 480.8,59.7 480.9,62.8 481.1,67.6 481.3,76.1 481.4,182.0 481.6,76.2 481.7,67.8 481.9,63.2 482.1,60.2 482.2,58.3 482.4,57.0 482.6,56.3 482.7,56.1 482.9,56.4 483.1,57.2 483.2,58.6 483.4,60.7 483.5,63.8 483.7,68.6 483.9,77.1 484.0,182.0 484.2,77.3 484.4,68.8 484.5,64.2 484.7,61.2 484.9,59.3 485.0,58.0 485.2,57.3 485.3,57.1 485.5,57.4 485.7,58.2 485.8,59.6 486.0,61.7 486.2,64.8 486.3,69.6 486.5,78.1 486.7,182.0 486.8,78.2 487.0,69.8 487.1,65.1 487.3,62.2 487.5,60.2 487.6,58.9 487.8,58.2 488.0,58.0 488.1,58.3 488.3,59.1 488.5,60.5 488.6,62.6 488.8,65.7 488.9,70.4 489.1,79.0 489.3,182.0 489.4,79.1 489.6,70.6 489.8,66.0 489.9,63.0 490.1,61.0 490.3,59.8 490.4,59.1 490.6,58.9 490.7,59.2 490.9,60.0 491.1,61.3 491.2,63.4 491.4,66.5 491.6,71.3 491.7,79.8 491.9,182.0 492.1,79.9 492.2,71.5 492.4,66.8 492.6,63.8 492.7,61.8 492.9,60.6 493.0,59.8 493.2,59.6 493.4,59.9 493.5,60.7 493.7,62.1 493.9,64.2 494.0,67.3 494.2,72.0 494.4,80.6 494.5,182.0 494.7,80.7 494.8,72.2 495.0,67.6 495.2,64.6 495.3,62.6 495.5,61.3 495.7,60.6 495.8,60.4 496.0,60.7 496.2,61.5 496.3,62.8 496.5,64.9 496.6,68.0 496.8,72.8 497.0,81.3 497.1,182.0 497.3,81.4 497.5,72.9 497.6,68.3 497.8,65.3 498.0,63.3 498.1,62.0 498.3,61.3 498.4,61.1 498.6,61.4 498.8,62.2 498.9,63.5 499.1,65.6 499.3,68.7 499.4,73.4 499.6,82.0 499.8,182.0 499.9,82.0 500.1,73.6 500.2,68.9 500.4,65.9 500.6,63.9 500.7,62.7 500.9,61.9 501.1,61.7 501.2,62.0 501.4,62.8 501.6,64.2 501.7,66.3 501.9,69.3 502.0,74.1 502.2,82.6 502.4,182.0 502.5,82.7 502.7,74.2 502.9,69.6 503.0,66.6 503.2,64.6 503.4,63.3 503.5,62.6 503.7,62.4 503.8,62.6 504.0,63.4 504.2,64.8 504.3,66.9 504.5,70.0 504.7,74.7 504.8,83.2 505.0,182.0 505.2,83.3 505.3,74.8 505.5,70.2 505.6,67.2 505.8,65.2 506.0,63.9 506.1,63.2 506.3,63.0 506.5,63.2 506.6,64.0 506.8,65.4 507.0,67.5 507.1,70.5 507.3,75.3 507.4,83.8 507.6,182.0 507.8,83.9 507.9,75.4 508.1,70.8 508.3,67.7 508.4,65.7 508.6,64.4 508.8,63.7 508.9,63.5 509.1,63.8 509.2,64.6 509.4,65.9 509.6,68.0 509.7,71.1 509.9,75.8 510.1,84.3 510.2,182.0 510.4,84.4 510.6,76.0 510.7,71.3 510.9,68.3 511.0,66.3 511.2,65.0 511.4,64.3 511.5,64.1 511.7,64.3 511.9,65.1 512.0,66.5 512.2,68.6 512.4,71.6 512.5,76.4 512.7,84.9 512.8,182.0 513.0,84.9 513.2,76.5 513.3,71.8 513.5,68.8 513.7,66.8 513.8,65.5 514.0,64.8 514.2,64.6 514.3,64.8 514.5,65.6 514.6,67.0 514.8,69.1 515.0,72.1 515.1,76.9 515.3,85.4 515.5,182.0 515.6,85.4 515.8,77.0 516.0,72.3 516.1,69.3 516.3,67.3 516.4,66.0 516.6,65.3 516.8,65.1 516.9,65.3 517.1,66.1 517.3,67.5 517.4,69.5 517.6,72.6 517.8,77.3 517.9,85.9 518.1,182.0 518.2,85.9 518.4,77.5 518.6,72.8 518.7,69.8 518.9,67.8 519.1,66.5 519.2,65.7 519.4,65.5 519.6,65.8 519.7,66.6 519.9,67.9 520.0,70.0 520.2,73.1 520.4,77.8 520.5,86.3 520.7,182.0 520.9,86.4 521.0,77.9 521.2,73.2 521.4,70.2 521.5,68.2 521.7,66.9 521.8,66.2 522.0,66.0 522.2,66.3 522.3,67.0 522.5,68.4 522.7,70.5 522.8,73.5 523.0,78.2 523.2,86.8 523.3,182.0 523.5,86.8 523.6,78.4 523.8,73.7 524.0,70.7 524.1,68.7 524.3,67.4 524.5,66.6 524.6,66.4 524.8,66.7 525.0,67.5 525.1,68.8 525.3,70.9 525.4,74.0 525.6,78.7 525.8,87.2 525.9,182.0 526.1,87.2 526.3,78.8 526.4,74.1 526.6,71.1 526.8,69.1 526.9,67.8 527.1,67.1 527.2,66.8 527.4,67.1 527.6,67.9 527.7,69.2 527.9,71.3 528.1,74.4 528.2,79.1 528.4,87.6 528.6,182.0 528.7,87.6 528.9,79.2 529.0,74.5 529.2,71.5 529.4,69.5 529.5,68.2 529.7,67.5 529.9,67.2 530.0,67.5 530.2,68.3 530.4,69.6 530.5,71.7 530.7,74.8 530.8,79.5 531.0,88.0 531.2,182.0 531.3,88.0 531.5,79.6 531.7,74.9 531.8,71.9 532.0,69.9 532.2,68.6 532.3,67.8 532.5,67.6 532.6,67.9 532.8,68.7 533.0,70.0 533.1,72.1 533.3,75.1 533.5,79.9 533.6,88.4 533.8,182.0 534.0,88.4 534.1,80.0 534.3,75.3 534.4,72.3 534.6,70.3 534.8,69.0 534.9,68.2 535.1,68.0 535.3,68.3 535.4,69.0 535.6,70.4 535.8,72.5 535.9,75.5 536.1,80.2 536.2,88.7 536.4,182.0 536.6,88.8 536.7,80.3 536.9,75.7 537.1,72.6 537.2,70.6 537.4,69.3 537.6,68.6 537.7,68.4 537.9,68.6 538.0,69.4 538.2,70.8 538.4,72.8 538.5,75.9 538.7,80.6 538.9,89.1 539.0,182.0 539.2,89.1 539.4,80.7 539.5,76.0 539.7,73.0 539.8,71.0 540.0,69.7 540.2,68.9 540.3,68.7 540.5,69.0 540.7,69.8 540.8,71.1 541.0,73.2 541.2,76.2 541.3,80.9 541.5,89.4 541.6,182.0 541.8,89.5 542.0,81.0 542.1,76.3 542.3,73.3 542.5,71.3 542.6,70.0 542.8,69.3 543.0,69.1 543.1,69.3 543.3,70.1 543.4,71.4 543.6,73.5 543.8,76.6 543.9,81.3 544.1,89.8 544.3,182.0 544.4,89.8 544.6,81.4 544.8,76.7 544.9,73.7 545.1,71.6 545.2,70.3 545.4,69.6 545.6,69.4 545.7,69.6 545.9,70.4 546.1,71.8 546.2,73.8 546.4,76.9 546.6,81.6 546.7,90.1 546.9,182.0 547.0,90.1 547.2,81.7 547.4,77.0 547.5,74.0 547.7,72.0 547.9,70.7 548.0,69.9 548.2,69.7 548.4,70.0 548.5,70.7 548.7,72.1 548.8,74.1 549.0,77.2 549.2,81.9 549.3,90.4 549.5,182.0 549.7,90.5 549.8,82.0 550.0,77.3 550.2,74.3 550.3,72.3 550.5,71.0 550.6,70.2 550.8,70.0 551.0,70.3 551.1,71.0 551.3,72.4 551.5,74.4 551.6,77.5 551.8,82.2 552.0,90.7 552.1,182.0 552.3,90.8 552.4,82.3 552.6,77.6 552.8,74.6 552.9,72.6 553.1,71.3 553.3,70.5 553.4,70.3 553.6,70.6 553.8,71.3 553.9,72.7 554.1,74.7 554.2,77.8 554.4,82.5 554.6,91.0 554.7,182.0 554.9,91.1 555.1,82.6 555.2,77.9 555.4,74.9 555.6,72.9 555.7,71.6 555.9,70.8 556.0,70.6 556.2,70.9 556.4,71.6 556.5,73.0 556.7,75.0 556.9,78.1 557.0,82.8 557.2,91.3 557.4,182.0 557.5,91.3 557.7,82.9 557.8,78.2 558.0,75.2 558.2,73.1 558.3,71.8 558.5,71.1 558.7,70.9 558.8,71.1 559.0,71.9 559.2,73.3 559.3,75.3 559.5,78.4 559.6,83.1 559.8,91.6 560.0,182.0 560.1,91.6 560.3,83.1 560.5,78.5 560.6,75.4 560.8,73.4 561.0,72.1 561.1,71.4 561.3,71.1 561.4,71.4 561.6,72.2 561.8,73.5 561.9,75.6 562.1,78.6 562.3,83.3 562.4,91.8 562.6,182.0 562.8,91.9 562.9,83.4 563.1,78.7 563.2,75.7 563.4,73.7 563.6,72.4 563.7,71.6 563.9,71.4 564.1,71.7 564.2,72.4 564.4,73.8 564.6,75.8 564.7,78.9 564.9,83.6 565.0,92.1 565.2,182.0 565.4,92.1 565.5,83.7 565.7,79.0 565.9,76.0 566.0,73.9 566.2,72.6 566.4,71.9 566.5,71.7 566.7,71.9 566.8,72.7 567.0,74.0 567.2,76.1 567.3,79.2 567.5,83.9 567.7,92.4 567.8,182.0 568.0,92.4 568.2,83.9 568.3,79.2 568.5,76.2 568.6,74.2 568.8,72.9 569.0,72.2 569.1,71.9 569.3,72.2 569.5,73.0 569.6,74.3 569.8,76.3 570.0,79.4 570.1,84.1 570.3,92.6 570.4,182.0 570.6,92.6 570.8,84.2 570.9,79.5 571.1,76.5 571.3,74.4 571.4,73.1 571.6,72.4 571.8,72.2 571.9,72.4 572.1,73.2 572.2,74.5 572.4,76.6 572.6,79.6 572.7,84.4 572.9,92.9 573.1,182.0 573.2,92.9 573.4,84.4 573.6,79.7 573.7,76.7 573.9,74.7 574.0,73.4 574.2,72.6 574.4,72.4 574.5,72.7 574.7,73.4 574.9,74.8 575.0,76.8 575.2,79.9 575.4,84.6 575.5,93.1 575.7,182.0 575.9,93.1 576.0,84.6 576.2,80.0 576.3,76.9 576.5,74.9 576.7,73.6 576.8,72.9 577.0,72.6 577.2,72.9 577.3,73.7 577.5,75.0 577.7,77.1 577.8,80.1 578.0,84.8 578.1,93.3 578.3,182.0 578.5,93.3 578.6,84.9 578.8,80.2 579.0,77.2 579.1,75.1 579.3,73.8 579.5,73.1 579.6,72.9 579.8,73.1 579.9,73.9 580.1,75.2 580.3,77.3 580.4,80.3 580.6,85.0 580.8,93.5 580.9,182.0 581.1,93.6 581.3,85.1 581.4,80.4 581.6,77.4 581.7,75.4 581.9,74.1 582.1,73.3 582.2,73.1 582.4,73.3 582.6,74.1 582.7,75.4 582.9,77.5 583.1,80.6 583.2,85.3 583.4,93.8 583.5,182.0 583.7,93.8 583.9,85.3 584.0,80.6 584.2,77.6 584.4,75.6 584.5,74.3 584.7,73.5 584.9,73.3 585.0,73.6 585.2,74.3 585.3,75.7 585.5,77.7 585.7,80.8 585.8,85.5 586.0,94.0 586.2,182.0 586.3,94.0 586.5,85.5 586.7,80.8 586.8,77.8 587.0,75.8 587.1,74.5 587.3,73.7 587.5,73.5 587.6,73.8 587.8,74.5 588.0,75.9 588.1,77.9 588.3,81.0 588.5,85.7 588.6,94.2 588.8,182.0 588.9,94.2 589.1,85.7 589.3,81.0 589.4,78.0 589.6,76.0 589.8,74.7 589.9,73.9 590.1,73.7 590.3,74.0 590.4,74.7 590.6,76.1 590.7,78.1 590.9,81.2 591.1,85.9 591.2,94.4 591.4,182.0 591.6,94.4 591.7,85.9 591.9,81.2 592.1,78.2 592.2,76.2 592.4,74.9 592.5,74.1 592.7,73.9 592.9,74.2 593.0,74.9 593.2,76.3 593.4,78.3 593.5,81.4 593.7,86.1 593.9,94.6 594.0,182.0 594.2,94.6 594.3,86.1 594.5,81.4 594.7,78.4 594.8,76.4 595.0,75.1 595.2,74.3 595.3,74.1 595.5,74.4 595.7,75.1 595.8,76.5 596.0,78.5 596.1,81.6 596.3,86.3 596.5,94.8 596.6,182.0 596.8,94.8 597.0,86.3 597.1,81.6 597.3,78.6 597.5,76.6 597.6,75.3 597.8,74.5 597.9,74.3 598.1,74.5 598.3,75.3 598.4,76.6 598.6,78.7 598.8,81.8 598.9,86.5 599.1,95.0 599.3,182.0 599.4,95.0 599.6,86.5 599.7,81.8 599.9,78.8 600.1,76.8 600.2,75.4 600.4,74.7 600.6,74.5 600.7,74.7 600.9,75.5 601.1,76.8 601.2,78.9 601.4,81.9 601.5,86.6 601.7,95.1 601.9,182.0 602.0,95.2 602.2,86.7 602.4,82.0 602.5,79.0 602.7,76.9 602.9,75.6 603.0,74.9 603.2,74.7 603.3,74.9 603.5,75.7 603.7,77.0 603.8,79.1 604.0,82.1 604.2,86.8 604.3,95.3 604.5,182.0 604.7,95.3 604.8,86.9 605.0,82.2 605.1,79.1 605.3,77.1 605.5,75.8 605.6,75.1 605.8,74.8 606.0,75.1 606.1,75.8 606.3,77.2 606.5,79.2 606.6,82.3 606.8,87.0 606.9,95.5 607.1,182.0 607.3,95.5 607.4,87.0 607.6,82.3 607.8,79.3 607.9,77.3 608.1,76.0 608.3,75.2 608.4,75.0 608.6,75.3 608.7,76.0 608.9,77.4 609.1,79.4 609.2,82.5 609.4,87.2 609.6,95.7 609.7,182.0 609.9,95.7 610.1,87.2 610.2,82.5 610.4,79.5 610.5,77.5 610.7,76.1 610.9,75.4 611.0,75.2 611.2,75.4 611.4,76.2 611.5,77.5 611.7,79.6 611.9,82.6 612.0,87.3 612.2,95.8 612.3,182.0 612.5,95.8 612.7,87.4 612.8,82.7 613.0,79.7 613.2,77.6 613.3,76.3 613.5,75.6 613.7,75.3 613.8,75.6 614.0,76.3 614.1,77.7 614.3,79.7 614.5,82.8 614.6,87.5 614.8,96.0 615.0,182.0 615.1,96.0 615.3,87.5 615.5,82.8 615.6,79.8 615.8,77.8 615.9,76.5 616.1,75.7 616.3,75.5 616.4,75.7 616.6,76.5 616.8,77.8 616.9,79.9 617.1,82.9 617.3,87.6 617.4,96.1 617.6,182.0 617.7,96.2 617.9,87.7 618.1,83.0 618.2,80.0 618.4,77.9 618.6,76.6 618.7,75.9 618.9,75.6 619.1,75.9 619.2,76.7 619.4,78.0 619.5,80.0 619.7,83.1 619.9,87.8 620.0,96.3 620.2,182.0 620.4,96.3 620.5,87.8 620.7,83.1 620.9,80.1 621.0,78.1 621.2,76.8 621.3,76.0 621.5,75.8 621.7,76.0 621.8,76.8 622.0,78.1 622.2,80.2 622.3,83.2 622.5,87.9 622.7,96.4 622.8,182.0 623.0,96.5 623.1,88.0 623.3,83.3 623.5,80.3 623.6,78.2 623.8,76.9 624.0,76.2 624.1,75.9 624.3,76.2 624.5,77.0 624.6,78.3 624.8,80.3 624.9,83.4 625.1,88.1 625.3,96.6 625.4,182.0 625.6,96.6 625.8,88.1 625.9,83.4 626.1,80.4 626.3,78.4 626.4,77.1 626.6,76.3 626.7,76.1 626.9,76.3 627.1,77.1 627.2,78.4 627.4,80.5 627.6,83.5 627.7,88.2 627.9,96.7 628.1,182.0 628.2,96.7 628.4,88.3 628.5,83.6 628.7,80.6 628.9,78.5 629.0,77.2 629.2,76.5 629.4,76.2 629.5,76.5 629.7,77.2 629.9,78.6 630.0,80.6 630.2,83.7 630.3,88.4 630.5,96.9 630.7,182.0 630.8,96.9 631.0,88.4 631.2,83.7 631.3,80.7 631.5,78.7 631.7,77.3 631.8,76.6 632.0,76.4 632.1,76.6 632.3,77.4 632.5,78.7 632.6,80.8 632.8,83.8 633.0,88.5 633.1,97.0 633.3,182.0 633.5,97.0 633.6,88.5 633.8,83.9 633.9,80.8 634.1,78.8 634.3,77.5 634.4,76.7 634.6,76.5 634.8,76.7 634.9,77.5 635.1,78.8 635.3,80.9 635.4,83.9 635.6,88.6 635.7,97.1 635.9,182.0 636.1,97.2 636.2,88.7 636.4,84.0 636.6,81.0 636.7,78.9 636.9,77.6 637.1,76.9 637.2,76.6 637.4,76.9 637.5,77.6 637.7,79.0 637.9,81.0 638.0,84.1 638.2,88.8 638.4,97.3 638.5,182.0 638.7,97.3 638.9,88.8 639.0,84.1 639.2,81.1 639.3,79.1 639.5,77.7 639.7,77.0 639.8,76.8 640.0,77.0 640.2,77.8 640.3,79.1 640.5,81.1 640.7,84.2 640.8,88.9 641.0,97.4 641.1,182.0 641.3,97.4 641.5,88.9 641.6,84.2 641.8,81.2 642.0,79.2 642.1,77.9 642.3,77.1 642.5,76.9 642.6,77.1 642.8,77.9 642.9,79.2 643.1,81.3 643.3,84.3 643.4,89.0 643.6,97.5 643.8,182.0 643.9,97.5 644.1,89.0 644.3,84.4 644.4,81.3 644.6,79.3 644.7,78.0 644.9,77.2 645.1,77.0 645.2,77.2 645.4,78.0 645.6,79.3 645.7,81.4 645.9,84.4 646.1,89.1 646.2,97.6 646.4,182.0 646.5,97.6 646.7,89.2 646.9,84.5 647.0,81.4 647.2,79.4 647.4,78.1 647.5,77.4 647.7,77.1 647.9,77.4 648.0,78.1 648.2,79.5 648.3,81.5 648.5,84.6 648.7,89.3 648.8,97.7 649.0,182.0 649.2,97.8 649.3,89.3 649.5,84.6 649.7,81.6 649.8,79.5 650.0,78.2 650.1,77.5 650.3,77.2 650.5,77.5 650.6,78.2 650.8,79.6 651.0,81.6 651.1,84.7 651.3,89.4 651.5,97.9 651.6,182.0 651.8,97.9 651.9,89.4 652.1,84.7 652.3,81.7 652.4,79.6 652.6,78.3 652.8,77.6 652.9,77.3 653.1,77.6 653.3,78.4 653.4,79.7 653.6,81.7 653.7,84.8 653.9,89.5 654.1,98.0 654.2,182.0 654.4,98.0 654.6,89.5 654.7,84.8 654.9,81.8 655.1,79.8 655.2,78.4 655.4,77.7 655.5,77.4 655.7,77.7 655.9,78.5 656.0,79.8 656.2,81.8 656.4,84.9 656.5,89.6 656.7,98.1 656.9,182.0 657.0,98.1 657.2,89.6 657.3,84.9 657.5,81.9 657.7,79.9 657.8,78.5 658.0,77.8 658.2,77.6 658.3,77.8 658.5,78.6 658.7,79.9 658.8,81.9 659.0,85.0 659.1,89.7 659.3,98.2 659.5,182.0 659.6,98.2 659.8,89.7 660.0,85.0 660.1,82.0 660.3,80.0 660.5,78.6 660.6,77.9 660.8,77.7 661.0,77.9 661.1,78.7 661.3,80.0 661.4,82.0 661.6,85.1 661.8,89.8 661.9,98.3 662.1,182.0 662.3,98.3 662.4,89.8 662.6,85.1 662.8,82.1 662.9,80.1 663.1,78.7 663.2,78.0 663.4,77.8 663.6,78.0 663.7,78.8 663.9,80.1 664.1,82.1 664.2,85.2 664.4,89.9 664.6,98.4 664.7,182.0 664.9,98.4 665.0,89.9 665.2,85.2 665.4,82.2 665.5,80.2 665.7,78.8 665.9,78.1 666.0,77.9 666.2,78.1 666.4,78.9 666.5,80.2 666.7,82.2 666.8,85.3 667.0,90.0 667.2,98.5 667.3,182.0 667.5,98.5 667.7,90.0 667.8,85.3 668.0,82.3 668.2,80.3 668.3,78.9 668.5,78.2 668.6,78.0 668.8,78.2 669.0,79.0 669.1,80.3 669.3,82.3 669.5,85.4 669.6,90.1 669.8,98.6 670.0,182.0 670.1,98.6 670.3,90.1 670.4,85.4 670.6,82.4 670.8,80.4 670.9,79.0 671.1,78.3 671.3,78.0 671.4,78.3 671.6,79.1 671.8,80.4 671.9,82.4 672.1,85.5 672.2,90.2 672.4,98.7 672.6,182.0 672.7,98.7 672.9,90.2 673.1,85.5 673.2,82.5 673.4,80.4 673.6,79.1 673.7,78.4 673.9,78.1 674.0,78.4 674.2,79.1 674.4,80.5 674.5,82.5 674.7,85.6 674.9,90.3 675.0,98.8 675.2,182.0 675.4,98.8 675.5,90.3 675.7,85.6 675.8,82.6 676.0,80.5 676.2,79.2 676.3,78.5 676.5,78.2 676.7,78.5 676.8,79.2 677.0,80.6 677.2,82.6 677.3,85.7 677.5,90.4 677.6,98.8 677.8,182.0 678.0,98.9 678.1,90.4 678.3,85.7 678.5,82.7 678.6,80.6 678.8,79.3 679.0,78.5 679.1,78.3 679.3,78.6 679.4,79.3 679.6,80.6 679.8,82.7 679.9,85.7 680.1,90.4 680.3,98.9 680.4,182.0 680.6,98.9 680.8,90.5 680.9,85.8 681.1,82.7 681.2,80.7 681.4,79.4 681.6,78.6 681.7,78.4 681.9,78.6 682.1,79.4 682.2,80.7 682.4,82.8 682.6,85.8 682.7,90.5 682.9,99.0 683.0,182.0 683.2,99.0 683.4,90.5 683.5,85.8 683.7,82.8 683.9,80.8 684.0,79.5 684.2,78.7 684.4,78.5 684.5,78.7 684.7,79.5 684.8,80.8 685.0,82.9 685.2,85.9 685.3,90.6 685.5,99.1 685.7,182.0 685.8,99.1 686.0,90.6 686.2,85.9 686.3,82.9 686.5,80.9 686.6,79.5 686.8,78.8 687.0,78.5 687.1,78.8 687.3,79.6 687.5,80.9 687.6,82.9 687.8,86.0 688.0,90.7 688.1,99.2 688.3,182.0 688.4,99.2 688.6,90.7 688.8,86.0 688.9,83.0 689.1,80.9 689.3,79.6 689.4,78.9 689.6,78.6 689.8,78.9 689.9,79.6 690.1,81.0 690.2,83.0 690.4,86.0 690.6,90.7 690.7,99.2 690.9,182.0 691.1,99.2 691.2,90.8 691.4,86.1 691.6,83.0 691.7,81.0 691.9,79.7 692.0,78.9 692.2,78.7 692.4,78.9 692.5,79.7 692.7,81.0 692.9,83.1 693.0,86.1 693.2,90.8 693.4,99.3 693.5,182.0 693.7,99.3 693.8,90.8 694.0,86.1 694.2,83.1 694.3,81.1 694.5,79.8 694.7,79.0 694.8,78.8 695.0,79.0 695.2,79.8 695.3,81.1 695.5,83.1 695.6,86.2 695.8,90.9 696.0,99.4 696.1,182.0 696.3,99.4 696.5,90.9 696.6,86.2 696.8,83.2 697.0,81.1 697.1,79.8 697.3,79.1 697.4,78.8 697.6,79.1 697.8,79.8 697.9,81.2 698.1,83.2 698.3,86.3 698.4,91.0 698.6,99.4 698.8,182.0 698.9,99.5 699.1,91.0 699.2,86.3 699.4,83.3 699.6,81.2 699.7,79.9 699.9,79.1 700.1,78.9 700.2,79.2 700.4,79.9 700.6,81.2 700.7,83.3 700.9,86.3 701.0,91.0 701.2,99.5 701.4,182.0 701.5,99.5 701.7,91.0 701.9,86.3 702.0,83.3 702.2,81.3 702.4,80.0 702.5,79.2 702.7,79.0 702.8,79.2 703.0,80.0 703.2,81.3 703.3,83.3 703.5,86.4 703.7,91.1 703.8,99.6 704.0,182.0 704.2,99.6 704.3,91.1 704.5,86.4 704.6,83.4 704.8,81.3 705.0,80.0 705.1,79.3 705.3,79.0 705.5,79.3 705.6,80.0 705.8,81.4 706.0,83.4 706.1,86.4 706.3,91.1 706.4,99.6 706.6,182.0 706.8,99.6 706.9,91.2 707.1,86.5 707.3,83.4 707.4,81.4 707.6,80.1 707.8,79.3 707.9,79.1 708.1,79.3 708.2,80.1 708.4,81.4 708.6,83.5 708.7,86.5 708.9,91.2 709.1,99.7 709.2,182.0 709.4,99.7 709.6,91.2 709.7,86.5 709.9,83.5 710.0,81.5 710.2,80.1 710.4,79.4 710.5,79.1 710.7,79.4 710.9,80.1 711.0,81.5 711.2,83.5 711.4,86.6 711.5,91.3 711.7,99.8 711.8,182.0 712.0,99.8 712.2,91.3 712.3,86.6 712.5,83.6 712.7,81.5 712.8,80.2 713.0,79.4 713.2,79.2 713.3,79.4 713.5,80.2 713.6,81.5 713.8,83.6 714.0,86.6 714.1,91.3 714.3,99.8 714.5,182.0 714.6,99.8 714.8,91.3 715.0,86.6 715.1,83.6 715.3,81.6 715.4,80.2 715.6,79.5 715.8,79.3 715.9,79.5 716.1,80.3 716.3,81.6 716.4,83.6 716.6,86.7 716.8,91.4 716.9,99.9 717.1,182.0 717.2,99.9 717.4,91.4 717.6,86.7 717.7,83.7 717.9,81.6 718.1,80.3 718.2,79.5 718.4,79.3 718.6,79.6 718.7,80.3 718.9,81.6 719.0,83.7 719.2,86.7 719.4,91.4 719.5,99.9 719.7,182.0 719.9,99.9 720.0,91.4 720.2,86.7 720.4,83.7 720.5,81.7 720.7,80.3 720.8,79.6 721.0,79.4 721.2,79.6 721.3,80.4 721.5,81.7 721.7,83.7 721.8,86.8 722.0,91.5 722.2,100.0 722.3,182.0 722.5,100.0 722.6,91.5 722.8,86.8 723.0,83.8 723.1,81.7 723.3,80.4 723.5,79.6 723.6,79.4 723.8,79.6 724.0,80.4 724.1,81.7 724.3,83.8 724.4,86.8 724.6,91.5 724.8,100.0 724.9,182.0 725.1,100.0 725.3,91.5 725.4,86.8 725.6,83.8 725.8,81.8 725.9,80.4 726.1,79.7 726.2,79.4 726.4,79.7 726.6,80.4 726.7,81.8 726.9,83.8 727.1,86.9 727.2,91.6 727.4,100.0 727.6,182.0 727.7,100.1 727.9,91.6 728.0,86.9 728.2,83.8 728.4,81.8 728.5,80.5 728.7,79.7 728.9,79.5 729.0,79.7 729.2,80.5 729.4,81.8 729.5,83.9 729.7,86.9 729.8,91.6 730.0,100.1 730.2,182.0 730.3,100.1 730.5,91.6 730.7,86.9 730.8,83.9 731.0,81.8 731.2,80.5 731.3,79.8 731.5,79.5 731.6,79.8 731.8,80.5 732.0,81.9 732.1,83.9 732.3,86.9 732.5,91.6 732.6,100.1 732.8,182.0 733.0,100.1 733.1,91.7 733.3,87.0 733.4,83.9 733.6,81.9 733.8,80.6 733.9,79.8 734.1,79.6 734.3,79.8 734.4,80.6 734.6,81.9 734.8,83.9 734.9,87.0 735.1,91.7 735.2,100.2 735.4,182.0 735.6,100.2 735.7,91.7 735.9,87.0 736.1,84.0 736.2,81.9 736.4,80.6 736.6,79.8 736.7,79.6 736.9,79.9 737.0,80.6 737.2,81.9 737.4,84.0 737.5,87.0 737.7,91.7 737.9,100.2 738.0,182.0 738.2,100.2 738.4,91.7 738.5,87.0 738.7,84.0 738.8,82.0 739.0,80.6 739.2,79.9 739.3,79.6 739.5,79.9 739.7,80.6 739.8,82.0 740.0,84.0 740.2,87.1 740.3,91.7 740.5,100.2 740.6,182.0 740.8,100.2 741.0,91.8 741.1,87.1 741.3,84.0 741.5,82.0 741.6,80.7 741.8,79.9 742.0,79.7 742.1,79.9 742.3,80.7 742.4,82.0 742.6,84.0 742.8,87.1 742.9,91.8 743.1,100.3 743.3,182.0 743.4,100.3 743.6,91.8 743.8,87.1 743.9,84.1 744.1,82.0 744.3,80.7 744.4,79.9 744.6,79.7 744.7,79.9 744.9,80.7 745.1,82.0 745.2,84.1 745.4,87.1 745.6,91.8 745.7,100.3 745.9,182.0 746.1,100.3 746.2,91.8 746.4,87.1 746.5,84.1 746.7,82.1 746.9,80.7 747.0,80.0 747.2,79.7 747.4,80.0 747.5,80.7 747.7,82.1 747.9,84.1 748.0,87.1 748.2,91.8 748.3,100.3 748.5,182.0 748.7,100.3 748.8,91.8 749.0,87.2 749.2,84.1 749.3,82.1 749.5,80.8 749.7,80.0 749.8,79.8 750.0,80.0 750.1,80.8 750.3,82.1 750.5,84.1 750.6,87.2 750.8,91.9 751.0,100.4 751.1,182.0 751.3,100.4 751.5,91.9 751.6,87.2 751.8,84.1 751.9,82.1 752.1,80.8 752.3,80.0 752.4,79.8 752.6,80.0 752.8,80.8 752.9,82.1 753.1,84.2 753.3,87.2 753.4,91.9 753.6,100.4 753.7,182.0 753.9,100.4 754.1,91.9 754.2,87.2 754.4,84.2 754.6,82.1 754.7,80.8 754.9,80.0 755.1,79.8 755.2,80.1 755.4,80.8 755.5,82.1 755.7,84.2 755.9,87.2 756.0,91.9 756.2,100.4 756.4,182.0 756.5,100.4 756.7,91.9 756.9,87.2 757.0,84.2 757.2,82.1 757.3,80.8 757.5,80.1 757.7,79.8 757.8,80.1 758.0,80.8 758.2,82.2 758.3,84.2 758.5,87.2 758.7,91.9 758.8,100.4 759.0,182.0 759.1,100.4 759.3,91.9 759.5,87.2 759.6,84.2 759.8,82.2 760.0,80.8 760.1,80.1 760.3,79.8 760.5,80.1 760.6,80.8 760.8,82.2 760.9,84.2 761.1,87.3 761.3,92.0 761.4,100.4 761.6,182.0 761.8,100.4 761.9,92.0 762.1,87.3 762.3,84.2 762.4,82.2 762.6,80.9 762.7,80.1 762.9,79.9 763.1,80.1 763.2,80.9 763.4,82.2 763.6,84.2 763.7,87.3 763.9,92.0 764.1,100.5 764.2,182.0 764.4,100.5 764.5,92.0 764.7,87.3 764.9,84.2 765.0,82.2 765.2,80.9 765.4,80.1 765.5,79.9 765.7,80.1 765.9,80.9 766.0,82.2 766.2,84.2 766.3,87.3 766.5,92.0 766.7,100.5 766.8,182.0 767.0,100.5 767.2,92.0 767.3,87.3 767.5,84.3 767.7,82.2 767.8,80.9 768.0,80.1 768.1,79.9 768.3,80.1 768.5,80.9 768.6,82.2 768.8,84.3 769.0,87.3 769.1,92.0 769.3,100.5 769.5,182.0 769.6,100.5 769.8,92.0 769.9,87.3 770.1,84.3 770.3,82.2 770.4,80.9 770.6,80.1 770.8,79.9 770.9,80.1 771.1,80.9 771.3,82.2 771.4,84.3 771.6,87.3 771.7,92.0 771.9,100.5 772.1,182.0 772.2,100.5 772.4,92.0 772.6,87.3 772.7,84.3 772.9,82.2 773.1,80.9 773.2,80.2 773.4,79.9 773.5,80.2 773.7,80.9 773.9,82.2 774.0,84.3 774.2,87.3 774.4,92.0 774.5,100.5 774.7,182.0 774.9,100.5 775.0,92.0 775.2,87.3 775.3,84.3 775.5,82.2 775.7,80.9 775.8,80.2 776.0,79.9 776.2,80.2 776.3,80.9 776.5,82.2 776.7,84.3 776.8,87.3 777.0,92.0 777.1,100.5 777.3,182.0 777.5,100.5 777.6,92.0 777.8,87.3 778.0,84.3 778.1,82.3 778.3,80.9 778.5,80.2 778.6,79.9 778.8,80.2 778.9,80.9 779.1,82.3 779.3,84.3 779.4,87.3 779.6,92.0 779.8,100.5 779.9,182.0 780.1,100.5 780.3,92.0 780.4,87.3 780.6,84.3 780.7,82.3 780.9,80.9 781.1,80.2 781.2,79.9 781.4,80.2 781.6,80.9 781.7,82.3 781.9,84.3 782.1,87.3 782.2,92.0 782.4,100.5 782.5,182.0 782.7,100.5 782.9,92.0 783.0,87.3 783.2,84.3 783.4,82.3 783.5,80.9 783.7,80.2 783.9,79.9 784.0,80.2 784.2,80.9 784.3,82.3 784.5,84.3 784.7,87.3 784.8,92.0 785.0,100.5" fill="none" stroke="#4a90d9" stroke-width="1.5" stroke-linejoin="round"/>
  <text x="209.5" y="214" text-anchor="middle" font-size="11" fill="#6b7280">n / N</text>
  <text x="617.5" y="214" text-anchor="middle" font-size="11" fill="#6b7280">Normalized frequency (× Fₛ)</text>
</svg>
