<svg xmlns="http://www.w3.org/2000/svg" viewBox="0 0 560 190" width="560" height="190" style="font-family:system-ui,-apple-system,sans-serif">
  <rect width="560" height="190" fill="none"/>
  <line x1="52" y1="152.0" x2="257" y2="152.0" stroke="#e5e7eb" stroke-width="0.5"/>
  <text x="48" y="155.0" text-anchor="end" font-size="7.5" fill="#6b7280">0</text>
  <line x1="52" y1="82.0" x2="257" y2="82.0" stroke="#e5e7eb" stroke-width="0.5"/>
  <text x="48" y="85.0" text-anchor="end" font-size="7.5" fill="#6b7280">0.5</text>
  <line x1="52" y1="12.0" x2="257" y2="12.0" stroke="#e5e7eb" stroke-width="0.5"/>
  <text x="48" y="15.0" text-anchor="end" font-size="7.5" fill="#6b7280">1</text>
  <line x1="52.0" y1="12" x2="52.0" y2="152" stroke="#e5e7eb" stroke-width="0.5"/>
  <text x="52.0" y="164" text-anchor="middle" font-size="7.5" fill="#6b7280">0</text>
  <line x1="154.5" y1="12" x2="154.5" y2="152" stroke="#e5e7eb" stroke-width="0.5"/>
  <text x="154.5" y="164" text-anchor="middle" font-size="7.5" fill="#6b7280">0.5</text>
  <line x1="257.0" y1="12" x2="257.0" y2="152" stroke="#e5e7eb" stroke-width="0.5"/>
  <text x="257.0" y="164" text-anchor="middle" font-size="7.5" fill="#6b7280">1</text>
  <line x1="52" y1="12" x2="52" y2="152" stroke="#d1d5db" stroke-width="0.75"/>
  <line x1="52" y1="152" x2="257" y2="152" stroke="#d1d5db" stroke-width="0.75"/>
  <path d="M52.0,152.0 52.0,68.0 52.8,68.0 53.6,68.2 54.4,68.5 55.2,68.8 56.0,69.3 56.8,69.8 57.6,70.4 58.4,71.1 59.2,71.8 60.0,72.6 60.8,73.5 61.6,74.4 62.5,75.4 63.3,76.4 64.1,77.4 64.9,78.5 65.7,79.6 66.5,80.7 67.3,81.9 68.1,83.0 68.9,84.1 69.7,85.2 70.5,86.3 71.3,87.3 72.1,88.3 72.9,89.3 73.7,90.2 74.5,91.0 75.3,91.8 76.1,92.5 76.9,93.1 77.7,93.7 78.5,94.1 79.3,94.5 80.1,94.7 80.9,94.9 81.7,94.9 82.5,94.9 83.4,94.7 84.2,94.4 85.0,93.9 85.8,93.4 86.6,92.7 87.4,92.0 88.2,91.1 89.0,90.0 89.8,88.9 90.6,87.7 91.4,86.3 92.2,84.9 93.0,83.3 93.8,81.7 94.6,79.9 95.4,78.1 96.2,76.2 97.0,74.2 97.8,72.1 98.6,70.0 99.4,67.8 100.2,65.6 101.0,63.3 101.8,61.0 102.6,58.7 103.5,56.4 104.3,54.0 105.1,51.7 105.9,49.4 106.7,47.0 107.5,44.7 108.3,42.5 109.1,40.3 109.9,38.1 110.7,36.0 111.5,33.9 112.3,31.9 113.1,30.0 113.9,28.2 114.7,26.4 115.5,24.7 116.3,23.2 117.1,21.7 117.9,20.3 118.7,19.0 119.5,17.9 120.3,16.8 121.1,15.8 121.9,15.0 122.7,14.2 123.5,13.6 124.4,13.1 125.2,12.7 126.0,12.4 126.8,12.1 127.6,12.0 128.4,12.0 129.2,12.1 130.0,12.2 130.8,12.5 131.6,12.8 132.4,13.2 133.2,13.6 134.0,14.1 134.8,14.7 135.6,15.3 136.4,15.9 137.2,16.6 138.0,17.3 138.8,18.0 139.6,18.8 140.4,19.5 141.2,20.3 142.0,21.0 142.8,21.8 143.6,22.5 144.5,23.2 145.3,23.8 146.1,24.5 146.9,25.0 147.7,25.6 148.5,26.1 149.3,26.5 150.1,26.9 150.9,27.2 151.7,27.5 152.5,27.7 153.3,27.8 154.1,27.9 154.9,27.9 155.7,27.8 156.5,27.7 157.3,27.5 158.1,27.2 158.9,26.9 159.7,26.5 160.5,26.1 161.3,25.6 162.1,25.0 162.9,24.5 163.7,23.8 164.5,23.2 165.4,22.5 166.2,21.8 167.0,21.0 167.8,20.3 168.6,19.5 169.4,18.8 170.2,18.0 171.0,17.3 171.8,16.6 172.6,15.9 173.4,15.3 174.2,14.7 175.0,14.1 175.8,13.6 176.6,13.2 177.4,12.8 178.2,12.5 179.0,12.2 179.8,12.1 180.6,12.0 181.4,12.0 182.2,12.1 183.0,12.4 183.8,12.7 184.6,13.1 185.5,13.6 186.3,14.2 187.1,15.0 187.9,15.8 188.7,16.8 189.5,17.9 190.3,19.0 191.1,20.3 191.9,21.7 192.7,23.2 193.5,24.7 194.3,26.4 195.1,28.2 195.9,30.0 196.7,31.9 197.5,33.9 198.3,36.0 199.1,38.1 199.9,40.3 200.7,42.5 201.5,44.7 202.3,47.0 203.1,49.4 203.9,51.7 204.7,54.0 205.5,56.4 206.4,58.7 207.2,61.0 208.0,63.3 208.8,65.6 209.6,67.8 210.4,70.0 211.2,72.1 212.0,74.2 212.8,76.2 213.6,78.1 214.4,79.9 215.2,81.7 216.0,83.3 216.8,84.9 217.6,86.3 218.4,87.7 219.2,88.9 220.0,90.0 220.8,91.1 221.6,92.0 222.4,92.7 223.2,93.4 224.0,93.9 224.8,94.4 225.6,94.7 226.5,94.9 227.3,94.9 228.1,94.9 228.9,94.7 229.7,94.5 230.5,94.1 231.3,93.7 232.1,93.1 232.9,92.5 233.7,91.8 234.5,91.0 235.3,90.2 236.1,89.3 236.9,88.3 237.7,87.3 238.5,86.3 239.3,85.2 240.1,84.1 240.9,83.0 241.7,81.9 242.5,80.7 243.3,79.6 244.1,78.5 244.9,77.4 245.7,76.4 246.5,75.4 247.4,74.4 248.2,73.5 249.0,72.6 249.8,71.8 250.6,71.1 251.4,70.4 252.2,69.8 253.0,69.3 253.8,68.8 254.6,68.5 255.4,68.2 256.2,68.0 257.0,68.0 L257.0,152.0 Z" fill="#4a90d9" fill-opacity="0.06"/>
  <polyline points="52.0,68.0 52.8,68.0 53.6,68.2 54.4,68.5 55.2,68.8 56.0,69.3 56.8,69.8 57.6,70.4 58.4,71.1 59.2,71.8 60.0,72.6 60.8,73.5 61.6,74.4 62.5,75.4 63.3,76.4 64.1,77.4 64.9,78.5 65.7,79.6 66.5,80.7 67.3,81.9 68.1,83.0 68.9,84.1 69.7,85.2 70.5,86.3 71.3,87.3 72.1,88.3 72.9,89.3 73.7,90.2 74.5,91.0 75.3,91.8 76.1,92.5 76.9,93.1 77.7,93.7 78.5,94.1 79.3,94.5 80.1,94.7 80.9,94.9 81.7,94.9 82.5,94.9 83.4,94.7 84.2,94.4 85.0,93.9 85.8,93.4 86.6,92.7 87.4,92.0 88.2,91.1 89.0,90.0 89.8,88.9 90.6,87.7 91.4,86.3 92.2,84.9 93.0,83.3 93.8,81.7 94.6,79.9 95.4,78.1 96.2,76.2 97.0,74.2 97.8,72.1 98.6,70.0 99.4,67.8 100.2,65.6 101.0,63.3 101.8,61.0 102.6,58.7 103.5,56.4 104.3,54.0 105.1,51.7 105.9,49.4 106.7,47.0 107.5,44.7 108.3,42.5 109.1,40.3 109.9,38.1 110.7,36.0 111.5,33.9 112.3,31.9 113.1,30.0 113.9,28.2 114.7,26.4 115.5,24.7 116.3,23.2 117.1,21.7 117.9,20.3 118.7,19.0 119.5,17.9 120.3,16.8 121.1,15.8 121.9,15.0 122.7,14.2 123.5,13.6 124.4,13.1 125.2,12.7 126.0,12.4 126.8,12.1 127.6,12.0 128.4,12.0 129.2,12.1 130.0,12.2 130.8,12.5 131.6,12.8 132.4,13.2 133.2,13.6 134.0,14.1 134.8,14.7 135.6,15.3 136.4,15.9 137.2,16.6 138.0,17.3 138.8,18.0 139.6,18.8 140.4,19.5 141.2,20.3 142.0,21.0 142.8,21.8 143.6,22.5 144.5,23.2 145.3,23.8 146.1,24.5 146.9,25.0 147.7,25.6 148.5,26.1 149.3,26.5 150.1,26.9 150.9,27.2 151.7,27.5 152.5,27.7 153.3,27.8 154.1,27.9 154.9,27.9 155.7,27.8 156.5,27.7 157.3,27.5 158.1,27.2 158.9,26.9 159.7,26.5 160.5,26.1 161.3,25.6 162.1,25.0 162.9,24.5 163.7,23.8 164.5,23.2 165.4,22.5 166.2,21.8 167.0,21.0 167.8,20.3 168.6,19.5 169.4,18.8 170.2,18.0 171.0,17.3 171.8,16.6 172.6,15.9 173.4,15.3 174.2,14.7 175.0,14.1 175.8,13.6 176.6,13.2 177.4,12.8 178.2,12.5 179.0,12.2 179.8,12.1 180.6,12.0 181.4,12.0 182.2,12.1 183.0,12.4 183.8,12.7 184.6,13.1 185.5,13.6 186.3,14.2 187.1,15.0 187.9,15.8 188.7,16.8 189.5,17.9 190.3,19.0 191.1,20.3 191.9,21.7 192.7,23.2 193.5,24.7 194.3,26.4 195.1,28.2 195.9,30.0 196.7,31.9 197.5,33.9 198.3,36.0 199.1,38.1 199.9,40.3 200.7,42.5 201.5,44.7 202.3,47.0 203.1,49.4 203.9,51.7 204.7,54.0 205.5,56.4 206.4,58.7 207.2,61.0 208.0,63.3 208.8,65.6 209.6,67.8 210.4,70.0 211.2,72.1 212.0,74.2 212.8,76.2 213.6,78.1 214.4,79.9 215.2,81.7 216.0,83.3 216.8,84.9 217.6,86.3 218.4,87.7 219.2,88.9 220.0,90.0 220.8,91.1 221.6,92.0 222.4,92.7 223.2,93.4 224.0,93.9 224.8,94.4 225.6,94.7 226.5,94.9 227.3,94.9 228.1,94.9 228.9,94.7 229.7,94.5 230.5,94.1 231.3,93.7 232.1,93.1 232.9,92.5 233.7,91.8 234.5,91.0 235.3,90.2 236.1,89.3 236.9,88.3 237.7,87.3 238.5,86.3 239.3,85.2 240.1,84.1 240.9,83.0 241.7,81.9 242.5,80.7 243.3,79.6 244.1,78.5 244.9,77.4 245.7,76.4 246.5,75.4 247.4,74.4 248.2,73.5 249.0,72.6 249.8,71.8 250.6,71.1 251.4,70.4 252.2,69.8 253.0,69.3 253.8,68.8 254.6,68.5 255.4,68.2 256.2,68.0 257.0,68.0" fill="none" stroke="#4a90d9" stroke-width="1.2" stroke-linejoin="round"/>
  <line x1="322" y1="12.0" x2="527" y2="12.0" stroke="#e5e7eb" stroke-width="0.5"/>
  <text x="318" y="15.0" text-anchor="end" font-size="7.5" fill="#6b7280">0</text>
  <line x1="322" y1="58.7" x2="527" y2="58.7" stroke="#e5e7eb" stroke-width="0.5"/>
  <text x="318" y="61.7" text-anchor="end" font-size="7.5" fill="#6b7280">-40</text>
  <line x1="322" y1="105.3" x2="527" y2="105.3" stroke="#e5e7eb" stroke-width="0.5"/>
  <text x="318" y="108.3" text-anchor="end" font-size="7.5" fill="#6b7280">-80</text>
  <line x1="322" y1="152.0" x2="527" y2="152.0" stroke="#e5e7eb" stroke-width="0.5"/>
  <text x="318" y="155.0" text-anchor="end" font-size="7.5" fill="#6b7280">-120</text>
  <line x1="322.0" y1="12" x2="322.0" y2="152" stroke="#e5e7eb" stroke-width="0.5"/>
  <text x="322.0" y="164" text-anchor="middle" font-size="7.5" fill="#6b7280">0</text>
  <line x1="363.0" y1="12" x2="363.0" y2="152" stroke="#e5e7eb" stroke-width="0.5"/>
  <text x="363.0" y="164" text-anchor="middle" font-size="7.5" fill="#6b7280">0.1</text>
  <line x1="404.0" y1="12" x2="404.0" y2="152" stroke="#e5e7eb" stroke-width="0.5"/>
  <text x="404.0" y="164" text-anchor="middle" font-size="7.5" fill="#6b7280">0.2</text>
  <line x1="445.0" y1="12" x2="445.0" y2="152" stroke="#e5e7eb" stroke-width="0.5"/>
  <text x="445.0" y="164" text-anchor="middle" font-size="7.5" fill="#6b7280">0.3</text>
  <line x1="486.0" y1="12" x2="486.0" y2="152" stroke="#e5e7eb" stroke-width="0.5"/>
  <text x="486.0" y="164" text-anchor="middle" font-size="7.5" fill="#6b7280">0.4</text>
  <line x1="527.0" y1="12" x2="527.0" y2="152" stroke="#e5e7eb" stroke-width="0.5"/>
  <text x="527.0" y="164" text-anchor="middle" font-size="7.5" fill="#6b7280">0.5</text>
  <line x1="322" y1="12" x2="322" y2="152" stroke="#d1d5db" stroke-width="0.75"/>
  <line x1="322" y1="152" x2="527" y2="152" stroke="#d1d5db" stroke-width="0.75"/>
  <polyline points="322.0,12.0 322.1,12.1 322.2,12.2 322.3,12.5 322.4,12.8 322.5,13.3 322.6,13.9 322.7,14.6 322.8,15.4 322.9,16.4 323.0,17.5 323.1,18.8 323.2,20.2 323.3,21.9 323.4,23.8 323.5,26.0 323.6,28.5 323.7,31.6 323.8,35.4 323.9,40.5 324.0,48.2 324.1,72.3 324.2,53.6 324.3,47.8 324.4,45.6 324.5,45.0 324.6,45.7 324.7,47.6 324.8,51.1 324.9,58.2 325.0,79.9 325.1,56.0 325.2,49.7 325.3,46.2 325.4,44.1 325.5,42.9 325.6,42.3 325.7,42.4 325.8,43.1 325.9,44.7 326.0,47.4 326.1,52.4 326.2,66.6 326.3,57.6 326.4,48.2 326.5,43.3 326.6,40.1 326.7,37.7 326.8,35.9 326.9,34.6 327.0,33.6 327.1,32.9 327.2,32.4 327.3,32.2 327.4,32.3 327.5,32.6 327.6,33.2 327.7,34.0 327.8,35.2 327.9,36.8 328.0,38.9 328.1,41.8 328.2,45.9 328.3,53.1 328.4,152.0 328.5,53.7 328.6,47.2 328.7,43.7 328.8,41.5 328.9,40.1 329.0,39.3 329.1,38.9 329.2,38.9 329.3,39.4 329.4,40.2 329.5,41.4 329.6,43.3 329.7,45.9 329.8,49.9 329.9,56.9 330.0,152.0 330.1,57.2 330.2,50.5 330.3,46.9 330.4,44.6 330.5,43.1 330.6,42.2 330.7,41.8 330.8,41.7 330.9,42.0 331.0,42.8 331.1,44.0 331.2,45.8 331.3,48.3 331.4,52.2 331.5,59.2 331.6,152.0 331.7,59.4 331.8,52.7 331.9,49.1 332.0,46.8 332.1,45.2 332.2,44.3 332.3,43.8 332.4,43.7 332.5,44.0 332.6,44.7 332.7,45.9 332.8,47.6 332.9,50.2 333.0,54.1 333.1,61.0 333.2,152.0 333.3,61.2 333.4,54.5 333.5,50.8 333.6,48.4 333.7,46.9 333.8,45.9 333.9,45.4 334.0,45.3 334.1,45.6 334.2,46.3 334.3,47.4 334.4,49.2 334.5,51.7 334.6,55.6 334.7,62.5 334.8,152.0 334.9,62.7 335.0,55.9 335.1,52.2 335.2,49.9 335.3,48.3 335.4,47.3 335.5,46.8 335.6,46.7 335.7,46.9 335.8,47.6 335.9,48.8 336.0,50.5 336.1,53.0 336.2,56.9 336.3,63.8 336.4,152.0 336.5,63.9 336.6,57.2 336.7,53.5 336.8,51.1 336.9,49.5 337.0,48.5 337.1,48.0 337.2,47.9 337.3,48.1 337.4,48.8 337.5,49.9 337.6,51.6 337.7,54.2 337.8,58.0 337.9,64.9 338.0,152.0 338.1,65.0 338.2,58.3 338.3,54.5 338.4,52.2 338.5,50.6 338.6,49.6 338.7,49.0 338.8,48.9 338.9,49.2 339.0,49.8 339.1,51.0 339.2,52.7 339.3,55.2 339.4,59.0 339.5,65.9 339.6,152.0 339.7,66.0 339.8,59.2 339.9,55.5 340.0,53.1 340.1,51.6 340.2,50.5 340.3,50.0 340.4,49.9 340.5,50.1 340.6,50.8 340.7,51.9 340.8,53.6 340.9,56.1 341.0,59.9 341.1,66.8 341.2,152.0 341.3,66.9 341.4,60.1 341.5,56.4 341.6,54.0 341.7,52.4 341.8,51.4 341.9,50.9 342.0,50.7 342.1,51.0 342.2,51.6 342.3,52.7 342.4,54.4 342.5,56.9 342.6,60.8 342.7,67.6 342.8,152.0 342.9,67.7 343.0,61.0 343.1,57.2 343.2,54.8 343.3,53.2 343.4,52.2 343.5,51.7 343.6,51.5 343.7,51.8 343.8,52.4 343.9,53.5 344.0,55.2 344.1,57.7 344.2,61.5 344.3,68.4 344.4,152.0 344.5,68.5 344.6,61.7 344.7,58.0 344.8,55.6 344.9,54.0 345.0,53.0 345.1,52.4 345.2,52.2 345.3,52.5 345.4,53.1 345.5,54.2 345.6,55.9 345.7,58.4 345.8,62.2 345.9,69.1 346.0,152.0 346.1,69.2 346.2,62.4 346.3,58.7 346.4,56.3 346.5,54.7 346.6,53.6 346.7,53.1 346.8,52.9 346.9,53.2 347.0,53.8 347.1,54.9 347.2,56.6 347.3,59.1 347.4,62.9 347.5,69.8 347.6,152.0 347.7,69.8 347.8,63.1 347.9,59.3 348.0,56.9 348.1,55.3 348.2,54.3 348.3,53.7 348.4,53.6 348.5,53.8 348.6,54.4 348.7,55.5 348.8,57.2 348.9,59.7 349.0,63.5 349.1,70.4 349.2,152.0 349.3,70.5 349.4,63.7 349.5,59.9 349.6,57.5 349.7,55.9 349.8,54.9 349.9,54.3 350.0,54.2 350.1,54.4 350.2,55.0 350.3,56.1 350.4,57.8 350.5,60.3 350.6,64.1 350.7,71.0 350.8,152.0 350.9,71.0 351.0,64.2 351.1,60.5 351.2,58.1 351.3,56.5 351.4,55.4 351.5,54.9 351.6,54.7 351.7,54.9 351.8,55.6 351.9,56.7 352.0,58.4 352.1,60.8 352.2,64.6 352.3,71.5 352.4,152.0 352.5,71.6 352.6,64.8 352.7,61.0 352.8,58.6 352.9,57.0 353.0,56.0 353.1,55.4 353.2,55.2 353.3,55.5 353.4,56.1 353.5,57.2 353.6,58.9 353.7,61.4 353.8,65.2 353.9,72.0 354.0,152.0 354.1,72.1 354.2,65.3 354.3,61.5 354.4,59.1 354.5,57.5 354.6,56.5 354.7,55.9 354.8,55.7 354.9,56.0 355.0,56.6 355.1,57.7 355.2,59.4 355.3,61.9 355.4,65.7 355.5,72.5 355.6,152.0 355.7,72.6 355.8,65.8 355.9,62.0 356.0,59.6 356.1,58.0 356.3,57.0 356.4,56.4 356.5,56.2 356.6,56.4 356.7,57.1 356.8,58.2 356.9,59.8 357.0,62.3 357.1,66.1 357.2,73.0 357.3,152.0 357.4,73.0 357.5,66.2 357.6,62.5 357.7,60.1 357.8,58.5 357.9,57.4 358.0,56.8 358.1,56.7 358.2,56.9 358.3,57.5 358.4,58.6 358.5,60.3 358.6,62.8 358.7,66.6 358.8,73.4 358.9,152.0 359.0,73.5 359.1,66.7 359.2,62.9 359.3,60.5 359.4,58.9 359.5,57.9 359.6,57.3 359.7,57.1 359.8,57.3 359.9,58.0 360.0,59.1 360.1,60.7 360.2,63.2 360.3,67.0 360.4,73.8 360.5,152.0 360.6,73.9 360.7,67.1 360.8,63.3 360.9,60.9 361.0,59.3 361.1,58.3 361.2,57.7 361.3,57.5 361.4,57.7 361.5,58.4 361.6,59.5 361.7,61.1 361.8,63.6 361.9,67.4 362.0,74.3 362.1,152.0 362.2,74.3 362.3,67.5 362.4,63.7 362.5,61.3 362.6,59.7 362.7,58.7 362.8,58.1 362.9,57.9 363.0,58.1 363.1,58.8 363.2,59.9 363.3,61.5 363.4,64.0 363.5,67.8 363.6,74.6 363.7,152.0 363.8,74.7 363.9,67.9 364.0,64.1 364.1,61.7 364.2,60.1 364.3,59.0 364.4,58.5 364.5,58.3 364.6,58.5 364.7,59.1 364.8,60.2 364.9,61.9 365.0,64.4 365.1,68.2 365.2,75.0 365.3,152.0 365.4,75.1 365.5,68.3 365.6,64.5 365.7,62.1 365.8,60.5 365.9,59.4 366.0,58.8 366.1,58.7 366.2,58.9 366.3,59.5 366.4,60.6 366.5,62.3 366.6,64.7 366.7,68.5 366.8,75.4 366.9,152.0 367.0,75.4 367.1,68.6 367.2,64.9 367.3,62.4 367.4,60.8 367.5,59.8 367.6,59.2 367.7,59.0 367.8,59.2 367.9,59.8 368.0,60.9 368.1,62.6 368.2,65.1 368.3,68.9 368.4,75.7 368.5,152.0 368.6,75.8 368.7,68.9 368.8,65.2 368.9,62.8 369.0,61.1 369.1,60.1 369.2,59.5 369.3,59.3 369.4,59.6 369.5,60.2 369.6,61.3 369.7,62.9 369.8,65.4 369.9,69.2 370.0,76.0 370.1,152.0 370.2,76.1 370.3,69.3 370.4,65.5 370.5,63.1 370.6,61.5 370.7,60.4 370.8,59.8 370.9,59.7 371.0,59.9 371.1,60.5 371.2,61.6 371.3,63.3 371.4,65.7 371.5,69.5 371.6,76.4 371.7,152.0 371.8,76.4 371.9,69.6 372.0,65.8 372.1,63.4 372.2,61.8 372.3,60.7 372.4,60.2 372.5,60.0 372.6,60.2 372.7,60.8 372.8,61.9 372.9,63.6 373.0,66.0 373.1,69.8 373.2,76.7 373.3,152.0 373.4,76.7 373.5,69.9 373.6,66.1 373.7,63.7 373.8,62.1 373.9,61.0 374.0,60.5 374.1,60.3 374.2,60.5 374.3,61.1 374.4,62.2 374.5,63.9 374.6,66.3 374.7,70.1 374.8,77.0 374.9,152.0 375.0,77.0 375.1,70.2 375.2,66.4 375.3,64.0 375.4,62.4 375.5,61.3 375.6,60.7 375.7,60.6 375.8,60.8 375.9,61.4 376.0,62.5 376.1,64.2 376.2,66.6 376.3,70.4 376.4,77.3 376.5,152.0 376.6,77.3 376.7,70.5 376.8,66.7 376.9,64.3 377.0,62.7 377.1,61.6 377.2,61.0 377.3,60.8 377.4,61.1 377.5,61.7 377.6,62.8 377.7,64.4 377.8,66.9 377.9,70.7 378.0,77.5 378.1,152.0 378.2,77.6 378.3,70.8 378.4,67.0 378.5,64.6 378.6,62.9 378.7,61.9 378.8,61.3 378.9,61.1 379.0,61.3 379.1,62.0 379.2,63.0 379.3,64.7 379.4,67.2 379.5,71.0 379.6,77.8 379.7,152.0 379.8,77.8 379.9,71.0 380.0,67.3 380.1,64.8 380.2,63.2 380.3,62.2 380.4,61.6 380.5,61.4 380.6,61.6 380.7,62.2 380.8,63.3 380.9,65.0 381.0,67.4 381.1,71.2 381.2,78.1 381.3,152.0 381.4,78.1 381.5,71.3 381.6,67.5 381.7,65.1 381.8,63.5 381.9,62.4 382.0,61.8 382.1,61.6 382.2,61.9 382.3,62.5 382.4,63.6 382.5,65.2 382.6,67.7 382.7,71.5 382.8,78.3 382.9,152.0 383.0,78.3 383.1,71.5 383.2,67.8 383.3,65.3 383.4,63.7 383.5,62.7 383.6,62.1 383.7,61.9 383.8,62.1 383.9,62.7 384.0,63.8 384.1,65.5 384.2,67.9 384.3,71.7 384.4,78.6 384.5,152.0 384.6,78.6 384.7,71.8 384.8,68.0 384.9,65.6 385.0,64.0 385.1,62.9 385.2,62.3 385.3,62.1 385.4,62.3 385.5,63.0 385.6,64.0 385.7,65.7 385.8,68.2 385.9,72.0 386.0,78.8 386.1,152.0 386.2,78.8 386.3,72.0 386.4,68.2 386.5,65.8 386.6,64.2 386.7,63.1 386.8,62.5 386.9,62.4 387.0,62.6 387.1,63.2 387.2,64.3 387.3,65.9 387.4,68.4 387.5,72.2 387.6,79.0 387.7,152.0 387.8,79.1 387.9,72.2 388.0,68.5 388.1,66.0 388.2,64.4 388.3,63.4 388.4,62.8 388.5,62.6 388.6,62.8 388.7,63.4 388.8,64.5 388.9,66.2 389.0,68.6 389.1,72.4 389.2,79.2 389.3,152.0 389.4,79.3 389.5,72.5 389.6,68.7 389.7,66.3 389.8,64.6 389.9,63.6 390.0,63.0 390.1,62.8 390.2,63.0 390.3,63.6 390.4,64.7 390.5,66.4 390.6,68.8 390.7,72.6 390.8,79.5 390.9,152.0 391.0,79.5 391.1,72.7 391.2,68.9 391.3,66.5 391.4,64.9 391.5,63.8 391.6,63.2 391.7,63.0 391.8,63.2 391.9,63.9 392.0,64.9 392.1,66.6 392.2,69.0 392.3,72.8 392.4,79.7 392.5,152.0 392.6,79.7 392.7,72.9 392.8,69.1 392.9,66.7 393.0,65.1 393.1,64.0 393.2,63.4 393.3,63.2 393.4,63.4 393.5,64.1 393.6,65.1 393.7,66.8 393.8,69.3 393.9,73.0 394.0,79.9 394.1,152.0 394.2,79.9 394.3,73.1 394.4,69.3 394.5,66.9 394.6,65.3 394.7,64.2 394.8,63.6 394.9,63.4 395.0,63.6 395.1,64.3 395.2,65.3 395.3,67.0 395.4,69.5 395.5,73.2 395.6,80.1 395.7,152.0 395.8,80.1 395.9,73.3 396.0,69.5 396.1,67.1 396.2,65.5 396.3,64.4 396.4,63.8 396.5,63.6 396.6,63.8 396.7,64.5 396.8,65.5 396.9,67.2 397.0,69.6 397.1,73.4 397.2,80.3 397.3,152.0 397.4,80.3 397.5,73.5 397.6,69.7 397.7,67.3 397.8,65.7 397.9,64.6 398.0,64.0 398.1,63.8 398.2,64.0 398.3,64.6 398.4,65.7 398.5,67.4 398.6,69.8 398.7,73.6 398.8,80.5 398.9,152.0 399.0,80.5 399.1,73.7 399.2,69.9 399.3,67.5 399.4,65.8 399.5,64.8 399.6,64.2 399.7,64.0 399.8,64.2 399.9,64.8 400.0,65.9 400.1,67.6 400.2,70.0 400.3,73.8 400.4,80.6 400.5,152.0 400.6,80.7 400.7,73.9 400.8,70.1 400.9,67.7 401.0,66.0 401.1,65.0 401.2,64.4 401.3,64.2 401.4,64.4 401.5,65.0 401.6,66.1 401.7,67.7 401.8,70.2 401.9,74.0 402.0,80.8 402.1,152.0 402.2,80.8 402.3,74.0 402.4,70.3 402.5,67.8 402.6,66.2 402.7,65.1 402.8,64.6 402.9,64.4 403.0,64.6 403.1,65.2 403.2,66.3 403.3,67.9 403.4,70.4 403.5,74.2 403.6,81.0 403.7,152.0 403.8,81.0 403.9,74.2 404.0,70.4 404.1,68.0 404.2,66.4 404.3,65.3 404.4,64.7 404.5,64.5 404.6,64.7 404.7,65.4 404.8,66.4 404.9,68.1 405.0,70.5 405.1,74.3 405.2,81.2 405.3,152.0 405.4,81.2 405.5,74.4 405.6,70.6 405.7,68.2 405.8,66.5 405.9,65.5 406.0,64.9 406.1,64.7 406.2,64.9 406.3,65.5 406.4,66.6 406.5,68.3 406.6,70.7 406.7,74.5 406.8,81.3 406.9,152.0 407.0,81.4 407.1,74.5 407.2,70.8 407.3,68.3 407.4,66.7 407.5,65.7 407.6,65.1 407.7,64.9 407.8,65.1 407.9,65.7 408.0,66.8 408.1,68.4 408.2,70.9 408.3,74.7 408.4,81.5 408.5,152.0 408.6,81.5 408.7,74.7 408.8,70.9 408.9,68.5 409.0,66.9 409.1,65.8 409.2,65.2 409.3,65.0 409.4,65.2 409.5,65.9 409.6,66.9 409.7,68.6 409.8,71.0 409.9,74.8 410.0,81.7 410.1,152.0 410.2,81.7 410.3,74.9 410.4,71.1 410.5,68.7 410.6,67.0 410.7,66.0 410.8,65.4 410.9,65.2 411.0,65.4 411.1,66.0 411.2,67.1 411.3,68.7 411.4,71.2 411.5,75.0 411.6,81.8 411.7,152.0 411.8,81.8 411.9,75.0 412.0,71.2 412.1,68.8 412.2,67.2 412.3,66.1 412.4,65.5 412.5,65.3 412.6,65.5 412.7,66.2 412.8,67.2 412.9,68.9 413.0,71.3 413.1,75.1 413.2,82.0 413.3,152.0 413.4,82.0 413.5,75.2 413.6,71.4 413.7,69.0 413.8,67.3 413.9,66.3 414.0,65.7 414.1,65.5 414.2,65.7 414.3,66.3 414.4,67.4 414.5,69.0 414.6,71.5 414.7,75.3 414.8,82.1 414.9,152.0 415.0,82.1 415.1,75.3 415.2,71.5 415.3,69.1 415.4,67.5 415.5,66.4 415.6,65.8 415.7,65.6 415.8,65.8 415.9,66.4 416.0,67.5 416.1,69.2 416.2,71.6 416.3,75.4 416.4,82.3 416.5,152.0 416.6,82.3 416.7,75.5 416.8,71.7 416.9,69.2 417.0,67.6 417.1,66.6 417.2,66.0 417.3,65.8 417.4,66.0 417.5,66.6 417.6,67.7 417.7,69.3 417.8,71.8 417.9,75.6 418.0,82.4 418.1,152.0 418.2,82.4 418.3,75.6 418.4,71.8 418.5,69.4 418.6,67.8 418.7,66.7 418.8,66.1 418.9,65.9 419.0,66.1 419.1,66.7 419.2,67.8 419.3,69.5 419.4,71.9 419.5,75.7 419.6,82.5 419.7,152.0 419.8,82.5 419.9,75.7 420.0,72.0 420.1,69.5 420.2,67.9 420.3,66.8 420.4,66.2 420.5,66.0 420.6,66.2 420.7,66.9 420.8,67.9 420.9,69.6 421.0,72.0 421.1,75.8 421.2,82.7 421.3,152.0 421.4,82.7 421.5,75.9 421.6,72.1 421.7,69.7 421.8,68.0 421.9,67.0 422.0,66.4 422.1,66.2 422.2,66.4 422.3,67.0 422.4,68.1 422.5,69.7 422.6,72.2 422.7,76.0 422.8,82.8 422.9,152.0 423.0,82.8 423.1,76.0 423.2,72.2 423.3,69.8 423.4,68.1 423.5,67.1 423.6,66.5 423.7,66.3 423.8,66.5 423.9,67.1 424.0,68.2 424.1,69.8 424.2,72.3 424.3,76.1 424.4,82.9 424.6,152.0 424.7,82.9 424.8,76.1 424.9,72.3 425.0,69.9 425.1,68.3 425.2,67.2 425.3,66.6 425.4,66.4 425.5,66.6 425.6,67.2 425.7,68.3 425.8,70.0 425.9,72.4 426.0,76.2 426.1,83.0 426.2,152.0 426.3,83.1 426.4,76.2 426.5,72.5 426.6,70.0 426.7,68.4 426.8,67.3 426.9,66.7 427.0,66.5 427.1,66.7 427.2,67.4 427.3,68.4 427.4,70.1 427.5,72.5 427.6,76.3 427.7,83.2 427.8,152.0 427.9,83.2 428.0,76.4 428.1,72.6 428.2,70.1 428.3,68.5 428.4,67.5 428.5,66.9 428.6,66.7 428.7,66.9 428.8,67.5 428.9,68.6 429.0,70.2 429.1,72.7 429.2,76.4 429.3,83.3 429.4,152.0 429.5,83.3 429.6,76.5 429.7,72.7 429.8,70.3 429.9,68.6 430.0,67.6 430.1,67.0 430.2,66.8 430.3,67.0 430.4,67.6 430.5,68.7 430.6,70.3 430.7,72.8 430.8,76.6 430.9,83.4 431.0,152.0 431.1,83.4 431.2,76.6 431.3,72.8 431.4,70.4 431.5,68.7 431.6,67.7 431.7,67.1 431.8,66.9 431.9,67.1 432.0,67.7 432.1,68.8 432.2,70.4 432.3,72.9 432.4,76.7 432.5,83.5 432.6,152.0 432.7,83.5 432.8,76.7 432.9,72.9 433.0,70.5 433.1,68.9 433.2,67.8 433.3,67.2 433.4,67.0 433.5,67.2 433.6,67.8 433.7,68.9 433.8,70.5 433.9,73.0 434.0,76.8 434.1,83.6 434.2,152.0 434.3,83.6 434.4,76.8 434.5,73.0 434.6,70.6 434.7,69.0 434.8,67.9 434.9,67.3 435.0,67.1 435.1,67.3 435.2,67.9 435.3,69.0 435.4,70.6 435.5,73.1 435.6,76.9 435.7,83.7 435.8,152.0 435.9,83.7 436.0,76.9 436.1,73.1 436.2,70.7 436.3,69.1 436.4,68.0 436.5,67.4 436.6,67.2 436.7,67.4 436.8,68.0 436.9,69.1 437.0,70.8 437.1,73.2 437.2,77.0 437.3,83.8 437.4,152.0 437.5,83.8 437.6,77.0 437.7,73.2 437.8,70.8 437.9,69.2 438.0,68.1 438.1,67.5 438.2,67.3 438.3,67.5 438.4,68.1 438.5,69.2 438.6,70.9 438.7,73.3 438.8,77.1 438.9,83.9 439.0,152.0 439.1,83.9 439.2,77.1 439.3,73.3 439.4,70.9 439.5,69.3 439.6,68.2 439.7,67.6 439.8,67.4 439.9,67.6 440.0,68.2 440.1,69.3 440.2,71.0 440.3,73.4 440.4,77.2 440.5,84.0 440.6,152.0 440.7,84.0 440.8,77.2 440.9,73.4 441.0,71.0 441.1,69.4 441.2,68.3 441.3,67.7 441.4,67.5 441.5,67.7 441.6,68.3 441.7,69.4 441.8,71.0 441.9,73.5 442.0,77.3 442.1,84.1 442.2,152.0 442.3,84.1 442.4,77.3 442.5,73.5 442.6,71.1 442.7,69.5 442.8,68.4 442.9,67.8 443.0,67.6 443.1,67.8 443.2,68.4 443.3,69.5 443.4,71.1 443.5,73.6 443.6,77.4 443.7,84.2 443.8,152.0 443.9,84.2 444.0,77.4 444.1,73.6 444.2,71.2 444.3,69.6 444.4,68.5 444.5,67.9 444.6,67.7 444.7,67.9 444.8,68.5 444.9,69.6 445.0,71.2 445.1,73.7 445.2,77.5 445.3,84.3 445.4,152.0 445.5,84.3 445.6,77.5 445.7,73.7 445.8,71.3 445.9,69.6 446.0,68.6 446.1,68.0 446.2,67.8 446.3,68.0 446.4,68.6 446.5,69.7 446.6,71.3 446.7,73.8 446.8,77.6 446.9,84.4 447.0,152.0 447.1,84.4 447.2,77.6 447.3,73.8 447.4,71.4 447.5,69.7 447.6,68.7 447.7,68.1 447.8,67.9 447.9,68.1 448.0,68.7 448.1,69.8 448.2,71.4 448.3,73.9 448.4,77.6 448.5,84.5 448.6,152.0 448.7,84.5 448.8,77.7 448.9,73.9 449.0,71.5 449.1,69.8 449.2,68.8 449.3,68.2 449.4,68.0 449.5,68.2 449.6,68.8 449.7,69.8 449.8,71.5 449.9,73.9 450.0,77.7 450.1,84.6 450.2,152.0 450.3,84.6 450.4,77.7 450.5,74.0 450.6,71.5 450.7,69.9 450.8,68.8 450.9,68.2 451.0,68.0 451.1,68.2 451.2,68.9 451.3,69.9 451.4,71.6 451.5,74.0 451.6,77.8 451.7,84.6 451.8,152.0 451.9,84.7 452.0,77.8 452.1,74.1 452.2,71.6 452.3,70.0 452.4,68.9 452.5,68.3 452.6,68.1 452.7,68.3 452.8,68.9 452.9,70.0 453.0,71.7 453.1,74.1 453.2,77.9 453.3,84.7 453.4,152.0 453.5,84.7 453.6,77.9 453.7,74.1 453.8,71.7 453.9,70.1 454.0,69.0 454.1,68.4 454.2,68.2 454.3,68.4 454.4,69.0 454.5,70.1 454.6,71.7 454.7,74.2 454.8,78.0 454.9,84.8 455.0,152.0 455.1,84.8 455.2,78.0 455.3,74.2 455.4,71.8 455.5,70.1 455.6,69.1 455.7,68.5 455.8,68.3 455.9,68.5 456.0,69.1 456.1,70.2 456.2,71.8 456.3,74.3 456.4,78.0 456.5,84.9 456.6,152.0 456.7,84.9 456.8,78.1 456.9,74.3 457.0,71.9 457.1,70.2 457.2,69.2 457.3,68.5 457.4,68.4 457.5,68.6 457.6,69.2 457.7,70.2 457.8,71.9 457.9,74.3 458.0,78.1 458.1,85.0 458.2,152.0 458.3,85.0 458.4,78.1 458.5,74.4 458.6,71.9 458.7,70.3 458.8,69.2 458.9,68.6 459.0,68.4 459.1,68.6 459.2,69.2 459.3,70.3 459.4,72.0 459.5,74.4 459.6,78.2 459.7,85.0 459.8,152.0 459.9,85.0 460.0,78.2 460.1,74.4 460.2,72.0 460.3,70.4 460.4,69.3 460.5,68.7 460.6,68.5 460.7,68.7 460.8,69.3 460.9,70.4 461.0,72.0 461.1,74.5 461.2,78.3 461.3,85.1 461.4,152.0 461.5,85.1 461.6,78.3 461.7,74.5 461.8,72.1 461.9,70.4 462.0,69.4 462.1,68.8 462.2,68.6 462.3,68.8 462.4,69.4 462.5,70.5 462.6,72.1 462.7,74.5 462.8,78.3 462.9,85.2 463.0,152.0 463.1,85.2 463.2,78.3 463.3,74.6 463.4,72.1 463.5,70.5 463.6,69.4 463.7,68.8 463.8,68.6 463.9,68.8 464.0,69.4 464.1,70.5 464.2,72.2 464.3,74.6 464.4,78.4 464.5,85.2 464.6,152.0 464.7,85.2 464.8,78.4 464.9,74.6 465.0,72.2 465.1,70.6 465.2,69.5 465.3,68.9 465.4,68.7 465.5,68.9 465.6,69.5 465.7,70.6 465.8,72.2 465.9,74.7 466.0,78.5 466.1,85.3 466.2,152.0 466.3,85.3 466.4,78.5 466.5,74.7 466.6,72.3 466.7,70.6 466.8,69.6 466.9,69.0 467.0,68.8 467.1,69.0 467.2,69.6 467.3,70.6 467.4,72.3 467.5,74.7 467.6,78.5 467.7,85.4 467.8,152.0 467.9,85.4 468.0,78.5 468.1,74.8 468.2,72.3 468.3,70.7 468.4,69.6 468.5,69.0 468.6,68.8 468.7,69.0 468.8,69.6 468.9,70.7 469.0,72.4 469.1,74.8 469.2,78.6 469.3,85.4 469.4,152.0 469.5,85.4 469.6,78.6 469.7,74.8 469.8,72.4 469.9,70.7 470.0,69.7 470.1,69.1 470.2,68.9 470.3,69.1 470.4,69.7 470.5,70.8 470.6,72.4 470.7,74.9 470.8,78.6 470.9,85.5 471.0,152.0 471.1,85.5 471.2,78.7 471.3,74.9 471.4,72.4 471.5,70.8 471.6,69.7 471.7,69.1 471.8,68.9 471.9,69.1 472.0,69.7 472.1,70.8 472.2,72.5 472.3,74.9 472.4,78.7 472.5,85.5 472.6,152.0 472.7,85.5 472.8,78.7 472.9,74.9 473.0,72.5 473.1,70.9 473.2,69.8 473.3,69.2 473.4,69.0 473.5,69.2 473.6,69.8 473.7,70.9 473.8,72.5 473.9,75.0 474.0,78.7 474.1,85.6 474.2,152.0 474.3,85.6 474.4,78.8 474.5,75.0 474.6,72.5 474.7,70.9 474.8,69.8 474.9,69.2 475.0,69.0 475.1,69.2 475.2,69.9 475.3,70.9 475.4,72.6 475.5,75.0 475.6,78.8 475.7,85.6 475.8,152.0 475.9,85.6 476.0,78.8 476.1,75.0 476.2,72.6 476.3,71.0 476.4,69.9 476.5,69.3 476.6,69.1 476.7,69.3 476.8,69.9 476.9,71.0 477.0,72.6 477.1,75.1 477.2,78.9 477.3,85.7 477.4,152.0 477.5,85.7 477.6,78.9 477.7,75.1 477.8,72.6 477.9,71.0 478.0,69.9 478.1,69.3 478.2,69.1 478.3,69.3 478.4,70.0 478.5,71.0 478.6,72.7 478.7,75.1 478.8,78.9 478.9,85.7 479.0,152.0 479.1,85.7 479.2,78.9 479.3,75.1 479.4,72.7 479.5,71.1 479.6,70.0 479.7,69.4 479.8,69.2 479.9,69.4 480.0,70.0 480.1,71.1 480.2,72.7 480.3,75.2 480.4,78.9 480.5,85.8 480.6,152.0 480.7,85.8 480.8,79.0 480.9,75.2 481.0,72.7 481.1,71.1 481.2,70.0 481.3,69.4 481.4,69.2 481.5,69.4 481.6,70.1 481.7,71.1 481.8,72.8 481.9,75.2 482.0,79.0 482.1,85.8 482.2,152.0 482.3,85.8 482.4,79.0 482.5,75.2 482.6,72.8 482.7,71.2 482.8,70.1 482.9,69.5 483.0,69.3 483.1,69.5 483.2,70.1 483.3,71.2 483.4,72.8 483.5,75.3 483.6,79.0 483.7,85.9 483.8,152.0 483.9,85.9 484.0,79.0 484.1,75.3 484.2,72.8 484.3,71.2 484.4,70.1 484.5,69.5 484.6,69.3 484.7,69.5 484.8,70.1 484.9,71.2 485.0,72.9 485.1,75.3 485.2,79.1 485.3,85.9 485.4,152.0 485.5,85.9 485.6,79.1 485.7,75.3 485.8,72.9 485.9,71.2 486.0,70.2 486.1,69.6 486.2,69.4 486.3,69.6 486.4,70.2 486.5,71.2 486.6,72.9 486.7,75.3 486.8,79.1 486.9,86.0 487.0,152.0 487.1,86.0 487.2,79.1 487.3,75.4 487.4,72.9 487.5,71.3 487.6,70.2 487.7,69.6 487.8,69.4 487.9,69.6 488.0,70.2 488.1,71.3 488.2,72.9 488.3,75.4 488.4,79.2 488.5,86.0 488.6,152.0 488.7,86.0 488.8,79.2 488.9,75.4 489.0,73.0 489.1,71.3 489.2,70.2 489.3,69.6 489.4,69.4 489.5,69.6 489.6,70.3 489.7,71.3 489.8,73.0 489.9,75.4 490.0,79.2 490.1,86.0 490.2,152.0 490.3,86.0 490.4,79.2 490.5,75.4 490.6,73.0 490.7,71.3 490.8,70.3 490.9,69.7 491.0,69.5 491.1,69.7 491.2,70.3 491.3,71.4 491.4,73.0 491.5,75.5 491.6,79.2 491.7,86.1 491.8,152.0 491.9,86.1 492.0,79.2 492.1,75.5 492.2,73.0 492.3,71.4 492.4,70.3 492.5,69.7 492.6,69.5 492.7,69.7 492.9,70.3 493.0,71.4 493.1,73.0 493.2,75.5 493.3,79.3 493.4,86.1 493.5,152.0 493.6,86.1 493.7,79.3 493.8,75.5 493.9,73.1 494.0,71.4 494.1,70.4 494.2,69.7 494.3,69.6 494.4,69.8 494.5,70.4 494.6,71.4 494.7,73.1 494.8,75.5 494.9,79.3 495.0,86.1 495.1,152.0 495.2,86.1 495.3,79.3 495.4,75.5 495.5,73.1 495.6,71.4 495.7,70.4 495.8,69.8 495.9,69.6 496.0,69.8 496.1,70.4 496.2,71.5 496.3,73.1 496.4,75.5 496.5,79.3 496.6,86.2 496.7,152.0 496.8,86.2 496.9,79.3 497.0,75.6 497.1,73.1 497.2,71.5 497.3,70.4 497.4,69.8 497.5,69.6 497.6,69.8 497.7,70.4 497.8,71.5 497.9,73.1 498.0,75.6 498.1,79.4 498.2,86.2 498.3,152.0 498.4,86.2 498.5,79.4 498.6,75.6 498.7,73.1 498.8,71.5 498.9,70.4 499.0,69.8 499.1,69.6 499.2,69.8 499.3,70.4 499.4,71.5 499.5,73.2 499.6,75.6 499.7,79.4 499.8,86.2 499.9,152.0 500.0,86.2 500.1,79.4 500.2,75.6 500.3,73.2 500.4,71.5 500.5,70.5 500.6,69.9 500.7,69.7 500.8,69.9 500.9,70.5 501.0,71.5 501.1,73.2 501.2,75.6 501.3,79.4 501.4,86.2 501.5,152.0 501.6,86.2 501.7,79.4 501.8,75.6 501.9,73.2 502.0,71.6 502.1,70.5 502.2,69.9 502.3,69.7 502.4,69.9 502.5,70.5 502.6,71.6 502.7,73.2 502.8,75.7 502.9,79.4 503.0,86.3 503.1,152.0 503.2,86.3 503.3,79.4 503.4,75.7 503.5,73.2 503.6,71.6 503.7,70.5 503.8,69.9 503.9,69.7 504.0,69.9 504.1,70.5 504.2,71.6 504.3,73.2 504.4,75.7 504.5,79.5 504.6,86.3 504.7,152.0 504.8,86.3 504.9,79.5 505.0,75.7 505.1,73.2 505.2,71.6 505.3,70.5 505.4,69.9 505.5,69.7 505.6,69.9 505.7,70.5 505.8,71.6 505.9,73.3 506.0,75.7 506.1,79.5 506.2,86.3 506.3,152.0 506.4,86.3 506.5,79.5 506.6,75.7 506.7,73.3 506.8,71.6 506.9,70.6 507.0,70.0 507.1,69.8 507.2,70.0 507.3,70.6 507.4,71.6 507.5,73.3 507.6,75.7 507.7,79.5 507.8,86.3 507.9,152.0 508.0,86.3 508.1,79.5 508.2,75.7 508.3,73.3 508.4,71.6 508.5,70.6 508.6,70.0 508.7,69.8 508.8,70.0 508.9,70.6 509.0,71.6 509.1,73.3 509.2,75.7 509.3,79.5 509.4,86.3 509.5,152.0 509.6,86.3 509.7,79.5 509.8,75.7 509.9,73.3 510.0,71.7 510.1,70.6 510.2,70.0 510.3,69.8 510.4,70.0 510.5,70.6 510.6,71.7 510.7,73.3 510.8,75.8 510.9,79.5 511.0,86.4 511.1,152.0 511.2,86.4 511.3,79.5 511.4,75.8 511.5,73.3 511.6,71.7 511.7,70.6 511.8,70.0 511.9,69.8 512.0,70.0 512.1,70.6 512.2,71.7 512.3,73.3 512.4,75.8 512.5,79.5 512.6,86.4 512.7,152.0 512.8,86.4 512.9,79.6 513.0,75.8 513.1,73.3 513.2,71.7 513.3,70.6 513.4,70.0 513.5,69.8 513.6,70.0 513.7,70.6 513.8,71.7 513.9,73.3 514.0,75.8 514.1,79.6 514.2,86.4 514.3,152.0 514.4,86.4 514.5,79.6 514.6,75.8 514.7,73.3 514.8,71.7 514.9,70.6 515.0,70.0 515.1,69.8 515.2,70.0 515.3,70.6 515.4,71.7 515.5,73.3 515.6,75.8 515.7,79.6 515.8,86.4 515.9,152.0 516.0,86.4 516.1,79.6 516.2,75.8 516.3,73.4 516.4,71.7 516.5,70.6 516.6,70.0 516.7,69.8 516.8,70.0 516.9,70.6 517.0,71.7 517.1,73.4 517.2,75.8 517.3,79.6 517.4,86.4 517.5,152.0 517.6,86.4 517.7,79.6 517.8,75.8 517.9,73.4 518.0,71.7 518.1,70.7 518.2,70.0 518.3,69.9 518.4,70.1 518.5,70.7 518.6,71.7 518.7,73.4 518.8,75.8 518.9,79.6 519.0,86.4 519.1,152.0 519.2,86.4 519.3,79.6 519.4,75.8 519.5,73.4 519.6,71.7 519.7,70.7 519.8,70.1 519.9,69.9 520.0,70.1 520.1,70.7 520.2,71.7 520.3,73.4 520.4,75.8 520.5,79.6 520.6,86.4 520.7,152.0 520.8,86.4 520.9,79.6 521.0,75.8 521.1,73.4 521.2,71.7 521.3,70.7 521.4,70.1 521.5,69.9 521.6,70.1 521.7,70.7 521.8,71.7 521.9,73.4 522.0,75.8 522.1,79.6 522.2,86.4 522.3,152.0 522.4,86.4 522.5,79.6 522.6,75.8 522.7,73.4 522.8,71.7 522.9,70.7 523.0,70.1 523.1,69.9 523.2,70.1 523.3,70.7 523.4,71.7 523.5,73.4 523.6,75.8 523.7,79.6 523.8,86.4 523.9,152.0 524.0,86.4 524.1,79.6 524.2,75.8 524.3,73.4 524.4,71.7 524.5,70.7 524.6,70.1 524.7,69.9 524.8,70.1 524.9,70.7 525.0,71.7 525.1,73.4 525.2,75.8 525.3,79.6 525.4,86.4 525.5,152.0 525.6,86.4 525.7,79.6 525.8,75.8 525.9,73.4 526.0,71.7 526.1,70.7 526.2,70.1 526.3,69.9 526.4,70.1 526.5,70.7 526.6,71.7 526.7,73.4 526.8,75.8 526.9,79.6 527.0,86.4" fill="none" stroke="#4a90d9" stroke-width="1.2" stroke-linejoin="round"/>
  <text x="154.5" y="176" text-anchor="middle" font-size="8" fill="#6b7280">n / N</text>
  <text x="424.5" y="176" text-anchor="middle" font-size="8" fill="#6b7280">Normalized frequency (× Fₛ)</text>
</svg>
