<svg xmlns="http://www.w3.org/2000/svg" viewBox="0 0 560 210" width="560" height="210" style="font-family:system-ui,-apple-system,sans-serif">
  <rect width="560" height="210" fill="#fafafa" rx="6"/>
  <text x="280" y="18" text-anchor="middle" font-size="12" font-weight="600" fill="#374151">triangular</text>
  <line x1="52" y1="166.0" x2="257" y2="166.0" stroke="#e5e7eb" stroke-width="0.5"/>
  <text x="48" y="169.0" text-anchor="end" font-size="7.5" fill="#6b7280">0</text>
  <line x1="52" y1="97.0" x2="257" y2="97.0" stroke="#e5e7eb" stroke-width="0.5"/>
  <text x="48" y="100.0" text-anchor="end" font-size="7.5" fill="#6b7280">0.5</text>
  <line x1="52" y1="28.0" x2="257" y2="28.0" stroke="#e5e7eb" stroke-width="0.5"/>
  <text x="48" y="31.0" text-anchor="end" font-size="7.5" fill="#6b7280">1</text>
  <line x1="52.0" y1="28" x2="52.0" y2="166" stroke="#e5e7eb" stroke-width="0.5"/>
  <text x="52.0" y="178" text-anchor="middle" font-size="7.5" fill="#6b7280">0</text>
  <line x1="154.5" y1="28" x2="154.5" y2="166" stroke="#e5e7eb" stroke-width="0.5"/>
  <text x="154.5" y="178" text-anchor="middle" font-size="7.5" fill="#6b7280">0.5</text>
  <line x1="257.0" y1="28" x2="257.0" y2="166" stroke="#e5e7eb" stroke-width="0.5"/>
  <text x="257.0" y="178" text-anchor="middle" font-size="7.5" fill="#6b7280">1</text>
  <line x1="52" y1="28" x2="52" y2="166" stroke="#d1d5db" stroke-width="0.75"/>
  <line x1="52" y1="166" x2="257" y2="166" stroke="#d1d5db" stroke-width="0.75"/>
  <path d="M52.0,166.0 52.0,165.5 52.8,164.4 53.6,163.3 54.4,162.2 55.2,161.1 56.0,160.1 56.8,159.0 57.6,157.9 58.4,156.8 59.2,155.8 60.0,154.7 60.8,153.6 61.6,152.5 62.5,151.4 63.3,150.4 64.1,149.3 64.9,148.2 65.7,147.1 66.5,146.1 67.3,145.0 68.1,143.9 68.9,142.8 69.7,141.7 70.5,140.7 71.3,139.6 72.1,138.5 72.9,137.4 73.7,136.4 74.5,135.3 75.3,134.2 76.1,133.1 76.9,132.0 77.7,131.0 78.5,129.9 79.3,128.8 80.1,127.7 80.9,126.6 81.7,125.6 82.5,124.5 83.4,123.4 84.2,122.3 85.0,121.3 85.8,120.2 86.6,119.1 87.4,118.0 88.2,116.9 89.0,115.9 89.8,114.8 90.6,113.7 91.4,112.6 92.2,111.6 93.0,110.5 93.8,109.4 94.6,108.3 95.4,107.2 96.2,106.2 97.0,105.1 97.8,104.0 98.6,102.9 99.4,101.9 100.2,100.8 101.0,99.7 101.8,98.6 102.6,97.5 103.5,96.5 104.3,95.4 105.1,94.3 105.9,93.2 106.7,92.1 107.5,91.1 108.3,90.0 109.1,88.9 109.9,87.8 110.7,86.8 111.5,85.7 112.3,84.6 113.1,83.5 113.9,82.4 114.7,81.4 115.5,80.3 116.3,79.2 117.1,78.1 117.9,77.1 118.7,76.0 119.5,74.9 120.3,73.8 121.1,72.7 121.9,71.7 122.7,70.6 123.5,69.5 124.4,68.4 125.2,67.4 126.0,66.3 126.8,65.2 127.6,64.1 128.4,63.0 129.2,62.0 130.0,60.9 130.8,59.8 131.6,58.7 132.4,57.6 133.2,56.6 134.0,55.5 134.8,54.4 135.6,53.3 136.4,52.3 137.2,51.2 138.0,50.1 138.8,49.0 139.6,47.9 140.4,46.9 141.2,45.8 142.0,44.7 142.8,43.6 143.6,42.6 144.5,41.5 145.3,40.4 146.1,39.3 146.9,38.2 147.7,37.2 148.5,36.1 149.3,35.0 150.1,33.9 150.9,32.9 151.7,31.8 152.5,30.7 153.3,29.6 154.1,28.5 154.9,28.5 155.7,29.6 156.5,30.7 157.3,31.8 158.1,32.9 158.9,33.9 159.7,35.0 160.5,36.1 161.3,37.2 162.1,38.2 162.9,39.3 163.7,40.4 164.5,41.5 165.4,42.6 166.2,43.6 167.0,44.7 167.8,45.8 168.6,46.9 169.4,47.9 170.2,49.0 171.0,50.1 171.8,51.2 172.6,52.3 173.4,53.3 174.2,54.4 175.0,55.5 175.8,56.6 176.6,57.6 177.4,58.7 178.2,59.8 179.0,60.9 179.8,62.0 180.6,63.0 181.4,64.1 182.2,65.2 183.0,66.3 183.8,67.4 184.6,68.4 185.5,69.5 186.3,70.6 187.1,71.7 187.9,72.7 188.7,73.8 189.5,74.9 190.3,76.0 191.1,77.1 191.9,78.1 192.7,79.2 193.5,80.3 194.3,81.4 195.1,82.4 195.9,83.5 196.7,84.6 197.5,85.7 198.3,86.8 199.1,87.8 199.9,88.9 200.7,90.0 201.5,91.1 202.3,92.1 203.1,93.2 203.9,94.3 204.7,95.4 205.5,96.5 206.4,97.5 207.2,98.6 208.0,99.7 208.8,100.8 209.6,101.9 210.4,102.9 211.2,104.0 212.0,105.1 212.8,106.2 213.6,107.2 214.4,108.3 215.2,109.4 216.0,110.5 216.8,111.6 217.6,112.6 218.4,113.7 219.2,114.8 220.0,115.9 220.8,116.9 221.6,118.0 222.4,119.1 223.2,120.2 224.0,121.3 224.8,122.3 225.6,123.4 226.5,124.5 227.3,125.6 228.1,126.6 228.9,127.7 229.7,128.8 230.5,129.9 231.3,131.0 232.1,132.0 232.9,133.1 233.7,134.2 234.5,135.3 235.3,136.4 236.1,137.4 236.9,138.5 237.7,139.6 238.5,140.7 239.3,141.7 240.1,142.8 240.9,143.9 241.7,145.0 242.5,146.1 243.3,147.1 244.1,148.2 244.9,149.3 245.7,150.4 246.5,151.4 247.4,152.5 248.2,153.6 249.0,154.7 249.8,155.8 250.6,156.8 251.4,157.9 252.2,159.0 253.0,160.1 253.8,161.1 254.6,162.2 255.4,163.3 256.2,164.4 257.0,165.5 L257.0,166.0 Z" fill="#4a90d9" fill-opacity="0.06"/>
  <polyline points="52.0,165.5 52.8,164.4 53.6,163.3 54.4,162.2 55.2,161.1 56.0,160.1 56.8,159.0 57.6,157.9 58.4,156.8 59.2,155.8 60.0,154.7 60.8,153.6 61.6,152.5 62.5,151.4 63.3,150.4 64.1,149.3 64.9,148.2 65.7,147.1 66.5,146.1 67.3,145.0 68.1,143.9 68.9,142.8 69.7,141.7 70.5,140.7 71.3,139.6 72.1,138.5 72.9,137.4 73.7,136.4 74.5,135.3 75.3,134.2 76.1,133.1 76.9,132.0 77.7,131.0 78.5,129.9 79.3,128.8 80.1,127.7 80.9,126.6 81.7,125.6 82.5,124.5 83.4,123.4 84.2,122.3 85.0,121.3 85.8,120.2 86.6,119.1 87.4,118.0 88.2,116.9 89.0,115.9 89.8,114.8 90.6,113.7 91.4,112.6 92.2,111.6 93.0,110.5 93.8,109.4 94.6,108.3 95.4,107.2 96.2,106.2 97.0,105.1 97.8,104.0 98.6,102.9 99.4,101.9 100.2,100.8 101.0,99.7 101.8,98.6 102.6,97.5 103.5,96.5 104.3,95.4 105.1,94.3 105.9,93.2 106.7,92.1 107.5,91.1 108.3,90.0 109.1,88.9 109.9,87.8 110.7,86.8 111.5,85.7 112.3,84.6 113.1,83.5 113.9,82.4 114.7,81.4 115.5,80.3 116.3,79.2 117.1,78.1 117.9,77.1 118.7,76.0 119.5,74.9 120.3,73.8 121.1,72.7 121.9,71.7 122.7,70.6 123.5,69.5 124.4,68.4 125.2,67.4 126.0,66.3 126.8,65.2 127.6,64.1 128.4,63.0 129.2,62.0 130.0,60.9 130.8,59.8 131.6,58.7 132.4,57.6 133.2,56.6 134.0,55.5 134.8,54.4 135.6,53.3 136.4,52.3 137.2,51.2 138.0,50.1 138.8,49.0 139.6,47.9 140.4,46.9 141.2,45.8 142.0,44.7 142.8,43.6 143.6,42.6 144.5,41.5 145.3,40.4 146.1,39.3 146.9,38.2 147.7,37.2 148.5,36.1 149.3,35.0 150.1,33.9 150.9,32.9 151.7,31.8 152.5,30.7 153.3,29.6 154.1,28.5 154.9,28.5 155.7,29.6 156.5,30.7 157.3,31.8 158.1,32.9 158.9,33.9 159.7,35.0 160.5,36.1 161.3,37.2 162.1,38.2 162.9,39.3 163.7,40.4 164.5,41.5 165.4,42.6 166.2,43.6 167.0,44.7 167.8,45.8 168.6,46.9 169.4,47.9 170.2,49.0 171.0,50.1 171.8,51.2 172.6,52.3 173.4,53.3 174.2,54.4 175.0,55.5 175.8,56.6 176.6,57.6 177.4,58.7 178.2,59.8 179.0,60.9 179.8,62.0 180.6,63.0 181.4,64.1 182.2,65.2 183.0,66.3 183.8,67.4 184.6,68.4 185.5,69.5 186.3,70.6 187.1,71.7 187.9,72.7 188.7,73.8 189.5,74.9 190.3,76.0 191.1,77.1 191.9,78.1 192.7,79.2 193.5,80.3 194.3,81.4 195.1,82.4 195.9,83.5 196.7,84.6 197.5,85.7 198.3,86.8 199.1,87.8 199.9,88.9 200.7,90.0 201.5,91.1 202.3,92.1 203.1,93.2 203.9,94.3 204.7,95.4 205.5,96.5 206.4,97.5 207.2,98.6 208.0,99.7 208.8,100.8 209.6,101.9 210.4,102.9 211.2,104.0 212.0,105.1 212.8,106.2 213.6,107.2 214.4,108.3 215.2,109.4 216.0,110.5 216.8,111.6 217.6,112.6 218.4,113.7 219.2,114.8 220.0,115.9 220.8,116.9 221.6,118.0 222.4,119.1 223.2,120.2 224.0,121.3 224.8,122.3 225.6,123.4 226.5,124.5 227.3,125.6 228.1,126.6 228.9,127.7 229.7,128.8 230.5,129.9 231.3,131.0 232.1,132.0 232.9,133.1 233.7,134.2 234.5,135.3 235.3,136.4 236.1,137.4 236.9,138.5 237.7,139.6 238.5,140.7 239.3,141.7 240.1,142.8 240.9,143.9 241.7,145.0 242.5,146.1 243.3,147.1 244.1,148.2 244.9,149.3 245.7,150.4 246.5,151.4 247.4,152.5 248.2,153.6 249.0,154.7 249.8,155.8 250.6,156.8 251.4,157.9 252.2,159.0 253.0,160.1 253.8,161.1 254.6,162.2 255.4,163.3 256.2,164.4 257.0,165.5" fill="none" stroke="#4a90d9" stroke-width="1.2" stroke-linejoin="round"/>
  <line x1="322" y1="28.0" x2="527" y2="28.0" stroke="#e5e7eb" stroke-width="0.5"/>
  <text x="318" y="31.0" text-anchor="end" font-size="7.5" fill="#6b7280">0</text>
  <line x1="322" y1="74.0" x2="527" y2="74.0" stroke="#e5e7eb" stroke-width="0.5"/>
  <text x="318" y="77.0" text-anchor="end" font-size="7.5" fill="#6b7280">-40</text>
  <line x1="322" y1="120.0" x2="527" y2="120.0" stroke="#e5e7eb" stroke-width="0.5"/>
  <text x="318" y="123.0" text-anchor="end" font-size="7.5" fill="#6b7280">-80</text>
  <line x1="322" y1="166.0" x2="527" y2="166.0" stroke="#e5e7eb" stroke-width="0.5"/>
  <text x="318" y="169.0" text-anchor="end" font-size="7.5" fill="#6b7280">-120</text>
  <line x1="322.0" y1="28" x2="322.0" y2="166" stroke="#e5e7eb" stroke-width="0.5"/>
  <text x="322.0" y="178" text-anchor="middle" font-size="7.5" fill="#6b7280">0</text>
  <line x1="363.0" y1="28" x2="363.0" y2="166" stroke="#e5e7eb" stroke-width="0.5"/>
  <text x="363.0" y="178" text-anchor="middle" font-size="7.5" fill="#6b7280">0.1</text>
  <line x1="404.0" y1="28" x2="404.0" y2="166" stroke="#e5e7eb" stroke-width="0.5"/>
  <text x="404.0" y="178" text-anchor="middle" font-size="7.5" fill="#6b7280">0.2</text>
  <line x1="445.0" y1="28" x2="445.0" y2="166" stroke="#e5e7eb" stroke-width="0.5"/>
  <text x="445.0" y="178" text-anchor="middle" font-size="7.5" fill="#6b7280">0.3</text>
  <line x1="486.0" y1="28" x2="486.0" y2="166" stroke="#e5e7eb" stroke-width="0.5"/>
  <text x="486.0" y="178" text-anchor="middle" font-size="7.5" fill="#6b7280">0.4</text>
  <line x1="527.0" y1="28" x2="527.0" y2="166" stroke="#e5e7eb" stroke-width="0.5"/>
  <text x="527.0" y="178" text-anchor="middle" font-size="7.5" fill="#6b7280">0.5</text>
  <line x1="322" y1="28" x2="322" y2="166" stroke="#d1d5db" stroke-width="0.75"/>
  <line x1="322" y1="166" x2="527" y2="166" stroke="#d1d5db" stroke-width="0.75"/>
  <polyline points="322.0,28.0 322.1,28.0 322.2,28.1 322.3,28.3 322.4,28.5 322.5,28.8 322.6,29.2 322.7,29.6 322.8,30.1 322.9,30.7 323.0,31.3 323.1,32.0 323.2,32.9 323.3,33.8 323.4,34.7 323.5,35.8 323.6,37.0 323.7,38.3 323.8,39.8 323.9,41.3 324.0,43.1 324.1,45.0 324.2,47.1 324.3,49.4 324.4,52.0 324.5,55.0 324.6,58.5 324.7,62.5 324.8,67.4 324.9,73.6 325.0,82.2 325.1,96.6 325.2,166.0 325.3,97.9 325.4,84.7 325.5,77.4 325.6,72.4 325.7,68.8 325.8,66.0 325.9,63.9 326.0,62.3 326.1,61.0 326.2,60.0 326.3,59.3 326.4,58.8 326.5,58.6 326.6,58.5 326.7,58.6 326.8,59.0 326.9,59.5 327.0,60.2 327.1,61.1 327.2,62.2 327.3,63.5 327.4,65.0 327.5,66.8 327.6,69.0 327.7,71.5 327.8,74.5 327.9,78.1 328.0,82.6 328.1,88.5 328.2,96.7 328.3,110.8 328.4,166.0 328.5,111.4 328.6,98.0 328.7,90.3 328.8,85.1 328.9,81.2 329.0,78.3 329.1,75.9 329.2,74.0 329.3,72.5 329.4,71.3 329.5,70.4 329.6,69.7 329.7,69.3 329.8,69.1 329.9,69.0 330.0,69.2 330.1,69.5 330.2,70.1 330.3,70.8 330.4,71.7 330.5,72.9 330.6,74.3 330.7,76.0 330.8,78.0 330.9,80.4 331.0,83.3 331.1,86.8 331.2,91.2 331.3,96.9 331.4,105.1 331.5,119.0 331.6,166.0 331.7,119.4 331.8,105.9 331.9,98.2 332.0,92.8 332.1,88.9 332.2,85.8 332.3,83.3 332.4,81.3 332.5,79.8 332.6,78.5 332.7,77.5 332.8,76.8 332.9,76.2 333.0,75.9 333.1,75.8 333.2,75.9 333.3,76.2 333.4,76.6 333.5,77.3 333.6,78.2 333.7,79.3 333.8,80.6 333.9,82.3 334.0,84.2 334.1,86.5 334.2,89.4 334.3,92.8 334.4,97.1 334.5,102.8 334.6,110.9 334.7,124.8 334.8,166.0 334.9,125.1 335.0,111.5 335.1,103.8 335.2,98.4 335.3,94.4 335.4,91.2 335.5,88.7 335.6,86.7 335.7,85.1 335.8,83.8 335.9,82.7 336.0,82.0 336.1,81.4 336.2,81.0 336.3,80.9 336.4,80.9 336.5,81.2 336.6,81.6 336.7,82.2 336.8,83.1 336.9,84.1 337.0,85.4 337.1,87.0 337.2,88.9 337.3,91.2 337.4,94.0 337.5,97.4 337.6,101.7 337.7,107.4 337.8,115.4 337.9,129.3 338.0,166.0 338.1,129.6 338.2,115.9 338.3,108.1 338.4,102.7 338.5,98.7 338.6,95.5 338.7,93.0 338.8,90.9 338.9,89.3 339.0,87.9 339.1,86.9 339.2,86.1 339.3,85.5 339.4,85.1 339.5,84.9 339.6,85.0 339.7,85.2 339.8,85.6 339.9,86.2 340.0,87.0 340.1,88.0 340.2,89.3 340.3,90.9 340.4,92.8 340.5,95.0 340.6,97.8 340.7,101.2 340.8,105.5 340.9,111.1 341.0,119.1 341.1,133.0 341.2,166.0 341.3,133.2 341.4,119.6 341.5,111.7 341.6,106.3 341.7,102.2 341.8,99.1 341.9,96.5 342.0,94.4 342.1,92.8 342.2,91.4 342.3,90.3 342.4,89.5 342.5,88.9 342.6,88.5 342.7,88.3 342.8,88.3 342.9,88.5 343.0,88.9 343.1,89.5 343.2,90.3 343.3,91.3 343.4,92.6 343.5,94.1 343.6,96.0 343.7,98.2 343.8,101.0 343.9,104.4 344.0,108.6 344.1,114.2 344.2,122.3 344.3,136.1 344.4,166.0 344.5,136.3 344.6,122.6 344.7,114.8 344.8,109.3 344.9,105.3 345.0,102.1 345.1,99.5 345.2,97.4 345.3,95.7 345.4,94.4 345.5,93.3 345.6,92.4 345.7,91.8 345.8,91.4 345.9,91.2 346.0,91.2 346.1,91.4 346.2,91.7 346.3,92.3 346.4,93.1 346.5,94.1 346.6,95.4 346.7,96.9 346.8,98.8 346.9,101.0 347.0,103.7 347.1,107.1 347.2,111.3 347.3,116.9 347.4,125.0 347.5,138.8 347.6,166.0 347.7,139.0 347.8,125.3 347.9,117.4 348.0,112.0 348.1,107.9 348.2,104.7 348.3,102.1 348.4,100.0 348.5,98.3 348.6,96.9 348.7,95.8 348.8,95.0 348.9,94.4 349.0,93.9 349.1,93.7 349.2,93.7 349.3,93.9 349.4,94.2 349.5,94.8 349.6,95.6 349.7,96.6 349.8,97.8 349.9,99.4 350.0,101.2 350.1,103.4 350.2,106.2 350.3,109.5 350.4,113.8 350.5,119.3 350.6,127.4 350.7,141.2 350.8,166.0 350.9,141.3 351.0,127.6 351.1,119.8 351.2,114.3 351.3,110.2 351.4,107.0 351.5,104.4 351.6,102.3 351.7,100.6 351.8,99.2 351.9,98.1 352.0,97.3 352.1,96.6 352.2,96.2 352.3,96.0 352.4,95.9 352.5,96.1 352.6,96.5 352.7,97.0 352.8,97.8 352.9,98.8 353.0,100.0 353.1,101.5 353.2,103.4 353.3,105.6 353.4,108.3 353.5,111.7 353.6,115.9 353.7,121.5 353.8,129.5 353.9,143.3 354.0,166.0 354.1,143.4 354.2,129.7 354.3,121.9 354.4,116.4 354.5,112.3 354.6,109.1 354.7,106.5 354.8,104.4 354.9,102.7 355.0,101.3 355.1,100.2 355.2,99.3 355.3,98.7 355.4,98.2 355.5,98.0 355.6,98.0 355.7,98.1 355.8,98.5 355.9,99.0 356.0,99.8 356.1,100.8 356.3,102.0 356.4,103.5 356.5,105.4 356.6,107.6 356.7,110.3 356.8,113.6 356.9,117.9 357.0,123.4 357.1,131.4 357.2,145.2 357.3,166.0 357.4,145.4 357.5,131.7 357.6,123.8 357.7,118.3 357.8,114.2 357.9,111.0 358.0,108.4 358.1,106.3 358.2,104.6 358.3,103.2 358.4,102.0 358.5,101.2 358.6,100.5 358.7,100.1 358.8,99.8 358.9,99.8 359.0,99.9 359.1,100.3 359.2,100.8 359.3,101.6 359.4,102.6 359.5,103.8 359.6,105.3 359.7,107.2 359.8,109.4 359.9,112.1 360.0,115.4 360.1,119.6 360.2,125.2 360.3,133.2 360.4,147.0 360.5,166.0 360.6,147.1 360.7,133.4 360.8,125.5 360.9,120.1 361.0,115.9 361.1,112.7 361.2,110.1 361.3,108.0 361.4,106.3 361.5,104.9 361.6,103.7 361.7,102.9 361.8,102.2 361.9,101.8 362.0,101.5 362.1,101.5 362.2,101.6 362.3,102.0 362.4,102.5 362.5,103.3 362.6,104.3 362.7,105.5 362.8,107.0 362.9,108.8 363.0,111.0 363.1,113.7 363.2,117.1 363.3,121.3 363.4,126.9 363.5,134.8 363.6,148.6 363.7,166.0 363.8,148.7 363.9,135.0 364.0,127.1 364.1,121.7 364.2,117.6 364.3,114.3 364.4,111.7 364.5,109.6 364.6,107.9 364.7,106.5 364.8,105.3 364.9,104.4 365.0,103.8 365.1,103.3 365.2,103.1 365.3,103.1 365.4,103.2 365.5,103.5 365.6,104.1 365.7,104.8 365.8,105.8 365.9,107.0 366.0,108.5 366.1,110.4 366.2,112.6 366.3,115.3 366.4,118.6 366.5,122.8 366.6,128.4 366.7,136.4 366.8,150.2 366.9,166.0 367.0,150.2 367.1,136.5 367.2,128.6 367.3,123.2 367.4,119.0 367.5,115.8 367.6,113.2 367.7,111.1 367.8,109.3 367.9,107.9 368.0,106.8 368.1,105.9 368.2,105.3 368.3,104.8 368.4,104.6 368.5,104.5 368.6,104.7 368.7,105.0 368.8,105.5 368.9,106.3 369.0,107.2 369.1,108.5 369.2,110.0 369.3,111.8 369.4,114.0 369.5,116.7 369.6,120.0 369.7,124.2 369.8,129.8 369.9,137.8 370.0,151.6 370.1,166.0 370.2,151.7 370.3,137.9 370.4,130.0 370.5,124.6 370.6,120.4 370.7,117.2 370.8,114.6 370.9,112.5 371.0,110.7 371.1,109.3 371.2,108.2 371.3,107.3 371.4,106.6 371.5,106.2 371.6,105.9 371.7,105.9 371.8,106.0 371.9,106.4 372.0,106.9 372.1,107.6 372.2,108.6 372.3,109.8 372.4,111.3 372.5,113.1 372.6,115.3 372.7,118.0 372.8,121.4 372.9,125.6 373.0,131.1 373.1,139.1 373.2,152.9 373.3,166.0 373.4,153.0 373.5,139.3 373.6,131.4 373.7,125.9 373.8,121.8 373.9,118.5 374.0,115.9 374.1,113.8 374.2,112.0 374.3,110.6 374.4,109.5 374.5,108.6 374.6,107.9 374.7,107.5 374.8,107.2 374.9,107.2 375.0,107.3 375.1,107.6 375.2,108.2 375.3,108.9 375.4,109.9 375.5,111.1 375.6,112.6 375.7,114.4 375.8,116.6 375.9,119.3 376.0,122.6 376.1,126.8 376.2,132.4 376.3,140.4 376.4,154.1 376.5,166.0 376.6,154.2 376.7,140.5 376.8,132.6 376.9,127.1 377.0,123.0 377.1,119.8 377.2,117.1 377.3,115.0 377.4,113.3 377.5,111.8 377.6,110.7 377.7,109.8 377.8,109.1 377.9,108.7 378.0,108.4 378.1,108.4 378.2,108.5 378.3,108.8 378.4,109.4 378.5,110.1 378.6,111.1 378.7,112.3 378.8,113.8 378.9,115.6 379.0,117.8 379.1,120.5 379.2,123.8 379.3,128.0 379.4,133.6 379.5,141.5 379.6,155.3 379.7,166.0 379.8,155.4 379.9,141.7 380.0,133.8 380.1,128.3 380.2,124.2 380.3,120.9 380.4,118.3 380.5,116.2 380.6,114.4 380.7,113.0 380.8,111.9 380.9,111.0 381.0,110.3 381.1,109.9 381.2,109.6 381.3,109.5 381.4,109.7 381.5,110.0 381.6,110.5 381.7,111.3 381.8,112.2 381.9,113.4 382.0,114.9 382.1,116.7 382.2,118.9 382.3,121.6 382.4,124.9 382.5,129.1 382.6,134.7 382.7,142.7 382.8,156.5 382.9,166.0 383.0,156.5 383.1,142.8 383.2,134.9 383.3,129.4 383.4,125.3 383.5,122.0 383.6,119.4 383.7,117.3 383.8,115.5 383.9,114.1 384.0,113.0 384.1,112.1 384.2,111.4 384.3,111.0 384.4,110.7 384.5,110.6 384.6,110.8 384.7,111.1 384.8,111.6 384.9,112.3 385.0,113.3 385.1,114.5 385.2,116.0 385.3,117.8 385.4,120.0 385.5,122.7 385.6,126.0 385.7,130.2 385.8,135.8 385.9,143.7 386.0,157.5 386.1,166.0 386.2,157.6 386.3,143.9 386.4,136.0 386.5,130.5 386.6,126.4 386.7,123.1 386.8,120.5 386.9,118.3 387.0,116.6 387.1,115.2 387.2,114.0 387.3,113.1 387.4,112.5 387.5,112.0 387.6,111.7 387.7,111.7 387.8,111.8 387.9,112.1 388.0,112.7 388.1,113.4 388.2,114.4 388.3,115.6 388.4,117.0 388.5,118.9 388.6,121.1 388.7,123.7 388.8,127.1 388.9,131.3 389.0,136.8 389.1,144.8 389.2,158.6 389.3,166.0 389.4,158.6 389.5,144.9 389.6,137.0 389.7,131.5 389.8,127.4 389.9,124.1 390.0,121.5 390.1,119.4 390.2,117.6 390.3,116.2 390.4,115.0 390.5,114.1 390.6,113.5 390.7,113.0 390.8,112.8 390.9,112.7 391.0,112.8 391.1,113.1 391.2,113.7 391.3,114.4 391.4,115.3 391.5,116.6 391.6,118.0 391.7,119.9 391.8,122.1 391.9,124.7 392.0,128.0 392.1,132.2 392.2,137.8 392.3,145.8 392.4,159.5 392.5,166.0 392.6,159.6 392.7,145.9 392.8,138.0 392.9,132.5 393.0,128.3 393.1,125.1 393.2,122.5 393.3,120.3 393.4,118.6 393.5,117.2 393.6,116.0 393.7,115.1 393.8,114.4 393.9,114.0 394.0,113.7 394.1,113.7 394.2,113.8 394.3,114.1 394.4,114.6 394.5,115.4 394.6,116.3 394.7,117.5 394.8,119.0 394.9,120.8 395.0,123.0 395.1,125.7 395.2,129.0 395.3,133.2 395.4,138.7 395.5,146.7 395.6,160.5 395.7,166.0 395.8,160.5 395.9,146.8 396.0,138.9 396.1,133.4 396.2,129.3 396.3,126.0 396.4,123.4 396.5,121.3 396.6,119.5 396.7,118.1 396.8,116.9 396.9,116.0 397.0,115.4 397.1,114.9 397.2,114.6 397.3,114.6 397.4,114.7 397.5,115.0 397.6,115.5 397.7,116.3 397.8,117.2 397.9,118.4 398.0,119.9 398.1,121.7 398.2,123.9 398.3,126.6 398.4,129.9 398.5,134.1 398.6,139.7 398.7,147.6 398.8,161.4 398.9,166.0 399.0,161.5 399.1,147.7 399.2,139.8 399.3,134.3 399.4,130.2 399.5,126.9 399.6,124.3 399.7,122.2 399.8,120.4 399.9,119.0 400.0,117.9 400.1,116.9 400.2,116.3 400.3,115.8 400.4,115.5 400.5,115.5 400.6,115.6 400.7,115.9 400.8,116.4 400.9,117.2 401.0,118.1 401.1,119.3 401.2,120.8 401.3,122.6 401.4,124.8 401.5,127.5 401.6,130.8 401.7,135.0 401.8,140.5 401.9,148.5 402.0,162.3 402.1,166.0 402.2,162.3 402.3,148.6 402.4,140.7 402.5,135.2 402.6,131.1 402.7,127.8 402.8,125.2 402.9,123.1 403.0,121.3 403.1,119.9 403.2,118.7 403.3,117.8 403.4,117.1 403.5,116.7 403.6,116.4 403.7,116.3 403.8,116.5 403.9,116.8 404.0,117.3 404.1,118.0 404.2,119.0 404.3,120.2 404.4,121.7 404.5,123.5 404.6,125.7 404.7,128.4 404.8,131.7 404.9,135.9 405.0,141.4 405.1,149.4 405.2,163.1 405.3,166.0 405.4,163.2 405.5,149.5 405.6,141.6 405.7,136.1 405.8,131.9 405.9,128.7 406.0,126.0 406.1,123.9 406.2,122.2 406.3,120.7 406.4,119.6 406.5,118.7 406.6,118.0 406.7,117.5 406.8,117.3 406.9,117.2 407.0,117.3 407.1,117.6 407.2,118.1 407.3,118.9 407.4,119.8 407.5,121.0 407.6,122.5 407.7,124.3 407.8,126.5 407.9,129.2 408.0,132.5 408.1,136.7 408.2,142.2 408.3,150.2 408.4,164.0 408.5,166.0 408.6,164.0 408.7,150.3 408.8,142.4 408.9,136.9 409.0,132.8 409.1,129.5 409.2,126.9 409.3,124.7 409.4,123.0 409.5,121.5 409.6,120.4 409.7,119.5 409.8,118.8 409.9,118.3 410.0,118.1 410.1,118.0 410.2,118.1 410.3,118.4 410.4,119.0 410.5,119.7 410.6,120.6 410.7,121.8 410.8,123.3 410.9,125.1 411.0,127.3 411.1,130.0 411.2,133.3 411.3,137.5 411.4,143.0 411.5,151.0 411.6,164.8 411.7,166.0 411.8,164.8 411.9,151.1 412.0,143.2 412.1,137.7 412.2,133.6 412.3,130.3 412.4,127.7 412.5,125.5 412.6,123.8 412.7,122.3 412.8,121.2 412.9,120.3 413.0,119.6 413.1,119.1 413.2,118.9 413.3,118.8 413.4,118.9 413.5,119.2 413.6,119.8 413.7,120.5 413.8,121.4 413.9,122.6 414.0,124.1 414.1,125.9 414.2,128.1 414.3,130.8 414.4,134.1 414.5,138.3 414.6,143.8 414.7,151.8 414.8,165.6 414.9,166.0 415.0,165.6 415.1,151.9 415.2,144.0 415.3,138.5 415.4,134.3 415.5,131.1 415.6,128.5 415.7,126.3 415.8,124.6 415.9,123.1 416.0,122.0 416.1,121.1 416.2,120.4 416.3,119.9 416.4,119.7 416.5,119.6 416.6,119.7 416.7,120.0 416.8,120.5 416.9,121.3 417.0,122.2 417.1,123.4 417.2,124.9 417.3,126.7 417.4,128.9 417.5,131.6 417.6,134.9 417.7,139.1 417.8,144.6 417.9,152.6 418.0,166.0 418.1,166.0 418.2,166.0 418.3,152.7 418.4,144.8 418.5,139.3 418.6,135.1 418.7,131.9 418.8,129.2 418.9,127.1 419.0,125.3 419.1,123.9 419.2,122.7 419.3,121.8 419.4,121.2 419.5,120.7 419.6,120.4 419.7,120.4 419.8,120.5 419.9,120.8 420.0,121.3 420.1,122.0 420.2,123.0 420.3,124.2 420.4,125.7 420.5,127.5 420.6,129.7 420.7,132.3 420.8,135.6 420.9,139.8 421.0,145.4 421.1,153.3 421.2,166.0 421.3,166.0 421.4,166.0 421.5,153.4 421.6,145.5 421.7,140.0 421.8,135.9 421.9,132.6 422.0,130.0 422.1,127.8 422.2,126.1 422.3,124.6 422.4,123.5 422.5,122.6 422.6,121.9 422.7,121.4 422.8,121.2 422.9,121.1 423.0,121.2 423.1,121.5 423.2,122.0 423.3,122.8 423.4,123.7 423.5,124.9 423.6,126.4 423.7,128.2 423.8,130.4 423.9,133.1 424.0,136.4 424.1,140.6 424.2,146.1 424.3,154.1 424.4,166.0 424.6,166.0 424.7,166.0 424.8,154.2 424.9,146.2 425.0,140.8 425.1,136.6 425.2,133.3 425.3,130.7 425.4,128.6 425.5,126.8 425.6,125.4 425.7,124.2 425.8,123.3 425.9,122.6 426.0,122.2 426.1,121.9 426.2,121.8 426.3,122.0 426.4,122.3 426.5,122.8 426.6,123.5 426.7,124.5 426.8,125.7 426.9,127.1 427.0,128.9 427.1,131.1 427.2,133.8 427.3,137.1 427.4,141.3 427.5,146.8 427.6,154.8 427.7,166.0 427.8,166.0 427.9,166.0 428.0,154.9 428.1,147.0 428.2,141.5 428.3,137.3 428.4,134.1 428.5,131.4 428.6,129.3 428.7,127.5 428.8,126.1 428.9,125.0 429.0,124.1 429.1,123.4 429.2,122.9 429.3,122.6 429.4,122.6 429.5,122.7 429.6,123.0 429.7,123.5 429.8,124.2 429.9,125.2 430.0,126.4 430.1,127.9 430.2,129.7 430.3,131.9 430.4,134.5 430.5,137.8 430.6,142.0 430.7,147.6 430.8,155.5 430.9,166.0 431.0,166.0 431.1,166.0 431.2,155.6 431.3,147.7 431.4,142.2 431.5,138.1 431.6,134.8 431.7,132.2 431.8,130.0 431.9,128.3 432.0,126.8 432.1,125.7 432.2,124.8 432.3,124.1 432.4,123.6 432.5,123.3 432.6,123.3 432.7,123.4 432.8,123.7 432.9,124.2 433.0,124.9 433.1,125.9 433.2,127.1 433.3,128.6 433.4,130.4 433.5,132.6 433.6,135.2 433.7,138.5 433.8,142.7 433.9,148.3 434.0,156.2 434.1,166.0 434.2,166.0 434.3,166.0 434.4,156.3 434.5,148.4 434.6,142.9 434.7,138.8 434.8,135.5 434.9,132.9 435.0,130.7 435.1,129.0 435.2,127.5 435.3,126.4 435.4,125.5 435.5,124.8 435.6,124.3 435.7,124.1 435.8,124.0 435.9,124.1 436.0,124.4 436.1,124.9 436.2,125.7 436.3,126.6 436.4,127.8 436.5,129.3 436.6,131.1 436.7,133.3 436.8,135.9 436.9,139.2 437.0,143.4 437.1,149.0 437.2,156.9 437.3,166.0 437.4,166.0 437.5,166.0 437.6,157.0 437.7,149.1 437.8,143.6 437.9,139.5 438.0,136.2 438.1,133.6 438.2,131.4 438.3,129.7 438.4,128.2 438.5,127.1 438.6,126.2 438.7,125.5 438.8,125.0 438.9,124.8 439.0,124.7 439.1,124.8 439.2,125.1 439.3,125.6 439.4,126.4 439.5,127.3 439.6,128.5 439.7,130.0 439.8,131.8 439.9,134.0 440.0,136.6 440.1,139.9 440.2,144.1 440.3,149.7 440.4,157.6 440.5,166.0 440.6,166.0 440.7,166.0 440.8,157.7 440.9,149.8 441.0,144.3 441.1,140.2 441.2,136.9 441.3,134.3 441.4,132.1 441.5,130.4 441.6,128.9 441.7,127.8 441.8,126.9 441.9,126.2 442.0,125.7 442.1,125.5 442.2,125.4 442.3,125.5 442.4,125.8 442.5,126.3 442.6,127.0 442.7,128.0 442.8,129.2 442.9,130.7 443.0,132.5 443.1,134.7 443.2,137.3 443.3,140.6 443.4,144.8 443.5,150.4 443.6,158.3 443.7,166.0 443.8,166.0 443.9,166.0 444.0,158.4 444.1,150.5 444.2,145.0 444.3,140.9 444.4,137.6 444.5,135.0 444.6,132.8 444.7,131.1 444.8,129.6 444.9,128.5 445.0,127.6 445.1,126.9 445.2,126.4 445.3,126.1 445.4,126.1 445.5,126.2 445.6,126.5 445.7,127.0 445.8,127.7 445.9,128.7 446.0,129.9 446.1,131.4 446.2,133.2 446.3,135.4 446.4,138.0 446.5,141.3 446.6,145.5 446.7,151.1 446.8,159.0 446.9,166.0 447.0,166.0 447.1,166.0 447.2,159.1 447.3,151.2 447.4,145.7 447.5,141.6 447.6,138.3 447.7,135.7 447.8,133.5 447.9,131.8 448.0,130.3 448.1,129.2 448.2,128.3 448.3,127.6 448.4,127.1 448.5,126.8 448.6,126.8 448.7,126.9 448.8,127.2 448.9,127.7 449.0,128.4 449.1,129.4 449.2,130.6 449.3,132.1 449.4,133.9 449.5,136.1 449.6,138.7 449.7,142.0 449.8,146.2 449.9,151.8 450.0,159.7 450.1,166.0 450.2,166.0 450.3,166.0 450.4,159.8 450.5,151.9 450.6,146.4 450.7,142.2 450.8,139.0 450.9,136.4 451.0,134.2 451.1,132.5 451.2,131.0 451.3,129.9 451.4,129.0 451.5,128.3 451.6,127.8 451.7,127.5 451.8,127.5 451.9,127.6 452.0,127.9 452.1,128.4 452.2,129.1 452.3,130.1 452.4,131.3 452.5,132.8 452.6,134.6 452.7,136.8 452.8,139.4 452.9,142.7 453.0,146.9 453.1,152.5 453.2,160.4 453.3,166.0 453.4,166.0 453.5,166.0 453.6,160.5 453.7,152.6 453.8,147.1 453.9,142.9 454.0,139.7 454.1,137.1 454.2,134.9 454.3,133.2 454.4,131.7 454.5,130.6 454.6,129.7 454.7,129.0 454.8,128.5 454.9,128.2 455.0,128.2 455.1,128.3 455.2,128.6 455.3,129.1 455.4,129.8 455.5,130.8 455.6,132.0 455.7,133.5 455.8,135.3 455.9,137.4 456.0,140.1 456.1,143.4 456.2,147.6 456.3,153.2 456.4,161.1 456.5,166.0 456.6,166.0 456.7,166.0 456.8,161.2 456.9,153.3 457.0,147.8 457.1,143.6 457.2,140.4 457.3,137.8 457.4,135.6 457.5,133.9 457.6,132.4 457.7,131.3 457.8,130.4 457.9,129.7 458.0,129.2 458.1,128.9 458.2,128.9 458.3,129.0 458.4,129.3 458.5,129.8 458.6,130.5 458.7,131.5 458.8,132.7 458.9,134.2 459.0,136.0 459.1,138.2 459.2,140.8 459.3,144.1 459.4,148.3 459.5,153.9 459.6,161.8 459.7,166.0 459.8,166.0 459.9,166.0 460.0,161.9 460.1,154.0 460.2,148.5 460.3,144.4 460.4,141.1 460.5,138.5 460.6,136.3 460.7,134.6 460.8,133.1 460.9,132.0 461.0,131.1 461.1,130.4 461.2,129.9 461.3,129.6 461.4,129.6 461.5,129.7 461.6,130.0 461.7,130.5 461.8,131.2 461.9,132.2 462.0,133.4 462.1,134.9 462.2,136.7 462.3,138.9 462.4,141.5 462.5,144.8 462.6,149.0 462.7,154.6 462.8,162.5 462.9,166.0 463.0,166.0 463.1,166.0 463.2,162.6 463.3,154.7 463.4,149.2 463.5,145.1 463.6,141.8 463.7,139.2 463.8,137.0 463.9,135.3 464.0,133.8 464.1,132.7 464.2,131.8 464.3,131.1 464.4,130.6 464.5,130.4 464.6,130.3 464.7,130.4 464.8,130.7 464.9,131.2 465.0,132.0 465.1,132.9 465.2,134.1 465.3,135.6 465.4,137.4 465.5,139.6 465.6,142.3 465.7,145.6 465.8,149.8 465.9,155.3 466.0,163.3 466.1,166.0 466.2,166.0 466.3,166.0 466.4,163.4 466.5,155.4 466.6,149.9 466.7,145.8 466.8,142.5 466.9,139.9 467.0,137.8 467.1,136.0 467.2,134.6 467.3,133.4 467.4,132.5 467.5,131.8 467.6,131.4 467.7,131.1 467.8,131.0 467.9,131.1 468.0,131.5 468.1,132.0 468.2,132.7 468.3,133.7 468.4,134.9 468.5,136.3 468.6,138.1 468.7,140.3 468.8,143.0 468.9,146.3 469.0,150.5 469.1,156.0 469.2,164.0 469.3,166.0 469.4,166.0 469.5,166.0 469.6,164.1 469.7,156.2 469.8,150.7 469.9,146.5 470.0,143.3 470.1,140.7 470.2,138.5 470.3,136.8 470.4,135.3 470.5,134.2 470.6,133.3 470.7,132.6 470.8,132.1 470.9,131.9 471.0,131.8 471.1,131.9 471.2,132.2 471.3,132.7 471.4,133.5 471.5,134.4 471.6,135.6 471.7,137.1 471.8,138.9 471.9,141.1 472.0,143.8 472.1,147.1 472.2,151.3 472.3,156.8 472.4,164.8 472.5,166.0 472.6,166.0 472.7,166.0 472.8,164.9 472.9,156.9 473.0,151.4 473.1,147.3 473.2,144.0 473.3,141.4 473.4,139.3 473.5,137.5 473.6,136.1 473.7,134.9 473.8,134.0 473.9,133.4 474.0,132.9 474.1,132.6 474.2,132.6 474.3,132.7 474.4,133.0 474.5,133.5 474.6,134.2 474.7,135.2 474.8,136.4 474.9,137.9 475.0,139.7 475.1,141.9 475.2,144.5 475.3,147.8 475.4,152.0 475.5,157.6 475.6,165.5 475.7,166.0 475.8,166.0 475.9,166.0 476.0,165.6 476.1,157.7 476.2,152.2 476.3,148.1 476.4,144.8 476.5,142.2 476.6,140.1 476.7,138.3 476.8,136.9 476.9,135.7 477.0,134.8 477.1,134.1 477.2,133.7 477.3,133.4 477.4,133.3 477.5,133.5 477.6,133.8 477.7,134.3 477.8,135.0 477.9,136.0 478.0,137.2 478.1,138.7 478.2,140.5 478.3,142.7 478.4,145.3 478.5,148.6 478.6,152.8 478.7,158.4 478.8,166.0 478.9,166.0 479.0,166.0 479.1,166.0 479.2,166.0 479.3,158.5 479.4,153.0 479.5,148.9 479.6,145.7 479.7,143.0 479.8,140.9 479.9,139.1 480.0,137.7 480.1,136.5 480.2,135.6 480.3,135.0 480.4,134.5 480.5,134.2 480.6,134.2 480.7,134.3 480.8,134.6 480.9,135.1 481.0,135.9 481.1,136.8 481.2,138.0 481.3,139.5 481.4,141.3 481.5,143.5 481.6,146.2 481.7,149.5 481.8,153.7 481.9,159.2 482.0,166.0 482.1,166.0 482.2,166.0 482.3,166.0 482.4,166.0 482.5,159.4 482.6,153.9 482.7,149.8 482.8,146.5 482.9,143.9 483.0,141.7 483.1,140.0 483.2,138.6 483.3,137.4 483.4,136.5 483.5,135.8 483.6,135.4 483.7,135.1 483.8,135.0 483.9,135.2 484.0,135.5 484.1,136.0 484.2,136.7 484.3,137.7 484.4,138.9 484.5,140.4 484.6,142.2 484.7,144.4 484.8,147.1 484.9,150.4 485.0,154.6 485.1,160.1 485.2,166.0 485.3,166.0 485.4,166.0 485.5,166.0 485.6,166.0 485.7,160.3 485.8,154.8 485.9,150.6 486.0,147.4 486.1,144.8 486.2,142.6 486.3,140.9 486.4,139.4 486.5,138.3 486.6,137.4 486.7,136.7 486.8,136.3 486.9,136.0 487.0,135.9 487.1,136.1 487.2,136.4 487.3,136.9 487.4,137.6 487.5,138.6 487.6,139.8 487.7,141.3 487.8,143.1 487.9,145.3 488.0,148.0 488.1,151.3 488.2,155.5 488.3,161.0 488.4,166.0 488.5,166.0 488.6,166.0 488.7,166.0 488.8,166.0 488.9,161.2 489.0,155.7 489.1,151.6 489.2,148.3 489.3,145.7 489.4,143.6 489.5,141.8 489.6,140.4 489.7,139.3 489.8,138.4 489.9,137.7 490.0,137.2 490.1,137.0 490.2,136.9 490.3,137.0 490.4,137.3 490.5,137.9 490.6,138.6 490.7,139.6 490.8,140.8 490.9,142.3 491.0,144.1 491.1,146.3 491.2,148.9 491.3,152.3 491.4,156.5 491.5,162.0 491.6,166.0 491.7,166.0 491.8,166.0 491.9,166.0 492.0,166.0 492.1,162.2 492.2,156.7 492.3,152.6 492.4,149.3 492.5,146.7 492.6,144.6 492.7,142.8 492.9,141.4 493.0,140.3 493.1,139.4 493.2,138.7 493.3,138.2 493.4,138.0 493.5,137.9 493.6,138.0 493.7,138.4 493.8,138.9 493.9,139.6 494.0,140.6 494.1,141.8 494.2,143.3 494.3,145.1 494.4,147.3 494.5,150.0 494.6,153.3 494.7,157.5 494.8,163.1 494.9,166.0 495.0,166.0 495.1,166.0 495.2,166.0 495.3,166.0 495.4,163.3 495.5,157.8 495.6,153.7 495.7,150.4 495.8,147.8 495.9,145.7 496.0,143.9 496.1,142.5 496.2,141.3 496.3,140.5 496.4,139.8 496.5,139.3 496.6,139.1 496.7,139.0 496.8,139.2 496.9,139.5 497.0,140.0 497.1,140.7 497.2,141.7 497.3,142.9 497.4,144.4 497.5,146.2 497.6,148.4 497.7,151.1 497.8,154.4 497.9,158.6 498.0,164.2 498.1,166.0 498.2,166.0 498.3,166.0 498.4,166.0 498.5,166.0 498.6,164.4 498.7,158.9 498.8,154.8 498.9,151.6 499.0,149.0 499.1,146.8 499.2,145.1 499.3,143.7 499.4,142.5 499.5,141.6 499.6,141.0 499.7,140.5 499.8,140.3 499.9,140.2 500.0,140.4 500.1,140.7 500.2,141.2 500.3,142.0 500.4,142.9 500.5,144.1 500.6,145.6 500.7,147.5 500.8,149.7 500.9,152.4 501.0,155.7 501.1,159.9 501.2,165.5 501.3,166.0 501.4,166.0 501.5,166.0 501.6,166.0 501.7,166.0 501.8,165.7 501.9,160.2 502.0,156.1 502.1,152.9 502.2,150.3 502.3,148.1 502.4,146.4 502.5,145.0 502.6,143.8 502.7,143.0 502.8,142.3 502.9,141.9 503.0,141.6 503.1,141.6 503.2,141.7 503.3,142.0 503.4,142.6 503.5,143.3 503.6,144.3 503.7,145.5 503.8,147.0 503.9,148.8 504.0,151.0 504.1,153.7 504.2,157.1 504.3,161.3 504.4,166.0 504.5,166.0 504.6,166.0 504.7,166.0 504.8,166.0 504.9,166.0 505.0,166.0 505.1,161.7 505.2,157.5 505.3,154.3 505.4,151.7 505.5,149.6 505.6,147.9 505.7,146.4 505.8,145.3 505.9,144.4 506.0,143.8 506.1,143.3 506.2,143.1 506.3,143.1 506.4,143.2 506.5,143.5 506.6,144.1 506.7,144.8 506.8,145.8 506.9,147.0 507.0,148.6 507.1,150.4 507.2,152.6 507.3,155.3 507.4,158.6 507.5,162.9 507.6,166.0 507.7,166.0 507.8,166.0 507.9,166.0 508.0,166.0 508.1,166.0 508.2,166.0 508.3,163.3 508.4,159.2 508.5,156.0 508.6,153.4 508.7,151.2 508.8,149.5 508.9,148.1 509.0,147.0 509.1,146.1 509.2,145.5 509.3,145.1 509.4,144.8 509.5,144.8 509.6,144.9 509.7,145.3 509.8,145.8 509.9,146.6 510.0,147.6 510.1,148.8 510.2,150.3 510.3,152.2 510.4,154.4 510.5,157.1 510.6,160.5 510.7,164.7 510.8,166.0 510.9,166.0 511.0,166.0 511.1,166.0 511.2,166.0 511.3,166.0 511.4,166.0 511.5,165.2 511.6,161.1 511.7,157.9 511.8,155.3 511.9,153.2 512.0,151.5 512.1,150.1 512.2,149.0 512.3,148.1 512.4,147.5 512.5,147.1 512.6,146.9 512.7,146.8 512.8,147.0 512.9,147.4 513.0,147.9 513.1,148.7 513.2,149.7 513.3,151.0 513.4,152.5 513.5,154.3 513.6,156.6 513.7,159.3 513.8,162.7 513.9,166.0 514.0,166.0 514.1,166.0 514.2,166.0 514.3,166.0 514.4,166.0 514.5,166.0 514.6,166.0 514.7,166.0 514.8,163.5 514.9,160.3 515.0,157.7 515.1,155.6 515.2,153.9 515.3,152.5 515.4,151.5 515.5,150.6 515.6,150.0 515.7,149.6 515.8,149.4 515.9,149.4 516.0,149.6 516.1,150.0 516.2,150.5 516.3,151.3 516.4,152.4 516.5,153.6 516.6,155.2 516.7,157.1 516.8,159.3 516.9,162.1 517.0,165.5 517.1,166.0 517.2,166.0 517.3,166.0 517.4,166.0 517.5,166.0 517.6,166.0 517.7,166.0 517.8,166.0 517.9,166.0 518.0,166.0 518.1,163.3 518.2,160.8 518.3,158.7 518.4,157.1 518.5,155.7 518.6,154.7 518.7,153.9 518.8,153.3 518.9,152.9 519.0,152.8 519.1,152.8 519.2,153.0 519.3,153.4 519.4,154.0 519.5,154.9 519.6,155.9 519.7,157.2 519.8,158.8 519.9,160.8 520.0,163.1 520.1,165.9 520.2,166.0 520.3,166.0 520.4,166.0 520.5,166.0 520.6,166.0 520.7,166.0 520.8,166.0 520.9,166.0 521.0,166.0 521.1,166.0 521.2,166.0 521.3,166.0 521.4,165.3 521.5,163.3 521.6,161.7 521.7,160.4 521.8,159.4 521.9,158.7 522.0,158.2 522.1,157.9 522.2,157.8 522.3,157.9 522.4,158.2 522.5,158.7 522.6,159.4 522.7,160.4 522.8,161.5 522.9,162.9 523.0,164.6 523.1,166.0 523.2,166.0 523.3,166.0 523.4,166.0 523.5,166.0 523.6,166.0 523.7,166.0 523.8,166.0 523.9,166.0 524.0,166.0 524.1,166.0 524.2,166.0 524.3,166.0 524.4,166.0 524.5,166.0 524.6,166.0 524.7,166.0 524.8,166.0 524.9,166.0 525.0,166.0 525.1,166.0 525.2,166.0 525.3,166.0 525.4,166.0 525.5,166.0 525.6,166.0 525.7,166.0 525.8,166.0 525.9,166.0 526.0,166.0 526.1,166.0 526.2,166.0 526.3,166.0 526.4,166.0 526.5,166.0 526.6,166.0 526.7,166.0 526.8,166.0 526.9,166.0 527.0,166.0" fill="none" stroke="#4a90d9" stroke-width="1.2" stroke-linejoin="round"/>
  <text x="154.5" y="190" text-anchor="middle" font-size="8" fill="#6b7280">n / N</text>
  <text x="424.5" y="190" text-anchor="middle" font-size="8" fill="#6b7280">Normalized frequency (× Fₛ)</text>
</svg>
