<svg xmlns="http://www.w3.org/2000/svg" viewBox="0 0 560 190" width="560" height="190" style="font-family:system-ui,-apple-system,sans-serif">
  <rect width="560" height="190" fill="#fafafa" rx="6"/>
  <line x1="52" y1="152.0" x2="257" y2="152.0" stroke="#e5e7eb" stroke-width="0.5"/>
  <text x="48" y="155.0" text-anchor="end" font-size="7.5" fill="#6b7280">0</text>
  <line x1="52" y1="82.0" x2="257" y2="82.0" stroke="#e5e7eb" stroke-width="0.5"/>
  <text x="48" y="85.0" text-anchor="end" font-size="7.5" fill="#6b7280">0.5</text>
  <line x1="52" y1="12.0" x2="257" y2="12.0" stroke="#e5e7eb" stroke-width="0.5"/>
  <text x="48" y="15.0" text-anchor="end" font-size="7.5" fill="#6b7280">1</text>
  <line x1="52.0" y1="12" x2="52.0" y2="152" stroke="#e5e7eb" stroke-width="0.5"/>
  <text x="52.0" y="164" text-anchor="middle" font-size="7.5" fill="#6b7280">0</text>
  <line x1="154.5" y1="12" x2="154.5" y2="152" stroke="#e5e7eb" stroke-width="0.5"/>
  <text x="154.5" y="164" text-anchor="middle" font-size="7.5" fill="#6b7280">0.5</text>
  <line x1="257.0" y1="12" x2="257.0" y2="152" stroke="#e5e7eb" stroke-width="0.5"/>
  <text x="257.0" y="164" text-anchor="middle" font-size="7.5" fill="#6b7280">1</text>
  <line x1="52" y1="12" x2="52" y2="152" stroke="#d1d5db" stroke-width="0.75"/>
  <line x1="52" y1="152" x2="257" y2="152" stroke="#d1d5db" stroke-width="0.75"/>
  <path d="M52.0,152.0 52.0,151.5 52.8,150.4 53.6,149.3 54.4,148.2 55.2,147.1 56.0,146.0 56.8,144.9 57.6,143.8 58.4,142.7 59.2,141.6 60.0,140.5 60.8,139.4 61.6,138.3 62.5,137.2 63.3,136.1 64.1,135.0 64.9,134.0 65.7,132.9 66.5,131.8 67.3,130.7 68.1,129.6 68.9,128.5 69.7,127.4 70.5,126.3 71.3,125.2 72.1,124.1 72.9,123.0 73.7,121.9 74.5,120.8 75.3,119.7 76.1,118.6 76.9,117.5 77.7,116.5 78.5,115.4 79.3,114.3 80.1,113.2 80.9,112.1 81.7,111.0 82.5,109.9 83.4,108.8 84.2,107.7 85.0,106.6 85.8,105.5 86.6,104.4 87.4,103.3 88.2,102.2 89.0,101.1 89.8,100.0 90.6,99.0 91.4,97.9 92.2,96.8 93.0,95.7 93.8,94.6 94.6,93.5 95.4,92.4 96.2,91.3 97.0,90.2 97.8,89.1 98.6,88.0 99.4,86.9 100.2,85.8 101.0,84.7 101.8,83.6 102.6,82.5 103.5,81.5 104.3,80.4 105.1,79.3 105.9,78.2 106.7,77.1 107.5,76.0 108.3,74.9 109.1,73.8 109.9,72.7 110.7,71.6 111.5,70.5 112.3,69.4 113.1,68.3 113.9,67.2 114.7,66.1 115.5,65.0 116.3,64.0 117.1,62.9 117.9,61.8 118.7,60.7 119.5,59.6 120.3,58.5 121.1,57.4 121.9,56.3 122.7,55.2 123.5,54.1 124.4,53.0 125.2,51.9 126.0,50.8 126.8,49.7 127.6,48.6 128.4,47.5 129.2,46.5 130.0,45.4 130.8,44.3 131.6,43.2 132.4,42.1 133.2,41.0 134.0,39.9 134.8,38.8 135.6,37.7 136.4,36.6 137.2,35.5 138.0,34.4 138.8,33.3 139.6,32.2 140.4,31.1 141.2,30.0 142.0,29.0 142.8,27.9 143.6,26.8 144.5,25.7 145.3,24.6 146.1,23.5 146.9,22.4 147.7,21.3 148.5,20.2 149.3,19.1 150.1,18.0 150.9,16.9 151.7,15.8 152.5,14.7 153.3,13.6 154.1,12.5 154.9,12.5 155.7,13.6 156.5,14.7 157.3,15.8 158.1,16.9 158.9,18.0 159.7,19.1 160.5,20.2 161.3,21.3 162.1,22.4 162.9,23.5 163.7,24.6 164.5,25.7 165.4,26.8 166.2,27.9 167.0,29.0 167.8,30.0 168.6,31.1 169.4,32.2 170.2,33.3 171.0,34.4 171.8,35.5 172.6,36.6 173.4,37.7 174.2,38.8 175.0,39.9 175.8,41.0 176.6,42.1 177.4,43.2 178.2,44.3 179.0,45.4 179.8,46.5 180.6,47.5 181.4,48.6 182.2,49.7 183.0,50.8 183.8,51.9 184.6,53.0 185.5,54.1 186.3,55.2 187.1,56.3 187.9,57.4 188.7,58.5 189.5,59.6 190.3,60.7 191.1,61.8 191.9,62.9 192.7,64.0 193.5,65.0 194.3,66.1 195.1,67.2 195.9,68.3 196.7,69.4 197.5,70.5 198.3,71.6 199.1,72.7 199.9,73.8 200.7,74.9 201.5,76.0 202.3,77.1 203.1,78.2 203.9,79.3 204.7,80.4 205.5,81.5 206.4,82.5 207.2,83.6 208.0,84.7 208.8,85.8 209.6,86.9 210.4,88.0 211.2,89.1 212.0,90.2 212.8,91.3 213.6,92.4 214.4,93.5 215.2,94.6 216.0,95.7 216.8,96.8 217.6,97.9 218.4,99.0 219.2,100.0 220.0,101.1 220.8,102.2 221.6,103.3 222.4,104.4 223.2,105.5 224.0,106.6 224.8,107.7 225.6,108.8 226.5,109.9 227.3,111.0 228.1,112.1 228.9,113.2 229.7,114.3 230.5,115.4 231.3,116.5 232.1,117.5 232.9,118.6 233.7,119.7 234.5,120.8 235.3,121.9 236.1,123.0 236.9,124.1 237.7,125.2 238.5,126.3 239.3,127.4 240.1,128.5 240.9,129.6 241.7,130.7 242.5,131.8 243.3,132.9 244.1,134.0 244.9,135.0 245.7,136.1 246.5,137.2 247.4,138.3 248.2,139.4 249.0,140.5 249.8,141.6 250.6,142.7 251.4,143.8 252.2,144.9 253.0,146.0 253.8,147.1 254.6,148.2 255.4,149.3 256.2,150.4 257.0,151.5 L257.0,152.0 Z" fill="#4a90d9" fill-opacity="0.06"/>
  <polyline points="52.0,151.5 52.8,150.4 53.6,149.3 54.4,148.2 55.2,147.1 56.0,146.0 56.8,144.9 57.6,143.8 58.4,142.7 59.2,141.6 60.0,140.5 60.8,139.4 61.6,138.3 62.5,137.2 63.3,136.1 64.1,135.0 64.9,134.0 65.7,132.9 66.5,131.8 67.3,130.7 68.1,129.6 68.9,128.5 69.7,127.4 70.5,126.3 71.3,125.2 72.1,124.1 72.9,123.0 73.7,121.9 74.5,120.8 75.3,119.7 76.1,118.6 76.9,117.5 77.7,116.5 78.5,115.4 79.3,114.3 80.1,113.2 80.9,112.1 81.7,111.0 82.5,109.9 83.4,108.8 84.2,107.7 85.0,106.6 85.8,105.5 86.6,104.4 87.4,103.3 88.2,102.2 89.0,101.1 89.8,100.0 90.6,99.0 91.4,97.9 92.2,96.8 93.0,95.7 93.8,94.6 94.6,93.5 95.4,92.4 96.2,91.3 97.0,90.2 97.8,89.1 98.6,88.0 99.4,86.9 100.2,85.8 101.0,84.7 101.8,83.6 102.6,82.5 103.5,81.5 104.3,80.4 105.1,79.3 105.9,78.2 106.7,77.1 107.5,76.0 108.3,74.9 109.1,73.8 109.9,72.7 110.7,71.6 111.5,70.5 112.3,69.4 113.1,68.3 113.9,67.2 114.7,66.1 115.5,65.0 116.3,64.0 117.1,62.9 117.9,61.8 118.7,60.7 119.5,59.6 120.3,58.5 121.1,57.4 121.9,56.3 122.7,55.2 123.5,54.1 124.4,53.0 125.2,51.9 126.0,50.8 126.8,49.7 127.6,48.6 128.4,47.5 129.2,46.5 130.0,45.4 130.8,44.3 131.6,43.2 132.4,42.1 133.2,41.0 134.0,39.9 134.8,38.8 135.6,37.7 136.4,36.6 137.2,35.5 138.0,34.4 138.8,33.3 139.6,32.2 140.4,31.1 141.2,30.0 142.0,29.0 142.8,27.9 143.6,26.8 144.5,25.7 145.3,24.6 146.1,23.5 146.9,22.4 147.7,21.3 148.5,20.2 149.3,19.1 150.1,18.0 150.9,16.9 151.7,15.8 152.5,14.7 153.3,13.6 154.1,12.5 154.9,12.5 155.7,13.6 156.5,14.7 157.3,15.8 158.1,16.9 158.9,18.0 159.7,19.1 160.5,20.2 161.3,21.3 162.1,22.4 162.9,23.5 163.7,24.6 164.5,25.7 165.4,26.8 166.2,27.9 167.0,29.0 167.8,30.0 168.6,31.1 169.4,32.2 170.2,33.3 171.0,34.4 171.8,35.5 172.6,36.6 173.4,37.7 174.2,38.8 175.0,39.9 175.8,41.0 176.6,42.1 177.4,43.2 178.2,44.3 179.0,45.4 179.8,46.5 180.6,47.5 181.4,48.6 182.2,49.7 183.0,50.8 183.8,51.9 184.6,53.0 185.5,54.1 186.3,55.2 187.1,56.3 187.9,57.4 188.7,58.5 189.5,59.6 190.3,60.7 191.1,61.8 191.9,62.9 192.7,64.0 193.5,65.0 194.3,66.1 195.1,67.2 195.9,68.3 196.7,69.4 197.5,70.5 198.3,71.6 199.1,72.7 199.9,73.8 200.7,74.9 201.5,76.0 202.3,77.1 203.1,78.2 203.9,79.3 204.7,80.4 205.5,81.5 206.4,82.5 207.2,83.6 208.0,84.7 208.8,85.8 209.6,86.9 210.4,88.0 211.2,89.1 212.0,90.2 212.8,91.3 213.6,92.4 214.4,93.5 215.2,94.6 216.0,95.7 216.8,96.8 217.6,97.9 218.4,99.0 219.2,100.0 220.0,101.1 220.8,102.2 221.6,103.3 222.4,104.4 223.2,105.5 224.0,106.6 224.8,107.7 225.6,108.8 226.5,109.9 227.3,111.0 228.1,112.1 228.9,113.2 229.7,114.3 230.5,115.4 231.3,116.5 232.1,117.5 232.9,118.6 233.7,119.7 234.5,120.8 235.3,121.9 236.1,123.0 236.9,124.1 237.7,125.2 238.5,126.3 239.3,127.4 240.1,128.5 240.9,129.6 241.7,130.7 242.5,131.8 243.3,132.9 244.1,134.0 244.9,135.0 245.7,136.1 246.5,137.2 247.4,138.3 248.2,139.4 249.0,140.5 249.8,141.6 250.6,142.7 251.4,143.8 252.2,144.9 253.0,146.0 253.8,147.1 254.6,148.2 255.4,149.3 256.2,150.4 257.0,151.5" fill="none" stroke="#4a90d9" stroke-width="1.2" stroke-linejoin="round"/>
  <line x1="322" y1="12.0" x2="527" y2="12.0" stroke="#e5e7eb" stroke-width="0.5"/>
  <text x="318" y="15.0" text-anchor="end" font-size="7.5" fill="#6b7280">0</text>
  <line x1="322" y1="58.7" x2="527" y2="58.7" stroke="#e5e7eb" stroke-width="0.5"/>
  <text x="318" y="61.7" text-anchor="end" font-size="7.5" fill="#6b7280">-40</text>
  <line x1="322" y1="105.3" x2="527" y2="105.3" stroke="#e5e7eb" stroke-width="0.5"/>
  <text x="318" y="108.3" text-anchor="end" font-size="7.5" fill="#6b7280">-80</text>
  <line x1="322" y1="152.0" x2="527" y2="152.0" stroke="#e5e7eb" stroke-width="0.5"/>
  <text x="318" y="155.0" text-anchor="end" font-size="7.5" fill="#6b7280">-120</text>
  <line x1="322.0" y1="12" x2="322.0" y2="152" stroke="#e5e7eb" stroke-width="0.5"/>
  <text x="322.0" y="164" text-anchor="middle" font-size="7.5" fill="#6b7280">0</text>
  <line x1="363.0" y1="12" x2="363.0" y2="152" stroke="#e5e7eb" stroke-width="0.5"/>
  <text x="363.0" y="164" text-anchor="middle" font-size="7.5" fill="#6b7280">0.1</text>
  <line x1="404.0" y1="12" x2="404.0" y2="152" stroke="#e5e7eb" stroke-width="0.5"/>
  <text x="404.0" y="164" text-anchor="middle" font-size="7.5" fill="#6b7280">0.2</text>
  <line x1="445.0" y1="12" x2="445.0" y2="152" stroke="#e5e7eb" stroke-width="0.5"/>
  <text x="445.0" y="164" text-anchor="middle" font-size="7.5" fill="#6b7280">0.3</text>
  <line x1="486.0" y1="12" x2="486.0" y2="152" stroke="#e5e7eb" stroke-width="0.5"/>
  <text x="486.0" y="164" text-anchor="middle" font-size="7.5" fill="#6b7280">0.4</text>
  <line x1="527.0" y1="12" x2="527.0" y2="152" stroke="#e5e7eb" stroke-width="0.5"/>
  <text x="527.0" y="164" text-anchor="middle" font-size="7.5" fill="#6b7280">0.5</text>
  <line x1="322" y1="12" x2="322" y2="152" stroke="#d1d5db" stroke-width="0.75"/>
  <line x1="322" y1="152" x2="527" y2="152" stroke="#d1d5db" stroke-width="0.75"/>
  <polyline points="322.0,12.0 322.1,12.0 322.2,12.1 322.3,12.3 322.4,12.5 322.5,12.8 322.6,13.2 322.7,13.6 322.8,14.1 322.9,14.7 323.0,15.4 323.1,16.1 323.2,16.9 323.3,17.8 323.4,18.8 323.5,19.9 323.6,21.2 323.7,22.5 323.8,23.9 323.9,25.5 324.0,27.3 324.1,29.2 324.2,31.3 324.3,33.7 324.4,36.4 324.5,39.4 324.6,42.9 324.7,47.0 324.8,52.0 324.9,58.3 325.0,67.0 325.1,81.6 325.2,152.0 325.3,82.9 325.4,69.6 325.5,62.1 325.6,57.1 325.7,53.4 325.8,50.6 325.9,48.4 326.0,46.7 326.1,45.4 326.2,44.5 326.3,43.7 326.4,43.3 326.5,43.0 326.6,43.0 326.7,43.1 326.8,43.4 326.9,43.9 327.0,44.6 327.1,45.5 327.2,46.6 327.3,48.0 327.4,49.5 327.5,51.4 327.6,53.6 327.7,56.1 327.8,59.2 327.9,62.8 328.0,67.4 328.1,73.3 328.2,81.7 328.3,96.0 328.4,152.0 328.5,96.6 328.6,83.0 328.7,75.2 328.8,69.9 328.9,66.0 329.0,63.0 329.1,60.6 329.2,58.7 329.3,57.1 329.4,55.9 329.5,55.0 329.6,54.3 329.7,53.9 329.8,53.7 329.9,53.6 330.0,53.8 330.1,54.1 330.2,54.7 330.3,55.4 330.4,56.4 330.5,57.6 330.6,59.0 330.7,60.7 330.8,62.7 330.9,65.2 331.0,68.1 331.1,71.6 331.2,76.1 331.3,81.9 331.4,90.2 331.5,104.3 331.6,152.0 331.7,104.8 331.8,91.0 331.9,83.2 332.0,77.8 332.1,73.7 332.2,70.6 332.3,68.1 332.4,66.1 332.5,64.5 332.6,63.2 332.7,62.2 332.8,61.5 332.9,60.9 333.0,60.6 333.1,60.5 333.2,60.6 333.3,60.9 333.4,61.4 333.5,62.0 333.6,62.9 333.7,64.0 333.8,65.4 333.9,67.1 334.0,69.0 334.1,71.4 334.2,74.3 334.3,77.7 334.4,82.1 334.5,87.9 334.6,96.1 334.7,110.2 334.8,152.0 334.9,110.5 335.0,96.7 335.1,88.9 335.2,83.4 335.3,79.3 335.4,76.2 335.5,73.6 335.6,71.6 335.7,69.9 335.8,68.6 335.9,67.5 336.0,66.7 336.1,66.2 336.2,65.8 336.3,65.7 336.4,65.7 336.5,65.9 336.6,66.4 336.7,67.0 336.8,67.9 336.9,68.9 337.0,70.3 337.1,71.9 337.2,73.8 337.3,76.2 337.4,79.0 337.5,82.4 337.6,86.8 337.7,92.5 337.8,100.7 337.9,114.8 338.0,152.0 338.1,115.0 338.2,101.2 338.3,93.3 338.4,87.8 338.5,83.7 338.6,80.5 338.7,77.9 338.8,75.9 338.9,74.2 339.0,72.8 339.1,71.7 339.2,70.9 339.3,70.3 339.4,69.9 339.5,69.8 339.6,69.8 339.7,70.0 339.8,70.4 339.9,71.0 340.0,71.8 340.1,72.9 340.2,74.2 340.3,75.8 340.4,77.7 340.5,80.0 340.6,82.8 340.7,86.3 340.8,90.6 340.9,96.3 341.0,104.5 341.1,118.5 341.2,152.0 341.3,118.7 341.4,104.9 341.5,96.9 341.6,91.4 341.7,87.3 341.8,84.1 341.9,81.5 342.0,79.4 342.1,77.7 342.2,76.3 342.3,75.2 342.4,74.4 342.5,73.8 342.6,73.4 342.7,73.2 342.8,73.2 342.9,73.4 343.0,73.8 343.1,74.4 343.2,75.2 343.3,76.2 343.4,77.5 343.5,79.1 343.6,81.0 343.7,83.3 343.8,86.0 343.9,89.5 344.0,93.8 344.1,99.5 344.2,107.6 344.3,121.7 344.4,152.0 344.5,121.9 344.6,108.0 344.7,100.0 344.8,94.5 344.9,90.4 345.0,87.1 345.1,84.5 345.2,82.4 345.3,80.7 345.4,79.3 345.5,78.2 345.6,77.4 345.7,76.7 345.8,76.3 345.9,76.1 346.0,76.1 346.1,76.3 346.2,76.7 346.3,77.2 346.4,78.0 346.5,79.1 346.6,80.3 346.7,81.9 346.8,83.8 346.9,86.1 347.0,88.8 347.1,92.3 347.2,96.6 347.3,102.2 347.4,110.4 347.5,124.4 347.6,152.0 347.7,124.6 347.8,110.7 347.9,102.7 348.0,97.2 348.1,93.0 348.2,89.8 348.3,87.2 348.4,85.1 348.5,83.3 348.6,81.9 348.7,80.8 348.8,80.0 348.9,79.3 349.0,78.9 349.1,78.7 349.2,78.6 349.3,78.8 349.4,79.2 349.5,79.8 349.6,80.6 349.7,81.6 349.8,82.8 349.9,84.4 350.0,86.3 350.1,88.5 350.2,91.3 350.3,94.7 350.4,99.0 350.5,104.7 350.6,112.8 350.7,126.8 350.8,152.0 350.9,127.0 351.0,113.1 351.1,105.1 351.2,99.6 351.3,95.4 351.4,92.1 351.5,89.5 351.6,87.4 351.7,85.7 351.8,84.3 351.9,83.1 352.0,82.3 352.1,81.6 352.2,81.2 352.3,81.0 352.4,80.9 352.5,81.1 352.6,81.4 352.7,82.0 352.8,82.8 352.9,83.8 353.0,85.1 353.1,86.6 353.2,88.5 353.3,90.7 353.4,93.5 353.5,96.9 353.6,101.2 353.7,106.8 353.8,115.0 353.9,129.0 354.0,152.0 354.1,129.1 354.2,115.2 354.3,107.2 354.4,101.7 354.5,97.5 354.6,94.3 354.7,91.6 354.8,89.5 354.9,87.8 355.0,86.3 355.1,85.2 355.2,84.3 355.3,83.7 355.4,83.2 355.5,83.0 355.6,83.0 355.7,83.1 355.8,83.5 355.9,84.0 356.0,84.8 356.1,85.8 356.3,87.1 356.4,88.6 356.5,90.5 356.6,92.7 356.7,95.5 356.8,98.9 356.9,103.2 357.0,108.8 357.1,116.9 357.2,130.9 357.3,152.0 357.4,131.1 357.5,117.2 357.6,109.2 357.7,103.6 357.8,99.5 357.9,96.2 358.0,93.6 358.1,91.4 358.2,89.7 358.3,88.2 358.4,87.1 358.5,86.2 358.6,85.6 358.7,85.1 358.8,84.9 358.9,84.8 359.0,85.0 359.1,85.3 359.2,85.9 359.3,86.7 359.4,87.7 359.5,88.9 359.6,90.4 359.7,92.3 359.8,94.6 359.9,97.3 360.0,100.7 360.1,105.0 360.2,110.6 360.3,118.7 360.4,132.7 360.5,152.0 360.6,132.8 360.7,118.9 360.8,110.9 360.9,105.4 361.0,101.2 361.1,97.9 361.2,95.3 361.3,93.2 361.4,91.4 361.5,90.0 361.6,88.8 361.7,88.0 361.8,87.3 361.9,86.8 362.0,86.6 362.1,86.6 362.2,86.7 362.3,87.1 362.4,87.6 362.5,88.4 362.6,89.4 362.7,90.6 362.8,92.1 362.9,94.0 363.0,96.2 363.1,99.0 363.2,102.4 363.3,106.6 363.4,112.3 363.5,120.4 363.6,134.4 363.7,152.0 363.8,134.5 363.9,120.6 364.0,112.6 364.1,107.0 364.2,102.9 364.3,99.6 364.4,96.9 364.5,94.8 364.6,93.0 364.7,91.6 364.8,90.4 364.9,89.6 365.0,88.9 365.1,88.4 365.2,88.2 365.3,88.1 365.4,88.3 365.5,88.6 365.6,89.2 365.7,89.9 365.8,90.9 365.9,92.2 366.0,93.7 366.1,95.5 366.2,97.8 366.3,100.5 366.4,103.9 366.5,108.2 366.6,113.8 366.7,121.9 366.8,135.9 366.9,152.0 367.0,136.0 367.1,122.1 367.2,114.1 367.3,108.5 367.4,104.4 367.5,101.1 367.6,98.4 367.7,96.3 367.8,94.5 367.9,93.1 368.0,91.9 368.1,91.0 368.2,90.4 368.3,89.9 368.4,89.7 368.5,89.6 368.6,89.8 368.7,90.1 368.8,90.6 368.9,91.4 369.0,92.4 369.1,93.6 369.2,95.2 369.3,97.0 369.4,99.2 369.5,102.0 369.6,105.4 369.7,109.6 369.8,115.3 369.9,123.4 370.0,137.4 370.1,152.0 370.2,137.4 370.3,123.5 370.4,115.5 370.5,110.0 370.6,105.8 370.7,102.5 370.8,99.9 370.9,97.7 371.0,95.9 371.1,94.5 371.2,93.3 371.3,92.4 371.4,91.8 371.5,91.3 371.6,91.1 371.7,91.0 371.8,91.1 371.9,91.5 372.0,92.0 372.1,92.8 372.2,93.8 372.3,95.0 372.4,96.5 372.5,98.4 372.6,100.6 372.7,103.3 372.8,106.7 372.9,111.0 373.0,116.6 373.1,124.7 373.2,138.7 373.3,152.0 373.4,138.8 373.5,124.9 373.6,116.9 373.7,111.3 373.8,107.1 373.9,103.8 374.0,101.2 374.1,99.0 374.2,97.3 374.3,95.8 374.4,94.7 374.5,93.8 374.6,93.1 374.7,92.6 374.8,92.4 374.9,92.3 375.0,92.5 375.1,92.8 375.2,93.3 375.3,94.1 375.4,95.1 375.5,96.3 375.6,97.8 375.7,99.7 375.8,101.9 375.9,104.6 376.0,108.0 376.1,112.3 376.2,117.9 376.3,126.0 376.4,140.0 376.5,152.0 376.6,140.0 376.7,126.1 376.8,118.1 376.9,112.6 377.0,108.4 377.1,105.1 377.2,102.4 377.3,100.3 377.4,98.5 377.5,97.1 377.6,95.9 377.7,95.0 377.8,94.3 377.9,93.9 378.0,93.6 378.1,93.5 378.2,93.7 378.3,94.0 378.4,94.6 378.5,95.3 378.6,96.3 378.7,97.5 378.8,99.0 378.9,100.9 379.0,103.1 379.1,105.8 379.2,109.2 379.3,113.5 379.4,119.1 379.5,127.2 379.6,141.2 379.7,152.0 379.8,141.2 379.9,127.3 380.0,119.3 380.1,113.8 380.2,109.6 380.3,106.3 380.4,103.6 380.5,101.5 380.6,99.7 380.7,98.2 380.8,97.1 380.9,96.2 381.0,95.5 381.1,95.0 381.2,94.8 381.3,94.7 381.4,94.8 381.5,95.2 381.6,95.7 381.7,96.5 381.8,97.4 381.9,98.7 382.0,100.2 382.1,102.0 382.2,104.3 382.3,107.0 382.4,110.3 382.5,114.6 382.6,120.2 382.7,128.3 382.8,142.3 382.9,152.0 383.0,142.4 383.1,128.5 383.2,120.5 383.3,114.9 383.4,110.7 383.5,107.4 383.6,104.7 383.7,102.6 383.8,100.8 383.9,99.4 384.0,98.2 384.1,97.3 384.2,96.6 384.3,96.2 384.4,95.9 384.5,95.8 384.6,96.0 384.7,96.3 384.8,96.8 384.9,97.6 385.0,98.5 385.1,99.8 385.2,101.3 385.3,103.1 385.4,105.4 385.5,108.1 385.6,111.4 385.7,115.7 385.8,121.3 385.9,129.4 386.0,143.4 386.1,152.0 386.2,143.5 386.3,129.6 386.4,121.5 386.5,116.0 386.6,111.8 386.7,108.5 386.8,105.8 386.9,103.7 387.0,101.9 387.1,100.4 387.2,99.3 387.3,98.4 387.4,97.7 387.5,97.2 387.6,97.0 387.7,96.9 387.8,97.0 387.9,97.4 388.0,97.9 388.1,98.6 388.2,99.6 388.3,100.8 388.4,102.3 388.5,104.2 388.6,106.4 388.7,109.1 388.8,112.5 388.9,116.7 389.0,122.4 389.1,130.5 389.2,144.4 389.3,152.0 389.4,144.5 389.5,130.6 389.6,122.6 389.7,117.0 389.8,112.8 389.9,109.5 390.0,106.9 390.1,104.7 390.2,102.9 390.3,101.5 390.4,100.3 390.5,99.4 390.6,98.7 390.7,98.2 390.8,98.0 390.9,97.9 391.0,98.0 391.1,98.4 391.2,98.9 391.3,99.6 391.4,100.6 391.5,101.8 391.6,103.3 391.7,105.2 391.8,107.4 391.9,110.1 392.0,113.5 392.1,117.8 392.2,123.4 392.3,131.5 392.4,145.4 392.5,152.0 392.6,145.5 392.7,131.6 392.8,123.6 392.9,118.0 393.0,113.8 393.1,110.5 393.2,107.8 393.3,105.7 393.4,103.9 393.5,102.5 393.6,101.3 393.7,100.4 393.8,99.7 393.9,99.2 394.0,99.0 394.1,98.9 394.2,99.0 394.3,99.3 394.4,99.9 394.5,100.6 394.6,101.6 394.7,102.8 394.8,104.3 394.9,106.2 395.0,108.4 395.1,111.1 395.2,114.5 395.3,118.7 395.4,124.3 395.5,132.4 395.6,146.4 395.7,152.0 395.8,146.5 395.9,132.5 396.0,124.5 396.1,119.0 396.2,114.8 396.3,111.5 396.4,108.8 396.5,106.6 396.6,104.8 396.7,103.4 396.8,102.2 396.9,101.3 397.0,100.6 397.1,100.2 397.2,99.9 397.3,99.8 397.4,100.0 397.5,100.3 397.6,100.8 397.7,101.6 397.8,102.5 397.9,103.7 398.0,105.3 398.1,107.1 398.2,109.3 398.3,112.0 398.4,115.4 398.5,119.6 398.6,125.3 398.7,133.4 398.8,147.3 398.9,152.0 399.0,147.4 399.1,133.5 399.2,125.4 399.3,119.9 399.4,115.7 399.5,112.4 399.6,109.7 399.7,107.5 399.8,105.8 399.9,104.3 400.0,103.2 400.1,102.2 400.2,101.6 400.3,101.1 400.4,100.8 400.5,100.7 400.6,100.9 400.7,101.2 400.8,101.7 400.9,102.5 401.0,103.4 401.1,104.7 401.2,106.2 401.3,108.0 401.4,110.2 401.5,112.9 401.6,116.3 401.7,120.5 401.8,126.2 401.9,134.3 402.0,148.2 402.1,152.0 402.2,148.3 402.3,134.4 402.4,126.3 402.5,120.8 402.6,116.6 402.7,113.3 402.8,110.6 402.9,108.4 403.0,106.7 403.1,105.2 403.2,104.0 403.3,103.1 403.4,102.4 403.5,102.0 403.6,101.7 403.7,101.6 403.8,101.8 403.9,102.1 404.0,102.6 404.1,103.3 404.2,104.3 404.3,105.5 404.4,107.0 404.5,108.9 404.6,111.1 404.7,113.8 404.8,117.2 404.9,121.4 405.0,127.0 405.1,135.1 405.2,149.1 405.3,152.0 405.4,149.2 405.5,135.2 405.6,127.2 405.7,121.6 405.8,117.4 405.9,114.1 406.0,111.5 406.1,109.3 406.2,107.5 406.3,106.1 406.4,104.9 406.5,104.0 406.6,103.3 406.7,102.8 406.8,102.6 406.9,102.5 407.0,102.6 407.1,102.9 407.2,103.5 407.3,104.2 407.4,105.2 407.5,106.4 407.6,107.9 407.7,109.7 407.8,111.9 407.9,114.7 408.0,118.0 408.1,122.3 408.2,127.9 408.3,136.0 408.4,149.9 408.5,152.0 408.6,150.0 408.7,136.1 408.8,128.0 408.9,122.5 409.0,118.3 409.1,115.0 409.2,112.3 409.3,110.1 409.4,108.4 409.5,106.9 409.6,105.7 409.7,104.8 409.8,104.1 409.9,103.7 410.0,103.4 410.1,103.3 410.2,103.4 410.3,103.8 410.4,104.3 410.5,105.0 410.6,106.0 410.7,107.2 410.8,108.7 410.9,110.5 411.0,112.8 411.1,115.5 411.2,118.8 411.3,123.1 411.4,128.7 411.5,136.8 411.6,150.8 411.7,152.0 411.8,150.8 411.9,136.9 412.0,128.9 412.1,123.3 412.2,119.1 412.3,115.8 412.4,113.1 412.5,110.9 412.6,109.2 412.7,107.7 412.8,106.5 412.9,105.6 413.0,104.9 413.1,104.5 413.2,104.2 413.3,104.1 413.4,104.2 413.5,104.6 413.6,105.1 413.7,105.8 413.8,106.8 413.9,108.0 414.0,109.5 414.1,111.3 414.2,113.6 414.3,116.3 414.4,119.6 414.5,123.9 414.6,129.5 414.7,137.6 414.8,151.6 414.9,152.0 415.0,151.6 415.1,137.7 415.2,129.7 415.3,124.1 415.4,119.9 415.5,116.6 415.6,113.9 415.7,111.7 415.8,110.0 415.9,108.5 416.0,107.3 416.1,106.4 416.2,105.7 416.3,105.3 416.4,105.0 416.5,104.9 416.6,105.0 416.7,105.4 416.8,105.9 416.9,106.6 417.0,107.6 417.1,108.8 417.2,110.3 417.3,112.1 417.4,114.4 417.5,117.1 417.6,120.4 417.7,124.7 417.8,130.3 417.9,138.4 418.0,152.0 418.1,152.0 418.2,152.0 418.3,138.5 418.4,130.4 418.5,124.9 418.6,120.7 418.7,117.4 418.8,114.7 418.9,112.5 419.0,110.7 419.1,109.3 419.2,108.1 419.3,107.2 419.4,106.5 419.5,106.0 419.6,105.8 419.7,105.7 419.8,105.8 419.9,106.1 420.0,106.7 420.1,107.4 420.2,108.4 420.3,109.6 420.4,111.1 420.5,112.9 420.6,115.1 420.7,117.8 420.8,121.2 420.9,125.4 421.0,131.1 421.1,139.1 421.2,152.0 421.3,152.0 421.4,152.0 421.5,139.2 421.6,131.2 421.7,125.6 421.8,121.4 421.9,118.1 422.0,115.5 422.1,113.3 422.2,111.5 422.3,110.0 422.4,108.9 422.5,108.0 422.6,107.3 422.7,106.8 422.8,106.5 422.9,106.4 423.0,106.6 423.1,106.9 423.2,107.4 423.3,108.1 423.4,109.1 423.5,110.3 423.6,111.8 423.7,113.7 423.8,115.9 423.9,118.6 424.0,121.9 424.1,126.2 424.2,131.8 424.3,139.9 424.4,152.0 424.6,152.0 424.7,152.0 424.8,140.0 424.9,132.0 425.0,126.4 425.1,122.2 425.2,118.9 425.3,116.2 425.4,114.0 425.5,112.3 425.6,110.8 425.7,109.6 425.8,108.7 425.9,108.0 426.0,107.5 426.1,107.3 426.2,107.2 426.3,107.3 426.4,107.6 426.5,108.2 426.6,108.9 426.7,109.9 426.8,111.1 426.9,112.6 427.0,114.4 427.1,116.6 427.2,119.3 427.3,122.7 427.4,126.9 427.5,132.6 427.6,140.6 427.7,152.0 427.8,152.0 427.9,152.0 428.0,140.7 428.1,132.7 428.2,127.1 428.3,122.9 428.4,119.6 428.5,116.9 428.6,114.8 428.7,113.0 428.8,111.5 428.9,110.4 429.0,109.4 429.1,108.8 429.2,108.3 429.3,108.0 429.4,107.9 429.5,108.1 429.6,108.4 429.7,108.9 429.8,109.6 429.9,110.6 430.0,111.8 430.1,113.3 430.2,115.1 430.3,117.4 430.4,120.1 430.5,123.4 430.6,127.7 430.7,133.3 430.8,141.4 430.9,152.0 431.0,152.0 431.1,152.0 431.2,141.5 431.3,133.4 431.4,127.9 431.5,123.6 431.6,120.3 431.7,117.7 431.8,115.5 431.9,113.7 432.0,112.3 432.1,111.1 432.2,110.2 432.3,109.5 432.4,109.0 432.5,108.7 432.6,108.7 432.7,108.8 432.8,109.1 432.9,109.6 433.0,110.4 433.1,111.3 433.2,112.5 433.3,114.0 433.4,115.9 433.5,118.1 433.6,120.8 433.7,124.1 433.8,128.4 433.9,134.0 434.0,142.1 434.1,152.0 434.2,152.0 434.3,152.0 434.4,142.2 434.5,134.2 434.6,128.6 434.7,124.4 434.8,121.1 434.9,118.4 435.0,116.2 435.1,114.4 435.2,113.0 435.3,111.8 435.4,110.9 435.5,110.2 435.6,109.7 435.7,109.4 435.8,109.4 435.9,109.5 436.0,109.8 436.1,110.3 436.2,111.1 436.3,112.0 436.4,113.2 436.5,114.7 436.6,116.6 436.7,118.8 436.8,121.5 436.9,124.9 437.0,129.1 437.1,134.7 437.2,142.8 437.3,152.0 437.4,152.0 437.5,152.0 437.6,142.9 437.7,134.9 437.8,129.3 437.9,125.1 438.0,121.8 438.1,119.1 438.2,116.9 438.3,115.1 438.4,113.7 438.5,112.5 438.6,111.6 438.7,110.9 438.8,110.4 438.9,110.2 439.0,110.1 439.1,110.2 439.2,110.5 439.3,111.0 439.4,111.8 439.5,112.7 439.6,114.0 439.7,115.5 439.8,117.3 439.9,119.5 440.0,122.2 440.1,125.6 440.2,129.8 440.3,135.4 440.4,143.5 440.5,152.0 440.6,152.0 440.7,152.0 440.8,143.6 440.9,135.6 441.0,130.0 441.1,125.8 441.2,122.5 441.3,119.8 441.4,117.6 441.5,115.9 441.6,114.4 441.7,113.2 441.8,112.3 441.9,111.6 442.0,111.1 442.1,110.9 442.2,110.8 442.3,110.9 442.4,111.2 442.5,111.8 442.6,112.5 442.7,113.4 442.8,114.7 442.9,116.2 443.0,118.0 443.1,120.2 443.2,122.9 443.3,126.3 443.4,130.5 443.5,136.1 443.6,144.2 443.7,152.0 443.8,152.0 443.9,152.0 444.0,144.3 444.1,136.3 444.2,130.7 444.3,126.5 444.4,123.2 444.5,120.5 444.6,118.3 444.7,116.6 444.8,115.1 444.9,113.9 445.0,113.0 445.1,112.3 445.2,111.8 445.3,111.6 445.4,111.5 445.5,111.6 445.6,111.9 445.7,112.5 445.8,113.2 445.9,114.2 446.0,115.4 446.1,116.9 446.2,118.7 446.3,120.9 446.4,123.6 446.5,127.0 446.6,131.2 446.7,136.9 446.8,144.9 446.9,152.0 447.0,152.0 447.1,152.0 447.2,145.0 447.3,137.0 447.4,131.4 447.5,127.2 447.6,123.9 447.7,121.2 447.8,119.0 447.9,117.3 448.0,115.8 448.1,114.6 448.2,113.7 448.3,113.0 448.4,112.5 448.5,112.3 448.6,112.2 448.7,112.3 448.8,112.6 448.9,113.2 449.0,113.9 449.1,114.9 449.2,116.1 449.3,117.6 449.4,119.4 449.5,121.6 449.6,124.3 449.7,127.7 449.8,131.9 449.9,137.6 450.0,145.6 450.1,152.0 450.2,152.0 450.3,152.0 450.4,145.7 450.5,137.7 450.6,132.1 450.7,127.9 450.8,124.6 450.9,121.9 451.0,119.8 451.1,118.0 451.2,116.5 451.3,115.3 451.4,114.4 451.5,113.7 451.6,113.3 451.7,113.0 451.8,112.9 451.9,113.0 452.0,113.3 452.1,113.9 452.2,114.6 452.3,115.6 452.4,116.8 452.5,118.3 452.6,120.1 452.7,122.3 452.8,125.0 452.9,128.4 453.0,132.6 453.1,138.3 453.2,146.3 453.3,152.0 453.4,152.0 453.5,152.0 453.6,146.4 453.7,138.4 453.8,132.8 453.9,128.6 454.0,125.3 454.1,122.6 454.2,120.5 454.3,118.7 454.4,117.2 454.5,116.0 454.6,115.1 454.7,114.4 454.8,114.0 454.9,113.7 455.0,113.6 455.1,113.7 455.2,114.1 455.3,114.6 455.4,115.3 455.5,116.3 455.6,117.5 455.7,119.0 455.8,120.8 455.9,123.0 456.0,125.7 456.1,129.1 456.2,133.3 456.3,139.0 456.4,147.0 456.5,152.0 456.6,152.0 456.7,152.0 456.8,147.1 456.9,139.1 457.0,133.5 457.1,129.3 457.2,126.0 457.3,123.3 457.4,121.2 457.5,119.4 457.6,117.9 457.7,116.8 457.8,115.8 457.9,115.2 458.0,114.7 458.1,114.4 458.2,114.3 458.3,114.4 458.4,114.8 458.5,115.3 458.6,116.0 458.7,117.0 458.8,118.2 458.9,119.7 459.0,121.5 459.1,123.8 459.2,126.5 459.3,129.8 459.4,134.1 459.5,139.7 459.6,147.8 459.7,152.0 459.8,152.0 459.9,152.0 460.0,147.9 460.1,139.8 460.2,134.2 460.3,130.0 460.4,126.7 460.5,124.1 460.6,121.9 460.7,120.1 460.8,118.7 460.9,117.5 461.0,116.6 461.1,115.9 461.2,115.4 461.3,115.1 461.4,115.0 461.5,115.2 461.6,115.5 461.7,116.0 461.8,116.7 461.9,117.7 462.0,118.9 462.1,120.4 462.2,122.3 462.3,124.5 462.4,127.2 462.5,130.5 462.6,134.8 462.7,140.4 462.8,148.5 462.9,152.0 463.0,152.0 463.1,152.0 463.2,148.6 463.3,140.5 463.4,135.0 463.5,130.8 463.6,127.5 463.7,124.8 463.8,122.6 463.9,120.8 464.0,119.4 464.1,118.2 464.2,117.3 464.3,116.6 464.4,116.1 464.5,115.9 464.6,115.8 464.7,115.9 464.8,116.2 464.9,116.7 465.0,117.5 465.1,118.4 465.2,119.7 465.3,121.2 465.4,123.0 465.5,125.2 465.6,127.9 465.7,131.3 465.8,135.5 465.9,141.1 466.0,149.2 466.1,152.0 466.2,152.0 466.3,152.0 466.4,149.3 466.5,141.3 466.6,135.7 466.7,131.5 466.8,128.2 466.9,125.5 467.0,123.4 467.1,121.6 467.2,120.1 467.3,119.0 467.4,118.0 467.5,117.3 467.6,116.9 467.7,116.6 467.8,116.5 467.9,116.6 468.0,117.0 468.1,117.5 468.2,118.2 468.3,119.2 468.4,120.4 468.5,121.9 468.6,123.7 468.7,126.0 468.8,128.7 468.9,132.0 469.0,136.3 469.1,141.9 469.2,150.0 469.3,152.0 469.4,152.0 469.5,152.0 469.6,150.1 469.7,142.0 469.8,136.5 469.9,132.3 470.0,129.0 470.1,126.3 470.2,124.1 470.3,122.3 470.4,120.9 470.5,119.7 470.6,118.8 470.7,118.1 470.8,117.6 470.9,117.4 471.0,117.3 471.1,117.4 471.2,117.7 471.3,118.2 471.4,119.0 471.5,120.0 471.6,121.2 471.7,122.7 471.8,124.5 471.9,126.7 472.0,129.4 472.1,132.8 472.2,137.0 472.3,142.7 472.4,150.7 472.5,152.0 472.6,152.0 472.7,152.0 472.8,150.8 472.9,142.8 473.0,137.2 473.1,133.0 473.2,129.7 473.3,127.1 473.4,124.9 473.5,123.1 473.6,121.7 473.7,120.5 473.8,119.6 473.9,118.9 474.0,118.4 474.1,118.1 474.2,118.1 474.3,118.2 474.4,118.5 474.5,119.0 474.6,119.8 474.7,120.7 474.8,122.0 474.9,123.5 475.0,125.3 475.1,127.5 475.2,130.2 475.3,133.6 475.4,137.8 475.5,143.5 475.6,151.5 475.7,152.0 475.8,152.0 475.9,152.0 476.0,151.6 476.1,143.6 476.2,138.0 476.3,133.8 476.4,130.5 476.5,127.9 476.6,125.7 476.7,123.9 476.8,122.5 476.9,121.3 477.0,120.4 477.1,119.7 477.2,119.2 477.3,118.9 477.4,118.9 477.5,119.0 477.6,119.3 477.7,119.8 477.8,120.6 477.9,121.5 478.0,122.8 478.1,124.3 478.2,126.1 478.3,128.3 478.4,131.0 478.5,134.4 478.6,138.6 478.7,144.3 478.8,152.0 478.9,152.0 479.0,152.0 479.1,152.0 479.2,152.0 479.3,144.4 479.4,138.9 479.5,134.7 479.6,131.4 479.7,128.7 479.8,126.5 479.9,124.7 480.0,123.3 480.1,122.1 480.2,121.2 480.3,120.5 480.4,120.0 480.5,119.8 480.6,119.7 480.7,119.8 480.8,120.2 480.9,120.7 481.0,121.4 481.1,122.4 481.2,123.6 481.3,125.1 481.4,126.9 481.5,129.2 481.6,131.9 481.7,135.2 481.8,139.5 481.9,145.1 482.0,152.0 482.1,152.0 482.2,152.0 482.3,152.0 482.4,152.0 482.5,145.3 482.6,139.7 482.7,135.5 482.8,132.2 482.9,129.6 483.0,127.4 483.1,125.6 483.2,124.2 483.3,123.0 483.4,122.1 483.5,121.4 483.6,120.9 483.7,120.7 483.8,120.6 483.9,120.7 484.0,121.0 484.1,121.6 484.2,122.3 484.3,123.3 484.4,124.5 484.5,126.0 484.6,127.8 484.7,130.1 484.8,132.8 484.9,136.1 485.0,140.4 485.1,146.0 485.2,152.0 485.3,152.0 485.4,152.0 485.5,152.0 485.6,152.0 485.7,146.2 485.8,140.6 485.9,136.4 486.0,133.1 486.1,130.5 486.2,128.3 486.3,126.5 486.4,125.1 486.5,123.9 486.6,123.0 486.7,122.3 486.8,121.8 486.9,121.6 487.0,121.5 487.1,121.6 487.2,122.0 487.3,122.5 487.4,123.2 487.5,124.2 487.6,125.4 487.7,126.9 487.8,128.8 487.9,131.0 488.0,133.7 488.1,137.1 488.2,141.3 488.3,147.0 488.4,152.0 488.5,152.0 488.6,152.0 488.7,152.0 488.8,152.0 488.9,147.1 489.0,141.6 489.1,137.4 489.2,134.1 489.3,131.4 489.4,129.2 489.5,127.5 489.6,126.0 489.7,124.9 489.8,124.0 489.9,123.3 490.0,122.8 490.1,122.5 490.2,122.5 490.3,122.6 490.4,122.9 490.5,123.5 490.6,124.2 490.7,125.2 490.8,126.4 490.9,127.9 491.0,129.7 491.1,132.0 491.2,134.7 491.3,138.1 491.4,142.3 491.5,148.0 491.6,152.0 491.7,152.0 491.8,152.0 491.9,152.0 492.0,152.0 492.1,148.1 492.2,142.6 492.3,138.4 492.4,135.1 492.5,132.4 492.6,130.3 492.7,128.5 492.9,127.0 493.0,125.9 493.1,125.0 493.2,124.3 493.3,123.8 493.4,123.6 493.5,123.5 493.6,123.6 493.7,124.0 493.8,124.5 493.9,125.2 494.0,126.2 494.1,127.5 494.2,129.0 494.3,130.8 494.4,133.0 494.5,135.8 494.6,139.1 494.7,143.4 494.8,149.0 494.9,152.0 495.0,152.0 495.1,152.0 495.2,152.0 495.3,152.0 495.4,149.2 495.5,143.7 495.6,139.5 495.7,136.2 495.8,133.5 495.9,131.4 496.0,129.6 496.1,128.2 496.2,127.0 496.3,126.1 496.4,125.4 496.5,124.9 496.6,124.7 496.7,124.6 496.8,124.8 496.9,125.1 497.0,125.6 497.1,126.4 497.2,127.4 497.3,128.6 497.4,130.1 497.5,131.9 497.6,134.2 497.7,136.9 497.8,140.3 497.9,144.5 498.0,150.2 498.1,152.0 498.2,152.0 498.3,152.0 498.4,152.0 498.5,152.0 498.6,150.4 498.7,144.8 498.8,140.7 498.9,137.4 499.0,134.7 499.1,132.6 499.2,130.8 499.3,129.4 499.4,128.2 499.5,127.3 499.6,126.6 499.7,126.2 499.8,125.9 499.9,125.8 500.0,126.0 500.1,126.3 500.2,126.9 500.3,127.6 500.4,128.6 500.5,129.8 500.6,131.3 500.7,133.2 500.8,135.4 500.9,138.2 501.0,141.5 501.1,145.8 501.2,151.4 501.3,152.0 501.4,152.0 501.5,152.0 501.6,152.0 501.7,152.0 501.8,151.7 501.9,146.1 502.0,142.0 502.1,138.7 502.2,136.0 502.3,133.9 502.4,132.1 502.5,130.7 502.6,129.5 502.7,128.6 502.8,128.0 502.9,127.5 503.0,127.3 503.1,127.2 503.2,127.3 503.3,127.7 503.4,128.2 503.5,129.0 503.6,130.0 503.7,131.2 503.8,132.7 503.9,134.6 504.0,136.8 504.1,139.6 504.2,142.9 504.3,147.2 504.4,152.0 504.5,152.0 504.6,152.0 504.7,152.0 504.8,152.0 504.9,152.0 505.0,152.0 505.1,147.6 505.2,143.4 505.3,140.1 505.4,137.5 505.5,135.3 505.6,133.6 505.7,132.2 505.8,131.0 505.9,130.1 506.0,129.5 506.1,129.0 506.2,128.8 506.3,128.7 506.4,128.9 506.5,129.2 506.6,129.8 506.7,130.5 506.8,131.5 506.9,132.8 507.0,134.3 507.1,136.2 507.2,138.4 507.3,141.2 507.4,144.5 507.5,148.8 507.6,152.0 507.7,152.0 507.8,152.0 507.9,152.0 508.0,152.0 508.1,152.0 508.2,152.0 508.3,149.3 508.4,145.1 508.5,141.8 508.6,139.2 508.7,137.0 508.8,135.3 508.9,133.9 509.0,132.7 509.1,131.8 509.2,131.2 509.3,130.8 509.4,130.5 509.5,130.5 509.6,130.6 509.7,131.0 509.8,131.5 509.9,132.3 510.0,133.3 510.1,134.6 510.2,136.1 510.3,138.0 510.4,140.2 510.5,143.0 510.6,146.4 510.7,150.7 510.8,152.0 510.9,152.0 511.0,152.0 511.1,152.0 511.2,152.0 511.3,152.0 511.4,152.0 511.5,151.2 511.6,147.0 511.7,143.8 511.8,141.2 511.9,139.0 512.0,137.3 512.1,135.9 512.2,134.8 512.3,133.9 512.4,133.2 512.5,132.8 512.6,132.6 512.7,132.6 512.8,132.7 512.9,133.1 513.0,133.7 513.1,134.5 513.2,135.5 513.3,136.7 513.4,138.3 513.5,140.2 513.6,142.4 513.7,145.2 513.8,148.6 513.9,152.0 514.0,152.0 514.1,152.0 514.2,152.0 514.3,152.0 514.4,152.0 514.5,152.0 514.6,152.0 514.7,152.0 514.8,149.4 514.9,146.2 515.0,143.6 515.1,141.5 515.2,139.7 515.3,138.4 515.4,137.2 515.5,136.4 515.6,135.8 515.7,135.4 515.8,135.2 515.9,135.1 516.0,135.3 516.1,135.7 516.2,136.3 516.3,137.1 516.4,138.2 516.5,139.5 516.6,141.0 516.7,142.9 516.8,145.2 516.9,148.0 517.0,151.4 517.1,152.0 517.2,152.0 517.3,152.0 517.4,152.0 517.5,152.0 517.6,152.0 517.7,152.0 517.8,152.0 517.9,152.0 518.0,152.0 518.1,149.3 518.2,146.7 518.3,144.6 518.4,142.9 518.5,141.6 518.6,140.5 518.7,139.7 518.8,139.1 518.9,138.7 519.0,138.6 519.1,138.6 519.2,138.8 519.3,139.2 519.4,139.9 519.5,140.7 519.6,141.8 519.7,143.1 519.8,144.7 519.9,146.7 520.0,149.0 520.1,151.9 520.2,152.0 520.3,152.0 520.4,152.0 520.5,152.0 520.6,152.0 520.7,152.0 520.8,152.0 520.9,152.0 521.0,152.0 521.1,152.0 521.2,152.0 521.3,152.0 521.4,151.3 521.5,149.2 521.6,147.6 521.7,146.3 521.8,145.3 521.9,144.6 522.0,144.1 522.1,143.8 522.2,143.7 522.3,143.8 522.4,144.1 522.5,144.6 522.6,145.3 522.7,146.3 522.8,147.4 522.9,148.9 523.0,150.6 523.1,152.0 523.2,152.0 523.3,152.0 523.4,152.0 523.5,152.0 523.6,152.0 523.7,152.0 523.8,152.0 523.9,152.0 524.0,152.0 524.1,152.0 524.2,152.0 524.3,152.0 524.4,152.0 524.5,152.0 524.6,152.0 524.7,152.0 524.8,152.0 524.9,152.0 525.0,152.0 525.1,152.0 525.2,152.0 525.3,152.0 525.4,152.0 525.5,152.0 525.6,152.0 525.7,152.0 525.8,152.0 525.9,152.0 526.0,152.0 526.1,152.0 526.2,152.0 526.3,152.0 526.4,152.0 526.5,152.0 526.6,152.0 526.7,152.0 526.8,152.0 526.9,152.0 527.0,152.0" fill="none" stroke="#4a90d9" stroke-width="1.2" stroke-linejoin="round"/>
  <text x="154.5" y="176" text-anchor="middle" font-size="8" fill="#6b7280">n / N</text>
  <text x="424.5" y="176" text-anchor="middle" font-size="8" fill="#6b7280">Normalized frequency (× Fₛ)</text>
</svg>
