<svg xmlns="http://www.w3.org/2000/svg" viewBox="0 0 800 230" style="font-family:system-ui,-apple-system,sans-serif">
  <line x1="42" y1="182.0" x2="377" y2="182.0" stroke="#e5e7eb" stroke-width="0.7"/>
  <text x="37" y="186.0" text-anchor="end" font-size="10" fill="#6b7280">0</text>
  <line x1="42" y1="95.0" x2="377" y2="95.0" stroke="#e5e7eb" stroke-width="0.7"/>
  <text x="37" y="99.0" text-anchor="end" font-size="10" fill="#6b7280">0.5</text>
  <line x1="42" y1="8.0" x2="377" y2="8.0" stroke="#e5e7eb" stroke-width="0.7"/>
  <text x="37" y="12.0" text-anchor="end" font-size="10" fill="#6b7280">1</text>
  <line x1="42.0" y1="8" x2="42.0" y2="182" stroke="#e5e7eb" stroke-width="0.7"/>
  <text x="42.0" y="198" text-anchor="middle" font-size="10" fill="#6b7280">0</text>
  <line x1="209.5" y1="8" x2="209.5" y2="182" stroke="#e5e7eb" stroke-width="0.7"/>
  <text x="209.5" y="198" text-anchor="middle" font-size="10" fill="#6b7280">0.5</text>
  <line x1="377.0" y1="8" x2="377.0" y2="182" stroke="#e5e7eb" stroke-width="0.7"/>
  <text x="377.0" y="198" text-anchor="middle" font-size="10" fill="#6b7280">1</text>
  <line x1="42" y1="8" x2="42" y2="182" stroke="#d1d5db" stroke-width="1"/>
  <line x1="42" y1="182" x2="377" y2="182" stroke="#d1d5db" stroke-width="1"/>
  <path d="M42.0,182.0 42.0,181.3 43.3,180.0 44.6,178.6 45.9,177.2 47.3,175.9 48.6,174.5 49.9,173.2 51.2,171.8 52.5,170.4 53.8,169.1 55.1,167.7 56.5,166.4 57.8,165.0 59.1,163.6 60.4,162.3 61.7,160.9 63.0,159.6 64.3,158.2 65.6,156.9 67.0,155.5 68.3,154.1 69.6,152.8 70.9,151.4 72.2,150.1 73.5,148.7 74.8,147.3 76.2,146.0 77.5,144.6 78.8,143.3 80.1,141.9 81.4,140.5 82.7,139.2 84.0,137.8 85.4,136.5 86.7,135.1 88.0,133.7 89.3,132.4 90.6,131.0 91.9,129.7 93.2,128.3 94.5,126.9 95.9,125.6 97.2,124.2 98.5,122.9 99.8,121.5 101.1,120.1 102.4,118.8 103.7,117.4 105.1,116.1 106.4,114.7 107.7,113.4 109.0,112.0 110.3,110.6 111.6,109.3 112.9,107.9 114.3,106.6 115.6,105.2 116.9,103.8 118.2,102.5 119.5,101.1 120.8,99.8 122.1,98.4 123.5,97.0 124.8,95.7 126.1,94.3 127.4,93.0 128.7,91.6 130.0,90.2 131.3,88.9 132.6,87.5 134.0,86.2 135.3,84.8 136.6,83.4 137.9,82.1 139.2,80.7 140.5,79.4 141.8,78.0 143.2,76.6 144.5,75.3 145.8,73.9 147.1,72.6 148.4,71.2 149.7,69.9 151.0,68.5 152.4,67.1 153.7,65.8 155.0,64.4 156.3,63.1 157.6,61.7 158.9,60.3 160.2,59.0 161.5,57.6 162.9,56.3 164.2,54.9 165.5,53.5 166.8,52.2 168.1,50.8 169.4,49.5 170.7,48.1 172.1,46.7 173.4,45.4 174.7,44.0 176.0,42.7 177.3,41.3 178.6,39.9 179.9,38.6 181.3,37.2 182.6,35.9 183.9,34.5 185.2,33.1 186.5,31.8 187.8,30.4 189.1,29.1 190.5,27.7 191.8,26.4 193.1,25.0 194.4,23.6 195.7,22.3 197.0,20.9 198.3,19.6 199.6,18.2 201.0,16.8 202.3,15.5 203.6,14.1 204.9,12.8 206.2,11.4 207.5,10.0 208.8,8.7 210.2,8.7 211.5,10.0 212.8,11.4 214.1,12.8 215.4,14.1 216.7,15.5 218.0,16.8 219.4,18.2 220.7,19.6 222.0,20.9 223.3,22.3 224.6,23.6 225.9,25.0 227.2,26.4 228.5,27.7 229.9,29.1 231.2,30.4 232.5,31.8 233.8,33.1 235.1,34.5 236.4,35.9 237.7,37.2 239.1,38.6 240.4,39.9 241.7,41.3 243.0,42.7 244.3,44.0 245.6,45.4 246.9,46.7 248.3,48.1 249.6,49.5 250.9,50.8 252.2,52.2 253.5,53.5 254.8,54.9 256.1,56.3 257.5,57.6 258.8,59.0 260.1,60.3 261.4,61.7 262.7,63.1 264.0,64.4 265.3,65.8 266.6,67.1 268.0,68.5 269.3,69.9 270.6,71.2 271.9,72.6 273.2,73.9 274.5,75.3 275.8,76.6 277.2,78.0 278.5,79.4 279.8,80.7 281.1,82.1 282.4,83.4 283.7,84.8 285.0,86.2 286.4,87.5 287.7,88.9 289.0,90.2 290.3,91.6 291.6,93.0 292.9,94.3 294.2,95.7 295.5,97.0 296.9,98.4 298.2,99.8 299.5,101.1 300.8,102.5 302.1,103.8 303.4,105.2 304.7,106.6 306.1,107.9 307.4,109.3 308.7,110.6 310.0,112.0 311.3,113.4 312.6,114.7 313.9,116.1 315.3,117.4 316.6,118.8 317.9,120.1 319.2,121.5 320.5,122.9 321.8,124.2 323.1,125.6 324.5,126.9 325.8,128.3 327.1,129.7 328.4,131.0 329.7,132.4 331.0,133.7 332.3,135.1 333.6,136.5 335.0,137.8 336.3,139.2 337.6,140.5 338.9,141.9 340.2,143.3 341.5,144.6 342.8,146.0 344.2,147.3 345.5,148.7 346.8,150.1 348.1,151.4 349.4,152.8 350.7,154.1 352.0,155.5 353.4,156.9 354.7,158.2 356.0,159.6 357.3,160.9 358.6,162.3 359.9,163.6 361.2,165.0 362.5,166.4 363.9,167.7 365.2,169.1 366.5,170.4 367.8,171.8 369.1,173.2 370.4,174.5 371.7,175.9 373.1,177.2 374.4,178.6 375.7,180.0 377.0,181.3 L377.0,182.0 Z" fill="#4a90d9" fill-opacity="0.06"/>
  <polyline points="42.0,181.3 43.3,180.0 44.6,178.6 45.9,177.2 47.3,175.9 48.6,174.5 49.9,173.2 51.2,171.8 52.5,170.4 53.8,169.1 55.1,167.7 56.5,166.4 57.8,165.0 59.1,163.6 60.4,162.3 61.7,160.9 63.0,159.6 64.3,158.2 65.6,156.9 67.0,155.5 68.3,154.1 69.6,152.8 70.9,151.4 72.2,150.1 73.5,148.7 74.8,147.3 76.2,146.0 77.5,144.6 78.8,143.3 80.1,141.9 81.4,140.5 82.7,139.2 84.0,137.8 85.4,136.5 86.7,135.1 88.0,133.7 89.3,132.4 90.6,131.0 91.9,129.7 93.2,128.3 94.5,126.9 95.9,125.6 97.2,124.2 98.5,122.9 99.8,121.5 101.1,120.1 102.4,118.8 103.7,117.4 105.1,116.1 106.4,114.7 107.7,113.4 109.0,112.0 110.3,110.6 111.6,109.3 112.9,107.9 114.3,106.6 115.6,105.2 116.9,103.8 118.2,102.5 119.5,101.1 120.8,99.8 122.1,98.4 123.5,97.0 124.8,95.7 126.1,94.3 127.4,93.0 128.7,91.6 130.0,90.2 131.3,88.9 132.6,87.5 134.0,86.2 135.3,84.8 136.6,83.4 137.9,82.1 139.2,80.7 140.5,79.4 141.8,78.0 143.2,76.6 144.5,75.3 145.8,73.9 147.1,72.6 148.4,71.2 149.7,69.9 151.0,68.5 152.4,67.1 153.7,65.8 155.0,64.4 156.3,63.1 157.6,61.7 158.9,60.3 160.2,59.0 161.5,57.6 162.9,56.3 164.2,54.9 165.5,53.5 166.8,52.2 168.1,50.8 169.4,49.5 170.7,48.1 172.1,46.7 173.4,45.4 174.7,44.0 176.0,42.7 177.3,41.3 178.6,39.9 179.9,38.6 181.3,37.2 182.6,35.9 183.9,34.5 185.2,33.1 186.5,31.8 187.8,30.4 189.1,29.1 190.5,27.7 191.8,26.4 193.1,25.0 194.4,23.6 195.7,22.3 197.0,20.9 198.3,19.6 199.6,18.2 201.0,16.8 202.3,15.5 203.6,14.1 204.9,12.8 206.2,11.4 207.5,10.0 208.8,8.7 210.2,8.7 211.5,10.0 212.8,11.4 214.1,12.8 215.4,14.1 216.7,15.5 218.0,16.8 219.4,18.2 220.7,19.6 222.0,20.9 223.3,22.3 224.6,23.6 225.9,25.0 227.2,26.4 228.5,27.7 229.9,29.1 231.2,30.4 232.5,31.8 233.8,33.1 235.1,34.5 236.4,35.9 237.7,37.2 239.1,38.6 240.4,39.9 241.7,41.3 243.0,42.7 244.3,44.0 245.6,45.4 246.9,46.7 248.3,48.1 249.6,49.5 250.9,50.8 252.2,52.2 253.5,53.5 254.8,54.9 256.1,56.3 257.5,57.6 258.8,59.0 260.1,60.3 261.4,61.7 262.7,63.1 264.0,64.4 265.3,65.8 266.6,67.1 268.0,68.5 269.3,69.9 270.6,71.2 271.9,72.6 273.2,73.9 274.5,75.3 275.8,76.6 277.2,78.0 278.5,79.4 279.8,80.7 281.1,82.1 282.4,83.4 283.7,84.8 285.0,86.2 286.4,87.5 287.7,88.9 289.0,90.2 290.3,91.6 291.6,93.0 292.9,94.3 294.2,95.7 295.5,97.0 296.9,98.4 298.2,99.8 299.5,101.1 300.8,102.5 302.1,103.8 303.4,105.2 304.7,106.6 306.1,107.9 307.4,109.3 308.7,110.6 310.0,112.0 311.3,113.4 312.6,114.7 313.9,116.1 315.3,117.4 316.6,118.8 317.9,120.1 319.2,121.5 320.5,122.9 321.8,124.2 323.1,125.6 324.5,126.9 325.8,128.3 327.1,129.7 328.4,131.0 329.7,132.4 331.0,133.7 332.3,135.1 333.6,136.5 335.0,137.8 336.3,139.2 337.6,140.5 338.9,141.9 340.2,143.3 341.5,144.6 342.8,146.0 344.2,147.3 345.5,148.7 346.8,150.1 348.1,151.4 349.4,152.8 350.7,154.1 352.0,155.5 353.4,156.9 354.7,158.2 356.0,159.6 357.3,160.9 358.6,162.3 359.9,163.6 361.2,165.0 362.5,166.4 363.9,167.7 365.2,169.1 366.5,170.4 367.8,171.8 369.1,173.2 370.4,174.5 371.7,175.9 373.1,177.2 374.4,178.6 375.7,180.0 377.0,181.3" fill="none" stroke="#4a90d9" stroke-width="1.5" stroke-linejoin="round"/>
  <line x1="450" y1="8.0" x2="785" y2="8.0" stroke="#e5e7eb" stroke-width="0.7"/>
  <text x="445" y="12.0" text-anchor="end" font-size="10" fill="#6b7280">0</text>
  <line x1="450" y1="66.0" x2="785" y2="66.0" stroke="#e5e7eb" stroke-width="0.7"/>
  <text x="445" y="70.0" text-anchor="end" font-size="10" fill="#6b7280">-40</text>
  <line x1="450" y1="124.0" x2="785" y2="124.0" stroke="#e5e7eb" stroke-width="0.7"/>
  <text x="445" y="128.0" text-anchor="end" font-size="10" fill="#6b7280">-80</text>
  <line x1="450" y1="182.0" x2="785" y2="182.0" stroke="#e5e7eb" stroke-width="0.7"/>
  <text x="445" y="186.0" text-anchor="end" font-size="10" fill="#6b7280">-120</text>
  <line x1="450.0" y1="8" x2="450.0" y2="182" stroke="#e5e7eb" stroke-width="0.7"/>
  <text x="450.0" y="198" text-anchor="middle" font-size="10" fill="#6b7280">0</text>
  <line x1="517.0" y1="8" x2="517.0" y2="182" stroke="#e5e7eb" stroke-width="0.7"/>
  <text x="517.0" y="198" text-anchor="middle" font-size="10" fill="#6b7280">0.1</text>
  <line x1="584.0" y1="8" x2="584.0" y2="182" stroke="#e5e7eb" stroke-width="0.7"/>
  <text x="584.0" y="198" text-anchor="middle" font-size="10" fill="#6b7280">0.2</text>
  <line x1="651.0" y1="8" x2="651.0" y2="182" stroke="#e5e7eb" stroke-width="0.7"/>
  <text x="651.0" y="198" text-anchor="middle" font-size="10" fill="#6b7280">0.3</text>
  <line x1="718.0" y1="8" x2="718.0" y2="182" stroke="#e5e7eb" stroke-width="0.7"/>
  <text x="718.0" y="198" text-anchor="middle" font-size="10" fill="#6b7280">0.4</text>
  <line x1="785.0" y1="8" x2="785.0" y2="182" stroke="#e5e7eb" stroke-width="0.7"/>
  <text x="785.0" y="198" text-anchor="middle" font-size="10" fill="#6b7280">0.5</text>
  <line x1="450" y1="8" x2="450" y2="182" stroke="#d1d5db" stroke-width="1"/>
  <line x1="450" y1="182" x2="785" y2="182" stroke="#d1d5db" stroke-width="1"/>
  <polyline points="450.0,8.0 450.2,8.0 450.3,8.2 450.5,8.4 450.7,8.7 450.8,9.0 451.0,9.5 451.1,10.0 451.3,10.6 451.5,11.4 451.6,12.2 451.8,13.1 452.0,14.1 452.1,15.3 452.3,16.5 452.5,17.9 452.6,19.4 452.8,21.0 452.9,22.8 453.1,24.8 453.3,27.0 453.4,29.4 453.6,32.0 453.8,35.0 453.9,38.3 454.1,42.1 454.3,46.4 454.4,51.5 454.6,57.7 454.7,65.5 454.9,76.4 455.1,94.5 455.2,182.0 455.4,96.1 455.6,79.5 455.7,70.2 455.9,64.0 456.1,59.4 456.2,56.0 456.4,53.3 456.5,51.2 456.7,49.6 456.9,48.3 457.0,47.4 457.2,46.9 457.4,46.5 457.5,46.5 457.7,46.6 457.9,47.1 458.0,47.7 458.2,48.6 458.3,49.7 458.5,51.1 458.7,52.7 458.8,54.7 459.0,57.0 459.2,59.7 459.3,62.8 459.5,66.6 459.7,71.2 459.8,76.9 460.0,84.2 460.1,94.7 460.3,112.4 460.5,182.0 460.6,113.2 460.8,96.2 461.0,86.6 461.1,80.0 461.3,75.1 461.5,71.4 461.6,68.4 461.8,66.0 461.9,64.1 462.1,62.6 462.3,61.5 462.4,60.6 462.6,60.1 462.8,59.8 462.9,59.7 463.1,59.9 463.3,60.4 463.4,61.0 463.6,62.0 463.7,63.1 463.9,64.6 464.1,66.4 464.2,68.5 464.4,71.1 464.6,74.1 464.7,77.7 464.9,82.1 465.1,87.6 465.2,94.9 465.4,105.2 465.5,122.8 465.7,182.0 465.9,123.3 466.0,106.2 466.2,96.5 466.4,89.7 466.5,84.7 466.7,80.9 466.9,77.8 467.0,75.3 467.2,73.3 467.3,71.7 467.5,70.4 467.7,69.5 467.8,68.8 468.0,68.4 468.2,68.3 468.3,68.4 468.5,68.8 468.7,69.3 468.8,70.2 469.0,71.3 469.1,72.7 469.3,74.4 469.5,76.4 469.6,78.9 469.8,81.8 470.0,85.4 470.1,89.7 470.3,95.2 470.5,102.3 470.6,112.5 470.8,130.1 470.9,182.0 471.1,130.5 471.3,113.3 471.4,103.5 471.6,96.7 471.8,91.7 471.9,87.7 472.1,84.6 472.3,82.0 472.4,80.0 472.6,78.3 472.7,77.0 472.9,76.0 473.1,75.3 473.2,74.9 473.4,74.7 473.6,74.7 473.7,75.0 473.9,75.6 474.1,76.4 474.2,77.4 474.4,78.8 474.5,80.4 474.7,82.4 474.9,84.8 475.0,87.7 475.2,91.2 475.4,95.5 475.5,101.0 475.7,108.1 475.9,118.3 476.0,135.8 476.2,182.0 476.3,136.1 476.5,118.9 476.7,109.0 476.8,102.2 477.0,97.1 477.2,93.1 477.3,90.0 477.5,87.4 477.7,85.3 477.8,83.6 478.0,82.3 478.1,81.2 478.3,80.5 478.5,80.0 478.6,79.8 478.8,79.8 479.0,80.1 479.1,80.6 479.3,81.4 479.5,82.4 479.6,83.7 479.8,85.3 479.9,87.3 480.1,89.7 480.3,92.5 480.4,96.0 480.6,100.3 480.8,105.7 480.9,112.8 481.1,122.9 481.3,140.4 481.4,182.0 481.6,140.6 481.7,123.4 481.9,113.6 482.1,106.7 482.2,101.6 482.4,97.6 482.6,94.4 482.7,91.8 482.9,89.7 483.1,87.9 483.2,86.6 483.4,85.5 483.5,84.8 483.7,84.3 483.9,84.0 484.0,84.0 484.2,84.3 484.4,84.8 484.5,85.5 484.7,86.5 484.9,87.8 485.0,89.4 485.2,91.4 485.3,93.7 485.5,96.6 485.7,100.0 485.8,104.3 486.0,109.7 486.2,116.7 486.3,126.9 486.5,144.3 486.7,182.0 486.8,144.5 487.0,127.3 487.1,117.4 487.3,110.6 487.5,105.4 487.6,101.4 487.8,98.2 488.0,95.5 488.1,93.4 488.3,91.7 488.5,90.3 488.6,89.2 488.8,88.5 488.9,87.9 489.1,87.7 489.3,87.7 489.4,87.9 489.6,88.4 489.8,89.1 489.9,90.1 490.1,91.3 490.3,92.9 490.4,94.9 490.6,97.2 490.7,100.1 490.9,103.5 491.1,107.7 491.2,113.1 491.4,120.2 491.6,130.3 491.7,147.7 491.9,182.0 492.1,147.9 492.2,130.7 492.4,120.7 492.6,113.9 492.7,108.7 492.9,104.7 493.0,101.4 493.2,98.8 493.4,96.7 493.5,94.9 493.7,93.5 493.9,92.5 494.0,91.7 494.2,91.1 494.4,90.9 494.5,90.8 494.7,91.0 494.8,91.5 495.0,92.2 495.2,93.2 495.3,94.5 495.5,96.0 495.7,98.0 495.8,100.3 496.0,103.1 496.2,106.6 496.3,110.8 496.5,116.1 496.6,123.2 496.8,133.3 497.0,150.7 497.1,182.0 497.3,150.9 497.5,133.6 497.6,123.7 497.8,116.8 498.0,111.7 498.1,107.6 498.3,104.4 498.4,101.7 498.6,99.6 498.8,97.8 498.9,96.4 499.1,95.3 499.3,94.5 499.4,94.0 499.6,93.7 499.8,93.7 499.9,93.9 500.1,94.3 500.2,95.0 500.4,96.0 500.6,97.2 500.7,98.8 500.9,100.7 501.1,103.1 501.2,105.9 501.4,109.3 501.6,113.5 501.7,118.8 501.9,125.9 502.0,136.0 502.2,153.4 502.4,182.0 502.5,153.5 502.7,136.3 502.9,126.4 503.0,119.5 503.2,114.3 503.4,110.2 503.5,107.0 503.7,104.3 503.8,102.2 504.0,100.4 504.2,99.0 504.3,97.9 504.5,97.1 504.7,96.5 504.8,96.3 505.0,96.2 505.2,96.4 505.3,96.8 505.5,97.5 505.6,98.5 505.8,99.7 506.0,101.3 506.1,103.2 506.3,105.5 506.5,108.3 506.6,111.8 506.8,116.0 507.0,121.3 507.1,128.3 507.3,138.4 507.4,155.8 507.6,182.0 507.8,156.0 507.9,138.7 508.1,128.8 508.3,121.9 508.4,116.7 508.6,112.6 508.8,109.4 508.9,106.7 509.1,104.5 509.2,102.8 509.4,101.3 509.6,100.2 509.7,99.4 509.9,98.9 510.1,98.6 510.2,98.5 510.4,98.7 510.6,99.2 510.7,99.8 510.9,100.8 511.0,102.0 511.2,103.6 511.4,105.5 511.5,107.8 511.7,110.6 511.9,114.0 512.0,118.2 512.2,123.5 512.4,130.6 512.5,140.6 512.7,158.1 512.8,182.0 513.0,158.2 513.2,140.9 513.3,131.0 513.5,124.1 513.7,118.9 513.8,114.8 514.0,111.5 514.2,108.9 514.3,106.7 514.5,104.9 514.6,103.5 514.8,102.4 515.0,101.6 515.1,101.0 515.3,100.7 515.5,100.7 515.6,100.8 515.8,101.3 516.0,102.0 516.1,102.9 516.3,104.1 516.4,105.7 516.6,107.6 516.8,109.9 516.9,112.7 517.1,116.1 517.3,120.3 517.4,125.6 517.6,132.6 517.8,142.7 517.9,160.1 518.1,182.0 518.2,160.2 518.4,143.0 518.6,133.0 518.7,126.1 518.9,120.9 519.1,116.8 519.2,113.6 519.4,110.9 519.6,108.7 519.7,106.9 519.9,105.5 520.0,104.4 520.2,103.6 520.4,103.0 520.5,102.7 520.7,102.6 520.9,102.8 521.0,103.2 521.2,103.9 521.4,104.9 521.5,106.1 521.7,107.6 521.8,109.5 522.0,111.8 522.2,114.6 522.3,118.0 522.5,122.2 522.7,127.5 522.8,134.6 523.0,144.6 523.2,162.0 523.3,182.0 523.5,162.1 523.6,144.9 523.8,134.9 524.0,128.0 524.1,122.8 524.3,118.7 524.5,115.4 524.6,112.8 524.8,110.6 525.0,108.8 525.1,107.4 525.3,106.2 525.4,105.4 525.6,104.9 525.8,104.5 525.9,104.5 526.1,104.7 526.3,105.1 526.4,105.7 526.6,106.7 526.8,107.9 526.9,109.5 527.1,111.3 527.2,113.6 527.4,116.4 527.6,119.8 527.7,124.0 527.9,129.3 528.1,136.3 528.2,146.4 528.4,163.8 528.6,182.0 528.7,163.9 528.9,146.6 529.0,136.7 529.2,129.8 529.4,124.6 529.5,120.5 529.7,117.2 529.9,114.5 530.0,112.3 530.2,110.5 530.4,109.1 530.5,108.0 530.7,107.1 530.8,106.6 531.0,106.3 531.2,106.2 531.3,106.4 531.5,106.8 531.7,107.5 531.8,108.4 532.0,109.6 532.2,111.2 532.3,113.0 532.5,115.3 532.6,118.1 532.8,121.5 533.0,125.7 533.1,131.0 533.3,138.0 533.5,148.1 533.6,165.5 533.8,182.0 534.0,165.6 534.1,148.3 534.3,138.3 534.4,131.4 534.6,126.2 534.8,122.1 534.9,118.8 535.1,116.2 535.3,114.0 535.4,112.2 535.6,110.7 535.8,109.6 535.9,108.8 536.1,108.2 536.2,107.9 536.4,107.8 536.6,108.0 536.7,108.4 536.9,109.1 537.1,110.0 537.2,111.2 537.4,112.8 537.6,114.6 537.7,116.9 537.9,119.7 538.0,123.1 538.2,127.3 538.4,132.6 538.5,139.6 538.7,149.7 538.9,167.1 539.0,182.0 539.2,167.1 539.4,149.9 539.5,139.9 539.7,133.0 539.8,127.8 540.0,123.7 540.2,120.4 540.3,117.7 540.5,115.5 540.7,113.7 540.8,112.3 541.0,111.2 541.2,110.3 541.3,109.7 541.5,109.4 541.6,109.4 541.8,109.5 542.0,109.9 542.1,110.6 542.3,111.5 542.5,112.7 542.6,114.3 542.8,116.2 543.0,118.5 543.1,121.2 543.3,124.6 543.4,128.8 543.6,134.1 543.8,141.1 543.9,151.2 544.1,168.5 544.3,182.0 544.4,168.6 544.6,151.3 544.8,141.4 544.9,134.5 545.1,129.3 545.2,125.2 545.4,121.9 545.6,119.2 545.7,117.0 545.9,115.2 546.1,113.7 546.2,112.6 546.4,111.8 546.6,111.2 546.7,110.9 546.9,110.8 547.0,111.0 547.2,111.4 547.4,112.0 547.5,113.0 547.7,114.2 547.9,115.7 548.0,117.6 548.2,119.9 548.4,122.7 548.5,126.0 548.7,130.2 548.8,135.5 549.0,142.5 549.2,152.6 549.3,170.0 549.5,182.0 549.7,170.1 549.8,152.8 550.0,142.8 550.2,135.9 550.3,130.7 550.5,126.6 550.6,123.3 550.8,120.6 551.0,118.4 551.1,116.6 551.3,115.1 551.5,114.0 551.6,113.2 551.8,112.6 552.0,112.3 552.1,112.2 552.3,112.4 552.4,112.8 552.6,113.4 552.8,114.4 552.9,115.6 553.1,117.1 553.3,119.0 553.4,121.3 553.6,124.0 553.8,127.4 553.9,131.6 554.1,136.9 554.2,143.9 554.4,153.9 554.6,171.3 554.7,182.0 554.9,171.4 555.1,154.1 555.2,144.1 555.4,137.2 555.6,132.0 555.7,127.9 555.9,124.6 556.0,121.9 556.2,119.7 556.4,117.9 556.5,116.5 556.7,115.3 556.9,114.5 557.0,113.9 557.2,113.6 557.4,113.5 557.5,113.7 557.7,114.1 557.8,114.7 558.0,115.7 558.2,116.9 558.3,118.4 558.5,120.3 558.7,122.6 558.8,125.3 559.0,128.7 559.2,132.9 559.3,138.2 559.5,145.2 559.6,155.2 559.8,172.6 560.0,182.0 560.1,172.7 560.3,155.4 560.5,145.4 560.6,138.5 560.8,133.3 561.0,129.2 561.1,125.9 561.3,123.2 561.4,121.0 561.6,119.2 561.8,117.7 561.9,116.6 562.1,115.8 562.3,115.2 562.4,114.9 562.6,114.8 562.8,114.9 562.9,115.3 563.1,116.0 563.2,116.9 563.4,118.1 563.6,119.7 563.7,121.5 563.9,123.8 564.1,126.6 564.2,130.0 564.4,134.1 564.6,139.4 564.7,146.4 564.9,156.5 565.0,173.9 565.2,182.0 565.4,173.9 565.5,156.6 565.7,146.7 565.9,139.7 566.0,134.5 566.2,130.4 566.4,127.1 566.5,124.4 566.7,122.2 566.8,120.4 567.0,119.0 567.2,117.8 567.3,117.0 567.5,116.4 567.7,116.1 567.8,116.0 568.0,116.2 568.2,116.6 568.3,117.2 568.5,118.1 568.6,119.3 568.8,120.9 569.0,122.7 569.1,125.0 569.3,127.8 569.5,131.2 569.6,135.3 569.8,140.6 570.0,147.6 570.1,157.7 570.3,175.1 570.4,182.0 570.6,175.1 570.8,157.8 570.9,147.9 571.1,140.9 571.3,135.7 571.4,131.6 571.6,128.3 571.8,125.6 571.9,123.4 572.1,121.6 572.2,120.2 572.4,119.0 572.6,118.2 572.7,117.6 572.9,117.3 573.1,117.2 573.2,117.3 573.4,117.7 573.6,118.4 573.7,119.3 573.9,120.5 574.0,122.0 574.2,123.9 574.4,126.2 574.5,129.0 574.7,132.3 574.9,136.5 575.0,141.8 575.2,148.8 575.4,158.8 575.5,176.2 575.7,182.0 575.9,176.3 576.0,159.0 576.2,149.0 576.3,142.1 576.5,136.9 576.7,132.8 576.8,129.4 577.0,126.7 577.2,124.5 577.3,122.7 577.5,121.3 577.7,120.2 577.8,119.3 578.0,118.7 578.1,118.4 578.3,118.3 578.5,118.5 578.6,118.9 578.8,119.5 579.0,120.4 579.1,121.6 579.3,123.2 579.5,125.0 579.6,127.3 579.8,130.1 579.9,133.4 580.1,137.6 580.3,142.9 580.4,149.9 580.6,159.9 580.8,177.3 580.9,182.0 581.1,177.4 581.3,160.1 581.4,150.1 581.6,143.2 581.7,138.0 581.9,133.9 582.1,130.6 582.2,127.9 582.4,125.6 582.6,123.8 582.7,122.4 582.9,121.3 583.1,120.4 583.2,119.8 583.4,119.5 583.5,119.4 583.7,119.5 583.9,120.0 584.0,120.6 584.2,121.5 584.4,122.7 584.5,124.2 584.7,126.1 584.9,128.4 585.0,131.2 585.2,134.5 585.3,138.7 585.5,144.0 585.7,151.0 585.8,161.0 586.0,178.4 586.2,182.0 586.3,178.5 586.5,161.2 586.7,151.2 586.8,144.3 587.0,139.0 587.1,134.9 587.3,131.6 587.5,128.9 587.6,126.7 587.8,124.9 588.0,123.5 588.1,122.3 588.3,121.5 588.5,120.9 588.6,120.5 588.8,120.5 588.9,120.6 589.1,121.0 589.3,121.7 589.4,122.6 589.6,123.8 589.8,125.3 589.9,127.2 590.1,129.4 590.3,132.2 590.4,135.6 590.6,139.8 590.7,145.0 590.9,152.0 591.1,162.1 591.2,179.4 591.4,182.0 591.6,179.5 591.7,162.2 591.9,152.2 592.1,145.3 592.2,140.1 592.4,136.0 592.5,132.7 592.7,130.0 592.9,127.8 593.0,125.9 593.2,124.5 593.4,123.4 593.5,122.5 593.7,121.9 593.9,121.6 594.0,121.5 594.2,121.6 594.3,122.0 594.5,122.7 594.7,123.6 594.8,124.8 595.0,126.3 595.2,128.2 595.3,130.5 595.5,133.2 595.7,136.6 595.8,140.8 596.0,146.1 596.1,153.1 596.3,163.1 596.5,180.5 596.6,182.0 596.8,180.5 597.0,163.2 597.1,153.2 597.3,146.3 597.5,141.1 597.6,137.0 597.8,133.7 597.9,131.0 598.1,128.8 598.3,127.0 598.4,125.5 598.6,124.4 598.8,123.5 598.9,122.9 599.1,122.6 599.3,122.5 599.4,122.7 599.6,123.0 599.7,123.7 599.9,124.6 600.1,125.8 600.2,127.3 600.4,129.2 600.6,131.5 600.7,134.2 600.9,137.6 601.1,141.8 601.2,147.1 601.4,154.1 601.5,164.1 601.7,181.5 601.9,182.0 602.0,181.5 602.2,164.2 602.4,154.2 602.5,147.3 602.7,142.1 602.9,138.0 603.0,134.7 603.2,132.0 603.3,129.8 603.5,127.9 603.7,126.5 603.8,125.4 604.0,124.5 604.2,123.9 604.3,123.6 604.5,123.5 604.7,123.6 604.8,124.0 605.0,124.7 605.1,125.6 605.3,126.8 605.5,128.3 605.6,130.2 605.8,132.5 606.0,135.2 606.1,138.6 606.3,142.8 606.5,148.0 606.6,155.0 606.8,165.1 606.9,182.0 607.1,182.0 607.3,182.0 607.4,165.2 607.6,155.2 607.8,148.3 607.9,143.1 608.1,139.0 608.3,135.6 608.4,132.9 608.6,130.7 608.7,128.9 608.9,127.5 609.1,126.3 609.2,125.5 609.4,124.9 609.6,124.5 609.7,124.4 609.9,124.6 610.1,125.0 610.2,125.6 610.4,126.6 610.5,127.8 610.7,129.3 610.9,131.1 611.0,133.4 611.2,136.2 611.4,139.5 611.5,143.7 611.7,149.0 611.9,156.0 612.0,166.0 612.2,182.0 612.3,182.0 612.5,182.0 612.7,166.1 612.8,156.2 613.0,149.2 613.2,144.0 613.3,139.9 613.5,136.6 613.7,133.9 613.8,131.7 614.0,129.9 614.1,128.4 614.3,127.3 614.5,126.4 614.6,125.8 614.8,125.5 615.0,125.4 615.1,125.5 615.3,125.9 615.5,126.6 615.6,127.5 615.8,128.7 615.9,130.2 616.1,132.1 616.3,134.4 616.4,137.1 616.6,140.5 616.8,144.7 616.9,149.9 617.1,156.9 617.3,167.0 617.4,182.0 617.6,182.0 617.7,182.0 617.9,167.1 618.1,157.1 618.2,150.2 618.4,144.9 618.6,140.8 618.7,137.5 618.9,134.8 619.1,132.6 619.2,130.8 619.4,129.3 619.5,128.2 619.7,127.3 619.9,126.7 620.0,126.4 620.2,126.3 620.4,126.5 620.5,126.9 620.7,127.5 620.9,128.4 621.0,129.6 621.2,131.1 621.3,133.0 621.5,135.3 621.7,138.0 621.8,141.4 622.0,145.6 622.2,150.9 622.3,157.8 622.5,167.9 622.7,182.0 622.8,182.0 623.0,182.0 623.1,168.0 623.3,158.0 623.5,151.1 623.6,145.9 623.8,141.7 624.0,138.4 624.1,135.7 624.3,133.5 624.5,131.7 624.6,130.3 624.8,129.1 624.9,128.3 625.1,127.7 625.3,127.3 625.4,127.2 625.6,127.4 625.8,127.8 625.9,128.4 626.1,129.3 626.3,130.5 626.4,132.0 626.6,133.9 626.7,136.2 626.9,138.9 627.1,142.3 627.2,146.5 627.4,151.8 627.6,158.8 627.7,168.8 627.9,182.0 628.1,182.0 628.2,182.0 628.4,168.9 628.5,158.9 628.7,152.0 628.9,146.8 629.0,142.7 629.2,139.3 629.4,136.6 629.5,134.4 629.7,132.6 629.9,131.2 630.0,130.0 630.2,129.2 630.3,128.6 630.5,128.2 630.7,128.1 630.8,128.3 631.0,128.7 631.2,129.3 631.3,130.2 631.5,131.4 631.7,132.9 631.8,134.8 632.0,137.1 632.1,139.8 632.3,143.2 632.5,147.4 632.6,152.7 632.8,159.6 633.0,169.7 633.1,182.0 633.3,182.0 633.5,182.0 633.6,169.8 633.8,159.8 633.9,152.9 634.1,147.7 634.3,143.5 634.4,140.2 634.6,137.5 634.8,135.3 634.9,133.5 635.1,132.0 635.3,130.9 635.4,130.0 635.6,129.5 635.7,129.1 635.9,129.0 636.1,129.2 636.2,129.6 636.4,130.2 636.6,131.1 636.7,132.3 636.9,133.8 637.1,135.7 637.2,138.0 637.4,140.7 637.5,144.1 637.7,148.3 637.9,153.5 638.0,160.5 638.2,170.6 638.4,182.0 638.5,182.0 638.7,182.0 638.9,170.7 639.0,160.7 639.2,153.8 639.3,148.5 639.5,144.4 639.7,141.1 639.8,138.4 640.0,136.2 640.2,134.4 640.3,132.9 640.5,131.8 640.7,130.9 640.8,130.3 641.0,130.0 641.1,129.9 641.3,130.1 641.5,130.4 641.6,131.1 641.8,132.0 642.0,133.2 642.1,134.7 642.3,136.6 642.5,138.9 642.6,141.6 642.8,145.0 642.9,149.2 643.1,154.4 643.3,161.4 643.4,171.5 643.6,182.0 643.8,182.0 643.9,182.0 644.1,171.6 644.3,161.6 644.4,154.7 644.6,149.4 644.7,145.3 644.9,142.0 645.1,139.3 645.2,137.1 645.4,135.3 645.6,133.8 645.7,132.7 645.9,131.8 646.1,131.2 646.2,130.9 646.4,130.8 646.5,130.9 646.7,131.3 646.9,132.0 647.0,132.9 647.2,134.1 647.4,135.6 647.5,137.5 647.7,139.7 647.9,142.5 648.0,145.9 648.2,150.0 648.3,155.3 648.5,162.3 648.7,172.3 648.8,182.0 649.0,182.0 649.2,182.0 649.3,172.4 649.5,162.5 649.7,155.5 649.8,150.3 650.0,146.2 650.1,142.9 650.3,140.2 650.5,138.0 650.6,136.1 650.8,134.7 651.0,133.5 651.1,132.7 651.3,132.1 651.5,131.8 651.6,131.7 651.8,131.8 651.9,132.2 652.1,132.9 652.3,133.8 652.4,135.0 652.6,136.5 652.8,138.3 652.9,140.6 653.1,143.4 653.3,146.7 653.4,150.9 653.6,156.2 653.7,163.2 653.9,173.2 654.1,182.0 654.2,182.0 654.4,182.0 654.6,173.3 654.7,163.3 654.9,156.4 655.1,151.2 655.2,147.1 655.4,143.8 655.5,141.0 655.7,138.8 655.9,137.0 656.0,135.6 656.2,134.4 656.4,133.6 656.5,133.0 656.7,132.6 656.9,132.5 657.0,132.7 657.2,133.1 657.3,133.7 657.5,134.6 657.7,135.8 657.8,137.3 658.0,139.2 658.2,141.5 658.3,144.2 658.5,147.6 658.7,151.8 658.8,157.1 659.0,164.0 659.1,174.1 659.3,182.0 659.5,182.0 659.6,182.0 659.8,174.2 660.0,164.2 660.1,157.3 660.3,152.1 660.5,147.9 660.6,144.6 660.8,141.9 661.0,139.7 661.1,137.9 661.3,136.4 661.4,135.3 661.6,134.4 661.8,133.8 661.9,133.5 662.1,133.4 662.3,133.6 662.4,134.0 662.6,134.6 662.8,135.5 662.9,136.7 663.1,138.2 663.2,140.1 663.4,142.4 663.6,145.1 663.7,148.5 663.9,152.7 664.1,157.9 664.2,164.9 664.4,175.0 664.6,182.0 664.7,182.0 664.9,182.0 665.0,175.1 665.2,165.1 665.4,158.2 665.5,152.9 665.7,148.8 665.9,145.5 666.0,142.8 666.2,140.6 666.4,138.8 666.5,137.3 666.7,136.2 666.8,135.3 667.0,134.7 667.2,134.4 667.3,134.3 667.5,134.4 667.7,134.8 667.8,135.5 668.0,136.4 668.2,137.6 668.3,139.1 668.5,141.0 668.6,143.2 668.8,146.0 669.0,149.4 669.1,153.5 669.3,158.8 669.5,165.8 669.6,175.8 669.8,182.0 670.0,182.0 670.1,182.0 670.3,176.0 670.4,166.0 670.6,159.0 670.8,153.8 670.9,149.7 671.1,146.4 671.3,143.7 671.4,141.5 671.6,139.7 671.8,138.2 671.9,137.1 672.1,136.2 672.2,135.6 672.4,135.3 672.6,135.2 672.7,135.3 672.9,135.7 673.1,136.4 673.2,137.3 673.4,138.5 673.6,140.0 673.7,141.9 673.9,144.1 674.0,146.9 674.2,150.3 674.4,154.4 674.5,159.7 674.7,166.7 674.9,176.7 675.0,182.0 675.2,182.0 675.4,182.0 675.5,176.8 675.7,166.9 675.8,159.9 676.0,154.7 676.2,150.6 676.3,147.3 676.5,144.6 676.7,142.4 676.8,140.6 677.0,139.1 677.2,138.0 677.3,137.1 677.5,136.5 677.6,136.2 677.8,136.1 678.0,136.2 678.1,136.6 678.3,137.3 678.5,138.2 678.6,139.4 678.8,140.9 679.0,142.8 679.1,145.0 679.3,147.8 679.4,151.2 679.6,155.3 679.8,160.6 679.9,167.6 680.1,177.6 680.3,182.0 680.4,182.0 680.6,182.0 680.8,177.7 680.9,167.8 681.1,160.8 681.2,155.6 681.4,151.5 681.6,148.2 681.7,145.5 681.9,143.3 682.1,141.5 682.2,140.0 682.4,138.9 682.6,138.0 682.7,137.4 682.9,137.1 683.0,137.0 683.2,137.1 683.4,137.5 683.5,138.2 683.7,139.1 683.9,140.3 684.0,141.8 684.2,143.7 684.4,145.9 684.5,148.7 684.7,152.1 684.8,156.2 685.0,161.5 685.2,168.5 685.3,178.6 685.5,182.0 685.7,182.0 685.8,182.0 686.0,178.7 686.2,168.7 686.3,161.8 686.5,156.5 686.6,152.4 686.8,149.1 687.0,146.4 687.1,144.2 687.3,142.4 687.5,140.9 687.6,139.8 687.8,138.9 688.0,138.3 688.1,138.0 688.3,137.9 688.4,138.1 688.6,138.5 688.8,139.1 688.9,140.0 689.1,141.2 689.3,142.7 689.4,144.6 689.6,146.9 689.8,149.6 689.9,153.0 690.1,157.2 690.2,162.5 690.4,169.4 690.6,179.5 690.7,182.0 690.9,182.0 691.1,182.0 691.2,179.6 691.4,169.6 691.6,162.7 691.7,157.5 691.9,153.4 692.0,150.0 692.2,147.3 692.4,145.1 692.5,143.3 692.7,141.9 692.9,140.7 693.0,139.9 693.2,139.3 693.4,138.9 693.5,138.9 693.7,139.0 693.8,139.4 694.0,140.1 694.2,141.0 694.3,142.2 694.5,143.7 694.7,145.5 694.8,147.8 695.0,150.6 695.2,154.0 695.3,158.1 695.5,163.4 695.6,170.4 695.8,180.4 696.0,182.0 696.1,182.0 696.3,182.0 696.5,180.6 696.6,170.6 696.8,163.7 697.0,158.4 697.1,154.3 697.3,151.0 697.4,148.3 697.6,146.1 697.8,144.3 697.9,142.8 698.1,141.7 698.3,140.8 698.4,140.3 698.6,139.9 698.8,139.8 698.9,140.0 699.1,140.4 699.2,141.0 699.4,141.9 699.6,143.1 699.7,144.7 699.9,146.5 700.1,148.8 700.2,151.6 700.4,154.9 700.6,159.1 700.7,164.4 700.9,171.4 701.0,181.4 701.2,182.0 701.4,182.0 701.5,182.0 701.7,181.6 701.9,171.6 702.0,164.6 702.2,159.4 702.4,155.3 702.5,152.0 702.7,149.3 702.8,147.1 703.0,145.3 703.2,143.8 703.3,142.7 703.5,141.8 703.7,141.3 703.8,140.9 704.0,140.8 704.2,141.0 704.3,141.4 704.5,142.0 704.6,142.9 704.8,144.2 705.0,145.7 705.1,147.5 705.3,149.8 705.5,152.6 705.6,156.0 705.8,160.1 706.0,165.4 706.1,172.4 706.3,182.0 706.4,182.0 706.6,182.0 706.8,182.0 706.9,182.0 707.1,172.6 707.3,165.7 707.4,160.4 707.6,156.3 707.8,153.0 707.9,150.3 708.1,148.1 708.2,146.3 708.4,144.9 708.6,143.7 708.7,142.9 708.9,142.3 709.1,142.0 709.2,141.9 709.4,142.0 709.6,142.4 709.7,143.1 709.9,144.0 710.0,145.2 710.2,146.7 710.4,148.6 710.5,150.9 710.7,153.6 710.9,157.0 711.0,161.2 711.2,166.5 711.4,173.5 711.5,182.0 711.7,182.0 711.8,182.0 712.0,182.0 712.2,182.0 712.3,173.7 712.5,166.7 712.7,161.5 712.8,157.4 713.0,154.1 713.2,151.4 713.3,149.2 713.5,147.4 713.6,145.9 713.8,144.8 714.0,144.0 714.1,143.4 714.3,143.0 714.5,143.0 714.6,143.1 714.8,143.5 715.0,144.2 715.1,145.1 715.3,146.3 715.4,147.8 715.6,149.7 715.8,152.0 715.9,154.7 716.1,158.1 716.3,162.3 716.4,167.6 716.6,174.6 716.8,182.0 716.9,182.0 717.1,182.0 717.2,182.0 717.4,182.0 717.6,174.8 717.7,167.9 717.9,162.6 718.1,158.5 718.2,155.2 718.4,152.5 718.6,150.3 718.7,148.5 718.9,147.1 719.0,145.9 719.2,145.1 719.4,144.5 719.5,144.2 719.7,144.1 719.9,144.3 720.0,144.7 720.2,145.3 720.4,146.2 720.5,147.4 720.7,149.0 720.8,150.8 721.0,153.1 721.2,155.9 721.3,159.3 721.5,163.4 721.7,168.7 721.8,175.7 722.0,182.0 722.2,182.0 722.3,182.0 722.5,182.0 722.6,182.0 722.8,176.0 723.0,169.0 723.1,163.8 723.3,159.7 723.5,156.4 723.6,153.7 723.8,151.5 724.0,149.7 724.1,148.3 724.3,147.1 724.4,146.3 724.6,145.7 724.8,145.4 724.9,145.3 725.1,145.5 725.3,145.9 725.4,146.5 725.6,147.5 725.8,148.7 725.9,150.2 726.1,152.1 726.2,154.3 726.4,157.1 726.6,160.5 726.7,164.7 726.9,170.0 727.1,177.0 727.2,182.0 727.4,182.0 727.6,182.0 727.7,182.0 727.9,182.0 728.0,177.2 728.2,170.3 728.4,165.1 728.5,161.0 728.7,157.7 728.9,155.0 729.0,152.8 729.2,151.0 729.4,149.5 729.5,148.4 729.7,147.6 729.8,147.0 730.0,146.7 730.2,146.6 730.3,146.8 730.5,147.2 730.7,147.8 730.8,148.8 731.0,150.0 731.2,151.5 731.3,153.4 731.5,155.7 731.6,158.4 731.8,161.8 732.0,166.0 732.1,171.3 732.3,178.3 732.5,182.0 732.6,182.0 732.8,182.0 733.0,182.0 733.1,182.0 733.3,178.6 733.4,171.6 733.6,166.4 733.8,162.3 733.9,159.0 734.1,156.4 734.3,154.2 734.4,152.4 734.6,150.9 734.8,149.8 734.9,149.0 735.1,148.4 735.2,148.1 735.4,148.0 735.6,148.1 735.7,148.6 735.9,149.2 736.1,150.2 736.2,151.4 736.4,152.9 736.6,154.8 736.7,157.1 736.9,159.9 737.0,163.2 737.2,167.4 737.4,172.7 737.5,179.7 737.7,182.0 737.9,182.0 738.0,182.0 738.2,182.0 738.4,182.0 738.5,180.0 738.7,173.1 738.8,167.9 739.0,163.8 739.2,160.5 739.3,157.8 739.5,155.6 739.7,153.8 739.8,152.4 740.0,151.3 740.2,150.5 740.3,149.9 740.5,149.6 740.6,149.5 740.8,149.7 741.0,150.1 741.1,150.8 741.3,151.7 741.5,152.9 741.6,154.4 741.8,156.3 742.0,158.6 742.1,161.4 742.3,164.8 742.4,169.0 742.6,174.3 742.8,181.3 742.9,182.0 743.1,182.0 743.3,182.0 743.4,182.0 743.6,182.0 743.8,181.6 743.9,174.7 744.1,169.5 744.3,165.4 744.4,162.1 744.6,159.5 744.7,157.3 744.9,155.5 745.1,154.1 745.2,152.9 745.4,152.1 745.6,151.6 745.7,151.2 745.9,151.2 746.1,151.4 746.2,151.8 746.4,152.5 746.5,153.4 746.7,154.6 746.9,156.2 747.0,158.1 747.2,160.4 747.4,163.1 747.5,166.5 747.7,170.7 747.9,176.1 748.0,182.0 748.2,182.0 748.3,182.0 748.5,182.0 748.7,182.0 748.8,182.0 749.0,182.0 749.2,176.5 749.3,171.3 749.5,167.3 749.7,164.0 749.8,161.3 750.0,159.1 750.1,157.3 750.3,155.9 750.5,154.8 750.6,154.0 750.8,153.4 751.0,153.1 751.1,153.1 751.3,153.3 751.5,153.7 751.6,154.4 751.8,155.3 751.9,156.6 752.1,158.1 752.3,160.0 752.4,162.3 752.6,165.1 752.8,168.5 752.9,172.7 753.1,178.0 753.3,182.0 753.4,182.0 753.6,182.0 753.7,182.0 753.9,182.0 754.1,182.0 754.2,182.0 754.4,178.6 754.6,173.4 754.7,169.3 754.9,166.1 755.1,163.4 755.2,161.2 755.4,159.5 755.5,158.0 755.7,156.9 755.9,156.1 756.0,155.6 756.2,155.3 756.4,155.2 756.5,155.4 756.7,155.9 756.9,156.6 757.0,157.5 757.2,158.8 757.3,160.3 757.5,162.3 757.7,164.6 757.8,167.4 758.0,170.8 758.2,175.0 758.3,180.4 758.5,182.0 758.7,182.0 758.8,182.0 759.0,182.0 759.1,182.0 759.3,182.0 759.5,182.0 759.6,181.0 759.8,175.8 760.0,171.8 760.1,168.5 760.3,165.9 760.5,163.7 760.6,162.0 760.8,160.6 760.9,159.5 761.1,158.7 761.3,158.1 761.4,157.9 761.6,157.8 761.8,158.0 761.9,158.5 762.1,159.2 762.3,160.2 762.4,161.5 762.6,163.0 762.7,165.0 762.9,167.3 763.1,170.1 763.2,173.6 763.4,177.8 763.6,182.0 763.7,182.0 763.9,182.0 764.1,182.0 764.2,182.0 764.4,182.0 764.5,182.0 764.7,182.0 764.9,182.0 765.0,178.8 765.2,174.8 765.4,171.5 765.5,168.9 765.7,166.8 765.9,165.0 766.0,163.7 766.2,162.6 766.3,161.8 766.5,161.3 766.7,161.1 766.8,161.1 767.0,161.3 767.2,161.8 767.3,162.5 767.5,163.5 767.7,164.8 767.8,166.4 768.0,168.4 768.1,170.7 768.3,173.6 768.5,177.1 768.6,181.3 768.8,182.0 769.0,182.0 769.1,182.0 769.3,182.0 769.5,182.0 769.6,182.0 769.8,182.0 769.9,182.0 770.1,182.0 770.3,182.0 770.4,178.6 770.6,175.4 770.8,172.9 770.9,170.8 771.1,169.1 771.3,167.7 771.4,166.7 771.6,166.0 771.7,165.5 771.9,165.3 772.1,165.3 772.2,165.6 772.4,166.1 772.6,166.9 772.7,168.0 772.9,169.3 773.1,171.0 773.2,173.0 773.4,175.4 773.5,178.3 773.7,181.8 773.9,182.0 774.0,182.0 774.2,182.0 774.4,182.0 774.5,182.0 774.7,182.0 774.9,182.0 775.0,182.0 775.2,182.0 775.3,182.0 775.5,182.0 775.7,182.0 775.8,181.1 776.0,178.6 776.2,176.6 776.3,175.0 776.5,173.7 776.7,172.8 776.8,172.1 777.0,171.8 777.1,171.7 777.3,171.8 777.5,172.2 777.6,172.8 777.8,173.7 778.0,174.9 778.1,176.3 778.3,178.1 778.5,180.3 778.6,182.0 778.8,182.0 778.9,182.0 779.1,182.0 779.3,182.0 779.4,182.0 779.6,182.0 779.8,182.0 779.9,182.0 780.1,182.0 780.3,182.0 780.4,182.0 780.6,182.0 780.7,182.0 780.9,182.0 781.1,182.0 781.2,182.0 781.4,182.0 781.6,182.0 781.7,182.0 781.9,182.0 782.1,182.0 782.2,182.0 782.4,182.0 782.5,182.0 782.7,182.0 782.9,182.0 783.0,182.0 783.2,182.0 783.4,182.0 783.5,182.0 783.7,182.0 783.9,182.0 784.0,182.0 784.2,182.0 784.3,182.0 784.5,182.0 784.7,182.0 784.8,182.0 785.0,182.0" fill="none" stroke="#4a90d9" stroke-width="1.5" stroke-linejoin="round"/>
  <text x="209.5" y="214" text-anchor="middle" font-size="11" fill="#6b7280">n / N</text>
  <text x="617.5" y="214" text-anchor="middle" font-size="11" fill="#6b7280">Normalized frequency (× Fₛ)</text>
</svg>
