<svg xmlns="http://www.w3.org/2000/svg" viewBox="0 0 560 210" width="560" height="210" style="font-family:system-ui,-apple-system,sans-serif">
  <rect width="560" height="210" fill="#fafafa" rx="6"/>
  <text x="280" y="18" text-anchor="middle" font-size="12" font-weight="600" fill="#374151">tukey</text>
  <line x1="52" y1="166.0" x2="257" y2="166.0" stroke="#e5e7eb" stroke-width="0.5"/>
  <text x="48" y="169.0" text-anchor="end" font-size="7.5" fill="#6b7280">0</text>
  <line x1="52" y1="97.0" x2="257" y2="97.0" stroke="#e5e7eb" stroke-width="0.5"/>
  <text x="48" y="100.0" text-anchor="end" font-size="7.5" fill="#6b7280">0.5</text>
  <line x1="52" y1="28.0" x2="257" y2="28.0" stroke="#e5e7eb" stroke-width="0.5"/>
  <text x="48" y="31.0" text-anchor="end" font-size="7.5" fill="#6b7280">1</text>
  <line x1="52.0" y1="28" x2="52.0" y2="166" stroke="#e5e7eb" stroke-width="0.5"/>
  <text x="52.0" y="178" text-anchor="middle" font-size="7.5" fill="#6b7280">0</text>
  <line x1="154.5" y1="28" x2="154.5" y2="166" stroke="#e5e7eb" stroke-width="0.5"/>
  <text x="154.5" y="178" text-anchor="middle" font-size="7.5" fill="#6b7280">0.5</text>
  <line x1="257.0" y1="28" x2="257.0" y2="166" stroke="#e5e7eb" stroke-width="0.5"/>
  <text x="257.0" y="178" text-anchor="middle" font-size="7.5" fill="#6b7280">1</text>
  <line x1="52" y1="28" x2="52" y2="166" stroke="#d1d5db" stroke-width="0.75"/>
  <line x1="52" y1="166" x2="257" y2="166" stroke="#d1d5db" stroke-width="0.75"/>
  <path d="M52.0,166.0 52.0,166.0 52.8,165.9 53.6,165.7 54.4,165.2 55.2,164.7 56.0,163.9 56.8,163.0 57.6,161.9 58.4,160.7 59.2,159.3 60.0,157.8 60.8,156.1 61.6,154.3 62.5,152.3 63.3,150.2 64.1,148.0 64.9,145.6 65.7,143.2 66.5,140.6 67.3,137.9 68.1,135.1 68.9,132.2 69.7,129.3 70.5,126.2 71.3,123.1 72.1,119.9 72.9,116.7 73.7,113.4 74.5,110.1 75.3,106.7 76.1,103.4 76.9,100.0 77.7,96.6 78.5,93.2 79.3,89.8 80.1,86.4 80.9,83.1 81.7,79.8 82.5,76.5 83.4,73.3 84.2,70.1 85.0,67.0 85.8,64.0 86.6,61.0 87.4,58.2 88.2,55.4 89.0,52.8 89.8,50.2 90.6,47.8 91.4,45.4 92.2,43.2 93.0,41.2 93.8,39.2 94.6,37.5 95.4,35.8 96.2,34.3 97.0,33.0 97.8,31.8 98.6,30.8 99.4,29.9 100.2,29.2 101.0,28.6 101.8,28.3 102.6,28.0 103.5,28.0 104.3,28.0 105.1,28.0 105.9,28.0 106.7,28.0 107.5,28.0 108.3,28.0 109.1,28.0 109.9,28.0 110.7,28.0 111.5,28.0 112.3,28.0 113.1,28.0 113.9,28.0 114.7,28.0 115.5,28.0 116.3,28.0 117.1,28.0 117.9,28.0 118.7,28.0 119.5,28.0 120.3,28.0 121.1,28.0 121.9,28.0 122.7,28.0 123.5,28.0 124.4,28.0 125.2,28.0 126.0,28.0 126.8,28.0 127.6,28.0 128.4,28.0 129.2,28.0 130.0,28.0 130.8,28.0 131.6,28.0 132.4,28.0 133.2,28.0 134.0,28.0 134.8,28.0 135.6,28.0 136.4,28.0 137.2,28.0 138.0,28.0 138.8,28.0 139.6,28.0 140.4,28.0 141.2,28.0 142.0,28.0 142.8,28.0 143.6,28.0 144.5,28.0 145.3,28.0 146.1,28.0 146.9,28.0 147.7,28.0 148.5,28.0 149.3,28.0 150.1,28.0 150.9,28.0 151.7,28.0 152.5,28.0 153.3,28.0 154.1,28.0 154.9,28.0 155.7,28.0 156.5,28.0 157.3,28.0 158.1,28.0 158.9,28.0 159.7,28.0 160.5,28.0 161.3,28.0 162.1,28.0 162.9,28.0 163.7,28.0 164.5,28.0 165.4,28.0 166.2,28.0 167.0,28.0 167.8,28.0 168.6,28.0 169.4,28.0 170.2,28.0 171.0,28.0 171.8,28.0 172.6,28.0 173.4,28.0 174.2,28.0 175.0,28.0 175.8,28.0 176.6,28.0 177.4,28.0 178.2,28.0 179.0,28.0 179.8,28.0 180.6,28.0 181.4,28.0 182.2,28.0 183.0,28.0 183.8,28.0 184.6,28.0 185.5,28.0 186.3,28.0 187.1,28.0 187.9,28.0 188.7,28.0 189.5,28.0 190.3,28.0 191.1,28.0 191.9,28.0 192.7,28.0 193.5,28.0 194.3,28.0 195.1,28.0 195.9,28.0 196.7,28.0 197.5,28.0 198.3,28.0 199.1,28.0 199.9,28.0 200.7,28.0 201.5,28.0 202.3,28.0 203.1,28.0 203.9,28.0 204.7,28.0 205.5,28.0 206.4,28.0 207.2,28.3 208.0,28.6 208.8,29.2 209.6,29.9 210.4,30.8 211.2,31.8 212.0,33.0 212.8,34.3 213.6,35.8 214.4,37.5 215.2,39.2 216.0,41.2 216.8,43.2 217.6,45.4 218.4,47.8 219.2,50.2 220.0,52.8 220.8,55.4 221.6,58.2 222.4,61.0 223.2,64.0 224.0,67.0 224.8,70.1 225.6,73.3 226.5,76.5 227.3,79.8 228.1,83.1 228.9,86.4 229.7,89.8 230.5,93.2 231.3,96.6 232.1,100.0 232.9,103.4 233.7,106.7 234.5,110.1 235.3,113.4 236.1,116.7 236.9,119.9 237.7,123.1 238.5,126.2 239.3,129.3 240.1,132.2 240.9,135.1 241.7,137.9 242.5,140.6 243.3,143.2 244.1,145.6 244.9,148.0 245.7,150.2 246.5,152.3 247.4,154.3 248.2,156.1 249.0,157.8 249.8,159.3 250.6,160.7 251.4,161.9 252.2,163.0 253.0,163.9 253.8,164.7 254.6,165.2 255.4,165.7 256.2,165.9 257.0,166.0 L257.0,166.0 Z" fill="#4a90d9" fill-opacity="0.06"/>
  <polyline points="52.0,166.0 52.8,165.9 53.6,165.7 54.4,165.2 55.2,164.7 56.0,163.9 56.8,163.0 57.6,161.9 58.4,160.7 59.2,159.3 60.0,157.8 60.8,156.1 61.6,154.3 62.5,152.3 63.3,150.2 64.1,148.0 64.9,145.6 65.7,143.2 66.5,140.6 67.3,137.9 68.1,135.1 68.9,132.2 69.7,129.3 70.5,126.2 71.3,123.1 72.1,119.9 72.9,116.7 73.7,113.4 74.5,110.1 75.3,106.7 76.1,103.4 76.9,100.0 77.7,96.6 78.5,93.2 79.3,89.8 80.1,86.4 80.9,83.1 81.7,79.8 82.5,76.5 83.4,73.3 84.2,70.1 85.0,67.0 85.8,64.0 86.6,61.0 87.4,58.2 88.2,55.4 89.0,52.8 89.8,50.2 90.6,47.8 91.4,45.4 92.2,43.2 93.0,41.2 93.8,39.2 94.6,37.5 95.4,35.8 96.2,34.3 97.0,33.0 97.8,31.8 98.6,30.8 99.4,29.9 100.2,29.2 101.0,28.6 101.8,28.3 102.6,28.0 103.5,28.0 104.3,28.0 105.1,28.0 105.9,28.0 106.7,28.0 107.5,28.0 108.3,28.0 109.1,28.0 109.9,28.0 110.7,28.0 111.5,28.0 112.3,28.0 113.1,28.0 113.9,28.0 114.7,28.0 115.5,28.0 116.3,28.0 117.1,28.0 117.9,28.0 118.7,28.0 119.5,28.0 120.3,28.0 121.1,28.0 121.9,28.0 122.7,28.0 123.5,28.0 124.4,28.0 125.2,28.0 126.0,28.0 126.8,28.0 127.6,28.0 128.4,28.0 129.2,28.0 130.0,28.0 130.8,28.0 131.6,28.0 132.4,28.0 133.2,28.0 134.0,28.0 134.8,28.0 135.6,28.0 136.4,28.0 137.2,28.0 138.0,28.0 138.8,28.0 139.6,28.0 140.4,28.0 141.2,28.0 142.0,28.0 142.8,28.0 143.6,28.0 144.5,28.0 145.3,28.0 146.1,28.0 146.9,28.0 147.7,28.0 148.5,28.0 149.3,28.0 150.1,28.0 150.9,28.0 151.7,28.0 152.5,28.0 153.3,28.0 154.1,28.0 154.9,28.0 155.7,28.0 156.5,28.0 157.3,28.0 158.1,28.0 158.9,28.0 159.7,28.0 160.5,28.0 161.3,28.0 162.1,28.0 162.9,28.0 163.7,28.0 164.5,28.0 165.4,28.0 166.2,28.0 167.0,28.0 167.8,28.0 168.6,28.0 169.4,28.0 170.2,28.0 171.0,28.0 171.8,28.0 172.6,28.0 173.4,28.0 174.2,28.0 175.0,28.0 175.8,28.0 176.6,28.0 177.4,28.0 178.2,28.0 179.0,28.0 179.8,28.0 180.6,28.0 181.4,28.0 182.2,28.0 183.0,28.0 183.8,28.0 184.6,28.0 185.5,28.0 186.3,28.0 187.1,28.0 187.9,28.0 188.7,28.0 189.5,28.0 190.3,28.0 191.1,28.0 191.9,28.0 192.7,28.0 193.5,28.0 194.3,28.0 195.1,28.0 195.9,28.0 196.7,28.0 197.5,28.0 198.3,28.0 199.1,28.0 199.9,28.0 200.7,28.0 201.5,28.0 202.3,28.0 203.1,28.0 203.9,28.0 204.7,28.0 205.5,28.0 206.4,28.0 207.2,28.3 208.0,28.6 208.8,29.2 209.6,29.9 210.4,30.8 211.2,31.8 212.0,33.0 212.8,34.3 213.6,35.8 214.4,37.5 215.2,39.2 216.0,41.2 216.8,43.2 217.6,45.4 218.4,47.8 219.2,50.2 220.0,52.8 220.8,55.4 221.6,58.2 222.4,61.0 223.2,64.0 224.0,67.0 224.8,70.1 225.6,73.3 226.5,76.5 227.3,79.8 228.1,83.1 228.9,86.4 229.7,89.8 230.5,93.2 231.3,96.6 232.1,100.0 232.9,103.4 233.7,106.7 234.5,110.1 235.3,113.4 236.1,116.7 236.9,119.9 237.7,123.1 238.5,126.2 239.3,129.3 240.1,132.2 240.9,135.1 241.7,137.9 242.5,140.6 243.3,143.2 244.1,145.6 244.9,148.0 245.7,150.2 246.5,152.3 247.4,154.3 248.2,156.1 249.0,157.8 249.8,159.3 250.6,160.7 251.4,161.9 252.2,163.0 253.0,163.9 253.8,164.7 254.6,165.2 255.4,165.7 256.2,165.9 257.0,166.0" fill="none" stroke="#4a90d9" stroke-width="1.2" stroke-linejoin="round"/>
  <line x1="322" y1="28.0" x2="527" y2="28.0" stroke="#e5e7eb" stroke-width="0.5"/>
  <text x="318" y="31.0" text-anchor="end" font-size="7.5" fill="#6b7280">0</text>
  <line x1="322" y1="74.0" x2="527" y2="74.0" stroke="#e5e7eb" stroke-width="0.5"/>
  <text x="318" y="77.0" text-anchor="end" font-size="7.5" fill="#6b7280">-40</text>
  <line x1="322" y1="120.0" x2="527" y2="120.0" stroke="#e5e7eb" stroke-width="0.5"/>
  <text x="318" y="123.0" text-anchor="end" font-size="7.5" fill="#6b7280">-80</text>
  <line x1="322" y1="166.0" x2="527" y2="166.0" stroke="#e5e7eb" stroke-width="0.5"/>
  <text x="318" y="169.0" text-anchor="end" font-size="7.5" fill="#6b7280">-120</text>
  <line x1="322.0" y1="28" x2="322.0" y2="166" stroke="#e5e7eb" stroke-width="0.5"/>
  <text x="322.0" y="178" text-anchor="middle" font-size="7.5" fill="#6b7280">0</text>
  <line x1="363.0" y1="28" x2="363.0" y2="166" stroke="#e5e7eb" stroke-width="0.5"/>
  <text x="363.0" y="178" text-anchor="middle" font-size="7.5" fill="#6b7280">0.1</text>
  <line x1="404.0" y1="28" x2="404.0" y2="166" stroke="#e5e7eb" stroke-width="0.5"/>
  <text x="404.0" y="178" text-anchor="middle" font-size="7.5" fill="#6b7280">0.2</text>
  <line x1="445.0" y1="28" x2="445.0" y2="166" stroke="#e5e7eb" stroke-width="0.5"/>
  <text x="445.0" y="178" text-anchor="middle" font-size="7.5" fill="#6b7280">0.3</text>
  <line x1="486.0" y1="28" x2="486.0" y2="166" stroke="#e5e7eb" stroke-width="0.5"/>
  <text x="486.0" y="178" text-anchor="middle" font-size="7.5" fill="#6b7280">0.4</text>
  <line x1="527.0" y1="28" x2="527.0" y2="166" stroke="#e5e7eb" stroke-width="0.5"/>
  <text x="527.0" y="178" text-anchor="middle" font-size="7.5" fill="#6b7280">0.5</text>
  <line x1="322" y1="28" x2="322" y2="166" stroke="#d1d5db" stroke-width="0.75"/>
  <line x1="322" y1="166" x2="527" y2="166" stroke="#d1d5db" stroke-width="0.75"/>
  <polyline points="322.0,28.0 322.1,28.0 322.2,28.2 322.3,28.3 322.4,28.6 322.5,29.0 322.6,29.4 322.7,29.9 322.8,30.6 322.9,31.3 323.0,32.1 323.1,33.1 323.2,34.2 323.3,35.4 323.4,36.8 323.5,38.5 323.6,40.5 323.7,42.8 323.8,45.8 323.9,49.6 324.0,55.4 324.1,68.2 324.2,65.4 324.3,56.0 324.4,51.8 324.5,49.3 324.6,47.7 324.7,46.6 324.8,45.9 324.9,45.5 325.0,45.4 325.1,45.5 325.2,45.8 325.3,46.4 325.4,47.1 325.5,48.1 325.6,49.4 325.7,50.9 325.8,52.9 325.9,55.3 326.0,58.5 326.1,63.2 326.2,71.4 326.3,88.0 326.4,69.0 326.5,63.4 326.6,60.2 326.7,58.2 326.8,56.9 326.9,56.0 327.0,55.5 327.1,55.3 327.2,55.3 327.3,55.5 327.4,56.0 327.5,56.7 327.6,57.6 327.7,58.8 327.8,60.3 327.9,62.1 328.0,64.4 328.1,67.4 328.2,71.4 328.3,77.7 328.4,94.2 328.5,83.9 328.6,76.1 328.7,72.3 328.8,70.1 328.9,68.7 329.0,67.8 329.1,67.3 329.2,67.2 329.3,67.3 329.4,67.7 329.5,68.3 329.6,69.2 329.7,70.3 329.8,71.7 329.9,73.4 330.0,75.4 330.1,77.9 330.2,80.9 330.3,84.9 330.4,90.5 330.5,100.7 330.6,108.9 330.7,96.4 330.8,92.4 330.9,90.6 331.0,90.0 331.1,90.3 331.2,91.4 331.3,93.4 331.4,96.6 331.5,101.9 331.6,115.0 331.7,110.4 331.8,101.4 331.9,97.4 332.0,95.2 332.1,94.2 332.2,94.0 332.3,94.5 332.4,96.0 332.5,98.9 332.6,104.6 332.7,129.4 332.8,105.2 332.9,97.5 333.0,93.1 333.1,90.1 333.2,87.9 333.3,86.2 333.4,85.0 333.5,84.1 333.6,83.5 333.7,83.2 333.8,83.1 333.9,83.2 334.0,83.7 334.1,84.3 334.2,85.3 334.3,86.6 334.4,88.4 334.5,90.8 334.6,94.1 334.7,99.2 334.8,110.3 334.9,110.6 335.0,100.0 335.1,95.3 335.2,92.5 335.3,90.6 335.4,89.3 335.5,88.5 335.6,88.0 335.7,87.8 335.8,87.9 335.9,88.2 336.0,88.8 336.1,89.6 336.2,90.7 336.3,92.1 336.4,93.8 336.5,96.0 336.6,98.7 336.7,102.2 336.8,107.0 336.9,115.2 337.0,140.4 337.1,115.7 337.2,110.5 337.3,108.2 337.4,107.2 337.5,107.1 337.6,107.8 337.7,109.4 337.8,112.1 337.9,116.6 338.0,126.0 338.1,131.4 338.2,118.8 338.3,113.9 338.4,111.3 338.5,109.8 338.6,109.3 338.7,109.5 338.8,110.6 338.9,113.0 339.0,117.5 339.1,130.5 339.2,123.1 339.3,113.4 339.4,108.4 339.5,105.0 339.6,102.5 339.7,100.6 339.8,99.2 339.9,98.1 340.0,97.3 340.1,96.8 340.2,96.6 340.3,96.6 340.4,96.8 340.5,97.3 340.6,98.1 340.7,99.3 340.8,100.8 340.9,102.9 341.0,105.9 341.1,110.3 341.2,118.8 341.3,130.0 341.4,114.1 341.5,108.6 341.6,105.3 341.7,103.2 341.8,101.7 341.9,100.7 342.0,100.0 342.1,99.7 342.2,99.6 342.3,99.8 342.4,100.2 342.5,100.9 342.6,101.9 342.7,103.1 342.8,104.7 342.9,106.7 343.0,109.1 343.1,112.3 343.2,116.7 343.3,123.6 343.4,143.8 343.5,128.9 343.6,122.3 343.7,119.3 343.8,118.0 343.9,117.7 344.0,118.1 344.1,119.4 344.2,121.7 344.3,125.6 344.4,133.0 344.5,153.1 344.6,130.9 344.7,125.0 344.8,121.9 344.9,120.2 345.0,119.4 345.1,119.3 345.2,120.2 345.3,122.1 345.4,125.9 345.5,134.9 345.6,137.6 345.7,124.8 345.8,119.0 345.9,115.3 346.0,112.6 346.1,110.5 346.2,108.9 346.3,107.7 346.4,106.8 346.5,106.2 346.6,105.8 346.7,105.7 346.8,105.9 346.9,106.3 347.0,107.0 347.1,108.0 347.2,109.4 347.3,111.3 347.4,113.9 347.5,117.8 347.6,124.7 347.7,166.0 347.8,125.0 347.9,118.3 348.0,114.6 348.1,112.2 348.2,110.5 348.3,109.4 348.4,108.6 348.5,108.2 348.6,108.0 348.7,108.1 348.8,108.4 348.9,109.0 349.0,109.9 349.1,111.0 349.2,112.4 349.3,114.3 349.4,116.6 349.5,119.5 349.6,123.5 349.7,129.5 349.8,142.4 349.9,140.2 350.0,131.3 350.1,127.8 350.2,126.1 350.3,125.5 350.4,125.7 350.5,126.8 350.6,128.7 350.7,132.1 350.8,138.1 350.9,159.2 351.0,141.0 351.1,133.7 351.2,130.1 351.3,128.0 351.4,127.0 351.5,126.7 351.6,127.3 351.7,128.9 351.8,132.0 351.9,138.9 352.0,154.2 352.1,134.1 352.2,127.4 352.3,123.3 352.4,120.4 352.5,118.1 352.6,116.4 352.7,115.1 352.8,114.1 352.9,113.4 353.0,112.9 353.1,112.7 353.2,112.8 353.3,113.1 353.4,113.7 353.5,114.6 353.6,115.8 353.7,117.6 353.8,120.0 353.9,123.5 354.0,129.3 354.1,145.3 354.2,134.6 354.3,126.3 354.4,122.1 354.5,119.4 354.6,117.5 354.7,116.2 354.8,115.4 354.9,114.8 355.0,114.6 355.1,114.6 355.2,114.8 355.3,115.3 355.4,116.1 355.5,117.1 355.6,118.5 355.7,120.2 355.8,122.3 355.9,125.0 356.0,128.7 356.1,134.0 356.3,143.8 356.4,151.8 356.5,139.0 356.6,134.6 356.7,132.6 356.8,131.7 356.9,131.7 357.0,132.5 357.1,134.2 357.2,137.1 357.3,142.2 357.4,154.7 357.5,150.5 357.6,141.1 357.7,136.9 357.8,134.4 357.9,133.1 358.0,132.7 358.1,133.0 358.2,134.3 358.3,136.9 358.4,142.4 358.5,166.0 358.6,142.5 358.7,134.6 358.8,130.0 358.9,126.8 359.0,124.4 359.1,122.5 359.2,121.1 359.3,120.0 359.4,119.2 359.5,118.7 359.6,118.4 359.7,118.4 359.8,118.6 359.9,119.1 360.0,119.9 360.1,121.1 360.2,122.7 360.3,124.9 360.4,128.0 360.5,133.0 360.6,143.9 360.7,144.0 360.8,133.2 360.9,128.4 361.0,125.4 361.1,123.4 361.2,121.9 361.3,120.9 361.4,120.3 361.5,120.0 361.6,119.9 361.7,120.1 361.8,120.5 361.9,121.2 362.0,122.1 362.1,123.4 362.2,125.0 362.3,127.0 362.4,129.5 362.5,132.9 362.6,137.6 362.7,145.6 362.8,166.0 362.9,145.9 363.0,140.6 363.1,138.1 363.2,136.9 363.3,136.7 363.4,137.3 363.5,138.8 363.6,141.3 363.7,145.6 363.8,154.7 363.9,161.1 364.0,147.8 364.1,142.7 364.2,140.0 364.3,138.4 364.4,137.7 364.5,137.8 364.6,138.8 364.7,141.1 364.8,145.5 364.9,158.6 365.0,150.7 365.1,141.0 365.2,135.8 365.3,132.4 365.4,129.8 365.5,127.8 365.6,126.3 365.7,125.1 365.8,124.2 365.9,123.6 366.0,123.3 366.1,123.2 366.2,123.3 366.3,123.7 366.4,124.4 366.5,125.5 366.6,126.9 366.7,128.9 366.8,131.8 366.9,136.1 367.0,144.6 367.1,155.5 367.2,139.6 367.3,134.0 367.4,130.6 367.5,128.4 367.6,126.8 367.7,125.7 367.8,125.0 367.9,124.6 368.0,124.4 368.1,124.5 368.2,124.9 368.3,125.5 368.4,126.4 368.5,127.5 368.6,129.0 368.7,130.9 368.8,133.3 368.9,136.4 369.0,140.7 369.1,147.5 369.2,166.0 369.3,152.7 369.4,145.9 369.5,142.9 369.6,141.5 369.7,141.1 369.8,141.5 369.9,142.7 370.0,144.8 370.1,148.5 370.2,155.7 370.3,166.0 370.4,154.2 370.5,148.1 370.6,144.8 370.7,143.0 370.8,142.1 370.9,142.0 371.0,142.8 371.1,144.6 371.2,148.4 371.3,157.5 371.4,159.5 371.5,146.9 371.6,141.1 371.7,137.3 371.8,134.5 371.9,132.4 372.0,130.8 372.1,129.5 372.2,128.5 372.3,127.8 372.4,127.4 372.5,127.3 372.6,127.3 372.7,127.7 372.8,128.3 372.9,129.2 373.0,130.6 373.1,132.4 373.2,135.0 373.3,138.9 373.4,145.8 373.5,166.0 373.6,145.8 373.7,139.1 373.8,135.3 373.9,132.9 374.0,131.1 374.1,129.9 374.2,129.1 374.3,128.6 374.4,128.4 374.5,128.4 374.6,128.7 374.7,129.2 374.8,130.0 374.9,131.1 375.0,132.5 375.1,134.2 375.2,136.5 375.3,139.4 375.4,143.3 375.5,149.2 375.6,162.1 375.7,159.8 375.8,150.9 375.9,147.3 376.0,145.5 376.1,144.9 376.2,145.1 376.3,146.0 376.4,147.9 376.5,151.1 376.6,156.9 376.7,166.0 376.8,160.7 376.9,153.1 377.0,149.3 377.1,147.2 377.2,146.0 377.3,145.7 377.4,146.3 377.5,147.8 377.6,151.0 377.7,158.0 377.8,166.0 377.9,152.5 378.0,145.9 378.1,141.8 378.2,138.8 378.3,136.5 378.4,134.8 378.5,133.4 378.6,132.4 378.7,131.6 378.8,131.1 378.9,130.9 379.0,130.9 379.1,131.2 379.2,131.7 379.3,132.6 379.4,133.8 379.5,135.5 379.6,137.9 379.7,141.3 379.8,147.1 379.9,163.6 380.0,152.0 380.1,143.8 380.2,139.6 380.3,136.9 380.4,135.0 380.5,133.7 380.6,132.7 380.7,132.2 380.8,131.9 380.9,131.8 381.0,132.1 381.1,132.5 381.2,133.2 381.3,134.2 381.4,135.5 381.5,137.2 381.6,139.3 381.7,142.0 381.8,145.6 381.9,150.8 382.0,160.6 382.1,166.0 382.2,155.7 382.3,151.4 382.4,149.2 382.5,148.3 382.6,148.3 382.7,149.0 382.8,150.7 382.9,153.4 383.0,158.3 383.1,166.0 383.2,166.0 383.3,158.0 383.4,153.5 383.5,151.0 383.6,149.6 383.7,149.1 383.8,149.4 383.9,150.7 384.0,153.4 384.1,159.0 384.2,166.0 384.3,158.2 384.4,150.5 384.5,145.9 384.6,142.7 384.7,140.3 384.8,138.4 384.9,137.0 385.0,135.8 385.1,135.0 385.2,134.5 385.3,134.2 385.4,134.1 385.5,134.3 385.6,134.8 385.7,135.5 385.8,136.7 385.9,138.2 386.0,140.4 386.1,143.5 386.2,148.6 386.3,159.7 386.4,159.0 386.5,148.4 386.6,143.6 386.7,140.6 386.8,138.5 386.9,137.1 387.0,136.1 387.1,135.4 387.2,135.0 387.3,134.9 387.4,135.1 387.5,135.5 387.6,136.1 387.7,137.1 387.8,138.3 387.9,139.8 388.0,141.8 388.1,144.3 388.2,147.6 388.3,152.3 388.4,160.3 388.5,166.0 388.6,160.6 388.7,155.2 388.8,152.7 388.9,151.5 389.0,151.2 389.1,151.8 389.2,153.1 389.3,155.5 389.4,159.6 389.5,166.0 389.6,166.0 389.7,162.9 389.8,157.6 389.9,154.7 390.0,153.0 390.1,152.3 390.2,152.4 390.3,153.4 390.4,155.6 390.5,160.3 390.6,166.0 390.7,164.1 390.8,154.8 390.9,149.8 391.0,146.3 391.1,143.8 391.2,141.8 391.3,140.2 391.4,139.0 391.5,138.1 391.6,137.5 391.7,137.1 391.8,137.0 391.9,137.2 392.0,137.5 392.1,138.2 392.2,139.3 392.3,140.7 392.4,142.7 392.5,145.6 392.6,150.0 392.7,158.6 392.8,166.0 392.9,153.0 393.0,147.4 393.1,144.1 393.2,141.8 393.3,140.2 393.4,139.1 393.5,138.4 393.6,137.9 393.7,137.8 393.8,137.8 393.9,138.2 394.0,138.8 394.1,139.6 394.2,140.7 394.3,142.2 394.4,144.0 394.5,146.4 394.6,149.5 394.7,153.7 394.8,160.5 394.9,166.0 395.0,165.8 395.1,159.0 395.2,155.9 395.3,154.4 395.4,154.0 395.5,154.3 395.6,155.4 395.7,157.5 395.8,161.0 395.9,166.0 396.0,166.0 396.1,166.0 396.2,161.6 396.3,158.2 396.4,156.2 396.5,155.2 396.6,155.1 396.7,155.9 396.8,157.8 396.9,161.7 397.0,166.0 397.1,166.0 397.2,159.1 397.3,153.5 397.4,149.8 397.5,147.0 397.6,144.9 397.7,143.2 397.8,142.0 397.9,141.0 398.0,140.3 398.1,139.9 398.2,139.7 398.3,139.8 398.4,140.1 398.5,140.7 398.6,141.6 398.7,143.0 398.8,144.8 398.9,147.4 399.0,151.3 399.1,158.4 399.2,166.0 399.3,157.6 399.4,151.1 399.5,147.4 399.6,144.9 399.7,143.2 399.8,141.9 399.9,141.1 400.0,140.6 400.1,140.4 400.2,140.4 400.3,140.6 400.4,141.2 400.5,141.9 400.6,143.0 400.7,144.4 400.8,146.1 400.9,148.3 401.0,151.2 401.1,155.0 401.2,160.9 401.3,166.0 401.4,166.0 401.5,162.7 401.6,159.0 401.7,157.2 401.8,156.5 401.9,156.6 402.0,157.5 402.1,159.3 402.2,162.3 402.3,166.0 402.4,166.0 402.5,166.0 402.6,165.7 402.7,161.6 402.8,159.3 402.9,158.1 403.0,157.8 403.1,158.3 403.2,159.9 403.3,163.2 403.4,166.0 403.5,166.0 403.6,163.3 403.7,157.0 403.8,153.0 403.9,150.1 404.0,147.8 404.1,146.1 404.2,144.7 404.3,143.7 404.4,142.9 404.5,142.4 404.6,142.2 404.7,142.2 404.8,142.5 404.9,143.0 405.0,143.8 405.1,145.1 405.2,146.8 405.3,149.2 405.4,152.7 405.5,158.6 405.6,166.0 405.7,162.5 405.8,154.6 405.9,150.5 406.0,147.8 406.1,145.9 406.2,144.6 406.3,143.7 406.4,143.1 406.5,142.8 406.6,142.7 406.7,142.9 406.8,143.4 406.9,144.1 407.0,145.1 407.1,146.3 407.2,148.0 407.3,150.0 407.4,152.7 407.5,156.3 407.6,161.5 407.7,166.0 407.8,166.0 407.9,166.0 408.0,162.1 408.1,159.9 408.2,158.9 408.3,158.8 408.4,159.5 408.5,161.0 408.6,163.5 408.7,166.0 408.8,166.0 408.9,166.0 409.0,166.0 409.1,165.1 409.2,162.4 409.3,160.9 409.4,160.3 409.5,160.6 409.6,162.0 409.7,164.8 409.8,166.0 409.9,166.0 410.0,166.0 410.1,160.4 410.2,156.1 410.3,153.0 410.4,150.6 410.5,148.7 410.6,147.3 410.7,146.2 410.8,145.4 410.9,144.8 411.0,144.5 411.1,144.5 411.2,144.7 411.3,145.1 411.4,145.9 411.5,147.0 411.6,148.6 411.7,150.8 411.8,154.0 411.9,159.2 412.0,166.0 412.1,166.0 412.2,158.2 412.3,153.5 412.4,150.6 412.5,148.5 412.6,147.1 412.7,146.1 412.8,145.4 412.9,145.0 413.0,144.9 413.1,145.1 413.2,145.4 413.3,146.1 413.4,147.0 413.5,148.2 413.6,149.7 413.7,151.7 413.8,154.1 413.9,157.4 414.0,162.1 414.1,166.0 414.2,166.0 414.3,166.0 414.4,165.1 414.5,162.5 414.6,161.2 414.7,160.9 414.8,161.3 414.9,162.6 415.0,164.8 415.1,166.0 415.2,166.0 415.3,166.0 415.4,166.0 415.5,166.0 415.6,165.4 415.7,163.7 415.8,162.9 415.9,163.0 416.0,164.0 416.1,166.0 416.2,166.0 416.3,166.0 416.4,166.0 416.5,163.7 416.6,159.0 416.7,155.7 416.8,153.2 416.9,151.3 417.0,149.8 417.1,148.6 417.2,147.7 417.3,147.1 417.4,146.7 417.5,146.6 417.6,146.7 417.7,147.1 417.8,147.8 417.9,148.9 418.0,150.3 418.1,152.4 418.2,155.3 418.3,159.9 418.4,166.0 418.5,166.0 418.6,161.8 418.7,156.5 418.8,153.2 418.9,151.0 419.0,149.4 419.1,148.3 419.2,147.6 419.3,147.1 419.4,147.0 419.5,147.1 419.6,147.4 419.7,147.9 419.8,148.8 419.9,149.9 420.0,151.3 420.1,153.1 420.2,155.5 420.3,158.5 420.4,162.7 420.5,166.0 420.6,166.0 420.7,166.0 420.8,166.0 420.9,165.0 421.0,163.4 421.1,162.9 421.2,163.1 421.3,164.1 421.4,165.9 421.5,166.0 421.6,166.0 421.7,166.0 421.8,166.0 421.9,166.0 422.0,166.0 422.1,166.0 422.2,165.4 422.3,165.3 422.4,166.0 422.5,166.0 422.6,166.0 422.7,166.0 422.8,166.0 422.9,166.0 423.0,161.9 423.1,158.4 423.2,155.7 423.3,153.7 423.4,152.1 423.5,150.8 423.6,149.9 423.7,149.2 423.8,148.8 423.9,148.6 424.0,148.7 424.1,149.0 424.2,149.7 424.3,150.6 424.4,152.0 424.6,153.9 424.7,156.5 424.8,160.6 424.9,166.0 425.0,166.0 425.1,165.5 425.2,159.4 425.3,155.8 425.4,153.4 425.5,151.7 425.6,150.5 425.7,149.7 425.8,149.2 425.9,148.9 426.0,148.9 426.1,149.2 426.2,149.7 426.3,150.5 426.4,151.5 426.5,152.8 426.6,154.6 426.7,156.7 426.8,159.5 426.9,163.3 427.0,166.0 427.1,166.0 427.2,166.0 427.3,166.0 427.4,166.0 427.5,165.6 427.6,164.8 427.7,164.8 427.8,165.6 427.9,166.0 428.0,166.0 428.1,166.0 428.2,166.0 428.3,166.0 428.4,166.0 428.5,166.0 428.6,166.0 428.7,166.0 428.8,166.0 428.9,166.0 429.0,166.0 429.1,166.0 429.2,166.0 429.3,166.0 429.4,166.0 429.5,164.6 429.6,160.9 429.7,158.1 429.8,156.0 429.9,154.3 430.0,153.0 430.1,152.0 430.2,151.3 430.3,150.8 430.4,150.6 430.5,150.6 430.6,150.9 430.7,151.4 430.8,152.3 430.9,153.6 431.0,155.3 431.1,157.8 431.2,161.5 431.3,166.0 431.4,166.0 431.5,166.0 431.6,162.2 431.7,158.3 431.8,155.7 431.9,153.9 432.0,152.6 432.1,151.7 432.2,151.1 432.3,150.8 432.4,150.7 432.5,150.9 432.6,151.4 432.7,152.1 432.8,153.0 432.9,154.3 433.0,155.9 433.1,157.9 433.2,160.5 433.3,164.0 433.4,166.0 433.5,166.0 433.6,166.0 433.7,166.0 433.8,166.0 433.9,166.0 434.0,166.0 434.1,166.0 434.2,166.0 434.3,166.0 434.4,166.0 434.5,166.0 434.6,166.0 434.7,166.0 434.8,166.0 434.9,166.0 435.0,166.0 435.1,166.0 435.2,166.0 435.3,166.0 435.4,166.0 435.5,166.0 435.6,166.0 435.7,166.0 435.8,166.0 435.9,166.0 436.0,163.3 436.1,160.4 436.2,158.2 436.3,156.4 436.4,155.1 436.5,154.0 436.6,153.2 436.7,152.7 436.8,152.4 436.9,152.4 437.0,152.6 437.1,153.1 437.2,153.9 437.3,155.1 437.4,156.7 437.5,159.0 437.6,162.4 437.7,166.0 437.8,166.0 437.9,166.0 438.0,165.1 438.1,160.7 438.2,157.9 438.3,155.9 438.4,154.5 438.5,153.6 438.6,152.9 438.7,152.5 438.8,152.4 438.9,152.6 439.0,152.9 439.1,153.6 439.2,154.5 439.3,155.6 439.4,157.1 439.5,159.0 439.6,161.5 439.7,164.6 439.8,166.0 439.9,166.0 440.0,166.0 440.1,166.0 440.2,166.0 440.3,166.0 440.4,166.0 440.5,166.0 440.6,166.0 440.7,166.0 440.8,166.0 440.9,166.0 441.0,166.0 441.1,166.0 441.2,166.0 441.3,166.0 441.4,166.0 441.5,166.0 441.6,166.0 441.7,166.0 441.8,166.0 441.9,166.0 442.0,166.0 442.1,166.0 442.2,166.0 442.3,166.0 442.4,165.5 442.5,162.6 442.6,160.3 442.7,158.5 442.8,157.1 442.9,156.0 443.0,155.1 443.1,154.6 443.2,154.2 443.3,154.2 443.4,154.3 443.5,154.8 443.6,155.5 443.7,156.6 443.8,158.1 443.9,160.3 444.0,163.4 444.1,166.0 444.2,166.0 444.3,166.0 444.4,166.0 444.5,163.1 444.6,160.1 444.7,158.0 444.8,156.4 444.9,155.4 445.0,154.7 445.1,154.2 445.2,154.1 445.3,154.1 445.4,154.5 445.5,155.0 445.6,155.8 445.7,156.9 445.8,158.3 445.9,160.1 446.0,162.4 446.1,165.3 446.2,166.0 446.3,166.0 446.4,166.0 446.5,166.0 446.6,166.0 446.7,166.0 446.8,166.0 446.9,166.0 447.0,166.0 447.1,166.0 447.2,166.0 447.3,166.0 447.4,166.0 447.5,166.0 447.6,166.0 447.7,166.0 447.8,166.0 447.9,166.0 448.0,166.0 448.1,166.0 448.2,166.0 448.3,166.0 448.4,166.0 448.5,166.0 448.6,166.0 448.7,166.0 448.8,166.0 448.9,164.7 449.0,162.3 449.1,160.5 449.2,159.0 449.3,157.8 449.4,157.0 449.5,156.4 449.6,156.0 449.7,155.9 449.8,156.0 449.9,156.4 450.0,157.1 450.1,158.1 450.2,159.5 450.3,161.5 450.4,164.4 450.5,166.0 450.6,166.0 450.7,166.0 450.8,166.0 450.9,165.4 451.0,162.1 451.1,159.9 451.2,158.3 451.3,157.1 451.4,156.4 451.5,155.9 451.6,155.6 451.7,155.7 451.8,155.9 451.9,156.4 452.0,157.1 452.1,158.2 452.2,159.5 452.3,161.1 452.4,163.2 452.5,165.9 452.6,166.0 452.7,166.0 452.8,166.0 452.9,166.0 453.0,166.0 453.1,166.0 453.2,166.0 453.3,166.0 453.4,166.0 453.5,166.0 453.6,166.0 453.7,166.0 453.8,166.0 453.9,166.0 454.0,166.0 454.1,166.0 454.2,166.0 454.3,166.0 454.4,166.0 454.5,166.0 454.6,166.0 454.7,166.0 454.8,166.0 454.9,166.0 455.0,166.0 455.1,166.0 455.2,166.0 455.3,166.0 455.4,164.2 455.5,162.3 455.6,160.8 455.7,159.7 455.8,158.8 455.9,158.1 456.0,157.7 456.1,157.5 456.2,157.6 456.3,158.0 456.4,158.6 456.5,159.5 456.6,160.9 456.7,162.8 456.8,165.5 456.9,166.0 457.0,166.0 457.1,166.0 457.2,166.0 457.3,166.0 457.4,164.1 457.5,161.8 457.6,160.1 457.7,158.8 457.8,158.0 457.9,157.4 458.0,157.2 458.1,157.1 458.2,157.3 458.3,157.7 458.4,158.4 458.5,159.4 458.6,160.6 458.7,162.1 458.8,164.1 458.9,166.0 459.0,166.0 459.1,166.0 459.2,166.0 459.3,166.0 459.4,166.0 459.5,166.0 459.6,166.0 459.7,166.0 459.8,166.0 459.9,166.0 460.0,166.0 460.1,166.0 460.2,166.0 460.3,166.0 460.4,166.0 460.5,166.0 460.6,166.0 460.7,166.0 460.8,166.0 460.9,166.0 461.0,166.0 461.1,166.0 461.2,166.0 461.3,166.0 461.4,166.0 461.5,166.0 461.6,166.0 461.7,166.0 461.8,166.0 461.9,164.1 462.0,162.6 462.1,161.4 462.2,160.5 462.3,159.8 462.4,159.4 462.5,159.2 462.6,159.3 462.7,159.6 462.8,160.1 462.9,161.0 463.0,162.3 463.1,164.1 463.2,166.0 463.3,166.0 463.4,166.0 463.5,166.0 463.6,166.0 463.7,166.0 463.8,166.0 463.9,163.6 464.0,161.8 464.1,160.5 464.2,159.6 464.3,159.0 464.4,158.6 464.5,158.5 464.6,158.7 464.7,159.1 464.8,159.7 464.9,160.5 465.0,161.6 465.1,163.1 465.2,164.9 465.3,166.0 465.4,166.0 465.5,166.0 465.6,166.0 465.7,166.0 465.8,166.0 465.9,166.0 466.0,166.0 466.1,166.0 466.2,166.0 466.3,166.0 466.4,166.0 466.5,166.0 466.6,166.0 466.7,166.0 466.8,166.0 466.9,166.0 467.0,166.0 467.1,166.0 467.2,166.0 467.3,166.0 467.4,166.0 467.5,166.0 467.6,166.0 467.7,166.0 467.8,166.0 467.9,166.0 468.0,166.0 468.1,166.0 468.2,166.0 468.3,165.8 468.4,164.3 468.5,163.1 468.6,162.2 468.7,161.5 468.8,161.1 468.9,160.9 469.0,160.9 469.1,161.2 469.2,161.7 469.3,162.6 469.4,163.8 469.5,165.5 469.6,166.0 469.7,166.0 469.8,166.0 469.9,166.0 470.0,166.0 470.1,166.0 470.2,166.0 470.3,165.3 470.4,163.4 470.5,162.1 470.6,161.1 470.7,160.5 470.8,160.1 470.9,159.9 471.0,160.0 471.1,160.3 471.2,160.9 471.3,161.6 471.4,162.7 471.5,164.0 471.6,165.7 471.7,166.0 471.8,166.0 471.9,166.0 472.0,166.0 472.1,166.0 472.2,166.0 472.3,166.0 472.4,166.0 472.5,166.0 472.6,166.0 472.7,166.0 472.8,166.0 472.9,166.0 473.0,166.0 473.1,166.0 473.2,166.0 473.3,166.0 473.4,166.0 473.5,166.0 473.6,166.0 473.7,166.0 473.8,166.0 473.9,166.0 474.0,166.0 474.1,166.0 474.2,166.0 474.3,166.0 474.4,166.0 474.5,166.0 474.6,166.0 474.7,166.0 474.8,166.0 474.9,164.8 475.0,163.9 475.1,163.2 475.2,162.8 475.3,162.5 475.4,162.5 475.5,162.8 475.6,163.3 475.7,164.1 475.8,165.3 475.9,166.0 476.0,166.0 476.1,166.0 476.2,166.0 476.3,166.0 476.4,166.0 476.5,166.0 476.6,166.0 476.7,166.0 476.8,165.0 476.9,163.6 477.0,162.6 477.1,161.9 477.2,161.5 477.3,161.3 477.4,161.3 477.5,161.6 477.6,162.0 477.7,162.8 477.8,163.7 477.9,164.9 478.0,166.0 478.1,166.0 478.2,166.0 478.3,166.0 478.4,166.0 478.5,166.0 478.6,166.0 478.7,166.0 478.8,166.0 478.9,166.0 479.0,166.0 479.1,166.0 479.2,166.0 479.3,166.0 479.4,166.0 479.5,166.0 479.6,166.0 479.7,166.0 479.8,166.0 479.9,166.0 480.0,166.0 480.1,166.0 480.2,166.0 480.3,166.0 480.4,166.0 480.5,166.0 480.6,166.0 480.7,166.0 480.8,166.0 480.9,166.0 481.0,166.0 481.1,166.0 481.2,166.0 481.3,166.0 481.4,165.5 481.5,164.9 481.6,164.4 481.7,164.2 481.8,164.2 481.9,164.5 482.0,165.0 482.1,165.8 482.2,166.0 482.3,166.0 482.4,166.0 482.5,166.0 482.6,166.0 482.7,166.0 482.8,166.0 482.9,166.0 483.0,166.0 483.1,166.0 483.2,166.0 483.3,165.1 483.4,164.1 483.5,163.3 483.6,162.8 483.7,162.6 483.8,162.6 483.9,162.8 484.0,163.2 484.1,163.8 484.2,164.7 484.3,165.8 484.4,166.0 484.5,166.0 484.6,166.0 484.7,166.0 484.8,166.0 484.9,166.0 485.0,166.0 485.1,166.0 485.2,166.0 485.3,166.0 485.4,166.0 485.5,166.0 485.6,166.0 485.7,166.0 485.8,166.0 485.9,166.0 486.0,166.0 486.1,166.0 486.2,166.0 486.3,166.0 486.4,166.0 486.5,166.0 486.6,166.0 486.7,166.0 486.8,166.0 486.9,166.0 487.0,166.0 487.1,166.0 487.2,166.0 487.3,166.0 487.4,166.0 487.5,166.0 487.6,166.0 487.7,166.0 487.8,166.0 487.9,166.0 488.0,166.0 488.1,165.9 488.2,166.0 488.3,166.0 488.4,166.0 488.5,166.0 488.6,166.0 488.7,166.0 488.8,166.0 488.9,166.0 489.0,166.0 489.1,166.0 489.2,166.0 489.3,166.0 489.4,166.0 489.5,166.0 489.6,166.0 489.7,166.0 489.8,165.5 489.9,164.7 490.0,164.2 490.1,163.9 490.2,163.9 490.3,164.0 490.4,164.4 490.5,164.9 490.6,165.7 490.7,166.0 490.8,166.0 490.9,166.0 491.0,166.0 491.1,166.0 491.2,166.0 491.3,166.0 491.4,166.0 491.5,166.0 491.6,166.0 491.7,166.0 491.8,166.0 491.9,166.0 492.0,166.0 492.1,166.0 492.2,166.0 492.3,166.0 492.4,166.0 492.5,166.0 492.6,166.0 492.7,166.0 492.9,166.0 493.0,166.0 493.1,166.0 493.2,166.0 493.3,166.0 493.4,166.0 493.5,166.0 493.6,166.0 493.7,166.0 493.8,166.0 493.9,166.0 494.0,166.0 494.1,166.0 494.2,166.0 494.3,166.0 494.4,166.0 494.5,166.0 494.6,166.0 494.7,166.0 494.8,166.0 494.9,166.0 495.0,166.0 495.1,166.0 495.2,166.0 495.3,166.0 495.4,166.0 495.5,166.0 495.6,166.0 495.7,166.0 495.8,166.0 495.9,166.0 496.0,166.0 496.1,166.0 496.2,166.0 496.3,166.0 496.4,166.0 496.5,165.5 496.6,165.2 496.7,165.1 496.8,165.2 496.9,165.5 497.0,166.0 497.1,166.0 497.2,166.0 497.3,166.0 497.4,166.0 497.5,166.0 497.6,166.0 497.7,166.0 497.8,166.0 497.9,166.0 498.0,166.0 498.1,166.0 498.2,166.0 498.3,166.0 498.4,166.0 498.5,166.0 498.6,166.0 498.7,166.0 498.8,166.0 498.9,166.0 499.0,166.0 499.1,166.0 499.2,166.0 499.3,166.0 499.4,166.0 499.5,166.0 499.6,166.0 499.7,166.0 499.8,166.0 499.9,166.0 500.0,166.0 500.1,166.0 500.2,166.0 500.3,166.0 500.4,166.0 500.5,166.0 500.6,166.0 500.7,166.0 500.8,166.0 500.9,166.0 501.0,166.0 501.1,166.0 501.2,166.0 501.3,166.0 501.4,166.0 501.5,166.0 501.6,166.0 501.7,166.0 501.8,166.0 501.9,166.0 502.0,166.0 502.1,166.0 502.2,166.0 502.3,166.0 502.4,166.0 502.5,166.0 502.6,166.0 502.7,166.0 502.8,166.0 502.9,166.0 503.0,166.0 503.1,166.0 503.2,166.0 503.3,166.0 503.4,166.0 503.5,166.0 503.6,166.0 503.7,166.0 503.8,166.0 503.9,166.0 504.0,166.0 504.1,166.0 504.2,166.0 504.3,166.0 504.4,166.0 504.5,166.0 504.6,166.0 504.7,166.0 504.8,166.0 504.9,166.0 505.0,166.0 505.1,166.0 505.2,166.0 505.3,166.0 505.4,166.0 505.5,166.0 505.6,166.0 505.7,166.0 505.8,166.0 505.9,166.0 506.0,166.0 506.1,166.0 506.2,166.0 506.3,166.0 506.4,166.0 506.5,166.0 506.6,166.0 506.7,166.0 506.8,166.0 506.9,166.0 507.0,166.0 507.1,166.0 507.2,166.0 507.3,166.0 507.4,166.0 507.5,166.0 507.6,166.0 507.7,166.0 507.8,166.0 507.9,166.0 508.0,166.0 508.1,166.0 508.2,166.0 508.3,166.0 508.4,166.0 508.5,166.0 508.6,166.0 508.7,166.0 508.8,166.0 508.9,166.0 509.0,166.0 509.1,166.0 509.2,166.0 509.3,166.0 509.4,166.0 509.5,166.0 509.6,166.0 509.7,166.0 509.8,166.0 509.9,166.0 510.0,166.0 510.1,166.0 510.2,166.0 510.3,166.0 510.4,166.0 510.5,166.0 510.6,166.0 510.7,166.0 510.8,166.0 510.9,166.0 511.0,166.0 511.1,166.0 511.2,166.0 511.3,166.0 511.4,166.0 511.5,166.0 511.6,166.0 511.7,166.0 511.8,166.0 511.9,166.0 512.0,166.0 512.1,166.0 512.2,166.0 512.3,166.0 512.4,166.0 512.5,166.0 512.6,166.0 512.7,166.0 512.8,166.0 512.9,166.0 513.0,166.0 513.1,166.0 513.2,166.0 513.3,166.0 513.4,166.0 513.5,166.0 513.6,166.0 513.7,166.0 513.8,166.0 513.9,166.0 514.0,166.0 514.1,166.0 514.2,166.0 514.3,166.0 514.4,166.0 514.5,166.0 514.6,166.0 514.7,166.0 514.8,166.0 514.9,166.0 515.0,166.0 515.1,166.0 515.2,166.0 515.3,166.0 515.4,166.0 515.5,166.0 515.6,166.0 515.7,166.0 515.8,166.0 515.9,166.0 516.0,166.0 516.1,166.0 516.2,166.0 516.3,166.0 516.4,166.0 516.5,166.0 516.6,166.0 516.7,166.0 516.8,166.0 516.9,166.0 517.0,166.0 517.1,166.0 517.2,166.0 517.3,166.0 517.4,166.0 517.5,166.0 517.6,166.0 517.7,166.0 517.8,166.0 517.9,166.0 518.0,166.0 518.1,166.0 518.2,166.0 518.3,166.0 518.4,166.0 518.5,166.0 518.6,166.0 518.7,166.0 518.8,166.0 518.9,166.0 519.0,166.0 519.1,166.0 519.2,166.0 519.3,166.0 519.4,166.0 519.5,166.0 519.6,166.0 519.7,166.0 519.8,166.0 519.9,166.0 520.0,166.0 520.1,166.0 520.2,166.0 520.3,166.0 520.4,166.0 520.5,166.0 520.6,166.0 520.7,166.0 520.8,166.0 520.9,166.0 521.0,166.0 521.1,166.0 521.2,166.0 521.3,166.0 521.4,166.0 521.5,166.0 521.6,166.0 521.7,166.0 521.8,166.0 521.9,166.0 522.0,166.0 522.1,166.0 522.2,166.0 522.3,166.0 522.4,166.0 522.5,166.0 522.6,166.0 522.7,166.0 522.8,166.0 522.9,166.0 523.0,166.0 523.1,166.0 523.2,166.0 523.3,166.0 523.4,166.0 523.5,166.0 523.6,166.0 523.7,166.0 523.8,166.0 523.9,166.0 524.0,166.0 524.1,166.0 524.2,166.0 524.3,166.0 524.4,166.0 524.5,166.0 524.6,166.0 524.7,166.0 524.8,166.0 524.9,166.0 525.0,166.0 525.1,166.0 525.2,166.0 525.3,166.0 525.4,166.0 525.5,166.0 525.6,166.0 525.7,166.0 525.8,166.0 525.9,166.0 526.0,166.0 526.1,166.0 526.2,166.0 526.3,166.0 526.4,166.0 526.5,166.0 526.6,166.0 526.7,166.0 526.8,166.0 526.9,166.0 527.0,166.0" fill="none" stroke="#4a90d9" stroke-width="1.2" stroke-linejoin="round"/>
  <text x="154.5" y="190" text-anchor="middle" font-size="8" fill="#6b7280">n / N</text>
  <text x="424.5" y="190" text-anchor="middle" font-size="8" fill="#6b7280">Normalized frequency (× Fₛ)</text>
</svg>
