<svg xmlns="http://www.w3.org/2000/svg" viewBox="0 0 560 190" width="560" height="190" style="font-family:system-ui,-apple-system,sans-serif">
  <rect width="560" height="190" fill="#fafafa" rx="6"/>
  <line x1="52" y1="152.0" x2="257" y2="152.0" stroke="#e5e7eb" stroke-width="0.5"/>
  <text x="48" y="155.0" text-anchor="end" font-size="7.5" fill="#6b7280">0</text>
  <line x1="52" y1="82.0" x2="257" y2="82.0" stroke="#e5e7eb" stroke-width="0.5"/>
  <text x="48" y="85.0" text-anchor="end" font-size="7.5" fill="#6b7280">0.5</text>
  <line x1="52" y1="12.0" x2="257" y2="12.0" stroke="#e5e7eb" stroke-width="0.5"/>
  <text x="48" y="15.0" text-anchor="end" font-size="7.5" fill="#6b7280">1</text>
  <line x1="52.0" y1="12" x2="52.0" y2="152" stroke="#e5e7eb" stroke-width="0.5"/>
  <text x="52.0" y="164" text-anchor="middle" font-size="7.5" fill="#6b7280">0</text>
  <line x1="154.5" y1="12" x2="154.5" y2="152" stroke="#e5e7eb" stroke-width="0.5"/>
  <text x="154.5" y="164" text-anchor="middle" font-size="7.5" fill="#6b7280">0.5</text>
  <line x1="257.0" y1="12" x2="257.0" y2="152" stroke="#e5e7eb" stroke-width="0.5"/>
  <text x="257.0" y="164" text-anchor="middle" font-size="7.5" fill="#6b7280">1</text>
  <line x1="52" y1="12" x2="52" y2="152" stroke="#d1d5db" stroke-width="0.75"/>
  <line x1="52" y1="152" x2="257" y2="152" stroke="#d1d5db" stroke-width="0.75"/>
  <path d="M52.0,152.0 52.0,152.0 52.8,151.9 53.6,151.7 54.4,151.2 55.2,150.6 56.0,149.9 56.8,149.0 57.6,147.9 58.4,146.6 59.2,145.2 60.0,143.7 60.8,142.0 61.6,140.1 62.5,138.1 63.3,136.0 64.1,133.7 64.9,131.3 65.7,128.8 66.5,126.2 67.3,123.5 68.1,120.7 68.9,117.7 69.7,114.7 70.5,111.6 71.3,108.5 72.1,105.3 72.9,102.0 73.7,98.7 74.5,95.3 75.3,91.9 76.1,88.5 76.9,85.0 77.7,81.6 78.5,78.1 79.3,74.7 80.1,71.3 80.9,67.9 81.7,64.5 82.5,61.2 83.4,57.9 84.2,54.7 85.0,51.6 85.8,48.5 86.6,45.5 87.4,42.6 88.2,39.8 89.0,37.1 89.8,34.5 90.6,32.0 91.4,29.7 92.2,27.5 93.0,25.4 93.8,23.4 94.6,21.6 95.4,19.9 96.2,18.4 97.0,17.0 97.8,15.8 98.6,14.8 99.4,13.9 100.2,13.2 101.0,12.6 101.8,12.3 102.6,12.0 103.5,12.0 104.3,12.0 105.1,12.0 105.9,12.0 106.7,12.0 107.5,12.0 108.3,12.0 109.1,12.0 109.9,12.0 110.7,12.0 111.5,12.0 112.3,12.0 113.1,12.0 113.9,12.0 114.7,12.0 115.5,12.0 116.3,12.0 117.1,12.0 117.9,12.0 118.7,12.0 119.5,12.0 120.3,12.0 121.1,12.0 121.9,12.0 122.7,12.0 123.5,12.0 124.4,12.0 125.2,12.0 126.0,12.0 126.8,12.0 127.6,12.0 128.4,12.0 129.2,12.0 130.0,12.0 130.8,12.0 131.6,12.0 132.4,12.0 133.2,12.0 134.0,12.0 134.8,12.0 135.6,12.0 136.4,12.0 137.2,12.0 138.0,12.0 138.8,12.0 139.6,12.0 140.4,12.0 141.2,12.0 142.0,12.0 142.8,12.0 143.6,12.0 144.5,12.0 145.3,12.0 146.1,12.0 146.9,12.0 147.7,12.0 148.5,12.0 149.3,12.0 150.1,12.0 150.9,12.0 151.7,12.0 152.5,12.0 153.3,12.0 154.1,12.0 154.9,12.0 155.7,12.0 156.5,12.0 157.3,12.0 158.1,12.0 158.9,12.0 159.7,12.0 160.5,12.0 161.3,12.0 162.1,12.0 162.9,12.0 163.7,12.0 164.5,12.0 165.4,12.0 166.2,12.0 167.0,12.0 167.8,12.0 168.6,12.0 169.4,12.0 170.2,12.0 171.0,12.0 171.8,12.0 172.6,12.0 173.4,12.0 174.2,12.0 175.0,12.0 175.8,12.0 176.6,12.0 177.4,12.0 178.2,12.0 179.0,12.0 179.8,12.0 180.6,12.0 181.4,12.0 182.2,12.0 183.0,12.0 183.8,12.0 184.6,12.0 185.5,12.0 186.3,12.0 187.1,12.0 187.9,12.0 188.7,12.0 189.5,12.0 190.3,12.0 191.1,12.0 191.9,12.0 192.7,12.0 193.5,12.0 194.3,12.0 195.1,12.0 195.9,12.0 196.7,12.0 197.5,12.0 198.3,12.0 199.1,12.0 199.9,12.0 200.7,12.0 201.5,12.0 202.3,12.0 203.1,12.0 203.9,12.0 204.7,12.0 205.5,12.0 206.4,12.0 207.2,12.3 208.0,12.6 208.8,13.2 209.6,13.9 210.4,14.8 211.2,15.8 212.0,17.0 212.8,18.4 213.6,19.9 214.4,21.6 215.2,23.4 216.0,25.4 216.8,27.5 217.6,29.7 218.4,32.0 219.2,34.5 220.0,37.1 220.8,39.8 221.6,42.6 222.4,45.5 223.2,48.5 224.0,51.6 224.8,54.7 225.6,57.9 226.5,61.2 227.3,64.5 228.1,67.9 228.9,71.3 229.7,74.7 230.5,78.1 231.3,81.6 232.1,85.0 232.9,88.5 233.7,91.9 234.5,95.3 235.3,98.7 236.1,102.0 236.9,105.3 237.7,108.5 238.5,111.6 239.3,114.7 240.1,117.7 240.9,120.7 241.7,123.5 242.5,126.2 243.3,128.8 244.1,131.3 244.9,133.7 245.7,136.0 246.5,138.1 247.4,140.1 248.2,142.0 249.0,143.7 249.8,145.2 250.6,146.6 251.4,147.9 252.2,149.0 253.0,149.9 253.8,150.6 254.6,151.2 255.4,151.7 256.2,151.9 257.0,152.0 L257.0,152.0 Z" fill="#4a90d9" fill-opacity="0.06"/>
  <polyline points="52.0,152.0 52.8,151.9 53.6,151.7 54.4,151.2 55.2,150.6 56.0,149.9 56.8,149.0 57.6,147.9 58.4,146.6 59.2,145.2 60.0,143.7 60.8,142.0 61.6,140.1 62.5,138.1 63.3,136.0 64.1,133.7 64.9,131.3 65.7,128.8 66.5,126.2 67.3,123.5 68.1,120.7 68.9,117.7 69.7,114.7 70.5,111.6 71.3,108.5 72.1,105.3 72.9,102.0 73.7,98.7 74.5,95.3 75.3,91.9 76.1,88.5 76.9,85.0 77.7,81.6 78.5,78.1 79.3,74.7 80.1,71.3 80.9,67.9 81.7,64.5 82.5,61.2 83.4,57.9 84.2,54.7 85.0,51.6 85.8,48.5 86.6,45.5 87.4,42.6 88.2,39.8 89.0,37.1 89.8,34.5 90.6,32.0 91.4,29.7 92.2,27.5 93.0,25.4 93.8,23.4 94.6,21.6 95.4,19.9 96.2,18.4 97.0,17.0 97.8,15.8 98.6,14.8 99.4,13.9 100.2,13.2 101.0,12.6 101.8,12.3 102.6,12.0 103.5,12.0 104.3,12.0 105.1,12.0 105.9,12.0 106.7,12.0 107.5,12.0 108.3,12.0 109.1,12.0 109.9,12.0 110.7,12.0 111.5,12.0 112.3,12.0 113.1,12.0 113.9,12.0 114.7,12.0 115.5,12.0 116.3,12.0 117.1,12.0 117.9,12.0 118.7,12.0 119.5,12.0 120.3,12.0 121.1,12.0 121.9,12.0 122.7,12.0 123.5,12.0 124.4,12.0 125.2,12.0 126.0,12.0 126.8,12.0 127.6,12.0 128.4,12.0 129.2,12.0 130.0,12.0 130.8,12.0 131.6,12.0 132.4,12.0 133.2,12.0 134.0,12.0 134.8,12.0 135.6,12.0 136.4,12.0 137.2,12.0 138.0,12.0 138.8,12.0 139.6,12.0 140.4,12.0 141.2,12.0 142.0,12.0 142.8,12.0 143.6,12.0 144.5,12.0 145.3,12.0 146.1,12.0 146.9,12.0 147.7,12.0 148.5,12.0 149.3,12.0 150.1,12.0 150.9,12.0 151.7,12.0 152.5,12.0 153.3,12.0 154.1,12.0 154.9,12.0 155.7,12.0 156.5,12.0 157.3,12.0 158.1,12.0 158.9,12.0 159.7,12.0 160.5,12.0 161.3,12.0 162.1,12.0 162.9,12.0 163.7,12.0 164.5,12.0 165.4,12.0 166.2,12.0 167.0,12.0 167.8,12.0 168.6,12.0 169.4,12.0 170.2,12.0 171.0,12.0 171.8,12.0 172.6,12.0 173.4,12.0 174.2,12.0 175.0,12.0 175.8,12.0 176.6,12.0 177.4,12.0 178.2,12.0 179.0,12.0 179.8,12.0 180.6,12.0 181.4,12.0 182.2,12.0 183.0,12.0 183.8,12.0 184.6,12.0 185.5,12.0 186.3,12.0 187.1,12.0 187.9,12.0 188.7,12.0 189.5,12.0 190.3,12.0 191.1,12.0 191.9,12.0 192.7,12.0 193.5,12.0 194.3,12.0 195.1,12.0 195.9,12.0 196.7,12.0 197.5,12.0 198.3,12.0 199.1,12.0 199.9,12.0 200.7,12.0 201.5,12.0 202.3,12.0 203.1,12.0 203.9,12.0 204.7,12.0 205.5,12.0 206.4,12.0 207.2,12.3 208.0,12.6 208.8,13.2 209.6,13.9 210.4,14.8 211.2,15.8 212.0,17.0 212.8,18.4 213.6,19.9 214.4,21.6 215.2,23.4 216.0,25.4 216.8,27.5 217.6,29.7 218.4,32.0 219.2,34.5 220.0,37.1 220.8,39.8 221.6,42.6 222.4,45.5 223.2,48.5 224.0,51.6 224.8,54.7 225.6,57.9 226.5,61.2 227.3,64.5 228.1,67.9 228.9,71.3 229.7,74.7 230.5,78.1 231.3,81.6 232.1,85.0 232.9,88.5 233.7,91.9 234.5,95.3 235.3,98.7 236.1,102.0 236.9,105.3 237.7,108.5 238.5,111.6 239.3,114.7 240.1,117.7 240.9,120.7 241.7,123.5 242.5,126.2 243.3,128.8 244.1,131.3 244.9,133.7 245.7,136.0 246.5,138.1 247.4,140.1 248.2,142.0 249.0,143.7 249.8,145.2 250.6,146.6 251.4,147.9 252.2,149.0 253.0,149.9 253.8,150.6 254.6,151.2 255.4,151.7 256.2,151.9 257.0,152.0" fill="none" stroke="#4a90d9" stroke-width="1.2" stroke-linejoin="round"/>
  <line x1="322" y1="12.0" x2="527" y2="12.0" stroke="#e5e7eb" stroke-width="0.5"/>
  <text x="318" y="15.0" text-anchor="end" font-size="7.5" fill="#6b7280">0</text>
  <line x1="322" y1="58.7" x2="527" y2="58.7" stroke="#e5e7eb" stroke-width="0.5"/>
  <text x="318" y="61.7" text-anchor="end" font-size="7.5" fill="#6b7280">-40</text>
  <line x1="322" y1="105.3" x2="527" y2="105.3" stroke="#e5e7eb" stroke-width="0.5"/>
  <text x="318" y="108.3" text-anchor="end" font-size="7.5" fill="#6b7280">-80</text>
  <line x1="322" y1="152.0" x2="527" y2="152.0" stroke="#e5e7eb" stroke-width="0.5"/>
  <text x="318" y="155.0" text-anchor="end" font-size="7.5" fill="#6b7280">-120</text>
  <line x1="322.0" y1="12" x2="322.0" y2="152" stroke="#e5e7eb" stroke-width="0.5"/>
  <text x="322.0" y="164" text-anchor="middle" font-size="7.5" fill="#6b7280">0</text>
  <line x1="363.0" y1="12" x2="363.0" y2="152" stroke="#e5e7eb" stroke-width="0.5"/>
  <text x="363.0" y="164" text-anchor="middle" font-size="7.5" fill="#6b7280">0.1</text>
  <line x1="404.0" y1="12" x2="404.0" y2="152" stroke="#e5e7eb" stroke-width="0.5"/>
  <text x="404.0" y="164" text-anchor="middle" font-size="7.5" fill="#6b7280">0.2</text>
  <line x1="445.0" y1="12" x2="445.0" y2="152" stroke="#e5e7eb" stroke-width="0.5"/>
  <text x="445.0" y="164" text-anchor="middle" font-size="7.5" fill="#6b7280">0.3</text>
  <line x1="486.0" y1="12" x2="486.0" y2="152" stroke="#e5e7eb" stroke-width="0.5"/>
  <text x="486.0" y="164" text-anchor="middle" font-size="7.5" fill="#6b7280">0.4</text>
  <line x1="527.0" y1="12" x2="527.0" y2="152" stroke="#e5e7eb" stroke-width="0.5"/>
  <text x="527.0" y="164" text-anchor="middle" font-size="7.5" fill="#6b7280">0.5</text>
  <line x1="322" y1="12" x2="322" y2="152" stroke="#d1d5db" stroke-width="0.75"/>
  <line x1="322" y1="152" x2="527" y2="152" stroke="#d1d5db" stroke-width="0.75"/>
  <polyline points="322.0,12.0 322.1,12.0 322.2,12.2 322.3,12.3 322.4,12.6 322.5,13.0 322.6,13.4 322.7,14.0 322.8,14.6 322.9,15.3 323.0,16.2 323.1,17.1 323.2,18.2 323.3,19.5 323.4,21.0 323.5,22.7 323.6,24.7 323.7,27.0 323.8,30.0 323.9,33.9 324.0,39.8 324.1,52.7 324.2,49.9 324.3,40.4 324.4,36.2 324.5,33.6 324.6,31.9 324.7,30.8 324.8,30.1 324.9,29.8 325.0,29.6 325.1,29.8 325.2,30.1 325.3,30.7 325.4,31.4 325.5,32.4 325.6,33.7 325.7,35.3 325.8,37.2 325.9,39.7 326.0,43.0 326.1,47.7 326.2,56.0 326.3,72.8 326.4,53.6 326.5,47.9 326.6,44.7 326.7,42.7 326.8,41.3 326.9,40.4 327.0,39.9 327.1,39.7 327.2,39.7 327.3,39.9 327.4,40.4 327.5,41.1 327.6,42.1 327.7,43.3 327.8,44.8 327.9,46.6 328.0,48.9 328.1,51.9 328.2,56.0 328.3,62.4 328.4,79.2 328.5,68.7 328.6,60.8 328.7,57.0 328.8,54.7 328.9,53.2 329.0,52.4 329.1,51.9 329.2,51.7 329.3,51.9 329.4,52.3 329.5,52.9 329.6,53.8 329.7,54.9 329.8,56.3 329.9,58.0 330.0,60.1 330.1,62.6 330.2,65.7 330.3,69.7 330.4,75.4 330.5,85.8 330.6,94.1 330.7,81.4 330.8,77.3 330.9,75.5 331.0,74.9 331.1,75.2 331.2,76.3 331.3,78.3 331.4,81.6 331.5,87.0 331.6,100.3 331.7,95.5 331.8,86.4 331.9,82.4 332.0,80.2 332.1,79.1 332.2,78.9 332.3,79.5 332.4,81.0 332.5,83.9 332.6,89.7 332.7,114.9 332.8,90.3 332.9,82.5 333.0,78.0 333.1,75.0 333.2,72.7 333.3,71.1 333.4,69.8 333.5,68.9 333.6,68.3 333.7,68.0 333.8,67.9 333.9,68.0 334.0,68.5 334.1,69.1 334.2,70.1 334.3,71.5 334.4,73.3 334.5,75.7 334.6,79.0 334.7,84.3 334.8,95.5 334.9,95.8 335.0,85.0 335.1,80.3 335.2,77.4 335.3,75.5 335.4,74.2 335.5,73.4 335.6,72.9 335.7,72.7 335.8,72.8 335.9,73.1 336.0,73.7 336.1,74.5 336.2,75.6 336.3,77.0 336.4,78.8 336.5,80.9 336.6,83.7 336.7,87.2 336.8,92.2 336.9,100.5 337.0,126.1 337.1,101.0 337.2,95.7 337.3,93.3 337.4,92.3 337.5,92.2 337.6,93.0 337.7,94.6 337.8,97.3 337.9,101.8 338.0,111.4 338.1,116.9 338.2,104.1 338.3,99.2 338.4,96.5 338.5,95.0 338.6,94.5 338.7,94.7 338.8,95.8 338.9,98.2 339.0,102.8 339.1,116.0 339.2,108.4 339.3,98.6 339.4,93.5 339.5,90.1 339.6,87.6 339.7,85.7 339.8,84.2 339.9,83.1 340.0,82.3 340.1,81.8 340.2,81.6 340.3,81.6 340.4,81.8 340.5,82.4 340.6,83.2 340.7,84.3 340.8,85.9 340.9,88.0 341.0,91.0 341.1,95.5 341.2,104.1 341.3,115.5 341.4,99.4 341.5,93.7 341.6,90.4 341.7,88.2 341.8,86.7 341.9,85.7 342.0,85.1 342.1,84.7 342.2,84.7 342.3,84.8 342.4,85.3 342.5,86.0 342.6,87.0 342.7,88.2 342.8,89.8 342.9,91.8 343.0,94.3 343.1,97.5 343.2,102.0 343.3,109.0 343.4,129.5 343.5,114.4 343.6,107.6 343.7,104.7 343.8,103.3 343.9,103.0 344.0,103.4 344.1,104.8 344.2,107.1 344.3,111.0 344.4,118.5 344.5,138.9 344.6,116.4 344.7,110.4 344.8,107.3 344.9,105.5 345.0,104.7 345.1,104.7 345.2,105.5 345.3,107.5 345.4,111.3 345.5,120.5 345.6,123.2 345.7,110.2 345.8,104.3 345.9,100.5 346.0,97.8 346.1,95.7 346.2,94.1 346.3,92.9 346.4,92.0 346.5,91.3 346.6,91.0 346.7,90.9 346.8,91.0 346.9,91.4 347.0,92.1 347.1,93.1 347.2,94.5 347.3,96.5 347.4,99.2 347.5,103.1 347.6,110.1 347.7,152.0 347.8,110.4 347.9,103.6 348.0,99.9 348.1,97.4 348.2,95.7 348.3,94.6 348.4,93.8 348.5,93.3 348.6,93.2 348.7,93.3 348.8,93.6 348.9,94.2 349.0,95.1 349.1,96.2 349.2,97.7 349.3,99.5 349.4,101.8 349.5,104.8 349.6,108.9 349.7,114.9 349.8,128.1 349.9,125.8 350.0,116.8 350.1,113.2 350.2,111.5 350.3,110.9 350.4,111.1 350.5,112.2 350.6,114.2 350.7,117.6 350.8,123.7 350.9,145.1 351.0,126.6 351.1,119.3 351.2,115.6 351.3,113.5 351.4,112.4 351.5,112.1 351.6,112.7 351.7,114.3 351.8,117.5 351.9,124.5 352.0,140.1 352.1,119.7 352.2,112.9 352.3,108.7 352.4,105.7 352.5,103.4 352.6,101.7 352.7,100.3 352.8,99.3 352.9,98.6 353.0,98.2 353.1,98.0 353.2,98.0 353.3,98.3 353.4,98.9 353.5,99.8 353.6,101.1 353.7,102.9 353.8,105.3 353.9,108.9 354.0,114.7 354.1,131.0 354.2,120.1 354.3,111.7 354.4,107.4 354.5,104.7 354.6,102.8 354.7,101.5 354.8,100.6 354.9,100.1 355.0,99.8 355.1,99.8 355.2,100.1 355.3,100.6 355.4,101.4 355.5,102.4 355.6,103.8 355.7,105.5 355.8,107.7 355.9,110.4 356.0,114.1 356.1,119.5 356.3,129.5 356.4,137.6 356.5,124.6 356.6,120.2 356.7,118.1 356.8,117.2 356.9,117.2 357.0,118.1 357.1,119.8 357.2,122.7 357.3,127.8 357.4,140.5 357.5,136.3 357.6,126.8 357.7,122.4 357.8,120.0 357.9,118.7 358.0,118.2 358.1,118.5 358.2,119.8 358.3,122.5 358.4,128.1 358.5,152.0 358.6,128.1 358.7,120.1 358.8,115.5 358.9,112.2 359.0,109.8 359.1,107.9 359.2,106.5 359.3,105.4 359.4,104.6 359.5,104.0 359.6,103.7 359.7,103.7 359.8,103.9 359.9,104.5 360.0,105.3 360.1,106.4 360.2,108.0 360.3,110.3 360.4,113.5 360.5,118.5 360.6,129.6 360.7,129.7 360.8,118.8 360.9,113.8 361.0,110.8 361.1,108.7 361.2,107.3 361.3,106.3 361.4,105.6 361.5,105.3 361.6,105.2 361.7,105.4 361.8,105.8 361.9,106.5 362.0,107.5 362.1,108.7 362.2,110.4 362.3,112.4 362.4,115.0 362.5,118.4 362.6,123.2 362.7,131.4 362.8,152.0 362.9,131.6 363.0,126.2 363.1,123.7 363.2,122.5 363.3,122.3 363.4,122.9 363.5,124.4 363.6,126.9 363.7,131.3 363.8,140.5 363.9,147.0 364.0,133.5 364.1,128.4 364.2,125.6 364.3,124.0 364.4,123.3 364.5,123.4 364.6,124.4 364.7,126.7 364.8,131.3 364.9,144.5 365.0,136.4 365.1,126.6 365.2,121.4 365.3,117.9 365.4,115.2 365.5,113.2 365.6,111.7 365.7,110.5 365.8,109.6 365.9,109.0 366.0,108.6 366.1,108.5 366.2,108.7 366.3,109.1 366.4,109.8 366.5,110.9 366.6,112.3 366.7,114.4 366.8,117.3 366.9,121.7 367.0,130.3 367.1,141.3 367.2,125.2 367.3,119.5 367.4,116.1 367.5,113.8 367.6,112.2 367.7,111.1 367.8,110.4 367.9,110.0 368.0,109.8 368.1,109.9 368.2,110.3 368.3,110.9 368.4,111.8 368.5,112.9 368.6,114.5 368.7,116.4 368.8,118.8 368.9,121.9 369.0,126.3 369.1,133.2 369.2,152.0 369.3,138.5 369.4,131.6 369.5,128.6 369.6,127.1 369.7,126.7 369.8,127.1 369.9,128.3 370.0,130.5 370.1,134.3 370.2,141.5 370.3,152.0 370.4,140.0 370.5,133.8 370.6,130.5 370.7,128.7 370.8,127.7 370.9,127.7 371.0,128.4 371.1,130.3 371.2,134.1 371.3,143.4 371.4,145.4 371.5,132.6 371.6,126.7 371.7,122.9 371.8,120.1 371.9,117.9 372.0,116.2 372.1,115.0 372.2,114.0 372.3,113.3 372.4,112.9 372.5,112.7 372.6,112.8 372.7,113.1 372.8,113.7 372.9,114.7 373.0,116.1 373.1,117.9 373.2,120.6 373.3,124.5 373.4,131.5 373.5,152.0 373.6,131.5 373.7,124.7 373.8,120.9 373.9,118.4 374.0,116.6 374.1,115.4 374.2,114.5 374.3,114.0 374.4,113.8 374.5,113.9 374.6,114.1 374.7,114.7 374.8,115.5 374.9,116.6 375.0,118.0 375.1,119.8 375.2,122.0 375.3,125.0 375.4,129.0 375.5,135.0 375.6,148.1 375.7,145.7 375.8,136.7 375.9,133.0 376.0,131.2 376.1,130.6 376.2,130.8 376.3,131.7 376.4,133.7 376.5,136.9 376.6,142.8 376.7,152.0 376.8,146.7 376.9,138.9 377.0,135.1 377.1,132.9 377.2,131.7 377.3,131.4 377.4,132.0 377.5,133.5 377.6,136.7 377.7,143.8 377.8,152.0 377.9,138.3 378.0,131.6 378.1,127.4 378.2,124.4 378.3,122.1 378.4,120.3 378.5,118.9 378.6,117.9 378.7,117.1 378.8,116.6 378.9,116.4 379.0,116.4 379.1,116.7 379.2,117.2 379.3,118.1 379.4,119.3 379.5,121.0 379.6,123.5 379.7,127.0 379.8,132.9 379.9,149.6 380.0,137.8 380.1,129.5 380.2,125.2 380.3,122.5 380.4,120.6 380.5,119.2 380.6,118.3 380.7,117.7 380.8,117.4 380.9,117.3 381.0,117.6 381.1,118.0 381.2,118.8 381.3,119.8 381.4,121.1 381.5,122.8 381.6,124.9 381.7,127.6 381.8,131.3 381.9,136.6 382.0,146.6 382.1,152.0 382.2,141.6 382.3,137.1 382.4,135.0 382.5,134.1 382.6,134.0 382.7,134.8 382.8,136.4 382.9,139.3 383.0,144.2 383.1,152.0 383.2,152.0 383.3,143.9 383.4,139.3 383.5,136.8 383.6,135.4 383.7,134.9 383.8,135.2 383.9,136.5 384.0,139.2 384.1,144.9 384.2,152.0 384.3,144.1 384.4,136.2 384.5,131.6 384.6,128.4 384.7,125.9 384.8,124.0 384.9,122.5 385.0,121.4 385.1,120.6 385.2,120.0 385.3,119.7 385.4,119.6 385.5,119.8 385.6,120.3 385.7,121.1 385.8,122.2 385.9,123.8 386.0,126.0 386.1,129.2 386.2,134.3 386.3,145.7 386.4,144.9 386.5,134.2 386.6,129.3 386.7,126.2 386.8,124.1 386.9,122.7 387.0,121.6 387.1,121.0 387.2,120.6 387.3,120.5 387.4,120.6 387.5,121.0 387.6,121.7 387.7,122.6 387.8,123.9 387.9,125.4 388.0,127.4 388.1,130.0 388.2,133.4 388.3,138.1 388.4,146.2 388.5,152.0 388.6,146.5 388.7,141.1 388.8,138.5 388.9,137.3 389.0,137.0 389.1,137.6 389.2,139.0 389.3,141.4 389.4,145.5 389.5,152.0 389.6,152.0 389.7,148.9 389.8,143.5 389.9,140.5 390.0,138.8 390.1,138.1 390.2,138.2 390.3,139.2 390.4,141.5 390.5,146.2 390.6,152.0 390.7,150.1 390.8,140.7 390.9,135.6 391.0,132.1 391.1,129.4 391.2,127.4 391.3,125.8 391.4,124.6 391.5,123.7 391.6,123.1 391.7,122.7 391.8,122.6 391.9,122.7 392.0,123.1 392.1,123.8 392.2,124.9 392.3,126.3 392.4,128.4 392.5,131.3 392.6,135.7 392.7,144.5 392.8,152.0 392.9,138.8 393.0,133.1 393.1,129.8 393.2,127.5 393.3,125.9 393.4,124.7 393.5,124.0 393.6,123.5 393.7,123.4 393.8,123.4 393.9,123.8 394.0,124.4 394.1,125.2 394.2,126.4 394.3,127.8 394.4,129.7 394.5,132.1 394.6,135.2 394.7,139.6 394.8,146.4 394.9,152.0 395.0,151.8 395.1,144.8 395.2,141.8 395.3,140.3 395.4,139.8 395.5,140.1 395.6,141.3 395.7,143.4 395.8,146.9 395.9,152.0 396.0,152.0 396.1,152.0 396.2,147.5 396.3,144.0 396.4,142.1 396.5,141.1 396.6,141.0 396.7,141.7 396.8,143.7 396.9,147.6 397.0,152.0 397.1,152.0 397.2,145.0 397.3,139.3 397.4,135.5 397.5,132.7 397.6,130.6 397.7,128.9 397.8,127.6 397.9,126.6 398.0,125.9 398.1,125.5 398.2,125.3 398.3,125.4 398.4,125.7 398.5,126.3 398.6,127.3 398.7,128.6 398.8,130.5 398.9,133.1 399.0,137.1 399.1,144.3 399.2,152.0 399.3,143.5 399.4,136.8 399.5,133.1 399.6,130.6 399.7,128.8 399.8,127.6 399.9,126.8 400.0,126.2 400.1,126.0 400.2,126.0 400.3,126.3 400.4,126.8 400.5,127.6 400.6,128.7 400.7,130.0 400.8,131.8 400.9,134.0 401.0,136.9 401.1,140.9 401.2,146.8 401.3,152.0 401.4,152.0 401.5,148.6 401.6,144.9 401.7,143.1 401.8,142.4 401.9,142.5 402.0,143.4 402.1,145.2 402.2,148.2 402.3,152.0 402.4,152.0 402.5,152.0 402.6,151.7 402.7,147.5 402.8,145.2 402.9,144.0 403.0,143.6 403.1,144.2 403.2,145.8 403.3,149.2 403.4,152.0 403.5,152.0 403.6,149.3 403.7,142.9 403.8,138.8 403.9,135.8 404.0,133.6 404.1,131.8 404.2,130.4 404.3,129.4 404.4,128.6 404.5,128.1 404.6,127.8 404.7,127.8 404.8,128.1 404.9,128.7 405.0,129.5 405.1,130.8 405.2,132.5 405.3,134.9 405.4,138.5 405.5,144.5 405.6,152.0 405.7,148.5 405.8,140.5 405.9,136.3 406.0,133.5 406.1,131.6 406.2,130.3 406.3,129.3 406.4,128.7 406.5,128.4 406.6,128.4 406.7,128.6 406.8,129.1 406.9,129.8 407.0,130.8 407.1,132.1 407.2,133.7 407.3,135.8 407.4,138.5 407.5,142.1 407.6,147.4 407.7,152.0 407.8,152.0 407.9,152.0 408.0,148.0 408.1,145.8 408.2,144.8 408.3,144.7 408.4,145.4 408.5,146.9 408.6,149.5 408.7,152.0 408.8,152.0 408.9,152.0 409.0,152.0 409.1,151.1 409.2,148.3 409.3,146.8 409.4,146.2 409.5,146.6 409.6,147.9 409.7,150.8 409.8,152.0 409.9,152.0 410.0,152.0 410.1,146.3 410.2,141.9 410.3,138.8 410.4,136.4 410.5,134.5 410.6,133.0 410.7,131.9 410.8,131.1 410.9,130.5 411.0,130.2 411.1,130.1 411.2,130.3 411.3,130.8 411.4,131.6 411.5,132.7 411.6,134.3 411.7,136.6 411.8,139.8 411.9,145.1 412.0,152.0 412.1,152.0 412.2,144.1 412.3,139.3 412.4,136.3 412.5,134.3 412.6,132.8 412.7,131.8 412.8,131.1 412.9,130.7 413.0,130.6 413.1,130.8 413.2,131.1 413.3,131.8 413.4,132.7 413.5,133.9 413.6,135.5 413.7,137.4 413.8,140.0 413.9,143.3 414.0,148.0 414.1,152.0 414.2,152.0 414.3,152.0 414.4,151.1 414.5,148.4 414.6,147.1 414.7,146.8 414.8,147.3 414.9,148.5 415.0,150.7 415.1,152.0 415.2,152.0 415.3,152.0 415.4,152.0 415.5,152.0 415.6,151.4 415.7,149.6 415.8,148.8 415.9,148.9 416.0,150.0 416.1,152.0 416.2,152.0 416.3,152.0 416.4,152.0 416.5,149.7 416.6,144.9 416.7,141.6 416.8,139.0 416.9,137.1 417.0,135.5 417.1,134.3 417.2,133.4 417.3,132.8 417.4,132.4 417.5,132.3 417.6,132.5 417.7,132.9 417.8,133.6 417.9,134.6 418.0,136.1 418.1,138.2 418.2,141.1 418.3,145.8 418.4,152.0 418.5,152.0 418.6,147.7 418.7,142.3 418.8,139.0 418.9,136.8 419.0,135.2 419.1,134.1 419.2,133.3 419.3,132.9 419.4,132.7 419.5,132.8 419.6,133.1 419.7,133.7 419.8,134.5 419.9,135.7 420.0,137.1 420.1,139.0 420.2,141.3 420.3,144.4 420.4,148.6 420.5,152.0 420.6,152.0 420.7,152.0 420.8,152.0 420.9,151.0 421.0,149.4 421.1,148.8 421.2,149.1 421.3,150.1 421.4,151.9 421.5,152.0 421.6,152.0 421.7,152.0 421.8,152.0 421.9,152.0 422.0,152.0 422.1,152.0 422.2,151.4 422.3,151.3 422.4,152.0 422.5,152.0 422.6,152.0 422.7,152.0 422.8,152.0 422.9,152.0 423.0,147.8 423.1,144.2 423.2,141.6 423.3,139.5 423.4,137.9 423.5,136.6 423.6,135.7 423.7,135.0 423.8,134.6 423.9,134.4 424.0,134.5 424.1,134.8 424.2,135.4 424.3,136.4 424.4,137.8 424.6,139.7 424.7,142.4 424.8,146.6 424.9,152.0 425.0,152.0 425.1,151.5 425.2,145.3 425.3,141.6 425.4,139.2 425.5,137.5 425.6,136.3 425.7,135.4 425.8,134.9 425.9,134.7 426.0,134.7 426.1,135.0 426.2,135.5 426.3,136.2 426.4,137.3 426.5,138.6 426.6,140.4 426.7,142.6 426.8,145.4 426.9,149.3 427.0,152.0 427.1,152.0 427.2,152.0 427.3,152.0 427.4,152.0 427.5,151.6 427.6,150.8 427.7,150.8 427.8,151.6 427.9,152.0 428.0,152.0 428.1,152.0 428.2,152.0 428.3,152.0 428.4,152.0 428.5,152.0 428.6,152.0 428.7,152.0 428.8,152.0 428.9,152.0 429.0,152.0 429.1,152.0 429.2,152.0 429.3,152.0 429.4,152.0 429.5,150.5 429.6,146.8 429.7,144.0 429.8,141.8 429.9,140.1 430.0,138.8 430.1,137.8 430.2,137.1 430.3,136.6 430.4,136.3 430.5,136.4 430.6,136.6 430.7,137.2 430.8,138.1 430.9,139.4 431.0,141.2 431.1,143.7 431.2,147.4 431.3,152.0 431.4,152.0 431.5,152.0 431.6,148.2 431.7,144.2 431.8,141.5 431.9,139.7 432.0,138.4 432.1,137.4 432.2,136.9 432.3,136.5 432.4,136.5 432.5,136.7 432.6,137.2 432.7,137.9 432.8,138.8 432.9,140.1 433.0,141.7 433.1,143.8 433.2,146.4 433.3,150.0 433.4,152.0 433.5,152.0 433.6,152.0 433.7,152.0 433.8,152.0 433.9,152.0 434.0,152.0 434.1,152.0 434.2,152.0 434.3,152.0 434.4,152.0 434.5,152.0 434.6,152.0 434.7,152.0 434.8,152.0 434.9,152.0 435.0,152.0 435.1,152.0 435.2,152.0 435.3,152.0 435.4,152.0 435.5,152.0 435.6,152.0 435.7,152.0 435.8,152.0 435.9,152.0 436.0,149.2 436.1,146.3 436.2,144.1 436.3,142.3 436.4,140.9 436.5,139.8 436.6,139.0 436.7,138.5 436.8,138.2 436.9,138.2 437.0,138.4 437.1,138.9 437.2,139.7 437.3,140.9 437.4,142.6 437.5,144.9 437.6,148.4 437.7,152.0 437.8,152.0 437.9,152.0 438.0,151.0 438.1,146.6 438.2,143.8 438.3,141.8 438.4,140.4 438.5,139.4 438.6,138.7 438.7,138.3 438.8,138.2 438.9,138.4 439.0,138.8 439.1,139.4 439.2,140.3 439.3,141.5 439.4,143.0 439.5,144.9 439.6,147.4 439.7,150.6 439.8,152.0 439.9,152.0 440.0,152.0 440.1,152.0 440.2,152.0 440.3,152.0 440.4,152.0 440.5,152.0 440.6,152.0 440.7,152.0 440.8,152.0 440.9,152.0 441.0,152.0 441.1,152.0 441.2,152.0 441.3,152.0 441.4,152.0 441.5,152.0 441.6,152.0 441.7,152.0 441.8,152.0 441.9,152.0 442.0,152.0 442.1,152.0 442.2,152.0 442.3,152.0 442.4,151.5 442.5,148.5 442.6,146.2 442.7,144.4 442.8,142.9 442.9,141.8 443.0,141.0 443.1,140.4 443.2,140.1 443.3,140.0 443.4,140.2 443.5,140.6 443.6,141.3 443.7,142.5 443.8,144.0 443.9,146.2 444.0,149.4 444.1,152.0 444.2,152.0 444.3,152.0 444.4,152.0 444.5,149.0 444.6,146.0 444.7,143.8 444.8,142.3 444.9,141.2 445.0,140.5 445.1,140.1 445.2,139.9 445.3,140.0 445.4,140.3 445.5,140.9 445.6,141.7 445.7,142.8 445.8,144.2 445.9,146.0 446.0,148.3 446.1,151.3 446.2,152.0 446.3,152.0 446.4,152.0 446.5,152.0 446.6,152.0 446.7,152.0 446.8,152.0 446.9,152.0 447.0,152.0 447.1,152.0 447.2,152.0 447.3,152.0 447.4,152.0 447.5,152.0 447.6,152.0 447.7,152.0 447.8,152.0 447.9,152.0 448.0,152.0 448.1,152.0 448.2,152.0 448.3,152.0 448.4,152.0 448.5,152.0 448.6,152.0 448.7,152.0 448.8,152.0 448.9,150.6 449.0,148.3 449.1,146.4 449.2,144.9 449.3,143.7 449.4,142.8 449.5,142.2 449.6,141.8 449.7,141.7 449.8,141.8 449.9,142.2 450.0,142.9 450.1,144.0 450.2,145.4 450.3,147.5 450.4,150.4 450.5,152.0 450.6,152.0 450.7,152.0 450.8,152.0 450.9,151.4 451.0,148.1 451.1,145.8 451.2,144.2 451.3,143.0 451.4,142.2 451.5,141.7 451.6,141.5 451.7,141.5 451.8,141.8 451.9,142.3 452.0,143.0 452.1,144.0 452.2,145.4 452.3,147.1 452.4,149.2 452.5,151.9 452.6,152.0 452.7,152.0 452.8,152.0 452.9,152.0 453.0,152.0 453.1,152.0 453.2,152.0 453.3,152.0 453.4,152.0 453.5,152.0 453.6,152.0 453.7,152.0 453.8,152.0 453.9,152.0 454.0,152.0 454.1,152.0 454.2,152.0 454.3,152.0 454.4,152.0 454.5,152.0 454.6,152.0 454.7,152.0 454.8,152.0 454.9,152.0 455.0,152.0 455.1,152.0 455.2,152.0 455.3,152.0 455.4,150.2 455.5,148.3 455.6,146.8 455.7,145.6 455.8,144.7 455.9,144.0 456.0,143.6 456.1,143.4 456.2,143.5 456.3,143.9 456.4,144.5 456.5,145.5 456.6,146.8 456.7,148.8 456.8,151.5 456.9,152.0 457.0,152.0 457.1,152.0 457.2,152.0 457.3,152.0 457.4,150.1 457.5,147.7 457.6,146.0 457.7,144.7 457.8,143.9 457.9,143.3 458.0,143.0 458.1,143.0 458.2,143.2 458.3,143.6 458.4,144.3 458.5,145.3 458.6,146.5 458.7,148.1 458.8,150.0 458.9,152.0 459.0,152.0 459.1,152.0 459.2,152.0 459.3,152.0 459.4,152.0 459.5,152.0 459.6,152.0 459.7,152.0 459.8,152.0 459.9,152.0 460.0,152.0 460.1,152.0 460.2,152.0 460.3,152.0 460.4,152.0 460.5,152.0 460.6,152.0 460.7,152.0 460.8,152.0 460.9,152.0 461.0,152.0 461.1,152.0 461.2,152.0 461.3,152.0 461.4,152.0 461.5,152.0 461.6,152.0 461.7,152.0 461.8,152.0 461.9,150.1 462.0,148.6 462.1,147.4 462.2,146.4 462.3,145.7 462.4,145.3 462.5,145.1 462.6,145.2 462.7,145.5 462.8,146.0 462.9,147.0 463.0,148.3 463.1,150.1 463.2,152.0 463.3,152.0 463.4,152.0 463.5,152.0 463.6,152.0 463.7,152.0 463.8,152.0 463.9,149.5 464.0,147.7 464.1,146.4 464.2,145.5 464.3,144.9 464.4,144.5 464.5,144.4 464.6,144.6 464.7,145.0 464.8,145.6 464.9,146.4 465.0,147.6 465.1,149.0 465.2,150.9 465.3,152.0 465.4,152.0 465.5,152.0 465.6,152.0 465.7,152.0 465.8,152.0 465.9,152.0 466.0,152.0 466.1,152.0 466.2,152.0 466.3,152.0 466.4,152.0 466.5,152.0 466.6,152.0 466.7,152.0 466.8,152.0 466.9,152.0 467.0,152.0 467.1,152.0 467.2,152.0 467.3,152.0 467.4,152.0 467.5,152.0 467.6,152.0 467.7,152.0 467.8,152.0 467.9,152.0 468.0,152.0 468.1,152.0 468.2,152.0 468.3,151.8 468.4,150.3 468.5,149.1 468.6,148.2 468.7,147.5 468.8,147.0 468.9,146.8 469.0,146.8 469.1,147.1 469.2,147.6 469.3,148.5 469.4,149.8 469.5,151.5 469.6,152.0 469.7,152.0 469.8,152.0 469.9,152.0 470.0,152.0 470.1,152.0 470.2,152.0 470.3,151.3 470.4,149.4 470.5,148.0 470.6,147.0 470.7,146.4 470.8,146.0 470.9,145.8 471.0,145.9 471.1,146.2 471.2,146.8 471.3,147.6 471.4,148.6 471.5,150.0 471.6,151.7 471.7,152.0 471.8,152.0 471.9,152.0 472.0,152.0 472.1,152.0 472.2,152.0 472.3,152.0 472.4,152.0 472.5,152.0 472.6,152.0 472.7,152.0 472.8,152.0 472.9,152.0 473.0,152.0 473.1,152.0 473.2,152.0 473.3,152.0 473.4,152.0 473.5,152.0 473.6,152.0 473.7,152.0 473.8,152.0 473.9,152.0 474.0,152.0 474.1,152.0 474.2,152.0 474.3,152.0 474.4,152.0 474.5,152.0 474.6,152.0 474.7,152.0 474.8,152.0 474.9,150.8 475.0,149.9 475.1,149.2 475.2,148.7 475.3,148.5 475.4,148.5 475.5,148.7 475.6,149.3 475.7,150.1 475.8,151.3 475.9,152.0 476.0,152.0 476.1,152.0 476.2,152.0 476.3,152.0 476.4,152.0 476.5,152.0 476.6,152.0 476.7,152.0 476.8,151.0 476.9,149.6 477.0,148.6 477.1,147.8 477.2,147.4 477.3,147.2 477.4,147.2 477.5,147.5 477.6,148.0 477.7,148.7 477.8,149.7 477.9,150.9 478.0,152.0 478.1,152.0 478.2,152.0 478.3,152.0 478.4,152.0 478.5,152.0 478.6,152.0 478.7,152.0 478.8,152.0 478.9,152.0 479.0,152.0 479.1,152.0 479.2,152.0 479.3,152.0 479.4,152.0 479.5,152.0 479.6,152.0 479.7,152.0 479.8,152.0 479.9,152.0 480.0,152.0 480.1,152.0 480.2,152.0 480.3,152.0 480.4,152.0 480.5,152.0 480.6,152.0 480.7,152.0 480.8,152.0 480.9,152.0 481.0,152.0 481.1,152.0 481.2,152.0 481.3,152.0 481.4,151.5 481.5,150.8 481.6,150.4 481.7,150.2 481.8,150.2 481.9,150.4 482.0,151.0 482.1,151.8 482.2,152.0 482.3,152.0 482.4,152.0 482.5,152.0 482.6,152.0 482.7,152.0 482.8,152.0 482.9,152.0 483.0,152.0 483.1,152.0 483.2,152.0 483.3,151.1 483.4,150.0 483.5,149.3 483.6,148.8 483.7,148.6 483.8,148.5 483.9,148.8 484.0,149.2 484.1,149.8 484.2,150.7 484.3,151.8 484.4,152.0 484.5,152.0 484.6,152.0 484.7,152.0 484.8,152.0 484.9,152.0 485.0,152.0 485.1,152.0 485.2,152.0 485.3,152.0 485.4,152.0 485.5,152.0 485.6,152.0 485.7,152.0 485.8,152.0 485.9,152.0 486.0,152.0 486.1,152.0 486.2,152.0 486.3,152.0 486.4,152.0 486.5,152.0 486.6,152.0 486.7,152.0 486.8,152.0 486.9,152.0 487.0,152.0 487.1,152.0 487.2,152.0 487.3,152.0 487.4,152.0 487.5,152.0 487.6,152.0 487.7,152.0 487.8,152.0 487.9,152.0 488.0,152.0 488.1,151.9 488.2,152.0 488.3,152.0 488.4,152.0 488.5,152.0 488.6,152.0 488.7,152.0 488.8,152.0 488.9,152.0 489.0,152.0 489.1,152.0 489.2,152.0 489.3,152.0 489.4,152.0 489.5,152.0 489.6,152.0 489.7,152.0 489.8,151.4 489.9,150.7 490.0,150.2 490.1,149.9 490.2,149.8 490.3,150.0 490.4,150.4 490.5,150.9 490.6,151.7 490.7,152.0 490.8,152.0 490.9,152.0 491.0,152.0 491.1,152.0 491.2,152.0 491.3,152.0 491.4,152.0 491.5,152.0 491.6,152.0 491.7,152.0 491.8,152.0 491.9,152.0 492.0,152.0 492.1,152.0 492.2,152.0 492.3,152.0 492.4,152.0 492.5,152.0 492.6,152.0 492.7,152.0 492.9,152.0 493.0,152.0 493.1,152.0 493.2,152.0 493.3,152.0 493.4,152.0 493.5,152.0 493.6,152.0 493.7,152.0 493.8,152.0 493.9,152.0 494.0,152.0 494.1,152.0 494.2,152.0 494.3,152.0 494.4,152.0 494.5,152.0 494.6,152.0 494.7,152.0 494.8,152.0 494.9,152.0 495.0,152.0 495.1,152.0 495.2,152.0 495.3,152.0 495.4,152.0 495.5,152.0 495.6,152.0 495.7,152.0 495.8,152.0 495.9,152.0 496.0,152.0 496.1,152.0 496.2,152.0 496.3,152.0 496.4,152.0 496.5,151.5 496.6,151.2 496.7,151.1 496.8,151.2 496.9,151.5 497.0,152.0 497.1,152.0 497.2,152.0 497.3,152.0 497.4,152.0 497.5,152.0 497.6,152.0 497.7,152.0 497.8,152.0 497.9,152.0 498.0,152.0 498.1,152.0 498.2,152.0 498.3,152.0 498.4,152.0 498.5,152.0 498.6,152.0 498.7,152.0 498.8,152.0 498.9,152.0 499.0,152.0 499.1,152.0 499.2,152.0 499.3,152.0 499.4,152.0 499.5,152.0 499.6,152.0 499.7,152.0 499.8,152.0 499.9,152.0 500.0,152.0 500.1,152.0 500.2,152.0 500.3,152.0 500.4,152.0 500.5,152.0 500.6,152.0 500.7,152.0 500.8,152.0 500.9,152.0 501.0,152.0 501.1,152.0 501.2,152.0 501.3,152.0 501.4,152.0 501.5,152.0 501.6,152.0 501.7,152.0 501.8,152.0 501.9,152.0 502.0,152.0 502.1,152.0 502.2,152.0 502.3,152.0 502.4,152.0 502.5,152.0 502.6,152.0 502.7,152.0 502.8,152.0 502.9,152.0 503.0,152.0 503.1,152.0 503.2,152.0 503.3,152.0 503.4,152.0 503.5,152.0 503.6,152.0 503.7,152.0 503.8,152.0 503.9,152.0 504.0,152.0 504.1,152.0 504.2,152.0 504.3,152.0 504.4,152.0 504.5,152.0 504.6,152.0 504.7,152.0 504.8,152.0 504.9,152.0 505.0,152.0 505.1,152.0 505.2,152.0 505.3,152.0 505.4,152.0 505.5,152.0 505.6,152.0 505.7,152.0 505.8,152.0 505.9,152.0 506.0,152.0 506.1,152.0 506.2,152.0 506.3,152.0 506.4,152.0 506.5,152.0 506.6,152.0 506.7,152.0 506.8,152.0 506.9,152.0 507.0,152.0 507.1,152.0 507.2,152.0 507.3,152.0 507.4,152.0 507.5,152.0 507.6,152.0 507.7,152.0 507.8,152.0 507.9,152.0 508.0,152.0 508.1,152.0 508.2,152.0 508.3,152.0 508.4,152.0 508.5,152.0 508.6,152.0 508.7,152.0 508.8,152.0 508.9,152.0 509.0,152.0 509.1,152.0 509.2,152.0 509.3,152.0 509.4,152.0 509.5,152.0 509.6,152.0 509.7,152.0 509.8,152.0 509.9,152.0 510.0,152.0 510.1,152.0 510.2,152.0 510.3,152.0 510.4,152.0 510.5,152.0 510.6,152.0 510.7,152.0 510.8,152.0 510.9,152.0 511.0,152.0 511.1,152.0 511.2,152.0 511.3,152.0 511.4,152.0 511.5,152.0 511.6,152.0 511.7,152.0 511.8,152.0 511.9,152.0 512.0,152.0 512.1,152.0 512.2,152.0 512.3,152.0 512.4,152.0 512.5,152.0 512.6,152.0 512.7,152.0 512.8,152.0 512.9,152.0 513.0,152.0 513.1,152.0 513.2,152.0 513.3,152.0 513.4,152.0 513.5,152.0 513.6,152.0 513.7,152.0 513.8,152.0 513.9,152.0 514.0,152.0 514.1,152.0 514.2,152.0 514.3,152.0 514.4,152.0 514.5,152.0 514.6,152.0 514.7,152.0 514.8,152.0 514.9,152.0 515.0,152.0 515.1,152.0 515.2,152.0 515.3,152.0 515.4,152.0 515.5,152.0 515.6,152.0 515.7,152.0 515.8,152.0 515.9,152.0 516.0,152.0 516.1,152.0 516.2,152.0 516.3,152.0 516.4,152.0 516.5,152.0 516.6,152.0 516.7,152.0 516.8,152.0 516.9,152.0 517.0,152.0 517.1,152.0 517.2,152.0 517.3,152.0 517.4,152.0 517.5,152.0 517.6,152.0 517.7,152.0 517.8,152.0 517.9,152.0 518.0,152.0 518.1,152.0 518.2,152.0 518.3,152.0 518.4,152.0 518.5,152.0 518.6,152.0 518.7,152.0 518.8,152.0 518.9,152.0 519.0,152.0 519.1,152.0 519.2,152.0 519.3,152.0 519.4,152.0 519.5,152.0 519.6,152.0 519.7,152.0 519.8,152.0 519.9,152.0 520.0,152.0 520.1,152.0 520.2,152.0 520.3,152.0 520.4,152.0 520.5,152.0 520.6,152.0 520.7,152.0 520.8,152.0 520.9,152.0 521.0,152.0 521.1,152.0 521.2,152.0 521.3,152.0 521.4,152.0 521.5,152.0 521.6,152.0 521.7,152.0 521.8,152.0 521.9,152.0 522.0,152.0 522.1,152.0 522.2,152.0 522.3,152.0 522.4,152.0 522.5,152.0 522.6,152.0 522.7,152.0 522.8,152.0 522.9,152.0 523.0,152.0 523.1,152.0 523.2,152.0 523.3,152.0 523.4,152.0 523.5,152.0 523.6,152.0 523.7,152.0 523.8,152.0 523.9,152.0 524.0,152.0 524.1,152.0 524.2,152.0 524.3,152.0 524.4,152.0 524.5,152.0 524.6,152.0 524.7,152.0 524.8,152.0 524.9,152.0 525.0,152.0 525.1,152.0 525.2,152.0 525.3,152.0 525.4,152.0 525.5,152.0 525.6,152.0 525.7,152.0 525.8,152.0 525.9,152.0 526.0,152.0 526.1,152.0 526.2,152.0 526.3,152.0 526.4,152.0 526.5,152.0 526.6,152.0 526.7,152.0 526.8,152.0 526.9,152.0 527.0,152.0" fill="none" stroke="#4a90d9" stroke-width="1.2" stroke-linejoin="round"/>
  <text x="154.5" y="176" text-anchor="middle" font-size="8" fill="#6b7280">n / N</text>
  <text x="424.5" y="176" text-anchor="middle" font-size="8" fill="#6b7280">Normalized frequency (× Fₛ)</text>
</svg>
