<svg xmlns="http://www.w3.org/2000/svg" viewBox="0 0 800 230" style="font-family:system-ui,-apple-system,sans-serif">
  <line x1="42" y1="182.0" x2="377" y2="182.0" stroke="#e5e7eb" stroke-width="0.7"/>
  <text x="37" y="186.0" text-anchor="end" font-size="10" fill="#6b7280">0</text>
  <line x1="42" y1="95.0" x2="377" y2="95.0" stroke="#e5e7eb" stroke-width="0.7"/>
  <text x="37" y="99.0" text-anchor="end" font-size="10" fill="#6b7280">0.5</text>
  <line x1="42" y1="8.0" x2="377" y2="8.0" stroke="#e5e7eb" stroke-width="0.7"/>
  <text x="37" y="12.0" text-anchor="end" font-size="10" fill="#6b7280">1</text>
  <line x1="42.0" y1="8" x2="42.0" y2="182" stroke="#e5e7eb" stroke-width="0.7"/>
  <text x="42.0" y="198" text-anchor="middle" font-size="10" fill="#6b7280">0</text>
  <line x1="209.5" y1="8" x2="209.5" y2="182" stroke="#e5e7eb" stroke-width="0.7"/>
  <text x="209.5" y="198" text-anchor="middle" font-size="10" fill="#6b7280">0.5</text>
  <line x1="377.0" y1="8" x2="377.0" y2="182" stroke="#e5e7eb" stroke-width="0.7"/>
  <text x="377.0" y="198" text-anchor="middle" font-size="10" fill="#6b7280">1</text>
  <line x1="42" y1="8" x2="42" y2="182" stroke="#d1d5db" stroke-width="1"/>
  <line x1="42" y1="182" x2="377" y2="182" stroke="#d1d5db" stroke-width="1"/>
  <path d="M42.0,182.0 42.0,182.0 43.3,181.9 44.6,181.6 45.9,181.1 47.3,180.3 48.6,179.4 49.9,178.2 51.2,176.9 52.5,175.3 53.8,173.6 55.1,171.6 56.5,169.5 57.8,167.2 59.1,164.7 60.4,162.1 61.7,159.3 63.0,156.3 64.3,153.2 65.6,150.0 67.0,146.6 68.3,143.1 69.6,139.4 70.9,135.7 72.2,131.8 73.5,127.9 74.8,123.9 76.2,119.8 77.5,115.7 78.8,111.5 80.1,107.3 81.4,103.0 82.7,98.8 84.0,94.5 85.4,90.2 86.7,85.9 88.0,81.7 89.3,77.4 90.6,73.3 91.9,69.1 93.2,65.1 94.5,61.1 95.9,57.2 97.2,53.4 98.5,49.7 99.8,46.1 101.1,42.6 102.4,39.2 103.7,36.0 105.1,32.9 106.4,30.0 107.7,27.2 109.0,24.6 110.3,22.2 111.6,19.9 112.9,17.9 114.3,16.0 115.6,14.3 116.9,12.8 118.2,11.5 119.5,10.4 120.8,9.5 122.1,8.8 123.5,8.3 124.8,8.1 126.1,8.0 127.4,8.0 128.7,8.0 130.0,8.0 131.3,8.0 132.6,8.0 134.0,8.0 135.3,8.0 136.6,8.0 137.9,8.0 139.2,8.0 140.5,8.0 141.8,8.0 143.2,8.0 144.5,8.0 145.8,8.0 147.1,8.0 148.4,8.0 149.7,8.0 151.0,8.0 152.4,8.0 153.7,8.0 155.0,8.0 156.3,8.0 157.6,8.0 158.9,8.0 160.2,8.0 161.5,8.0 162.9,8.0 164.2,8.0 165.5,8.0 166.8,8.0 168.1,8.0 169.4,8.0 170.7,8.0 172.1,8.0 173.4,8.0 174.7,8.0 176.0,8.0 177.3,8.0 178.6,8.0 179.9,8.0 181.3,8.0 182.6,8.0 183.9,8.0 185.2,8.0 186.5,8.0 187.8,8.0 189.1,8.0 190.5,8.0 191.8,8.0 193.1,8.0 194.4,8.0 195.7,8.0 197.0,8.0 198.3,8.0 199.6,8.0 201.0,8.0 202.3,8.0 203.6,8.0 204.9,8.0 206.2,8.0 207.5,8.0 208.8,8.0 210.2,8.0 211.5,8.0 212.8,8.0 214.1,8.0 215.4,8.0 216.7,8.0 218.0,8.0 219.4,8.0 220.7,8.0 222.0,8.0 223.3,8.0 224.6,8.0 225.9,8.0 227.2,8.0 228.5,8.0 229.9,8.0 231.2,8.0 232.5,8.0 233.8,8.0 235.1,8.0 236.4,8.0 237.7,8.0 239.1,8.0 240.4,8.0 241.7,8.0 243.0,8.0 244.3,8.0 245.6,8.0 246.9,8.0 248.3,8.0 249.6,8.0 250.9,8.0 252.2,8.0 253.5,8.0 254.8,8.0 256.1,8.0 257.5,8.0 258.8,8.0 260.1,8.0 261.4,8.0 262.7,8.0 264.0,8.0 265.3,8.0 266.6,8.0 268.0,8.0 269.3,8.0 270.6,8.0 271.9,8.0 273.2,8.0 274.5,8.0 275.8,8.0 277.2,8.0 278.5,8.0 279.8,8.0 281.1,8.0 282.4,8.0 283.7,8.0 285.0,8.0 286.4,8.0 287.7,8.0 289.0,8.0 290.3,8.0 291.6,8.0 292.9,8.0 294.2,8.1 295.5,8.3 296.9,8.8 298.2,9.5 299.5,10.4 300.8,11.5 302.1,12.8 303.4,14.3 304.7,16.0 306.1,17.9 307.4,19.9 308.7,22.2 310.0,24.6 311.3,27.2 312.6,30.0 313.9,32.9 315.3,36.0 316.6,39.2 317.9,42.6 319.2,46.1 320.5,49.7 321.8,53.4 323.1,57.2 324.5,61.1 325.8,65.1 327.1,69.1 328.4,73.3 329.7,77.4 331.0,81.7 332.3,85.9 333.6,90.2 335.0,94.5 336.3,98.8 337.6,103.0 338.9,107.3 340.2,111.5 341.5,115.7 342.8,119.8 344.2,123.9 345.5,127.9 346.8,131.8 348.1,135.7 349.4,139.4 350.7,143.1 352.0,146.6 353.4,150.0 354.7,153.2 356.0,156.3 357.3,159.3 358.6,162.1 359.9,164.7 361.2,167.2 362.5,169.5 363.9,171.6 365.2,173.6 366.5,175.3 367.8,176.9 369.1,178.2 370.4,179.4 371.7,180.3 373.1,181.1 374.4,181.6 375.7,181.9 377.0,182.0 L377.0,182.0 Z" fill="#4a90d9" fill-opacity="0.06"/>
  <polyline points="42.0,182.0 43.3,181.9 44.6,181.6 45.9,181.1 47.3,180.3 48.6,179.4 49.9,178.2 51.2,176.9 52.5,175.3 53.8,173.6 55.1,171.6 56.5,169.5 57.8,167.2 59.1,164.7 60.4,162.1 61.7,159.3 63.0,156.3 64.3,153.2 65.6,150.0 67.0,146.6 68.3,143.1 69.6,139.4 70.9,135.7 72.2,131.8 73.5,127.9 74.8,123.9 76.2,119.8 77.5,115.7 78.8,111.5 80.1,107.3 81.4,103.0 82.7,98.8 84.0,94.5 85.4,90.2 86.7,85.9 88.0,81.7 89.3,77.4 90.6,73.3 91.9,69.1 93.2,65.1 94.5,61.1 95.9,57.2 97.2,53.4 98.5,49.7 99.8,46.1 101.1,42.6 102.4,39.2 103.7,36.0 105.1,32.9 106.4,30.0 107.7,27.2 109.0,24.6 110.3,22.2 111.6,19.9 112.9,17.9 114.3,16.0 115.6,14.3 116.9,12.8 118.2,11.5 119.5,10.4 120.8,9.5 122.1,8.8 123.5,8.3 124.8,8.1 126.1,8.0 127.4,8.0 128.7,8.0 130.0,8.0 131.3,8.0 132.6,8.0 134.0,8.0 135.3,8.0 136.6,8.0 137.9,8.0 139.2,8.0 140.5,8.0 141.8,8.0 143.2,8.0 144.5,8.0 145.8,8.0 147.1,8.0 148.4,8.0 149.7,8.0 151.0,8.0 152.4,8.0 153.7,8.0 155.0,8.0 156.3,8.0 157.6,8.0 158.9,8.0 160.2,8.0 161.5,8.0 162.9,8.0 164.2,8.0 165.5,8.0 166.8,8.0 168.1,8.0 169.4,8.0 170.7,8.0 172.1,8.0 173.4,8.0 174.7,8.0 176.0,8.0 177.3,8.0 178.6,8.0 179.9,8.0 181.3,8.0 182.6,8.0 183.9,8.0 185.2,8.0 186.5,8.0 187.8,8.0 189.1,8.0 190.5,8.0 191.8,8.0 193.1,8.0 194.4,8.0 195.7,8.0 197.0,8.0 198.3,8.0 199.6,8.0 201.0,8.0 202.3,8.0 203.6,8.0 204.9,8.0 206.2,8.0 207.5,8.0 208.8,8.0 210.2,8.0 211.5,8.0 212.8,8.0 214.1,8.0 215.4,8.0 216.7,8.0 218.0,8.0 219.4,8.0 220.7,8.0 222.0,8.0 223.3,8.0 224.6,8.0 225.9,8.0 227.2,8.0 228.5,8.0 229.9,8.0 231.2,8.0 232.5,8.0 233.8,8.0 235.1,8.0 236.4,8.0 237.7,8.0 239.1,8.0 240.4,8.0 241.7,8.0 243.0,8.0 244.3,8.0 245.6,8.0 246.9,8.0 248.3,8.0 249.6,8.0 250.9,8.0 252.2,8.0 253.5,8.0 254.8,8.0 256.1,8.0 257.5,8.0 258.8,8.0 260.1,8.0 261.4,8.0 262.7,8.0 264.0,8.0 265.3,8.0 266.6,8.0 268.0,8.0 269.3,8.0 270.6,8.0 271.9,8.0 273.2,8.0 274.5,8.0 275.8,8.0 277.2,8.0 278.5,8.0 279.8,8.0 281.1,8.0 282.4,8.0 283.7,8.0 285.0,8.0 286.4,8.0 287.7,8.0 289.0,8.0 290.3,8.0 291.6,8.0 292.9,8.0 294.2,8.1 295.5,8.3 296.9,8.8 298.2,9.5 299.5,10.4 300.8,11.5 302.1,12.8 303.4,14.3 304.7,16.0 306.1,17.9 307.4,19.9 308.7,22.2 310.0,24.6 311.3,27.2 312.6,30.0 313.9,32.9 315.3,36.0 316.6,39.2 317.9,42.6 319.2,46.1 320.5,49.7 321.8,53.4 323.1,57.2 324.5,61.1 325.8,65.1 327.1,69.1 328.4,73.3 329.7,77.4 331.0,81.7 332.3,85.9 333.6,90.2 335.0,94.5 336.3,98.8 337.6,103.0 338.9,107.3 340.2,111.5 341.5,115.7 342.8,119.8 344.2,123.9 345.5,127.9 346.8,131.8 348.1,135.7 349.4,139.4 350.7,143.1 352.0,146.6 353.4,150.0 354.7,153.2 356.0,156.3 357.3,159.3 358.6,162.1 359.9,164.7 361.2,167.2 362.5,169.5 363.9,171.6 365.2,173.6 366.5,175.3 367.8,176.9 369.1,178.2 370.4,179.4 371.7,180.3 373.1,181.1 374.4,181.6 375.7,181.9 377.0,182.0" fill="none" stroke="#4a90d9" stroke-width="1.5" stroke-linejoin="round"/>
  <line x1="450" y1="8.0" x2="785" y2="8.0" stroke="#e5e7eb" stroke-width="0.7"/>
  <text x="445" y="12.0" text-anchor="end" font-size="10" fill="#6b7280">0</text>
  <line x1="450" y1="66.0" x2="785" y2="66.0" stroke="#e5e7eb" stroke-width="0.7"/>
  <text x="445" y="70.0" text-anchor="end" font-size="10" fill="#6b7280">-40</text>
  <line x1="450" y1="124.0" x2="785" y2="124.0" stroke="#e5e7eb" stroke-width="0.7"/>
  <text x="445" y="128.0" text-anchor="end" font-size="10" fill="#6b7280">-80</text>
  <line x1="450" y1="182.0" x2="785" y2="182.0" stroke="#e5e7eb" stroke-width="0.7"/>
  <text x="445" y="186.0" text-anchor="end" font-size="10" fill="#6b7280">-120</text>
  <line x1="450.0" y1="8" x2="450.0" y2="182" stroke="#e5e7eb" stroke-width="0.7"/>
  <text x="450.0" y="198" text-anchor="middle" font-size="10" fill="#6b7280">0</text>
  <line x1="517.0" y1="8" x2="517.0" y2="182" stroke="#e5e7eb" stroke-width="0.7"/>
  <text x="517.0" y="198" text-anchor="middle" font-size="10" fill="#6b7280">0.1</text>
  <line x1="584.0" y1="8" x2="584.0" y2="182" stroke="#e5e7eb" stroke-width="0.7"/>
  <text x="584.0" y="198" text-anchor="middle" font-size="10" fill="#6b7280">0.2</text>
  <line x1="651.0" y1="8" x2="651.0" y2="182" stroke="#e5e7eb" stroke-width="0.7"/>
  <text x="651.0" y="198" text-anchor="middle" font-size="10" fill="#6b7280">0.3</text>
  <line x1="718.0" y1="8" x2="718.0" y2="182" stroke="#e5e7eb" stroke-width="0.7"/>
  <text x="718.0" y="198" text-anchor="middle" font-size="10" fill="#6b7280">0.4</text>
  <line x1="785.0" y1="8" x2="785.0" y2="182" stroke="#e5e7eb" stroke-width="0.7"/>
  <text x="785.0" y="198" text-anchor="middle" font-size="10" fill="#6b7280">0.5</text>
  <line x1="450" y1="8" x2="450" y2="182" stroke="#d1d5db" stroke-width="1"/>
  <line x1="450" y1="182" x2="785" y2="182" stroke="#d1d5db" stroke-width="1"/>
  <polyline points="450.0,8.0 450.2,8.0 450.3,8.2 450.5,8.4 450.7,8.8 450.8,9.2 451.0,9.8 451.1,10.4 451.3,11.2 451.5,12.1 451.6,13.2 451.8,14.4 452.0,15.8 452.1,17.3 452.3,19.2 452.5,21.3 452.6,23.7 452.8,26.7 452.9,30.4 453.1,35.3 453.3,42.6 453.4,58.6 453.6,55.1 453.8,43.4 453.9,38.0 454.1,34.9 454.3,32.8 454.4,31.4 454.6,30.5 454.7,30.1 454.9,29.9 455.1,30.1 455.2,30.5 455.4,31.2 455.6,32.1 455.7,33.4 455.9,35.0 456.1,36.9 456.2,39.4 456.4,42.4 456.5,46.5 456.7,52.4 456.9,62.7 457.0,83.6 457.2,59.7 457.4,52.6 457.5,48.6 457.7,46.1 457.9,44.4 458.0,43.3 458.2,42.7 458.3,42.4 458.5,42.4 458.7,42.7 458.8,43.3 459.0,44.2 459.2,45.4 459.3,46.9 459.5,48.7 459.7,51.0 459.8,53.9 460.0,57.6 460.1,62.7 460.3,70.6 460.5,91.5 460.6,78.5 460.8,68.6 461.0,63.9 461.1,61.1 461.3,59.3 461.5,58.2 461.6,57.6 461.8,57.4 461.9,57.5 462.1,58.0 462.3,58.8 462.4,59.9 462.6,61.3 462.8,63.1 462.9,65.2 463.1,67.8 463.3,70.9 463.4,74.7 463.6,79.7 463.7,86.8 463.9,99.7 464.1,110.0 464.2,94.2 464.4,89.1 464.6,86.9 464.7,86.2 464.9,86.6 465.1,88.0 465.2,90.4 465.4,94.4 465.5,101.2 465.7,117.7 465.9,111.8 466.0,100.5 466.2,95.5 466.4,92.8 466.5,91.4 466.7,91.2 466.9,91.9 467.0,93.8 467.2,97.4 467.3,104.6 467.5,135.9 467.7,105.3 467.8,95.6 468.0,90.1 468.2,86.3 468.3,83.5 468.5,81.4 468.7,79.9 468.8,78.7 469.0,78.0 469.1,77.6 469.3,77.5 469.5,77.7 469.6,78.2 469.8,79.0 470.0,80.3 470.1,81.9 470.3,84.1 470.5,87.1 470.6,91.3 470.8,97.8 470.9,111.8 471.1,112.2 471.3,98.8 471.4,92.9 471.6,89.3 471.8,86.9 471.9,85.3 472.1,84.3 472.3,83.6 472.4,83.4 472.6,83.5 472.7,83.9 472.9,84.6 473.1,85.7 473.2,87.1 473.4,88.8 473.6,91.0 473.7,93.7 473.9,97.1 474.1,101.5 474.2,107.7 474.4,118.0 474.5,149.8 474.7,118.6 474.9,112.1 475.0,109.1 475.2,107.8 475.4,107.7 475.5,108.7 475.7,110.7 475.9,114.0 476.0,119.7 476.2,131.6 476.3,138.4 476.5,122.5 476.7,116.3 476.8,113.0 477.0,111.2 477.2,110.5 477.3,110.8 477.5,112.2 477.7,115.1 477.8,120.9 478.0,137.3 478.1,127.9 478.3,115.7 478.5,109.3 478.6,105.1 478.8,101.9 479.0,99.6 479.1,97.8 479.3,96.4 479.5,95.4 479.6,94.8 479.8,94.5 479.9,94.5 480.1,94.8 480.3,95.4 480.4,96.4 480.6,97.9 480.8,99.8 480.9,102.5 481.1,106.2 481.3,111.8 481.4,122.5 481.6,136.7 481.7,116.6 481.9,109.6 482.1,105.5 482.2,102.8 482.4,100.9 482.6,99.6 482.7,98.8 482.9,98.4 483.1,98.3 483.2,98.5 483.4,99.1 483.5,100.0 483.7,101.2 483.9,102.7 484.0,104.7 484.2,107.2 484.4,110.3 484.5,114.3 484.7,119.8 484.9,128.5 485.0,154.0 485.2,135.3 485.3,126.9 485.5,123.2 485.7,121.5 485.8,121.1 486.0,121.7 486.2,123.3 486.3,126.2 486.5,131.0 486.7,140.3 486.8,165.7 487.0,137.8 487.1,130.4 487.3,126.4 487.5,124.2 487.6,123.2 487.8,123.2 488.0,124.2 488.1,126.6 488.3,131.4 488.5,142.8 488.6,146.2 488.8,130.0 488.9,122.8 489.1,118.0 489.3,114.6 489.4,112.0 489.6,110.0 489.8,108.5 489.9,107.4 490.1,106.6 490.3,106.2 490.4,106.0 490.6,106.2 490.7,106.7 490.9,107.6 491.1,108.8 491.2,110.6 491.4,113.0 491.6,116.3 491.7,121.3 491.9,130.0 492.1,182.0 492.2,130.3 492.4,121.9 492.6,117.2 492.7,114.2 492.9,112.1 493.0,110.6 493.2,109.6 493.4,109.1 493.5,108.9 493.7,109.0 493.9,109.4 494.0,110.2 494.2,111.2 494.4,112.7 494.5,114.5 494.7,116.8 494.8,119.7 495.0,123.4 495.2,128.4 495.3,135.9 495.5,152.3 495.7,149.4 495.8,138.3 496.0,133.8 496.2,131.7 496.3,130.9 496.5,131.2 496.6,132.5 496.8,135.0 497.0,139.2 497.1,146.8 497.3,173.5 497.5,150.5 497.6,141.3 497.8,136.7 498.0,134.1 498.1,132.8 498.3,132.5 498.4,133.2 498.6,135.2 498.8,139.2 498.9,147.8 499.1,167.2 499.3,141.8 499.4,133.4 499.6,128.2 499.8,124.4 499.9,121.6 500.1,119.5 500.2,117.8 500.4,116.6 500.6,115.7 500.7,115.1 500.9,114.9 501.1,114.9 501.2,115.3 501.4,116.0 501.6,117.2 501.7,118.8 501.9,120.9 502.0,124.0 502.2,128.4 502.4,135.7 502.5,155.9 502.7,142.3 502.9,131.9 503.0,126.6 503.2,123.2 503.4,120.9 503.5,119.3 503.7,118.1 503.8,117.5 504.0,117.1 504.2,117.1 504.3,117.5 504.5,118.1 504.7,119.1 504.8,120.4 505.0,122.1 505.2,124.2 505.3,126.9 505.5,130.3 505.6,134.9 505.8,141.6 506.0,154.0 506.1,164.1 506.3,147.9 506.5,142.5 506.6,139.8 506.8,138.8 507.0,138.8 507.1,139.8 507.3,142.0 507.4,145.6 507.6,152.0 507.8,167.8 507.9,162.5 508.1,150.6 508.3,145.3 508.4,142.2 508.6,140.6 508.8,140.0 508.9,140.4 509.1,142.0 509.2,145.4 509.4,152.3 509.6,182.0 509.7,152.4 509.9,142.4 510.1,136.6 510.2,132.6 510.4,129.5 510.6,127.2 510.7,125.4 510.9,124.0 511.0,123.0 511.2,122.4 511.4,122.0 511.5,122.0 511.7,122.3 511.9,122.9 512.0,123.9 512.2,125.3 512.4,127.4 512.5,130.1 512.7,134.1 512.8,140.4 513.0,154.2 513.2,154.3 513.3,140.7 513.5,134.6 513.7,130.8 513.8,128.2 514.0,126.4 514.2,125.2 514.3,124.4 514.5,123.9 514.6,123.9 514.8,124.1 515.0,124.6 515.1,125.5 515.3,126.7 515.5,128.2 515.6,130.2 515.8,132.8 516.0,136.0 516.1,140.2 516.3,146.2 516.4,156.3 516.6,182.0 516.8,156.7 516.9,149.9 517.1,146.8 517.3,145.4 517.4,145.1 517.6,145.9 517.8,147.7 517.9,150.9 518.1,156.3 518.2,167.7 518.4,175.8 518.6,159.0 518.7,152.7 518.9,149.2 519.1,147.2 519.2,146.3 519.4,146.5 519.6,147.7 519.7,150.6 519.9,156.2 520.0,172.7 520.2,162.6 520.4,150.4 520.5,144.0 520.7,139.6 520.9,136.3 521.0,133.8 521.2,131.9 521.4,130.4 521.5,129.3 521.7,128.5 521.8,128.1 522.0,128.0 522.2,128.2 522.3,128.7 522.5,129.6 522.7,130.9 522.8,132.7 523.0,135.3 523.2,138.9 523.3,144.4 523.5,155.0 523.6,168.7 523.8,148.7 524.0,141.6 524.1,137.4 524.3,134.6 524.5,132.6 524.6,131.2 524.8,130.3 525.0,129.7 525.1,129.6 525.3,129.7 525.4,130.2 525.6,130.9 525.8,132.0 525.9,133.5 526.1,135.3 526.3,137.7 526.4,140.7 526.6,144.6 526.8,150.0 526.9,158.6 527.1,182.0 527.2,165.2 527.4,156.7 527.6,152.9 527.7,151.1 527.9,150.6 528.1,151.0 528.2,152.6 528.4,155.3 528.6,160.0 528.7,169.0 528.9,182.0 529.0,167.1 529.2,159.4 529.4,155.3 529.5,153.0 529.7,151.9 529.9,151.7 530.0,152.7 530.2,155.1 530.4,159.8 530.5,171.3 530.7,173.8 530.8,157.9 531.0,150.6 531.2,145.8 531.3,142.3 531.5,139.6 531.7,137.6 531.8,136.0 532.0,134.7 532.2,133.9 532.3,133.4 532.5,133.2 532.6,133.3 532.8,133.7 533.0,134.5 533.1,135.6 533.3,137.3 533.5,139.7 533.6,142.9 533.8,147.8 534.0,156.5 534.1,182.0 534.3,156.5 534.4,148.0 534.6,143.3 534.8,140.2 534.9,138.0 535.1,136.5 535.3,135.5 535.4,134.8 535.6,134.5 535.8,134.6 535.9,135.0 536.1,135.6 536.2,136.6 536.4,138.0 536.6,139.7 536.7,141.9 536.9,144.8 537.1,148.4 537.2,153.4 537.4,160.8 537.6,177.1 537.7,174.2 537.9,163.0 538.0,158.4 538.2,156.2 538.4,155.4 538.5,155.6 538.7,156.8 538.9,159.2 539.0,163.2 539.2,170.6 539.4,182.0 539.5,175.4 539.7,165.7 539.8,161.0 540.0,158.3 540.2,156.8 540.3,156.4 540.5,157.1 540.7,159.1 540.8,163.0 541.0,171.9 541.2,182.0 541.3,165.0 541.5,156.7 541.6,151.4 541.8,147.7 542.0,144.8 542.1,142.6 542.3,140.9 542.5,139.6 542.6,138.7 542.8,138.0 543.0,137.7 543.1,137.7 543.3,138.1 543.4,138.8 543.6,139.8 543.8,141.4 543.9,143.5 544.1,146.5 544.3,150.9 544.4,158.2 544.6,179.0 544.8,164.4 544.9,154.1 545.1,148.7 545.2,145.3 545.4,142.9 545.6,141.2 545.7,140.1 545.9,139.3 546.1,139.0 546.2,138.9 546.4,139.2 546.6,139.8 546.7,140.7 546.9,142.0 547.0,143.6 547.2,145.7 547.4,148.3 547.5,151.7 547.7,156.3 547.9,162.9 548.0,175.2 548.2,182.0 548.4,169.1 548.5,163.5 548.7,160.9 548.8,159.7 549.0,159.7 549.2,160.6 549.3,162.7 549.5,166.2 549.7,172.3 549.8,182.0 550.0,182.0 550.2,171.9 550.3,166.3 550.5,163.1 550.6,161.4 550.8,160.7 551.0,161.1 551.1,162.7 551.3,166.1 551.5,173.1 551.6,182.0 551.8,172.2 552.0,162.4 552.1,156.7 552.3,152.6 552.4,149.6 552.6,147.2 552.8,145.4 552.9,144.0 553.1,142.9 553.3,142.2 553.4,141.9 553.6,141.8 553.8,142.0 553.9,142.6 554.1,143.6 554.2,145.0 554.4,147.0 554.6,149.7 554.7,153.7 554.9,160.0 555.1,174.1 555.2,173.2 555.4,159.8 555.6,153.8 555.7,150.0 555.9,147.4 556.0,145.5 556.2,144.3 556.4,143.4 556.5,143.0 556.7,142.8 556.9,143.0 557.0,143.5 557.2,144.4 557.4,145.5 557.5,147.0 557.7,149.0 557.8,151.5 558.0,154.7 558.2,158.8 558.3,164.8 558.5,174.8 558.7,182.0 558.8,175.2 559.0,168.4 559.2,165.2 559.3,163.7 559.5,163.4 559.6,164.1 559.8,165.8 560.0,168.8 560.1,174.0 560.3,182.0 560.5,182.0 560.6,178.1 560.8,171.4 561.0,167.7 561.1,165.6 561.3,164.7 561.4,164.8 561.6,166.1 561.8,168.9 561.9,174.8 562.1,182.0 562.3,179.6 562.4,167.9 562.6,161.6 562.8,157.2 562.9,154.0 563.1,151.5 563.2,149.5 563.4,148.0 563.6,146.9 563.7,146.1 563.9,145.6 564.1,145.5 564.2,145.6 564.4,146.1 564.6,147.0 564.7,148.3 564.9,150.1 565.0,152.6 565.2,156.2 565.4,161.8 565.5,172.6 565.7,182.0 565.9,165.6 566.0,158.6 566.2,154.4 566.4,151.5 566.5,149.5 566.7,148.1 566.8,147.2 567.0,146.6 567.2,146.4 567.3,146.5 567.5,146.9 567.7,147.7 567.8,148.7 568.0,150.1 568.2,152.0 568.3,154.3 568.5,157.3 568.6,161.2 568.8,166.5 569.0,175.1 569.1,182.0 569.3,181.7 569.5,173.1 569.6,169.3 569.8,167.4 570.0,166.8 570.1,167.2 570.3,168.6 570.4,171.3 570.6,175.7 570.8,182.0 570.9,182.0 571.1,182.0 571.3,176.4 571.4,172.1 571.6,169.6 571.8,168.4 571.9,168.3 572.1,169.3 572.2,171.7 572.4,176.6 572.6,182.0 572.7,182.0 572.9,173.3 573.1,166.2 573.2,161.5 573.4,158.1 573.6,155.4 573.7,153.3 573.9,151.7 574.0,150.5 574.2,149.6 574.4,149.1 574.5,148.8 574.7,148.9 574.9,149.3 575.0,150.1 575.2,151.3 575.4,153.0 575.5,155.3 575.7,158.6 575.9,163.5 576.0,172.4 576.2,182.0 576.3,171.4 576.5,163.2 576.7,158.5 576.8,155.4 577.0,153.2 577.2,151.7 577.3,150.6 577.5,150.0 577.7,149.7 577.8,149.7 578.0,150.0 578.1,150.7 578.3,151.7 578.5,153.0 578.6,154.7 578.8,156.9 579.0,159.7 579.1,163.3 579.3,168.2 579.5,175.6 579.6,182.0 579.8,182.0 579.9,177.8 580.1,173.2 580.3,170.9 580.4,170.0 580.6,170.2 580.8,171.3 580.9,173.5 581.1,177.3 581.3,182.0 581.4,182.0 581.6,182.0 581.7,181.6 581.9,176.5 582.1,173.6 582.2,172.0 582.4,171.6 582.6,172.3 582.7,174.3 582.9,178.5 583.1,182.0 583.2,182.0 583.4,178.6 583.5,170.7 583.7,165.6 583.9,161.9 584.0,159.1 584.2,156.9 584.4,155.2 584.5,153.9 584.7,152.9 584.9,152.3 585.0,152.0 585.2,152.0 585.3,152.3 585.5,153.0 585.7,154.1 585.8,155.6 586.0,157.7 586.2,160.8 586.3,165.2 586.5,172.7 586.7,182.0 586.8,177.6 587.0,167.7 587.1,162.5 587.3,159.1 587.5,156.7 587.6,155.0 587.8,153.8 588.0,153.1 588.1,152.7 588.3,152.7 588.5,152.9 588.6,153.5 588.8,154.4 588.9,155.6 589.1,157.2 589.3,159.3 589.4,161.9 589.6,165.2 589.8,169.7 589.9,176.3 590.1,182.0 590.3,182.0 590.4,182.0 590.6,177.0 590.7,174.3 590.9,173.1 591.1,172.9 591.2,173.8 591.4,175.7 591.6,178.9 591.7,182.0 591.9,182.0 592.1,182.0 592.2,182.0 592.4,180.8 592.5,177.4 592.7,175.5 592.9,174.8 593.0,175.2 593.2,176.9 593.4,180.5 593.5,182.0 593.7,182.0 593.9,182.0 594.0,175.0 594.2,169.5 594.3,165.6 594.5,162.6 594.7,160.2 594.8,158.4 595.0,157.0 595.2,156.0 595.3,155.3 595.5,154.9 595.7,154.8 595.8,155.1 596.0,155.7 596.1,156.6 596.3,158.1 596.5,160.1 596.6,162.8 596.8,166.9 597.0,173.4 597.1,182.0 597.3,182.0 597.5,172.2 597.6,166.3 597.8,162.5 597.9,160.0 598.1,158.1 598.3,156.9 598.4,156.0 598.6,155.6 598.8,155.4 598.9,155.6 599.1,156.1 599.3,156.9 599.4,158.0 599.6,159.5 599.7,161.5 599.9,163.9 600.1,167.0 600.2,171.2 600.4,177.0 600.6,182.0 600.7,182.0 600.9,182.0 601.1,180.8 601.2,177.5 601.4,176.0 601.5,175.6 601.7,176.1 601.9,177.7 602.0,180.4 602.2,182.0 602.4,182.0 602.5,182.0 602.7,182.0 602.9,182.0 603.0,181.3 603.2,179.0 603.3,178.0 603.5,178.2 603.7,179.5 603.8,182.0 604.0,182.0 604.2,182.0 604.3,182.0 604.5,179.1 604.7,173.2 604.8,169.0 605.0,165.9 605.1,163.4 605.3,161.5 605.5,160.0 605.6,158.9 605.8,158.1 606.0,157.7 606.1,157.5 606.3,157.7 606.5,158.2 606.6,159.1 606.8,160.4 606.9,162.2 607.1,164.8 607.3,168.5 607.4,174.2 607.6,182.0 607.8,182.0 607.9,176.7 608.1,170.0 608.3,165.9 608.4,163.1 608.6,161.1 608.7,159.7 608.9,158.8 609.1,158.2 609.2,158.0 609.4,158.1 609.6,158.5 609.7,159.2 609.9,160.3 610.1,161.7 610.2,163.5 610.4,165.8 610.5,168.7 610.7,172.6 610.9,177.8 611.0,182.0 611.2,182.0 611.4,182.0 611.5,182.0 611.7,180.7 611.9,178.8 612.0,178.1 612.2,178.4 612.3,179.6 612.5,181.9 612.7,182.0 612.8,182.0 613.0,182.0 613.2,182.0 613.3,182.0 613.5,182.0 613.7,182.0 613.8,181.3 614.0,181.1 614.1,182.0 614.3,182.0 614.5,182.0 614.6,182.0 614.8,182.0 615.0,182.0 615.1,176.8 615.3,172.4 615.5,169.0 615.6,166.5 615.8,164.5 615.9,162.9 616.1,161.7 616.3,160.8 616.4,160.3 616.6,160.1 616.8,160.2 616.9,160.6 617.1,161.4 617.3,162.6 617.4,164.3 617.6,166.7 617.7,170.1 617.9,175.2 618.1,182.0 618.2,182.0 618.4,181.3 618.6,173.6 618.7,169.1 618.9,166.1 619.1,164.0 619.2,162.5 619.4,161.4 619.5,160.8 619.7,160.5 619.9,160.5 620.0,160.8 620.2,161.5 620.4,162.4 620.5,163.7 620.7,165.4 620.9,167.6 621.0,170.3 621.2,173.9 621.3,178.7 621.5,182.0 621.7,182.0 621.8,182.0 622.0,182.0 622.2,182.0 622.3,181.5 622.5,180.5 622.7,180.5 622.8,181.5 623.0,182.0 623.1,182.0 623.3,182.0 623.5,182.0 623.6,182.0 623.8,182.0 624.0,182.0 624.1,182.0 624.3,182.0 624.5,182.0 624.6,182.0 624.8,182.0 624.9,182.0 625.1,182.0 625.3,182.0 625.4,182.0 625.6,180.2 625.8,175.5 625.9,172.1 626.1,169.4 626.3,167.3 626.4,165.6 626.6,164.3 626.7,163.4 626.9,162.8 627.1,162.5 627.2,162.6 627.4,162.9 627.6,163.6 627.7,164.7 627.9,166.3 628.1,168.5 628.2,171.7 628.4,176.3 628.5,182.0 628.7,182.0 628.9,182.0 629.0,177.2 629.2,172.3 629.4,169.0 629.5,166.7 629.7,165.1 629.9,163.9 630.0,163.2 630.2,162.8 630.3,162.7 630.5,163.0 630.7,163.5 630.8,164.4 631.0,165.6 631.2,167.2 631.3,169.2 631.5,171.8 631.7,175.1 631.8,179.5 632.0,182.0 632.1,182.0 632.3,182.0 632.5,182.0 632.6,182.0 632.8,182.0 633.0,182.0 633.1,182.0 633.3,182.0 633.5,182.0 633.6,182.0 633.8,182.0 633.9,182.0 634.1,182.0 634.3,182.0 634.4,182.0 634.6,182.0 634.8,182.0 634.9,182.0 635.1,182.0 635.3,182.0 635.4,182.0 635.6,182.0 635.7,182.0 635.9,182.0 636.1,182.0 636.2,178.6 636.4,174.9 636.6,172.2 636.7,170.0 636.9,168.2 637.1,166.9 637.2,165.9 637.4,165.2 637.5,164.9 637.7,164.9 637.9,165.1 638.0,165.8 638.2,166.8 638.4,168.2 638.5,170.3 638.7,173.2 638.9,177.5 639.0,182.0 639.2,182.0 639.3,182.0 639.5,180.8 639.7,175.3 639.8,171.8 640.0,169.3 640.2,167.6 640.3,166.3 640.5,165.5 640.7,165.0 640.8,164.9 641.0,165.1 641.1,165.5 641.3,166.3 641.5,167.4 641.6,168.9 641.8,170.8 642.0,173.2 642.1,176.3 642.3,180.3 642.5,182.0 642.6,182.0 642.8,182.0 642.9,182.0 643.1,182.0 643.3,182.0 643.4,182.0 643.6,182.0 643.8,182.0 643.9,182.0 644.1,182.0 644.3,182.0 644.4,182.0 644.6,182.0 644.7,182.0 644.9,182.0 645.1,182.0 645.2,182.0 645.4,182.0 645.6,182.0 645.7,182.0 645.9,182.0 646.1,182.0 646.2,182.0 646.4,182.0 646.5,182.0 646.7,181.4 646.9,177.7 647.0,174.8 647.2,172.5 647.4,170.7 647.5,169.3 647.7,168.3 647.9,167.6 648.0,167.2 648.2,167.1 648.3,167.3 648.5,167.8 648.7,168.8 648.8,170.1 649.0,172.1 649.2,174.8 649.3,178.7 649.5,182.0 649.7,182.0 649.8,182.0 650.0,182.0 650.1,178.3 650.3,174.5 650.5,171.9 650.6,170.0 650.8,168.6 651.0,167.7 651.1,167.2 651.3,166.9 651.5,167.0 651.6,167.4 651.8,168.2 651.9,169.2 652.1,170.5 652.3,172.3 652.4,174.6 652.6,177.4 652.8,181.1 652.9,182.0 653.1,182.0 653.3,182.0 653.4,182.0 653.6,182.0 653.7,182.0 653.9,182.0 654.1,182.0 654.2,182.0 654.4,182.0 654.6,182.0 654.7,182.0 654.9,182.0 655.1,182.0 655.2,182.0 655.4,182.0 655.5,182.0 655.7,182.0 655.9,182.0 656.0,182.0 656.2,182.0 656.4,182.0 656.5,182.0 656.7,182.0 656.9,182.0 657.0,182.0 657.2,182.0 657.3,180.3 657.5,177.4 657.7,175.0 657.8,173.2 658.0,171.7 658.2,170.6 658.3,169.8 658.5,169.4 658.7,169.2 658.8,169.4 659.0,169.9 659.1,170.7 659.3,172.0 659.5,173.8 659.6,176.4 659.8,180.0 660.0,182.0 660.1,182.0 660.3,182.0 660.5,182.0 660.6,181.2 660.8,177.1 661.0,174.3 661.1,172.3 661.3,170.8 661.4,169.8 661.6,169.2 661.8,168.9 661.9,169.0 662.1,169.3 662.3,169.9 662.4,170.8 662.6,172.1 662.8,173.8 662.9,175.8 663.1,178.5 663.2,181.9 663.4,182.0 663.6,182.0 663.7,182.0 663.9,182.0 664.1,182.0 664.2,182.0 664.4,182.0 664.6,182.0 664.7,182.0 664.9,182.0 665.0,182.0 665.2,182.0 665.4,182.0 665.5,182.0 665.7,182.0 665.9,182.0 666.0,182.0 666.2,182.0 666.4,182.0 666.5,182.0 666.7,182.0 666.8,182.0 667.0,182.0 667.2,182.0 667.3,182.0 667.5,182.0 667.7,182.0 667.8,182.0 668.0,179.8 668.2,177.4 668.3,175.5 668.5,174.0 668.6,172.9 668.8,172.1 669.0,171.6 669.1,171.3 669.3,171.4 669.5,171.9 669.6,172.7 669.8,173.9 670.0,175.6 670.1,178.0 670.3,181.4 670.4,182.0 670.6,182.0 670.8,182.0 670.9,182.0 671.1,182.0 671.3,179.7 671.4,176.7 671.6,174.5 671.8,173.0 671.9,171.9 672.1,171.2 672.2,170.8 672.4,170.8 672.6,171.1 672.7,171.6 672.9,172.4 673.1,173.6 673.2,175.1 673.4,177.1 673.6,179.6 673.7,182.0 673.9,182.0 674.0,182.0 674.2,182.0 674.4,182.0 674.5,182.0 674.7,182.0 674.9,182.0 675.0,182.0 675.2,182.0 675.4,182.0 675.5,182.0 675.7,182.0 675.8,182.0 676.0,182.0 676.2,182.0 676.3,182.0 676.5,182.0 676.7,182.0 676.8,182.0 677.0,182.0 677.2,182.0 677.3,182.0 677.5,182.0 677.6,182.0 677.8,182.0 678.0,182.0 678.1,182.0 678.3,182.0 678.5,182.0 678.6,179.7 678.8,177.8 679.0,176.2 679.1,175.1 679.3,174.2 679.4,173.7 679.6,173.4 679.8,173.5 679.9,173.9 680.1,174.6 680.3,175.7 680.4,177.4 680.6,179.7 680.8,182.0 680.9,182.0 681.1,182.0 681.2,182.0 681.4,182.0 681.6,182.0 681.7,182.0 681.9,178.9 682.1,176.7 682.2,175.1 682.4,173.9 682.6,173.1 682.7,172.7 682.9,172.6 683.0,172.8 683.2,173.2 683.4,174.0 683.5,175.1 683.7,176.5 683.9,178.3 684.0,180.6 684.2,182.0 684.4,182.0 684.5,182.0 684.7,182.0 684.8,182.0 685.0,182.0 685.2,182.0 685.3,182.0 685.5,182.0 685.7,182.0 685.8,182.0 686.0,182.0 686.2,182.0 686.3,182.0 686.5,182.0 686.6,182.0 686.8,182.0 687.0,182.0 687.1,182.0 687.3,182.0 687.5,182.0 687.6,182.0 687.8,182.0 688.0,182.0 688.1,182.0 688.3,182.0 688.4,182.0 688.6,182.0 688.8,182.0 688.9,182.0 689.1,181.8 689.3,179.9 689.4,178.4 689.6,177.2 689.8,176.4 689.9,175.8 690.1,175.5 690.2,175.6 690.4,175.9 690.6,176.6 690.7,177.7 690.9,179.2 691.1,181.4 691.2,182.0 691.4,182.0 691.6,182.0 691.7,182.0 691.9,182.0 692.0,182.0 692.2,182.0 692.4,181.1 692.5,178.8 692.7,177.1 692.9,175.8 693.0,175.0 693.2,174.5 693.4,174.3 693.5,174.4 693.7,174.8 693.8,175.5 694.0,176.5 694.2,177.8 694.3,179.5 694.5,181.6 694.7,182.0 694.8,182.0 695.0,182.0 695.2,182.0 695.3,182.0 695.5,182.0 695.6,182.0 695.8,182.0 696.0,182.0 696.1,182.0 696.3,182.0 696.5,182.0 696.6,182.0 696.8,182.0 697.0,182.0 697.1,182.0 697.3,182.0 697.4,182.0 697.6,182.0 697.8,182.0 697.9,182.0 698.1,182.0 698.3,182.0 698.4,182.0 698.6,182.0 698.8,182.0 698.9,182.0 699.1,182.0 699.2,182.0 699.4,182.0 699.6,182.0 699.7,182.0 699.9,180.5 700.1,179.3 700.2,178.5 700.4,177.9 700.6,177.6 700.7,177.6 700.9,177.9 701.0,178.6 701.2,179.6 701.4,181.2 701.5,182.0 701.7,182.0 701.9,182.0 702.0,182.0 702.2,182.0 702.4,182.0 702.5,182.0 702.7,182.0 702.8,182.0 703.0,180.8 703.2,179.0 703.3,177.7 703.5,176.8 703.7,176.3 703.8,176.0 704.0,176.1 704.2,176.4 704.3,177.0 704.5,177.9 704.6,179.1 704.8,180.7 705.0,182.0 705.1,182.0 705.3,182.0 705.5,182.0 705.6,182.0 705.8,182.0 706.0,182.0 706.1,182.0 706.3,182.0 706.4,182.0 706.6,182.0 706.8,182.0 706.9,182.0 707.1,182.0 707.3,182.0 707.4,182.0 707.6,182.0 707.8,182.0 707.9,182.0 708.1,182.0 708.2,182.0 708.4,182.0 708.6,182.0 708.7,182.0 708.9,182.0 709.1,182.0 709.2,182.0 709.4,182.0 709.6,182.0 709.7,182.0 709.9,182.0 710.0,182.0 710.2,182.0 710.4,182.0 710.5,181.4 710.7,180.6 710.9,180.0 711.0,179.7 711.2,179.8 711.4,180.1 711.5,180.7 711.7,181.7 711.8,182.0 712.0,182.0 712.2,182.0 712.3,182.0 712.5,182.0 712.7,182.0 712.8,182.0 713.0,182.0 713.2,182.0 713.3,182.0 713.5,182.0 713.6,180.9 713.8,179.6 714.0,178.6 714.1,178.0 714.3,177.7 714.5,177.7 714.6,178.0 714.8,178.5 715.0,179.3 715.1,180.4 715.3,181.8 715.4,182.0 715.6,182.0 715.8,182.0 715.9,182.0 716.1,182.0 716.3,182.0 716.4,182.0 716.6,182.0 716.8,182.0 716.9,182.0 717.1,182.0 717.2,182.0 717.4,182.0 717.6,182.0 717.7,182.0 717.9,182.0 718.1,182.0 718.2,182.0 718.4,182.0 718.6,182.0 718.7,182.0 718.9,182.0 719.0,182.0 719.2,182.0 719.4,182.0 719.5,182.0 719.7,182.0 719.9,182.0 720.0,182.0 720.2,182.0 720.4,182.0 720.5,182.0 720.7,182.0 720.8,182.0 721.0,182.0 721.2,182.0 721.3,182.0 721.5,181.9 721.7,181.9 721.8,182.0 722.0,182.0 722.2,182.0 722.3,182.0 722.5,182.0 722.6,182.0 722.8,182.0 723.0,182.0 723.1,182.0 723.3,182.0 723.5,182.0 723.6,182.0 723.8,182.0 724.0,182.0 724.1,182.0 724.3,181.3 724.4,180.4 724.6,179.7 724.8,179.4 724.9,179.3 725.1,179.5 725.3,180.0 725.4,180.7 725.6,181.7 725.8,182.0 725.9,182.0 726.1,182.0 726.2,182.0 726.4,182.0 726.6,182.0 726.7,182.0 726.9,182.0 727.1,182.0 727.2,182.0 727.4,182.0 727.6,182.0 727.7,182.0 727.9,182.0 728.0,182.0 728.2,182.0 728.4,182.0 728.5,182.0 728.7,182.0 728.9,182.0 729.0,182.0 729.2,182.0 729.4,182.0 729.5,182.0 729.7,182.0 729.8,182.0 730.0,182.0 730.2,182.0 730.3,182.0 730.5,182.0 730.7,182.0 730.8,182.0 731.0,182.0 731.2,182.0 731.3,182.0 731.5,182.0 731.6,182.0 731.8,182.0 732.0,182.0 732.1,182.0 732.3,182.0 732.5,182.0 732.6,182.0 732.8,182.0 733.0,182.0 733.1,182.0 733.3,182.0 733.4,182.0 733.6,182.0 733.8,182.0 733.9,182.0 734.1,182.0 734.3,182.0 734.4,182.0 734.6,182.0 734.8,182.0 734.9,182.0 735.1,181.4 735.2,181.0 735.4,180.9 735.6,181.0 735.7,181.4 735.9,182.0 736.1,182.0 736.2,182.0 736.4,182.0 736.6,182.0 736.7,182.0 736.9,182.0 737.0,182.0 737.2,182.0 737.4,182.0 737.5,182.0 737.7,182.0 737.9,182.0 738.0,182.0 738.2,182.0 738.4,182.0 738.5,182.0 738.7,182.0 738.8,182.0 739.0,182.0 739.2,182.0 739.3,182.0 739.5,182.0 739.7,182.0 739.8,182.0 740.0,182.0 740.2,182.0 740.3,182.0 740.5,182.0 740.6,182.0 740.8,182.0 741.0,182.0 741.1,182.0 741.3,182.0 741.5,182.0 741.6,182.0 741.8,182.0 742.0,182.0 742.1,182.0 742.3,182.0 742.4,182.0 742.6,182.0 742.8,182.0 742.9,182.0 743.1,182.0 743.3,182.0 743.4,182.0 743.6,182.0 743.8,182.0 743.9,182.0 744.1,182.0 744.3,182.0 744.4,182.0 744.6,182.0 744.7,182.0 744.9,182.0 745.1,182.0 745.2,182.0 745.4,182.0 745.6,182.0 745.7,182.0 745.9,182.0 746.1,182.0 746.2,182.0 746.4,182.0 746.5,182.0 746.7,182.0 746.9,182.0 747.0,182.0 747.2,182.0 747.4,182.0 747.5,182.0 747.7,182.0 747.9,182.0 748.0,182.0 748.2,182.0 748.3,182.0 748.5,182.0 748.7,182.0 748.8,182.0 749.0,182.0 749.2,182.0 749.3,182.0 749.5,182.0 749.7,182.0 749.8,182.0 750.0,182.0 750.1,182.0 750.3,182.0 750.5,182.0 750.6,182.0 750.8,182.0 751.0,182.0 751.1,182.0 751.3,182.0 751.5,182.0 751.6,182.0 751.8,182.0 751.9,182.0 752.1,182.0 752.3,182.0 752.4,182.0 752.6,182.0 752.8,182.0 752.9,182.0 753.1,182.0 753.3,182.0 753.4,182.0 753.6,182.0 753.7,182.0 753.9,182.0 754.1,182.0 754.2,182.0 754.4,182.0 754.6,182.0 754.7,182.0 754.9,182.0 755.1,182.0 755.2,182.0 755.4,182.0 755.5,182.0 755.7,182.0 755.9,182.0 756.0,182.0 756.2,182.0 756.4,182.0 756.5,182.0 756.7,182.0 756.9,182.0 757.0,182.0 757.2,182.0 757.3,182.0 757.5,182.0 757.7,182.0 757.8,182.0 758.0,182.0 758.2,182.0 758.3,182.0 758.5,182.0 758.7,182.0 758.8,182.0 759.0,182.0 759.1,182.0 759.3,182.0 759.5,182.0 759.6,182.0 759.8,182.0 760.0,182.0 760.1,182.0 760.3,182.0 760.5,182.0 760.6,182.0 760.8,182.0 760.9,182.0 761.1,182.0 761.3,182.0 761.4,182.0 761.6,182.0 761.8,182.0 761.9,182.0 762.1,182.0 762.3,182.0 762.4,182.0 762.6,182.0 762.7,182.0 762.9,182.0 763.1,182.0 763.2,182.0 763.4,182.0 763.6,182.0 763.7,182.0 763.9,182.0 764.1,182.0 764.2,182.0 764.4,182.0 764.5,182.0 764.7,182.0 764.9,182.0 765.0,182.0 765.2,182.0 765.4,182.0 765.5,182.0 765.7,182.0 765.9,182.0 766.0,182.0 766.2,182.0 766.3,182.0 766.5,182.0 766.7,182.0 766.8,182.0 767.0,182.0 767.2,182.0 767.3,182.0 767.5,182.0 767.7,182.0 767.8,182.0 768.0,182.0 768.1,182.0 768.3,182.0 768.5,182.0 768.6,182.0 768.8,182.0 769.0,182.0 769.1,182.0 769.3,182.0 769.5,182.0 769.6,182.0 769.8,182.0 769.9,182.0 770.1,182.0 770.3,182.0 770.4,182.0 770.6,182.0 770.8,182.0 770.9,182.0 771.1,182.0 771.3,182.0 771.4,182.0 771.6,182.0 771.7,182.0 771.9,182.0 772.1,182.0 772.2,182.0 772.4,182.0 772.6,182.0 772.7,182.0 772.9,182.0 773.1,182.0 773.2,182.0 773.4,182.0 773.5,182.0 773.7,182.0 773.9,182.0 774.0,182.0 774.2,182.0 774.4,182.0 774.5,182.0 774.7,182.0 774.9,182.0 775.0,182.0 775.2,182.0 775.3,182.0 775.5,182.0 775.7,182.0 775.8,182.0 776.0,182.0 776.2,182.0 776.3,182.0 776.5,182.0 776.7,182.0 776.8,182.0 777.0,182.0 777.1,182.0 777.3,182.0 777.5,182.0 777.6,182.0 777.8,182.0 778.0,182.0 778.1,182.0 778.3,182.0 778.5,182.0 778.6,182.0 778.8,182.0 778.9,182.0 779.1,182.0 779.3,182.0 779.4,182.0 779.6,182.0 779.8,182.0 779.9,182.0 780.1,182.0 780.3,182.0 780.4,182.0 780.6,182.0 780.7,182.0 780.9,182.0 781.1,182.0 781.2,182.0 781.4,182.0 781.6,182.0 781.7,182.0 781.9,182.0 782.1,182.0 782.2,182.0 782.4,182.0 782.5,182.0 782.7,182.0 782.9,182.0 783.0,182.0 783.2,182.0 783.4,182.0 783.5,182.0 783.7,182.0 783.9,182.0 784.0,182.0 784.2,182.0 784.3,182.0 784.5,182.0 784.7,182.0 784.8,182.0 785.0,182.0" fill="none" stroke="#4a90d9" stroke-width="1.5" stroke-linejoin="round"/>
  <text x="209.5" y="214" text-anchor="middle" font-size="11" fill="#6b7280">n / N</text>
  <text x="617.5" y="214" text-anchor="middle" font-size="11" fill="#6b7280">Normalized frequency (× Fₛ)</text>
</svg>
