<svg xmlns="http://www.w3.org/2000/svg" viewBox="0 0 800 230" style="font-family:system-ui,-apple-system,sans-serif">
  <line x1="42" y1="182.0" x2="377" y2="182.0" stroke="#e5e7eb" stroke-width="0.7"/>
  <text x="37" y="186.0" text-anchor="end" font-size="10" fill="#6b7280">0</text>
  <line x1="42" y1="95.0" x2="377" y2="95.0" stroke="#e5e7eb" stroke-width="0.7"/>
  <text x="37" y="99.0" text-anchor="end" font-size="10" fill="#6b7280">0.5</text>
  <line x1="42" y1="8.0" x2="377" y2="8.0" stroke="#e5e7eb" stroke-width="0.7"/>
  <text x="37" y="12.0" text-anchor="end" font-size="10" fill="#6b7280">1</text>
  <line x1="42.0" y1="8" x2="42.0" y2="182" stroke="#e5e7eb" stroke-width="0.7"/>
  <text x="42.0" y="198" text-anchor="middle" font-size="10" fill="#6b7280">0</text>
  <line x1="209.5" y1="8" x2="209.5" y2="182" stroke="#e5e7eb" stroke-width="0.7"/>
  <text x="209.5" y="198" text-anchor="middle" font-size="10" fill="#6b7280">0.5</text>
  <line x1="377.0" y1="8" x2="377.0" y2="182" stroke="#e5e7eb" stroke-width="0.7"/>
  <text x="377.0" y="198" text-anchor="middle" font-size="10" fill="#6b7280">1</text>
  <line x1="42" y1="8" x2="42" y2="182" stroke="#d1d5db" stroke-width="1"/>
  <line x1="42" y1="182" x2="377" y2="182" stroke="#d1d5db" stroke-width="1"/>
  <path d="M42.0,182.0 42.0,8.0 43.3,8.0 44.6,8.0 45.9,8.0 47.3,8.0 48.6,8.0 49.9,8.0 51.2,8.0 52.5,8.0 53.8,8.0 55.1,8.0 56.5,8.0 57.8,8.0 59.1,8.0 60.4,8.0 61.7,8.0 63.0,8.0 64.3,8.0 65.6,8.0 67.0,8.0 68.3,8.0 69.6,8.0 70.9,8.0 72.2,8.0 73.5,8.0 74.8,8.0 76.2,8.0 77.5,8.0 78.8,8.0 80.1,8.0 81.4,8.0 82.7,8.0 84.0,8.0 85.4,8.0 86.7,8.0 88.0,8.0 89.3,8.0 90.6,8.0 91.9,8.0 93.2,8.0 94.5,8.0 95.9,8.0 97.2,8.0 98.5,8.0 99.8,8.0 101.1,8.0 102.4,8.0 103.7,8.0 105.1,8.0 106.4,8.0 107.7,8.0 109.0,8.0 110.3,8.0 111.6,8.0 112.9,8.0 114.3,8.0 115.6,8.0 116.9,8.0 118.2,8.0 119.5,8.0 120.8,8.0 122.1,8.0 123.5,8.0 124.8,8.0 126.1,8.0 127.4,8.0 128.7,8.0 130.0,8.0 131.3,8.0 132.6,8.0 134.0,8.0 135.3,8.0 136.6,8.0 137.9,8.0 139.2,8.0 140.5,8.0 141.8,8.0 143.2,8.0 144.5,8.0 145.8,8.0 147.1,8.0 148.4,8.0 149.7,8.0 151.0,8.0 152.4,8.0 153.7,8.0 155.0,8.0 156.3,8.0 157.6,8.0 158.9,8.0 160.2,8.0 161.5,8.0 162.9,8.0 164.2,8.0 165.5,8.0 166.8,8.0 168.1,8.0 169.4,8.0 170.7,8.0 172.1,8.0 173.4,8.0 174.7,8.0 176.0,8.0 177.3,8.0 178.6,8.0 179.9,8.0 181.3,8.0 182.6,8.0 183.9,8.0 185.2,8.0 186.5,8.0 187.8,8.0 189.1,8.0 190.5,8.0 191.8,8.0 193.1,8.0 194.4,8.0 195.7,8.0 197.0,8.0 198.3,8.0 199.6,8.0 201.0,8.0 202.3,8.0 203.6,8.0 204.9,8.0 206.2,8.0 207.5,8.0 208.8,8.0 210.2,8.0 211.5,8.0 212.8,8.0 214.1,8.0 215.4,8.0 216.7,8.0 218.0,8.0 219.4,8.0 220.7,8.0 222.0,8.0 223.3,8.0 224.6,8.0 225.9,8.0 227.2,8.0 228.5,8.0 229.9,8.0 231.2,8.0 232.5,8.0 233.8,8.0 235.1,8.0 236.4,8.0 237.7,8.0 239.1,8.0 240.4,8.0 241.7,8.0 243.0,8.0 244.3,8.0 245.6,8.0 246.9,8.0 248.3,8.0 249.6,8.0 250.9,8.0 252.2,8.0 253.5,8.0 254.8,8.0 256.1,8.0 257.5,8.0 258.8,8.0 260.1,8.0 261.4,8.0 262.7,8.0 264.0,8.0 265.3,8.0 266.6,8.0 268.0,8.0 269.3,8.0 270.6,8.0 271.9,8.0 273.2,8.0 274.5,8.0 275.8,8.0 277.2,8.0 278.5,8.0 279.8,8.0 281.1,8.0 282.4,8.0 283.7,8.0 285.0,8.0 286.4,8.0 287.7,8.0 289.0,8.0 290.3,8.0 291.6,8.0 292.9,8.0 294.2,8.0 295.5,8.0 296.9,8.0 298.2,8.0 299.5,8.0 300.8,8.0 302.1,8.0 303.4,8.0 304.7,8.0 306.1,8.0 307.4,8.0 308.7,8.0 310.0,8.0 311.3,8.0 312.6,8.0 313.9,8.0 315.3,8.0 316.6,8.0 317.9,8.0 319.2,8.0 320.5,8.0 321.8,8.0 323.1,8.0 324.5,8.0 325.8,8.0 327.1,8.0 328.4,8.0 329.7,8.0 331.0,8.0 332.3,8.0 333.6,8.0 335.0,8.0 336.3,8.0 337.6,8.0 338.9,8.0 340.2,8.0 341.5,8.0 342.8,8.0 344.2,8.0 345.5,8.0 346.8,8.0 348.1,8.0 349.4,8.0 350.7,8.0 352.0,8.0 353.4,8.0 354.7,8.0 356.0,8.0 357.3,8.0 358.6,8.0 359.9,8.0 361.2,8.0 362.5,8.0 363.9,8.0 365.2,8.0 366.5,8.0 367.8,8.0 369.1,8.0 370.4,8.0 371.7,8.0 373.1,8.0 374.4,8.0 375.7,8.0 377.0,8.0 L377.0,182.0 Z" fill="#4a90d9" fill-opacity="0.06"/>
  <polyline points="42.0,8.0 43.3,8.0 44.6,8.0 45.9,8.0 47.3,8.0 48.6,8.0 49.9,8.0 51.2,8.0 52.5,8.0 53.8,8.0 55.1,8.0 56.5,8.0 57.8,8.0 59.1,8.0 60.4,8.0 61.7,8.0 63.0,8.0 64.3,8.0 65.6,8.0 67.0,8.0 68.3,8.0 69.6,8.0 70.9,8.0 72.2,8.0 73.5,8.0 74.8,8.0 76.2,8.0 77.5,8.0 78.8,8.0 80.1,8.0 81.4,8.0 82.7,8.0 84.0,8.0 85.4,8.0 86.7,8.0 88.0,8.0 89.3,8.0 90.6,8.0 91.9,8.0 93.2,8.0 94.5,8.0 95.9,8.0 97.2,8.0 98.5,8.0 99.8,8.0 101.1,8.0 102.4,8.0 103.7,8.0 105.1,8.0 106.4,8.0 107.7,8.0 109.0,8.0 110.3,8.0 111.6,8.0 112.9,8.0 114.3,8.0 115.6,8.0 116.9,8.0 118.2,8.0 119.5,8.0 120.8,8.0 122.1,8.0 123.5,8.0 124.8,8.0 126.1,8.0 127.4,8.0 128.7,8.0 130.0,8.0 131.3,8.0 132.6,8.0 134.0,8.0 135.3,8.0 136.6,8.0 137.9,8.0 139.2,8.0 140.5,8.0 141.8,8.0 143.2,8.0 144.5,8.0 145.8,8.0 147.1,8.0 148.4,8.0 149.7,8.0 151.0,8.0 152.4,8.0 153.7,8.0 155.0,8.0 156.3,8.0 157.6,8.0 158.9,8.0 160.2,8.0 161.5,8.0 162.9,8.0 164.2,8.0 165.5,8.0 166.8,8.0 168.1,8.0 169.4,8.0 170.7,8.0 172.1,8.0 173.4,8.0 174.7,8.0 176.0,8.0 177.3,8.0 178.6,8.0 179.9,8.0 181.3,8.0 182.6,8.0 183.9,8.0 185.2,8.0 186.5,8.0 187.8,8.0 189.1,8.0 190.5,8.0 191.8,8.0 193.1,8.0 194.4,8.0 195.7,8.0 197.0,8.0 198.3,8.0 199.6,8.0 201.0,8.0 202.3,8.0 203.6,8.0 204.9,8.0 206.2,8.0 207.5,8.0 208.8,8.0 210.2,8.0 211.5,8.0 212.8,8.0 214.1,8.0 215.4,8.0 216.7,8.0 218.0,8.0 219.4,8.0 220.7,8.0 222.0,8.0 223.3,8.0 224.6,8.0 225.9,8.0 227.2,8.0 228.5,8.0 229.9,8.0 231.2,8.0 232.5,8.0 233.8,8.0 235.1,8.0 236.4,8.0 237.7,8.0 239.1,8.0 240.4,8.0 241.7,8.0 243.0,8.0 244.3,8.0 245.6,8.0 246.9,8.0 248.3,8.0 249.6,8.0 250.9,8.0 252.2,8.0 253.5,8.0 254.8,8.0 256.1,8.0 257.5,8.0 258.8,8.0 260.1,8.0 261.4,8.0 262.7,8.0 264.0,8.0 265.3,8.0 266.6,8.0 268.0,8.0 269.3,8.0 270.6,8.0 271.9,8.0 273.2,8.0 274.5,8.0 275.8,8.0 277.2,8.0 278.5,8.0 279.8,8.0 281.1,8.0 282.4,8.0 283.7,8.0 285.0,8.0 286.4,8.0 287.7,8.0 289.0,8.0 290.3,8.0 291.6,8.0 292.9,8.0 294.2,8.0 295.5,8.0 296.9,8.0 298.2,8.0 299.5,8.0 300.8,8.0 302.1,8.0 303.4,8.0 304.7,8.0 306.1,8.0 307.4,8.0 308.7,8.0 310.0,8.0 311.3,8.0 312.6,8.0 313.9,8.0 315.3,8.0 316.6,8.0 317.9,8.0 319.2,8.0 320.5,8.0 321.8,8.0 323.1,8.0 324.5,8.0 325.8,8.0 327.1,8.0 328.4,8.0 329.7,8.0 331.0,8.0 332.3,8.0 333.6,8.0 335.0,8.0 336.3,8.0 337.6,8.0 338.9,8.0 340.2,8.0 341.5,8.0 342.8,8.0 344.2,8.0 345.5,8.0 346.8,8.0 348.1,8.0 349.4,8.0 350.7,8.0 352.0,8.0 353.4,8.0 354.7,8.0 356.0,8.0 357.3,8.0 358.6,8.0 359.9,8.0 361.2,8.0 362.5,8.0 363.9,8.0 365.2,8.0 366.5,8.0 367.8,8.0 369.1,8.0 370.4,8.0 371.7,8.0 373.1,8.0 374.4,8.0 375.7,8.0 377.0,8.0" fill="none" stroke="#4a90d9" stroke-width="1.5" stroke-linejoin="round"/>
  <line x1="450" y1="8.0" x2="785" y2="8.0" stroke="#e5e7eb" stroke-width="0.7"/>
  <text x="445" y="12.0" text-anchor="end" font-size="10" fill="#6b7280">0</text>
  <line x1="450" y1="66.0" x2="785" y2="66.0" stroke="#e5e7eb" stroke-width="0.7"/>
  <text x="445" y="70.0" text-anchor="end" font-size="10" fill="#6b7280">-40</text>
  <line x1="450" y1="124.0" x2="785" y2="124.0" stroke="#e5e7eb" stroke-width="0.7"/>
  <text x="445" y="128.0" text-anchor="end" font-size="10" fill="#6b7280">-80</text>
  <line x1="450" y1="182.0" x2="785" y2="182.0" stroke="#e5e7eb" stroke-width="0.7"/>
  <text x="445" y="186.0" text-anchor="end" font-size="10" fill="#6b7280">-120</text>
  <line x1="450.0" y1="8" x2="450.0" y2="182" stroke="#e5e7eb" stroke-width="0.7"/>
  <text x="450.0" y="198" text-anchor="middle" font-size="10" fill="#6b7280">0</text>
  <line x1="517.0" y1="8" x2="517.0" y2="182" stroke="#e5e7eb" stroke-width="0.7"/>
  <text x="517.0" y="198" text-anchor="middle" font-size="10" fill="#6b7280">0.1</text>
  <line x1="584.0" y1="8" x2="584.0" y2="182" stroke="#e5e7eb" stroke-width="0.7"/>
  <text x="584.0" y="198" text-anchor="middle" font-size="10" fill="#6b7280">0.2</text>
  <line x1="651.0" y1="8" x2="651.0" y2="182" stroke="#e5e7eb" stroke-width="0.7"/>
  <text x="651.0" y="198" text-anchor="middle" font-size="10" fill="#6b7280">0.3</text>
  <line x1="718.0" y1="8" x2="718.0" y2="182" stroke="#e5e7eb" stroke-width="0.7"/>
  <text x="718.0" y="198" text-anchor="middle" font-size="10" fill="#6b7280">0.4</text>
  <line x1="785.0" y1="8" x2="785.0" y2="182" stroke="#e5e7eb" stroke-width="0.7"/>
  <text x="785.0" y="198" text-anchor="middle" font-size="10" fill="#6b7280">0.5</text>
  <line x1="450" y1="8" x2="450" y2="182" stroke="#d1d5db" stroke-width="1"/>
  <line x1="450" y1="182" x2="785" y2="182" stroke="#d1d5db" stroke-width="1"/>
  <polyline points="450.0,8.0 450.2,8.1 450.3,8.3 450.5,8.7 450.7,9.3 450.8,10.1 451.0,11.1 451.1,12.3 451.3,13.7 451.5,15.4 451.6,17.5 451.8,20.0 452.0,23.2 452.1,27.2 452.3,32.8 452.5,42.2 452.6,182.0 452.8,43.8 452.9,36.0 453.1,32.0 453.3,29.6 453.4,28.2 453.6,27.4 453.8,27.2 453.9,27.5 454.1,28.3 454.3,29.5 454.4,31.3 454.6,33.8 454.7,37.3 454.9,42.4 455.1,51.3 455.2,182.0 455.4,52.1 455.6,44.0 455.7,39.7 455.9,37.0 456.1,35.3 456.2,34.3 456.4,33.9 456.5,34.0 456.7,34.5 456.9,35.6 457.0,37.2 457.2,39.5 457.4,42.8 457.5,47.8 457.7,56.6 457.9,182.0 458.0,57.1 458.2,48.9 458.3,44.4 458.5,41.6 458.7,39.8 458.8,38.7 459.0,38.2 459.2,38.2 459.3,38.7 459.5,39.6 459.7,41.2 459.8,43.4 460.0,46.7 460.1,51.6 460.3,60.3 460.5,182.0 460.6,60.7 460.8,52.4 461.0,47.9 461.1,45.0 461.3,43.1 461.5,42.0 461.6,41.4 461.8,41.4 461.9,41.8 462.1,42.7 462.3,44.2 462.4,46.4 462.6,49.6 462.8,54.5 462.9,63.1 463.1,182.0 463.3,63.4 463.4,55.1 463.6,50.5 463.7,47.7 463.9,45.8 464.1,44.6 464.2,44.0 464.4,43.9 464.6,44.3 464.7,45.2 464.9,46.6 465.1,48.8 465.2,52.0 465.4,56.8 465.5,65.4 465.7,182.0 465.9,65.7 466.0,57.3 466.2,52.8 466.4,49.9 466.5,47.9 466.7,46.7 466.9,46.1 467.0,46.0 467.2,46.3 467.3,47.2 467.5,48.7 467.7,50.8 467.8,54.0 468.0,58.8 468.2,67.4 468.3,182.0 468.5,67.6 468.7,59.2 468.8,54.6 469.0,51.7 469.1,49.8 469.3,48.6 469.5,47.9 469.6,47.8 469.8,48.1 470.0,49.0 470.1,50.4 470.3,52.6 470.5,55.7 470.6,60.5 470.8,69.1 470.9,182.0 471.1,69.3 471.3,60.9 471.4,56.3 471.6,53.3 471.8,51.4 471.9,50.2 472.1,49.5 472.3,49.3 472.4,49.7 472.6,50.5 472.7,51.9 472.9,54.1 473.1,57.2 473.2,62.0 473.4,70.6 473.6,182.0 473.7,70.7 473.9,62.3 474.1,57.7 474.2,54.8 474.4,52.8 474.5,51.6 474.7,50.9 474.9,50.7 475.0,51.1 475.2,51.9 475.4,53.3 475.5,55.4 475.7,58.6 475.9,63.3 476.0,71.9 476.2,182.0 476.3,72.0 476.5,63.6 476.7,59.0 476.8,56.1 477.0,54.1 477.2,52.8 477.3,52.2 477.5,52.0 477.7,52.3 477.8,53.1 478.0,54.5 478.1,56.7 478.3,59.8 478.5,64.5 478.6,73.1 478.8,182.0 479.0,73.2 479.1,64.8 479.3,60.2 479.5,57.2 479.6,55.3 479.8,54.0 479.9,53.3 480.1,53.1 480.3,53.4 480.4,54.3 480.6,55.7 480.8,57.8 480.9,60.9 481.1,65.6 481.3,74.2 481.4,182.0 481.6,74.3 481.7,65.9 481.9,61.3 482.1,58.3 482.2,56.3 482.4,55.0 482.6,54.4 482.7,54.2 482.9,54.5 483.1,55.3 483.2,56.7 483.4,58.8 483.5,61.9 483.7,66.6 483.9,75.2 484.0,182.0 484.2,75.3 484.4,66.9 484.5,62.2 484.7,59.3 484.9,57.3 485.0,56.0 485.2,55.3 485.3,55.1 485.5,55.4 485.7,56.3 485.8,57.6 486.0,59.7 486.2,62.8 486.3,67.6 486.5,76.1 486.7,182.0 486.8,76.2 487.0,67.8 487.1,63.2 487.3,60.2 487.5,58.2 487.6,56.9 487.8,56.2 488.0,56.0 488.1,56.3 488.3,57.1 488.5,58.5 488.6,60.6 488.8,63.7 488.9,68.4 489.1,77.0 489.3,182.0 489.4,77.1 489.6,68.7 489.8,64.0 489.9,61.0 490.1,59.0 490.3,57.8 490.4,57.1 490.6,56.9 490.7,57.2 490.9,58.0 491.1,59.3 491.2,61.4 491.4,64.5 491.6,69.3 491.7,77.8 491.9,182.0 492.1,77.9 492.2,69.5 492.4,64.8 492.6,61.8 492.7,59.8 492.9,58.5 493.0,57.8 493.2,57.6 493.4,57.9 493.5,58.7 493.7,60.1 493.9,62.2 494.0,65.3 494.2,70.0 494.4,78.5 494.5,182.0 494.7,78.6 494.8,70.2 495.0,65.5 495.2,62.6 495.3,60.6 495.5,59.3 495.7,58.6 495.8,58.4 496.0,58.7 496.2,59.5 496.3,60.8 496.5,62.9 496.6,66.0 496.8,70.7 497.0,79.3 497.1,182.0 497.3,79.3 497.5,70.9 497.6,66.2 497.8,63.3 498.0,61.3 498.1,60.0 498.3,59.3 498.4,59.1 498.6,59.3 498.8,60.1 498.9,61.5 499.1,63.6 499.3,66.7 499.4,71.4 499.6,79.9 499.8,182.0 499.9,80.0 500.1,71.6 500.2,66.9 500.4,63.9 500.6,61.9 500.7,60.6 500.9,59.9 501.1,59.7 501.2,60.0 501.4,60.8 501.6,62.2 501.7,64.2 501.9,67.3 502.0,72.0 502.2,80.6 502.4,182.0 502.5,80.6 502.7,72.2 502.9,67.5 503.0,64.5 503.2,62.5 503.4,61.2 503.5,60.5 503.7,60.3 503.8,60.6 504.0,61.4 504.2,62.8 504.3,64.8 504.5,67.9 504.7,72.6 504.8,81.2 505.0,182.0 505.2,81.2 505.3,72.8 505.5,68.1 505.6,65.1 505.8,63.1 506.0,61.8 506.1,61.1 506.3,60.9 506.5,61.2 506.6,62.0 506.8,63.3 507.0,65.4 507.1,68.5 507.3,73.2 507.4,81.7 507.6,182.0 507.8,81.8 507.9,73.4 508.1,68.7 508.3,65.7 508.4,63.7 508.6,62.4 508.8,61.7 508.9,61.5 509.1,61.7 509.2,62.5 509.4,63.9 509.6,66.0 509.7,69.0 509.9,73.8 510.1,82.3 510.2,182.0 510.4,82.4 510.6,73.9 510.7,69.2 510.9,66.2 511.0,64.2 511.2,62.9 511.4,62.2 511.5,62.0 511.7,62.3 511.9,63.1 512.0,64.4 512.2,66.5 512.4,69.6 512.5,74.3 512.7,82.8 512.8,182.0 513.0,82.9 513.2,74.4 513.3,69.8 513.5,66.8 513.7,64.7 513.8,63.4 514.0,62.7 514.2,62.5 514.3,62.8 514.5,63.6 514.6,64.9 514.8,67.0 515.0,70.1 515.1,74.8 515.3,83.3 515.5,182.0 515.6,83.4 515.8,74.9 516.0,70.3 516.1,67.2 516.3,65.2 516.4,63.9 516.6,63.2 516.8,63.0 516.9,63.3 517.1,64.1 517.3,65.4 517.4,67.5 517.6,70.6 517.8,75.3 517.9,83.8 518.1,182.0 518.2,83.8 518.4,75.4 518.6,70.7 518.7,67.7 518.9,65.7 519.1,64.4 519.2,63.7 519.4,63.5 519.6,63.7 519.7,64.5 519.9,65.9 520.0,67.9 520.2,71.0 520.4,75.7 520.5,84.3 520.7,182.0 520.9,84.3 521.0,75.8 521.2,71.2 521.4,68.2 521.5,66.2 521.7,64.9 521.8,64.1 522.0,63.9 522.2,64.2 522.3,65.0 522.5,66.3 522.7,68.4 522.8,71.5 523.0,76.2 523.2,84.7 523.3,182.0 523.5,84.7 523.6,76.3 523.8,71.6 524.0,68.6 524.1,66.6 524.3,65.3 524.5,64.6 524.6,64.4 524.8,64.6 525.0,65.4 525.1,66.8 525.3,68.8 525.4,71.9 525.6,76.6 525.8,85.1 525.9,182.0 526.1,85.2 526.3,76.7 526.4,72.0 526.6,69.0 526.8,67.0 526.9,65.7 527.1,65.0 527.2,64.8 527.4,65.0 527.6,65.8 527.7,67.2 527.9,69.2 528.1,72.3 528.2,77.0 528.4,85.5 528.6,182.0 528.7,85.6 528.9,77.1 529.0,72.4 529.2,69.4 529.4,67.4 529.5,66.1 529.7,65.4 529.9,65.2 530.0,65.4 530.2,66.2 530.4,67.6 530.5,69.6 530.7,72.7 530.8,77.4 531.0,85.9 531.2,182.0 531.3,86.0 531.5,77.5 531.7,72.8 531.8,69.8 532.0,67.8 532.2,66.5 532.3,65.8 532.5,65.6 532.6,65.8 532.8,66.6 533.0,67.9 533.1,70.0 533.3,73.1 533.5,77.8 533.6,86.3 533.8,182.0 534.0,86.3 534.1,77.9 534.3,73.2 534.4,70.2 534.6,68.2 534.8,66.9 534.9,66.1 535.1,65.9 535.3,66.2 535.4,67.0 535.6,68.3 535.8,70.4 535.9,73.4 536.1,78.2 536.2,86.7 536.4,182.0 536.6,86.7 536.7,78.3 536.9,73.6 537.1,70.6 537.2,68.5 537.4,67.2 537.6,66.5 537.7,66.3 537.9,66.6 538.0,67.3 538.2,68.7 538.4,70.7 538.5,73.8 538.7,78.5 538.9,87.0 539.0,182.0 539.2,87.1 539.4,78.6 539.5,73.9 539.7,70.9 539.8,68.9 540.0,67.6 540.2,66.9 540.3,66.6 540.5,66.9 540.7,67.7 540.8,69.0 541.0,71.1 541.2,74.1 541.3,78.9 541.5,87.4 541.6,182.0 541.8,87.4 542.0,78.9 542.1,74.3 542.3,71.3 542.5,69.2 542.6,67.9 542.8,67.2 543.0,67.0 543.1,67.2 543.3,68.0 543.4,69.4 543.6,71.4 543.8,74.5 543.9,79.2 544.1,87.7 544.3,182.0 544.4,87.7 544.6,79.3 544.8,74.6 544.9,71.6 545.1,69.6 545.2,68.3 545.4,67.5 545.6,67.3 545.7,67.6 545.9,68.3 546.1,69.7 546.2,71.7 546.4,74.8 546.6,79.5 546.7,88.0 546.9,182.0 547.0,88.1 547.2,79.6 547.4,74.9 547.5,71.9 547.7,69.9 547.9,68.6 548.0,67.8 548.2,67.6 548.4,67.9 548.5,68.7 548.7,70.0 548.8,72.1 549.0,75.1 549.2,79.8 549.3,88.3 549.5,182.0 549.7,88.4 549.8,79.9 550.0,75.2 550.2,72.2 550.3,70.2 550.5,68.9 550.6,68.1 550.8,67.9 551.0,68.2 551.1,69.0 551.3,70.3 551.5,72.4 551.6,75.4 551.8,80.1 552.0,88.6 552.1,182.0 552.3,88.7 552.4,80.2 552.6,75.5 552.8,72.5 552.9,70.5 553.1,69.2 553.3,68.4 553.4,68.2 553.6,68.5 553.8,69.3 553.9,70.6 554.1,72.7 554.2,75.7 554.4,80.4 554.6,88.9 554.7,182.0 554.9,89.0 555.1,80.5 555.2,75.8 555.4,72.8 555.6,70.8 555.7,69.5 555.9,68.7 556.0,68.5 556.2,68.8 556.4,69.5 556.5,70.9 556.7,72.9 556.9,76.0 557.0,80.7 557.2,89.2 557.4,182.0 557.5,89.3 557.7,80.8 557.8,76.1 558.0,73.1 558.2,71.1 558.3,69.8 558.5,69.0 558.7,68.8 558.8,69.1 559.0,69.8 559.2,71.2 559.3,73.2 559.5,76.3 559.6,81.0 559.8,89.5 560.0,182.0 560.1,89.5 560.3,81.1 560.5,76.4 560.6,73.4 560.8,71.3 561.0,70.0 561.1,69.3 561.3,69.1 561.4,69.3 561.6,70.1 561.8,71.4 561.9,73.5 562.1,76.6 562.3,81.3 562.4,89.8 562.6,182.0 562.8,89.8 562.9,81.3 563.1,76.7 563.2,73.6 563.4,71.6 563.6,70.3 563.7,69.6 563.9,69.3 564.1,69.6 564.2,70.4 564.4,71.7 564.6,73.8 564.7,76.8 564.9,81.5 565.0,90.0 565.2,182.0 565.4,90.1 565.5,81.6 565.7,76.9 565.9,73.9 566.0,71.9 566.2,70.6 566.4,69.8 566.5,69.6 566.7,69.8 566.8,70.6 567.0,72.0 567.2,74.0 567.3,77.1 567.5,81.8 567.7,90.3 567.8,182.0 568.0,90.3 568.2,81.8 568.3,77.2 568.5,74.1 568.6,72.1 568.8,70.8 569.0,70.1 569.1,69.8 569.3,70.1 569.5,70.9 569.6,72.2 569.8,74.3 570.0,77.3 570.1,82.0 570.3,90.5 570.4,182.0 570.6,90.6 570.8,82.1 570.9,77.4 571.1,74.4 571.3,72.4 571.4,71.0 571.6,70.3 571.8,70.1 571.9,70.3 572.1,71.1 572.2,72.5 572.4,74.5 572.6,77.6 572.7,82.3 572.9,90.8 573.1,182.0 573.2,90.8 573.4,82.3 573.6,77.6 573.7,74.6 573.9,72.6 574.0,71.3 574.2,70.5 574.4,70.3 574.5,70.6 574.7,71.3 574.9,72.7 575.0,74.7 575.2,77.8 575.4,82.5 575.5,91.0 575.7,182.0 575.9,91.0 576.0,82.6 576.2,77.9 576.3,74.9 576.5,72.8 576.7,71.5 576.8,70.8 577.0,70.6 577.2,70.8 577.3,71.6 577.5,72.9 577.7,75.0 577.8,78.0 578.0,82.7 578.1,91.2 578.3,182.0 578.5,91.3 578.6,82.8 578.8,78.1 579.0,75.1 579.1,73.1 579.3,71.7 579.5,71.0 579.6,70.8 579.8,71.0 579.9,71.8 580.1,73.1 580.3,75.2 580.4,78.2 580.6,83.0 580.8,91.5 580.9,182.0 581.1,91.5 581.3,83.0 581.4,78.3 581.6,75.3 581.7,73.3 581.9,72.0 582.1,71.2 582.2,71.0 582.4,71.3 582.6,72.0 582.7,73.4 582.9,75.4 583.1,78.5 583.2,83.2 583.4,91.7 583.5,182.0 583.7,91.7 583.9,83.2 584.0,78.5 584.2,75.5 584.4,73.5 584.5,72.2 584.7,71.4 584.9,71.2 585.0,71.5 585.2,72.2 585.3,73.6 585.5,75.6 585.7,78.7 585.8,83.4 586.0,91.9 586.2,182.0 586.3,91.9 586.5,83.4 586.7,78.8 586.8,75.7 587.0,73.7 587.1,72.4 587.3,71.6 587.5,71.4 587.6,71.7 587.8,72.4 588.0,73.8 588.1,75.8 588.3,78.9 588.5,83.6 588.6,92.1 588.8,182.0 588.9,92.1 589.1,83.6 589.3,79.0 589.4,75.9 589.6,73.9 589.8,72.6 589.9,71.9 590.1,71.6 590.3,71.9 590.4,72.6 590.6,74.0 590.7,76.0 590.9,79.1 591.1,83.8 591.2,92.3 591.4,182.0 591.6,92.3 591.7,83.8 591.9,79.2 592.1,76.1 592.2,74.1 592.4,72.8 592.5,72.1 592.7,71.8 592.9,72.1 593.0,72.8 593.2,74.2 593.4,76.2 593.5,79.3 593.7,84.0 593.9,92.5 594.0,182.0 594.2,92.5 594.3,84.0 594.5,79.4 594.7,76.3 594.8,74.3 595.0,73.0 595.2,72.2 595.3,72.0 595.5,72.3 595.7,73.0 595.8,74.4 596.0,76.4 596.1,79.5 596.3,84.2 596.5,92.7 596.6,182.0 596.8,92.7 597.0,84.2 597.1,79.5 597.3,76.5 597.5,74.5 597.6,73.2 597.8,72.4 597.9,72.2 598.1,72.5 598.3,73.2 598.4,74.6 598.6,76.6 598.8,79.7 598.9,84.4 599.1,92.9 599.3,182.0 599.4,92.9 599.6,84.4 599.7,79.7 599.9,76.7 600.1,74.7 600.2,73.4 600.4,72.6 600.6,72.4 600.7,72.6 600.9,73.4 601.1,74.7 601.2,76.8 601.4,79.8 601.5,84.5 601.7,93.0 601.9,182.0 602.0,93.1 602.2,84.6 602.4,79.9 602.5,76.9 602.7,74.9 602.9,73.5 603.0,72.8 603.2,72.6 603.3,72.8 603.5,73.6 603.7,74.9 603.8,77.0 604.0,80.0 604.2,84.7 604.3,93.2 604.5,182.0 604.7,93.2 604.8,84.8 605.0,80.1 605.1,77.1 605.3,75.0 605.5,73.7 605.6,73.0 605.8,72.7 606.0,73.0 606.1,73.8 606.3,75.1 606.5,77.1 606.6,80.2 606.8,84.9 606.9,93.4 607.1,182.0 607.3,93.4 607.4,84.9 607.6,80.3 607.8,77.2 607.9,75.2 608.1,73.9 608.3,73.1 608.4,72.9 608.6,73.2 608.7,73.9 608.9,75.3 609.1,77.3 609.2,80.4 609.4,85.1 609.6,93.6 609.7,182.0 609.9,93.6 610.1,85.1 610.2,80.4 610.4,77.4 610.5,75.4 610.7,74.1 610.9,73.3 611.0,73.1 611.2,73.3 611.4,74.1 611.5,75.4 611.7,77.5 611.9,80.5 612.0,85.2 612.2,93.7 612.3,182.0 612.5,93.8 612.7,85.3 612.8,80.6 613.0,77.6 613.2,75.5 613.3,74.2 613.5,73.5 613.7,73.2 613.8,73.5 614.0,74.3 614.1,75.6 614.3,77.6 614.5,80.7 614.6,85.4 614.8,93.9 615.0,182.0 615.1,93.9 615.3,85.4 615.5,80.7 615.6,77.7 615.8,75.7 615.9,74.4 616.1,73.6 616.3,73.4 616.4,73.7 616.6,74.4 616.8,75.7 616.9,77.8 617.1,80.8 617.3,85.6 617.4,94.0 617.6,182.0 617.7,94.1 617.9,85.6 618.1,80.9 618.2,77.9 618.4,75.8 618.6,74.5 618.7,73.8 618.9,73.6 619.1,73.8 619.2,74.6 619.4,75.9 619.5,78.0 619.7,81.0 619.9,85.7 620.0,94.2 620.2,182.0 620.4,94.2 620.5,85.7 620.7,81.1 620.9,78.0 621.0,76.0 621.2,74.7 621.3,73.9 621.5,73.7 621.7,74.0 621.8,74.7 622.0,76.1 622.2,78.1 622.3,81.2 622.5,85.9 622.7,94.3 622.8,182.0 623.0,94.4 623.1,85.9 623.3,81.2 623.5,78.2 623.6,76.1 623.8,74.8 624.0,74.1 624.1,73.8 624.3,74.1 624.5,74.9 624.6,76.2 624.8,78.2 624.9,81.3 625.1,86.0 625.3,94.5 625.4,182.0 625.6,94.5 625.8,86.0 625.9,81.4 626.1,78.3 626.3,76.3 626.4,75.0 626.6,74.2 626.7,74.0 626.9,74.2 627.1,75.0 627.2,76.3 627.4,78.4 627.6,81.4 627.7,86.1 627.9,94.6 628.1,182.0 628.2,94.7 628.4,86.2 628.5,81.5 628.7,78.5 628.9,76.4 629.0,75.1 629.2,74.4 629.4,74.1 629.5,74.4 629.7,75.1 629.9,76.5 630.0,78.5 630.2,81.6 630.3,86.3 630.5,94.8 630.7,182.0 630.8,94.8 631.0,86.3 631.2,81.6 631.3,78.6 631.5,76.6 631.7,75.2 631.8,74.5 632.0,74.3 632.1,74.5 632.3,75.3 632.5,76.6 632.6,78.7 632.8,81.7 633.0,86.4 633.1,94.9 633.3,182.0 633.5,94.9 633.6,86.5 633.8,81.8 633.9,78.7 634.1,76.7 634.3,75.4 634.4,74.6 634.6,74.4 634.8,74.7 634.9,75.4 635.1,76.8 635.3,78.8 635.4,81.8 635.6,86.5 635.7,95.0 635.9,182.0 636.1,95.1 636.2,86.6 636.4,81.9 636.6,78.9 636.7,76.8 636.9,75.5 637.1,74.8 637.2,74.5 637.4,74.8 637.5,75.5 637.7,76.9 637.9,78.9 638.0,82.0 638.2,86.7 638.4,95.2 638.5,182.0 638.7,95.2 638.9,86.7 639.0,82.0 639.2,79.0 639.3,77.0 639.5,75.6 639.7,74.9 639.8,74.7 640.0,74.9 640.2,75.7 640.3,77.0 640.5,79.1 640.7,82.1 640.8,86.8 641.0,95.3 641.1,182.0 641.3,95.3 641.5,86.8 641.6,82.1 641.8,79.1 642.0,77.1 642.1,75.8 642.3,75.0 642.5,74.8 642.6,75.0 642.8,75.8 642.9,77.1 643.1,79.2 643.3,82.2 643.4,86.9 643.6,95.4 643.8,182.0 643.9,95.4 644.1,87.0 644.3,82.3 644.4,79.2 644.6,77.2 644.7,75.9 644.9,75.1 645.1,74.9 645.2,75.2 645.4,75.9 645.6,77.3 645.7,79.3 645.9,82.3 646.1,87.0 646.2,95.5 646.4,182.0 646.5,95.6 646.7,87.1 646.9,82.4 647.0,79.4 647.2,77.3 647.4,76.0 647.5,75.3 647.7,75.0 647.9,75.3 648.0,76.0 648.2,77.4 648.3,79.4 648.5,82.5 648.7,87.2 648.8,95.7 649.0,182.0 649.2,95.7 649.3,87.2 649.5,82.5 649.7,79.5 649.8,77.4 650.0,76.1 650.1,75.4 650.3,75.1 650.5,75.4 650.6,76.1 650.8,77.5 651.0,79.5 651.1,82.6 651.3,87.3 651.5,95.8 651.6,182.0 651.8,95.8 651.9,87.3 652.1,82.6 652.3,79.6 652.4,77.6 652.6,76.2 652.8,75.5 652.9,75.2 653.1,75.5 653.3,76.3 653.4,77.6 653.6,79.6 653.7,82.7 653.9,87.4 654.1,95.9 654.2,182.0 654.4,95.9 654.6,87.4 654.7,82.7 654.9,79.7 655.1,77.7 655.2,76.3 655.4,75.6 655.5,75.4 655.7,75.6 655.9,76.4 656.0,77.7 656.2,79.7 656.4,82.8 656.5,87.5 656.7,96.0 656.9,182.0 657.0,96.0 657.2,87.5 657.3,82.8 657.5,79.8 657.7,77.8 657.8,76.4 658.0,75.7 658.2,75.5 658.3,75.7 658.5,76.5 658.7,77.8 658.8,79.9 659.0,82.9 659.1,87.6 659.3,96.1 659.5,182.0 659.6,96.1 659.8,87.6 660.0,82.9 660.1,79.9 660.3,77.9 660.5,76.6 660.6,75.8 660.8,75.6 661.0,75.8 661.1,76.6 661.3,77.9 661.4,80.0 661.6,83.0 661.8,87.7 661.9,96.2 662.1,182.0 662.3,96.2 662.4,87.7 662.6,83.0 662.8,80.0 662.9,78.0 663.1,76.7 663.2,75.9 663.4,75.7 663.6,75.9 663.7,76.7 663.9,78.0 664.1,80.1 664.2,83.1 664.4,87.8 664.6,96.3 664.7,182.0 664.9,96.3 665.0,87.8 665.2,83.1 665.4,80.1 665.5,78.1 665.7,76.7 665.9,76.0 666.0,75.8 666.2,76.0 666.4,76.8 666.5,78.1 666.7,80.2 666.8,83.2 667.0,87.9 667.2,96.4 667.3,182.0 667.5,96.4 667.7,87.9 667.8,83.2 668.0,80.2 668.2,78.2 668.3,76.8 668.5,76.1 668.6,75.9 668.8,76.1 669.0,76.9 669.1,78.2 669.3,80.2 669.5,83.3 669.6,88.0 669.8,96.5 670.0,182.0 670.1,96.5 670.3,88.0 670.4,83.3 670.6,80.3 670.8,78.3 670.9,76.9 671.1,76.2 671.3,76.0 671.4,76.2 671.6,77.0 671.8,78.3 671.9,80.3 672.1,83.4 672.2,88.1 672.4,96.6 672.6,182.0 672.7,96.6 672.9,88.1 673.1,83.4 673.2,80.4 673.4,78.3 673.6,77.0 673.7,76.3 673.9,76.0 674.0,76.3 674.2,77.1 674.4,78.4 674.5,80.4 674.7,83.5 674.9,88.2 675.0,96.7 675.2,182.0 675.4,96.7 675.5,88.2 675.7,83.5 675.8,80.5 676.0,78.4 676.2,77.1 676.3,76.4 676.5,76.1 676.7,76.4 676.8,77.1 677.0,78.5 677.2,80.5 677.3,83.6 677.5,88.3 677.6,96.8 677.8,182.0 678.0,96.8 678.1,88.3 678.3,83.6 678.5,80.6 678.6,78.5 678.8,77.2 679.0,76.5 679.1,76.2 679.3,76.5 679.4,77.2 679.6,78.6 679.8,80.6 679.9,83.6 680.1,88.3 680.3,96.8 680.4,182.0 680.6,96.8 680.8,88.4 680.9,83.7 681.1,80.6 681.2,78.6 681.4,77.3 681.6,76.5 681.7,76.3 681.9,76.5 682.1,77.3 682.2,78.6 682.4,80.7 682.6,83.7 682.7,88.4 682.9,96.9 683.0,182.0 683.2,96.9 683.4,88.4 683.5,83.8 683.7,80.7 683.9,78.7 684.0,77.4 684.2,76.6 684.4,76.4 684.5,76.6 684.7,77.4 684.8,78.7 685.0,80.8 685.2,83.8 685.3,88.5 685.5,97.0 685.7,182.0 685.8,97.0 686.0,88.5 686.2,83.8 686.3,80.8 686.5,78.8 686.6,77.4 686.8,76.7 687.0,76.5 687.1,76.7 687.3,77.5 687.5,78.8 687.6,80.8 687.8,83.9 688.0,88.6 688.1,97.1 688.3,182.0 688.4,97.1 688.6,88.6 688.8,83.9 688.9,80.9 689.1,78.8 689.3,77.5 689.4,76.8 689.6,76.5 689.8,76.8 689.9,77.5 690.1,78.9 690.2,80.9 690.4,84.0 690.6,88.7 690.7,97.1 690.9,182.0 691.1,97.2 691.2,88.7 691.4,84.0 691.6,81.0 691.7,78.9 691.9,77.6 692.0,76.8 692.2,76.6 692.4,76.9 692.5,77.6 692.7,78.9 692.9,81.0 693.0,84.0 693.2,88.7 693.4,97.2 693.5,182.0 693.7,97.2 693.8,88.7 694.0,84.1 694.2,81.0 694.3,79.0 694.5,77.7 694.7,76.9 694.8,76.7 695.0,76.9 695.2,77.7 695.3,79.0 695.5,81.1 695.6,84.1 695.8,88.8 696.0,97.3 696.1,182.0 696.3,97.3 696.5,88.8 696.6,84.1 696.8,81.1 697.0,79.1 697.1,77.7 697.3,77.0 697.4,76.7 697.6,77.0 697.8,77.7 697.9,79.1 698.1,81.1 698.3,84.2 698.4,88.9 698.6,97.4 698.8,182.0 698.9,97.4 699.1,88.9 699.2,84.2 699.4,81.2 699.6,79.1 699.7,77.8 699.9,77.0 700.1,76.8 700.2,77.1 700.4,77.8 700.6,79.1 700.7,81.2 700.9,84.2 701.0,88.9 701.2,97.4 701.4,182.0 701.5,97.4 701.7,88.9 701.9,84.3 702.0,81.2 702.2,79.2 702.4,77.9 702.5,77.1 702.7,76.9 702.8,77.1 703.0,77.9 703.2,79.2 703.3,81.3 703.5,84.3 703.7,89.0 703.8,97.5 704.0,182.0 704.2,97.5 704.3,89.0 704.5,84.3 704.6,81.3 704.8,79.2 705.0,77.9 705.1,77.2 705.3,76.9 705.5,77.2 705.6,77.9 705.8,79.3 706.0,81.3 706.1,84.4 706.3,89.1 706.4,97.5 706.6,182.0 706.8,97.6 706.9,89.1 707.1,84.4 707.3,81.3 707.4,79.3 707.6,78.0 707.8,77.2 707.9,77.0 708.1,77.2 708.2,78.0 708.4,79.3 708.6,81.4 708.7,84.4 708.9,89.1 709.1,97.6 709.2,182.0 709.4,97.6 709.6,89.1 709.7,84.4 709.9,81.4 710.0,79.4 710.2,78.0 710.4,77.3 710.5,77.1 710.7,77.3 710.9,78.1 711.0,79.4 711.2,81.4 711.4,84.5 711.5,89.2 711.7,97.7 711.8,182.0 712.0,97.7 712.2,89.2 712.3,84.5 712.5,81.5 712.7,79.4 712.8,78.1 713.0,77.3 713.2,77.1 713.3,77.4 713.5,78.1 713.6,79.4 713.8,81.5 714.0,84.5 714.1,89.2 714.3,97.7 714.5,182.0 714.6,97.7 714.8,89.2 715.0,84.5 715.1,81.5 715.3,79.5 715.4,78.2 715.6,77.4 715.8,77.2 715.9,77.4 716.1,78.2 716.3,79.5 716.4,81.5 716.6,84.6 716.8,89.3 716.9,97.8 717.1,182.0 717.2,97.8 717.4,89.3 717.6,84.6 717.7,81.6 717.9,79.5 718.1,78.2 718.2,77.5 718.4,77.2 718.6,77.5 718.7,78.2 718.9,79.5 719.0,81.6 719.2,84.6 719.4,89.3 719.5,97.8 719.7,182.0 719.9,97.8 720.0,89.3 720.2,84.6 720.4,81.6 720.5,79.6 720.7,78.3 720.8,77.5 721.0,77.3 721.2,77.5 721.3,78.3 721.5,79.6 721.7,81.6 721.8,84.7 722.0,89.4 722.2,97.9 722.3,182.0 722.5,97.9 722.6,89.4 722.8,84.7 723.0,81.7 723.1,79.6 723.3,78.3 723.5,77.5 723.6,77.3 723.8,77.6 724.0,78.3 724.1,79.6 724.3,81.7 724.4,84.7 724.6,89.4 724.8,97.9 724.9,182.0 725.1,97.9 725.3,89.4 725.4,84.7 725.6,81.7 725.8,79.7 725.9,78.3 726.1,77.6 726.2,77.4 726.4,77.6 726.6,78.4 726.7,79.7 726.9,81.7 727.1,84.8 727.2,89.5 727.4,98.0 727.6,182.0 727.7,98.0 727.9,89.5 728.0,84.8 728.2,81.7 728.4,79.7 728.5,78.4 728.7,77.6 728.9,77.4 729.0,77.6 729.2,78.4 729.4,79.7 729.5,81.8 729.7,84.8 729.8,89.5 730.0,98.0 730.2,182.0 730.3,98.0 730.5,89.5 730.7,84.8 730.8,81.8 731.0,79.8 731.2,78.4 731.3,77.7 731.5,77.4 731.6,77.7 731.8,78.4 732.0,79.8 732.1,81.8 732.3,84.9 732.5,89.5 732.6,98.0 732.8,182.0 733.0,98.0 733.1,89.6 733.3,84.9 733.4,81.8 733.6,79.8 733.8,78.5 733.9,77.7 734.1,77.5 734.3,77.7 734.4,78.5 734.6,79.8 734.8,81.8 734.9,84.9 735.1,89.6 735.2,98.1 735.4,182.0 735.6,98.1 735.7,89.6 735.9,84.9 736.1,81.9 736.2,79.8 736.4,78.5 736.6,77.8 736.7,77.5 736.9,77.8 737.0,78.5 737.2,79.8 737.4,81.9 737.5,84.9 737.7,89.6 737.9,98.1 738.0,182.0 738.2,98.1 738.4,89.6 738.5,84.9 738.7,81.9 738.8,79.9 739.0,78.5 739.2,77.8 739.3,77.5 739.5,77.8 739.7,78.5 739.8,79.9 740.0,81.9 740.2,85.0 740.3,89.7 740.5,98.1 740.6,182.0 740.8,98.1 741.0,89.7 741.1,85.0 741.3,81.9 741.5,79.9 741.6,78.6 741.8,77.8 742.0,77.6 742.1,77.8 742.3,78.6 742.4,79.9 742.6,82.0 742.8,85.0 742.9,89.7 743.1,98.2 743.3,182.0 743.4,98.2 743.6,89.7 743.8,85.0 743.9,82.0 744.1,79.9 744.3,78.6 744.4,77.9 744.6,77.6 744.7,77.9 744.9,78.6 745.1,79.9 745.2,82.0 745.4,85.0 745.6,89.7 745.7,98.2 745.9,182.0 746.1,98.2 746.2,89.7 746.4,85.0 746.5,82.0 746.7,80.0 746.9,78.6 747.0,77.9 747.2,77.6 747.4,77.9 747.5,78.6 747.7,80.0 747.9,82.0 748.0,85.0 748.2,89.7 748.3,98.2 748.5,182.0 748.7,98.2 748.8,89.8 749.0,85.1 749.2,82.0 749.3,80.0 749.5,78.7 749.7,77.9 749.8,77.7 750.0,77.9 750.1,78.7 750.3,80.0 750.5,82.0 750.6,85.1 750.8,89.8 751.0,98.3 751.1,182.0 751.3,98.3 751.5,89.8 751.6,85.1 751.8,82.0 751.9,80.0 752.1,78.7 752.3,77.9 752.4,77.7 752.6,77.9 752.8,78.7 752.9,80.0 753.1,82.1 753.3,85.1 753.4,89.8 753.6,98.3 753.7,182.0 753.9,98.3 754.1,89.8 754.2,85.1 754.4,82.1 754.6,80.0 754.7,78.7 754.9,78.0 755.1,77.7 755.2,78.0 755.4,78.7 755.5,80.0 755.7,82.1 755.9,85.1 756.0,89.8 756.2,98.3 756.4,182.0 756.5,98.3 756.7,89.8 756.9,85.1 757.0,82.1 757.2,80.1 757.3,78.7 757.5,78.0 757.7,77.7 757.8,78.0 758.0,78.7 758.2,80.1 758.3,82.1 758.5,85.1 758.7,89.8 758.8,98.3 759.0,182.0 759.1,98.3 759.3,89.8 759.5,85.1 759.6,82.1 759.8,80.1 760.0,78.7 760.1,78.0 760.3,77.8 760.5,78.0 760.6,78.8 760.8,80.1 760.9,82.1 761.1,85.2 761.3,89.9 761.4,98.3 761.6,182.0 761.8,98.3 761.9,89.9 762.1,85.2 762.3,82.1 762.4,80.1 762.6,78.8 762.7,78.0 762.9,77.8 763.1,78.0 763.2,78.8 763.4,80.1 763.6,82.1 763.7,85.2 763.9,89.9 764.1,98.4 764.2,182.0 764.4,98.4 764.5,89.9 764.7,85.2 764.9,82.1 765.0,80.1 765.2,78.8 765.4,78.0 765.5,77.8 765.7,78.0 765.9,78.8 766.0,80.1 766.2,82.2 766.3,85.2 766.5,89.9 766.7,98.4 766.8,182.0 767.0,98.4 767.2,89.9 767.3,85.2 767.5,82.2 767.7,80.1 767.8,78.8 768.0,78.0 768.1,77.8 768.3,78.0 768.5,78.8 768.6,80.1 768.8,82.2 769.0,85.2 769.1,89.9 769.3,98.4 769.5,182.0 769.6,98.4 769.8,89.9 769.9,85.2 770.1,82.2 770.3,80.1 770.4,78.8 770.6,78.1 770.8,77.8 770.9,78.1 771.1,78.8 771.3,80.1 771.4,82.2 771.6,85.2 771.7,89.9 771.9,98.4 772.1,182.0 772.2,98.4 772.4,89.9 772.6,85.2 772.7,82.2 772.9,80.1 773.1,78.8 773.2,78.1 773.4,77.8 773.5,78.1 773.7,78.8 773.9,80.1 774.0,82.2 774.2,85.2 774.4,89.9 774.5,98.4 774.7,182.0 774.9,98.4 775.0,89.9 775.2,85.2 775.3,82.2 775.5,80.2 775.7,78.8 775.8,78.1 776.0,77.8 776.2,78.1 776.3,78.8 776.5,80.2 776.7,82.2 776.8,85.2 777.0,89.9 777.1,98.4 777.3,182.0 777.5,98.4 777.6,89.9 777.8,85.2 778.0,82.2 778.1,80.2 778.3,78.8 778.5,78.1 778.6,77.8 778.8,78.1 778.9,78.8 779.1,80.2 779.3,82.2 779.4,85.2 779.6,89.9 779.8,98.4 779.9,182.0 780.1,98.4 780.3,89.9 780.4,85.2 780.6,82.2 780.7,80.2 780.9,78.8 781.1,78.1 781.2,77.8 781.4,78.1 781.6,78.8 781.7,80.2 781.9,82.2 782.1,85.2 782.2,89.9 782.4,98.4 782.5,182.0 782.7,98.4 782.9,89.9 783.0,85.2 783.2,82.2 783.4,80.2 783.5,78.8 783.7,78.1 783.9,77.8 784.0,78.1 784.2,78.8 784.3,80.2 784.5,82.2 784.7,85.2 784.8,89.9 785.0,98.4" fill="none" stroke="#4a90d9" stroke-width="1.5" stroke-linejoin="round"/>
  <text x="209.5" y="214" text-anchor="middle" font-size="11" fill="#6b7280">n / N</text>
  <text x="617.5" y="214" text-anchor="middle" font-size="11" fill="#6b7280">Normalized frequency (× Fₛ)</text>
</svg>
