<svg xmlns="http://www.w3.org/2000/svg" viewBox="0 0 800 230" style="font-family:system-ui,-apple-system,sans-serif">
  <line x1="42" y1="182.0" x2="377" y2="182.0" stroke="#e5e7eb" stroke-width="0.7"/>
  <text x="37" y="186.0" text-anchor="end" font-size="10" fill="#6b7280">0</text>
  <line x1="42" y1="95.0" x2="377" y2="95.0" stroke="#e5e7eb" stroke-width="0.7"/>
  <text x="37" y="99.0" text-anchor="end" font-size="10" fill="#6b7280">0.5</text>
  <line x1="42" y1="8.0" x2="377" y2="8.0" stroke="#e5e7eb" stroke-width="0.7"/>
  <text x="37" y="12.0" text-anchor="end" font-size="10" fill="#6b7280">1</text>
  <line x1="42.0" y1="8" x2="42.0" y2="182" stroke="#e5e7eb" stroke-width="0.7"/>
  <text x="42.0" y="198" text-anchor="middle" font-size="10" fill="#6b7280">0</text>
  <line x1="209.5" y1="8" x2="209.5" y2="182" stroke="#e5e7eb" stroke-width="0.7"/>
  <text x="209.5" y="198" text-anchor="middle" font-size="10" fill="#6b7280">0.5</text>
  <line x1="377.0" y1="8" x2="377.0" y2="182" stroke="#e5e7eb" stroke-width="0.7"/>
  <text x="377.0" y="198" text-anchor="middle" font-size="10" fill="#6b7280">1</text>
  <line x1="42" y1="8" x2="42" y2="182" stroke="#d1d5db" stroke-width="1"/>
  <line x1="42" y1="182" x2="377" y2="182" stroke="#d1d5db" stroke-width="1"/>
  <path d="M42.0,182.0 42.0,182.0 43.3,179.3 44.6,176.6 45.9,173.9 47.3,171.3 48.6,168.6 49.9,166.0 51.2,163.4 52.5,160.8 53.8,158.3 55.1,155.8 56.5,153.3 57.8,150.8 59.1,148.3 60.4,145.9 61.7,143.5 63.0,141.1 64.3,138.7 65.6,136.3 67.0,134.0 68.3,131.7 69.6,129.4 70.9,127.1 72.2,124.9 73.5,122.7 74.8,120.5 76.2,118.3 77.5,116.1 78.8,114.0 80.1,111.8 81.4,109.8 82.7,107.7 84.0,105.6 85.4,103.6 86.7,101.6 88.0,99.6 89.3,97.6 90.6,95.7 91.9,93.7 93.2,91.8 94.5,89.9 95.9,88.1 97.2,86.2 98.5,84.4 99.8,82.6 101.1,80.9 102.4,79.1 103.7,77.4 105.1,75.6 106.4,74.0 107.7,72.3 109.0,70.6 110.3,69.0 111.6,67.4 112.9,65.8 114.3,64.3 115.6,62.7 116.9,61.2 118.2,59.7 119.5,58.2 120.8,56.8 122.1,55.3 123.5,53.9 124.8,52.5 126.1,51.2 127.4,49.8 128.7,48.5 130.0,47.2 131.3,45.9 132.6,44.6 134.0,43.4 135.3,42.2 136.6,41.0 137.9,39.8 139.2,38.6 140.5,37.5 141.8,36.4 143.2,35.3 144.5,34.2 145.8,33.2 147.1,32.1 148.4,31.1 149.7,30.2 151.0,29.2 152.4,28.3 153.7,27.3 155.0,26.4 156.3,25.6 157.6,24.7 158.9,23.9 160.2,23.1 161.5,22.3 162.9,21.5 164.2,20.7 165.5,20.0 166.8,19.3 168.1,18.6 169.4,18.0 170.7,17.3 172.1,16.7 173.4,16.1 174.7,15.5 176.0,15.0 177.3,14.4 178.6,13.9 179.9,13.4 181.3,12.9 182.6,12.5 183.9,12.1 185.2,11.7 186.5,11.3 187.8,10.9 189.1,10.6 190.5,10.3 191.8,10.0 193.1,9.7 194.4,9.4 195.7,9.2 197.0,9.0 198.3,8.8 199.6,8.6 201.0,8.5 202.3,8.3 203.6,8.2 204.9,8.1 206.2,8.1 207.5,8.0 208.8,8.0 210.2,8.0 211.5,8.0 212.8,8.1 214.1,8.1 215.4,8.2 216.7,8.3 218.0,8.5 219.4,8.6 220.7,8.8 222.0,9.0 223.3,9.2 224.6,9.4 225.9,9.7 227.2,10.0 228.5,10.3 229.9,10.6 231.2,10.9 232.5,11.3 233.8,11.7 235.1,12.1 236.4,12.5 237.7,12.9 239.1,13.4 240.4,13.9 241.7,14.4 243.0,15.0 244.3,15.5 245.6,16.1 246.9,16.7 248.3,17.3 249.6,18.0 250.9,18.6 252.2,19.3 253.5,20.0 254.8,20.7 256.1,21.5 257.5,22.3 258.8,23.1 260.1,23.9 261.4,24.7 262.7,25.6 264.0,26.4 265.3,27.3 266.6,28.3 268.0,29.2 269.3,30.2 270.6,31.1 271.9,32.1 273.2,33.2 274.5,34.2 275.8,35.3 277.2,36.4 278.5,37.5 279.8,38.6 281.1,39.8 282.4,41.0 283.7,42.2 285.0,43.4 286.4,44.6 287.7,45.9 289.0,47.2 290.3,48.5 291.6,49.8 292.9,51.2 294.2,52.5 295.5,53.9 296.9,55.3 298.2,56.8 299.5,58.2 300.8,59.7 302.1,61.2 303.4,62.7 304.7,64.3 306.1,65.8 307.4,67.4 308.7,69.0 310.0,70.6 311.3,72.3 312.6,74.0 313.9,75.6 315.3,77.4 316.6,79.1 317.9,80.9 319.2,82.6 320.5,84.4 321.8,86.2 323.1,88.1 324.5,89.9 325.8,91.8 327.1,93.7 328.4,95.7 329.7,97.6 331.0,99.6 332.3,101.6 333.6,103.6 335.0,105.6 336.3,107.7 337.6,109.8 338.9,111.8 340.2,114.0 341.5,116.1 342.8,118.3 344.2,120.5 345.5,122.7 346.8,124.9 348.1,127.1 349.4,129.4 350.7,131.7 352.0,134.0 353.4,136.3 354.7,138.7 356.0,141.1 357.3,143.5 358.6,145.9 359.9,148.3 361.2,150.8 362.5,153.3 363.9,155.8 365.2,158.3 366.5,160.8 367.8,163.4 369.1,166.0 370.4,168.6 371.7,171.3 373.1,173.9 374.4,176.6 375.7,179.3 377.0,182.0 L377.0,182.0 Z" fill="#4a90d9" fill-opacity="0.06"/>
  <polyline points="42.0,182.0 43.3,179.3 44.6,176.6 45.9,173.9 47.3,171.3 48.6,168.6 49.9,166.0 51.2,163.4 52.5,160.8 53.8,158.3 55.1,155.8 56.5,153.3 57.8,150.8 59.1,148.3 60.4,145.9 61.7,143.5 63.0,141.1 64.3,138.7 65.6,136.3 67.0,134.0 68.3,131.7 69.6,129.4 70.9,127.1 72.2,124.9 73.5,122.7 74.8,120.5 76.2,118.3 77.5,116.1 78.8,114.0 80.1,111.8 81.4,109.8 82.7,107.7 84.0,105.6 85.4,103.6 86.7,101.6 88.0,99.6 89.3,97.6 90.6,95.7 91.9,93.7 93.2,91.8 94.5,89.9 95.9,88.1 97.2,86.2 98.5,84.4 99.8,82.6 101.1,80.9 102.4,79.1 103.7,77.4 105.1,75.6 106.4,74.0 107.7,72.3 109.0,70.6 110.3,69.0 111.6,67.4 112.9,65.8 114.3,64.3 115.6,62.7 116.9,61.2 118.2,59.7 119.5,58.2 120.8,56.8 122.1,55.3 123.5,53.9 124.8,52.5 126.1,51.2 127.4,49.8 128.7,48.5 130.0,47.2 131.3,45.9 132.6,44.6 134.0,43.4 135.3,42.2 136.6,41.0 137.9,39.8 139.2,38.6 140.5,37.5 141.8,36.4 143.2,35.3 144.5,34.2 145.8,33.2 147.1,32.1 148.4,31.1 149.7,30.2 151.0,29.2 152.4,28.3 153.7,27.3 155.0,26.4 156.3,25.6 157.6,24.7 158.9,23.9 160.2,23.1 161.5,22.3 162.9,21.5 164.2,20.7 165.5,20.0 166.8,19.3 168.1,18.6 169.4,18.0 170.7,17.3 172.1,16.7 173.4,16.1 174.7,15.5 176.0,15.0 177.3,14.4 178.6,13.9 179.9,13.4 181.3,12.9 182.6,12.5 183.9,12.1 185.2,11.7 186.5,11.3 187.8,10.9 189.1,10.6 190.5,10.3 191.8,10.0 193.1,9.7 194.4,9.4 195.7,9.2 197.0,9.0 198.3,8.8 199.6,8.6 201.0,8.5 202.3,8.3 203.6,8.2 204.9,8.1 206.2,8.1 207.5,8.0 208.8,8.0 210.2,8.0 211.5,8.0 212.8,8.1 214.1,8.1 215.4,8.2 216.7,8.3 218.0,8.5 219.4,8.6 220.7,8.8 222.0,9.0 223.3,9.2 224.6,9.4 225.9,9.7 227.2,10.0 228.5,10.3 229.9,10.6 231.2,10.9 232.5,11.3 233.8,11.7 235.1,12.1 236.4,12.5 237.7,12.9 239.1,13.4 240.4,13.9 241.7,14.4 243.0,15.0 244.3,15.5 245.6,16.1 246.9,16.7 248.3,17.3 249.6,18.0 250.9,18.6 252.2,19.3 253.5,20.0 254.8,20.7 256.1,21.5 257.5,22.3 258.8,23.1 260.1,23.9 261.4,24.7 262.7,25.6 264.0,26.4 265.3,27.3 266.6,28.3 268.0,29.2 269.3,30.2 270.6,31.1 271.9,32.1 273.2,33.2 274.5,34.2 275.8,35.3 277.2,36.4 278.5,37.5 279.8,38.6 281.1,39.8 282.4,41.0 283.7,42.2 285.0,43.4 286.4,44.6 287.7,45.9 289.0,47.2 290.3,48.5 291.6,49.8 292.9,51.2 294.2,52.5 295.5,53.9 296.9,55.3 298.2,56.8 299.5,58.2 300.8,59.7 302.1,61.2 303.4,62.7 304.7,64.3 306.1,65.8 307.4,67.4 308.7,69.0 310.0,70.6 311.3,72.3 312.6,74.0 313.9,75.6 315.3,77.4 316.6,79.1 317.9,80.9 319.2,82.6 320.5,84.4 321.8,86.2 323.1,88.1 324.5,89.9 325.8,91.8 327.1,93.7 328.4,95.7 329.7,97.6 331.0,99.6 332.3,101.6 333.6,103.6 335.0,105.6 336.3,107.7 337.6,109.8 338.9,111.8 340.2,114.0 341.5,116.1 342.8,118.3 344.2,120.5 345.5,122.7 346.8,124.9 348.1,127.1 349.4,129.4 350.7,131.7 352.0,134.0 353.4,136.3 354.7,138.7 356.0,141.1 357.3,143.5 358.6,145.9 359.9,148.3 361.2,150.8 362.5,153.3 363.9,155.8 365.2,158.3 366.5,160.8 367.8,163.4 369.1,166.0 370.4,168.6 371.7,171.3 373.1,173.9 374.4,176.6 375.7,179.3 377.0,182.0" fill="none" stroke="#4a90d9" stroke-width="1.5" stroke-linejoin="round"/>
  <line x1="450" y1="8.0" x2="785" y2="8.0" stroke="#e5e7eb" stroke-width="0.7"/>
  <text x="445" y="12.0" text-anchor="end" font-size="10" fill="#6b7280">0</text>
  <line x1="450" y1="66.0" x2="785" y2="66.0" stroke="#e5e7eb" stroke-width="0.7"/>
  <text x="445" y="70.0" text-anchor="end" font-size="10" fill="#6b7280">-40</text>
  <line x1="450" y1="124.0" x2="785" y2="124.0" stroke="#e5e7eb" stroke-width="0.7"/>
  <text x="445" y="128.0" text-anchor="end" font-size="10" fill="#6b7280">-80</text>
  <line x1="450" y1="182.0" x2="785" y2="182.0" stroke="#e5e7eb" stroke-width="0.7"/>
  <text x="445" y="186.0" text-anchor="end" font-size="10" fill="#6b7280">-120</text>
  <line x1="450.0" y1="8" x2="450.0" y2="182" stroke="#e5e7eb" stroke-width="0.7"/>
  <text x="450.0" y="198" text-anchor="middle" font-size="10" fill="#6b7280">0</text>
  <line x1="517.0" y1="8" x2="517.0" y2="182" stroke="#e5e7eb" stroke-width="0.7"/>
  <text x="517.0" y="198" text-anchor="middle" font-size="10" fill="#6b7280">0.1</text>
  <line x1="584.0" y1="8" x2="584.0" y2="182" stroke="#e5e7eb" stroke-width="0.7"/>
  <text x="584.0" y="198" text-anchor="middle" font-size="10" fill="#6b7280">0.2</text>
  <line x1="651.0" y1="8" x2="651.0" y2="182" stroke="#e5e7eb" stroke-width="0.7"/>
  <text x="651.0" y="198" text-anchor="middle" font-size="10" fill="#6b7280">0.3</text>
  <line x1="718.0" y1="8" x2="718.0" y2="182" stroke="#e5e7eb" stroke-width="0.7"/>
  <text x="718.0" y="198" text-anchor="middle" font-size="10" fill="#6b7280">0.4</text>
  <line x1="785.0" y1="8" x2="785.0" y2="182" stroke="#e5e7eb" stroke-width="0.7"/>
  <text x="785.0" y="198" text-anchor="middle" font-size="10" fill="#6b7280">0.5</text>
  <line x1="450" y1="8" x2="450" y2="182" stroke="#d1d5db" stroke-width="1"/>
  <line x1="450" y1="182" x2="785" y2="182" stroke="#d1d5db" stroke-width="1"/>
  <polyline points="450.0,8.0 450.2,8.0 450.3,8.2 450.5,8.4 450.7,8.8 450.8,9.2 451.0,9.8 451.1,10.4 451.3,11.2 451.5,12.1 451.6,13.1 451.8,14.3 452.0,15.6 452.1,17.1 452.3,18.8 452.5,20.7 452.6,22.9 452.8,25.4 452.9,28.3 453.1,31.8 453.3,36.3 453.4,42.3 453.6,52.2 453.8,99.2 453.9,53.7 454.1,46.4 454.3,42.7 454.4,40.6 454.6,39.4 454.7,38.9 454.9,38.9 455.1,39.4 455.2,40.3 455.4,41.7 455.6,43.5 455.7,45.9 455.9,49.2 456.1,53.6 456.2,60.4 456.4,74.8 456.5,75.4 456.7,62.3 456.9,56.8 457.0,53.6 457.2,51.7 457.4,50.6 457.5,50.1 457.7,50.1 457.9,50.5 458.0,51.5 458.2,52.9 458.3,54.9 458.5,57.7 458.7,61.5 458.8,67.3 459.0,78.2 459.2,92.6 459.3,72.8 459.5,66.1 459.7,62.4 459.8,60.0 460.0,58.6 460.1,57.8 460.3,57.5 460.5,57.8 460.6,58.5 460.8,59.7 461.0,61.5 461.1,64.0 461.3,67.5 461.5,72.7 461.6,82.1 461.8,113.1 461.9,80.8 462.1,73.2 462.3,69.0 462.4,66.4 462.6,64.7 462.8,63.7 462.9,63.3 463.1,63.4 463.3,64.0 463.4,65.0 463.6,66.6 463.7,68.9 463.9,72.2 464.1,77.1 464.2,85.6 464.4,124.4 464.6,87.4 464.7,78.8 464.9,74.3 465.1,71.5 465.2,69.7 465.4,68.6 465.5,68.0 465.7,68.0 465.9,68.4 466.0,69.4 466.2,70.9 466.4,73.1 466.5,76.2 466.7,80.8 466.9,88.6 467.0,113.9 467.2,93.0 467.3,83.6 467.5,78.8 467.7,75.8 467.8,73.8 468.0,72.6 468.2,72.0 468.3,71.9 468.5,72.2 468.7,73.1 468.8,74.5 469.0,76.6 469.1,79.5 469.3,83.9 469.5,91.2 469.6,111.4 469.8,98.1 470.0,87.8 470.1,82.7 470.3,79.5 470.5,77.4 470.6,76.1 470.8,75.4 470.9,75.2 471.1,75.5 471.3,76.3 471.4,77.7 471.6,79.6 471.8,82.5 471.9,86.7 472.1,93.6 472.3,110.8 472.4,102.8 472.6,91.5 472.7,86.1 472.9,82.8 473.1,80.6 473.2,79.3 473.4,78.5 473.6,78.2 473.7,78.5 473.9,79.2 474.1,80.4 474.2,82.3 474.4,85.1 474.5,89.1 474.7,95.6 474.9,110.9 475.0,107.3 475.2,94.9 475.4,89.2 475.5,85.8 475.7,83.5 475.9,82.0 476.0,81.2 476.2,80.9 476.3,81.1 476.5,81.7 476.7,82.9 476.8,84.7 477.0,87.4 477.2,91.3 477.3,97.5 477.5,111.3 477.7,111.6 477.8,98.0 478.0,92.0 478.1,88.4 478.3,86.1 478.5,84.6 478.6,83.7 478.8,83.3 479.0,83.4 479.1,84.0 479.3,85.2 479.5,86.9 479.6,89.5 479.8,93.2 479.9,99.2 480.1,111.8 480.3,116.0 480.4,100.9 480.6,94.6 480.8,90.9 480.9,88.5 481.1,86.9 481.3,85.9 481.4,85.5 481.6,85.6 481.7,86.1 481.9,87.2 482.1,88.9 482.2,91.4 482.4,95.0 482.6,100.7 482.7,112.3 482.9,120.5 483.1,103.6 483.2,97.1 483.4,93.2 483.5,90.6 483.7,89.0 483.9,88.0 484.0,87.5 484.2,87.5 484.4,88.1 484.5,89.1 484.7,90.7 484.9,93.1 485.0,96.6 485.2,102.1 485.3,112.9 485.5,125.4 485.7,106.2 485.8,99.3 486.0,95.3 486.2,92.7 486.3,91.0 486.5,89.9 486.7,89.4 486.8,89.4 487.0,89.8 487.1,90.8 487.3,92.4 487.5,94.7 487.6,98.1 487.8,103.4 488.0,113.6 488.1,131.0 488.3,108.7 488.5,101.5 488.6,97.3 488.8,94.6 488.9,92.8 489.1,91.7 489.3,91.1 489.4,91.1 489.6,91.5 489.8,92.4 489.9,94.0 490.1,96.2 490.3,99.5 490.4,104.6 490.6,114.2 490.7,138.0 490.9,111.1 491.1,103.5 491.2,99.2 491.4,96.4 491.6,94.5 491.7,93.4 491.9,92.8 492.1,92.7 492.2,93.1 492.4,94.0 492.6,95.4 492.7,97.6 492.9,100.8 493.0,105.8 493.2,114.8 493.4,149.0 493.5,113.4 493.7,105.4 493.9,100.9 494.0,98.1 494.2,96.2 494.4,94.9 494.5,94.3 494.7,94.2 494.8,94.5 495.0,95.4 495.2,96.8 495.3,98.9 495.5,102.0 495.7,106.8 495.8,115.4 496.0,178.9 496.2,115.7 496.3,107.3 496.5,102.6 496.6,99.7 496.8,97.7 497.0,96.4 497.1,95.8 497.3,95.6 497.5,95.9 497.6,96.7 497.8,98.1 498.0,100.1 498.1,103.2 498.3,107.8 498.4,115.9 498.6,149.6 498.8,117.9 498.9,109.0 499.1,104.2 499.3,101.2 499.4,99.2 499.6,97.9 499.8,97.1 499.9,96.9 500.1,97.2 500.2,98.0 500.4,99.3 500.6,101.3 500.7,104.3 500.9,108.7 501.1,116.5 501.2,142.7 501.4,120.2 501.6,110.7 501.7,105.8 501.9,102.6 502.0,100.6 502.2,99.2 502.4,98.4 502.5,98.2 502.7,98.4 502.9,99.2 503.0,100.4 503.2,102.4 503.4,105.3 503.5,109.6 503.7,117.0 503.8,139.1 504.0,122.4 504.2,112.4 504.3,107.3 504.5,104.0 504.7,101.9 504.8,100.5 505.0,99.7 505.2,99.4 505.3,99.6 505.5,100.3 505.6,101.5 505.8,103.4 506.0,106.2 506.1,110.4 506.3,117.5 506.5,136.8 506.6,124.7 506.8,114.0 507.0,108.7 507.1,105.4 507.3,103.2 507.4,101.7 507.6,100.9 507.8,100.5 507.9,100.7 508.1,101.4 508.3,102.6 508.4,104.4 508.6,107.1 508.8,111.2 508.9,118.0 509.1,135.2 509.2,127.0 509.4,115.6 509.6,110.1 509.7,106.7 509.9,104.4 510.1,102.9 510.2,102.0 510.4,101.6 510.6,101.8 510.7,102.4 510.9,103.5 511.0,105.3 511.2,108.0 511.4,112.0 511.5,118.5 511.7,134.0 511.9,129.4 512.0,117.2 512.2,111.4 512.4,107.9 512.5,105.6 512.7,104.0 512.8,103.1 513.0,102.7 513.2,102.8 513.3,103.4 513.5,104.5 513.7,106.2 513.8,108.8 514.0,112.7 514.2,118.9 514.3,133.2 514.5,131.9 514.6,118.7 514.8,112.7 515.0,109.1 515.1,106.7 515.3,105.1 515.5,104.1 515.6,103.7 515.8,103.8 516.0,104.3 516.1,105.4 516.3,107.1 516.4,109.6 516.6,113.3 516.8,119.4 516.9,132.5 517.1,134.5 517.3,120.2 517.4,114.0 517.6,110.3 517.8,107.8 517.9,106.1 518.1,105.1 518.2,104.7 518.4,104.7 518.6,105.2 518.7,106.2 518.9,107.9 519.1,110.4 519.2,114.0 519.4,119.8 519.6,132.0 519.7,137.3 519.9,121.7 520.0,115.2 520.2,111.4 520.4,108.8 520.5,107.2 520.7,106.1 520.9,105.6 521.0,105.6 521.2,106.1 521.4,107.1 521.5,108.7 521.7,111.1 521.8,114.6 522.0,120.2 522.2,131.6 522.3,140.5 522.5,123.2 522.7,116.5 522.8,112.5 523.0,109.9 523.2,108.1 523.3,107.0 523.5,106.5 523.6,106.5 523.8,106.9 524.0,107.9 524.1,109.4 524.3,111.8 524.5,115.2 524.6,120.6 524.8,131.3 525.0,144.1 525.1,124.6 525.3,117.6 525.4,113.5 525.6,110.9 525.8,109.1 525.9,108.0 526.1,107.4 526.3,107.3 526.4,107.7 526.6,108.6 526.8,110.1 526.9,112.4 527.1,115.8 527.2,121.0 527.4,131.1 527.6,148.4 527.7,126.1 527.9,118.8 528.1,114.6 528.2,111.8 528.4,110.0 528.6,108.8 528.7,108.2 528.9,108.1 529.0,108.5 529.2,109.4 529.4,110.8 529.5,113.1 529.7,116.3 529.9,121.4 530.0,130.9 530.2,154.1 530.4,127.6 530.5,119.9 530.7,115.6 530.8,112.8 531.0,110.9 531.2,109.7 531.3,109.0 531.5,108.9 531.7,109.2 531.8,110.1 532.0,111.5 532.2,113.7 532.3,116.8 532.5,121.8 532.6,130.8 532.8,162.9 533.0,129.1 533.1,121.1 533.3,116.6 533.5,113.7 533.6,111.7 533.8,110.5 534.0,109.8 534.1,109.6 534.3,109.9 534.4,110.8 534.6,112.1 534.8,114.2 534.9,117.3 535.1,122.1 535.3,130.7 535.4,182.0 535.6,130.6 535.8,122.2 535.9,117.6 536.1,114.6 536.2,112.6 536.4,111.3 536.6,110.6 536.7,110.4 536.9,110.6 537.1,111.4 537.2,112.8 537.4,114.8 537.6,117.8 537.7,122.5 537.9,130.6 538.0,167.5 538.2,132.1 538.4,123.3 538.5,118.5 538.7,115.4 538.9,113.4 539.0,112.1 539.2,111.3 539.4,111.1 539.5,111.3 539.7,112.1 539.8,113.4 540.0,115.4 540.2,118.3 540.3,122.8 540.5,130.6 540.7,158.6 540.8,133.7 541.0,124.4 541.2,119.5 541.3,116.3 541.5,114.2 541.6,112.8 541.8,112.0 542.0,111.8 542.1,112.0 542.3,112.7 542.5,113.9 542.6,115.9 542.8,118.8 543.0,123.1 543.1,130.6 543.3,153.9 543.4,135.3 543.6,125.5 543.8,120.4 543.9,117.1 544.1,115.0 544.3,113.6 544.4,112.7 544.6,112.4 544.8,112.6 544.9,113.3 545.1,114.5 545.2,116.4 545.4,119.2 545.6,123.4 545.7,130.6 545.9,150.8 546.1,137.0 546.2,126.6 546.4,121.3 546.6,118.0 546.7,115.7 546.9,114.3 547.0,113.4 547.2,113.1 547.4,113.2 547.5,113.9 547.7,115.1 547.9,116.9 548.0,119.6 548.2,123.7 548.4,130.6 548.5,148.6 548.7,138.7 548.8,127.6 549.0,122.2 549.2,118.8 549.3,116.5 549.5,115.0 549.7,114.1 549.8,113.7 550.0,113.8 550.2,114.4 550.3,115.6 550.5,117.4 550.6,120.0 550.8,124.0 551.0,130.6 551.1,146.8 551.3,140.6 551.5,128.7 551.6,123.1 551.8,119.5 552.0,117.2 552.1,115.7 552.3,114.7 552.4,114.3 552.6,114.4 552.8,115.0 552.9,116.1 553.1,117.8 553.3,120.4 553.4,124.3 553.6,130.7 553.8,145.5 553.9,142.5 554.1,129.8 554.2,123.9 554.4,120.3 554.6,117.9 554.7,116.3 554.9,115.4 555.1,114.9 555.2,115.0 555.4,115.5 555.6,116.6 555.7,118.3 555.9,120.8 556.0,124.6 556.2,130.7 556.4,144.3 556.5,144.6 556.7,130.9 556.9,124.8 557.0,121.1 557.2,118.6 557.4,117.0 557.5,116.0 557.7,115.5 557.8,115.5 558.0,116.0 558.2,117.1 558.3,118.7 558.5,121.2 558.7,124.9 558.8,130.8 559.0,143.4 559.2,146.9 559.3,132.0 559.5,125.7 559.6,121.8 559.8,119.3 560.0,117.6 560.1,116.6 560.3,116.1 560.5,116.1 560.6,116.5 560.8,117.5 561.0,119.1 561.1,121.5 561.3,125.1 561.4,130.8 561.6,142.6 561.8,149.4 561.9,133.1 562.1,126.5 562.3,122.6 562.4,120.0 562.6,118.3 562.8,117.2 562.9,116.6 563.1,116.6 563.2,117.0 563.4,118.0 563.6,119.6 563.7,121.9 563.9,125.4 564.1,130.9 564.2,142.0 564.4,152.4 564.6,134.2 564.7,127.4 564.9,123.3 565.0,120.6 565.2,118.9 565.4,117.7 565.5,117.2 565.7,117.1 565.9,117.5 566.0,118.4 566.2,120.0 566.4,122.2 566.5,125.6 566.7,131.0 566.8,141.4 567.0,155.8 567.2,135.3 567.3,128.2 567.5,124.0 567.7,121.3 567.8,119.5 568.0,118.3 568.2,117.7 568.3,117.6 568.5,118.0 568.6,118.9 568.8,120.3 569.0,122.6 569.1,125.9 569.3,131.0 569.5,140.9 569.6,160.2 569.8,136.5 570.0,129.0 570.1,124.7 570.3,121.9 570.4,120.1 570.6,118.9 570.8,118.2 570.9,118.1 571.1,118.4 571.3,119.3 571.4,120.7 571.6,122.9 571.8,126.1 571.9,131.1 572.1,140.4 572.2,166.3 572.4,137.6 572.6,129.9 572.7,125.4 572.9,122.6 573.1,120.6 573.2,119.4 573.4,118.7 573.6,118.6 573.7,118.9 573.9,119.7 574.0,121.1 574.2,123.2 574.4,126.3 574.5,131.2 574.7,140.0 574.9,177.1 575.0,138.8 575.2,130.7 575.4,126.1 575.5,123.2 575.7,121.2 575.9,119.9 576.0,119.2 576.2,119.0 576.3,119.3 576.5,120.1 576.7,121.4 576.8,123.5 577.0,126.6 577.2,131.3 577.3,139.7 577.5,182.0 577.7,140.1 577.8,131.5 578.0,126.8 578.1,123.8 578.3,121.8 578.5,120.5 578.6,119.7 578.8,119.5 579.0,119.7 579.1,120.5 579.3,121.8 579.5,123.8 579.6,126.8 579.8,131.3 579.9,139.4 580.1,172.5 580.3,141.4 580.4,132.4 580.6,127.5 580.8,124.4 580.9,122.3 581.1,121.0 581.3,120.2 581.4,119.9 581.6,120.1 581.7,120.9 581.9,122.1 582.1,124.1 582.2,127.0 582.4,131.4 582.6,139.1 582.7,165.4 582.9,142.7 583.1,133.2 583.2,128.2 583.4,125.0 583.5,122.9 583.7,121.5 583.9,120.7 584.0,120.4 584.2,120.5 584.4,121.2 584.5,122.5 584.7,124.4 584.9,127.2 585.0,131.5 585.2,138.9 585.3,161.1 585.5,144.1 585.7,134.1 585.8,128.9 586.0,125.6 586.2,123.4 586.3,122.0 586.5,121.1 586.7,120.8 586.8,120.9 587.0,121.6 587.1,122.8 587.3,124.6 587.5,127.4 587.6,131.6 587.8,138.6 588.0,158.1 588.1,145.5 588.3,134.9 588.5,129.6 588.6,126.2 588.8,123.9 588.9,122.4 589.1,121.6 589.3,121.2 589.4,121.3 589.6,121.9 589.8,123.1 589.9,124.9 590.1,127.6 590.3,131.7 590.4,138.5 590.6,155.9 590.7,147.1 590.9,135.8 591.1,130.2 591.2,126.8 591.4,124.5 591.6,122.9 591.7,122.0 591.9,121.6 592.1,121.7 592.2,122.3 592.4,123.4 592.5,125.2 592.7,127.8 592.9,131.7 593.0,138.3 593.2,154.1 593.4,148.7 593.5,136.6 593.7,130.9 593.9,127.3 594.0,125.0 594.2,123.4 594.3,122.4 594.5,122.0 594.7,122.1 594.8,122.6 595.0,123.7 595.2,125.4 595.3,128.0 595.5,131.8 595.7,138.1 595.8,152.6 596.0,150.5 596.1,137.5 596.3,131.6 596.5,127.9 596.6,125.5 596.8,123.9 597.0,122.9 597.1,122.4 597.3,122.4 597.5,123.0 597.6,124.0 597.8,125.7 597.9,128.2 598.1,131.9 598.3,138.0 598.4,151.3 598.6,152.4 598.8,138.4 598.9,132.2 599.1,128.5 599.3,126.0 599.4,124.3 599.6,123.3 599.7,122.8 599.9,122.8 600.1,123.3 600.2,124.3 600.4,125.9 600.6,128.4 600.7,132.0 600.9,137.8 601.1,150.2 601.2,154.5 601.4,139.3 601.5,132.9 601.7,129.0 601.9,126.5 602.0,124.8 602.2,123.7 602.4,123.2 602.5,123.1 602.7,123.6 602.9,124.6 603.0,126.2 603.2,128.5 603.3,132.1 603.5,137.7 603.7,149.3 603.8,157.0 604.0,140.2 604.2,133.6 604.3,129.6 604.5,127.0 604.7,125.2 604.8,124.1 605.0,123.5 605.1,123.5 605.3,123.9 605.5,124.8 605.6,126.4 605.8,128.7 606.0,132.1 606.1,137.6 606.3,148.5 606.5,159.8 606.6,141.1 606.8,134.2 606.9,130.1 607.1,127.4 607.3,125.6 607.4,124.5 607.6,123.9 607.8,123.8 607.9,124.2 608.1,125.1 608.3,126.6 608.4,128.9 608.6,132.2 608.7,137.5 608.9,147.8 609.1,163.3 609.2,142.1 609.4,134.9 609.6,130.7 609.7,127.9 609.9,126.1 610.1,124.9 610.2,124.3 610.4,124.1 610.5,124.5 610.7,125.4 610.9,126.8 611.0,129.0 611.2,132.3 611.4,137.4 611.5,147.1 611.7,167.7 611.9,143.1 612.0,135.6 612.2,131.2 612.3,128.4 612.5,126.5 612.7,125.3 612.8,124.6 613.0,124.5 613.2,124.8 613.3,125.6 613.5,127.0 613.7,129.2 613.8,132.4 614.0,137.3 614.1,146.5 614.3,174.3 614.5,144.1 614.6,136.2 614.8,131.8 615.0,128.9 615.1,126.9 615.3,125.7 615.5,125.0 615.6,124.8 615.8,125.1 615.9,125.9 616.1,127.3 616.3,129.4 616.4,132.5 616.6,137.3 616.8,146.0 616.9,182.0 617.1,145.1 617.3,136.9 617.4,132.3 617.6,129.3 617.7,127.3 617.9,126.0 618.1,125.3 618.2,125.1 618.4,125.4 618.6,126.1 618.7,127.5 618.9,129.5 619.1,132.5 619.2,137.2 619.4,145.5 619.5,182.0 619.7,146.2 619.9,137.6 620.0,132.8 620.2,129.8 620.4,127.7 620.5,126.4 620.7,125.6 620.9,125.4 621.0,125.6 621.2,126.4 621.3,127.7 621.5,129.7 621.7,132.6 621.8,137.1 622.0,145.1 622.2,176.3 622.3,147.4 622.5,138.3 622.7,133.4 622.8,130.2 623.0,128.1 623.1,126.8 623.3,126.0 623.5,125.7 623.6,125.9 623.8,126.6 624.0,127.9 624.1,129.8 624.3,132.7 624.5,137.1 624.6,144.7 624.8,170.0 624.9,148.6 625.1,139.0 625.3,133.9 625.4,130.7 625.6,128.5 625.8,127.1 625.9,126.3 626.1,126.0 626.3,126.2 626.4,126.8 626.6,128.0 626.7,129.9 626.9,132.7 627.1,137.0 627.2,144.3 627.4,165.9 627.6,149.8 627.7,139.7 627.9,134.5 628.1,131.2 628.2,128.9 628.4,127.5 628.5,126.6 628.7,126.3 628.9,126.4 629.0,127.0 629.2,128.2 629.4,130.1 629.5,132.8 629.7,137.0 629.9,144.0 630.0,163.0 630.2,151.2 630.3,140.4 630.5,135.0 630.7,131.6 630.8,129.3 631.0,127.8 631.2,126.9 631.3,126.6 631.5,126.7 631.7,127.3 631.8,128.4 632.0,130.2 632.1,132.9 632.3,136.9 632.5,143.6 632.6,160.7 632.8,152.6 633.0,141.1 633.1,135.5 633.3,132.1 633.5,129.7 633.6,128.2 633.8,127.2 633.9,126.8 634.1,126.9 634.3,127.5 634.4,128.6 634.6,130.3 634.8,132.9 634.9,136.9 635.1,143.3 635.3,158.8 635.4,154.1 635.6,141.9 635.7,136.1 635.9,132.5 636.1,130.1 636.2,128.5 636.4,127.6 636.6,127.1 636.7,127.2 636.9,127.7 637.1,128.8 637.2,130.5 637.4,133.0 637.5,136.8 637.7,143.1 637.9,157.3 638.0,155.8 638.2,142.6 638.4,136.6 638.5,132.9 638.7,130.5 638.9,128.9 639.0,127.9 639.2,127.4 639.3,127.4 639.5,127.9 639.7,128.9 639.8,130.6 640.0,133.1 640.2,136.8 640.3,142.8 640.5,155.9 640.7,157.6 640.8,143.4 641.0,137.2 641.1,133.4 641.3,130.9 641.5,129.2 641.6,128.2 641.8,127.6 642.0,127.6 642.1,128.1 642.3,129.1 642.5,130.7 642.6,133.1 642.8,136.7 642.9,142.5 643.1,154.8 643.3,159.7 643.4,144.2 643.6,137.7 643.8,133.8 643.9,131.2 644.1,129.5 644.3,128.4 644.4,127.9 644.6,127.9 644.7,128.3 644.9,129.3 645.1,130.8 645.2,133.2 645.4,136.7 645.6,142.3 645.7,153.8 645.9,162.1 646.1,145.0 646.2,138.3 646.4,134.3 646.5,131.6 646.7,129.9 646.9,128.7 647.0,128.2 647.2,128.1 647.4,128.5 647.5,129.4 647.7,131.0 647.9,133.3 648.0,136.7 648.2,142.1 648.3,152.9 648.5,164.9 648.7,145.8 648.8,138.8 649.0,134.7 649.2,132.0 649.3,130.2 649.5,129.0 649.7,128.4 649.8,128.3 650.0,128.7 650.1,129.6 650.3,131.1 650.5,133.3 650.6,136.6 650.8,141.9 651.0,152.0 651.1,168.3 651.3,146.6 651.5,139.4 651.6,135.1 651.8,132.4 651.9,130.5 652.1,129.3 652.3,128.7 652.4,128.5 652.6,128.9 652.8,129.7 652.9,131.2 653.1,133.4 653.3,136.6 653.4,141.7 653.6,151.3 653.7,173.0 653.9,147.5 654.1,139.9 654.2,135.6 654.4,132.7 654.6,130.8 654.7,129.6 654.9,128.9 655.1,128.7 655.2,129.1 655.4,129.9 655.5,131.3 655.7,133.4 655.9,136.6 656.0,141.5 656.2,150.6 656.4,180.0 656.5,148.4 656.7,140.5 656.9,136.0 657.0,133.1 657.2,131.1 657.3,129.9 657.5,129.2 657.7,129.0 657.8,129.2 658.0,130.0 658.2,131.4 658.3,133.5 658.5,136.6 658.7,141.3 658.8,150.0 659.0,182.0 659.1,149.4 659.3,141.1 659.5,136.4 659.6,133.4 659.8,131.4 660.0,130.1 660.1,129.4 660.3,129.2 660.5,129.4 660.6,130.2 660.8,131.5 661.0,133.5 661.1,136.5 661.3,141.2 661.4,149.4 661.6,182.0 661.8,150.4 661.9,141.7 662.1,136.9 662.3,133.8 662.4,131.7 662.6,130.4 662.8,129.6 662.9,129.4 663.1,129.6 663.2,130.3 663.4,131.6 663.6,133.6 663.7,136.5 663.9,141.0 664.1,148.9 664.2,178.9 664.4,151.4 664.6,142.2 664.7,137.3 664.9,134.2 665.0,132.0 665.2,130.7 665.4,129.9 665.5,129.6 665.7,129.8 665.9,130.4 666.0,131.7 666.2,133.6 666.4,136.5 666.5,140.8 666.7,148.4 666.8,173.0 667.0,152.5 667.2,142.8 667.3,137.8 667.5,134.5 667.7,132.4 667.8,130.9 668.0,130.1 668.2,129.8 668.3,129.9 668.5,130.6 668.6,131.8 668.8,133.7 669.0,136.5 669.1,140.7 669.3,147.9 669.5,169.1 669.6,153.7 669.8,143.5 670.0,138.2 670.1,134.9 670.3,132.7 670.4,131.2 670.6,130.3 670.8,130.0 670.9,130.1 671.1,130.7 671.3,131.9 671.4,133.7 671.6,136.4 671.8,140.5 671.9,147.5 672.1,166.2 672.2,154.9 672.4,144.1 672.6,138.7 672.7,135.2 672.9,133.0 673.1,131.4 673.2,130.5 673.4,130.1 673.6,130.2 673.7,130.8 673.9,132.0 674.0,133.7 674.2,136.4 674.4,140.4 674.5,147.1 674.7,163.9 674.9,156.3 675.0,144.7 675.2,139.1 675.4,135.6 675.5,133.2 675.7,131.7 675.8,130.7 676.0,130.3 676.2,130.4 676.3,131.0 676.5,132.0 676.7,133.8 676.8,136.4 677.0,140.3 677.2,146.7 677.3,162.0 677.5,157.7 677.6,145.4 677.8,139.5 678.0,135.9 678.1,133.5 678.3,131.9 678.5,131.0 678.6,130.5 678.8,130.5 679.0,131.1 679.1,132.1 679.3,133.8 679.4,136.4 679.6,140.1 679.8,146.3 679.9,160.4 680.1,159.4 680.3,146.0 680.4,140.0 680.6,136.3 680.8,133.8 680.9,132.2 681.1,131.2 681.2,130.7 681.4,130.7 681.6,131.2 681.7,132.2 681.9,133.9 682.1,136.3 682.2,140.0 682.4,146.0 682.6,159.0 682.7,161.1 682.9,146.7 683.0,140.5 683.2,136.7 683.4,134.1 683.5,132.4 683.7,131.4 683.9,130.9 684.0,130.8 684.2,131.3 684.4,132.3 684.5,133.9 684.7,136.3 684.8,139.9 685.0,145.7 685.2,157.8 685.3,163.2 685.5,147.4 685.7,140.9 685.8,137.0 686.0,134.4 686.2,132.7 686.3,131.6 686.5,131.0 686.6,131.0 686.8,131.4 687.0,132.4 687.1,133.9 687.3,136.3 687.5,139.8 687.6,145.3 687.8,156.7 688.0,165.5 688.1,148.1 688.3,141.4 688.4,137.4 688.6,134.7 688.8,132.9 688.9,131.8 689.1,131.2 689.3,131.1 689.4,131.5 689.6,132.4 689.8,134.0 689.9,136.3 690.1,139.7 690.2,145.0 690.4,155.7 690.6,168.3 690.7,148.9 690.9,141.9 691.1,137.7 691.2,135.0 691.4,133.2 691.6,132.0 691.7,131.4 691.9,131.3 692.0,131.6 692.2,132.5 692.4,134.0 692.5,136.2 692.7,139.5 692.9,144.8 693.0,154.8 693.2,171.8 693.4,149.7 693.5,142.3 693.7,138.1 693.8,135.3 694.0,133.4 694.2,132.2 694.3,131.6 694.5,131.4 694.7,131.7 694.8,132.6 695.0,134.0 695.2,136.2 695.3,139.4 695.5,144.5 695.6,154.0 695.8,176.6 696.0,150.5 696.1,142.8 696.3,138.4 696.5,135.6 696.6,133.6 696.8,132.4 697.0,131.7 697.1,131.5 697.3,131.8 697.4,132.7 697.6,134.1 697.8,136.2 697.9,139.3 698.1,144.2 698.3,153.3 698.4,182.0 698.6,151.3 698.8,143.3 698.9,138.8 699.1,135.8 699.2,133.9 699.4,132.6 699.6,131.9 699.7,131.7 699.9,131.9 700.1,132.7 700.2,134.1 700.4,136.1 700.6,139.2 700.7,144.0 700.9,152.6 701.0,182.0 701.2,152.2 701.4,143.8 701.5,139.1 701.7,136.1 701.9,134.1 702.0,132.8 702.2,132.0 702.4,131.8 702.5,132.0 702.7,132.8 702.8,134.1 703.0,136.1 703.2,139.1 703.3,143.7 703.5,151.9 703.7,182.0 703.8,153.1 704.0,144.3 704.2,139.5 704.3,136.4 704.5,134.3 704.6,133.0 704.8,132.2 705.0,131.9 705.1,132.1 705.3,132.8 705.5,134.1 705.6,136.1 705.8,139.0 706.0,143.5 706.1,151.3 706.3,180.3 706.4,154.1 706.6,144.8 706.8,139.9 706.9,136.7 707.1,134.6 707.3,133.2 707.4,132.3 707.6,132.0 707.8,132.2 707.9,132.9 708.1,134.1 708.2,136.1 708.4,138.9 708.6,143.2 708.7,150.7 708.9,174.8 709.1,155.1 709.2,145.3 709.4,140.2 709.6,137.0 709.7,134.8 709.9,133.3 710.0,132.5 710.2,132.2 710.4,132.3 710.5,133.0 710.7,134.2 710.9,136.0 711.0,138.8 711.2,143.0 711.4,150.2 711.5,171.0 711.7,156.2 711.8,145.9 712.0,140.6 712.2,137.3 712.3,135.0 712.5,133.5 712.7,132.7 712.8,132.3 713.0,132.4 713.2,133.0 713.3,134.2 713.5,136.0 713.6,138.7 713.8,142.8 714.0,149.7 714.1,168.1 714.3,157.4 714.5,146.4 714.6,141.0 714.8,137.5 715.0,135.2 715.1,133.7 715.3,132.8 715.4,132.4 715.6,132.5 715.8,133.1 715.9,134.2 716.1,136.0 716.3,138.6 716.4,142.6 716.6,149.2 716.8,165.8 716.9,158.7 717.1,147.0 717.2,141.3 717.4,137.8 717.6,135.5 717.7,133.9 717.9,132.9 718.1,132.5 718.2,132.6 718.4,133.1 718.6,134.2 718.7,135.9 718.9,138.5 719.0,142.4 719.2,148.8 719.4,163.9 719.5,160.1 719.7,147.6 719.9,141.7 720.0,138.1 720.2,135.7 720.4,134.1 720.5,133.1 720.7,132.6 720.8,132.7 721.0,133.2 721.2,134.2 721.3,135.9 721.5,138.4 721.7,142.2 721.8,148.3 722.0,162.2 722.2,161.6 722.3,148.2 722.5,142.1 722.6,138.4 722.8,135.9 723.0,134.3 723.1,133.2 723.3,132.7 723.5,132.7 723.6,133.2 723.8,134.2 724.0,135.9 724.1,138.3 724.3,142.0 724.4,147.9 724.6,160.8 724.8,163.4 724.9,148.8 725.1,142.5 725.3,138.7 725.4,136.1 725.6,134.4 725.8,133.4 725.9,132.8 726.1,132.8 726.2,133.3 726.4,134.2 726.6,135.8 726.7,138.2 726.9,141.8 727.1,147.5 727.2,159.5 727.4,165.4 727.6,149.4 727.7,142.9 727.9,138.9 728.0,136.3 728.2,134.6 728.4,133.5 728.5,132.9 728.7,132.9 728.9,133.3 729.0,134.2 729.2,135.8 729.4,138.1 729.5,141.6 729.7,147.1 729.8,158.4 730.0,167.7 730.2,150.1 730.3,143.3 730.5,139.2 730.7,136.6 730.8,134.8 731.0,133.6 731.2,133.0 731.3,133.0 731.5,133.3 731.6,134.3 731.8,135.8 732.0,138.0 732.1,141.4 732.3,146.8 732.5,157.4 732.6,170.5 732.8,150.7 733.0,143.7 733.1,139.5 733.3,136.8 733.4,134.9 733.6,133.8 733.8,133.1 733.9,133.0 734.1,133.4 734.3,134.3 734.4,135.7 734.6,137.9 734.8,141.2 734.9,146.4 735.1,156.4 735.2,174.1 735.4,151.5 735.6,144.1 735.7,139.8 735.9,137.0 736.1,135.1 736.2,133.9 736.4,133.2 736.6,133.1 736.7,133.4 736.9,134.3 737.0,135.7 737.2,137.8 737.4,141.1 737.5,146.1 737.7,155.5 737.9,179.0 738.0,152.2 738.2,144.5 738.4,140.1 738.5,137.2 738.7,135.3 738.8,134.0 739.0,133.3 739.2,133.2 739.3,133.5 739.5,134.3 739.7,135.6 739.8,137.8 740.0,140.9 740.2,145.8 740.3,154.7 740.5,182.0 740.6,153.0 740.8,144.9 741.0,140.4 741.1,137.4 741.3,135.4 741.5,134.2 741.6,133.4 741.8,133.2 742.0,133.5 742.1,134.3 742.3,135.6 742.4,137.7 742.6,140.7 742.8,145.4 742.9,154.0 743.1,182.0 743.3,153.8 743.4,145.4 743.6,140.7 743.8,137.6 743.9,135.6 744.1,134.3 744.3,133.5 744.4,133.3 744.6,133.5 744.7,134.3 744.9,135.6 745.1,137.6 745.2,140.5 745.4,145.1 745.6,153.3 745.7,182.0 745.9,154.7 746.1,145.8 746.2,141.0 746.4,137.9 746.5,135.8 746.7,134.4 746.9,133.6 747.0,133.3 747.2,133.5 747.4,134.2 747.5,135.5 747.7,137.5 747.9,140.4 748.0,144.8 748.2,152.6 748.3,180.8 748.5,155.6 748.7,146.2 748.8,141.3 749.0,138.1 749.2,135.9 749.3,134.5 749.5,133.7 749.7,133.4 749.8,133.6 750.0,134.2 750.1,135.5 750.3,137.4 750.5,140.2 750.6,144.5 750.8,152.0 751.0,175.5 751.1,156.5 751.3,146.7 751.5,141.6 751.6,138.3 751.8,136.1 751.9,134.7 752.1,133.8 752.3,133.5 752.4,133.6 752.6,134.2 752.8,135.4 752.9,137.3 753.1,140.0 753.3,144.2 753.4,151.4 753.6,171.8 753.7,157.6 753.9,147.2 754.1,141.9 754.2,138.5 754.4,136.3 754.6,134.8 754.7,133.9 754.9,133.5 755.1,133.6 755.2,134.2 755.4,135.4 755.5,137.2 755.7,139.9 755.9,144.0 756.0,150.8 756.2,168.9 756.4,158.7 756.5,147.7 756.7,142.2 756.9,138.7 757.0,136.4 757.2,134.9 757.3,134.0 757.5,133.6 757.7,133.6 757.8,134.2 758.0,135.3 758.2,137.1 758.3,139.7 758.5,143.7 758.7,150.3 758.8,166.6 759.0,160.0 759.1,148.2 759.3,142.5 759.5,139.0 759.6,136.6 759.8,135.0 760.0,134.0 760.1,133.6 760.3,133.7 760.5,134.2 760.6,135.3 760.8,137.0 760.9,139.6 761.1,143.4 761.3,149.8 761.4,164.7 761.6,161.3 761.8,148.7 761.9,142.8 762.1,139.2 762.3,136.7 762.4,135.1 762.6,134.1 762.7,133.7 762.9,133.7 763.1,134.2 763.2,135.2 763.4,136.9 763.6,139.4 763.7,143.2 763.9,149.3 764.1,163.0 764.2,162.8 764.4,149.2 764.5,143.1 764.7,139.4 764.9,136.9 765.0,135.2 765.2,134.2 765.4,133.7 765.5,133.7 765.7,134.2 765.9,135.2 766.0,136.8 766.2,139.2 766.3,142.9 766.5,148.8 766.7,161.5 766.8,164.5 767.0,149.8 767.2,143.4 767.3,139.6 767.5,137.1 767.7,135.3 767.8,134.3 768.0,133.7 768.1,133.7 768.3,134.1 768.5,135.1 768.6,136.7 768.8,139.1 769.0,142.6 769.1,148.3 769.3,160.2 769.5,166.5 769.6,150.3 769.8,143.8 769.9,139.8 770.1,137.2 770.3,135.5 770.4,134.4 770.6,133.8 770.8,133.7 770.9,134.1 771.1,135.1 771.3,136.6 771.4,138.9 771.6,142.4 771.7,147.9 771.9,159.0 772.1,168.8 772.2,150.9 772.4,144.1 772.6,140.1 772.7,137.4 772.9,135.6 773.1,134.4 773.2,133.8 773.4,133.7 773.5,134.1 773.7,135.0 773.9,136.5 774.0,138.8 774.2,142.1 774.4,147.5 774.5,158.0 774.7,171.6 774.9,151.6 775.0,144.5 775.2,140.3 775.3,137.5 775.5,135.7 775.7,134.5 775.8,133.9 776.0,133.7 776.2,134.1 776.3,134.9 776.5,136.4 776.7,138.6 776.8,141.9 777.0,147.1 777.1,157.0 777.3,175.3 777.5,152.2 777.6,144.8 777.8,140.5 778.0,137.7 778.1,135.8 778.3,134.6 778.5,133.9 778.6,133.7 778.8,134.1 778.9,134.9 779.1,136.3 779.3,138.5 779.4,141.7 779.6,146.7 779.8,156.0 779.9,180.4 780.1,152.9 780.3,145.2 780.4,140.7 780.6,137.8 780.7,135.9 780.9,134.6 781.1,133.9 781.2,133.7 781.4,134.0 781.6,134.8 781.7,136.2 781.9,138.3 782.1,141.4 782.2,146.3 782.4,155.2 782.5,182.0 782.7,153.6 782.9,145.5 783.0,141.0 783.2,138.0 783.4,136.0 783.5,134.7 783.7,134.0 783.9,133.7 784.0,134.0 784.2,134.8 784.3,136.1 784.5,138.1 784.7,141.2 784.8,145.9 785.0,154.4" fill="none" stroke="#4a90d9" stroke-width="1.5" stroke-linejoin="round"/>
  <text x="209.5" y="214" text-anchor="middle" font-size="11" fill="#6b7280">n / N</text>
  <text x="617.5" y="214" text-anchor="middle" font-size="11" fill="#6b7280">Normalized frequency (× Fₛ)</text>
</svg>
