<svg xmlns="http://www.w3.org/2000/svg" viewBox="0 0 560 190" width="560" height="190" style="font-family:system-ui,-apple-system,sans-serif">
  <rect width="560" height="190" fill="#fafafa" rx="6"/>
  <line x1="52" y1="152.0" x2="257" y2="152.0" stroke="#e5e7eb" stroke-width="0.5"/>
  <text x="48" y="155.0" text-anchor="end" font-size="7.5" fill="#6b7280">0</text>
  <line x1="52" y1="82.0" x2="257" y2="82.0" stroke="#e5e7eb" stroke-width="0.5"/>
  <text x="48" y="85.0" text-anchor="end" font-size="7.5" fill="#6b7280">0.5</text>
  <line x1="52" y1="12.0" x2="257" y2="12.0" stroke="#e5e7eb" stroke-width="0.5"/>
  <text x="48" y="15.0" text-anchor="end" font-size="7.5" fill="#6b7280">1</text>
  <line x1="52.0" y1="12" x2="52.0" y2="152" stroke="#e5e7eb" stroke-width="0.5"/>
  <text x="52.0" y="164" text-anchor="middle" font-size="7.5" fill="#6b7280">0</text>
  <line x1="154.5" y1="12" x2="154.5" y2="152" stroke="#e5e7eb" stroke-width="0.5"/>
  <text x="154.5" y="164" text-anchor="middle" font-size="7.5" fill="#6b7280">0.5</text>
  <line x1="257.0" y1="12" x2="257.0" y2="152" stroke="#e5e7eb" stroke-width="0.5"/>
  <text x="257.0" y="164" text-anchor="middle" font-size="7.5" fill="#6b7280">1</text>
  <line x1="52" y1="12" x2="52" y2="152" stroke="#d1d5db" stroke-width="0.75"/>
  <line x1="52" y1="152" x2="257" y2="152" stroke="#d1d5db" stroke-width="0.75"/>
  <path d="M52.0,152.0 52.0,152.0 52.8,149.8 53.6,147.6 54.4,145.5 55.2,143.4 56.0,141.2 56.8,139.1 57.6,137.0 58.4,135.0 59.2,132.9 60.0,130.9 60.8,128.9 61.6,126.9 62.5,124.9 63.3,122.9 64.1,121.0 64.9,119.1 65.7,117.2 66.5,115.3 67.3,113.4 68.1,111.5 68.9,109.7 69.7,107.9 70.5,106.0 71.3,104.3 72.1,102.5 72.9,100.7 73.7,99.0 74.5,97.3 75.3,95.6 76.1,93.9 76.9,92.2 77.7,90.5 78.5,88.9 79.3,87.3 80.1,85.7 80.9,84.1 81.7,82.5 82.5,81.0 83.4,79.5 84.2,77.9 85.0,76.4 85.8,75.0 86.6,73.5 87.4,72.0 88.2,70.6 89.0,69.2 89.8,67.8 90.6,66.4 91.4,65.1 92.2,63.7 93.0,62.4 93.8,61.1 94.6,59.8 95.4,58.5 96.2,57.3 97.0,56.0 97.8,54.8 98.6,53.6 99.4,52.4 100.2,51.2 101.0,50.1 101.8,48.9 102.6,47.8 103.5,46.7 104.3,45.6 105.1,44.6 105.9,43.5 106.7,42.5 107.5,41.5 108.3,40.5 109.1,39.5 109.9,38.5 110.7,37.6 111.5,36.6 112.3,35.7 113.1,34.8 113.9,34.0 114.7,33.1 115.5,32.3 116.3,31.4 117.1,30.6 117.9,29.8 118.7,29.1 119.5,28.3 120.3,27.6 121.1,26.8 121.9,26.1 122.7,25.4 123.5,24.8 124.4,24.1 125.2,23.5 126.0,22.9 126.8,22.3 127.6,21.7 128.4,21.1 129.2,20.5 130.0,20.0 130.8,19.5 131.6,19.0 132.4,18.5 133.2,18.0 134.0,17.6 134.8,17.2 135.6,16.8 136.4,16.4 137.2,16.0 138.0,15.6 138.8,15.3 139.6,14.9 140.4,14.6 141.2,14.3 142.0,14.1 142.8,13.8 143.6,13.6 144.5,13.3 145.3,13.1 146.1,12.9 146.9,12.8 147.7,12.6 148.5,12.5 149.3,12.4 150.1,12.3 150.9,12.2 151.7,12.1 152.5,12.1 153.3,12.0 154.1,12.0 154.9,12.0 155.7,12.0 156.5,12.1 157.3,12.1 158.1,12.2 158.9,12.3 159.7,12.4 160.5,12.5 161.3,12.6 162.1,12.8 162.9,12.9 163.7,13.1 164.5,13.3 165.4,13.6 166.2,13.8 167.0,14.1 167.8,14.3 168.6,14.6 169.4,14.9 170.2,15.3 171.0,15.6 171.8,16.0 172.6,16.4 173.4,16.8 174.2,17.2 175.0,17.6 175.8,18.0 176.6,18.5 177.4,19.0 178.2,19.5 179.0,20.0 179.8,20.5 180.6,21.1 181.4,21.7 182.2,22.3 183.0,22.9 183.8,23.5 184.6,24.1 185.5,24.8 186.3,25.4 187.1,26.1 187.9,26.8 188.7,27.6 189.5,28.3 190.3,29.1 191.1,29.8 191.9,30.6 192.7,31.4 193.5,32.3 194.3,33.1 195.1,34.0 195.9,34.8 196.7,35.7 197.5,36.6 198.3,37.6 199.1,38.5 199.9,39.5 200.7,40.5 201.5,41.5 202.3,42.5 203.1,43.5 203.9,44.6 204.7,45.6 205.5,46.7 206.4,47.8 207.2,48.9 208.0,50.1 208.8,51.2 209.6,52.4 210.4,53.6 211.2,54.8 212.0,56.0 212.8,57.3 213.6,58.5 214.4,59.8 215.2,61.1 216.0,62.4 216.8,63.7 217.6,65.1 218.4,66.4 219.2,67.8 220.0,69.2 220.8,70.6 221.6,72.0 222.4,73.5 223.2,75.0 224.0,76.4 224.8,77.9 225.6,79.5 226.5,81.0 227.3,82.5 228.1,84.1 228.9,85.7 229.7,87.3 230.5,88.9 231.3,90.5 232.1,92.2 232.9,93.9 233.7,95.6 234.5,97.3 235.3,99.0 236.1,100.7 236.9,102.5 237.7,104.3 238.5,106.0 239.3,107.9 240.1,109.7 240.9,111.5 241.7,113.4 242.5,115.3 243.3,117.2 244.1,119.1 244.9,121.0 245.7,122.9 246.5,124.9 247.4,126.9 248.2,128.9 249.0,130.9 249.8,132.9 250.6,135.0 251.4,137.0 252.2,139.1 253.0,141.2 253.8,143.4 254.6,145.5 255.4,147.6 256.2,149.8 257.0,152.0 L257.0,152.0 Z" fill="#4a90d9" fill-opacity="0.06"/>
  <polyline points="52.0,152.0 52.8,149.8 53.6,147.6 54.4,145.5 55.2,143.4 56.0,141.2 56.8,139.1 57.6,137.0 58.4,135.0 59.2,132.9 60.0,130.9 60.8,128.9 61.6,126.9 62.5,124.9 63.3,122.9 64.1,121.0 64.9,119.1 65.7,117.2 66.5,115.3 67.3,113.4 68.1,111.5 68.9,109.7 69.7,107.9 70.5,106.0 71.3,104.3 72.1,102.5 72.9,100.7 73.7,99.0 74.5,97.3 75.3,95.6 76.1,93.9 76.9,92.2 77.7,90.5 78.5,88.9 79.3,87.3 80.1,85.7 80.9,84.1 81.7,82.5 82.5,81.0 83.4,79.5 84.2,77.9 85.0,76.4 85.8,75.0 86.6,73.5 87.4,72.0 88.2,70.6 89.0,69.2 89.8,67.8 90.6,66.4 91.4,65.1 92.2,63.7 93.0,62.4 93.8,61.1 94.6,59.8 95.4,58.5 96.2,57.3 97.0,56.0 97.8,54.8 98.6,53.6 99.4,52.4 100.2,51.2 101.0,50.1 101.8,48.9 102.6,47.8 103.5,46.7 104.3,45.6 105.1,44.6 105.9,43.5 106.7,42.5 107.5,41.5 108.3,40.5 109.1,39.5 109.9,38.5 110.7,37.6 111.5,36.6 112.3,35.7 113.1,34.8 113.9,34.0 114.7,33.1 115.5,32.3 116.3,31.4 117.1,30.6 117.9,29.8 118.7,29.1 119.5,28.3 120.3,27.6 121.1,26.8 121.9,26.1 122.7,25.4 123.5,24.8 124.4,24.1 125.2,23.5 126.0,22.9 126.8,22.3 127.6,21.7 128.4,21.1 129.2,20.5 130.0,20.0 130.8,19.5 131.6,19.0 132.4,18.5 133.2,18.0 134.0,17.6 134.8,17.2 135.6,16.8 136.4,16.4 137.2,16.0 138.0,15.6 138.8,15.3 139.6,14.9 140.4,14.6 141.2,14.3 142.0,14.1 142.8,13.8 143.6,13.6 144.5,13.3 145.3,13.1 146.1,12.9 146.9,12.8 147.7,12.6 148.5,12.5 149.3,12.4 150.1,12.3 150.9,12.2 151.7,12.1 152.5,12.1 153.3,12.0 154.1,12.0 154.9,12.0 155.7,12.0 156.5,12.1 157.3,12.1 158.1,12.2 158.9,12.3 159.7,12.4 160.5,12.5 161.3,12.6 162.1,12.8 162.9,12.9 163.7,13.1 164.5,13.3 165.4,13.6 166.2,13.8 167.0,14.1 167.8,14.3 168.6,14.6 169.4,14.9 170.2,15.3 171.0,15.6 171.8,16.0 172.6,16.4 173.4,16.8 174.2,17.2 175.0,17.6 175.8,18.0 176.6,18.5 177.4,19.0 178.2,19.5 179.0,20.0 179.8,20.5 180.6,21.1 181.4,21.7 182.2,22.3 183.0,22.9 183.8,23.5 184.6,24.1 185.5,24.8 186.3,25.4 187.1,26.1 187.9,26.8 188.7,27.6 189.5,28.3 190.3,29.1 191.1,29.8 191.9,30.6 192.7,31.4 193.5,32.3 194.3,33.1 195.1,34.0 195.9,34.8 196.7,35.7 197.5,36.6 198.3,37.6 199.1,38.5 199.9,39.5 200.7,40.5 201.5,41.5 202.3,42.5 203.1,43.5 203.9,44.6 204.7,45.6 205.5,46.7 206.4,47.8 207.2,48.9 208.0,50.1 208.8,51.2 209.6,52.4 210.4,53.6 211.2,54.8 212.0,56.0 212.8,57.3 213.6,58.5 214.4,59.8 215.2,61.1 216.0,62.4 216.8,63.7 217.6,65.1 218.4,66.4 219.2,67.8 220.0,69.2 220.8,70.6 221.6,72.0 222.4,73.5 223.2,75.0 224.0,76.4 224.8,77.9 225.6,79.5 226.5,81.0 227.3,82.5 228.1,84.1 228.9,85.7 229.7,87.3 230.5,88.9 231.3,90.5 232.1,92.2 232.9,93.9 233.7,95.6 234.5,97.3 235.3,99.0 236.1,100.7 236.9,102.5 237.7,104.3 238.5,106.0 239.3,107.9 240.1,109.7 240.9,111.5 241.7,113.4 242.5,115.3 243.3,117.2 244.1,119.1 244.9,121.0 245.7,122.9 246.5,124.9 247.4,126.9 248.2,128.9 249.0,130.9 249.8,132.9 250.6,135.0 251.4,137.0 252.2,139.1 253.0,141.2 253.8,143.4 254.6,145.5 255.4,147.6 256.2,149.8 257.0,152.0" fill="none" stroke="#4a90d9" stroke-width="1.2" stroke-linejoin="round"/>
  <line x1="322" y1="12.0" x2="527" y2="12.0" stroke="#e5e7eb" stroke-width="0.5"/>
  <text x="318" y="15.0" text-anchor="end" font-size="7.5" fill="#6b7280">0</text>
  <line x1="322" y1="58.7" x2="527" y2="58.7" stroke="#e5e7eb" stroke-width="0.5"/>
  <text x="318" y="61.7" text-anchor="end" font-size="7.5" fill="#6b7280">-40</text>
  <line x1="322" y1="105.3" x2="527" y2="105.3" stroke="#e5e7eb" stroke-width="0.5"/>
  <text x="318" y="108.3" text-anchor="end" font-size="7.5" fill="#6b7280">-80</text>
  <line x1="322" y1="152.0" x2="527" y2="152.0" stroke="#e5e7eb" stroke-width="0.5"/>
  <text x="318" y="155.0" text-anchor="end" font-size="7.5" fill="#6b7280">-120</text>
  <line x1="322.0" y1="12" x2="322.0" y2="152" stroke="#e5e7eb" stroke-width="0.5"/>
  <text x="322.0" y="164" text-anchor="middle" font-size="7.5" fill="#6b7280">0</text>
  <line x1="363.0" y1="12" x2="363.0" y2="152" stroke="#e5e7eb" stroke-width="0.5"/>
  <text x="363.0" y="164" text-anchor="middle" font-size="7.5" fill="#6b7280">0.1</text>
  <line x1="404.0" y1="12" x2="404.0" y2="152" stroke="#e5e7eb" stroke-width="0.5"/>
  <text x="404.0" y="164" text-anchor="middle" font-size="7.5" fill="#6b7280">0.2</text>
  <line x1="445.0" y1="12" x2="445.0" y2="152" stroke="#e5e7eb" stroke-width="0.5"/>
  <text x="445.0" y="164" text-anchor="middle" font-size="7.5" fill="#6b7280">0.3</text>
  <line x1="486.0" y1="12" x2="486.0" y2="152" stroke="#e5e7eb" stroke-width="0.5"/>
  <text x="486.0" y="164" text-anchor="middle" font-size="7.5" fill="#6b7280">0.4</text>
  <line x1="527.0" y1="12" x2="527.0" y2="152" stroke="#e5e7eb" stroke-width="0.5"/>
  <text x="527.0" y="164" text-anchor="middle" font-size="7.5" fill="#6b7280">0.5</text>
  <line x1="322" y1="12" x2="322" y2="152" stroke="#d1d5db" stroke-width="0.75"/>
  <line x1="322" y1="152" x2="527" y2="152" stroke="#d1d5db" stroke-width="0.75"/>
  <polyline points="322.0,12.0 322.1,12.0 322.2,12.2 322.3,12.4 322.4,12.6 322.5,13.0 322.6,13.4 322.7,14.0 322.8,14.6 322.9,15.3 323.0,16.1 323.1,17.1 323.2,18.1 323.3,19.3 323.4,20.7 323.5,22.2 323.6,23.9 323.7,26.0 323.8,28.3 323.9,31.2 324.0,34.8 324.1,39.6 324.2,47.5 324.3,85.3 324.4,48.8 324.5,42.9 324.6,39.9 324.7,38.2 324.8,37.3 324.9,36.9 325.0,36.9 325.1,37.3 325.2,38.0 325.3,39.1 325.4,40.6 325.5,42.5 325.6,45.1 325.7,48.7 325.8,54.2 325.9,65.7 326.0,66.2 326.1,55.7 326.2,51.3 326.3,48.7 326.4,47.2 326.5,46.3 326.6,45.8 326.7,45.8 326.8,46.2 326.9,47.0 327.0,48.1 327.1,49.7 327.2,52.0 327.3,55.1 327.4,59.7 327.5,68.5 327.6,80.1 327.7,64.2 327.8,58.8 327.9,55.7 328.0,53.9 328.1,52.7 328.2,52.1 328.3,51.9 328.4,52.0 328.5,52.6 328.6,53.6 328.7,55.0 328.8,57.0 328.9,59.9 329.0,64.1 329.1,71.6 329.2,96.6 329.3,70.6 329.4,64.4 329.5,61.1 329.6,59.0 329.7,57.6 329.8,56.8 329.9,56.5 330.0,56.6 330.1,57.0 330.2,57.9 330.3,59.2 330.4,61.0 330.5,63.7 330.6,67.6 330.7,74.4 330.8,105.6 330.9,75.9 331.0,69.0 331.1,65.4 331.2,63.1 331.3,61.6 331.4,60.7 331.5,60.3 331.6,60.3 331.7,60.6 331.8,61.4 331.9,62.6 332.0,64.4 332.1,66.9 332.2,70.6 332.3,76.9 332.4,97.2 332.5,80.4 332.6,72.9 332.7,69.0 332.8,66.5 332.9,65.0 333.0,64.0 333.1,63.5 333.2,63.4 333.3,63.7 333.4,64.4 333.5,65.5 333.6,67.2 333.7,69.6 333.8,73.1 333.9,79.0 334.0,95.2 334.1,84.5 334.2,76.2 334.3,72.1 334.4,69.5 334.5,67.9 334.6,66.8 334.7,66.3 334.8,66.1 334.9,66.3 335.0,67.0 335.1,68.0 335.2,69.6 335.3,71.9 335.4,75.3 335.5,80.9 335.6,94.7 335.7,88.3 335.8,79.2 335.9,74.9 336.0,72.2 336.1,70.4 336.2,69.3 336.3,68.7 336.4,68.5 336.5,68.7 336.6,69.3 336.7,70.3 336.8,71.8 336.9,74.0 337.0,77.2 337.1,82.5 337.2,94.8 337.3,91.9 337.4,81.9 337.5,77.4 337.6,74.6 337.7,72.7 337.8,71.6 337.9,70.9 338.0,70.6 338.1,70.8 338.2,71.3 338.3,72.3 338.4,73.7 338.5,75.9 338.6,79.0 338.7,84.0 338.8,95.1 338.9,95.4 339.0,84.4 339.1,79.6 339.2,76.7 339.3,74.8 339.4,73.6 339.5,72.9 339.6,72.6 339.7,72.7 339.8,73.2 339.9,74.1 340.0,75.5 340.1,77.5 340.2,80.6 340.3,85.4 340.4,95.5 340.5,98.9 340.6,86.8 340.7,81.7 340.8,78.7 340.9,76.7 341.0,75.5 341.1,74.7 341.2,74.3 341.3,74.4 341.4,74.9 341.5,75.7 341.6,77.1 341.7,79.1 341.8,82.0 341.9,86.6 342.0,96.0 342.1,102.5 342.2,89.0 342.3,83.7 342.4,80.5 342.5,78.5 342.6,77.2 342.7,76.4 342.8,76.0 342.9,76.0 343.0,76.4 343.1,77.2 343.2,78.6 343.3,80.5 343.4,83.3 343.5,87.7 343.6,96.4 343.7,106.5 343.8,91.0 343.9,85.5 344.0,82.2 344.1,80.1 344.2,78.7 344.3,77.9 344.4,77.5 344.5,77.5 344.6,77.8 344.7,78.6 344.8,79.9 344.9,81.8 345.0,84.5 345.1,88.8 345.2,96.9 345.3,110.9 345.4,93.0 345.5,87.2 345.6,83.8 345.7,81.7 345.8,80.2 345.9,79.3 346.0,78.9 346.1,78.8 346.2,79.2 346.3,79.9 346.4,81.2 346.5,83.0 346.6,85.6 346.7,89.8 346.8,97.4 346.9,116.6 347.0,94.9 347.1,88.8 347.2,85.3 347.3,83.1 347.4,81.6 347.5,80.7 347.6,80.2 347.7,80.1 347.8,80.4 347.9,81.2 348.0,82.3 348.1,84.1 348.2,86.7 348.3,90.7 348.4,97.9 348.5,125.5 348.6,96.8 348.7,90.4 348.8,86.8 348.9,84.5 349.0,82.9 349.1,82.0 349.2,81.4 349.3,81.3 349.4,81.6 349.5,82.3 349.6,83.4 349.7,85.2 349.8,87.7 349.9,91.5 350.0,98.4 350.1,149.5 350.2,98.6 350.3,91.9 350.4,88.1 350.5,85.8 350.6,84.2 350.7,83.2 350.8,82.6 350.9,82.5 351.0,82.7 351.1,83.4 351.2,84.5 351.3,86.1 351.4,88.6 351.5,92.3 351.6,98.8 351.7,125.9 351.8,100.5 351.9,93.3 352.0,89.4 352.1,87.0 352.2,85.3 352.3,84.3 352.4,83.7 352.5,83.5 352.6,83.8 352.7,84.4 352.8,85.5 352.9,87.1 353.0,89.5 353.1,93.0 353.2,99.3 353.3,120.4 353.4,102.3 353.5,94.7 353.6,90.7 353.7,88.1 353.8,86.5 353.9,85.4 354.0,84.8 354.1,84.6 354.2,84.8 354.3,85.3 354.4,86.4 354.5,88.0 354.6,90.3 354.7,93.8 354.8,99.7 354.9,117.5 355.0,104.1 355.1,96.0 355.2,91.9 355.3,89.3 355.4,87.5 355.5,86.4 355.6,85.8 355.7,85.5 355.8,85.7 355.9,86.3 356.0,87.3 356.1,88.8 356.3,91.0 356.4,94.4 356.5,100.1 356.6,115.6 356.7,105.9 356.8,97.3 356.9,93.0 357.0,90.3 357.1,88.6 357.2,87.4 357.3,86.7 357.4,86.5 357.5,86.6 357.6,87.1 357.7,88.1 357.8,89.6 357.9,91.8 358.0,95.0 358.1,100.5 358.2,114.3 358.3,107.7 358.4,98.6 358.5,94.1 358.6,91.4 358.7,89.5 358.8,88.3 358.9,87.6 359.0,87.3 359.1,87.4 359.2,87.9 359.3,88.9 359.4,90.3 359.5,92.5 359.6,95.6 359.7,100.9 359.8,113.4 359.9,109.7 360.0,99.8 360.1,95.2 360.2,92.4 360.3,90.5 360.4,89.3 360.5,88.5 360.6,88.2 360.7,88.3 360.8,88.7 360.9,89.6 361.0,91.0 361.1,93.1 361.2,96.2 361.3,101.3 361.4,112.7 361.5,111.7 361.6,101.1 361.7,96.3 361.8,93.3 361.9,91.4 362.0,90.1 362.1,89.4 362.2,89.0 362.3,89.1 362.4,89.5 362.5,90.4 362.6,91.7 362.7,93.8 362.8,96.8 362.9,101.6 363.0,112.2 363.1,113.8 363.2,102.3 363.3,97.3 363.4,94.3 363.5,92.3 363.6,91.0 363.7,90.2 363.8,89.8 363.9,89.8 364.0,90.2 364.1,91.1 364.2,92.4 364.3,94.4 364.4,97.3 364.5,102.0 364.6,111.8 364.7,116.1 364.8,103.5 364.9,98.3 365.0,95.2 365.1,93.1 365.2,91.8 365.3,90.9 365.4,90.5 365.5,90.5 365.6,90.9 365.7,91.7 365.8,93.0 365.9,94.9 366.0,97.8 366.1,102.3 366.2,111.5 366.3,118.6 366.4,104.7 366.5,99.3 366.6,96.1 366.7,94.0 366.8,92.6 366.9,91.7 367.0,91.3 367.1,91.2 367.2,91.6 367.3,92.4 367.4,93.6 367.5,95.5 367.6,98.3 367.7,102.6 367.8,111.2 367.9,121.5 368.0,105.8 368.1,100.2 368.2,96.9 368.3,94.8 368.4,93.3 368.5,92.4 368.6,92.0 368.7,91.9 368.8,92.2 368.9,93.0 369.0,94.2 369.1,96.0 369.2,98.7 369.3,102.9 369.4,111.0 369.5,125.0 369.6,107.0 369.7,101.2 369.8,97.8 369.9,95.5 370.0,94.1 370.1,93.1 370.2,92.6 370.3,92.5 370.4,92.8 370.5,93.6 370.6,94.7 370.7,96.5 370.8,99.2 370.9,103.2 371.0,110.9 371.1,129.5 371.2,108.2 371.3,102.1 371.4,98.6 371.5,96.3 371.6,94.8 371.7,93.8 371.8,93.3 371.9,93.2 372.0,93.4 372.1,94.1 372.2,95.3 372.3,97.0 372.4,99.6 372.5,103.5 372.6,110.8 372.7,136.6 372.8,109.4 372.9,103.0 373.0,99.4 373.1,97.0 373.2,95.5 373.3,94.5 373.4,93.9 373.5,93.8 373.6,94.0 373.7,94.7 373.8,95.8 373.9,97.5 374.0,100.0 374.1,103.8 374.2,110.7 374.3,152.0 374.4,110.6 374.5,103.9 374.6,100.2 374.7,97.7 374.8,96.1 374.9,95.1 375.0,94.5 375.1,94.4 375.2,94.6 375.3,95.2 375.4,96.3 375.5,97.9 375.6,100.4 375.7,104.1 375.8,110.7 375.9,140.4 376.0,111.9 376.1,104.8 376.2,100.9 376.3,98.5 376.4,96.8 376.5,95.7 376.6,95.1 376.7,94.9 376.8,95.1 376.9,95.7 377.0,96.8 377.1,98.4 377.2,100.8 377.3,104.4 377.4,110.6 377.5,133.2 377.6,113.1 377.7,105.7 377.8,101.7 377.9,99.1 378.0,97.4 378.1,96.3 378.2,95.7 378.3,95.5 378.4,95.7 378.5,96.2 378.6,97.2 378.7,98.8 378.8,101.1 378.9,104.6 379.0,110.6 379.1,129.4 379.2,114.4 379.3,106.5 379.4,102.4 379.5,99.8 379.6,98.1 379.7,96.9 379.8,96.3 379.9,96.0 380.0,96.2 380.1,96.7 380.2,97.7 380.3,99.2 380.4,101.5 380.5,104.9 380.6,110.6 380.7,126.9 380.8,115.8 380.9,107.4 381.0,103.1 381.1,100.5 381.2,98.7 381.3,97.5 381.4,96.8 381.5,96.5 381.6,96.7 381.7,97.2 381.8,98.1 381.9,99.6 382.0,101.8 382.1,105.1 382.2,110.6 382.3,125.1 382.4,117.2 382.5,108.3 382.6,103.9 382.7,101.1 382.8,99.3 382.9,98.1 383.0,97.4 383.1,97.1 383.2,97.1 383.3,97.6 383.4,98.6 383.5,100.0 383.6,102.1 383.7,105.3 383.8,110.7 383.9,123.7 384.0,118.7 384.1,109.1 384.2,104.6 384.3,101.8 384.4,99.9 384.5,98.6 384.6,97.9 384.7,97.5 384.8,97.6 384.9,98.1 385.0,99.0 385.1,100.4 385.2,102.5 385.3,105.6 385.4,110.7 385.5,122.6 385.6,120.2 385.7,110.0 385.8,105.3 385.9,102.4 386.0,100.4 386.1,99.2 386.2,98.4 386.3,98.0 386.4,98.1 386.5,98.5 386.6,99.4 386.7,100.7 386.8,102.8 386.9,105.8 387.0,110.7 387.1,121.7 387.2,121.9 387.3,110.9 387.4,106.0 387.5,103.0 387.6,101.0 387.7,99.7 387.8,98.9 387.9,98.5 388.0,98.5 388.1,98.9 388.2,99.8 388.3,101.1 388.4,103.1 388.5,106.0 388.6,110.8 388.7,121.0 388.8,123.8 388.9,111.8 389.0,106.7 389.1,103.6 389.2,101.6 389.3,100.2 389.4,99.4 389.5,99.0 389.6,98.9 389.7,99.3 389.8,100.1 389.9,101.4 390.0,103.4 390.1,106.2 390.2,110.8 390.3,120.3 390.4,125.8 390.5,112.6 390.6,107.4 390.7,104.2 390.8,102.1 390.9,100.7 391.0,99.8 391.1,99.4 391.2,99.4 391.3,99.7 391.4,100.5 391.5,101.8 391.6,103.6 391.7,106.4 391.8,110.9 391.9,119.8 392.0,128.2 392.1,113.5 392.2,108.0 392.3,104.8 392.4,102.6 392.5,101.2 392.6,100.3 392.7,99.8 392.8,99.8 392.9,100.1 393.0,100.9 393.1,102.1 393.2,103.9 393.3,106.6 393.4,110.9 393.5,119.3 393.6,130.9 393.7,114.4 393.8,108.7 393.9,105.4 394.0,103.2 394.1,101.7 394.2,100.8 394.3,100.3 394.4,100.2 394.5,100.5 394.6,101.2 394.7,102.4 394.8,104.2 394.9,106.8 395.0,111.0 395.1,118.9 395.2,134.5 395.3,115.4 395.4,109.4 395.5,105.9 395.6,103.7 395.7,102.2 395.8,101.2 395.9,100.7 396.0,100.6 396.1,100.8 396.2,101.5 396.3,102.7 396.4,104.4 396.5,107.0 396.6,111.0 396.7,118.5 396.8,139.4 396.9,116.3 397.0,110.1 397.1,106.5 397.2,104.2 397.3,102.6 397.4,101.6 397.5,101.1 397.6,101.0 397.7,101.2 397.8,101.9 397.9,103.0 398.0,104.7 398.1,107.2 398.2,111.1 398.3,118.2 398.4,148.1 398.5,117.3 398.6,110.7 398.7,107.1 398.8,104.7 398.9,103.1 399.0,102.1 399.1,101.5 399.2,101.3 399.3,101.6 399.4,102.2 399.5,103.3 399.6,104.9 399.7,107.4 399.8,111.2 399.9,118.0 400.0,152.0 400.1,118.3 400.2,111.4 400.3,107.6 400.4,105.2 400.5,103.5 400.6,102.5 400.7,101.9 400.8,101.7 400.9,101.9 401.0,102.5 401.1,103.6 401.2,105.2 401.3,107.6 401.4,111.2 401.5,117.7 401.6,144.4 401.7,119.3 401.8,112.1 401.9,108.2 402.0,105.7 402.1,104.0 402.2,102.9 402.3,102.3 402.4,102.1 402.5,102.2 402.6,102.8 402.7,103.8 402.8,105.4 402.9,107.7 403.0,111.3 403.1,117.5 403.2,138.6 403.3,120.4 403.4,112.7 403.5,108.7 403.6,106.1 403.7,104.4 403.8,103.3 403.9,102.6 404.0,102.4 404.1,102.6 404.2,103.1 404.3,104.1 404.4,105.6 404.5,107.9 404.6,111.4 404.7,117.3 404.8,135.2 404.9,121.5 405.0,113.4 405.1,109.3 405.2,106.6 405.3,104.9 405.4,103.7 405.5,103.0 405.6,102.7 405.7,102.9 405.8,103.4 405.9,104.4 406.0,105.9 406.1,108.1 406.2,111.4 406.3,117.1 406.4,132.8 406.5,122.6 406.6,114.1 406.7,109.8 406.8,107.1 406.9,105.3 407.0,104.1 407.1,103.4 407.2,103.1 407.3,103.2 407.4,103.7 407.5,104.6 407.6,106.1 407.7,108.2 407.8,111.5 407.9,117.0 408.0,131.0 408.1,123.9 408.2,114.8 408.3,110.3 408.4,107.6 408.5,105.7 408.6,104.5 408.7,103.7 408.8,103.4 408.9,103.5 409.0,104.0 409.1,104.9 409.2,106.3 409.3,108.4 409.4,111.6 409.5,116.8 409.6,129.5 409.7,125.2 409.8,115.5 409.9,110.9 410.0,108.0 410.1,106.1 410.2,104.8 410.3,104.1 410.4,103.7 410.5,103.8 410.6,104.2 410.7,105.1 410.8,106.5 410.9,108.5 411.0,111.6 411.1,116.7 411.2,128.3 411.3,126.6 411.4,116.2 411.5,111.4 411.6,108.5 411.7,106.5 411.8,105.2 411.9,104.4 412.0,104.1 412.1,104.1 412.2,104.5 412.3,105.3 412.4,106.7 412.5,108.7 412.6,111.7 412.7,116.6 412.8,127.3 412.9,128.2 413.0,116.9 413.1,111.9 413.2,108.9 413.3,106.9 413.4,105.6 413.5,104.8 413.6,104.4 413.7,104.4 413.8,104.8 413.9,105.6 414.0,106.9 414.1,108.8 414.2,111.8 414.3,116.5 414.4,126.5 414.5,129.9 414.6,117.6 414.7,112.5 414.8,109.4 414.9,107.3 415.0,105.9 415.1,105.1 415.2,104.7 415.3,104.6 415.4,105.0 415.5,105.8 415.6,107.1 415.7,109.0 415.8,111.8 415.9,116.4 416.0,125.7 416.1,131.9 416.2,118.4 416.3,113.0 416.4,109.8 416.5,107.7 416.6,106.3 416.7,105.4 416.8,105.0 416.9,104.9 417.0,105.3 417.1,106.0 417.2,107.3 417.3,109.1 417.4,111.9 417.5,116.3 417.6,125.0 417.7,134.2 417.8,119.1 417.9,113.6 418.0,110.3 418.1,108.1 418.2,106.7 418.3,105.7 418.4,105.3 418.5,105.2 418.6,105.5 418.7,106.2 418.8,107.4 418.9,109.3 419.0,112.0 419.1,116.2 419.2,124.5 419.3,136.9 419.4,119.9 419.5,114.1 419.6,110.7 419.7,108.5 419.8,107.0 419.9,106.1 420.0,105.6 420.1,105.4 420.2,105.7 420.3,106.4 420.4,107.6 420.5,109.4 420.6,112.0 420.7,116.1 420.8,123.9 420.9,140.5 421.0,120.7 421.1,114.6 421.2,111.1 421.3,108.9 421.4,107.3 421.5,106.4 421.6,105.8 421.7,105.7 421.8,106.0 421.9,106.6 422.0,107.8 422.1,109.5 422.2,112.1 422.3,116.1 422.4,123.5 422.5,145.8 422.6,121.5 422.7,115.2 422.8,111.6 422.9,109.2 423.0,107.7 423.1,106.7 423.2,106.1 423.3,106.0 423.4,106.2 423.5,106.8 423.6,108.0 423.7,109.6 423.8,112.1 423.9,116.0 424.0,123.0 424.1,152.0 424.2,122.3 424.3,115.7 424.4,112.0 424.6,109.6 424.7,108.0 424.8,107.0 424.9,106.4 425.0,106.2 425.1,106.4 425.2,107.0 425.3,108.1 425.4,109.8 425.5,112.2 425.6,115.9 425.7,122.6 425.8,152.0 425.9,123.2 426.0,116.3 426.1,112.5 426.2,110.0 426.3,108.3 426.4,107.3 426.5,106.7 426.6,106.5 426.7,106.6 426.8,107.2 426.9,108.3 427.0,109.9 427.1,112.3 427.2,115.9 427.3,122.3 427.4,147.4 427.5,124.1 427.6,116.8 427.7,112.9 427.8,110.4 427.9,108.7 428.0,107.6 428.1,106.9 428.2,106.7 428.3,106.9 428.4,107.4 428.5,108.4 428.6,110.0 428.7,112.3 428.8,115.8 428.9,122.0 429.0,142.3 429.1,125.1 429.2,117.4 429.3,113.3 429.4,110.7 429.5,109.0 429.6,107.9 429.7,107.2 429.8,106.9 429.9,107.1 430.0,107.6 430.1,108.6 430.2,110.1 430.3,112.4 430.4,115.8 430.5,121.7 430.6,139.1 430.7,126.1 430.8,117.9 430.9,113.8 431.0,111.1 431.1,109.3 431.2,108.1 431.3,107.4 431.4,107.2 431.5,107.3 431.6,107.8 431.7,108.7 431.8,110.2 431.9,112.4 432.0,115.8 432.1,121.4 432.2,136.7 432.3,127.2 432.4,118.5 432.5,114.2 432.6,111.5 432.7,109.6 432.8,108.4 432.9,107.7 433.0,107.4 433.1,107.5 433.2,108.0 433.3,108.9 433.4,110.3 433.5,112.5 433.6,115.7 433.7,121.1 433.8,134.9 433.9,128.3 434.0,119.1 434.1,114.6 434.2,111.8 434.3,109.9 434.4,108.7 434.5,107.9 434.6,107.6 434.7,107.7 434.8,108.1 434.9,109.0 435.0,110.4 435.1,112.5 435.2,115.7 435.3,120.9 435.4,133.4 435.5,129.6 435.6,119.7 435.7,115.1 435.8,112.2 435.9,110.2 436.0,109.0 436.1,108.2 436.2,107.8 436.3,107.9 436.4,108.3 436.5,109.2 436.6,110.5 436.7,112.6 436.8,115.6 436.9,120.7 437.0,132.1 437.1,130.9 437.2,120.3 437.3,115.5 437.4,112.5 437.5,110.6 437.6,109.2 437.7,108.4 437.8,108.1 437.9,108.1 438.0,108.5 438.1,109.3 438.2,110.6 438.3,112.6 438.4,115.6 438.5,120.5 438.6,131.0 438.7,132.4 438.8,120.9 438.9,115.9 439.0,112.9 439.1,110.9 439.2,109.5 439.3,108.7 439.4,108.3 439.5,108.3 439.6,108.6 439.7,109.4 439.8,110.7 439.9,112.7 440.0,115.6 440.1,120.3 440.2,130.1 440.3,134.0 440.4,121.6 440.5,116.4 440.6,113.2 440.7,111.2 440.8,109.8 440.9,108.9 441.0,108.5 441.1,108.4 441.2,108.8 441.3,109.6 441.4,110.8 441.5,112.7 441.6,115.6 441.7,120.1 441.8,129.3 441.9,136.0 442.0,122.2 442.1,116.8 442.2,113.6 442.3,111.5 442.4,110.0 442.5,109.1 442.6,108.7 442.7,108.6 442.8,109.0 442.9,109.7 443.0,110.9 443.1,112.8 443.2,115.5 443.3,119.9 443.4,128.6 443.5,138.2 443.6,122.9 443.7,117.3 443.8,113.9 443.9,111.8 444.0,110.3 444.1,109.4 444.2,108.9 444.3,108.8 444.4,109.1 444.5,109.8 444.6,111.0 444.7,112.8 444.8,115.5 444.9,119.7 445.0,127.9 445.1,141.0 445.2,123.6 445.3,117.7 445.4,114.3 445.5,112.1 445.6,110.6 445.7,109.6 445.8,109.1 445.9,109.0 446.0,109.3 446.1,109.9 446.2,111.1 446.3,112.9 446.4,115.5 446.5,119.6 446.6,127.3 446.7,144.7 446.8,124.3 446.9,118.2 447.0,114.6 447.1,112.4 447.2,110.8 447.3,109.8 447.4,109.3 447.5,109.1 447.6,109.4 447.7,110.1 447.8,111.2 447.9,112.9 448.0,115.5 448.1,119.4 448.2,126.7 448.3,150.4 448.4,125.0 448.5,118.6 448.6,115.0 448.7,112.6 448.8,111.1 448.9,110.0 449.0,109.5 449.1,109.3 449.2,109.5 449.3,110.2 449.4,111.3 449.5,113.0 449.6,115.4 449.7,119.3 449.8,126.2 449.9,152.0 450.0,125.8 450.1,119.1 450.2,115.3 450.3,112.9 450.4,111.3 450.5,110.3 450.6,109.7 450.7,109.5 450.8,109.7 450.9,110.3 451.0,111.4 451.1,113.0 451.2,115.4 451.3,119.1 451.4,125.8 451.5,152.0 451.6,126.6 451.7,119.5 451.8,115.7 451.9,113.2 452.0,111.6 452.1,110.5 452.2,109.9 452.3,109.6 452.4,109.8 452.5,110.4 452.6,111.4 452.7,113.0 452.8,115.4 452.9,119.0 453.0,125.4 453.1,149.5 453.2,127.4 453.3,120.0 453.4,116.1 453.5,113.5 453.6,111.8 453.7,110.7 453.8,110.0 453.9,109.8 454.0,110.0 454.1,110.5 454.2,111.5 454.3,113.1 454.4,115.4 454.5,118.9 454.6,125.0 454.7,144.7 454.8,128.3 454.9,120.5 455.0,116.4 455.1,113.8 455.2,112.1 455.3,110.9 455.4,110.2 455.5,110.0 455.6,110.1 455.7,110.6 455.8,111.6 455.9,113.1 456.0,115.4 456.1,118.8 456.2,124.6 456.3,141.6 456.4,129.2 456.5,121.0 456.6,116.8 456.7,114.1 456.8,112.3 456.9,111.1 457.0,110.4 457.1,110.1 457.2,110.2 457.3,110.7 457.4,111.7 457.5,113.1 457.6,115.3 457.7,118.6 457.8,124.2 457.9,139.3 458.0,130.2 458.1,121.5 458.2,117.1 458.3,114.4 458.4,112.5 458.5,111.3 458.6,110.6 458.7,110.3 458.8,110.4 458.9,110.8 459.0,111.7 459.1,113.2 459.2,115.3 459.3,118.5 459.4,123.9 459.5,137.4 459.6,131.3 459.7,122.0 459.8,117.5 459.9,114.7 460.0,112.8 460.1,111.5 460.2,110.8 460.3,110.4 460.4,110.5 460.5,110.9 460.6,111.8 460.7,113.2 460.8,115.3 460.9,118.4 461.0,123.6 461.1,135.9 461.2,132.5 461.3,122.5 461.4,117.8 461.5,114.9 461.6,113.0 461.7,111.7 461.8,110.9 461.9,110.6 462.0,110.6 462.1,111.0 462.2,111.9 462.3,113.2 462.4,115.3 462.5,118.3 462.6,123.3 462.7,134.6 462.8,133.8 462.9,123.1 463.0,118.2 463.1,115.2 463.2,113.2 463.3,111.9 463.4,111.1 463.5,110.7 463.6,110.7 463.7,111.1 463.8,111.9 463.9,113.3 464.0,115.3 464.1,118.2 464.2,123.0 464.3,133.5 464.4,135.2 464.5,123.6 464.6,118.6 464.7,115.5 464.8,113.5 464.9,112.1 465.0,111.3 465.1,110.9 465.2,110.8 465.3,111.2 465.4,112.0 465.5,113.3 465.6,115.2 465.7,118.1 465.8,122.8 465.9,132.5 466.0,136.8 466.1,124.2 466.2,118.9 466.3,115.8 466.4,113.7 466.5,112.3 466.6,111.4 466.7,111.0 466.8,111.0 466.9,111.3 467.0,112.1 467.1,113.3 467.2,115.2 467.3,118.0 467.4,122.5 467.5,131.6 467.6,138.7 467.7,124.7 467.8,119.3 467.9,116.1 468.0,113.9 468.1,112.5 468.2,111.6 468.3,111.1 468.4,111.1 468.5,111.4 468.6,112.1 468.7,113.4 468.8,115.2 468.9,117.9 469.0,122.3 469.1,130.8 469.2,141.0 469.3,125.4 469.4,119.7 469.5,116.4 469.6,114.2 469.7,112.7 469.8,111.8 469.9,111.3 470.0,111.2 470.1,111.5 470.2,112.2 470.3,113.4 470.4,115.2 470.5,117.8 470.6,122.0 470.7,130.1 470.8,143.8 470.9,126.0 471.0,120.1 471.1,116.7 471.2,114.4 471.3,112.9 471.4,111.9 471.5,111.4 471.6,111.3 471.7,111.6 471.8,112.2 471.9,113.4 472.0,115.1 472.1,117.7 472.2,121.8 472.3,129.5 472.4,147.6 472.5,126.6 472.6,120.5 472.7,116.9 472.8,114.6 472.9,113.1 473.0,112.1 473.1,111.5 473.2,111.4 473.3,111.6 473.4,112.3 473.5,113.4 473.6,115.1 473.7,117.7 473.8,121.6 473.9,128.9 474.0,152.0 474.1,127.3 474.2,120.9 474.3,117.2 474.4,114.9 474.5,113.3 474.6,112.2 474.7,111.7 474.8,111.5 474.9,111.7 475.0,112.4 475.1,113.4 475.2,115.1 475.3,117.6 475.4,121.4 475.5,128.3 475.6,152.0 475.7,128.0 475.8,121.3 475.9,117.5 476.0,115.1 476.1,113.5 476.2,112.4 476.3,111.8 476.4,111.6 476.5,111.8 476.6,112.4 476.7,113.5 476.8,115.1 476.9,117.5 477.0,121.2 477.1,127.8 477.2,152.0 477.3,128.7 477.4,121.7 477.5,117.8 477.6,115.3 477.7,113.6 477.8,112.6 477.9,111.9 478.0,111.7 478.1,111.9 478.2,112.5 478.3,113.5 478.4,115.1 478.5,117.4 478.6,121.0 478.7,127.3 478.8,150.7 478.9,129.5 479.0,122.1 479.1,118.1 479.2,115.5 479.3,113.8 479.4,112.7 479.5,112.1 479.6,111.8 479.7,112.0 479.8,112.5 479.9,113.5 480.0,115.0 480.1,117.3 480.2,120.8 480.3,126.9 480.4,146.2 480.5,130.4 480.6,122.5 480.7,118.4 480.8,115.8 480.9,114.0 481.0,112.9 481.1,112.2 481.2,111.9 481.3,112.0 481.4,112.5 481.5,113.5 481.6,115.0 481.7,117.2 481.8,120.6 481.9,126.4 482.0,143.1 482.1,131.2 482.2,122.9 482.3,118.7 482.4,116.0 482.5,114.2 482.6,113.0 482.7,112.3 482.8,112.0 482.9,112.1 483.0,112.6 483.1,113.5 483.2,115.0 483.3,117.2 483.4,120.5 483.5,126.0 483.6,140.8 483.7,132.2 483.8,123.4 483.9,119.0 484.0,116.2 484.1,114.4 484.2,113.2 484.3,112.4 484.4,112.1 484.5,112.2 484.6,112.6 484.7,113.5 484.8,115.0 484.9,117.1 485.0,120.3 485.1,125.6 485.2,139.0 485.3,133.2 485.4,123.8 485.5,119.3 485.6,116.5 485.7,114.6 485.8,113.3 485.9,112.5 486.0,112.2 486.1,112.2 486.2,112.7 486.3,113.5 486.4,114.9 486.5,117.0 486.6,120.1 486.7,125.3 486.8,137.4 486.9,134.4 487.0,124.3 487.1,119.6 487.2,116.7 487.3,114.7 487.4,113.4 487.5,112.6 487.6,112.3 487.7,112.3 487.8,112.7 487.9,113.6 488.0,114.9 488.1,116.9 488.2,120.0 488.3,124.9 488.4,136.1 488.5,135.6 488.6,124.8 488.7,119.9 488.8,116.9 488.9,114.9 489.0,113.6 489.1,112.8 489.2,112.4 489.3,112.4 489.4,112.7 489.5,113.6 489.6,114.9 489.7,116.9 489.8,119.8 489.9,124.6 490.0,134.9 490.1,137.0 490.2,125.3 490.3,120.2 490.4,117.1 490.5,115.1 490.6,113.7 490.7,112.9 490.8,112.4 490.9,112.4 491.0,112.8 491.1,113.6 491.2,114.9 491.3,116.8 491.4,119.7 491.5,124.3 491.6,133.9 491.7,138.6 491.8,125.8 491.9,120.5 492.0,117.4 492.1,115.3 492.2,113.9 492.3,113.0 492.4,112.5 492.5,112.5 492.6,112.8 492.7,113.6 492.9,114.8 493.0,116.7 493.1,119.5 493.2,124.0 493.3,133.0 493.4,140.5 493.5,126.3 493.6,120.8 493.7,117.6 493.8,115.4 493.9,114.0 494.0,113.1 494.1,112.6 494.2,112.5 494.3,112.9 494.4,113.6 494.5,114.8 494.6,116.6 494.7,119.4 494.8,123.7 494.9,132.2 495.0,142.7 495.1,126.9 495.2,121.2 495.3,117.8 495.4,115.6 495.5,114.1 495.6,113.2 495.7,112.7 495.8,112.6 495.9,112.9 496.0,113.6 496.1,114.8 496.2,116.5 496.3,119.2 496.4,123.4 496.5,131.4 496.6,145.6 496.7,127.4 496.8,121.5 496.9,118.1 497.0,115.8 497.1,114.3 497.2,113.3 497.3,112.8 497.4,112.6 497.5,112.9 497.6,113.6 497.7,114.7 497.8,116.5 497.9,119.1 498.0,123.1 498.1,130.7 498.2,149.6 498.3,128.0 498.4,121.8 498.5,118.3 498.6,116.0 498.7,114.4 498.8,113.4 498.9,112.9 499.0,112.7 499.1,112.9 499.2,113.6 499.3,114.7 499.4,116.4 499.5,118.9 499.6,122.8 499.7,130.1 499.8,152.0 499.9,128.6 500.0,122.2 500.1,118.5 500.2,116.1 500.3,114.5 500.4,113.5 500.5,112.9 500.6,112.8 500.7,113.0 500.8,113.6 500.9,114.7 501.0,116.3 501.1,118.8 501.2,122.6 501.3,129.5 501.4,152.0 501.5,129.3 501.6,122.5 501.7,118.8 501.8,116.3 501.9,114.7 502.0,113.6 502.1,113.0 502.2,112.8 502.3,113.0 502.4,113.6 502.5,114.6 502.6,116.2 502.7,118.6 502.8,122.3 502.9,128.9 503.0,152.0 503.1,130.0 503.2,122.9 503.3,119.0 503.4,116.5 503.5,114.8 503.6,113.7 503.7,113.1 503.8,112.8 503.9,113.0 504.0,113.6 504.1,114.6 504.2,116.2 504.3,118.5 504.4,122.1 504.5,128.4 504.6,151.1 504.7,130.7 504.8,123.2 504.9,119.2 505.0,116.7 505.1,114.9 505.2,113.8 505.3,113.1 505.4,112.9 505.5,113.0 505.6,113.6 505.7,114.6 505.8,116.1 505.9,118.4 506.0,121.8 506.1,127.8 506.2,146.8 506.3,131.5 506.4,123.6 506.5,119.5 506.6,116.8 506.7,115.1 506.8,113.9 506.9,113.2 507.0,112.9 507.1,113.1 507.2,113.6 507.3,114.5 507.4,116.0 507.5,118.2 507.6,121.6 507.7,127.4 507.8,143.8 507.9,132.4 508.0,124.0 508.1,119.7 508.2,117.0 508.3,115.2 508.4,114.0 508.5,113.3 508.6,113.0 508.7,113.1 508.8,113.6 508.9,114.5 509.0,115.9 509.1,118.1 509.2,121.4 509.3,126.9 509.4,141.5 509.5,133.3 509.6,124.4 509.7,120.0 509.8,117.2 509.9,115.3 510.0,114.1 510.1,113.4 510.2,113.0 510.3,113.1 510.4,113.6 510.5,114.4 510.6,115.9 510.7,118.0 510.8,121.2 510.9,126.5 511.0,139.6 511.1,134.3 511.2,124.8 511.3,120.2 511.4,117.4 511.5,115.5 511.6,114.2 511.7,113.4 511.8,113.1 511.9,113.1 512.0,113.5 512.1,114.4 512.2,115.8 512.3,117.9 512.4,121.0 512.5,126.1 512.6,138.1 512.7,135.4 512.8,125.2 512.9,120.5 513.0,117.5 513.1,115.6 513.2,114.3 513.3,113.5 513.4,113.1 513.5,113.1 513.6,113.5 513.7,114.4 513.8,115.7 513.9,117.7 514.0,120.7 514.1,125.7 514.2,136.7 514.3,136.6 514.4,125.6 514.5,120.7 514.6,117.7 514.7,115.7 514.8,114.4 514.9,113.5 515.0,113.1 515.1,113.1 515.2,113.5 515.3,114.3 515.4,115.6 515.5,117.6 515.6,120.5 515.7,125.3 515.8,135.5 515.9,137.9 516.0,126.1 516.1,121.0 516.2,117.9 516.3,115.8 516.4,114.5 516.5,113.6 516.6,113.2 516.7,113.1 516.8,113.5 516.9,114.3 517.0,115.6 517.1,117.5 517.2,120.3 517.3,124.9 517.4,134.5 517.5,139.5 517.6,126.5 517.7,121.2 517.8,118.1 517.9,116.0 518.0,114.6 518.1,113.7 518.2,113.2 518.3,113.1 518.4,113.5 518.5,114.2 518.6,115.5 518.7,117.3 518.8,120.1 518.9,124.6 519.0,133.5 519.1,141.4 519.2,127.0 519.3,121.5 519.4,118.2 519.5,116.1 519.6,114.6 519.7,113.7 519.8,113.2 519.9,113.2 520.0,113.5 520.1,114.2 520.2,115.4 520.3,117.2 520.4,119.9 520.5,124.2 520.6,132.7 520.7,143.7 520.8,127.5 520.9,121.8 521.0,118.4 521.1,116.2 521.2,114.7 521.3,113.8 521.4,113.3 521.5,113.2 521.6,113.4 521.7,114.1 521.8,115.3 521.9,117.1 522.0,119.7 522.1,123.9 522.2,131.9 522.3,146.6 522.4,128.0 522.5,122.1 522.6,118.6 522.7,116.3 522.8,114.8 522.9,113.8 523.0,113.3 523.1,113.2 523.2,113.4 523.3,114.1 523.4,115.2 523.5,117.0 523.6,119.5 523.7,123.6 523.8,131.1 523.9,150.7 524.0,128.6 524.1,122.4 524.2,118.8 524.3,116.5 524.4,114.9 524.5,113.9 524.6,113.3 524.7,113.2 524.8,113.4 524.9,114.0 525.0,115.2 525.1,116.8 525.2,119.4 525.3,123.2 525.4,130.4 525.5,152.0 525.6,129.2 525.7,122.6 525.8,119.0 525.9,116.6 526.0,115.0 526.1,113.9 526.2,113.4 526.3,113.2 526.4,113.4 526.5,114.0 526.6,115.1 526.7,116.7 526.8,119.2 526.9,122.9 527.0,129.8" fill="none" stroke="#4a90d9" stroke-width="1.2" stroke-linejoin="round"/>
  <text x="154.5" y="176" text-anchor="middle" font-size="8" fill="#6b7280">n / N</text>
  <text x="424.5" y="176" text-anchor="middle" font-size="8" fill="#6b7280">Normalized frequency (× Fₛ)</text>
</svg>
