<svg xmlns="http://www.w3.org/2000/svg" viewBox="0 0 560 210" width="560" height="210" style="font-family:system-ui,-apple-system,sans-serif">
  <rect width="560" height="210" fill="#fafafa" rx="6"/>
  <text x="280" y="18" text-anchor="middle" font-size="12" font-weight="600" fill="#374151">welch</text>
  <line x1="52" y1="166.0" x2="257" y2="166.0" stroke="#e5e7eb" stroke-width="0.5"/>
  <text x="48" y="169.0" text-anchor="end" font-size="7.5" fill="#6b7280">0</text>
  <line x1="52" y1="97.0" x2="257" y2="97.0" stroke="#e5e7eb" stroke-width="0.5"/>
  <text x="48" y="100.0" text-anchor="end" font-size="7.5" fill="#6b7280">0.5</text>
  <line x1="52" y1="28.0" x2="257" y2="28.0" stroke="#e5e7eb" stroke-width="0.5"/>
  <text x="48" y="31.0" text-anchor="end" font-size="7.5" fill="#6b7280">1</text>
  <line x1="52.0" y1="28" x2="52.0" y2="166" stroke="#e5e7eb" stroke-width="0.5"/>
  <text x="52.0" y="178" text-anchor="middle" font-size="7.5" fill="#6b7280">0</text>
  <line x1="154.5" y1="28" x2="154.5" y2="166" stroke="#e5e7eb" stroke-width="0.5"/>
  <text x="154.5" y="178" text-anchor="middle" font-size="7.5" fill="#6b7280">0.5</text>
  <line x1="257.0" y1="28" x2="257.0" y2="166" stroke="#e5e7eb" stroke-width="0.5"/>
  <text x="257.0" y="178" text-anchor="middle" font-size="7.5" fill="#6b7280">1</text>
  <line x1="52" y1="28" x2="52" y2="166" stroke="#d1d5db" stroke-width="0.75"/>
  <line x1="52" y1="166" x2="257" y2="166" stroke="#d1d5db" stroke-width="0.75"/>
  <path d="M52.0,166.0 52.0,166.0 52.8,163.8 53.6,161.7 54.4,159.6 55.2,157.5 56.0,155.4 56.8,153.3 57.6,151.3 58.4,149.2 59.2,147.2 60.0,145.2 60.8,143.2 61.6,141.2 62.5,139.3 63.3,137.4 64.1,135.4 64.9,133.5 65.7,131.7 66.5,129.8 67.3,127.9 68.1,126.1 68.9,124.3 69.7,122.5 70.5,120.7 71.3,118.9 72.1,117.2 72.9,115.5 73.7,113.7 74.5,112.0 75.3,110.4 76.1,108.7 76.9,107.1 77.7,105.4 78.5,103.8 79.3,102.2 80.1,100.6 80.9,99.1 81.7,97.5 82.5,96.0 83.4,94.5 84.2,93.0 85.0,91.5 85.8,90.1 86.6,88.6 87.4,87.2 88.2,85.8 89.0,84.4 89.8,83.0 90.6,81.7 91.4,80.3 92.2,79.0 93.0,77.7 93.8,76.4 94.6,75.1 95.4,73.9 96.2,72.6 97.0,71.4 97.8,70.2 98.6,69.0 99.4,67.8 100.2,66.7 101.0,65.5 101.8,64.4 102.6,63.3 103.5,62.2 104.3,61.2 105.1,60.1 105.9,59.1 106.7,58.1 107.5,57.1 108.3,56.1 109.1,55.1 109.9,54.1 110.7,53.2 111.5,52.3 112.3,51.4 113.1,50.5 113.9,49.6 114.7,48.8 115.5,48.0 116.3,47.2 117.1,46.4 117.9,45.6 118.7,44.8 119.5,44.1 120.3,43.3 121.1,42.6 121.9,41.9 122.7,41.2 123.5,40.6 124.4,39.9 125.2,39.3 126.0,38.7 126.8,38.1 127.6,37.5 128.4,37.0 129.2,36.4 130.0,35.9 130.8,35.4 131.6,34.9 132.4,34.4 133.2,34.0 134.0,33.5 134.8,33.1 135.6,32.7 136.4,32.3 137.2,31.9 138.0,31.6 138.8,31.2 139.6,30.9 140.4,30.6 141.2,30.3 142.0,30.0 142.8,29.8 143.6,29.5 144.5,29.3 145.3,29.1 146.1,28.9 146.9,28.8 147.7,28.6 148.5,28.5 149.3,28.4 150.1,28.3 150.9,28.2 151.7,28.1 152.5,28.1 153.3,28.0 154.1,28.0 154.9,28.0 155.7,28.0 156.5,28.1 157.3,28.1 158.1,28.2 158.9,28.3 159.7,28.4 160.5,28.5 161.3,28.6 162.1,28.8 162.9,28.9 163.7,29.1 164.5,29.3 165.4,29.5 166.2,29.8 167.0,30.0 167.8,30.3 168.6,30.6 169.4,30.9 170.2,31.2 171.0,31.6 171.8,31.9 172.6,32.3 173.4,32.7 174.2,33.1 175.0,33.5 175.8,34.0 176.6,34.4 177.4,34.9 178.2,35.4 179.0,35.9 179.8,36.4 180.6,37.0 181.4,37.5 182.2,38.1 183.0,38.7 183.8,39.3 184.6,39.9 185.5,40.6 186.3,41.2 187.1,41.9 187.9,42.6 188.7,43.3 189.5,44.1 190.3,44.8 191.1,45.6 191.9,46.4 192.7,47.2 193.5,48.0 194.3,48.8 195.1,49.6 195.9,50.5 196.7,51.4 197.5,52.3 198.3,53.2 199.1,54.1 199.9,55.1 200.7,56.1 201.5,57.1 202.3,58.1 203.1,59.1 203.9,60.1 204.7,61.2 205.5,62.2 206.4,63.3 207.2,64.4 208.0,65.5 208.8,66.7 209.6,67.8 210.4,69.0 211.2,70.2 212.0,71.4 212.8,72.6 213.6,73.9 214.4,75.1 215.2,76.4 216.0,77.7 216.8,79.0 217.6,80.3 218.4,81.7 219.2,83.0 220.0,84.4 220.8,85.8 221.6,87.2 222.4,88.6 223.2,90.1 224.0,91.5 224.8,93.0 225.6,94.5 226.5,96.0 227.3,97.5 228.1,99.1 228.9,100.6 229.7,102.2 230.5,103.8 231.3,105.4 232.1,107.1 232.9,108.7 233.7,110.4 234.5,112.0 235.3,113.7 236.1,115.5 236.9,117.2 237.7,118.9 238.5,120.7 239.3,122.5 240.1,124.3 240.9,126.1 241.7,127.9 242.5,129.8 243.3,131.7 244.1,133.5 244.9,135.4 245.7,137.4 246.5,139.3 247.4,141.2 248.2,143.2 249.0,145.2 249.8,147.2 250.6,149.2 251.4,151.3 252.2,153.3 253.0,155.4 253.8,157.5 254.6,159.6 255.4,161.7 256.2,163.8 257.0,166.0 L257.0,166.0 Z" fill="#4a90d9" fill-opacity="0.06"/>
  <polyline points="52.0,166.0 52.8,163.8 53.6,161.7 54.4,159.6 55.2,157.5 56.0,155.4 56.8,153.3 57.6,151.3 58.4,149.2 59.2,147.2 60.0,145.2 60.8,143.2 61.6,141.2 62.5,139.3 63.3,137.4 64.1,135.4 64.9,133.5 65.7,131.7 66.5,129.8 67.3,127.9 68.1,126.1 68.9,124.3 69.7,122.5 70.5,120.7 71.3,118.9 72.1,117.2 72.9,115.5 73.7,113.7 74.5,112.0 75.3,110.4 76.1,108.7 76.9,107.1 77.7,105.4 78.5,103.8 79.3,102.2 80.1,100.6 80.9,99.1 81.7,97.5 82.5,96.0 83.4,94.5 84.2,93.0 85.0,91.5 85.8,90.1 86.6,88.6 87.4,87.2 88.2,85.8 89.0,84.4 89.8,83.0 90.6,81.7 91.4,80.3 92.2,79.0 93.0,77.7 93.8,76.4 94.6,75.1 95.4,73.9 96.2,72.6 97.0,71.4 97.8,70.2 98.6,69.0 99.4,67.8 100.2,66.7 101.0,65.5 101.8,64.4 102.6,63.3 103.5,62.2 104.3,61.2 105.1,60.1 105.9,59.1 106.7,58.1 107.5,57.1 108.3,56.1 109.1,55.1 109.9,54.1 110.7,53.2 111.5,52.3 112.3,51.4 113.1,50.5 113.9,49.6 114.7,48.8 115.5,48.0 116.3,47.2 117.1,46.4 117.9,45.6 118.7,44.8 119.5,44.1 120.3,43.3 121.1,42.6 121.9,41.9 122.7,41.2 123.5,40.6 124.4,39.9 125.2,39.3 126.0,38.7 126.8,38.1 127.6,37.5 128.4,37.0 129.2,36.4 130.0,35.9 130.8,35.4 131.6,34.9 132.4,34.4 133.2,34.0 134.0,33.5 134.8,33.1 135.6,32.7 136.4,32.3 137.2,31.9 138.0,31.6 138.8,31.2 139.6,30.9 140.4,30.6 141.2,30.3 142.0,30.0 142.8,29.8 143.6,29.5 144.5,29.3 145.3,29.1 146.1,28.9 146.9,28.8 147.7,28.6 148.5,28.5 149.3,28.4 150.1,28.3 150.9,28.2 151.7,28.1 152.5,28.1 153.3,28.0 154.1,28.0 154.9,28.0 155.7,28.0 156.5,28.1 157.3,28.1 158.1,28.2 158.9,28.3 159.7,28.4 160.5,28.5 161.3,28.6 162.1,28.8 162.9,28.9 163.7,29.1 164.5,29.3 165.4,29.5 166.2,29.8 167.0,30.0 167.8,30.3 168.6,30.6 169.4,30.9 170.2,31.2 171.0,31.6 171.8,31.9 172.6,32.3 173.4,32.7 174.2,33.1 175.0,33.5 175.8,34.0 176.6,34.4 177.4,34.9 178.2,35.4 179.0,35.9 179.8,36.4 180.6,37.0 181.4,37.5 182.2,38.1 183.0,38.7 183.8,39.3 184.6,39.9 185.5,40.6 186.3,41.2 187.1,41.9 187.9,42.6 188.7,43.3 189.5,44.1 190.3,44.8 191.1,45.6 191.9,46.4 192.7,47.2 193.5,48.0 194.3,48.8 195.1,49.6 195.9,50.5 196.7,51.4 197.5,52.3 198.3,53.2 199.1,54.1 199.9,55.1 200.7,56.1 201.5,57.1 202.3,58.1 203.1,59.1 203.9,60.1 204.7,61.2 205.5,62.2 206.4,63.3 207.2,64.4 208.0,65.5 208.8,66.7 209.6,67.8 210.4,69.0 211.2,70.2 212.0,71.4 212.8,72.6 213.6,73.9 214.4,75.1 215.2,76.4 216.0,77.7 216.8,79.0 217.6,80.3 218.4,81.7 219.2,83.0 220.0,84.4 220.8,85.8 221.6,87.2 222.4,88.6 223.2,90.1 224.0,91.5 224.8,93.0 225.6,94.5 226.5,96.0 227.3,97.5 228.1,99.1 228.9,100.6 229.7,102.2 230.5,103.8 231.3,105.4 232.1,107.1 232.9,108.7 233.7,110.4 234.5,112.0 235.3,113.7 236.1,115.5 236.9,117.2 237.7,118.9 238.5,120.7 239.3,122.5 240.1,124.3 240.9,126.1 241.7,127.9 242.5,129.8 243.3,131.7 244.1,133.5 244.9,135.4 245.7,137.4 246.5,139.3 247.4,141.2 248.2,143.2 249.0,145.2 249.8,147.2 250.6,149.2 251.4,151.3 252.2,153.3 253.0,155.4 253.8,157.5 254.6,159.6 255.4,161.7 256.2,163.8 257.0,166.0" fill="none" stroke="#4a90d9" stroke-width="1.2" stroke-linejoin="round"/>
  <line x1="322" y1="28.0" x2="527" y2="28.0" stroke="#e5e7eb" stroke-width="0.5"/>
  <text x="318" y="31.0" text-anchor="end" font-size="7.5" fill="#6b7280">0</text>
  <line x1="322" y1="74.0" x2="527" y2="74.0" stroke="#e5e7eb" stroke-width="0.5"/>
  <text x="318" y="77.0" text-anchor="end" font-size="7.5" fill="#6b7280">-40</text>
  <line x1="322" y1="120.0" x2="527" y2="120.0" stroke="#e5e7eb" stroke-width="0.5"/>
  <text x="318" y="123.0" text-anchor="end" font-size="7.5" fill="#6b7280">-80</text>
  <line x1="322" y1="166.0" x2="527" y2="166.0" stroke="#e5e7eb" stroke-width="0.5"/>
  <text x="318" y="169.0" text-anchor="end" font-size="7.5" fill="#6b7280">-120</text>
  <line x1="322.0" y1="28" x2="322.0" y2="166" stroke="#e5e7eb" stroke-width="0.5"/>
  <text x="322.0" y="178" text-anchor="middle" font-size="7.5" fill="#6b7280">0</text>
  <line x1="363.0" y1="28" x2="363.0" y2="166" stroke="#e5e7eb" stroke-width="0.5"/>
  <text x="363.0" y="178" text-anchor="middle" font-size="7.5" fill="#6b7280">0.1</text>
  <line x1="404.0" y1="28" x2="404.0" y2="166" stroke="#e5e7eb" stroke-width="0.5"/>
  <text x="404.0" y="178" text-anchor="middle" font-size="7.5" fill="#6b7280">0.2</text>
  <line x1="445.0" y1="28" x2="445.0" y2="166" stroke="#e5e7eb" stroke-width="0.5"/>
  <text x="445.0" y="178" text-anchor="middle" font-size="7.5" fill="#6b7280">0.3</text>
  <line x1="486.0" y1="28" x2="486.0" y2="166" stroke="#e5e7eb" stroke-width="0.5"/>
  <text x="486.0" y="178" text-anchor="middle" font-size="7.5" fill="#6b7280">0.4</text>
  <line x1="527.0" y1="28" x2="527.0" y2="166" stroke="#e5e7eb" stroke-width="0.5"/>
  <text x="527.0" y="178" text-anchor="middle" font-size="7.5" fill="#6b7280">0.5</text>
  <line x1="322" y1="28" x2="322" y2="166" stroke="#d1d5db" stroke-width="0.75"/>
  <line x1="322" y1="166" x2="527" y2="166" stroke="#d1d5db" stroke-width="0.75"/>
  <polyline points="322.0,28.0 322.1,28.0 322.2,28.2 322.3,28.3 322.4,28.6 322.5,29.0 322.6,29.4 322.7,29.9 322.8,30.5 322.9,31.2 323.0,32.1 323.1,33.0 323.2,34.0 323.3,35.2 323.4,36.5 323.5,38.1 323.6,39.8 323.7,41.8 323.8,44.1 323.9,46.9 324.0,50.4 324.1,55.2 324.2,63.0 324.3,100.3 324.4,64.3 324.5,58.5 324.6,55.5 324.7,53.9 324.8,52.9 324.9,52.5 325.0,52.5 325.1,52.9 325.2,53.6 325.3,54.7 325.4,56.2 325.5,58.1 325.6,60.6 325.7,64.2 325.8,69.6 325.9,81.0 326.0,81.4 326.1,71.1 326.2,66.7 326.3,64.2 326.4,62.7 326.5,61.8 326.6,61.4 326.7,61.4 326.8,61.7 326.9,62.5 327.0,63.6 327.1,65.2 327.2,67.4 327.3,70.4 327.4,75.0 327.5,83.7 327.6,95.1 327.7,79.4 327.8,74.1 327.9,71.1 328.0,69.3 328.1,68.1 328.2,67.5 328.3,67.3 328.4,67.5 328.5,68.0 328.6,69.0 328.7,70.4 328.8,72.4 328.9,75.2 329.0,79.3 329.1,86.8 329.2,111.4 329.3,85.8 329.4,79.7 329.5,76.4 329.6,74.3 329.7,73.0 329.8,72.2 329.9,71.9 330.0,71.9 330.1,72.4 330.2,73.2 330.3,74.5 330.4,76.3 330.5,78.9 330.6,82.8 330.7,89.5 330.8,120.3 330.9,91.0 331.0,84.2 331.1,80.6 331.2,78.3 331.3,76.9 331.4,76.0 331.5,75.6 331.6,75.6 331.7,75.9 331.8,76.7 331.9,77.9 332.0,79.6 332.1,82.1 332.2,85.7 332.3,91.9 332.4,112.0 332.5,95.4 332.6,88.0 332.7,84.2 332.8,81.8 332.9,80.2 333.0,79.3 333.1,78.8 333.2,78.7 333.3,79.0 333.4,79.6 333.5,80.7 333.6,82.4 333.7,84.7 333.8,88.2 333.9,94.0 334.0,110.0 334.1,99.5 334.2,91.3 334.3,87.2 334.4,84.7 334.5,83.1 334.6,82.0 334.7,81.5 334.8,81.3 334.9,81.6 335.0,82.2 335.1,83.2 335.2,84.8 335.3,87.1 335.4,90.4 335.5,95.9 335.6,109.6 335.7,103.2 335.8,94.3 335.9,90.0 336.0,87.3 336.1,85.6 336.2,84.5 336.3,83.9 336.4,83.7 336.5,83.9 336.6,84.4 336.7,85.4 336.8,86.9 336.9,89.1 337.0,92.3 337.1,97.5 337.2,109.6 337.3,106.7 337.4,96.9 337.5,92.4 337.6,89.7 337.7,87.9 337.8,86.7 337.9,86.1 338.0,85.8 338.1,85.9 338.2,86.5 338.3,87.4 338.4,88.9 338.5,90.9 338.6,94.0 338.7,99.0 338.8,109.9 338.9,110.2 339.0,99.4 339.1,94.7 339.2,91.8 339.3,89.9 339.4,88.7 339.5,88.0 339.6,87.7 339.7,87.8 339.8,88.3 339.9,89.2 340.0,90.6 340.1,92.6 340.2,95.6 340.3,100.3 340.4,110.3 340.5,113.7 340.6,101.7 340.7,96.7 340.8,93.7 340.9,91.8 341.0,90.5 341.1,89.8 341.2,89.5 341.3,89.5 341.4,90.0 341.5,90.8 341.6,92.2 341.7,94.1 341.8,97.0 341.9,101.5 342.0,110.8 342.1,117.2 342.2,103.9 342.3,98.6 342.4,95.6 342.5,93.5 342.6,92.2 342.7,91.4 342.8,91.1 342.9,91.1 343.0,91.5 343.1,92.3 343.2,93.6 343.3,95.5 343.4,98.3 343.5,102.7 343.6,111.2 343.7,121.1 343.8,105.9 343.9,100.4 344.0,97.2 344.1,95.2 344.2,93.8 344.3,93.0 344.4,92.5 344.5,92.5 344.6,92.9 344.7,93.7 344.8,94.9 344.9,96.8 345.0,99.5 345.1,103.7 345.2,111.7 345.3,125.5 345.4,107.9 345.5,102.1 345.6,98.8 345.7,96.7 345.8,95.3 345.9,94.4 346.0,93.9 346.1,93.9 346.2,94.2 346.3,95.0 346.4,96.2 346.5,98.0 346.6,100.6 346.7,104.7 346.8,112.2 346.9,131.1 347.0,109.8 347.1,103.7 347.2,100.3 347.3,98.1 347.4,96.6 347.5,95.7 347.6,95.2 347.7,95.2 347.8,95.5 347.9,96.2 348.0,97.3 348.1,99.1 348.2,101.6 348.3,105.5 348.4,112.7 348.5,139.8 348.6,111.6 348.7,105.3 348.8,101.7 348.9,99.4 349.0,97.9 349.1,97.0 349.2,96.5 349.3,96.3 349.4,96.6 349.5,97.3 349.6,98.4 349.7,100.1 349.8,102.6 349.9,106.4 350.0,113.1 350.1,163.6 350.2,113.4 350.3,106.7 350.4,103.0 350.5,100.7 350.6,99.1 350.7,98.1 350.8,97.6 350.9,97.5 351.0,97.7 351.1,98.4 351.2,99.4 351.3,101.1 351.4,103.5 351.5,107.2 351.6,113.6 351.7,140.3 351.8,115.2 351.9,108.1 352.0,104.3 352.1,101.9 352.2,100.3 352.3,99.3 352.4,98.7 352.5,98.5 352.6,98.7 352.7,99.3 352.8,100.4 352.9,102.0 353.0,104.3 353.1,107.9 353.2,114.0 353.3,134.9 353.4,117.0 353.5,109.5 353.6,105.6 353.7,103.1 353.8,101.4 353.9,100.3 354.0,99.7 354.1,99.5 354.2,99.7 354.3,100.3 354.4,101.3 354.5,102.9 354.6,105.1 354.7,108.6 354.8,114.4 354.9,132.0 355.0,118.7 355.1,110.8 355.2,106.7 355.3,104.2 355.4,102.5 355.5,101.4 355.6,100.7 355.7,100.5 355.8,100.6 355.9,101.2 356.0,102.2 356.1,103.7 356.3,105.9 356.4,109.2 356.5,114.9 356.6,130.1 356.7,120.5 356.8,112.1 356.9,107.9 357.0,105.2 357.1,103.5 357.2,102.3 357.3,101.7 357.4,101.4 357.5,101.5 357.6,102.0 357.7,103.0 357.8,104.5 357.9,106.6 358.0,109.9 358.1,115.2 358.2,128.9 358.3,122.4 358.4,113.3 358.5,109.0 358.6,106.2 358.7,104.4 358.8,103.3 358.9,102.6 359.0,102.3 359.1,102.4 359.2,102.9 359.3,103.8 359.4,105.2 359.5,107.3 359.6,110.5 359.7,115.6 359.8,127.9 359.9,124.3 360.0,114.6 360.1,110.0 360.2,107.2 360.3,105.4 360.4,104.1 360.5,103.4 360.6,103.1 360.7,103.2 360.8,103.6 360.9,104.5 361.0,105.9 361.1,108.0 361.2,111.0 361.3,116.0 361.4,127.3 361.5,126.2 361.6,115.8 361.7,111.1 361.8,108.2 361.9,106.3 362.0,105.0 362.1,104.2 362.2,103.9 362.3,104.0 362.4,104.4 362.5,105.2 362.6,106.6 362.7,108.6 362.8,111.6 362.9,116.3 363.0,126.7 363.1,128.3 363.2,117.0 363.3,112.1 363.4,109.1 363.5,107.1 363.6,105.8 363.7,105.0 363.8,104.7 363.9,104.7 364.0,105.1 364.1,105.9 364.2,107.2 364.3,109.2 364.4,112.1 364.5,116.7 364.6,126.3 364.7,130.6 364.8,118.2 364.9,113.1 365.0,110.0 365.1,108.0 365.2,106.6 365.3,105.8 365.4,105.4 365.5,105.4 365.6,105.8 365.7,106.6 365.8,107.9 365.9,109.7 366.0,112.6 366.1,117.0 366.2,126.0 366.3,133.1 366.4,119.3 366.5,114.0 366.6,110.9 366.7,108.8 366.8,107.4 366.9,106.6 367.0,106.1 367.1,106.1 367.2,106.4 367.3,107.2 367.4,108.4 367.5,110.3 367.6,113.0 367.7,117.3 367.8,125.8 367.9,135.9 368.0,120.5 368.1,115.0 368.2,111.7 368.3,109.6 368.4,108.2 368.5,107.3 368.6,106.8 368.7,106.8 368.8,107.1 368.9,107.8 369.0,109.0 369.1,110.8 369.2,113.5 369.3,117.6 369.4,125.6 369.5,139.4 369.6,121.7 369.7,115.9 369.8,112.5 369.9,110.3 370.0,108.9 370.1,108.0 370.2,107.5 370.3,107.4 370.4,107.7 370.5,108.4 370.6,109.6 370.7,111.3 370.8,113.9 370.9,117.9 371.0,125.5 371.1,143.9 371.2,122.8 371.3,116.8 371.4,113.3 371.5,111.1 371.6,109.6 371.7,108.6 371.8,108.1 371.9,108.0 372.0,108.3 372.1,109.0 372.2,110.1 372.3,111.8 372.4,114.3 372.5,118.2 372.6,125.4 372.7,150.8 372.8,124.0 372.9,117.7 373.0,114.1 373.1,111.8 373.2,110.3 373.3,109.3 373.4,108.8 373.5,108.6 373.6,108.9 373.7,109.5 373.8,110.6 373.9,112.3 374.0,114.7 374.1,118.5 374.2,125.3 374.3,166.0 374.4,125.2 374.5,118.6 374.6,114.9 374.7,112.5 374.8,110.9 374.9,109.9 375.0,109.4 375.1,109.2 375.2,109.4 375.3,110.0 375.4,111.1 375.5,112.7 375.6,115.1 375.7,118.8 375.8,125.3 375.9,154.5 376.0,126.4 376.1,119.4 376.2,115.7 376.3,113.2 376.4,111.6 376.5,110.5 376.6,109.9 376.7,109.8 376.8,109.9 376.9,110.5 377.0,111.6 377.1,113.1 377.2,115.5 377.3,119.0 377.4,125.2 377.5,147.5 377.6,127.7 377.7,120.3 377.8,116.4 377.9,113.9 378.0,112.2 378.1,111.1 378.2,110.5 378.3,110.3 378.4,110.5 378.5,111.0 378.6,112.0 378.7,113.6 378.8,115.8 378.9,119.3 379.0,125.2 379.1,143.7 379.2,129.0 379.3,121.2 379.4,117.1 379.5,114.6 379.6,112.8 379.7,111.7 379.8,111.1 379.9,110.8 380.0,111.0 380.1,111.5 380.2,112.5 380.3,114.0 380.4,116.2 380.5,119.5 380.6,125.2 380.7,141.3 380.8,130.3 380.9,122.0 381.0,117.8 381.1,115.2 381.2,113.4 381.3,112.3 381.4,111.6 381.5,111.3 381.6,111.5 381.7,112.0 381.8,112.9 381.9,114.4 382.0,116.5 382.1,119.8 382.2,125.2 382.3,139.5 382.4,131.7 382.5,122.9 382.6,118.6 382.7,115.8 382.8,114.0 382.9,112.8 383.0,112.1 383.1,111.8 383.2,111.9 383.3,112.4 383.4,113.3 383.5,114.7 383.6,116.9 383.7,120.0 383.8,125.3 383.9,138.1 384.0,133.1 384.1,123.7 384.2,119.3 384.3,116.5 384.4,114.6 384.5,113.4 384.6,112.7 384.7,112.3 384.8,112.4 384.9,112.8 385.0,113.7 385.1,115.1 385.2,117.2 385.3,120.2 385.4,125.3 385.5,137.0 385.6,134.7 385.7,124.6 385.8,119.9 385.9,117.1 386.0,115.2 386.1,113.9 386.2,113.2 386.3,112.8 386.4,112.8 386.5,113.3 386.6,114.1 386.7,115.5 386.8,117.5 386.9,120.5 387.0,125.3 387.1,136.1 387.2,136.3 387.3,125.5 387.4,120.6 387.5,117.7 387.6,115.7 387.7,114.4 387.8,113.6 387.9,113.3 388.0,113.3 388.1,113.7 388.2,114.5 388.3,115.8 388.4,117.8 388.5,120.7 388.6,125.4 388.7,135.4 388.8,138.2 388.9,126.3 389.0,121.3 389.1,118.3 389.2,116.3 389.3,114.9 389.4,114.1 389.5,113.7 389.6,113.7 389.7,114.1 389.8,114.9 389.9,116.1 390.0,118.1 390.1,120.9 390.2,125.4 390.3,134.8 390.4,140.2 390.5,127.2 390.6,122.0 390.7,118.9 390.8,116.8 390.9,115.4 391.0,114.6 391.1,114.2 391.2,114.1 391.3,114.5 391.4,115.2 391.5,116.5 391.6,118.3 391.7,121.1 391.8,125.5 391.9,134.2 392.0,142.5 392.1,128.1 392.2,122.7 392.3,119.4 392.4,117.3 392.5,115.9 392.6,115.0 392.7,114.6 392.8,114.5 392.9,114.8 393.0,115.6 393.1,116.8 393.2,118.6 393.3,121.3 393.4,125.5 393.5,133.8 393.6,145.2 393.7,129.0 393.8,123.3 393.9,120.0 394.0,117.9 394.1,116.4 394.2,115.5 394.3,115.0 394.4,114.9 394.5,115.2 394.6,115.9 394.7,117.1 394.8,118.9 394.9,121.5 395.0,125.6 395.1,133.4 395.2,148.7 395.3,129.9 395.4,124.0 395.5,120.6 395.6,118.4 395.7,116.9 395.8,115.9 395.9,115.4 396.0,115.3 396.1,115.6 396.2,116.3 396.3,117.4 396.4,119.1 396.5,121.7 396.6,125.6 396.7,133.0 396.8,153.5 396.9,130.8 397.0,124.7 397.1,121.1 397.2,118.9 397.3,117.3 397.4,116.4 397.5,115.8 397.6,115.7 397.7,115.9 397.8,116.6 397.9,117.7 398.0,119.4 398.1,121.9 398.2,125.7 398.3,132.7 398.4,162.1 398.5,131.8 398.6,125.3 398.7,121.7 398.8,119.4 398.9,117.8 399.0,116.8 399.1,116.2 399.2,116.1 399.3,116.3 399.4,116.9 399.5,118.0 399.6,119.6 399.7,122.0 399.8,125.8 399.9,132.4 400.0,166.0 400.1,132.8 400.2,126.0 400.3,122.2 400.4,119.8 400.5,118.2 400.6,117.2 400.7,116.6 400.8,116.4 400.9,116.6 401.0,117.2 401.1,118.2 401.2,119.8 401.3,122.2 401.4,125.8 401.5,132.2 401.6,158.5 401.7,133.8 401.8,126.6 401.9,122.8 402.0,120.3 402.1,118.7 402.2,117.6 402.3,117.0 402.4,116.8 402.5,116.9 402.6,117.5 402.7,118.5 402.8,120.1 402.9,122.4 403.0,125.9 403.1,132.0 403.2,152.8 403.3,134.8 403.4,127.3 403.5,123.3 403.6,120.8 403.7,119.1 403.8,118.0 403.9,117.4 404.0,117.1 404.1,117.3 404.2,117.8 404.3,118.8 404.4,120.3 404.5,122.5 404.6,125.9 404.7,131.8 404.8,149.4 404.9,135.9 405.0,128.0 405.1,123.9 405.2,121.3 405.3,119.5 405.4,118.4 405.5,117.7 405.6,117.5 405.7,117.6 405.8,118.1 405.9,119.0 406.0,120.5 406.1,122.7 406.2,126.0 406.3,131.6 406.4,147.1 406.5,137.1 406.6,128.6 406.7,124.4 406.8,121.7 406.9,119.9 407.0,118.8 407.1,118.1 407.2,117.8 407.3,117.9 407.4,118.4 407.5,119.3 407.6,120.7 407.7,122.9 407.8,126.1 407.9,131.5 408.0,145.3 408.1,138.3 408.2,129.3 408.3,124.9 408.4,122.2 408.5,120.4 408.6,119.1 408.7,118.4 408.8,118.1 408.9,118.2 409.0,118.6 409.1,119.5 409.2,120.9 409.3,123.0 409.4,126.1 409.5,131.3 409.6,143.8 409.7,139.6 409.8,130.0 409.9,125.5 410.0,122.6 410.1,120.8 410.2,119.5 410.3,118.8 410.4,118.4 410.5,118.5 410.6,118.9 410.7,119.8 410.8,121.1 410.9,123.2 411.0,126.2 411.1,131.2 411.2,142.7 411.3,141.0 411.4,130.7 411.5,126.0 411.6,123.1 411.7,121.2 411.8,119.9 411.9,119.1 412.0,118.7 412.1,118.8 412.2,119.2 412.3,120.0 412.4,121.3 412.5,123.3 412.6,126.3 412.7,131.1 412.8,141.7 412.9,142.5 413.0,131.4 413.1,126.5 413.2,123.5 413.3,121.6 413.4,120.2 413.5,119.4 413.6,119.0 413.7,119.0 413.8,119.4 413.9,120.2 414.0,121.5 414.1,123.5 414.2,126.3 414.3,131.0 414.4,140.8 414.5,144.2 414.6,132.1 414.7,127.0 414.8,124.0 414.9,122.0 415.0,120.6 415.1,119.8 415.2,119.3 415.3,119.3 415.4,119.7 415.5,120.5 415.6,121.7 415.7,123.6 415.8,126.4 415.9,130.9 416.0,140.1 416.1,146.2 416.2,132.8 416.3,127.6 416.4,124.4 416.5,122.3 416.6,121.0 416.7,120.1 416.8,119.6 416.9,119.6 417.0,119.9 417.1,120.7 417.2,121.9 417.3,123.7 417.4,126.5 417.5,130.8 417.6,139.4 417.7,148.4 417.8,133.6 417.9,128.1 418.0,124.9 418.1,122.7 418.2,121.3 418.3,120.4 418.4,119.9 418.5,119.9 418.6,120.2 418.7,120.9 418.8,122.1 418.9,123.9 419.0,126.5 419.1,130.7 419.2,138.8 419.3,151.1 419.4,134.4 419.5,128.6 419.6,125.3 419.7,123.1 419.8,121.6 419.9,120.7 420.0,120.2 420.1,120.1 420.2,120.4 420.3,121.1 420.4,122.2 420.5,124.0 420.6,126.6 420.7,130.6 420.8,138.3 420.9,154.7 421.0,135.1 421.1,129.2 421.2,125.7 421.3,123.5 421.4,122.0 421.5,121.0 421.6,120.5 421.7,120.4 421.8,120.6 421.9,121.3 422.0,122.4 422.1,124.1 422.2,126.6 422.3,130.6 422.4,137.9 422.5,159.9 422.6,135.9 422.7,129.7 422.8,126.2 422.9,123.9 423.0,122.3 423.1,121.3 423.2,120.8 423.3,120.6 423.4,120.9 423.5,121.5 423.6,122.6 423.7,124.2 423.8,126.7 423.9,130.5 424.0,137.5 424.1,166.0 424.2,136.8 424.3,130.2 424.4,126.6 424.6,124.2 424.7,122.6 424.8,121.6 424.9,121.0 425.0,120.9 425.1,121.1 425.2,121.7 425.3,122.7 425.4,124.4 425.5,126.8 425.6,130.5 425.7,137.1 425.8,166.0 425.9,137.6 426.0,130.8 426.1,127.0 426.2,124.6 426.3,123.0 426.4,121.9 426.5,121.3 426.6,121.1 426.7,121.3 426.8,121.9 426.9,122.9 427.0,124.5 427.1,126.8 427.2,130.4 427.3,136.7 427.4,161.5 427.5,138.5 427.6,131.3 427.7,127.4 427.8,125.0 427.9,123.3 428.0,122.2 428.1,121.6 428.2,121.3 428.3,121.5 428.4,122.1 428.5,123.1 428.6,124.6 428.7,126.9 428.8,130.4 428.9,136.4 429.0,156.5 429.1,139.5 429.2,131.9 429.3,127.9 429.4,125.3 429.5,123.6 429.6,122.5 429.7,121.8 429.8,121.6 429.9,121.7 430.0,122.2 430.1,123.2 430.2,124.7 430.3,126.9 430.4,130.3 430.5,136.1 430.6,153.2 430.7,140.5 430.8,132.4 430.9,128.3 431.0,125.7 431.1,123.9 431.2,122.8 431.3,122.1 431.4,121.8 431.5,121.9 431.6,122.4 431.7,123.4 431.8,124.8 431.9,127.0 432.0,130.3 432.1,135.8 432.2,150.9 432.3,141.5 432.4,133.0 432.5,128.7 432.6,126.0 432.7,124.2 432.8,123.0 432.9,122.3 433.0,122.0 433.1,122.1 433.2,122.6 433.3,123.5 433.4,124.9 433.5,127.0 433.6,130.2 433.7,135.6 433.8,149.1 433.9,142.7 434.0,133.6 434.1,129.2 434.2,126.4 434.3,124.5 434.4,123.3 434.5,122.6 434.6,122.3 434.7,122.3 434.8,122.8 434.9,123.6 435.0,125.0 435.1,127.1 435.2,130.2 435.3,135.3 435.4,147.6 435.5,143.9 435.6,134.2 435.7,129.6 435.8,126.7 435.9,124.8 436.0,123.6 436.1,122.8 436.2,122.5 436.3,122.5 436.4,122.9 436.5,123.8 436.6,125.1 436.7,127.1 436.8,130.2 436.9,135.1 437.0,146.4 437.1,145.2 437.2,134.8 437.3,130.0 437.4,127.1 437.5,125.1 437.6,123.9 437.7,123.1 437.8,122.7 437.9,122.7 438.0,123.1 438.1,123.9 438.2,125.2 438.3,127.2 438.4,130.1 438.5,134.9 438.6,145.3 438.7,146.7 438.8,135.4 438.9,130.4 439.0,127.4 439.1,125.4 439.2,124.1 439.3,123.3 439.4,122.9 439.5,122.9 439.6,123.3 439.7,124.0 439.8,125.3 439.9,127.2 440.0,130.1 440.1,134.7 440.2,144.4 440.3,148.3 440.4,136.0 440.5,130.9 440.6,127.8 440.7,125.7 440.8,124.4 440.9,123.5 441.0,123.1 441.1,123.1 441.2,123.4 441.3,124.2 441.4,125.4 441.5,127.3 441.6,130.1 441.7,134.5 441.8,143.6 441.9,150.2 442.0,136.6 442.1,131.3 442.2,128.1 442.3,126.0 442.4,124.6 442.5,123.8 442.6,123.3 442.7,123.2 442.8,123.6 442.9,124.3 443.0,125.5 443.1,127.3 443.2,130.1 443.3,134.4 443.4,142.9 443.5,152.4 443.6,137.3 443.7,131.7 443.8,128.5 443.9,126.3 444.0,124.9 444.1,124.0 444.2,123.5 444.3,123.4 444.4,123.7 444.5,124.4 444.6,125.6 444.7,127.4 444.8,130.0 444.9,134.2 445.0,142.2 445.1,155.2 445.2,138.0 445.3,132.2 445.4,128.8 445.5,126.6 445.6,125.2 445.7,124.2 445.8,123.7 445.9,123.6 446.0,123.9 446.1,124.5 446.2,125.7 446.3,127.4 446.4,130.0 446.5,134.0 446.6,141.6 446.7,158.8 446.8,138.7 446.9,132.6 447.0,129.2 447.1,126.9 447.2,125.4 447.3,124.4 447.4,123.9 447.5,123.8 447.6,124.0 447.7,124.7 447.8,125.8 447.9,127.5 448.0,130.0 448.1,133.9 448.2,141.1 448.3,164.4 448.4,139.4 448.5,133.1 448.6,129.5 448.7,127.2 448.8,125.7 448.9,124.6 449.0,124.1 449.1,123.9 449.2,124.2 449.3,124.8 449.4,125.9 449.5,127.5 449.6,130.0 449.7,133.7 449.8,140.6 449.9,166.0 450.0,140.1 450.1,133.5 450.2,129.9 450.3,127.5 450.4,125.9 450.5,124.9 450.6,124.3 450.7,124.1 450.8,124.3 450.9,124.9 451.0,125.9 451.1,127.6 451.2,129.9 451.3,133.6 451.4,140.2 451.5,166.0 451.6,140.9 451.7,134.0 451.8,130.2 451.9,127.8 452.0,126.1 452.1,125.1 452.2,124.5 452.3,124.3 452.4,124.4 452.5,125.0 452.6,126.0 452.7,127.6 452.8,129.9 452.9,133.5 453.0,139.7 453.1,163.5 453.2,141.8 453.3,134.5 453.4,130.6 453.5,128.1 453.6,126.4 453.7,125.3 453.8,124.6 453.9,124.4 454.0,124.6 454.1,125.1 454.2,126.1 454.3,127.6 454.4,129.9 454.5,133.4 454.6,139.3 454.7,158.8 454.8,142.6 454.9,134.9 455.0,130.9 455.1,128.3 455.2,126.6 455.3,125.5 455.4,124.8 455.5,124.6 455.6,124.7 455.7,125.2 455.8,126.2 455.9,127.7 456.0,129.9 456.1,133.2 456.2,139.0 456.3,155.7 456.4,143.6 456.5,135.4 456.6,131.3 456.7,128.6 456.8,126.9 456.9,125.7 457.0,125.0 457.1,124.7 457.2,124.8 457.3,125.3 457.4,126.2 457.5,127.7 457.6,129.9 457.7,133.1 457.8,138.6 457.9,153.4 458.0,144.5 458.1,135.9 458.2,131.6 458.3,128.9 458.4,127.1 458.5,125.9 458.6,125.2 458.7,124.9 458.8,124.9 458.9,125.4 459.0,126.3 459.1,127.7 459.2,129.8 459.3,133.0 459.4,138.3 459.5,151.6 459.6,145.6 459.7,136.4 459.8,132.0 459.9,129.2 460.0,127.3 460.1,126.1 460.2,125.4 460.3,125.0 460.4,125.1 460.5,125.5 460.6,126.4 460.7,127.8 460.8,129.8 460.9,132.9 461.0,138.0 461.1,150.1 461.2,146.8 461.3,136.9 461.4,132.3 461.5,129.5 461.6,127.6 461.7,126.3 461.8,125.5 461.9,125.2 462.0,125.2 462.1,125.6 462.2,126.5 462.3,127.8 462.4,129.8 462.5,132.8 462.6,137.7 462.7,148.8 462.8,148.0 462.9,137.5 463.0,132.7 463.1,129.8 463.2,127.8 463.3,126.5 463.4,125.7 463.5,125.3 463.6,125.3 463.7,125.7 463.8,126.5 463.9,127.8 464.0,129.8 464.1,132.7 464.2,137.4 464.3,147.7 464.4,149.5 464.5,138.0 464.6,133.1 464.7,130.0 464.8,128.0 464.9,126.7 465.0,125.9 465.1,125.4 465.2,125.4 465.3,125.8 465.4,126.6 465.5,127.9 465.6,129.8 465.7,132.6 465.8,137.2 465.9,146.8 466.0,151.1 466.1,138.6 466.2,133.4 466.3,130.3 466.4,128.3 466.5,126.9 466.6,126.0 466.7,125.6 466.8,125.5 466.9,125.9 467.0,126.6 467.1,127.9 467.2,129.7 467.3,132.5 467.4,136.9 467.5,145.9 467.6,152.9 467.7,139.1 467.8,133.8 467.9,130.6 468.0,128.5 468.1,127.1 468.2,126.2 468.3,125.7 468.4,125.7 468.5,126.0 468.6,126.7 468.7,127.9 468.8,129.7 468.9,132.4 469.0,136.7 469.1,145.1 469.2,155.1 469.3,139.7 469.4,134.2 469.5,130.9 469.6,128.7 469.7,127.3 469.8,126.3 469.9,125.9 470.0,125.8 470.1,126.1 470.2,126.8 470.3,127.9 470.4,129.7 470.5,132.3 470.6,136.5 470.7,144.4 470.8,157.9 470.9,140.3 471.0,134.5 471.1,131.2 471.2,128.9 471.3,127.5 471.4,126.5 471.5,126.0 471.6,125.9 471.7,126.1 471.8,126.8 471.9,127.9 472.0,129.7 472.1,132.2 472.2,136.2 472.3,143.8 472.4,161.7 472.5,141.0 472.6,134.9 472.7,131.4 472.8,129.2 472.9,127.6 473.0,126.7 473.1,126.1 473.2,126.0 473.3,126.2 473.4,126.9 473.5,128.0 473.6,129.7 473.7,132.2 473.8,136.0 473.9,143.2 474.0,166.0 474.1,141.6 474.2,135.3 474.3,131.7 474.4,129.4 474.5,127.8 474.6,126.8 474.7,126.2 474.8,126.1 474.9,126.3 475.0,126.9 475.1,128.0 475.2,129.6 475.3,132.1 475.4,135.8 475.5,142.7 475.6,166.0 475.7,142.3 475.8,135.7 475.9,132.0 476.0,129.6 476.1,128.0 476.2,127.0 476.3,126.4 476.4,126.2 476.5,126.4 476.6,127.0 476.7,128.0 476.8,129.6 476.9,132.0 477.0,135.6 477.1,142.1 477.2,166.0 477.3,143.1 477.4,136.1 477.5,132.3 477.6,129.8 477.7,128.2 477.8,127.1 477.9,126.5 478.0,126.3 478.1,126.5 478.2,127.0 478.3,128.0 478.4,129.6 478.5,131.9 478.6,135.4 478.7,141.7 478.8,164.7 478.9,143.8 479.0,136.5 479.1,132.6 479.2,130.1 479.3,128.4 479.4,127.3 479.5,126.6 479.6,126.4 479.7,126.5 479.8,127.1 479.9,128.0 480.0,129.6 480.1,131.8 480.2,135.3 480.3,141.2 480.4,160.3 480.5,144.7 480.6,136.9 480.7,132.9 480.8,130.3 480.9,128.6 481.0,127.4 481.1,126.7 481.2,126.5 481.3,126.6 481.4,127.1 481.5,128.1 481.6,129.5 481.7,131.7 481.8,135.1 481.9,140.8 482.0,157.2 482.1,145.5 482.2,137.4 482.3,133.2 482.4,130.5 482.5,128.7 482.6,127.6 482.7,126.9 482.8,126.6 482.9,126.7 483.0,127.2 483.1,128.1 483.2,129.5 483.3,131.7 483.4,134.9 483.5,140.4 483.6,155.0 483.7,146.5 483.8,137.8 483.9,133.5 484.0,130.7 484.1,128.9 484.2,127.7 484.3,127.0 484.4,126.7 484.5,126.7 484.6,127.2 484.7,128.1 484.8,129.5 484.9,131.6 485.0,134.7 485.1,140.0 485.2,153.1 485.3,147.5 485.4,138.2 485.5,133.8 485.6,131.0 485.7,129.1 485.8,127.8 485.9,127.1 486.0,126.8 486.1,126.8 486.2,127.2 486.3,128.1 486.4,129.5 486.5,131.5 486.6,134.6 486.7,139.6 486.8,151.6 486.9,148.6 487.0,138.7 487.1,134.1 487.2,131.2 487.3,129.3 487.4,128.0 487.5,127.2 487.6,126.8 487.7,126.9 487.8,127.3 487.9,128.1 488.0,129.4 488.1,131.4 488.2,134.4 488.3,139.3 488.4,150.3 488.5,149.8 488.6,139.2 488.7,134.4 488.8,131.4 488.9,129.4 489.0,128.1 489.1,127.3 489.2,126.9 489.3,126.9 489.4,127.3 489.5,128.1 489.6,129.4 489.7,131.4 489.8,134.3 489.9,139.0 490.0,149.2 490.1,151.2 490.2,139.6 490.3,134.7 490.4,131.6 490.5,129.6 490.6,128.3 490.7,127.4 490.8,127.0 490.9,127.0 491.0,127.3 491.1,128.1 491.2,129.4 491.3,131.3 491.4,134.1 491.5,138.7 491.6,148.2 491.7,152.8 491.8,140.2 491.9,135.0 492.0,131.9 492.1,129.8 492.2,128.4 492.3,127.5 492.4,127.1 492.5,127.0 492.6,127.4 492.7,128.1 492.9,129.4 493.0,131.2 493.1,134.0 493.2,138.4 493.3,147.3 493.4,154.6 493.5,140.7 493.6,135.3 493.7,132.1 493.8,130.0 493.9,128.5 494.0,127.6 494.1,127.2 494.2,127.1 494.3,127.4 494.4,128.1 494.5,129.3 494.6,131.1 494.7,133.8 494.8,138.1 494.9,146.5 495.0,156.9 495.1,141.2 495.2,135.6 495.3,132.3 495.4,130.1 495.5,128.7 495.6,127.8 495.7,127.3 495.8,127.2 495.9,127.4 496.0,128.1 496.1,129.3 496.2,131.1 496.3,133.7 496.4,137.8 496.5,145.7 496.6,159.7 496.7,141.8 496.8,135.9 496.9,132.5 497.0,130.3 497.1,128.8 497.2,127.9 497.3,127.3 497.4,127.2 497.5,127.5 497.6,128.1 497.7,129.3 497.8,131.0 497.9,133.5 498.0,137.5 498.1,145.0 498.2,163.6 498.3,142.4 498.4,136.3 498.5,132.8 498.6,130.5 498.7,128.9 498.8,128.0 498.9,127.4 499.0,127.3 499.1,127.5 499.2,128.1 499.3,129.2 499.4,130.9 499.5,133.4 499.6,137.3 499.7,144.4 499.8,166.0 499.9,143.0 500.0,136.6 500.1,133.0 500.2,130.7 500.3,129.1 500.4,128.1 500.5,127.5 500.6,127.3 500.7,127.5 500.8,128.1 500.9,129.2 501.0,130.8 501.1,133.3 501.2,137.0 501.3,143.8 501.4,166.0 501.5,143.6 501.6,136.9 501.7,133.2 501.8,130.8 501.9,129.2 502.0,128.2 502.1,127.6 502.2,127.4 502.3,127.5 502.4,128.1 502.5,129.2 502.6,130.8 502.7,133.1 502.8,136.8 502.9,143.2 503.0,166.0 503.1,144.3 503.2,137.3 503.3,133.5 503.4,131.0 503.5,129.3 503.6,128.3 503.7,127.6 503.8,127.4 503.9,127.6 504.0,128.1 504.1,129.1 504.2,130.7 504.3,133.0 504.4,136.5 504.5,142.7 504.6,165.1 504.7,145.0 504.8,137.6 504.9,133.7 505.0,131.2 505.1,129.5 505.2,128.4 505.3,127.7 505.4,127.5 505.5,127.6 505.6,128.1 505.7,129.1 505.8,130.6 505.9,132.9 506.0,136.3 506.1,142.2 506.2,160.8 506.3,145.8 506.4,138.0 506.5,133.9 506.6,131.3 506.7,129.6 506.8,128.4 506.9,127.8 507.0,127.5 507.1,127.6 507.2,128.1 507.3,129.1 507.4,130.5 507.5,132.7 507.6,136.1 507.7,141.7 507.8,157.9 507.9,146.6 508.0,138.4 508.1,134.2 508.2,131.5 508.3,129.7 508.4,128.5 508.5,127.8 508.6,127.5 508.7,127.6 508.8,128.1 508.9,129.0 509.0,130.5 509.1,132.6 509.2,135.8 509.3,141.3 509.4,155.6 509.5,147.5 509.6,138.8 509.7,134.4 509.8,131.7 509.9,129.9 510.0,128.6 510.1,127.9 510.2,127.6 510.3,127.6 510.4,128.1 510.5,129.0 510.6,130.4 510.7,132.5 510.8,135.6 510.9,140.8 511.0,153.8 511.1,148.5 511.2,139.2 511.3,134.7 511.4,131.9 511.5,130.0 511.6,128.7 511.7,128.0 511.8,127.6 511.9,127.7 512.0,128.1 512.1,128.9 512.2,130.3 512.3,132.3 512.4,135.4 512.5,140.4 512.6,152.3 512.7,149.6 512.8,139.6 512.9,134.9 513.0,132.0 513.1,130.1 513.2,128.8 513.3,128.0 513.4,127.7 513.5,127.7 513.6,128.1 513.7,128.9 513.8,130.2 513.9,132.2 514.0,135.2 514.1,140.0 514.2,150.9 514.3,150.8 514.4,140.0 514.5,135.2 514.6,132.2 514.7,130.2 514.8,128.9 514.9,128.1 515.0,127.7 515.1,127.7 515.2,128.1 515.3,128.9 515.4,130.2 515.5,132.1 515.6,135.0 515.7,139.7 515.8,149.8 515.9,152.1 516.0,140.4 516.1,135.4 516.2,132.4 516.3,130.4 516.4,129.0 516.5,128.2 516.6,127.7 516.7,127.7 516.8,128.0 516.9,128.8 517.0,130.1 517.1,132.0 517.2,134.8 517.3,139.3 517.4,148.7 517.5,153.7 517.6,140.9 517.7,135.7 517.8,132.6 517.9,130.5 518.0,129.1 518.1,128.2 518.2,127.8 518.3,127.7 518.4,128.0 518.5,128.8 518.6,130.0 518.7,131.8 518.8,134.6 518.9,139.0 519.0,147.8 519.1,155.5 519.2,141.4 519.3,135.9 519.4,132.7 519.5,130.6 519.6,129.2 519.7,128.3 519.8,127.8 519.9,127.7 520.0,128.0 520.1,128.7 520.2,129.9 520.3,131.7 520.4,134.4 520.5,138.6 520.6,146.9 520.7,157.8 520.8,141.9 520.9,136.2 521.0,132.9 521.1,130.7 521.2,129.3 521.3,128.3 521.4,127.8 521.5,127.7 521.6,128.0 521.7,128.7 521.8,129.8 521.9,131.6 522.0,134.2 522.1,138.3 522.2,146.1 522.3,160.7 522.4,142.4 522.5,136.5 522.6,133.1 522.7,130.9 522.8,129.3 522.9,128.4 523.0,127.9 523.1,127.7 523.2,128.0 523.3,128.6 523.4,129.8 523.5,131.5 523.6,134.0 523.7,138.0 523.8,145.4 523.9,164.7 524.0,142.9 524.1,136.8 524.2,133.3 524.3,131.0 524.4,129.4 524.5,128.4 524.6,127.9 524.7,127.7 524.8,128.0 524.9,128.6 525.0,129.7 525.1,131.3 525.2,133.8 525.3,137.7 525.4,144.7 525.5,166.0 525.6,143.5 525.7,137.1 525.8,133.4 525.9,131.1 526.0,129.5 526.1,128.5 526.2,127.9 526.3,127.7 526.4,127.9 526.5,128.5 526.6,129.6 526.7,131.2 526.8,133.6 526.9,137.4 527.0,144.1" fill="none" stroke="#4a90d9" stroke-width="1.2" stroke-linejoin="round"/>
  <text x="154.5" y="190" text-anchor="middle" font-size="8" fill="#6b7280">n / N</text>
  <text x="424.5" y="190" text-anchor="middle" font-size="8" fill="#6b7280">Normalized frequency (× Fₛ)</text>
</svg>
